<?xml version="1.0" encoding="UTF-8" standalone="no"?>
<!DOCTYPE svg PUBLIC "-//W3C//DTD SVG 1.1//EN"
 "http://www.w3.org/Graphics/SVG/1.1/DTD/svg11.dtd">
<!-- Generated by graphviz version 2.43.0 (0)
 -->
<!-- Title: include/989snd.h Pages: 1 -->
<svg width="468pt" height="82pt"
 viewBox="0.00 0.00 468.00 82.00" xmlns="http://www.w3.org/2000/svg" xmlns:xlink="http://www.w3.org/1999/xlink">
<g id="graph0" class="graph" transform="scale(1 1) rotate(0) translate(4 78)">
<title>include/989snd.h</title>
<!-- Node1 -->
<g id="Node000001" class="node">
<title>Node1</title>
<g id="a_Node000001"><a xlink:title="989snd sound driver.">
<polygon fill="#999999" stroke="#666666" points="283.5,-74 184.5,-74 184.5,-55 283.5,-55 283.5,-74"/>
<text text-anchor="middle" x="234" y="-62" font-family="Helvetica,sans-Serif" font-size="10.00">include/989snd.h</text>
</a>
</g>
</g>
<!-- Node2 -->
<g id="Node000002" class="node">
<title>Node2</title>
<g id="a_Node000002"><a xlink:href="989snd_8c.html" target="_top" xlink:title=" ">
<polygon fill="white" stroke="#666666" points="92,-19 0,-19 0,0 92,0 92,-19"/>
<text text-anchor="middle" x="46" y="-7" font-family="Helvetica,sans-Serif" font-size="10.00">src/P2/989snd.c</text>
</a>
</g>
</g>
<!-- Node1&#45;&gt;Node2 -->
<g id="edge1_Node000001_Node000002" class="edge">
<title>Node1&#45;&gt;Node2</title>
<g id="a_edge1_Node000001_Node000002"><a xlink:title=" ">
<path fill="none" stroke="#63b8ff" d="M193.86,-52.18C158.7,-42.27 108.37,-28.08 76.44,-19.08"/>
<polygon fill="#63b8ff" stroke="#63b8ff" points="193.22,-55.64 203.79,-54.98 195.12,-48.9 193.22,-55.64"/>
</a>
</g>
</g>
<!-- Node3 -->
<g id="Node000003" class="node">
<title>Node3</title>
<g id="a_Node000003"><a xlink:href="bis_8c.html" target="_top" xlink:title=" ">
<polygon fill="white" stroke="#666666" points="181.5,-19 110.5,-19 110.5,0 181.5,0 181.5,-19"/>
<text text-anchor="middle" x="146" y="-7" font-family="Helvetica,sans-Serif" font-size="10.00">src/P2/bis.c</text>
</a>
</g>
</g>
<!-- Node1&#45;&gt;Node3 -->
<g id="edge2_Node000001_Node000003" class="edge">
<title>Node1&#45;&gt;Node3</title>
<g id="a_edge2_Node000001_Node000003"><a xlink:title=" ">
<path fill="none" stroke="#63b8ff" d="M211.08,-49.7C195.05,-40.04 174.13,-27.44 160.4,-19.17"/>
<polygon fill="#63b8ff" stroke="#63b8ff" points="209.49,-52.82 219.86,-54.98 213.1,-46.83 209.49,-52.82"/>
</a>
</g>
</g>
<!-- Node4 -->
<g id="Node000004" class="node">
<title>Node4</title>
<g id="a_Node000004"><a xlink:href="cd_8c.html" target="_top" xlink:title=" ">
<polygon fill="white" stroke="#666666" points="268,-19 200,-19 200,0 268,0 268,-19"/>
<text text-anchor="middle" x="234" y="-7" font-family="Helvetica,sans-Serif" font-size="10.00">src/P2/cd.c</text>
</a>
</g>
</g>
<!-- Node1&#45;&gt;Node4 -->
<g id="edge3_Node000001_Node000004" class="edge">
<title>Node1&#45;&gt;Node4</title>
<g id="a_edge3_Node000001_Node000004"><a xlink:title=" ">
<path fill="none" stroke="#63b8ff" d="M234,-44.66C234,-35.93 234,-25.99 234,-19.09"/>
<polygon fill="#63b8ff" stroke="#63b8ff" points="230.5,-44.75 234,-54.75 237.5,-44.75 230.5,-44.75"/>
</a>
</g>
</g>
<!-- Node5 -->
<g id="Node000005" class="node">
<title>Node5</title>
<g id="a_Node000005"><a xlink:href="sound_8c.html" target="_top" xlink:title=" ">
<polygon fill="white" stroke="#666666" points="372,-19 286,-19 286,0 372,0 372,-19"/>
<text text-anchor="middle" x="329" y="-7" font-family="Helvetica,sans-Serif" font-size="10.00">src/P2/sound.c</text>
</a>
</g>
</g>
<!-- Node1&#45;&gt;Node5 -->
<g id="edge4_Node000001_Node000005" class="edge">
<title>Node1&#45;&gt;Node5</title>
<g id="a_edge4_Node000001_Node000005"><a xlink:title=" ">
<path fill="none" stroke="#63b8ff" d="M258.26,-49.97C275.63,-40.28 298.49,-27.52 313.46,-19.17"/>
<polygon fill="#63b8ff" stroke="#63b8ff" points="256.29,-47.06 249.26,-54.98 259.7,-53.17 256.29,-47.06"/>
</a>
</g>
</g>
<!-- Node6 -->
<g id="Node000006" class="node">
<title>Node6</title>
<g id="a_Node000006"><a xlink:href="sw_8c.html" target="_top" xlink:title=" ">
<polygon fill="white" stroke="#666666" points="460,-19 390,-19 390,0 460,0 460,-19"/>
<text text-anchor="middle" x="425" y="-7" font-family="Helvetica,sans-Serif" font-size="10.00">src/P2/sw.c</text>
</a>
</g>
</g>
<!-- Node1&#45;&gt;Node6 -->
<g id="edge5_Node000001_Node000006" class="edge">
<title>Node1&#45;&gt;Node6</title>
<g id="a_edge5_Node000001_Node000006"><a xlink:title=" ">
<path fill="none" stroke="#63b8ff" d="M274.78,-52.18C310.5,-42.27 361.63,-28.08 394.07,-19.08"/>
<polygon fill="#63b8ff" stroke="#63b8ff" points="273.39,-48.94 264.69,-54.98 275.26,-55.68 273.39,-48.94"/>
</a>
</g>
</g>
</g>
</svg>
