<?xml version="1.0" encoding="UTF-8" standalone="no"?>
<!DOCTYPE svg PUBLIC "-//W3C//DTD SVG 1.1//EN"
 "http://www.w3.org/Graphics/SVG/1.1/DTD/svg11.dtd">
<!-- Generated by graphviz version 2.43.0 (0)
 -->
<!-- Title: src/P2/actseg.c Pages: 1 -->
<svg width="269pt" height="247pt"
 viewBox="0.00 0.00 269.23 247.00" xmlns="http://www.w3.org/2000/svg" xmlns:xlink="http://www.w3.org/1999/xlink">
<g id="graph0" class="graph" transform="scale(1 1) rotate(0) translate(4 243)">
<title>src/P2/actseg.c</title>
<!-- Node1 -->
<g id="Node000001" class="node">
<title>Node1</title>
<g id="a_Node000001"><a xlink:title=" ">
<polygon fill="#999999" stroke="#666666" points="127.23,-239 38.23,-239 38.23,-220 127.23,-220 127.23,-239"/>
<text text-anchor="middle" x="82.73" y="-227" font-family="Helvetica,sans-Serif" font-size="10.00">src/P2/actseg.c</text>
</a>
</g>
</g>
<!-- Node2 -->
<g id="Node000002" class="node">
<title>Node2</title>
<g id="a_Node000002"><a xlink:href="actseg_8h.html" target="_top" xlink:title="Declarations for actor segments.">
<polygon fill="white" stroke="#666666" points="74.73,-184 16.73,-184 16.73,-165 74.73,-165 74.73,-184"/>
<text text-anchor="middle" x="45.73" y="-172" font-family="Helvetica,sans-Serif" font-size="10.00">actseg.h</text>
</a>
</g>
</g>
<!-- Node1&#45;&gt;Node2 -->
<g id="edge1_Node000001_Node000002" class="edge">
<title>Node1&#45;&gt;Node2</title>
<g id="a_edge1_Node000001_Node000002"><a xlink:title=" ">
<path fill="none" stroke="#63b8ff" d="M76.62,-219.75C71.45,-212.34 63.89,-201.5 57.54,-192.41"/>
<polygon fill="#63b8ff" stroke="#63b8ff" points="60.32,-190.29 51.73,-184.09 54.58,-194.29 60.32,-190.29"/>
</a>
</g>
</g>
<!-- Node8 -->
<g id="Node000008" class="node">
<title>Node8</title>
<g id="a_Node000008"><a xlink:href="asega_8h.html" target="_top" xlink:title=" ">
<polygon fill="white" stroke="#666666" points="159.23,-184 104.23,-184 104.23,-165 159.23,-165 159.23,-184"/>
<text text-anchor="middle" x="131.73" y="-172" font-family="Helvetica,sans-Serif" font-size="10.00">asega.h</text>
</a>
</g>
</g>
<!-- Node1&#45;&gt;Node8 -->
<g id="edge10_Node000001_Node000008" class="edge">
<title>Node1&#45;&gt;Node8</title>
<g id="a_edge10_Node000001_Node000008"><a xlink:title=" ">
<path fill="none" stroke="#63b8ff" d="M90.82,-219.75C97.89,-212.11 108.32,-200.82 116.88,-191.56"/>
<polygon fill="#63b8ff" stroke="#63b8ff" points="119.57,-193.81 123.79,-184.09 114.43,-189.06 119.57,-193.81"/>
</a>
</g>
</g>
<!-- Node3 -->
<g id="Node000003" class="node">
<title>Node3</title>
<g id="a_Node000003"><a xlink:href="act_8h.html" target="_top" xlink:title=" ">
<polygon fill="white" stroke="#666666" points="103.23,-129 62.23,-129 62.23,-110 103.23,-110 103.23,-129"/>
<text text-anchor="middle" x="82.73" y="-117" font-family="Helvetica,sans-Serif" font-size="10.00">act.h</text>
</a>
</g>
</g>
<!-- Node2&#45;&gt;Node3 -->
<g id="edge2_Node000002_Node000003" class="edge">
<title>Node2&#45;&gt;Node3</title>
<g id="a_edge2_Node000002_Node000003"><a xlink:title=" ">
<path fill="none" stroke="#63b8ff" d="M51.84,-164.75C57.01,-157.34 64.58,-146.5 70.93,-137.41"/>
<polygon fill="#63b8ff" stroke="#63b8ff" points="73.88,-139.29 76.74,-129.09 68.14,-135.29 73.88,-139.29"/>
</a>
</g>
</g>
<!-- Node4 -->
<g id="Node000004" class="node">
<title>Node4</title>
<g id="a_Node000004"><a xlink:href="vec_8h.html" target="_top" xlink:title="Vector math.">
<polygon fill="white" stroke="#666666" points="55.23,-19 12.23,-19 12.23,0 55.23,0 55.23,-19"/>
<text text-anchor="middle" x="33.73" y="-7" font-family="Helvetica,sans-Serif" font-size="10.00">vec.h</text>
</a>
</g>
</g>
<!-- Node2&#45;&gt;Node4 -->
<g id="edge8_Node000002_Node000004" class="edge">
<title>Node2&#45;&gt;Node4</title>
<g id="a_edge8_Node000002_Node000004"><a xlink:title=" ">
<path fill="none" stroke="#63b8ff" d="M40.42,-164.87C30.45,-148.11 9.27,-109.67 1.73,-74 -0.01,-65.74 -0.86,-63.04 1.73,-55 5.07,-44.62 11.83,-34.62 18.28,-26.74"/>
<polygon fill="#63b8ff" stroke="#63b8ff" points="21.02,-28.92 24.98,-19.1 15.76,-24.31 21.02,-28.92"/>
</a>
</g>
</g>
<!-- Node5 -->
<g id="Node000005" class="node">
<title>Node5</title>
<g id="a_Node000005"><a xlink:href="mat_8h.html" target="_top" xlink:title="3x3 and 4x4 matrix types.">
<polygon fill="white" stroke="#666666" points="56.23,-74 11.23,-74 11.23,-55 56.23,-55 56.23,-74"/>
<text text-anchor="middle" x="33.73" y="-62" font-family="Helvetica,sans-Serif" font-size="10.00">mat.h</text>
</a>
</g>
</g>
<!-- Node2&#45;&gt;Node5 -->
<g id="edge9_Node000002_Node000005" class="edge">
<title>Node2&#45;&gt;Node5</title>
<g id="a_edge9_Node000002_Node000005"><a xlink:title=" ">
<path fill="none" stroke="#63b8ff" d="M44.75,-164.66C42.81,-147.17 38.43,-107.8 35.82,-84.27"/>
<polygon fill="#63b8ff" stroke="#63b8ff" points="39.28,-83.71 34.69,-74.16 32.32,-84.48 39.28,-83.71"/>
</a>
</g>
</g>
<!-- Node3&#45;&gt;Node4 -->
<g id="edge3_Node000003_Node000004" class="edge">
<title>Node3&#45;&gt;Node4</title>
<g id="a_edge3_Node000003_Node000004"><a xlink:title=" ">
<path fill="none" stroke="#63b8ff" d="M81.25,-109.96C78.87,-97.46 73.56,-73.64 64.73,-55 60.1,-45.23 53.39,-35.28 47.4,-27.26"/>
<polygon fill="#63b8ff" stroke="#63b8ff" points="49.99,-24.9 41.08,-19.16 44.47,-29.2 49.99,-24.9"/>
</a>
</g>
</g>
<!-- Node3&#45;&gt;Node5 -->
<g id="edge4_Node000003_Node000005" class="edge">
<title>Node3&#45;&gt;Node5</title>
<g id="a_edge4_Node000003_Node000005"><a xlink:title=" ">
<path fill="none" stroke="#63b8ff" d="M74.64,-109.75C67.58,-102.11 57.14,-90.82 48.58,-81.56"/>
<polygon fill="#63b8ff" stroke="#63b8ff" points="51.03,-79.06 41.67,-74.09 45.89,-83.81 51.03,-79.06"/>
</a>
</g>
</g>
<!-- Node6 -->
<g id="Node000006" class="node">
<title>Node6</title>
<g id="a_Node000006"><a xlink:href="dl_8h.html" target="_top" xlink:title="Doubly&#45;linked list.">
<polygon fill="white" stroke="#666666" points="148.23,-74 113.23,-74 113.23,-55 148.23,-55 148.23,-74"/>
<text text-anchor="middle" x="130.73" y="-62" font-family="Helvetica,sans-Serif" font-size="10.00">dl.h</text>
</a>
</g>
</g>
<!-- Node3&#45;&gt;Node6 -->
<g id="edge6_Node000003_Node000006" class="edge">
<title>Node3&#45;&gt;Node6</title>
<g id="a_edge6_Node000003_Node000006"><a xlink:title=" ">
<path fill="none" stroke="#63b8ff" d="M90.66,-109.75C97.58,-102.11 107.8,-90.82 116.18,-81.56"/>
<polygon fill="#63b8ff" stroke="#63b8ff" points="118.83,-83.85 122.95,-74.09 113.65,-79.15 118.83,-83.85"/>
</a>
</g>
</g>
<!-- Node5&#45;&gt;Node4 -->
<g id="edge5_Node000005_Node000004" class="edge">
<title>Node5&#45;&gt;Node4</title>
<g id="a_edge5_Node000005_Node000004"><a xlink:title=" ">
<path fill="none" stroke="#63b8ff" d="M33.73,-54.75C33.73,-47.8 33.73,-37.85 33.73,-29.13"/>
<polygon fill="#63b8ff" stroke="#63b8ff" points="37.23,-29.09 33.73,-19.09 30.23,-29.09 37.23,-29.09"/>
</a>
</g>
</g>
<!-- Node7 -->
<g id="Node000007" class="node">
<title>Node7</title>
<g id="a_Node000007"><a xlink:href="oid_8h.html" target="_top" xlink:title="Object IDs.">
<polygon fill="white" stroke="#666666" points="151.23,-19 110.23,-19 110.23,0 151.23,0 151.23,-19"/>
<text text-anchor="middle" x="130.73" y="-7" font-family="Helvetica,sans-Serif" font-size="10.00">oid.h</text>
</a>
</g>
</g>
<!-- Node6&#45;&gt;Node7 -->
<g id="edge7_Node000006_Node000007" class="edge">
<title>Node6&#45;&gt;Node7</title>
<g id="a_edge7_Node000006_Node000007"><a xlink:title=" ">
<path fill="none" stroke="#63b8ff" d="M130.73,-54.75C130.73,-47.8 130.73,-37.85 130.73,-29.13"/>
<polygon fill="#63b8ff" stroke="#63b8ff" points="134.23,-29.09 130.73,-19.09 127.23,-29.09 134.23,-29.09"/>
</a>
</g>
</g>
<!-- Node8&#45;&gt;Node6 -->
<g id="edge13_Node000008_Node000006" class="edge">
<title>Node8&#45;&gt;Node6</title>
<g id="a_edge13_Node000008_Node000006"><a xlink:title=" ">
<path fill="none" stroke="#63b8ff" d="M131.65,-164.66C131.49,-147.17 131.12,-107.8 130.91,-84.27"/>
<polygon fill="#63b8ff" stroke="#63b8ff" points="134.4,-84.13 130.81,-74.16 127.4,-84.19 134.4,-84.13"/>
</a>
</g>
</g>
<!-- Node9 -->
<g id="Node000009" class="node">
<title>Node9</title>
<g id="a_Node000009"><a xlink:href="basic_8h.html" target="_top" xlink:title="Basic object.">
<polygon fill="white" stroke="#666666" points="225.23,-129 174.23,-129 174.23,-110 225.23,-110 225.23,-129"/>
<text text-anchor="middle" x="199.73" y="-117" font-family="Helvetica,sans-Serif" font-size="10.00">basic.h</text>
</a>
</g>
</g>
<!-- Node8&#45;&gt;Node9 -->
<g id="edge11_Node000008_Node000009" class="edge">
<title>Node8&#45;&gt;Node9</title>
<g id="a_edge11_Node000008_Node000009"><a xlink:title=" ">
<path fill="none" stroke="#63b8ff" d="M142.66,-164.98C152.81,-157.07 168.15,-145.11 180.38,-135.58"/>
<polygon fill="#63b8ff" stroke="#63b8ff" points="182.87,-138.08 188.61,-129.17 178.57,-132.56 182.87,-138.08"/>
</a>
</g>
</g>
<!-- Node10 -->
<g id="Node000010" class="node">
<title>Node10</title>
<g id="a_Node000010"><a xlink:href="sidebag_8h.html" target="_top" xlink:title="Sidebag for splice.">
<polygon fill="white" stroke="#666666" points="261.23,-74 166.23,-74 166.23,-55 261.23,-55 261.23,-74"/>
<text text-anchor="middle" x="213.73" y="-62" font-family="Helvetica,sans-Serif" font-size="10.00">splice/sidebag.h</text>
</a>
</g>
</g>
<!-- Node9&#45;&gt;Node10 -->
<g id="edge12_Node000009_Node000010" class="edge">
<title>Node9&#45;&gt;Node10</title>
<g id="a_edge12_Node000009_Node000010"><a xlink:title=" ">
<path fill="none" stroke="#63b8ff" d="M202.04,-109.75C203.9,-102.72 206.57,-92.62 208.89,-83.84"/>
<polygon fill="#63b8ff" stroke="#63b8ff" points="212.29,-84.65 211.46,-74.09 205.52,-82.86 212.29,-84.65"/>
</a>
</g>
</g>
</g>
</svg>
