<?xml version="1.0" encoding="UTF-8" standalone="no"?>
<!DOCTYPE svg PUBLIC "-//W3C//DTD SVG 1.1//EN"
 "http://www.w3.org/Graphics/SVG/1.1/DTD/svg11.dtd">
<!-- Generated by graphviz version 2.43.0 (0)
 -->
<!-- Title: include/anim.h Pages: 1 -->
<svg width="463pt" height="308pt"
 viewBox="0.00 0.00 462.99 308.00" xmlns="http://www.w3.org/2000/svg" xmlns:xlink="http://www.w3.org/1999/xlink">
<g id="graph0" class="graph" transform="scale(1 1) rotate(0) translate(4 304)">
<title>include/anim.h</title>
<polygon fill="white" stroke="transparent" points="-4,4 -4,-304 458.99,-304 458.99,4 -4,4"/>
<!-- Node1 -->
<g id="node1" class="node">
<title>Node1</title>
<g id="a_node1"><a xlink:title="Animation.">
<polygon fill="#bfbfbf" stroke="black" points="74.58,-280.5 74.58,-299.5 163.58,-299.5 163.58,-280.5 74.58,-280.5"/>
<text text-anchor="middle" x="119.08" y="-287.5" font-family="Helvetica,sans-Serif" font-size="10.00">include/anim.h</text>
</a>
</g>
</g>
<!-- Node2 -->
<g id="node2" class="node">
<title>Node2</title>
<g id="a_node2"><a xlink:href="common_8h.html" target="_top" xlink:title="Common header file.">
<polygon fill="white" stroke="black" points="210.08,-56.5 210.08,-75.5 278.08,-75.5 278.08,-56.5 210.08,-56.5"/>
<text text-anchor="middle" x="244.08" y="-63.5" font-family="Helvetica,sans-Serif" font-size="10.00">common.h</text>
</a>
</g>
</g>
<!-- Node1&#45;&gt;Node2 -->
<g id="edge1" class="edge">
<title>Node1&#45;&gt;Node2</title>
<path fill="none" stroke="midnightblue" d="M106.75,-280.49C69.67,-253.92 -35.32,-170.74 13.08,-112 36.29,-83.83 139.62,-73.06 199.93,-69.13"/>
<polygon fill="midnightblue" stroke="midnightblue" points="200.18,-72.62 209.94,-68.51 199.75,-65.63 200.18,-72.62"/>
</g>
<!-- Node7 -->
<g id="node7" class="node">
<title>Node7</title>
<g id="a_node7"><a xlink:href="lo_8h.html" target="_top" xlink:title="Level objects.">
<polygon fill="white" stroke="black" points="249.58,-224.5 249.58,-243.5 284.58,-243.5 284.58,-224.5 249.58,-224.5"/>
<text text-anchor="middle" x="267.08" y="-231.5" font-family="Helvetica,sans-Serif" font-size="10.00">lo.h</text>
</a>
</g>
</g>
<!-- Node1&#45;&gt;Node7 -->
<g id="edge6" class="edge">
<title>Node1&#45;&gt;Node7</title>
<path fill="none" stroke="midnightblue" d="M142.53,-280.44C168.96,-270.8 211.85,-255.15 239.77,-244.97"/>
<polygon fill="midnightblue" stroke="midnightblue" points="241.12,-248.2 249.31,-241.48 238.72,-241.62 241.12,-248.2"/>
</g>
<!-- Node3 -->
<g id="node3" class="node">
<title>Node3</title>
<g id="a_node3"><a xlink:href="include__asm_8h.html" target="_top" xlink:title=" ">
<polygon fill="white" stroke="black" points="42.58,-0.5 42.58,-19.5 129.58,-19.5 129.58,-0.5 42.58,-0.5"/>
<text text-anchor="middle" x="86.08" y="-7.5" font-family="Helvetica,sans-Serif" font-size="10.00">include_asm.h</text>
</a>
</g>
</g>
<!-- Node2&#45;&gt;Node3 -->
<g id="edge2" class="edge">
<title>Node2&#45;&gt;Node3</title>
<path fill="none" stroke="midnightblue" d="M219.05,-56.44C192.47,-47.36 150.27,-32.94 120.56,-22.78"/>
<polygon fill="midnightblue" stroke="midnightblue" points="121.59,-19.44 111,-19.52 119.33,-26.06 121.59,-19.44"/>
</g>
<!-- Node4 -->
<g id="node4" class="node">
<title>Node4</title>
<g id="a_node4"><a xlink:href="include__rodata_8h.html" target="_top" xlink:title=" ">
<polygon fill="white" stroke="black" points="148.08,-0.5 148.08,-19.5 246.08,-19.5 246.08,-0.5 148.08,-0.5"/>
<text text-anchor="middle" x="197.08" y="-7.5" font-family="Helvetica,sans-Serif" font-size="10.00">include_rodata.h</text>
</a>
</g>
</g>
<!-- Node2&#45;&gt;Node4 -->
<g id="edge3" class="edge">
<title>Node2&#45;&gt;Node4</title>
<path fill="none" stroke="midnightblue" d="M236.32,-56.08C229.55,-48.3 219.54,-36.8 211.33,-27.37"/>
<polygon fill="midnightblue" stroke="midnightblue" points="213.9,-25 204.7,-19.75 208.62,-29.59 213.9,-25"/>
</g>
<!-- Node5 -->
<g id="node5" class="node">
<title>Node5</title>
<g id="a_node5"><a xlink:href="types_8h.html" target="_top" xlink:title="Common types used across the codebase.">
<polygon fill="white" stroke="black" points="264.58,-0.5 264.58,-19.5 317.58,-19.5 317.58,-0.5 264.58,-0.5"/>
<text text-anchor="middle" x="291.08" y="-7.5" font-family="Helvetica,sans-Serif" font-size="10.00">types.h</text>
</a>
</g>
</g>
<!-- Node2&#45;&gt;Node5 -->
<g id="edge4" class="edge">
<title>Node2&#45;&gt;Node5</title>
<path fill="none" stroke="midnightblue" d="M251.84,-56.08C258.62,-48.3 268.62,-36.8 276.84,-27.37"/>
<polygon fill="midnightblue" stroke="midnightblue" points="279.54,-29.59 283.47,-19.75 274.26,-25 279.54,-29.59"/>
</g>
<!-- Node6 -->
<g id="node6" class="node">
<title>Node6</title>
<g id="a_node6"><a xlink:href="vtables_8h.html" target="_top" xlink:title="Manually crafted vtables for various structs.">
<polygon fill="white" stroke="black" points="336.08,-0.5 336.08,-19.5 398.08,-19.5 398.08,-0.5 336.08,-0.5"/>
<text text-anchor="middle" x="367.08" y="-7.5" font-family="Helvetica,sans-Serif" font-size="10.00">vtables.h</text>
</a>
</g>
</g>
<!-- Node2&#45;&gt;Node6 -->
<g id="edge5" class="edge">
<title>Node2&#45;&gt;Node6</title>
<path fill="none" stroke="midnightblue" d="M263.57,-56.44C283.72,-47.6 315.4,-33.69 338.41,-23.59"/>
<polygon fill="midnightblue" stroke="midnightblue" points="339.93,-26.74 347.68,-19.52 337.12,-20.33 339.93,-26.74"/>
</g>
<!-- Node7&#45;&gt;Node2 -->
<g id="edge7" class="edge">
<title>Node7&#45;&gt;Node2</title>
<path fill="none" stroke="midnightblue" d="M284.76,-231.21C325.59,-226.68 424.42,-213.28 444.08,-188 453.66,-175.68 463.46,-138.58 441.08,-112 421.75,-89.04 340.26,-76.67 288.34,-70.99"/>
<polygon fill="midnightblue" stroke="midnightblue" points="288.69,-67.51 278.38,-69.94 287.95,-74.47 288.69,-67.51"/>
</g>
<!-- Node8 -->
<g id="node8" class="node">
<title>Node8</title>
<g id="a_node8"><a xlink:href="oid_8h.html" target="_top" xlink:title="Object IDs.">
<polygon fill="white" stroke="black" points="174.58,-112.5 174.58,-131.5 215.58,-131.5 215.58,-112.5 174.58,-112.5"/>
<text text-anchor="middle" x="195.08" y="-119.5" font-family="Helvetica,sans-Serif" font-size="10.00">oid.h</text>
</a>
</g>
</g>
<!-- Node7&#45;&gt;Node8 -->
<g id="edge8" class="edge">
<title>Node7&#45;&gt;Node8</title>
<path fill="none" stroke="midnightblue" d="M254.3,-224.42C243.06,-216.26 226.97,-203.02 217.08,-188 207.77,-173.85 202.01,-155.37 198.74,-141.73"/>
<polygon fill="midnightblue" stroke="midnightblue" points="202.08,-140.65 196.55,-131.61 195.24,-142.13 202.08,-140.65"/>
</g>
<!-- Node9 -->
<g id="node9" class="node">
<title>Node9</title>
<g id="a_node9"><a xlink:href="basic_8h.html" target="_top" xlink:title="Basic object.">
<polygon fill="white" stroke="black" points="118.58,-168.5 118.58,-187.5 169.58,-187.5 169.58,-168.5 118.58,-168.5"/>
<text text-anchor="middle" x="144.08" y="-175.5" font-family="Helvetica,sans-Serif" font-size="10.00">basic.h</text>
</a>
</g>
</g>
<!-- Node7&#45;&gt;Node9 -->
<g id="edge10" class="edge">
<title>Node7&#45;&gt;Node9</title>
<path fill="none" stroke="midnightblue" d="M249.46,-225.26C229.49,-216.5 196.65,-202.08 172.93,-191.67"/>
<polygon fill="midnightblue" stroke="midnightblue" points="174.27,-188.43 163.71,-187.62 171.45,-194.84 174.27,-188.43"/>
</g>
<!-- Node11 -->
<g id="node11" class="node">
<title>Node11</title>
<g id="a_node11"><a xlink:href="dl_8h.html" target="_top" xlink:title="Doubly&#45;linked list.">
<polygon fill="white" stroke="black" points="226.58,-168.5 226.58,-187.5 261.58,-187.5 261.58,-168.5 226.58,-168.5"/>
<text text-anchor="middle" x="244.08" y="-175.5" font-family="Helvetica,sans-Serif" font-size="10.00">dl.h</text>
</a>
</g>
</g>
<!-- Node7&#45;&gt;Node11 -->
<g id="edge14" class="edge">
<title>Node7&#45;&gt;Node11</title>
<path fill="none" stroke="midnightblue" d="M263.28,-224.08C260.17,-216.77 255.66,-206.18 251.79,-197.1"/>
<polygon fill="midnightblue" stroke="midnightblue" points="254.95,-195.58 247.81,-187.75 248.51,-198.32 254.95,-195.58"/>
</g>
<!-- Node12 -->
<g id="node12" class="node">
<title>Node12</title>
<g id="a_node12"><a xlink:href="sw_8h.html" target="_top" xlink:title="Scene world?">
<polygon fill="white" stroke="black" points="272.08,-112.5 272.08,-131.5 310.08,-131.5 310.08,-112.5 272.08,-112.5"/>
<text text-anchor="middle" x="291.08" y="-119.5" font-family="Helvetica,sans-Serif" font-size="10.00">sw.h</text>
</a>
</g>
</g>
<!-- Node7&#45;&gt;Node12 -->
<g id="edge17" class="edge">
<title>Node7&#45;&gt;Node12</title>
<path fill="none" stroke="midnightblue" d="M268.97,-224.37C272.84,-206.62 281.77,-165.67 287.02,-141.6"/>
<polygon fill="midnightblue" stroke="midnightblue" points="290.5,-142.11 289.21,-131.59 283.66,-140.62 290.5,-142.11"/>
</g>
<!-- Node13 -->
<g id="node13" class="node">
<title>Node13</title>
<g id="a_node13"><a xlink:href="frame_8h.html" target="_top" xlink:title=" ">
<polygon fill="white" stroke="black" points="328.08,-112.5 328.08,-131.5 414.08,-131.5 414.08,-112.5 328.08,-112.5"/>
<text text-anchor="middle" x="371.08" y="-119.5" font-family="Helvetica,sans-Serif" font-size="10.00">splice/frame.h</text>
</a>
</g>
</g>
<!-- Node7&#45;&gt;Node13 -->
<g id="edge19" class="edge">
<title>Node7&#45;&gt;Node13</title>
<path fill="none" stroke="midnightblue" d="M275.24,-224.37C292.63,-205.97 333.57,-162.67 355.91,-139.05"/>
<polygon fill="midnightblue" stroke="midnightblue" points="358.63,-141.26 362.96,-131.59 353.55,-136.45 358.63,-141.26"/>
</g>
<!-- Node14 -->
<g id="node14" class="node">
<title>Node14</title>
<g id="a_node14"><a xlink:href="mq_8h.html" target="_top" xlink:title="Message queue.">
<polygon fill="white" stroke="black" points="394.58,-168.5 394.58,-187.5 435.58,-187.5 435.58,-168.5 394.58,-168.5"/>
<text text-anchor="middle" x="415.08" y="-175.5" font-family="Helvetica,sans-Serif" font-size="10.00">mq.h</text>
</a>
</g>
</g>
<!-- Node7&#45;&gt;Node14 -->
<g id="edge21" class="edge">
<title>Node7&#45;&gt;Node14</title>
<path fill="none" stroke="midnightblue" d="M284.64,-226.59C309.27,-217.61 354.43,-201.13 384.61,-190.12"/>
<polygon fill="midnightblue" stroke="midnightblue" points="386.02,-193.33 394.22,-186.61 383.62,-186.75 386.02,-193.33"/>
</g>
<!-- Node8&#45;&gt;Node2 -->
<g id="edge9" class="edge">
<title>Node8&#45;&gt;Node2</title>
<path fill="none" stroke="midnightblue" d="M203.17,-112.08C210.24,-104.3 220.67,-92.8 229.23,-83.37"/>
<polygon fill="midnightblue" stroke="midnightblue" points="232.01,-85.51 236.14,-75.75 226.83,-80.8 232.01,-85.51"/>
</g>
<!-- Node9&#45;&gt;Node2 -->
<g id="edge11" class="edge">
<title>Node9&#45;&gt;Node2</title>
<path fill="none" stroke="midnightblue" d="M144.86,-168.48C146.49,-155.1 151.31,-128.93 165.08,-112 176.71,-97.7 194.17,-87.08 209.71,-79.77"/>
<polygon fill="midnightblue" stroke="midnightblue" points="211.34,-82.87 219.08,-75.63 208.52,-76.47 211.34,-82.87"/>
</g>
<!-- Node10 -->
<g id="node10" class="node">
<title>Node10</title>
<g id="a_node10"><a xlink:href="sidebag_8h.html" target="_top" xlink:title="Sidebag for splice.">
<polygon fill="white" stroke="black" points="22.58,-112.5 22.58,-131.5 117.58,-131.5 117.58,-112.5 22.58,-112.5"/>
<text text-anchor="middle" x="70.08" y="-119.5" font-family="Helvetica,sans-Serif" font-size="10.00">splice/sidebag.h</text>
</a>
</g>
</g>
<!-- Node9&#45;&gt;Node10 -->
<g id="edge12" class="edge">
<title>Node9&#45;&gt;Node10</title>
<path fill="none" stroke="midnightblue" d="M132.19,-168.32C120.93,-160.11 103.8,-147.6 90.37,-137.81"/>
<polygon fill="midnightblue" stroke="midnightblue" points="92.33,-134.9 82.19,-131.83 88.2,-140.56 92.33,-134.9"/>
</g>
<!-- Node10&#45;&gt;Node2 -->
<g id="edge13" class="edge">
<title>Node10&#45;&gt;Node2</title>
<path fill="none" stroke="midnightblue" d="M97.65,-112.44C127.18,-103.28 174.2,-88.69 206.96,-78.52"/>
<polygon fill="midnightblue" stroke="midnightblue" points="208.13,-81.82 216.64,-75.52 206.05,-75.14 208.13,-81.82"/>
</g>
<!-- Node11&#45;&gt;Node2 -->
<g id="edge15" class="edge">
<title>Node11&#45;&gt;Node2</title>
<path fill="none" stroke="midnightblue" d="M244.08,-168.37C244.08,-150.62 244.08,-109.67 244.08,-85.6"/>
<polygon fill="midnightblue" stroke="midnightblue" points="247.58,-85.59 244.08,-75.59 240.58,-85.59 247.58,-85.59"/>
</g>
<!-- Node11&#45;&gt;Node8 -->
<g id="edge16" class="edge">
<title>Node11&#45;&gt;Node8</title>
<path fill="none" stroke="midnightblue" d="M235.99,-168.08C228.93,-160.3 218.49,-148.8 209.93,-139.37"/>
<polygon fill="midnightblue" stroke="midnightblue" points="212.33,-136.8 203.02,-131.75 207.15,-141.51 212.33,-136.8"/>
</g>
<!-- Node12&#45;&gt;Node2 -->
<g id="edge18" class="edge">
<title>Node12&#45;&gt;Node2</title>
<path fill="none" stroke="midnightblue" d="M283.32,-112.08C276.55,-104.3 266.54,-92.8 258.33,-83.37"/>
<polygon fill="midnightblue" stroke="midnightblue" points="260.9,-81 251.7,-75.75 255.62,-85.59 260.9,-81"/>
</g>
<!-- Node13&#45;&gt;Node2 -->
<g id="edge20" class="edge">
<title>Node13&#45;&gt;Node2</title>
<path fill="none" stroke="midnightblue" d="M350.96,-112.44C330.06,-103.56 297.15,-89.56 273.37,-79.45"/>
<polygon fill="midnightblue" stroke="midnightblue" points="274.68,-76.21 264.11,-75.52 271.94,-82.65 274.68,-76.21"/>
</g>
<!-- Node14&#45;&gt;Node2 -->
<g id="edge22" class="edge">
<title>Node14&#45;&gt;Node2</title>
<path fill="none" stroke="midnightblue" d="M419.68,-168.38C426.18,-154.86 435.95,-128.5 423.08,-112 406.65,-90.93 335.67,-78.21 288.18,-71.91"/>
<polygon fill="midnightblue" stroke="midnightblue" points="288.5,-68.42 278.14,-70.63 287.61,-75.37 288.5,-68.42"/>
</g>
</g>
</svg>
