<?xml version="1.0" encoding="UTF-8" standalone="no"?>
<!DOCTYPE svg PUBLIC "-//W3C//DTD SVG 1.1//EN"
 "http://www.w3.org/Graphics/SVG/1.1/DTD/svg11.dtd">
<!-- Generated by graphviz version 2.43.0 (0)
 -->
<!-- Title: include/aseg.h Pages: 1 -->
<!--zoomable 467 -->

<svg id="main" version="1.1" xmlns="http://www.w3.org/2000/svg" xmlns:xlink="http://www.w3.org/1999/xlink" xml:space="preserve" onload="init(evt)">
<style type="text/css"><![CDATA[
.node, .edge {opacity: 0.7;}
.node.selected, .edge.selected {opacity: 1;}
.edge:hover path { stroke: red; }
.edge:hover polygon { stroke: red; fill: red; }
]]></style>

<defs>
  <circle id="rim" cx="0" cy="0" r="7"/>
  <circle id="rim2" cx="0" cy="0" r="3.5"/>
  <g id="zoomPlus">
    <use xlink:href="#rim" fill="#404040"><set attributeName="fill" to="#808080" begin="zoomplus.mouseover" end="zoomplus.mouseout"/></use>
    <path d="M-4,0h8M0,-4v8" fill="none" stroke="white" stroke-width="1.5" pointer-events="none"/>
  </g>
  <g id="zoomMin">
    <use xlink:href="#rim" fill="#404040"><set attributeName="fill" to="#808080" begin="zoomminus.mouseover" end="zoomminus.mouseout"/></use>
    <path d="M-4,0h8" fill="none" stroke="white" stroke-width="1.5" pointer-events="none"/>
  </g>
  <g id="arrowUp" transform="translate(30 24)">
    <use xlink:href="#rim"/>
    <path pointer-events="none" fill="none" stroke="white" stroke-width="1.5" d="M0,-3.0v7 M-2.5,-0.5L0,-3.0L2.5,-0.5"/>
  </g>
  <g id="arrowRight" transform="rotate(90) translate(36 -43)">
    <use xlink:href="#rim"/>
    <path pointer-events="none" fill="none" stroke="white" stroke-width="1.5" d="M0,-3.0v7 M-2.5,-0.5L0,-3.0L2.5,-0.5"/>
  </g>
  <g id="arrowDown" transform="rotate(180) translate(-30 -48)">
    <use xlink:href="#rim"/>
    <path pointer-events="none" fill="none" stroke="white" stroke-width="1.5" d="M0,-3.0v7 M-2.5,-0.5L0,-3.0L2.5,-0.5"/>
  </g>
  <g id="arrowLeft" transform="rotate(270) translate(-36 17)">
    <use xlink:href="#rim"/>
    <path pointer-events="none" fill="none" stroke="white" stroke-width="1.5" d="M0,-3.0v7 M-2.5,-0.5L0,-3.0L2.5,-0.5"/>
  </g>
  <g id="resetDef">
    <use xlink:href="#rim2" fill="#404040"><set attributeName="fill" to="#808080" begin="reset.mouseover" end="reset.mouseout"/></use>
  </g>
</defs>
<script type="application/ecmascript">
var viewWidth = 427;
var viewHeight = 467;
var sectionId = 'dynsection-0';
</script>
<script type="application/ecmascript" xlink:href="svg.min.js"/>
<svg id="graph" class="graph">
<g id="viewport">
<title>include/aseg.h</title>
<!-- Node1 -->
<g id="Node000001" class="node">
<title>Node1</title>
<g id="a_Node000001"><a xlink:title=" ">
<polygon fill="#999999" stroke="#666666" points="198,-459 111,-459 111,-440 198,-440 198,-459"/>
<text text-anchor="middle" x="154.5" y="-447" font-family="Helvetica,sans-Serif" font-size="10.00">include/aseg.h</text>
</a>
</g>
</g>
<!-- Node2 -->
<g id="Node000002" class="node">
<title>Node2</title>
<g id="a_Node000002"><a xlink:href="waypoint_8h.html" target="_top" xlink:title=" ">
<polygon fill="white" stroke="#666666" points="378,-404 307,-404 307,-385 378,-385 378,-404"/>
<text text-anchor="middle" x="342.5" y="-392" font-family="Helvetica,sans-Serif" font-size="10.00">waypoint.h</text>
</a>
</g>
</g>
<!-- Node1&#45;&gt;Node2 -->
<g id="edge1_Node000001_Node000002" class="edge">
<title>Node1&#45;&gt;Node2</title>
<g id="a_edge1_Node000001_Node000002"><a xlink:title=" ">
<path fill="none" stroke="#63b8ff" d="M184.71,-439.98C216.54,-431.01 266.86,-416.82 302.1,-406.89"/>
<polygon fill="#63b8ff" stroke="#63b8ff" points="303.38,-410.16 312.06,-404.08 301.48,-403.43 303.38,-410.16"/>
</a>
</g>
</g>
<!-- Node5 -->
<g id="Node000005" class="node">
<title>Node5</title>
<g id="a_Node000005"><a xlink:href="util_8h.html" target="_top" xlink:title="Utility functions.">
<polygon fill="white" stroke="#666666" points="223,-239 182,-239 182,-220 223,-220 223,-239"/>
<text text-anchor="middle" x="202.5" y="-227" font-family="Helvetica,sans-Serif" font-size="10.00">util.h</text>
</a>
</g>
</g>
<!-- Node1&#45;&gt;Node5 -->
<g id="edge25_Node000001_Node000005" class="edge">
<title>Node1&#45;&gt;Node5</title>
<g id="a_edge25_Node000001_Node000005"><a xlink:title=" ">
<path fill="none" stroke="#63b8ff" d="M154.17,-439.9C153.45,-414.08 153.27,-335.35 174.5,-275 177.98,-265.12 183.97,-255.15 189.51,-247.16"/>
<polygon fill="#63b8ff" stroke="#63b8ff" points="192.34,-249.22 195.44,-239.09 186.7,-245.08 192.34,-249.22"/>
</a>
</g>
</g>
<!-- Node8 -->
<g id="Node000008" class="node">
<title>Node8</title>
<g id="a_Node000008"><a xlink:href="sm_8h.html" target="_top" xlink:title="Probabilistic finite state machines.">
<polygon fill="white" stroke="#666666" points="174,-184 133,-184 133,-165 174,-165 174,-184"/>
<text text-anchor="middle" x="153.5" y="-172" font-family="Helvetica,sans-Serif" font-size="10.00">sm.h</text>
</a>
</g>
</g>
<!-- Node1&#45;&gt;Node8 -->
<g id="edge26_Node000001_Node000008" class="edge">
<title>Node1&#45;&gt;Node8</title>
<g id="a_edge26_Node000001_Node000008"><a xlink:title=" ">
<path fill="none" stroke="#63b8ff" d="M153.26,-439.99C152.02,-431.05 150.2,-416.57 149.5,-404 149.03,-395.57 149.42,-393.44 149.5,-385 150.17,-314.76 152.11,-231.28 153.02,-194.5"/>
<polygon fill="#63b8ff" stroke="#63b8ff" points="156.52,-194.37 153.27,-184.28 149.52,-194.19 156.52,-194.37"/>
</a>
</g>
</g>
<!-- Node3 -->
<g id="Node000003" class="node">
<title>Node3</title>
<g id="a_Node000003"><a xlink:href="alo_8h.html" target="_top" xlink:title=" ">
<polygon fill="white" stroke="#666666" points="306,-349 265,-349 265,-330 306,-330 306,-349"/>
<text text-anchor="middle" x="285.5" y="-337" font-family="Helvetica,sans-Serif" font-size="10.00">alo.h</text>
</a>
</g>
</g>
<!-- Node2&#45;&gt;Node3 -->
<g id="edge2_Node000002_Node000003" class="edge">
<title>Node2&#45;&gt;Node3</title>
<g id="a_edge2_Node000002_Node000003"><a xlink:title=" ">
<path fill="none" stroke="#63b8ff" d="M333.34,-384.98C325,-377.23 312.47,-365.58 302.32,-356.14"/>
<polygon fill="#63b8ff" stroke="#63b8ff" points="304.53,-353.42 294.82,-349.17 299.76,-358.54 304.53,-353.42"/>
</a>
</g>
</g>
<!-- Node10 -->
<g id="Node000010" class="node">
<title>Node10</title>
<g id="a_Node000010"><a xlink:href="oid_8h.html" target="_top" xlink:title="Object IDs.">
<polygon fill="white" stroke="#666666" points="272,-19 231,-19 231,0 272,0 272,-19"/>
<text text-anchor="middle" x="251.5" y="-7" font-family="Helvetica,sans-Serif" font-size="10.00">oid.h</text>
</a>
</g>
</g>
<!-- Node2&#45;&gt;Node10 -->
<g id="edge23_Node000002_Node000010" class="edge">
<title>Node2&#45;&gt;Node10</title>
<g id="a_edge23_Node000002_Node000010"><a xlink:title=" ">
<path fill="none" stroke="#63b8ff" d="M354.38,-384.88C375.75,-368.26 418.5,-329.52 418.5,-285.5 418.5,-285.5 418.5,-285.5 418.5,-118.5 418.5,-54.33 330.47,-26.41 282.24,-15.93"/>
<polygon fill="#63b8ff" stroke="#63b8ff" points="282.81,-12.47 272.31,-13.89 281.41,-19.33 282.81,-12.47"/>
</a>
</g>
</g>
<!-- Node11 -->
<g id="Node000011" class="node">
<title>Node11</title>
<g id="a_Node000011"><a xlink:href="mq_8h.html" target="_top" xlink:title="Message queue.">
<polygon fill="white" stroke="#666666" points="328,-74 287,-74 287,-55 328,-55 328,-74"/>
<text text-anchor="middle" x="307.5" y="-62" font-family="Helvetica,sans-Serif" font-size="10.00">mq.h</text>
</a>
</g>
</g>
<!-- Node2&#45;&gt;Node11 -->
<g id="edge24_Node000002_Node000011" class="edge">
<title>Node2&#45;&gt;Node11</title>
<g id="a_edge24_Node000002_Node000011"><a xlink:title=" ">
<path fill="none" stroke="#63b8ff" d="M347.78,-384.9C358.23,-367.07 380.5,-324.46 380.5,-285.5 380.5,-285.5 380.5,-285.5 380.5,-173.5 380.5,-134.97 348.21,-99.92 326.58,-80.77"/>
<polygon fill="#63b8ff" stroke="#63b8ff" points="328.79,-78.05 318.91,-74.23 324.25,-83.38 328.79,-78.05"/>
</a>
</g>
</g>
<!-- Node4 -->
<g id="Node000004" class="node">
<title>Node4</title>
<g id="a_Node000004"><a xlink:href="sound_8h.html" target="_top" xlink:title="Sound playback.">
<polygon fill="white" stroke="#666666" points="238,-294 183,-294 183,-275 238,-275 238,-294"/>
<text text-anchor="middle" x="210.5" y="-282" font-family="Helvetica,sans-Serif" font-size="10.00">sound.h</text>
</a>
</g>
</g>
<!-- Node3&#45;&gt;Node4 -->
<g id="edge3_Node000003_Node000004" class="edge">
<title>Node3&#45;&gt;Node4</title>
<g id="a_edge3_Node000003_Node000004"><a xlink:title=" ">
<path fill="none" stroke="#63b8ff" d="M273.45,-329.98C262.04,-321.92 244.67,-309.65 231.07,-300.03"/>
<polygon fill="#63b8ff" stroke="#63b8ff" points="232.96,-297.08 222.77,-294.17 228.92,-302.8 232.96,-297.08"/>
</a>
</g>
</g>
<!-- Node6 -->
<g id="Node000006" class="node">
<title>Node6</title>
<g id="a_Node000006"><a xlink:href="vec_8h.html" target="_top" xlink:title="Vector math.">
<polygon fill="white" stroke="#666666" points="292,-129 249,-129 249,-110 292,-110 292,-129"/>
<text text-anchor="middle" x="270.5" y="-117" font-family="Helvetica,sans-Serif" font-size="10.00">vec.h</text>
</a>
</g>
</g>
<!-- Node3&#45;&gt;Node6 -->
<g id="edge19_Node000003_Node000006" class="edge">
<title>Node3&#45;&gt;Node6</title>
<g id="a_edge19_Node000003_Node000006"><a xlink:title=" ">
<path fill="none" stroke="#63b8ff" d="M286.57,-329.74C289.48,-304.13 296.59,-227.28 285.5,-165 283.91,-156.07 280.87,-146.5 277.94,-138.53"/>
<polygon fill="#63b8ff" stroke="#63b8ff" points="281.18,-137.2 274.28,-129.16 274.66,-139.75 281.18,-137.2"/>
</a>
</g>
</g>
<!-- Node7 -->
<g id="Node000007" class="node">
<title>Node7</title>
<g id="a_Node000007"><a xlink:href="mat_8h.html" target="_top" xlink:title="3x3 and 4x4 matrix types.">
<polygon fill="white" stroke="#666666" points="276,-184 231,-184 231,-165 276,-165 276,-184"/>
<text text-anchor="middle" x="253.5" y="-172" font-family="Helvetica,sans-Serif" font-size="10.00">mat.h</text>
</a>
</g>
</g>
<!-- Node3&#45;&gt;Node7 -->
<g id="edge20_Node000003_Node000007" class="edge">
<title>Node3&#45;&gt;Node7</title>
<g id="a_edge20_Node000003_Node000007"><a xlink:title=" ">
<path fill="none" stroke="#63b8ff" d="M283.78,-329.74C278.77,-304.2 264.09,-229.43 257.18,-194.23"/>
<polygon fill="#63b8ff" stroke="#63b8ff" points="260.59,-193.45 255.23,-184.31 253.72,-194.79 260.59,-193.45"/>
</a>
</g>
</g>
<!-- Node9 -->
<g id="Node000009" class="node">
<title>Node9</title>
<g id="a_Node000009"><a xlink:href="dl_8h.html" target="_top" xlink:title="Doubly&#45;linked list.">
<polygon fill="white" stroke="#666666" points="269,-74 234,-74 234,-55 269,-55 269,-74"/>
<text text-anchor="middle" x="251.5" y="-62" font-family="Helvetica,sans-Serif" font-size="10.00">dl.h</text>
</a>
</g>
</g>
<!-- Node3&#45;&gt;Node9 -->
<g id="edge22_Node000003_Node000009" class="edge">
<title>Node3&#45;&gt;Node9</title>
<g id="a_edge22_Node000003_Node000009"><a xlink:title=" ">
<path fill="none" stroke="#63b8ff" d="M293.91,-329.8C309.77,-312.44 342.5,-271.63 342.5,-230.5 342.5,-230.5 342.5,-230.5 342.5,-173.5 342.5,-131.65 302.04,-97.59 275.08,-79.54"/>
<polygon fill="#63b8ff" stroke="#63b8ff" points="276.83,-76.51 266.53,-74.04 273.05,-82.4 276.83,-76.51"/>
</a>
</g>
</g>
<!-- Node12 -->
<g id="Node000012" class="node">
<title>Node12</title>
<g id="a_Node000012"><a xlink:href="lo_8h.html" target="_top" xlink:title="Level objects.">
<polygon fill="white" stroke="#666666" points="154,-129 119,-129 119,-110 154,-110 154,-129"/>
<text text-anchor="middle" x="136.5" y="-117" font-family="Helvetica,sans-Serif" font-size="10.00">lo.h</text>
</a>
</g>
</g>
<!-- Node3&#45;&gt;Node12 -->
<g id="edge21_Node000003_Node000012" class="edge">
<title>Node3&#45;&gt;Node12</title>
<g id="a_edge21_Node000003_Node000012"><a xlink:title=" ">
<path fill="none" stroke="#63b8ff" d="M264.57,-334.94C240.18,-329.81 199.96,-318.15 174.5,-294 135.4,-256.92 135.11,-236.62 123.5,-184 120.13,-168.72 124.26,-151.3 128.73,-138.58"/>
<polygon fill="#63b8ff" stroke="#63b8ff" points="132.04,-139.73 132.41,-129.15 125.52,-137.19 132.04,-139.73"/>
</a>
</g>
</g>
<!-- Node4&#45;&gt;Node5 -->
<g id="edge4_Node000004_Node000005" class="edge">
<title>Node4&#45;&gt;Node5</title>
<g id="a_edge4_Node000004_Node000005"><a xlink:title=" ">
<path fill="none" stroke="#63b8ff" d="M209.18,-274.75C208.13,-267.8 206.63,-257.85 205.31,-249.13"/>
<polygon fill="#63b8ff" stroke="#63b8ff" points="208.75,-248.45 203.8,-239.09 201.83,-249.5 208.75,-248.45"/>
</a>
</g>
</g>
<!-- Node5&#45;&gt;Node6 -->
<g id="edge5_Node000005_Node000006" class="edge">
<title>Node5&#45;&gt;Node6</title>
<g id="a_edge5_Node000005_Node000006"><a xlink:title=" ">
<path fill="none" stroke="#63b8ff" d="M203.8,-219.68C206.01,-206.83 211.38,-182.58 222.5,-165 229.74,-153.56 240.63,-143.13 250.21,-135.25"/>
<polygon fill="#63b8ff" stroke="#63b8ff" points="252.45,-137.94 258.17,-129.02 248.14,-132.43 252.45,-137.94"/>
</a>
</g>
</g>
<!-- Node5&#45;&gt;Node7 -->
<g id="edge6_Node000005_Node000007" class="edge">
<title>Node5&#45;&gt;Node7</title>
<g id="a_edge6_Node000005_Node000007"><a xlink:title=" ">
<path fill="none" stroke="#63b8ff" d="M210.92,-219.75C218.27,-212.11 229.13,-200.82 238.04,-191.56"/>
<polygon fill="#63b8ff" stroke="#63b8ff" points="240.82,-193.72 245.24,-184.09 235.78,-188.87 240.82,-193.72"/>
</a>
</g>
</g>
<!-- Node5&#45;&gt;Node8 -->
<g id="edge8_Node000005_Node000008" class="edge">
<title>Node5&#45;&gt;Node8</title>
<g id="a_edge8_Node000005_Node000008"><a xlink:title=" ">
<path fill="none" stroke="#63b8ff" d="M194.41,-219.75C187.34,-212.11 176.91,-200.82 168.35,-191.56"/>
<polygon fill="#63b8ff" stroke="#63b8ff" points="170.8,-189.06 161.44,-184.09 165.66,-193.81 170.8,-189.06"/>
</a>
</g>
</g>
<!-- Node7&#45;&gt;Node6 -->
<g id="edge7_Node000007_Node000006" class="edge">
<title>Node7&#45;&gt;Node6</title>
<g id="a_edge7_Node000007_Node000006"><a xlink:title=" ">
<path fill="none" stroke="#63b8ff" d="M256.31,-164.75C258.56,-157.72 261.8,-147.62 264.62,-138.84"/>
<polygon fill="#63b8ff" stroke="#63b8ff" points="268.02,-139.68 267.75,-129.09 261.36,-137.54 268.02,-139.68"/>
</a>
</g>
</g>
<!-- Node8&#45;&gt;Node9 -->
<g id="edge9_Node000008_Node000009" class="edge">
<title>Node8&#45;&gt;Node9</title>
<g id="a_edge9_Node000008_Node000009"><a xlink:title=" ">
<path fill="none" stroke="#63b8ff" d="M160.45,-164.65C170.34,-152.17 189.2,-128.82 206.5,-110 215.61,-100.09 226.3,-89.47 234.98,-81.1"/>
<polygon fill="#63b8ff" stroke="#63b8ff" points="237.47,-83.56 242.28,-74.12 232.63,-78.5 237.47,-83.56"/>
</a>
</g>
</g>
<!-- Node8&#45;&gt;Node11 -->
<g id="edge11_Node000008_Node000011" class="edge">
<title>Node8&#45;&gt;Node11</title>
<g id="a_edge11_Node000008_Node000011"><a xlink:title=" ">
<path fill="none" stroke="#63b8ff" d="M164.92,-164.91C181.44,-152.55 213.03,-129.13 240.5,-110 255.4,-99.62 272.44,-88.31 285.61,-79.69"/>
<polygon fill="#63b8ff" stroke="#63b8ff" points="287.57,-82.59 294.04,-74.19 283.75,-76.72 287.57,-82.59"/>
</a>
</g>
</g>
<!-- Node8&#45;&gt;Node12 -->
<g id="edge12_Node000008_Node000012" class="edge">
<title>Node8&#45;&gt;Node12</title>
<g id="a_edge12_Node000008_Node000012"><a xlink:title=" ">
<path fill="none" stroke="#63b8ff" d="M150.69,-164.75C148.44,-157.72 145.2,-147.62 142.38,-138.84"/>
<polygon fill="#63b8ff" stroke="#63b8ff" points="145.64,-137.54 139.25,-129.09 138.98,-139.68 145.64,-137.54"/>
</a>
</g>
</g>
<!-- Node9&#45;&gt;Node10 -->
<g id="edge10_Node000009_Node000010" class="edge">
<title>Node9&#45;&gt;Node10</title>
<g id="a_edge10_Node000009_Node000010"><a xlink:title=" ">
<path fill="none" stroke="#63b8ff" d="M251.5,-54.75C251.5,-47.8 251.5,-37.85 251.5,-29.13"/>
<polygon fill="#63b8ff" stroke="#63b8ff" points="255,-29.09 251.5,-19.09 248,-29.09 255,-29.09"/>
</a>
</g>
</g>
<!-- Node12&#45;&gt;Node9 -->
<g id="edge13_Node000012_Node000009" class="edge">
<title>Node12&#45;&gt;Node9</title>
<g id="a_edge13_Node000012_Node000009"><a xlink:title=" ">
<path fill="none" stroke="#63b8ff" d="M154.47,-110.22C173.2,-101.58 202.79,-87.95 224.37,-78"/>
<polygon fill="#63b8ff" stroke="#63b8ff" points="226.04,-81.09 233.66,-73.72 223.11,-74.73 226.04,-81.09"/>
</a>
</g>
</g>
<!-- Node12&#45;&gt;Node10 -->
<g id="edge15_Node000012_Node000010" class="edge">
<title>Node12&#45;&gt;Node10</title>
<g id="a_edge15_Node000012_Node000010"><a xlink:title=" ">
<path fill="none" stroke="#63b8ff" d="M130.24,-109.87C121.62,-96.82 108.45,-71.82 120.5,-55 143.15,-23.39 189.55,-13.96 220.6,-11.3"/>
<polygon fill="#63b8ff" stroke="#63b8ff" points="221.13,-14.78 230.88,-10.62 220.67,-7.79 221.13,-14.78"/>
</a>
</g>
</g>
<!-- Node12&#45;&gt;Node11 -->
<g id="edge14_Node000012_Node000011" class="edge">
<title>Node12&#45;&gt;Node11</title>
<g id="a_edge14_Node000012_Node000011"><a xlink:title=" ">
<path fill="none" stroke="#63b8ff" d="M154.16,-113.03C183.13,-104.05 241.1,-86.08 276.87,-74.99"/>
<polygon fill="#63b8ff" stroke="#63b8ff" points="278.25,-78.23 286.77,-71.93 276.18,-71.54 278.25,-78.23"/>
</a>
</g>
</g>
<!-- Node13 -->
<g id="Node000013" class="node">
<title>Node13</title>
<g id="a_Node000013"><a xlink:href="basic_8h.html" target="_top" xlink:title="Basic object.">
<polygon fill="white" stroke="#666666" points="73,-74 22,-74 22,-55 73,-55 73,-74"/>
<text text-anchor="middle" x="47.5" y="-62" font-family="Helvetica,sans-Serif" font-size="10.00">basic.h</text>
</a>
</g>
</g>
<!-- Node12&#45;&gt;Node13 -->
<g id="edge16_Node000012_Node000013" class="edge">
<title>Node12&#45;&gt;Node13</title>
<g id="a_edge16_Node000012_Node000013"><a xlink:title=" ">
<path fill="none" stroke="#63b8ff" d="M122.2,-109.98C108.4,-101.77 87.26,-89.18 70.99,-79.49"/>
<polygon fill="#63b8ff" stroke="#63b8ff" points="72.44,-76.28 62.06,-74.17 68.86,-82.29 72.44,-76.28"/>
</a>
</g>
</g>
<!-- Node15 -->
<g id="Node000015" class="node">
<title>Node15</title>
<g id="a_Node000015"><a xlink:href="frame_8h.html" target="_top" xlink:title=" ">
<polygon fill="white" stroke="#666666" points="215.5,-74 129.5,-74 129.5,-55 215.5,-55 215.5,-74"/>
<text text-anchor="middle" x="172.5" y="-62" font-family="Helvetica,sans-Serif" font-size="10.00">splice/frame.h</text>
</a>
</g>
</g>
<!-- Node12&#45;&gt;Node15 -->
<g id="edge18_Node000012_Node000015" class="edge">
<title>Node12&#45;&gt;Node15</title>
<g id="a_edge18_Node000012_Node000015"><a xlink:title=" ">
<path fill="none" stroke="#63b8ff" d="M142.44,-109.75C147.48,-102.34 154.84,-91.5 161.01,-82.41"/>
<polygon fill="#63b8ff" stroke="#63b8ff" points="163.94,-84.33 166.67,-74.09 158.15,-80.39 163.94,-84.33"/>
</a>
</g>
</g>
<!-- Node14 -->
<g id="Node000014" class="node">
<title>Node14</title>
<g id="a_Node000014"><a xlink:href="sidebag_8h.html" target="_top" xlink:title="Sidebag for splice.">
<polygon fill="white" stroke="#666666" points="95,-19 0,-19 0,0 95,0 95,-19"/>
<text text-anchor="middle" x="47.5" y="-7" font-family="Helvetica,sans-Serif" font-size="10.00">splice/sidebag.h</text>
</a>
</g>
</g>
<!-- Node13&#45;&gt;Node14 -->
<g id="edge17_Node000013_Node000014" class="edge">
<title>Node13&#45;&gt;Node14</title>
<g id="a_edge17_Node000013_Node000014"><a xlink:title=" ">
<path fill="none" stroke="#63b8ff" d="M47.5,-54.75C47.5,-47.8 47.5,-37.85 47.5,-29.13"/>
<polygon fill="#63b8ff" stroke="#63b8ff" points="51,-29.09 47.5,-19.09 44,-29.09 51,-29.09"/>
</a>
</g>
</g>
</g>
</svg>

<g id="navigator" transform="translate(0 0)" fill="#404254">
  <rect fill="#f2f5e9" fill-opacity="0.5" stroke="#606060" stroke-width=".5" x="0" y="0" width="60" height="60"/>
  <use id="zoomplus" xlink:href="#zoomPlus" x="17" y="9" onmousedown="handleZoom(evt,'in')"/>
  <use id="zoomminus" xlink:href="#zoomMin" x="42" y="9" onmousedown="handleZoom(evt,'out')"/>
  <use id="reset" xlink:href="#resetDef" x="30" y="36" onmousedown="handleReset()"/>
   <use id="arrowup" xlink:href="#arrowUp" x="0" y="0" onmousedown="handlePan(0,-1)"/>
  <use id="arrowright" xlink:href="#arrowRight" x="0" y="0" onmousedown="handlePan(1,0)"/>
  <use id="arrowdown" xlink:href="#arrowDown" x="0" y="0" onmousedown="handlePan(0,1)"/>
  <use id="arrowleft" xlink:href="#arrowLeft" x="0" y="0" onmousedown="handlePan(-1,0)"/>
</g>
<svg viewBox="0 0 15 15" width="100%" height="30px" preserveAspectRatio="xMaxYMin meet">
 <g id="arrow_out" transform="scale(0.3 0.3)">
  <a xlink:href="aseg_8h__incl_org.svg" target="_base">
   <rect id="button" ry="5" rx="5" y="6" x="6" height="38" width="38"
        fill="#f2f5e9" fill-opacity="0.5" stroke="#606060" stroke-width="1.0"/>
   <path id="arrow"
     d="M 11.500037,31.436501 C 11.940474,20.09759 22.043105,11.32322 32.158766,21.979434 L 37.068811,17.246167 C 37.068811,17.246167 37.088388,32 37.088388,32 L 22.160133,31.978069 C 22.160133,31.978069 26.997745,27.140456 26.997745,27.140456 C 18.528582,18.264221 13.291696,25.230495 11.500037,31.436501 z"
     style="fill:#404040;"/>
  </a>
 </g>
</svg>

<style type='text/css'>
<![CDATA[
[data-mouse-over-selected='false'] { opacity: 0.7; }
[data-mouse-over-selected='true']  { opacity: 1.0; }
]]>
</style>
<script type="application/ecmascript"><![CDATA[
document.addEventListener('DOMContentLoaded', (event) => {
  highlightEdges();
  highlightAdjacentNodes();
});
]]></script>
</svg>
