<?xml version="1.0" encoding="UTF-8" standalone="no"?>
<!DOCTYPE svg PUBLIC "-//W3C//DTD SVG 1.1//EN"
 "http://www.w3.org/Graphics/SVG/1.1/DTD/svg11.dtd">
<!-- Generated by graphviz version 2.43.0 (0)
 -->
<!-- Title: include/asega.h Pages: 1 -->
<svg width="736pt" height="137pt"
 viewBox="0.00 0.00 736.00 137.00" xmlns="http://www.w3.org/2000/svg" xmlns:xlink="http://www.w3.org/1999/xlink">
<g id="graph0" class="graph" transform="scale(1 1) rotate(0) translate(4 133)">
<title>include/asega.h</title>
<!-- Node1 -->
<g id="Node000001" class="node">
<title>Node1</title>
<g id="a_Node000001"><a xlink:title=" ">
<polygon fill="#999999" stroke="#666666" points="391.5,-129 298.5,-129 298.5,-110 391.5,-110 391.5,-129"/>
<text text-anchor="middle" x="345" y="-117" font-family="Helvetica,sans-Serif" font-size="10.00">include/asega.h</text>
</a>
</g>
</g>
<!-- Node2 -->
<g id="Node000002" class="node">
<title>Node2</title>
<g id="a_Node000002"><a xlink:href="jsg_8h.html" target="_top" xlink:title=" ">
<polygon fill="white" stroke="#666666" points="78,-74 0,-74 0,-55 78,-55 78,-74"/>
<text text-anchor="middle" x="39" y="-62" font-family="Helvetica,sans-Serif" font-size="10.00">include/jsg.h</text>
</a>
</g>
</g>
<!-- Node1&#45;&gt;Node2 -->
<g id="edge1_Node000001_Node000002" class="edge">
<title>Node1&#45;&gt;Node2</title>
<g id="a_edge1_Node000001_Node000002"><a xlink:title=" ">
<path fill="none" stroke="#63b8ff" d="M288.06,-108.65C235.98,-99.63 156.81,-85.93 88,-74 84.77,-73.44 81.41,-72.86 78.05,-72.27"/>
<polygon fill="#63b8ff" stroke="#63b8ff" points="287.65,-112.13 298.1,-110.38 288.85,-105.23 287.65,-112.13"/>
</a>
</g>
</g>
<!-- Node4 -->
<g id="Node000004" class="node">
<title>Node4</title>
<g id="a_Node000004"><a xlink:href="actseg_8c.html" target="_top" xlink:title=" ">
<polygon fill="white" stroke="#666666" points="185.5,-74 96.5,-74 96.5,-55 185.5,-55 185.5,-74"/>
<text text-anchor="middle" x="141" y="-62" font-family="Helvetica,sans-Serif" font-size="10.00">src/P2/actseg.c</text>
</a>
</g>
</g>
<!-- Node1&#45;&gt;Node4 -->
<g id="edge3_Node000001_Node000004" class="edge">
<title>Node1&#45;&gt;Node4</title>
<g id="a_edge3_Node000001_Node000004"><a xlink:title=" ">
<path fill="none" stroke="#63b8ff" d="M302.42,-107.44C264.23,-97.52 208.98,-83.16 174.03,-74.08"/>
<polygon fill="#63b8ff" stroke="#63b8ff" points="301.67,-110.86 312.22,-109.98 303.43,-104.08 301.67,-110.86"/>
</a>
</g>
</g>
<!-- Node5 -->
<g id="Node000005" class="node">
<title>Node5</title>
<g id="a_Node000005"><a xlink:href="aseg_8c.html" target="_top" xlink:title=" ">
<polygon fill="white" stroke="#666666" points="284,-74 204,-74 204,-55 284,-55 284,-74"/>
<text text-anchor="middle" x="244" y="-62" font-family="Helvetica,sans-Serif" font-size="10.00">src/P2/aseg.c</text>
</a>
</g>
</g>
<!-- Node1&#45;&gt;Node5 -->
<g id="edge4_Node000001_Node000005" class="edge">
<title>Node1&#45;&gt;Node5</title>
<g id="a_edge4_Node000001_Node000005"><a xlink:title=" ">
<path fill="none" stroke="#63b8ff" d="M319.72,-105.23C301.2,-95.51 276.58,-82.6 260.52,-74.17"/>
<polygon fill="#63b8ff" stroke="#63b8ff" points="318.29,-108.44 328.77,-109.98 321.54,-102.24 318.29,-108.44"/>
</a>
</g>
</g>
<!-- Node6 -->
<g id="Node000006" class="node">
<title>Node6</title>
<g id="a_Node000006"><a xlink:href="asega_8c.html" target="_top" xlink:title=" ">
<polygon fill="white" stroke="#666666" points="388,-74 302,-74 302,-55 388,-55 388,-74"/>
<text text-anchor="middle" x="345" y="-62" font-family="Helvetica,sans-Serif" font-size="10.00">src/P2/asega.c</text>
</a>
</g>
</g>
<!-- Node1&#45;&gt;Node6 -->
<g id="edge5_Node000001_Node000006" class="edge">
<title>Node1&#45;&gt;Node6</title>
<g id="a_edge5_Node000001_Node000006"><a xlink:title=" ">
<path fill="none" stroke="#63b8ff" d="M345,-99.66C345,-90.93 345,-80.99 345,-74.09"/>
<polygon fill="#63b8ff" stroke="#63b8ff" points="341.5,-99.75 345,-109.75 348.5,-99.75 341.5,-99.75"/>
</a>
</g>
</g>
<!-- Node7 -->
<g id="Node000007" class="node">
<title>Node7</title>
<g id="a_Node000007"><a xlink:href="dialog_8c.html" target="_top" xlink:title=" ">
<polygon fill="white" stroke="#666666" points="493.5,-74 406.5,-74 406.5,-55 493.5,-55 493.5,-74"/>
<text text-anchor="middle" x="450" y="-62" font-family="Helvetica,sans-Serif" font-size="10.00">src/P2/dialog.c</text>
</a>
</g>
</g>
<!-- Node1&#45;&gt;Node7 -->
<g id="edge6_Node000001_Node000007" class="edge">
<title>Node1&#45;&gt;Node7</title>
<g id="a_edge6_Node000001_Node000007"><a xlink:title=" ">
<path fill="none" stroke="#63b8ff" d="M371.02,-105.37C390.3,-95.63 416.05,-82.64 432.82,-74.17"/>
<polygon fill="#63b8ff" stroke="#63b8ff" points="369.22,-102.35 361.87,-109.98 372.37,-108.6 369.22,-102.35"/>
</a>
</g>
</g>
<!-- Node8 -->
<g id="Node000008" class="node">
<title>Node8</title>
<g id="a_Node000008"><a xlink:href="missile_8c.html" target="_top" xlink:title=" ">
<polygon fill="white" stroke="#666666" points="604,-74 512,-74 512,-55 604,-55 604,-74"/>
<text text-anchor="middle" x="558" y="-62" font-family="Helvetica,sans-Serif" font-size="10.00">src/P2/missile.c</text>
</a>
</g>
</g>
<!-- Node1&#45;&gt;Node8 -->
<g id="edge7_Node000001_Node000008" class="edge">
<title>Node1&#45;&gt;Node8</title>
<g id="a_edge7_Node000001_Node000008"><a xlink:title=" ">
<path fill="none" stroke="#63b8ff" d="M388.95,-107.56C428.84,-97.64 486.87,-83.2 523.51,-74.08"/>
<polygon fill="#63b8ff" stroke="#63b8ff" points="388.08,-104.17 379.22,-109.98 389.77,-110.97 388.08,-104.17"/>
</a>
</g>
</g>
<!-- Node9 -->
<g id="Node000009" class="node">
<title>Node9</title>
<g id="a_Node000009"><a xlink:href="stepguard_8c.html" target="_top" xlink:title=" ">
<polygon fill="white" stroke="#666666" points="728,-74 622,-74 622,-55 728,-55 728,-74"/>
<text text-anchor="middle" x="675" y="-62" font-family="Helvetica,sans-Serif" font-size="10.00">src/P2/stepguard.c</text>
</a>
</g>
</g>
<!-- Node1&#45;&gt;Node9 -->
<g id="edge8_Node000001_Node000009" class="edge">
<title>Node1&#45;&gt;Node9</title>
<g id="a_edge8_Node000001_Node000009"><a xlink:title=" ">
<path fill="none" stroke="#63b8ff" d="M401.54,-109.42C463.3,-99.5 561.44,-83.74 621.83,-74.04"/>
<polygon fill="#63b8ff" stroke="#63b8ff" points="400.9,-105.98 391.58,-111.02 402.01,-112.89 400.9,-105.98"/>
</a>
</g>
</g>
<!-- Node3 -->
<g id="Node000003" class="node">
<title>Node3</title>
<g id="a_Node000003"><a xlink:href="jsg_8c.html" target="_top" xlink:title=" ">
<polygon fill="white" stroke="#666666" points="74.5,-19 3.5,-19 3.5,0 74.5,0 74.5,-19"/>
<text text-anchor="middle" x="39" y="-7" font-family="Helvetica,sans-Serif" font-size="10.00">src/P2/jsg.c</text>
</a>
</g>
</g>
<!-- Node2&#45;&gt;Node3 -->
<g id="edge2_Node000002_Node000003" class="edge">
<title>Node2&#45;&gt;Node3</title>
<g id="a_edge2_Node000002_Node000003"><a xlink:title=" ">
<path fill="none" stroke="#63b8ff" d="M39,-44.66C39,-35.93 39,-25.99 39,-19.09"/>
<polygon fill="#63b8ff" stroke="#63b8ff" points="35.5,-44.75 39,-54.75 42.5,-44.75 35.5,-44.75"/>
</a>
</g>
</g>
</g>
</svg>
