<?xml version="1.0" encoding="UTF-8" standalone="no"?>
<!DOCTYPE svg PUBLIC "-//W3C//DTD SVG 1.1//EN"
 "http://www.w3.org/Graphics/SVG/1.1/DTD/svg11.dtd">
<!-- Generated by graphviz version 2.43.0 (0)
 -->
<!-- Title: src/P2/bas.c Pages: 1 -->
<svg width="458pt" height="357pt"
 viewBox="0.00 0.00 457.50 357.00" xmlns="http://www.w3.org/2000/svg" xmlns:xlink="http://www.w3.org/1999/xlink">
<g id="graph0" class="graph" transform="scale(1 1) rotate(0) translate(4 353)">
<title>src/P2/bas.c</title>
<!-- Node1 -->
<g id="Node000001" class="node">
<title>Node1</title>
<g id="a_Node000001"><a xlink:title=" ">
<polygon fill="#999999" stroke="#666666" points="272.5,-349 198.5,-349 198.5,-330 272.5,-330 272.5,-349"/>
<text text-anchor="middle" x="235.5" y="-337" font-family="Helvetica,sans-Serif" font-size="10.00">src/P2/bas.c</text>
</a>
</g>
</g>
<!-- Node2 -->
<g id="Node000002" class="node">
<title>Node2</title>
<g id="a_Node000002"><a xlink:href="bas_8h.html" target="_top" xlink:title="Binary Async Stream.">
<polygon fill="white" stroke="#666666" points="161,-294 118,-294 118,-275 161,-275 161,-294"/>
<text text-anchor="middle" x="139.5" y="-282" font-family="Helvetica,sans-Serif" font-size="10.00">bas.h</text>
</a>
</g>
</g>
<!-- Node1&#45;&gt;Node2 -->
<g id="edge1_Node000001_Node000002" class="edge">
<title>Node1&#45;&gt;Node2</title>
<g id="a_edge1_Node000001_Node000002"><a xlink:title=" ">
<path fill="none" stroke="#63b8ff" d="M220.08,-329.98C205.05,-321.69 181.96,-308.94 164.34,-299.22"/>
<polygon fill="#63b8ff" stroke="#63b8ff" points="165.65,-295.94 155.2,-294.17 162.27,-302.07 165.65,-295.94"/>
</a>
</g>
</g>
<!-- Node15 -->
<g id="Node000015" class="node">
<title>Node15</title>
<g id="a_Node000015"><a xlink:href="cd_8h.html" target="_top" xlink:title="CD system.">
<polygon fill="white" stroke="#666666" points="216,-294 179,-294 179,-275 216,-275 216,-294"/>
<text text-anchor="middle" x="197.5" y="-282" font-family="Helvetica,sans-Serif" font-size="10.00">cd.h</text>
</a>
</g>
</g>
<!-- Node1&#45;&gt;Node15 -->
<g id="edge18_Node000001_Node000015" class="edge">
<title>Node1&#45;&gt;Node15</title>
<g id="a_edge18_Node000001_Node000015"><a xlink:title=" ">
<path fill="none" stroke="#63b8ff" d="M229.23,-329.75C223.91,-322.34 216.14,-311.5 209.62,-302.41"/>
<polygon fill="#63b8ff" stroke="#63b8ff" points="212.33,-300.18 203.66,-294.09 206.64,-304.26 212.33,-300.18"/>
</a>
</g>
</g>
<!-- Node16 -->
<g id="Node000016" class="node">
<title>Node16</title>
<g id="a_Node000016"><a xlink:href="libcdvd_8h.html" target="_top" xlink:title="DVD handler.">
<polygon fill="white" stroke="#666666" points="315,-294 234,-294 234,-275 315,-275 315,-294"/>
<text text-anchor="middle" x="274.5" y="-282" font-family="Helvetica,sans-Serif" font-size="10.00">sdk/libcdvd.h</text>
</a>
</g>
</g>
<!-- Node1&#45;&gt;Node16 -->
<g id="edge19_Node000001_Node000016" class="edge">
<title>Node1&#45;&gt;Node16</title>
<g id="a_edge19_Node000001_Node000016"><a xlink:title=" ">
<path fill="none" stroke="#63b8ff" d="M241.94,-329.75C247.39,-322.34 255.36,-311.5 262.06,-302.41"/>
<polygon fill="#63b8ff" stroke="#63b8ff" points="265.07,-304.22 268.18,-294.09 259.43,-300.07 265.07,-304.22"/>
</a>
</g>
</g>
<!-- Node17 -->
<g id="Node000017" class="node">
<title>Node17</title>
<g id="a_Node000017"><a xlink:href="filestub_8h.html" target="_top" xlink:title=" ">
<polygon fill="white" stroke="#666666" points="449.5,-294 333.5,-294 333.5,-275 449.5,-275 449.5,-294"/>
<text text-anchor="middle" x="391.5" y="-282" font-family="Helvetica,sans-Serif" font-size="10.00">lib/libkernl/filestub.h</text>
</a>
</g>
</g>
<!-- Node1&#45;&gt;Node17 -->
<g id="edge20_Node000001_Node000017" class="edge">
<title>Node1&#45;&gt;Node17</title>
<g id="a_edge20_Node000001_Node000017"><a xlink:title=" ">
<path fill="none" stroke="#63b8ff" d="M260.56,-329.98C286.53,-321.16 327.31,-307.31 356.46,-297.41"/>
<polygon fill="#63b8ff" stroke="#63b8ff" points="357.9,-300.61 366.24,-294.08 355.65,-293.99 357.9,-300.61"/>
</a>
</g>
</g>
<!-- Node3 -->
<g id="Node000003" class="node">
<title>Node3</title>
<g id="a_Node000003"><a xlink:href="util_8h.html" target="_top" xlink:title="Utility functions.">
<polygon fill="white" stroke="#666666" points="131,-239 90,-239 90,-220 131,-220 131,-239"/>
<text text-anchor="middle" x="110.5" y="-227" font-family="Helvetica,sans-Serif" font-size="10.00">util.h</text>
</a>
</g>
</g>
<!-- Node2&#45;&gt;Node3 -->
<g id="edge2_Node000002_Node000003" class="edge">
<title>Node2&#45;&gt;Node3</title>
<g id="a_edge2_Node000002_Node000003"><a xlink:title=" ">
<path fill="none" stroke="#63b8ff" d="M134.71,-274.75C130.74,-267.49 124.97,-256.95 120.07,-247.98"/>
<polygon fill="#63b8ff" stroke="#63b8ff" points="123.07,-246.18 115.2,-239.09 116.93,-249.54 123.07,-246.18"/>
</a>
</g>
</g>
<!-- Node14 -->
<g id="Node000014" class="node">
<title>Node14</title>
<g id="a_Node000014"><a xlink:href="cat_8h.html" target="_top" xlink:title="WAL catalog.">
<polygon fill="white" stroke="#666666" points="190,-239 149,-239 149,-220 190,-220 190,-239"/>
<text text-anchor="middle" x="169.5" y="-227" font-family="Helvetica,sans-Serif" font-size="10.00">cat.h</text>
</a>
</g>
</g>
<!-- Node2&#45;&gt;Node14 -->
<g id="edge17_Node000002_Node000014" class="edge">
<title>Node2&#45;&gt;Node14</title>
<g id="a_edge17_Node000002_Node000014"><a xlink:title=" ">
<path fill="none" stroke="#63b8ff" d="M144.45,-274.75C148.56,-267.49 154.53,-256.95 159.6,-247.98"/>
<polygon fill="#63b8ff" stroke="#63b8ff" points="162.76,-249.52 164.64,-239.09 156.67,-246.07 162.76,-249.52"/>
</a>
</g>
</g>
<!-- Node4 -->
<g id="Node000004" class="node">
<title>Node4</title>
<g id="a_Node000004"><a xlink:href="vec_8h.html" target="_top" xlink:title="Vector math.">
<polygon fill="white" stroke="#666666" points="85,-129 42,-129 42,-110 85,-110 85,-129"/>
<text text-anchor="middle" x="63.5" y="-117" font-family="Helvetica,sans-Serif" font-size="10.00">vec.h</text>
</a>
</g>
</g>
<!-- Node3&#45;&gt;Node4 -->
<g id="edge3_Node000003_Node000004" class="edge">
<title>Node3&#45;&gt;Node4</title>
<g id="a_edge3_Node000003_Node000004"><a xlink:title=" ">
<path fill="none" stroke="#63b8ff" d="M103.06,-219.88C96.03,-211.32 85.67,-197.54 79.5,-184 72.94,-169.6 68.78,-152.08 66.35,-139.1"/>
<polygon fill="#63b8ff" stroke="#63b8ff" points="69.77,-138.32 64.65,-129.04 62.87,-139.49 69.77,-138.32"/>
</a>
</g>
</g>
<!-- Node5 -->
<g id="Node000005" class="node">
<title>Node5</title>
<g id="a_Node000005"><a xlink:href="mat_8h.html" target="_top" xlink:title="3x3 and 4x4 matrix types.">
<polygon fill="white" stroke="#666666" points="133,-184 88,-184 88,-165 133,-165 133,-184"/>
<text text-anchor="middle" x="110.5" y="-172" font-family="Helvetica,sans-Serif" font-size="10.00">mat.h</text>
</a>
</g>
</g>
<!-- Node3&#45;&gt;Node5 -->
<g id="edge4_Node000003_Node000005" class="edge">
<title>Node3&#45;&gt;Node5</title>
<g id="a_edge4_Node000003_Node000005"><a xlink:title=" ">
<path fill="none" stroke="#63b8ff" d="M110.5,-219.75C110.5,-212.8 110.5,-202.85 110.5,-194.13"/>
<polygon fill="#63b8ff" stroke="#63b8ff" points="114,-194.09 110.5,-184.09 107,-194.09 114,-194.09"/>
</a>
</g>
</g>
<!-- Node6 -->
<g id="Node000006" class="node">
<title>Node6</title>
<g id="a_Node000006"><a xlink:href="sm_8h.html" target="_top" xlink:title="Probabilistic finite state machines.">
<polygon fill="white" stroke="#666666" points="192,-184 151,-184 151,-165 192,-165 192,-184"/>
<text text-anchor="middle" x="171.5" y="-172" font-family="Helvetica,sans-Serif" font-size="10.00">sm.h</text>
</a>
</g>
</g>
<!-- Node3&#45;&gt;Node6 -->
<g id="edge6_Node000003_Node000006" class="edge">
<title>Node3&#45;&gt;Node6</title>
<g id="a_edge6_Node000003_Node000006"><a xlink:title=" ">
<path fill="none" stroke="#63b8ff" d="M120.3,-219.98C129.32,-212.15 142.91,-200.34 153.82,-190.86"/>
<polygon fill="#63b8ff" stroke="#63b8ff" points="156.27,-193.37 161.52,-184.17 151.68,-188.09 156.27,-193.37"/>
</a>
</g>
</g>
<!-- Node5&#45;&gt;Node4 -->
<g id="edge5_Node000005_Node000004" class="edge">
<title>Node5&#45;&gt;Node4</title>
<g id="a_edge5_Node000005_Node000004"><a xlink:title=" ">
<path fill="none" stroke="#63b8ff" d="M102.74,-164.75C96.03,-157.18 86.16,-146.05 77.99,-136.84"/>
<polygon fill="#63b8ff" stroke="#63b8ff" points="80.37,-134.25 71.12,-129.09 75.13,-138.89 80.37,-134.25"/>
</a>
</g>
</g>
<!-- Node7 -->
<g id="Node000007" class="node">
<title>Node7</title>
<g id="a_Node000007"><a xlink:href="dl_8h.html" target="_top" xlink:title="Doubly&#45;linked list.">
<polygon fill="white" stroke="#666666" points="306,-74 271,-74 271,-55 306,-55 306,-74"/>
<text text-anchor="middle" x="288.5" y="-62" font-family="Helvetica,sans-Serif" font-size="10.00">dl.h</text>
</a>
</g>
</g>
<!-- Node6&#45;&gt;Node7 -->
<g id="edge7_Node000006_Node000007" class="edge">
<title>Node6&#45;&gt;Node7</title>
<g id="a_edge7_Node000006_Node000007"><a xlink:title=" ">
<path fill="none" stroke="#63b8ff" d="M181.07,-164.66C200.88,-146.38 246.6,-104.18 271.53,-81.17"/>
<polygon fill="#63b8ff" stroke="#63b8ff" points="274.15,-83.51 279.12,-74.16 269.4,-78.37 274.15,-83.51"/>
</a>
</g>
</g>
<!-- Node9 -->
<g id="Node000009" class="node">
<title>Node9</title>
<g id="a_Node000009"><a xlink:href="mq_8h.html" target="_top" xlink:title="Message queue.">
<polygon fill="white" stroke="#666666" points="41,-74 0,-74 0,-55 41,-55 41,-74"/>
<text text-anchor="middle" x="20.5" y="-62" font-family="Helvetica,sans-Serif" font-size="10.00">mq.h</text>
</a>
</g>
</g>
<!-- Node6&#45;&gt;Node9 -->
<g id="edge9_Node000006_Node000009" class="edge">
<title>Node6&#45;&gt;Node9</title>
<g id="a_edge9_Node000006_Node000009"><a xlink:title=" ">
<path fill="none" stroke="#63b8ff" d="M161.9,-164.79C147.69,-152.09 119.97,-128.01 94.5,-110 78.64,-98.78 59.87,-87.52 45.2,-79.13"/>
<polygon fill="#63b8ff" stroke="#63b8ff" points="46.66,-75.93 36.23,-74.06 43.21,-82.02 46.66,-75.93"/>
</a>
</g>
</g>
<!-- Node10 -->
<g id="Node000010" class="node">
<title>Node10</title>
<g id="a_Node000010"><a xlink:href="lo_8h.html" target="_top" xlink:title="Level objects.">
<polygon fill="white" stroke="#666666" points="189,-129 154,-129 154,-110 189,-110 189,-129"/>
<text text-anchor="middle" x="171.5" y="-117" font-family="Helvetica,sans-Serif" font-size="10.00">lo.h</text>
</a>
</g>
</g>
<!-- Node6&#45;&gt;Node10 -->
<g id="edge10_Node000006_Node000010" class="edge">
<title>Node6&#45;&gt;Node10</title>
<g id="a_edge10_Node000006_Node000010"><a xlink:title=" ">
<path fill="none" stroke="#63b8ff" d="M171.5,-164.75C171.5,-157.8 171.5,-147.85 171.5,-139.13"/>
<polygon fill="#63b8ff" stroke="#63b8ff" points="175,-139.09 171.5,-129.09 168,-139.09 175,-139.09"/>
</a>
</g>
</g>
<!-- Node8 -->
<g id="Node000008" class="node">
<title>Node8</title>
<g id="a_Node000008"><a xlink:href="oid_8h.html" target="_top" xlink:title="Object IDs.">
<polygon fill="white" stroke="#666666" points="286,-19 245,-19 245,0 286,0 286,-19"/>
<text text-anchor="middle" x="265.5" y="-7" font-family="Helvetica,sans-Serif" font-size="10.00">oid.h</text>
</a>
</g>
</g>
<!-- Node7&#45;&gt;Node8 -->
<g id="edge8_Node000007_Node000008" class="edge">
<title>Node7&#45;&gt;Node8</title>
<g id="a_edge8_Node000007_Node000008"><a xlink:title=" ">
<path fill="none" stroke="#63b8ff" d="M284.7,-54.75C281.59,-47.57 277.08,-37.18 273.21,-28.27"/>
<polygon fill="#63b8ff" stroke="#63b8ff" points="276.42,-26.87 269.23,-19.09 270,-29.66 276.42,-26.87"/>
</a>
</g>
</g>
<!-- Node10&#45;&gt;Node7 -->
<g id="edge11_Node000010_Node000007" class="edge">
<title>Node10&#45;&gt;Node7</title>
<g id="a_edge11_Node000010_Node000007"><a xlink:title=" ">
<path fill="none" stroke="#63b8ff" d="M189.02,-110.57C208.23,-101.86 239.3,-87.79 261.6,-77.68"/>
<polygon fill="#63b8ff" stroke="#63b8ff" points="263.2,-80.8 270.86,-73.49 260.31,-74.43 263.2,-80.8"/>
</a>
</g>
</g>
<!-- Node10&#45;&gt;Node8 -->
<g id="edge13_Node000010_Node000008" class="edge">
<title>Node10&#45;&gt;Node8</title>
<g id="a_edge13_Node000010_Node000008"><a xlink:title=" ">
<path fill="none" stroke="#63b8ff" d="M183.49,-109.79C194.6,-101.38 211.23,-87.89 223.5,-74 236.05,-59.79 247.72,-41.57 255.56,-28.29"/>
<polygon fill="#63b8ff" stroke="#63b8ff" points="258.81,-29.67 260.76,-19.25 252.74,-26.18 258.81,-29.67"/>
</a>
</g>
</g>
<!-- Node10&#45;&gt;Node9 -->
<g id="edge12_Node000010_Node000009" class="edge">
<title>Node10&#45;&gt;Node9</title>
<g id="a_edge12_Node000010_Node000009"><a xlink:title=" ">
<path fill="none" stroke="#63b8ff" d="M153.88,-112.32C128.72,-103.48 82.12,-87.13 51.21,-76.28"/>
<polygon fill="#63b8ff" stroke="#63b8ff" points="51.98,-72.84 41.38,-72.83 49.66,-79.44 51.98,-72.84"/>
</a>
</g>
</g>
<!-- Node11 -->
<g id="Node000011" class="node">
<title>Node11</title>
<g id="a_Node000011"><a xlink:href="basic_8h.html" target="_top" xlink:title="Basic object.">
<polygon fill="white" stroke="#666666" points="110,-74 59,-74 59,-55 110,-55 110,-74"/>
<text text-anchor="middle" x="84.5" y="-62" font-family="Helvetica,sans-Serif" font-size="10.00">basic.h</text>
</a>
</g>
</g>
<!-- Node10&#45;&gt;Node11 -->
<g id="edge14_Node000010_Node000011" class="edge">
<title>Node10&#45;&gt;Node11</title>
<g id="a_edge14_Node000010_Node000011"><a xlink:title=" ">
<path fill="none" stroke="#63b8ff" d="M157.52,-109.98C144.03,-101.77 123.37,-89.18 107.46,-79.49"/>
<polygon fill="#63b8ff" stroke="#63b8ff" points="109.09,-76.38 98.73,-74.17 105.45,-82.36 109.09,-76.38"/>
</a>
</g>
</g>
<!-- Node13 -->
<g id="Node000013" class="node">
<title>Node13</title>
<g id="a_Node000013"><a xlink:href="frame_8h.html" target="_top" xlink:title=" ">
<polygon fill="white" stroke="#666666" points="214.5,-74 128.5,-74 128.5,-55 214.5,-55 214.5,-74"/>
<text text-anchor="middle" x="171.5" y="-62" font-family="Helvetica,sans-Serif" font-size="10.00">splice/frame.h</text>
</a>
</g>
</g>
<!-- Node10&#45;&gt;Node13 -->
<g id="edge16_Node000010_Node000013" class="edge">
<title>Node10&#45;&gt;Node13</title>
<g id="a_edge16_Node000010_Node000013"><a xlink:title=" ">
<path fill="none" stroke="#63b8ff" d="M171.5,-109.75C171.5,-102.8 171.5,-92.85 171.5,-84.13"/>
<polygon fill="#63b8ff" stroke="#63b8ff" points="175,-84.09 171.5,-74.09 168,-84.09 175,-84.09"/>
</a>
</g>
</g>
<!-- Node12 -->
<g id="Node000012" class="node">
<title>Node12</title>
<g id="a_Node000012"><a xlink:href="sidebag_8h.html" target="_top" xlink:title="Sidebag for splice.">
<polygon fill="white" stroke="#666666" points="132,-19 37,-19 37,0 132,0 132,-19"/>
<text text-anchor="middle" x="84.5" y="-7" font-family="Helvetica,sans-Serif" font-size="10.00">splice/sidebag.h</text>
</a>
</g>
</g>
<!-- Node11&#45;&gt;Node12 -->
<g id="edge15_Node000011_Node000012" class="edge">
<title>Node11&#45;&gt;Node12</title>
<g id="a_edge15_Node000011_Node000012"><a xlink:title=" ">
<path fill="none" stroke="#63b8ff" d="M84.5,-54.75C84.5,-47.8 84.5,-37.85 84.5,-29.13"/>
<polygon fill="#63b8ff" stroke="#63b8ff" points="88,-29.09 84.5,-19.09 81,-29.09 88,-29.09"/>
</a>
</g>
</g>
</g>
</svg>
