<?xml version="1.0" encoding="UTF-8" standalone="no"?>
<!DOCTYPE svg PUBLIC "-//W3C//DTD SVG 1.1//EN"
 "http://www.w3.org/Graphics/SVG/1.1/DTD/svg11.dtd">
<!-- Generated by graphviz version 2.43.0 (0)
 -->
<!-- Title: include/basic.h Pages: 1 -->
<svg width="283pt" height="196pt"
 viewBox="0.00 0.00 283.00 196.00" xmlns="http://www.w3.org/2000/svg" xmlns:xlink="http://www.w3.org/1999/xlink">
<g id="graph0" class="graph" transform="scale(1 1) rotate(0) translate(4 192)">
<title>include/basic.h</title>
<polygon fill="white" stroke="transparent" points="-4,4 -4,-192 279,-192 279,4 -4,4"/>
<!-- Node1 -->
<g id="node1" class="node">
<title>Node1</title>
<g id="a_node1"><a xlink:title="Basic object.">
<polygon fill="#bfbfbf" stroke="black" points="110,-168.5 110,-187.5 199,-187.5 199,-168.5 110,-168.5"/>
<text text-anchor="middle" x="154.5" y="-175.5" font-family="Helvetica,sans-Serif" font-size="10.00">include/basic.h</text>
</a>
</g>
</g>
<!-- Node2 -->
<g id="node2" class="node">
<title>Node2</title>
<g id="a_node2"><a xlink:href="common_8h.html" target="_top" xlink:title="Common header file.">
<polygon fill="white" stroke="black" points="120.5,-56.5 120.5,-75.5 188.5,-75.5 188.5,-56.5 120.5,-56.5"/>
<text text-anchor="middle" x="154.5" y="-63.5" font-family="Helvetica,sans-Serif" font-size="10.00">common.h</text>
</a>
</g>
</g>
<!-- Node1&#45;&gt;Node2 -->
<g id="edge1" class="edge">
<title>Node1&#45;&gt;Node2</title>
<path fill="none" stroke="midnightblue" d="M149.62,-168.37C144.94,-159.55 138.19,-145.3 135.5,-132 132.22,-115.82 138.26,-97.82 144.38,-84.88"/>
<polygon fill="midnightblue" stroke="midnightblue" points="147.64,-86.2 149.13,-75.71 141.42,-82.98 147.64,-86.2"/>
</g>
<!-- Node6 -->
<g id="node6" class="node">
<title>Node6</title>
<g id="a_node6"><a xlink:href="sidebag_8h.html" target="_top" xlink:title="Sidebag for splice.">
<polygon fill="white" stroke="black" points="145,-112.5 145,-131.5 240,-131.5 240,-112.5 145,-112.5"/>
<text text-anchor="middle" x="192.5" y="-119.5" font-family="Helvetica,sans-Serif" font-size="10.00">splice/sidebag.h</text>
</a>
</g>
</g>
<!-- Node1&#45;&gt;Node6 -->
<g id="edge5" class="edge">
<title>Node1&#45;&gt;Node6</title>
<path fill="none" stroke="midnightblue" d="M160.77,-168.08C166.14,-160.46 174.02,-149.26 180.58,-139.94"/>
<polygon fill="midnightblue" stroke="midnightblue" points="183.45,-141.94 186.34,-131.75 177.72,-137.91 183.45,-141.94"/>
</g>
<!-- Node3 -->
<g id="node3" class="node">
<title>Node3</title>
<g id="a_node3"><a xlink:href="include__asm_8h.html" target="_top" xlink:title=" ">
<polygon fill="white" stroke="black" points="0,-0.5 0,-19.5 87,-19.5 87,-0.5 0,-0.5"/>
<text text-anchor="middle" x="43.5" y="-7.5" font-family="Helvetica,sans-Serif" font-size="10.00">include_asm.h</text>
</a>
</g>
</g>
<!-- Node2&#45;&gt;Node3 -->
<g id="edge2" class="edge">
<title>Node2&#45;&gt;Node3</title>
<path fill="none" stroke="midnightblue" d="M136.67,-56.32C118.78,-47.62 91.02,-34.12 70.45,-24.11"/>
<polygon fill="midnightblue" stroke="midnightblue" points="71.81,-20.88 61.29,-19.65 68.75,-27.18 71.81,-20.88"/>
</g>
<!-- Node4 -->
<g id="node4" class="node">
<title>Node4</title>
<g id="a_node4"><a xlink:href="include__rodata_8h.html" target="_top" xlink:title=" ">
<polygon fill="white" stroke="black" points="105.5,-0.5 105.5,-19.5 203.5,-19.5 203.5,-0.5 105.5,-0.5"/>
<text text-anchor="middle" x="154.5" y="-7.5" font-family="Helvetica,sans-Serif" font-size="10.00">include_rodata.h</text>
</a>
</g>
</g>
<!-- Node2&#45;&gt;Node4 -->
<g id="edge3" class="edge">
<title>Node2&#45;&gt;Node4</title>
<path fill="none" stroke="midnightblue" d="M154.5,-56.08C154.5,-49.01 154.5,-38.86 154.5,-29.99"/>
<polygon fill="midnightblue" stroke="midnightblue" points="158,-29.75 154.5,-19.75 151,-29.75 158,-29.75"/>
</g>
<!-- Node5 -->
<g id="node5" class="node">
<title>Node5</title>
<g id="a_node5"><a xlink:href="types_8h.html" target="_top" xlink:title="Types used throughout the engine.">
<polygon fill="white" stroke="black" points="222,-0.5 222,-19.5 275,-19.5 275,-0.5 222,-0.5"/>
<text text-anchor="middle" x="248.5" y="-7.5" font-family="Helvetica,sans-Serif" font-size="10.00">types.h</text>
</a>
</g>
</g>
<!-- Node2&#45;&gt;Node5 -->
<g id="edge4" class="edge">
<title>Node2&#45;&gt;Node5</title>
<path fill="none" stroke="midnightblue" d="M169.6,-56.32C184.4,-47.82 207.19,-34.73 224.48,-24.8"/>
<polygon fill="midnightblue" stroke="midnightblue" points="226.51,-27.67 233.43,-19.65 223.02,-21.6 226.51,-27.67"/>
</g>
<!-- Node6&#45;&gt;Node2 -->
<g id="edge6" class="edge">
<title>Node6&#45;&gt;Node2</title>
<path fill="none" stroke="midnightblue" d="M186.23,-112.08C180.86,-104.46 172.98,-93.26 166.42,-83.94"/>
<polygon fill="midnightblue" stroke="midnightblue" points="169.28,-81.91 160.66,-75.75 163.55,-85.94 169.28,-81.91"/>
</g>
</g>
</svg>
