<?xml version="1.0" encoding="UTF-8" standalone="no"?>
<!DOCTYPE svg PUBLIC "-//W3C//DTD SVG 1.1//EN"
 "http://www.w3.org/Graphics/SVG/1.1/DTD/svg11.dtd">
<!-- Generated by graphviz version 2.43.0 (0)
 -->
<!-- Title: include/splice/bif.h Pages: 1 -->
<svg width="849pt" height="192pt"
 viewBox="0.00 0.00 849.00 192.00" xmlns="http://www.w3.org/2000/svg" xmlns:xlink="http://www.w3.org/1999/xlink">
<g id="graph0" class="graph" transform="scale(1 1) rotate(0) translate(4 188)">
<title>include/splice/bif.h</title>
<!-- Node1 -->
<g id="Node000001" class="node">
<title>Node1</title>
<g id="a_Node000001"><a xlink:title=" ">
<polygon fill="#999999" stroke="#666666" points="620,-184 513,-184 513,-165 620,-165 620,-184"/>
<text text-anchor="middle" x="566.5" y="-172" font-family="Helvetica,sans-Serif" font-size="10.00">include/splice/bif.h</text>
</a>
</g>
</g>
<!-- Node2 -->
<g id="Node000002" class="node">
<title>Node2</title>
<g id="a_Node000002"><a xlink:href="ref_8h.html" target="_top" xlink:title=" ">
<polygon fill="white" stroke="#666666" points="579.5,-129 471.5,-129 471.5,-110 579.5,-110 579.5,-129"/>
<text text-anchor="middle" x="525.5" y="-117" font-family="Helvetica,sans-Serif" font-size="10.00">include/splice/ref.h</text>
</a>
</g>
</g>
<!-- Node1&#45;&gt;Node2 -->
<g id="edge1_Node000001_Node000002" class="edge">
<title>Node1&#45;&gt;Node2</title>
<g id="a_edge1_Node000001_Node000002"><a xlink:title=" ">
<path fill="none" stroke="#63b8ff" d="M553.48,-156.67C546.38,-147.5 537.9,-136.52 532.14,-129.09"/>
<polygon fill="#63b8ff" stroke="#63b8ff" points="550.84,-158.98 559.73,-164.75 556.38,-154.7 550.84,-158.98"/>
</a>
</g>
</g>
<!-- Node11 -->
<g id="Node000011" class="node">
<title>Node11</title>
<g id="a_Node000011"><a xlink:href="bif_8cpp.html" target="_top" xlink:title=" ">
<polygon fill="white" stroke="#666666" points="841,-74 728,-74 728,-55 841,-55 841,-74"/>
<text text-anchor="middle" x="784.5" y="-62" font-family="Helvetica,sans-Serif" font-size="10.00">src/P2/splice/bif.cpp</text>
</a>
</g>
</g>
<!-- Node1&#45;&gt;Node11 -->
<g id="edge13_Node000001_Node000011" class="edge">
<title>Node1&#45;&gt;Node11</title>
<g id="a_edge13_Node000001_Node000011"><a xlink:title=" ">
<path fill="none" stroke="#63b8ff" d="M593.18,-160.28C638.5,-137.83 729.33,-92.83 767.25,-74.05"/>
<polygon fill="#63b8ff" stroke="#63b8ff" points="591.38,-157.27 583.97,-164.84 594.49,-163.54 591.38,-157.27"/>
</a>
</g>
</g>
<!-- Node3 -->
<g id="Node000003" class="node">
<title>Node3</title>
<g id="a_Node000003"><a xlink:href="pair_8h.html" target="_top" xlink:title=" ">
<polygon fill="white" stroke="#666666" points="269,-74 156,-74 156,-55 269,-55 269,-74"/>
<text text-anchor="middle" x="212.5" y="-62" font-family="Helvetica,sans-Serif" font-size="10.00">include/splice/pair.h</text>
</a>
</g>
</g>
<!-- Node2&#45;&gt;Node3 -->
<g id="edge2_Node000002_Node000003" class="edge">
<title>Node2&#45;&gt;Node3</title>
<g id="a_edge2_Node000002_Node000003"><a xlink:title=" ">
<path fill="none" stroke="#63b8ff" d="M465.32,-108.31C406.54,-98.36 318.11,-83.38 262.92,-74.04"/>
<polygon fill="#63b8ff" stroke="#63b8ff" points="464.77,-111.77 475.21,-109.98 465.94,-104.86 464.77,-111.77"/>
</a>
</g>
</g>
<!-- Node6 -->
<g id="Node000006" class="node">
<title>Node6</title>
<g id="a_Node000006"><a xlink:href="splicemap_8h.html" target="_top" xlink:title="Splice maps.">
<polygon fill="white" stroke="#666666" points="415.5,-74 301.5,-74 301.5,-55 415.5,-55 415.5,-74"/>
<text text-anchor="middle" x="358.5" y="-62" font-family="Helvetica,sans-Serif" font-size="10.00">include/splicemap.h</text>
</a>
</g>
</g>
<!-- Node2&#45;&gt;Node6 -->
<g id="edge5_Node000002_Node000006" class="edge">
<title>Node2&#45;&gt;Node6</title>
<g id="a_edge5_Node000002_Node000006"><a xlink:title=" ">
<path fill="none" stroke="#63b8ff" d="M489.04,-106.93C457.84,-97.03 413.66,-83.01 385.54,-74.08"/>
<polygon fill="#63b8ff" stroke="#63b8ff" points="488.08,-110.3 498.67,-109.98 490.2,-103.62 488.08,-110.3"/>
</a>
</g>
</g>
<!-- Node8 -->
<g id="Node000008" class="node">
<title>Node8</title>
<g id="a_Node000008"><a xlink:href="spliceobj_8h.html" target="_top" xlink:title="Splice objects.">
<polygon fill="white" stroke="#666666" points="579,-74 472,-74 472,-55 579,-55 579,-74"/>
<text text-anchor="middle" x="525.5" y="-62" font-family="Helvetica,sans-Serif" font-size="10.00">include/spliceobj.h</text>
</a>
</g>
</g>
<!-- Node2&#45;&gt;Node8 -->
<g id="edge7_Node000002_Node000008" class="edge">
<title>Node2&#45;&gt;Node8</title>
<g id="a_edge7_Node000002_Node000008"><a xlink:title=" ">
<path fill="none" stroke="#63b8ff" d="M525.5,-99.66C525.5,-90.93 525.5,-80.99 525.5,-74.09"/>
<polygon fill="#63b8ff" stroke="#63b8ff" points="522,-99.75 525.5,-109.75 529,-99.75 522,-99.75"/>
</a>
</g>
</g>
<!-- Node9 -->
<g id="Node000009" class="node">
<title>Node9</title>
<g id="a_Node000009"><a xlink:href="lo_8c.html" target="_top" xlink:title=" ">
<polygon fill="white" stroke="#666666" points="496.5,-19 430.5,-19 430.5,0 496.5,0 496.5,-19"/>
<text text-anchor="middle" x="463.5" y="-7" font-family="Helvetica,sans-Serif" font-size="10.00">src/P2/lo.c</text>
</a>
</g>
</g>
<!-- Node2&#45;&gt;Node9 -->
<g id="edge10_Node000002_Node000009" class="edge">
<title>Node2&#45;&gt;Node9</title>
<g id="a_edge10_Node000002_Node000009"><a xlink:title=" ">
<path fill="none" stroke="#63b8ff" d="M495.42,-105.18C482.84,-97.91 469.54,-87.59 462.5,-74 453.37,-56.38 457.57,-32.14 460.87,-19.31"/>
<polygon fill="#63b8ff" stroke="#63b8ff" points="493.88,-108.32 504.35,-109.93 497.17,-102.14 493.88,-108.32"/>
</a>
</g>
</g>
<!-- Node2&#45;&gt;Node11 -->
<g id="edge11_Node000002_Node000011" class="edge">
<title>Node2&#45;&gt;Node11</title>
<g id="a_edge11_Node000002_Node000011"><a xlink:title=" ">
<path fill="none" stroke="#63b8ff" d="M577.1,-107.94C625.65,-98.01 697.44,-83.31 742.56,-74.08"/>
<polygon fill="#63b8ff" stroke="#63b8ff" points="576.21,-104.55 567.11,-109.98 577.61,-111.41 576.21,-104.55"/>
</a>
</g>
</g>
<!-- Node12 -->
<g id="Node000012" class="node">
<title>Node12</title>
<g id="a_Node000012"><a xlink:href="ref_8cpp.html" target="_top" xlink:title=" ">
<polygon fill="white" stroke="#666666" points="710,-74 597,-74 597,-55 710,-55 710,-74"/>
<text text-anchor="middle" x="653.5" y="-62" font-family="Helvetica,sans-Serif" font-size="10.00">src/P2/splice/ref.cpp</text>
</a>
</g>
</g>
<!-- Node2&#45;&gt;Node12 -->
<g id="edge12_Node000002_Node000012" class="edge">
<title>Node2&#45;&gt;Node12</title>
<g id="a_edge12_Node000002_Node000012"><a xlink:title=" ">
<path fill="none" stroke="#63b8ff" d="M555.62,-106.03C579.29,-96.23 611.65,-82.83 632.56,-74.17"/>
<polygon fill="#63b8ff" stroke="#63b8ff" points="553.97,-102.93 546.07,-109.98 556.64,-109.39 553.97,-102.93"/>
</a>
</g>
</g>
<!-- Node4 -->
<g id="Node000004" class="node">
<title>Node4</title>
<g id="a_Node000004"><a xlink:href="pair_8cpp.html" target="_top" xlink:title=" ">
<polygon fill="white" stroke="#666666" points="119,-19 0,-19 0,0 119,0 119,-19"/>
<text text-anchor="middle" x="59.5" y="-7" font-family="Helvetica,sans-Serif" font-size="10.00">src/P2/splice/pair.cpp</text>
</a>
</g>
</g>
<!-- Node3&#45;&gt;Node4 -->
<g id="edge3_Node000003_Node000004" class="edge">
<title>Node3&#45;&gt;Node4</title>
<g id="a_edge3_Node000003_Node000004"><a xlink:title=" ">
<path fill="none" stroke="#63b8ff" d="M178.35,-51.67C149.82,-41.79 109.81,-27.93 84.27,-19.08"/>
<polygon fill="#63b8ff" stroke="#63b8ff" points="177.32,-55.02 187.92,-54.98 179.61,-48.4 177.32,-55.02"/>
</a>
</g>
</g>
<!-- Node5 -->
<g id="Node000005" class="node">
<title>Node5</title>
<g id="a_Node000005"><a xlink:href="spliceutils_8cpp.html" target="_top" xlink:title=" ">
<polygon fill="white" stroke="#666666" points="287.5,-19 137.5,-19 137.5,0 287.5,0 287.5,-19"/>
<text text-anchor="middle" x="212.5" y="-7" font-family="Helvetica,sans-Serif" font-size="10.00">src/P2/splice/spliceutils.cpp</text>
</a>
</g>
</g>
<!-- Node3&#45;&gt;Node5 -->
<g id="edge4_Node000003_Node000005" class="edge">
<title>Node3&#45;&gt;Node5</title>
<g id="a_edge4_Node000003_Node000005"><a xlink:title=" ">
<path fill="none" stroke="#63b8ff" d="M212.5,-44.66C212.5,-35.93 212.5,-25.99 212.5,-19.09"/>
<polygon fill="#63b8ff" stroke="#63b8ff" points="209,-44.75 212.5,-54.75 216,-44.75 209,-44.75"/>
</a>
</g>
</g>
<!-- Node7 -->
<g id="Node000007" class="node">
<title>Node7</title>
<g id="a_Node000007"><a xlink:href="splicemap_8c.html" target="_top" xlink:title=" ">
<polygon fill="white" stroke="#666666" points="412,-19 305,-19 305,0 412,0 412,-19"/>
<text text-anchor="middle" x="358.5" y="-7" font-family="Helvetica,sans-Serif" font-size="10.00">src/P2/splicemap.c</text>
</a>
</g>
</g>
<!-- Node6&#45;&gt;Node7 -->
<g id="edge6_Node000006_Node000007" class="edge">
<title>Node6&#45;&gt;Node7</title>
<g id="a_edge6_Node000006_Node000007"><a xlink:title=" ">
<path fill="none" stroke="#63b8ff" d="M358.5,-44.66C358.5,-35.93 358.5,-25.99 358.5,-19.09"/>
<polygon fill="#63b8ff" stroke="#63b8ff" points="355,-44.75 358.5,-54.75 362,-44.75 355,-44.75"/>
</a>
</g>
</g>
<!-- Node8&#45;&gt;Node9 -->
<g id="edge8_Node000008_Node000009" class="edge">
<title>Node8&#45;&gt;Node9</title>
<g id="a_edge8_Node000008_Node000009"><a xlink:title=" ">
<path fill="none" stroke="#63b8ff" d="M507.75,-48.32C496.69,-38.87 482.87,-27.06 473.64,-19.17"/>
<polygon fill="#63b8ff" stroke="#63b8ff" points="505.66,-51.15 515.54,-54.98 510.21,-45.83 505.66,-51.15"/>
</a>
</g>
</g>
<!-- Node10 -->
<g id="Node000010" class="node">
<title>Node10</title>
<g id="a_Node000010"><a xlink:href="spliceobj_8c.html" target="_top" xlink:title=" ">
<polygon fill="white" stroke="#666666" points="616,-19 515,-19 515,0 616,0 616,-19"/>
<text text-anchor="middle" x="565.5" y="-7" font-family="Helvetica,sans-Serif" font-size="10.00">src/P2/spliceobj.c</text>
</a>
</g>
</g>
<!-- Node8&#45;&gt;Node10 -->
<g id="edge9_Node000008_Node000010" class="edge">
<title>Node8&#45;&gt;Node10</title>
<g id="a_edge9_Node000008_Node000010"><a xlink:title=" ">
<path fill="none" stroke="#63b8ff" d="M538.2,-46.67C545.13,-37.5 553.41,-26.52 559.02,-19.09"/>
<polygon fill="#63b8ff" stroke="#63b8ff" points="535.34,-44.66 532.11,-54.75 540.92,-48.87 535.34,-44.66"/>
</a>
</g>
</g>
</g>
</svg>
