<?xml version="1.0" encoding="UTF-8" standalone="no"?>
<!DOCTYPE svg PUBLIC "-//W3C//DTD SVG 1.1//EN"
 "http://www.w3.org/Graphics/SVG/1.1/DTD/svg11.dtd">
<!-- Generated by graphviz version 2.43.0 (0)
 -->
<!-- Title: src/P2/splice/bif.cpp Pages: 1 -->
<!--zoomable 588 -->
<svg id="main" version="1.1" xmlns="http://www.w3.org/2000/svg" xmlns:xlink="http://www.w3.org/1999/xlink" xml:space="preserve" onload="init(evt)">
<style type="text/css"><![CDATA[
.edge:hover path { stroke: red; }
.edge:hover polygon { stroke: red; fill: red; }
]]></style>
<script type="text/javascript"><![CDATA[
var edges = document.getElementsByTagName('g');
if (edges && edges.length) {
  for (var i=0;i<edges.length;i++) {
    if (edges[i].id.substr(0,4)=='edge') {
      edges[i].setAttribute('class','edge');
    }
  }
}
]]></script>
        <defs>
                <circle id="rim" cx="0" cy="0" r="7"/>
                <circle id="rim2" cx="0" cy="0" r="3.5"/>
                <g id="zoomPlus">
                        <use xlink:href="#rim" fill="#404040">
                                <set attributeName="fill" to="#808080" begin="zoomplus.mouseover" end="zoomplus.mouseout"/>
                        </use>
                        <path d="M-4,0h8M0,-4v8" fill="none" stroke="white" stroke-width="1.5" pointer-events="none"/>
                </g>
                <g id="zoomMin">
                        <use xlink:href="#rim" fill="#404040">
                                <set attributeName="fill" to="#808080" begin="zoomminus.mouseover" end="zoomminus.mouseout"/>
                        </use>
                        <path d="M-4,0h8" fill="none" stroke="white" stroke-width="1.5" pointer-events="none"/>
                </g>
                <g id="dirArrow">
                        <path fill="none" stroke="white" stroke-width="1.5" d="M0,-3.0v7 M-2.5,-0.5L0,-3.0L2.5,-0.5"/>
                </g>
               <g id="resetDef">
                       <use xlink:href="#rim2" fill="#404040">
                               <set attributeName="fill" to="#808080" begin="reset.mouseover" end="reset.mouseout"/>
                       </use>
               </g>
        </defs>

<script type="text/javascript">
var viewWidth = 839;
var viewHeight = 588;
var sectionId = 'dynsection-0';
</script>
<script xlink:href="svgpan.js"/>
<svg id="graph" class="graph">
<g id="viewport">
<title>src/P2/splice/bif.cpp</title>
<polygon fill="white" stroke="transparent" points="-4,4 -4,-584 834.5,-584 834.5,4 -4,4"/>
<!-- Node1 -->
<g id="node1" class="node">
<title>Node1</title>
<g id="a_node1"><a xlink:title=" ">
<polygon fill="#bfbfbf" stroke="black" points="128,-560.5 128,-579.5 241,-579.5 241,-560.5 128,-560.5"/>
<text text-anchor="middle" x="184.5" y="-567.5" font-family="Helvetica,sans-Serif" font-size="10.00">src/P2/splice/bif.cpp</text>
</a>
</g>
</g>
<!-- Node2 -->
<g id="node2" class="node">
<title>Node2</title>
<g id="a_node2"><a xlink:href="bif_8h.html" target="_top" xlink:title=" ">
<polygon fill="white" stroke="black" points="0,-448.5 0,-467.5 69,-467.5 69,-448.5 0,-448.5"/>
<text text-anchor="middle" x="34.5" y="-455.5" font-family="Helvetica,sans-Serif" font-size="10.00">splice/bif.h</text>
</a>
</g>
</g>
<!-- Node1&#45;&gt;Node2 -->
<g id="edge1" class="edge">
<title>Node1&#45;&gt;Node2</title>
<path fill="none" stroke="midnightblue" d="M172.73,-560.37C147.1,-541.57 86,-496.77 54.32,-473.53"/>
<polygon fill="midnightblue" stroke="midnightblue" points="56.35,-470.68 46.22,-467.59 52.21,-476.33 56.35,-470.68"/>
</g>
<!-- Node8 -->
<g id="node8" class="node">
<title>Node8</title>
<g id="a_node8"><a xlink:href="ref_8h.html" target="_top" xlink:title=" ">
<polygon fill="white" stroke="black" points="149.5,-504.5 149.5,-523.5 219.5,-523.5 219.5,-504.5 149.5,-504.5"/>
<text text-anchor="middle" x="184.5" y="-511.5" font-family="Helvetica,sans-Serif" font-size="10.00">splice/ref.h</text>
</a>
</g>
</g>
<!-- Node1&#45;&gt;Node8 -->
<g id="edge7" class="edge">
<title>Node1&#45;&gt;Node8</title>
<path fill="none" stroke="midnightblue" d="M184.5,-560.08C184.5,-553.01 184.5,-542.86 184.5,-533.99"/>
<polygon fill="midnightblue" stroke="midnightblue" points="188,-533.75 184.5,-523.75 181,-533.75 188,-533.75"/>
</g>
<!-- Node22 -->
<g id="node22" class="node">
<title>Node22</title>
<g id="a_node22"><a xlink:href="frame_8h.html" target="_top" xlink:title=" ">
<polygon fill="white" stroke="black" points="640.5,-168.5 640.5,-187.5 726.5,-187.5 726.5,-168.5 640.5,-168.5"/>
<text text-anchor="middle" x="683.5" y="-175.5" font-family="Helvetica,sans-Serif" font-size="10.00">splice/frame.h</text>
</a>
</g>
</g>
<!-- Node1&#45;&gt;Node22 -->
<g id="edge47" class="edge">
<title>Node1&#45;&gt;Node22</title>
<path fill="none" stroke="midnightblue" d="M241.26,-565.29C398.9,-554.23 830.5,-518.51 830.5,-459 830.5,-459 830.5,-459 830.5,-289 830.5,-236.25 769.07,-205.73 725.64,-190.75"/>
<polygon fill="midnightblue" stroke="midnightblue" points="726.72,-187.42 716.12,-187.61 724.53,-194.07 726.72,-187.42"/>
</g>
<!-- Node3 -->
<g id="node3" class="node">
<title>Node3</title>
<g id="a_node3"><a xlink:href="common_8h.html" target="_top" xlink:title="Common header file.">
<polygon fill="white" stroke="black" points="370.5,-56.5 370.5,-75.5 438.5,-75.5 438.5,-56.5 370.5,-56.5"/>
<text text-anchor="middle" x="404.5" y="-63.5" font-family="Helvetica,sans-Serif" font-size="10.00">common.h</text>
</a>
</g>
</g>
<!-- Node2&#45;&gt;Node3 -->
<g id="edge2" class="edge">
<title>Node2&#45;&gt;Node3</title>
<path fill="none" stroke="midnightblue" d="M36.07,-448.48C39.32,-430.04 46.5,-385.04 46.5,-347 46.5,-347 46.5,-347 46.5,-177 46.5,-145.89 47.97,-131.14 72.5,-112 116.39,-77.76 280.25,-69.56 360.14,-67.61"/>
<polygon fill="midnightblue" stroke="midnightblue" points="360.45,-71.1 370.37,-67.38 360.3,-64.1 360.45,-71.1"/>
</g>
<!-- Node4 -->
<g id="node4" class="node">
<title>Node4</title>
<g id="a_node4"><a xlink:href="include__asm_8h.html" target="_top" xlink:title=" ">
<polygon fill="white" stroke="black" points="203,-0.5 203,-19.5 290,-19.5 290,-0.5 203,-0.5"/>
<text text-anchor="middle" x="246.5" y="-7.5" font-family="Helvetica,sans-Serif" font-size="10.00">include_asm.h</text>
</a>
</g>
</g>
<!-- Node3&#45;&gt;Node4 -->
<g id="edge3" class="edge">
<title>Node3&#45;&gt;Node4</title>
<path fill="none" stroke="midnightblue" d="M379.46,-56.44C352.88,-47.36 310.69,-32.94 280.98,-22.78"/>
<polygon fill="midnightblue" stroke="midnightblue" points="282.01,-19.44 271.42,-19.52 279.75,-26.06 282.01,-19.44"/>
</g>
<!-- Node5 -->
<g id="node5" class="node">
<title>Node5</title>
<g id="a_node5"><a xlink:href="include__rodata_8h.html" target="_top" xlink:title=" ">
<polygon fill="white" stroke="black" points="308.5,-0.5 308.5,-19.5 406.5,-19.5 406.5,-0.5 308.5,-0.5"/>
<text text-anchor="middle" x="357.5" y="-7.5" font-family="Helvetica,sans-Serif" font-size="10.00">include_rodata.h</text>
</a>
</g>
</g>
<!-- Node3&#45;&gt;Node5 -->
<g id="edge4" class="edge">
<title>Node3&#45;&gt;Node5</title>
<path fill="none" stroke="midnightblue" d="M396.74,-56.08C389.96,-48.3 379.96,-36.8 371.74,-27.37"/>
<polygon fill="midnightblue" stroke="midnightblue" points="374.32,-25 365.12,-19.75 369.04,-29.59 374.32,-25"/>
</g>
<!-- Node6 -->
<g id="node6" class="node">
<title>Node6</title>
<g id="a_node6"><a xlink:href="types_8h.html" target="_top" xlink:title="Common types used across the codebase.">
<polygon fill="white" stroke="black" points="425,-0.5 425,-19.5 478,-19.5 478,-0.5 425,-0.5"/>
<text text-anchor="middle" x="451.5" y="-7.5" font-family="Helvetica,sans-Serif" font-size="10.00">types.h</text>
</a>
</g>
</g>
<!-- Node3&#45;&gt;Node6 -->
<g id="edge5" class="edge">
<title>Node3&#45;&gt;Node6</title>
<path fill="none" stroke="midnightblue" d="M412.26,-56.08C419.04,-48.3 429.04,-36.8 437.26,-27.37"/>
<polygon fill="midnightblue" stroke="midnightblue" points="439.96,-29.59 443.88,-19.75 434.68,-25 439.96,-29.59"/>
</g>
<!-- Node7 -->
<g id="node7" class="node">
<title>Node7</title>
<g id="a_node7"><a xlink:href="vtables_8h.html" target="_top" xlink:title="Manually crafted vtables for various structs.">
<polygon fill="white" stroke="black" points="496.5,-0.5 496.5,-19.5 558.5,-19.5 558.5,-0.5 496.5,-0.5"/>
<text text-anchor="middle" x="527.5" y="-7.5" font-family="Helvetica,sans-Serif" font-size="10.00">vtables.h</text>
</a>
</g>
</g>
<!-- Node3&#45;&gt;Node7 -->
<g id="edge6" class="edge">
<title>Node3&#45;&gt;Node7</title>
<path fill="none" stroke="midnightblue" d="M423.99,-56.44C444.14,-47.6 475.82,-33.69 498.83,-23.59"/>
<polygon fill="midnightblue" stroke="midnightblue" points="500.35,-26.74 508.1,-19.52 497.54,-20.33 500.35,-26.74"/>
</g>
<!-- Node8&#45;&gt;Node2 -->
<g id="edge13" class="edge">
<title>Node8&#45;&gt;Node2</title>
<path fill="none" stroke="midnightblue" d="M160.73,-504.44C135.61,-495.4 95.79,-481.06 67.6,-470.92"/>
<polygon fill="midnightblue" stroke="midnightblue" points="68.75,-467.61 58.16,-467.52 66.38,-474.2 68.75,-467.61"/>
</g>
<!-- Node8&#45;&gt;Node3 -->
<g id="edge8" class="edge">
<title>Node8&#45;&gt;Node3</title>
<path fill="none" stroke="midnightblue" d="M176.96,-504.32C169.85,-495.68 159.44,-481.76 153.5,-468 109.73,-366.51 71.77,-329.25 105.5,-224 124.17,-165.75 134.22,-145.35 185.5,-112 238.74,-77.37 313.39,-68.63 360.33,-66.82"/>
<polygon fill="midnightblue" stroke="midnightblue" points="360.59,-70.32 370.48,-66.53 360.39,-63.32 360.59,-70.32"/>
</g>
<!-- Node9 -->
<g id="node9" class="node">
<title>Node9</title>
<g id="a_node9"><a xlink:href="proc_8h.html" target="_top" xlink:title=" ">
<polygon fill="white" stroke="black" points="114.5,-224.5 114.5,-243.5 192.5,-243.5 192.5,-224.5 114.5,-224.5"/>
<text text-anchor="middle" x="153.5" y="-231.5" font-family="Helvetica,sans-Serif" font-size="10.00">splice/proc.h</text>
</a>
</g>
</g>
<!-- Node8&#45;&gt;Node9 -->
<g id="edge9" class="edge">
<title>Node8&#45;&gt;Node9</title>
<path fill="none" stroke="midnightblue" d="M179.78,-504.46C170.23,-486.34 149.5,-442.48 149.5,-403 149.5,-403 149.5,-403 149.5,-345 149.5,-312.93 151.22,-275.63 152.4,-253.74"/>
<polygon fill="midnightblue" stroke="midnightblue" points="155.91,-253.73 152.98,-243.55 148.92,-253.34 155.91,-253.73"/>
</g>
<!-- Node10 -->
<g id="node10" class="node">
<title>Node10</title>
<g id="a_node10"><a xlink:href="method_8h.html" target="_top" xlink:title=" ">
<polygon fill="white" stroke="black" points="178,-392.5 178,-411.5 273,-411.5 273,-392.5 178,-392.5"/>
<text text-anchor="middle" x="225.5" y="-399.5" font-family="Helvetica,sans-Serif" font-size="10.00">splice/method.h</text>
</a>
</g>
</g>
<!-- Node8&#45;&gt;Node10 -->
<g id="edge11" class="edge">
<title>Node8&#45;&gt;Node10</title>
<path fill="none" stroke="midnightblue" d="M187.72,-504.37C194.36,-486.54 209.74,-445.3 218.69,-421.27"/>
<polygon fill="midnightblue" stroke="midnightblue" points="222.08,-422.18 222.3,-411.59 215.53,-419.74 222.08,-422.18"/>
</g>
<!-- Node11 -->
<g id="node11" class="node">
<title>Node11</title>
<g id="a_node11"><a xlink:href="basic_8h.html" target="_top" xlink:title="Basic object.">
<polygon fill="white" stroke="black" points="552,-168.5 552,-187.5 603,-187.5 603,-168.5 552,-168.5"/>
<text text-anchor="middle" x="577.5" y="-175.5" font-family="Helvetica,sans-Serif" font-size="10.00">basic.h</text>
</a>
</g>
</g>
<!-- Node8&#45;&gt;Node11 -->
<g id="edge14" class="edge">
<title>Node8&#45;&gt;Node11</title>
<path fill="none" stroke="midnightblue" d="M219.72,-510.7C316.18,-503.44 577.5,-476.95 577.5,-403 577.5,-403 577.5,-403 577.5,-289 577.5,-256.95 577.5,-219.64 577.5,-197.75"/>
<polygon fill="midnightblue" stroke="midnightblue" points="581,-197.56 577.5,-187.56 574,-197.56 581,-197.56"/>
</g>
<!-- Node13 -->
<g id="node13" class="node">
<title>Node13</title>
<g id="a_node13"><a xlink:href="util_8h.html" target="_top" xlink:title="Utility functions.">
<polygon fill="white" stroke="black" points="415,-448.5 415,-467.5 456,-467.5 456,-448.5 415,-448.5"/>
<text text-anchor="middle" x="435.5" y="-455.5" font-family="Helvetica,sans-Serif" font-size="10.00">util.h</text>
</a>
</g>
</g>
<!-- Node8&#45;&gt;Node13 -->
<g id="edge18" class="edge">
<title>Node8&#45;&gt;Node13</title>
<path fill="none" stroke="midnightblue" d="M219.66,-505.43C269.09,-494.8 358.26,-475.62 405.02,-465.56"/>
<polygon fill="midnightblue" stroke="midnightblue" points="405.82,-468.97 414.86,-463.44 404.35,-462.12 405.82,-468.97"/>
</g>
<!-- Node9&#45;&gt;Node3 -->
<g id="edge10" class="edge">
<title>Node9&#45;&gt;Node3</title>
<path fill="none" stroke="midnightblue" d="M154.61,-224.4C157.96,-202.11 170.09,-142.1 206.5,-112 229.57,-92.93 309.15,-79.36 360.12,-72.38"/>
<polygon fill="midnightblue" stroke="midnightblue" points="360.77,-75.83 370.22,-71.04 359.84,-68.89 360.77,-75.83"/>
</g>
<!-- Node10&#45;&gt;Node3 -->
<g id="edge12" class="edge">
<title>Node10&#45;&gt;Node3</title>
<path fill="none" stroke="midnightblue" d="M224.85,-392.45C223.49,-373.95 220.5,-328.85 220.5,-291 220.5,-291 220.5,-291 220.5,-177 220.5,-112.14 305.77,-84.61 360.21,-73.64"/>
<polygon fill="midnightblue" stroke="midnightblue" points="361.15,-77.03 370.32,-71.72 359.84,-70.15 361.15,-77.03"/>
</g>
<!-- Node11&#45;&gt;Node3 -->
<g id="edge15" class="edge">
<title>Node11&#45;&gt;Node3</title>
<path fill="none" stroke="midnightblue" d="M572.59,-168.16C564.48,-154.34 547.05,-127.58 525.5,-112 502.51,-95.38 472.68,-84.19 448.39,-77.13"/>
<polygon fill="midnightblue" stroke="midnightblue" points="449.27,-73.74 438.7,-74.44 447.4,-80.49 449.27,-73.74"/>
</g>
<!-- Node12 -->
<g id="node12" class="node">
<title>Node12</title>
<g id="a_node12"><a xlink:href="sidebag_8h.html" target="_top" xlink:title="Sidebag for splice.">
<polygon fill="white" stroke="black" points="593,-112.5 593,-131.5 688,-131.5 688,-112.5 593,-112.5"/>
<text text-anchor="middle" x="640.5" y="-119.5" font-family="Helvetica,sans-Serif" font-size="10.00">splice/sidebag.h</text>
</a>
</g>
</g>
<!-- Node11&#45;&gt;Node12 -->
<g id="edge16" class="edge">
<title>Node11&#45;&gt;Node12</title>
<path fill="none" stroke="midnightblue" d="M587.62,-168.32C597.03,-160.26 611.24,-148.08 622.57,-138.37"/>
<polygon fill="midnightblue" stroke="midnightblue" points="624.88,-141 630.19,-131.83 620.32,-135.68 624.88,-141"/>
</g>
<!-- Node12&#45;&gt;Node3 -->
<g id="edge17" class="edge">
<title>Node12&#45;&gt;Node3</title>
<path fill="none" stroke="midnightblue" d="M603.11,-112.44C561.14,-102.84 493.13,-87.28 448.61,-77.09"/>
<polygon fill="midnightblue" stroke="midnightblue" points="449.18,-73.63 438.65,-74.82 447.62,-80.46 449.18,-73.63"/>
</g>
<!-- Node13&#45;&gt;Node3 -->
<g id="edge19" class="edge">
<title>Node13&#45;&gt;Node3</title>
<path fill="none" stroke="midnightblue" d="M456.24,-455.17C532.43,-447.89 792.5,-417.85 792.5,-347 792.5,-347 792.5,-347 792.5,-177 792.5,-138.58 769.35,-130.18 735.5,-112 686.79,-85.83 526.99,-73.68 448.63,-69.18"/>
<polygon fill="midnightblue" stroke="midnightblue" points="448.76,-65.68 438.58,-68.62 448.37,-72.67 448.76,-65.68"/>
</g>
<!-- Node14 -->
<g id="node14" class="node">
<title>Node14</title>
<g id="a_node14"><a xlink:href="mat_8h.html" target="_top" xlink:title="3x3 and 4x4 matrix types.">
<polygon fill="white" stroke="black" points="413,-392.5 413,-411.5 458,-411.5 458,-392.5 413,-392.5"/>
<text text-anchor="middle" x="435.5" y="-399.5" font-family="Helvetica,sans-Serif" font-size="10.00">mat.h</text>
</a>
</g>
</g>
<!-- Node13&#45;&gt;Node14 -->
<g id="edge20" class="edge">
<title>Node13&#45;&gt;Node14</title>
<path fill="none" stroke="midnightblue" d="M435.5,-448.08C435.5,-441.01 435.5,-430.86 435.5,-421.99"/>
<polygon fill="midnightblue" stroke="midnightblue" points="439,-421.75 435.5,-411.75 432,-421.75 439,-421.75"/>
</g>
<!-- Node15 -->
<g id="node15" class="node">
<title>Node15</title>
<g id="a_node15"><a xlink:href="vec_8h.html" target="_top" xlink:title="Vector math.">
<polygon fill="white" stroke="black" points="501,-392.5 501,-411.5 544,-411.5 544,-392.5 501,-392.5"/>
<text text-anchor="middle" x="522.5" y="-399.5" font-family="Helvetica,sans-Serif" font-size="10.00">vec.h</text>
</a>
</g>
</g>
<!-- Node13&#45;&gt;Node15 -->
<g id="edge21" class="edge">
<title>Node13&#45;&gt;Node15</title>
<path fill="none" stroke="midnightblue" d="M449.48,-448.32C463.05,-439.9 483.88,-426.97 499.82,-417.07"/>
<polygon fill="midnightblue" stroke="midnightblue" points="501.91,-419.9 508.56,-411.65 498.21,-413.95 501.91,-419.9"/>
</g>
<!-- Node24 -->
<g id="node24" class="node">
<title>Node24</title>
<g id="a_node24"><a xlink:href="sm_8h.html" target="_top" xlink:title="State machines.">
<polygon fill="white" stroke="black" points="350,-336.5 350,-355.5 391,-355.5 391,-336.5 350,-336.5"/>
<text text-anchor="middle" x="370.5" y="-343.5" font-family="Helvetica,sans-Serif" font-size="10.00">sm.h</text>
</a>
</g>
</g>
<!-- Node13&#45;&gt;Node24 -->
<g id="edge40" class="edge">
<title>Node13&#45;&gt;Node24</title>
<path fill="none" stroke="midnightblue" d="M428.72,-448.3C421.95,-439.42 411.44,-425.12 403.5,-412 394.2,-396.62 385.06,-378.3 378.77,-365.03"/>
<polygon fill="midnightblue" stroke="midnightblue" points="381.78,-363.21 374.38,-355.63 375.44,-366.17 381.78,-363.21"/>
</g>
<!-- Node16 -->
<g id="node16" class="node">
<title>Node16</title>
<g id="a_node16"><a xlink:href="so_8h.html" target="_top" xlink:title="Scene objects.">
<polygon fill="white" stroke="black" points="507,-336.5 507,-355.5 544,-355.5 544,-336.5 507,-336.5"/>
<text text-anchor="middle" x="525.5" y="-343.5" font-family="Helvetica,sans-Serif" font-size="10.00">so.h</text>
</a>
</g>
</g>
<!-- Node15&#45;&gt;Node16 -->
<g id="edge22" class="edge">
<title>Node15&#45;&gt;Node16</title>
<path fill="none" stroke="midnightblue" d="M523,-392.08C523.39,-385.01 523.95,-374.86 524.45,-365.99"/>
<polygon fill="midnightblue" stroke="midnightblue" points="527.95,-365.93 525.01,-355.75 520.96,-365.54 527.95,-365.93"/>
</g>
<!-- Node17 -->
<g id="node17" class="node">
<title>Node17</title>
<g id="a_node17"><a xlink:href="alo_8h.html" target="_top" xlink:title=" ">
<polygon fill="white" stroke="black" points="507,-280.5 507,-299.5 548,-299.5 548,-280.5 507,-280.5"/>
<text text-anchor="middle" x="527.5" y="-287.5" font-family="Helvetica,sans-Serif" font-size="10.00">alo.h</text>
</a>
</g>
</g>
<!-- Node16&#45;&gt;Node17 -->
<g id="edge23" class="edge">
<title>Node16&#45;&gt;Node17</title>
<path fill="none" stroke="midnightblue" d="M525.83,-336.08C526.09,-329.01 526.47,-318.86 526.8,-309.99"/>
<polygon fill="midnightblue" stroke="midnightblue" points="530.3,-309.87 527.18,-299.75 523.31,-309.61 530.3,-309.87"/>
</g>
<!-- Node17&#45;&gt;Node3 -->
<g id="edge24" class="edge">
<title>Node17&#45;&gt;Node3</title>
<path fill="none" stroke="midnightblue" d="M548.2,-286.17C591.96,-278.95 693.32,-255.37 735.5,-188 749.6,-165.48 725.54,-120.9 714.5,-112 674.45,-79.74 524.41,-70.59 448.74,-68"/>
<polygon fill="midnightblue" stroke="midnightblue" points="448.68,-64.5 438.57,-67.68 448.45,-71.5 448.68,-64.5"/>
</g>
<!-- Node18 -->
<g id="node18" class="node">
<title>Node18</title>
<g id="a_node18"><a xlink:href="lo_8h.html" target="_top" xlink:title="Level objects.">
<polygon fill="white" stroke="black" points="415,-224.5 415,-243.5 450,-243.5 450,-224.5 415,-224.5"/>
<text text-anchor="middle" x="432.5" y="-231.5" font-family="Helvetica,sans-Serif" font-size="10.00">lo.h</text>
</a>
</g>
</g>
<!-- Node17&#45;&gt;Node18 -->
<g id="edge25" class="edge">
<title>Node17&#45;&gt;Node18</title>
<path fill="none" stroke="midnightblue" d="M512.24,-280.32C497.28,-271.82 474.25,-258.73 456.77,-248.8"/>
<polygon fill="midnightblue" stroke="midnightblue" points="458.15,-245.55 447.73,-243.65 454.69,-251.64 458.15,-245.55"/>
</g>
<!-- Node20 -->
<g id="node20" class="node">
<title>Node20</title>
<g id="a_node20"><a xlink:href="dl_8h.html" target="_top" xlink:title="Doubly&#45;linked list.">
<polygon fill="white" stroke="black" points="499,-168.5 499,-187.5 534,-187.5 534,-168.5 499,-168.5"/>
<text text-anchor="middle" x="516.5" y="-175.5" font-family="Helvetica,sans-Serif" font-size="10.00">dl.h</text>
</a>
</g>
</g>
<!-- Node17&#45;&gt;Node20 -->
<g id="edge39" class="edge">
<title>Node17&#45;&gt;Node20</title>
<path fill="none" stroke="midnightblue" d="M526.64,-280.37C524.86,-262.62 520.77,-221.67 518.36,-197.6"/>
<polygon fill="midnightblue" stroke="midnightblue" points="521.84,-197.19 517.36,-187.59 514.87,-197.89 521.84,-197.19"/>
</g>
<!-- Node18&#45;&gt;Node3 -->
<g id="edge26" class="edge">
<title>Node18&#45;&gt;Node3</title>
<path fill="none" stroke="midnightblue" d="M430.99,-224.08C426.59,-197.95 413.64,-121.21 407.63,-85.58"/>
<polygon fill="midnightblue" stroke="midnightblue" points="411.06,-84.85 405.95,-75.57 404.16,-86.01 411.06,-84.85"/>
</g>
<!-- Node18&#45;&gt;Node11 -->
<g id="edge29" class="edge">
<title>Node18&#45;&gt;Node11</title>
<path fill="none" stroke="midnightblue" d="M450.28,-226.38C473.86,-217.6 515.89,-201.94 545.16,-191.04"/>
<polygon fill="midnightblue" stroke="midnightblue" points="546.4,-194.32 554.55,-187.55 543.96,-187.76 546.4,-194.32"/>
</g>
<!-- Node19 -->
<g id="node19" class="node">
<title>Node19</title>
<g id="a_node19"><a xlink:href="oid_8h.html" target="_top" xlink:title="Object IDs.">
<polygon fill="white" stroke="black" points="457,-112.5 457,-131.5 498,-131.5 498,-112.5 457,-112.5"/>
<text text-anchor="middle" x="477.5" y="-119.5" font-family="Helvetica,sans-Serif" font-size="10.00">oid.h</text>
</a>
</g>
</g>
<!-- Node18&#45;&gt;Node19 -->
<g id="edge27" class="edge">
<title>Node18&#45;&gt;Node19</title>
<path fill="none" stroke="midnightblue" d="M436.03,-224.37C443.36,-206.46 460.35,-164.92 470.16,-140.95"/>
<polygon fill="midnightblue" stroke="midnightblue" points="473.44,-142.17 473.99,-131.59 466.96,-139.52 473.44,-142.17"/>
</g>
<!-- Node18&#45;&gt;Node20 -->
<g id="edge30" class="edge">
<title>Node18&#45;&gt;Node20</title>
<path fill="none" stroke="midnightblue" d="M446,-224.32C459.1,-215.9 479.21,-202.97 494.61,-193.07"/>
<polygon fill="midnightblue" stroke="midnightblue" points="496.52,-196.01 503.04,-187.65 492.73,-190.12 496.52,-196.01"/>
</g>
<!-- Node21 -->
<g id="node21" class="node">
<title>Node21</title>
<g id="a_node21"><a xlink:href="sw_8h.html" target="_top" xlink:title="Scene world?">
<polygon fill="white" stroke="black" points="362.5,-112.5 362.5,-131.5 400.5,-131.5 400.5,-112.5 362.5,-112.5"/>
<text text-anchor="middle" x="381.5" y="-119.5" font-family="Helvetica,sans-Serif" font-size="10.00">sw.h</text>
</a>
</g>
</g>
<!-- Node18&#45;&gt;Node21 -->
<g id="edge33" class="edge">
<title>Node18&#45;&gt;Node21</title>
<path fill="none" stroke="midnightblue" d="M428.5,-224.37C420.19,-206.46 400.94,-164.92 389.82,-140.95"/>
<polygon fill="midnightblue" stroke="midnightblue" points="392.86,-139.19 385.48,-131.59 386.51,-142.14 392.86,-139.19"/>
</g>
<!-- Node18&#45;&gt;Node22 -->
<g id="edge35" class="edge">
<title>Node18&#45;&gt;Node22</title>
<path fill="none" stroke="midnightblue" d="M450.15,-229.2C487.84,-221.1 577.33,-201.84 633.9,-189.67"/>
<polygon fill="midnightblue" stroke="midnightblue" points="634.67,-193.09 643.71,-187.56 633.2,-186.24 634.67,-193.09"/>
</g>
<!-- Node23 -->
<g id="node23" class="node">
<title>Node23</title>
<g id="a_node23"><a xlink:href="mq_8h.html" target="_top" xlink:title="Message queue.">
<polygon fill="white" stroke="black" points="325,-168.5 325,-187.5 366,-187.5 366,-168.5 325,-168.5"/>
<text text-anchor="middle" x="345.5" y="-175.5" font-family="Helvetica,sans-Serif" font-size="10.00">mq.h</text>
</a>
</g>
</g>
<!-- Node18&#45;&gt;Node23 -->
<g id="edge37" class="edge">
<title>Node18&#45;&gt;Node23</title>
<path fill="none" stroke="midnightblue" d="M418.52,-224.32C404.95,-215.9 384.12,-202.97 368.18,-193.07"/>
<polygon fill="midnightblue" stroke="midnightblue" points="369.79,-189.95 359.44,-187.65 366.09,-195.9 369.79,-189.95"/>
</g>
<!-- Node19&#45;&gt;Node3 -->
<g id="edge28" class="edge">
<title>Node19&#45;&gt;Node3</title>
<path fill="none" stroke="midnightblue" d="M465.77,-112.32C454.66,-104.11 437.76,-91.6 424.52,-81.81"/>
<polygon fill="midnightblue" stroke="midnightblue" points="426.56,-78.97 416.44,-75.83 422.4,-84.59 426.56,-78.97"/>
</g>
<!-- Node20&#45;&gt;Node3 -->
<g id="edge31" class="edge">
<title>Node20&#45;&gt;Node3</title>
<path fill="none" stroke="midnightblue" d="M517.6,-168.42C518.85,-154.96 519.28,-128.67 506.5,-112 492.37,-93.57 469.08,-82.53 448.31,-76"/>
<polygon fill="midnightblue" stroke="midnightblue" points="449.26,-72.63 438.69,-73.23 447.33,-79.36 449.26,-72.63"/>
</g>
<!-- Node20&#45;&gt;Node19 -->
<g id="edge32" class="edge">
<title>Node20&#45;&gt;Node19</title>
<path fill="none" stroke="midnightblue" d="M510.06,-168.08C504.55,-160.46 496.47,-149.26 489.74,-139.94"/>
<polygon fill="midnightblue" stroke="midnightblue" points="492.51,-137.81 483.82,-131.75 486.84,-141.91 492.51,-137.81"/>
</g>
<!-- Node21&#45;&gt;Node3 -->
<g id="edge34" class="edge">
<title>Node21&#45;&gt;Node3</title>
<path fill="none" stroke="midnightblue" d="M385.3,-112.08C388.41,-104.77 392.92,-94.18 396.79,-85.1"/>
<polygon fill="midnightblue" stroke="midnightblue" points="400.07,-86.32 400.77,-75.75 393.63,-83.58 400.07,-86.32"/>
</g>
<!-- Node22&#45;&gt;Node3 -->
<g id="edge36" class="edge">
<title>Node22&#45;&gt;Node3</title>
<path fill="none" stroke="midnightblue" d="M689.28,-168.28C697.54,-154.62 710.29,-128.07 696.5,-112 665.15,-75.45 522.7,-68.31 448.99,-67.1"/>
<polygon fill="midnightblue" stroke="midnightblue" points="448.68,-63.59 438.64,-66.96 448.59,-70.59 448.68,-63.59"/>
</g>
<!-- Node23&#45;&gt;Node3 -->
<g id="edge38" class="edge">
<title>Node23&#45;&gt;Node3</title>
<path fill="none" stroke="midnightblue" d="M344.7,-168.43C343.88,-155.44 343.85,-130.31 353.5,-112 359.95,-99.76 371.18,-89.3 381.47,-81.55"/>
<polygon fill="midnightblue" stroke="midnightblue" points="383.61,-84.32 389.76,-75.7 379.57,-78.6 383.61,-84.32"/>
</g>
<!-- Node24&#45;&gt;Node3 -->
<g id="edge41" class="edge">
<title>Node24&#45;&gt;Node3</title>
<path fill="none" stroke="midnightblue" d="M349.89,-339.06C330.36,-332.47 301.42,-320.02 283.5,-300 262.85,-276.94 258.5,-265.95 258.5,-235 258.5,-235 258.5,-235 258.5,-177 258.5,-124.44 319.59,-93.85 362.74,-78.8"/>
<polygon fill="midnightblue" stroke="midnightblue" points="364.08,-82.05 372.46,-75.56 361.87,-75.4 364.08,-82.05"/>
</g>
<!-- Node24&#45;&gt;Node20 -->
<g id="edge42" class="edge">
<title>Node24&#45;&gt;Node20</title>
<path fill="none" stroke="midnightblue" d="M378.35,-336.08C401.83,-309.38 471.76,-229.87 502.14,-195.32"/>
<polygon fill="midnightblue" stroke="midnightblue" points="504.99,-197.39 508.96,-187.57 499.73,-192.77 504.99,-197.39"/>
</g>
<!-- Node24&#45;&gt;Node23 -->
<g id="edge46" class="edge">
<title>Node24&#45;&gt;Node23</title>
<path fill="none" stroke="midnightblue" d="M369.16,-336.08C365.22,-309.95 353.66,-233.21 348.3,-197.58"/>
<polygon fill="midnightblue" stroke="midnightblue" points="351.74,-196.94 346.79,-187.57 344.82,-197.98 351.74,-196.94"/>
</g>
<!-- Node25 -->
<g id="node25" class="node">
<title>Node25</title>
<g id="a_node25"><a xlink:href="anim_8h.html" target="_top" xlink:title="Animation.">
<polygon fill="white" stroke="black" points="292.5,-280.5 292.5,-299.5 342.5,-299.5 342.5,-280.5 292.5,-280.5"/>
<text text-anchor="middle" x="317.5" y="-287.5" font-family="Helvetica,sans-Serif" font-size="10.00">anim.h</text>
</a>
</g>
</g>
<!-- Node24&#45;&gt;Node25 -->
<g id="edge43" class="edge">
<title>Node24&#45;&gt;Node25</title>
<path fill="none" stroke="midnightblue" d="M361.75,-336.08C354.03,-328.22 342.6,-316.57 333.28,-307.08"/>
<polygon fill="midnightblue" stroke="midnightblue" points="335.59,-304.44 326.09,-299.75 330.6,-309.34 335.59,-304.44"/>
</g>
<!-- Node25&#45;&gt;Node3 -->
<g id="edge44" class="edge">
<title>Node25&#45;&gt;Node3</title>
<path fill="none" stroke="midnightblue" d="M315.92,-280.34C312.56,-260.25 305.8,-209.1 315.5,-168 321.89,-140.92 325.59,-133.29 343.5,-112 353.83,-99.72 368.16,-88.93 380.33,-81"/>
<polygon fill="midnightblue" stroke="midnightblue" points="382.49,-83.78 389.12,-75.51 378.78,-77.84 382.49,-83.78"/>
</g>
<!-- Node25&#45;&gt;Node18 -->
<g id="edge45" class="edge">
<title>Node25&#45;&gt;Node18</title>
<path fill="none" stroke="midnightblue" d="M335.72,-280.44C354.51,-271.62 384,-257.77 405.5,-247.68"/>
<polygon fill="midnightblue" stroke="midnightblue" points="407.18,-250.76 414.74,-243.34 404.2,-244.42 407.18,-250.76"/>
</g>
</g>
</svg>
        <g id="navigator" transform="translate(0 0)" fill="#404254">
                <rect fill="#f2f5e9" fill-opacity="0.5" stroke="#606060" stroke-width=".5" x="0" y="0" width="60" height="60"/>
                <use id="zoomplus" xlink:href="#zoomPlus" x="17" y="9" onmousedown="handleZoom(evt,'in')"/>
                <use id="zoomminus" xlink:href="#zoomMin" x="42" y="9" onmousedown="handleZoom(evt,'out')"/>
                <use id="reset" xlink:href="#resetDef" x="30" y="36" onmousedown="handleReset()"/>
                <g id="arrowUp" xlink:href="#dirArrow" transform="translate(30 24)" onmousedown="handlePan(0,-1)">
                  <use xlink:href="#rim" fill="#404040">
                        <set attributeName="fill" to="#808080" begin="arrowUp.mouseover" end="arrowUp.mouseout"/>
                  </use>
                  <path fill="none" stroke="white" stroke-width="1.5" d="M0,-3.0v7 M-2.5,-0.5L0,-3.0L2.5,-0.5"/>
                </g>
                <g id="arrowRight" xlink:href="#dirArrow" transform="rotate(90) translate(36 -43)" onmousedown="handlePan(1,0)">
                  <use xlink:href="#rim" fill="#404040">
                        <set attributeName="fill" to="#808080" begin="arrowRight.mouseover" end="arrowRight.mouseout"/>
                  </use>
                  <path fill="none" stroke="white" stroke-width="1.5" d="M0,-3.0v7 M-2.5,-0.5L0,-3.0L2.5,-0.5"/>
                </g>
                <g id="arrowDown" xlink:href="#dirArrow" transform="rotate(180) translate(-30 -48)" onmousedown="handlePan(0,1)">
                  <use xlink:href="#rim" fill="#404040">
                        <set attributeName="fill" to="#808080" begin="arrowDown.mouseover" end="arrowDown.mouseout"/>
                  </use>
                  <path fill="none" stroke="white" stroke-width="1.5" d="M0,-3.0v7 M-2.5,-0.5L0,-3.0L2.5,-0.5"/>
                </g>
                <g id="arrowLeft" xlink:href="#dirArrow" transform="rotate(270) translate(-36 17)" onmousedown="handlePan(-1,0)">
                  <use xlink:href="#rim" fill="#404040">
                        <set attributeName="fill" to="#808080" begin="arrowLeft.mouseover" end="arrowLeft.mouseout"/>
                  </use>
                  <path fill="none" stroke="white" stroke-width="1.5" d="M0,-3.0v7 M-2.5,-0.5L0,-3.0L2.5,-0.5"/>
                </g>
        </g>
        <svg viewBox="0 0 15 15" width="100%" height="30px" preserveAspectRatio="xMaxYMin meet">
         <g id="arrow_out" transform="scale(0.3 0.3)">
          <a xlink:href="bif_8cpp__incl_org.svg" target="_base">
           <rect id="button" ry="5" rx="5" y="6" x="6" height="38" width="38"
                fill="#f2f5e9" fill-opacity="0.5" stroke="#606060" stroke-width="1.0"/>
           <path id="arrow"
             d="M 11.500037,31.436501 C 11.940474,20.09759 22.043105,11.32322 32.158766,21.979434 L 37.068811,17.246167 C 37.068811,17.246167 37.088388,32 37.088388,32 L 22.160133,31.978069 C 22.160133,31.978069 26.997745,27.140456 26.997745,27.140456 C 18.528582,18.264221 13.291696,25.230495 11.500037,31.436501 z"
             style="fill:#404040;"/>
          </a>
         </g>
        </svg>
</svg>
