<?xml version="1.0" encoding="UTF-8" standalone="no"?>
<!DOCTYPE svg PUBLIC "-//W3C//DTD SVG 1.1//EN"
 "http://www.w3.org/Graphics/SVG/1.1/DTD/svg11.dtd">
<!-- Generated by graphviz version 2.43.0 (0)
 -->
<!-- Title: include/binoc.h Pages: 1 -->
<svg width="638pt" height="420pt"
 viewBox="0.00 0.00 638.15 420.00" xmlns="http://www.w3.org/2000/svg" xmlns:xlink="http://www.w3.org/1999/xlink">
<g id="graph0" class="graph" transform="scale(1 1) rotate(0) translate(4 416)">
<title>include/binoc.h</title>
<polygon fill="white" stroke="transparent" points="-4,4 -4,-416 634.15,-416 634.15,4 -4,4"/>
<!-- Node1 -->
<g id="node1" class="node">
<title>Node1</title>
<g id="a_node1"><a xlink:title="Binoc&#45;u&#45;com.">
<polygon fill="#bfbfbf" stroke="black" points="92.5,-392.5 92.5,-411.5 182.5,-411.5 182.5,-392.5 92.5,-392.5"/>
<text text-anchor="middle" x="137.5" y="-399.5" font-family="Helvetica,sans-Serif" font-size="10.00">include/binoc.h</text>
</a>
</g>
</g>
<!-- Node2 -->
<g id="node2" class="node">
<title>Node2</title>
<g id="a_node2"><a xlink:href="binoc_8c.html" target="_top" xlink:title=" ">
<polygon fill="white" stroke="black" points="0,-336.5 0,-355.5 83,-355.5 83,-336.5 0,-336.5"/>
<text text-anchor="middle" x="41.5" y="-343.5" font-family="Helvetica,sans-Serif" font-size="10.00">src/P2/binoc.c</text>
</a>
</g>
</g>
<!-- Node1&#45;&gt;Node2 -->
<g id="edge1" class="edge">
<title>Node1&#45;&gt;Node2</title>
<path fill="none" stroke="midnightblue" d="M112.93,-387.18C95.26,-377.24 71.99,-364.15 56.89,-355.65"/>
<polygon fill="midnightblue" stroke="midnightblue" points="111.64,-390.47 122.08,-392.32 115.08,-384.37 111.64,-390.47"/>
</g>
<!-- Node3 -->
<g id="node3" class="node">
<title>Node3</title>
<g id="a_node3"><a xlink:href="cm_8c.html" target="_top" xlink:title=" ">
<polygon fill="white" stroke="black" points="58.5,-112.5 58.5,-131.5 130.5,-131.5 130.5,-112.5 58.5,-112.5"/>
<text text-anchor="middle" x="94.5" y="-119.5" font-family="Helvetica,sans-Serif" font-size="10.00">src/P2/cm.c</text>
</a>
</g>
</g>
<!-- Node1&#45;&gt;Node3 -->
<g id="edge2" class="edge">
<title>Node1&#45;&gt;Node3</title>
<path fill="none" stroke="midnightblue" d="M130.47,-382.83C122.77,-361.27 111.5,-324.07 111.5,-291 111.5,-291 111.5,-291 111.5,-233 111.5,-194.93 101.43,-150.31 96.79,-131.77"/>
<polygon fill="midnightblue" stroke="midnightblue" points="127.23,-384.17 133.99,-392.32 133.79,-381.73 127.23,-384.17"/>
</g>
<!-- Node4 -->
<g id="node4" class="node">
<title>Node4</title>
<g id="a_node4"><a xlink:href="cm_8h.html" target="_top" xlink:title="Game camera.">
<polygon fill="white" stroke="black" points="140,-168.5 140,-187.5 219,-187.5 219,-168.5 140,-168.5"/>
<text text-anchor="middle" x="179.5" y="-175.5" font-family="Helvetica,sans-Serif" font-size="10.00">include/cm.h</text>
</a>
</g>
</g>
<!-- Node1&#45;&gt;Node4 -->
<g id="edge3" class="edge">
<title>Node1&#45;&gt;Node4</title>
<path fill="none" stroke="midnightblue" d="M141.04,-382.3C149.68,-336.64 171.58,-220.85 177.82,-187.88"/>
<polygon fill="midnightblue" stroke="midnightblue" points="137.57,-381.82 139.15,-392.3 144.44,-383.12 137.57,-381.82"/>
</g>
<!-- Node7 -->
<g id="node7" class="node">
<title>Node7</title>
<g id="a_node7"><a xlink:href="prog_8h.html" target="_top" xlink:title=" ">
<polygon fill="white" stroke="black" points="268.5,-336.5 268.5,-355.5 354.5,-355.5 354.5,-336.5 268.5,-336.5"/>
<text text-anchor="middle" x="311.5" y="-343.5" font-family="Helvetica,sans-Serif" font-size="10.00">include/prog.h</text>
</a>
</g>
</g>
<!-- Node1&#45;&gt;Node7 -->
<g id="edge7" class="edge">
<title>Node1&#45;&gt;Node7</title>
<path fill="none" stroke="midnightblue" d="M174.76,-389.44C207.57,-379.26 254.58,-364.66 284.06,-355.52"/>
<polygon fill="midnightblue" stroke="midnightblue" points="173.58,-386.14 165.07,-392.44 175.66,-392.82 173.58,-386.14"/>
</g>
<!-- Node4&#45;&gt;Node3 -->
<g id="edge4" class="edge">
<title>Node4&#45;&gt;Node3</title>
<path fill="none" stroke="midnightblue" d="M157.31,-162.9C141.72,-153 121.37,-140.07 108.12,-131.65"/>
<polygon fill="midnightblue" stroke="midnightblue" points="155.53,-165.92 165.84,-168.32 159.28,-160.01 155.53,-165.92"/>
</g>
<!-- Node5 -->
<g id="node5" class="node">
<title>Node5</title>
<g id="a_node5"><a xlink:href="flash_8h.html" target="_top" xlink:title="Flash (might be flash animation, or literal screen flashes).">
<polygon fill="white" stroke="black" points="149,-112.5 149,-131.5 236,-131.5 236,-112.5 149,-112.5"/>
<text text-anchor="middle" x="192.5" y="-119.5" font-family="Helvetica,sans-Serif" font-size="10.00">include/flash.h</text>
</a>
</g>
</g>
<!-- Node4&#45;&gt;Node5 -->
<g id="edge5" class="edge">
<title>Node4&#45;&gt;Node5</title>
<path fill="none" stroke="midnightblue" d="M184.05,-158.1C186.21,-149.14 188.68,-138.86 190.39,-131.75"/>
<polygon fill="midnightblue" stroke="midnightblue" points="180.58,-157.54 181.65,-168.08 187.39,-159.18 180.58,-157.54"/>
</g>
<!-- Node6 -->
<g id="node6" class="node">
<title>Node6</title>
<g id="a_node6"><a xlink:href="flash_8c.html" target="_top" xlink:title=" ">
<polygon fill="white" stroke="black" points="48.5,-56.5 48.5,-75.5 128.5,-75.5 128.5,-56.5 48.5,-56.5"/>
<text text-anchor="middle" x="88.5" y="-63.5" font-family="Helvetica,sans-Serif" font-size="10.00">src/P2/flash.c</text>
</a>
</g>
</g>
<!-- Node5&#45;&gt;Node6 -->
<g id="edge6" class="edge">
<title>Node5&#45;&gt;Node6</title>
<path fill="none" stroke="midnightblue" d="M166.67,-107.59C147.44,-97.61 121.76,-84.27 105.17,-75.65"/>
<polygon fill="midnightblue" stroke="midnightblue" points="165.3,-110.82 175.79,-112.32 168.53,-104.61 165.3,-110.82"/>
</g>
<!-- Node8 -->
<g id="node8" class="node">
<title>Node8</title>
<g id="a_node8"><a xlink:href="prog_8c.html" target="_top" xlink:title=" ">
<polygon fill="white" stroke="black" points="369,-280.5 369,-299.5 448,-299.5 448,-280.5 369,-280.5"/>
<text text-anchor="middle" x="408.5" y="-287.5" font-family="Helvetica,sans-Serif" font-size="10.00">src/P2/prog.c</text>
</a>
</g>
</g>
<!-- Node7&#45;&gt;Node8 -->
<g id="edge8" class="edge">
<title>Node7&#45;&gt;Node8</title>
<path fill="none" stroke="midnightblue" d="M335.84,-331.45C353.74,-321.48 377.55,-308.23 392.95,-299.65"/>
<polygon fill="midnightblue" stroke="midnightblue" points="334.12,-328.4 327.08,-336.32 337.52,-334.52 334.12,-328.4"/>
</g>
<!-- Node9 -->
<g id="node9" class="node">
<title>Node9</title>
<g id="a_node9"><a xlink:href="bis_8h.html" target="_top" xlink:title="Binary Input Stream.">
<polygon fill="white" stroke="black" points="272.5,-280.5 272.5,-299.5 350.5,-299.5 350.5,-280.5 272.5,-280.5"/>
<text text-anchor="middle" x="311.5" y="-287.5" font-family="Helvetica,sans-Serif" font-size="10.00">include/bis.h</text>
</a>
</g>
</g>
<!-- Node7&#45;&gt;Node9 -->
<g id="edge9" class="edge">
<title>Node7&#45;&gt;Node9</title>
<path fill="none" stroke="midnightblue" d="M311.5,-325.8C311.5,-316.91 311.5,-306.78 311.5,-299.75"/>
<polygon fill="midnightblue" stroke="midnightblue" points="308,-326.08 311.5,-336.08 315,-326.08 308,-326.08"/>
</g>
<!-- Node10 -->
<g id="node10" class="node">
<title>Node10</title>
<g id="a_node10"><a xlink:href="bis_8c.html" target="_top" xlink:title=" ">
<polygon fill="white" stroke="black" points="276,-224.5 276,-243.5 347,-243.5 347,-224.5 276,-224.5"/>
<text text-anchor="middle" x="311.5" y="-231.5" font-family="Helvetica,sans-Serif" font-size="10.00">src/P2/bis.c</text>
</a>
</g>
</g>
<!-- Node9&#45;&gt;Node10 -->
<g id="edge10" class="edge">
<title>Node9&#45;&gt;Node10</title>
<path fill="none" stroke="midnightblue" d="M311.5,-269.8C311.5,-260.91 311.5,-250.78 311.5,-243.75"/>
<polygon fill="midnightblue" stroke="midnightblue" points="308,-270.08 311.5,-280.08 315,-270.08 308,-270.08"/>
</g>
<!-- Node11 -->
<g id="node11" class="node">
<title>Node11</title>
<g id="a_node11"><a xlink:href="coin_8c.html" target="_top" xlink:title=" ">
<polygon fill="white" stroke="black" points="501,-56.5 501,-75.5 578,-75.5 578,-56.5 501,-56.5"/>
<text text-anchor="middle" x="539.5" y="-63.5" font-family="Helvetica,sans-Serif" font-size="10.00">src/P2/coin.c</text>
</a>
</g>
</g>
<!-- Node9&#45;&gt;Node11 -->
<g id="edge11" class="edge">
<title>Node9&#45;&gt;Node11</title>
<path fill="none" stroke="midnightblue" d="M355.02,-277.95C436.8,-256.75 606.68,-210.48 622.5,-188 651.96,-146.12 583.99,-95.41 553.43,-75.56"/>
<polygon fill="midnightblue" stroke="midnightblue" points="354.07,-274.58 345.26,-280.47 355.82,-281.36 354.07,-274.58"/>
</g>
<!-- Node12 -->
<g id="node12" class="node">
<title>Node12</title>
<g id="a_node12"><a xlink:href="chkpnt_8h.html" target="_top" xlink:title="Checkpoint system.">
<polygon fill="white" stroke="black" points="267,-112.5 267,-131.5 364,-131.5 364,-112.5 267,-112.5"/>
<text text-anchor="middle" x="315.5" y="-119.5" font-family="Helvetica,sans-Serif" font-size="10.00">include/chkpnt.h</text>
</a>
</g>
</g>
<!-- Node9&#45;&gt;Node12 -->
<g id="edge12" class="edge">
<title>Node9&#45;&gt;Node12</title>
<path fill="none" stroke="midnightblue" d="M290.33,-274.04C281.17,-266.26 271.42,-255.88 266.5,-244 253.57,-212.79 252.91,-198.92 266.5,-168 273.47,-152.14 289.09,-139.42 300.84,-131.6"/>
<polygon fill="midnightblue" stroke="midnightblue" points="288.42,-276.99 298.44,-280.44 292.75,-271.49 288.42,-276.99"/>
</g>
<!-- Node17 -->
<g id="node17" class="node">
<title>Node17</title>
<g id="a_node17"><a xlink:href="xform_8h.html" target="_top" xlink:title="Transform.">
<polygon fill="white" stroke="black" points="365,-224.5 365,-243.5 458,-243.5 458,-224.5 365,-224.5"/>
<text text-anchor="middle" x="411.5" y="-231.5" font-family="Helvetica,sans-Serif" font-size="10.00">include/xform.h</text>
</a>
</g>
</g>
<!-- Node9&#45;&gt;Node17 -->
<g id="edge18" class="edge">
<title>Node9&#45;&gt;Node17</title>
<path fill="none" stroke="midnightblue" d="M336.59,-275.45C355.05,-265.48 379.6,-252.23 395.47,-243.65"/>
<polygon fill="midnightblue" stroke="midnightblue" points="334.7,-272.49 327.57,-280.32 338.03,-278.65 334.7,-272.49"/>
</g>
<!-- Node12&#45;&gt;Node11 -->
<g id="edge14" class="edge">
<title>Node12&#45;&gt;Node11</title>
<path fill="none" stroke="midnightblue" d="M360.76,-110.09C403.08,-99.89 465.41,-84.86 504.17,-75.52"/>
<polygon fill="midnightblue" stroke="midnightblue" points="359.89,-106.7 350.99,-112.44 361.54,-113.5 359.89,-106.7"/>
</g>
<!-- Node13 -->
<g id="node13" class="node">
<title>Node13</title>
<g id="a_node13"><a xlink:href="chkpnt_8c.html" target="_top" xlink:title=" ">
<polygon fill="white" stroke="black" points="270.5,-56.5 270.5,-75.5 360.5,-75.5 360.5,-56.5 270.5,-56.5"/>
<text text-anchor="middle" x="315.5" y="-63.5" font-family="Helvetica,sans-Serif" font-size="10.00">src/P2/chkpnt.c</text>
</a>
</g>
</g>
<!-- Node12&#45;&gt;Node13 -->
<g id="edge13" class="edge">
<title>Node12&#45;&gt;Node13</title>
<path fill="none" stroke="midnightblue" d="M315.5,-101.8C315.5,-92.91 315.5,-82.78 315.5,-75.75"/>
<polygon fill="midnightblue" stroke="midnightblue" points="312,-102.08 315.5,-112.08 319,-102.08 312,-102.08"/>
</g>
<!-- Node14 -->
<g id="node14" class="node">
<title>Node14</title>
<g id="a_node14"><a xlink:href="transition_8c.html" target="_top" xlink:title=" ">
<polygon fill="white" stroke="black" points="378.5,-56.5 378.5,-75.5 482.5,-75.5 482.5,-56.5 378.5,-56.5"/>
<text text-anchor="middle" x="430.5" y="-63.5" font-family="Helvetica,sans-Serif" font-size="10.00">src/P2/transition.c</text>
</a>
</g>
</g>
<!-- Node12&#45;&gt;Node14 -->
<g id="edge15" class="edge">
<title>Node12&#45;&gt;Node14</title>
<path fill="none" stroke="midnightblue" d="M342.98,-108.1C364.47,-98.01 393.72,-84.27 412.36,-75.52"/>
<polygon fill="midnightblue" stroke="midnightblue" points="341.29,-105.02 333.72,-112.44 344.26,-111.36 341.29,-105.02"/>
</g>
<!-- Node15 -->
<g id="node15" class="node">
<title>Node15</title>
<g id="a_node15"><a xlink:href="difficulty_8h.html" target="_top" xlink:title="Dynamic difficulty system.">
<polygon fill="white" stroke="black" points="147,-56.5 147,-75.5 252,-75.5 252,-56.5 147,-56.5"/>
<text text-anchor="middle" x="199.5" y="-63.5" font-family="Helvetica,sans-Serif" font-size="10.00">include/difficulty.h</text>
</a>
</g>
</g>
<!-- Node12&#45;&gt;Node15 -->
<g id="edge16" class="edge">
<title>Node12&#45;&gt;Node15</title>
<path fill="none" stroke="midnightblue" d="M287.78,-108.1C266.11,-98.01 236.6,-84.27 217.79,-75.52"/>
<polygon fill="midnightblue" stroke="midnightblue" points="286.58,-111.4 297.12,-112.44 289.53,-105.05 286.58,-111.4"/>
</g>
<!-- Node16 -->
<g id="node16" class="node">
<title>Node16</title>
<g id="a_node16"><a xlink:href="difficulty_8c.html" target="_top" xlink:title=" ">
<polygon fill="white" stroke="black" points="150.5,-0.5 150.5,-19.5 248.5,-19.5 248.5,-0.5 150.5,-0.5"/>
<text text-anchor="middle" x="199.5" y="-7.5" font-family="Helvetica,sans-Serif" font-size="10.00">src/P2/difficulty.c</text>
</a>
</g>
</g>
<!-- Node15&#45;&gt;Node16 -->
<g id="edge17" class="edge">
<title>Node15&#45;&gt;Node16</title>
<path fill="none" stroke="midnightblue" d="M199.5,-45.8C199.5,-36.91 199.5,-26.78 199.5,-19.75"/>
<polygon fill="midnightblue" stroke="midnightblue" points="196,-46.08 199.5,-56.08 203,-46.08 196,-46.08"/>
</g>
<!-- Node17&#45;&gt;Node4 -->
<g id="edge21" class="edge">
<title>Node17&#45;&gt;Node4</title>
<path fill="none" stroke="midnightblue" d="M364.9,-222.15C321.06,-211.95 256.32,-196.88 216.09,-187.52"/>
<polygon fill="midnightblue" stroke="midnightblue" points="364.21,-225.59 374.74,-224.44 365.79,-218.77 364.21,-225.59"/>
</g>
<!-- Node18 -->
<g id="node18" class="node">
<title>Node18</title>
<g id="a_node18"><a xlink:href="xform1_8c.html" target="_top" xlink:title=" ">
<polygon fill="white" stroke="black" points="521.5,-168.5 521.5,-187.5 613.5,-187.5 613.5,-168.5 521.5,-168.5"/>
<text text-anchor="middle" x="567.5" y="-175.5" font-family="Helvetica,sans-Serif" font-size="10.00">src/P2/xform1.c</text>
</a>
</g>
</g>
<!-- Node17&#45;&gt;Node18 -->
<g id="edge19" class="edge">
<title>Node17&#45;&gt;Node18</title>
<path fill="none" stroke="midnightblue" d="M445.67,-221.17C475.04,-211 516.7,-196.59 542.9,-187.52"/>
<polygon fill="midnightblue" stroke="midnightblue" points="444.52,-217.86 436.22,-224.44 446.81,-224.48 444.52,-217.86"/>
</g>
<!-- Node19 -->
<g id="node19" class="node">
<title>Node19</title>
<g id="a_node19"><a xlink:href="xform2_8c.html" target="_top" xlink:title=" ">
<polygon fill="white" stroke="black" points="411.5,-168.5 411.5,-187.5 503.5,-187.5 503.5,-168.5 411.5,-168.5"/>
<text text-anchor="middle" x="457.5" y="-175.5" font-family="Helvetica,sans-Serif" font-size="10.00">src/P2/xform2.c</text>
</a>
</g>
</g>
<!-- Node17&#45;&gt;Node19 -->
<g id="edge20" class="edge">
<title>Node17&#45;&gt;Node19</title>
<path fill="none" stroke="midnightblue" d="M425.61,-216.43C433.68,-206.97 443.46,-195.48 450.05,-187.75"/>
<polygon fill="midnightblue" stroke="midnightblue" points="422.92,-214.2 419.1,-224.08 428.25,-218.74 422.92,-214.2"/>
</g>
<!-- Node20 -->
<g id="node20" class="node">
<title>Node20</title>
<g id="a_node20"><a xlink:href="coin_8h.html" target="_top" xlink:title="Coins, keys, and other collectibles.">
<polygon fill="white" stroke="black" points="440.5,-112.5 440.5,-131.5 524.5,-131.5 524.5,-112.5 440.5,-112.5"/>
<text text-anchor="middle" x="482.5" y="-119.5" font-family="Helvetica,sans-Serif" font-size="10.00">include/coin.h</text>
</a>
</g>
</g>
<!-- Node17&#45;&gt;Node20 -->
<g id="edge22" class="edge">
<title>Node17&#45;&gt;Node20</title>
<path fill="none" stroke="midnightblue" d="M403.19,-214.99C398.16,-201.23 394.16,-182.26 402.5,-168 413.2,-149.71 434.37,-138.27 452.25,-131.51"/>
<polygon fill="midnightblue" stroke="midnightblue" points="400,-216.43 407.05,-224.33 406.47,-213.75 400,-216.43"/>
</g>
<!-- Node21 -->
<g id="node21" class="node">
<title>Node21</title>
<g id="a_node21"><a xlink:href="vol_8h.html" target="_top" xlink:title="Volume object.">
<polygon fill="white" stroke="black" points="276,-168.5 276,-187.5 355,-187.5 355,-168.5 276,-168.5"/>
<text text-anchor="middle" x="315.5" y="-175.5" font-family="Helvetica,sans-Serif" font-size="10.00">include/vol.h</text>
</a>
</g>
</g>
<!-- Node17&#45;&gt;Node21 -->
<g id="edge24" class="edge">
<title>Node17&#45;&gt;Node21</title>
<path fill="none" stroke="midnightblue" d="M386.93,-219.18C369.26,-209.24 345.99,-196.15 330.89,-187.65"/>
<polygon fill="midnightblue" stroke="midnightblue" points="385.64,-222.47 396.08,-224.32 389.08,-216.37 385.64,-222.47"/>
</g>
<!-- Node20&#45;&gt;Node11 -->
<g id="edge23" class="edge">
<title>Node20&#45;&gt;Node11</title>
<path fill="none" stroke="midnightblue" d="M499.12,-105.25C509.23,-95.67 521.78,-83.79 530.18,-75.83"/>
<polygon fill="midnightblue" stroke="midnightblue" points="496.51,-102.91 491.66,-112.32 501.32,-107.99 496.51,-102.91"/>
</g>
<!-- Node21&#45;&gt;Node12 -->
<g id="edge25" class="edge">
<title>Node21&#45;&gt;Node12</title>
<path fill="none" stroke="midnightblue" d="M315.5,-157.8C315.5,-148.91 315.5,-138.78 315.5,-131.75"/>
<polygon fill="midnightblue" stroke="midnightblue" points="312,-158.08 315.5,-168.08 319,-158.08 312,-158.08"/>
</g>
</g>
</svg>
