<?xml version="1.0" encoding="UTF-8" standalone="no"?>
<!DOCTYPE svg PUBLIC "-//W3C//DTD SVG 1.1//EN"
 "http://www.w3.org/Graphics/SVG/1.1/DTD/svg11.dtd">
<!-- Generated by graphviz version 2.43.0 (0)
 -->
<!-- Title: include/binoc.h Pages: 1 -->
<!--zoomable 644 -->
<svg id="main" version="1.1" xmlns="http://www.w3.org/2000/svg" xmlns:xlink="http://www.w3.org/1999/xlink" xml:space="preserve" onload="init(evt)">
<style type="text/css"><![CDATA[
.edge:hover path { stroke: red; }
.edge:hover polygon { stroke: red; fill: red; }
]]></style>
<script type="text/javascript"><![CDATA[
var edges = document.getElementsByTagName('g');
if (edges && edges.length) {
  for (var i=0;i<edges.length;i++) {
    if (edges[i].id.substr(0,4)=='edge') {
      edges[i].setAttribute('class','edge');
    }
  }
}
]]></script>
        <defs>
                <circle id="rim" cx="0" cy="0" r="7"/>
                <circle id="rim2" cx="0" cy="0" r="3.5"/>
                <g id="zoomPlus">
                        <use xlink:href="#rim" fill="#404040">
                                <set attributeName="fill" to="#808080" begin="zoomplus.mouseover" end="zoomplus.mouseout"/>
                        </use>
                        <path d="M-4,0h8M0,-4v8" fill="none" stroke="white" stroke-width="1.5" pointer-events="none"/>
                </g>
                <g id="zoomMin">
                        <use xlink:href="#rim" fill="#404040">
                                <set attributeName="fill" to="#808080" begin="zoomminus.mouseover" end="zoomminus.mouseout"/>
                        </use>
                        <path d="M-4,0h8" fill="none" stroke="white" stroke-width="1.5" pointer-events="none"/>
                </g>
                <g id="dirArrow">
                        <path fill="none" stroke="white" stroke-width="1.5" d="M0,-3.0v7 M-2.5,-0.5L0,-3.0L2.5,-0.5"/>
                </g>
               <g id="resetDef">
                       <use xlink:href="#rim2" fill="#404040">
                               <set attributeName="fill" to="#808080" begin="reset.mouseover" end="reset.mouseout"/>
                       </use>
               </g>
        </defs>

<script type="text/javascript">
var viewWidth = 864;
var viewHeight = 644;
var sectionId = 'dynsection-0';
</script>
<script xlink:href="svgpan.js"/>
<svg id="graph" class="graph">
<g id="viewport">
<title>include/binoc.h</title>
<polygon fill="white" stroke="transparent" points="-4,4 -4,-640 860,-640 860,4 -4,4"/>
<!-- Node1 -->
<g id="node1" class="node">
<title>Node1</title>
<g id="a_node1"><a xlink:title="Binoc&#45;u&#45;com.">
<polygon fill="#bfbfbf" stroke="black" points="6,-616.5 6,-635.5 96,-635.5 96,-616.5 6,-616.5"/>
<text text-anchor="middle" x="51" y="-623.5" font-family="Helvetica,sans-Serif" font-size="10.00">include/binoc.h</text>
</a>
</g>
</g>
<!-- Node2 -->
<g id="node2" class="node">
<title>Node2</title>
<g id="a_node2"><a xlink:href="common_8h.html" target="_top" xlink:title="Common header file.">
<polygon fill="white" stroke="black" points="325,-56.5 325,-75.5 393,-75.5 393,-56.5 325,-56.5"/>
<text text-anchor="middle" x="359" y="-63.5" font-family="Helvetica,sans-Serif" font-size="10.00">common.h</text>
</a>
</g>
</g>
<!-- Node1&#45;&gt;Node2 -->
<g id="edge1" class="edge">
<title>Node1&#45;&gt;Node2</title>
<path fill="none" stroke="midnightblue" d="M43.69,-616.23C29.59,-598.39 0,-556.05 0,-515 0,-515 0,-515 0,-177 0,-143.54 10.2,-130.63 38,-112 82.37,-82.26 237.43,-71.88 314.63,-68.5"/>
<polygon fill="midnightblue" stroke="midnightblue" points="315.14,-71.99 324.99,-68.07 314.85,-64.99 315.14,-71.99"/>
</g>
<!-- Node7 -->
<g id="node7" class="node">
<title>Node7</title>
<g id="a_node7"><a xlink:href="screen_8h.html" target="_top" xlink:title="User interface manager.">
<polygon fill="white" stroke="black" points="82,-560.5 82,-579.5 140,-579.5 140,-560.5 82,-560.5"/>
<text text-anchor="middle" x="111" y="-567.5" font-family="Helvetica,sans-Serif" font-size="10.00">screen.h</text>
</a>
</g>
</g>
<!-- Node1&#45;&gt;Node7 -->
<g id="edge6" class="edge">
<title>Node1&#45;&gt;Node7</title>
<path fill="none" stroke="midnightblue" d="M60.64,-616.32C69.51,-608.34 82.87,-596.31 93.61,-586.65"/>
<polygon fill="midnightblue" stroke="midnightblue" points="96.09,-589.13 101.18,-579.83 91.41,-583.92 96.09,-589.13"/>
</g>
<!-- Node3 -->
<g id="node3" class="node">
<title>Node3</title>
<g id="a_node3"><a xlink:href="include__asm_8h.html" target="_top" xlink:title=" ">
<polygon fill="white" stroke="black" points="157.5,-0.5 157.5,-19.5 244.5,-19.5 244.5,-0.5 157.5,-0.5"/>
<text text-anchor="middle" x="201" y="-7.5" font-family="Helvetica,sans-Serif" font-size="10.00">include_asm.h</text>
</a>
</g>
</g>
<!-- Node2&#45;&gt;Node3 -->
<g id="edge2" class="edge">
<title>Node2&#45;&gt;Node3</title>
<path fill="none" stroke="midnightblue" d="M333.96,-56.44C307.38,-47.36 265.19,-32.94 235.48,-22.78"/>
<polygon fill="midnightblue" stroke="midnightblue" points="236.51,-19.44 225.92,-19.52 234.25,-26.06 236.51,-19.44"/>
</g>
<!-- Node4 -->
<g id="node4" class="node">
<title>Node4</title>
<g id="a_node4"><a xlink:href="include__rodata_8h.html" target="_top" xlink:title=" ">
<polygon fill="white" stroke="black" points="263,-0.5 263,-19.5 361,-19.5 361,-0.5 263,-0.5"/>
<text text-anchor="middle" x="312" y="-7.5" font-family="Helvetica,sans-Serif" font-size="10.00">include_rodata.h</text>
</a>
</g>
</g>
<!-- Node2&#45;&gt;Node4 -->
<g id="edge3" class="edge">
<title>Node2&#45;&gt;Node4</title>
<path fill="none" stroke="midnightblue" d="M351.24,-56.08C344.46,-48.3 334.46,-36.8 326.24,-27.37"/>
<polygon fill="midnightblue" stroke="midnightblue" points="328.82,-25 319.62,-19.75 323.54,-29.59 328.82,-25"/>
</g>
<!-- Node5 -->
<g id="node5" class="node">
<title>Node5</title>
<g id="a_node5"><a xlink:href="types_8h.html" target="_top" xlink:title="Types used throughout the engine.">
<polygon fill="white" stroke="black" points="379.5,-0.5 379.5,-19.5 432.5,-19.5 432.5,-0.5 379.5,-0.5"/>
<text text-anchor="middle" x="406" y="-7.5" font-family="Helvetica,sans-Serif" font-size="10.00">types.h</text>
</a>
</g>
</g>
<!-- Node2&#45;&gt;Node5 -->
<g id="edge4" class="edge">
<title>Node2&#45;&gt;Node5</title>
<path fill="none" stroke="midnightblue" d="M366.76,-56.08C373.54,-48.3 383.54,-36.8 391.76,-27.37"/>
<polygon fill="midnightblue" stroke="midnightblue" points="394.46,-29.59 398.38,-19.75 389.18,-25 394.46,-29.59"/>
</g>
<!-- Node6 -->
<g id="node6" class="node">
<title>Node6</title>
<g id="a_node6"><a xlink:href="vtables_8h.html" target="_top" xlink:title=" ">
<polygon fill="white" stroke="black" points="451,-0.5 451,-19.5 513,-19.5 513,-0.5 451,-0.5"/>
<text text-anchor="middle" x="482" y="-7.5" font-family="Helvetica,sans-Serif" font-size="10.00">vtables.h</text>
</a>
</g>
</g>
<!-- Node2&#45;&gt;Node6 -->
<g id="edge5" class="edge">
<title>Node2&#45;&gt;Node6</title>
<path fill="none" stroke="midnightblue" d="M378.49,-56.44C398.64,-47.6 430.32,-33.69 453.33,-23.59"/>
<polygon fill="midnightblue" stroke="midnightblue" points="454.85,-26.74 462.6,-19.52 452.04,-20.33 454.85,-26.74"/>
</g>
<!-- Node7&#45;&gt;Node2 -->
<g id="edge7" class="edge">
<title>Node7&#45;&gt;Node2</title>
<path fill="none" stroke="midnightblue" d="M140.2,-567.83C277.94,-561.91 856,-532.71 856,-459 856,-459 856,-459 856,-177 856,-141.09 839.21,-129.76 808,-112 739.69,-73.13 502.63,-67.55 403.31,-66.95"/>
<polygon fill="midnightblue" stroke="midnightblue" points="403.32,-63.45 393.3,-66.9 403.28,-70.45 403.32,-63.45"/>
</g>
<!-- Node8 -->
<g id="node8" class="node">
<title>Node8</title>
<g id="a_node8"><a xlink:href="font_8h.html" target="_top" xlink:title="Font system.">
<polygon fill="white" stroke="black" points="35.5,-336.5 35.5,-355.5 80.5,-355.5 80.5,-336.5 35.5,-336.5"/>
<text text-anchor="middle" x="58" y="-343.5" font-family="Helvetica,sans-Serif" font-size="10.00">font.h</text>
</a>
</g>
</g>
<!-- Node7&#45;&gt;Node8 -->
<g id="edge8" class="edge">
<title>Node7&#45;&gt;Node8</title>
<path fill="none" stroke="midnightblue" d="M108.1,-560.44C105.1,-551.43 100.4,-536.81 97,-524 81.84,-466.84 67.92,-398.22 61.59,-365.77"/>
<polygon fill="midnightblue" stroke="midnightblue" points="64.95,-364.69 59.61,-355.54 58.07,-366.02 64.95,-364.69"/>
</g>
<!-- Node9 -->
<g id="node9" class="node">
<title>Node9</title>
<g id="a_node9"><a xlink:href="game_8h.html" target="_top" xlink:title="Game state and level management.">
<polygon fill="white" stroke="black" points="88.5,-168.5 88.5,-187.5 141.5,-187.5 141.5,-168.5 88.5,-168.5"/>
<text text-anchor="middle" x="115" y="-175.5" font-family="Helvetica,sans-Serif" font-size="10.00">game.h</text>
</a>
</g>
</g>
<!-- Node7&#45;&gt;Node9 -->
<g id="edge10" class="edge">
<title>Node7&#45;&gt;Node9</title>
<path fill="none" stroke="midnightblue" d="M111,-560.44C111,-541.94 111,-496.81 111,-459 111,-459 111,-459 111,-289 111,-256.93 112.72,-219.63 113.9,-197.74"/>
<polygon fill="midnightblue" stroke="midnightblue" points="117.41,-197.73 114.48,-187.55 110.42,-197.34 117.41,-197.73"/>
</g>
<!-- Node12 -->
<g id="node12" class="node">
<title>Node12</title>
<g id="a_node12"><a xlink:href="shd_8h.html" target="_top" xlink:title="Shaders.">
<polygon fill="white" stroke="black" points="230.5,-504.5 230.5,-523.5 273.5,-523.5 273.5,-504.5 230.5,-504.5"/>
<text text-anchor="middle" x="252" y="-511.5" font-family="Helvetica,sans-Serif" font-size="10.00">shd.h</text>
</a>
</g>
</g>
<!-- Node7&#45;&gt;Node12 -->
<g id="edge16" class="edge">
<title>Node7&#45;&gt;Node12</title>
<path fill="none" stroke="midnightblue" d="M133.34,-560.44C156.89,-551.42 194.17,-537.15 220.66,-527"/>
<polygon fill="midnightblue" stroke="midnightblue" points="222.14,-530.18 230.23,-523.34 219.64,-523.65 222.14,-530.18"/>
</g>
<!-- Node8&#45;&gt;Node2 -->
<g id="edge9" class="edge">
<title>Node8&#45;&gt;Node2</title>
<path fill="none" stroke="midnightblue" d="M55.3,-336.26C49.84,-317.77 38,-273.24 38,-235 38,-235 38,-235 38,-177 38,-146.9 34.32,-131.78 57,-112 94.63,-79.18 240.42,-70.3 314.81,-67.89"/>
<polygon fill="midnightblue" stroke="midnightblue" points="314.92,-71.39 324.81,-67.59 314.71,-64.39 314.92,-71.39"/>
</g>
<!-- Node9&#45;&gt;Node2 -->
<g id="edge11" class="edge">
<title>Node9&#45;&gt;Node2</title>
<path fill="none" stroke="midnightblue" d="M118.24,-168.28C123.97,-154.12 137.28,-126.28 158,-112 204.79,-79.76 270.93,-70.21 314.38,-67.6"/>
<polygon fill="midnightblue" stroke="midnightblue" points="314.83,-71.08 324.64,-67.08 314.48,-64.09 314.83,-71.08"/>
</g>
<!-- Node10 -->
<g id="node10" class="node">
<title>Node10</title>
<g id="a_node10"><a xlink:href="oid_8h.html" target="_top" xlink:title="Object IDs.">
<polygon fill="white" stroke="black" points="314.5,-112.5 314.5,-131.5 355.5,-131.5 355.5,-112.5 314.5,-112.5"/>
<text text-anchor="middle" x="335" y="-119.5" font-family="Helvetica,sans-Serif" font-size="10.00">oid.h</text>
</a>
</g>
</g>
<!-- Node9&#45;&gt;Node10 -->
<g id="edge12" class="edge">
<title>Node9&#45;&gt;Node10</title>
<path fill="none" stroke="midnightblue" d="M141.54,-170.49C182.5,-160.43 260.93,-141.18 304.29,-130.54"/>
<polygon fill="midnightblue" stroke="midnightblue" points="305.38,-133.87 314.26,-128.09 303.71,-127.08 305.38,-133.87"/>
</g>
<!-- Node11 -->
<g id="node11" class="node">
<title>Node11</title>
<g id="a_node11"><a xlink:href="cid_8h.html" target="_top" xlink:title="Class ID.">
<polygon fill="white" stroke="black" points="66,-112.5 66,-131.5 106,-131.5 106,-112.5 66,-112.5"/>
<text text-anchor="middle" x="86" y="-119.5" font-family="Helvetica,sans-Serif" font-size="10.00">cid.h</text>
</a>
</g>
</g>
<!-- Node9&#45;&gt;Node11 -->
<g id="edge14" class="edge">
<title>Node9&#45;&gt;Node11</title>
<path fill="none" stroke="midnightblue" d="M110.21,-168.08C106.24,-160.69 100.47,-149.95 95.57,-140.81"/>
<polygon fill="midnightblue" stroke="midnightblue" points="98.51,-138.91 90.7,-131.75 92.35,-142.22 98.51,-138.91"/>
</g>
<!-- Node10&#45;&gt;Node2 -->
<g id="edge13" class="edge">
<title>Node10&#45;&gt;Node2</title>
<path fill="none" stroke="midnightblue" d="M338.96,-112.08C342.21,-104.77 346.92,-94.18 350.95,-85.1"/>
<polygon fill="midnightblue" stroke="midnightblue" points="354.25,-86.31 355.11,-75.75 347.85,-83.47 354.25,-86.31"/>
</g>
<!-- Node11&#45;&gt;Node2 -->
<g id="edge15" class="edge">
<title>Node11&#45;&gt;Node2</title>
<path fill="none" stroke="midnightblue" d="M106.08,-115.43C110.64,-114.23 115.47,-113.02 120,-112 187.53,-96.73 266.6,-82.56 314.73,-74.34"/>
<polygon fill="midnightblue" stroke="midnightblue" points="315.53,-77.76 324.8,-72.63 314.36,-70.86 315.53,-77.76"/>
</g>
<!-- Node12&#45;&gt;Node2 -->
<g id="edge17" class="edge">
<title>Node12&#45;&gt;Node2</title>
<path fill="none" stroke="midnightblue" d="M248.09,-504.36C240.17,-486.07 223,-441.91 223,-403 223,-403 223,-403 223,-345 223,-238.5 214.79,-196.97 279,-112 290.06,-97.37 307.35,-86.79 323.03,-79.59"/>
<polygon fill="midnightblue" stroke="midnightblue" points="324.69,-82.68 332.51,-75.53 321.94,-76.25 324.69,-82.68"/>
</g>
<!-- Node13 -->
<g id="node13" class="node">
<title>Node13</title>
<g id="a_node13"><a xlink:href="geom_8h.html" target="_top" xlink:title="Geometry.">
<polygon fill="white" stroke="black" points="774.5,-392.5 774.5,-411.5 827.5,-411.5 827.5,-392.5 774.5,-392.5"/>
<text text-anchor="middle" x="801" y="-399.5" font-family="Helvetica,sans-Serif" font-size="10.00">geom.h</text>
</a>
</g>
</g>
<!-- Node12&#45;&gt;Node13 -->
<g id="edge18" class="edge">
<title>Node12&#45;&gt;Node13</title>
<path fill="none" stroke="midnightblue" d="M273.68,-511.16C326.51,-506.42 465.91,-492.46 580,-468 647.16,-453.6 723.66,-429.27 766.76,-414.81"/>
<polygon fill="midnightblue" stroke="midnightblue" points="768.1,-418.05 776.45,-411.54 765.86,-411.42 768.1,-418.05"/>
</g>
<!-- Node14 -->
<g id="node14" class="node">
<title>Node14</title>
<g id="a_node14"><a xlink:href="surf_8h.html" target="_top" xlink:title="Surface?">
<polygon fill="white" stroke="black" points="527,-448.5 527,-467.5 571,-467.5 571,-448.5 527,-448.5"/>
<text text-anchor="middle" x="549" y="-455.5" font-family="Helvetica,sans-Serif" font-size="10.00">surf.h</text>
</a>
</g>
</g>
<!-- Node12&#45;&gt;Node14 -->
<g id="edge20" class="edge">
<title>Node12&#45;&gt;Node14</title>
<path fill="none" stroke="midnightblue" d="M273.84,-509.03C325.53,-499.63 455.57,-475.99 516.53,-464.9"/>
<polygon fill="midnightblue" stroke="midnightblue" points="517.51,-468.28 526.73,-463.05 516.26,-461.4 517.51,-468.28"/>
</g>
<!-- Node15 -->
<g id="node15" class="node">
<title>Node15</title>
<g id="a_node15"><a xlink:href="vec_8h.html" target="_top" xlink:title="Vector math functions.">
<polygon fill="white" stroke="black" points="278.5,-392.5 278.5,-411.5 321.5,-411.5 321.5,-392.5 278.5,-392.5"/>
<text text-anchor="middle" x="300" y="-399.5" font-family="Helvetica,sans-Serif" font-size="10.00">vec.h</text>
</a>
</g>
</g>
<!-- Node12&#45;&gt;Node15 -->
<g id="edge46" class="edge">
<title>Node12&#45;&gt;Node15</title>
<path fill="none" stroke="midnightblue" d="M255.77,-504.37C263.58,-486.46 281.71,-444.92 292.17,-420.95"/>
<polygon fill="midnightblue" stroke="midnightblue" points="295.46,-422.16 296.25,-411.59 289.04,-419.36 295.46,-422.16"/>
</g>
<!-- Node25 -->
<g id="node25" class="node">
<title>Node25</title>
<g id="a_node25"><a xlink:href="sce_2gs_8h.html" target="_top" xlink:title="Graphics Synthesizer.">
<polygon fill="white" stroke="black" points="139,-280.5 139,-299.5 195,-299.5 195,-280.5 139,-280.5"/>
<text text-anchor="middle" x="167" y="-287.5" font-family="Helvetica,sans-Serif" font-size="10.00">sce/gs.h</text>
</a>
</g>
</g>
<!-- Node12&#45;&gt;Node25 -->
<g id="edge44" class="edge">
<title>Node12&#45;&gt;Node25</title>
<path fill="none" stroke="midnightblue" d="M240.75,-504.22C230.89,-495.94 216.95,-482.62 209,-468 180.4,-415.38 171.12,-343.59 168.24,-309.91"/>
<polygon fill="midnightblue" stroke="midnightblue" points="171.71,-309.38 167.46,-299.68 164.73,-309.91 171.71,-309.38"/>
</g>
<!-- Node13&#45;&gt;Node2 -->
<g id="edge19" class="edge">
<title>Node13&#45;&gt;Node2</title>
<path fill="none" stroke="midnightblue" d="M802.18,-392.46C804.62,-373.99 810,-328.94 810,-291 810,-291 810,-291 810,-177 810,-146.2 810.31,-130.91 786,-112 756.21,-88.83 506.26,-74.15 403.18,-69.04"/>
<polygon fill="midnightblue" stroke="midnightblue" points="403.26,-65.54 393.1,-68.54 402.91,-72.53 403.26,-65.54"/>
</g>
<!-- Node14&#45;&gt;Node2 -->
<g id="edge21" class="edge">
<title>Node14&#45;&gt;Node2</title>
<path fill="none" stroke="midnightblue" d="M560.45,-448.34C613.92,-406.92 832.29,-226.28 731,-112 709.55,-87.8 497.09,-74.05 403.21,-69.11"/>
<polygon fill="midnightblue" stroke="midnightblue" points="403.33,-65.61 393.17,-68.59 402.97,-72.6 403.33,-65.61"/>
</g>
<!-- Node14&#45;&gt;Node13 -->
<g id="edge43" class="edge">
<title>Node14&#45;&gt;Node13</title>
<path fill="none" stroke="midnightblue" d="M571.19,-452.31C609.64,-444.18 691.18,-426.89 760,-412 761.28,-411.72 762.59,-411.44 763.9,-411.15"/>
<polygon fill="midnightblue" stroke="midnightblue" points="765.07,-414.48 774.1,-408.93 763.58,-407.64 765.07,-414.48"/>
</g>
<!-- Node14&#45;&gt;Node15 -->
<g id="edge22" class="edge">
<title>Node14&#45;&gt;Node15</title>
<path fill="none" stroke="midnightblue" d="M526.9,-452.21C482.59,-442.6 382.72,-420.94 331.54,-409.84"/>
<polygon fill="midnightblue" stroke="midnightblue" points="332.21,-406.4 321.69,-407.7 330.72,-413.24 332.21,-406.4"/>
</g>
<!-- Node16 -->
<g id="node16" class="node">
<title>Node16</title>
<g id="a_node16"><a xlink:href="so_8h.html" target="_top" xlink:title="Scene objects.">
<polygon fill="white" stroke="black" points="281.5,-336.5 281.5,-355.5 318.5,-355.5 318.5,-336.5 281.5,-336.5"/>
<text text-anchor="middle" x="300" y="-343.5" font-family="Helvetica,sans-Serif" font-size="10.00">so.h</text>
</a>
</g>
</g>
<!-- Node15&#45;&gt;Node16 -->
<g id="edge23" class="edge">
<title>Node15&#45;&gt;Node16</title>
<path fill="none" stroke="midnightblue" d="M300,-392.08C300,-385.01 300,-374.86 300,-365.99"/>
<polygon fill="midnightblue" stroke="midnightblue" points="303.5,-365.75 300,-355.75 296.5,-365.75 303.5,-365.75"/>
</g>
<!-- Node17 -->
<g id="node17" class="node">
<title>Node17</title>
<g id="a_node17"><a xlink:href="alo_8h.html" target="_top" xlink:title=" ">
<polygon fill="white" stroke="black" points="279.5,-280.5 279.5,-299.5 320.5,-299.5 320.5,-280.5 279.5,-280.5"/>
<text text-anchor="middle" x="300" y="-287.5" font-family="Helvetica,sans-Serif" font-size="10.00">alo.h</text>
</a>
</g>
</g>
<!-- Node16&#45;&gt;Node17 -->
<g id="edge24" class="edge">
<title>Node16&#45;&gt;Node17</title>
<path fill="none" stroke="midnightblue" d="M300,-336.08C300,-329.01 300,-318.86 300,-309.99"/>
<polygon fill="midnightblue" stroke="midnightblue" points="303.5,-309.75 300,-299.75 296.5,-309.75 303.5,-309.75"/>
</g>
<!-- Node17&#45;&gt;Node2 -->
<g id="edge25" class="edge">
<title>Node17&#45;&gt;Node2</title>
<path fill="none" stroke="midnightblue" d="M295.49,-280.23C285.83,-260.33 264.67,-210.23 273,-168 278.21,-141.6 279.29,-133.09 296,-112 306.08,-99.28 320.66,-88.56 333.25,-80.77"/>
<polygon fill="midnightblue" stroke="midnightblue" points="335.14,-83.72 341.98,-75.63 331.59,-77.69 335.14,-83.72"/>
</g>
<!-- Node18 -->
<g id="node18" class="node">
<title>Node18</title>
<g id="a_node18"><a xlink:href="lo_8h.html" target="_top" xlink:title="Level objects.">
<polygon fill="white" stroke="black" points="404.5,-224.5 404.5,-243.5 439.5,-243.5 439.5,-224.5 404.5,-224.5"/>
<text text-anchor="middle" x="422" y="-231.5" font-family="Helvetica,sans-Serif" font-size="10.00">lo.h</text>
</a>
</g>
</g>
<!-- Node17&#45;&gt;Node18 -->
<g id="edge26" class="edge">
<title>Node17&#45;&gt;Node18</title>
<path fill="none" stroke="midnightblue" d="M319.33,-280.44C339.79,-271.39 372.23,-257.03 395.16,-246.88"/>
<polygon fill="midnightblue" stroke="midnightblue" points="396.62,-250.06 404.34,-242.82 393.78,-243.66 396.62,-250.06"/>
</g>
<!-- Node21 -->
<g id="node21" class="node">
<title>Node21</title>
<g id="a_node21"><a xlink:href="dl_8h.html" target="_top" xlink:title=" ">
<polygon fill="white" stroke="black" points="282.5,-168.5 282.5,-187.5 317.5,-187.5 317.5,-168.5 282.5,-168.5"/>
<text text-anchor="middle" x="300" y="-175.5" font-family="Helvetica,sans-Serif" font-size="10.00">dl.h</text>
</a>
</g>
</g>
<!-- Node17&#45;&gt;Node21 -->
<g id="edge42" class="edge">
<title>Node17&#45;&gt;Node21</title>
<path fill="none" stroke="midnightblue" d="M300,-280.37C300,-262.62 300,-221.67 300,-197.6"/>
<polygon fill="midnightblue" stroke="midnightblue" points="303.5,-197.59 300,-187.59 296.5,-197.59 303.5,-197.59"/>
</g>
<!-- Node18&#45;&gt;Node2 -->
<g id="edge27" class="edge">
<title>Node18&#45;&gt;Node2</title>
<path fill="none" stroke="midnightblue" d="M418.61,-224.08C408.65,-197.83 379.32,-120.55 365.88,-85.12"/>
<polygon fill="midnightblue" stroke="midnightblue" points="369.07,-83.68 362.25,-75.57 362.53,-86.16 369.07,-83.68"/>
</g>
<!-- Node18&#45;&gt;Node10 -->
<g id="edge28" class="edge">
<title>Node18&#45;&gt;Node10</title>
<path fill="none" stroke="midnightblue" d="M409.73,-224.42C398.41,-216.06 381.65,-202.53 370,-188 358.37,-173.5 348.69,-154.56 342.47,-140.88"/>
<polygon fill="midnightblue" stroke="midnightblue" points="345.63,-139.36 338.43,-131.59 339.21,-142.16 345.63,-139.36"/>
</g>
<!-- Node19 -->
<g id="node19" class="node">
<title>Node19</title>
<g id="a_node19"><a xlink:href="basic_8h.html" target="_top" xlink:title="Basic object.">
<polygon fill="white" stroke="black" points="434.5,-168.5 434.5,-187.5 485.5,-187.5 485.5,-168.5 434.5,-168.5"/>
<text text-anchor="middle" x="460" y="-175.5" font-family="Helvetica,sans-Serif" font-size="10.00">basic.h</text>
</a>
</g>
</g>
<!-- Node18&#45;&gt;Node19 -->
<g id="edge29" class="edge">
<title>Node18&#45;&gt;Node19</title>
<path fill="none" stroke="midnightblue" d="M428.27,-224.08C433.64,-216.46 441.52,-205.26 448.08,-195.94"/>
<polygon fill="midnightblue" stroke="midnightblue" points="450.95,-197.94 453.84,-187.75 445.22,-193.91 450.95,-197.94"/>
</g>
<!-- Node18&#45;&gt;Node21 -->
<g id="edge33" class="edge">
<title>Node18&#45;&gt;Node21</title>
<path fill="none" stroke="midnightblue" d="M404.26,-225.15C384.02,-216.19 350.69,-201.44 327.17,-191.03"/>
<polygon fill="midnightblue" stroke="midnightblue" points="328.32,-187.71 317.76,-186.86 325.49,-194.11 328.32,-187.71"/>
</g>
<!-- Node22 -->
<g id="node22" class="node">
<title>Node22</title>
<g id="a_node22"><a xlink:href="sw_8h.html" target="_top" xlink:title="Scene world?">
<polygon fill="white" stroke="black" points="564,-112.5 564,-131.5 602,-131.5 602,-112.5 564,-112.5"/>
<text text-anchor="middle" x="583" y="-119.5" font-family="Helvetica,sans-Serif" font-size="10.00">sw.h</text>
</a>
</g>
</g>
<!-- Node18&#45;&gt;Node22 -->
<g id="edge36" class="edge">
<title>Node18&#45;&gt;Node22</title>
<path fill="none" stroke="midnightblue" d="M436.54,-224.34C451.22,-215.49 474.46,-201.21 494,-188 518.29,-171.57 545.4,-151.51 563.25,-138.06"/>
<polygon fill="midnightblue" stroke="midnightblue" points="565.81,-140.51 571.67,-131.68 561.58,-134.93 565.81,-140.51"/>
</g>
<!-- Node23 -->
<g id="node23" class="node">
<title>Node23</title>
<g id="a_node23"><a xlink:href="frame_8h.html" target="_top" xlink:title=" ">
<polygon fill="white" stroke="black" points="620,-112.5 620,-131.5 706,-131.5 706,-112.5 620,-112.5"/>
<text text-anchor="middle" x="663" y="-119.5" font-family="Helvetica,sans-Serif" font-size="10.00">splice/frame.h</text>
</a>
</g>
</g>
<!-- Node18&#45;&gt;Node23 -->
<g id="edge38" class="edge">
<title>Node18&#45;&gt;Node23</title>
<path fill="none" stroke="midnightblue" d="M439.72,-225.08C459.73,-216.13 493.24,-201.1 522,-188 561.28,-170.11 606.58,-149.17 635.01,-135.99"/>
<polygon fill="midnightblue" stroke="midnightblue" points="636.72,-139.06 644.32,-131.68 633.78,-132.71 636.72,-139.06"/>
</g>
<!-- Node24 -->
<g id="node24" class="node">
<title>Node24</title>
<g id="a_node24"><a xlink:href="mq_8h.html" target="_top" xlink:title="Message queue(?).">
<polygon fill="white" stroke="black" points="677.5,-168.5 677.5,-187.5 718.5,-187.5 718.5,-168.5 677.5,-168.5"/>
<text text-anchor="middle" x="698" y="-175.5" font-family="Helvetica,sans-Serif" font-size="10.00">mq.h</text>
</a>
</g>
</g>
<!-- Node18&#45;&gt;Node24 -->
<g id="edge40" class="edge">
<title>Node18&#45;&gt;Node24</title>
<path fill="none" stroke="midnightblue" d="M439.68,-229.54C485.61,-220.56 609.09,-196.39 667.1,-185.05"/>
<polygon fill="midnightblue" stroke="midnightblue" points="667.99,-188.44 677.14,-183.08 666.65,-181.57 667.99,-188.44"/>
</g>
<!-- Node19&#45;&gt;Node2 -->
<g id="edge30" class="edge">
<title>Node19&#45;&gt;Node2</title>
<path fill="none" stroke="midnightblue" d="M476.87,-168.47C498.65,-156.33 531.96,-133.17 516,-112 502.36,-93.9 444.56,-80.86 403.05,-73.62"/>
<polygon fill="midnightblue" stroke="midnightblue" points="403.6,-70.16 393.15,-71.95 402.43,-77.06 403.6,-70.16"/>
</g>
<!-- Node20 -->
<g id="node20" class="node">
<title>Node20</title>
<g id="a_node20"><a xlink:href="sidebag_8h.html" target="_top" xlink:title="Sidebag for splice.">
<polygon fill="white" stroke="black" points="412.5,-112.5 412.5,-131.5 507.5,-131.5 507.5,-112.5 412.5,-112.5"/>
<text text-anchor="middle" x="460" y="-119.5" font-family="Helvetica,sans-Serif" font-size="10.00">splice/sidebag.h</text>
</a>
</g>
</g>
<!-- Node19&#45;&gt;Node20 -->
<g id="edge31" class="edge">
<title>Node19&#45;&gt;Node20</title>
<path fill="none" stroke="midnightblue" d="M460,-168.08C460,-161.01 460,-150.86 460,-141.99"/>
<polygon fill="midnightblue" stroke="midnightblue" points="463.5,-141.75 460,-131.75 456.5,-141.75 463.5,-141.75"/>
</g>
<!-- Node20&#45;&gt;Node2 -->
<g id="edge32" class="edge">
<title>Node20&#45;&gt;Node2</title>
<path fill="none" stroke="midnightblue" d="M443.77,-112.32C427.65,-103.7 402.7,-90.36 384.04,-80.39"/>
<polygon fill="midnightblue" stroke="midnightblue" points="385.66,-77.28 375.19,-75.65 382.36,-83.46 385.66,-77.28"/>
</g>
<!-- Node21&#45;&gt;Node2 -->
<g id="edge34" class="edge">
<title>Node21&#45;&gt;Node2</title>
<path fill="none" stroke="midnightblue" d="M298.64,-168.43C297.01,-155.44 295.55,-130.31 305,-112 311.58,-99.25 323.51,-88.72 334.48,-81.06"/>
<polygon fill="midnightblue" stroke="midnightblue" points="336.48,-83.93 342.96,-75.54 332.66,-78.06 336.48,-83.93"/>
</g>
<!-- Node21&#45;&gt;Node10 -->
<g id="edge35" class="edge">
<title>Node21&#45;&gt;Node10</title>
<path fill="none" stroke="midnightblue" d="M305.78,-168.08C310.67,-160.53 317.83,-149.49 323.83,-140.23"/>
<polygon fill="midnightblue" stroke="midnightblue" points="326.83,-142.05 329.33,-131.75 320.95,-138.24 326.83,-142.05"/>
</g>
<!-- Node22&#45;&gt;Node2 -->
<g id="edge37" class="edge">
<title>Node22&#45;&gt;Node2</title>
<path fill="none" stroke="midnightblue" d="M563.83,-115.65C559.31,-114.42 554.49,-113.14 550,-112 499.84,-99.25 441.95,-85.79 403.16,-76.95"/>
<polygon fill="midnightblue" stroke="midnightblue" points="403.77,-73.49 393.25,-74.69 402.22,-80.32 403.77,-73.49"/>
</g>
<!-- Node23&#45;&gt;Node2 -->
<g id="edge39" class="edge">
<title>Node23&#45;&gt;Node2</title>
<path fill="none" stroke="midnightblue" d="M619.77,-113.32C562.24,-103.1 461.07,-85.13 403.11,-74.83"/>
<polygon fill="midnightblue" stroke="midnightblue" points="403.61,-71.37 393.15,-73.07 402.38,-78.26 403.61,-71.37"/>
</g>
<!-- Node24&#45;&gt;Node2 -->
<g id="edge41" class="edge">
<title>Node24&#45;&gt;Node2</title>
<path fill="none" stroke="midnightblue" d="M704.65,-168.29C714.2,-154.64 729.19,-128.1 715,-112 694.67,-88.94 494.04,-74.69 403.24,-69.37"/>
<polygon fill="midnightblue" stroke="midnightblue" points="403.43,-65.88 393.24,-68.79 403.03,-72.86 403.43,-65.88"/>
</g>
<!-- Node25&#45;&gt;Node2 -->
<g id="edge45" class="edge">
<title>Node25&#45;&gt;Node2</title>
<path fill="none" stroke="midnightblue" d="M165.49,-280.27C161.12,-251.95 151.47,-161.57 196,-112 225.77,-78.86 277.51,-69.2 314.72,-66.82"/>
<polygon fill="midnightblue" stroke="midnightblue" points="314.98,-70.31 324.8,-66.33 314.64,-63.32 314.98,-70.31"/>
</g>
</g>
</svg>
        <g id="navigator" transform="translate(0 0)" fill="#404254">
                <rect fill="#f2f5e9" fill-opacity="0.5" stroke="#606060" stroke-width=".5" x="0" y="0" width="60" height="60"/>
                <use id="zoomplus" xlink:href="#zoomPlus" x="17" y="9" onmousedown="handleZoom(evt,'in')"/>
                <use id="zoomminus" xlink:href="#zoomMin" x="42" y="9" onmousedown="handleZoom(evt,'out')"/>
                <use id="reset" xlink:href="#resetDef" x="30" y="36" onmousedown="handleReset()"/>
                <g id="arrowUp" xlink:href="#dirArrow" transform="translate(30 24)" onmousedown="handlePan(0,-1)">
                  <use xlink:href="#rim" fill="#404040">
                        <set attributeName="fill" to="#808080" begin="arrowUp.mouseover" end="arrowUp.mouseout"/>
                  </use>
                  <path fill="none" stroke="white" stroke-width="1.5" d="M0,-3.0v7 M-2.5,-0.5L0,-3.0L2.5,-0.5"/>
                </g>
                <g id="arrowRight" xlink:href="#dirArrow" transform="rotate(90) translate(36 -43)" onmousedown="handlePan(1,0)">
                  <use xlink:href="#rim" fill="#404040">
                        <set attributeName="fill" to="#808080" begin="arrowRight.mouseover" end="arrowRight.mouseout"/>
                  </use>
                  <path fill="none" stroke="white" stroke-width="1.5" d="M0,-3.0v7 M-2.5,-0.5L0,-3.0L2.5,-0.5"/>
                </g>
                <g id="arrowDown" xlink:href="#dirArrow" transform="rotate(180) translate(-30 -48)" onmousedown="handlePan(0,1)">
                  <use xlink:href="#rim" fill="#404040">
                        <set attributeName="fill" to="#808080" begin="arrowDown.mouseover" end="arrowDown.mouseout"/>
                  </use>
                  <path fill="none" stroke="white" stroke-width="1.5" d="M0,-3.0v7 M-2.5,-0.5L0,-3.0L2.5,-0.5"/>
                </g>
                <g id="arrowLeft" xlink:href="#dirArrow" transform="rotate(270) translate(-36 17)" onmousedown="handlePan(-1,0)">
                  <use xlink:href="#rim" fill="#404040">
                        <set attributeName="fill" to="#808080" begin="arrowLeft.mouseover" end="arrowLeft.mouseout"/>
                  </use>
                  <path fill="none" stroke="white" stroke-width="1.5" d="M0,-3.0v7 M-2.5,-0.5L0,-3.0L2.5,-0.5"/>
                </g>
        </g>
        <svg viewBox="0 0 15 15" width="100%" height="30px" preserveAspectRatio="xMaxYMin meet">
         <g id="arrow_out" transform="scale(0.3 0.3)">
          <a xlink:href="binoc_8h__incl_org.svg" target="_base">
           <rect id="button" ry="5" rx="5" y="6" x="6" height="38" width="38"
                fill="#f2f5e9" fill-opacity="0.5" stroke="#606060" stroke-width="1.0"/>
           <path id="arrow"
             d="M 11.500037,31.436501 C 11.940474,20.09759 22.043105,11.32322 32.158766,21.979434 L 37.068811,17.246167 C 37.068811,17.246167 37.088388,32 37.088388,32 L 22.160133,31.978069 C 22.160133,31.978069 26.997745,27.140456 26.997745,27.140456 C 18.528582,18.264221 13.291696,25.230495 11.500037,31.436501 z"
             style="fill:#404040;"/>
          </a>
         </g>
        </svg>
</svg>
