<?xml version="1.0" encoding="UTF-8" standalone="no"?>
<!DOCTYPE svg PUBLIC "-//W3C//DTD SVG 1.1//EN"
 "http://www.w3.org/Graphics/SVG/1.1/DTD/svg11.dtd">
<!-- Generated by graphviz version 2.43.0 (0)
 -->
<!-- Title: include/bis.h Pages: 1 -->
<svg width="950pt" height="412pt"
 viewBox="0.00 0.00 949.87 412.00" xmlns="http://www.w3.org/2000/svg" xmlns:xlink="http://www.w3.org/1999/xlink">
<g id="graph0" class="graph" transform="scale(1 1) rotate(0) translate(4 408)">
<title>include/bis.h</title>
<!-- Node1 -->
<g id="Node000001" class="node">
<title>Node1</title>
<g id="a_Node000001"><a xlink:title="Binary Input Stream.">
<polygon fill="#999999" stroke="#666666" points="828.5,-404 750.5,-404 750.5,-385 828.5,-385 828.5,-404"/>
<text text-anchor="middle" x="789.5" y="-392" font-family="Helvetica,sans-Serif" font-size="10.00">include/bis.h</text>
</a>
</g>
</g>
<!-- Node2 -->
<g id="Node000002" class="node">
<title>Node2</title>
<g id="a_Node000002"><a xlink:href="prog_8h.html" target="_top" xlink:title="Progress bar.">
<polygon fill="white" stroke="#666666" points="656,-349 609,-349 609,-330 656,-330 656,-349"/>
<text text-anchor="middle" x="632.5" y="-337" font-family="Helvetica,sans-Serif" font-size="10.00">prog.h</text>
</a>
</g>
</g>
<!-- Node1&#45;&gt;Node2 -->
<g id="edge1_Node000001_Node000002" class="edge">
<title>Node1&#45;&gt;Node2</title>
<g id="a_edge1_Node000001_Node000002"><a xlink:title=" ">
<path fill="none" stroke="#63b8ff" d="M764.28,-384.98C737.6,-375.98 695.39,-361.73 665.95,-351.79"/>
<polygon fill="#63b8ff" stroke="#63b8ff" points="666.72,-348.36 656.12,-348.47 664.48,-354.99 666.72,-348.36"/>
</a>
</g>
</g>
<!-- Node10 -->
<g id="Node000010" class="node">
<title>Node10</title>
<g id="a_Node000010"><a xlink:href="vec_8h.html" target="_top" xlink:title="Vector math.">
<polygon fill="white" stroke="#666666" points="729,-19 686,-19 686,0 729,0 729,-19"/>
<text text-anchor="middle" x="707.5" y="-7" font-family="Helvetica,sans-Serif" font-size="10.00">vec.h</text>
</a>
</g>
</g>
<!-- Node1&#45;&gt;Node10 -->
<g id="edge33_Node000001_Node000010" class="edge">
<title>Node1&#45;&gt;Node10</title>
<g id="a_edge33_Node000001_Node000010"><a xlink:title=" ">
<path fill="none" stroke="#63b8ff" d="M828.67,-390.01C858.26,-385.35 897.86,-374.45 922.5,-349 942.99,-327.84 941.5,-314.96 941.5,-285.5 941.5,-285.5 941.5,-285.5 941.5,-118.5 941.5,-30.52 803.46,-13.98 739.42,-11.04"/>
<polygon fill="#63b8ff" stroke="#63b8ff" points="739.22,-7.53 729.09,-10.65 738.96,-14.52 739.22,-7.53"/>
</a>
</g>
</g>
<!-- Node18 -->
<g id="Node000018" class="node">
<title>Node18</title>
<g id="a_Node000018"><a xlink:href="mat_8h.html" target="_top" xlink:title="3x3 and 4x4 matrix types.">
<polygon fill="white" stroke="#666666" points="800,-184 755,-184 755,-165 800,-165 800,-184"/>
<text text-anchor="middle" x="777.5" y="-172" font-family="Helvetica,sans-Serif" font-size="10.00">mat.h</text>
</a>
</g>
</g>
<!-- Node1&#45;&gt;Node18 -->
<g id="edge34_Node000001_Node000018" class="edge">
<title>Node1&#45;&gt;Node18</title>
<g id="a_edge34_Node000001_Node000018"><a xlink:title=" ">
<path fill="none" stroke="#63b8ff" d="M799.38,-384.75C807.89,-376.5 819.55,-363.3 824.5,-349 827.26,-341.02 825.74,-338.35 824.5,-330 816.93,-279.1 796.05,-221.76 784.84,-193.39"/>
<polygon fill="#63b8ff" stroke="#63b8ff" points="788.05,-191.98 781.07,-184 781.55,-194.59 788.05,-191.98"/>
</a>
</g>
</g>
<!-- Node26 -->
<g id="Node000026" class="node">
<title>Node26</title>
<g id="a_Node000026"><a xlink:href="clock_8h.html" target="_top" xlink:title="Engine clock.">
<polygon fill="white" stroke="#666666" points="815,-349 764,-349 764,-330 815,-330 815,-349"/>
<text text-anchor="middle" x="789.5" y="-337" font-family="Helvetica,sans-Serif" font-size="10.00">clock.h</text>
</a>
</g>
</g>
<!-- Node1&#45;&gt;Node26 -->
<g id="edge32_Node000001_Node000026" class="edge">
<title>Node1&#45;&gt;Node26</title>
<g id="a_edge32_Node000001_Node000026"><a xlink:title=" ">
<path fill="none" stroke="#63b8ff" d="M789.5,-384.75C789.5,-377.8 789.5,-367.85 789.5,-359.13"/>
<polygon fill="#63b8ff" stroke="#63b8ff" points="793,-359.09 789.5,-349.09 786,-359.09 793,-359.09"/>
</a>
</g>
</g>
<!-- Node27 -->
<g id="Node000027" class="node">
<title>Node27</title>
<g id="a_Node000027"><a xlink:href="geom_8h.html" target="_top" xlink:title="Geometry.">
<polygon fill="white" stroke="#666666" points="770,-239 717,-239 717,-220 770,-220 770,-239"/>
<text text-anchor="middle" x="743.5" y="-227" font-family="Helvetica,sans-Serif" font-size="10.00">geom.h</text>
</a>
</g>
</g>
<!-- Node1&#45;&gt;Node27 -->
<g id="edge35_Node000001_Node000027" class="edge">
<title>Node1&#45;&gt;Node27</title>
<g id="a_edge35_Node000001_Node000027"><a xlink:title=" ">
<path fill="none" stroke="#63b8ff" d="M780.54,-384.89C772.48,-376.54 761.08,-363.1 755.5,-349 742.36,-315.79 741.49,-273.44 742.31,-249.41"/>
<polygon fill="#63b8ff" stroke="#63b8ff" points="745.82,-249.36 742.81,-239.21 738.83,-249.03 745.82,-249.36"/>
</a>
</g>
</g>
<!-- Node28 -->
<g id="Node000028" class="node">
<title>Node28</title>
<g id="a_Node000028"><a xlink:href="cat_8h.html" target="_top" xlink:title="WAL catalog.">
<polygon fill="white" stroke="#666666" points="913,-349 872,-349 872,-330 913,-330 913,-349"/>
<text text-anchor="middle" x="892.5" y="-337" font-family="Helvetica,sans-Serif" font-size="10.00">cat.h</text>
</a>
</g>
</g>
<!-- Node1&#45;&gt;Node28 -->
<g id="edge38_Node000001_Node000028" class="edge">
<title>Node1&#45;&gt;Node28</title>
<g id="a_edge38_Node000001_Node000028"><a xlink:title=" ">
<path fill="none" stroke="#63b8ff" d="M806.05,-384.98C822.39,-376.57 847.63,-363.59 866.63,-353.81"/>
<polygon fill="#63b8ff" stroke="#63b8ff" points="868.36,-356.86 875.65,-349.17 865.16,-350.63 868.36,-356.86"/>
</a>
</g>
</g>
<!-- Node29 -->
<g id="Node000029" class="node">
<title>Node29</title>
<g id="a_Node000029"><a xlink:href="bsp_8h.html" target="_top" xlink:title="Binary Space Partitioning.">
<polygon fill="white" stroke="#666666" points="710,-294 667,-294 667,-275 710,-275 710,-294"/>
<text text-anchor="middle" x="688.5" y="-282" font-family="Helvetica,sans-Serif" font-size="10.00">bsp.h</text>
</a>
</g>
</g>
<!-- Node1&#45;&gt;Node29 -->
<g id="edge39_Node000001_Node000029" class="edge">
<title>Node1&#45;&gt;Node29</title>
<g id="a_edge39_Node000001_Node000029"><a xlink:title=" ">
<path fill="none" stroke="#63b8ff" d="M771.18,-384.85C756.32,-377.11 735.6,-364.59 721.5,-349 709.53,-335.77 700.61,-317.4 695.08,-303.82"/>
<polygon fill="#63b8ff" stroke="#63b8ff" points="698.22,-302.24 691.38,-294.15 691.68,-304.74 698.22,-302.24"/>
</a>
</g>
</g>
<!-- Node3 -->
<g id="Node000003" class="node">
<title>Node3</title>
<g id="a_Node000003"><a xlink:href="binoc_8h.html" target="_top" xlink:title="Binoc&#45;u&#45;com.">
<polygon fill="white" stroke="#666666" points="648.5,-294 596.5,-294 596.5,-275 648.5,-275 648.5,-294"/>
<text text-anchor="middle" x="622.5" y="-282" font-family="Helvetica,sans-Serif" font-size="10.00">binoc.h</text>
</a>
</g>
</g>
<!-- Node2&#45;&gt;Node3 -->
<g id="edge2_Node000002_Node000003" class="edge">
<title>Node2&#45;&gt;Node3</title>
<g id="a_edge2_Node000002_Node000003"><a xlink:title=" ">
<path fill="none" stroke="#63b8ff" d="M630.85,-329.75C629.54,-322.8 627.66,-312.85 626.02,-304.13"/>
<polygon fill="#63b8ff" stroke="#63b8ff" points="629.41,-303.27 624.12,-294.09 622.54,-304.56 629.41,-303.27"/>
</a>
</g>
</g>
<!-- Node4 -->
<g id="Node000004" class="node">
<title>Node4</title>
<g id="a_Node000004"><a xlink:href="screen_8h.html" target="_top" xlink:title="GUI elements.">
<polygon fill="white" stroke="#666666" points="296.5,-239 238.5,-239 238.5,-220 296.5,-220 296.5,-239"/>
<text text-anchor="middle" x="267.5" y="-227" font-family="Helvetica,sans-Serif" font-size="10.00">screen.h</text>
</a>
</g>
</g>
<!-- Node3&#45;&gt;Node4 -->
<g id="edge3_Node000003_Node000004" class="edge">
<title>Node3&#45;&gt;Node4</title>
<g id="a_edge3_Node000003_Node000004"><a xlink:title=" ">
<path fill="none" stroke="#63b8ff" d="M596.4,-279.6C534.74,-270.4 379.79,-247.27 306.75,-236.36"/>
<polygon fill="#63b8ff" stroke="#63b8ff" points="307,-232.86 296.59,-234.84 305.97,-239.78 307,-232.86"/>
</a>
</g>
</g>
<!-- Node17 -->
<g id="Node000017" class="node">
<title>Node17</title>
<g id="a_Node000017"><a xlink:href="util_8h.html" target="_top" xlink:title="Utility functions.">
<polygon fill="white" stroke="#666666" points="652,-239 611,-239 611,-220 652,-220 652,-239"/>
<text text-anchor="middle" x="631.5" y="-227" font-family="Helvetica,sans-Serif" font-size="10.00">util.h</text>
</a>
</g>
</g>
<!-- Node3&#45;&gt;Node17 -->
<g id="edge17_Node000003_Node000017" class="edge">
<title>Node3&#45;&gt;Node17</title>
<g id="a_edge17_Node000003_Node000017"><a xlink:title=" ">
<path fill="none" stroke="#63b8ff" d="M623.99,-274.75C625.17,-267.8 626.86,-257.85 628.34,-249.13"/>
<polygon fill="#63b8ff" stroke="#63b8ff" points="631.82,-249.53 630.04,-239.09 624.92,-248.36 631.82,-249.53"/>
</a>
</g>
</g>
<!-- Node5 -->
<g id="Node000005" class="node">
<title>Node5</title>
<g id="a_Node000005"><a xlink:href="font_8h.html" target="_top" xlink:title="Font system.">
<polygon fill="white" stroke="#666666" points="177,-184 132,-184 132,-165 177,-165 177,-184"/>
<text text-anchor="middle" x="154.5" y="-172" font-family="Helvetica,sans-Serif" font-size="10.00">font.h</text>
</a>
</g>
</g>
<!-- Node4&#45;&gt;Node5 -->
<g id="edge4_Node000004_Node000005" class="edge">
<title>Node4&#45;&gt;Node5</title>
<g id="a_edge4_Node000004_Node000005"><a xlink:title=" ">
<path fill="none" stroke="#63b8ff" d="M249.34,-219.98C231.25,-211.5 203.22,-198.35 182.31,-188.54"/>
<polygon fill="#63b8ff" stroke="#63b8ff" points="183.53,-185.25 172.99,-184.17 180.55,-191.59 183.53,-185.25"/>
</a>
</g>
</g>
<!-- Node14 -->
<g id="Node000014" class="node">
<title>Node14</title>
<g id="a_Node000014"><a xlink:href="game_8h.html" target="_top" xlink:title="Game state and level management.">
<polygon fill="white" stroke="#666666" points="294,-184 241,-184 241,-165 294,-165 294,-184"/>
<text text-anchor="middle" x="267.5" y="-172" font-family="Helvetica,sans-Serif" font-size="10.00">game.h</text>
</a>
</g>
</g>
<!-- Node4&#45;&gt;Node14 -->
<g id="edge14_Node000004_Node000014" class="edge">
<title>Node4&#45;&gt;Node14</title>
<g id="a_edge14_Node000004_Node000014"><a xlink:title=" ">
<path fill="none" stroke="#63b8ff" d="M267.5,-219.75C267.5,-212.8 267.5,-202.85 267.5,-194.13"/>
<polygon fill="#63b8ff" stroke="#63b8ff" points="271,-194.09 267.5,-184.09 264,-194.09 271,-194.09"/>
</a>
</g>
</g>
<!-- Node6 -->
<g id="Node000006" class="node">
<title>Node6</title>
<g id="a_Node000006"><a xlink:href="gifs_8h.html" target="_top" xlink:title=" ">
<polygon fill="white" stroke="#666666" points="201.5,-129 157.5,-129 157.5,-110 201.5,-110 201.5,-129"/>
<text text-anchor="middle" x="179.5" y="-117" font-family="Helvetica,sans-Serif" font-size="10.00">gifs.h</text>
</a>
</g>
</g>
<!-- Node5&#45;&gt;Node6 -->
<g id="edge5_Node000005_Node000006" class="edge">
<title>Node5&#45;&gt;Node6</title>
<g id="a_edge5_Node000005_Node000006"><a xlink:title=" ">
<path fill="none" stroke="#63b8ff" d="M158.63,-164.75C162.01,-157.57 166.92,-147.18 171.12,-138.27"/>
<polygon fill="#63b8ff" stroke="#63b8ff" points="174.35,-139.63 175.45,-129.09 168.02,-136.64 174.35,-139.63"/>
</a>
</g>
</g>
<!-- Node7 -->
<g id="Node000007" class="node">
<title>Node7</title>
<g id="a_Node000007"><a xlink:href="dmas_8h.html" target="_top" xlink:title="Direct memory access.">
<polygon fill="white" stroke="#666666" points="206,-74 153,-74 153,-55 206,-55 206,-74"/>
<text text-anchor="middle" x="179.5" y="-62" font-family="Helvetica,sans-Serif" font-size="10.00">dmas.h</text>
</a>
</g>
</g>
<!-- Node5&#45;&gt;Node7 -->
<g id="edge10_Node000005_Node000007" class="edge">
<title>Node5&#45;&gt;Node7</title>
<g id="a_edge10_Node000005_Node000007"><a xlink:title=" ">
<path fill="none" stroke="#63b8ff" d="M151.52,-164.64C147.8,-152.16 142.6,-128.81 148.5,-110 151.73,-99.71 158.28,-89.72 164.53,-81.82"/>
<polygon fill="#63b8ff" stroke="#63b8ff" points="167.23,-84.04 171.02,-74.15 161.89,-79.52 167.23,-84.04"/>
</a>
</g>
</g>
<!-- Node11 -->
<g id="Node000011" class="node">
<title>Node11</title>
<g id="a_Node000011"><a xlink:href="eestruct_8h.html" target="_top" xlink:title="Graphics synthesizer.">
<polygon fill="white" stroke="#666666" points="101,-129 0,-129 0,-110 101,-110 101,-129"/>
<text text-anchor="middle" x="50.5" y="-117" font-family="Helvetica,sans-Serif" font-size="10.00">sdk/ee/eestruct.h</text>
</a>
</g>
</g>
<!-- Node5&#45;&gt;Node11 -->
<g id="edge11_Node000005_Node000011" class="edge">
<title>Node5&#45;&gt;Node11</title>
<g id="a_edge11_Node000005_Node000011"><a xlink:title=" ">
<path fill="none" stroke="#63b8ff" d="M137.79,-164.98C121.29,-156.57 95.8,-143.59 76.62,-133.81"/>
<polygon fill="#63b8ff" stroke="#63b8ff" points="78.01,-130.59 67.51,-129.17 74.83,-136.83 78.01,-130.59"/>
</a>
</g>
</g>
<!-- Node6&#45;&gt;Node7 -->
<g id="edge6_Node000006_Node000007" class="edge">
<title>Node6&#45;&gt;Node7</title>
<g id="a_edge6_Node000006_Node000007"><a xlink:title=" ">
<path fill="none" stroke="#63b8ff" d="M179.5,-109.75C179.5,-102.8 179.5,-92.85 179.5,-84.13"/>
<polygon fill="#63b8ff" stroke="#63b8ff" points="183,-84.09 179.5,-74.09 176,-84.09 183,-84.09"/>
</a>
</g>
</g>
<!-- Node8 -->
<g id="Node000008" class="node">
<title>Node8</title>
<g id="a_Node000008"><a xlink:href="libdma_8h.html" target="_top" xlink:title="Direct memory access library.">
<polygon fill="white" stroke="#666666" points="296,-19 217,-19 217,0 296,0 296,-19"/>
<text text-anchor="middle" x="256.5" y="-7" font-family="Helvetica,sans-Serif" font-size="10.00">sce/libdma.h</text>
</a>
</g>
</g>
<!-- Node7&#45;&gt;Node8 -->
<g id="edge7_Node000007_Node000008" class="edge">
<title>Node7&#45;&gt;Node8</title>
<g id="a_edge7_Node000007_Node000008"><a xlink:title=" ">
<path fill="none" stroke="#63b8ff" d="M191.87,-54.98C203.59,-46.92 221.42,-34.65 235.39,-25.03"/>
<polygon fill="#63b8ff" stroke="#63b8ff" points="237.65,-27.72 243.9,-19.17 233.68,-21.96 237.65,-27.72"/>
</a>
</g>
</g>
<!-- Node9 -->
<g id="Node000009" class="node">
<title>Node9</title>
<g id="a_Node000009"><a xlink:href="eekernel_8h.html" target="_top" xlink:title=" ">
<polygon fill="white" stroke="#666666" points="199,-19 96,-19 96,0 199,0 199,-19"/>
<text text-anchor="middle" x="147.5" y="-7" font-family="Helvetica,sans-Serif" font-size="10.00">sdk/ee/eekernel.h</text>
</a>
</g>
</g>
<!-- Node7&#45;&gt;Node9 -->
<g id="edge8_Node000007_Node000009" class="edge">
<title>Node7&#45;&gt;Node9</title>
<g id="a_edge8_Node000007_Node000009"><a xlink:title=" ">
<path fill="none" stroke="#63b8ff" d="M174.22,-54.75C169.79,-47.42 163.34,-36.73 157.88,-27.7"/>
<polygon fill="#63b8ff" stroke="#63b8ff" points="160.85,-25.84 152.69,-19.09 154.86,-29.46 160.85,-25.84"/>
</a>
</g>
</g>
<!-- Node7&#45;&gt;Node10 -->
<g id="edge9_Node000007_Node000010" class="edge">
<title>Node7&#45;&gt;Node10</title>
<g id="a_edge9_Node000007_Node000010"><a xlink:title=" ">
<path fill="none" stroke="#63b8ff" d="M206.05,-60.84C294.64,-51.94 579.98,-23.3 675.79,-13.68"/>
<polygon fill="#63b8ff" stroke="#63b8ff" points="676.4,-17.14 686,-12.66 675.7,-10.17 676.4,-17.14"/>
</a>
</g>
</g>
<!-- Node12 -->
<g id="Node000012" class="node">
<title>Node12</title>
<g id="a_Node000012"><a xlink:href="types_8h.html" target="_top" xlink:title="Common types used across the codebase.">
<polygon fill="white" stroke="#666666" points="77,-74 24,-74 24,-55 77,-55 77,-74"/>
<text text-anchor="middle" x="50.5" y="-62" font-family="Helvetica,sans-Serif" font-size="10.00">types.h</text>
</a>
</g>
</g>
<!-- Node11&#45;&gt;Node12 -->
<g id="edge12_Node000011_Node000012" class="edge">
<title>Node11&#45;&gt;Node12</title>
<g id="a_edge12_Node000011_Node000012"><a xlink:title=" ">
<path fill="none" stroke="#63b8ff" d="M50.5,-109.75C50.5,-102.8 50.5,-92.85 50.5,-84.13"/>
<polygon fill="#63b8ff" stroke="#63b8ff" points="54,-84.09 50.5,-74.09 47,-84.09 54,-84.09"/>
</a>
</g>
</g>
<!-- Node13 -->
<g id="Node000013" class="node">
<title>Node13</title>
<g id="a_Node000013"><a xlink:title=" ">
<polygon fill="#e0e0e0" stroke="#999999" points="77.5,-19 21.5,-19 21.5,0 77.5,0 77.5,-19"/>
<text text-anchor="middle" x="49.5" y="-7" font-family="Helvetica,sans-Serif" font-size="10.00">stddef.h</text>
</a>
</g>
</g>
<!-- Node12&#45;&gt;Node13 -->
<g id="edge13_Node000012_Node000013" class="edge">
<title>Node12&#45;&gt;Node13</title>
<g id="a_edge13_Node000012_Node000013"><a xlink:title=" ">
<path fill="none" stroke="#63b8ff" d="M50.33,-54.75C50.2,-47.8 50.02,-37.85 49.85,-29.13"/>
<polygon fill="#63b8ff" stroke="#63b8ff" points="53.35,-29.02 49.66,-19.09 46.35,-29.15 53.35,-29.02"/>
</a>
</g>
</g>
<!-- Node15 -->
<g id="Node000015" class="node">
<title>Node15</title>
<g id="a_Node000015"><a xlink:href="oid_8h.html" target="_top" xlink:title="Object IDs.">
<polygon fill="white" stroke="#666666" points="355,-19 314,-19 314,0 355,0 355,-19"/>
<text text-anchor="middle" x="334.5" y="-7" font-family="Helvetica,sans-Serif" font-size="10.00">oid.h</text>
</a>
</g>
</g>
<!-- Node14&#45;&gt;Node15 -->
<g id="edge15_Node000014_Node000015" class="edge">
<title>Node14&#45;&gt;Node15</title>
<g id="a_edge15_Node000014_Node000015"><a xlink:title=" ">
<path fill="none" stroke="#63b8ff" d="M269.7,-164.92C274.93,-145.05 289.09,-94.57 307.5,-55 311.88,-45.58 317.78,-35.64 322.94,-27.55"/>
<polygon fill="#63b8ff" stroke="#63b8ff" points="325.96,-29.33 328.53,-19.05 320.11,-25.48 325.96,-29.33"/>
</a>
</g>
</g>
<!-- Node16 -->
<g id="Node000016" class="node">
<title>Node16</title>
<g id="a_Node000016"><a xlink:href="cid_8h.html" target="_top" xlink:title="Class IDs.">
<polygon fill="white" stroke="#666666" points="259.5,-129 219.5,-129 219.5,-110 259.5,-110 259.5,-129"/>
<text text-anchor="middle" x="239.5" y="-117" font-family="Helvetica,sans-Serif" font-size="10.00">cid.h</text>
</a>
</g>
</g>
<!-- Node14&#45;&gt;Node16 -->
<g id="edge16_Node000014_Node000016" class="edge">
<title>Node14&#45;&gt;Node16</title>
<g id="a_edge16_Node000014_Node000016"><a xlink:title=" ">
<path fill="none" stroke="#63b8ff" d="M262.88,-164.75C259.04,-157.49 253.48,-146.95 248.74,-137.98"/>
<polygon fill="#63b8ff" stroke="#63b8ff" points="251.8,-136.3 244.04,-129.09 245.61,-139.57 251.8,-136.3"/>
</a>
</g>
</g>
<!-- Node17&#45;&gt;Node10 -->
<g id="edge18_Node000017_Node000010" class="edge">
<title>Node17&#45;&gt;Node10</title>
<g id="a_edge18_Node000017_Node000010"><a xlink:title=" ">
<path fill="none" stroke="#63b8ff" d="M632.43,-219.79C635.47,-193.69 646.58,-114.23 674.5,-55 679.26,-44.91 686.48,-34.82 692.96,-26.81"/>
<polygon fill="#63b8ff" stroke="#63b8ff" points="695.76,-28.92 699.54,-19.03 690.41,-24.4 695.76,-28.92"/>
</a>
</g>
</g>
<!-- Node17&#45;&gt;Node18 -->
<g id="edge19_Node000017_Node000018" class="edge">
<title>Node17&#45;&gt;Node18</title>
<g id="a_edge19_Node000017_Node000018"><a xlink:title=" ">
<path fill="none" stroke="#63b8ff" d="M652.11,-221.02C676.3,-212.24 716.7,-197.57 745.1,-187.26"/>
<polygon fill="#63b8ff" stroke="#63b8ff" points="746.39,-190.52 754.59,-183.82 744,-183.94 746.39,-190.52"/>
</a>
</g>
</g>
<!-- Node19 -->
<g id="Node000019" class="node">
<title>Node19</title>
<g id="a_Node000019"><a xlink:href="sm_8h.html" target="_top" xlink:title="Probabilistic finite state machines.">
<polygon fill="white" stroke="#666666" points="546,-184 505,-184 505,-165 546,-165 546,-184"/>
<text text-anchor="middle" x="525.5" y="-172" font-family="Helvetica,sans-Serif" font-size="10.00">sm.h</text>
</a>
</g>
</g>
<!-- Node17&#45;&gt;Node19 -->
<g id="edge21_Node000017_Node000019" class="edge">
<title>Node17&#45;&gt;Node19</title>
<g id="a_edge21_Node000017_Node000019"><a xlink:title=" ">
<path fill="none" stroke="#63b8ff" d="M614.47,-219.98C597.57,-211.54 571.44,-198.47 551.86,-188.68"/>
<polygon fill="#63b8ff" stroke="#63b8ff" points="553.35,-185.51 542.84,-184.17 550.22,-191.77 553.35,-185.51"/>
</a>
</g>
</g>
<!-- Node18&#45;&gt;Node10 -->
<g id="edge20_Node000018_Node000010" class="edge">
<title>Node18&#45;&gt;Node10</title>
<g id="a_edge20_Node000018_Node000010"><a xlink:title=" ">
<path fill="none" stroke="#63b8ff" d="M775.83,-164.79C771.75,-144.64 760.13,-93.62 740.5,-55 735.44,-45.05 728.19,-34.98 721.77,-26.94"/>
<polygon fill="#63b8ff" stroke="#63b8ff" points="724.36,-24.58 715.28,-19.12 718.97,-29.05 724.36,-24.58"/>
</a>
</g>
</g>
<!-- Node20 -->
<g id="Node000020" class="node">
<title>Node20</title>
<g id="a_Node000020"><a xlink:href="dl_8h.html" target="_top" xlink:title="Doubly&#45;linked list.">
<polygon fill="white" stroke="#666666" points="351,-74 316,-74 316,-55 351,-55 351,-74"/>
<text text-anchor="middle" x="333.5" y="-62" font-family="Helvetica,sans-Serif" font-size="10.00">dl.h</text>
</a>
</g>
</g>
<!-- Node19&#45;&gt;Node20 -->
<g id="edge22_Node000019_Node000020" class="edge">
<title>Node19&#45;&gt;Node20</title>
<g id="a_edge22_Node000019_Node000020"><a xlink:title=" ">
<path fill="none" stroke="#63b8ff" d="M510.11,-164.84C476.75,-146.08 397.54,-101.52 357.52,-79.01"/>
<polygon fill="#63b8ff" stroke="#63b8ff" points="359.13,-75.9 348.69,-74.05 355.69,-82 359.13,-75.9"/>
</a>
</g>
</g>
<!-- Node21 -->
<g id="Node000021" class="node">
<title>Node21</title>
<g id="a_Node000021"><a xlink:href="mq_8h.html" target="_top" xlink:title="Message queue.">
<polygon fill="white" stroke="#666666" points="622,-74 581,-74 581,-55 622,-55 622,-74"/>
<text text-anchor="middle" x="601.5" y="-62" font-family="Helvetica,sans-Serif" font-size="10.00">mq.h</text>
</a>
</g>
</g>
<!-- Node19&#45;&gt;Node21 -->
<g id="edge24_Node000019_Node000021" class="edge">
<title>Node19&#45;&gt;Node21</title>
<g id="a_edge24_Node000019_Node000021"><a xlink:title=" ">
<path fill="none" stroke="#63b8ff" d="M531.72,-164.66C544.36,-146.69 573.25,-105.64 589.62,-82.38"/>
<polygon fill="#63b8ff" stroke="#63b8ff" points="592.51,-84.35 595.41,-74.16 586.79,-80.32 592.51,-84.35"/>
</a>
</g>
</g>
<!-- Node22 -->
<g id="Node000022" class="node">
<title>Node22</title>
<g id="a_Node000022"><a xlink:href="lo_8h.html" target="_top" xlink:title="Level objects.">
<polygon fill="white" stroke="#666666" points="494,-129 459,-129 459,-110 494,-110 494,-129"/>
<text text-anchor="middle" x="476.5" y="-117" font-family="Helvetica,sans-Serif" font-size="10.00">lo.h</text>
</a>
</g>
</g>
<!-- Node19&#45;&gt;Node22 -->
<g id="edge25_Node000019_Node000022" class="edge">
<title>Node19&#45;&gt;Node22</title>
<g id="a_edge25_Node000019_Node000022"><a xlink:title=" ">
<path fill="none" stroke="#63b8ff" d="M517.41,-164.75C510.34,-157.11 499.91,-145.82 491.35,-136.56"/>
<polygon fill="#63b8ff" stroke="#63b8ff" points="493.8,-134.06 484.44,-129.09 488.66,-138.81 493.8,-134.06"/>
</a>
</g>
</g>
<!-- Node20&#45;&gt;Node15 -->
<g id="edge23_Node000020_Node000015" class="edge">
<title>Node20&#45;&gt;Node15</title>
<g id="a_edge23_Node000020_Node000015"><a xlink:title=" ">
<path fill="none" stroke="#63b8ff" d="M333.67,-54.75C333.8,-47.8 333.98,-37.85 334.15,-29.13"/>
<polygon fill="#63b8ff" stroke="#63b8ff" points="337.65,-29.15 334.34,-19.09 330.65,-29.02 337.65,-29.15"/>
</a>
</g>
</g>
<!-- Node22&#45;&gt;Node15 -->
<g id="edge28_Node000022_Node000015" class="edge">
<title>Node22&#45;&gt;Node15</title>
<g id="a_edge28_Node000022_Node000015"><a xlink:title=" ">
<path fill="none" stroke="#63b8ff" d="M458.96,-110.17C442.59,-102.02 417.86,-88.72 398.5,-74 379.72,-59.72 360.87,-40.25 348.54,-26.64"/>
<polygon fill="#63b8ff" stroke="#63b8ff" points="351.03,-24.17 341.77,-19.03 345.8,-28.83 351.03,-24.17"/>
</a>
</g>
</g>
<!-- Node22&#45;&gt;Node20 -->
<g id="edge26_Node000022_Node000020" class="edge">
<title>Node22&#45;&gt;Node20</title>
<g id="a_edge26_Node000022_Node000020"><a xlink:title=" ">
<path fill="none" stroke="#63b8ff" d="M458.97,-112C434.41,-102.9 389.57,-86.28 360.67,-75.57"/>
<polygon fill="#63b8ff" stroke="#63b8ff" points="361.77,-72.25 351.18,-72.05 359.34,-78.81 361.77,-72.25"/>
</a>
</g>
</g>
<!-- Node22&#45;&gt;Node21 -->
<g id="edge27_Node000022_Node000021" class="edge">
<title>Node22&#45;&gt;Node21</title>
<g id="a_edge27_Node000022_Node000021"><a xlink:title=" ">
<path fill="none" stroke="#63b8ff" d="M494.14,-111.02C514.25,-102.49 547.46,-88.41 571.63,-78.17"/>
<polygon fill="#63b8ff" stroke="#63b8ff" points="573.2,-81.3 581.04,-74.17 570.47,-74.86 573.2,-81.3"/>
</a>
</g>
</g>
<!-- Node23 -->
<g id="Node000023" class="node">
<title>Node23</title>
<g id="a_Node000023"><a xlink:href="basic_8h.html" target="_top" xlink:title="Basic object.">
<polygon fill="white" stroke="#666666" points="563,-74 512,-74 512,-55 563,-55 563,-74"/>
<text text-anchor="middle" x="537.5" y="-62" font-family="Helvetica,sans-Serif" font-size="10.00">basic.h</text>
</a>
</g>
</g>
<!-- Node22&#45;&gt;Node23 -->
<g id="edge29_Node000022_Node000023" class="edge">
<title>Node22&#45;&gt;Node23</title>
<g id="a_edge29_Node000022_Node000023"><a xlink:title=" ">
<path fill="none" stroke="#63b8ff" d="M486.3,-109.98C495.32,-102.15 508.91,-90.34 519.82,-80.86"/>
<polygon fill="#63b8ff" stroke="#63b8ff" points="522.27,-83.37 527.52,-74.17 517.68,-78.09 522.27,-83.37"/>
</a>
</g>
</g>
<!-- Node25 -->
<g id="Node000025" class="node">
<title>Node25</title>
<g id="a_Node000025"><a xlink:href="frame_8h.html" target="_top" xlink:title=" ">
<polygon fill="white" stroke="#666666" points="493.5,-74 407.5,-74 407.5,-55 493.5,-55 493.5,-74"/>
<text text-anchor="middle" x="450.5" y="-62" font-family="Helvetica,sans-Serif" font-size="10.00">splice/frame.h</text>
</a>
</g>
</g>
<!-- Node22&#45;&gt;Node25 -->
<g id="edge31_Node000022_Node000025" class="edge">
<title>Node22&#45;&gt;Node25</title>
<g id="a_edge31_Node000022_Node000025"><a xlink:title=" ">
<path fill="none" stroke="#63b8ff" d="M472.21,-109.75C468.69,-102.57 463.59,-92.18 459.22,-83.27"/>
<polygon fill="#63b8ff" stroke="#63b8ff" points="462.26,-81.53 454.71,-74.09 455.98,-84.61 462.26,-81.53"/>
</a>
</g>
</g>
<!-- Node24 -->
<g id="Node000024" class="node">
<title>Node24</title>
<g id="a_Node000024"><a xlink:href="sidebag_8h.html" target="_top" xlink:title="Sidebag for splice.">
<polygon fill="white" stroke="#666666" points="585,-19 490,-19 490,0 585,0 585,-19"/>
<text text-anchor="middle" x="537.5" y="-7" font-family="Helvetica,sans-Serif" font-size="10.00">splice/sidebag.h</text>
</a>
</g>
</g>
<!-- Node23&#45;&gt;Node24 -->
<g id="edge30_Node000023_Node000024" class="edge">
<title>Node23&#45;&gt;Node24</title>
<g id="a_edge30_Node000023_Node000024"><a xlink:title=" ">
<path fill="none" stroke="#63b8ff" d="M537.5,-54.75C537.5,-47.8 537.5,-37.85 537.5,-29.13"/>
<polygon fill="#63b8ff" stroke="#63b8ff" points="541,-29.09 537.5,-19.09 534,-29.09 541,-29.09"/>
</a>
</g>
</g>
<!-- Node27&#45;&gt;Node10 -->
<g id="edge36_Node000027_Node000010" class="edge">
<title>Node27&#45;&gt;Node10</title>
<g id="a_edge36_Node000027_Node000010"><a xlink:title=" ">
<path fill="none" stroke="#63b8ff" d="M742.09,-219.95C736.79,-187.88 718.02,-74.2 710.57,-29.12"/>
<polygon fill="#63b8ff" stroke="#63b8ff" points="714.02,-28.52 708.94,-19.22 707.12,-29.66 714.02,-28.52"/>
</a>
</g>
</g>
<!-- Node27&#45;&gt;Node18 -->
<g id="edge37_Node000027_Node000018" class="edge">
<title>Node27&#45;&gt;Node18</title>
<g id="a_edge37_Node000027_Node000018"><a xlink:title=" ">
<path fill="none" stroke="#63b8ff" d="M749.11,-219.75C753.82,-212.42 760.67,-201.73 766.47,-192.7"/>
<polygon fill="#63b8ff" stroke="#63b8ff" points="769.54,-194.4 771.99,-184.09 763.64,-190.62 769.54,-194.4"/>
</a>
</g>
</g>
<!-- Node29&#45;&gt;Node10 -->
<g id="edge41_Node000029_Node000010" class="edge">
<title>Node29&#45;&gt;Node10</title>
<g id="a_edge41_Node000029_Node000010"><a xlink:title=" ">
<path fill="none" stroke="#63b8ff" d="M688.5,-274.82C688.5,-256.48 688.5,-212.44 688.5,-175.5 688.5,-175.5 688.5,-175.5 688.5,-118.5 688.5,-86.56 696.66,-50.1 702.28,-28.77"/>
<polygon fill="#63b8ff" stroke="#63b8ff" points="705.67,-29.66 704.94,-19.09 698.92,-27.81 705.67,-29.66"/>
</a>
</g>
</g>
<!-- Node29&#45;&gt;Node27 -->
<g id="edge40_Node000029_Node000027" class="edge">
<title>Node29&#45;&gt;Node27</title>
<g id="a_edge40_Node000029_Node000027"><a xlink:title=" ">
<path fill="none" stroke="#63b8ff" d="M697.58,-274.75C705.59,-267.03 717.46,-255.6 727.12,-246.28"/>
<polygon fill="#63b8ff" stroke="#63b8ff" points="729.81,-248.55 734.59,-239.09 724.96,-243.51 729.81,-248.55"/>
</a>
</g>
</g>
</g>
</svg>
