<?xml version="1.0" encoding="UTF-8" standalone="no"?>
<!DOCTYPE svg PUBLIC "-//W3C//DTD SVG 1.1//EN"
 "http://www.w3.org/Graphics/SVG/1.1/DTD/svg11.dtd">
<!-- Generated by graphviz version 2.43.0 (0)
 -->
<!-- Title: include/bis.h Pages: 1 -->
<!--zoomable 756 -->
<svg id="main" version="1.1" xmlns="http://www.w3.org/2000/svg" xmlns:xlink="http://www.w3.org/1999/xlink" xml:space="preserve" onload="init(evt)">
<style type="text/css"><![CDATA[
.edge:hover path { stroke: red; }
.edge:hover polygon { stroke: red; fill: red; }
]]></style>
<script type="text/javascript"><![CDATA[
var edges = document.getElementsByTagName('g');
if (edges && edges.length) {
  for (var i=0;i<edges.length;i++) {
    if (edges[i].id.substr(0,4)=='edge') {
      edges[i].setAttribute('class','edge');
    }
  }
}
]]></script>
        <defs>
                <circle id="rim" cx="0" cy="0" r="7"/>
                <circle id="rim2" cx="0" cy="0" r="3.5"/>
                <g id="zoomPlus">
                        <use xlink:href="#rim" fill="#404040">
                                <set attributeName="fill" to="#808080" begin="zoomplus.mouseover" end="zoomplus.mouseout"/>
                        </use>
                        <path d="M-4,0h8M0,-4v8" fill="none" stroke="white" stroke-width="1.5" pointer-events="none"/>
                </g>
                <g id="zoomMin">
                        <use xlink:href="#rim" fill="#404040">
                                <set attributeName="fill" to="#808080" begin="zoomminus.mouseover" end="zoomminus.mouseout"/>
                        </use>
                        <path d="M-4,0h8" fill="none" stroke="white" stroke-width="1.5" pointer-events="none"/>
                </g>
                <g id="dirArrow">
                        <path fill="none" stroke="white" stroke-width="1.5" d="M0,-3.0v7 M-2.5,-0.5L0,-3.0L2.5,-0.5"/>
                </g>
               <g id="resetDef">
                       <use xlink:href="#rim2" fill="#404040">
                               <set attributeName="fill" to="#808080" begin="reset.mouseover" end="reset.mouseout"/>
                       </use>
               </g>
        </defs>

<script type="text/javascript">
var viewWidth = 1139;
var viewHeight = 756;
var sectionId = 'dynsection-0';
</script>
<script xlink:href="svgpan.js"/>
<svg id="graph" class="graph">
<g id="viewport">
<title>include/bis.h</title>
<polygon fill="white" stroke="transparent" points="-4,4 -4,-752 1134.5,-752 1134.5,4 -4,4"/>
<!-- Node1 -->
<g id="node1" class="node">
<title>Node1</title>
<g id="a_node1"><a xlink:title="Binary Input Stream.">
<polygon fill="#bfbfbf" stroke="black" points="939,-728.5 939,-747.5 1017,-747.5 1017,-728.5 939,-728.5"/>
<text text-anchor="middle" x="978" y="-735.5" font-family="Helvetica,sans-Serif" font-size="10.00">include/bis.h</text>
</a>
</g>
</g>
<!-- Node2 -->
<g id="node2" class="node">
<title>Node2</title>
<g id="a_node2"><a xlink:href="common_8h.html" target="_top" xlink:title="Common header file.">
<polygon fill="white" stroke="black" points="564,-56.5 564,-75.5 632,-75.5 632,-56.5 564,-56.5"/>
<text text-anchor="middle" x="598" y="-63.5" font-family="Helvetica,sans-Serif" font-size="10.00">common.h</text>
</a>
</g>
</g>
<!-- Node1&#45;&gt;Node2 -->
<g id="edge1" class="edge">
<title>Node1&#45;&gt;Node2</title>
<path fill="none" stroke="midnightblue" d="M938.81,-736.35C777.4,-733.49 168.76,-720.87 88,-692 42.21,-675.63 0,-675.62 0,-627 0,-627 0,-627 0,-177 0,-137.38 25.33,-129.25 61,-112 147.49,-70.18 440.82,-66.5 553.45,-66.68"/>
<polygon fill="midnightblue" stroke="midnightblue" points="553.77,-70.18 563.77,-66.71 553.78,-63.18 553.77,-70.18"/>
</g>
<!-- Node7 -->
<g id="node7" class="node">
<title>Node7</title>
<g id="a_node7"><a xlink:href="prog_8h.html" target="_top" xlink:title=" ">
<polygon fill="white" stroke="black" points="97.5,-672.5 97.5,-691.5 144.5,-691.5 144.5,-672.5 97.5,-672.5"/>
<text text-anchor="middle" x="121" y="-679.5" font-family="Helvetica,sans-Serif" font-size="10.00">prog.h</text>
</a>
</g>
</g>
<!-- Node1&#45;&gt;Node7 -->
<g id="edge6" class="edge">
<title>Node1&#45;&gt;Node7</title>
<path fill="none" stroke="midnightblue" d="M938.95,-734.54C794.37,-725.43 290.84,-693.7 154.99,-685.14"/>
<polygon fill="midnightblue" stroke="midnightblue" points="154.98,-681.63 144.78,-684.5 154.54,-688.62 154.98,-681.63"/>
</g>
<!-- Node15 -->
<g id="node15" class="node">
<title>Node15</title>
<g id="a_node15"><a xlink:href="geom_8h.html" target="_top" xlink:title="Geometry.">
<polygon fill="white" stroke="black" points="932.5,-392.5 932.5,-411.5 985.5,-411.5 985.5,-392.5 932.5,-392.5"/>
<text text-anchor="middle" x="959" y="-399.5" font-family="Helvetica,sans-Serif" font-size="10.00">geom.h</text>
</a>
</g>
</g>
<!-- Node1&#45;&gt;Node15 -->
<g id="edge57" class="edge">
<title>Node1&#45;&gt;Node15</title>
<path fill="none" stroke="midnightblue" d="M978,-728.44C978,-709.94 978,-664.81 978,-627 978,-627 978,-627 978,-513 978,-480.49 969.84,-443.35 964.22,-421.61"/>
<polygon fill="midnightblue" stroke="midnightblue" points="967.54,-420.5 961.56,-411.75 960.78,-422.32 967.54,-420.5"/>
</g>
<!-- Node17 -->
<g id="node17" class="node">
<title>Node17</title>
<g id="a_node17"><a xlink:href="vec_8h.html" target="_top" xlink:title="Vector math functions.">
<polygon fill="white" stroke="black" points="706.5,-392.5 706.5,-411.5 749.5,-411.5 749.5,-392.5 706.5,-392.5"/>
<text text-anchor="middle" x="728" y="-399.5" font-family="Helvetica,sans-Serif" font-size="10.00">vec.h</text>
</a>
</g>
</g>
<!-- Node1&#45;&gt;Node17 -->
<g id="edge55" class="edge">
<title>Node1&#45;&gt;Node17</title>
<path fill="none" stroke="midnightblue" d="M938.86,-730.51C860.11,-716.35 690,-679.65 690,-627 690,-627 690,-627 690,-513 690,-478.81 706.6,-441.76 717.86,-420.57"/>
<polygon fill="midnightblue" stroke="midnightblue" points="720.95,-422.22 722.72,-411.77 714.82,-418.83 720.95,-422.22"/>
</g>
<!-- Node29 -->
<g id="node29" class="node">
<title>Node29</title>
<g id="a_node29"><a xlink:href="clock_8h.html" target="_top" xlink:title="Engine clock.">
<polygon fill="white" stroke="black" points="1017.5,-560.5 1017.5,-579.5 1068.5,-579.5 1068.5,-560.5 1017.5,-560.5"/>
<text text-anchor="middle" x="1043" y="-567.5" font-family="Helvetica,sans-Serif" font-size="10.00">clock.h</text>
</a>
</g>
</g>
<!-- Node1&#45;&gt;Node29 -->
<g id="edge53" class="edge">
<title>Node1&#45;&gt;Node29</title>
<path fill="none" stroke="midnightblue" d="M981.49,-728.08C991.77,-701.83 1022.03,-624.55 1035.91,-589.12"/>
<polygon fill="midnightblue" stroke="midnightblue" points="1039.26,-590.16 1039.65,-579.57 1032.74,-587.6 1039.26,-590.16"/>
</g>
<!-- Node30 -->
<g id="node30" class="node">
<title>Node30</title>
<g id="a_node30"><a xlink:href="mat_8h.html" target="_top" xlink:title="3x3 and 4x4 matrix types.">
<polygon fill="white" stroke="black" points="1044.5,-672.5 1044.5,-691.5 1089.5,-691.5 1089.5,-672.5 1044.5,-672.5"/>
<text text-anchor="middle" x="1067" y="-679.5" font-family="Helvetica,sans-Serif" font-size="10.00">mat.h</text>
</a>
</g>
</g>
<!-- Node1&#45;&gt;Node30 -->
<g id="edge56" class="edge">
<title>Node1&#45;&gt;Node30</title>
<path fill="none" stroke="midnightblue" d="M992.3,-728.32C1006.18,-719.9 1027.49,-706.97 1043.8,-697.07"/>
<polygon fill="midnightblue" stroke="midnightblue" points="1046,-699.83 1052.74,-691.65 1042.37,-693.85 1046,-699.83"/>
</g>
<!-- Node31 -->
<g id="node31" class="node">
<title>Node31</title>
<g id="a_node31"><a xlink:href="cat_8h.html" target="_top" xlink:title="Catalog.">
<polygon fill="white" stroke="black" points="1089.5,-336.5 1089.5,-355.5 1130.5,-355.5 1130.5,-336.5 1089.5,-336.5"/>
<text text-anchor="middle" x="1110" y="-343.5" font-family="Helvetica,sans-Serif" font-size="10.00">cat.h</text>
</a>
</g>
</g>
<!-- Node1&#45;&gt;Node31 -->
<g id="edge58" class="edge">
<title>Node1&#45;&gt;Node31</title>
<path fill="none" stroke="midnightblue" d="M1017.28,-731.44C1043.49,-725.77 1076.88,-714.44 1098,-692 1118.72,-669.99 1118,-657.23 1118,-627 1118,-627 1118,-627 1118,-457 1118,-424.86 1114.56,-387.58 1112.19,-365.72"/>
<polygon fill="midnightblue" stroke="midnightblue" points="1115.64,-365.09 1111.05,-355.54 1108.69,-365.87 1115.64,-365.09"/>
</g>
<!-- Node3 -->
<g id="node3" class="node">
<title>Node3</title>
<g id="a_node3"><a xlink:href="include__asm_8h.html" target="_top" xlink:title=" ">
<polygon fill="white" stroke="black" points="396.5,-0.5 396.5,-19.5 483.5,-19.5 483.5,-0.5 396.5,-0.5"/>
<text text-anchor="middle" x="440" y="-7.5" font-family="Helvetica,sans-Serif" font-size="10.00">include_asm.h</text>
</a>
</g>
</g>
<!-- Node2&#45;&gt;Node3 -->
<g id="edge2" class="edge">
<title>Node2&#45;&gt;Node3</title>
<path fill="none" stroke="midnightblue" d="M572.96,-56.44C546.38,-47.36 504.19,-32.94 474.48,-22.78"/>
<polygon fill="midnightblue" stroke="midnightblue" points="475.51,-19.44 464.92,-19.52 473.25,-26.06 475.51,-19.44"/>
</g>
<!-- Node4 -->
<g id="node4" class="node">
<title>Node4</title>
<g id="a_node4"><a xlink:href="include__rodata_8h.html" target="_top" xlink:title=" ">
<polygon fill="white" stroke="black" points="502,-0.5 502,-19.5 600,-19.5 600,-0.5 502,-0.5"/>
<text text-anchor="middle" x="551" y="-7.5" font-family="Helvetica,sans-Serif" font-size="10.00">include_rodata.h</text>
</a>
</g>
</g>
<!-- Node2&#45;&gt;Node4 -->
<g id="edge3" class="edge">
<title>Node2&#45;&gt;Node4</title>
<path fill="none" stroke="midnightblue" d="M590.24,-56.08C583.46,-48.3 573.46,-36.8 565.24,-27.37"/>
<polygon fill="midnightblue" stroke="midnightblue" points="567.82,-25 558.62,-19.75 562.54,-29.59 567.82,-25"/>
</g>
<!-- Node5 -->
<g id="node5" class="node">
<title>Node5</title>
<g id="a_node5"><a xlink:href="types_8h.html" target="_top" xlink:title="Types used throughout the engine.">
<polygon fill="white" stroke="black" points="618.5,-0.5 618.5,-19.5 671.5,-19.5 671.5,-0.5 618.5,-0.5"/>
<text text-anchor="middle" x="645" y="-7.5" font-family="Helvetica,sans-Serif" font-size="10.00">types.h</text>
</a>
</g>
</g>
<!-- Node2&#45;&gt;Node5 -->
<g id="edge4" class="edge">
<title>Node2&#45;&gt;Node5</title>
<path fill="none" stroke="midnightblue" d="M605.76,-56.08C612.54,-48.3 622.54,-36.8 630.76,-27.37"/>
<polygon fill="midnightblue" stroke="midnightblue" points="633.46,-29.59 637.38,-19.75 628.18,-25 633.46,-29.59"/>
</g>
<!-- Node6 -->
<g id="node6" class="node">
<title>Node6</title>
<g id="a_node6"><a xlink:href="vtables_8h.html" target="_top" xlink:title=" ">
<polygon fill="white" stroke="black" points="690,-0.5 690,-19.5 752,-19.5 752,-0.5 690,-0.5"/>
<text text-anchor="middle" x="721" y="-7.5" font-family="Helvetica,sans-Serif" font-size="10.00">vtables.h</text>
</a>
</g>
</g>
<!-- Node2&#45;&gt;Node6 -->
<g id="edge5" class="edge">
<title>Node2&#45;&gt;Node6</title>
<path fill="none" stroke="midnightblue" d="M617.49,-56.44C637.64,-47.6 669.32,-33.69 692.33,-23.59"/>
<polygon fill="midnightblue" stroke="midnightblue" points="693.85,-26.74 701.6,-19.52 691.04,-20.33 693.85,-26.74"/>
</g>
<!-- Node7&#45;&gt;Node2 -->
<g id="edge7" class="edge">
<title>Node7&#45;&gt;Node2</title>
<path fill="none" stroke="midnightblue" d="M117.36,-672.34C109.99,-654 94,-609.74 94,-571 94,-571 94,-571 94,-177 94,-140.28 112.82,-129.68 145,-112 214.58,-73.78 453.91,-67.84 553.73,-67.05"/>
<polygon fill="midnightblue" stroke="midnightblue" points="553.82,-70.54 563.79,-66.98 553.77,-63.55 553.82,-70.54"/>
</g>
<!-- Node8 -->
<g id="node8" class="node">
<title>Node8</title>
<g id="a_node8"><a xlink:href="binoc_8h.html" target="_top" xlink:title="Binoc&#45;u&#45;com.">
<polygon fill="white" stroke="black" points="122,-616.5 122,-635.5 174,-635.5 174,-616.5 122,-616.5"/>
<text text-anchor="middle" x="148" y="-623.5" font-family="Helvetica,sans-Serif" font-size="10.00">binoc.h</text>
</a>
</g>
</g>
<!-- Node7&#45;&gt;Node8 -->
<g id="edge8" class="edge">
<title>Node7&#45;&gt;Node8</title>
<path fill="none" stroke="midnightblue" d="M125.46,-672.08C129.15,-664.69 134.52,-653.95 139.09,-644.81"/>
<polygon fill="midnightblue" stroke="midnightblue" points="142.28,-646.26 143.62,-635.75 136.02,-643.13 142.28,-646.26"/>
</g>
<!-- Node28 -->
<g id="node28" class="node">
<title>Node28</title>
<g id="a_node28"><a xlink:href="gs_8h.html" target="_top" xlink:title="Graphics synthesizer.">
<polygon fill="white" stroke="black" points="28.5,-280.5 28.5,-299.5 65.5,-299.5 65.5,-280.5 28.5,-280.5"/>
<text text-anchor="middle" x="47" y="-287.5" font-family="Helvetica,sans-Serif" font-size="10.00">gs.h</text>
</a>
</g>
</g>
<!-- Node7&#45;&gt;Node28 -->
<g id="edge51" class="edge">
<title>Node7&#45;&gt;Node28</title>
<path fill="none" stroke="midnightblue" d="M110.67,-672.5C91.2,-655.44 51,-614.91 51,-571 51,-571 51,-571 51,-401 51,-368.93 49.28,-331.63 48.1,-309.74"/>
<polygon fill="midnightblue" stroke="midnightblue" points="51.58,-309.34 47.52,-299.55 44.59,-309.73 51.58,-309.34"/>
</g>
<!-- Node8&#45;&gt;Node2 -->
<g id="edge9" class="edge">
<title>Node8&#45;&gt;Node2</title>
<path fill="none" stroke="midnightblue" d="M145.84,-616.22C141.47,-597.66 132,-553.02 132,-515 132,-515 132,-515 132,-177 132,-142.36 145.4,-129.99 175,-112 237.8,-73.82 458.65,-67.81 553.82,-67.02"/>
<polygon fill="midnightblue" stroke="midnightblue" points="554,-70.52 563.98,-66.95 553.96,-63.52 554,-70.52"/>
</g>
<!-- Node9 -->
<g id="node9" class="node">
<title>Node9</title>
<g id="a_node9"><a xlink:href="screen_8h.html" target="_top" xlink:title="User interface manager.">
<polygon fill="white" stroke="black" points="237,-560.5 237,-579.5 295,-579.5 295,-560.5 237,-560.5"/>
<text text-anchor="middle" x="266" y="-567.5" font-family="Helvetica,sans-Serif" font-size="10.00">screen.h</text>
</a>
</g>
</g>
<!-- Node8&#45;&gt;Node9 -->
<g id="edge10" class="edge">
<title>Node8&#45;&gt;Node9</title>
<path fill="none" stroke="midnightblue" d="M166.7,-616.44C185.94,-607.64 216.15,-593.81 238.2,-583.72"/>
<polygon fill="midnightblue" stroke="midnightblue" points="239.75,-586.86 247.39,-579.52 236.84,-580.5 239.75,-586.86"/>
</g>
<!-- Node9&#45;&gt;Node2 -->
<g id="edge11" class="edge">
<title>Node9&#45;&gt;Node2</title>
<path fill="none" stroke="midnightblue" d="M295.15,-568.42C397.25,-566.13 738.17,-556.2 842,-524 931.97,-496.09 1016,-497.19 1016,-403 1016,-403 1016,-403 1016,-177 1016,-133.56 982.51,-130.05 943,-112 890.36,-87.95 723.19,-74.69 642.46,-69.54"/>
<polygon fill="midnightblue" stroke="midnightblue" points="642.33,-66.03 632.13,-68.9 641.9,-73.01 642.33,-66.03"/>
</g>
<!-- Node10 -->
<g id="node10" class="node">
<title>Node10</title>
<g id="a_node10"><a xlink:href="font_8h.html" target="_top" xlink:title="Font system.">
<polygon fill="white" stroke="black" points="176.5,-224.5 176.5,-243.5 221.5,-243.5 221.5,-224.5 176.5,-224.5"/>
<text text-anchor="middle" x="199" y="-231.5" font-family="Helvetica,sans-Serif" font-size="10.00">font.h</text>
</a>
</g>
</g>
<!-- Node9&#45;&gt;Node10 -->
<g id="edge12" class="edge">
<title>Node9&#45;&gt;Node10</title>
<path fill="none" stroke="midnightblue" d="M258.41,-560.28C243.75,-542.52 213,-500.34 213,-459 213,-459 213,-459 213,-345 213,-312.54 206.93,-275.12 202.78,-253.36"/>
<polygon fill="midnightblue" stroke="midnightblue" points="206.21,-252.64 200.83,-243.51 199.34,-254 206.21,-252.64"/>
</g>
<!-- Node11 -->
<g id="node11" class="node">
<title>Node11</title>
<g id="a_node11"><a xlink:href="game_8h.html" target="_top" xlink:title="Game state and level management.">
<polygon fill="white" stroke="black" points="239.5,-168.5 239.5,-187.5 292.5,-187.5 292.5,-168.5 239.5,-168.5"/>
<text text-anchor="middle" x="266" y="-175.5" font-family="Helvetica,sans-Serif" font-size="10.00">game.h</text>
</a>
</g>
</g>
<!-- Node9&#45;&gt;Node11 -->
<g id="edge14" class="edge">
<title>Node9&#45;&gt;Node11</title>
<path fill="none" stroke="midnightblue" d="M266,-560.44C266,-541.94 266,-496.81 266,-459 266,-459 266,-459 266,-289 266,-256.95 266,-219.64 266,-197.75"/>
<polygon fill="midnightblue" stroke="midnightblue" points="269.5,-197.56 266,-187.56 262.5,-197.56 269.5,-197.56"/>
</g>
<!-- Node14 -->
<g id="node14" class="node">
<title>Node14</title>
<g id="a_node14"><a xlink:href="shd_8h.html" target="_top" xlink:title="Shaders.">
<polygon fill="white" stroke="black" points="790.5,-504.5 790.5,-523.5 833.5,-523.5 833.5,-504.5 790.5,-504.5"/>
<text text-anchor="middle" x="812" y="-511.5" font-family="Helvetica,sans-Serif" font-size="10.00">shd.h</text>
</a>
</g>
</g>
<!-- Node9&#45;&gt;Node14 -->
<g id="edge20" class="edge">
<title>Node9&#45;&gt;Node14</title>
<path fill="none" stroke="midnightblue" d="M295.36,-566.1C389.4,-556.8 682.76,-527.78 780.19,-518.15"/>
<polygon fill="midnightblue" stroke="midnightblue" points="780.69,-521.61 790.3,-517.15 780,-514.65 780.69,-521.61"/>
</g>
<!-- Node10&#45;&gt;Node2 -->
<g id="edge13" class="edge">
<title>Node10&#45;&gt;Node2</title>
<path fill="none" stroke="midnightblue" d="M194.53,-224.34C183.92,-202.41 160.16,-144.18 189,-112 213.03,-85.18 452.89,-72.7 553.72,-68.6"/>
<polygon fill="midnightblue" stroke="midnightblue" points="554.03,-72.09 563.89,-68.2 553.76,-65.09 554.03,-72.09"/>
</g>
<!-- Node11&#45;&gt;Node2 -->
<g id="edge15" class="edge">
<title>Node11&#45;&gt;Node2</title>
<path fill="none" stroke="midnightblue" d="M265.78,-168.29C265.94,-154.15 268.48,-126.33 285,-112 324.31,-77.9 477.05,-69.63 553.67,-67.63"/>
<polygon fill="midnightblue" stroke="midnightblue" points="554.04,-71.12 563.95,-67.39 553.87,-64.12 554.04,-71.12"/>
</g>
<!-- Node12 -->
<g id="node12" class="node">
<title>Node12</title>
<g id="a_node12"><a xlink:href="oid_8h.html" target="_top" xlink:title="Object IDs.">
<polygon fill="white" stroke="black" points="626.5,-112.5 626.5,-131.5 667.5,-131.5 667.5,-112.5 626.5,-112.5"/>
<text text-anchor="middle" x="647" y="-119.5" font-family="Helvetica,sans-Serif" font-size="10.00">oid.h</text>
</a>
</g>
</g>
<!-- Node11&#45;&gt;Node12 -->
<g id="edge16" class="edge">
<title>Node11&#45;&gt;Node12</title>
<path fill="none" stroke="midnightblue" d="M292.79,-173.2C361.42,-163.48 543.27,-137.7 616.15,-127.37"/>
<polygon fill="midnightblue" stroke="midnightblue" points="617.07,-130.78 626.48,-125.91 616.09,-123.85 617.07,-130.78"/>
</g>
<!-- Node13 -->
<g id="node13" class="node">
<title>Node13</title>
<g id="a_node13"><a xlink:href="cid_8h.html" target="_top" xlink:title="Class ID.">
<polygon fill="white" stroke="black" points="198,-112.5 198,-131.5 238,-131.5 238,-112.5 198,-112.5"/>
<text text-anchor="middle" x="218" y="-119.5" font-family="Helvetica,sans-Serif" font-size="10.00">cid.h</text>
</a>
</g>
</g>
<!-- Node11&#45;&gt;Node13 -->
<g id="edge18" class="edge">
<title>Node11&#45;&gt;Node13</title>
<path fill="none" stroke="midnightblue" d="M258.07,-168.08C251.15,-160.3 240.93,-148.8 232.55,-139.37"/>
<polygon fill="midnightblue" stroke="midnightblue" points="235.04,-136.9 225.78,-131.75 229.81,-141.55 235.04,-136.9"/>
</g>
<!-- Node12&#45;&gt;Node2 -->
<g id="edge17" class="edge">
<title>Node12&#45;&gt;Node2</title>
<path fill="none" stroke="midnightblue" d="M638.91,-112.08C631.84,-104.3 621.41,-92.8 612.85,-83.37"/>
<polygon fill="midnightblue" stroke="midnightblue" points="615.25,-80.8 605.94,-75.75 610.07,-85.51 615.25,-80.8"/>
</g>
<!-- Node13&#45;&gt;Node2 -->
<g id="edge19" class="edge">
<title>Node13&#45;&gt;Node2</title>
<path fill="none" stroke="midnightblue" d="M238.04,-115.24C242.6,-114.05 247.45,-112.89 252,-112 359.48,-90.88 487.75,-77.14 553.82,-70.9"/>
<polygon fill="midnightblue" stroke="midnightblue" points="554.24,-74.37 563.88,-69.96 553.59,-67.4 554.24,-74.37"/>
</g>
<!-- Node14&#45;&gt;Node2 -->
<g id="edge21" class="edge">
<title>Node14&#45;&gt;Node2</title>
<path fill="none" stroke="midnightblue" d="M833.51,-505.03C849.74,-497.86 871.17,-485.72 883,-468 913.32,-422.61 904,-401.58 904,-347 904,-347 904,-347 904,-177 904,-141.86 888.62,-130.9 859,-112 823.84,-89.57 707.46,-76.33 642.62,-70.52"/>
<polygon fill="midnightblue" stroke="midnightblue" points="642.55,-67 632.29,-69.62 641.95,-73.98 642.55,-67"/>
</g>
<!-- Node14&#45;&gt;Node15 -->
<g id="edge22" class="edge">
<title>Node14&#45;&gt;Node15</title>
<path fill="none" stroke="midnightblue" d="M833.89,-507.53C856.41,-501.05 891.57,-488.47 916,-468 931.36,-455.13 943.33,-435.41 950.7,-421.06"/>
<polygon fill="midnightblue" stroke="midnightblue" points="954.01,-422.26 955.24,-411.74 947.72,-419.2 954.01,-422.26"/>
</g>
<!-- Node16 -->
<g id="node16" class="node">
<title>Node16</title>
<g id="a_node16"><a xlink:href="surf_8h.html" target="_top" xlink:title="Surface?">
<polygon fill="white" stroke="black" points="756,-448.5 756,-467.5 800,-467.5 800,-448.5 756,-448.5"/>
<text text-anchor="middle" x="778" y="-455.5" font-family="Helvetica,sans-Serif" font-size="10.00">surf.h</text>
</a>
</g>
</g>
<!-- Node14&#45;&gt;Node16 -->
<g id="edge24" class="edge">
<title>Node14&#45;&gt;Node16</title>
<path fill="none" stroke="midnightblue" d="M806.39,-504.08C801.63,-496.53 794.68,-485.49 788.85,-476.23"/>
<polygon fill="midnightblue" stroke="midnightblue" points="791.8,-474.35 783.51,-467.75 785.88,-478.08 791.8,-474.35"/>
</g>
<!-- Node14&#45;&gt;Node17 -->
<g id="edge50" class="edge">
<title>Node14&#45;&gt;Node17</title>
<path fill="none" stroke="midnightblue" d="M793.1,-504.37C778.48,-496.77 758.8,-484.36 747,-468 737.22,-454.44 732.44,-435.89 730.13,-422.08"/>
<polygon fill="midnightblue" stroke="midnightblue" points="733.54,-421.23 728.71,-411.8 726.61,-422.19 733.54,-421.23"/>
</g>
<!-- Node27 -->
<g id="node27" class="node">
<title>Node27</title>
<g id="a_node27"><a xlink:href="sce_2gs_8h.html" target="_top" xlink:title="Graphics Synthesizer.">
<polygon fill="white" stroke="black" points="818,-448.5 818,-467.5 874,-467.5 874,-448.5 818,-448.5"/>
<text text-anchor="middle" x="846" y="-455.5" font-family="Helvetica,sans-Serif" font-size="10.00">sce/gs.h</text>
</a>
</g>
</g>
<!-- Node14&#45;&gt;Node27 -->
<g id="edge48" class="edge">
<title>Node14&#45;&gt;Node27</title>
<path fill="none" stroke="midnightblue" d="M817.61,-504.08C822.37,-496.53 829.32,-485.49 835.15,-476.23"/>
<polygon fill="midnightblue" stroke="midnightblue" points="838.12,-478.08 840.49,-467.75 832.2,-474.35 838.12,-478.08"/>
</g>
<!-- Node15&#45;&gt;Node2 -->
<g id="edge23" class="edge">
<title>Node15&#45;&gt;Node2</title>
<path fill="none" stroke="midnightblue" d="M957.95,-392.46C955.79,-373.98 951,-328.91 951,-291 951,-291 951,-291 951,-177 951,-144.6 944.36,-130.83 918,-112 874.67,-81.05 719.66,-71.25 642.41,-68.26"/>
<polygon fill="midnightblue" stroke="midnightblue" points="642.17,-64.75 632.05,-67.88 641.91,-71.75 642.17,-64.75"/>
</g>
<!-- Node16&#45;&gt;Node2 -->
<g id="edge25" class="edge">
<title>Node16&#45;&gt;Node2</title>
<path fill="none" stroke="midnightblue" d="M784.95,-448.48C798.69,-430.75 828,-388.12 828,-347 828,-347 828,-347 828,-177 828,-95.7 709.6,-74.44 642.7,-68.91"/>
<polygon fill="midnightblue" stroke="midnightblue" points="642.66,-65.4 632.43,-68.15 642.15,-72.38 642.66,-65.4"/>
</g>
<!-- Node16&#45;&gt;Node15 -->
<g id="edge47" class="edge">
<title>Node16&#45;&gt;Node15</title>
<path fill="none" stroke="midnightblue" d="M800.19,-450.38C830.65,-441.29 885.79,-424.84 922.41,-413.92"/>
<polygon fill="midnightblue" stroke="midnightblue" points="923.63,-417.21 932.21,-410.99 921.62,-410.5 923.63,-417.21"/>
</g>
<!-- Node16&#45;&gt;Node17 -->
<g id="edge26" class="edge">
<title>Node16&#45;&gt;Node17</title>
<path fill="none" stroke="midnightblue" d="M769.74,-448.08C762.54,-440.3 751.89,-428.8 743.15,-419.37"/>
<polygon fill="midnightblue" stroke="midnightblue" points="745.47,-416.71 736.1,-411.75 740.33,-421.47 745.47,-416.71"/>
</g>
<!-- Node18 -->
<g id="node18" class="node">
<title>Node18</title>
<g id="a_node18"><a xlink:href="so_8h.html" target="_top" xlink:title="Scene objects.">
<polygon fill="white" stroke="black" points="709.5,-336.5 709.5,-355.5 746.5,-355.5 746.5,-336.5 709.5,-336.5"/>
<text text-anchor="middle" x="728" y="-343.5" font-family="Helvetica,sans-Serif" font-size="10.00">so.h</text>
</a>
</g>
</g>
<!-- Node17&#45;&gt;Node18 -->
<g id="edge27" class="edge">
<title>Node17&#45;&gt;Node18</title>
<path fill="none" stroke="midnightblue" d="M728,-392.08C728,-385.01 728,-374.86 728,-365.99"/>
<polygon fill="midnightblue" stroke="midnightblue" points="731.5,-365.75 728,-355.75 724.5,-365.75 731.5,-365.75"/>
</g>
<!-- Node19 -->
<g id="node19" class="node">
<title>Node19</title>
<g id="a_node19"><a xlink:href="alo_8h.html" target="_top" xlink:title=" ">
<polygon fill="white" stroke="black" points="707.5,-280.5 707.5,-299.5 748.5,-299.5 748.5,-280.5 707.5,-280.5"/>
<text text-anchor="middle" x="728" y="-287.5" font-family="Helvetica,sans-Serif" font-size="10.00">alo.h</text>
</a>
</g>
</g>
<!-- Node18&#45;&gt;Node19 -->
<g id="edge28" class="edge">
<title>Node18&#45;&gt;Node19</title>
<path fill="none" stroke="midnightblue" d="M728,-336.08C728,-329.01 728,-318.86 728,-309.99"/>
<polygon fill="midnightblue" stroke="midnightblue" points="731.5,-309.75 728,-299.75 724.5,-309.75 731.5,-309.75"/>
</g>
<!-- Node19&#45;&gt;Node2 -->
<g id="edge29" class="edge">
<title>Node19&#45;&gt;Node2</title>
<path fill="none" stroke="midnightblue" d="M732.98,-280.47C748.43,-252.75 792.13,-164.01 751,-112 725.36,-79.58 677.61,-69.67 642.24,-67.04"/>
<polygon fill="midnightblue" stroke="midnightblue" points="642.35,-63.54 632.16,-66.46 641.95,-70.53 642.35,-63.54"/>
</g>
<!-- Node20 -->
<g id="node20" class="node">
<title>Node20</title>
<g id="a_node20"><a xlink:href="lo_8h.html" target="_top" xlink:title="Level objects.">
<polygon fill="white" stroke="black" points="599.5,-224.5 599.5,-243.5 634.5,-243.5 634.5,-224.5 599.5,-224.5"/>
<text text-anchor="middle" x="617" y="-231.5" font-family="Helvetica,sans-Serif" font-size="10.00">lo.h</text>
</a>
</g>
</g>
<!-- Node19&#45;&gt;Node20 -->
<g id="edge30" class="edge">
<title>Node19&#45;&gt;Node20</title>
<path fill="none" stroke="midnightblue" d="M710.17,-280.32C692.28,-271.62 664.52,-258.12 643.95,-248.11"/>
<polygon fill="midnightblue" stroke="midnightblue" points="645.31,-244.88 634.79,-243.65 642.25,-251.18 645.31,-244.88"/>
</g>
<!-- Node23 -->
<g id="node23" class="node">
<title>Node23</title>
<g id="a_node23"><a xlink:href="dl_8h.html" target="_top" xlink:title=" ">
<polygon fill="white" stroke="black" points="710.5,-168.5 710.5,-187.5 745.5,-187.5 745.5,-168.5 710.5,-168.5"/>
<text text-anchor="middle" x="728" y="-175.5" font-family="Helvetica,sans-Serif" font-size="10.00">dl.h</text>
</a>
</g>
</g>
<!-- Node19&#45;&gt;Node23 -->
<g id="edge46" class="edge">
<title>Node19&#45;&gt;Node23</title>
<path fill="none" stroke="midnightblue" d="M728,-280.37C728,-262.62 728,-221.67 728,-197.6"/>
<polygon fill="midnightblue" stroke="midnightblue" points="731.5,-197.59 728,-187.59 724.5,-197.59 731.5,-197.59"/>
</g>
<!-- Node20&#45;&gt;Node2 -->
<g id="edge31" class="edge">
<title>Node20&#45;&gt;Node2</title>
<path fill="none" stroke="midnightblue" d="M599.42,-227.54C565.99,-216.09 493.97,-186.03 465,-132 444.73,-94.2 507.41,-78.06 553.5,-71.41"/>
<polygon fill="midnightblue" stroke="midnightblue" points="554.18,-74.85 563.63,-70.05 553.25,-67.91 554.18,-74.85"/>
</g>
<!-- Node20&#45;&gt;Node12 -->
<g id="edge32" class="edge">
<title>Node20&#45;&gt;Node12</title>
<path fill="none" stroke="midnightblue" d="M619.35,-224.37C624.22,-206.54 635.46,-165.3 642.02,-141.27"/>
<polygon fill="midnightblue" stroke="midnightblue" points="645.4,-142.16 644.66,-131.59 638.65,-140.32 645.4,-142.16"/>
</g>
<!-- Node21 -->
<g id="node21" class="node">
<title>Node21</title>
<g id="a_node21"><a xlink:href="basic_8h.html" target="_top" xlink:title="Basic object.">
<polygon fill="white" stroke="black" points="564.5,-168.5 564.5,-187.5 615.5,-187.5 615.5,-168.5 564.5,-168.5"/>
<text text-anchor="middle" x="590" y="-175.5" font-family="Helvetica,sans-Serif" font-size="10.00">basic.h</text>
</a>
</g>
</g>
<!-- Node20&#45;&gt;Node21 -->
<g id="edge33" class="edge">
<title>Node20&#45;&gt;Node21</title>
<path fill="none" stroke="midnightblue" d="M612.54,-224.08C608.85,-216.69 603.48,-205.95 598.91,-196.81"/>
<polygon fill="midnightblue" stroke="midnightblue" points="601.98,-195.13 594.38,-187.75 595.72,-198.26 601.98,-195.13"/>
</g>
<!-- Node20&#45;&gt;Node23 -->
<g id="edge37" class="edge">
<title>Node20&#45;&gt;Node23</title>
<path fill="none" stroke="midnightblue" d="M634.83,-224.32C652.72,-215.62 680.48,-202.12 701.05,-192.11"/>
<polygon fill="midnightblue" stroke="midnightblue" points="702.75,-195.18 710.21,-187.65 699.69,-188.88 702.75,-195.18"/>
</g>
<!-- Node24 -->
<g id="node24" class="node">
<title>Node24</title>
<g id="a_node24"><a xlink:href="sw_8h.html" target="_top" xlink:title="Scene world?">
<polygon fill="white" stroke="black" points="686,-112.5 686,-131.5 724,-131.5 724,-112.5 686,-112.5"/>
<text text-anchor="middle" x="705" y="-119.5" font-family="Helvetica,sans-Serif" font-size="10.00">sw.h</text>
</a>
</g>
</g>
<!-- Node20&#45;&gt;Node24 -->
<g id="edge40" class="edge">
<title>Node20&#45;&gt;Node24</title>
<path fill="none" stroke="midnightblue" d="M623.91,-224.37C638.49,-206.14 672.66,-163.43 691.66,-139.68"/>
<polygon fill="midnightblue" stroke="midnightblue" points="694.61,-141.59 698.13,-131.59 689.15,-137.21 694.61,-141.59"/>
</g>
<!-- Node25 -->
<g id="node25" class="node">
<title>Node25</title>
<g id="a_node25"><a xlink:href="frame_8h.html" target="_top" xlink:title=" ">
<polygon fill="white" stroke="black" points="294,-112.5 294,-131.5 380,-131.5 380,-112.5 294,-112.5"/>
<text text-anchor="middle" x="337" y="-119.5" font-family="Helvetica,sans-Serif" font-size="10.00">splice/frame.h</text>
</a>
</g>
</g>
<!-- Node20&#45;&gt;Node25 -->
<g id="edge42" class="edge">
<title>Node20&#45;&gt;Node25</title>
<path fill="none" stroke="midnightblue" d="M599.23,-231.91C548.39,-228.46 403.63,-216.33 367,-188 352.43,-176.73 344.67,-156.72 340.73,-141.87"/>
<polygon fill="midnightblue" stroke="midnightblue" points="344.05,-140.71 338.4,-131.75 337.23,-142.28 344.05,-140.71"/>
</g>
<!-- Node26 -->
<g id="node26" class="node">
<title>Node26</title>
<g id="a_node26"><a xlink:href="mq_8h.html" target="_top" xlink:title="Message queue(?).">
<polygon fill="white" stroke="black" points="376.5,-168.5 376.5,-187.5 417.5,-187.5 417.5,-168.5 376.5,-168.5"/>
<text text-anchor="middle" x="397" y="-175.5" font-family="Helvetica,sans-Serif" font-size="10.00">mq.h</text>
</a>
</g>
</g>
<!-- Node20&#45;&gt;Node26 -->
<g id="edge44" class="edge">
<title>Node20&#45;&gt;Node26</title>
<path fill="none" stroke="midnightblue" d="M599.38,-228.8C566.46,-220.92 493.41,-203.36 432,-188 430.55,-187.64 429.08,-187.27 427.58,-186.89"/>
<polygon fill="midnightblue" stroke="midnightblue" points="428.27,-183.45 417.72,-184.37 426.54,-190.24 428.27,-183.45"/>
</g>
<!-- Node21&#45;&gt;Node2 -->
<g id="edge34" class="edge">
<title>Node21&#45;&gt;Node2</title>
<path fill="none" stroke="midnightblue" d="M590.63,-168.37C591.92,-150.62 594.9,-109.67 596.65,-85.6"/>
<polygon fill="midnightblue" stroke="midnightblue" points="600.14,-85.82 597.38,-75.59 593.16,-85.31 600.14,-85.82"/>
</g>
<!-- Node22 -->
<g id="node22" class="node">
<title>Node22</title>
<g id="a_node22"><a xlink:href="sidebag_8h.html" target="_top" xlink:title="Sidebag for splice.">
<polygon fill="white" stroke="black" points="474.5,-112.5 474.5,-131.5 569.5,-131.5 569.5,-112.5 474.5,-112.5"/>
<text text-anchor="middle" x="522" y="-119.5" font-family="Helvetica,sans-Serif" font-size="10.00">splice/sidebag.h</text>
</a>
</g>
</g>
<!-- Node21&#45;&gt;Node22 -->
<g id="edge35" class="edge">
<title>Node21&#45;&gt;Node22</title>
<path fill="none" stroke="midnightblue" d="M579.07,-168.32C568.83,-160.18 553.28,-147.84 541,-138.09"/>
<polygon fill="midnightblue" stroke="midnightblue" points="543.13,-135.31 533.12,-131.83 538.78,-140.79 543.13,-135.31"/>
</g>
<!-- Node22&#45;&gt;Node2 -->
<g id="edge36" class="edge">
<title>Node22&#45;&gt;Node2</title>
<path fill="none" stroke="midnightblue" d="M534.21,-112.32C545.78,-104.11 563.38,-91.6 577.16,-81.81"/>
<polygon fill="midnightblue" stroke="midnightblue" points="579.44,-84.48 585.57,-75.83 575.39,-78.77 579.44,-84.48"/>
</g>
<!-- Node23&#45;&gt;Node2 -->
<g id="edge38" class="edge">
<title>Node23&#45;&gt;Node2</title>
<path fill="none" stroke="midnightblue" d="M731.85,-168.48C737.27,-155.08 745.18,-128.89 733,-112 712.49,-83.55 673.22,-72.81 642.3,-68.9"/>
<polygon fill="midnightblue" stroke="midnightblue" points="642.49,-65.4 632.17,-67.81 641.74,-72.36 642.49,-65.4"/>
</g>
<!-- Node23&#45;&gt;Node12 -->
<g id="edge39" class="edge">
<title>Node23&#45;&gt;Node12</title>
<path fill="none" stroke="midnightblue" d="M714.99,-168.32C702.47,-159.98 683.32,-147.21 668.53,-137.35"/>
<polygon fill="midnightblue" stroke="midnightblue" points="670.24,-134.29 659.98,-131.65 666.36,-140.11 670.24,-134.29"/>
</g>
<!-- Node24&#45;&gt;Node2 -->
<g id="edge41" class="edge">
<title>Node24&#45;&gt;Node2</title>
<path fill="none" stroke="midnightblue" d="M687.81,-112.32C670.65,-103.66 644.05,-90.24 624.25,-80.25"/>
<polygon fill="midnightblue" stroke="midnightblue" points="625.65,-77.04 615.15,-75.65 622.5,-83.28 625.65,-77.04"/>
</g>
<!-- Node25&#45;&gt;Node2 -->
<g id="edge43" class="edge">
<title>Node25&#45;&gt;Node2</title>
<path fill="none" stroke="midnightblue" d="M378.36,-112.44C426.26,-102.53 504.87,-86.27 553.91,-76.12"/>
<polygon fill="midnightblue" stroke="midnightblue" points="554.82,-79.51 563.91,-74.05 553.41,-72.65 554.82,-79.51"/>
</g>
<!-- Node26&#45;&gt;Node2 -->
<g id="edge45" class="edge">
<title>Node26&#45;&gt;Node2</title>
<path fill="none" stroke="midnightblue" d="M399.23,-168.4C403.31,-154.42 413.33,-126.82 432,-112 466.91,-84.3 517.55,-73.6 553.7,-69.5"/>
<polygon fill="midnightblue" stroke="midnightblue" points="554.36,-72.95 563.95,-68.46 553.65,-65.98 554.36,-72.95"/>
</g>
<!-- Node27&#45;&gt;Node2 -->
<g id="edge49" class="edge">
<title>Node27&#45;&gt;Node2</title>
<path fill="none" stroke="midnightblue" d="M848.7,-448.26C854.16,-429.77 866,-385.24 866,-347 866,-347 866,-347 866,-177 866,-81.53 718.65,-67.16 642.47,-66.11"/>
<polygon fill="midnightblue" stroke="midnightblue" points="642.24,-62.61 632.21,-66.05 642.19,-69.61 642.24,-62.61"/>
</g>
<!-- Node28&#45;&gt;Node2 -->
<g id="edge52" class="edge">
<title>Node28&#45;&gt;Node2</title>
<path fill="none" stroke="midnightblue" d="M45.44,-280.31C40.78,-251.31 30.21,-157.15 80,-112 114.73,-80.51 434.17,-70.49 553.4,-67.84"/>
<polygon fill="midnightblue" stroke="midnightblue" points="553.71,-71.33 563.64,-67.62 553.56,-64.33 553.71,-71.33"/>
</g>
<!-- Node29&#45;&gt;Node2 -->
<g id="edge54" class="edge">
<title>Node29&#45;&gt;Node2</title>
<path fill="none" stroke="midnightblue" d="M1044.44,-560.47C1047.42,-542.02 1054,-497 1054,-459 1054,-459 1054,-459 1054,-177 1054,-133.23 1019.99,-129.81 980,-112 920.43,-85.47 729.41,-73.23 642.18,-68.91"/>
<polygon fill="midnightblue" stroke="midnightblue" points="642.23,-65.41 632.08,-68.43 641.9,-72.41 642.23,-65.41"/>
</g>
<!-- Node31&#45;&gt;Node2 -->
<g id="edge59" class="edge">
<title>Node31&#45;&gt;Node2</title>
<path fill="none" stroke="midnightblue" d="M1108.82,-336.46C1106.38,-317.99 1101,-272.94 1101,-235 1101,-235 1101,-235 1101,-177 1101,-144.6 1094.77,-130.25 1068,-112 1033.26,-88.33 752.42,-73.7 642.18,-68.82"/>
<polygon fill="midnightblue" stroke="midnightblue" points="642.2,-65.32 632.06,-68.38 641.9,-72.31 642.2,-65.32"/>
</g>
</g>
</svg>
        <g id="navigator" transform="translate(0 0)" fill="#404254">
                <rect fill="#f2f5e9" fill-opacity="0.5" stroke="#606060" stroke-width=".5" x="0" y="0" width="60" height="60"/>
                <use id="zoomplus" xlink:href="#zoomPlus" x="17" y="9" onmousedown="handleZoom(evt,'in')"/>
                <use id="zoomminus" xlink:href="#zoomMin" x="42" y="9" onmousedown="handleZoom(evt,'out')"/>
                <use id="reset" xlink:href="#resetDef" x="30" y="36" onmousedown="handleReset()"/>
                <g id="arrowUp" xlink:href="#dirArrow" transform="translate(30 24)" onmousedown="handlePan(0,-1)">
                  <use xlink:href="#rim" fill="#404040">
                        <set attributeName="fill" to="#808080" begin="arrowUp.mouseover" end="arrowUp.mouseout"/>
                  </use>
                  <path fill="none" stroke="white" stroke-width="1.5" d="M0,-3.0v7 M-2.5,-0.5L0,-3.0L2.5,-0.5"/>
                </g>
                <g id="arrowRight" xlink:href="#dirArrow" transform="rotate(90) translate(36 -43)" onmousedown="handlePan(1,0)">
                  <use xlink:href="#rim" fill="#404040">
                        <set attributeName="fill" to="#808080" begin="arrowRight.mouseover" end="arrowRight.mouseout"/>
                  </use>
                  <path fill="none" stroke="white" stroke-width="1.5" d="M0,-3.0v7 M-2.5,-0.5L0,-3.0L2.5,-0.5"/>
                </g>
                <g id="arrowDown" xlink:href="#dirArrow" transform="rotate(180) translate(-30 -48)" onmousedown="handlePan(0,1)">
                  <use xlink:href="#rim" fill="#404040">
                        <set attributeName="fill" to="#808080" begin="arrowDown.mouseover" end="arrowDown.mouseout"/>
                  </use>
                  <path fill="none" stroke="white" stroke-width="1.5" d="M0,-3.0v7 M-2.5,-0.5L0,-3.0L2.5,-0.5"/>
                </g>
                <g id="arrowLeft" xlink:href="#dirArrow" transform="rotate(270) translate(-36 17)" onmousedown="handlePan(-1,0)">
                  <use xlink:href="#rim" fill="#404040">
                        <set attributeName="fill" to="#808080" begin="arrowLeft.mouseover" end="arrowLeft.mouseout"/>
                  </use>
                  <path fill="none" stroke="white" stroke-width="1.5" d="M0,-3.0v7 M-2.5,-0.5L0,-3.0L2.5,-0.5"/>
                </g>
        </g>
        <svg viewBox="0 0 15 15" width="100%" height="30px" preserveAspectRatio="xMaxYMin meet">
         <g id="arrow_out" transform="scale(0.3 0.3)">
          <a xlink:href="bis_8h__incl_org.svg" target="_base">
           <rect id="button" ry="5" rx="5" y="6" x="6" height="38" width="38"
                fill="#f2f5e9" fill-opacity="0.5" stroke="#606060" stroke-width="1.0"/>
           <path id="arrow"
             d="M 11.500037,31.436501 C 11.940474,20.09759 22.043105,11.32322 32.158766,21.979434 L 37.068811,17.246167 C 37.068811,17.246167 37.088388,32 37.088388,32 L 22.160133,31.978069 C 22.160133,31.978069 26.997745,27.140456 26.997745,27.140456 C 18.528582,18.264221 13.291696,25.230495 11.500037,31.436501 z"
             style="fill:#404040;"/>
          </a>
         </g>
        </svg>
</svg>
