<?xml version="1.0" encoding="UTF-8" standalone="no"?>
<!DOCTYPE svg PUBLIC "-//W3C//DTD SVG 1.1//EN"
 "http://www.w3.org/Graphics/SVG/1.1/DTD/svg11.dtd">
<!-- Generated by graphviz version 2.43.0 (0)
 -->
<!-- Title: src/P2/bis.c Pages: 1 -->
<svg width="1144pt" height="812pt"
 viewBox="0.00 0.00 1143.54 812.00" xmlns="http://www.w3.org/2000/svg" xmlns:xlink="http://www.w3.org/1999/xlink">
<g id="graph0" class="graph" transform="scale(1 1) rotate(0) translate(4 808)">
<title>src/P2/bis.c</title>
<polygon fill="white" stroke="transparent" points="-4,4 -4,-808 1139.54,-808 1139.54,4 -4,4"/>
<!-- Node1 -->
<g id="node1" class="node">
<title>Node1</title>
<g id="a_node1"><a xlink:title=" ">
<polygon fill="#bfbfbf" stroke="black" points="402,-784.5 402,-803.5 473,-803.5 473,-784.5 402,-784.5"/>
<text text-anchor="middle" x="437.5" y="-791.5" font-family="Helvetica,sans-Serif" font-size="10.00">src/P2/bis.c</text>
</a>
</g>
</g>
<!-- Node2 -->
<g id="node2" class="node">
<title>Node2</title>
<g id="a_node2"><a xlink:href="bis_8h.html" target="_top" xlink:title="Binary Input Stream.">
<polygon fill="white" stroke="black" points="183.5,-728.5 183.5,-747.5 223.5,-747.5 223.5,-728.5 183.5,-728.5"/>
<text text-anchor="middle" x="203.5" y="-735.5" font-family="Helvetica,sans-Serif" font-size="10.00">bis.h</text>
</a>
</g>
</g>
<!-- Node1&#45;&gt;Node2 -->
<g id="edge1" class="edge">
<title>Node1&#45;&gt;Node2</title>
<path fill="none" stroke="midnightblue" d="M401.96,-784.8C356.01,-774.2 276.79,-755.91 233.65,-745.96"/>
<polygon fill="midnightblue" stroke="midnightblue" points="234.28,-742.51 223.75,-743.67 232.7,-749.33 234.28,-742.51"/>
</g>
<!-- Node33 -->
<g id="node33" class="node">
<title>Node33</title>
<g id="a_node33"><a xlink:href="989snd_8h.html" target="_top" xlink:title="989snd sound driver.">
<polygon fill="white" stroke="black" points="999,-560.5 999,-579.5 1060,-579.5 1060,-560.5 999,-560.5"/>
<text text-anchor="middle" x="1029.5" y="-567.5" font-family="Helvetica,sans-Serif" font-size="10.00">989snd.h</text>
</a>
</g>
</g>
<!-- Node1&#45;&gt;Node33 -->
<g id="edge61" class="edge">
<title>Node1&#45;&gt;Node33</title>
<path fill="none" stroke="midnightblue" d="M460.34,-784.43C551.64,-750.2 890.49,-623.13 997.14,-583.13"/>
<polygon fill="midnightblue" stroke="midnightblue" points="998.59,-586.33 1006.72,-579.54 996.13,-579.78 998.59,-586.33"/>
</g>
<!-- Node3 -->
<g id="node3" class="node">
<title>Node3</title>
<g id="a_node3"><a xlink:href="common_8h.html" target="_top" xlink:title="Common header file.">
<polygon fill="white" stroke="black" points="482.5,-56.5 482.5,-75.5 550.5,-75.5 550.5,-56.5 482.5,-56.5"/>
<text text-anchor="middle" x="516.5" y="-63.5" font-family="Helvetica,sans-Serif" font-size="10.00">common.h</text>
</a>
</g>
</g>
<!-- Node2&#45;&gt;Node3 -->
<g id="edge2" class="edge">
<title>Node2&#45;&gt;Node3</title>
<path fill="none" stroke="midnightblue" d="M185.19,-728.46C170.76,-720.83 151.2,-708.35 139.5,-692 121.98,-667.52 120.5,-657.1 120.5,-627 120.5,-627 120.5,-627 120.5,-345 120.5,-238.18 95.67,-178.21 179.5,-112 223.94,-76.9 391.1,-69.14 472.04,-67.45"/>
<polygon fill="midnightblue" stroke="midnightblue" points="472.46,-70.94 482.4,-67.26 472.33,-63.94 472.46,-70.94"/>
</g>
<!-- Node8 -->
<g id="node8" class="node">
<title>Node8</title>
<g id="a_node8"><a xlink:href="prog_8h.html" target="_top" xlink:title=" ">
<polygon fill="white" stroke="black" points="212,-672.5 212,-691.5 259,-691.5 259,-672.5 212,-672.5"/>
<text text-anchor="middle" x="235.5" y="-679.5" font-family="Helvetica,sans-Serif" font-size="10.00">prog.h</text>
</a>
</g>
</g>
<!-- Node2&#45;&gt;Node8 -->
<g id="edge7" class="edge">
<title>Node2&#45;&gt;Node8</title>
<path fill="none" stroke="midnightblue" d="M208.78,-728.08C213.21,-720.61 219.66,-709.72 225.12,-700.52"/>
<polygon fill="midnightblue" stroke="midnightblue" points="228.23,-702.14 230.31,-691.75 222.21,-698.57 228.23,-702.14"/>
</g>
<!-- Node16 -->
<g id="node16" class="node">
<title>Node16</title>
<g id="a_node16"><a xlink:href="geom_8h.html" target="_top" xlink:title="Geometry.">
<polygon fill="white" stroke="black" points="488,-392.5 488,-411.5 541,-411.5 541,-392.5 488,-392.5"/>
<text text-anchor="middle" x="514.5" y="-399.5" font-family="Helvetica,sans-Serif" font-size="10.00">geom.h</text>
</a>
</g>
</g>
<!-- Node2&#45;&gt;Node16 -->
<g id="edge58" class="edge">
<title>Node2&#45;&gt;Node16</title>
<path fill="none" stroke="midnightblue" d="M223.63,-734.89C296.4,-726.74 541.5,-694.26 541.5,-627 541.5,-627 541.5,-627 541.5,-569 541.5,-514.89 527.35,-452.13 519.54,-421.6"/>
<polygon fill="midnightblue" stroke="midnightblue" points="522.83,-420.34 516.9,-411.56 516.06,-422.12 522.83,-420.34"/>
</g>
<!-- Node18 -->
<g id="node18" class="node">
<title>Node18</title>
<g id="a_node18"><a xlink:href="vec_8h.html" target="_top" xlink:title="Vector math.">
<polygon fill="white" stroke="black" points="606,-392.5 606,-411.5 649,-411.5 649,-392.5 606,-392.5"/>
<text text-anchor="middle" x="627.5" y="-399.5" font-family="Helvetica,sans-Serif" font-size="10.00">vec.h</text>
</a>
</g>
</g>
<!-- Node2&#45;&gt;Node18 -->
<g id="edge56" class="edge">
<title>Node2&#45;&gt;Node18</title>
<path fill="none" stroke="midnightblue" d="M223.7,-736.67C313.66,-734.68 673.5,-720.86 673.5,-627 673.5,-627 673.5,-627 673.5,-513 673.5,-477.82 653.22,-440.86 639.59,-420"/>
<polygon fill="midnightblue" stroke="midnightblue" points="642.41,-417.92 633.9,-411.61 636.62,-421.85 642.41,-417.92"/>
</g>
<!-- Node30 -->
<g id="node30" class="node">
<title>Node30</title>
<g id="a_node30"><a xlink:href="clock_8h.html" target="_top" xlink:title="Engine clock.">
<polygon fill="white" stroke="black" points="0,-336.5 0,-355.5 51,-355.5 51,-336.5 0,-336.5"/>
<text text-anchor="middle" x="25.5" y="-343.5" font-family="Helvetica,sans-Serif" font-size="10.00">clock.h</text>
</a>
</g>
</g>
<!-- Node2&#45;&gt;Node30 -->
<g id="edge54" class="edge">
<title>Node2&#45;&gt;Node30</title>
<path fill="none" stroke="midnightblue" d="M183.15,-735.11C154.3,-731.46 101.25,-721.03 67.5,-692 42.94,-670.87 34.5,-659.4 34.5,-627 34.5,-627 34.5,-627 34.5,-457 34.5,-424.84 30.63,-387.57 27.97,-365.71"/>
<polygon fill="midnightblue" stroke="midnightblue" points="31.41,-365.02 26.68,-355.54 24.46,-365.9 31.41,-365.02"/>
</g>
<!-- Node31 -->
<g id="node31" class="node">
<title>Node31</title>
<g id="a_node31"><a xlink:href="mat_8h.html" target="_top" xlink:title="3x3 and 4x4 matrix types.">
<polygon fill="white" stroke="black" points="149,-672.5 149,-691.5 194,-691.5 194,-672.5 149,-672.5"/>
<text text-anchor="middle" x="171.5" y="-679.5" font-family="Helvetica,sans-Serif" font-size="10.00">mat.h</text>
</a>
</g>
</g>
<!-- Node2&#45;&gt;Node31 -->
<g id="edge57" class="edge">
<title>Node2&#45;&gt;Node31</title>
<path fill="none" stroke="midnightblue" d="M198.22,-728.08C193.79,-720.61 187.34,-709.72 181.88,-700.52"/>
<polygon fill="midnightblue" stroke="midnightblue" points="184.79,-698.57 176.69,-691.75 178.77,-702.14 184.79,-698.57"/>
</g>
<!-- Node32 -->
<g id="node32" class="node">
<title>Node32</title>
<g id="a_node32"><a xlink:href="cat_8h.html" target="_top" xlink:title="Catalog.">
<polygon fill="white" stroke="black" points="51,-280.5 51,-299.5 92,-299.5 92,-280.5 51,-280.5"/>
<text text-anchor="middle" x="71.5" y="-287.5" font-family="Helvetica,sans-Serif" font-size="10.00">cat.h</text>
</a>
</g>
</g>
<!-- Node2&#45;&gt;Node32 -->
<g id="edge59" class="edge">
<title>Node2&#45;&gt;Node32</title>
<path fill="none" stroke="midnightblue" d="M183.37,-732.47C161.67,-726.6 127.42,-714.37 106.5,-692 85.36,-669.39 81.5,-657.95 81.5,-627 81.5,-627 81.5,-627 81.5,-401 81.5,-368.82 77.2,-331.55 74.24,-309.7"/>
<polygon fill="midnightblue" stroke="midnightblue" points="77.67,-308.95 72.81,-299.53 70.74,-309.92 77.67,-308.95"/>
</g>
<!-- Node4 -->
<g id="node4" class="node">
<title>Node4</title>
<g id="a_node4"><a xlink:href="include__asm_8h.html" target="_top" xlink:title=" ">
<polygon fill="white" stroke="black" points="315,-0.5 315,-19.5 402,-19.5 402,-0.5 315,-0.5"/>
<text text-anchor="middle" x="358.5" y="-7.5" font-family="Helvetica,sans-Serif" font-size="10.00">include_asm.h</text>
</a>
</g>
</g>
<!-- Node3&#45;&gt;Node4 -->
<g id="edge3" class="edge">
<title>Node3&#45;&gt;Node4</title>
<path fill="none" stroke="midnightblue" d="M491.46,-56.44C464.88,-47.36 422.69,-32.94 392.98,-22.78"/>
<polygon fill="midnightblue" stroke="midnightblue" points="394.01,-19.44 383.42,-19.52 391.75,-26.06 394.01,-19.44"/>
</g>
<!-- Node5 -->
<g id="node5" class="node">
<title>Node5</title>
<g id="a_node5"><a xlink:href="include__rodata_8h.html" target="_top" xlink:title=" ">
<polygon fill="white" stroke="black" points="420.5,-0.5 420.5,-19.5 518.5,-19.5 518.5,-0.5 420.5,-0.5"/>
<text text-anchor="middle" x="469.5" y="-7.5" font-family="Helvetica,sans-Serif" font-size="10.00">include_rodata.h</text>
</a>
</g>
</g>
<!-- Node3&#45;&gt;Node5 -->
<g id="edge4" class="edge">
<title>Node3&#45;&gt;Node5</title>
<path fill="none" stroke="midnightblue" d="M508.74,-56.08C501.96,-48.3 491.96,-36.8 483.74,-27.37"/>
<polygon fill="midnightblue" stroke="midnightblue" points="486.32,-25 477.12,-19.75 481.04,-29.59 486.32,-25"/>
</g>
<!-- Node6 -->
<g id="node6" class="node">
<title>Node6</title>
<g id="a_node6"><a xlink:href="types_8h.html" target="_top" xlink:title="Common types used across the codebase.">
<polygon fill="white" stroke="black" points="537,-0.5 537,-19.5 590,-19.5 590,-0.5 537,-0.5"/>
<text text-anchor="middle" x="563.5" y="-7.5" font-family="Helvetica,sans-Serif" font-size="10.00">types.h</text>
</a>
</g>
</g>
<!-- Node3&#45;&gt;Node6 -->
<g id="edge5" class="edge">
<title>Node3&#45;&gt;Node6</title>
<path fill="none" stroke="midnightblue" d="M524.26,-56.08C531.04,-48.3 541.04,-36.8 549.26,-27.37"/>
<polygon fill="midnightblue" stroke="midnightblue" points="551.96,-29.59 555.88,-19.75 546.68,-25 551.96,-29.59"/>
</g>
<!-- Node7 -->
<g id="node7" class="node">
<title>Node7</title>
<g id="a_node7"><a xlink:href="vtables_8h.html" target="_top" xlink:title="Manually crafted vtables for various structs.">
<polygon fill="white" stroke="black" points="608.5,-0.5 608.5,-19.5 670.5,-19.5 670.5,-0.5 608.5,-0.5"/>
<text text-anchor="middle" x="639.5" y="-7.5" font-family="Helvetica,sans-Serif" font-size="10.00">vtables.h</text>
</a>
</g>
</g>
<!-- Node3&#45;&gt;Node7 -->
<g id="edge6" class="edge">
<title>Node3&#45;&gt;Node7</title>
<path fill="none" stroke="midnightblue" d="M535.99,-56.44C556.14,-47.6 587.82,-33.69 610.83,-23.59"/>
<polygon fill="midnightblue" stroke="midnightblue" points="612.35,-26.74 620.1,-19.52 609.54,-20.33 612.35,-26.74"/>
</g>
<!-- Node8&#45;&gt;Node3 -->
<g id="edge8" class="edge">
<title>Node8&#45;&gt;Node3</title>
<path fill="none" stroke="midnightblue" d="M232.26,-672.3C225.71,-653.89 211.5,-609.51 211.5,-571 211.5,-571 211.5,-571 211.5,-177 211.5,-140.82 229.65,-130.89 260.5,-112 295.31,-90.68 408.79,-77.02 472.35,-70.84"/>
<polygon fill="midnightblue" stroke="midnightblue" points="472.85,-74.31 482.48,-69.88 472.19,-67.34 472.85,-74.31"/>
</g>
<!-- Node9 -->
<g id="node9" class="node">
<title>Node9</title>
<g id="a_node9"><a xlink:href="binoc_8h.html" target="_top" xlink:title="Binoc&#45;u&#45;com.">
<polygon fill="white" stroke="black" points="300.5,-616.5 300.5,-635.5 352.5,-635.5 352.5,-616.5 300.5,-616.5"/>
<text text-anchor="middle" x="326.5" y="-623.5" font-family="Helvetica,sans-Serif" font-size="10.00">binoc.h</text>
</a>
</g>
</g>
<!-- Node8&#45;&gt;Node9 -->
<g id="edge9" class="edge">
<title>Node8&#45;&gt;Node9</title>
<path fill="none" stroke="midnightblue" d="M250.12,-672.32C264.45,-663.82 286.51,-650.73 303.25,-640.8"/>
<polygon fill="midnightblue" stroke="midnightblue" points="305.1,-643.77 311.92,-635.65 301.53,-637.75 305.1,-643.77"/>
</g>
<!-- Node29 -->
<g id="node29" class="node">
<title>Node29</title>
<g id="a_node29"><a xlink:href="gs_8h.html" target="_top" xlink:title="Graphics synthesizer.">
<polygon fill="white" stroke="black" points="146,-224.5 146,-243.5 183,-243.5 183,-224.5 146,-224.5"/>
<text text-anchor="middle" x="164.5" y="-231.5" font-family="Helvetica,sans-Serif" font-size="10.00">gs.h</text>
</a>
</g>
</g>
<!-- Node8&#45;&gt;Node29 -->
<g id="edge52" class="edge">
<title>Node8&#45;&gt;Node29</title>
<path fill="none" stroke="midnightblue" d="M225.76,-672.37C207.4,-655.1 169.5,-614.21 169.5,-571 169.5,-571 169.5,-571 169.5,-345 169.5,-312.91 167.35,-275.62 165.87,-253.74"/>
<polygon fill="midnightblue" stroke="midnightblue" points="169.35,-253.28 165.15,-243.55 162.36,-253.77 169.35,-253.28"/>
</g>
<!-- Node9&#45;&gt;Node3 -->
<g id="edge10" class="edge">
<title>Node9&#45;&gt;Node3</title>
<path fill="none" stroke="midnightblue" d="M352.66,-618.18C466.94,-586.79 923.48,-444.14 1078.5,-132 1082.45,-124.04 1084.53,-118.53 1078.5,-112 1043.63,-74.22 687.48,-68.14 560.87,-67.18"/>
<polygon fill="midnightblue" stroke="midnightblue" points="560.77,-63.68 550.75,-67.11 560.72,-70.68 560.77,-63.68"/>
</g>
<!-- Node10 -->
<g id="node10" class="node">
<title>Node10</title>
<g id="a_node10"><a xlink:href="screen_8h.html" target="_top" xlink:title="GUI elements.">
<polygon fill="white" stroke="black" points="297.5,-560.5 297.5,-579.5 355.5,-579.5 355.5,-560.5 297.5,-560.5"/>
<text text-anchor="middle" x="326.5" y="-567.5" font-family="Helvetica,sans-Serif" font-size="10.00">screen.h</text>
</a>
</g>
</g>
<!-- Node9&#45;&gt;Node10 -->
<g id="edge11" class="edge">
<title>Node9&#45;&gt;Node10</title>
<path fill="none" stroke="midnightblue" d="M326.5,-616.08C326.5,-609.01 326.5,-598.86 326.5,-589.99"/>
<polygon fill="midnightblue" stroke="midnightblue" points="330,-589.75 326.5,-579.75 323,-589.75 330,-589.75"/>
</g>
<!-- Node10&#45;&gt;Node3 -->
<g id="edge12" class="edge">
<title>Node10&#45;&gt;Node3</title>
<path fill="none" stroke="midnightblue" d="M310.44,-560.37C297.32,-552.54 279.26,-539.8 268.5,-524 251.56,-499.12 249.5,-489.1 249.5,-459 249.5,-459 249.5,-459 249.5,-177 249.5,-81.83 396.3,-67.32 472.2,-66.17"/>
<polygon fill="midnightblue" stroke="midnightblue" points="472.44,-69.67 482.41,-66.09 472.39,-62.67 472.44,-69.67"/>
</g>
<!-- Node11 -->
<g id="node11" class="node">
<title>Node11</title>
<g id="a_node11"><a xlink:href="font_8h.html" target="_top" xlink:title="Font system.">
<polygon fill="white" stroke="black" points="278,-504.5 278,-523.5 323,-523.5 323,-504.5 278,-504.5"/>
<text text-anchor="middle" x="300.5" y="-511.5" font-family="Helvetica,sans-Serif" font-size="10.00">font.h</text>
</a>
</g>
</g>
<!-- Node10&#45;&gt;Node11 -->
<g id="edge13" class="edge">
<title>Node10&#45;&gt;Node11</title>
<path fill="none" stroke="midnightblue" d="M322.21,-560.08C318.65,-552.69 313.48,-541.95 309.08,-532.81"/>
<polygon fill="midnightblue" stroke="midnightblue" points="312.21,-531.24 304.71,-523.75 305.9,-534.28 312.21,-531.24"/>
</g>
<!-- Node12 -->
<g id="node12" class="node">
<title>Node12</title>
<g id="a_node12"><a xlink:href="game_8h.html" target="_top" xlink:title="Game state and level management.">
<polygon fill="white" stroke="black" points="331,-168.5 331,-187.5 384,-187.5 384,-168.5 331,-168.5"/>
<text text-anchor="middle" x="357.5" y="-175.5" font-family="Helvetica,sans-Serif" font-size="10.00">game.h</text>
</a>
</g>
</g>
<!-- Node10&#45;&gt;Node12 -->
<g id="edge15" class="edge">
<title>Node10&#45;&gt;Node12</title>
<path fill="none" stroke="midnightblue" d="M328.36,-560.41C333.5,-535.94 347.5,-463.71 347.5,-403 347.5,-403 347.5,-403 347.5,-289 347.5,-256.82 351.8,-219.55 354.76,-197.7"/>
<polygon fill="midnightblue" stroke="midnightblue" points="358.26,-197.92 356.19,-187.53 351.33,-196.95 358.26,-197.92"/>
</g>
<!-- Node15 -->
<g id="node15" class="node">
<title>Node15</title>
<g id="a_node15"><a xlink:href="shd_8h.html" target="_top" xlink:title="Shaders.">
<polygon fill="white" stroke="black" points="432,-504.5 432,-523.5 475,-523.5 475,-504.5 432,-504.5"/>
<text text-anchor="middle" x="453.5" y="-511.5" font-family="Helvetica,sans-Serif" font-size="10.00">shd.h</text>
</a>
</g>
</g>
<!-- Node10&#45;&gt;Node15 -->
<g id="edge21" class="edge">
<title>Node10&#45;&gt;Node15</title>
<path fill="none" stroke="midnightblue" d="M346.62,-560.44C367.52,-551.56 400.43,-537.56 424.22,-527.45"/>
<polygon fill="midnightblue" stroke="midnightblue" points="425.64,-530.65 433.47,-523.52 422.9,-524.21 425.64,-530.65"/>
</g>
<!-- Node11&#45;&gt;Node3 -->
<g id="edge14" class="edge">
<title>Node11&#45;&gt;Node3</title>
<path fill="none" stroke="midnightblue" d="M298.8,-504.48C295.28,-486.06 287.5,-441.08 287.5,-403 287.5,-403 287.5,-403 287.5,-177 287.5,-146.9 284.45,-132.49 306.5,-112 330.17,-90 418.06,-77.16 472.35,-71.17"/>
<polygon fill="midnightblue" stroke="midnightblue" points="472.83,-74.63 482.4,-70.09 472.09,-67.67 472.83,-74.63"/>
</g>
<!-- Node12&#45;&gt;Node3 -->
<g id="edge16" class="edge">
<title>Node12&#45;&gt;Node3</title>
<path fill="none" stroke="midnightblue" d="M362.2,-168.25C369.97,-154.54 386.7,-127.92 407.5,-112 427.15,-96.96 452.54,-86.09 473.87,-78.81"/>
<polygon fill="midnightblue" stroke="midnightblue" points="475.24,-82.04 483.66,-75.61 473.07,-75.39 475.24,-82.04"/>
</g>
<!-- Node13 -->
<g id="node13" class="node">
<title>Node13</title>
<g id="a_node13"><a xlink:href="oid_8h.html" target="_top" xlink:title="Object IDs.">
<polygon fill="white" stroke="black" points="602,-112.5 602,-131.5 643,-131.5 643,-112.5 602,-112.5"/>
<text text-anchor="middle" x="622.5" y="-119.5" font-family="Helvetica,sans-Serif" font-size="10.00">oid.h</text>
</a>
</g>
</g>
<!-- Node12&#45;&gt;Node13 -->
<g id="edge17" class="edge">
<title>Node12&#45;&gt;Node13</title>
<path fill="none" stroke="midnightblue" d="M384.37,-171.53C433.98,-161.42 539.65,-139.88 591.92,-129.23"/>
<polygon fill="midnightblue" stroke="midnightblue" points="592.83,-132.62 601.93,-127.19 591.43,-125.76 592.83,-132.62"/>
</g>
<!-- Node14 -->
<g id="node14" class="node">
<title>Node14</title>
<g id="a_node14"><a xlink:href="cid_8h.html" target="_top" xlink:title="Class IDs.">
<polygon fill="white" stroke="black" points="315.5,-112.5 315.5,-131.5 355.5,-131.5 355.5,-112.5 315.5,-112.5"/>
<text text-anchor="middle" x="335.5" y="-119.5" font-family="Helvetica,sans-Serif" font-size="10.00">cid.h</text>
</a>
</g>
</g>
<!-- Node12&#45;&gt;Node14 -->
<g id="edge19" class="edge">
<title>Node12&#45;&gt;Node14</title>
<path fill="none" stroke="midnightblue" d="M353.87,-168.08C350.89,-160.77 346.57,-150.18 342.88,-141.1"/>
<polygon fill="midnightblue" stroke="midnightblue" points="346.08,-139.69 339.07,-131.75 339.6,-142.33 346.08,-139.69"/>
</g>
<!-- Node13&#45;&gt;Node3 -->
<g id="edge18" class="edge">
<title>Node13&#45;&gt;Node3</title>
<path fill="none" stroke="midnightblue" d="M605.47,-112.32C588.47,-103.66 562.12,-90.24 542.51,-80.25"/>
<polygon fill="midnightblue" stroke="midnightblue" points="543.99,-77.08 533.49,-75.65 540.81,-83.31 543.99,-77.08"/>
</g>
<!-- Node14&#45;&gt;Node3 -->
<g id="edge20" class="edge">
<title>Node14&#45;&gt;Node3</title>
<path fill="none" stroke="midnightblue" d="M355.56,-115.01C385.05,-106.22 440.65,-89.63 478.13,-78.45"/>
<polygon fill="midnightblue" stroke="midnightblue" points="479.14,-81.8 487.72,-75.59 477.14,-75.09 479.14,-81.8"/>
</g>
<!-- Node15&#45;&gt;Node3 -->
<g id="edge22" class="edge">
<title>Node15&#45;&gt;Node3</title>
<path fill="none" stroke="midnightblue" d="M454.28,-504.45C455.91,-485.96 459.5,-440.87 459.5,-403 459.5,-403 459.5,-403 459.5,-177 459.5,-140.3 484.82,-103.66 501.71,-83.3"/>
<polygon fill="midnightblue" stroke="midnightblue" points="504.45,-85.48 508.33,-75.62 499.15,-80.9 504.45,-85.48"/>
</g>
<!-- Node15&#45;&gt;Node16 -->
<g id="edge23" class="edge">
<title>Node15&#45;&gt;Node16</title>
<path fill="none" stroke="midnightblue" d="M458.29,-504.37C468.26,-486.38 491.46,-444.55 504.73,-420.63"/>
<polygon fill="midnightblue" stroke="midnightblue" points="507.95,-422.03 509.74,-411.59 501.83,-418.64 507.95,-422.03"/>
</g>
<!-- Node17 -->
<g id="node17" class="node">
<title>Node17</title>
<g id="a_node17"><a xlink:href="surf_8h.html" target="_top" xlink:title="Surfaces?">
<polygon fill="white" stroke="black" points="563.5,-448.5 563.5,-467.5 607.5,-467.5 607.5,-448.5 563.5,-448.5"/>
<text text-anchor="middle" x="585.5" y="-455.5" font-family="Helvetica,sans-Serif" font-size="10.00">surf.h</text>
</a>
</g>
</g>
<!-- Node15&#45;&gt;Node17 -->
<g id="edge25" class="edge">
<title>Node15&#45;&gt;Node17</title>
<path fill="none" stroke="midnightblue" d="M474.42,-504.44C496.24,-495.52 530.65,-481.44 555.39,-471.32"/>
<polygon fill="midnightblue" stroke="midnightblue" points="556.75,-474.54 564.68,-467.52 554.1,-468.06 556.75,-474.54"/>
</g>
<!-- Node15&#45;&gt;Node18 -->
<g id="edge51" class="edge">
<title>Node15&#45;&gt;Node18</title>
<path fill="none" stroke="midnightblue" d="M475.1,-507.36C518.86,-495.88 614.08,-470.68 616.5,-468 627.64,-455.67 629.68,-436.42 629.36,-422.06"/>
<polygon fill="midnightblue" stroke="midnightblue" points="632.84,-421.59 628.73,-411.82 625.85,-422.02 632.84,-421.59"/>
</g>
<!-- Node28 -->
<g id="node28" class="node">
<title>Node28</title>
<g id="a_node28"><a xlink:href="sce_2gs_8h.html" target="_top" xlink:title="Graphics synthesizer.">
<polygon fill="white" stroke="black" points="375.5,-448.5 375.5,-467.5 431.5,-467.5 431.5,-448.5 375.5,-448.5"/>
<text text-anchor="middle" x="403.5" y="-455.5" font-family="Helvetica,sans-Serif" font-size="10.00">sce/gs.h</text>
</a>
</g>
</g>
<!-- Node15&#45;&gt;Node28 -->
<g id="edge49" class="edge">
<title>Node15&#45;&gt;Node28</title>
<path fill="none" stroke="midnightblue" d="M445.24,-504.08C438.04,-496.3 427.39,-484.8 418.65,-475.37"/>
<polygon fill="midnightblue" stroke="midnightblue" points="420.97,-472.71 411.6,-467.75 415.83,-477.47 420.97,-472.71"/>
</g>
<!-- Node16&#45;&gt;Node3 -->
<g id="edge24" class="edge">
<title>Node16&#45;&gt;Node3</title>
<path fill="none" stroke="midnightblue" d="M512.21,-392.23C507.57,-373.69 497.5,-329.07 497.5,-291 497.5,-291 497.5,-291 497.5,-177 497.5,-144.49 505.66,-107.35 511.28,-85.61"/>
<polygon fill="midnightblue" stroke="midnightblue" points="514.72,-86.32 513.94,-75.75 507.96,-84.5 514.72,-86.32"/>
</g>
<!-- Node17&#45;&gt;Node3 -->
<g id="edge26" class="edge">
<title>Node17&#45;&gt;Node3</title>
<path fill="none" stroke="midnightblue" d="M583.99,-448.49C575.37,-399.74 532.18,-155.61 519.81,-85.72"/>
<polygon fill="midnightblue" stroke="midnightblue" points="523.23,-84.97 518.04,-75.73 516.34,-86.19 523.23,-84.97"/>
</g>
<!-- Node17&#45;&gt;Node16 -->
<g id="edge48" class="edge">
<title>Node17&#45;&gt;Node16</title>
<path fill="none" stroke="midnightblue" d="M574.09,-448.32C563.39,-440.18 547.16,-427.84 534.34,-418.09"/>
<polygon fill="midnightblue" stroke="midnightblue" points="536.19,-415.1 526.11,-411.83 531.96,-420.67 536.19,-415.1"/>
</g>
<!-- Node17&#45;&gt;Node18 -->
<g id="edge27" class="edge">
<title>Node17&#45;&gt;Node18</title>
<path fill="none" stroke="midnightblue" d="M592.44,-448.08C598.43,-440.38 607.25,-429.03 614.55,-419.65"/>
<polygon fill="midnightblue" stroke="midnightblue" points="617.32,-421.79 620.69,-411.75 611.79,-417.5 617.32,-421.79"/>
</g>
<!-- Node19 -->
<g id="node19" class="node">
<title>Node19</title>
<g id="a_node19"><a xlink:href="so_8h.html" target="_top" xlink:title="Scene objects.">
<polygon fill="white" stroke="black" points="608,-336.5 608,-355.5 645,-355.5 645,-336.5 608,-336.5"/>
<text text-anchor="middle" x="626.5" y="-343.5" font-family="Helvetica,sans-Serif" font-size="10.00">so.h</text>
</a>
</g>
</g>
<!-- Node18&#45;&gt;Node19 -->
<g id="edge28" class="edge">
<title>Node18&#45;&gt;Node19</title>
<path fill="none" stroke="midnightblue" d="M627.33,-392.08C627.2,-385.01 627.02,-374.86 626.85,-365.99"/>
<polygon fill="midnightblue" stroke="midnightblue" points="630.35,-365.68 626.66,-355.75 623.35,-365.81 630.35,-365.68"/>
</g>
<!-- Node20 -->
<g id="node20" class="node">
<title>Node20</title>
<g id="a_node20"><a xlink:href="alo_8h.html" target="_top" xlink:title=" ">
<polygon fill="white" stroke="black" points="605,-280.5 605,-299.5 646,-299.5 646,-280.5 605,-280.5"/>
<text text-anchor="middle" x="625.5" y="-287.5" font-family="Helvetica,sans-Serif" font-size="10.00">alo.h</text>
</a>
</g>
</g>
<!-- Node19&#45;&gt;Node20 -->
<g id="edge29" class="edge">
<title>Node19&#45;&gt;Node20</title>
<path fill="none" stroke="midnightblue" d="M626.33,-336.08C626.2,-329.01 626.02,-318.86 625.85,-309.99"/>
<polygon fill="midnightblue" stroke="midnightblue" points="629.35,-309.68 625.66,-299.75 622.35,-309.81 629.35,-309.68"/>
</g>
<!-- Node20&#45;&gt;Node3 -->
<g id="edge30" class="edge">
<title>Node20&#45;&gt;Node3</title>
<path fill="none" stroke="midnightblue" d="M622.53,-280.19C613.44,-253.78 584.51,-173.27 549.5,-112 543.85,-102.12 536.44,-91.83 530.07,-83.58"/>
<polygon fill="midnightblue" stroke="midnightblue" points="532.66,-81.22 523.7,-75.56 527.17,-85.57 532.66,-81.22"/>
</g>
<!-- Node21 -->
<g id="node21" class="node">
<title>Node21</title>
<g id="a_node21"><a xlink:href="lo_8h.html" target="_top" xlink:title="Level objects.">
<polygon fill="white" stroke="black" points="721,-224.5 721,-243.5 756,-243.5 756,-224.5 721,-224.5"/>
<text text-anchor="middle" x="738.5" y="-231.5" font-family="Helvetica,sans-Serif" font-size="10.00">lo.h</text>
</a>
</g>
</g>
<!-- Node20&#45;&gt;Node21 -->
<g id="edge31" class="edge">
<title>Node20&#45;&gt;Node21</title>
<path fill="none" stroke="midnightblue" d="M643.41,-280.44C661.75,-271.68 690.51,-257.94 711.59,-247.86"/>
<polygon fill="midnightblue" stroke="midnightblue" points="713.17,-250.99 720.68,-243.52 710.15,-244.67 713.17,-250.99"/>
</g>
<!-- Node24 -->
<g id="node24" class="node">
<title>Node24</title>
<g id="a_node24"><a xlink:href="dl_8h.html" target="_top" xlink:title="Doubly&#45;linked list.">
<polygon fill="white" stroke="black" points="602,-168.5 602,-187.5 637,-187.5 637,-168.5 602,-168.5"/>
<text text-anchor="middle" x="619.5" y="-175.5" font-family="Helvetica,sans-Serif" font-size="10.00">dl.h</text>
</a>
</g>
</g>
<!-- Node20&#45;&gt;Node24 -->
<g id="edge47" class="edge">
<title>Node20&#45;&gt;Node24</title>
<path fill="none" stroke="midnightblue" d="M625.03,-280.37C624.06,-262.62 621.83,-221.67 620.51,-197.6"/>
<polygon fill="midnightblue" stroke="midnightblue" points="624.01,-197.39 619.97,-187.59 617.02,-197.77 624.01,-197.39"/>
</g>
<!-- Node21&#45;&gt;Node3 -->
<g id="edge32" class="edge">
<title>Node21&#45;&gt;Node3</title>
<path fill="none" stroke="midnightblue" d="M741.48,-224.25C745.34,-211.44 750.76,-187.03 743.5,-168 731.61,-136.83 722.02,-129.31 693.5,-112 652.62,-87.19 598.47,-75.99 560.88,-70.98"/>
<polygon fill="midnightblue" stroke="midnightblue" points="561.1,-67.48 550.74,-69.73 560.24,-74.43 561.1,-67.48"/>
</g>
<!-- Node21&#45;&gt;Node13 -->
<g id="edge33" class="edge">
<title>Node21&#45;&gt;Node13</title>
<path fill="none" stroke="midnightblue" d="M727.43,-224.39C716.29,-215.58 698.76,-201.34 684.5,-188 667.52,-172.12 649.29,-152.7 637.03,-139.24"/>
<polygon fill="midnightblue" stroke="midnightblue" points="639.53,-136.79 630.23,-131.72 634.34,-141.48 639.53,-136.79"/>
</g>
<!-- Node22 -->
<g id="node22" class="node">
<title>Node22</title>
<g id="a_node22"><a xlink:href="basic_8h.html" target="_top" xlink:title="Basic object.">
<polygon fill="white" stroke="black" points="792,-168.5 792,-187.5 843,-187.5 843,-168.5 792,-168.5"/>
<text text-anchor="middle" x="817.5" y="-175.5" font-family="Helvetica,sans-Serif" font-size="10.00">basic.h</text>
</a>
</g>
</g>
<!-- Node21&#45;&gt;Node22 -->
<g id="edge34" class="edge">
<title>Node21&#45;&gt;Node22</title>
<path fill="none" stroke="midnightblue" d="M751.19,-224.32C763.4,-215.98 782.08,-203.21 796.5,-193.35"/>
<polygon fill="midnightblue" stroke="midnightblue" points="798.56,-196.19 804.84,-187.65 794.61,-190.41 798.56,-196.19"/>
</g>
<!-- Node21&#45;&gt;Node24 -->
<g id="edge38" class="edge">
<title>Node21&#45;&gt;Node24</title>
<path fill="none" stroke="midnightblue" d="M720.94,-225.03C701.25,-216.1 669.1,-201.51 646.28,-191.15"/>
<polygon fill="midnightblue" stroke="midnightblue" points="647.68,-187.95 637.13,-187 644.79,-194.32 647.68,-187.95"/>
</g>
<!-- Node25 -->
<g id="node25" class="node">
<title>Node25</title>
<g id="a_node25"><a xlink:href="sw_8h.html" target="_top" xlink:title="Scene world?">
<polygon fill="white" stroke="black" points="927.5,-112.5 927.5,-131.5 965.5,-131.5 965.5,-112.5 927.5,-112.5"/>
<text text-anchor="middle" x="946.5" y="-119.5" font-family="Helvetica,sans-Serif" font-size="10.00">sw.h</text>
</a>
</g>
</g>
<!-- Node21&#45;&gt;Node25 -->
<g id="edge41" class="edge">
<title>Node21&#45;&gt;Node25</title>
<path fill="none" stroke="midnightblue" d="M756.27,-227.29C778.99,-219.69 819.26,-205.18 851.5,-188 879.36,-173.16 909.02,-151.88 927.64,-137.76"/>
<polygon fill="midnightblue" stroke="midnightblue" points="929.8,-140.51 935.6,-131.65 925.54,-134.96 929.8,-140.51"/>
</g>
<!-- Node26 -->
<g id="node26" class="node">
<title>Node26</title>
<g id="a_node26"><a xlink:href="frame_8h.html" target="_top" xlink:title=" ">
<polygon fill="white" stroke="black" points="983.5,-112.5 983.5,-131.5 1069.5,-131.5 1069.5,-112.5 983.5,-112.5"/>
<text text-anchor="middle" x="1026.5" y="-119.5" font-family="Helvetica,sans-Serif" font-size="10.00">splice/frame.h</text>
</a>
</g>
</g>
<!-- Node21&#45;&gt;Node26 -->
<g id="edge43" class="edge">
<title>Node21&#45;&gt;Node26</title>
<path fill="none" stroke="midnightblue" d="M756.02,-228.27C783.37,-220.71 837.7,-205.04 882.5,-188 924.24,-172.13 971.13,-150.15 999.74,-136.26"/>
<polygon fill="midnightblue" stroke="midnightblue" points="1001.61,-139.24 1009.06,-131.71 998.53,-132.95 1001.61,-139.24"/>
</g>
<!-- Node27 -->
<g id="node27" class="node">
<title>Node27</title>
<g id="a_node27"><a xlink:href="mq_8h.html" target="_top" xlink:title="Message queue.">
<polygon fill="white" stroke="black" points="694,-168.5 694,-187.5 735,-187.5 735,-168.5 694,-168.5"/>
<text text-anchor="middle" x="714.5" y="-175.5" font-family="Helvetica,sans-Serif" font-size="10.00">mq.h</text>
</a>
</g>
</g>
<!-- Node21&#45;&gt;Node27 -->
<g id="edge45" class="edge">
<title>Node21&#45;&gt;Node27</title>
<path fill="none" stroke="midnightblue" d="M734.54,-224.08C731.29,-216.77 726.58,-206.18 722.55,-197.1"/>
<polygon fill="midnightblue" stroke="midnightblue" points="725.65,-195.47 718.39,-187.75 719.25,-198.31 725.65,-195.47"/>
</g>
<!-- Node22&#45;&gt;Node3 -->
<g id="edge35" class="edge">
<title>Node22&#45;&gt;Node3</title>
<path fill="none" stroke="midnightblue" d="M812.62,-168.17C804.21,-153.85 785.53,-125.78 761.5,-112 698.32,-75.77 612.25,-67.74 560.74,-66.48"/>
<polygon fill="midnightblue" stroke="midnightblue" points="560.66,-62.97 550.6,-66.3 560.54,-69.97 560.66,-62.97"/>
</g>
<!-- Node23 -->
<g id="node23" class="node">
<title>Node23</title>
<g id="a_node23"><a xlink:href="sidebag_8h.html" target="_top" xlink:title="Sidebag for splice.">
<polygon fill="white" stroke="black" points="814,-112.5 814,-131.5 909,-131.5 909,-112.5 814,-112.5"/>
<text text-anchor="middle" x="861.5" y="-119.5" font-family="Helvetica,sans-Serif" font-size="10.00">splice/sidebag.h</text>
</a>
</g>
</g>
<!-- Node22&#45;&gt;Node23 -->
<g id="edge36" class="edge">
<title>Node22&#45;&gt;Node23</title>
<path fill="none" stroke="midnightblue" d="M824.77,-168.08C831.04,-160.38 840.29,-149.03 847.93,-139.65"/>
<polygon fill="midnightblue" stroke="midnightblue" points="850.77,-141.71 854.37,-131.75 845.34,-137.29 850.77,-141.71"/>
</g>
<!-- Node23&#45;&gt;Node3 -->
<g id="edge37" class="edge">
<title>Node23&#45;&gt;Node3</title>
<path fill="none" stroke="midnightblue" d="M813.89,-113.55C746.87,-103.06 625.62,-84.08 560.57,-73.9"/>
<polygon fill="midnightblue" stroke="midnightblue" points="561.05,-70.43 550.62,-72.34 559.96,-77.35 561.05,-70.43"/>
</g>
<!-- Node24&#45;&gt;Node3 -->
<g id="edge39" class="edge">
<title>Node24&#45;&gt;Node3</title>
<path fill="none" stroke="midnightblue" d="M629.79,-168.07C643.54,-155.04 664.74,-130.37 651.5,-112 630.99,-83.55 591.72,-72.81 560.8,-68.9"/>
<polygon fill="midnightblue" stroke="midnightblue" points="560.99,-65.4 550.67,-67.81 560.24,-72.36 560.99,-65.4"/>
</g>
<!-- Node24&#45;&gt;Node13 -->
<g id="edge40" class="edge">
<title>Node24&#45;&gt;Node13</title>
<path fill="none" stroke="midnightblue" d="M620,-168.08C620.39,-161.01 620.95,-150.86 621.45,-141.99"/>
<polygon fill="midnightblue" stroke="midnightblue" points="624.95,-141.93 622.01,-131.75 617.96,-141.54 624.95,-141.93"/>
</g>
<!-- Node25&#45;&gt;Node3 -->
<g id="edge42" class="edge">
<title>Node25&#45;&gt;Node3</title>
<path fill="none" stroke="midnightblue" d="M927.29,-114.48C924.05,-113.54 920.7,-112.67 917.5,-112 789.73,-85.26 635.51,-73.6 561.04,-69.24"/>
<polygon fill="midnightblue" stroke="midnightblue" points="560.82,-65.72 550.64,-68.65 560.43,-72.71 560.82,-65.72"/>
</g>
<!-- Node26&#45;&gt;Node3 -->
<g id="edge44" class="edge">
<title>Node26&#45;&gt;Node3</title>
<path fill="none" stroke="midnightblue" d="M983.41,-113.29C980.4,-112.83 977.41,-112.39 974.5,-112 823.37,-91.53 642.98,-76.57 560.99,-70.28"/>
<polygon fill="midnightblue" stroke="midnightblue" points="561.02,-66.77 550.79,-69.5 560.49,-73.75 561.02,-66.77"/>
</g>
<!-- Node27&#45;&gt;Node3 -->
<g id="edge46" class="edge">
<title>Node27&#45;&gt;Node3</title>
<path fill="none" stroke="midnightblue" d="M710.75,-168.44C704.22,-154.5 689.41,-126.97 668.5,-112 636.6,-89.16 593.09,-77.8 560.79,-72.22"/>
<polygon fill="midnightblue" stroke="midnightblue" points="561.16,-68.74 550.73,-70.61 560.05,-75.65 561.16,-68.74"/>
</g>
<!-- Node28&#45;&gt;Node3 -->
<g id="edge50" class="edge">
<title>Node28&#45;&gt;Node3</title>
<path fill="none" stroke="midnightblue" d="M405.93,-448.24C410.84,-429.71 421.5,-385.12 421.5,-347 421.5,-347 421.5,-347 421.5,-177 421.5,-146.2 426.14,-135.95 445.5,-112 456.49,-98.41 472.73,-87.68 486.91,-80.12"/>
<polygon fill="midnightblue" stroke="midnightblue" points="488.51,-83.24 495.86,-75.61 485.35,-76.99 488.51,-83.24"/>
</g>
<!-- Node29&#45;&gt;Node3 -->
<g id="edge53" class="edge">
<title>Node29&#45;&gt;Node3</title>
<path fill="none" stroke="midnightblue" d="M163.93,-224.35C162.99,-201.93 163.85,-141.66 197.5,-112 237.38,-76.86 393.87,-69.09 471.85,-67.42"/>
<polygon fill="midnightblue" stroke="midnightblue" points="472.38,-70.92 482.31,-67.23 472.24,-63.92 472.38,-70.92"/>
</g>
<!-- Node30&#45;&gt;Node3 -->
<g id="edge55" class="edge">
<title>Node30&#45;&gt;Node3</title>
<path fill="none" stroke="midnightblue" d="M25.11,-336.44C24.29,-317.94 22.5,-272.83 22.5,-235 22.5,-235 22.5,-235 22.5,-177 22.5,-137.08 48.66,-129.6 84.5,-112 151.94,-78.89 376.16,-70.06 472.21,-67.77"/>
<polygon fill="midnightblue" stroke="midnightblue" points="472.54,-71.27 482.45,-67.54 472.38,-64.27 472.54,-71.27"/>
</g>
<!-- Node32&#45;&gt;Node3 -->
<g id="edge60" class="edge">
<title>Node32&#45;&gt;Node3</title>
<path fill="none" stroke="midnightblue" d="M69.92,-280.36C65.2,-251.51 54.39,-157.78 103.5,-112 130.09,-87.21 370.96,-73.56 472.1,-68.87"/>
<polygon fill="midnightblue" stroke="midnightblue" points="472.47,-72.36 482.3,-68.41 472.15,-65.37 472.47,-72.36"/>
</g>
<!-- Node33&#45;&gt;Node3 -->
<g id="edge62" class="edge">
<title>Node33&#45;&gt;Node3</title>
<path fill="none" stroke="midnightblue" d="M1047.96,-560.39C1078.33,-544.81 1135.5,-508.86 1135.5,-459 1135.5,-459 1135.5,-459 1135.5,-177 1135.5,-146.2 1136.08,-130.55 1111.5,-112 1067.82,-79.05 690.97,-69.84 560.63,-67.62"/>
<polygon fill="midnightblue" stroke="midnightblue" points="560.65,-64.12 550.6,-67.46 560.54,-71.12 560.65,-64.12"/>
</g>
</g>
</svg>
