<?xml version="1.0" encoding="UTF-8" standalone="no"?>
<!DOCTYPE svg PUBLIC "-//W3C//DTD SVG 1.1//EN"
 "http://www.w3.org/Graphics/SVG/1.1/DTD/svg11.dtd">
<!-- Generated by graphviz version 2.43.0 (0)
 -->
<!-- Title: src/P2/blend.c Pages: 1 -->
<!--zoomable 522 -->

<svg id="main" version="1.1" xmlns="http://www.w3.org/2000/svg" xmlns:xlink="http://www.w3.org/1999/xlink" xml:space="preserve" onload="init(evt)">
<style type="text/css"><![CDATA[
.node, .edge {opacity: 0.7;}
.node.selected, .edge.selected {opacity: 1;}
.edge:hover path { stroke: red; }
.edge:hover polygon { stroke: red; fill: red; }
]]></style>

<defs>
  <circle id="rim" cx="0" cy="0" r="7"/>
  <circle id="rim2" cx="0" cy="0" r="3.5"/>
  <g id="zoomPlus">
    <use xlink:href="#rim" fill="#404040"><set attributeName="fill" to="#808080" begin="zoomplus.mouseover" end="zoomplus.mouseout"/></use>
    <path d="M-4,0h8M0,-4v8" fill="none" stroke="white" stroke-width="1.5" pointer-events="none"/>
  </g>
  <g id="zoomMin">
    <use xlink:href="#rim" fill="#404040"><set attributeName="fill" to="#808080" begin="zoomminus.mouseover" end="zoomminus.mouseout"/></use>
    <path d="M-4,0h8" fill="none" stroke="white" stroke-width="1.5" pointer-events="none"/>
  </g>
  <g id="arrowUp" transform="translate(30 24)">
    <use xlink:href="#rim"/>
    <path pointer-events="none" fill="none" stroke="white" stroke-width="1.5" d="M0,-3.0v7 M-2.5,-0.5L0,-3.0L2.5,-0.5"/>
  </g>
  <g id="arrowRight" transform="rotate(90) translate(36 -43)">
    <use xlink:href="#rim"/>
    <path pointer-events="none" fill="none" stroke="white" stroke-width="1.5" d="M0,-3.0v7 M-2.5,-0.5L0,-3.0L2.5,-0.5"/>
  </g>
  <g id="arrowDown" transform="rotate(180) translate(-30 -48)">
    <use xlink:href="#rim"/>
    <path pointer-events="none" fill="none" stroke="white" stroke-width="1.5" d="M0,-3.0v7 M-2.5,-0.5L0,-3.0L2.5,-0.5"/>
  </g>
  <g id="arrowLeft" transform="rotate(270) translate(-36 17)">
    <use xlink:href="#rim"/>
    <path pointer-events="none" fill="none" stroke="white" stroke-width="1.5" d="M0,-3.0v7 M-2.5,-0.5L0,-3.0L2.5,-0.5"/>
  </g>
  <g id="resetDef">
    <use xlink:href="#rim2" fill="#404040"><set attributeName="fill" to="#808080" begin="reset.mouseover" end="reset.mouseout"/></use>
  </g>
</defs>
<script type="application/ecmascript">
var viewWidth = 398;
var viewHeight = 522;
var sectionId = 'dynsection-0';
</script>
<script type="application/ecmascript" xlink:href="svg.min.js"/>
<svg id="graph" class="graph">
<g id="viewport">
<title>src/P2/blend.c</title>
<!-- Node1 -->
<g id="Node000001" class="node">
<title>Node1</title>
<g id="a_Node000001"><a xlink:title=" ">
<polygon fill="#999999" stroke="#666666" points="238,-514 154,-514 154,-495 238,-495 238,-514"/>
<text text-anchor="middle" x="196" y="-502" font-family="Helvetica,sans-Serif" font-size="10.00">src/P2/blend.c</text>
</a>
</g>
</g>
<!-- Node2 -->
<g id="Node000002" class="node">
<title>Node2</title>
<g id="a_Node000002"><a xlink:href="aseg_8h.html" target="_top" xlink:title=" ">
<polygon fill="white" stroke="#666666" points="194.5,-459 145.5,-459 145.5,-440 194.5,-440 194.5,-459"/>
<text text-anchor="middle" x="170" y="-447" font-family="Helvetica,sans-Serif" font-size="10.00">aseg.h</text>
</a>
</g>
</g>
<!-- Node1&#45;&gt;Node2 -->
<g id="edge1_Node000001_Node000002" class="edge">
<title>Node1&#45;&gt;Node2</title>
<g id="a_edge1_Node000001_Node000002"><a xlink:title=" ">
<path fill="none" stroke="#63b8ff" d="M191.71,-494.75C188.19,-487.57 183.09,-477.18 178.72,-468.27"/>
<polygon fill="#63b8ff" stroke="#63b8ff" points="181.76,-466.53 174.21,-459.09 175.48,-469.61 181.76,-466.53"/>
</a>
</g>
</g>
<!-- Node17 -->
<g id="Node000017" class="node">
<title>Node17</title>
<g id="a_Node000017"><a xlink:href="blend_8h.html" target="_top" xlink:title=" ">
<polygon fill="white" stroke="#666666" points="345.5,-404 292.5,-404 292.5,-385 345.5,-385 345.5,-404"/>
<text text-anchor="middle" x="319" y="-392" font-family="Helvetica,sans-Serif" font-size="10.00">blend.h</text>
</a>
</g>
</g>
<!-- Node1&#45;&gt;Node17 -->
<g id="edge28_Node000001_Node000017" class="edge">
<title>Node1&#45;&gt;Node17</title>
<g id="a_edge28_Node000001_Node000017"><a xlink:title=" ">
<path fill="none" stroke="#63b8ff" d="M206.07,-494.66C226.98,-476.3 275.37,-433.81 301.5,-410.87"/>
<polygon fill="#63b8ff" stroke="#63b8ff" points="303.93,-413.39 309.14,-404.16 299.32,-408.13 303.93,-413.39"/>
</a>
</g>
</g>
<!-- Node3 -->
<g id="Node000003" class="node">
<title>Node3</title>
<g id="a_Node000003"><a xlink:href="waypoint_8h.html" target="_top" xlink:title=" ">
<polygon fill="white" stroke="#666666" points="173.5,-404 102.5,-404 102.5,-385 173.5,-385 173.5,-404"/>
<text text-anchor="middle" x="138" y="-392" font-family="Helvetica,sans-Serif" font-size="10.00">waypoint.h</text>
</a>
</g>
</g>
<!-- Node2&#45;&gt;Node3 -->
<g id="edge2_Node000002_Node000003" class="edge">
<title>Node2&#45;&gt;Node3</title>
<g id="a_edge2_Node000002_Node000003"><a xlink:title=" ">
<path fill="none" stroke="#63b8ff" d="M164.72,-439.75C160.29,-432.42 153.84,-421.73 148.38,-412.7"/>
<polygon fill="#63b8ff" stroke="#63b8ff" points="151.35,-410.84 143.19,-404.09 145.36,-414.46 151.35,-410.84"/>
</a>
</g>
</g>
<!-- Node6 -->
<g id="Node000006" class="node">
<title>Node6</title>
<g id="a_Node000006"><a xlink:href="util_8h.html" target="_top" xlink:title="Utility functions.">
<polygon fill="white" stroke="#666666" points="152.5,-239 111.5,-239 111.5,-220 152.5,-220 152.5,-239"/>
<text text-anchor="middle" x="132" y="-227" font-family="Helvetica,sans-Serif" font-size="10.00">util.h</text>
</a>
</g>
</g>
<!-- Node2&#45;&gt;Node6 -->
<g id="edge26_Node000002_Node000006" class="edge">
<title>Node2&#45;&gt;Node6</title>
<g id="a_edge26_Node000002_Node000006"><a xlink:title=" ">
<path fill="none" stroke="#63b8ff" d="M145.38,-441.37C127.63,-434.79 104.95,-423.1 94,-404 83.14,-385.05 35.92,-440 96,-275 99.85,-264.44 107.32,-254.53 114.46,-246.75"/>
<polygon fill="#63b8ff" stroke="#63b8ff" points="117.37,-248.79 121.9,-239.22 112.39,-243.87 117.37,-248.79"/>
</a>
</g>
</g>
<!-- Node9 -->
<g id="Node000009" class="node">
<title>Node9</title>
<g id="a_Node000009"><a xlink:href="sm_8h.html" target="_top" xlink:title="Probabilistic finite state machines.">
<polygon fill="white" stroke="#666666" points="285.5,-184 244.5,-184 244.5,-165 285.5,-165 285.5,-184"/>
<text text-anchor="middle" x="265" y="-172" font-family="Helvetica,sans-Serif" font-size="10.00">sm.h</text>
</a>
</g>
</g>
<!-- Node2&#45;&gt;Node9 -->
<g id="edge27_Node000002_Node000009" class="edge">
<title>Node2&#45;&gt;Node9</title>
<g id="a_edge27_Node000002_Node000009"><a xlink:title=" ">
<path fill="none" stroke="#63b8ff" d="M185.95,-439.83C212.76,-423.96 264,-387.48 264,-340.5 264,-340.5 264,-340.5 264,-283.5 264,-252.19 264.43,-215.77 264.72,-194.23"/>
<polygon fill="#63b8ff" stroke="#63b8ff" points="268.22,-194.23 264.87,-184.18 261.22,-194.13 268.22,-194.23"/>
</a>
</g>
</g>
<!-- Node4 -->
<g id="Node000004" class="node">
<title>Node4</title>
<g id="a_Node000004"><a xlink:href="alo_8h.html" target="_top" xlink:title=" ">
<polygon fill="white" stroke="#666666" points="235.5,-349 194.5,-349 194.5,-330 235.5,-330 235.5,-349"/>
<text text-anchor="middle" x="215" y="-337" font-family="Helvetica,sans-Serif" font-size="10.00">alo.h</text>
</a>
</g>
</g>
<!-- Node3&#45;&gt;Node4 -->
<g id="edge3_Node000003_Node000004" class="edge">
<title>Node3&#45;&gt;Node4</title>
<g id="a_edge3_Node000003_Node000004"><a xlink:title=" ">
<path fill="none" stroke="#63b8ff" d="M150.37,-384.98C162.09,-376.92 179.92,-364.65 193.89,-355.03"/>
<polygon fill="#63b8ff" stroke="#63b8ff" points="196.15,-357.72 202.4,-349.17 192.18,-351.96 196.15,-357.72"/>
</a>
</g>
</g>
<!-- Node11 -->
<g id="Node000011" class="node">
<title>Node11</title>
<g id="a_Node000011"><a xlink:href="oid_8h.html" target="_top" xlink:title="Object IDs.">
<polygon fill="white" stroke="#666666" points="341.5,-19 300.5,-19 300.5,0 341.5,0 341.5,-19"/>
<text text-anchor="middle" x="321" y="-7" font-family="Helvetica,sans-Serif" font-size="10.00">oid.h</text>
</a>
</g>
</g>
<!-- Node3&#45;&gt;Node11 -->
<g id="edge24_Node000003_Node000011" class="edge">
<title>Node3&#45;&gt;Node11</title>
<g id="a_edge24_Node000003_Node000011"><a xlink:title=" ">
<path fill="none" stroke="#63b8ff" d="M122.44,-384.96C86.35,-363.87 0,-305.58 0,-230.5 0,-230.5 0,-230.5 0,-118.5 0,-83.65 16.33,-73.28 46,-55 86.48,-30.06 227.01,-17.18 290.02,-12.55"/>
<polygon fill="#63b8ff" stroke="#63b8ff" points="290.41,-16.03 300.14,-11.82 289.91,-9.04 290.41,-16.03"/>
</a>
</g>
</g>
<!-- Node12 -->
<g id="Node000012" class="node">
<title>Node12</title>
<g id="a_Node000012"><a xlink:href="mq_8h.html" target="_top" xlink:title="Message queue.">
<polygon fill="white" stroke="#666666" points="96.5,-74 55.5,-74 55.5,-55 96.5,-55 96.5,-74"/>
<text text-anchor="middle" x="76" y="-62" font-family="Helvetica,sans-Serif" font-size="10.00">mq.h</text>
</a>
</g>
</g>
<!-- Node3&#45;&gt;Node12 -->
<g id="edge25_Node000003_Node000012" class="edge">
<title>Node3&#45;&gt;Node12</title>
<g id="a_edge25_Node000003_Node000012"><a xlink:title=" ">
<path fill="none" stroke="#63b8ff" d="M128.85,-384.94C111.61,-367.84 76,-327.44 76,-285.5 76,-285.5 76,-285.5 76,-173.5 76,-142.19 76,-105.77 76,-84.23"/>
<polygon fill="#63b8ff" stroke="#63b8ff" points="79.5,-84.18 76,-74.18 72.5,-84.18 79.5,-84.18"/>
</a>
</g>
</g>
<!-- Node5 -->
<g id="Node000005" class="node">
<title>Node5</title>
<g id="a_Node000005"><a xlink:href="sound_8h.html" target="_top" xlink:title="Sound playback.">
<polygon fill="white" stroke="#666666" points="159.5,-294 104.5,-294 104.5,-275 159.5,-275 159.5,-294"/>
<text text-anchor="middle" x="132" y="-282" font-family="Helvetica,sans-Serif" font-size="10.00">sound.h</text>
</a>
</g>
</g>
<!-- Node4&#45;&gt;Node5 -->
<g id="edge4_Node000004_Node000005" class="edge">
<title>Node4&#45;&gt;Node5</title>
<g id="a_edge4_Node000004_Node000005"><a xlink:title=" ">
<path fill="none" stroke="#63b8ff" d="M201.66,-329.98C188.91,-321.84 169.45,-309.41 154.33,-299.76"/>
<polygon fill="#63b8ff" stroke="#63b8ff" points="155.89,-296.6 145.58,-294.17 152.12,-302.5 155.89,-296.6"/>
</a>
</g>
</g>
<!-- Node7 -->
<g id="Node000007" class="node">
<title>Node7</title>
<g id="a_Node000007"><a xlink:href="vec_8h.html" target="_top" xlink:title="Vector math.">
<polygon fill="white" stroke="#666666" points="186.5,-129 143.5,-129 143.5,-110 186.5,-110 186.5,-129"/>
<text text-anchor="middle" x="165" y="-117" font-family="Helvetica,sans-Serif" font-size="10.00">vec.h</text>
</a>
</g>
</g>
<!-- Node4&#45;&gt;Node7 -->
<g id="edge20_Node000004_Node000007" class="edge">
<title>Node4&#45;&gt;Node7</title>
<g id="a_edge20_Node000004_Node000007"><a xlink:title=" ">
<path fill="none" stroke="#63b8ff" d="M215.72,-329.8C217.55,-303.73 220.67,-224.35 197,-165 192.96,-154.87 186.13,-144.9 179.81,-136.97"/>
<polygon fill="#63b8ff" stroke="#63b8ff" points="182.43,-134.65 173.32,-129.25 177.08,-139.16 182.43,-134.65"/>
</a>
</g>
</g>
<!-- Node8 -->
<g id="Node000008" class="node">
<title>Node8</title>
<g id="a_Node000008"><a xlink:href="mat_8h.html" target="_top" xlink:title="3x3 and 4x4 matrix types.">
<polygon fill="white" stroke="#666666" points="187.5,-184 142.5,-184 142.5,-165 187.5,-165 187.5,-184"/>
<text text-anchor="middle" x="165" y="-172" font-family="Helvetica,sans-Serif" font-size="10.00">mat.h</text>
</a>
</g>
</g>
<!-- Node4&#45;&gt;Node8 -->
<g id="edge21_Node000004_Node000008" class="edge">
<title>Node4&#45;&gt;Node8</title>
<g id="a_edge21_Node000004_Node000008"><a xlink:title=" ">
<path fill="none" stroke="#63b8ff" d="M212.31,-329.74C204.48,-304.2 181.54,-229.43 170.75,-194.23"/>
<polygon fill="#63b8ff" stroke="#63b8ff" points="173.98,-192.84 167.7,-184.31 167.29,-194.89 173.98,-192.84"/>
</a>
</g>
</g>
<!-- Node10 -->
<g id="Node000010" class="node">
<title>Node10</title>
<g id="a_Node000010"><a xlink:href="dl_8h.html" target="_top" xlink:title="Doubly&#45;linked list.">
<polygon fill="white" stroke="#666666" points="361.5,-74 326.5,-74 326.5,-55 361.5,-55 361.5,-74"/>
<text text-anchor="middle" x="344" y="-62" font-family="Helvetica,sans-Serif" font-size="10.00">dl.h</text>
</a>
</g>
</g>
<!-- Node4&#45;&gt;Node10 -->
<g id="edge23_Node000004_Node000010" class="edge">
<title>Node4&#45;&gt;Node10</title>
<g id="a_edge23_Node000004_Node000010"><a xlink:title=" ">
<path fill="none" stroke="#63b8ff" d="M235.51,-332.81C273.73,-320.82 352,-289.1 352,-230.5 352,-230.5 352,-230.5 352,-173.5 352,-142.1 348.6,-105.71 346.23,-84.2"/>
<polygon fill="#63b8ff" stroke="#63b8ff" points="349.69,-83.7 345.08,-74.16 342.74,-84.5 349.69,-83.7"/>
</a>
</g>
</g>
<!-- Node13 -->
<g id="Node000013" class="node">
<title>Node13</title>
<g id="a_Node000013"><a xlink:href="lo_8h.html" target="_top" xlink:title="Level objects.">
<polygon fill="white" stroke="#666666" points="282.5,-129 247.5,-129 247.5,-110 282.5,-110 282.5,-129"/>
<text text-anchor="middle" x="265" y="-117" font-family="Helvetica,sans-Serif" font-size="10.00">lo.h</text>
</a>
</g>
</g>
<!-- Node4&#45;&gt;Node13 -->
<g id="edge22_Node000004_Node000013" class="edge">
<title>Node4&#45;&gt;Node13</title>
<g id="a_edge22_Node000004_Node000013"><a xlink:title=" ">
<path fill="none" stroke="#63b8ff" d="M221.52,-329.71C237.86,-307.04 280.35,-244.16 295,-184 297,-175.8 297.47,-173.08 295,-165 291.91,-154.9 285.68,-145.02 279.69,-137.15"/>
<polygon fill="#63b8ff" stroke="#63b8ff" points="282.24,-134.74 273.21,-129.2 276.82,-139.16 282.24,-134.74"/>
</a>
</g>
</g>
<!-- Node5&#45;&gt;Node6 -->
<g id="edge5_Node000005_Node000006" class="edge">
<title>Node5&#45;&gt;Node6</title>
<g id="a_edge5_Node000005_Node000006"><a xlink:title=" ">
<path fill="none" stroke="#63b8ff" d="M132,-274.75C132,-267.8 132,-257.85 132,-249.13"/>
<polygon fill="#63b8ff" stroke="#63b8ff" points="135.5,-249.09 132,-239.09 128.5,-249.09 135.5,-249.09"/>
</a>
</g>
</g>
<!-- Node6&#45;&gt;Node7 -->
<g id="edge6_Node000006_Node000007" class="edge">
<title>Node6&#45;&gt;Node7</title>
<g id="a_edge6_Node000006_Node000007"><a xlink:title=" ">
<path fill="none" stroke="#63b8ff" d="M130.72,-219.6C129.27,-207.06 127.82,-183.64 134,-165 137.39,-154.76 143.96,-144.77 150.18,-136.86"/>
<polygon fill="#63b8ff" stroke="#63b8ff" points="152.87,-139.09 156.62,-129.18 147.51,-134.59 152.87,-139.09"/>
</a>
</g>
</g>
<!-- Node6&#45;&gt;Node8 -->
<g id="edge7_Node000006_Node000008" class="edge">
<title>Node6&#45;&gt;Node8</title>
<g id="a_edge7_Node000006_Node000008"><a xlink:title=" ">
<path fill="none" stroke="#63b8ff" d="M137.45,-219.75C142.01,-212.42 148.67,-201.73 154.29,-192.7"/>
<polygon fill="#63b8ff" stroke="#63b8ff" points="157.34,-194.43 159.65,-184.09 151.4,-190.73 157.34,-194.43"/>
</a>
</g>
</g>
<!-- Node6&#45;&gt;Node9 -->
<g id="edge9_Node000006_Node000009" class="edge">
<title>Node6&#45;&gt;Node9</title>
<g id="a_edge9_Node000006_Node000009"><a xlink:title=" ">
<path fill="none" stroke="#63b8ff" d="M152.78,-220.22C174.84,-211.43 209.91,-197.46 234.97,-187.47"/>
<polygon fill="#63b8ff" stroke="#63b8ff" points="236.37,-190.68 244.36,-183.72 233.78,-184.17 236.37,-190.68"/>
</a>
</g>
</g>
<!-- Node8&#45;&gt;Node7 -->
<g id="edge8_Node000008_Node000007" class="edge">
<title>Node8&#45;&gt;Node7</title>
<g id="a_edge8_Node000008_Node000007"><a xlink:title=" ">
<path fill="none" stroke="#63b8ff" d="M165,-164.75C165,-157.8 165,-147.85 165,-139.13"/>
<polygon fill="#63b8ff" stroke="#63b8ff" points="168.5,-139.09 165,-129.09 161.5,-139.09 168.5,-139.09"/>
</a>
</g>
</g>
<!-- Node9&#45;&gt;Node10 -->
<g id="edge10_Node000009_Node000010" class="edge">
<title>Node9&#45;&gt;Node10</title>
<g id="a_edge10_Node000009_Node000010"><a xlink:title=" ">
<path fill="none" stroke="#63b8ff" d="M271.46,-164.66C284.61,-146.69 314.64,-105.64 331.65,-82.38"/>
<polygon fill="#63b8ff" stroke="#63b8ff" points="334.59,-84.3 337.67,-74.16 328.94,-80.16 334.59,-84.3"/>
</a>
</g>
</g>
<!-- Node9&#45;&gt;Node12 -->
<g id="edge12_Node000009_Node000012" class="edge">
<title>Node9&#45;&gt;Node12</title>
<g id="a_edge12_Node000009_Node000012"><a xlink:title=" ">
<path fill="none" stroke="#63b8ff" d="M257.76,-164.97C246.01,-151.6 221.55,-125.64 196,-110 180.68,-100.62 136.83,-85.33 106.61,-75.34"/>
<polygon fill="#63b8ff" stroke="#63b8ff" points="107.53,-71.96 96.94,-72.18 105.35,-78.62 107.53,-71.96"/>
</a>
</g>
</g>
<!-- Node9&#45;&gt;Node13 -->
<g id="edge13_Node000009_Node000013" class="edge">
<title>Node9&#45;&gt;Node13</title>
<g id="a_edge13_Node000009_Node000013"><a xlink:title=" ">
<path fill="none" stroke="#63b8ff" d="M265,-164.75C265,-157.8 265,-147.85 265,-139.13"/>
<polygon fill="#63b8ff" stroke="#63b8ff" points="268.5,-139.09 265,-129.09 261.5,-139.09 268.5,-139.09"/>
</a>
</g>
</g>
<!-- Node10&#45;&gt;Node11 -->
<g id="edge11_Node000010_Node000011" class="edge">
<title>Node10&#45;&gt;Node11</title>
<g id="a_edge11_Node000010_Node000011"><a xlink:title=" ">
<path fill="none" stroke="#63b8ff" d="M340.2,-54.75C337.09,-47.57 332.58,-37.18 328.71,-28.27"/>
<polygon fill="#63b8ff" stroke="#63b8ff" points="331.92,-26.87 324.73,-19.09 325.5,-29.66 331.92,-26.87"/>
</a>
</g>
</g>
<!-- Node13&#45;&gt;Node10 -->
<g id="edge14_Node000013_Node000010" class="edge">
<title>Node13&#45;&gt;Node10</title>
<g id="a_edge14_Node000013_Node000010"><a xlink:title=" ">
<path fill="none" stroke="#63b8ff" d="M277.69,-109.98C289.83,-101.84 308.36,-89.41 322.75,-79.76"/>
<polygon fill="#63b8ff" stroke="#63b8ff" points="324.72,-82.65 331.08,-74.17 320.82,-76.84 324.72,-82.65"/>
</a>
</g>
</g>
<!-- Node13&#45;&gt;Node11 -->
<g id="edge16_Node000013_Node000011" class="edge">
<title>Node13&#45;&gt;Node11</title>
<g id="a_edge16_Node000013_Node000011"><a xlink:title=" ">
<path fill="none" stroke="#63b8ff" d="M269.58,-109.66C278.78,-91.93 299.62,-51.73 311.76,-28.32"/>
<polygon fill="#63b8ff" stroke="#63b8ff" points="315.01,-29.65 316.51,-19.16 308.8,-26.42 315.01,-29.65"/>
</a>
</g>
</g>
<!-- Node13&#45;&gt;Node12 -->
<g id="edge15_Node000013_Node000012" class="edge">
<title>Node13&#45;&gt;Node12</title>
<g id="a_edge15_Node000013_Node000012"><a xlink:title=" ">
<path fill="none" stroke="#63b8ff" d="M247.35,-113.58C219.61,-105.84 163.86,-90.28 106.6,-74.16"/>
<polygon fill="#63b8ff" stroke="#63b8ff" points="107.23,-70.7 96.65,-71.36 105.33,-77.44 107.23,-70.7"/>
</a>
</g>
</g>
<!-- Node14 -->
<g id="Node000014" class="node">
<title>Node14</title>
<g id="a_Node000014"><a xlink:href="basic_8h.html" target="_top" xlink:title="Basic object.">
<polygon fill="white" stroke="#666666" points="165.5,-74 114.5,-74 114.5,-55 165.5,-55 165.5,-74"/>
<text text-anchor="middle" x="140" y="-62" font-family="Helvetica,sans-Serif" font-size="10.00">basic.h</text>
</a>
</g>
</g>
<!-- Node13&#45;&gt;Node14 -->
<g id="edge17_Node000013_Node000014" class="edge">
<title>Node13&#45;&gt;Node14</title>
<g id="a_edge17_Node000013_Node000014"><a xlink:title=" ">
<path fill="none" stroke="#63b8ff" d="M247.36,-111.02C227.25,-102.49 194.04,-88.41 169.87,-78.17"/>
<polygon fill="#63b8ff" stroke="#63b8ff" points="171.03,-74.86 160.46,-74.17 168.3,-81.3 171.03,-74.86"/>
</a>
</g>
</g>
<!-- Node16 -->
<g id="Node000016" class="node">
<title>Node16</title>
<g id="a_Node000016"><a xlink:href="frame_8h.html" target="_top" xlink:title=" ">
<polygon fill="white" stroke="#666666" points="270,-74 184,-74 184,-55 270,-55 270,-74"/>
<text text-anchor="middle" x="227" y="-62" font-family="Helvetica,sans-Serif" font-size="10.00">splice/frame.h</text>
</a>
</g>
</g>
<!-- Node13&#45;&gt;Node16 -->
<g id="edge19_Node000013_Node000016" class="edge">
<title>Node13&#45;&gt;Node16</title>
<g id="a_edge19_Node000013_Node000016"><a xlink:title=" ">
<path fill="none" stroke="#63b8ff" d="M258.73,-109.75C253.41,-102.34 245.64,-91.5 239.12,-82.41"/>
<polygon fill="#63b8ff" stroke="#63b8ff" points="241.83,-80.18 233.16,-74.09 236.14,-84.26 241.83,-80.18"/>
</a>
</g>
</g>
<!-- Node15 -->
<g id="Node000015" class="node">
<title>Node15</title>
<g id="a_Node000015"><a xlink:href="sidebag_8h.html" target="_top" xlink:title="Sidebag for splice.">
<polygon fill="white" stroke="#666666" points="187.5,-19 92.5,-19 92.5,0 187.5,0 187.5,-19"/>
<text text-anchor="middle" x="140" y="-7" font-family="Helvetica,sans-Serif" font-size="10.00">splice/sidebag.h</text>
</a>
</g>
</g>
<!-- Node14&#45;&gt;Node15 -->
<g id="edge18_Node000014_Node000015" class="edge">
<title>Node14&#45;&gt;Node15</title>
<g id="a_edge18_Node000014_Node000015"><a xlink:title=" ">
<path fill="none" stroke="#63b8ff" d="M140,-54.75C140,-47.8 140,-37.85 140,-29.13"/>
<polygon fill="#63b8ff" stroke="#63b8ff" points="143.5,-29.09 140,-19.09 136.5,-29.09 143.5,-29.09"/>
</a>
</g>
</g>
<!-- Node17&#45;&gt;Node4 -->
<g id="edge29_Node000017_Node000004" class="edge">
<title>Node17&#45;&gt;Node4</title>
<g id="a_edge29_Node000017_Node000004"><a xlink:title=" ">
<path fill="none" stroke="#63b8ff" d="M302.29,-384.98C285.79,-376.57 260.3,-363.59 241.12,-353.81"/>
<polygon fill="#63b8ff" stroke="#63b8ff" points="242.51,-350.59 232.01,-349.17 239.33,-356.83 242.51,-350.59"/>
</a>
</g>
</g>
<!-- Node17&#45;&gt;Node11 -->
<g id="edge30_Node000017_Node000011" class="edge">
<title>Node17&#45;&gt;Node11</title>
<g id="a_edge30_Node000017_Node000011"><a xlink:title=" ">
<path fill="none" stroke="#63b8ff" d="M329.78,-384.97C349.65,-368.2 390,-328.81 390,-285.5 390,-285.5 390,-285.5 390,-118.5 390,-89.04 386.83,-79.85 371,-55 363.66,-43.48 352.52,-33.15 342.61,-25.36"/>
<polygon fill="#63b8ff" stroke="#63b8ff" points="344.46,-22.37 334.35,-19.19 340.27,-27.98 344.46,-22.37"/>
</a>
</g>
</g>
</g>
</svg>

<g id="navigator" transform="translate(0 0)" fill="#404254">
  <rect fill="#f2f5e9" fill-opacity="0.5" stroke="#606060" stroke-width=".5" x="0" y="0" width="60" height="60"/>
  <use id="zoomplus" xlink:href="#zoomPlus" x="17" y="9" onmousedown="handleZoom(evt,'in')"/>
  <use id="zoomminus" xlink:href="#zoomMin" x="42" y="9" onmousedown="handleZoom(evt,'out')"/>
  <use id="reset" xlink:href="#resetDef" x="30" y="36" onmousedown="handleReset()"/>
   <use id="arrowup" xlink:href="#arrowUp" x="0" y="0" onmousedown="handlePan(0,-1)"/>
  <use id="arrowright" xlink:href="#arrowRight" x="0" y="0" onmousedown="handlePan(1,0)"/>
  <use id="arrowdown" xlink:href="#arrowDown" x="0" y="0" onmousedown="handlePan(0,1)"/>
  <use id="arrowleft" xlink:href="#arrowLeft" x="0" y="0" onmousedown="handlePan(-1,0)"/>
</g>
<svg viewBox="0 0 15 15" width="100%" height="30px" preserveAspectRatio="xMaxYMin meet">
 <g id="arrow_out" transform="scale(0.3 0.3)">
  <a xlink:href="blend_8c__incl_org.svg" target="_base">
   <rect id="button" ry="5" rx="5" y="6" x="6" height="38" width="38"
        fill="#f2f5e9" fill-opacity="0.5" stroke="#606060" stroke-width="1.0"/>
   <path id="arrow"
     d="M 11.500037,31.436501 C 11.940474,20.09759 22.043105,11.32322 32.158766,21.979434 L 37.068811,17.246167 C 37.068811,17.246167 37.088388,32 37.088388,32 L 22.160133,31.978069 C 22.160133,31.978069 26.997745,27.140456 26.997745,27.140456 C 18.528582,18.264221 13.291696,25.230495 11.500037,31.436501 z"
     style="fill:#404040;"/>
  </a>
 </g>
</svg>

<style type='text/css'>
<![CDATA[
[data-mouse-over-selected='false'] { opacity: 0.7; }
[data-mouse-over-selected='true']  { opacity: 1.0; }
]]>
</style>
<script type="application/ecmascript"><![CDATA[
document.addEventListener('DOMContentLoaded', (event) => {
  highlightEdges();
  highlightAdjacentNodes();
});
]]></script>
</svg>
