<?xml version="1.0" encoding="UTF-8" standalone="no"?>
<!DOCTYPE svg PUBLIC "-//W3C//DTD SVG 1.1//EN"
 "http://www.w3.org/Graphics/SVG/1.1/DTD/svg11.dtd">
<!-- Generated by graphviz version 2.43.0 (0)
 -->
<!-- Title: include/break.h Pages: 1 -->
<!--zoomable 302 -->

<svg id="main" version="1.1" xmlns="http://www.w3.org/2000/svg" xmlns:xlink="http://www.w3.org/1999/xlink" xml:space="preserve" onload="init(evt)">
<style type="text/css"><![CDATA[
.node, .edge {opacity: 0.7;}
.node.selected, .edge.selected {opacity: 1;}
.edge:hover path { stroke: red; }
.edge:hover polygon { stroke: red; fill: red; }
]]></style>

<defs>
  <circle id="rim" cx="0" cy="0" r="7"/>
  <circle id="rim2" cx="0" cy="0" r="3.5"/>
  <g id="zoomPlus">
    <use xlink:href="#rim" fill="#404040"><set attributeName="fill" to="#808080" begin="zoomplus.mouseover" end="zoomplus.mouseout"/></use>
    <path d="M-4,0h8M0,-4v8" fill="none" stroke="white" stroke-width="1.5" pointer-events="none"/>
  </g>
  <g id="zoomMin">
    <use xlink:href="#rim" fill="#404040"><set attributeName="fill" to="#808080" begin="zoomminus.mouseover" end="zoomminus.mouseout"/></use>
    <path d="M-4,0h8" fill="none" stroke="white" stroke-width="1.5" pointer-events="none"/>
  </g>
  <g id="arrowUp" transform="translate(30 24)">
    <use xlink:href="#rim"/>
    <path pointer-events="none" fill="none" stroke="white" stroke-width="1.5" d="M0,-3.0v7 M-2.5,-0.5L0,-3.0L2.5,-0.5"/>
  </g>
  <g id="arrowRight" transform="rotate(90) translate(36 -43)">
    <use xlink:href="#rim"/>
    <path pointer-events="none" fill="none" stroke="white" stroke-width="1.5" d="M0,-3.0v7 M-2.5,-0.5L0,-3.0L2.5,-0.5"/>
  </g>
  <g id="arrowDown" transform="rotate(180) translate(-30 -48)">
    <use xlink:href="#rim"/>
    <path pointer-events="none" fill="none" stroke="white" stroke-width="1.5" d="M0,-3.0v7 M-2.5,-0.5L0,-3.0L2.5,-0.5"/>
  </g>
  <g id="arrowLeft" transform="rotate(270) translate(-36 17)">
    <use xlink:href="#rim"/>
    <path pointer-events="none" fill="none" stroke="white" stroke-width="1.5" d="M0,-3.0v7 M-2.5,-0.5L0,-3.0L2.5,-0.5"/>
  </g>
  <g id="resetDef">
    <use xlink:href="#rim2" fill="#404040"><set attributeName="fill" to="#808080" begin="reset.mouseover" end="reset.mouseout"/></use>
  </g>
</defs>
<script type="application/ecmascript">
var viewWidth = 1530;
var viewHeight = 302;
var sectionId = 'dynsection-1';
</script>
<script type="application/ecmascript" xlink:href="svg.min.js"/>
<svg id="graph" class="graph">
<g id="viewport">
<title>include/break.h</title>
<!-- Node1 -->
<g id="Node000001" class="node">
<title>Node1</title>
<g id="a_Node000001"><a xlink:title=" ">
<polygon fill="#999999" stroke="#666666" points="1166.5,-294 1074.5,-294 1074.5,-275 1166.5,-275 1166.5,-294"/>
<text text-anchor="middle" x="1120.5" y="-282" font-family="Helvetica,sans-Serif" font-size="10.00">include/break.h</text>
</a>
</g>
</g>
<!-- Node2 -->
<g id="Node000002" class="node">
<title>Node2</title>
<g id="a_Node000002"><a xlink:href="alarm_8h.html" target="_top" xlink:title="Alarm system.">
<polygon fill="white" stroke="#666666" points="606.5,-239 514.5,-239 514.5,-220 606.5,-220 606.5,-239"/>
<text text-anchor="middle" x="560.5" y="-227" font-family="Helvetica,sans-Serif" font-size="10.00">include/alarm.h</text>
</a>
</g>
</g>
<!-- Node1&#45;&gt;Node2 -->
<g id="edge1_Node000001_Node000002" class="edge">
<title>Node1&#45;&gt;Node2</title>
<g id="a_edge1_Node000001_Node000002"><a xlink:title=" ">
<path fill="none" stroke="#63b8ff" d="M1064.22,-278.17C953.46,-267.69 709.06,-244.56 606.86,-234.89"/>
<polygon fill="#63b8ff" stroke="#63b8ff" points="1063.91,-281.66 1074.2,-279.12 1064.57,-274.69 1063.91,-281.66"/>
</a>
</g>
</g>
<!-- Node25 -->
<g id="Node000025" class="node">
<title>Node25</title>
<g id="a_Node000025"><a xlink:href="dartgun_8h.html" target="_top" xlink:title=" ">
<polygon fill="white" stroke="#666666" points="1063,-239 962,-239 962,-220 1063,-220 1063,-239"/>
<text text-anchor="middle" x="1012.5" y="-227" font-family="Helvetica,sans-Serif" font-size="10.00">include/dartgun.h</text>
</a>
</g>
</g>
<!-- Node1&#45;&gt;Node25 -->
<g id="edge27_Node000001_Node000025" class="edge">
<title>Node1&#45;&gt;Node25</title>
<g id="a_edge27_Node000001_Node000025"><a xlink:title=" ">
<path fill="none" stroke="#63b8ff" d="M1094.01,-270.5C1074.14,-260.75 1047.5,-247.68 1030.17,-239.17"/>
<polygon fill="#63b8ff" stroke="#63b8ff" points="1092.63,-273.72 1103.15,-274.98 1095.71,-267.44 1092.63,-273.72"/>
</a>
</g>
</g>
<!-- Node27 -->
<g id="Node000027" class="node">
<title>Node27</title>
<g id="a_Node000027"><a xlink:href="lgn_8h.html" target="_top" xlink:title=" ">
<polygon fill="white" stroke="#666666" points="1160,-239 1081,-239 1081,-220 1160,-220 1160,-239"/>
<text text-anchor="middle" x="1120.5" y="-227" font-family="Helvetica,sans-Serif" font-size="10.00">include/lgn.h</text>
</a>
</g>
</g>
<!-- Node1&#45;&gt;Node27 -->
<g id="edge29_Node000001_Node000027" class="edge">
<title>Node1&#45;&gt;Node27</title>
<g id="a_edge29_Node000001_Node000027"><a xlink:title=" ">
<path fill="none" stroke="#63b8ff" d="M1120.5,-264.66C1120.5,-255.93 1120.5,-245.99 1120.5,-239.09"/>
<polygon fill="#63b8ff" stroke="#63b8ff" points="1117,-264.75 1120.5,-274.75 1124,-264.75 1117,-264.75"/>
</a>
</g>
</g>
<!-- Node29 -->
<g id="Node000029" class="node">
<title>Node29</title>
<g id="a_Node000029"><a xlink:href="stepcane_8h.html" target="_top" xlink:title=" ">
<polygon fill="white" stroke="#666666" points="1286.5,-239 1178.5,-239 1178.5,-220 1286.5,-220 1286.5,-239"/>
<text text-anchor="middle" x="1232.5" y="-227" font-family="Helvetica,sans-Serif" font-size="10.00">include/stepcane.h</text>
</a>
</g>
</g>
<!-- Node1&#45;&gt;Node29 -->
<g id="edge31_Node000001_Node000029" class="edge">
<title>Node1&#45;&gt;Node29</title>
<g id="a_edge31_Node000001_Node000029"><a xlink:title=" ">
<path fill="none" stroke="#63b8ff" d="M1147.69,-270.63C1168.32,-260.87 1196.12,-247.71 1214.18,-239.17"/>
<polygon fill="#63b8ff" stroke="#63b8ff" points="1146.04,-267.54 1138.49,-274.98 1149.03,-273.87 1146.04,-267.54"/>
</a>
</g>
</g>
<!-- Node35 -->
<g id="Node000035" class="node">
<title>Node35</title>
<g id="a_Node000035"><a xlink:href="break_8c.html" target="_top" xlink:title=" ">
<polygon fill="white" stroke="#666666" points="1390,-239 1305,-239 1305,-220 1390,-220 1390,-239"/>
<text text-anchor="middle" x="1347.5" y="-227" font-family="Helvetica,sans-Serif" font-size="10.00">src/P2/break.c</text>
</a>
</g>
</g>
<!-- Node1&#45;&gt;Node35 -->
<g id="edge37_Node000001_Node000035" class="edge">
<title>Node1&#45;&gt;Node35</title>
<g id="a_edge37_Node000001_Node000035"><a xlink:title=" ">
<path fill="none" stroke="#63b8ff" d="M1166.8,-272.69C1209.33,-262.76 1271.53,-248.24 1310.74,-239.08"/>
<polygon fill="#63b8ff" stroke="#63b8ff" points="1165.91,-269.3 1156.97,-274.98 1167.51,-276.12 1165.91,-269.3"/>
</a>
</g>
</g>
<!-- Node3 -->
<g id="Node000003" class="node">
<title>Node3</title>
<g id="a_Node000003"><a xlink:href="sensor_8h.html" target="_top" xlink:title=" ">
<polygon fill="white" stroke="#666666" points="210,-184 115,-184 115,-165 210,-165 210,-184"/>
<text text-anchor="middle" x="162.5" y="-172" font-family="Helvetica,sans-Serif" font-size="10.00">include/sensor.h</text>
</a>
</g>
</g>
<!-- Node2&#45;&gt;Node3 -->
<g id="edge2_Node000002_Node000003" class="edge">
<title>Node2&#45;&gt;Node3</title>
<g id="a_edge2_Node000002_Node000003"><a xlink:title=" ">
<path fill="none" stroke="#63b8ff" d="M504.25,-221.01C425.6,-210.54 284.12,-191.7 210.29,-181.86"/>
<polygon fill="#63b8ff" stroke="#63b8ff" points="504.08,-224.52 514.46,-222.37 505.01,-217.58 504.08,-224.52"/>
</a>
</g>
</g>
<!-- Node4 -->
<g id="Node000004" class="node">
<title>Node4</title>
<g id="a_Node000004"><a xlink:href="sensor_8c.html" target="_top" xlink:title=" ">
<polygon fill="white" stroke="#666666" points="89,-129 0,-129 0,-110 89,-110 89,-129"/>
<text text-anchor="middle" x="44.5" y="-117" font-family="Helvetica,sans-Serif" font-size="10.00">src/P2/sensor.c</text>
</a>
</g>
</g>
<!-- Node2&#45;&gt;Node4 -->
<g id="edge26_Node000002_Node000004" class="edge">
<title>Node2&#45;&gt;Node4</title>
<g id="a_edge26_Node000002_Node000004"><a xlink:title=" ">
<path fill="none" stroke="#63b8ff" d="M509.5,-217.82C407.19,-196.41 178.76,-148.6 85.43,-129.07"/>
<polygon fill="#63b8ff" stroke="#63b8ff" points="509.07,-221.31 519.58,-219.94 510.51,-214.46 509.07,-221.31"/>
</a>
</g>
</g>
<!-- Node5 -->
<g id="Node000005" class="node">
<title>Node5</title>
<g id="a_Node000005"><a xlink:href="stepguard_8h.html" target="_top" xlink:title=" ">
<polygon fill="white" stroke="#666666" points="617,-184 504,-184 504,-165 617,-165 617,-184"/>
<text text-anchor="middle" x="560.5" y="-172" font-family="Helvetica,sans-Serif" font-size="10.00">include/stepguard.h</text>
</a>
</g>
</g>
<!-- Node2&#45;&gt;Node5 -->
<g id="edge4_Node000002_Node000005" class="edge">
<title>Node2&#45;&gt;Node5</title>
<g id="a_edge4_Node000002_Node000005"><a xlink:title=" ">
<path fill="none" stroke="#63b8ff" d="M560.5,-209.66C560.5,-200.93 560.5,-190.99 560.5,-184.09"/>
<polygon fill="#63b8ff" stroke="#63b8ff" points="557,-209.75 560.5,-219.75 564,-209.75 557,-209.75"/>
</a>
</g>
</g>
<!-- Node24 -->
<g id="Node000024" class="node">
<title>Node24</title>
<g id="a_Node000024"><a xlink:href="alarm_8c.html" target="_top" xlink:title=" ">
<polygon fill="white" stroke="#666666" points="721.5,-184 635.5,-184 635.5,-165 721.5,-165 721.5,-184"/>
<text text-anchor="middle" x="678.5" y="-172" font-family="Helvetica,sans-Serif" font-size="10.00">src/P2/alarm.c</text>
</a>
</g>
</g>
<!-- Node2&#45;&gt;Node24 -->
<g id="edge25_Node000002_Node000024" class="edge">
<title>Node2&#45;&gt;Node24</title>
<g id="a_edge25_Node000002_Node000024"><a xlink:title=" ">
<path fill="none" stroke="#63b8ff" d="M588.85,-215.77C610.62,-205.99 640.09,-192.75 659.2,-184.17"/>
<polygon fill="#63b8ff" stroke="#63b8ff" points="587.15,-212.69 579.46,-219.98 590.01,-219.08 587.15,-212.69"/>
</a>
</g>
</g>
<!-- Node3&#45;&gt;Node4 -->
<g id="edge3_Node000003_Node000004" class="edge">
<title>Node3&#45;&gt;Node4</title>
<g id="a_edge3_Node000003_Node000004"><a xlink:title=" ">
<path fill="none" stroke="#63b8ff" d="M134.15,-160.77C112.38,-150.99 82.91,-137.75 63.8,-129.17"/>
<polygon fill="#63b8ff" stroke="#63b8ff" points="132.99,-164.08 143.54,-164.98 135.85,-157.69 132.99,-164.08"/>
</a>
</g>
</g>
<!-- Node6 -->
<g id="Node000006" class="node">
<title>Node6</title>
<g id="a_Node000006"><a xlink:href="crusher_8h.html" target="_top" xlink:title=" ">
<polygon fill="white" stroke="#666666" points="206,-129 107,-129 107,-110 206,-110 206,-129"/>
<text text-anchor="middle" x="156.5" y="-117" font-family="Helvetica,sans-Serif" font-size="10.00">include/crusher.h</text>
</a>
</g>
</g>
<!-- Node5&#45;&gt;Node6 -->
<g id="edge5_Node000005_Node000006" class="edge">
<title>Node5&#45;&gt;Node6</title>
<g id="a_edge5_Node000005_Node000006"><a xlink:title=" ">
<path fill="none" stroke="#63b8ff" d="M493.86,-165.28C424.15,-156.6 311.57,-142.35 214.5,-129 211.78,-128.63 208.98,-128.24 206.17,-127.84"/>
<polygon fill="#63b8ff" stroke="#63b8ff" points="493.47,-168.76 503.82,-166.52 494.33,-161.81 493.47,-168.76"/>
</a>
</g>
</g>
<!-- Node8 -->
<g id="Node000008" class="node">
<title>Node8</title>
<g id="a_Node000008"><a xlink:href="gomer_8h.html" target="_top" xlink:title=" ">
<polygon fill="white" stroke="#666666" points="319,-129 224,-129 224,-110 319,-110 319,-129"/>
<text text-anchor="middle" x="271.5" y="-117" font-family="Helvetica,sans-Serif" font-size="10.00">include/gomer.h</text>
</a>
</g>
</g>
<!-- Node5&#45;&gt;Node8 -->
<g id="edge7_Node000005_Node000008" class="edge">
<title>Node5&#45;&gt;Node8</title>
<g id="a_edge7_Node000005_Node000008"><a xlink:title=" ">
<path fill="none" stroke="#63b8ff" d="M503.94,-163.13C449.76,-153.19 368.96,-138.37 318.3,-129.08"/>
<polygon fill="#63b8ff" stroke="#63b8ff" points="503.6,-166.62 514.07,-164.98 504.86,-159.74 503.6,-166.62"/>
</a>
</g>
</g>
<!-- Node11 -->
<g id="Node000011" class="node">
<title>Node11</title>
<g id="a_Node000011"><a xlink:href="gomer_8c.html" target="_top" xlink:title=" ">
<polygon fill="white" stroke="#666666" points="391.5,-74 303.5,-74 303.5,-55 391.5,-55 391.5,-74"/>
<text text-anchor="middle" x="347.5" y="-62" font-family="Helvetica,sans-Serif" font-size="10.00">src/P2/gomer.c</text>
</a>
</g>
</g>
<!-- Node5&#45;&gt;Node11 -->
<g id="edge22_Node000005_Node000011" class="edge">
<title>Node5&#45;&gt;Node11</title>
<g id="a_edge22_Node000005_Node000011"><a xlink:title=" ">
<path fill="none" stroke="#63b8ff" d="M493.66,-165.41C445.12,-158.24 384.86,-146.2 366.5,-129 351.05,-114.52 347.99,-88.05 347.5,-74.31"/>
<polygon fill="#63b8ff" stroke="#63b8ff" points="493.43,-168.91 503.82,-166.87 494.42,-161.98 493.43,-168.91"/>
</a>
</g>
</g>
<!-- Node12 -->
<g id="Node000012" class="node">
<title>Node12</title>
<g id="a_Node000012"><a xlink:href="mb_8h.html" target="_top" xlink:title="Mesa boss.">
<polygon fill="white" stroke="#666666" points="455.5,-129 375.5,-129 375.5,-110 455.5,-110 455.5,-129"/>
<text text-anchor="middle" x="415.5" y="-117" font-family="Helvetica,sans-Serif" font-size="10.00">include/mb.h</text>
</a>
</g>
</g>
<!-- Node5&#45;&gt;Node12 -->
<g id="edge11_Node000005_Node000012" class="edge">
<title>Node5&#45;&gt;Node12</title>
<g id="a_edge11_Node000005_Node000012"><a xlink:title=" ">
<path fill="none" stroke="#63b8ff" d="M527.81,-161.55C500.88,-151.71 463.34,-137.98 439.22,-129.17"/>
<polygon fill="#63b8ff" stroke="#63b8ff" points="526.61,-164.84 537.2,-164.98 529.01,-158.26 526.61,-164.84"/>
</a>
</g>
</g>
<!-- Node14 -->
<g id="Node000014" class="node">
<title>Node14</title>
<g id="a_Node000014"><a xlink:href="murray_8h.html" target="_top" xlink:title="&quot;The Murray&quot;.">
<polygon fill="white" stroke="#666666" points="571.5,-129 473.5,-129 473.5,-110 571.5,-110 571.5,-129"/>
<text text-anchor="middle" x="522.5" y="-117" font-family="Helvetica,sans-Serif" font-size="10.00">include/murray.h</text>
</a>
</g>
</g>
<!-- Node5&#45;&gt;Node14 -->
<g id="edge13_Node000005_Node000014" class="edge">
<title>Node5&#45;&gt;Node14</title>
<g id="a_edge13_Node000005_Node000014"><a xlink:title=" ">
<path fill="none" stroke="#63b8ff" d="M548.23,-156.39C541.69,-147.27 533.93,-136.45 528.66,-129.09"/>
<polygon fill="#63b8ff" stroke="#63b8ff" points="545.55,-158.66 554.23,-164.75 551.24,-154.58 545.55,-158.66"/>
</a>
</g>
</g>
<!-- Node15 -->
<g id="Node000015" class="node">
<title>Node15</title>
<g id="a_Node000015"><a xlink:href="murray_8c.html" target="_top" xlink:title=" ">
<polygon fill="white" stroke="#666666" points="603,-74 512,-74 512,-55 603,-55 603,-74"/>
<text text-anchor="middle" x="557.5" y="-62" font-family="Helvetica,sans-Serif" font-size="10.00">src/P2/murray.c</text>
</a>
</g>
</g>
<!-- Node5&#45;&gt;Node15 -->
<g id="edge23_Node000005_Node000015" class="edge">
<title>Node5&#45;&gt;Node15</title>
<g id="a_edge23_Node000005_Node000015"><a xlink:title=" ">
<path fill="none" stroke="#63b8ff" d="M571.39,-156.01C577.94,-143.35 584.34,-125.77 580.5,-110 577.25,-96.65 569.25,-82.83 563.6,-74.2"/>
<polygon fill="#63b8ff" stroke="#63b8ff" points="568.19,-154.55 566.29,-164.97 574.28,-158.01 568.19,-154.55"/>
</a>
</g>
</g>
<!-- Node16 -->
<g id="Node000016" class="node">
<title>Node16</title>
<g id="a_Node000016"><a xlink:href="puffer_8h.html" target="_top" xlink:title="Piranha Lake in Vicious Voodoo (believed to be formerly called &quot;Pufferfish Pond&quot;).">
<polygon fill="white" stroke="#666666" points="719.5,-129 627.5,-129 627.5,-110 719.5,-110 719.5,-129"/>
<text text-anchor="middle" x="673.5" y="-117" font-family="Helvetica,sans-Serif" font-size="10.00">include/puffer.h</text>
</a>
</g>
</g>
<!-- Node5&#45;&gt;Node16 -->
<g id="edge15_Node000005_Node000016" class="edge">
<title>Node5&#45;&gt;Node16</title>
<g id="a_edge15_Node000005_Node000016"><a xlink:title=" ">
<path fill="none" stroke="#63b8ff" d="M587.93,-160.63C608.75,-150.87 636.8,-137.71 655.01,-129.17"/>
<polygon fill="#63b8ff" stroke="#63b8ff" points="586.22,-157.57 578.66,-164.98 589.2,-163.91 586.22,-157.57"/>
</a>
</g>
</g>
<!-- Node18 -->
<g id="Node000018" class="node">
<title>Node18</title>
<g id="a_Node000018"><a xlink:href="sb_8h.html" target="_top" xlink:title="Snow boss.">
<polygon fill="white" stroke="#666666" points="813,-129 738,-129 738,-110 813,-110 813,-129"/>
<text text-anchor="middle" x="775.5" y="-117" font-family="Helvetica,sans-Serif" font-size="10.00">include/sb.h</text>
</a>
</g>
</g>
<!-- Node5&#45;&gt;Node18 -->
<g id="edge17_Node000005_Node000018" class="edge">
<title>Node5&#45;&gt;Node18</title>
<g id="a_edge17_Node000005_Node000018"><a xlink:title=" ">
<path fill="none" stroke="#63b8ff" d="M604.86,-162.56C645.13,-152.64 703.7,-138.2 740.69,-129.08"/>
<polygon fill="#63b8ff" stroke="#63b8ff" points="603.92,-159.19 595.04,-164.98 605.59,-165.99 603.92,-159.19"/>
</a>
</g>
</g>
<!-- Node20 -->
<g id="Node000020" class="node">
<title>Node20</title>
<g id="a_Node000020"><a xlink:href="smartguard_8h.html" target="_top" xlink:title=" ">
<polygon fill="white" stroke="#666666" points="950.5,-129 830.5,-129 830.5,-110 950.5,-110 950.5,-129"/>
<text text-anchor="middle" x="890.5" y="-117" font-family="Helvetica,sans-Serif" font-size="10.00">include/smartguard.h</text>
</a>
</g>
</g>
<!-- Node5&#45;&gt;Node20 -->
<g id="edge19_Node000005_Node000020" class="edge">
<title>Node5&#45;&gt;Node20</title>
<g id="a_edge19_Node000005_Node000020"><a xlink:title=" ">
<path fill="none" stroke="#63b8ff" d="M623.56,-163.37C685.53,-153.42 779.03,-138.4 837.34,-129.04"/>
<polygon fill="#63b8ff" stroke="#63b8ff" points="622.84,-159.94 613.52,-164.98 623.95,-166.85 622.84,-159.94"/>
</a>
</g>
</g>
<!-- Node22 -->
<g id="Node000022" class="node">
<title>Node22</title>
<g id="a_Node000022"><a xlink:href="vb_8h.html" target="_top" xlink:title="Voodoo boss.">
<polygon fill="white" stroke="#666666" points="1044.5,-129 968.5,-129 968.5,-110 1044.5,-110 1044.5,-129"/>
<text text-anchor="middle" x="1006.5" y="-117" font-family="Helvetica,sans-Serif" font-size="10.00">include/vb.h</text>
</a>
</g>
</g>
<!-- Node5&#45;&gt;Node22 -->
<g id="edge21_Node000005_Node000022" class="edge">
<title>Node5&#45;&gt;Node22</title>
<g id="a_edge21_Node000005_Node000022"><a xlink:title=" ">
<path fill="none" stroke="#63b8ff" d="M626.99,-164.97C776.01,-147.6 815.33,-149.8 959.5,-129 962.37,-128.59 965.34,-128.13 968.32,-127.64"/>
<polygon fill="#63b8ff" stroke="#63b8ff" points="626.54,-161.5 617.02,-166.14 627.36,-168.45 626.54,-161.5"/>
</a>
</g>
</g>
<!-- Node23 -->
<g id="Node000023" class="node">
<title>Node23</title>
<g id="a_Node000023"><a xlink:href="stepguard_8c.html" target="_top" xlink:title=" ">
<polygon fill="white" stroke="#666666" points="1168.5,-129 1062.5,-129 1062.5,-110 1168.5,-110 1168.5,-129"/>
<text text-anchor="middle" x="1115.5" y="-117" font-family="Helvetica,sans-Serif" font-size="10.00">src/P2/stepguard.c</text>
</a>
</g>
</g>
<!-- Node5&#45;&gt;Node23 -->
<g id="edge24_Node000005_Node000023" class="edge">
<title>Node5&#45;&gt;Node23</title>
<g id="a_edge24_Node000005_Node000023"><a xlink:title=" ">
<path fill="none" stroke="#63b8ff" d="M627.07,-164.99C817.57,-145 867.44,-149.58 1053.5,-129 1056.42,-128.68 1059.41,-128.33 1062.42,-127.96"/>
<polygon fill="#63b8ff" stroke="#63b8ff" points="626.58,-161.52 617.01,-166.06 627.32,-168.48 626.58,-161.52"/>
</a>
</g>
</g>
<!-- Node7 -->
<g id="Node000007" class="node">
<title>Node7</title>
<g id="a_Node000007"><a xlink:href="crusher_8c.html" target="_top" xlink:title=" ">
<polygon fill="white" stroke="#666666" points="191.5,-74 99.5,-74 99.5,-55 191.5,-55 191.5,-74"/>
<text text-anchor="middle" x="145.5" y="-62" font-family="Helvetica,sans-Serif" font-size="10.00">src/P2/crusher.c</text>
</a>
</g>
</g>
<!-- Node6&#45;&gt;Node7 -->
<g id="edge6_Node000006_Node000007" class="edge">
<title>Node6&#45;&gt;Node7</title>
<g id="a_edge6_Node000006_Node000007"><a xlink:title=" ">
<path fill="none" stroke="#63b8ff" d="M152.65,-99.95C150.82,-91.15 148.73,-81.06 147.28,-74.09"/>
<polygon fill="#63b8ff" stroke="#63b8ff" points="149.22,-100.67 154.68,-109.75 156.08,-99.25 149.22,-100.67"/>
</a>
</g>
</g>
<!-- Node9 -->
<g id="Node000009" class="node">
<title>Node9</title>
<g id="a_Node000009"><a xlink:href="ub_8h.html" target="_top" xlink:title="Underwater boss.">
<polygon fill="white" stroke="#666666" points="285.5,-74 209.5,-74 209.5,-55 285.5,-55 285.5,-74"/>
<text text-anchor="middle" x="247.5" y="-62" font-family="Helvetica,sans-Serif" font-size="10.00">include/ub.h</text>
</a>
</g>
</g>
<!-- Node8&#45;&gt;Node9 -->
<g id="edge8_Node000008_Node000009" class="edge">
<title>Node8&#45;&gt;Node9</title>
<g id="a_edge8_Node000008_Node000009"><a xlink:title=" ">
<path fill="none" stroke="#63b8ff" d="M263.36,-100.53C259.32,-91.6 254.62,-81.22 251.39,-74.09"/>
<polygon fill="#63b8ff" stroke="#63b8ff" points="260.22,-102.08 267.54,-109.75 266.6,-99.19 260.22,-102.08"/>
</a>
</g>
</g>
<!-- Node8&#45;&gt;Node11 -->
<g id="edge10_Node000008_Node000011" class="edge">
<title>Node8&#45;&gt;Node11</title>
<g id="a_edge10_Node000008_Node000011"><a xlink:title=" ">
<path fill="none" stroke="#63b8ff" d="M292.08,-104.15C305.81,-94.57 323.43,-82.29 335.07,-74.17"/>
<polygon fill="#63b8ff" stroke="#63b8ff" points="289.91,-101.39 283.71,-109.98 293.92,-107.14 289.91,-101.39"/>
</a>
</g>
</g>
<!-- Node10 -->
<g id="Node000010" class="node">
<title>Node10</title>
<g id="a_Node000010"><a xlink:href="ub_8c.html" target="_top" xlink:title=" ">
<polygon fill="white" stroke="#666666" points="282,-19 213,-19 213,0 282,0 282,-19"/>
<text text-anchor="middle" x="247.5" y="-7" font-family="Helvetica,sans-Serif" font-size="10.00">src/P2/ub.c</text>
</a>
</g>
</g>
<!-- Node9&#45;&gt;Node10 -->
<g id="edge9_Node000009_Node000010" class="edge">
<title>Node9&#45;&gt;Node10</title>
<g id="a_edge9_Node000009_Node000010"><a xlink:title=" ">
<path fill="none" stroke="#63b8ff" d="M247.5,-44.66C247.5,-35.93 247.5,-25.99 247.5,-19.09"/>
<polygon fill="#63b8ff" stroke="#63b8ff" points="244,-44.75 247.5,-54.75 251,-44.75 244,-44.75"/>
</a>
</g>
</g>
<!-- Node13 -->
<g id="Node000013" class="node">
<title>Node13</title>
<g id="a_Node000013"><a xlink:href="mb_8c.html" target="_top" xlink:title=" ">
<polygon fill="white" stroke="#666666" points="483,-74 410,-74 410,-55 483,-55 483,-74"/>
<text text-anchor="middle" x="446.5" y="-62" font-family="Helvetica,sans-Serif" font-size="10.00">src/P2/mb.c</text>
</a>
</g>
</g>
<!-- Node12&#45;&gt;Node13 -->
<g id="edge12_Node000012_Node000013" class="edge">
<title>Node12&#45;&gt;Node13</title>
<g id="a_edge12_Node000012_Node000013"><a xlink:title=" ">
<path fill="none" stroke="#63b8ff" d="M425.68,-101.1C430.97,-92.04 437.22,-81.37 441.48,-74.09"/>
<polygon fill="#63b8ff" stroke="#63b8ff" points="422.65,-99.35 420.62,-109.75 428.69,-102.88 422.65,-99.35"/>
</a>
</g>
</g>
<!-- Node14&#45;&gt;Node15 -->
<g id="edge14_Node000014_Node000015" class="edge">
<title>Node14&#45;&gt;Node15</title>
<g id="a_edge14_Node000014_Node000015"><a xlink:title=" ">
<path fill="none" stroke="#63b8ff" d="M533.8,-101.39C539.82,-92.27 546.97,-81.45 551.83,-74.09"/>
<polygon fill="#63b8ff" stroke="#63b8ff" points="530.87,-99.47 528.28,-109.75 536.71,-103.33 530.87,-99.47"/>
</a>
</g>
</g>
<!-- Node17 -->
<g id="Node000017" class="node">
<title>Node17</title>
<g id="a_Node000017"><a xlink:href="puffer_8c.html" target="_top" xlink:title=" ">
<polygon fill="white" stroke="#666666" points="716,-74 631,-74 631,-55 716,-55 716,-74"/>
<text text-anchor="middle" x="673.5" y="-62" font-family="Helvetica,sans-Serif" font-size="10.00">src/P2/puffer.c</text>
</a>
</g>
</g>
<!-- Node16&#45;&gt;Node17 -->
<g id="edge16_Node000016_Node000017" class="edge">
<title>Node16&#45;&gt;Node17</title>
<g id="a_edge16_Node000016_Node000017"><a xlink:title=" ">
<path fill="none" stroke="#63b8ff" d="M673.5,-99.66C673.5,-90.93 673.5,-80.99 673.5,-74.09"/>
<polygon fill="#63b8ff" stroke="#63b8ff" points="670,-99.75 673.5,-109.75 677,-99.75 670,-99.75"/>
</a>
</g>
</g>
<!-- Node19 -->
<g id="Node000019" class="node">
<title>Node19</title>
<g id="a_Node000019"><a xlink:href="sb_8c.html" target="_top" xlink:title=" ">
<polygon fill="white" stroke="#666666" points="809.5,-74 741.5,-74 741.5,-55 809.5,-55 809.5,-74"/>
<text text-anchor="middle" x="775.5" y="-62" font-family="Helvetica,sans-Serif" font-size="10.00">src/P2/sb.c</text>
</a>
</g>
</g>
<!-- Node18&#45;&gt;Node19 -->
<g id="edge18_Node000018_Node000019" class="edge">
<title>Node18&#45;&gt;Node19</title>
<g id="a_edge18_Node000018_Node000019"><a xlink:title=" ">
<path fill="none" stroke="#63b8ff" d="M775.5,-99.66C775.5,-90.93 775.5,-80.99 775.5,-74.09"/>
<polygon fill="#63b8ff" stroke="#63b8ff" points="772,-99.75 775.5,-109.75 779,-99.75 772,-99.75"/>
</a>
</g>
</g>
<!-- Node21 -->
<g id="Node000021" class="node">
<title>Node21</title>
<g id="a_Node000021"><a xlink:href="smartguard_8c.html" target="_top" xlink:title=" ">
<polygon fill="white" stroke="#666666" points="947,-74 834,-74 834,-55 947,-55 947,-74"/>
<text text-anchor="middle" x="890.5" y="-62" font-family="Helvetica,sans-Serif" font-size="10.00">src/P2/smartguard.c</text>
</a>
</g>
</g>
<!-- Node20&#45;&gt;Node21 -->
<g id="edge20_Node000020_Node000021" class="edge">
<title>Node20&#45;&gt;Node21</title>
<g id="a_edge20_Node000020_Node000021"><a xlink:title=" ">
<path fill="none" stroke="#63b8ff" d="M890.5,-99.66C890.5,-90.93 890.5,-80.99 890.5,-74.09"/>
<polygon fill="#63b8ff" stroke="#63b8ff" points="887,-99.75 890.5,-109.75 894,-99.75 887,-99.75"/>
</a>
</g>
</g>
<!-- Node26 -->
<g id="Node000026" class="node">
<title>Node26</title>
<g id="a_Node000026"><a xlink:href="dartgun_8c.html" target="_top" xlink:title=" ">
<polygon fill="white" stroke="#666666" points="1060,-184 965,-184 965,-165 1060,-165 1060,-184"/>
<text text-anchor="middle" x="1012.5" y="-172" font-family="Helvetica,sans-Serif" font-size="10.00">src/P2/dartgun.c</text>
</a>
</g>
</g>
<!-- Node25&#45;&gt;Node26 -->
<g id="edge28_Node000025_Node000026" class="edge">
<title>Node25&#45;&gt;Node26</title>
<g id="a_edge28_Node000025_Node000026"><a xlink:title=" ">
<path fill="none" stroke="#63b8ff" d="M1012.5,-209.66C1012.5,-200.93 1012.5,-190.99 1012.5,-184.09"/>
<polygon fill="#63b8ff" stroke="#63b8ff" points="1009,-209.75 1012.5,-219.75 1016,-209.75 1009,-209.75"/>
</a>
</g>
</g>
<!-- Node28 -->
<g id="Node000028" class="node">
<title>Node28</title>
<g id="a_Node000028"><a xlink:href="lgn_8c.html" target="_top" xlink:title=" ">
<polygon fill="white" stroke="#666666" points="1156.5,-184 1084.5,-184 1084.5,-165 1156.5,-165 1156.5,-184"/>
<text text-anchor="middle" x="1120.5" y="-172" font-family="Helvetica,sans-Serif" font-size="10.00">src/P2/lgn.c</text>
</a>
</g>
</g>
<!-- Node27&#45;&gt;Node28 -->
<g id="edge30_Node000027_Node000028" class="edge">
<title>Node27&#45;&gt;Node28</title>
<g id="a_edge30_Node000027_Node000028"><a xlink:title=" ">
<path fill="none" stroke="#63b8ff" d="M1120.5,-209.66C1120.5,-200.93 1120.5,-190.99 1120.5,-184.09"/>
<polygon fill="#63b8ff" stroke="#63b8ff" points="1117,-209.75 1120.5,-219.75 1124,-209.75 1117,-209.75"/>
</a>
</g>
</g>
<!-- Node30 -->
<g id="Node000030" class="node">
<title>Node30</title>
<g id="a_Node000030"><a xlink:href="steprun_8h.html" target="_top" xlink:title=" ">
<polygon fill="white" stroke="#666666" points="1280,-184 1179,-184 1179,-165 1280,-165 1280,-184"/>
<text text-anchor="middle" x="1229.5" y="-172" font-family="Helvetica,sans-Serif" font-size="10.00">include/steprun.h</text>
</a>
</g>
</g>
<!-- Node29&#45;&gt;Node30 -->
<g id="edge32_Node000029_Node000030" class="edge">
<title>Node29&#45;&gt;Node30</title>
<g id="a_edge32_Node000029_Node000030"><a xlink:title=" ">
<path fill="none" stroke="#63b8ff" d="M1231.43,-209.66C1230.94,-200.93 1230.38,-190.99 1229.99,-184.09"/>
<polygon fill="#63b8ff" stroke="#63b8ff" points="1227.94,-209.96 1232,-219.75 1234.93,-209.57 1227.94,-209.96"/>
</a>
</g>
</g>
<!-- Node32 -->
<g id="Node000032" class="node">
<title>Node32</title>
<g id="a_Node000032"><a xlink:href="stepside_8h.html" target="_top" xlink:title=" ">
<polygon fill="white" stroke="#666666" points="1403,-184 1298,-184 1298,-165 1403,-165 1403,-184"/>
<text text-anchor="middle" x="1350.5" y="-172" font-family="Helvetica,sans-Serif" font-size="10.00">include/stepside.h</text>
</a>
</g>
</g>
<!-- Node29&#45;&gt;Node32 -->
<g id="edge34_Node000029_Node000032" class="edge">
<title>Node29&#45;&gt;Node32</title>
<g id="a_edge34_Node000029_Node000032"><a xlink:title=" ">
<path fill="none" stroke="#63b8ff" d="M1260.85,-215.77C1282.62,-205.99 1312.09,-192.75 1331.2,-184.17"/>
<polygon fill="#63b8ff" stroke="#63b8ff" points="1259.15,-212.69 1251.46,-219.98 1262.01,-219.08 1259.15,-212.69"/>
</a>
</g>
</g>
<!-- Node34 -->
<g id="Node000034" class="node">
<title>Node34</title>
<g id="a_Node000034"><a xlink:href="stepcane_8c.html" target="_top" xlink:title=" ">
<polygon fill="white" stroke="#666666" points="1522,-184 1421,-184 1421,-165 1522,-165 1522,-184"/>
<text text-anchor="middle" x="1471.5" y="-172" font-family="Helvetica,sans-Serif" font-size="10.00">src/P2/stepcane.c</text>
</a>
</g>
</g>
<!-- Node29&#45;&gt;Node34 -->
<g id="edge36_Node000029_Node000034" class="edge">
<title>Node29&#45;&gt;Node34</title>
<g id="a_edge36_Node000029_Node000034"><a xlink:title=" ">
<path fill="none" stroke="#63b8ff" d="M1280.68,-217.82C1325.47,-207.88 1391.34,-193.28 1432.8,-184.08"/>
<polygon fill="#63b8ff" stroke="#63b8ff" points="1279.9,-214.4 1270.9,-219.98 1281.42,-221.24 1279.9,-214.4"/>
</a>
</g>
</g>
<!-- Node31 -->
<g id="Node000031" class="node">
<title>Node31</title>
<g id="a_Node000031"><a xlink:href="steprun_8c.html" target="_top" xlink:title=" ">
<polygon fill="white" stroke="#666666" points="1280.5,-129 1186.5,-129 1186.5,-110 1280.5,-110 1280.5,-129"/>
<text text-anchor="middle" x="1233.5" y="-117" font-family="Helvetica,sans-Serif" font-size="10.00">src/P2/steprun.c</text>
</a>
</g>
</g>
<!-- Node30&#45;&gt;Node31 -->
<g id="edge33_Node000030_Node000031" class="edge">
<title>Node30&#45;&gt;Node31</title>
<g id="a_edge33_Node000030_Node000031"><a xlink:title=" ">
<path fill="none" stroke="#63b8ff" d="M1230.92,-154.66C1231.58,-145.93 1232.33,-135.99 1232.85,-129.09"/>
<polygon fill="#63b8ff" stroke="#63b8ff" points="1227.42,-154.51 1230.16,-164.75 1234.4,-155.04 1227.42,-154.51"/>
</a>
</g>
</g>
<!-- Node33 -->
<g id="Node000033" class="node">
<title>Node33</title>
<g id="a_Node000033"><a xlink:href="stepside_8c.html" target="_top" xlink:title=" ">
<polygon fill="white" stroke="#666666" points="1399.5,-129 1301.5,-129 1301.5,-110 1399.5,-110 1399.5,-129"/>
<text text-anchor="middle" x="1350.5" y="-117" font-family="Helvetica,sans-Serif" font-size="10.00">src/P2/stepside.c</text>
</a>
</g>
</g>
<!-- Node32&#45;&gt;Node33 -->
<g id="edge35_Node000032_Node000033" class="edge">
<title>Node32&#45;&gt;Node33</title>
<g id="a_edge35_Node000032_Node000033"><a xlink:title=" ">
<path fill="none" stroke="#63b8ff" d="M1350.5,-154.66C1350.5,-145.93 1350.5,-135.99 1350.5,-129.09"/>
<polygon fill="#63b8ff" stroke="#63b8ff" points="1347,-154.75 1350.5,-164.75 1354,-154.75 1347,-154.75"/>
</a>
</g>
</g>
</g>
</svg>

<g id="navigator" transform="translate(0 0)" fill="#404254">
  <rect fill="#f2f5e9" fill-opacity="0.5" stroke="#606060" stroke-width=".5" x="0" y="0" width="60" height="60"/>
  <use id="zoomplus" xlink:href="#zoomPlus" x="17" y="9" onmousedown="handleZoom(evt,'in')"/>
  <use id="zoomminus" xlink:href="#zoomMin" x="42" y="9" onmousedown="handleZoom(evt,'out')"/>
  <use id="reset" xlink:href="#resetDef" x="30" y="36" onmousedown="handleReset()"/>
   <use id="arrowup" xlink:href="#arrowUp" x="0" y="0" onmousedown="handlePan(0,-1)"/>
  <use id="arrowright" xlink:href="#arrowRight" x="0" y="0" onmousedown="handlePan(1,0)"/>
  <use id="arrowdown" xlink:href="#arrowDown" x="0" y="0" onmousedown="handlePan(0,1)"/>
  <use id="arrowleft" xlink:href="#arrowLeft" x="0" y="0" onmousedown="handlePan(-1,0)"/>
</g>
<svg viewBox="0 0 15 15" width="100%" height="30px" preserveAspectRatio="xMaxYMin meet">
 <g id="arrow_out" transform="scale(0.3 0.3)">
  <a xlink:href="break_8h__dep__incl_org.svg" target="_base">
   <rect id="button" ry="5" rx="5" y="6" x="6" height="38" width="38"
        fill="#f2f5e9" fill-opacity="0.5" stroke="#606060" stroke-width="1.0"/>
   <path id="arrow"
     d="M 11.500037,31.436501 C 11.940474,20.09759 22.043105,11.32322 32.158766,21.979434 L 37.068811,17.246167 C 37.068811,17.246167 37.088388,32 37.088388,32 L 22.160133,31.978069 C 22.160133,31.978069 26.997745,27.140456 26.997745,27.140456 C 18.528582,18.264221 13.291696,25.230495 11.500037,31.436501 z"
     style="fill:#404040;"/>
  </a>
 </g>
</svg>

<style type='text/css'>
<![CDATA[
[data-mouse-over-selected='false'] { opacity: 0.7; }
[data-mouse-over-selected='true']  { opacity: 1.0; }
]]>
</style>
<script type="application/ecmascript"><![CDATA[
document.addEventListener('DOMContentLoaded', (event) => {
  highlightEdges();
  highlightAdjacentNodes();
});
]]></script>
</svg>
