<?xml version="1.0" encoding="UTF-8" standalone="no"?>
<!DOCTYPE svg PUBLIC "-//W3C//DTD SVG 1.1//EN"
 "http://www.w3.org/Graphics/SVG/1.1/DTD/svg11.dtd">
<!-- Generated by graphviz version 2.43.0 (0)
 -->
<!-- Title: include/brx.h Pages: 1 -->
<svg width="776pt" height="137pt"
 viewBox="0.00 0.00 776.00 137.00" xmlns="http://www.w3.org/2000/svg" xmlns:xlink="http://www.w3.org/1999/xlink">
<g id="graph0" class="graph" transform="scale(1 1) rotate(0) translate(4 133)">
<title>include/brx.h</title>
<!-- Node1 -->
<g id="Node000001" class="node">
<title>Node1</title>
<g id="a_Node000001"><a xlink:title="Binary Resource Archive.">
<polygon fill="#999999" stroke="#666666" points="407,-129 327,-129 327,-110 407,-110 407,-129"/>
<text text-anchor="middle" x="367" y="-117" font-family="Helvetica,sans-Serif" font-size="10.00">include/brx.h</text>
</a>
</g>
</g>
<!-- Node2 -->
<g id="Node000002" class="node">
<title>Node2</title>
<g id="a_Node000002"><a xlink:href="spliceobj_8h.html" target="_top" xlink:title="Splice objects.">
<polygon fill="white" stroke="#666666" points="168.5,-74 61.5,-74 61.5,-55 168.5,-55 168.5,-74"/>
<text text-anchor="middle" x="115" y="-62" font-family="Helvetica,sans-Serif" font-size="10.00">include/spliceobj.h</text>
</a>
</g>
</g>
<!-- Node1&#45;&gt;Node2 -->
<g id="edge1_Node000001_Node000002" class="edge">
<title>Node1&#45;&gt;Node2</title>
<g id="a_edge1_Node000001_Node000002"><a xlink:title=" ">
<path fill="none" stroke="#63b8ff" d="M316.75,-107.93C269.4,-97.97 199.35,-83.24 155.48,-74.01"/>
<polygon fill="#63b8ff" stroke="#63b8ff" points="316.28,-111.41 326.79,-110.04 317.73,-104.56 316.28,-111.41"/>
</a>
</g>
</g>
<!-- Node3 -->
<g id="Node000003" class="node">
<title>Node3</title>
<g id="a_Node000003"><a xlink:href="lo_8c.html" target="_top" xlink:title=" ">
<polygon fill="white" stroke="#666666" points="66,-19 0,-19 0,0 66,0 66,-19"/>
<text text-anchor="middle" x="33" y="-7" font-family="Helvetica,sans-Serif" font-size="10.00">src/P2/lo.c</text>
</a>
</g>
</g>
<!-- Node1&#45;&gt;Node3 -->
<g id="edge5_Node000001_Node000003" class="edge">
<title>Node1&#45;&gt;Node3</title>
<g id="a_edge5_Node000001_Node000003"><a xlink:title=" ">
<path fill="none" stroke="#63b8ff" d="M316.83,-117.73C238.44,-115.5 91.84,-106.93 53,-74 36.6,-60.1 33.47,-32.88 32.99,-19.03"/>
<polygon fill="#63b8ff" stroke="#63b8ff" points="316.88,-121.23 326.97,-117.99 317.06,-114.23 316.88,-121.23"/>
</a>
</g>
</g>
<!-- Node5 -->
<g id="Node000005" class="node">
<title>Node5</title>
<g id="a_Node000005"><a xlink:href="brx_8c.html" target="_top" xlink:title=" ">
<polygon fill="white" stroke="#666666" points="259.5,-74 186.5,-74 186.5,-55 259.5,-55 259.5,-74"/>
<text text-anchor="middle" x="223" y="-62" font-family="Helvetica,sans-Serif" font-size="10.00">src/P2/brx.c</text>
</a>
</g>
</g>
<!-- Node1&#45;&gt;Node5 -->
<g id="edge4_Node000001_Node000005" class="edge">
<title>Node1&#45;&gt;Node5</title>
<g id="a_edge4_Node000001_Node000005"><a xlink:title=" ">
<path fill="none" stroke="#63b8ff" d="M334.18,-106.42C307.47,-96.59 270.4,-82.95 246.56,-74.17"/>
<polygon fill="#63b8ff" stroke="#63b8ff" points="333.27,-109.82 343.86,-109.98 335.69,-103.25 333.27,-109.82"/>
</a>
</g>
</g>
<!-- Node6 -->
<g id="Node000006" class="node">
<title>Node6</title>
<g id="a_Node000006"><a xlink:href="main_8c.html" target="_top" xlink:title=" ">
<polygon fill="white" stroke="#666666" points="360,-74 278,-74 278,-55 360,-55 360,-74"/>
<text text-anchor="middle" x="319" y="-62" font-family="Helvetica,sans-Serif" font-size="10.00">src/P2/main.c</text>
</a>
</g>
</g>
<!-- Node1&#45;&gt;Node6 -->
<g id="edge6_Node000001_Node000006" class="edge">
<title>Node1&#45;&gt;Node6</title>
<g id="a_edge6_Node000001_Node000006"><a xlink:title=" ">
<path fill="none" stroke="#63b8ff" d="M352.27,-102.24C343.86,-92.95 333.65,-81.68 326.78,-74.09"/>
<polygon fill="#63b8ff" stroke="#63b8ff" points="349.77,-104.69 359.07,-109.75 354.96,-99.99 349.77,-104.69"/>
</a>
</g>
</g>
<!-- Node7 -->
<g id="Node000007" class="node">
<title>Node7</title>
<g id="a_Node000007"><a xlink:href="pnt_8c.html" target="_top" xlink:title=" ">
<polygon fill="white" stroke="#666666" points="451.5,-74 378.5,-74 378.5,-55 451.5,-55 451.5,-74"/>
<text text-anchor="middle" x="415" y="-62" font-family="Helvetica,sans-Serif" font-size="10.00">src/P2/pnt.c</text>
</a>
</g>
</g>
<!-- Node1&#45;&gt;Node7 -->
<g id="edge7_Node000001_Node000007" class="edge">
<title>Node1&#45;&gt;Node7</title>
<g id="a_edge7_Node000001_Node000007"><a xlink:title=" ">
<path fill="none" stroke="#63b8ff" d="M381.73,-102.24C390.14,-92.95 400.35,-81.68 407.22,-74.09"/>
<polygon fill="#63b8ff" stroke="#63b8ff" points="379.04,-99.99 374.93,-109.75 384.23,-104.69 379.04,-99.99"/>
</a>
</g>
</g>
<!-- Node8 -->
<g id="Node000008" class="node">
<title>Node8</title>
<g id="a_Node000008"><a xlink:href="transition_8c.html" target="_top" xlink:title=" ">
<polygon fill="white" stroke="#666666" points="574,-74 470,-74 470,-55 574,-55 574,-74"/>
<text text-anchor="middle" x="522" y="-62" font-family="Helvetica,sans-Serif" font-size="10.00">src/P2/transition.c</text>
</a>
</g>
</g>
<!-- Node1&#45;&gt;Node8 -->
<g id="edge8_Node000001_Node000008" class="edge">
<title>Node1&#45;&gt;Node8</title>
<g id="a_edge8_Node000001_Node000008"><a xlink:title=" ">
<path fill="none" stroke="#63b8ff" d="M401.6,-106.67C430.5,-96.79 471.03,-82.93 496.9,-74.08"/>
<polygon fill="#63b8ff" stroke="#63b8ff" points="400.23,-103.44 391.9,-109.98 402.5,-110.06 400.23,-103.44"/>
</a>
</g>
</g>
<!-- Node9 -->
<g id="Node000009" class="node">
<title>Node9</title>
<g id="a_Node000009"><a xlink:href="vis_8c.html" target="_top" xlink:title=" ">
<polygon fill="white" stroke="#666666" points="663.5,-74 592.5,-74 592.5,-55 663.5,-55 663.5,-74"/>
<text text-anchor="middle" x="628" y="-62" font-family="Helvetica,sans-Serif" font-size="10.00">src/P2/vis.c</text>
</a>
</g>
</g>
<!-- Node1&#45;&gt;Node9 -->
<g id="edge9_Node000001_Node000009" class="edge">
<title>Node1&#45;&gt;Node9</title>
<g id="a_edge9_Node000001_Node000009"><a xlink:title=" ">
<path fill="none" stroke="#63b8ff" d="M417.1,-108.33C468.45,-97.9 547.02,-81.94 592.36,-72.74"/>
<polygon fill="#63b8ff" stroke="#63b8ff" points="416.31,-104.91 407.21,-110.33 417.71,-111.77 416.31,-104.91"/>
</a>
</g>
</g>
<!-- Node10 -->
<g id="Node000010" class="node">
<title>Node10</title>
<g id="a_Node000010"><a xlink:href="xform_8c.html" target="_top" xlink:title=" ">
<polygon fill="white" stroke="#666666" points="768,-74 682,-74 682,-55 768,-55 768,-74"/>
<text text-anchor="middle" x="725" y="-62" font-family="Helvetica,sans-Serif" font-size="10.00">src/P2/xform.c</text>
</a>
</g>
</g>
<!-- Node1&#45;&gt;Node10 -->
<g id="edge10_Node000001_Node000010" class="edge">
<title>Node1&#45;&gt;Node10</title>
<g id="a_edge10_Node000001_Node000010"><a xlink:title=" ">
<path fill="none" stroke="#63b8ff" d="M417.2,-111.48C477.85,-102.93 582.97,-87.9 673,-74 675.89,-73.55 678.88,-73.09 681.88,-72.61"/>
<polygon fill="#63b8ff" stroke="#63b8ff" points="416.55,-108.03 407.13,-112.89 417.52,-114.97 416.55,-108.03"/>
</a>
</g>
</g>
<!-- Node2&#45;&gt;Node3 -->
<g id="edge2_Node000002_Node000003" class="edge">
<title>Node2&#45;&gt;Node3</title>
<g id="a_edge2_Node000002_Node000003"><a xlink:title=" ">
<path fill="none" stroke="#63b8ff" d="M93.22,-49.42C78.34,-39.81 59.09,-27.37 46.41,-19.17"/>
<polygon fill="#63b8ff" stroke="#63b8ff" points="91.53,-52.5 101.83,-54.98 95.33,-46.62 91.53,-52.5"/>
</a>
</g>
</g>
<!-- Node4 -->
<g id="Node000004" class="node">
<title>Node4</title>
<g id="a_Node000004"><a xlink:href="spliceobj_8c.html" target="_top" xlink:title=" ">
<polygon fill="white" stroke="#666666" points="185.5,-19 84.5,-19 84.5,0 185.5,0 185.5,-19"/>
<text text-anchor="middle" x="135" y="-7" font-family="Helvetica,sans-Serif" font-size="10.00">src/P2/spliceobj.c</text>
</a>
</g>
</g>
<!-- Node2&#45;&gt;Node4 -->
<g id="edge3_Node000002_Node000004" class="edge">
<title>Node2&#45;&gt;Node4</title>
<g id="a_edge3_Node000002_Node000004"><a xlink:title=" ">
<path fill="none" stroke="#63b8ff" d="M121.89,-45.24C125.24,-36.37 129.1,-26.14 131.76,-19.09"/>
<polygon fill="#63b8ff" stroke="#63b8ff" points="118.56,-44.16 118.3,-54.75 125.11,-46.63 118.56,-44.16"/>
</a>
</g>
</g>
</g>
</svg>
