<?xml version="1.0" encoding="UTF-8" standalone="no"?>
<!DOCTYPE svg PUBLIC "-//W3C//DTD SVG 1.1//EN"
 "http://www.w3.org/Graphics/SVG/1.1/DTD/svg11.dtd">
<!-- Generated by graphviz version 2.43.0 (0)
 -->
<!-- Title: include/cat.h Pages: 1 -->
<svg width="645pt" height="364pt"
 viewBox="0.00 0.00 644.88 364.00" xmlns="http://www.w3.org/2000/svg" xmlns:xlink="http://www.w3.org/1999/xlink">
<g id="graph0" class="graph" transform="scale(1 1) rotate(0) translate(4 360)">
<title>include/cat.h</title>
<polygon fill="white" stroke="transparent" points="-4,4 -4,-360 640.88,-360 640.88,4 -4,4"/>
<!-- Node1 -->
<g id="node1" class="node">
<title>Node1</title>
<g id="a_node1"><a xlink:title="Catalog.">
<polygon fill="#bfbfbf" stroke="black" points="186,-336.5 186,-355.5 265,-355.5 265,-336.5 186,-336.5"/>
<text text-anchor="middle" x="225.5" y="-343.5" font-family="Helvetica,sans-Serif" font-size="10.00">include/cat.h</text>
</a>
</g>
</g>
<!-- Node2 -->
<g id="node2" class="node">
<title>Node2</title>
<g id="a_node2"><a xlink:href="bis_8h.html" target="_top" xlink:title="Binary Input Stream.">
<polygon fill="white" stroke="black" points="186.5,-280.5 186.5,-299.5 264.5,-299.5 264.5,-280.5 186.5,-280.5"/>
<text text-anchor="middle" x="225.5" y="-287.5" font-family="Helvetica,sans-Serif" font-size="10.00">include/bis.h</text>
</a>
</g>
</g>
<!-- Node1&#45;&gt;Node2 -->
<g id="edge1" class="edge">
<title>Node1&#45;&gt;Node2</title>
<path fill="none" stroke="midnightblue" d="M225.5,-325.8C225.5,-316.91 225.5,-306.78 225.5,-299.75"/>
<polygon fill="midnightblue" stroke="midnightblue" points="222,-326.08 225.5,-336.08 229,-326.08 222,-326.08"/>
</g>
<!-- Node3 -->
<g id="node3" class="node">
<title>Node3</title>
<g id="a_node3"><a xlink:href="bis_8c.html" target="_top" xlink:title=" ">
<polygon fill="white" stroke="black" points="40,-224.5 40,-243.5 111,-243.5 111,-224.5 40,-224.5"/>
<text text-anchor="middle" x="75.5" y="-231.5" font-family="Helvetica,sans-Serif" font-size="10.00">src/P2/bis.c</text>
</a>
</g>
</g>
<!-- Node2&#45;&gt;Node3 -->
<g id="edge2" class="edge">
<title>Node2&#45;&gt;Node3</title>
<path fill="none" stroke="midnightblue" d="M192.28,-277.04C164.05,-266.88 124.24,-252.55 99.16,-243.52"/>
<polygon fill="midnightblue" stroke="midnightblue" points="191.14,-280.35 201.73,-280.44 193.51,-273.76 191.14,-280.35"/>
</g>
<!-- Node4 -->
<g id="node4" class="node">
<title>Node4</title>
<g id="a_node4"><a xlink:href="coin_8c.html" target="_top" xlink:title=" ">
<polygon fill="white" stroke="black" points="354,-56.5 354,-75.5 431,-75.5 431,-56.5 354,-56.5"/>
<text text-anchor="middle" x="392.5" y="-63.5" font-family="Helvetica,sans-Serif" font-size="10.00">src/P2/coin.c</text>
</a>
</g>
</g>
<!-- Node2&#45;&gt;Node4 -->
<g id="edge3" class="edge">
<title>Node2&#45;&gt;Node4</title>
<path fill="none" stroke="midnightblue" d="M274.82,-282.63C368.31,-269.56 566.16,-236.75 612.5,-188 636.06,-163.21 646.26,-138.38 624.5,-112 600.42,-82.8 490.54,-72.32 431.05,-68.74"/>
<polygon fill="midnightblue" stroke="midnightblue" points="274.18,-279.19 264.76,-284.02 275.14,-286.12 274.18,-279.19"/>
</g>
<!-- Node5 -->
<g id="node5" class="node">
<title>Node5</title>
<g id="a_node5"><a xlink:href="chkpnt_8h.html" target="_top" xlink:title="Checkpoint system.">
<polygon fill="white" stroke="black" points="151,-112.5 151,-131.5 248,-131.5 248,-112.5 151,-112.5"/>
<text text-anchor="middle" x="199.5" y="-119.5" font-family="Helvetica,sans-Serif" font-size="10.00">include/chkpnt.h</text>
</a>
</g>
</g>
<!-- Node2&#45;&gt;Node5 -->
<g id="edge4" class="edge">
<title>Node2&#45;&gt;Node5</title>
<path fill="none" stroke="midnightblue" d="M210.37,-272.9C193.91,-254.18 168.61,-221.54 158.5,-188 155.93,-179.49 155.29,-176.29 158.5,-168 164.38,-152.82 178.02,-139.62 187.96,-131.51"/>
<polygon fill="midnightblue" stroke="midnightblue" points="207.91,-275.4 217.22,-280.47 213.11,-270.71 207.91,-275.4"/>
</g>
<!-- Node10 -->
<g id="node10" class="node">
<title>Node10</title>
<g id="a_node10"><a xlink:href="xform_8h.html" target="_top" xlink:title="Transform.">
<polygon fill="white" stroke="black" points="302,-224.5 302,-243.5 395,-243.5 395,-224.5 302,-224.5"/>
<text text-anchor="middle" x="348.5" y="-231.5" font-family="Helvetica,sans-Serif" font-size="10.00">include/xform.h</text>
</a>
</g>
</g>
<!-- Node2&#45;&gt;Node10 -->
<g id="edge10" class="edge">
<title>Node2&#45;&gt;Node10</title>
<path fill="none" stroke="midnightblue" d="M254.27,-276.37C277.31,-266.26 308.98,-252.35 329.1,-243.52"/>
<polygon fill="midnightblue" stroke="midnightblue" points="252.74,-273.22 244.99,-280.44 255.55,-279.63 252.74,-273.22"/>
</g>
<!-- Node5&#45;&gt;Node4 -->
<g id="edge6" class="edge">
<title>Node5&#45;&gt;Node4</title>
<path fill="none" stroke="midnightblue" d="M239.89,-109.7C276.32,-99.51 329.09,-84.74 362.06,-75.52"/>
<polygon fill="midnightblue" stroke="midnightblue" points="238.77,-106.38 230.08,-112.44 240.65,-113.12 238.77,-106.38"/>
</g>
<!-- Node6 -->
<g id="node6" class="node">
<title>Node6</title>
<g id="a_node6"><a xlink:href="chkpnt_8c.html" target="_top" xlink:title=" ">
<polygon fill="white" stroke="black" points="123.5,-56.5 123.5,-75.5 213.5,-75.5 213.5,-56.5 123.5,-56.5"/>
<text text-anchor="middle" x="168.5" y="-63.5" font-family="Helvetica,sans-Serif" font-size="10.00">src/P2/chkpnt.c</text>
</a>
</g>
</g>
<!-- Node5&#45;&gt;Node6 -->
<g id="edge5" class="edge">
<title>Node5&#45;&gt;Node6</title>
<path fill="none" stroke="midnightblue" d="M189.32,-103.27C184.03,-94.05 177.78,-83.17 173.52,-75.75"/>
<polygon fill="midnightblue" stroke="midnightblue" points="186.37,-105.15 194.38,-112.08 192.44,-101.67 186.37,-105.15"/>
</g>
<!-- Node7 -->
<g id="node7" class="node">
<title>Node7</title>
<g id="a_node7"><a xlink:href="transition_8c.html" target="_top" xlink:title=" ">
<polygon fill="white" stroke="black" points="231.5,-56.5 231.5,-75.5 335.5,-75.5 335.5,-56.5 231.5,-56.5"/>
<text text-anchor="middle" x="283.5" y="-63.5" font-family="Helvetica,sans-Serif" font-size="10.00">src/P2/transition.c</text>
</a>
</g>
</g>
<!-- Node5&#45;&gt;Node7 -->
<g id="edge7" class="edge">
<title>Node5&#45;&gt;Node7</title>
<path fill="none" stroke="midnightblue" d="M221.43,-106.9C236.84,-97 256.95,-84.07 270.04,-75.65"/>
<polygon fill="midnightblue" stroke="midnightblue" points="219.52,-103.97 213,-112.32 223.3,-109.86 219.52,-103.97"/>
</g>
<!-- Node8 -->
<g id="node8" class="node">
<title>Node8</title>
<g id="a_node8"><a xlink:href="difficulty_8h.html" target="_top" xlink:title="Dynamic difficulty system.">
<polygon fill="white" stroke="black" points="0,-56.5 0,-75.5 105,-75.5 105,-56.5 0,-56.5"/>
<text text-anchor="middle" x="52.5" y="-63.5" font-family="Helvetica,sans-Serif" font-size="10.00">include/difficulty.h</text>
</a>
</g>
</g>
<!-- Node5&#45;&gt;Node8 -->
<g id="edge8" class="edge">
<title>Node5&#45;&gt;Node8</title>
<path fill="none" stroke="midnightblue" d="M166.58,-108.91C138.94,-98.75 100.16,-84.51 75.68,-75.52"/>
<polygon fill="midnightblue" stroke="midnightblue" points="165.61,-112.28 176.21,-112.44 168.03,-105.71 165.61,-112.28"/>
</g>
<!-- Node9 -->
<g id="node9" class="node">
<title>Node9</title>
<g id="a_node9"><a xlink:href="difficulty_8c.html" target="_top" xlink:title=" ">
<polygon fill="white" stroke="black" points="3.5,-0.5 3.5,-19.5 101.5,-19.5 101.5,-0.5 3.5,-0.5"/>
<text text-anchor="middle" x="52.5" y="-7.5" font-family="Helvetica,sans-Serif" font-size="10.00">src/P2/difficulty.c</text>
</a>
</g>
</g>
<!-- Node8&#45;&gt;Node9 -->
<g id="edge9" class="edge">
<title>Node8&#45;&gt;Node9</title>
<path fill="none" stroke="midnightblue" d="M52.5,-45.8C52.5,-36.91 52.5,-26.78 52.5,-19.75"/>
<polygon fill="midnightblue" stroke="midnightblue" points="49,-46.08 52.5,-56.08 56,-46.08 49,-46.08"/>
</g>
<!-- Node11 -->
<g id="node11" class="node">
<title>Node11</title>
<g id="a_node11"><a xlink:href="xform1_8c.html" target="_top" xlink:title=" ">
<polygon fill="white" stroke="black" points="265.5,-168.5 265.5,-187.5 357.5,-187.5 357.5,-168.5 265.5,-168.5"/>
<text text-anchor="middle" x="311.5" y="-175.5" font-family="Helvetica,sans-Serif" font-size="10.00">src/P2/xform1.c</text>
</a>
</g>
</g>
<!-- Node10&#45;&gt;Node11 -->
<g id="edge11" class="edge">
<title>Node10&#45;&gt;Node11</title>
<path fill="none" stroke="midnightblue" d="M336.55,-215.57C330.19,-206.27 322.63,-195.25 317.5,-187.75"/>
<polygon fill="midnightblue" stroke="midnightblue" points="333.85,-217.81 342.39,-224.08 339.63,-213.86 333.85,-217.81"/>
</g>
<!-- Node12 -->
<g id="node12" class="node">
<title>Node12</title>
<g id="a_node12"><a xlink:href="xform2_8c.html" target="_top" xlink:title=" ">
<polygon fill="white" stroke="black" points="413.5,-168.5 413.5,-187.5 505.5,-187.5 505.5,-168.5 413.5,-168.5"/>
<text text-anchor="middle" x="459.5" y="-175.5" font-family="Helvetica,sans-Serif" font-size="10.00">src/P2/xform2.c</text>
</a>
</g>
</g>
<!-- Node10&#45;&gt;Node12 -->
<g id="edge12" class="edge">
<title>Node10&#45;&gt;Node12</title>
<path fill="none" stroke="midnightblue" d="M375.51,-219.86C396.09,-209.85 423.84,-196.35 441.71,-187.65"/>
<polygon fill="midnightblue" stroke="midnightblue" points="373.8,-216.8 366.33,-224.32 376.86,-223.1 373.8,-216.8"/>
</g>
<!-- Node13 -->
<g id="node13" class="node">
<title>Node13</title>
<g id="a_node13"><a xlink:href="cm_8h.html" target="_top" xlink:title="Game camera.">
<polygon fill="white" stroke="black" points="524,-168.5 524,-187.5 603,-187.5 603,-168.5 524,-168.5"/>
<text text-anchor="middle" x="563.5" y="-175.5" font-family="Helvetica,sans-Serif" font-size="10.00">include/cm.h</text>
</a>
</g>
</g>
<!-- Node10&#45;&gt;Node13 -->
<g id="edge13" class="edge">
<title>Node10&#45;&gt;Node13</title>
<path fill="none" stroke="midnightblue" d="M392.46,-221.96C433.07,-211.76 492.54,-196.82 529.59,-187.52"/>
<polygon fill="midnightblue" stroke="midnightblue" points="391.41,-218.61 382.57,-224.44 393.12,-225.4 391.41,-218.61"/>
</g>
<!-- Node17 -->
<g id="node17" class="node">
<title>Node17</title>
<g id="a_node17"><a xlink:href="coin_8h.html" target="_top" xlink:title="Coins, keys, and other collectibles.">
<polygon fill="white" stroke="black" points="335.5,-112.5 335.5,-131.5 419.5,-131.5 419.5,-112.5 335.5,-112.5"/>
<text text-anchor="middle" x="377.5" y="-119.5" font-family="Helvetica,sans-Serif" font-size="10.00">include/coin.h</text>
</a>
</g>
</g>
<!-- Node10&#45;&gt;Node17 -->
<g id="edge17" class="edge">
<title>Node10&#45;&gt;Node17</title>
<path fill="none" stroke="midnightblue" d="M356.71,-215.02C360.15,-206.91 363.94,-197.11 366.5,-188 372.08,-168.17 375.25,-144.09 376.64,-131.54"/>
<polygon fill="midnightblue" stroke="midnightblue" points="353.48,-213.67 352.66,-224.23 359.89,-216.49 353.48,-213.67"/>
</g>
<!-- Node18 -->
<g id="node18" class="node">
<title>Node18</title>
<g id="a_node18"><a xlink:href="vol_8h.html" target="_top" xlink:title="Volume object.">
<polygon fill="white" stroke="black" points="168,-168.5 168,-187.5 247,-187.5 247,-168.5 168,-168.5"/>
<text text-anchor="middle" x="207.5" y="-175.5" font-family="Helvetica,sans-Serif" font-size="10.00">include/vol.h</text>
</a>
</g>
</g>
<!-- Node10&#45;&gt;Node18 -->
<g id="edge19" class="edge">
<title>Node10&#45;&gt;Node18</title>
<path fill="none" stroke="midnightblue" d="M316.57,-220.77C290.09,-210.63 253.11,-196.47 229.74,-187.52"/>
<polygon fill="midnightblue" stroke="midnightblue" points="315.57,-224.14 326.16,-224.44 318.07,-217.6 315.57,-224.14"/>
</g>
<!-- Node14 -->
<g id="node14" class="node">
<title>Node14</title>
<g id="a_node14"><a xlink:href="cm_8c.html" target="_top" xlink:title=" ">
<polygon fill="white" stroke="black" points="437.5,-112.5 437.5,-131.5 509.5,-131.5 509.5,-112.5 437.5,-112.5"/>
<text text-anchor="middle" x="473.5" y="-119.5" font-family="Helvetica,sans-Serif" font-size="10.00">src/P2/cm.c</text>
</a>
</g>
</g>
<!-- Node13&#45;&gt;Node14 -->
<g id="edge14" class="edge">
<title>Node13&#45;&gt;Node14</title>
<path fill="none" stroke="midnightblue" d="M540.46,-163.18C523.9,-153.24 502.08,-140.15 487.92,-131.65"/>
<polygon fill="midnightblue" stroke="midnightblue" points="538.66,-166.18 549.04,-168.32 542.27,-160.18 538.66,-166.18"/>
</g>
<!-- Node15 -->
<g id="node15" class="node">
<title>Node15</title>
<g id="a_node15"><a xlink:href="flash_8h.html" target="_top" xlink:title="Flash (might be flash animation, or literal screen flashes).">
<polygon fill="white" stroke="black" points="528,-112.5 528,-131.5 615,-131.5 615,-112.5 528,-112.5"/>
<text text-anchor="middle" x="571.5" y="-119.5" font-family="Helvetica,sans-Serif" font-size="10.00">include/flash.h</text>
</a>
</g>
</g>
<!-- Node13&#45;&gt;Node15 -->
<g id="edge15" class="edge">
<title>Node13&#45;&gt;Node15</title>
<path fill="none" stroke="midnightblue" d="M566.3,-158.1C567.63,-149.14 569.15,-138.86 570.2,-131.75"/>
<polygon fill="midnightblue" stroke="midnightblue" points="562.82,-157.68 564.82,-168.08 569.75,-158.7 562.82,-157.68"/>
</g>
<!-- Node16 -->
<g id="node16" class="node">
<title>Node16</title>
<g id="a_node16"><a xlink:href="flash_8c.html" target="_top" xlink:title=" ">
<polygon fill="white" stroke="black" points="531.5,-56.5 531.5,-75.5 611.5,-75.5 611.5,-56.5 531.5,-56.5"/>
<text text-anchor="middle" x="571.5" y="-63.5" font-family="Helvetica,sans-Serif" font-size="10.00">src/P2/flash.c</text>
</a>
</g>
</g>
<!-- Node15&#45;&gt;Node16 -->
<g id="edge16" class="edge">
<title>Node15&#45;&gt;Node16</title>
<path fill="none" stroke="midnightblue" d="M571.5,-101.8C571.5,-92.91 571.5,-82.78 571.5,-75.75"/>
<polygon fill="midnightblue" stroke="midnightblue" points="568,-102.08 571.5,-112.08 575,-102.08 568,-102.08"/>
</g>
<!-- Node17&#45;&gt;Node4 -->
<g id="edge18" class="edge">
<title>Node17&#45;&gt;Node4</title>
<path fill="none" stroke="midnightblue" d="M382.67,-102.4C385.18,-93.36 388.07,-82.94 390.07,-75.75"/>
<polygon fill="midnightblue" stroke="midnightblue" points="379.28,-101.51 379.98,-112.08 386.03,-103.38 379.28,-101.51"/>
</g>
<!-- Node18&#45;&gt;Node5 -->
<g id="edge20" class="edge">
<title>Node18&#45;&gt;Node5</title>
<path fill="none" stroke="midnightblue" d="M204.7,-158.1C203.37,-149.14 201.85,-138.86 200.8,-131.75"/>
<polygon fill="midnightblue" stroke="midnightblue" points="201.25,-158.7 206.18,-168.08 208.18,-157.68 201.25,-158.7"/>
</g>
</g>
</svg>
