<?xml version="1.0" encoding="UTF-8" standalone="no"?>
<!DOCTYPE svg PUBLIC "-//W3C//DTD SVG 1.1//EN"
 "http://www.w3.org/Graphics/SVG/1.1/DTD/svg11.dtd">
<!-- Generated by graphviz version 2.43.0 (0)
 -->
<!-- Title: include/cat.h Pages: 1 -->
<!--zoomable 364 -->
<svg id="main" version="1.1" xmlns="http://www.w3.org/2000/svg" xmlns:xlink="http://www.w3.org/1999/xlink" xml:space="preserve" onload="init(evt)">
<style type="text/css"><![CDATA[
.edge:hover path { stroke: red; }
.edge:hover polygon { stroke: red; fill: red; }
]]></style>
<script type="text/javascript"><![CDATA[
var edges = document.getElementsByTagName('g');
if (edges && edges.length) {
  for (var i=0;i<edges.length;i++) {
    if (edges[i].id.substr(0,4)=='edge') {
      edges[i].setAttribute('class','edge');
    }
  }
}
]]></script>
        <defs>
                <circle id="rim" cx="0" cy="0" r="7"/>
                <circle id="rim2" cx="0" cy="0" r="3.5"/>
                <g id="zoomPlus">
                        <use xlink:href="#rim" fill="#404040">
                                <set attributeName="fill" to="#808080" begin="zoomplus.mouseover" end="zoomplus.mouseout"/>
                        </use>
                        <path d="M-4,0h8M0,-4v8" fill="none" stroke="white" stroke-width="1.5" pointer-events="none"/>
                </g>
                <g id="zoomMin">
                        <use xlink:href="#rim" fill="#404040">
                                <set attributeName="fill" to="#808080" begin="zoomminus.mouseover" end="zoomminus.mouseout"/>
                        </use>
                        <path d="M-4,0h8" fill="none" stroke="white" stroke-width="1.5" pointer-events="none"/>
                </g>
                <g id="dirArrow">
                        <path fill="none" stroke="white" stroke-width="1.5" d="M0,-3.0v7 M-2.5,-0.5L0,-3.0L2.5,-0.5"/>
                </g>
               <g id="resetDef">
                       <use xlink:href="#rim2" fill="#404040">
                               <set attributeName="fill" to="#808080" begin="reset.mouseover" end="reset.mouseout"/>
                       </use>
               </g>
        </defs>

<script type="text/javascript">
var viewWidth = 681;
var viewHeight = 364;
var sectionId = 'dynsection-1';
</script>
<script xlink:href="svgpan.js"/>
<svg id="graph" class="graph">
<g id="viewport">
<title>include/cat.h</title>
<polygon fill="white" stroke="transparent" points="-4,4 -4,-360 676.5,-360 676.5,4 -4,4"/>
<!-- Node1 -->
<g id="node1" class="node">
<title>Node1</title>
<g id="a_node1"><a xlink:title="Catalog.">
<polygon fill="#bfbfbf" stroke="black" points="116,-336.5 116,-355.5 195,-355.5 195,-336.5 116,-336.5"/>
<text text-anchor="middle" x="155.5" y="-343.5" font-family="Helvetica,sans-Serif" font-size="10.00">include/cat.h</text>
</a>
</g>
</g>
<!-- Node2 -->
<g id="node2" class="node">
<title>Node2</title>
<g id="a_node2"><a xlink:href="bis_8h.html" target="_top" xlink:title="Binary Input Stream.">
<polygon fill="white" stroke="black" points="116.5,-280.5 116.5,-299.5 194.5,-299.5 194.5,-280.5 116.5,-280.5"/>
<text text-anchor="middle" x="155.5" y="-287.5" font-family="Helvetica,sans-Serif" font-size="10.00">include/bis.h</text>
</a>
</g>
</g>
<!-- Node1&#45;&gt;Node2 -->
<g id="edge1" class="edge">
<title>Node1&#45;&gt;Node2</title>
<path fill="none" stroke="midnightblue" d="M155.5,-325.8C155.5,-316.91 155.5,-306.78 155.5,-299.75"/>
<polygon fill="midnightblue" stroke="midnightblue" points="152,-326.08 155.5,-336.08 159,-326.08 152,-326.08"/>
</g>
<!-- Node3 -->
<g id="node3" class="node">
<title>Node3</title>
<g id="a_node3"><a xlink:href="bis_8c.html" target="_top" xlink:title=" ">
<polygon fill="white" stroke="black" points="0,-224.5 0,-243.5 71,-243.5 71,-224.5 0,-224.5"/>
<text text-anchor="middle" x="35.5" y="-231.5" font-family="Helvetica,sans-Serif" font-size="10.00">src/P2/bis.c</text>
</a>
</g>
</g>
<!-- Node2&#45;&gt;Node3 -->
<g id="edge2" class="edge">
<title>Node2&#45;&gt;Node3</title>
<path fill="none" stroke="midnightblue" d="M127.13,-276.23C104.68,-266.13 73.96,-252.31 54.43,-243.52"/>
<polygon fill="midnightblue" stroke="midnightblue" points="125.93,-279.53 136.49,-280.44 128.8,-273.15 125.93,-279.53"/>
</g>
<!-- Node4 -->
<g id="node4" class="node">
<title>Node4</title>
<g id="a_node4"><a xlink:href="coin_8c.html" target="_top" xlink:title=" ">
<polygon fill="white" stroke="black" points="131,-56.5 131,-75.5 208,-75.5 208,-56.5 131,-56.5"/>
<text text-anchor="middle" x="169.5" y="-63.5" font-family="Helvetica,sans-Serif" font-size="10.00">src/P2/coin.c</text>
</a>
</g>
</g>
<!-- Node2&#45;&gt;Node4 -->
<g id="edge3" class="edge">
<title>Node2&#45;&gt;Node4</title>
<path fill="none" stroke="midnightblue" d="M145.11,-271.71C126.96,-239.13 93.69,-166.98 118.5,-112 125.69,-96.07 141.61,-83.52 153.77,-75.76"/>
<polygon fill="midnightblue" stroke="midnightblue" points="142.14,-273.57 150.17,-280.49 148.2,-270.08 142.14,-273.57"/>
</g>
<!-- Node5 -->
<g id="node5" class="node">
<title>Node5</title>
<g id="a_node5"><a xlink:href="chkpnt_8h.html" target="_top" xlink:title="Checkpoint system.">
<polygon fill="white" stroke="black" points="267,-112.5 267,-131.5 364,-131.5 364,-112.5 267,-112.5"/>
<text text-anchor="middle" x="315.5" y="-119.5" font-family="Helvetica,sans-Serif" font-size="10.00">include/chkpnt.h</text>
</a>
</g>
</g>
<!-- Node2&#45;&gt;Node5 -->
<g id="edge4" class="edge">
<title>Node2&#45;&gt;Node5</title>
<path fill="none" stroke="midnightblue" d="M204.79,-280.8C286.26,-266.11 443.17,-232.63 474.5,-188 504.14,-145.77 421.11,-130.93 364.15,-125.75"/>
<polygon fill="midnightblue" stroke="midnightblue" points="204,-277.39 194.76,-282.58 205.22,-284.28 204,-277.39"/>
</g>
<!-- Node9 -->
<g id="node9" class="node">
<title>Node9</title>
<g id="a_node9"><a xlink:href="xform_8h.html" target="_top" xlink:title="Transform.">
<polygon fill="white" stroke="black" points="217,-224.5 217,-243.5 310,-243.5 310,-224.5 217,-224.5"/>
<text text-anchor="middle" x="263.5" y="-231.5" font-family="Helvetica,sans-Serif" font-size="10.00">include/xform.h</text>
</a>
</g>
</g>
<!-- Node2&#45;&gt;Node9 -->
<g id="edge9" class="edge">
<title>Node2&#45;&gt;Node9</title>
<path fill="none" stroke="midnightblue" d="M182.05,-275.73C202.05,-265.73 228.89,-252.31 246.19,-243.65"/>
<polygon fill="midnightblue" stroke="midnightblue" points="180.23,-272.72 172.85,-280.32 183.36,-278.98 180.23,-272.72"/>
</g>
<!-- Node5&#45;&gt;Node4 -->
<g id="edge6" class="edge">
<title>Node5&#45;&gt;Node4</title>
<path fill="none" stroke="midnightblue" d="M282.8,-108.91C255.35,-98.75 216.83,-84.51 192.53,-75.52"/>
<polygon fill="midnightblue" stroke="midnightblue" points="281.77,-112.26 292.37,-112.44 284.2,-105.69 281.77,-112.26"/>
</g>
<!-- Node6 -->
<g id="node6" class="node">
<title>Node6</title>
<g id="a_node6"><a xlink:href="chkpnt_8c.html" target="_top" xlink:title=" ">
<polygon fill="white" stroke="black" points="367.5,-56.5 367.5,-75.5 457.5,-75.5 457.5,-56.5 367.5,-56.5"/>
<text text-anchor="middle" x="412.5" y="-63.5" font-family="Helvetica,sans-Serif" font-size="10.00">src/P2/chkpnt.c</text>
</a>
</g>
</g>
<!-- Node5&#45;&gt;Node6 -->
<g id="edge5" class="edge">
<title>Node5&#45;&gt;Node6</title>
<path fill="none" stroke="midnightblue" d="M339.84,-107.45C357.74,-97.48 381.55,-84.23 396.95,-75.65"/>
<polygon fill="midnightblue" stroke="midnightblue" points="338.12,-104.4 331.08,-112.32 341.52,-110.52 338.12,-104.4"/>
</g>
<!-- Node7 -->
<g id="node7" class="node">
<title>Node7</title>
<g id="a_node7"><a xlink:href="difficulty_8h.html" target="_top" xlink:title="Dynamic difficulty system.">
<polygon fill="white" stroke="black" points="244,-56.5 244,-75.5 349,-75.5 349,-56.5 244,-56.5"/>
<text text-anchor="middle" x="296.5" y="-63.5" font-family="Helvetica,sans-Serif" font-size="10.00">include/difficulty.h</text>
</a>
</g>
</g>
<!-- Node5&#45;&gt;Node7 -->
<g id="edge7" class="edge">
<title>Node5&#45;&gt;Node7</title>
<path fill="none" stroke="midnightblue" d="M308.95,-102.4C305.78,-93.36 302.11,-82.94 299.58,-75.75"/>
<polygon fill="midnightblue" stroke="midnightblue" points="305.74,-103.81 312.36,-112.08 312.35,-101.49 305.74,-103.81"/>
</g>
<!-- Node8 -->
<g id="node8" class="node">
<title>Node8</title>
<g id="a_node8"><a xlink:href="difficulty_8c.html" target="_top" xlink:title=" ">
<polygon fill="white" stroke="black" points="247.5,-0.5 247.5,-19.5 345.5,-19.5 345.5,-0.5 247.5,-0.5"/>
<text text-anchor="middle" x="296.5" y="-7.5" font-family="Helvetica,sans-Serif" font-size="10.00">src/P2/difficulty.c</text>
</a>
</g>
</g>
<!-- Node7&#45;&gt;Node8 -->
<g id="edge8" class="edge">
<title>Node7&#45;&gt;Node8</title>
<path fill="none" stroke="midnightblue" d="M296.5,-45.8C296.5,-36.91 296.5,-26.78 296.5,-19.75"/>
<polygon fill="midnightblue" stroke="midnightblue" points="293,-46.08 296.5,-56.08 300,-46.08 293,-46.08"/>
</g>
<!-- Node10 -->
<g id="node10" class="node">
<title>Node10</title>
<g id="a_node10"><a xlink:href="xform1_8c.html" target="_top" xlink:title=" ">
<polygon fill="white" stroke="black" points="165.5,-168.5 165.5,-187.5 257.5,-187.5 257.5,-168.5 165.5,-168.5"/>
<text text-anchor="middle" x="211.5" y="-175.5" font-family="Helvetica,sans-Serif" font-size="10.00">src/P2/xform1.c</text>
</a>
</g>
</g>
<!-- Node9&#45;&gt;Node10 -->
<g id="edge10" class="edge">
<title>Node9&#45;&gt;Node10</title>
<path fill="none" stroke="midnightblue" d="M247.82,-216.72C238.66,-207.2 227.45,-195.56 219.93,-187.75"/>
<polygon fill="midnightblue" stroke="midnightblue" points="245.46,-219.31 254.91,-224.08 250.5,-214.45 245.46,-219.31"/>
</g>
<!-- Node11 -->
<g id="node11" class="node">
<title>Node11</title>
<g id="a_node11"><a xlink:href="xform2_8c.html" target="_top" xlink:title=" ">
<polygon fill="white" stroke="black" points="373.5,-168.5 373.5,-187.5 465.5,-187.5 465.5,-168.5 373.5,-168.5"/>
<text text-anchor="middle" x="419.5" y="-175.5" font-family="Helvetica,sans-Serif" font-size="10.00">src/P2/xform2.c</text>
</a>
</g>
</g>
<!-- Node9&#45;&gt;Node11 -->
<g id="edge11" class="edge">
<title>Node9&#45;&gt;Node11</title>
<path fill="none" stroke="midnightblue" d="M297.67,-221.17C327.04,-211 368.7,-196.59 394.9,-187.52"/>
<polygon fill="midnightblue" stroke="midnightblue" points="296.52,-217.86 288.22,-224.44 298.81,-224.48 296.52,-217.86"/>
</g>
<!-- Node12 -->
<g id="node12" class="node">
<title>Node12</title>
<g id="a_node12"><a xlink:href="cm_8h.html" target="_top" xlink:title="Game camera.">
<polygon fill="white" stroke="black" points="522,-168.5 522,-187.5 601,-187.5 601,-168.5 522,-168.5"/>
<text text-anchor="middle" x="561.5" y="-175.5" font-family="Helvetica,sans-Serif" font-size="10.00">include/cm.h</text>
</a>
</g>
</g>
<!-- Node9&#45;&gt;Node12 -->
<g id="edge12" class="edge">
<title>Node9&#45;&gt;Node12</title>
<path fill="none" stroke="midnightblue" d="M319.97,-222.77C379.01,-212.07 470.13,-195.56 521.93,-186.17"/>
<polygon fill="midnightblue" stroke="midnightblue" points="319.28,-219.34 310.06,-224.56 320.53,-226.22 319.28,-219.34"/>
</g>
<!-- Node16 -->
<g id="node16" class="node">
<title>Node16</title>
<g id="a_node16"><a xlink:href="coin_8h.html" target="_top" xlink:title="Coins, keys, and other collectibles.">
<polygon fill="white" stroke="black" points="127.5,-112.5 127.5,-131.5 211.5,-131.5 211.5,-112.5 127.5,-112.5"/>
<text text-anchor="middle" x="169.5" y="-119.5" font-family="Helvetica,sans-Serif" font-size="10.00">include/coin.h</text>
</a>
</g>
</g>
<!-- Node9&#45;&gt;Node16 -->
<g id="edge16" class="edge">
<title>Node9&#45;&gt;Node16</title>
<path fill="none" stroke="midnightblue" d="M207.12,-222.62C187.74,-216.06 168.04,-205.38 156.5,-188 144.91,-170.55 156.37,-145.06 163.96,-131.78"/>
<polygon fill="midnightblue" stroke="midnightblue" points="206.29,-226.02 216.87,-225.6 208.33,-219.33 206.29,-226.02"/>
</g>
<!-- Node17 -->
<g id="node17" class="node">
<title>Node17</title>
<g id="a_node17"><a xlink:href="vol_8h.html" target="_top" xlink:title="Volume object.">
<polygon fill="white" stroke="black" points="276,-168.5 276,-187.5 355,-187.5 355,-168.5 276,-168.5"/>
<text text-anchor="middle" x="315.5" y="-175.5" font-family="Helvetica,sans-Serif" font-size="10.00">include/vol.h</text>
</a>
</g>
</g>
<!-- Node9&#45;&gt;Node17 -->
<g id="edge18" class="edge">
<title>Node9&#45;&gt;Node17</title>
<path fill="none" stroke="midnightblue" d="M279.18,-216.72C288.34,-207.2 299.55,-195.56 307.07,-187.75"/>
<polygon fill="midnightblue" stroke="midnightblue" points="276.5,-214.45 272.09,-224.08 281.54,-219.31 276.5,-214.45"/>
</g>
<!-- Node13 -->
<g id="node13" class="node">
<title>Node13</title>
<g id="a_node13"><a xlink:href="cm_8c.html" target="_top" xlink:title=" ">
<polygon fill="white" stroke="black" points="600.5,-112.5 600.5,-131.5 672.5,-131.5 672.5,-112.5 600.5,-112.5"/>
<text text-anchor="middle" x="636.5" y="-119.5" font-family="Helvetica,sans-Serif" font-size="10.00">src/P2/cm.c</text>
</a>
</g>
</g>
<!-- Node12&#45;&gt;Node13 -->
<g id="edge13" class="edge">
<title>Node12&#45;&gt;Node13</title>
<path fill="none" stroke="midnightblue" d="M581.81,-162.38C595.36,-152.62 612.74,-140.11 624.23,-131.83"/>
<polygon fill="midnightblue" stroke="midnightblue" points="579.62,-159.64 573.55,-168.32 583.71,-165.32 579.62,-159.64"/>
</g>
<!-- Node14 -->
<g id="node14" class="node">
<title>Node14</title>
<g id="a_node14"><a xlink:href="flash_8h.html" target="_top" xlink:title="Flash (might be flash animation, or literal screen flashes).">
<polygon fill="white" stroke="black" points="495,-112.5 495,-131.5 582,-131.5 582,-112.5 495,-112.5"/>
<text text-anchor="middle" x="538.5" y="-119.5" font-family="Helvetica,sans-Serif" font-size="10.00">include/flash.h</text>
</a>
</g>
</g>
<!-- Node12&#45;&gt;Node14 -->
<g id="edge14" class="edge">
<title>Node12&#45;&gt;Node14</title>
<path fill="none" stroke="midnightblue" d="M553.7,-158.69C549.82,-149.59 545.32,-139.01 542.23,-131.75"/>
<polygon fill="midnightblue" stroke="midnightblue" points="550.56,-160.25 557.7,-168.08 557,-157.51 550.56,-160.25"/>
</g>
<!-- Node15 -->
<g id="node15" class="node">
<title>Node15</title>
<g id="a_node15"><a xlink:href="flash_8c.html" target="_top" xlink:title=" ">
<polygon fill="white" stroke="black" points="498.5,-56.5 498.5,-75.5 578.5,-75.5 578.5,-56.5 498.5,-56.5"/>
<text text-anchor="middle" x="538.5" y="-63.5" font-family="Helvetica,sans-Serif" font-size="10.00">src/P2/flash.c</text>
</a>
</g>
</g>
<!-- Node14&#45;&gt;Node15 -->
<g id="edge15" class="edge">
<title>Node14&#45;&gt;Node15</title>
<path fill="none" stroke="midnightblue" d="M538.5,-101.8C538.5,-92.91 538.5,-82.78 538.5,-75.75"/>
<polygon fill="midnightblue" stroke="midnightblue" points="535,-102.08 538.5,-112.08 542,-102.08 535,-102.08"/>
</g>
<!-- Node16&#45;&gt;Node4 -->
<g id="edge17" class="edge">
<title>Node16&#45;&gt;Node4</title>
<path fill="none" stroke="midnightblue" d="M169.5,-101.8C169.5,-92.91 169.5,-82.78 169.5,-75.75"/>
<polygon fill="midnightblue" stroke="midnightblue" points="166,-102.08 169.5,-112.08 173,-102.08 166,-102.08"/>
</g>
<!-- Node17&#45;&gt;Node5 -->
<g id="edge19" class="edge">
<title>Node17&#45;&gt;Node5</title>
<path fill="none" stroke="midnightblue" d="M315.5,-157.8C315.5,-148.91 315.5,-138.78 315.5,-131.75"/>
<polygon fill="midnightblue" stroke="midnightblue" points="312,-158.08 315.5,-168.08 319,-158.08 312,-158.08"/>
</g>
</g>
</svg>
        <g id="navigator" transform="translate(0 0)" fill="#404254">
                <rect fill="#f2f5e9" fill-opacity="0.5" stroke="#606060" stroke-width=".5" x="0" y="0" width="60" height="60"/>
                <use id="zoomplus" xlink:href="#zoomPlus" x="17" y="9" onmousedown="handleZoom(evt,'in')"/>
                <use id="zoomminus" xlink:href="#zoomMin" x="42" y="9" onmousedown="handleZoom(evt,'out')"/>
                <use id="reset" xlink:href="#resetDef" x="30" y="36" onmousedown="handleReset()"/>
                <g id="arrowUp" xlink:href="#dirArrow" transform="translate(30 24)" onmousedown="handlePan(0,-1)">
                  <use xlink:href="#rim" fill="#404040">
                        <set attributeName="fill" to="#808080" begin="arrowUp.mouseover" end="arrowUp.mouseout"/>
                  </use>
                  <path fill="none" stroke="white" stroke-width="1.5" d="M0,-3.0v7 M-2.5,-0.5L0,-3.0L2.5,-0.5"/>
                </g>
                <g id="arrowRight" xlink:href="#dirArrow" transform="rotate(90) translate(36 -43)" onmousedown="handlePan(1,0)">
                  <use xlink:href="#rim" fill="#404040">
                        <set attributeName="fill" to="#808080" begin="arrowRight.mouseover" end="arrowRight.mouseout"/>
                  </use>
                  <path fill="none" stroke="white" stroke-width="1.5" d="M0,-3.0v7 M-2.5,-0.5L0,-3.0L2.5,-0.5"/>
                </g>
                <g id="arrowDown" xlink:href="#dirArrow" transform="rotate(180) translate(-30 -48)" onmousedown="handlePan(0,1)">
                  <use xlink:href="#rim" fill="#404040">
                        <set attributeName="fill" to="#808080" begin="arrowDown.mouseover" end="arrowDown.mouseout"/>
                  </use>
                  <path fill="none" stroke="white" stroke-width="1.5" d="M0,-3.0v7 M-2.5,-0.5L0,-3.0L2.5,-0.5"/>
                </g>
                <g id="arrowLeft" xlink:href="#dirArrow" transform="rotate(270) translate(-36 17)" onmousedown="handlePan(-1,0)">
                  <use xlink:href="#rim" fill="#404040">
                        <set attributeName="fill" to="#808080" begin="arrowLeft.mouseover" end="arrowLeft.mouseout"/>
                  </use>
                  <path fill="none" stroke="white" stroke-width="1.5" d="M0,-3.0v7 M-2.5,-0.5L0,-3.0L2.5,-0.5"/>
                </g>
        </g>
        <svg viewBox="0 0 15 15" width="100%" height="30px" preserveAspectRatio="xMaxYMin meet">
         <g id="arrow_out" transform="scale(0.3 0.3)">
          <a xlink:href="cat_8h__dep__incl_org.svg" target="_base">
           <rect id="button" ry="5" rx="5" y="6" x="6" height="38" width="38"
                fill="#f2f5e9" fill-opacity="0.5" stroke="#606060" stroke-width="1.0"/>
           <path id="arrow"
             d="M 11.500037,31.436501 C 11.940474,20.09759 22.043105,11.32322 32.158766,21.979434 L 37.068811,17.246167 C 37.068811,17.246167 37.088388,32 37.088388,32 L 22.160133,31.978069 C 22.160133,31.978069 26.997745,27.140456 26.997745,27.140456 C 18.528582,18.264221 13.291696,25.230495 11.500037,31.436501 z"
             style="fill:#404040;"/>
          </a>
         </g>
        </svg>
</svg>
