<?xml version="1.0" encoding="UTF-8" standalone="no"?>
<!DOCTYPE svg PUBLIC "-//W3C//DTD SVG 1.1//EN"
 "http://www.w3.org/Graphics/SVG/1.1/DTD/svg11.dtd">
<!-- Generated by graphviz version 2.43.0 (0)
 -->
<!-- Title: src/P2/cd.c Pages: 1 -->
<svg width="163pt" height="137pt"
 viewBox="0.00 0.00 163.00 137.00" xmlns="http://www.w3.org/2000/svg" xmlns:xlink="http://www.w3.org/1999/xlink">
<g id="graph0" class="graph" transform="scale(1 1) rotate(0) translate(4 133)">
<title>src/P2/cd.c</title>
<!-- Node1 -->
<g id="Node000001" class="node">
<title>Node1</title>
<g id="a_Node000001"><a xlink:title=" ">
<polygon fill="#999999" stroke="#666666" points="119.5,-129 51.5,-129 51.5,-110 119.5,-110 119.5,-129"/>
<text text-anchor="middle" x="85.5" y="-117" font-family="Helvetica,sans-Serif" font-size="10.00">src/P2/cd.c</text>
</a>
</g>
</g>
<!-- Node2 -->
<g id="Node000002" class="node">
<title>Node2</title>
<g id="a_Node000002"><a xlink:href="cd_8h.html" target="_top" xlink:title="CD system.">
<polygon fill="white" stroke="#666666" points="37,-74 0,-74 0,-55 37,-55 37,-74"/>
<text text-anchor="middle" x="18.5" y="-62" font-family="Helvetica,sans-Serif" font-size="10.00">cd.h</text>
</a>
</g>
</g>
<!-- Node1&#45;&gt;Node2 -->
<g id="edge1_Node000001_Node000002" class="edge">
<title>Node1&#45;&gt;Node2</title>
<g id="a_edge1_Node000001_Node000002"><a xlink:title=" ">
<path fill="none" stroke="#63b8ff" d="M74.74,-109.98C64.73,-102.07 49.61,-90.11 37.57,-80.58"/>
<polygon fill="#63b8ff" stroke="#63b8ff" points="39.47,-77.63 29.46,-74.17 35.13,-83.12 39.47,-77.63"/>
</a>
</g>
</g>
<!-- Node3 -->
<g id="Node000003" class="node">
<title>Node3</title>
<g id="a_Node000003"><a xlink:href="989snd_8h.html" target="_top" xlink:title="989snd sound driver.">
<polygon fill="white" stroke="#666666" points="116,-74 55,-74 55,-55 116,-55 116,-74"/>
<text text-anchor="middle" x="85.5" y="-62" font-family="Helvetica,sans-Serif" font-size="10.00">989snd.h</text>
</a>
</g>
</g>
<!-- Node1&#45;&gt;Node3 -->
<g id="edge2_Node000001_Node000003" class="edge">
<title>Node1&#45;&gt;Node3</title>
<g id="a_edge2_Node000001_Node000003"><a xlink:title=" ">
<path fill="none" stroke="#63b8ff" d="M85.5,-109.75C85.5,-102.8 85.5,-92.85 85.5,-84.13"/>
<polygon fill="#63b8ff" stroke="#63b8ff" points="89,-84.09 85.5,-74.09 82,-84.09 89,-84.09"/>
</a>
</g>
</g>
<!-- Node4 -->
<g id="Node000004" class="node">
<title>Node4</title>
<g id="a_Node000004"><a xlink:href="libcdvd_8h.html" target="_top" xlink:title="DVD handler.">
<polygon fill="white" stroke="#666666" points="155,-19 74,-19 74,0 155,0 155,-19"/>
<text text-anchor="middle" x="114.5" y="-7" font-family="Helvetica,sans-Serif" font-size="10.00">sdk/libcdvd.h</text>
</a>
</g>
</g>
<!-- Node1&#45;&gt;Node4 -->
<g id="edge4_Node000001_Node000004" class="edge">
<title>Node1&#45;&gt;Node4</title>
<g id="a_edge4_Node000001_Node000004"><a xlink:title=" ">
<path fill="none" stroke="#63b8ff" d="M97.14,-109.73C106.81,-101.67 119.85,-88.74 125.5,-74 131.07,-59.47 127.34,-41.99 122.78,-29.05"/>
<polygon fill="#63b8ff" stroke="#63b8ff" points="125.89,-27.4 118.93,-19.41 119.39,-30 125.89,-27.4"/>
</a>
</g>
</g>
<!-- Node3&#45;&gt;Node4 -->
<g id="edge3_Node000003_Node000004" class="edge">
<title>Node3&#45;&gt;Node4</title>
<g id="a_edge3_Node000003_Node000004"><a xlink:title=" ">
<path fill="none" stroke="#63b8ff" d="M90.29,-54.75C94.26,-47.49 100.03,-36.95 104.93,-27.98"/>
<polygon fill="#63b8ff" stroke="#63b8ff" points="108.07,-29.54 109.8,-19.09 101.93,-26.18 108.07,-29.54"/>
</a>
</g>
</g>
</g>
</svg>
