<?xml version="1.0" encoding="UTF-8" standalone="no"?>
<!DOCTYPE svg PUBLIC "-//W3C//DTD SVG 1.1//EN"
 "http://www.w3.org/Graphics/SVG/1.1/DTD/svg11.dtd">
<!-- Generated by graphviz version 2.43.0 (0)
 -->
<!-- Title: include/chkpnt.h Pages: 1 -->
<svg width="924pt" height="812pt"
 viewBox="0.00 0.00 924.00 812.00" xmlns="http://www.w3.org/2000/svg" xmlns:xlink="http://www.w3.org/1999/xlink">
<g id="graph0" class="graph" transform="scale(1 1) rotate(0) translate(4 808)">
<title>include/chkpnt.h</title>
<polygon fill="white" stroke="transparent" points="-4,4 -4,-808 920,-808 920,4 -4,4"/>
<!-- Node1 -->
<g id="node1" class="node">
<title>Node1</title>
<g id="a_node1"><a xlink:title="Checkpoint system.">
<polygon fill="#bfbfbf" stroke="black" points="444,-784.5 444,-803.5 541,-803.5 541,-784.5 444,-784.5"/>
<text text-anchor="middle" x="492.5" y="-791.5" font-family="Helvetica,sans-Serif" font-size="10.00">include/chkpnt.h</text>
</a>
</g>
</g>
<!-- Node2 -->
<g id="node2" class="node">
<title>Node2</title>
<g id="a_node2"><a xlink:href="vec_8h.html" target="_top" xlink:title="Vector math.">
<polygon fill="white" stroke="black" points="431,-280.5 431,-299.5 474,-299.5 474,-280.5 431,-280.5"/>
<text text-anchor="middle" x="452.5" y="-287.5" font-family="Helvetica,sans-Serif" font-size="10.00">vec.h</text>
</a>
</g>
</g>
<!-- Node1&#45;&gt;Node2 -->
<g id="edge1" class="edge">
<title>Node1&#45;&gt;Node2</title>
<path fill="none" stroke="midnightblue" d="M491.49,-784.43C486.68,-743.22 465.67,-561.4 452.5,-412 449.53,-378.31 447,-369.79 448.5,-336 448.88,-327.37 449.68,-317.84 450.46,-309.78"/>
<polygon fill="midnightblue" stroke="midnightblue" points="453.96,-309.92 451.51,-299.61 447,-309.2 453.96,-309.92"/>
</g>
<!-- Node13 -->
<g id="node13" class="node">
<title>Node13</title>
<g id="a_node13"><a xlink:href="vol_8h.html" target="_top" xlink:title="Volume object.">
<polygon fill="white" stroke="black" points="372,-728.5 372,-747.5 413,-747.5 413,-728.5 372,-728.5"/>
<text text-anchor="middle" x="392.5" y="-735.5" font-family="Helvetica,sans-Serif" font-size="10.00">vol.h</text>
</a>
</g>
</g>
<!-- Node1&#45;&gt;Node13 -->
<g id="edge14" class="edge">
<title>Node1&#45;&gt;Node13</title>
<path fill="none" stroke="midnightblue" d="M476.43,-784.32C460.54,-775.74 435.99,-762.49 417.54,-752.52"/>
<polygon fill="midnightblue" stroke="midnightblue" points="418.99,-749.33 408.53,-747.65 415.66,-755.49 418.99,-749.33"/>
</g>
<!-- Node25 -->
<g id="node25" class="node">
<title>Node25</title>
<g id="a_node25"><a xlink:href="bis_8h.html" target="_top" xlink:title="Binary Input Stream.">
<polygon fill="white" stroke="black" points="558.5,-616.5 558.5,-635.5 598.5,-635.5 598.5,-616.5 558.5,-616.5"/>
<text text-anchor="middle" x="578.5" y="-623.5" font-family="Helvetica,sans-Serif" font-size="10.00">bis.h</text>
</a>
</g>
</g>
<!-- Node1&#45;&gt;Node25 -->
<g id="edge59" class="edge">
<title>Node1&#45;&gt;Node25</title>
<path fill="none" stroke="midnightblue" d="M497.12,-784.08C510.78,-757.72 551.11,-679.88 569.35,-644.66"/>
<polygon fill="midnightblue" stroke="midnightblue" points="572.57,-646.06 574.06,-635.57 566.35,-642.84 572.57,-646.06"/>
</g>
<!-- Node3 -->
<g id="node3" class="node">
<title>Node3</title>
<g id="a_node3"><a xlink:href="so_8h.html" target="_top" xlink:title="Scene objects.">
<polygon fill="white" stroke="black" points="377,-224.5 377,-243.5 414,-243.5 414,-224.5 377,-224.5"/>
<text text-anchor="middle" x="395.5" y="-231.5" font-family="Helvetica,sans-Serif" font-size="10.00">so.h</text>
</a>
</g>
</g>
<!-- Node2&#45;&gt;Node3 -->
<g id="edge2" class="edge">
<title>Node2&#45;&gt;Node3</title>
<path fill="none" stroke="midnightblue" d="M443.34,-280.32C435,-272.42 422.47,-260.55 412.32,-250.94"/>
<polygon fill="midnightblue" stroke="midnightblue" points="414.49,-248.17 404.82,-243.83 409.68,-253.25 414.49,-248.17"/>
</g>
<!-- Node4 -->
<g id="node4" class="node">
<title>Node4</title>
<g id="a_node4"><a xlink:href="alo_8h.html" target="_top" xlink:title=" ">
<polygon fill="white" stroke="black" points="250,-168.5 250,-187.5 291,-187.5 291,-168.5 250,-168.5"/>
<text text-anchor="middle" x="270.5" y="-175.5" font-family="Helvetica,sans-Serif" font-size="10.00">alo.h</text>
</a>
</g>
</g>
<!-- Node3&#45;&gt;Node4 -->
<g id="edge3" class="edge">
<title>Node3&#45;&gt;Node4</title>
<path fill="none" stroke="midnightblue" d="M376.79,-224.92C356.43,-216.12 323.63,-201.95 299.85,-191.68"/>
<polygon fill="midnightblue" stroke="midnightblue" points="301.15,-188.43 290.59,-187.68 298.38,-194.86 301.15,-188.43"/>
</g>
<!-- Node5 -->
<g id="node5" class="node">
<title>Node5</title>
<g id="a_node5"><a xlink:href="lo_8h.html" target="_top" xlink:title="Level objects.">
<polygon fill="white" stroke="black" points="159,-112.5 159,-131.5 194,-131.5 194,-112.5 159,-112.5"/>
<text text-anchor="middle" x="176.5" y="-119.5" font-family="Helvetica,sans-Serif" font-size="10.00">lo.h</text>
</a>
</g>
</g>
<!-- Node4&#45;&gt;Node5 -->
<g id="edge4" class="edge">
<title>Node4&#45;&gt;Node5</title>
<path fill="none" stroke="midnightblue" d="M255.4,-168.32C240.6,-159.82 217.81,-146.73 200.52,-136.8"/>
<polygon fill="midnightblue" stroke="midnightblue" points="201.98,-133.6 191.57,-131.65 198.49,-139.67 201.98,-133.6"/>
</g>
<!-- Node9 -->
<g id="node9" class="node">
<title>Node9</title>
<g id="a_node9"><a xlink:href="dl_8h.html" target="_top" xlink:title="Doubly&#45;linked list.">
<polygon fill="white" stroke="black" points="419,-56.5 419,-75.5 454,-75.5 454,-56.5 419,-56.5"/>
<text text-anchor="middle" x="436.5" y="-63.5" font-family="Helvetica,sans-Serif" font-size="10.00">dl.h</text>
</a>
</g>
</g>
<!-- Node4&#45;&gt;Node9 -->
<g id="edge13" class="edge">
<title>Node4&#45;&gt;Node9</title>
<path fill="none" stroke="midnightblue" d="M272.98,-168.09C277.31,-154.16 287.52,-127.26 305.5,-112 313.61,-105.11 373.15,-86.23 409.11,-75.24"/>
<polygon fill="midnightblue" stroke="midnightblue" points="410.45,-78.49 418.99,-72.23 408.41,-71.79 410.45,-78.49"/>
</g>
<!-- Node6 -->
<g id="node6" class="node">
<title>Node6</title>
<g id="a_node6"><a xlink:href="oid_8h.html" target="_top" xlink:title="Object IDs.">
<polygon fill="white" stroke="black" points="416,-0.5 416,-19.5 457,-19.5 457,-0.5 416,-0.5"/>
<text text-anchor="middle" x="436.5" y="-7.5" font-family="Helvetica,sans-Serif" font-size="10.00">oid.h</text>
</a>
</g>
</g>
<!-- Node5&#45;&gt;Node6 -->
<g id="edge5" class="edge">
<title>Node5&#45;&gt;Node6</title>
<path fill="none" stroke="midnightblue" d="M194.06,-115.87C198.74,-114.55 203.8,-113.18 208.5,-112 280.46,-93.95 306.44,-111.66 371.5,-76 393.06,-64.18 412.2,-43.06 424.04,-28.1"/>
<polygon fill="midnightblue" stroke="midnightblue" points="427.14,-29.8 430.42,-19.72 421.57,-25.56 427.14,-29.8"/>
</g>
<!-- Node7 -->
<g id="node7" class="node">
<title>Node7</title>
<g id="a_node7"><a xlink:href="basic_8h.html" target="_top" xlink:title="Basic object.">
<polygon fill="white" stroke="black" points="151,-56.5 151,-75.5 202,-75.5 202,-56.5 151,-56.5"/>
<text text-anchor="middle" x="176.5" y="-63.5" font-family="Helvetica,sans-Serif" font-size="10.00">basic.h</text>
</a>
</g>
</g>
<!-- Node5&#45;&gt;Node7 -->
<g id="edge6" class="edge">
<title>Node5&#45;&gt;Node7</title>
<path fill="none" stroke="midnightblue" d="M176.5,-112.08C176.5,-105.01 176.5,-94.86 176.5,-85.99"/>
<polygon fill="midnightblue" stroke="midnightblue" points="180,-85.75 176.5,-75.75 173,-85.75 180,-85.75"/>
</g>
<!-- Node5&#45;&gt;Node9 -->
<g id="edge8" class="edge">
<title>Node5&#45;&gt;Node9</title>
<path fill="none" stroke="midnightblue" d="M194.03,-115.75C198.71,-114.44 203.78,-113.1 208.5,-112 294.78,-91.99 318.22,-96.01 404.5,-76 405.98,-75.66 407.49,-75.29 409.01,-74.91"/>
<polygon fill="midnightblue" stroke="midnightblue" points="410.21,-78.21 418.97,-72.25 408.41,-71.45 410.21,-78.21"/>
</g>
<!-- Node10 -->
<g id="node10" class="node">
<title>Node10</title>
<g id="a_node10"><a xlink:href="sw_8h.html" target="_top" xlink:title="Scene world?">
<polygon fill="white" stroke="black" points="324.5,-56.5 324.5,-75.5 362.5,-75.5 362.5,-56.5 324.5,-56.5"/>
<text text-anchor="middle" x="343.5" y="-63.5" font-family="Helvetica,sans-Serif" font-size="10.00">sw.h</text>
</a>
</g>
</g>
<!-- Node5&#45;&gt;Node10 -->
<g id="edge10" class="edge">
<title>Node5&#45;&gt;Node10</title>
<path fill="none" stroke="midnightblue" d="M194.06,-115.32C222.79,-106.03 280.13,-87.49 314.83,-76.27"/>
<polygon fill="midnightblue" stroke="midnightblue" points="315.96,-79.58 324.39,-73.18 313.8,-72.92 315.96,-79.58"/>
</g>
<!-- Node11 -->
<g id="node11" class="node">
<title>Node11</title>
<g id="a_node11"><a xlink:href="frame_8h.html" target="_top" xlink:title=" ">
<polygon fill="white" stroke="black" points="220.5,-56.5 220.5,-75.5 306.5,-75.5 306.5,-56.5 220.5,-56.5"/>
<text text-anchor="middle" x="263.5" y="-63.5" font-family="Helvetica,sans-Serif" font-size="10.00">splice/frame.h</text>
</a>
</g>
</g>
<!-- Node5&#45;&gt;Node11 -->
<g id="edge11" class="edge">
<title>Node5&#45;&gt;Node11</title>
<path fill="none" stroke="midnightblue" d="M190.48,-112.32C204.05,-103.9 224.88,-90.97 240.82,-81.07"/>
<polygon fill="midnightblue" stroke="midnightblue" points="242.91,-83.9 249.56,-75.65 239.21,-77.95 242.91,-83.9"/>
</g>
<!-- Node12 -->
<g id="node12" class="node">
<title>Node12</title>
<g id="a_node12"><a xlink:href="mq_8h.html" target="_top" xlink:title="Message queue.">
<polygon fill="white" stroke="black" points="92,-56.5 92,-75.5 133,-75.5 133,-56.5 92,-56.5"/>
<text text-anchor="middle" x="112.5" y="-63.5" font-family="Helvetica,sans-Serif" font-size="10.00">mq.h</text>
</a>
</g>
</g>
<!-- Node5&#45;&gt;Node12 -->
<g id="edge12" class="edge">
<title>Node5&#45;&gt;Node12</title>
<path fill="none" stroke="midnightblue" d="M166.22,-112.32C156.66,-104.26 142.22,-92.08 130.72,-82.37"/>
<polygon fill="midnightblue" stroke="midnightblue" points="132.87,-79.61 122.97,-75.83 128.36,-84.96 132.87,-79.61"/>
</g>
<!-- Node8 -->
<g id="node8" class="node">
<title>Node8</title>
<g id="a_node8"><a xlink:href="sidebag_8h.html" target="_top" xlink:title="Sidebag for splice.">
<polygon fill="white" stroke="black" points="129,-0.5 129,-19.5 224,-19.5 224,-0.5 129,-0.5"/>
<text text-anchor="middle" x="176.5" y="-7.5" font-family="Helvetica,sans-Serif" font-size="10.00">splice/sidebag.h</text>
</a>
</g>
</g>
<!-- Node7&#45;&gt;Node8 -->
<g id="edge7" class="edge">
<title>Node7&#45;&gt;Node8</title>
<path fill="none" stroke="midnightblue" d="M176.5,-56.08C176.5,-49.01 176.5,-38.86 176.5,-29.99"/>
<polygon fill="midnightblue" stroke="midnightblue" points="180,-29.75 176.5,-19.75 173,-29.75 180,-29.75"/>
</g>
<!-- Node9&#45;&gt;Node6 -->
<g id="edge9" class="edge">
<title>Node9&#45;&gt;Node6</title>
<path fill="none" stroke="midnightblue" d="M436.5,-56.08C436.5,-49.01 436.5,-38.86 436.5,-29.99"/>
<polygon fill="midnightblue" stroke="midnightblue" points="440,-29.75 436.5,-19.75 433,-29.75 440,-29.75"/>
</g>
<!-- Node14 -->
<g id="node14" class="node">
<title>Node14</title>
<g id="a_node14"><a xlink:href="xform_8h.html" target="_top" xlink:title="Transform.">
<polygon fill="white" stroke="black" points="294,-672.5 294,-691.5 349,-691.5 349,-672.5 294,-672.5"/>
<text text-anchor="middle" x="321.5" y="-679.5" font-family="Helvetica,sans-Serif" font-size="10.00">xform.h</text>
</a>
</g>
</g>
<!-- Node13&#45;&gt;Node14 -->
<g id="edge15" class="edge">
<title>Node13&#45;&gt;Node14</title>
<path fill="none" stroke="midnightblue" d="M381.09,-728.32C370.39,-720.18 354.16,-707.84 341.34,-698.09"/>
<polygon fill="midnightblue" stroke="midnightblue" points="343.19,-695.1 333.11,-691.83 338.96,-700.67 343.19,-695.1"/>
</g>
<!-- Node14&#45;&gt;Node4 -->
<g id="edge16" class="edge">
<title>Node14&#45;&gt;Node4</title>
<path fill="none" stroke="midnightblue" d="M296.71,-672.41C259.75,-657.83 194.5,-624.53 194.5,-571 194.5,-571 194.5,-571 194.5,-345 194.5,-285.8 234.96,-224.61 256.84,-195.86"/>
<polygon fill="midnightblue" stroke="midnightblue" points="259.81,-197.74 263.21,-187.71 254.3,-193.43 259.81,-197.74"/>
</g>
<!-- Node14&#45;&gt;Node6 -->
<g id="edge32" class="edge">
<title>Node14&#45;&gt;Node6</title>
<path fill="none" stroke="midnightblue" d="M293.89,-681.52C227.33,-681.21 63.5,-670.33 63.5,-571 63.5,-571 63.5,-571 63.5,-121 63.5,-90.9 59.61,-75.54 82.5,-56 106.91,-35.17 323.7,-18.58 405.47,-13.01"/>
<polygon fill="midnightblue" stroke="midnightblue" points="405.9,-16.49 415.64,-12.33 405.43,-9.51 405.9,-16.49"/>
</g>
<!-- Node14&#45;&gt;Node9 -->
<g id="edge25" class="edge">
<title>Node14&#45;&gt;Node9</title>
<path fill="none" stroke="midnightblue" d="M324.06,-672.25C329.25,-653.74 340.5,-609.18 340.5,-571 340.5,-571 340.5,-571 340.5,-457 340.5,-402.63 312.8,-389.5 322.5,-336 340.76,-235.28 401.08,-126.18 425.8,-84.51"/>
<polygon fill="midnightblue" stroke="midnightblue" points="428.86,-86.2 431.01,-75.83 422.86,-82.6 428.86,-86.2"/>
</g>
<!-- Node15 -->
<g id="node15" class="node">
<title>Node15</title>
<g id="a_node15"><a xlink:href="util_8h.html" target="_top" xlink:title="Utility functions.">
<polygon fill="white" stroke="black" points="331,-336.5 331,-355.5 372,-355.5 372,-336.5 331,-336.5"/>
<text text-anchor="middle" x="351.5" y="-343.5" font-family="Helvetica,sans-Serif" font-size="10.00">util.h</text>
</a>
</g>
</g>
<!-- Node14&#45;&gt;Node15 -->
<g id="edge17" class="edge">
<title>Node14&#45;&gt;Node15</title>
<path fill="none" stroke="midnightblue" d="M318.94,-672.25C313.75,-653.74 302.5,-609.18 302.5,-571 302.5,-571 302.5,-571 302.5,-457 302.5,-421.47 324.1,-384.63 338.62,-363.88"/>
<polygon fill="midnightblue" stroke="midnightblue" points="341.63,-365.69 344.69,-355.54 335.97,-361.57 341.63,-365.69"/>
</g>
<!-- Node18 -->
<g id="node18" class="node">
<title>Node18</title>
<g id="a_node18"><a xlink:href="anim_8h.html" target="_top" xlink:title="Animation.">
<polygon fill="white" stroke="black" points="142.5,-168.5 142.5,-187.5 192.5,-187.5 192.5,-168.5 142.5,-168.5"/>
<text text-anchor="middle" x="167.5" y="-175.5" font-family="Helvetica,sans-Serif" font-size="10.00">anim.h</text>
</a>
</g>
</g>
<!-- Node14&#45;&gt;Node18 -->
<g id="edge33" class="edge">
<title>Node14&#45;&gt;Node18</title>
<path fill="none" stroke="midnightblue" d="M293.7,-678.7C238.1,-672.42 118.5,-649.77 118.5,-571 118.5,-571 118.5,-571 118.5,-289 118.5,-253.47 140.1,-216.63 154.62,-195.88"/>
<polygon fill="midnightblue" stroke="midnightblue" points="157.63,-197.69 160.69,-187.54 151.97,-193.57 157.63,-197.69"/>
</g>
<!-- Node19 -->
<g id="node19" class="node">
<title>Node19</title>
<g id="a_node19"><a xlink:href="surf_8h.html" target="_top" xlink:title="Surfaces?">
<polygon fill="white" stroke="black" points="676.5,-336.5 676.5,-355.5 720.5,-355.5 720.5,-336.5 676.5,-336.5"/>
<text text-anchor="middle" x="698.5" y="-343.5" font-family="Helvetica,sans-Serif" font-size="10.00">surf.h</text>
</a>
</g>
</g>
<!-- Node14&#45;&gt;Node19 -->
<g id="edge26" class="edge">
<title>Node14&#45;&gt;Node19</title>
<path fill="none" stroke="midnightblue" d="M331.72,-672.45C342.44,-663.45 359.75,-648.84 374.5,-636 493.04,-532.84 633.39,-406.03 681.41,-362.51"/>
<polygon fill="midnightblue" stroke="midnightblue" points="683.98,-364.91 689.03,-355.6 679.27,-359.72 683.98,-364.91"/>
</g>
<!-- Node21 -->
<g id="node21" class="node">
<title>Node21</title>
<g id="a_node21"><a xlink:href="game_8h.html" target="_top" xlink:title="Game state and level management.">
<polygon fill="white" stroke="black" points="529,-392.5 529,-411.5 582,-411.5 582,-392.5 529,-392.5"/>
<text text-anchor="middle" x="555.5" y="-399.5" font-family="Helvetica,sans-Serif" font-size="10.00">game.h</text>
</a>
</g>
</g>
<!-- Node14&#45;&gt;Node21 -->
<g id="edge29" class="edge">
<title>Node14&#45;&gt;Node21</title>
<path fill="none" stroke="midnightblue" d="M328.26,-672.17C335.06,-663.19 345.77,-648.81 354.5,-636 376.99,-602.98 377.76,-591.37 402.5,-560 446.88,-503.73 508.75,-445.3 538.37,-418.33"/>
<polygon fill="midnightblue" stroke="midnightblue" points="540.76,-420.89 545.83,-411.58 536.06,-415.7 540.76,-420.89"/>
</g>
<!-- Node23 -->
<g id="node23" class="node">
<title>Node23</title>
<g id="a_node23"><a xlink:href="wipe_8h.html" target="_top" xlink:title="Screen wipes.">
<polygon fill="white" stroke="black" points="625,-112.5 625,-131.5 674,-131.5 674,-112.5 625,-112.5"/>
<text text-anchor="middle" x="649.5" y="-119.5" font-family="Helvetica,sans-Serif" font-size="10.00">wipe.h</text>
</a>
</g>
</g>
<!-- Node14&#45;&gt;Node23 -->
<g id="edge34" class="edge">
<title>Node14&#45;&gt;Node23</title>
<path fill="none" stroke="midnightblue" d="M332.32,-672.33C343.22,-663.48 360.4,-649.2 374.5,-636 475.67,-541.25 512.68,-526.02 591.5,-412 625.3,-363.1 648.5,-350.45 648.5,-291 648.5,-291 648.5,-291 648.5,-233 648.5,-200.95 648.93,-163.64 649.23,-141.75"/>
<polygon fill="midnightblue" stroke="midnightblue" points="652.73,-141.61 649.37,-131.56 645.73,-141.51 652.73,-141.61"/>
</g>
<!-- Node14&#45;&gt;Node25 -->
<g id="edge38" class="edge">
<title>Node14&#45;&gt;Node25</title>
<path fill="none" stroke="midnightblue" d="M349,-675.22C397.6,-665.01 498.26,-643.86 548.55,-633.29"/>
<polygon fill="midnightblue" stroke="midnightblue" points="549.41,-636.69 558.48,-631.21 547.97,-629.84 549.41,-636.69"/>
</g>
<!-- Node35 -->
<g id="node35" class="node">
<title>Node35</title>
<g id="a_node35"><a xlink:href="proxy_8h.html" target="_top" xlink:title=" ">
<polygon fill="white" stroke="black" points="222.5,-448.5 222.5,-467.5 274.5,-467.5 274.5,-448.5 222.5,-448.5"/>
<text text-anchor="middle" x="248.5" y="-455.5" font-family="Helvetica,sans-Serif" font-size="10.00">proxy.h</text>
</a>
</g>
</g>
<!-- Node14&#45;&gt;Node35 -->
<g id="edge55" class="edge">
<title>Node14&#45;&gt;Node35</title>
<path fill="none" stroke="midnightblue" d="M313.48,-672.39C305.93,-663.81 294.85,-649.93 288.5,-636 263.73,-581.63 253.71,-510.68 250.18,-477.55"/>
<polygon fill="midnightblue" stroke="midnightblue" points="253.65,-477.11 249.18,-467.5 246.68,-477.8 253.65,-477.11"/>
</g>
<!-- Node36 -->
<g id="node36" class="node">
<title>Node36</title>
<g id="a_node36"><a xlink:href="rs_8h.html" target="_top" xlink:title=" ">
<polygon fill="white" stroke="black" points="0,-616.5 0,-635.5 35,-635.5 35,-616.5 0,-616.5"/>
<text text-anchor="middle" x="17.5" y="-623.5" font-family="Helvetica,sans-Serif" font-size="10.00">rs.h</text>
</a>
</g>
</g>
<!-- Node14&#45;&gt;Node36 -->
<g id="edge57" class="edge">
<title>Node14&#45;&gt;Node36</title>
<path fill="none" stroke="midnightblue" d="M293.9,-677.46C244.54,-670.9 138.03,-655.71 49.5,-636 48.02,-635.67 46.51,-635.31 44.99,-634.94"/>
<polygon fill="midnightblue" stroke="midnightblue" points="45.58,-631.48 35.02,-632.3 43.79,-638.24 45.58,-631.48"/>
</g>
<!-- Node15&#45;&gt;Node2 -->
<g id="edge19" class="edge">
<title>Node15&#45;&gt;Node2</title>
<path fill="none" stroke="midnightblue" d="M367.73,-336.32C383.85,-327.7 408.8,-314.36 427.46,-304.39"/>
<polygon fill="midnightblue" stroke="midnightblue" points="429.14,-307.46 436.31,-299.65 425.84,-301.28 429.14,-307.46"/>
</g>
<!-- Node16 -->
<g id="node16" class="node">
<title>Node16</title>
<g id="a_node16"><a xlink:href="mat_8h.html" target="_top" xlink:title="3x3 and 4x4 matrix types.">
<polygon fill="white" stroke="black" points="352,-280.5 352,-299.5 397,-299.5 397,-280.5 352,-280.5"/>
<text text-anchor="middle" x="374.5" y="-287.5" font-family="Helvetica,sans-Serif" font-size="10.00">mat.h</text>
</a>
</g>
</g>
<!-- Node15&#45;&gt;Node16 -->
<g id="edge18" class="edge">
<title>Node15&#45;&gt;Node16</title>
<path fill="none" stroke="midnightblue" d="M355.3,-336.08C358.41,-328.77 362.92,-318.18 366.79,-309.1"/>
<polygon fill="midnightblue" stroke="midnightblue" points="370.07,-310.32 370.77,-299.75 363.63,-307.58 370.07,-310.32"/>
</g>
<!-- Node17 -->
<g id="node17" class="node">
<title>Node17</title>
<g id="a_node17"><a xlink:href="sm_8h.html" target="_top" xlink:title="State machines.">
<polygon fill="white" stroke="black" points="147,-224.5 147,-243.5 188,-243.5 188,-224.5 147,-224.5"/>
<text text-anchor="middle" x="167.5" y="-231.5" font-family="Helvetica,sans-Serif" font-size="10.00">sm.h</text>
</a>
</g>
</g>
<!-- Node15&#45;&gt;Node17 -->
<g id="edge20" class="edge">
<title>Node15&#45;&gt;Node17</title>
<path fill="none" stroke="midnightblue" d="M337.06,-336.37C305.35,-317.41 229.39,-272 190.82,-248.94"/>
<polygon fill="midnightblue" stroke="midnightblue" points="192.25,-245.72 181.87,-243.59 188.66,-251.73 192.25,-245.72"/>
</g>
<!-- Node17&#45;&gt;Node9 -->
<g id="edge21" class="edge">
<title>Node17&#45;&gt;Node9</title>
<path fill="none" stroke="midnightblue" d="M174.93,-224.22C196.34,-199.14 258.26,-127.91 284.5,-112 295.27,-105.47 368.36,-85.27 409.14,-74.29"/>
<polygon fill="midnightblue" stroke="midnightblue" points="410.24,-77.62 418.99,-71.64 408.42,-70.85 410.24,-77.62"/>
</g>
<!-- Node17&#45;&gt;Node12 -->
<g id="edge24" class="edge">
<title>Node17&#45;&gt;Node12</title>
<path fill="none" stroke="midnightblue" d="M158.77,-224.18C150.88,-215.66 139.58,-202.01 133.5,-188 118.7,-153.89 114.32,-110.11 113.03,-85.65"/>
<polygon fill="midnightblue" stroke="midnightblue" points="116.52,-85.46 112.62,-75.61 109.53,-85.74 116.52,-85.46"/>
</g>
<!-- Node17&#45;&gt;Node18 -->
<g id="edge22" class="edge">
<title>Node17&#45;&gt;Node18</title>
<path fill="none" stroke="midnightblue" d="M167.5,-224.08C167.5,-217.01 167.5,-206.86 167.5,-197.99"/>
<polygon fill="midnightblue" stroke="midnightblue" points="171,-197.75 167.5,-187.75 164,-197.75 171,-197.75"/>
</g>
<!-- Node18&#45;&gt;Node5 -->
<g id="edge23" class="edge">
<title>Node18&#45;&gt;Node5</title>
<path fill="none" stroke="midnightblue" d="M168.99,-168.08C170.18,-160.93 171.89,-150.64 173.38,-141.69"/>
<polygon fill="midnightblue" stroke="midnightblue" points="176.85,-142.19 175.04,-131.75 169.95,-141.04 176.85,-142.19"/>
</g>
<!-- Node19&#45;&gt;Node2 -->
<g id="edge27" class="edge">
<title>Node19&#45;&gt;Node2</title>
<path fill="none" stroke="midnightblue" d="M676.24,-340.11C632.4,-330.49 534.78,-309.06 484.22,-297.96"/>
<polygon fill="midnightblue" stroke="midnightblue" points="484.7,-294.49 474.19,-295.76 483.2,-301.32 484.7,-294.49"/>
</g>
<!-- Node20 -->
<g id="node20" class="node">
<title>Node20</title>
<g id="a_node20"><a xlink:href="geom_8h.html" target="_top" xlink:title="Geometry.">
<polygon fill="white" stroke="black" points="722,-280.5 722,-299.5 775,-299.5 775,-280.5 722,-280.5"/>
<text text-anchor="middle" x="748.5" y="-287.5" font-family="Helvetica,sans-Serif" font-size="10.00">geom.h</text>
</a>
</g>
</g>
<!-- Node19&#45;&gt;Node20 -->
<g id="edge28" class="edge">
<title>Node19&#45;&gt;Node20</title>
<path fill="none" stroke="midnightblue" d="M706.76,-336.08C713.96,-328.3 724.61,-316.8 733.35,-307.37"/>
<polygon fill="midnightblue" stroke="midnightblue" points="736.17,-309.47 740.4,-299.75 731.03,-304.71 736.17,-309.47"/>
</g>
<!-- Node21&#45;&gt;Node6 -->
<g id="edge30" class="edge">
<title>Node21&#45;&gt;Node6</title>
<path fill="none" stroke="midnightblue" d="M556.01,-392.09C556.55,-379.49 556.92,-355.8 553.5,-336 531.27,-207.19 517.48,-175.05 463.5,-56 459.17,-46.46 453.29,-36.41 448.11,-28.23"/>
<polygon fill="midnightblue" stroke="midnightblue" points="450.9,-26.1 442.5,-19.64 445.04,-29.92 450.9,-26.1"/>
</g>
<!-- Node22 -->
<g id="node22" class="node">
<title>Node22</title>
<g id="a_node22"><a xlink:href="cid_8h.html" target="_top" xlink:title="Class IDs.">
<polygon fill="white" stroke="black" points="504.5,-336.5 504.5,-355.5 544.5,-355.5 544.5,-336.5 504.5,-336.5"/>
<text text-anchor="middle" x="524.5" y="-343.5" font-family="Helvetica,sans-Serif" font-size="10.00">cid.h</text>
</a>
</g>
</g>
<!-- Node21&#45;&gt;Node22 -->
<g id="edge31" class="edge">
<title>Node21&#45;&gt;Node22</title>
<path fill="none" stroke="midnightblue" d="M550.38,-392.08C546.09,-384.61 539.84,-373.72 534.56,-364.52"/>
<polygon fill="midnightblue" stroke="midnightblue" points="537.54,-362.68 529.52,-355.75 531.47,-366.17 537.54,-362.68"/>
</g>
<!-- Node23&#45;&gt;Node6 -->
<g id="edge37" class="edge">
<title>Node23&#45;&gt;Node6</title>
<path fill="none" stroke="midnightblue" d="M662.94,-112.43C681.37,-99.64 710.49,-75.02 694.5,-56 665.79,-21.85 529.52,-13.62 467.44,-11.63"/>
<polygon fill="midnightblue" stroke="midnightblue" points="467.2,-8.12 457.1,-11.34 467,-15.12 467.2,-8.12"/>
</g>
<!-- Node24 -->
<g id="node24" class="node">
<title>Node24</title>
<g id="a_node24"><a xlink:href="transition_8h.html" target="_top" xlink:title="Level transitions.">
<polygon fill="white" stroke="black" points="613.5,-56.5 613.5,-75.5 685.5,-75.5 685.5,-56.5 613.5,-56.5"/>
<text text-anchor="middle" x="649.5" y="-63.5" font-family="Helvetica,sans-Serif" font-size="10.00">transition.h</text>
</a>
</g>
</g>
<!-- Node23&#45;&gt;Node24 -->
<g id="edge35" class="edge">
<title>Node23&#45;&gt;Node24</title>
<path fill="none" stroke="midnightblue" d="M649.5,-112.08C649.5,-105.01 649.5,-94.86 649.5,-85.99"/>
<polygon fill="midnightblue" stroke="midnightblue" points="653,-85.75 649.5,-75.75 646,-85.75 653,-85.75"/>
</g>
<!-- Node24&#45;&gt;Node6 -->
<g id="edge36" class="edge">
<title>Node24&#45;&gt;Node6</title>
<path fill="none" stroke="midnightblue" d="M615.75,-56.44C574.83,-46.07 506.46,-28.74 467.04,-18.74"/>
<polygon fill="midnightblue" stroke="midnightblue" points="467.76,-15.32 457.21,-16.25 466.04,-22.1 467.76,-15.32"/>
</g>
<!-- Node25&#45;&gt;Node2 -->
<g id="edge51" class="edge">
<title>Node25&#45;&gt;Node2</title>
<path fill="none" stroke="midnightblue" d="M560.18,-616.36C546.07,-608.76 527.22,-596.35 516.5,-580 458.58,-491.68 452.41,-358.9 452.23,-309.98"/>
<polygon fill="midnightblue" stroke="midnightblue" points="455.73,-309.91 452.28,-299.89 448.73,-309.87 455.73,-309.91"/>
</g>
<!-- Node25&#45;&gt;Node16 -->
<g id="edge52" class="edge">
<title>Node25&#45;&gt;Node16</title>
<path fill="none" stroke="midnightblue" d="M573.25,-616.41C546.2,-572.11 422.28,-369.24 385.09,-308.33"/>
<polygon fill="midnightblue" stroke="midnightblue" points="387.91,-306.24 379.71,-299.54 381.94,-309.89 387.91,-306.24"/>
</g>
<!-- Node25&#45;&gt;Node20 -->
<g id="edge53" class="edge">
<title>Node25&#45;&gt;Node20</title>
<path fill="none" stroke="midnightblue" d="M598.79,-616.43C614.22,-608.94 634.89,-596.64 647.5,-580 700.39,-510.2 669.49,-471.37 706.5,-392 714.52,-374.79 721.65,-373.29 729.5,-356 736.34,-340.95 741.4,-322.82 744.57,-309.54"/>
<polygon fill="midnightblue" stroke="midnightblue" points="748,-310.22 746.79,-299.69 741.17,-308.68 748,-310.22"/>
</g>
<!-- Node26 -->
<g id="node26" class="node">
<title>Node26</title>
<g id="a_node26"><a xlink:href="prog_8h.html" target="_top" xlink:title=" ">
<polygon fill="white" stroke="black" points="713,-560.5 713,-579.5 760,-579.5 760,-560.5 713,-560.5"/>
<text text-anchor="middle" x="736.5" y="-567.5" font-family="Helvetica,sans-Serif" font-size="10.00">prog.h</text>
</a>
</g>
</g>
<!-- Node25&#45;&gt;Node26 -->
<g id="edge39" class="edge">
<title>Node25&#45;&gt;Node26</title>
<path fill="none" stroke="midnightblue" d="M598.51,-618.16C624.81,-609.17 671.38,-593.26 703.07,-582.43"/>
<polygon fill="midnightblue" stroke="midnightblue" points="704.46,-585.65 712.79,-579.1 702.2,-579.02 704.46,-585.65"/>
</g>
<!-- Node33 -->
<g id="node33" class="node">
<title>Node33</title>
<g id="a_node33"><a xlink:href="clock_8h.html" target="_top" xlink:title="Engine clock.">
<polygon fill="white" stroke="black" points="778,-560.5 778,-579.5 829,-579.5 829,-560.5 778,-560.5"/>
<text text-anchor="middle" x="803.5" y="-567.5" font-family="Helvetica,sans-Serif" font-size="10.00">clock.h</text>
</a>
</g>
</g>
<!-- Node25&#45;&gt;Node33 -->
<g id="edge50" class="edge">
<title>Node25&#45;&gt;Node33</title>
<path fill="none" stroke="midnightblue" d="M598.62,-620.45C631.85,-612.9 700.53,-597.11 767.96,-580.34"/>
<polygon fill="midnightblue" stroke="midnightblue" points="769.05,-583.68 777.9,-577.86 767.35,-576.88 769.05,-583.68"/>
</g>
<!-- Node34 -->
<g id="node34" class="node">
<title>Node34</title>
<g id="a_node34"><a xlink:href="cat_8h.html" target="_top" xlink:title="Catalog.">
<polygon fill="white" stroke="black" points="597,-560.5 597,-579.5 638,-579.5 638,-560.5 597,-560.5"/>
<text text-anchor="middle" x="617.5" y="-567.5" font-family="Helvetica,sans-Serif" font-size="10.00">cat.h</text>
</a>
</g>
</g>
<!-- Node25&#45;&gt;Node34 -->
<g id="edge54" class="edge">
<title>Node25&#45;&gt;Node34</title>
<path fill="none" stroke="midnightblue" d="M584.94,-616.08C590.45,-608.46 598.53,-597.26 605.26,-587.94"/>
<polygon fill="midnightblue" stroke="midnightblue" points="608.16,-589.91 611.18,-579.75 602.49,-585.81 608.16,-589.91"/>
</g>
<!-- Node27 -->
<g id="node27" class="node">
<title>Node27</title>
<g id="a_node27"><a xlink:href="binoc_8h.html" target="_top" xlink:title="Binoc&#45;u&#45;com.">
<polygon fill="white" stroke="black" points="711.5,-504.5 711.5,-523.5 763.5,-523.5 763.5,-504.5 711.5,-504.5"/>
<text text-anchor="middle" x="737.5" y="-511.5" font-family="Helvetica,sans-Serif" font-size="10.00">binoc.h</text>
</a>
</g>
</g>
<!-- Node26&#45;&gt;Node27 -->
<g id="edge40" class="edge">
<title>Node26&#45;&gt;Node27</title>
<path fill="none" stroke="midnightblue" d="M736.67,-560.08C736.8,-553.01 736.98,-542.86 737.15,-533.99"/>
<polygon fill="midnightblue" stroke="midnightblue" points="740.65,-533.81 737.34,-523.75 733.65,-533.68 740.65,-533.81"/>
</g>
<!-- Node32 -->
<g id="node32" class="node">
<title>Node32</title>
<g id="a_node32"><a xlink:href="gs_8h.html" target="_top" xlink:title="Graphics synthesizer.">
<polygon fill="white" stroke="black" points="782,-504.5 782,-523.5 819,-523.5 819,-504.5 782,-504.5"/>
<text text-anchor="middle" x="800.5" y="-511.5" font-family="Helvetica,sans-Serif" font-size="10.00">gs.h</text>
</a>
</g>
</g>
<!-- Node26&#45;&gt;Node32 -->
<g id="edge49" class="edge">
<title>Node26&#45;&gt;Node32</title>
<path fill="none" stroke="midnightblue" d="M746.78,-560.32C756.34,-552.26 770.78,-540.08 782.28,-530.37"/>
<polygon fill="midnightblue" stroke="midnightblue" points="784.64,-532.96 790.03,-523.83 780.13,-527.61 784.64,-532.96"/>
</g>
<!-- Node28 -->
<g id="node28" class="node">
<title>Node28</title>
<g id="a_node28"><a xlink:href="screen_8h.html" target="_top" xlink:title="GUI elements.">
<polygon fill="white" stroke="black" points="711.5,-448.5 711.5,-467.5 769.5,-467.5 769.5,-448.5 711.5,-448.5"/>
<text text-anchor="middle" x="740.5" y="-455.5" font-family="Helvetica,sans-Serif" font-size="10.00">screen.h</text>
</a>
</g>
</g>
<!-- Node27&#45;&gt;Node28 -->
<g id="edge41" class="edge">
<title>Node27&#45;&gt;Node28</title>
<path fill="none" stroke="midnightblue" d="M738,-504.08C738.39,-497.01 738.95,-486.86 739.45,-477.99"/>
<polygon fill="midnightblue" stroke="midnightblue" points="742.95,-477.93 740.01,-467.75 735.96,-477.54 742.95,-477.93"/>
</g>
<!-- Node28&#45;&gt;Node21 -->
<g id="edge43" class="edge">
<title>Node28&#45;&gt;Node21</title>
<path fill="none" stroke="midnightblue" d="M711.19,-448.44C678.92,-439.02 626.99,-423.87 592.08,-413.68"/>
<polygon fill="midnightblue" stroke="midnightblue" points="592.85,-410.26 582.27,-410.82 590.89,-416.98 592.85,-410.26"/>
</g>
<!-- Node29 -->
<g id="node29" class="node">
<title>Node29</title>
<g id="a_node29"><a xlink:href="font_8h.html" target="_top" xlink:title="Font system.">
<polygon fill="white" stroke="black" points="715,-392.5 715,-411.5 760,-411.5 760,-392.5 715,-392.5"/>
<text text-anchor="middle" x="737.5" y="-399.5" font-family="Helvetica,sans-Serif" font-size="10.00">font.h</text>
</a>
</g>
</g>
<!-- Node28&#45;&gt;Node29 -->
<g id="edge42" class="edge">
<title>Node28&#45;&gt;Node29</title>
<path fill="none" stroke="midnightblue" d="M740,-448.08C739.61,-441.01 739.05,-430.86 738.55,-421.99"/>
<polygon fill="midnightblue" stroke="midnightblue" points="742.04,-421.54 737.99,-411.75 735.05,-421.93 742.04,-421.54"/>
</g>
<!-- Node30 -->
<g id="node30" class="node">
<title>Node30</title>
<g id="a_node30"><a xlink:href="shd_8h.html" target="_top" xlink:title="Shaders.">
<polygon fill="white" stroke="black" points="778,-392.5 778,-411.5 821,-411.5 821,-392.5 778,-392.5"/>
<text text-anchor="middle" x="799.5" y="-399.5" font-family="Helvetica,sans-Serif" font-size="10.00">shd.h</text>
</a>
</g>
</g>
<!-- Node28&#45;&gt;Node30 -->
<g id="edge44" class="edge">
<title>Node28&#45;&gt;Node30</title>
<path fill="none" stroke="midnightblue" d="M749.98,-448.32C758.7,-440.34 771.84,-428.31 782.4,-418.65"/>
<polygon fill="midnightblue" stroke="midnightblue" points="784.83,-421.17 789.85,-411.83 780.11,-416 784.83,-421.17"/>
</g>
<!-- Node30&#45;&gt;Node2 -->
<g id="edge48" class="edge">
<title>Node30&#45;&gt;Node2</title>
<path fill="none" stroke="midnightblue" d="M777.79,-394.12C718.52,-375.33 553.7,-323.08 484.13,-301.03"/>
<polygon fill="midnightblue" stroke="midnightblue" points="484.79,-297.56 474.2,-297.88 482.67,-304.24 484.79,-297.56"/>
</g>
<!-- Node30&#45;&gt;Node19 -->
<g id="edge47" class="edge">
<title>Node30&#45;&gt;Node19</title>
<path fill="none" stroke="midnightblue" d="M783.27,-392.32C767.15,-383.7 742.2,-370.36 723.54,-360.39"/>
<polygon fill="midnightblue" stroke="midnightblue" points="725.16,-357.28 714.69,-355.65 721.86,-363.46 725.16,-357.28"/>
</g>
<!-- Node30&#45;&gt;Node20 -->
<g id="edge46" class="edge">
<title>Node30&#45;&gt;Node20</title>
<path fill="none" stroke="midnightblue" d="M795.5,-392.37C787.19,-374.46 767.94,-332.92 756.82,-308.95"/>
<polygon fill="midnightblue" stroke="midnightblue" points="759.86,-307.19 752.48,-299.59 753.51,-310.14 759.86,-307.19"/>
</g>
<!-- Node31 -->
<g id="node31" class="node">
<title>Node31</title>
<g id="a_node31"><a xlink:href="eestruct_8h.html" target="_top" xlink:title="Graphics synthesizer.">
<polygon fill="white" stroke="black" points="815,-336.5 815,-355.5 916,-355.5 916,-336.5 815,-336.5"/>
<text text-anchor="middle" x="865.5" y="-343.5" font-family="Helvetica,sans-Serif" font-size="10.00">sdk/ee/eestruct.h</text>
</a>
</g>
</g>
<!-- Node30&#45;&gt;Node31 -->
<g id="edge45" class="edge">
<title>Node30&#45;&gt;Node31</title>
<path fill="none" stroke="midnightblue" d="M810.1,-392.32C819.96,-384.26 834.85,-372.08 846.72,-362.37"/>
<polygon fill="midnightblue" stroke="midnightblue" points="849.18,-364.88 854.7,-355.83 844.75,-359.46 849.18,-364.88"/>
</g>
<!-- Node35&#45;&gt;Node4 -->
<g id="edge56" class="edge">
<title>Node35&#45;&gt;Node4</title>
<path fill="none" stroke="midnightblue" d="M249.18,-448.38C252.24,-409.78 264.69,-252.45 269.01,-197.81"/>
<polygon fill="midnightblue" stroke="midnightblue" points="272.53,-197.77 269.83,-187.52 265.55,-197.22 272.53,-197.77"/>
</g>
<!-- Node36&#45;&gt;Node6 -->
<g id="edge58" class="edge">
<title>Node36&#45;&gt;Node6</title>
<path fill="none" stroke="midnightblue" d="M18.02,-616.45C19.11,-597.95 21.5,-552.84 21.5,-515 21.5,-515 21.5,-515 21.5,-121 21.5,-89.54 24.27,-74.78 49.5,-56 77.92,-34.84 319.09,-18.17 405.69,-12.82"/>
<polygon fill="midnightblue" stroke="midnightblue" points="406.16,-16.3 415.93,-12.19 405.73,-9.31 406.16,-16.3"/>
</g>
</g>
</svg>
