<?xml version="1.0" encoding="UTF-8" standalone="no"?>
<!DOCTYPE svg PUBLIC "-//W3C//DTD SVG 1.1//EN"
 "http://www.w3.org/Graphics/SVG/1.1/DTD/svg11.dtd">
<!-- Generated by graphviz version 2.43.0 (0)
 -->
<!-- Title: include/clock.h Pages: 1 -->
<!--zoomable 364 -->
<svg id="main" version="1.1" xmlns="http://www.w3.org/2000/svg" xmlns:xlink="http://www.w3.org/1999/xlink" xml:space="preserve" onload="init(evt)">
<style type="text/css"><![CDATA[
.edge:hover path { stroke: red; }
.edge:hover polygon { stroke: red; fill: red; }
]]></style>
<script type="text/javascript"><![CDATA[
var edges = document.getElementsByTagName('g');
if (edges && edges.length) {
  for (var i=0;i<edges.length;i++) {
    if (edges[i].id.substr(0,4)=='edge') {
      edges[i].setAttribute('class','edge');
    }
  }
}
]]></script>
        <defs>
                <circle id="rim" cx="0" cy="0" r="7"/>
                <circle id="rim2" cx="0" cy="0" r="3.5"/>
                <g id="zoomPlus">
                        <use xlink:href="#rim" fill="#404040">
                                <set attributeName="fill" to="#808080" begin="zoomplus.mouseover" end="zoomplus.mouseout"/>
                        </use>
                        <path d="M-4,0h8M0,-4v8" fill="none" stroke="white" stroke-width="1.5" pointer-events="none"/>
                </g>
                <g id="zoomMin">
                        <use xlink:href="#rim" fill="#404040">
                                <set attributeName="fill" to="#808080" begin="zoomminus.mouseover" end="zoomminus.mouseout"/>
                        </use>
                        <path d="M-4,0h8" fill="none" stroke="white" stroke-width="1.5" pointer-events="none"/>
                </g>
                <g id="dirArrow">
                        <path fill="none" stroke="white" stroke-width="1.5" d="M0,-3.0v7 M-2.5,-0.5L0,-3.0L2.5,-0.5"/>
                </g>
               <g id="resetDef">
                       <use xlink:href="#rim2" fill="#404040">
                               <set attributeName="fill" to="#808080" begin="reset.mouseover" end="reset.mouseout"/>
                       </use>
               </g>
        </defs>

<script type="text/javascript">
var viewWidth = 633;
var viewHeight = 364;
var sectionId = 'dynsection-1';
</script>
<script xlink:href="svgpan.js"/>
<svg id="graph" class="graph">
<g id="viewport">
<title>include/clock.h</title>
<polygon fill="white" stroke="transparent" points="-4,4 -4,-360 629.07,-360 629.07,4 -4,4"/>
<!-- Node1 -->
<g id="node1" class="node">
<title>Node1</title>
<g id="a_node1"><a xlink:title="Engine clock.">
<polygon fill="#bfbfbf" stroke="black" points="103,-336.5 103,-355.5 192,-355.5 192,-336.5 103,-336.5"/>
<text text-anchor="middle" x="147.5" y="-343.5" font-family="Helvetica,sans-Serif" font-size="10.00">include/clock.h</text>
</a>
</g>
</g>
<!-- Node2 -->
<g id="node2" class="node">
<title>Node2</title>
<g id="a_node2"><a xlink:href="clock_8c.html" target="_top" xlink:title=" ">
<polygon fill="white" stroke="black" points="0,-280.5 0,-299.5 83,-299.5 83,-280.5 0,-280.5"/>
<text text-anchor="middle" x="41.5" y="-287.5" font-family="Helvetica,sans-Serif" font-size="10.00">src/P2/clock.c</text>
</a>
</g>
</g>
<!-- Node1&#45;&gt;Node2 -->
<g id="edge1" class="edge">
<title>Node1&#45;&gt;Node2</title>
<path fill="none" stroke="midnightblue" d="M121.44,-331.73C101.82,-321.73 75.47,-308.31 58.49,-299.65"/>
<polygon fill="midnightblue" stroke="midnightblue" points="119.97,-334.9 130.47,-336.32 123.15,-328.67 119.97,-334.9"/>
</g>
<!-- Node3 -->
<g id="node3" class="node">
<title>Node3</title>
<g id="a_node3"><a xlink:href="flash_8c.html" target="_top" xlink:title=" ">
<polygon fill="white" stroke="black" points="107.5,-56.5 107.5,-75.5 187.5,-75.5 187.5,-56.5 107.5,-56.5"/>
<text text-anchor="middle" x="147.5" y="-63.5" font-family="Helvetica,sans-Serif" font-size="10.00">src/P2/flash.c</text>
</a>
</g>
</g>
<!-- Node1&#45;&gt;Node3 -->
<g id="edge2" class="edge">
<title>Node1&#45;&gt;Node3</title>
<path fill="none" stroke="midnightblue" d="M137.91,-327.4C127.24,-306.15 111.5,-269.02 111.5,-235 111.5,-235 111.5,-235 111.5,-177 111.5,-137.41 132.82,-93.61 142.64,-75.53"/>
<polygon fill="midnightblue" stroke="midnightblue" points="134.91,-329.23 142.64,-336.47 141.12,-325.99 134.91,-329.23"/>
</g>
<!-- Node4 -->
<g id="node4" class="node">
<title>Node4</title>
<g id="a_node4"><a xlink:href="screen_8c.html" target="_top" xlink:title=" ">
<polygon fill="white" stroke="black" points="140,-280.5 140,-299.5 229,-299.5 229,-280.5 140,-280.5"/>
<text text-anchor="middle" x="184.5" y="-287.5" font-family="Helvetica,sans-Serif" font-size="10.00">src/P2/screen.c</text>
</a>
</g>
</g>
<!-- Node1&#45;&gt;Node4 -->
<g id="edge3" class="edge">
<title>Node1&#45;&gt;Node4</title>
<path fill="none" stroke="midnightblue" d="M159.45,-327.57C165.81,-318.27 173.37,-307.25 178.5,-299.75"/>
<polygon fill="midnightblue" stroke="midnightblue" points="156.37,-325.86 153.61,-336.08 162.15,-329.81 156.37,-325.86"/>
</g>
<!-- Node5 -->
<g id="node5" class="node">
<title>Node5</title>
<g id="a_node5"><a xlink:href="bis_8h.html" target="_top" xlink:title="Binary Input Stream.">
<polygon fill="white" stroke="black" points="400.5,-280.5 400.5,-299.5 478.5,-299.5 478.5,-280.5 400.5,-280.5"/>
<text text-anchor="middle" x="439.5" y="-287.5" font-family="Helvetica,sans-Serif" font-size="10.00">include/bis.h</text>
</a>
</g>
</g>
<!-- Node1&#45;&gt;Node5 -->
<g id="edge4" class="edge">
<title>Node1&#45;&gt;Node5</title>
<path fill="none" stroke="midnightblue" d="M202.21,-334.88C259.93,-324.21 349.46,-307.65 400.45,-298.22"/>
<polygon fill="midnightblue" stroke="midnightblue" points="201.36,-331.48 192.17,-336.74 202.64,-338.36 201.36,-331.48"/>
</g>
<!-- Node6 -->
<g id="node6" class="node">
<title>Node6</title>
<g id="a_node6"><a xlink:href="bis_8c.html" target="_top" xlink:title=" ">
<polygon fill="white" stroke="black" points="304,-224.5 304,-243.5 375,-243.5 375,-224.5 304,-224.5"/>
<text text-anchor="middle" x="339.5" y="-231.5" font-family="Helvetica,sans-Serif" font-size="10.00">src/P2/bis.c</text>
</a>
</g>
</g>
<!-- Node5&#45;&gt;Node6 -->
<g id="edge5" class="edge">
<title>Node5&#45;&gt;Node6</title>
<path fill="none" stroke="midnightblue" d="M414.41,-275.45C395.95,-265.48 371.4,-252.23 355.53,-243.65"/>
<polygon fill="midnightblue" stroke="midnightblue" points="412.97,-278.65 423.43,-280.32 416.3,-272.49 412.97,-278.65"/>
</g>
<!-- Node7 -->
<g id="node7" class="node">
<title>Node7</title>
<g id="a_node7"><a xlink:href="coin_8c.html" target="_top" xlink:title=" ">
<polygon fill="white" stroke="black" points="533,-56.5 533,-75.5 610,-75.5 610,-56.5 533,-56.5"/>
<text text-anchor="middle" x="571.5" y="-63.5" font-family="Helvetica,sans-Serif" font-size="10.00">src/P2/coin.c</text>
</a>
</g>
</g>
<!-- Node5&#45;&gt;Node7 -->
<g id="edge6" class="edge">
<title>Node5&#45;&gt;Node7</title>
<path fill="none" stroke="midnightblue" d="M473.25,-276.66C491.6,-268.96 514.04,-257.88 531.5,-244 581.7,-204.09 601.04,-192.44 622.5,-132 625.47,-123.62 626.16,-120.1 622.5,-112 615.31,-96.07 599.39,-83.52 587.23,-75.76"/>
<polygon fill="midnightblue" stroke="midnightblue" points="471.77,-273.48 463.81,-280.47 474.39,-279.97 471.77,-273.48"/>
</g>
<!-- Node8 -->
<g id="node8" class="node">
<title>Node8</title>
<g id="a_node8"><a xlink:href="chkpnt_8h.html" target="_top" xlink:title="Checkpoint system.">
<polygon fill="white" stroke="black" points="414,-112.5 414,-131.5 511,-131.5 511,-112.5 414,-112.5"/>
<text text-anchor="middle" x="462.5" y="-119.5" font-family="Helvetica,sans-Serif" font-size="10.00">include/chkpnt.h</text>
</a>
</g>
</g>
<!-- Node5&#45;&gt;Node8 -->
<g id="edge7" class="edge">
<title>Node5&#45;&gt;Node8</title>
<path fill="none" stroke="midnightblue" d="M465.01,-274.97C492.18,-258.34 533.44,-227.79 549.5,-188 560.86,-159.85 523.52,-141.4 494.24,-131.58"/>
<polygon fill="midnightblue" stroke="midnightblue" points="462.88,-272.17 456.05,-280.27 466.44,-278.19 462.88,-272.17"/>
</g>
<!-- Node12 -->
<g id="node12" class="node">
<title>Node12</title>
<g id="a_node12"><a xlink:href="xform_8h.html" target="_top" xlink:title="Transform.">
<polygon fill="white" stroke="black" points="393,-224.5 393,-243.5 486,-243.5 486,-224.5 393,-224.5"/>
<text text-anchor="middle" x="439.5" y="-231.5" font-family="Helvetica,sans-Serif" font-size="10.00">include/xform.h</text>
</a>
</g>
</g>
<!-- Node5&#45;&gt;Node12 -->
<g id="edge12" class="edge">
<title>Node5&#45;&gt;Node12</title>
<path fill="none" stroke="midnightblue" d="M439.5,-269.8C439.5,-260.91 439.5,-250.78 439.5,-243.75"/>
<polygon fill="midnightblue" stroke="midnightblue" points="436,-270.08 439.5,-280.08 443,-270.08 436,-270.08"/>
</g>
<!-- Node8&#45;&gt;Node7 -->
<g id="edge9" class="edge">
<title>Node8&#45;&gt;Node7</title>
<path fill="none" stroke="midnightblue" d="M489.02,-107.86C509.23,-97.85 536.49,-84.35 554.03,-75.65"/>
<polygon fill="midnightblue" stroke="midnightblue" points="487.42,-104.75 480.01,-112.32 490.53,-111.02 487.42,-104.75"/>
</g>
<!-- Node9 -->
<g id="node9" class="node">
<title>Node9</title>
<g id="a_node9"><a xlink:href="chkpnt_8c.html" target="_top" xlink:title=" ">
<polygon fill="white" stroke="black" points="420.5,-56.5 420.5,-75.5 510.5,-75.5 510.5,-56.5 420.5,-56.5"/>
<text text-anchor="middle" x="465.5" y="-63.5" font-family="Helvetica,sans-Serif" font-size="10.00">src/P2/chkpnt.c</text>
</a>
</g>
</g>
<!-- Node8&#45;&gt;Node9 -->
<g id="edge8" class="edge">
<title>Node8&#45;&gt;Node9</title>
<path fill="none" stroke="midnightblue" d="M463.57,-101.8C464.06,-92.91 464.62,-82.78 465.01,-75.75"/>
<polygon fill="midnightblue" stroke="midnightblue" points="460.06,-101.9 463,-112.08 467.04,-102.29 460.06,-101.9"/>
</g>
<!-- Node10 -->
<g id="node10" class="node">
<title>Node10</title>
<g id="a_node10"><a xlink:href="difficulty_8h.html" target="_top" xlink:title="Dynamic difficulty system.">
<polygon fill="white" stroke="black" points="297,-56.5 297,-75.5 402,-75.5 402,-56.5 297,-56.5"/>
<text text-anchor="middle" x="349.5" y="-63.5" font-family="Helvetica,sans-Serif" font-size="10.00">include/difficulty.h</text>
</a>
</g>
</g>
<!-- Node8&#45;&gt;Node10 -->
<g id="edge10" class="edge">
<title>Node8&#45;&gt;Node10</title>
<path fill="none" stroke="midnightblue" d="M435.5,-108.1C414.39,-98.01 385.64,-84.27 367.32,-75.52"/>
<polygon fill="midnightblue" stroke="midnightblue" points="434.06,-111.29 444.59,-112.44 437.08,-104.97 434.06,-111.29"/>
</g>
<!-- Node11 -->
<g id="node11" class="node">
<title>Node11</title>
<g id="a_node11"><a xlink:href="difficulty_8c.html" target="_top" xlink:title=" ">
<polygon fill="white" stroke="black" points="300.5,-0.5 300.5,-19.5 398.5,-19.5 398.5,-0.5 300.5,-0.5"/>
<text text-anchor="middle" x="349.5" y="-7.5" font-family="Helvetica,sans-Serif" font-size="10.00">src/P2/difficulty.c</text>
</a>
</g>
</g>
<!-- Node10&#45;&gt;Node11 -->
<g id="edge11" class="edge">
<title>Node10&#45;&gt;Node11</title>
<path fill="none" stroke="midnightblue" d="M349.5,-45.8C349.5,-36.91 349.5,-26.78 349.5,-19.75"/>
<polygon fill="midnightblue" stroke="midnightblue" points="346,-46.08 349.5,-56.08 353,-46.08 346,-46.08"/>
</g>
<!-- Node13 -->
<g id="node13" class="node">
<title>Node13</title>
<g id="a_node13"><a xlink:href="xform1_8c.html" target="_top" xlink:title=" ">
<polygon fill="white" stroke="black" points="338.5,-168.5 338.5,-187.5 430.5,-187.5 430.5,-168.5 338.5,-168.5"/>
<text text-anchor="middle" x="384.5" y="-175.5" font-family="Helvetica,sans-Serif" font-size="10.00">src/P2/xform1.c</text>
</a>
</g>
</g>
<!-- Node12&#45;&gt;Node13 -->
<g id="edge13" class="edge">
<title>Node12&#45;&gt;Node13</title>
<path fill="none" stroke="midnightblue" d="M423.21,-217C413.46,-207.43 401.45,-195.64 393.41,-187.75"/>
<polygon fill="midnightblue" stroke="midnightblue" points="420.83,-219.57 430.42,-224.08 425.73,-214.58 420.83,-219.57"/>
</g>
<!-- Node14 -->
<g id="node14" class="node">
<title>Node14</title>
<g id="a_node14"><a xlink:href="xform2_8c.html" target="_top" xlink:title=" ">
<polygon fill="white" stroke="black" points="448.5,-168.5 448.5,-187.5 540.5,-187.5 540.5,-168.5 448.5,-168.5"/>
<text text-anchor="middle" x="494.5" y="-175.5" font-family="Helvetica,sans-Serif" font-size="10.00">src/P2/xform2.c</text>
</a>
</g>
</g>
<!-- Node12&#45;&gt;Node14 -->
<g id="edge14" class="edge">
<title>Node12&#45;&gt;Node14</title>
<path fill="none" stroke="midnightblue" d="M455.79,-217C465.54,-207.43 477.55,-195.64 485.59,-187.75"/>
<polygon fill="midnightblue" stroke="midnightblue" points="453.27,-214.58 448.58,-224.08 458.17,-219.57 453.27,-214.58"/>
</g>
<!-- Node15 -->
<g id="node15" class="node">
<title>Node15</title>
<g id="a_node15"><a xlink:href="cm_8h.html" target="_top" xlink:title="Game camera.">
<polygon fill="white" stroke="black" points="144,-168.5 144,-187.5 223,-187.5 223,-168.5 144,-168.5"/>
<text text-anchor="middle" x="183.5" y="-175.5" font-family="Helvetica,sans-Serif" font-size="10.00">include/cm.h</text>
</a>
</g>
</g>
<!-- Node12&#45;&gt;Node15 -->
<g id="edge15" class="edge">
<title>Node12&#45;&gt;Node15</title>
<path fill="none" stroke="midnightblue" d="M388.93,-222.33C340.25,-212.06 267.62,-196.74 223.03,-187.34"/>
<polygon fill="midnightblue" stroke="midnightblue" points="388.43,-225.8 398.94,-224.44 389.87,-218.95 388.43,-225.8"/>
</g>
<!-- Node18 -->
<g id="node18" class="node">
<title>Node18</title>
<g id="a_node18"><a xlink:href="coin_8h.html" target="_top" xlink:title="Coins, keys, and other collectibles.">
<polygon fill="white" stroke="black" points="529.5,-112.5 529.5,-131.5 613.5,-131.5 613.5,-112.5 529.5,-112.5"/>
<text text-anchor="middle" x="571.5" y="-119.5" font-family="Helvetica,sans-Serif" font-size="10.00">include/coin.h</text>
</a>
</g>
</g>
<!-- Node12&#45;&gt;Node18 -->
<g id="edge19" class="edge">
<title>Node12&#45;&gt;Node18</title>
<path fill="none" stroke="midnightblue" d="M492.31,-221.44C512.51,-214.67 534.32,-204.15 549.5,-188 564.51,-172.03 569.31,-145.44 570.82,-131.74"/>
<polygon fill="midnightblue" stroke="midnightblue" points="491.07,-218.16 482.56,-224.47 493.15,-224.85 491.07,-218.16"/>
</g>
<!-- Node19 -->
<g id="node19" class="node">
<title>Node19</title>
<g id="a_node19"><a xlink:href="vol_8h.html" target="_top" xlink:title="Volume object.">
<polygon fill="white" stroke="black" points="241,-168.5 241,-187.5 320,-187.5 320,-168.5 241,-168.5"/>
<text text-anchor="middle" x="280.5" y="-175.5" font-family="Helvetica,sans-Serif" font-size="10.00">include/vol.h</text>
</a>
</g>
</g>
<!-- Node12&#45;&gt;Node19 -->
<g id="edge21" class="edge">
<title>Node12&#45;&gt;Node19</title>
<path fill="none" stroke="midnightblue" d="M404.67,-221.17C374.73,-211 332.28,-196.59 305.58,-187.52"/>
<polygon fill="midnightblue" stroke="midnightblue" points="403.71,-224.54 414.31,-224.44 405.96,-217.91 403.71,-224.54"/>
</g>
<!-- Node16 -->
<g id="node16" class="node">
<title>Node16</title>
<g id="a_node16"><a xlink:href="cm_8c.html" target="_top" xlink:title=" ">
<polygon fill="white" stroke="black" points="245.5,-112.5 245.5,-131.5 317.5,-131.5 317.5,-112.5 245.5,-112.5"/>
<text text-anchor="middle" x="281.5" y="-119.5" font-family="Helvetica,sans-Serif" font-size="10.00">src/P2/cm.c</text>
</a>
</g>
</g>
<!-- Node15&#45;&gt;Node16 -->
<g id="edge16" class="edge">
<title>Node15&#45;&gt;Node16</title>
<path fill="none" stroke="midnightblue" d="M208.09,-163.45C226.18,-153.48 250.23,-140.23 265.79,-131.65"/>
<polygon fill="midnightblue" stroke="midnightblue" points="206.31,-160.43 199.25,-168.32 209.69,-166.56 206.31,-160.43"/>
</g>
<!-- Node17 -->
<g id="node17" class="node">
<title>Node17</title>
<g id="a_node17"><a xlink:href="flash_8h.html" target="_top" xlink:title="Flash (might be flash animation, or literal screen flashes).">
<polygon fill="white" stroke="black" points="140,-112.5 140,-131.5 227,-131.5 227,-112.5 140,-112.5"/>
<text text-anchor="middle" x="183.5" y="-119.5" font-family="Helvetica,sans-Serif" font-size="10.00">include/flash.h</text>
</a>
</g>
</g>
<!-- Node15&#45;&gt;Node17 -->
<g id="edge17" class="edge">
<title>Node15&#45;&gt;Node17</title>
<path fill="none" stroke="midnightblue" d="M183.5,-157.8C183.5,-148.91 183.5,-138.78 183.5,-131.75"/>
<polygon fill="midnightblue" stroke="midnightblue" points="180,-158.08 183.5,-168.08 187,-158.08 180,-158.08"/>
</g>
<!-- Node17&#45;&gt;Node3 -->
<g id="edge18" class="edge">
<title>Node17&#45;&gt;Node3</title>
<path fill="none" stroke="midnightblue" d="M171.88,-103.57C165.68,-94.27 158.33,-83.25 153.33,-75.75"/>
<polygon fill="midnightblue" stroke="midnightblue" points="169.1,-105.7 177.56,-112.08 174.92,-101.82 169.1,-105.7"/>
</g>
<!-- Node18&#45;&gt;Node7 -->
<g id="edge20" class="edge">
<title>Node18&#45;&gt;Node7</title>
<path fill="none" stroke="midnightblue" d="M571.5,-101.8C571.5,-92.91 571.5,-82.78 571.5,-75.75"/>
<polygon fill="midnightblue" stroke="midnightblue" points="568,-102.08 571.5,-112.08 575,-102.08 568,-102.08"/>
</g>
<!-- Node19&#45;&gt;Node8 -->
<g id="edge22" class="edge">
<title>Node19&#45;&gt;Node8</title>
<path fill="none" stroke="midnightblue" d="M319.03,-165.57C353.36,-155.38 402.83,-140.7 433.8,-131.52"/>
<polygon fill="midnightblue" stroke="midnightblue" points="317.93,-162.24 309.34,-168.44 319.92,-168.95 317.93,-162.24"/>
</g>
</g>
</svg>
        <g id="navigator" transform="translate(0 0)" fill="#404254">
                <rect fill="#f2f5e9" fill-opacity="0.5" stroke="#606060" stroke-width=".5" x="0" y="0" width="60" height="60"/>
                <use id="zoomplus" xlink:href="#zoomPlus" x="17" y="9" onmousedown="handleZoom(evt,'in')"/>
                <use id="zoomminus" xlink:href="#zoomMin" x="42" y="9" onmousedown="handleZoom(evt,'out')"/>
                <use id="reset" xlink:href="#resetDef" x="30" y="36" onmousedown="handleReset()"/>
                <g id="arrowUp" xlink:href="#dirArrow" transform="translate(30 24)" onmousedown="handlePan(0,-1)">
                  <use xlink:href="#rim" fill="#404040">
                        <set attributeName="fill" to="#808080" begin="arrowUp.mouseover" end="arrowUp.mouseout"/>
                  </use>
                  <path fill="none" stroke="white" stroke-width="1.5" d="M0,-3.0v7 M-2.5,-0.5L0,-3.0L2.5,-0.5"/>
                </g>
                <g id="arrowRight" xlink:href="#dirArrow" transform="rotate(90) translate(36 -43)" onmousedown="handlePan(1,0)">
                  <use xlink:href="#rim" fill="#404040">
                        <set attributeName="fill" to="#808080" begin="arrowRight.mouseover" end="arrowRight.mouseout"/>
                  </use>
                  <path fill="none" stroke="white" stroke-width="1.5" d="M0,-3.0v7 M-2.5,-0.5L0,-3.0L2.5,-0.5"/>
                </g>
                <g id="arrowDown" xlink:href="#dirArrow" transform="rotate(180) translate(-30 -48)" onmousedown="handlePan(0,1)">
                  <use xlink:href="#rim" fill="#404040">
                        <set attributeName="fill" to="#808080" begin="arrowDown.mouseover" end="arrowDown.mouseout"/>
                  </use>
                  <path fill="none" stroke="white" stroke-width="1.5" d="M0,-3.0v7 M-2.5,-0.5L0,-3.0L2.5,-0.5"/>
                </g>
                <g id="arrowLeft" xlink:href="#dirArrow" transform="rotate(270) translate(-36 17)" onmousedown="handlePan(-1,0)">
                  <use xlink:href="#rim" fill="#404040">
                        <set attributeName="fill" to="#808080" begin="arrowLeft.mouseover" end="arrowLeft.mouseout"/>
                  </use>
                  <path fill="none" stroke="white" stroke-width="1.5" d="M0,-3.0v7 M-2.5,-0.5L0,-3.0L2.5,-0.5"/>
                </g>
        </g>
        <svg viewBox="0 0 15 15" width="100%" height="30px" preserveAspectRatio="xMaxYMin meet">
         <g id="arrow_out" transform="scale(0.3 0.3)">
          <a xlink:href="clock_8h__dep__incl_org.svg" target="_base">
           <rect id="button" ry="5" rx="5" y="6" x="6" height="38" width="38"
                fill="#f2f5e9" fill-opacity="0.5" stroke="#606060" stroke-width="1.0"/>
           <path id="arrow"
             d="M 11.500037,31.436501 C 11.940474,20.09759 22.043105,11.32322 32.158766,21.979434 L 37.068811,17.246167 C 37.068811,17.246167 37.088388,32 37.088388,32 L 22.160133,31.978069 C 22.160133,31.978069 26.997745,27.140456 26.997745,27.140456 C 18.528582,18.264221 13.291696,25.230495 11.500037,31.436501 z"
             style="fill:#404040;"/>
          </a>
         </g>
        </svg>
</svg>
