<?xml version="1.0" encoding="UTF-8" standalone="no"?>
<!DOCTYPE svg PUBLIC "-//W3C//DTD SVG 1.1//EN"
 "http://www.w3.org/Graphics/SVG/1.1/DTD/svg11.dtd">
<!-- Generated by graphviz version 2.43.0 (0)
 -->
<!-- Title: include/clock.h Pages: 1 -->
<!--zoomable 364 -->
<svg id="main" version="1.1" xmlns="http://www.w3.org/2000/svg" xmlns:xlink="http://www.w3.org/1999/xlink" xml:space="preserve" onload="init(evt)">
<style type="text/css"><![CDATA[
.edge:hover path { stroke: red; }
.edge:hover polygon { stroke: red; fill: red; }
]]></style>
<script type="text/javascript"><![CDATA[
var edges = document.getElementsByTagName('g');
if (edges && edges.length) {
  for (var i=0;i<edges.length;i++) {
    if (edges[i].id.substr(0,4)=='edge') {
      edges[i].setAttribute('class','edge');
    }
  }
}
]]></script>
        <defs>
                <circle id="rim" cx="0" cy="0" r="7"/>
                <circle id="rim2" cx="0" cy="0" r="3.5"/>
                <g id="zoomPlus">
                        <use xlink:href="#rim" fill="#404040">
                                <set attributeName="fill" to="#808080" begin="zoomplus.mouseover" end="zoomplus.mouseout"/>
                        </use>
                        <path d="M-4,0h8M0,-4v8" fill="none" stroke="white" stroke-width="1.5" pointer-events="none"/>
                </g>
                <g id="zoomMin">
                        <use xlink:href="#rim" fill="#404040">
                                <set attributeName="fill" to="#808080" begin="zoomminus.mouseover" end="zoomminus.mouseout"/>
                        </use>
                        <path d="M-4,0h8" fill="none" stroke="white" stroke-width="1.5" pointer-events="none"/>
                </g>
                <g id="dirArrow">
                        <path fill="none" stroke="white" stroke-width="1.5" d="M0,-3.0v7 M-2.5,-0.5L0,-3.0L2.5,-0.5"/>
                </g>
               <g id="resetDef">
                       <use xlink:href="#rim2" fill="#404040">
                               <set attributeName="fill" to="#808080" begin="reset.mouseover" end="reset.mouseout"/>
                       </use>
               </g>
        </defs>

<script type="text/javascript">
var viewWidth = 1054;
var viewHeight = 364;
var sectionId = 'dynsection-1';
</script>
<script xlink:href="svgpan.js"/>
<svg id="graph" class="graph">
<g id="viewport">
<title>include/clock.h</title>
<polygon fill="white" stroke="transparent" points="-4,4 -4,-360 1050,-360 1050,4 -4,4"/>
<!-- Node1 -->
<g id="node1" class="node">
<title>Node1</title>
<g id="a_node1"><a xlink:title="Engine clock.">
<polygon fill="#bfbfbf" stroke="black" points="702,-336.5 702,-355.5 791,-355.5 791,-336.5 702,-336.5"/>
<text text-anchor="middle" x="746.5" y="-343.5" font-family="Helvetica,sans-Serif" font-size="10.00">include/clock.h</text>
</a>
</g>
</g>
<!-- Node2 -->
<g id="node2" class="node">
<title>Node2</title>
<g id="a_node2"><a xlink:href="clock_8c.html" target="_top" xlink:title=" ">
<polygon fill="white" stroke="black" points="489,-280.5 489,-299.5 572,-299.5 572,-280.5 489,-280.5"/>
<text text-anchor="middle" x="530.5" y="-287.5" font-family="Helvetica,sans-Serif" font-size="10.00">src/P2/clock.c</text>
</a>
</g>
</g>
<!-- Node1&#45;&gt;Node2 -->
<g id="edge1" class="edge">
<title>Node1&#45;&gt;Node2</title>
<path fill="none" stroke="midnightblue" d="M702.34,-333.96C661.54,-323.76 601.79,-308.82 564.57,-299.52"/>
<polygon fill="midnightblue" stroke="midnightblue" points="701.72,-337.41 712.27,-336.44 703.42,-330.62 701.72,-337.41"/>
</g>
<!-- Node3 -->
<g id="node3" class="node">
<title>Node3</title>
<g id="a_node3"><a xlink:href="flash_8c.html" target="_top" xlink:title=" ">
<polygon fill="white" stroke="black" points="619.5,-56.5 619.5,-75.5 699.5,-75.5 699.5,-56.5 619.5,-56.5"/>
<text text-anchor="middle" x="659.5" y="-63.5" font-family="Helvetica,sans-Serif" font-size="10.00">src/P2/flash.c</text>
</a>
</g>
</g>
<!-- Node1&#45;&gt;Node3 -->
<g id="edge2" class="edge">
<title>Node1&#45;&gt;Node3</title>
<path fill="none" stroke="midnightblue" d="M737.97,-327.28C728.49,-305.92 714.5,-268.67 714.5,-235 714.5,-235 714.5,-235 714.5,-177 714.5,-135.36 682.59,-93.33 667.38,-75.67"/>
<polygon fill="midnightblue" stroke="midnightblue" points="734.82,-328.79 742.18,-336.41 741.17,-325.86 734.82,-328.79"/>
</g>
<!-- Node4 -->
<g id="node4" class="node">
<title>Node4</title>
<g id="a_node4"><a xlink:href="joy_8c.html" target="_top" xlink:title=" ">
<polygon fill="white" stroke="black" points="743,-280.5 743,-299.5 814,-299.5 814,-280.5 743,-280.5"/>
<text text-anchor="middle" x="778.5" y="-287.5" font-family="Helvetica,sans-Serif" font-size="10.00">src/P2/joy.c</text>
</a>
</g>
</g>
<!-- Node1&#45;&gt;Node4 -->
<g id="edge3" class="edge">
<title>Node1&#45;&gt;Node4</title>
<path fill="none" stroke="midnightblue" d="M757,-327.27C762.47,-318.05 768.92,-307.17 773.31,-299.75"/>
<polygon fill="midnightblue" stroke="midnightblue" points="753.87,-325.7 751.78,-336.08 759.89,-329.26 753.87,-325.7"/>
</g>
<!-- Node5 -->
<g id="node5" class="node">
<title>Node5</title>
<g id="a_node5"><a xlink:href="screen_8c.html" target="_top" xlink:title=" ">
<polygon fill="white" stroke="black" points="832,-280.5 832,-299.5 921,-299.5 921,-280.5 832,-280.5"/>
<text text-anchor="middle" x="876.5" y="-287.5" font-family="Helvetica,sans-Serif" font-size="10.00">src/P2/screen.c</text>
</a>
</g>
</g>
<!-- Node1&#45;&gt;Node5 -->
<g id="edge4" class="edge">
<title>Node1&#45;&gt;Node5</title>
<path fill="none" stroke="midnightblue" d="M776.59,-332.5C800.96,-322.38 834.64,-308.39 856,-299.52"/>
<polygon fill="midnightblue" stroke="midnightblue" points="774.99,-329.38 767.1,-336.44 777.68,-335.84 774.99,-329.38"/>
</g>
<!-- Node6 -->
<g id="node6" class="node">
<title>Node6</title>
<g id="a_node6"><a xlink:href="steppower_8c.html" target="_top" xlink:title=" ">
<polygon fill="white" stroke="black" points="939,-280.5 939,-299.5 1046,-299.5 1046,-280.5 939,-280.5"/>
<text text-anchor="middle" x="992.5" y="-287.5" font-family="Helvetica,sans-Serif" font-size="10.00">src/P2/steppower.c</text>
</a>
</g>
</g>
<!-- Node1&#45;&gt;Node6 -->
<g id="edge5" class="edge">
<title>Node1&#45;&gt;Node6</title>
<path fill="none" stroke="midnightblue" d="M795.33,-334.28C841.82,-324.08 910.86,-308.92 953.7,-299.52"/>
<polygon fill="midnightblue" stroke="midnightblue" points="794.5,-330.88 785.48,-336.44 796,-337.72 794.5,-330.88"/>
</g>
<!-- Node7 -->
<g id="node7" class="node">
<title>Node7</title>
<g id="a_node7"><a xlink:href="bis_8h.html" target="_top" xlink:title="Binary Input Stream.">
<polygon fill="white" stroke="black" points="590.5,-280.5 590.5,-299.5 668.5,-299.5 668.5,-280.5 590.5,-280.5"/>
<text text-anchor="middle" x="629.5" y="-287.5" font-family="Helvetica,sans-Serif" font-size="10.00">include/bis.h</text>
</a>
</g>
</g>
<!-- Node1&#45;&gt;Node7 -->
<g id="edge6" class="edge">
<title>Node1&#45;&gt;Node7</title>
<path fill="none" stroke="midnightblue" d="M718.84,-332.23C696.95,-322.13 667,-308.31 647.95,-299.52"/>
<polygon fill="midnightblue" stroke="midnightblue" points="717.41,-335.43 727.96,-336.44 720.35,-329.08 717.41,-335.43"/>
</g>
<!-- Node8 -->
<g id="node8" class="node">
<title>Node8</title>
<g id="a_node8"><a xlink:href="bis_8c.html" target="_top" xlink:title=" ">
<polygon fill="white" stroke="black" points="577,-224.5 577,-243.5 648,-243.5 648,-224.5 577,-224.5"/>
<text text-anchor="middle" x="612.5" y="-231.5" font-family="Helvetica,sans-Serif" font-size="10.00">src/P2/bis.c</text>
</a>
</g>
</g>
<!-- Node7&#45;&gt;Node8 -->
<g id="edge7" class="edge">
<title>Node7&#45;&gt;Node8</title>
<path fill="none" stroke="midnightblue" d="M623.64,-270.4C620.8,-261.36 617.52,-250.94 615.25,-243.75"/>
<polygon fill="midnightblue" stroke="midnightblue" points="620.35,-271.6 626.69,-280.08 627.03,-269.49 620.35,-271.6"/>
</g>
<!-- Node9 -->
<g id="node9" class="node">
<title>Node9</title>
<g id="a_node9"><a xlink:href="coin_8c.html" target="_top" xlink:title=" ">
<polygon fill="white" stroke="black" points="354,-56.5 354,-75.5 431,-75.5 431,-56.5 354,-56.5"/>
<text text-anchor="middle" x="392.5" y="-63.5" font-family="Helvetica,sans-Serif" font-size="10.00">src/P2/coin.c</text>
</a>
</g>
</g>
<!-- Node7&#45;&gt;Node9 -->
<g id="edge8" class="edge">
<title>Node7&#45;&gt;Node9</title>
<path fill="none" stroke="midnightblue" d="M643.01,-272.3C648.67,-264.25 654.6,-254.16 657.5,-244 673.62,-187.59 695.35,-156.82 657.5,-112 628.97,-78.22 497.47,-69.79 431.08,-67.69"/>
<polygon fill="midnightblue" stroke="midnightblue" points="640.12,-270.31 636.91,-280.41 645.72,-274.52 640.12,-270.31"/>
</g>
<!-- Node10 -->
<g id="node10" class="node">
<title>Node10</title>
<g id="a_node10"><a xlink:href="chkpnt_8h.html" target="_top" xlink:title="Checkpoint system.">
<polygon fill="white" stroke="black" points="177,-112.5 177,-131.5 274,-131.5 274,-112.5 177,-112.5"/>
<text text-anchor="middle" x="225.5" y="-119.5" font-family="Helvetica,sans-Serif" font-size="10.00">include/chkpnt.h</text>
</a>
</g>
</g>
<!-- Node7&#45;&gt;Node10 -->
<g id="edge9" class="edge">
<title>Node7&#45;&gt;Node10</title>
<path fill="none" stroke="midnightblue" d="M580.55,-279.79C514.11,-267.28 402.56,-246.19 393.5,-244 307.94,-223.29 256.22,-258.5 203.5,-188 190.51,-170.64 207.11,-145.11 217.79,-131.8"/>
<polygon fill="midnightblue" stroke="midnightblue" points="579.93,-283.24 590.41,-281.65 581.23,-276.36 579.93,-283.24"/>
</g>
<!-- Node15 -->
<g id="node15" class="node">
<title>Node15</title>
<g id="a_node15"><a xlink:href="xform_8h.html" target="_top" xlink:title="Transform.">
<polygon fill="white" stroke="black" points="403,-224.5 403,-243.5 496,-243.5 496,-224.5 403,-224.5"/>
<text text-anchor="middle" x="449.5" y="-231.5" font-family="Helvetica,sans-Serif" font-size="10.00">include/xform.h</text>
</a>
</g>
</g>
<!-- Node7&#45;&gt;Node15 -->
<g id="edge15" class="edge">
<title>Node7&#45;&gt;Node15</title>
<path fill="none" stroke="midnightblue" d="M591.39,-277.57C557.44,-267.38 508.51,-252.7 477.89,-243.52"/>
<polygon fill="midnightblue" stroke="midnightblue" points="590.39,-280.92 600.98,-280.44 592.41,-274.22 590.39,-280.92"/>
</g>
<!-- Node10&#45;&gt;Node9 -->
<g id="edge11" class="edge">
<title>Node10&#45;&gt;Node9</title>
<path fill="none" stroke="midnightblue" d="M261.67,-109.3C293.14,-99.13 337.99,-84.62 366.16,-75.52"/>
<polygon fill="midnightblue" stroke="midnightblue" points="260.4,-106.04 251.96,-112.44 262.55,-112.7 260.4,-106.04"/>
</g>
<!-- Node11 -->
<g id="node11" class="node">
<title>Node11</title>
<g id="a_node11"><a xlink:href="chkpnt_8c.html" target="_top" xlink:title=" ">
<polygon fill="white" stroke="black" points="123.5,-56.5 123.5,-75.5 213.5,-75.5 213.5,-56.5 123.5,-56.5"/>
<text text-anchor="middle" x="168.5" y="-63.5" font-family="Helvetica,sans-Serif" font-size="10.00">src/P2/chkpnt.c</text>
</a>
</g>
</g>
<!-- Node10&#45;&gt;Node11 -->
<g id="edge10" class="edge">
<title>Node10&#45;&gt;Node11</title>
<path fill="none" stroke="midnightblue" d="M208.88,-105.25C198.77,-95.67 186.22,-83.79 177.82,-75.83"/>
<polygon fill="midnightblue" stroke="midnightblue" points="206.68,-107.99 216.34,-112.32 211.49,-102.91 206.68,-107.99"/>
</g>
<!-- Node12 -->
<g id="node12" class="node">
<title>Node12</title>
<g id="a_node12"><a xlink:href="transition_8c.html" target="_top" xlink:title=" ">
<polygon fill="white" stroke="black" points="231.5,-56.5 231.5,-75.5 335.5,-75.5 335.5,-56.5 231.5,-56.5"/>
<text text-anchor="middle" x="283.5" y="-63.5" font-family="Helvetica,sans-Serif" font-size="10.00">src/P2/transition.c</text>
</a>
</g>
</g>
<!-- Node10&#45;&gt;Node12 -->
<g id="edge12" class="edge">
<title>Node10&#45;&gt;Node12</title>
<path fill="none" stroke="midnightblue" d="M242.41,-105.25C252.7,-95.67 265.47,-83.79 274.01,-75.83"/>
<polygon fill="midnightblue" stroke="midnightblue" points="239.75,-102.95 234.82,-112.32 244.52,-108.07 239.75,-102.95"/>
</g>
<!-- Node13 -->
<g id="node13" class="node">
<title>Node13</title>
<g id="a_node13"><a xlink:href="difficulty_8h.html" target="_top" xlink:title="Dynamic difficulty system.">
<polygon fill="white" stroke="black" points="0,-56.5 0,-75.5 105,-75.5 105,-56.5 0,-56.5"/>
<text text-anchor="middle" x="52.5" y="-63.5" font-family="Helvetica,sans-Serif" font-size="10.00">include/difficulty.h</text>
</a>
</g>
</g>
<!-- Node10&#45;&gt;Node13 -->
<g id="edge13" class="edge">
<title>Node10&#45;&gt;Node13</title>
<path fill="none" stroke="midnightblue" d="M188.45,-109.44C155.84,-99.26 109.09,-84.66 79.78,-75.52"/>
<polygon fill="midnightblue" stroke="midnightblue" points="187.5,-112.8 198.09,-112.44 189.58,-106.12 187.5,-112.8"/>
</g>
<!-- Node14 -->
<g id="node14" class="node">
<title>Node14</title>
<g id="a_node14"><a xlink:href="difficulty_8c.html" target="_top" xlink:title=" ">
<polygon fill="white" stroke="black" points="3.5,-0.5 3.5,-19.5 101.5,-19.5 101.5,-0.5 3.5,-0.5"/>
<text text-anchor="middle" x="52.5" y="-7.5" font-family="Helvetica,sans-Serif" font-size="10.00">src/P2/difficulty.c</text>
</a>
</g>
</g>
<!-- Node13&#45;&gt;Node14 -->
<g id="edge14" class="edge">
<title>Node13&#45;&gt;Node14</title>
<path fill="none" stroke="midnightblue" d="M52.5,-45.8C52.5,-36.91 52.5,-26.78 52.5,-19.75"/>
<polygon fill="midnightblue" stroke="midnightblue" points="49,-46.08 52.5,-56.08 56,-46.08 49,-46.08"/>
</g>
<!-- Node16 -->
<g id="node16" class="node">
<title>Node16</title>
<g id="a_node16"><a xlink:href="xform1_8c.html" target="_top" xlink:title=" ">
<polygon fill="white" stroke="black" points="348.5,-168.5 348.5,-187.5 440.5,-187.5 440.5,-168.5 348.5,-168.5"/>
<text text-anchor="middle" x="394.5" y="-175.5" font-family="Helvetica,sans-Serif" font-size="10.00">src/P2/xform1.c</text>
</a>
</g>
</g>
<!-- Node15&#45;&gt;Node16 -->
<g id="edge16" class="edge">
<title>Node15&#45;&gt;Node16</title>
<path fill="none" stroke="midnightblue" d="M433.21,-217C423.46,-207.43 411.45,-195.64 403.41,-187.75"/>
<polygon fill="midnightblue" stroke="midnightblue" points="430.83,-219.57 440.42,-224.08 435.73,-214.58 430.83,-219.57"/>
</g>
<!-- Node17 -->
<g id="node17" class="node">
<title>Node17</title>
<g id="a_node17"><a xlink:href="xform2_8c.html" target="_top" xlink:title=" ">
<polygon fill="white" stroke="black" points="458.5,-168.5 458.5,-187.5 550.5,-187.5 550.5,-168.5 458.5,-168.5"/>
<text text-anchor="middle" x="504.5" y="-175.5" font-family="Helvetica,sans-Serif" font-size="10.00">src/P2/xform2.c</text>
</a>
</g>
</g>
<!-- Node15&#45;&gt;Node17 -->
<g id="edge17" class="edge">
<title>Node15&#45;&gt;Node17</title>
<path fill="none" stroke="midnightblue" d="M465.79,-217C475.54,-207.43 487.55,-195.64 495.59,-187.75"/>
<polygon fill="midnightblue" stroke="midnightblue" points="463.27,-214.58 458.58,-224.08 468.17,-219.57 463.27,-214.58"/>
</g>
<!-- Node18 -->
<g id="node18" class="node">
<title>Node18</title>
<g id="a_node18"><a xlink:href="cm_8h.html" target="_top" xlink:title="Game camera.">
<polygon fill="white" stroke="black" points="569,-168.5 569,-187.5 648,-187.5 648,-168.5 569,-168.5"/>
<text text-anchor="middle" x="608.5" y="-175.5" font-family="Helvetica,sans-Serif" font-size="10.00">include/cm.h</text>
</a>
</g>
</g>
<!-- Node15&#45;&gt;Node18 -->
<g id="edge18" class="edge">
<title>Node15&#45;&gt;Node18</title>
<path fill="none" stroke="midnightblue" d="M484.33,-221.17C514.27,-211 556.72,-196.59 583.42,-187.52"/>
<polygon fill="midnightblue" stroke="midnightblue" points="483.04,-217.91 474.69,-224.44 485.29,-224.54 483.04,-217.91"/>
</g>
<!-- Node21 -->
<g id="node21" class="node">
<title>Node21</title>
<g id="a_node21"><a xlink:href="coin_8h.html" target="_top" xlink:title="Coins, keys, and other collectibles.">
<polygon fill="white" stroke="black" points="305.5,-112.5 305.5,-131.5 389.5,-131.5 389.5,-112.5 305.5,-112.5"/>
<text text-anchor="middle" x="347.5" y="-119.5" font-family="Helvetica,sans-Serif" font-size="10.00">include/coin.h</text>
</a>
</g>
</g>
<!-- Node15&#45;&gt;Node21 -->
<g id="edge22" class="edge">
<title>Node15&#45;&gt;Node21</title>
<path fill="none" stroke="midnightblue" d="M392.85,-223.4C372.53,-216.93 351.66,-206.11 339.5,-188 327.97,-170.82 336.88,-145.21 342.99,-131.85"/>
<polygon fill="midnightblue" stroke="midnightblue" points="392.16,-226.85 402.73,-226.24 394.09,-220.12 392.16,-226.85"/>
</g>
<!-- Node22 -->
<g id="node22" class="node">
<title>Node22</title>
<g id="a_node22"><a xlink:href="vol_8h.html" target="_top" xlink:title="Volume object.">
<polygon fill="white" stroke="black" points="213,-168.5 213,-187.5 292,-187.5 292,-168.5 213,-168.5"/>
<text text-anchor="middle" x="252.5" y="-175.5" font-family="Helvetica,sans-Serif" font-size="10.00">include/vol.h</text>
</a>
</g>
</g>
<!-- Node15&#45;&gt;Node22 -->
<g id="edge24" class="edge">
<title>Node15&#45;&gt;Node22</title>
<path fill="none" stroke="midnightblue" d="M408.27,-221.7C371.09,-211.51 317.23,-196.74 283.57,-187.52"/>
<polygon fill="midnightblue" stroke="midnightblue" points="407.72,-225.18 418.28,-224.44 409.57,-218.42 407.72,-225.18"/>
</g>
<!-- Node19 -->
<g id="node19" class="node">
<title>Node19</title>
<g id="a_node19"><a xlink:href="cm_8c.html" target="_top" xlink:title=" ">
<polygon fill="white" stroke="black" points="470.5,-112.5 470.5,-131.5 542.5,-131.5 542.5,-112.5 470.5,-112.5"/>
<text text-anchor="middle" x="506.5" y="-119.5" font-family="Helvetica,sans-Serif" font-size="10.00">src/P2/cm.c</text>
</a>
</g>
</g>
<!-- Node18&#45;&gt;Node19 -->
<g id="edge19" class="edge">
<title>Node18&#45;&gt;Node19</title>
<path fill="none" stroke="midnightblue" d="M583.17,-163.59C564.31,-153.61 539.12,-140.27 522.85,-131.65"/>
<polygon fill="midnightblue" stroke="midnightblue" points="581.64,-166.74 592.11,-168.32 584.91,-160.55 581.64,-166.74"/>
</g>
<!-- Node20 -->
<g id="node20" class="node">
<title>Node20</title>
<g id="a_node20"><a xlink:href="flash_8h.html" target="_top" xlink:title="Flash (might be flash animation, or literal screen flashes).">
<polygon fill="white" stroke="black" points="561,-112.5 561,-131.5 648,-131.5 648,-112.5 561,-112.5"/>
<text text-anchor="middle" x="604.5" y="-119.5" font-family="Helvetica,sans-Serif" font-size="10.00">include/flash.h</text>
</a>
</g>
</g>
<!-- Node18&#45;&gt;Node20 -->
<g id="edge20" class="edge">
<title>Node18&#45;&gt;Node20</title>
<path fill="none" stroke="midnightblue" d="M607.1,-158.1C606.44,-149.14 605.67,-138.86 605.15,-131.75"/>
<polygon fill="midnightblue" stroke="midnightblue" points="603.61,-158.37 607.84,-168.08 610.59,-157.85 603.61,-158.37"/>
</g>
<!-- Node20&#45;&gt;Node3 -->
<g id="edge21" class="edge">
<title>Node20&#45;&gt;Node3</title>
<path fill="none" stroke="midnightblue" d="M620.79,-105C630.54,-95.43 642.55,-83.64 650.59,-75.75"/>
<polygon fill="midnightblue" stroke="midnightblue" points="618.27,-102.58 613.58,-112.08 623.17,-107.57 618.27,-102.58"/>
</g>
<!-- Node21&#45;&gt;Node9 -->
<g id="edge23" class="edge">
<title>Node21&#45;&gt;Node9</title>
<path fill="none" stroke="midnightblue" d="M361.55,-104.14C369.39,-94.74 378.83,-83.4 385.21,-75.75"/>
<polygon fill="midnightblue" stroke="midnightblue" points="358.64,-102.16 354.93,-112.08 364.02,-106.64 358.64,-102.16"/>
</g>
<!-- Node22&#45;&gt;Node10 -->
<g id="edge25" class="edge">
<title>Node22&#45;&gt;Node10</title>
<path fill="none" stroke="midnightblue" d="M243.49,-158.98C238.91,-149.82 233.55,-139.09 229.88,-131.75"/>
<polygon fill="midnightblue" stroke="midnightblue" points="240.44,-160.7 248.04,-168.08 246.7,-157.57 240.44,-160.7"/>
</g>
</g>
</svg>
        <g id="navigator" transform="translate(0 0)" fill="#404254">
                <rect fill="#f2f5e9" fill-opacity="0.5" stroke="#606060" stroke-width=".5" x="0" y="0" width="60" height="60"/>
                <use id="zoomplus" xlink:href="#zoomPlus" x="17" y="9" onmousedown="handleZoom(evt,'in')"/>
                <use id="zoomminus" xlink:href="#zoomMin" x="42" y="9" onmousedown="handleZoom(evt,'out')"/>
                <use id="reset" xlink:href="#resetDef" x="30" y="36" onmousedown="handleReset()"/>
                <g id="arrowUp" xlink:href="#dirArrow" transform="translate(30 24)" onmousedown="handlePan(0,-1)">
                  <use xlink:href="#rim" fill="#404040">
                        <set attributeName="fill" to="#808080" begin="arrowUp.mouseover" end="arrowUp.mouseout"/>
                  </use>
                  <path fill="none" stroke="white" stroke-width="1.5" d="M0,-3.0v7 M-2.5,-0.5L0,-3.0L2.5,-0.5"/>
                </g>
                <g id="arrowRight" xlink:href="#dirArrow" transform="rotate(90) translate(36 -43)" onmousedown="handlePan(1,0)">
                  <use xlink:href="#rim" fill="#404040">
                        <set attributeName="fill" to="#808080" begin="arrowRight.mouseover" end="arrowRight.mouseout"/>
                  </use>
                  <path fill="none" stroke="white" stroke-width="1.5" d="M0,-3.0v7 M-2.5,-0.5L0,-3.0L2.5,-0.5"/>
                </g>
                <g id="arrowDown" xlink:href="#dirArrow" transform="rotate(180) translate(-30 -48)" onmousedown="handlePan(0,1)">
                  <use xlink:href="#rim" fill="#404040">
                        <set attributeName="fill" to="#808080" begin="arrowDown.mouseover" end="arrowDown.mouseout"/>
                  </use>
                  <path fill="none" stroke="white" stroke-width="1.5" d="M0,-3.0v7 M-2.5,-0.5L0,-3.0L2.5,-0.5"/>
                </g>
                <g id="arrowLeft" xlink:href="#dirArrow" transform="rotate(270) translate(-36 17)" onmousedown="handlePan(-1,0)">
                  <use xlink:href="#rim" fill="#404040">
                        <set attributeName="fill" to="#808080" begin="arrowLeft.mouseover" end="arrowLeft.mouseout"/>
                  </use>
                  <path fill="none" stroke="white" stroke-width="1.5" d="M0,-3.0v7 M-2.5,-0.5L0,-3.0L2.5,-0.5"/>
                </g>
        </g>
        <svg viewBox="0 0 15 15" width="100%" height="30px" preserveAspectRatio="xMaxYMin meet">
         <g id="arrow_out" transform="scale(0.3 0.3)">
          <a xlink:href="clock_8h__dep__incl_org.svg" target="_base">
           <rect id="button" ry="5" rx="5" y="6" x="6" height="38" width="38"
                fill="#f2f5e9" fill-opacity="0.5" stroke="#606060" stroke-width="1.0"/>
           <path id="arrow"
             d="M 11.500037,31.436501 C 11.940474,20.09759 22.043105,11.32322 32.158766,21.979434 L 37.068811,17.246167 C 37.068811,17.246167 37.088388,32 37.088388,32 L 22.160133,31.978069 C 22.160133,31.978069 26.997745,27.140456 26.997745,27.140456 C 18.528582,18.264221 13.291696,25.230495 11.500037,31.436501 z"
             style="fill:#404040;"/>
          </a>
         </g>
        </svg>
</svg>
