<?xml version="1.0" encoding="UTF-8" standalone="no"?>
<!DOCTYPE svg PUBLIC "-//W3C//DTD SVG 1.1//EN"
 "http://www.w3.org/Graphics/SVG/1.1/DTD/svg11.dtd">
<!-- Generated by graphviz version 2.43.0 (0)
 -->
<!-- Title: include/clock.h Pages: 1 -->
<!--zoomable 364 -->
<svg id="main" version="1.1" xmlns="http://www.w3.org/2000/svg" xmlns:xlink="http://www.w3.org/1999/xlink" xml:space="preserve" onload="init(evt)">
<style type="text/css"><![CDATA[
.edge:hover path { stroke: red; }
.edge:hover polygon { stroke: red; fill: red; }
]]></style>
<script type="text/javascript"><![CDATA[
var edges = document.getElementsByTagName('g');
if (edges && edges.length) {
  for (var i=0;i<edges.length;i++) {
    if (edges[i].id.substr(0,4)=='edge') {
      edges[i].setAttribute('class','edge');
    }
  }
}
]]></script>
        <defs>
                <circle id="rim" cx="0" cy="0" r="7"/>
                <circle id="rim2" cx="0" cy="0" r="3.5"/>
                <g id="zoomPlus">
                        <use xlink:href="#rim" fill="#404040">
                                <set attributeName="fill" to="#808080" begin="zoomplus.mouseover" end="zoomplus.mouseout"/>
                        </use>
                        <path d="M-4,0h8M0,-4v8" fill="none" stroke="white" stroke-width="1.5" pointer-events="none"/>
                </g>
                <g id="zoomMin">
                        <use xlink:href="#rim" fill="#404040">
                                <set attributeName="fill" to="#808080" begin="zoomminus.mouseover" end="zoomminus.mouseout"/>
                        </use>
                        <path d="M-4,0h8" fill="none" stroke="white" stroke-width="1.5" pointer-events="none"/>
                </g>
                <g id="dirArrow">
                        <path fill="none" stroke="white" stroke-width="1.5" d="M0,-3.0v7 M-2.5,-0.5L0,-3.0L2.5,-0.5"/>
                </g>
               <g id="resetDef">
                       <use xlink:href="#rim2" fill="#404040">
                               <set attributeName="fill" to="#808080" begin="reset.mouseover" end="reset.mouseout"/>
                       </use>
               </g>
        </defs>

<script type="text/javascript">
var viewWidth = 670;
var viewHeight = 364;
var sectionId = 'dynsection-1';
</script>
<script xlink:href="svgpan.js"/>
<svg id="graph" class="graph">
<g id="viewport">
<title>include/clock.h</title>
<polygon fill="white" stroke="transparent" points="-4,4 -4,-360 666.07,-360 666.07,4 -4,4"/>
<!-- Node1 -->
<g id="node1" class="node">
<title>Node1</title>
<g id="a_node1"><a xlink:title="Engine clock.">
<polygon fill="#bfbfbf" stroke="black" points="140,-336.5 140,-355.5 229,-355.5 229,-336.5 140,-336.5"/>
<text text-anchor="middle" x="184.5" y="-343.5" font-family="Helvetica,sans-Serif" font-size="10.00">include/clock.h</text>
</a>
</g>
</g>
<!-- Node2 -->
<g id="node2" class="node">
<title>Node2</title>
<g id="a_node2"><a xlink:href="clock_8c.html" target="_top" xlink:title=" ">
<polygon fill="white" stroke="black" points="0,-280.5 0,-299.5 83,-299.5 83,-280.5 0,-280.5"/>
<text text-anchor="middle" x="41.5" y="-287.5" font-family="Helvetica,sans-Serif" font-size="10.00">src/P2/clock.c</text>
</a>
</g>
</g>
<!-- Node1&#45;&gt;Node2 -->
<g id="edge1" class="edge">
<title>Node1&#45;&gt;Node2</title>
<path fill="none" stroke="midnightblue" d="M152.47,-332.91C125.59,-322.75 87.86,-308.51 64.05,-299.52"/>
<polygon fill="midnightblue" stroke="midnightblue" points="151.25,-336.19 161.84,-336.44 153.72,-329.64 151.25,-336.19"/>
</g>
<!-- Node3 -->
<g id="node3" class="node">
<title>Node3</title>
<g id="a_node3"><a xlink:href="flash_8c.html" target="_top" xlink:title=" ">
<polygon fill="white" stroke="black" points="153.5,-56.5 153.5,-75.5 233.5,-75.5 233.5,-56.5 153.5,-56.5"/>
<text text-anchor="middle" x="193.5" y="-63.5" font-family="Helvetica,sans-Serif" font-size="10.00">src/P2/flash.c</text>
</a>
</g>
</g>
<!-- Node1&#45;&gt;Node3 -->
<g id="edge2" class="edge">
<title>Node1&#45;&gt;Node3</title>
<path fill="none" stroke="midnightblue" d="M161.75,-330.75C150.88,-322.89 138.52,-312.24 130.5,-300 114,-274.83 111.5,-265.1 111.5,-235 111.5,-235 111.5,-235 111.5,-177 111.5,-146.9 113.07,-136.54 130.5,-112 142.02,-95.78 161.27,-83.27 175.47,-75.61"/>
<polygon fill="midnightblue" stroke="midnightblue" points="159.81,-333.67 170.04,-336.44 163.77,-327.89 159.81,-333.67"/>
</g>
<!-- Node4 -->
<g id="node4" class="node">
<title>Node4</title>
<g id="a_node4"><a xlink:href="screen_8c.html" target="_top" xlink:title=" ">
<polygon fill="white" stroke="black" points="140,-280.5 140,-299.5 229,-299.5 229,-280.5 140,-280.5"/>
<text text-anchor="middle" x="184.5" y="-287.5" font-family="Helvetica,sans-Serif" font-size="10.00">src/P2/screen.c</text>
</a>
</g>
</g>
<!-- Node1&#45;&gt;Node4 -->
<g id="edge3" class="edge">
<title>Node1&#45;&gt;Node4</title>
<path fill="none" stroke="midnightblue" d="M184.5,-325.8C184.5,-316.91 184.5,-306.78 184.5,-299.75"/>
<polygon fill="midnightblue" stroke="midnightblue" points="181,-326.08 184.5,-336.08 188,-326.08 181,-326.08"/>
</g>
<!-- Node5 -->
<g id="node5" class="node">
<title>Node5</title>
<g id="a_node5"><a xlink:href="steppower_8c.html" target="_top" xlink:title=" ">
<polygon fill="white" stroke="black" points="247,-280.5 247,-299.5 354,-299.5 354,-280.5 247,-280.5"/>
<text text-anchor="middle" x="300.5" y="-287.5" font-family="Helvetica,sans-Serif" font-size="10.00">src/P2/steppower.c</text>
</a>
</g>
</g>
<!-- Node1&#45;&gt;Node5 -->
<g id="edge4" class="edge">
<title>Node1&#45;&gt;Node5</title>
<path fill="none" stroke="midnightblue" d="M212.22,-332.1C233.89,-322.01 263.4,-308.27 282.21,-299.52"/>
<polygon fill="midnightblue" stroke="midnightblue" points="210.47,-329.05 202.88,-336.44 213.42,-335.4 210.47,-329.05"/>
</g>
<!-- Node6 -->
<g id="node6" class="node">
<title>Node6</title>
<g id="a_node6"><a xlink:href="bis_8h.html" target="_top" xlink:title="Binary Input Stream.">
<polygon fill="white" stroke="black" points="372.5,-280.5 372.5,-299.5 450.5,-299.5 450.5,-280.5 372.5,-280.5"/>
<text text-anchor="middle" x="411.5" y="-287.5" font-family="Helvetica,sans-Serif" font-size="10.00">include/bis.h</text>
</a>
</g>
</g>
<!-- Node1&#45;&gt;Node6 -->
<g id="edge5" class="edge">
<title>Node1&#45;&gt;Node6</title>
<path fill="none" stroke="midnightblue" d="M230.37,-334.09C273.25,-323.89 336.42,-308.86 375.7,-299.52"/>
<polygon fill="midnightblue" stroke="midnightblue" points="229.39,-330.72 220.47,-336.44 231.01,-337.53 229.39,-330.72"/>
</g>
<!-- Node7 -->
<g id="node7" class="node">
<title>Node7</title>
<g id="a_node7"><a xlink:href="bis_8c.html" target="_top" xlink:title=" ">
<polygon fill="white" stroke="black" points="181,-224.5 181,-243.5 252,-243.5 252,-224.5 181,-224.5"/>
<text text-anchor="middle" x="216.5" y="-231.5" font-family="Helvetica,sans-Serif" font-size="10.00">src/P2/bis.c</text>
</a>
</g>
</g>
<!-- Node6&#45;&gt;Node7 -->
<g id="edge6" class="edge">
<title>Node6&#45;&gt;Node7</title>
<path fill="none" stroke="midnightblue" d="M370.69,-277.7C333.89,-267.51 280.57,-252.74 247.25,-243.52"/>
<polygon fill="midnightblue" stroke="midnightblue" points="370.03,-281.15 380.6,-280.44 371.9,-274.4 370.03,-281.15"/>
</g>
<!-- Node8 -->
<g id="node8" class="node">
<title>Node8</title>
<g id="a_node8"><a xlink:href="coin_8c.html" target="_top" xlink:title=" ">
<polygon fill="white" stroke="black" points="566,-56.5 566,-75.5 643,-75.5 643,-56.5 566,-56.5"/>
<text text-anchor="middle" x="604.5" y="-63.5" font-family="Helvetica,sans-Serif" font-size="10.00">src/P2/coin.c</text>
</a>
</g>
</g>
<!-- Node6&#45;&gt;Node8 -->
<g id="edge7" class="edge">
<title>Node6&#45;&gt;Node8</title>
<path fill="none" stroke="midnightblue" d="M460.79,-278.12C510.51,-264.78 586.47,-237.57 633.5,-188 657.7,-162.49 669.96,-144.05 655.5,-112 648.31,-96.07 632.39,-83.52 620.23,-75.76"/>
<polygon fill="midnightblue" stroke="midnightblue" points="459.7,-274.79 450.9,-280.69 461.46,-281.56 459.7,-274.79"/>
</g>
<!-- Node9 -->
<g id="node9" class="node">
<title>Node9</title>
<g id="a_node9"><a xlink:href="chkpnt_8h.html" target="_top" xlink:title="Checkpoint system.">
<polygon fill="white" stroke="black" points="410,-112.5 410,-131.5 507,-131.5 507,-112.5 410,-112.5"/>
<text text-anchor="middle" x="458.5" y="-119.5" font-family="Helvetica,sans-Serif" font-size="10.00">include/chkpnt.h</text>
</a>
</g>
</g>
<!-- Node6&#45;&gt;Node9 -->
<g id="edge8" class="edge">
<title>Node6&#45;&gt;Node9</title>
<path fill="none" stroke="midnightblue" d="M383.07,-275.99C340.28,-254.62 267.56,-210.24 299.5,-168 312.87,-150.32 368.01,-137.59 409.64,-130.28"/>
<polygon fill="midnightblue" stroke="midnightblue" points="381.68,-279.21 392.2,-280.43 384.74,-272.91 381.68,-279.21"/>
</g>
<!-- Node13 -->
<g id="node13" class="node">
<title>Node13</title>
<g id="a_node13"><a xlink:href="xform_8h.html" target="_top" xlink:title="Transform.">
<polygon fill="white" stroke="black" points="388,-224.5 388,-243.5 481,-243.5 481,-224.5 388,-224.5"/>
<text text-anchor="middle" x="434.5" y="-231.5" font-family="Helvetica,sans-Serif" font-size="10.00">include/xform.h</text>
</a>
</g>
</g>
<!-- Node6&#45;&gt;Node13 -->
<g id="edge13" class="edge">
<title>Node6&#45;&gt;Node13</title>
<path fill="none" stroke="midnightblue" d="M419.3,-270.69C423.18,-261.59 427.68,-251.01 430.77,-243.75"/>
<polygon fill="midnightblue" stroke="midnightblue" points="416,-269.51 415.3,-280.08 422.44,-272.25 416,-269.51"/>
</g>
<!-- Node9&#45;&gt;Node8 -->
<g id="edge10" class="edge">
<title>Node9&#45;&gt;Node8</title>
<path fill="none" stroke="midnightblue" d="M491.2,-108.91C518.65,-98.75 557.17,-84.51 581.47,-75.52"/>
<polygon fill="midnightblue" stroke="midnightblue" points="489.8,-105.69 481.63,-112.44 492.23,-112.26 489.8,-105.69"/>
</g>
<!-- Node10 -->
<g id="node10" class="node">
<title>Node10</title>
<g id="a_node10"><a xlink:href="chkpnt_8c.html" target="_top" xlink:title=" ">
<polygon fill="white" stroke="black" points="315.5,-56.5 315.5,-75.5 405.5,-75.5 405.5,-56.5 315.5,-56.5"/>
<text text-anchor="middle" x="360.5" y="-63.5" font-family="Helvetica,sans-Serif" font-size="10.00">src/P2/chkpnt.c</text>
</a>
</g>
</g>
<!-- Node9&#45;&gt;Node10 -->
<g id="edge9" class="edge">
<title>Node9&#45;&gt;Node10</title>
<path fill="none" stroke="midnightblue" d="M433.91,-107.45C415.82,-97.48 391.77,-84.23 376.21,-75.65"/>
<polygon fill="midnightblue" stroke="midnightblue" points="432.31,-110.56 442.75,-112.32 435.69,-104.43 432.31,-110.56"/>
</g>
<!-- Node11 -->
<g id="node11" class="node">
<title>Node11</title>
<g id="a_node11"><a xlink:href="difficulty_8h.html" target="_top" xlink:title="Dynamic difficulty system.">
<polygon fill="white" stroke="black" points="424,-56.5 424,-75.5 529,-75.5 529,-56.5 424,-56.5"/>
<text text-anchor="middle" x="476.5" y="-63.5" font-family="Helvetica,sans-Serif" font-size="10.00">include/difficulty.h</text>
</a>
</g>
</g>
<!-- Node9&#45;&gt;Node11 -->
<g id="edge11" class="edge">
<title>Node9&#45;&gt;Node11</title>
<path fill="none" stroke="midnightblue" d="M464.7,-102.4C467.71,-93.36 471.19,-82.94 473.58,-75.75"/>
<polygon fill="midnightblue" stroke="midnightblue" points="461.31,-101.49 461.47,-112.08 467.96,-103.7 461.31,-101.49"/>
</g>
<!-- Node12 -->
<g id="node12" class="node">
<title>Node12</title>
<g id="a_node12"><a xlink:href="difficulty_8c.html" target="_top" xlink:title=" ">
<polygon fill="white" stroke="black" points="427.5,-0.5 427.5,-19.5 525.5,-19.5 525.5,-0.5 427.5,-0.5"/>
<text text-anchor="middle" x="476.5" y="-7.5" font-family="Helvetica,sans-Serif" font-size="10.00">src/P2/difficulty.c</text>
</a>
</g>
</g>
<!-- Node11&#45;&gt;Node12 -->
<g id="edge12" class="edge">
<title>Node11&#45;&gt;Node12</title>
<path fill="none" stroke="midnightblue" d="M476.5,-45.8C476.5,-36.91 476.5,-26.78 476.5,-19.75"/>
<polygon fill="midnightblue" stroke="midnightblue" points="473,-46.08 476.5,-56.08 480,-46.08 473,-46.08"/>
</g>
<!-- Node14 -->
<g id="node14" class="node">
<title>Node14</title>
<g id="a_node14"><a xlink:href="xform1_8c.html" target="_top" xlink:title=" ">
<polygon fill="white" stroke="black" points="516.5,-168.5 516.5,-187.5 608.5,-187.5 608.5,-168.5 516.5,-168.5"/>
<text text-anchor="middle" x="562.5" y="-175.5" font-family="Helvetica,sans-Serif" font-size="10.00">src/P2/xform1.c</text>
</a>
</g>
</g>
<!-- Node13&#45;&gt;Node14 -->
<g id="edge14" class="edge">
<title>Node13&#45;&gt;Node14</title>
<path fill="none" stroke="midnightblue" d="M464.12,-220.5C488.12,-210.38 521.28,-196.39 542.31,-187.52"/>
<polygon fill="midnightblue" stroke="midnightblue" points="462.64,-217.33 454.78,-224.44 465.36,-223.78 462.64,-217.33"/>
</g>
<!-- Node15 -->
<g id="node15" class="node">
<title>Node15</title>
<g id="a_node15"><a xlink:href="xform2_8c.html" target="_top" xlink:title=" ">
<polygon fill="white" stroke="black" points="308.5,-168.5 308.5,-187.5 400.5,-187.5 400.5,-168.5 308.5,-168.5"/>
<text text-anchor="middle" x="354.5" y="-175.5" font-family="Helvetica,sans-Serif" font-size="10.00">src/P2/xform2.c</text>
</a>
</g>
</g>
<!-- Node13&#45;&gt;Node15 -->
<g id="edge15" class="edge">
<title>Node13&#45;&gt;Node15</title>
<path fill="none" stroke="midnightblue" d="M413.2,-218.62C398.58,-208.76 379.67,-195.99 367.32,-187.65"/>
<polygon fill="midnightblue" stroke="midnightblue" points="411.4,-221.63 421.65,-224.32 415.32,-215.83 411.4,-221.63"/>
</g>
<!-- Node16 -->
<g id="node16" class="node">
<title>Node16</title>
<g id="a_node16"><a xlink:href="cm_8h.html" target="_top" xlink:title="Game camera.">
<polygon fill="white" stroke="black" points="173,-168.5 173,-187.5 252,-187.5 252,-168.5 173,-168.5"/>
<text text-anchor="middle" x="212.5" y="-175.5" font-family="Helvetica,sans-Serif" font-size="10.00">include/cm.h</text>
</a>
</g>
</g>
<!-- Node13&#45;&gt;Node16 -->
<g id="edge16" class="edge">
<title>Node13&#45;&gt;Node16</title>
<path fill="none" stroke="midnightblue" d="M389.38,-222.02C347.44,-211.82 285.85,-196.84 247.51,-187.52"/>
<polygon fill="midnightblue" stroke="midnightblue" points="388.78,-225.48 399.32,-224.44 390.43,-218.68 388.78,-225.48"/>
</g>
<!-- Node19 -->
<g id="node19" class="node">
<title>Node19</title>
<g id="a_node19"><a xlink:href="coin_8h.html" target="_top" xlink:title="Coins, keys, and other collectibles.">
<polygon fill="white" stroke="black" points="562.5,-112.5 562.5,-131.5 646.5,-131.5 646.5,-112.5 562.5,-112.5"/>
<text text-anchor="middle" x="604.5" y="-119.5" font-family="Helvetica,sans-Serif" font-size="10.00">include/coin.h</text>
</a>
</g>
</g>
<!-- Node13&#45;&gt;Node19 -->
<g id="edge20" class="edge">
<title>Node13&#45;&gt;Node19</title>
<path fill="none" stroke="midnightblue" d="M491.06,-226.71C538.86,-220.09 601.95,-207.83 617.5,-188 630.56,-171.33 618.13,-145.05 610.11,-131.58"/>
<polygon fill="midnightblue" stroke="midnightblue" points="490.57,-223.24 481.12,-228.04 491.49,-230.18 490.57,-223.24"/>
</g>
<!-- Node20 -->
<g id="node20" class="node">
<title>Node20</title>
<g id="a_node20"><a xlink:href="vol_8h.html" target="_top" xlink:title="Volume object.">
<polygon fill="white" stroke="black" points="419,-168.5 419,-187.5 498,-187.5 498,-168.5 419,-168.5"/>
<text text-anchor="middle" x="458.5" y="-175.5" font-family="Helvetica,sans-Serif" font-size="10.00">include/vol.h</text>
</a>
</g>
</g>
<!-- Node13&#45;&gt;Node20 -->
<g id="edge22" class="edge">
<title>Node13&#45;&gt;Node20</title>
<path fill="none" stroke="midnightblue" d="M442.64,-214.69C446.68,-205.59 451.38,-195.01 454.61,-187.75"/>
<polygon fill="midnightblue" stroke="midnightblue" points="439.33,-213.52 438.46,-224.08 445.72,-216.37 439.33,-213.52"/>
</g>
<!-- Node17 -->
<g id="node17" class="node">
<title>Node17</title>
<g id="a_node17"><a xlink:href="cm_8c.html" target="_top" xlink:title=" ">
<polygon fill="white" stroke="black" points="139.5,-112.5 139.5,-131.5 211.5,-131.5 211.5,-112.5 139.5,-112.5"/>
<text text-anchor="middle" x="175.5" y="-119.5" font-family="Helvetica,sans-Serif" font-size="10.00">src/P2/cm.c</text>
</a>
</g>
</g>
<!-- Node16&#45;&gt;Node17 -->
<g id="edge17" class="edge">
<title>Node16&#45;&gt;Node17</title>
<path fill="none" stroke="midnightblue" d="M200.55,-159.57C194.19,-150.27 186.63,-139.25 181.5,-131.75"/>
<polygon fill="midnightblue" stroke="midnightblue" points="197.85,-161.81 206.39,-168.08 203.63,-157.86 197.85,-161.81"/>
</g>
<!-- Node18 -->
<g id="node18" class="node">
<title>Node18</title>
<g id="a_node18"><a xlink:href="flash_8h.html" target="_top" xlink:title="Flash (might be flash animation, or literal screen flashes).">
<polygon fill="white" stroke="black" points="230,-112.5 230,-131.5 317,-131.5 317,-112.5 230,-112.5"/>
<text text-anchor="middle" x="273.5" y="-119.5" font-family="Helvetica,sans-Serif" font-size="10.00">include/flash.h</text>
</a>
</g>
</g>
<!-- Node16&#45;&gt;Node18 -->
<g id="edge18" class="edge">
<title>Node16&#45;&gt;Node18</title>
<path fill="none" stroke="midnightblue" d="M229.97,-161.54C240.84,-151.91 254.44,-139.87 263.52,-131.83"/>
<polygon fill="midnightblue" stroke="midnightblue" points="227.47,-159.07 222.3,-168.32 232.11,-164.32 227.47,-159.07"/>
</g>
<!-- Node18&#45;&gt;Node3 -->
<g id="edge19" class="edge">
<title>Node18&#45;&gt;Node3</title>
<path fill="none" stroke="midnightblue" d="M252.2,-106.62C237.58,-96.76 218.67,-83.99 206.32,-75.65"/>
<polygon fill="midnightblue" stroke="midnightblue" points="250.4,-109.63 260.65,-112.32 254.32,-103.83 250.4,-109.63"/>
</g>
<!-- Node19&#45;&gt;Node8 -->
<g id="edge21" class="edge">
<title>Node19&#45;&gt;Node8</title>
<path fill="none" stroke="midnightblue" d="M604.5,-101.8C604.5,-92.91 604.5,-82.78 604.5,-75.75"/>
<polygon fill="midnightblue" stroke="midnightblue" points="601,-102.08 604.5,-112.08 608,-102.08 601,-102.08"/>
</g>
<!-- Node20&#45;&gt;Node9 -->
<g id="edge23" class="edge">
<title>Node20&#45;&gt;Node9</title>
<path fill="none" stroke="midnightblue" d="M458.5,-157.8C458.5,-148.91 458.5,-138.78 458.5,-131.75"/>
<polygon fill="midnightblue" stroke="midnightblue" points="455,-158.08 458.5,-168.08 462,-158.08 455,-158.08"/>
</g>
</g>
</svg>
        <g id="navigator" transform="translate(0 0)" fill="#404254">
                <rect fill="#f2f5e9" fill-opacity="0.5" stroke="#606060" stroke-width=".5" x="0" y="0" width="60" height="60"/>
                <use id="zoomplus" xlink:href="#zoomPlus" x="17" y="9" onmousedown="handleZoom(evt,'in')"/>
                <use id="zoomminus" xlink:href="#zoomMin" x="42" y="9" onmousedown="handleZoom(evt,'out')"/>
                <use id="reset" xlink:href="#resetDef" x="30" y="36" onmousedown="handleReset()"/>
                <g id="arrowUp" xlink:href="#dirArrow" transform="translate(30 24)" onmousedown="handlePan(0,-1)">
                  <use xlink:href="#rim" fill="#404040">
                        <set attributeName="fill" to="#808080" begin="arrowUp.mouseover" end="arrowUp.mouseout"/>
                  </use>
                  <path fill="none" stroke="white" stroke-width="1.5" d="M0,-3.0v7 M-2.5,-0.5L0,-3.0L2.5,-0.5"/>
                </g>
                <g id="arrowRight" xlink:href="#dirArrow" transform="rotate(90) translate(36 -43)" onmousedown="handlePan(1,0)">
                  <use xlink:href="#rim" fill="#404040">
                        <set attributeName="fill" to="#808080" begin="arrowRight.mouseover" end="arrowRight.mouseout"/>
                  </use>
                  <path fill="none" stroke="white" stroke-width="1.5" d="M0,-3.0v7 M-2.5,-0.5L0,-3.0L2.5,-0.5"/>
                </g>
                <g id="arrowDown" xlink:href="#dirArrow" transform="rotate(180) translate(-30 -48)" onmousedown="handlePan(0,1)">
                  <use xlink:href="#rim" fill="#404040">
                        <set attributeName="fill" to="#808080" begin="arrowDown.mouseover" end="arrowDown.mouseout"/>
                  </use>
                  <path fill="none" stroke="white" stroke-width="1.5" d="M0,-3.0v7 M-2.5,-0.5L0,-3.0L2.5,-0.5"/>
                </g>
                <g id="arrowLeft" xlink:href="#dirArrow" transform="rotate(270) translate(-36 17)" onmousedown="handlePan(-1,0)">
                  <use xlink:href="#rim" fill="#404040">
                        <set attributeName="fill" to="#808080" begin="arrowLeft.mouseover" end="arrowLeft.mouseout"/>
                  </use>
                  <path fill="none" stroke="white" stroke-width="1.5" d="M0,-3.0v7 M-2.5,-0.5L0,-3.0L2.5,-0.5"/>
                </g>
        </g>
        <svg viewBox="0 0 15 15" width="100%" height="30px" preserveAspectRatio="xMaxYMin meet">
         <g id="arrow_out" transform="scale(0.3 0.3)">
          <a xlink:href="clock_8h__dep__incl_org.svg" target="_base">
           <rect id="button" ry="5" rx="5" y="6" x="6" height="38" width="38"
                fill="#f2f5e9" fill-opacity="0.5" stroke="#606060" stroke-width="1.0"/>
           <path id="arrow"
             d="M 11.500037,31.436501 C 11.940474,20.09759 22.043105,11.32322 32.158766,21.979434 L 37.068811,17.246167 C 37.068811,17.246167 37.088388,32 37.088388,32 L 22.160133,31.978069 C 22.160133,31.978069 26.997745,27.140456 26.997745,27.140456 C 18.528582,18.264221 13.291696,25.230495 11.500037,31.436501 z"
             style="fill:#404040;"/>
          </a>
         </g>
        </svg>
</svg>
