<?xml version="1.0" encoding="UTF-8" standalone="no"?>
<!DOCTYPE svg PUBLIC "-//W3C//DTD SVG 1.1//EN"
 "http://www.w3.org/Graphics/SVG/1.1/DTD/svg11.dtd">
<!-- Generated by graphviz version 2.43.0 (0)
 -->
<!-- Title: include/coin.h Pages: 1 -->
<svg width="1326pt" height="588pt"
 viewBox="0.00 0.00 1325.50 588.00" xmlns="http://www.w3.org/2000/svg" xmlns:xlink="http://www.w3.org/1999/xlink">
<g id="graph0" class="graph" transform="scale(1 1) rotate(0) translate(4 584)">
<title>include/coin.h</title>
<polygon fill="white" stroke="transparent" points="-4,4 -4,-584 1321.5,-584 1321.5,4 -4,4"/>
<!-- Node1 -->
<g id="node1" class="node">
<title>Node1</title>
<g id="a_node1"><a xlink:title="Coins, keys, and other collectibles.">
<polygon fill="#bfbfbf" stroke="black" points="413,-560.5 413,-579.5 497,-579.5 497,-560.5 413,-560.5"/>
<text text-anchor="middle" x="455" y="-567.5" font-family="Helvetica,sans-Serif" font-size="10.00">include/coin.h</text>
</a>
</g>
</g>
<!-- Node2 -->
<g id="node2" class="node">
<title>Node2</title>
<g id="a_node2"><a xlink:href="common_8h.html" target="_top" xlink:title="Common header file.">
<polygon fill="white" stroke="black" points="612,-56.5 612,-75.5 680,-75.5 680,-56.5 612,-56.5"/>
<text text-anchor="middle" x="646" y="-63.5" font-family="Helvetica,sans-Serif" font-size="10.00">common.h</text>
</a>
</g>
</g>
<!-- Node1&#45;&gt;Node2 -->
<g id="edge1" class="edge">
<title>Node1&#45;&gt;Node2</title>
<path fill="none" stroke="midnightblue" d="M412.6,-567.75C299.65,-563.26 0,-543.42 0,-459 0,-459 0,-459 0,-177 0,-138.87 21.97,-129.2 56,-112 104.27,-87.61 472.34,-72.9 601.43,-68.44"/>
<polygon fill="midnightblue" stroke="midnightblue" points="601.86,-71.93 611.74,-68.09 601.63,-64.94 601.86,-71.93"/>
</g>
<!-- Node6 -->
<g id="node6" class="node">
<title>Node6</title>
<g id="a_node6"><a xlink:href="alo_8h.html" target="_top" xlink:title=" ">
<polygon fill="white" stroke="black" points="434.5,-280.5 434.5,-299.5 475.5,-299.5 475.5,-280.5 434.5,-280.5"/>
<text text-anchor="middle" x="455" y="-287.5" font-family="Helvetica,sans-Serif" font-size="10.00">alo.h</text>
</a>
</g>
</g>
<!-- Node1&#45;&gt;Node6 -->
<g id="edge5" class="edge">
<title>Node1&#45;&gt;Node6</title>
<path fill="none" stroke="midnightblue" d="M455,-560.44C455,-541.94 455,-496.81 455,-459 455,-459 455,-459 455,-401 455,-368.95 455,-331.64 455,-309.75"/>
<polygon fill="midnightblue" stroke="midnightblue" points="458.5,-309.56 455,-299.56 451.5,-309.56 458.5,-309.56"/>
</g>
<!-- Node8 -->
<g id="node8" class="node">
<title>Node8</title>
<g id="a_node8"><a xlink:href="oid_8h.html" target="_top" xlink:title="Object IDs.">
<polygon fill="white" stroke="black" points="693.5,-112.5 693.5,-131.5 734.5,-131.5 734.5,-112.5 693.5,-112.5"/>
<text text-anchor="middle" x="714" y="-119.5" font-family="Helvetica,sans-Serif" font-size="10.00">oid.h</text>
</a>
</g>
</g>
<!-- Node1&#45;&gt;Node8 -->
<g id="edge25" class="edge">
<title>Node1&#45;&gt;Node8</title>
<path fill="none" stroke="midnightblue" d="M461.43,-560.31C488.5,-523.46 595.01,-375.98 664,-244 682.35,-208.89 698.89,-165.5 707.58,-141.38"/>
<polygon fill="midnightblue" stroke="midnightblue" points="710.95,-142.34 711,-131.75 704.36,-140 710.95,-142.34"/>
</g>
<!-- Node15 -->
<g id="node15" class="node">
<title>Node15</title>
<g id="a_node15"><a xlink:href="sm_8h.html" target="_top" xlink:title="State machines.">
<polygon fill="white" stroke="black" points="315.5,-336.5 315.5,-355.5 356.5,-355.5 356.5,-336.5 315.5,-336.5"/>
<text text-anchor="middle" x="336" y="-343.5" font-family="Helvetica,sans-Serif" font-size="10.00">sm.h</text>
</a>
</g>
</g>
<!-- Node1&#45;&gt;Node15 -->
<g id="edge26" class="edge">
<title>Node1&#45;&gt;Node15</title>
<path fill="none" stroke="midnightblue" d="M450.34,-560.3C432.68,-527.36 369.72,-409.9 345.54,-364.81"/>
<polygon fill="midnightblue" stroke="midnightblue" points="348.57,-363.04 340.76,-355.88 342.4,-366.35 348.57,-363.04"/>
</g>
<!-- Node17 -->
<g id="node17" class="node">
<title>Node17</title>
<g id="a_node17"><a xlink:href="xform_8h.html" target="_top" xlink:title="Transform.">
<polygon fill="white" stroke="black" points="691.5,-504.5 691.5,-523.5 746.5,-523.5 746.5,-504.5 691.5,-504.5"/>
<text text-anchor="middle" x="719" y="-511.5" font-family="Helvetica,sans-Serif" font-size="10.00">xform.h</text>
</a>
</g>
</g>
<!-- Node1&#45;&gt;Node17 -->
<g id="edge33" class="edge">
<title>Node1&#45;&gt;Node17</title>
<path fill="none" stroke="midnightblue" d="M496.83,-560.44C547.6,-550.06 632.45,-532.7 681.28,-522.71"/>
<polygon fill="midnightblue" stroke="midnightblue" points="682.04,-526.13 691.13,-520.7 680.63,-519.28 682.04,-526.13"/>
</g>
<!-- Node3 -->
<g id="node3" class="node">
<title>Node3</title>
<g id="a_node3"><a xlink:href="include__asm_8h.html" target="_top" xlink:title=" ">
<polygon fill="white" stroke="black" points="491.5,-0.5 491.5,-19.5 578.5,-19.5 578.5,-0.5 491.5,-0.5"/>
<text text-anchor="middle" x="535" y="-7.5" font-family="Helvetica,sans-Serif" font-size="10.00">include_asm.h</text>
</a>
</g>
</g>
<!-- Node2&#45;&gt;Node3 -->
<g id="edge2" class="edge">
<title>Node2&#45;&gt;Node3</title>
<path fill="none" stroke="midnightblue" d="M628.17,-56.32C610.28,-47.62 582.52,-34.12 561.95,-24.11"/>
<polygon fill="midnightblue" stroke="midnightblue" points="563.31,-20.88 552.79,-19.65 560.25,-27.18 563.31,-20.88"/>
</g>
<!-- Node4 -->
<g id="node4" class="node">
<title>Node4</title>
<g id="a_node4"><a xlink:href="include__rodata_8h.html" target="_top" xlink:title=" ">
<polygon fill="white" stroke="black" points="597,-0.5 597,-19.5 695,-19.5 695,-0.5 597,-0.5"/>
<text text-anchor="middle" x="646" y="-7.5" font-family="Helvetica,sans-Serif" font-size="10.00">include_rodata.h</text>
</a>
</g>
</g>
<!-- Node2&#45;&gt;Node4 -->
<g id="edge3" class="edge">
<title>Node2&#45;&gt;Node4</title>
<path fill="none" stroke="midnightblue" d="M646,-56.08C646,-49.01 646,-38.86 646,-29.99"/>
<polygon fill="midnightblue" stroke="midnightblue" points="649.5,-29.75 646,-19.75 642.5,-29.75 649.5,-29.75"/>
</g>
<!-- Node5 -->
<g id="node5" class="node">
<title>Node5</title>
<g id="a_node5"><a xlink:href="types_8h.html" target="_top" xlink:title="Types used throughout the engine.">
<polygon fill="white" stroke="black" points="713.5,-0.5 713.5,-19.5 766.5,-19.5 766.5,-0.5 713.5,-0.5"/>
<text text-anchor="middle" x="740" y="-7.5" font-family="Helvetica,sans-Serif" font-size="10.00">types.h</text>
</a>
</g>
</g>
<!-- Node2&#45;&gt;Node5 -->
<g id="edge4" class="edge">
<title>Node2&#45;&gt;Node5</title>
<path fill="none" stroke="midnightblue" d="M661.1,-56.32C675.9,-47.82 698.69,-34.73 715.98,-24.8"/>
<polygon fill="midnightblue" stroke="midnightblue" points="718.01,-27.67 724.93,-19.65 714.52,-21.6 718.01,-27.67"/>
</g>
<!-- Node6&#45;&gt;Node2 -->
<g id="edge6" class="edge">
<title>Node6&#45;&gt;Node2</title>
<path fill="none" stroke="midnightblue" d="M434.25,-284.53C395.84,-276.05 315.28,-257.32 290,-244 228.9,-211.81 161.73,-163.27 208,-112 234.08,-83.1 496.02,-71.7 601.92,-68.25"/>
<polygon fill="midnightblue" stroke="midnightblue" points="602.08,-71.74 611.96,-67.93 601.86,-64.75 602.08,-71.74"/>
</g>
<!-- Node7 -->
<g id="node7" class="node">
<title>Node7</title>
<g id="a_node7"><a xlink:href="lo_8h.html" target="_top" xlink:title="Level objects.">
<polygon fill="white" stroke="black" points="299.5,-224.5 299.5,-243.5 334.5,-243.5 334.5,-224.5 299.5,-224.5"/>
<text text-anchor="middle" x="317" y="-231.5" font-family="Helvetica,sans-Serif" font-size="10.00">lo.h</text>
</a>
</g>
</g>
<!-- Node6&#45;&gt;Node7 -->
<g id="edge7" class="edge">
<title>Node6&#45;&gt;Node7</title>
<path fill="none" stroke="midnightblue" d="M434.34,-280.92C410.34,-271.52 370.65,-255.99 344.17,-245.63"/>
<polygon fill="midnightblue" stroke="midnightblue" points="345.32,-242.32 334.73,-241.94 342.76,-248.84 345.32,-242.32"/>
</g>
<!-- Node11 -->
<g id="node11" class="node">
<title>Node11</title>
<g id="a_node11"><a xlink:href="dl_8h.html" target="_top" xlink:title=" ">
<polygon fill="white" stroke="black" points="473.5,-168.5 473.5,-187.5 508.5,-187.5 508.5,-168.5 473.5,-168.5"/>
<text text-anchor="middle" x="491" y="-175.5" font-family="Helvetica,sans-Serif" font-size="10.00">dl.h</text>
</a>
</g>
</g>
<!-- Node6&#45;&gt;Node11 -->
<g id="edge24" class="edge">
<title>Node6&#45;&gt;Node11</title>
<path fill="none" stroke="midnightblue" d="M457.82,-280.37C463.66,-262.54 477.16,-221.3 485.02,-197.27"/>
<polygon fill="midnightblue" stroke="midnightblue" points="488.4,-198.18 488.19,-187.59 481.75,-196.01 488.4,-198.18"/>
</g>
<!-- Node7&#45;&gt;Node2 -->
<g id="edge8" class="edge">
<title>Node7&#45;&gt;Node2</title>
<path fill="none" stroke="midnightblue" d="M300.75,-224.37C264.64,-204.13 183.71,-152.33 220,-112 245.22,-83.97 497.79,-72.11 601.7,-68.39"/>
<polygon fill="midnightblue" stroke="midnightblue" points="601.99,-71.88 611.87,-68.04 601.75,-64.89 601.99,-71.88"/>
</g>
<!-- Node7&#45;&gt;Node8 -->
<g id="edge9" class="edge">
<title>Node7&#45;&gt;Node8</title>
<path fill="none" stroke="midnightblue" d="M334.65,-224.56C367.78,-208.83 438.25,-175.89 464,-168 541.03,-144.41 635.43,-131.57 683.18,-126.15"/>
<polygon fill="midnightblue" stroke="midnightblue" points="683.63,-129.62 693.19,-125.05 682.87,-122.67 683.63,-129.62"/>
</g>
<!-- Node9 -->
<g id="node9" class="node">
<title>Node9</title>
<g id="a_node9"><a xlink:href="basic_8h.html" target="_top" xlink:title="Basic object.">
<polygon fill="white" stroke="black" points="289.5,-168.5 289.5,-187.5 340.5,-187.5 340.5,-168.5 289.5,-168.5"/>
<text text-anchor="middle" x="315" y="-175.5" font-family="Helvetica,sans-Serif" font-size="10.00">basic.h</text>
</a>
</g>
</g>
<!-- Node7&#45;&gt;Node9 -->
<g id="edge11" class="edge">
<title>Node7&#45;&gt;Node9</title>
<path fill="none" stroke="midnightblue" d="M316.67,-224.08C316.41,-217.01 316.03,-206.86 315.7,-197.99"/>
<polygon fill="midnightblue" stroke="midnightblue" points="319.19,-197.61 315.32,-187.75 312.2,-197.87 319.19,-197.61"/>
</g>
<!-- Node7&#45;&gt;Node11 -->
<g id="edge15" class="edge">
<title>Node7&#45;&gt;Node11</title>
<path fill="none" stroke="midnightblue" d="M334.64,-227.53C365,-218.1 427.31,-198.77 463.44,-187.55"/>
<polygon fill="midnightblue" stroke="midnightblue" points="464.8,-190.8 473.31,-184.49 462.72,-184.11 464.8,-190.8"/>
</g>
<!-- Node12 -->
<g id="node12" class="node">
<title>Node12</title>
<g id="a_node12"><a xlink:href="sw_8h.html" target="_top" xlink:title="Scene world?">
<polygon fill="white" stroke="black" points="381,-112.5 381,-131.5 419,-131.5 419,-112.5 381,-112.5"/>
<text text-anchor="middle" x="400" y="-119.5" font-family="Helvetica,sans-Serif" font-size="10.00">sw.h</text>
</a>
</g>
</g>
<!-- Node7&#45;&gt;Node12 -->
<g id="edge18" class="edge">
<title>Node7&#45;&gt;Node12</title>
<path fill="none" stroke="midnightblue" d="M323.51,-224.37C337.27,-206.14 369.5,-163.43 387.42,-139.68"/>
<polygon fill="midnightblue" stroke="midnightblue" points="390.29,-141.68 393.52,-131.59 384.7,-137.47 390.29,-141.68"/>
</g>
<!-- Node13 -->
<g id="node13" class="node">
<title>Node13</title>
<g id="a_node13"><a xlink:href="frame_8h.html" target="_top" xlink:title=" ">
<polygon fill="white" stroke="black" points="437,-112.5 437,-131.5 523,-131.5 523,-112.5 437,-112.5"/>
<text text-anchor="middle" x="480" y="-119.5" font-family="Helvetica,sans-Serif" font-size="10.00">splice/frame.h</text>
</a>
</g>
</g>
<!-- Node7&#45;&gt;Node13 -->
<g id="edge20" class="edge">
<title>Node7&#45;&gt;Node13</title>
<path fill="none" stroke="midnightblue" d="M329.79,-224.37C357.76,-205.49 424.6,-160.38 458.9,-137.24"/>
<polygon fill="midnightblue" stroke="midnightblue" points="460.94,-140.09 467.27,-131.59 457.02,-134.28 460.94,-140.09"/>
</g>
<!-- Node14 -->
<g id="node14" class="node">
<title>Node14</title>
<g id="a_node14"><a xlink:href="mq_8h.html" target="_top" xlink:title="Message queue(?).">
<polygon fill="white" stroke="black" points="66.5,-168.5 66.5,-187.5 107.5,-187.5 107.5,-168.5 66.5,-168.5"/>
<text text-anchor="middle" x="87" y="-175.5" font-family="Helvetica,sans-Serif" font-size="10.00">mq.h</text>
</a>
</g>
</g>
<!-- Node7&#45;&gt;Node14 -->
<g id="edge22" class="edge">
<title>Node7&#45;&gt;Node14</title>
<path fill="none" stroke="midnightblue" d="M299.33,-228.85C260.33,-219.69 166.46,-197.66 117.64,-186.19"/>
<polygon fill="midnightblue" stroke="midnightblue" points="118.2,-182.73 107.67,-183.85 116.6,-189.55 118.2,-182.73"/>
</g>
<!-- Node8&#45;&gt;Node2 -->
<g id="edge10" class="edge">
<title>Node8&#45;&gt;Node2</title>
<path fill="none" stroke="midnightblue" d="M703.07,-112.32C692.83,-104.18 677.28,-91.84 665,-82.09"/>
<polygon fill="midnightblue" stroke="midnightblue" points="667.13,-79.31 657.12,-75.83 662.78,-84.79 667.13,-79.31"/>
</g>
<!-- Node9&#45;&gt;Node2 -->
<g id="edge12" class="edge">
<title>Node9&#45;&gt;Node2</title>
<path fill="none" stroke="midnightblue" d="M319.98,-168.12C328.56,-153.72 347.59,-125.55 372,-112 410.61,-90.57 534.28,-76.76 601.49,-70.65"/>
<polygon fill="midnightblue" stroke="midnightblue" points="602.12,-74.11 611.77,-69.73 601.5,-67.13 602.12,-74.11"/>
</g>
<!-- Node10 -->
<g id="node10" class="node">
<title>Node10</title>
<g id="a_node10"><a xlink:href="sidebag_8h.html" target="_top" xlink:title="Sidebag for splice.">
<polygon fill="white" stroke="black" points="229.5,-112.5 229.5,-131.5 324.5,-131.5 324.5,-112.5 229.5,-112.5"/>
<text text-anchor="middle" x="277" y="-119.5" font-family="Helvetica,sans-Serif" font-size="10.00">splice/sidebag.h</text>
</a>
</g>
</g>
<!-- Node9&#45;&gt;Node10 -->
<g id="edge13" class="edge">
<title>Node9&#45;&gt;Node10</title>
<path fill="none" stroke="midnightblue" d="M308.73,-168.08C303.36,-160.46 295.48,-149.26 288.92,-139.94"/>
<polygon fill="midnightblue" stroke="midnightblue" points="291.78,-137.91 283.16,-131.75 286.05,-141.94 291.78,-137.91"/>
</g>
<!-- Node10&#45;&gt;Node2 -->
<g id="edge14" class="edge">
<title>Node10&#45;&gt;Node2</title>
<path fill="none" stroke="midnightblue" d="M324.86,-114C396.83,-103.46 531.9,-83.7 601.71,-73.48"/>
<polygon fill="midnightblue" stroke="midnightblue" points="602.54,-76.9 611.93,-71.99 601.53,-69.97 602.54,-76.9"/>
</g>
<!-- Node11&#45;&gt;Node2 -->
<g id="edge16" class="edge">
<title>Node11&#45;&gt;Node2</title>
<path fill="none" stroke="midnightblue" d="M501.37,-168.47C517,-155.72 547.68,-131.17 575,-112 590.68,-101 608.95,-89.45 623.02,-80.81"/>
<polygon fill="midnightblue" stroke="midnightblue" points="624.88,-83.77 631.6,-75.58 621.24,-77.8 624.88,-83.77"/>
</g>
<!-- Node11&#45;&gt;Node8 -->
<g id="edge17" class="edge">
<title>Node11&#45;&gt;Node8</title>
<path fill="none" stroke="midnightblue" d="M508.87,-172.67C546.92,-163.46 636.31,-141.81 683.54,-130.38"/>
<polygon fill="midnightblue" stroke="midnightblue" points="684.59,-133.72 693.49,-127.97 682.94,-126.92 684.59,-133.72"/>
</g>
<!-- Node12&#45;&gt;Node2 -->
<g id="edge19" class="edge">
<title>Node12&#45;&gt;Node2</title>
<path fill="none" stroke="midnightblue" d="M419.2,-114.53C422.13,-113.63 425.14,-112.75 428,-112 487.64,-96.31 557.63,-82.7 601.89,-74.67"/>
<polygon fill="midnightblue" stroke="midnightblue" points="602.53,-78.11 611.75,-72.89 601.29,-71.22 602.53,-78.11"/>
</g>
<!-- Node13&#45;&gt;Node2 -->
<g id="edge21" class="edge">
<title>Node13&#45;&gt;Node2</title>
<path fill="none" stroke="midnightblue" d="M506.3,-112.44C534.35,-103.32 578.94,-88.81 610.18,-78.65"/>
<polygon fill="midnightblue" stroke="midnightblue" points="611.39,-81.94 619.82,-75.52 609.23,-75.28 611.39,-81.94"/>
</g>
<!-- Node14&#45;&gt;Node2 -->
<g id="edge23" class="edge">
<title>Node14&#45;&gt;Node2</title>
<path fill="none" stroke="midnightblue" d="M87.41,-168.12C88.59,-153.72 93.19,-125.55 111,-112 149.69,-82.55 480.76,-71.21 601.87,-68.03"/>
<polygon fill="midnightblue" stroke="midnightblue" points="602,-71.52 611.91,-67.77 601.82,-64.53 602,-71.52"/>
</g>
<!-- Node15&#45;&gt;Node2 -->
<g id="edge27" class="edge">
<title>Node15&#45;&gt;Node2</title>
<path fill="none" stroke="midnightblue" d="M315.05,-341.93C247.21,-331.4 38,-294.15 38,-235 38,-235 38,-235 38,-177 38,-139.16 59.34,-129.3 93,-112 181.37,-66.57 486.46,-65.14 601.57,-66.29"/>
<polygon fill="midnightblue" stroke="midnightblue" points="601.75,-69.8 611.78,-66.41 601.82,-62.8 601.75,-69.8"/>
</g>
<!-- Node15&#45;&gt;Node11 -->
<g id="edge28" class="edge">
<title>Node15&#45;&gt;Node11</title>
<path fill="none" stroke="midnightblue" d="M344.33,-336.08C369.37,-309.27 444.14,-229.19 476.17,-194.89"/>
<polygon fill="midnightblue" stroke="midnightblue" points="478.73,-197.27 483,-187.57 473.62,-192.49 478.73,-197.27"/>
</g>
<!-- Node15&#45;&gt;Node14 -->
<g id="edge32" class="edge">
<title>Node15&#45;&gt;Node14</title>
<path fill="none" stroke="midnightblue" d="M315.24,-339.92C273.87,-328.87 180.13,-299.13 122,-244 108.36,-231.07 98.87,-211.63 93.24,-197.37"/>
<polygon fill="midnightblue" stroke="midnightblue" points="96.42,-195.87 89.69,-187.68 89.84,-198.28 96.42,-195.87"/>
</g>
<!-- Node16 -->
<g id="node16" class="node">
<title>Node16</title>
<g id="a_node16"><a xlink:href="anim_8h.html" target="_top" xlink:title="Animation.">
<polygon fill="white" stroke="black" points="504,-280.5 504,-299.5 554,-299.5 554,-280.5 504,-280.5"/>
<text text-anchor="middle" x="529" y="-287.5" font-family="Helvetica,sans-Serif" font-size="10.00">anim.h</text>
</a>
</g>
</g>
<!-- Node15&#45;&gt;Node16 -->
<g id="edge29" class="edge">
<title>Node15&#45;&gt;Node16</title>
<path fill="none" stroke="midnightblue" d="M356.64,-338.74C359.77,-337.81 362.97,-336.87 366,-336 409.91,-323.35 460.68,-309.45 493.74,-300.49"/>
<polygon fill="midnightblue" stroke="midnightblue" points="495.08,-303.76 503.82,-297.77 493.25,-297 495.08,-303.76"/>
</g>
<!-- Node16&#45;&gt;Node2 -->
<g id="edge30" class="edge">
<title>Node16&#45;&gt;Node2</title>
<path fill="none" stroke="midnightblue" d="M531.38,-280.35C538.96,-253.7 564.34,-171.09 603,-112 609.99,-101.31 619.7,-90.9 628.12,-82.78"/>
<polygon fill="midnightblue" stroke="midnightblue" points="630.72,-85.15 635.67,-75.78 625.96,-80.02 630.72,-85.15"/>
</g>
<!-- Node16&#45;&gt;Node7 -->
<g id="edge31" class="edge">
<title>Node16&#45;&gt;Node7</title>
<path fill="none" stroke="midnightblue" d="M503.85,-282.59C463.81,-272.39 385.87,-252.54 344.44,-241.99"/>
<polygon fill="midnightblue" stroke="midnightblue" points="345.29,-238.6 334.74,-239.52 343.57,-245.38 345.29,-238.6"/>
</g>
<!-- Node17&#45;&gt;Node2 -->
<g id="edge34" class="edge">
<title>Node17&#45;&gt;Node2</title>
<path fill="none" stroke="midnightblue" d="M728.92,-504.4C759.62,-476.77 851,-386.51 851,-291 851,-291 851,-291 851,-233 851,-177.37 858.41,-151.25 819,-112 785.09,-78.23 729.25,-68.81 690.21,-66.67"/>
<polygon fill="midnightblue" stroke="midnightblue" points="690.31,-63.17 680.18,-66.25 690.02,-70.16 690.31,-63.17"/>
</g>
<!-- Node17&#45;&gt;Node6 -->
<g id="edge35" class="edge">
<title>Node17&#45;&gt;Node6</title>
<path fill="none" stroke="midnightblue" d="M691.28,-510.18C659.69,-505.77 607.81,-494.77 572,-468 514.51,-425.03 476.76,-344.94 462,-309.12"/>
<polygon fill="midnightblue" stroke="midnightblue" points="465.12,-307.5 458.16,-299.52 458.62,-310.1 465.12,-307.5"/>
</g>
<!-- Node17&#45;&gt;Node8 -->
<g id="edge53" class="edge">
<title>Node17&#45;&gt;Node8</title>
<path fill="none" stroke="midnightblue" d="M719.14,-504.46C719.74,-465.66 721.85,-302.08 717,-168 716.69,-159.38 716.09,-149.86 715.51,-141.79"/>
<polygon fill="midnightblue" stroke="midnightblue" points="718.98,-141.32 714.73,-131.62 712,-141.86 718.98,-141.32"/>
</g>
<!-- Node17&#45;&gt;Node11 -->
<g id="edge42" class="edge">
<title>Node17&#45;&gt;Node11</title>
<path fill="none" stroke="midnightblue" d="M702.25,-504.37C688.19,-496.45 668.32,-483.6 655,-468 594.61,-397.24 610.6,-359.92 563,-280 544.46,-248.88 519.19,-215.04 504.05,-195.5"/>
<polygon fill="midnightblue" stroke="midnightblue" points="506.78,-193.31 497.86,-187.59 501.26,-197.62 506.78,-193.31"/>
</g>
<!-- Node17&#45;&gt;Node16 -->
<g id="edge54" class="edge">
<title>Node17&#45;&gt;Node16</title>
<path fill="none" stroke="midnightblue" d="M691.29,-510C663.04,-505.52 619.66,-494.56 593,-468 548.3,-423.47 534.62,-345.41 530.6,-309.74"/>
<polygon fill="midnightblue" stroke="midnightblue" points="534.07,-309.35 529.6,-299.74 527.11,-310.04 534.07,-309.35"/>
</g>
<!-- Node18 -->
<g id="node18" class="node">
<title>Node18</title>
<g id="a_node18"><a xlink:href="util_8h.html" target="_top" xlink:title="Utility functions.">
<polygon fill="white" stroke="black" points="909.5,-448.5 909.5,-467.5 950.5,-467.5 950.5,-448.5 909.5,-448.5"/>
<text text-anchor="middle" x="930" y="-455.5" font-family="Helvetica,sans-Serif" font-size="10.00">util.h</text>
</a>
</g>
</g>
<!-- Node17&#45;&gt;Node18 -->
<g id="edge36" class="edge">
<title>Node17&#45;&gt;Node18</title>
<path fill="none" stroke="midnightblue" d="M746.58,-505.94C786.13,-495.82 858.67,-477.25 899.68,-466.76"/>
<polygon fill="midnightblue" stroke="midnightblue" points="900.56,-470.15 909.38,-464.28 898.83,-463.36 900.56,-470.15"/>
</g>
<!-- Node22 -->
<g id="node22" class="node">
<title>Node22</title>
<g id="a_node22"><a xlink:href="surf_8h.html" target="_top" xlink:title="Surface?">
<polygon fill="white" stroke="black" points="1026,-448.5 1026,-467.5 1070,-467.5 1070,-448.5 1026,-448.5"/>
<text text-anchor="middle" x="1048" y="-455.5" font-family="Helvetica,sans-Serif" font-size="10.00">surf.h</text>
</a>
</g>
</g>
<!-- Node17&#45;&gt;Node22 -->
<g id="edge43" class="edge">
<title>Node17&#45;&gt;Node22</title>
<path fill="none" stroke="midnightblue" d="M746.77,-508.44C807.37,-498.49 951.24,-474.88 1015.74,-464.3"/>
<polygon fill="midnightblue" stroke="midnightblue" points="1016.44,-467.73 1025.74,-462.65 1015.31,-460.82 1016.44,-467.73"/>
</g>
<!-- Node24 -->
<g id="node24" class="node">
<title>Node24</title>
<g id="a_node24"><a xlink:href="game_8h.html" target="_top" xlink:title="Game state and level management.">
<polygon fill="white" stroke="black" points="769.5,-168.5 769.5,-187.5 822.5,-187.5 822.5,-168.5 769.5,-168.5"/>
<text text-anchor="middle" x="796" y="-175.5" font-family="Helvetica,sans-Serif" font-size="10.00">game.h</text>
</a>
</g>
</g>
<!-- Node17&#45;&gt;Node24 -->
<g id="edge48" class="edge">
<title>Node17&#45;&gt;Node24</title>
<path fill="none" stroke="midnightblue" d="M721.91,-504.44C724.91,-495.43 729.62,-480.82 733,-468 759.71,-366.84 783.81,-243.66 792.53,-197.57"/>
<polygon fill="midnightblue" stroke="midnightblue" points="796,-198.05 794.41,-187.58 789.13,-196.76 796,-198.05"/>
</g>
<!-- Node26 -->
<g id="node26" class="node">
<title>Node26</title>
<g id="a_node26"><a xlink:href="wipe_8h.html" target="_top" xlink:title=" ">
<polygon fill="white" stroke="black" points="605.5,-224.5 605.5,-243.5 654.5,-243.5 654.5,-224.5 605.5,-224.5"/>
<text text-anchor="middle" x="630" y="-231.5" font-family="Helvetica,sans-Serif" font-size="10.00">wipe.h</text>
</a>
</g>
</g>
<!-- Node17&#45;&gt;Node26 -->
<g id="edge55" class="edge">
<title>Node17&#45;&gt;Node26</title>
<path fill="none" stroke="midnightblue" d="M707.76,-504.36C687.06,-487.38 645,-447.42 645,-403 645,-403 645,-403 645,-345 645,-312.5 638.49,-275.1 634.05,-253.34"/>
<polygon fill="midnightblue" stroke="midnightblue" points="637.46,-252.56 631.96,-243.5 630.61,-254.01 637.46,-252.56"/>
</g>
<!-- Node28 -->
<g id="node28" class="node">
<title>Node28</title>
<g id="a_node28"><a xlink:href="bis_8h.html" target="_top" xlink:title="Binary Input Stream.">
<polygon fill="white" stroke="black" points="1110,-448.5 1110,-467.5 1150,-467.5 1150,-448.5 1110,-448.5"/>
<text text-anchor="middle" x="1130" y="-455.5" font-family="Helvetica,sans-Serif" font-size="10.00">bis.h</text>
</a>
</g>
</g>
<!-- Node17&#45;&gt;Node28 -->
<g id="edge60" class="edge">
<title>Node17&#45;&gt;Node28</title>
<path fill="none" stroke="midnightblue" d="M746.62,-510.03C807.02,-503.42 955.37,-486.62 1079,-468 1085.65,-467 1092.77,-465.81 1099.52,-464.64"/>
<polygon fill="midnightblue" stroke="midnightblue" points="1100.46,-468.03 1109.69,-462.83 1099.23,-461.13 1100.46,-468.03"/>
</g>
<!-- Node32 -->
<g id="node32" class="node">
<title>Node32</title>
<g id="a_node32"><a xlink:href="proxy_8h.html" target="_top" xlink:title=" ">
<polygon fill="white" stroke="black" points="375,-336.5 375,-355.5 427,-355.5 427,-336.5 375,-336.5"/>
<text text-anchor="middle" x="401" y="-343.5" font-family="Helvetica,sans-Serif" font-size="10.00">proxy.h</text>
</a>
</g>
</g>
<!-- Node17&#45;&gt;Node32 -->
<g id="edge71" class="edge">
<title>Node17&#45;&gt;Node32</title>
<path fill="none" stroke="midnightblue" d="M691.4,-511.87C650.75,-509.14 573.51,-499.82 517,-468 470.27,-441.69 430.71,-390.56 412.21,-363.98"/>
<polygon fill="midnightblue" stroke="midnightblue" points="415.09,-361.98 406.57,-355.68 409.3,-365.92 415.09,-361.98"/>
</g>
<!-- Node33 -->
<g id="node33" class="node">
<title>Node33</title>
<g id="a_node33"><a xlink:href="rs_8h.html" target="_top" xlink:title=" ">
<polygon fill="white" stroke="black" points="879.5,-168.5 879.5,-187.5 914.5,-187.5 914.5,-168.5 879.5,-168.5"/>
<text text-anchor="middle" x="897" y="-175.5" font-family="Helvetica,sans-Serif" font-size="10.00">rs.h</text>
</a>
</g>
</g>
<!-- Node17&#45;&gt;Node33 -->
<g id="edge74" class="edge">
<title>Node17&#45;&gt;Node33</title>
<path fill="none" stroke="midnightblue" d="M746.51,-509.83C773.44,-505.26 813.72,-494.24 837,-468 907.52,-388.52 903.16,-248.2 898.96,-197.73"/>
<polygon fill="midnightblue" stroke="midnightblue" points="902.44,-197.28 898.02,-187.65 895.47,-197.93 902.44,-197.28"/>
</g>
<!-- Node18&#45;&gt;Node2 -->
<g id="edge37" class="edge">
<title>Node18&#45;&gt;Node2</title>
<path fill="none" stroke="midnightblue" d="M927.27,-448.49C924.55,-439.52 920.56,-424.94 919,-412 917.94,-403.17 918.89,-400.89 919,-392 920.53,-267.07 995.01,-185.53 894,-112 862.23,-88.87 752.96,-76.05 690.58,-70.45"/>
<polygon fill="midnightblue" stroke="midnightblue" points="690.52,-66.93 680.25,-69.55 689.91,-73.91 690.52,-66.93"/>
</g>
<!-- Node19 -->
<g id="node19" class="node">
<title>Node19</title>
<g id="a_node19"><a xlink:href="mat_8h.html" target="_top" xlink:title="3x3 and 4x4 matrix types.">
<polygon fill="white" stroke="black" points="927.5,-392.5 927.5,-411.5 972.5,-411.5 972.5,-392.5 927.5,-392.5"/>
<text text-anchor="middle" x="950" y="-399.5" font-family="Helvetica,sans-Serif" font-size="10.00">mat.h</text>
</a>
</g>
</g>
<!-- Node18&#45;&gt;Node19 -->
<g id="edge38" class="edge">
<title>Node18&#45;&gt;Node19</title>
<path fill="none" stroke="midnightblue" d="M933.3,-448.08C935.98,-440.85 939.85,-430.41 943.19,-421.4"/>
<polygon fill="midnightblue" stroke="midnightblue" points="946.57,-422.34 946.76,-411.75 940,-419.91 946.57,-422.34"/>
</g>
<!-- Node20 -->
<g id="node20" class="node">
<title>Node20</title>
<g id="a_node20"><a xlink:href="vec_8h.html" target="_top" xlink:title="Vector math functions.">
<polygon fill="white" stroke="black" points="990.5,-392.5 990.5,-411.5 1033.5,-411.5 1033.5,-392.5 990.5,-392.5"/>
<text text-anchor="middle" x="1012" y="-399.5" font-family="Helvetica,sans-Serif" font-size="10.00">vec.h</text>
</a>
</g>
</g>
<!-- Node18&#45;&gt;Node20 -->
<g id="edge39" class="edge">
<title>Node18&#45;&gt;Node20</title>
<path fill="none" stroke="midnightblue" d="M943.17,-448.32C955.85,-439.98 975.23,-427.21 990.21,-417.35"/>
<polygon fill="midnightblue" stroke="midnightblue" points="992.43,-420.08 998.86,-411.65 988.58,-414.23 992.43,-420.08"/>
</g>
<!-- Node21 -->
<g id="node21" class="node">
<title>Node21</title>
<g id="a_node21"><a xlink:href="so_8h.html" target="_top" xlink:title="Scene objects.">
<polygon fill="white" stroke="black" points="785.5,-336.5 785.5,-355.5 822.5,-355.5 822.5,-336.5 785.5,-336.5"/>
<text text-anchor="middle" x="804" y="-343.5" font-family="Helvetica,sans-Serif" font-size="10.00">so.h</text>
</a>
</g>
</g>
<!-- Node20&#45;&gt;Node21 -->
<g id="edge40" class="edge">
<title>Node20&#45;&gt;Node21</title>
<path fill="none" stroke="midnightblue" d="M990.4,-394.4C987.58,-393.57 984.73,-392.75 982,-392 929.51,-377.5 867.82,-362.31 832.57,-353.81"/>
<polygon fill="midnightblue" stroke="midnightblue" points="833.06,-350.33 822.52,-351.4 831.43,-357.14 833.06,-350.33"/>
</g>
<!-- Node21&#45;&gt;Node6 -->
<g id="edge41" class="edge">
<title>Node21&#45;&gt;Node6</title>
<path fill="none" stroke="midnightblue" d="M785.46,-342.8C737.33,-336.99 604.55,-320.27 495,-300 491.95,-299.44 488.78,-298.8 485.61,-298.14"/>
<polygon fill="midnightblue" stroke="midnightblue" points="486.22,-294.69 475.7,-295.97 484.72,-301.53 486.22,-294.69"/>
</g>
<!-- Node22&#45;&gt;Node2 -->
<g id="edge44" class="edge">
<title>Node22&#45;&gt;Node2</title>
<path fill="none" stroke="midnightblue" d="M1049.83,-448.49C1053.63,-430.07 1062,-385.12 1062,-347 1062,-347 1062,-347 1062,-177 1062,-100.73 797.32,-76.15 690.2,-69.32"/>
<polygon fill="midnightblue" stroke="midnightblue" points="690.24,-65.82 680.04,-68.7 689.81,-72.8 690.24,-65.82"/>
</g>
<!-- Node22&#45;&gt;Node20 -->
<g id="edge45" class="edge">
<title>Node22&#45;&gt;Node20</title>
<path fill="none" stroke="midnightblue" d="M1042.06,-448.08C1037.02,-440.53 1029.66,-429.49 1023.49,-420.23"/>
<polygon fill="midnightblue" stroke="midnightblue" points="1026.29,-418.13 1017.83,-411.75 1020.47,-422.01 1026.29,-418.13"/>
</g>
<!-- Node23 -->
<g id="node23" class="node">
<title>Node23</title>
<g id="a_node23"><a xlink:href="geom_8h.html" target="_top" xlink:title="Geometry.">
<polygon fill="white" stroke="black" points="1090.5,-392.5 1090.5,-411.5 1143.5,-411.5 1143.5,-392.5 1090.5,-392.5"/>
<text text-anchor="middle" x="1117" y="-399.5" font-family="Helvetica,sans-Serif" font-size="10.00">geom.h</text>
</a>
</g>
</g>
<!-- Node22&#45;&gt;Node23 -->
<g id="edge46" class="edge">
<title>Node22&#45;&gt;Node23</title>
<path fill="none" stroke="midnightblue" d="M1059.09,-448.32C1069.49,-440.18 1085.26,-427.84 1097.72,-418.09"/>
<polygon fill="midnightblue" stroke="midnightblue" points="1099.99,-420.75 1105.71,-411.83 1095.68,-415.24 1099.99,-420.75"/>
</g>
<!-- Node23&#45;&gt;Node2 -->
<g id="edge47" class="edge">
<title>Node23&#45;&gt;Node2</title>
<path fill="none" stroke="midnightblue" d="M1115.17,-392.49C1111.37,-374.07 1103,-329.12 1103,-291 1103,-291 1103,-291 1103,-177 1103,-145.72 1101.08,-130.7 1076,-112 1045.53,-89.28 794.1,-74.34 690.43,-69.1"/>
<polygon fill="midnightblue" stroke="midnightblue" points="690.45,-65.59 680.29,-68.59 690.1,-72.58 690.45,-65.59"/>
</g>
<!-- Node24&#45;&gt;Node2 -->
<g id="edge49" class="edge">
<title>Node24&#45;&gt;Node2</title>
<path fill="none" stroke="midnightblue" d="M800.13,-168.42C805.95,-154.95 814.54,-128.66 802,-112 788.53,-94.09 731.6,-81.07 690.4,-73.77"/>
<polygon fill="midnightblue" stroke="midnightblue" points="690.75,-70.28 680.3,-72.04 689.56,-77.18 690.75,-70.28"/>
</g>
<!-- Node24&#45;&gt;Node8 -->
<g id="edge50" class="edge">
<title>Node24&#45;&gt;Node8</title>
<path fill="none" stroke="midnightblue" d="M782.83,-168.32C770.15,-159.98 750.77,-147.21 735.79,-137.35"/>
<polygon fill="midnightblue" stroke="midnightblue" points="737.42,-134.23 727.14,-131.65 733.57,-140.08 737.42,-134.23"/>
</g>
<!-- Node25 -->
<g id="node25" class="node">
<title>Node25</title>
<g id="a_node25"><a xlink:href="cid_8h.html" target="_top" xlink:title="Class ID.">
<polygon fill="white" stroke="black" points="753,-112.5 753,-131.5 793,-131.5 793,-112.5 753,-112.5"/>
<text text-anchor="middle" x="773" y="-119.5" font-family="Helvetica,sans-Serif" font-size="10.00">cid.h</text>
</a>
</g>
</g>
<!-- Node24&#45;&gt;Node25 -->
<g id="edge51" class="edge">
<title>Node24&#45;&gt;Node25</title>
<path fill="none" stroke="midnightblue" d="M792.2,-168.08C789.09,-160.77 784.58,-150.18 780.71,-141.1"/>
<polygon fill="midnightblue" stroke="midnightblue" points="783.87,-139.58 776.73,-131.75 777.43,-142.32 783.87,-139.58"/>
</g>
<!-- Node25&#45;&gt;Node2 -->
<g id="edge52" class="edge">
<title>Node25&#45;&gt;Node2</title>
<path fill="none" stroke="midnightblue" d="M752.88,-112.44C731.98,-103.56 699.07,-89.56 675.28,-79.45"/>
<polygon fill="midnightblue" stroke="midnightblue" points="676.6,-76.21 666.03,-75.52 673.86,-82.65 676.6,-76.21"/>
</g>
<!-- Node26&#45;&gt;Node2 -->
<g id="edge56" class="edge">
<title>Node26&#45;&gt;Node2</title>
<path fill="none" stroke="midnightblue" d="M619.84,-224.19C611.09,-215.87 599.1,-202.54 594,-188 591.06,-179.61 591.91,-176.64 594,-168 601.7,-136.21 621.25,-103.22 634.06,-83.92"/>
<polygon fill="midnightblue" stroke="midnightblue" points="636.99,-85.85 639.73,-75.62 631.2,-81.91 636.99,-85.85"/>
</g>
<!-- Node27 -->
<g id="node27" class="node">
<title>Node27</title>
<g id="a_node27"><a xlink:href="transition_8h.html" target="_top" xlink:title="Level transitions.">
<polygon fill="white" stroke="black" points="603,-168.5 603,-187.5 675,-187.5 675,-168.5 603,-168.5"/>
<text text-anchor="middle" x="639" y="-175.5" font-family="Helvetica,sans-Serif" font-size="10.00">transition.h</text>
</a>
</g>
</g>
<!-- Node26&#45;&gt;Node27 -->
<g id="edge57" class="edge">
<title>Node26&#45;&gt;Node27</title>
<path fill="none" stroke="midnightblue" d="M631.49,-224.08C632.68,-216.93 634.39,-206.64 635.88,-197.69"/>
<polygon fill="midnightblue" stroke="midnightblue" points="639.35,-198.19 637.54,-187.75 632.45,-197.04 639.35,-198.19"/>
</g>
<!-- Node27&#45;&gt;Node2 -->
<g id="edge58" class="edge">
<title>Node27&#45;&gt;Node2</title>
<path fill="none" stroke="midnightblue" d="M639.55,-168.37C640.68,-150.62 643.28,-109.67 644.82,-85.6"/>
<polygon fill="midnightblue" stroke="midnightblue" points="648.31,-85.79 645.45,-75.59 641.33,-85.35 648.31,-85.79"/>
</g>
<!-- Node27&#45;&gt;Node8 -->
<g id="edge59" class="edge">
<title>Node27&#45;&gt;Node8</title>
<path fill="none" stroke="midnightblue" d="M651.05,-168.32C662.46,-160.11 679.83,-147.6 693.43,-137.81"/>
<polygon fill="midnightblue" stroke="midnightblue" points="695.66,-140.52 701.73,-131.83 691.57,-134.84 695.66,-140.52"/>
</g>
<!-- Node28&#45;&gt;Node2 -->
<g id="edge61" class="edge">
<title>Node28&#45;&gt;Node2</title>
<path fill="none" stroke="midnightblue" d="M1136.1,-448.19C1141.75,-439.46 1149.76,-425.48 1153,-412 1155.08,-403.36 1153.25,-400.89 1153,-392 1151,-322.14 1144,-304.89 1144,-235 1144,-235 1144,-235 1144,-177 1144,-141.86 1129.28,-129.83 1099,-112 1030.51,-71.67 790.01,-66.94 690.07,-66.76"/>
<polygon fill="midnightblue" stroke="midnightblue" points="690,-63.26 680,-66.75 690,-70.26 690,-63.26"/>
</g>
<!-- Node28&#45;&gt;Node19 -->
<g id="edge67" class="edge">
<title>Node28&#45;&gt;Node19</title>
<path fill="none" stroke="midnightblue" d="M1109.7,-450.91C1078.77,-441.63 1019.55,-423.87 982.56,-412.77"/>
<polygon fill="midnightblue" stroke="midnightblue" points="983.35,-409.35 972.76,-409.83 981.34,-416.05 983.35,-409.35"/>
</g>
<!-- Node28&#45;&gt;Node20 -->
<g id="edge66" class="edge">
<title>Node28&#45;&gt;Node20</title>
<path fill="none" stroke="midnightblue" d="M1111.3,-448.44C1092.06,-439.64 1061.85,-425.81 1039.8,-415.72"/>
<polygon fill="midnightblue" stroke="midnightblue" points="1041.16,-412.5 1030.61,-411.52 1038.25,-418.86 1041.16,-412.5"/>
</g>
<!-- Node28&#45;&gt;Node23 -->
<g id="edge68" class="edge">
<title>Node28&#45;&gt;Node23</title>
<path fill="none" stroke="midnightblue" d="M1127.85,-448.08C1126.13,-440.93 1123.65,-430.64 1121.5,-421.69"/>
<polygon fill="midnightblue" stroke="midnightblue" points="1124.85,-420.65 1119.11,-411.75 1118.04,-422.29 1124.85,-420.65"/>
</g>
<!-- Node29 -->
<g id="node29" class="node">
<title>Node29</title>
<g id="a_node29"><a xlink:href="prog_8h.html" target="_top" xlink:title=" ">
<polygon fill="white" stroke="black" points="1172.5,-280.5 1172.5,-299.5 1219.5,-299.5 1219.5,-280.5 1172.5,-280.5"/>
<text text-anchor="middle" x="1196" y="-287.5" font-family="Helvetica,sans-Serif" font-size="10.00">prog.h</text>
</a>
</g>
</g>
<!-- Node28&#45;&gt;Node29 -->
<g id="edge62" class="edge">
<title>Node28&#45;&gt;Node29</title>
<path fill="none" stroke="midnightblue" d="M1146.87,-448.44C1159.98,-440.8 1177.34,-428.3 1186,-412 1203.32,-379.38 1201.62,-334.71 1198.81,-309.79"/>
<polygon fill="midnightblue" stroke="midnightblue" points="1202.24,-309.01 1197.47,-299.55 1195.3,-309.92 1202.24,-309.01"/>
</g>
<!-- Node30 -->
<g id="node30" class="node">
<title>Node30</title>
<g id="a_node30"><a xlink:href="clock_8h.html" target="_top" xlink:title="Engine clock.">
<polygon fill="white" stroke="black" points="1214.5,-224.5 1214.5,-243.5 1265.5,-243.5 1265.5,-224.5 1214.5,-224.5"/>
<text text-anchor="middle" x="1240" y="-231.5" font-family="Helvetica,sans-Serif" font-size="10.00">clock.h</text>
</a>
</g>
</g>
<!-- Node28&#45;&gt;Node30 -->
<g id="edge64" class="edge">
<title>Node28&#45;&gt;Node30</title>
<path fill="none" stroke="midnightblue" d="M1150.15,-449.71C1166.84,-442.63 1189.88,-430.25 1203,-412 1238.06,-363.22 1241.38,-288.46 1240.82,-253.82"/>
<polygon fill="midnightblue" stroke="midnightblue" points="1244.32,-253.6 1240.52,-243.71 1237.32,-253.81 1244.32,-253.6"/>
</g>
<!-- Node31 -->
<g id="node31" class="node">
<title>Node31</title>
<g id="a_node31"><a xlink:href="cat_8h.html" target="_top" xlink:title="Catalog.">
<polygon fill="white" stroke="black" points="1276.5,-336.5 1276.5,-355.5 1317.5,-355.5 1317.5,-336.5 1276.5,-336.5"/>
<text text-anchor="middle" x="1297" y="-343.5" font-family="Helvetica,sans-Serif" font-size="10.00">cat.h</text>
</a>
</g>
</g>
<!-- Node28&#45;&gt;Node31 -->
<g id="edge69" class="edge">
<title>Node28&#45;&gt;Node31</title>
<path fill="none" stroke="midnightblue" d="M1150.14,-454.77C1178.14,-450.73 1229.11,-439.85 1262,-412 1276.34,-399.85 1285.74,-380.3 1291.15,-365.81"/>
<polygon fill="midnightblue" stroke="midnightblue" points="1294.6,-366.51 1294.52,-355.92 1287.98,-364.25 1294.6,-366.51"/>
</g>
<!-- Node29&#45;&gt;Node2 -->
<g id="edge63" class="edge">
<title>Node29&#45;&gt;Node2</title>
<path fill="none" stroke="midnightblue" d="M1197.29,-280.28C1201.03,-251.17 1208.65,-156.73 1158,-112 1123.31,-81.36 808.51,-70.83 690.45,-67.93"/>
<polygon fill="midnightblue" stroke="midnightblue" points="690.39,-64.43 680.31,-67.69 690.23,-71.43 690.39,-64.43"/>
</g>
<!-- Node30&#45;&gt;Node2 -->
<g id="edge65" class="edge">
<title>Node30&#45;&gt;Node2</title>
<path fill="none" stroke="midnightblue" d="M1239.9,-224.49C1239.12,-201.88 1233.59,-140.13 1197,-112 1157.21,-81.41 814.64,-70.77 690.6,-67.9"/>
<polygon fill="midnightblue" stroke="midnightblue" points="690.4,-64.39 680.33,-67.66 690.25,-71.39 690.4,-64.39"/>
</g>
<!-- Node31&#45;&gt;Node2 -->
<g id="edge70" class="edge">
<title>Node31&#45;&gt;Node2</title>
<path fill="none" stroke="midnightblue" d="M1296.87,-336.44C1296.6,-317.94 1296,-272.81 1296,-235 1296,-235 1296,-235 1296,-177 1296,-132.55 1261.06,-129.02 1220,-112 1124.31,-72.34 807.37,-67.4 690.12,-66.96"/>
<polygon fill="midnightblue" stroke="midnightblue" points="690.07,-63.46 680.06,-66.93 690.05,-70.46 690.07,-63.46"/>
</g>
<!-- Node32&#45;&gt;Node2 -->
<g id="edge72" class="edge">
<title>Node32&#45;&gt;Node2</title>
<path fill="none" stroke="midnightblue" d="M381.97,-336.3C317.11,-305.55 113.02,-199.2 192,-112 219.2,-81.97 493.04,-71.19 601.81,-68.08"/>
<polygon fill="midnightblue" stroke="midnightblue" points="601.91,-71.58 611.81,-67.8 601.71,-64.58 601.91,-71.58"/>
</g>
<!-- Node32&#45;&gt;Node6 -->
<g id="edge73" class="edge">
<title>Node32&#45;&gt;Node6</title>
<path fill="none" stroke="midnightblue" d="M409.92,-336.08C417.78,-328.22 429.43,-316.57 438.92,-307.08"/>
<polygon fill="midnightblue" stroke="midnightblue" points="441.65,-309.3 446.25,-299.75 436.7,-304.35 441.65,-309.3"/>
</g>
<!-- Node33&#45;&gt;Node2 -->
<g id="edge75" class="edge">
<title>Node33&#45;&gt;Node2</title>
<path fill="none" stroke="midnightblue" d="M896.42,-168.34C894.98,-154.26 890.02,-126.52 873,-112 846.04,-89 748.45,-76.33 690.37,-70.67"/>
<polygon fill="midnightblue" stroke="midnightblue" points="690.64,-67.18 680.36,-69.73 689.98,-74.15 690.64,-67.18"/>
</g>
<!-- Node33&#45;&gt;Node8 -->
<g id="edge76" class="edge">
<title>Node33&#45;&gt;Node8</title>
<path fill="none" stroke="midnightblue" d="M879.09,-171.77C852.13,-163.88 799.28,-148.39 744.53,-132.15"/>
<polygon fill="midnightblue" stroke="midnightblue" points="745.24,-128.7 734.65,-129.21 743.24,-135.41 745.24,-128.7"/>
</g>
</g>
</svg>
