<?xml version="1.0" encoding="UTF-8" standalone="no"?>
<!DOCTYPE svg PUBLIC "-//W3C//DTD SVG 1.1//EN"
 "http://www.w3.org/Graphics/SVG/1.1/DTD/svg11.dtd">
<!-- Generated by graphviz version 2.43.0 (0)
 -->
<!-- Title: src/P2/coin.c Pages: 1 -->
<svg width="972pt" height="868pt"
 viewBox="0.00 0.00 971.79 868.00" xmlns="http://www.w3.org/2000/svg" xmlns:xlink="http://www.w3.org/1999/xlink">
<g id="graph0" class="graph" transform="scale(1 1) rotate(0) translate(4 864)">
<title>src/P2/coin.c</title>
<polygon fill="white" stroke="transparent" points="-4,4 -4,-864 967.79,-864 967.79,4 -4,4"/>
<!-- Node1 -->
<g id="node1" class="node">
<title>Node1</title>
<g id="a_node1"><a xlink:title=" ">
<polygon fill="#bfbfbf" stroke="black" points="419.54,-840.5 419.54,-859.5 496.54,-859.5 496.54,-840.5 419.54,-840.5"/>
<text text-anchor="middle" x="458.04" y="-847.5" font-family="Helvetica,sans-Serif" font-size="10.00">src/P2/coin.c</text>
</a>
</g>
</g>
<!-- Node2 -->
<g id="node2" class="node">
<title>Node2</title>
<g id="a_node2"><a xlink:href="coin_8h.html" target="_top" xlink:title="Coins, keys, and other collectibles.">
<polygon fill="white" stroke="black" points="161.04,-728.5 161.04,-747.5 207.04,-747.5 207.04,-728.5 161.04,-728.5"/>
<text text-anchor="middle" x="184.04" y="-735.5" font-family="Helvetica,sans-Serif" font-size="10.00">coin.h</text>
</a>
</g>
</g>
<!-- Node1&#45;&gt;Node2 -->
<g id="edge1" class="edge">
<title>Node1&#45;&gt;Node2</title>
<path fill="none" stroke="midnightblue" d="M436.54,-840.37C388.22,-820.97 270.9,-773.87 214.85,-751.37"/>
<polygon fill="midnightblue" stroke="midnightblue" points="216.03,-748.07 205.44,-747.59 213.42,-754.57 216.03,-748.07"/>
</g>
<!-- Node25 -->
<g id="node25" class="node">
<title>Node25</title>
<g id="a_node25"><a xlink:href="bis_8h.html" target="_top" xlink:title="Binary Input Stream.">
<polygon fill="white" stroke="black" points="721.04,-616.5 721.04,-635.5 761.04,-635.5 761.04,-616.5 721.04,-616.5"/>
<text text-anchor="middle" x="741.04" y="-623.5" font-family="Helvetica,sans-Serif" font-size="10.00">bis.h</text>
</a>
</g>
</g>
<!-- Node1&#45;&gt;Node25 -->
<g id="edge66" class="edge">
<title>Node1&#45;&gt;Node25</title>
<path fill="none" stroke="midnightblue" d="M469.73,-840.31C501.26,-816.83 590.55,-749.93 663.04,-692 683.96,-675.29 707.51,-655.53 723.21,-642.22"/>
<polygon fill="midnightblue" stroke="midnightblue" points="725.7,-644.69 731.06,-635.55 721.17,-639.36 725.7,-644.69"/>
</g>
<!-- Node37 -->
<g id="node37" class="node">
<title>Node37</title>
<g id="a_node37"><a xlink:href="chkpnt_8h.html" target="_top" xlink:title="Checkpoint system.">
<polygon fill="white" stroke="black" points="428.54,-784.5 428.54,-803.5 487.54,-803.5 487.54,-784.5 428.54,-784.5"/>
<text text-anchor="middle" x="458.04" y="-791.5" font-family="Helvetica,sans-Serif" font-size="10.00">chkpnt.h</text>
</a>
</g>
</g>
<!-- Node1&#45;&gt;Node37 -->
<g id="edge61" class="edge">
<title>Node1&#45;&gt;Node37</title>
<path fill="none" stroke="midnightblue" d="M458.04,-840.08C458.04,-833.01 458.04,-822.86 458.04,-813.99"/>
<polygon fill="midnightblue" stroke="midnightblue" points="461.54,-813.75 458.04,-803.75 454.54,-813.75 461.54,-813.75"/>
</g>
<!-- Node3 -->
<g id="node3" class="node">
<title>Node3</title>
<g id="a_node3"><a xlink:href="alo_8h.html" target="_top" xlink:title=" ">
<polygon fill="white" stroke="black" points="259.54,-168.5 259.54,-187.5 300.54,-187.5 300.54,-168.5 259.54,-168.5"/>
<text text-anchor="middle" x="280.04" y="-175.5" font-family="Helvetica,sans-Serif" font-size="10.00">alo.h</text>
</a>
</g>
</g>
<!-- Node2&#45;&gt;Node3 -->
<g id="edge2" class="edge">
<title>Node2&#45;&gt;Node3</title>
<path fill="none" stroke="midnightblue" d="M185.74,-728.48C189.27,-710.06 197.04,-665.08 197.04,-627 197.04,-627 197.04,-627 197.04,-289 197.04,-247.91 234.4,-212.44 258.99,-193.55"/>
<polygon fill="midnightblue" stroke="midnightblue" points="261.11,-196.33 267.07,-187.57 256.95,-190.7 261.11,-196.33"/>
</g>
<!-- Node5 -->
<g id="node5" class="node">
<title>Node5</title>
<g id="a_node5"><a xlink:href="oid_8h.html" target="_top" xlink:title="Object IDs.">
<polygon fill="white" stroke="black" points="457.54,-0.5 457.54,-19.5 498.54,-19.5 498.54,-0.5 457.54,-0.5"/>
<text text-anchor="middle" x="478.04" y="-7.5" font-family="Helvetica,sans-Serif" font-size="10.00">oid.h</text>
</a>
</g>
</g>
<!-- Node2&#45;&gt;Node5 -->
<g id="edge13" class="edge">
<title>Node2&#45;&gt;Node5</title>
<path fill="none" stroke="midnightblue" d="M160.87,-734.04C111.62,-726.32 1.04,-700.77 1.04,-627 1.04,-627 1.04,-627 1.04,-121 1.04,-90.9 -3.13,-75.21 20.04,-56 52.91,-28.75 350.16,-15.64 447.4,-12.05"/>
<polygon fill="midnightblue" stroke="midnightblue" points="447.61,-15.54 457.47,-11.68 447.35,-8.55 447.61,-15.54"/>
</g>
<!-- Node12 -->
<g id="node12" class="node">
<title>Node12</title>
<g id="a_node12"><a xlink:href="sm_8h.html" target="_top" xlink:title="State machines.">
<polygon fill="white" stroke="black" points="127.54,-560.5 127.54,-579.5 168.54,-579.5 168.54,-560.5 127.54,-560.5"/>
<text text-anchor="middle" x="148.04" y="-567.5" font-family="Helvetica,sans-Serif" font-size="10.00">sm.h</text>
</a>
</g>
</g>
<!-- Node2&#45;&gt;Node12 -->
<g id="edge14" class="edge">
<title>Node2&#45;&gt;Node12</title>
<path fill="none" stroke="midnightblue" d="M182.11,-728.08C176.44,-701.95 159.8,-625.21 152.07,-589.58"/>
<polygon fill="midnightblue" stroke="midnightblue" points="155.44,-588.6 149.9,-579.57 148.6,-590.08 155.44,-588.6"/>
</g>
<!-- Node14 -->
<g id="node14" class="node">
<title>Node14</title>
<g id="a_node14"><a xlink:href="xform_8h.html" target="_top" xlink:title="Transform.">
<polygon fill="white" stroke="black" points="430.54,-672.5 430.54,-691.5 485.54,-691.5 485.54,-672.5 430.54,-672.5"/>
<text text-anchor="middle" x="458.04" y="-679.5" font-family="Helvetica,sans-Serif" font-size="10.00">xform.h</text>
</a>
</g>
</g>
<!-- Node2&#45;&gt;Node14 -->
<g id="edge19" class="edge">
<title>Node2&#45;&gt;Node14</title>
<path fill="none" stroke="midnightblue" d="M207.4,-732.4C254.8,-723.06 362.62,-701.81 420.18,-690.46"/>
<polygon fill="midnightblue" stroke="midnightblue" points="421.18,-693.83 430.31,-688.46 419.83,-686.96 421.18,-693.83"/>
</g>
<!-- Node4 -->
<g id="node4" class="node">
<title>Node4</title>
<g id="a_node4"><a xlink:href="lo_8h.html" target="_top" xlink:title="Level objects.">
<polygon fill="white" stroke="black" points="96.54,-112.5 96.54,-131.5 131.54,-131.5 131.54,-112.5 96.54,-112.5"/>
<text text-anchor="middle" x="114.04" y="-119.5" font-family="Helvetica,sans-Serif" font-size="10.00">lo.h</text>
</a>
</g>
</g>
<!-- Node3&#45;&gt;Node4 -->
<g id="edge3" class="edge">
<title>Node3&#45;&gt;Node4</title>
<path fill="none" stroke="midnightblue" d="M259.35,-170.27C229.58,-160.58 174.6,-142.7 141.47,-131.92"/>
<polygon fill="midnightblue" stroke="midnightblue" points="142.53,-128.59 131.94,-128.82 140.37,-135.24 142.53,-128.59"/>
</g>
<!-- Node8 -->
<g id="node8" class="node">
<title>Node8</title>
<g id="a_node8"><a xlink:href="dl_8h.html" target="_top" xlink:title="Doubly&#45;linked list.">
<polygon fill="white" stroke="black" points="356.54,-56.5 356.54,-75.5 391.54,-75.5 391.54,-56.5 356.54,-56.5"/>
<text text-anchor="middle" x="374.04" y="-63.5" font-family="Helvetica,sans-Serif" font-size="10.00">dl.h</text>
</a>
</g>
</g>
<!-- Node3&#45;&gt;Node8 -->
<g id="edge12" class="edge">
<title>Node3&#45;&gt;Node8</title>
<path fill="none" stroke="midnightblue" d="M287.42,-168.37C303.07,-150.05 339.82,-107.05 360.06,-83.36"/>
<polygon fill="midnightblue" stroke="midnightblue" points="362.87,-85.47 366.7,-75.59 357.54,-80.92 362.87,-85.47"/>
</g>
<!-- Node4&#45;&gt;Node5 -->
<g id="edge4" class="edge">
<title>Node4&#45;&gt;Node5</title>
<path fill="none" stroke="midnightblue" d="M131.6,-115.87C136.28,-114.55 141.34,-113.18 146.04,-112 218,-93.95 239.24,-101.13 309.04,-76 327.37,-69.4 330.13,-63.65 348.04,-56 381.4,-41.76 420.92,-28.58 447.56,-20.21"/>
<polygon fill="midnightblue" stroke="midnightblue" points="448.93,-23.45 457.44,-17.15 446.85,-16.77 448.93,-23.45"/>
</g>
<!-- Node6 -->
<g id="node6" class="node">
<title>Node6</title>
<g id="a_node6"><a xlink:href="basic_8h.html" target="_top" xlink:title="Basic object.">
<polygon fill="white" stroke="black" points="88.54,-56.5 88.54,-75.5 139.54,-75.5 139.54,-56.5 88.54,-56.5"/>
<text text-anchor="middle" x="114.04" y="-63.5" font-family="Helvetica,sans-Serif" font-size="10.00">basic.h</text>
</a>
</g>
</g>
<!-- Node4&#45;&gt;Node6 -->
<g id="edge5" class="edge">
<title>Node4&#45;&gt;Node6</title>
<path fill="none" stroke="midnightblue" d="M114.04,-112.08C114.04,-105.01 114.04,-94.86 114.04,-85.99"/>
<polygon fill="midnightblue" stroke="midnightblue" points="117.54,-85.75 114.04,-75.75 110.54,-85.75 117.54,-85.75"/>
</g>
<!-- Node4&#45;&gt;Node8 -->
<g id="edge7" class="edge">
<title>Node4&#45;&gt;Node8</title>
<path fill="none" stroke="midnightblue" d="M131.57,-115.75C136.25,-114.44 141.32,-113.1 146.04,-112 232.32,-91.99 255.76,-96.01 342.04,-76 343.52,-75.66 345.03,-75.29 346.55,-74.91"/>
<polygon fill="midnightblue" stroke="midnightblue" points="347.76,-78.21 356.51,-72.25 345.95,-71.45 347.76,-78.21"/>
</g>
<!-- Node9 -->
<g id="node9" class="node">
<title>Node9</title>
<g id="a_node9"><a xlink:href="sw_8h.html" target="_top" xlink:title="Scene world?">
<polygon fill="white" stroke="black" points="158.04,-56.5 158.04,-75.5 196.04,-75.5 196.04,-56.5 158.04,-56.5"/>
<text text-anchor="middle" x="177.04" y="-63.5" font-family="Helvetica,sans-Serif" font-size="10.00">sw.h</text>
</a>
</g>
</g>
<!-- Node4&#45;&gt;Node9 -->
<g id="edge9" class="edge">
<title>Node4&#45;&gt;Node9</title>
<path fill="none" stroke="midnightblue" d="M124.16,-112.32C133.57,-104.26 147.79,-92.08 159.11,-82.37"/>
<polygon fill="midnightblue" stroke="midnightblue" points="161.42,-85 166.74,-75.83 156.87,-79.68 161.42,-85"/>
</g>
<!-- Node10 -->
<g id="node10" class="node">
<title>Node10</title>
<g id="a_node10"><a xlink:href="frame_8h.html" target="_top" xlink:title=" ">
<polygon fill="white" stroke="black" points="214.04,-56.5 214.04,-75.5 300.04,-75.5 300.04,-56.5 214.04,-56.5"/>
<text text-anchor="middle" x="257.04" y="-63.5" font-family="Helvetica,sans-Serif" font-size="10.00">splice/frame.h</text>
</a>
</g>
</g>
<!-- Node4&#45;&gt;Node10 -->
<g id="edge10" class="edge">
<title>Node4&#45;&gt;Node10</title>
<path fill="none" stroke="midnightblue" d="M131.58,-114.38C154.66,-105.66 195.68,-90.17 224.52,-79.28"/>
<polygon fill="midnightblue" stroke="midnightblue" points="226.05,-82.45 234.17,-75.64 223.57,-75.9 226.05,-82.45"/>
</g>
<!-- Node11 -->
<g id="node11" class="node">
<title>Node11</title>
<g id="a_node11"><a xlink:href="mq_8h.html" target="_top" xlink:title="Message queue.">
<polygon fill="white" stroke="black" points="29.54,-56.5 29.54,-75.5 70.54,-75.5 70.54,-56.5 29.54,-56.5"/>
<text text-anchor="middle" x="50.04" y="-63.5" font-family="Helvetica,sans-Serif" font-size="10.00">mq.h</text>
</a>
</g>
</g>
<!-- Node4&#45;&gt;Node11 -->
<g id="edge11" class="edge">
<title>Node4&#45;&gt;Node11</title>
<path fill="none" stroke="midnightblue" d="M103.76,-112.32C94.21,-104.26 79.76,-92.08 68.26,-82.37"/>
<polygon fill="midnightblue" stroke="midnightblue" points="70.41,-79.61 60.51,-75.83 65.9,-84.96 70.41,-79.61"/>
</g>
<!-- Node7 -->
<g id="node7" class="node">
<title>Node7</title>
<g id="a_node7"><a xlink:href="sidebag_8h.html" target="_top" xlink:title="Sidebag for splice.">
<polygon fill="white" stroke="black" points="66.54,-0.5 66.54,-19.5 161.54,-19.5 161.54,-0.5 66.54,-0.5"/>
<text text-anchor="middle" x="114.04" y="-7.5" font-family="Helvetica,sans-Serif" font-size="10.00">splice/sidebag.h</text>
</a>
</g>
</g>
<!-- Node6&#45;&gt;Node7 -->
<g id="edge6" class="edge">
<title>Node6&#45;&gt;Node7</title>
<path fill="none" stroke="midnightblue" d="M114.04,-56.08C114.04,-49.01 114.04,-38.86 114.04,-29.99"/>
<polygon fill="midnightblue" stroke="midnightblue" points="117.54,-29.75 114.04,-19.75 110.54,-29.75 117.54,-29.75"/>
</g>
<!-- Node8&#45;&gt;Node5 -->
<g id="edge8" class="edge">
<title>Node8&#45;&gt;Node5</title>
<path fill="none" stroke="midnightblue" d="M390.75,-56.32C407.35,-47.7 433.04,-34.36 452.26,-24.39"/>
<polygon fill="midnightblue" stroke="midnightblue" points="454.11,-27.37 461.37,-19.65 450.89,-21.16 454.11,-27.37"/>
</g>
<!-- Node12&#45;&gt;Node8 -->
<g id="edge15" class="edge">
<title>Node12&#45;&gt;Node8</title>
<path fill="none" stroke="midnightblue" d="M149.48,-560.47C152.46,-542.02 159.04,-497 159.04,-459 159.04,-459 159.04,-459 159.04,-289 159.04,-181.98 289.56,-106.96 347.21,-79.04"/>
<polygon fill="midnightblue" stroke="midnightblue" points="348.91,-82.11 356.45,-74.67 345.91,-75.79 348.91,-82.11"/>
</g>
<!-- Node12&#45;&gt;Node11 -->
<g id="edge18" class="edge">
<title>Node12&#45;&gt;Node11</title>
<path fill="none" stroke="midnightblue" d="M144.4,-560.34C137.03,-542 121.04,-497.74 121.04,-459 121.04,-459 121.04,-459 121.04,-345 121.04,-244.22 76.7,-129.1 58.1,-85.25"/>
<polygon fill="midnightblue" stroke="midnightblue" points="61.24,-83.7 54.06,-75.91 54.82,-86.47 61.24,-83.7"/>
</g>
<!-- Node13 -->
<g id="node13" class="node">
<title>Node13</title>
<g id="a_node13"><a xlink:href="anim_8h.html" target="_top" xlink:title="Animation.">
<polygon fill="white" stroke="black" points="43.04,-504.5 43.04,-523.5 93.04,-523.5 93.04,-504.5 43.04,-504.5"/>
<text text-anchor="middle" x="68.04" y="-511.5" font-family="Helvetica,sans-Serif" font-size="10.00">anim.h</text>
</a>
</g>
</g>
<!-- Node12&#45;&gt;Node13 -->
<g id="edge16" class="edge">
<title>Node12&#45;&gt;Node13</title>
<path fill="none" stroke="midnightblue" d="M135.19,-560.32C122.83,-551.98 103.91,-539.21 89.31,-529.35"/>
<polygon fill="midnightblue" stroke="midnightblue" points="91.11,-526.35 80.86,-523.65 87.19,-532.15 91.11,-526.35"/>
</g>
<!-- Node13&#45;&gt;Node4 -->
<g id="edge17" class="edge">
<title>Node13&#45;&gt;Node4</title>
<path fill="none" stroke="midnightblue" d="M70,-504.5C74.07,-486.09 83.04,-441.16 83.04,-403 83.04,-403 83.04,-403 83.04,-345 83.04,-269.18 101,-180.17 109.58,-141.97"/>
<polygon fill="midnightblue" stroke="midnightblue" points="113.09,-142.35 111.91,-131.82 106.26,-140.78 113.09,-142.35"/>
</g>
<!-- Node14&#45;&gt;Node3 -->
<g id="edge20" class="edge">
<title>Node14&#45;&gt;Node3</title>
<path fill="none" stroke="midnightblue" d="M430.21,-675.48C408,-669.57 377.91,-657.92 361.04,-636 354.14,-627.03 296.97,-281.81 283.07,-197.45"/>
<polygon fill="midnightblue" stroke="midnightblue" points="286.52,-196.83 281.44,-187.53 279.61,-197.97 286.52,-196.83"/>
</g>
<!-- Node14&#45;&gt;Node5 -->
<g id="edge34" class="edge">
<title>Node14&#45;&gt;Node5</title>
<path fill="none" stroke="midnightblue" d="M485.55,-676.76C532.59,-667.94 627.89,-642.92 674.04,-580 735.83,-495.76 705.04,-451.47 705.04,-347 705.04,-347 705.04,-347 705.04,-121 705.04,-34.86 571.04,-16.15 508.95,-12.11"/>
<polygon fill="midnightblue" stroke="midnightblue" points="508.77,-8.59 498.59,-11.53 508.38,-15.58 508.77,-8.59"/>
</g>
<!-- Node14&#45;&gt;Node8 -->
<g id="edge27" class="edge">
<title>Node14&#45;&gt;Node8</title>
<path fill="none" stroke="midnightblue" d="M456.86,-672.32C447.8,-606.14 389.68,-181.27 376.64,-85.96"/>
<polygon fill="midnightblue" stroke="midnightblue" points="380.07,-85.23 375.25,-75.8 373.13,-86.18 380.07,-85.23"/>
</g>
<!-- Node14&#45;&gt;Node13 -->
<g id="edge35" class="edge">
<title>Node14&#45;&gt;Node13</title>
<path fill="none" stroke="midnightblue" d="M430.26,-678.87C368.59,-672.94 217.88,-651.59 118.04,-580 100.75,-567.6 86.6,-547.51 77.82,-532.95"/>
<polygon fill="midnightblue" stroke="midnightblue" points="80.65,-530.84 72.63,-523.91 74.58,-534.32 80.65,-530.84"/>
</g>
<!-- Node15 -->
<g id="node15" class="node">
<title>Node15</title>
<g id="a_node15"><a xlink:href="util_8h.html" target="_top" xlink:title="Utility functions.">
<polygon fill="white" stroke="black" points="369.54,-616.5 369.54,-635.5 410.54,-635.5 410.54,-616.5 369.54,-616.5"/>
<text text-anchor="middle" x="390.04" y="-623.5" font-family="Helvetica,sans-Serif" font-size="10.00">util.h</text>
</a>
</g>
</g>
<!-- Node14&#45;&gt;Node15 -->
<g id="edge21" class="edge">
<title>Node14&#45;&gt;Node15</title>
<path fill="none" stroke="midnightblue" d="M447.12,-672.32C436.87,-664.18 421.32,-651.84 409.04,-642.09"/>
<polygon fill="midnightblue" stroke="midnightblue" points="411.17,-639.31 401.17,-635.83 406.82,-644.79 411.17,-639.31"/>
</g>
<!-- Node19 -->
<g id="node19" class="node">
<title>Node19</title>
<g id="a_node19"><a xlink:href="surf_8h.html" target="_top" xlink:title="Surfaces?">
<polygon fill="white" stroke="black" points="733.04,-336.5 733.04,-355.5 777.04,-355.5 777.04,-336.5 733.04,-336.5"/>
<text text-anchor="middle" x="755.04" y="-343.5" font-family="Helvetica,sans-Serif" font-size="10.00">surf.h</text>
</a>
</g>
</g>
<!-- Node14&#45;&gt;Node19 -->
<g id="edge28" class="edge">
<title>Node14&#45;&gt;Node19</title>
<path fill="none" stroke="midnightblue" d="M479.29,-672.46C495.16,-665.04 516.23,-652.84 529.04,-636 597.64,-545.8 522.65,-471.86 603.04,-392 635.02,-360.23 688.29,-350.7 722.53,-347.94"/>
<polygon fill="midnightblue" stroke="midnightblue" points="723.17,-351.41 732.92,-347.27 722.71,-344.43 723.17,-351.41"/>
</g>
<!-- Node21 -->
<g id="node21" class="node">
<title>Node21</title>
<g id="a_node21"><a xlink:href="game_8h.html" target="_top" xlink:title="Game state and level management.">
<polygon fill="white" stroke="black" points="611.54,-392.5 611.54,-411.5 664.54,-411.5 664.54,-392.5 611.54,-392.5"/>
<text text-anchor="middle" x="638.04" y="-399.5" font-family="Helvetica,sans-Serif" font-size="10.00">game.h</text>
</a>
</g>
</g>
<!-- Node14&#45;&gt;Node21 -->
<g id="edge31" class="edge">
<title>Node14&#45;&gt;Node21</title>
<path fill="none" stroke="midnightblue" d="M477.67,-672.39C493.27,-664.72 514.77,-652.21 529.04,-636 588.36,-568.61 621.73,-463.37 633.33,-421.29"/>
<polygon fill="midnightblue" stroke="midnightblue" points="636.72,-422.16 635.92,-411.59 629.96,-420.35 636.72,-422.16"/>
</g>
<!-- Node23 -->
<g id="node23" class="node">
<title>Node23</title>
<g id="a_node23"><a xlink:href="wipe_8h.html" target="_top" xlink:title="Screen wipes.">
<polygon fill="white" stroke="black" points="470.54,-112.5 470.54,-131.5 519.54,-131.5 519.54,-112.5 470.54,-112.5"/>
<text text-anchor="middle" x="495.04" y="-119.5" font-family="Helvetica,sans-Serif" font-size="10.00">wipe.h</text>
</a>
</g>
</g>
<!-- Node14&#45;&gt;Node23 -->
<g id="edge36" class="edge">
<title>Node14&#45;&gt;Node23</title>
<path fill="none" stroke="midnightblue" d="M459.73,-672.27C466.97,-633.98 495.04,-477.1 495.04,-347 495.04,-347 495.04,-347 495.04,-233 495.04,-200.95 495.04,-163.64 495.04,-141.75"/>
<polygon fill="midnightblue" stroke="midnightblue" points="498.54,-141.56 495.04,-131.56 491.54,-141.56 498.54,-141.56"/>
</g>
<!-- Node14&#45;&gt;Node25 -->
<g id="edge40" class="edge">
<title>Node14&#45;&gt;Node25</title>
<path fill="none" stroke="midnightblue" d="M485.82,-676.72C531.98,-669.45 627.28,-653.73 707.04,-636 708.32,-635.72 709.62,-635.42 710.92,-635.11"/>
<polygon fill="midnightblue" stroke="midnightblue" points="712.12,-638.42 720.97,-632.6 710.42,-631.63 712.12,-638.42"/>
</g>
<!-- Node35 -->
<g id="node35" class="node">
<title>Node35</title>
<g id="a_node35"><a xlink:href="proxy_8h.html" target="_top" xlink:title=" ">
<polygon fill="white" stroke="black" points="263.04,-448.5 263.04,-467.5 315.04,-467.5 315.04,-448.5 263.04,-448.5"/>
<text text-anchor="middle" x="289.04" y="-455.5" font-family="Helvetica,sans-Serif" font-size="10.00">proxy.h</text>
</a>
</g>
</g>
<!-- Node14&#45;&gt;Node35 -->
<g id="edge57" class="edge">
<title>Node14&#45;&gt;Node35</title>
<path fill="none" stroke="midnightblue" d="M430.41,-679.27C400.47,-675.86 353.46,-665.77 327.04,-636 286.94,-590.8 285.64,-513.65 287.48,-478.04"/>
<polygon fill="midnightblue" stroke="midnightblue" points="291,-477.88 288.17,-467.67 284.01,-477.41 291,-477.88"/>
</g>
<!-- Node36 -->
<g id="node36" class="node">
<title>Node36</title>
<g id="a_node36"><a xlink:href="rs_8h.html" target="_top" xlink:title=" ">
<polygon fill="white" stroke="black" points="527.54,-224.5 527.54,-243.5 562.54,-243.5 562.54,-224.5 527.54,-224.5"/>
<text text-anchor="middle" x="545.04" y="-231.5" font-family="Helvetica,sans-Serif" font-size="10.00">rs.h</text>
</a>
</g>
</g>
<!-- Node14&#45;&gt;Node36 -->
<g id="edge59" class="edge">
<title>Node14&#45;&gt;Node36</title>
<path fill="none" stroke="midnightblue" d="M466.19,-672.45C473.85,-663.91 485,-650.07 491.04,-636 532.56,-539.31 533.04,-508.22 533.04,-403 533.04,-403 533.04,-403 533.04,-345 533.04,-312.76 538.2,-275.51 541.75,-253.68"/>
<polygon fill="midnightblue" stroke="midnightblue" points="545.25,-253.97 543.47,-243.52 538.35,-252.8 545.25,-253.97"/>
</g>
<!-- Node15&#45;&gt;Node12 -->
<g id="edge26" class="edge">
<title>Node15&#45;&gt;Node12</title>
<path fill="none" stroke="midnightblue" d="M369.41,-620.4C326.73,-610.87 228.54,-588.96 178.53,-577.8"/>
<polygon fill="midnightblue" stroke="midnightblue" points="179.15,-574.35 168.62,-575.59 177.62,-581.19 179.15,-574.35"/>
</g>
<!-- Node16 -->
<g id="node16" class="node">
<title>Node16</title>
<g id="a_node16"><a xlink:href="mat_8h.html" target="_top" xlink:title="3x3 and 4x4 matrix types.">
<polygon fill="white" stroke="black" points="619.54,-560.5 619.54,-579.5 664.54,-579.5 664.54,-560.5 619.54,-560.5"/>
<text text-anchor="middle" x="642.04" y="-567.5" font-family="Helvetica,sans-Serif" font-size="10.00">mat.h</text>
</a>
</g>
</g>
<!-- Node15&#45;&gt;Node16 -->
<g id="edge22" class="edge">
<title>Node15&#45;&gt;Node16</title>
<path fill="none" stroke="midnightblue" d="M410.66,-620.58C454.42,-611.21 556.82,-589.26 609.49,-577.98"/>
<polygon fill="midnightblue" stroke="midnightblue" points="610.29,-581.38 619.33,-575.87 608.82,-574.54 610.29,-581.38"/>
</g>
<!-- Node17 -->
<g id="node17" class="node">
<title>Node17</title>
<g id="a_node17"><a xlink:href="vec_8h.html" target="_top" xlink:title="Vector math.">
<polygon fill="white" stroke="black" points="419.54,-280.5 419.54,-299.5 462.54,-299.5 462.54,-280.5 419.54,-280.5"/>
<text text-anchor="middle" x="441.04" y="-287.5" font-family="Helvetica,sans-Serif" font-size="10.00">vec.h</text>
</a>
</g>
</g>
<!-- Node15&#45;&gt;Node17 -->
<g id="edge23" class="edge">
<title>Node15&#45;&gt;Node17</title>
<path fill="none" stroke="midnightblue" d="M388.87,-616.46C386.43,-597.99 381.04,-552.94 381.04,-515 381.04,-515 381.04,-515 381.04,-457 381.04,-399.73 413.02,-337.62 430.28,-308.25"/>
<polygon fill="midnightblue" stroke="midnightblue" points="433.33,-309.97 435.51,-299.6 427.34,-306.35 433.33,-309.97"/>
</g>
<!-- Node18 -->
<g id="node18" class="node">
<title>Node18</title>
<g id="a_node18"><a xlink:href="so_8h.html" target="_top" xlink:title="Scene objects.">
<polygon fill="white" stroke="black" points="327.54,-224.5 327.54,-243.5 364.54,-243.5 364.54,-224.5 327.54,-224.5"/>
<text text-anchor="middle" x="346.04" y="-231.5" font-family="Helvetica,sans-Serif" font-size="10.00">so.h</text>
</a>
</g>
</g>
<!-- Node17&#45;&gt;Node18 -->
<g id="edge24" class="edge">
<title>Node17&#45;&gt;Node18</title>
<path fill="none" stroke="midnightblue" d="M425.78,-280.32C410.82,-271.82 387.79,-258.73 370.32,-248.8"/>
<polygon fill="midnightblue" stroke="midnightblue" points="371.69,-245.55 361.27,-243.65 368.23,-251.64 371.69,-245.55"/>
</g>
<!-- Node18&#45;&gt;Node3 -->
<g id="edge25" class="edge">
<title>Node18&#45;&gt;Node3</title>
<path fill="none" stroke="midnightblue" d="M335.44,-224.32C325.59,-216.26 310.69,-204.08 298.83,-194.37"/>
<polygon fill="midnightblue" stroke="midnightblue" points="300.8,-191.46 290.84,-187.83 296.36,-196.88 300.8,-191.46"/>
</g>
<!-- Node19&#45;&gt;Node17 -->
<g id="edge29" class="edge">
<title>Node19&#45;&gt;Node17</title>
<path fill="none" stroke="midnightblue" d="M732.96,-341.2C678.33,-331.81 536.66,-307.44 472.93,-296.48"/>
<polygon fill="midnightblue" stroke="midnightblue" points="473.13,-292.97 462.68,-294.72 471.94,-299.87 473.13,-292.97"/>
</g>
<!-- Node20 -->
<g id="node20" class="node">
<title>Node20</title>
<g id="a_node20"><a xlink:href="geom_8h.html" target="_top" xlink:title="Geometry.">
<polygon fill="white" stroke="black" points="898.54,-280.5 898.54,-299.5 951.54,-299.5 951.54,-280.5 898.54,-280.5"/>
<text text-anchor="middle" x="925.04" y="-287.5" font-family="Helvetica,sans-Serif" font-size="10.00">geom.h</text>
</a>
</g>
</g>
<!-- Node19&#45;&gt;Node20 -->
<g id="edge30" class="edge">
<title>Node19&#45;&gt;Node20</title>
<path fill="none" stroke="midnightblue" d="M777.27,-337.94C805.49,-328.98 854.57,-313.39 888.37,-302.65"/>
<polygon fill="midnightblue" stroke="midnightblue" points="889.86,-305.85 898.33,-299.48 887.74,-299.18 889.86,-305.85"/>
</g>
<!-- Node21&#45;&gt;Node5 -->
<g id="edge32" class="edge">
<title>Node21&#45;&gt;Node5</title>
<path fill="none" stroke="midnightblue" d="M636.87,-392.46C634.43,-373.99 629.04,-328.94 629.04,-291 629.04,-291 629.04,-291 629.04,-121 629.04,-61.87 552.47,-31.18 508.38,-18.4"/>
<polygon fill="midnightblue" stroke="midnightblue" points="509.29,-15.02 498.72,-15.74 507.43,-21.77 509.29,-15.02"/>
</g>
<!-- Node22 -->
<g id="node22" class="node">
<title>Node22</title>
<g id="a_node22"><a xlink:href="cid_8h.html" target="_top" xlink:title="Class IDs.">
<polygon fill="white" stroke="black" points="561.04,-336.5 561.04,-355.5 601.04,-355.5 601.04,-336.5 561.04,-336.5"/>
<text text-anchor="middle" x="581.04" y="-343.5" font-family="Helvetica,sans-Serif" font-size="10.00">cid.h</text>
</a>
</g>
</g>
<!-- Node21&#45;&gt;Node22 -->
<g id="edge33" class="edge">
<title>Node21&#45;&gt;Node22</title>
<path fill="none" stroke="midnightblue" d="M628.88,-392.32C620.54,-384.42 608.01,-372.55 597.87,-362.94"/>
<polygon fill="midnightblue" stroke="midnightblue" points="600.03,-360.17 590.37,-355.83 595.22,-365.25 600.03,-360.17"/>
</g>
<!-- Node23&#45;&gt;Node5 -->
<g id="edge39" class="edge">
<title>Node23&#45;&gt;Node5</title>
<path fill="none" stroke="midnightblue" d="M495.11,-112.1C495.07,-99.51 494.47,-75.83 491.04,-56 489.5,-47.09 486.84,-37.42 484.33,-29.34"/>
<polygon fill="midnightblue" stroke="midnightblue" points="487.66,-28.25 481.22,-19.83 481,-30.42 487.66,-28.25"/>
</g>
<!-- Node24 -->
<g id="node24" class="node">
<title>Node24</title>
<g id="a_node24"><a xlink:href="transition_8h.html" target="_top" xlink:title="Level transitions.">
<polygon fill="white" stroke="black" points="410.04,-56.5 410.04,-75.5 482.04,-75.5 482.04,-56.5 410.04,-56.5"/>
<text text-anchor="middle" x="446.04" y="-63.5" font-family="Helvetica,sans-Serif" font-size="10.00">transition.h</text>
</a>
</g>
</g>
<!-- Node23&#45;&gt;Node24 -->
<g id="edge37" class="edge">
<title>Node23&#45;&gt;Node24</title>
<path fill="none" stroke="midnightblue" d="M486.95,-112.08C479.89,-104.3 469.46,-92.8 460.89,-83.37"/>
<polygon fill="midnightblue" stroke="midnightblue" points="463.3,-80.8 453.98,-75.75 458.11,-85.51 463.3,-80.8"/>
</g>
<!-- Node24&#45;&gt;Node5 -->
<g id="edge38" class="edge">
<title>Node24&#45;&gt;Node5</title>
<path fill="none" stroke="midnightblue" d="M451.33,-56.08C455.75,-48.61 462.21,-37.72 467.66,-28.52"/>
<polygon fill="midnightblue" stroke="midnightblue" points="470.77,-30.14 472.86,-19.75 464.75,-26.57 470.77,-30.14"/>
</g>
<!-- Node25&#45;&gt;Node16 -->
<g id="edge54" class="edge">
<title>Node25&#45;&gt;Node16</title>
<path fill="none" stroke="midnightblue" d="M725.14,-616.32C709.4,-607.74 685.1,-594.49 666.83,-584.52"/>
<polygon fill="midnightblue" stroke="midnightblue" points="668.36,-581.37 657.91,-579.65 665.01,-587.52 668.36,-581.37"/>
</g>
<!-- Node25&#45;&gt;Node17 -->
<g id="edge53" class="edge">
<title>Node25&#45;&gt;Node17</title>
<path fill="none" stroke="midnightblue" d="M733.33,-616.41C693.29,-571.84 509.05,-366.72 455.61,-307.22"/>
<polygon fill="midnightblue" stroke="midnightblue" points="458,-304.64 448.71,-299.54 452.79,-309.31 458,-304.64"/>
</g>
<!-- Node25&#45;&gt;Node20 -->
<g id="edge55" class="edge">
<title>Node25&#45;&gt;Node20</title>
<path fill="none" stroke="midnightblue" d="M761.12,-623.13C806.97,-618.46 917.49,-604.85 944.04,-580 966.02,-559.43 963.04,-545.1 963.04,-515 963.04,-515 963.04,-515 963.04,-401 963.04,-366.81 946.44,-329.76 935.19,-308.57"/>
<polygon fill="midnightblue" stroke="midnightblue" points="938.22,-306.83 930.33,-299.77 932.1,-310.22 938.22,-306.83"/>
</g>
<!-- Node26 -->
<g id="node26" class="node">
<title>Node26</title>
<g id="a_node26"><a xlink:href="prog_8h.html" target="_top" xlink:title=" ">
<polygon fill="white" stroke="black" points="818.54,-560.5 818.54,-579.5 865.54,-579.5 865.54,-560.5 818.54,-560.5"/>
<text text-anchor="middle" x="842.04" y="-567.5" font-family="Helvetica,sans-Serif" font-size="10.00">prog.h</text>
</a>
</g>
</g>
<!-- Node25&#45;&gt;Node26 -->
<g id="edge41" class="edge">
<title>Node25&#45;&gt;Node26</title>
<path fill="none" stroke="midnightblue" d="M757.27,-616.32C773.39,-607.7 798.34,-594.36 817.01,-584.39"/>
<polygon fill="midnightblue" stroke="midnightblue" points="818.69,-587.46 825.86,-579.65 815.39,-581.28 818.69,-587.46"/>
</g>
<!-- Node33 -->
<g id="node33" class="node">
<title>Node33</title>
<g id="a_node33"><a xlink:href="clock_8h.html" target="_top" xlink:title="Engine clock.">
<polygon fill="white" stroke="black" points="883.54,-560.5 883.54,-579.5 934.54,-579.5 934.54,-560.5 883.54,-560.5"/>
<text text-anchor="middle" x="909.04" y="-567.5" font-family="Helvetica,sans-Serif" font-size="10.00">clock.h</text>
</a>
</g>
</g>
<!-- Node25&#45;&gt;Node33 -->
<g id="edge52" class="edge">
<title>Node25&#45;&gt;Node33</title>
<path fill="none" stroke="midnightblue" d="M761.31,-618.49C789.19,-609.52 839.79,-593.26 873.91,-582.29"/>
<polygon fill="midnightblue" stroke="midnightblue" points="875.04,-585.6 883.49,-579.21 872.9,-578.94 875.04,-585.6"/>
</g>
<!-- Node34 -->
<g id="node34" class="node">
<title>Node34</title>
<g id="a_node34"><a xlink:href="cat_8h.html" target="_top" xlink:title="Catalog.">
<polygon fill="white" stroke="black" points="759.54,-560.5 759.54,-579.5 800.54,-579.5 800.54,-560.5 759.54,-560.5"/>
<text text-anchor="middle" x="780.04" y="-567.5" font-family="Helvetica,sans-Serif" font-size="10.00">cat.h</text>
</a>
</g>
</g>
<!-- Node25&#45;&gt;Node34 -->
<g id="edge56" class="edge">
<title>Node25&#45;&gt;Node34</title>
<path fill="none" stroke="midnightblue" d="M747.48,-616.08C752.99,-608.46 761.07,-597.26 767.81,-587.94"/>
<polygon fill="midnightblue" stroke="midnightblue" points="770.7,-589.91 773.72,-579.75 765.03,-585.81 770.7,-589.91"/>
</g>
<!-- Node27 -->
<g id="node27" class="node">
<title>Node27</title>
<g id="a_node27"><a xlink:href="binoc_8h.html" target="_top" xlink:title="Binoc&#45;u&#45;com.">
<polygon fill="white" stroke="black" points="748.04,-504.5 748.04,-523.5 800.04,-523.5 800.04,-504.5 748.04,-504.5"/>
<text text-anchor="middle" x="774.04" y="-511.5" font-family="Helvetica,sans-Serif" font-size="10.00">binoc.h</text>
</a>
</g>
</g>
<!-- Node26&#45;&gt;Node27 -->
<g id="edge42" class="edge">
<title>Node26&#45;&gt;Node27</title>
<path fill="none" stroke="midnightblue" d="M831.12,-560.32C820.87,-552.18 805.32,-539.84 793.04,-530.09"/>
<polygon fill="midnightblue" stroke="midnightblue" points="795.17,-527.31 785.17,-523.83 790.82,-532.79 795.17,-527.31"/>
</g>
<!-- Node32 -->
<g id="node32" class="node">
<title>Node32</title>
<g id="a_node32"><a xlink:href="gs_8h.html" target="_top" xlink:title="Graphics synthesizer.">
<polygon fill="white" stroke="black" points="823.54,-504.5 823.54,-523.5 860.54,-523.5 860.54,-504.5 823.54,-504.5"/>
<text text-anchor="middle" x="842.04" y="-511.5" font-family="Helvetica,sans-Serif" font-size="10.00">gs.h</text>
</a>
</g>
</g>
<!-- Node26&#45;&gt;Node32 -->
<g id="edge51" class="edge">
<title>Node26&#45;&gt;Node32</title>
<path fill="none" stroke="midnightblue" d="M842.04,-560.08C842.04,-553.01 842.04,-542.86 842.04,-533.99"/>
<polygon fill="midnightblue" stroke="midnightblue" points="845.54,-533.75 842.04,-523.75 838.54,-533.75 845.54,-533.75"/>
</g>
<!-- Node28 -->
<g id="node28" class="node">
<title>Node28</title>
<g id="a_node28"><a xlink:href="screen_8h.html" target="_top" xlink:title="GUI elements.">
<polygon fill="white" stroke="black" points="739.04,-448.5 739.04,-467.5 797.04,-467.5 797.04,-448.5 739.04,-448.5"/>
<text text-anchor="middle" x="768.04" y="-455.5" font-family="Helvetica,sans-Serif" font-size="10.00">screen.h</text>
</a>
</g>
</g>
<!-- Node27&#45;&gt;Node28 -->
<g id="edge43" class="edge">
<title>Node27&#45;&gt;Node28</title>
<path fill="none" stroke="midnightblue" d="M773.05,-504.08C772.26,-496.93 771.11,-486.64 770.12,-477.69"/>
<polygon fill="midnightblue" stroke="midnightblue" points="773.6,-477.3 769.02,-467.75 766.64,-478.08 773.6,-477.3"/>
</g>
<!-- Node28&#45;&gt;Node21 -->
<g id="edge45" class="edge">
<title>Node28&#45;&gt;Node21</title>
<path fill="none" stroke="midnightblue" d="M747.44,-448.44C726.05,-439.56 692.36,-425.56 668.02,-415.45"/>
<polygon fill="midnightblue" stroke="midnightblue" points="669.12,-412.12 658.55,-411.52 666.44,-418.58 669.12,-412.12"/>
</g>
<!-- Node29 -->
<g id="node29" class="node">
<title>Node29</title>
<g id="a_node29"><a xlink:href="font_8h.html" target="_top" xlink:title="Font system.">
<polygon fill="white" stroke="black" points="801.54,-392.5 801.54,-411.5 846.54,-411.5 846.54,-392.5 801.54,-392.5"/>
<text text-anchor="middle" x="824.04" y="-399.5" font-family="Helvetica,sans-Serif" font-size="10.00">font.h</text>
</a>
</g>
</g>
<!-- Node28&#45;&gt;Node29 -->
<g id="edge44" class="edge">
<title>Node28&#45;&gt;Node29</title>
<path fill="none" stroke="midnightblue" d="M777.04,-448.32C785.24,-440.42 797.55,-428.55 807.51,-418.94"/>
<polygon fill="midnightblue" stroke="midnightblue" points="810.11,-421.29 814.88,-411.83 805.25,-416.26 810.11,-421.29"/>
</g>
<!-- Node30 -->
<g id="node30" class="node">
<title>Node30</title>
<g id="a_node30"><a xlink:href="shd_8h.html" target="_top" xlink:title="Shaders.">
<polygon fill="white" stroke="black" points="740.54,-392.5 740.54,-411.5 783.54,-411.5 783.54,-392.5 740.54,-392.5"/>
<text text-anchor="middle" x="762.04" y="-399.5" font-family="Helvetica,sans-Serif" font-size="10.00">shd.h</text>
</a>
</g>
</g>
<!-- Node28&#45;&gt;Node30 -->
<g id="edge46" class="edge">
<title>Node28&#45;&gt;Node30</title>
<path fill="none" stroke="midnightblue" d="M767.05,-448.08C766.26,-440.93 765.11,-430.64 764.12,-421.69"/>
<polygon fill="midnightblue" stroke="midnightblue" points="767.6,-421.3 763.02,-411.75 760.64,-422.08 767.6,-421.3"/>
</g>
<!-- Node30&#45;&gt;Node17 -->
<g id="edge50" class="edge">
<title>Node30&#45;&gt;Node17</title>
<path fill="none" stroke="midnightblue" d="M744.12,-392.34C716.03,-378.98 659.69,-353.13 610.04,-336 562.96,-319.76 506.83,-305.86 472.58,-297.96"/>
<polygon fill="midnightblue" stroke="midnightblue" points="473.21,-294.52 462.68,-295.71 471.66,-301.34 473.21,-294.52"/>
</g>
<!-- Node30&#45;&gt;Node19 -->
<g id="edge49" class="edge">
<title>Node30&#45;&gt;Node19</title>
<path fill="none" stroke="midnightblue" d="M760.89,-392.08C759.96,-384.93 758.63,-374.64 757.47,-365.69"/>
<polygon fill="midnightblue" stroke="midnightblue" points="760.93,-365.22 756.18,-355.75 753.99,-366.12 760.93,-365.22"/>
</g>
<!-- Node30&#45;&gt;Node20 -->
<g id="edge48" class="edge">
<title>Node30&#45;&gt;Node20</title>
<path fill="none" stroke="midnightblue" d="M783.82,-394.48C823.53,-382.56 903.84,-358.25 906.04,-356 918,-343.82 922.51,-324.55 924.17,-310.15"/>
<polygon fill="midnightblue" stroke="midnightblue" points="927.68,-310.11 924.98,-299.87 920.7,-309.56 927.68,-310.11"/>
</g>
<!-- Node31 -->
<g id="node31" class="node">
<title>Node31</title>
<g id="a_node31"><a xlink:href="eestruct_8h.html" target="_top" xlink:title="Graphics synthesizer.">
<polygon fill="white" stroke="black" points="795.54,-336.5 795.54,-355.5 896.54,-355.5 896.54,-336.5 795.54,-336.5"/>
<text text-anchor="middle" x="846.04" y="-343.5" font-family="Helvetica,sans-Serif" font-size="10.00">sdk/ee/eestruct.h</text>
</a>
</g>
</g>
<!-- Node30&#45;&gt;Node31 -->
<g id="edge47" class="edge">
<title>Node30&#45;&gt;Node31</title>
<path fill="none" stroke="midnightblue" d="M775.54,-392.32C788.64,-383.9 808.75,-370.97 824.15,-361.07"/>
<polygon fill="midnightblue" stroke="midnightblue" points="826.06,-364.01 832.58,-355.65 822.28,-358.12 826.06,-364.01"/>
</g>
<!-- Node35&#45;&gt;Node3 -->
<g id="edge58" class="edge">
<title>Node35&#45;&gt;Node3</title>
<path fill="none" stroke="midnightblue" d="M288.67,-448.35C287.92,-430.9 286.2,-390.2 285.04,-356 283.09,-298.54 281.32,-230.56 280.51,-198.11"/>
<polygon fill="midnightblue" stroke="midnightblue" points="284,-197.75 280.26,-187.84 277.01,-197.93 284,-197.75"/>
</g>
<!-- Node36&#45;&gt;Node5 -->
<g id="edge60" class="edge">
<title>Node36&#45;&gt;Node5</title>
<path fill="none" stroke="midnightblue" d="M544.66,-224.34C543.62,-204.28 540.02,-153.15 529.04,-112 522.11,-86 518.3,-79.95 506.04,-56 501.17,-46.48 494.95,-36.33 489.61,-28.08"/>
<polygon fill="midnightblue" stroke="midnightblue" points="492.51,-26.12 484.07,-19.71 486.67,-29.98 492.51,-26.12"/>
</g>
<!-- Node37&#45;&gt;Node17 -->
<g id="edge62" class="edge">
<title>Node37&#45;&gt;Node17</title>
<path fill="none" stroke="midnightblue" d="M428.43,-791.75C367.77,-787.44 235.04,-768.26 235.04,-683 235.04,-683 235.04,-683 235.04,-457 235.04,-368.39 352.03,-319.06 409.68,-300.13"/>
<polygon fill="midnightblue" stroke="midnightblue" points="410.92,-303.41 419.39,-297.05 408.8,-296.74 410.92,-303.41"/>
</g>
<!-- Node37&#45;&gt;Node25 -->
<g id="edge65" class="edge">
<title>Node37&#45;&gt;Node25</title>
<path fill="none" stroke="midnightblue" d="M472.86,-784.31C519.09,-757.19 660.95,-673.98 717.46,-640.83"/>
<polygon fill="midnightblue" stroke="midnightblue" points="719.52,-643.68 726.37,-635.61 715.98,-637.65 719.52,-643.68"/>
</g>
<!-- Node38 -->
<g id="node38" class="node">
<title>Node38</title>
<g id="a_node38"><a xlink:href="vol_8h.html" target="_top" xlink:title="Volume object.">
<polygon fill="white" stroke="black" points="437.54,-728.5 437.54,-747.5 478.54,-747.5 478.54,-728.5 437.54,-728.5"/>
<text text-anchor="middle" x="458.04" y="-735.5" font-family="Helvetica,sans-Serif" font-size="10.00">vol.h</text>
</a>
</g>
</g>
<!-- Node37&#45;&gt;Node38 -->
<g id="edge63" class="edge">
<title>Node37&#45;&gt;Node38</title>
<path fill="none" stroke="midnightblue" d="M458.04,-784.08C458.04,-777.01 458.04,-766.86 458.04,-757.99"/>
<polygon fill="midnightblue" stroke="midnightblue" points="461.54,-757.75 458.04,-747.75 454.54,-757.75 461.54,-757.75"/>
</g>
<!-- Node38&#45;&gt;Node14 -->
<g id="edge64" class="edge">
<title>Node38&#45;&gt;Node14</title>
<path fill="none" stroke="midnightblue" d="M458.04,-728.08C458.04,-721.01 458.04,-710.86 458.04,-701.99"/>
<polygon fill="midnightblue" stroke="midnightblue" points="461.54,-701.75 458.04,-691.75 454.54,-701.75 461.54,-701.75"/>
</g>
</g>
</svg>
