<?xml version="1.0" encoding="UTF-8" standalone="no"?>
<!DOCTYPE svg PUBLIC "-//W3C//DTD SVG 1.1//EN"
 "http://www.w3.org/Graphics/SVG/1.1/DTD/svg11.dtd">
<!-- Generated by graphviz version 2.43.0 (0)
 -->
<!-- Title: include/common.h Pages: 1 -->
<svg width="335pt" height="137pt"
 viewBox="0.00 0.00 334.50 137.00" xmlns="http://www.w3.org/2000/svg" xmlns:xlink="http://www.w3.org/1999/xlink">
<g id="graph0" class="graph" transform="scale(1 1) rotate(0) translate(4 133)">
<title>include/common.h</title>
<!-- Node1 -->
<g id="Node000001" class="node">
<title>Node1</title>
<g id="a_Node000001"><a xlink:title="Common header file.">
<polygon fill="#999999" stroke="#666666" points="223,-129 116,-129 116,-110 223,-110 223,-129"/>
<text text-anchor="middle" x="169.5" y="-117" font-family="Helvetica,sans-Serif" font-size="10.00">include/common.h</text>
</a>
</g>
</g>
<!-- Node2 -->
<g id="Node000002" class="node">
<title>Node2</title>
<g id="a_Node000002"><a xlink:href="include__asm_8h.html" target="_top" xlink:title=" ">
<polygon fill="white" stroke="#666666" points="87,-74 0,-74 0,-55 87,-55 87,-74"/>
<text text-anchor="middle" x="43.5" y="-62" font-family="Helvetica,sans-Serif" font-size="10.00">include_asm.h</text>
</a>
</g>
</g>
<!-- Node1&#45;&gt;Node2 -->
<g id="edge1_Node000001_Node000002" class="edge">
<title>Node1&#45;&gt;Node2</title>
<g id="a_edge1_Node000001_Node000002"><a xlink:title=" ">
<path fill="none" stroke="#63b8ff" d="M149.26,-109.98C128.8,-101.38 96.97,-87.99 73.57,-78.15"/>
<polygon fill="#63b8ff" stroke="#63b8ff" points="74.69,-74.82 64.11,-74.17 71.97,-81.27 74.69,-74.82"/>
</a>
</g>
</g>
<!-- Node3 -->
<g id="Node000003" class="node">
<title>Node3</title>
<g id="a_Node000003"><a xlink:href="types_8h.html" target="_top" xlink:title="Common types used across the codebase.">
<polygon fill="white" stroke="#666666" points="158,-74 105,-74 105,-55 158,-55 158,-74"/>
<text text-anchor="middle" x="131.5" y="-62" font-family="Helvetica,sans-Serif" font-size="10.00">types.h</text>
</a>
</g>
</g>
<!-- Node1&#45;&gt;Node3 -->
<g id="edge2_Node000001_Node000003" class="edge">
<title>Node1&#45;&gt;Node3</title>
<g id="a_edge2_Node000001_Node000003"><a xlink:title=" ">
<path fill="none" stroke="#63b8ff" d="M163.23,-109.75C157.91,-102.34 150.14,-91.5 143.62,-82.41"/>
<polygon fill="#63b8ff" stroke="#63b8ff" points="146.33,-80.18 137.66,-74.09 140.64,-84.26 146.33,-80.18"/>
</a>
</g>
</g>
<!-- Node5 -->
<g id="Node000005" class="node">
<title>Node5</title>
<g id="a_Node000005"><a xlink:href="vtables_8h.html" target="_top" xlink:title="Manually crafted vtables for various structs.">
<polygon fill="white" stroke="#666666" points="238.5,-74 176.5,-74 176.5,-55 238.5,-55 238.5,-74"/>
<text text-anchor="middle" x="207.5" y="-62" font-family="Helvetica,sans-Serif" font-size="10.00">vtables.h</text>
</a>
</g>
</g>
<!-- Node1&#45;&gt;Node5 -->
<g id="edge4_Node000001_Node000005" class="edge">
<title>Node1&#45;&gt;Node5</title>
<g id="a_edge4_Node000001_Node000005"><a xlink:title=" ">
<path fill="none" stroke="#63b8ff" d="M175.77,-109.75C181.09,-102.34 188.86,-91.5 195.38,-82.41"/>
<polygon fill="#63b8ff" stroke="#63b8ff" points="198.36,-84.26 201.34,-74.09 192.67,-80.18 198.36,-84.26"/>
</a>
</g>
</g>
<!-- Node8 -->
<g id="Node000008" class="node">
<title>Node8</title>
<g id="a_Node000008"><a xlink:href="spaprops_8h.html" target="_top" xlink:title=" ">
<polygon fill="white" stroke="#666666" points="326.5,-74 256.5,-74 256.5,-55 326.5,-55 326.5,-74"/>
<text text-anchor="middle" x="291.5" y="-62" font-family="Helvetica,sans-Serif" font-size="10.00">spaprops.h</text>
</a>
</g>
</g>
<!-- Node1&#45;&gt;Node8 -->
<g id="edge7_Node000001_Node000008" class="edge">
<title>Node1&#45;&gt;Node8</title>
<g id="a_edge7_Node000001_Node000008"><a xlink:title=" ">
<path fill="none" stroke="#63b8ff" d="M189.1,-109.98C208.82,-101.42 239.45,-88.11 262.08,-78.28"/>
<polygon fill="#63b8ff" stroke="#63b8ff" points="263.76,-81.37 271.54,-74.17 260.98,-74.94 263.76,-81.37"/>
</a>
</g>
</g>
<!-- Node4 -->
<g id="Node000004" class="node">
<title>Node4</title>
<g id="a_Node000004"><a xlink:title=" ">
<polygon fill="#e0e0e0" stroke="#999999" points="159.5,-19 103.5,-19 103.5,0 159.5,0 159.5,-19"/>
<text text-anchor="middle" x="131.5" y="-7" font-family="Helvetica,sans-Serif" font-size="10.00">stddef.h</text>
</a>
</g>
</g>
<!-- Node3&#45;&gt;Node4 -->
<g id="edge3_Node000003_Node000004" class="edge">
<title>Node3&#45;&gt;Node4</title>
<g id="a_edge3_Node000003_Node000004"><a xlink:title=" ">
<path fill="none" stroke="#63b8ff" d="M131.5,-54.75C131.5,-47.8 131.5,-37.85 131.5,-29.13"/>
<polygon fill="#63b8ff" stroke="#63b8ff" points="135,-29.09 131.5,-19.09 128,-29.09 135,-29.09"/>
</a>
</g>
</g>
<!-- Node6 -->
<g id="Node000006" class="node">
<title>Node6</title>
<g id="a_Node000006"><a xlink:href="cid_8h.html" target="_top" xlink:title="Class IDs.">
<polygon fill="white" stroke="#666666" points="222.5,-19 182.5,-19 182.5,0 222.5,0 222.5,-19"/>
<text text-anchor="middle" x="202.5" y="-7" font-family="Helvetica,sans-Serif" font-size="10.00">cid.h</text>
</a>
</g>
</g>
<!-- Node5&#45;&gt;Node6 -->
<g id="edge5_Node000005_Node000006" class="edge">
<title>Node5&#45;&gt;Node6</title>
<g id="a_edge5_Node000005_Node000006"><a xlink:title=" ">
<path fill="none" stroke="#63b8ff" d="M206.67,-54.75C206.02,-47.8 205.08,-37.85 204.26,-29.13"/>
<polygon fill="#63b8ff" stroke="#63b8ff" points="207.73,-28.72 203.31,-19.09 200.77,-29.37 207.73,-28.72"/>
</a>
</g>
</g>
<!-- Node7 -->
<g id="Node000007" class="node">
<title>Node7</title>
<g id="a_Node000007"><a xlink:href="mq_8h.html" target="_top" xlink:title="Message queue.">
<polygon fill="white" stroke="#666666" points="282,-19 241,-19 241,0 282,0 282,-19"/>
<text text-anchor="middle" x="261.5" y="-7" font-family="Helvetica,sans-Serif" font-size="10.00">mq.h</text>
</a>
</g>
</g>
<!-- Node5&#45;&gt;Node7 -->
<g id="edge6_Node000005_Node000007" class="edge">
<title>Node5&#45;&gt;Node7</title>
<g id="a_edge6_Node000005_Node000007"><a xlink:title=" ">
<path fill="none" stroke="#63b8ff" d="M216.42,-54.75C224.28,-47.03 235.93,-35.6 245.42,-26.28"/>
<polygon fill="#63b8ff" stroke="#63b8ff" points="248.06,-28.59 252.75,-19.09 243.16,-23.6 248.06,-28.59"/>
</a>
</g>
</g>
</g>
</svg>
