<?xml version="1.0" encoding="UTF-8" standalone="no"?>
<!DOCTYPE svg PUBLIC "-//W3C//DTD SVG 1.1//EN"
 "http://www.w3.org/Graphics/SVG/1.1/DTD/svg11.dtd">
<!-- Generated by graphviz version 2.43.0 (0)
 -->
<!-- Title: include/crv.h Pages: 1 -->
<svg width="444pt" height="192pt"
 viewBox="0.00 0.00 443.50 192.00" xmlns="http://www.w3.org/2000/svg" xmlns:xlink="http://www.w3.org/1999/xlink">

<svg id="main" version="1.1" xmlns="http://www.w3.org/2000/svg" xmlns:xlink="http://www.w3.org/1999/xlink" xml:space="preserve" onload="init(evt)">
<style type="text/css"><![CDATA[
.node, .edge {opacity: 0.7;}
.node.selected, .edge.selected {opacity: 1;}
.edge:hover path { stroke: red; }
.edge:hover polygon { stroke: red; fill: red; }
]]></style>
<script type="application/ecmascript" xlink:href="svg.min.js"/>
<svg id="graph" class="graph">
<g id="graph0" class="graph" transform="scale(1 1) rotate(0) translate(4 188)">
<title>include/crv.h</title>
<!-- Node1 -->
<g id="Node000001" class="node">
<title>Node1</title>
<g id="a_Node000001"><a xlink:title=" ">
<polygon fill="#999999" stroke="#666666" points="348,-184 270,-184 270,-165 348,-165 348,-184"/>
<text text-anchor="middle" x="309" y="-172" font-family="Helvetica,sans-Serif" font-size="10.00">include/crv.h</text>
</a>
</g>
</g>
<!-- Node2 -->
<g id="Node000002" class="node">
<title>Node2</title>
<g id="a_Node000002"><a xlink:href="shape_8h.html" target="_top" xlink:title=" ">
<polygon fill="white" stroke="#666666" points="253.5,-129 160.5,-129 160.5,-110 253.5,-110 253.5,-129"/>
<text text-anchor="middle" x="207" y="-117" font-family="Helvetica,sans-Serif" font-size="10.00">include/shape.h</text>
</a>
</g>
</g>
<!-- Node1&#45;&gt;Node2 -->
<g id="edge1_Node000001_Node000002" class="edge">
<title>Node1&#45;&gt;Node2</title>
<g id="a_edge1_Node000001_Node000002"><a xlink:title=" ">
<path fill="none" stroke="#63b8ff" d="M283.73,-160.37C264.99,-150.63 239.98,-137.64 223.69,-129.17"/>
<polygon fill="#63b8ff" stroke="#63b8ff" points="282.12,-163.48 292.61,-164.98 285.35,-157.27 282.12,-163.48"/>
</a>
</g>
</g>
<!-- Node10 -->
<g id="Node000010" class="node">
<title>Node10</title>
<g id="a_Node000010"><a xlink:href="bez_8c.html" target="_top" xlink:title=" ">
<polygon fill="white" stroke="#666666" points="346,-129 272,-129 272,-110 346,-110 346,-129"/>
<text text-anchor="middle" x="309" y="-117" font-family="Helvetica,sans-Serif" font-size="10.00">src/P2/bez.c</text>
</a>
</g>
</g>
<!-- Node1&#45;&gt;Node10 -->
<g id="edge9_Node000001_Node000010" class="edge">
<title>Node1&#45;&gt;Node10</title>
<g id="a_edge9_Node000001_Node000010"><a xlink:title=" ">
<path fill="none" stroke="#63b8ff" d="M309,-154.66C309,-145.93 309,-135.99 309,-129.09"/>
<polygon fill="#63b8ff" stroke="#63b8ff" points="305.5,-154.75 309,-164.75 312.5,-154.75 305.5,-154.75"/>
</a>
</g>
</g>
<!-- Node11 -->
<g id="Node000011" class="node">
<title>Node11</title>
<g id="a_Node000011"><a xlink:href="crv_8c.html" target="_top" xlink:title=" ">
<polygon fill="white" stroke="#666666" points="435.5,-129 364.5,-129 364.5,-110 435.5,-110 435.5,-129"/>
<text text-anchor="middle" x="400" y="-117" font-family="Helvetica,sans-Serif" font-size="10.00">src/P2/crv.c</text>
</a>
</g>
</g>
<!-- Node1&#45;&gt;Node11 -->
<g id="edge10_Node000001_Node000011" class="edge">
<title>Node1&#45;&gt;Node11</title>
<g id="a_edge10_Node000001_Node000011"><a xlink:title=" ">
<path fill="none" stroke="#63b8ff" d="M332.7,-159.7C349.28,-150.04 370.91,-137.44 385.11,-129.17"/>
<polygon fill="#63b8ff" stroke="#63b8ff" points="330.5,-156.93 323.62,-164.98 334.02,-162.98 330.5,-156.93"/>
</a>
</g>
</g>
<!-- Node3 -->
<g id="Node000003" class="node">
<title>Node3</title>
<g id="a_Node000003"><a xlink:href="landing_8h.html" target="_top" xlink:title=" ">
<polygon fill="white" stroke="#666666" points="100,-74 0,-74 0,-55 100,-55 100,-74"/>
<text text-anchor="middle" x="50" y="-62" font-family="Helvetica,sans-Serif" font-size="10.00">include/landing.h</text>
</a>
</g>
</g>
<!-- Node2&#45;&gt;Node3 -->
<g id="edge2_Node000002_Node000003" class="edge">
<title>Node2&#45;&gt;Node3</title>
<g id="a_edge2_Node000002_Node000003"><a xlink:title=" ">
<path fill="none" stroke="#63b8ff" d="M171.95,-106.67C142.68,-96.79 101.63,-82.93 75.42,-74.08"/>
<polygon fill="#63b8ff" stroke="#63b8ff" points="171.18,-110.1 181.78,-109.98 173.42,-103.47 171.18,-110.1"/>
</a>
</g>
</g>
<!-- Node5 -->
<g id="Node000005" class="node">
<title>Node5</title>
<g id="a_Node000005"><a xlink:href="lgn_8h.html" target="_top" xlink:title=" ">
<polygon fill="white" stroke="#666666" points="197.5,-74 118.5,-74 118.5,-55 197.5,-55 197.5,-74"/>
<text text-anchor="middle" x="158" y="-62" font-family="Helvetica,sans-Serif" font-size="10.00">include/lgn.h</text>
</a>
</g>
</g>
<!-- Node2&#45;&gt;Node5 -->
<g id="edge4_Node000002_Node000005" class="edge">
<title>Node2&#45;&gt;Node5</title>
<g id="a_edge4_Node000002_Node000005"><a xlink:title=" ">
<path fill="none" stroke="#63b8ff" d="M191.97,-102.24C183.38,-92.95 172.96,-81.68 165.94,-74.09"/>
<polygon fill="#63b8ff" stroke="#63b8ff" points="189.55,-104.78 198.91,-109.75 194.69,-100.03 189.55,-104.78"/>
</a>
</g>
</g>
<!-- Node7 -->
<g id="Node000007" class="node">
<title>Node7</title>
<g id="a_Node000007"><a xlink:href="rail_8h.html" target="_top" xlink:title=" ">
<polygon fill="white" stroke="#666666" points="296,-74 216,-74 216,-55 296,-55 296,-74"/>
<text text-anchor="middle" x="256" y="-62" font-family="Helvetica,sans-Serif" font-size="10.00">include/rail.h</text>
</a>
</g>
</g>
<!-- Node2&#45;&gt;Node7 -->
<g id="edge6_Node000002_Node000007" class="edge">
<title>Node2&#45;&gt;Node7</title>
<g id="a_edge6_Node000002_Node000007"><a xlink:title=" ">
<path fill="none" stroke="#63b8ff" d="M222.03,-102.24C230.62,-92.95 241.04,-81.68 248.06,-74.09"/>
<polygon fill="#63b8ff" stroke="#63b8ff" points="219.31,-100.03 215.09,-109.75 224.45,-104.78 219.31,-100.03"/>
</a>
</g>
</g>
<!-- Node9 -->
<g id="Node000009" class="node">
<title>Node9</title>
<g id="a_Node000009"><a xlink:href="shape_8c.html" target="_top" xlink:title=" ">
<polygon fill="white" stroke="#666666" points="400,-74 314,-74 314,-55 400,-55 400,-74"/>
<text text-anchor="middle" x="357" y="-62" font-family="Helvetica,sans-Serif" font-size="10.00">src/P2/shape.c</text>
</a>
</g>
</g>
<!-- Node2&#45;&gt;Node9 -->
<g id="edge8_Node000002_Node000009" class="edge">
<title>Node2&#45;&gt;Node9</title>
<g id="a_edge8_Node000002_Node000009"><a xlink:title=" ">
<path fill="none" stroke="#63b8ff" d="M240.82,-106.55C268.68,-96.71 307.51,-82.98 332.46,-74.17"/>
<polygon fill="#63b8ff" stroke="#63b8ff" points="239.36,-103.35 231.1,-109.98 241.69,-109.95 239.36,-103.35"/>
</a>
</g>
</g>
<!-- Node4 -->
<g id="Node000004" class="node">
<title>Node4</title>
<g id="a_Node000004"><a xlink:href="landing_8c.html" target="_top" xlink:title=" ">
<polygon fill="white" stroke="#666666" points="96.5,-19 3.5,-19 3.5,0 96.5,0 96.5,-19"/>
<text text-anchor="middle" x="50" y="-7" font-family="Helvetica,sans-Serif" font-size="10.00">src/P2/landing.c</text>
</a>
</g>
</g>
<!-- Node3&#45;&gt;Node4 -->
<g id="edge3_Node000003_Node000004" class="edge">
<title>Node3&#45;&gt;Node4</title>
<g id="a_edge3_Node000003_Node000004"><a xlink:title=" ">
<path fill="none" stroke="#63b8ff" d="M50,-44.66C50,-35.93 50,-25.99 50,-19.09"/>
<polygon fill="#63b8ff" stroke="#63b8ff" points="46.5,-44.75 50,-54.75 53.5,-44.75 46.5,-44.75"/>
</a>
</g>
</g>
<!-- Node6 -->
<g id="Node000006" class="node">
<title>Node6</title>
<g id="a_Node000006"><a xlink:href="lgn_8c.html" target="_top" xlink:title=" ">
<polygon fill="white" stroke="#666666" points="194,-19 122,-19 122,0 194,0 194,-19"/>
<text text-anchor="middle" x="158" y="-7" font-family="Helvetica,sans-Serif" font-size="10.00">src/P2/lgn.c</text>
</a>
</g>
</g>
<!-- Node5&#45;&gt;Node6 -->
<g id="edge5_Node000005_Node000006" class="edge">
<title>Node5&#45;&gt;Node6</title>
<g id="a_edge5_Node000005_Node000006"><a xlink:title=" ">
<path fill="none" stroke="#63b8ff" d="M158,-44.66C158,-35.93 158,-25.99 158,-19.09"/>
<polygon fill="#63b8ff" stroke="#63b8ff" points="154.5,-44.75 158,-54.75 161.5,-44.75 154.5,-44.75"/>
</a>
</g>
</g>
<!-- Node8 -->
<g id="Node000008" class="node">
<title>Node8</title>
<g id="a_Node000008"><a xlink:href="rail_8c.html" target="_top" xlink:title=" ">
<polygon fill="white" stroke="#666666" points="292.5,-19 219.5,-19 219.5,0 292.5,0 292.5,-19"/>
<text text-anchor="middle" x="256" y="-7" font-family="Helvetica,sans-Serif" font-size="10.00">src/P2/rail.c</text>
</a>
</g>
</g>
<!-- Node7&#45;&gt;Node8 -->
<g id="edge7_Node000007_Node000008" class="edge">
<title>Node7&#45;&gt;Node8</title>
<g id="a_edge7_Node000007_Node000008"><a xlink:title=" ">
<path fill="none" stroke="#63b8ff" d="M256,-44.66C256,-35.93 256,-25.99 256,-19.09"/>
<polygon fill="#63b8ff" stroke="#63b8ff" points="252.5,-44.75 256,-54.75 259.5,-44.75 252.5,-44.75"/>
</a>
</g>
</g>
</g>
</svg>
</svg>

<style type='text/css'>
<![CDATA[
[data-mouse-over-selected='false'] { opacity: 0.7; }
[data-mouse-over-selected='true']  { opacity: 1.0; }
]]>
</style>
<script type="application/ecmascript"><![CDATA[
document.addEventListener('DOMContentLoaded', (event) => {
  highlightEdges();
  highlightAdjacentNodes();
});
]]></script>
</svg>
