<?xml version="1.0" encoding="UTF-8" standalone="no"?>
<!DOCTYPE svg PUBLIC "-//W3C//DTD SVG 1.1//EN"
 "http://www.w3.org/Graphics/SVG/1.1/DTD/svg11.dtd">
<!-- Generated by graphviz version 2.43.0 (0)
 -->
<!-- Title: include/dialog.h Pages: 1 -->
<svg width="380pt" height="412pt"
 viewBox="0.00 0.00 379.50 412.00" xmlns="http://www.w3.org/2000/svg" xmlns:xlink="http://www.w3.org/1999/xlink">

<svg id="main" version="1.1" xmlns="http://www.w3.org/2000/svg" xmlns:xlink="http://www.w3.org/1999/xlink" xml:space="preserve" onload="init(evt)">
<style type="text/css"><![CDATA[
.node, .edge {opacity: 0.7;}
.node.selected, .edge.selected {opacity: 1;}
.edge:hover path { stroke: red; }
.edge:hover polygon { stroke: red; fill: red; }
]]></style>
<script type="application/ecmascript" xlink:href="svg.min.js"/>
<svg id="graph" class="graph">
<g id="graph0" class="graph" transform="scale(1 1) rotate(0) translate(4 408)">
<title>include/dialog.h</title>
<!-- Node1 -->
<g id="Node000001" class="node">
<title>Node1</title>
<g id="a_Node000001"><a xlink:title="Declarations for the dialog system.">
<polygon fill="#999999" stroke="#666666" points="251,-404 157,-404 157,-385 251,-385 251,-404"/>
<text text-anchor="middle" x="204" y="-392" font-family="Helvetica,sans-Serif" font-size="10.00">include/dialog.h</text>
</a>
</g>
</g>
<!-- Node2 -->
<g id="Node000002" class="node">
<title>Node2</title>
<g id="a_Node000002"><a xlink:href="game_8h.html" target="_top" xlink:title="Game state and level management.">
<polygon fill="white" stroke="#666666" points="74.5,-349 21.5,-349 21.5,-330 74.5,-330 74.5,-349"/>
<text text-anchor="middle" x="48" y="-337" font-family="Helvetica,sans-Serif" font-size="10.00">game.h</text>
</a>
</g>
</g>
<!-- Node1&#45;&gt;Node2 -->
<g id="edge1_Node000001_Node000002" class="edge">
<title>Node1&#45;&gt;Node2</title>
<g id="a_edge1_Node000001_Node000002"><a xlink:title=" ">
<path fill="none" stroke="#63b8ff" d="M178.94,-384.98C152.97,-376.16 112.19,-362.31 83.04,-352.41"/>
<polygon fill="#63b8ff" stroke="#63b8ff" points="83.85,-348.99 73.26,-349.08 81.6,-355.61 83.85,-348.99"/>
</a>
</g>
</g>
<!-- Node5 -->
<g id="Node000005" class="node">
<title>Node5</title>
<g id="a_Node000005"><a xlink:href="util_8h.html" target="_top" xlink:title="Utility functions.">
<polygon fill="white" stroke="#666666" points="280.5,-239 239.5,-239 239.5,-220 280.5,-220 280.5,-239"/>
<text text-anchor="middle" x="260" y="-227" font-family="Helvetica,sans-Serif" font-size="10.00">util.h</text>
</a>
</g>
</g>
<!-- Node1&#45;&gt;Node5 -->
<g id="edge4_Node000001_Node000005" class="edge">
<title>Node1&#45;&gt;Node5</title>
<g id="a_edge4_Node000001_Node000005"><a xlink:title=" ">
<path fill="none" stroke="#63b8ff" d="M216.75,-384.92C238.18,-369.63 280.68,-335.35 297,-294 303.83,-276.7 290.89,-258.52 278.47,-246.06"/>
<polygon fill="#63b8ff" stroke="#63b8ff" points="280.7,-243.36 271,-239.11 275.94,-248.48 280.7,-243.36"/>
</a>
</g>
</g>
<!-- Node15 -->
<g id="Node000015" class="node">
<title>Node15</title>
<g id="a_Node000015"><a xlink:href="alo_8h.html" target="_top" xlink:title=" ">
<polygon fill="white" stroke="#666666" points="224.5,-349 183.5,-349 183.5,-330 224.5,-330 224.5,-349"/>
<text text-anchor="middle" x="204" y="-337" font-family="Helvetica,sans-Serif" font-size="10.00">alo.h</text>
</a>
</g>
</g>
<!-- Node1&#45;&gt;Node15 -->
<g id="edge19_Node000001_Node000015" class="edge">
<title>Node1&#45;&gt;Node15</title>
<g id="a_edge19_Node000001_Node000015"><a xlink:title=" ">
<path fill="none" stroke="#63b8ff" d="M204,-384.75C204,-377.8 204,-367.85 204,-359.13"/>
<polygon fill="#63b8ff" stroke="#63b8ff" points="207.5,-359.09 204,-349.09 200.5,-359.09 207.5,-359.09"/>
</a>
</g>
</g>
<!-- Node3 -->
<g id="Node000003" class="node">
<title>Node3</title>
<g id="a_Node000003"><a xlink:href="oid_8h.html" target="_top" xlink:title="Object IDs.">
<polygon fill="white" stroke="#666666" points="102.5,-19 61.5,-19 61.5,0 102.5,0 102.5,-19"/>
<text text-anchor="middle" x="82" y="-7" font-family="Helvetica,sans-Serif" font-size="10.00">oid.h</text>
</a>
</g>
</g>
<!-- Node2&#45;&gt;Node3 -->
<g id="edge2_Node000002_Node000003" class="edge">
<title>Node2&#45;&gt;Node3</title>
<g id="a_edge2_Node000002_Node000003"><a xlink:title=" ">
<path fill="none" stroke="#63b8ff" d="M41.12,-329.84C27.85,-312.23 0,-270.51 0,-230.5 0,-230.5 0,-230.5 0,-118.5 0,-78.45 36.21,-43.94 60.5,-25.29"/>
<polygon fill="#63b8ff" stroke="#63b8ff" points="62.85,-27.91 68.83,-19.16 58.7,-22.27 62.85,-27.91"/>
</a>
</g>
</g>
<!-- Node4 -->
<g id="Node000004" class="node">
<title>Node4</title>
<g id="a_Node000004"><a xlink:href="cid_8h.html" target="_top" xlink:title="Class IDs.">
<polygon fill="white" stroke="#666666" points="68,-294 28,-294 28,-275 68,-275 68,-294"/>
<text text-anchor="middle" x="48" y="-282" font-family="Helvetica,sans-Serif" font-size="10.00">cid.h</text>
</a>
</g>
</g>
<!-- Node2&#45;&gt;Node4 -->
<g id="edge3_Node000002_Node000004" class="edge">
<title>Node2&#45;&gt;Node4</title>
<g id="a_edge3_Node000002_Node000004"><a xlink:title=" ">
<path fill="none" stroke="#63b8ff" d="M48,-329.75C48,-322.8 48,-312.85 48,-304.13"/>
<polygon fill="#63b8ff" stroke="#63b8ff" points="51.5,-304.09 48,-294.09 44.5,-304.09 51.5,-304.09"/>
</a>
</g>
</g>
<!-- Node6 -->
<g id="Node000006" class="node">
<title>Node6</title>
<g id="a_Node000006"><a xlink:href="vec_8h.html" target="_top" xlink:title="Vector math.">
<polygon fill="white" stroke="#666666" points="316.5,-129 273.5,-129 273.5,-110 316.5,-110 316.5,-129"/>
<text text-anchor="middle" x="295" y="-117" font-family="Helvetica,sans-Serif" font-size="10.00">vec.h</text>
</a>
</g>
</g>
<!-- Node5&#45;&gt;Node6 -->
<g id="edge5_Node000005_Node000006" class="edge">
<title>Node5&#45;&gt;Node6</title>
<g id="a_edge5_Node000005_Node000006"><a xlink:title=" ">
<path fill="none" stroke="#63b8ff" d="M263.33,-219.68C266.67,-210.74 271.89,-196.48 276,-184 280.95,-168.95 286.07,-151.72 289.75,-139.01"/>
<polygon fill="#63b8ff" stroke="#63b8ff" points="293.18,-139.75 292.57,-129.17 286.45,-137.82 293.18,-139.75"/>
</a>
</g>
</g>
<!-- Node7 -->
<g id="Node000007" class="node">
<title>Node7</title>
<g id="a_Node000007"><a xlink:href="mat_8h.html" target="_top" xlink:title="3x3 and 4x4 matrix types.">
<polygon fill="white" stroke="#666666" points="266.5,-184 221.5,-184 221.5,-165 266.5,-165 266.5,-184"/>
<text text-anchor="middle" x="244" y="-172" font-family="Helvetica,sans-Serif" font-size="10.00">mat.h</text>
</a>
</g>
</g>
<!-- Node5&#45;&gt;Node7 -->
<g id="edge6_Node000005_Node000007" class="edge">
<title>Node5&#45;&gt;Node7</title>
<g id="a_edge6_Node000005_Node000007"><a xlink:title=" ">
<path fill="none" stroke="#63b8ff" d="M257.36,-219.75C255.24,-212.72 252.19,-202.62 249.54,-193.84"/>
<polygon fill="#63b8ff" stroke="#63b8ff" points="252.83,-192.65 246.59,-184.09 246.13,-194.67 252.83,-192.65"/>
</a>
</g>
</g>
<!-- Node8 -->
<g id="Node000008" class="node">
<title>Node8</title>
<g id="a_Node000008"><a xlink:href="sm_8h.html" target="_top" xlink:title="Probabilistic finite state machines.">
<polygon fill="white" stroke="#666666" points="203.5,-184 162.5,-184 162.5,-165 203.5,-165 203.5,-184"/>
<text text-anchor="middle" x="183" y="-172" font-family="Helvetica,sans-Serif" font-size="10.00">sm.h</text>
</a>
</g>
</g>
<!-- Node5&#45;&gt;Node8 -->
<g id="edge8_Node000005_Node000008" class="edge">
<title>Node5&#45;&gt;Node8</title>
<g id="a_edge8_Node000005_Node000008"><a xlink:title=" ">
<path fill="none" stroke="#63b8ff" d="M247.63,-219.98C235.91,-211.92 218.08,-199.65 204.11,-190.03"/>
<polygon fill="#63b8ff" stroke="#63b8ff" points="205.82,-186.96 195.6,-184.17 201.85,-192.72 205.82,-186.96"/>
</a>
</g>
</g>
<!-- Node7&#45;&gt;Node6 -->
<g id="edge7_Node000007_Node000006" class="edge">
<title>Node7&#45;&gt;Node6</title>
<g id="a_edge7_Node000007_Node000006"><a xlink:title=" ">
<path fill="none" stroke="#63b8ff" d="M252.42,-164.75C259.77,-157.11 270.63,-145.82 279.54,-136.56"/>
<polygon fill="#63b8ff" stroke="#63b8ff" points="282.32,-138.72 286.74,-129.09 277.28,-133.87 282.32,-138.72"/>
</a>
</g>
</g>
<!-- Node9 -->
<g id="Node000009" class="node">
<title>Node9</title>
<g id="a_Node000009"><a xlink:href="dl_8h.html" target="_top" xlink:title="Doubly&#45;linked list.">
<polygon fill="white" stroke="#666666" points="99.5,-74 64.5,-74 64.5,-55 99.5,-55 99.5,-74"/>
<text text-anchor="middle" x="82" y="-62" font-family="Helvetica,sans-Serif" font-size="10.00">dl.h</text>
</a>
</g>
</g>
<!-- Node8&#45;&gt;Node9 -->
<g id="edge9_Node000008_Node000009" class="edge">
<title>Node8&#45;&gt;Node9</title>
<g id="a_edge9_Node000008_Node000009"><a xlink:title=" ">
<path fill="none" stroke="#63b8ff" d="M174.73,-164.66C157.71,-146.46 118.52,-104.55 96.93,-81.47"/>
<polygon fill="#63b8ff" stroke="#63b8ff" points="99.48,-79.07 90.1,-74.16 94.37,-83.85 99.48,-79.07"/>
</a>
</g>
</g>
<!-- Node10 -->
<g id="Node000010" class="node">
<title>Node10</title>
<g id="a_Node000010"><a xlink:href="mq_8h.html" target="_top" xlink:title="Message queue.">
<polygon fill="white" stroke="#666666" points="371.5,-74 330.5,-74 330.5,-55 371.5,-55 371.5,-74"/>
<text text-anchor="middle" x="351" y="-62" font-family="Helvetica,sans-Serif" font-size="10.00">mq.h</text>
</a>
</g>
</g>
<!-- Node8&#45;&gt;Node10 -->
<g id="edge11_Node000008_Node000010" class="edge">
<title>Node8&#45;&gt;Node10</title>
<g id="a_edge11_Node000008_Node000010"><a xlink:title=" ">
<path fill="none" stroke="#63b8ff" d="M193.17,-164.64C208.24,-151.75 237.68,-127.44 265,-110 283.48,-98.2 305.45,-86.88 322.55,-78.6"/>
<polygon fill="#63b8ff" stroke="#63b8ff" points="324.48,-81.56 332,-74.11 321.47,-75.24 324.48,-81.56"/>
</a>
</g>
</g>
<!-- Node11 -->
<g id="Node000011" class="node">
<title>Node11</title>
<g id="a_Node000011"><a xlink:href="lo_8h.html" target="_top" xlink:title="Level objects.">
<polygon fill="white" stroke="#666666" points="199.5,-129 164.5,-129 164.5,-110 199.5,-110 199.5,-129"/>
<text text-anchor="middle" x="182" y="-117" font-family="Helvetica,sans-Serif" font-size="10.00">lo.h</text>
</a>
</g>
</g>
<!-- Node8&#45;&gt;Node11 -->
<g id="edge12_Node000008_Node000011" class="edge">
<title>Node8&#45;&gt;Node11</title>
<g id="a_edge12_Node000008_Node000011"><a xlink:title=" ">
<path fill="none" stroke="#63b8ff" d="M182.83,-164.75C182.7,-157.8 182.52,-147.85 182.35,-139.13"/>
<polygon fill="#63b8ff" stroke="#63b8ff" points="185.85,-139.02 182.16,-129.09 178.85,-139.15 185.85,-139.02"/>
</a>
</g>
</g>
<!-- Node9&#45;&gt;Node3 -->
<g id="edge10_Node000009_Node000003" class="edge">
<title>Node9&#45;&gt;Node3</title>
<g id="a_edge10_Node000009_Node000003"><a xlink:title=" ">
<path fill="none" stroke="#63b8ff" d="M82,-54.75C82,-47.8 82,-37.85 82,-29.13"/>
<polygon fill="#63b8ff" stroke="#63b8ff" points="85.5,-29.09 82,-19.09 78.5,-29.09 85.5,-29.09"/>
</a>
</g>
</g>
<!-- Node11&#45;&gt;Node3 -->
<g id="edge15_Node000011_Node000003" class="edge">
<title>Node11&#45;&gt;Node3</title>
<g id="a_edge15_Node000011_Node000003"><a xlink:title=" ">
<path fill="none" stroke="#63b8ff" d="M173.82,-109.66C157.03,-91.54 118.49,-49.91 97.07,-26.77"/>
<polygon fill="#63b8ff" stroke="#63b8ff" points="99.38,-24.12 90.02,-19.16 94.24,-28.87 99.38,-24.12"/>
</a>
</g>
</g>
<!-- Node11&#45;&gt;Node9 -->
<g id="edge13_Node000011_Node000009" class="edge">
<title>Node11&#45;&gt;Node9</title>
<g id="a_edge13_Node000011_Node000009"><a xlink:title=" ">
<path fill="none" stroke="#63b8ff" d="M165.93,-109.98C150.14,-101.61 125.78,-88.7 107.37,-78.95"/>
<polygon fill="#63b8ff" stroke="#63b8ff" points="108.83,-75.76 98.36,-74.17 105.56,-81.95 108.83,-75.76"/>
</a>
</g>
</g>
<!-- Node11&#45;&gt;Node10 -->
<g id="edge14_Node000011_Node000010" class="edge">
<title>Node11&#45;&gt;Node10</title>
<g id="a_edge14_Node000011_Node000010"><a xlink:title=" ">
<path fill="none" stroke="#63b8ff" d="M199.77,-112.93C228.46,-103.93 285.34,-86.09 320.58,-75.04"/>
<polygon fill="#63b8ff" stroke="#63b8ff" points="321.84,-78.31 330.33,-71.98 319.74,-71.63 321.84,-78.31"/>
</a>
</g>
</g>
<!-- Node12 -->
<g id="Node000012" class="node">
<title>Node12</title>
<g id="a_Node000012"><a xlink:href="basic_8h.html" target="_top" xlink:title="Basic object.">
<polygon fill="white" stroke="#666666" points="207.5,-74 156.5,-74 156.5,-55 207.5,-55 207.5,-74"/>
<text text-anchor="middle" x="182" y="-62" font-family="Helvetica,sans-Serif" font-size="10.00">basic.h</text>
</a>
</g>
</g>
<!-- Node11&#45;&gt;Node12 -->
<g id="edge16_Node000011_Node000012" class="edge">
<title>Node11&#45;&gt;Node12</title>
<g id="a_edge16_Node000011_Node000012"><a xlink:title=" ">
<path fill="none" stroke="#63b8ff" d="M182,-109.75C182,-102.8 182,-92.85 182,-84.13"/>
<polygon fill="#63b8ff" stroke="#63b8ff" points="185.5,-84.09 182,-74.09 178.5,-84.09 185.5,-84.09"/>
</a>
</g>
</g>
<!-- Node14 -->
<g id="Node000014" class="node">
<title>Node14</title>
<g id="a_Node000014"><a xlink:href="frame_8h.html" target="_top" xlink:title=" ">
<polygon fill="white" stroke="#666666" points="312,-74 226,-74 226,-55 312,-55 312,-74"/>
<text text-anchor="middle" x="269" y="-62" font-family="Helvetica,sans-Serif" font-size="10.00">splice/frame.h</text>
</a>
</g>
</g>
<!-- Node11&#45;&gt;Node14 -->
<g id="edge18_Node000011_Node000014" class="edge">
<title>Node11&#45;&gt;Node14</title>
<g id="a_edge18_Node000011_Node000014"><a xlink:title=" ">
<path fill="none" stroke="#63b8ff" d="M195.98,-109.98C209.47,-101.77 230.13,-89.18 246.04,-79.49"/>
<polygon fill="#63b8ff" stroke="#63b8ff" points="248.05,-82.36 254.77,-74.17 244.41,-76.38 248.05,-82.36"/>
</a>
</g>
</g>
<!-- Node13 -->
<g id="Node000013" class="node">
<title>Node13</title>
<g id="a_Node000013"><a xlink:href="sidebag_8h.html" target="_top" xlink:title="Sidebag for splice.">
<polygon fill="white" stroke="#666666" points="229.5,-19 134.5,-19 134.5,0 229.5,0 229.5,-19"/>
<text text-anchor="middle" x="182" y="-7" font-family="Helvetica,sans-Serif" font-size="10.00">splice/sidebag.h</text>
</a>
</g>
</g>
<!-- Node12&#45;&gt;Node13 -->
<g id="edge17_Node000012_Node000013" class="edge">
<title>Node12&#45;&gt;Node13</title>
<g id="a_edge17_Node000012_Node000013"><a xlink:title=" ">
<path fill="none" stroke="#63b8ff" d="M182,-54.75C182,-47.8 182,-37.85 182,-29.13"/>
<polygon fill="#63b8ff" stroke="#63b8ff" points="185.5,-29.09 182,-19.09 178.5,-29.09 185.5,-29.09"/>
</a>
</g>
</g>
<!-- Node15&#45;&gt;Node6 -->
<g id="edge22_Node000015_Node000006" class="edge">
<title>Node15&#45;&gt;Node6</title>
<g id="a_edge22_Node000015_Node000006"><a xlink:title=" ">
<path fill="none" stroke="#63b8ff" d="M224.53,-335.19C246.76,-330.39 281.16,-319.14 297,-294 327.59,-245.46 311.55,-173.1 301.34,-139.24"/>
<polygon fill="#63b8ff" stroke="#63b8ff" points="304.55,-137.79 298.17,-129.33 297.88,-139.92 304.55,-137.79"/>
</a>
</g>
</g>
<!-- Node15&#45;&gt;Node7 -->
<g id="edge23_Node000015_Node000007" class="edge">
<title>Node15&#45;&gt;Node7</title>
<g id="a_edge23_Node000015_Node000007"><a xlink:title=" ">
<path fill="none" stroke="#63b8ff" d="M205.79,-329.83C209.88,-310.2 220.39,-260.85 231,-220 233.23,-211.43 235.94,-202.01 238.31,-194.05"/>
<polygon fill="#63b8ff" stroke="#63b8ff" points="241.71,-194.91 241.25,-184.32 235.01,-192.88 241.71,-194.91"/>
</a>
</g>
</g>
<!-- Node15&#45;&gt;Node9 -->
<g id="edge25_Node000015_Node000009" class="edge">
<title>Node15&#45;&gt;Node9</title>
<g id="a_edge25_Node000015_Node000009"><a xlink:title=" ">
<path fill="none" stroke="#63b8ff" d="M184.69,-330C153.63,-314.86 96,-280.09 96,-230.5 96,-230.5 96,-230.5 96,-173.5 96,-141.93 90.04,-105.59 85.9,-84.14"/>
<polygon fill="#63b8ff" stroke="#63b8ff" points="89.29,-83.24 83.89,-74.13 82.43,-84.62 89.29,-83.24"/>
</a>
</g>
</g>
<!-- Node15&#45;&gt;Node11 -->
<g id="edge24_Node000015_Node000011" class="edge">
<title>Node15&#45;&gt;Node11</title>
<g id="a_edge24_Node000015_Node000011"><a xlink:title=" ">
<path fill="none" stroke="#63b8ff" d="M200.06,-329.69C189.91,-306.45 163.05,-241.37 154,-184 152.68,-175.66 151.66,-173.11 154,-165 156.87,-155.06 162.68,-145.2 168.28,-137.29"/>
<polygon fill="#63b8ff" stroke="#63b8ff" points="171.08,-139.39 174.33,-129.3 165.5,-135.16 171.08,-139.39"/>
</a>
</g>
</g>
<!-- Node16 -->
<g id="Node000016" class="node">
<title>Node16</title>
<g id="a_Node000016"><a xlink:href="sound_8h.html" target="_top" xlink:title="Sound playback.">
<polygon fill="white" stroke="#666666" points="287.5,-294 232.5,-294 232.5,-275 287.5,-275 287.5,-294"/>
<text text-anchor="middle" x="260" y="-282" font-family="Helvetica,sans-Serif" font-size="10.00">sound.h</text>
</a>
</g>
</g>
<!-- Node15&#45;&gt;Node16 -->
<g id="edge20_Node000015_Node000016" class="edge">
<title>Node15&#45;&gt;Node16</title>
<g id="a_edge20_Node000015_Node000016"><a xlink:title=" ">
<path fill="none" stroke="#63b8ff" d="M213,-329.98C221.19,-322.23 233.51,-310.58 243.47,-301.14"/>
<polygon fill="#63b8ff" stroke="#63b8ff" points="245.98,-303.59 250.84,-294.17 241.17,-298.5 245.98,-303.59"/>
</a>
</g>
</g>
<!-- Node16&#45;&gt;Node5 -->
<g id="edge21_Node000016_Node000005" class="edge">
<title>Node16&#45;&gt;Node5</title>
<g id="a_edge21_Node000016_Node000005"><a xlink:title=" ">
<path fill="none" stroke="#63b8ff" d="M260,-274.75C260,-267.8 260,-257.85 260,-249.13"/>
<polygon fill="#63b8ff" stroke="#63b8ff" points="263.5,-249.09 260,-239.09 256.5,-249.09 263.5,-249.09"/>
</a>
</g>
</g>
</g>
</svg>
</svg>

<style type='text/css'>
<![CDATA[
[data-mouse-over-selected='false'] { opacity: 0.7; }
[data-mouse-over-selected='true']  { opacity: 1.0; }
]]>
</style>
<script type="application/ecmascript"><![CDATA[
document.addEventListener('DOMContentLoaded', (event) => {
  highlightEdges();
  highlightAdjacentNodes();
});
]]></script>
</svg>
