<?xml version="1.0" encoding="UTF-8" standalone="no"?>
<!DOCTYPE svg PUBLIC "-//W3C//DTD SVG 1.1//EN"
 "http://www.w3.org/Graphics/SVG/1.1/DTD/svg11.dtd">
<!-- Generated by graphviz version 2.43.0 (0)
 -->
<!-- Title: src/P2/dialog.c Pages: 1 -->
<svg width="904pt" height="467pt"
 viewBox="0.00 0.00 903.50 467.00" xmlns="http://www.w3.org/2000/svg" xmlns:xlink="http://www.w3.org/1999/xlink">
<g id="graph0" class="graph" transform="scale(1 1) rotate(0) translate(4 463)">
<title>src/P2/dialog.c</title>
<!-- Node1 -->
<g id="Node000001" class="node">
<title>Node1</title>
<g id="a_Node000001"><a xlink:title=" ">
<polygon fill="#999999" stroke="#666666" points="308,-459 221,-459 221,-440 308,-440 308,-459"/>
<text text-anchor="middle" x="264.5" y="-447" font-family="Helvetica,sans-Serif" font-size="10.00">src/P2/dialog.c</text>
</a>
</g>
</g>
<!-- Node2 -->
<g id="Node000002" class="node">
<title>Node2</title>
<g id="a_Node000002"><a xlink:href="dialog_8h.html" target="_top" xlink:title="Declarations for the dialog system.">
<polygon fill="white" stroke="#666666" points="260.5,-404 204.5,-404 204.5,-385 260.5,-385 260.5,-404"/>
<text text-anchor="middle" x="232.5" y="-392" font-family="Helvetica,sans-Serif" font-size="10.00">dialog.h</text>
</a>
</g>
</g>
<!-- Node1&#45;&gt;Node2 -->
<g id="edge1_Node000001_Node000002" class="edge">
<title>Node1&#45;&gt;Node2</title>
<g id="a_edge1_Node000001_Node000002"><a xlink:title=" ">
<path fill="none" stroke="#63b8ff" d="M259.22,-439.75C254.79,-432.42 248.34,-421.73 242.88,-412.7"/>
<polygon fill="#63b8ff" stroke="#63b8ff" points="245.85,-410.84 237.69,-404.09 239.86,-414.46 245.85,-410.84"/>
</a>
</g>
</g>
<!-- Node17 -->
<g id="Node000017" class="node">
<title>Node17</title>
<g id="a_Node000017"><a xlink:href="sound_8h.html" target="_top" xlink:title="Sound playback.">
<polygon fill="white" stroke="#666666" points="200,-294 145,-294 145,-275 200,-275 200,-294"/>
<text text-anchor="middle" x="172.5" y="-282" font-family="Helvetica,sans-Serif" font-size="10.00">sound.h</text>
</a>
</g>
</g>
<!-- Node1&#45;&gt;Node17 -->
<g id="edge51_Node000001_Node000017" class="edge">
<title>Node1&#45;&gt;Node17</title>
<g id="a_edge51_Node000001_Node000017"><a xlink:title=" ">
<path fill="none" stroke="#63b8ff" d="M242.39,-439.86C226.83,-432.62 206.84,-420.76 195.5,-404 174.92,-373.58 171.74,-329.28 171.78,-304.35"/>
<polygon fill="#63b8ff" stroke="#63b8ff" points="175.28,-304.17 171.98,-294.1 168.28,-304.03 175.28,-304.17"/>
</a>
</g>
</g>
<!-- Node18 -->
<g id="Node000018" class="node">
<title>Node18</title>
<g id="a_Node000018"><a xlink:href="asega_8h.html" target="_top" xlink:title=" ">
<polygon fill="white" stroke="#666666" points="224,-129 169,-129 169,-110 224,-110 224,-129"/>
<text text-anchor="middle" x="196.5" y="-117" font-family="Helvetica,sans-Serif" font-size="10.00">asega.h</text>
</a>
</g>
</g>
<!-- Node1&#45;&gt;Node18 -->
<g id="edge27_Node000001_Node000018" class="edge">
<title>Node1&#45;&gt;Node18</title>
<g id="a_edge27_Node000001_Node000018"><a xlink:title=" ">
<path fill="none" stroke="#63b8ff" d="M239.98,-439.98C222.14,-432.74 198.42,-420.83 182.5,-404 145.34,-364.71 142.34,-346.76 130.5,-294 117.13,-234.44 159.67,-168.04 182.71,-137.52"/>
<polygon fill="#63b8ff" stroke="#63b8ff" points="185.77,-139.29 189.15,-129.25 180.25,-134.99 185.77,-139.29"/>
</a>
</g>
</g>
<!-- Node19 -->
<g id="Node000019" class="node">
<title>Node19</title>
<g id="a_Node000019"><a xlink:href="screen_8h.html" target="_top" xlink:title="GUI elements.">
<polygon fill="white" stroke="#666666" points="672.5,-349 614.5,-349 614.5,-330 672.5,-330 672.5,-349"/>
<text text-anchor="middle" x="643.5" y="-337" font-family="Helvetica,sans-Serif" font-size="10.00">screen.h</text>
</a>
</g>
</g>
<!-- Node1&#45;&gt;Node19 -->
<g id="edge30_Node000001_Node000019" class="edge">
<title>Node1&#45;&gt;Node19</title>
<g id="a_edge30_Node000001_Node000019"><a xlink:title=" ">
<path fill="none" stroke="#63b8ff" d="M303.06,-439.92C340.04,-431.49 397.36,-417.91 446.5,-404 504.07,-387.71 570.09,-365.74 609.21,-352.38"/>
<polygon fill="#63b8ff" stroke="#63b8ff" points="610.47,-355.65 618.8,-349.1 608.2,-349.03 610.47,-355.65"/>
</a>
</g>
</g>
<!-- Node28 -->
<g id="Node000028" class="node">
<title>Node28</title>
<g id="a_Node000028"><a xlink:href="wipe_8h.html" target="_top" xlink:title="Screen wipes.">
<polygon fill="white" stroke="#666666" points="437,-404 388,-404 388,-385 437,-385 437,-404"/>
<text text-anchor="middle" x="412.5" y="-392" font-family="Helvetica,sans-Serif" font-size="10.00">wipe.h</text>
</a>
</g>
</g>
<!-- Node1&#45;&gt;Node28 -->
<g id="edge42_Node000001_Node000028" class="edge">
<title>Node1&#45;&gt;Node28</title>
<g id="a_edge42_Node000001_Node000028"><a xlink:title=" ">
<path fill="none" stroke="#63b8ff" d="M288.28,-439.98C312.73,-431.23 351.03,-417.51 378.65,-407.62"/>
<polygon fill="#63b8ff" stroke="#63b8ff" points="380.05,-410.84 388.29,-404.17 377.69,-404.25 380.05,-410.84"/>
</a>
</g>
</g>
<!-- Node33 -->
<g id="Node000033" class="node">
<title>Node33</title>
<g id="a_Node000033"><a xlink:href="ui_8h.html" target="_top" xlink:title="User interface.">
<polygon fill="white" stroke="#666666" points="320,-404 285,-404 285,-385 320,-385 320,-404"/>
<text text-anchor="middle" x="302.5" y="-392" font-family="Helvetica,sans-Serif" font-size="10.00">ui.h</text>
</a>
</g>
</g>
<!-- Node1&#45;&gt;Node33 -->
<g id="edge52_Node000001_Node000033" class="edge">
<title>Node1&#45;&gt;Node33</title>
<g id="a_edge52_Node000001_Node000033"><a xlink:title=" ">
<path fill="none" stroke="#63b8ff" d="M270.77,-439.75C276.09,-432.34 283.86,-421.5 290.38,-412.41"/>
<polygon fill="#63b8ff" stroke="#63b8ff" points="293.36,-414.26 296.34,-404.09 287.67,-410.18 293.36,-414.26"/>
</a>
</g>
</g>
<!-- Node3 -->
<g id="Node000003" class="node">
<title>Node3</title>
<g id="a_Node000003"><a xlink:href="game_8h.html" target="_top" xlink:title="Game state and level management.">
<polygon fill="white" stroke="#666666" points="637,-294 584,-294 584,-275 637,-275 637,-294"/>
<text text-anchor="middle" x="610.5" y="-282" font-family="Helvetica,sans-Serif" font-size="10.00">game.h</text>
</a>
</g>
</g>
<!-- Node2&#45;&gt;Node3 -->
<g id="edge2_Node000002_Node000003" class="edge">
<title>Node2&#45;&gt;Node3</title>
<g id="a_edge2_Node000002_Node000003"><a xlink:title=" ">
<path fill="none" stroke="#63b8ff" d="M260.67,-387.63C265.6,-386.69 270.69,-385.77 275.5,-385 340.06,-374.65 511.73,-383.12 567.5,-349 584.66,-338.5 596.55,-318.27 603.4,-303.45"/>
<polygon fill="#63b8ff" stroke="#63b8ff" points="606.63,-304.82 607.35,-294.25 600.19,-302.06 606.63,-304.82"/>
</a>
</g>
</g>
<!-- Node6 -->
<g id="Node000006" class="node">
<title>Node6</title>
<g id="a_Node000006"><a xlink:href="util_8h.html" target="_top" xlink:title="Utility functions.">
<polygon fill="white" stroke="#666666" points="195,-239 154,-239 154,-220 195,-220 195,-239"/>
<text text-anchor="middle" x="174.5" y="-227" font-family="Helvetica,sans-Serif" font-size="10.00">util.h</text>
</a>
</g>
</g>
<!-- Node2&#45;&gt;Node6 -->
<g id="edge5_Node000002_Node000006" class="edge">
<title>Node2&#45;&gt;Node6</title>
<g id="a_edge5_Node000002_Node000006"><a xlink:title=" ">
<path fill="none" stroke="#63b8ff" d="M218.86,-384.82C196.42,-369.62 152.5,-335.79 135.5,-294 128.39,-276.53 142.02,-258.37 155.08,-245.97"/>
<polygon fill="#63b8ff" stroke="#63b8ff" points="157.75,-248.28 162.94,-239.05 153.12,-243.03 157.75,-248.28"/>
</a>
</g>
</g>
<!-- Node16 -->
<g id="Node000016" class="node">
<title>Node16</title>
<g id="a_Node000016"><a xlink:href="alo_8h.html" target="_top" xlink:title=" ">
<polygon fill="white" stroke="#666666" points="250,-349 209,-349 209,-330 250,-330 250,-349"/>
<text text-anchor="middle" x="229.5" y="-337" font-family="Helvetica,sans-Serif" font-size="10.00">alo.h</text>
</a>
</g>
</g>
<!-- Node2&#45;&gt;Node16 -->
<g id="edge20_Node000002_Node000016" class="edge">
<title>Node2&#45;&gt;Node16</title>
<g id="a_edge20_Node000002_Node000016"><a xlink:title=" ">
<path fill="none" stroke="#63b8ff" d="M232,-384.75C231.61,-377.8 231.05,-367.85 230.55,-359.13"/>
<polygon fill="#63b8ff" stroke="#63b8ff" points="234.05,-358.88 229.99,-349.09 227.06,-359.27 234.05,-358.88"/>
</a>
</g>
</g>
<!-- Node4 -->
<g id="Node000004" class="node">
<title>Node4</title>
<g id="a_Node000004"><a xlink:href="oid_8h.html" target="_top" xlink:title="Object IDs.">
<polygon fill="white" stroke="#666666" points="479,-19 438,-19 438,0 479,0 479,-19"/>
<text text-anchor="middle" x="458.5" y="-7" font-family="Helvetica,sans-Serif" font-size="10.00">oid.h</text>
</a>
</g>
</g>
<!-- Node3&#45;&gt;Node4 -->
<g id="edge3_Node000003_Node000004" class="edge">
<title>Node3&#45;&gt;Node4</title>
<g id="a_edge3_Node000003_Node000004"><a xlink:title=" ">
<path fill="none" stroke="#63b8ff" d="M608.07,-274.9C603.16,-256.72 592.5,-212.95 592.5,-175.5 592.5,-175.5 592.5,-175.5 592.5,-118.5 592.5,-65.48 528.11,-34.07 488.6,-19.79"/>
<polygon fill="#63b8ff" stroke="#63b8ff" points="489.74,-16.48 479.14,-16.52 487.45,-23.09 489.74,-16.48"/>
</a>
</g>
</g>
<!-- Node5 -->
<g id="Node000005" class="node">
<title>Node5</title>
<g id="a_Node000005"><a xlink:href="cid_8h.html" target="_top" xlink:title="Class IDs.">
<polygon fill="white" stroke="#666666" points="564.5,-239 524.5,-239 524.5,-220 564.5,-220 564.5,-239"/>
<text text-anchor="middle" x="544.5" y="-227" font-family="Helvetica,sans-Serif" font-size="10.00">cid.h</text>
</a>
</g>
</g>
<!-- Node3&#45;&gt;Node5 -->
<g id="edge4_Node000003_Node000005" class="edge">
<title>Node3&#45;&gt;Node5</title>
<g id="a_edge4_Node000003_Node000005"><a xlink:title=" ">
<path fill="none" stroke="#63b8ff" d="M599.9,-274.98C590.04,-267.07 575.15,-255.11 563.28,-245.58"/>
<polygon fill="#63b8ff" stroke="#63b8ff" points="565.29,-242.7 555.3,-239.17 560.9,-248.16 565.29,-242.7"/>
</a>
</g>
</g>
<!-- Node7 -->
<g id="Node000007" class="node">
<title>Node7</title>
<g id="a_Node000007"><a xlink:href="vec_8h.html" target="_top" xlink:title="Vector math.">
<polygon fill="white" stroke="#666666" points="290,-129 247,-129 247,-110 290,-110 290,-129"/>
<text text-anchor="middle" x="268.5" y="-117" font-family="Helvetica,sans-Serif" font-size="10.00">vec.h</text>
</a>
</g>
</g>
<!-- Node6&#45;&gt;Node7 -->
<g id="edge6_Node000006_Node000007" class="edge">
<title>Node6&#45;&gt;Node7</title>
<g id="a_edge6_Node000006_Node000007"><a xlink:title=" ">
<path fill="none" stroke="#63b8ff" d="M175.45,-219.8C177.29,-206.66 182.35,-181.55 195.5,-165 206.48,-151.18 223.02,-140.59 237.58,-133.22"/>
<polygon fill="#63b8ff" stroke="#63b8ff" points="239.26,-136.3 246.78,-128.84 236.25,-129.98 239.26,-136.3"/>
</a>
</g>
</g>
<!-- Node8 -->
<g id="Node000008" class="node">
<title>Node8</title>
<g id="a_Node000008"><a xlink:href="mat_8h.html" target="_top" xlink:title="3x3 and 4x4 matrix types.">
<polygon fill="white" stroke="#666666" points="250,-184 205,-184 205,-165 250,-165 250,-184"/>
<text text-anchor="middle" x="227.5" y="-172" font-family="Helvetica,sans-Serif" font-size="10.00">mat.h</text>
</a>
</g>
</g>
<!-- Node6&#45;&gt;Node8 -->
<g id="edge7_Node000006_Node000008" class="edge">
<title>Node6&#45;&gt;Node8</title>
<g id="a_edge7_Node000006_Node000008"><a xlink:title=" ">
<path fill="none" stroke="#63b8ff" d="M183.25,-219.75C190.97,-212.03 202.4,-200.6 211.72,-191.28"/>
<polygon fill="#63b8ff" stroke="#63b8ff" points="214.31,-193.64 218.91,-184.09 209.36,-188.69 214.31,-193.64"/>
</a>
</g>
</g>
<!-- Node9 -->
<g id="Node000009" class="node">
<title>Node9</title>
<g id="a_Node000009"><a xlink:href="sm_8h.html" target="_top" xlink:title="Probabilistic finite state machines.">
<polygon fill="white" stroke="#666666" points="110,-184 69,-184 69,-165 110,-165 110,-184"/>
<text text-anchor="middle" x="89.5" y="-172" font-family="Helvetica,sans-Serif" font-size="10.00">sm.h</text>
</a>
</g>
</g>
<!-- Node6&#45;&gt;Node9 -->
<g id="edge9_Node000006_Node000009" class="edge">
<title>Node6&#45;&gt;Node9</title>
<g id="a_edge9_Node000006_Node000009"><a xlink:title=" ">
<path fill="none" stroke="#63b8ff" d="M160.84,-219.98C147.66,-211.77 127.47,-199.18 111.93,-189.49"/>
<polygon fill="#63b8ff" stroke="#63b8ff" points="113.74,-186.49 103.41,-184.17 110.04,-192.43 113.74,-186.49"/>
</a>
</g>
</g>
<!-- Node8&#45;&gt;Node7 -->
<g id="edge8_Node000008_Node000007" class="edge">
<title>Node8&#45;&gt;Node7</title>
<g id="a_edge8_Node000008_Node000007"><a xlink:title=" ">
<path fill="none" stroke="#63b8ff" d="M234.27,-164.75C240.06,-157.26 248.56,-146.28 255.64,-137.13"/>
<polygon fill="#63b8ff" stroke="#63b8ff" points="258.51,-139.14 261.86,-129.09 252.97,-134.86 258.51,-139.14"/>
</a>
</g>
</g>
<!-- Node10 -->
<g id="Node000010" class="node">
<title>Node10</title>
<g id="a_Node000010"><a xlink:href="dl_8h.html" target="_top" xlink:title="Doubly&#45;linked list.">
<polygon fill="white" stroke="#666666" points="307,-74 272,-74 272,-55 307,-55 307,-74"/>
<text text-anchor="middle" x="289.5" y="-62" font-family="Helvetica,sans-Serif" font-size="10.00">dl.h</text>
</a>
</g>
</g>
<!-- Node9&#45;&gt;Node10 -->
<g id="edge10_Node000009_Node000010" class="edge">
<title>Node9&#45;&gt;Node10</title>
<g id="a_edge10_Node000009_Node000010"><a xlink:title=" ">
<path fill="none" stroke="#63b8ff" d="M96.83,-164.9C108.71,-151.44 133.5,-125.35 159.5,-110 177.11,-99.6 229.44,-83.17 262.09,-73.45"/>
<polygon fill="#63b8ff" stroke="#63b8ff" points="263.32,-76.74 271.92,-70.55 261.34,-70.02 263.32,-76.74"/>
</a>
</g>
</g>
<!-- Node11 -->
<g id="Node000011" class="node">
<title>Node11</title>
<g id="a_Node000011"><a xlink:href="mq_8h.html" target="_top" xlink:title="Message queue.">
<polygon fill="white" stroke="#666666" points="41,-74 0,-74 0,-55 41,-55 41,-74"/>
<text text-anchor="middle" x="20.5" y="-62" font-family="Helvetica,sans-Serif" font-size="10.00">mq.h</text>
</a>
</g>
</g>
<!-- Node9&#45;&gt;Node11 -->
<g id="edge12_Node000009_Node000011" class="edge">
<title>Node9&#45;&gt;Node11</title>
<g id="a_edge12_Node000009_Node000011"><a xlink:title=" ">
<path fill="none" stroke="#63b8ff" d="M83.85,-164.66C72.42,-146.77 46.38,-106 31.48,-82.69"/>
<polygon fill="#63b8ff" stroke="#63b8ff" points="34.37,-80.7 26.03,-74.16 28.47,-84.47 34.37,-80.7"/>
</a>
</g>
</g>
<!-- Node12 -->
<g id="Node000012" class="node">
<title>Node12</title>
<g id="a_Node000012"><a xlink:href="lo_8h.html" target="_top" xlink:title="Level objects.">
<polygon fill="white" stroke="#666666" points="112,-129 77,-129 77,-110 112,-110 112,-129"/>
<text text-anchor="middle" x="94.5" y="-117" font-family="Helvetica,sans-Serif" font-size="10.00">lo.h</text>
</a>
</g>
</g>
<!-- Node9&#45;&gt;Node12 -->
<g id="edge13_Node000009_Node000012" class="edge">
<title>Node9&#45;&gt;Node12</title>
<g id="a_edge13_Node000009_Node000012"><a xlink:title=" ">
<path fill="none" stroke="#63b8ff" d="M90.33,-164.75C90.98,-157.8 91.92,-147.85 92.74,-139.13"/>
<polygon fill="#63b8ff" stroke="#63b8ff" points="96.23,-139.37 93.69,-129.09 89.27,-138.72 96.23,-139.37"/>
</a>
</g>
</g>
<!-- Node10&#45;&gt;Node4 -->
<g id="edge11_Node000010_Node000004" class="edge">
<title>Node10&#45;&gt;Node4</title>
<g id="a_edge11_Node000010_Node000004"><a xlink:title=" ">
<path fill="none" stroke="#63b8ff" d="M307.27,-57.93C335.96,-48.93 392.84,-31.09 428.08,-20.04"/>
<polygon fill="#63b8ff" stroke="#63b8ff" points="429.34,-23.31 437.83,-16.98 427.24,-16.63 429.34,-23.31"/>
</a>
</g>
</g>
<!-- Node12&#45;&gt;Node4 -->
<g id="edge16_Node000012_Node000004" class="edge">
<title>Node12&#45;&gt;Node4</title>
<g id="a_edge16_Node000012_Node000004"><a xlink:title=" ">
<path fill="none" stroke="#63b8ff" d="M112.28,-113.12C137.39,-105.35 184.54,-90.14 223.5,-74 241.31,-66.62 244.31,-61.4 262.5,-55 319.34,-35 388.67,-21.74 427.78,-15.22"/>
<polygon fill="#63b8ff" stroke="#63b8ff" points="428.44,-18.66 437.75,-13.6 427.31,-11.75 428.44,-18.66"/>
</a>
</g>
</g>
<!-- Node12&#45;&gt;Node10 -->
<g id="edge14_Node000012_Node000010" class="edge">
<title>Node12&#45;&gt;Node10</title>
<g id="a_edge14_Node000012_Node000010"><a xlink:title=" ">
<path fill="none" stroke="#63b8ff" d="M112.15,-113.7C146.22,-104.44 221.26,-84.05 261.95,-72.99"/>
<polygon fill="#63b8ff" stroke="#63b8ff" points="263.02,-76.32 271.75,-70.32 261.18,-69.57 263.02,-76.32"/>
</a>
</g>
</g>
<!-- Node12&#45;&gt;Node11 -->
<g id="edge15_Node000012_Node000011" class="edge">
<title>Node12&#45;&gt;Node11</title>
<g id="a_edge15_Node000012_Node000011"><a xlink:title=" ">
<path fill="none" stroke="#63b8ff" d="M82.61,-109.98C71.35,-101.92 54.21,-89.65 40.79,-80.03"/>
<polygon fill="#63b8ff" stroke="#63b8ff" points="42.77,-77.15 32.61,-74.17 38.7,-82.84 42.77,-77.15"/>
</a>
</g>
</g>
<!-- Node13 -->
<g id="Node000013" class="node">
<title>Node13</title>
<g id="a_Node000013"><a xlink:href="basic_8h.html" target="_top" xlink:title="Basic object.">
<polygon fill="white" stroke="#666666" points="215,-74 164,-74 164,-55 215,-55 215,-74"/>
<text text-anchor="middle" x="189.5" y="-62" font-family="Helvetica,sans-Serif" font-size="10.00">basic.h</text>
</a>
</g>
</g>
<!-- Node12&#45;&gt;Node13 -->
<g id="edge17_Node000012_Node000013" class="edge">
<title>Node12&#45;&gt;Node13</title>
<g id="a_edge17_Node000012_Node000013"><a xlink:title=" ">
<path fill="none" stroke="#63b8ff" d="M109.76,-109.98C124.63,-101.69 147.48,-88.94 164.92,-79.22"/>
<polygon fill="#63b8ff" stroke="#63b8ff" points="166.93,-82.1 173.96,-74.17 163.52,-75.99 166.93,-82.1"/>
</a>
</g>
</g>
<!-- Node15 -->
<g id="Node000015" class="node">
<title>Node15</title>
<g id="a_Node000015"><a xlink:href="frame_8h.html" target="_top" xlink:title=" ">
<polygon fill="white" stroke="#666666" points="145.5,-74 59.5,-74 59.5,-55 145.5,-55 145.5,-74"/>
<text text-anchor="middle" x="102.5" y="-62" font-family="Helvetica,sans-Serif" font-size="10.00">splice/frame.h</text>
</a>
</g>
</g>
<!-- Node12&#45;&gt;Node15 -->
<g id="edge19_Node000012_Node000015" class="edge">
<title>Node12&#45;&gt;Node15</title>
<g id="a_edge19_Node000012_Node000015"><a xlink:title=" ">
<path fill="none" stroke="#63b8ff" d="M95.82,-109.75C96.87,-102.8 98.37,-92.85 99.69,-84.13"/>
<polygon fill="#63b8ff" stroke="#63b8ff" points="103.17,-84.5 101.2,-74.09 96.25,-83.45 103.17,-84.5"/>
</a>
</g>
</g>
<!-- Node14 -->
<g id="Node000014" class="node">
<title>Node14</title>
<g id="a_Node000014"><a xlink:href="sidebag_8h.html" target="_top" xlink:title="Sidebag for splice.">
<polygon fill="white" stroke="#666666" points="237,-19 142,-19 142,0 237,0 237,-19"/>
<text text-anchor="middle" x="189.5" y="-7" font-family="Helvetica,sans-Serif" font-size="10.00">splice/sidebag.h</text>
</a>
</g>
</g>
<!-- Node13&#45;&gt;Node14 -->
<g id="edge18_Node000013_Node000014" class="edge">
<title>Node13&#45;&gt;Node14</title>
<g id="a_edge18_Node000013_Node000014"><a xlink:title=" ">
<path fill="none" stroke="#63b8ff" d="M189.5,-54.75C189.5,-47.8 189.5,-37.85 189.5,-29.13"/>
<polygon fill="#63b8ff" stroke="#63b8ff" points="193,-29.09 189.5,-19.09 186,-29.09 193,-29.09"/>
</a>
</g>
</g>
<!-- Node16&#45;&gt;Node7 -->
<g id="edge23_Node000016_Node000007" class="edge">
<title>Node16&#45;&gt;Node7</title>
<g id="a_edge23_Node000016_Node000007"><a xlink:title=" ">
<path fill="none" stroke="#63b8ff" d="M232.72,-329.75C235.87,-320.86 240.62,-306.63 243.5,-294 256.14,-238.5 263.66,-171.49 266.79,-139.41"/>
<polygon fill="#63b8ff" stroke="#63b8ff" points="270.29,-139.54 267.74,-129.26 263.32,-138.88 270.29,-139.54"/>
</a>
</g>
</g>
<!-- Node16&#45;&gt;Node8 -->
<g id="edge24_Node000016_Node000008" class="edge">
<title>Node16&#45;&gt;Node8</title>
<g id="a_edge24_Node000016_Node000008"><a xlink:title=" ">
<path fill="none" stroke="#63b8ff" d="M229.39,-329.74C229.08,-304.31 228.17,-230.08 227.74,-194.69"/>
<polygon fill="#63b8ff" stroke="#63b8ff" points="231.23,-194.26 227.61,-184.31 224.23,-194.35 231.23,-194.26"/>
</a>
</g>
</g>
<!-- Node16&#45;&gt;Node10 -->
<g id="edge26_Node000016_Node000010" class="edge">
<title>Node16&#45;&gt;Node10</title>
<g id="a_edge26_Node000016_Node000010"><a xlink:title=" ">
<path fill="none" stroke="#63b8ff" d="M250.23,-330.01C282.85,-315.12 342.5,-280.98 342.5,-230.5 342.5,-230.5 342.5,-230.5 342.5,-173.5 342.5,-138.02 319.17,-102.08 303.46,-81.9"/>
<polygon fill="#63b8ff" stroke="#63b8ff" points="306.11,-79.61 297.09,-74.04 300.67,-84.01 306.11,-79.61"/>
</a>
</g>
</g>
<!-- Node16&#45;&gt;Node12 -->
<g id="edge25_Node000016_Node000012" class="edge">
<title>Node16&#45;&gt;Node12</title>
<g id="a_edge25_Node000016_Node000012"><a xlink:title=" ">
<path fill="none" stroke="#63b8ff" d="M208.66,-332.18C188.34,-325.25 157.38,-312.59 135.5,-294 90.21,-255.53 77.19,-240.73 59.5,-184 56.99,-175.94 56.74,-172.98 59.5,-165 63.17,-154.38 70.54,-144.38 77.58,-136.55"/>
<polygon fill="#63b8ff" stroke="#63b8ff" points="80.2,-138.88 84.62,-129.25 75.16,-134.02 80.2,-138.88"/>
</a>
</g>
</g>
<!-- Node16&#45;&gt;Node17 -->
<g id="edge21_Node000016_Node000017" class="edge">
<title>Node16&#45;&gt;Node17</title>
<g id="a_edge21_Node000016_Node000017"><a xlink:title=" ">
<path fill="none" stroke="#63b8ff" d="M220.34,-329.98C212,-322.23 199.47,-310.58 189.32,-301.14"/>
<polygon fill="#63b8ff" stroke="#63b8ff" points="191.53,-298.42 181.82,-294.17 186.76,-303.54 191.53,-298.42"/>
</a>
</g>
</g>
<!-- Node17&#45;&gt;Node6 -->
<g id="edge22_Node000017_Node000006" class="edge">
<title>Node17&#45;&gt;Node6</title>
<g id="a_edge22_Node000017_Node000006"><a xlink:title=" ">
<path fill="none" stroke="#63b8ff" d="M172.83,-274.75C173.09,-267.8 173.47,-257.85 173.8,-249.13"/>
<polygon fill="#63b8ff" stroke="#63b8ff" points="177.3,-249.21 174.18,-239.09 170.3,-248.95 177.3,-249.21"/>
</a>
</g>
</g>
<!-- Node18&#45;&gt;Node10 -->
<g id="edge29_Node000018_Node000010" class="edge">
<title>Node18&#45;&gt;Node10</title>
<g id="a_edge29_Node000018_Node000010"><a xlink:title=" ">
<path fill="none" stroke="#63b8ff" d="M211.44,-109.98C226,-101.69 248.37,-88.94 265.43,-79.22"/>
<polygon fill="#63b8ff" stroke="#63b8ff" points="267.33,-82.16 274.29,-74.17 263.86,-76.08 267.33,-82.16"/>
</a>
</g>
</g>
<!-- Node18&#45;&gt;Node13 -->
<g id="edge28_Node000018_Node000013" class="edge">
<title>Node18&#45;&gt;Node13</title>
<g id="a_edge28_Node000018_Node000013"><a xlink:title=" ">
<path fill="none" stroke="#63b8ff" d="M195.34,-109.75C194.43,-102.8 193.11,-92.85 191.96,-84.13"/>
<polygon fill="#63b8ff" stroke="#63b8ff" points="195.41,-83.54 190.63,-74.09 188.47,-84.46 195.41,-83.54"/>
</a>
</g>
</g>
<!-- Node19&#45;&gt;Node3 -->
<g id="edge41_Node000019_Node000003" class="edge">
<title>Node19&#45;&gt;Node3</title>
<g id="a_edge41_Node000019_Node000003"><a xlink:title=" ">
<path fill="none" stroke="#63b8ff" d="M638.05,-329.75C633.49,-322.42 626.83,-311.73 621.21,-302.7"/>
<polygon fill="#63b8ff" stroke="#63b8ff" points="624.1,-300.73 615.85,-294.09 618.16,-304.43 624.1,-300.73"/>
</a>
</g>
</g>
<!-- Node20 -->
<g id="Node000020" class="node">
<title>Node20</title>
<g id="a_Node000020"><a xlink:href="font_8h.html" target="_top" xlink:title="Font system.">
<polygon fill="white" stroke="#666666" points="709,-294 664,-294 664,-275 709,-275 709,-294"/>
<text text-anchor="middle" x="686.5" y="-282" font-family="Helvetica,sans-Serif" font-size="10.00">font.h</text>
</a>
</g>
</g>
<!-- Node19&#45;&gt;Node20 -->
<g id="edge31_Node000019_Node000020" class="edge">
<title>Node19&#45;&gt;Node20</title>
<g id="a_edge31_Node000019_Node000020"><a xlink:title=" ">
<path fill="none" stroke="#63b8ff" d="M650.6,-329.75C656.67,-322.26 665.59,-311.28 673.01,-302.13"/>
<polygon fill="#63b8ff" stroke="#63b8ff" points="675.95,-304.06 679.53,-294.09 670.51,-299.65 675.95,-304.06"/>
</a>
</g>
</g>
<!-- Node21 -->
<g id="Node000021" class="node">
<title>Node21</title>
<g id="a_Node000021"><a xlink:href="gifs_8h.html" target="_top" xlink:title=" ">
<polygon fill="white" stroke="#666666" points="717.5,-239 673.5,-239 673.5,-220 717.5,-220 717.5,-239"/>
<text text-anchor="middle" x="695.5" y="-227" font-family="Helvetica,sans-Serif" font-size="10.00">gifs.h</text>
</a>
</g>
</g>
<!-- Node20&#45;&gt;Node21 -->
<g id="edge32_Node000020_Node000021" class="edge">
<title>Node20&#45;&gt;Node21</title>
<g id="a_edge32_Node000020_Node000021"><a xlink:title=" ">
<path fill="none" stroke="#63b8ff" d="M687.99,-274.75C689.17,-267.8 690.86,-257.85 692.34,-249.13"/>
<polygon fill="#63b8ff" stroke="#63b8ff" points="695.82,-249.53 694.04,-239.09 688.92,-248.36 695.82,-249.53"/>
</a>
</g>
</g>
<!-- Node22 -->
<g id="Node000022" class="node">
<title>Node22</title>
<g id="a_Node000022"><a xlink:href="dmas_8h.html" target="_top" xlink:title="Direct memory access.">
<polygon fill="white" stroke="#666666" points="687,-184 634,-184 634,-165 687,-165 687,-184"/>
<text text-anchor="middle" x="660.5" y="-172" font-family="Helvetica,sans-Serif" font-size="10.00">dmas.h</text>
</a>
</g>
</g>
<!-- Node20&#45;&gt;Node22 -->
<g id="edge37_Node000020_Node000022" class="edge">
<title>Node20&#45;&gt;Node22</title>
<g id="a_edge37_Node000020_Node000022"><a xlink:title=" ">
<path fill="none" stroke="#63b8ff" d="M680.84,-274.71C675.57,-266.02 668.01,-252.16 664.5,-239 660.62,-224.46 659.73,-207.4 659.76,-194.63"/>
<polygon fill="#63b8ff" stroke="#63b8ff" points="663.26,-194.37 659.97,-184.3 656.26,-194.23 663.26,-194.37"/>
</a>
</g>
</g>
<!-- Node25 -->
<g id="Node000025" class="node">
<title>Node25</title>
<g id="a_Node000025"><a xlink:href="eestruct_8h.html" target="_top" xlink:title="Graphics synthesizer.">
<polygon fill="white" stroke="#666666" points="877,-239 776,-239 776,-220 877,-220 877,-239"/>
<text text-anchor="middle" x="826.5" y="-227" font-family="Helvetica,sans-Serif" font-size="10.00">sdk/ee/eestruct.h</text>
</a>
</g>
</g>
<!-- Node20&#45;&gt;Node25 -->
<g id="edge38_Node000020_Node000025" class="edge">
<title>Node20&#45;&gt;Node25</title>
<g id="a_edge38_Node000020_Node000025"><a xlink:title=" ">
<path fill="none" stroke="#63b8ff" d="M708.99,-274.98C732.02,-266.27 768.04,-252.63 794.13,-242.75"/>
<polygon fill="#63b8ff" stroke="#63b8ff" points="795.48,-245.98 803.6,-239.17 793.01,-239.44 795.48,-245.98"/>
</a>
</g>
</g>
<!-- Node21&#45;&gt;Node22 -->
<g id="edge33_Node000021_Node000022" class="edge">
<title>Node21&#45;&gt;Node22</title>
<g id="a_edge33_Node000021_Node000022"><a xlink:title=" ">
<path fill="none" stroke="#63b8ff" d="M689.72,-219.75C684.88,-212.42 677.82,-201.73 671.86,-192.7"/>
<polygon fill="#63b8ff" stroke="#63b8ff" points="674.6,-190.5 666.17,-184.09 668.76,-194.36 674.6,-190.5"/>
</a>
</g>
</g>
<!-- Node22&#45;&gt;Node7 -->
<g id="edge36_Node000022_Node000007" class="edge">
<title>Node22&#45;&gt;Node7</title>
<g id="a_edge36_Node000022_Node000007"><a xlink:title=" ">
<path fill="none" stroke="#63b8ff" d="M633.86,-169.9C564.06,-160.46 376.01,-135.04 300.51,-124.83"/>
<polygon fill="#63b8ff" stroke="#63b8ff" points="300.6,-121.31 290.22,-123.44 299.66,-128.24 300.6,-121.31"/>
</a>
</g>
</g>
<!-- Node23 -->
<g id="Node000023" class="node">
<title>Node23</title>
<g id="a_Node000023"><a xlink:href="libdma_8h.html" target="_top" xlink:title="Direct memory access library.">
<polygon fill="white" stroke="#666666" points="700,-129 621,-129 621,-110 700,-110 700,-129"/>
<text text-anchor="middle" x="660.5" y="-117" font-family="Helvetica,sans-Serif" font-size="10.00">sce/libdma.h</text>
</a>
</g>
</g>
<!-- Node22&#45;&gt;Node23 -->
<g id="edge34_Node000022_Node000023" class="edge">
<title>Node22&#45;&gt;Node23</title>
<g id="a_edge34_Node000022_Node000023"><a xlink:title=" ">
<path fill="none" stroke="#63b8ff" d="M660.5,-164.75C660.5,-157.8 660.5,-147.85 660.5,-139.13"/>
<polygon fill="#63b8ff" stroke="#63b8ff" points="664,-139.09 660.5,-129.09 657,-139.09 664,-139.09"/>
</a>
</g>
</g>
<!-- Node24 -->
<g id="Node000024" class="node">
<title>Node24</title>
<g id="a_Node000024"><a xlink:href="eekernel_8h.html" target="_top" xlink:title=" ">
<polygon fill="white" stroke="#666666" points="821,-129 718,-129 718,-110 821,-110 821,-129"/>
<text text-anchor="middle" x="769.5" y="-117" font-family="Helvetica,sans-Serif" font-size="10.00">sdk/ee/eekernel.h</text>
</a>
</g>
</g>
<!-- Node22&#45;&gt;Node24 -->
<g id="edge35_Node000022_Node000024" class="edge">
<title>Node22&#45;&gt;Node24</title>
<g id="a_edge35_Node000022_Node000024"><a xlink:title=" ">
<path fill="none" stroke="#63b8ff" d="M678.01,-164.98C695.47,-156.5 722.51,-143.35 742.67,-133.54"/>
<polygon fill="#63b8ff" stroke="#63b8ff" points="744.21,-136.69 751.67,-129.17 741.14,-130.4 744.21,-136.69"/>
</a>
</g>
</g>
<!-- Node26 -->
<g id="Node000026" class="node">
<title>Node26</title>
<g id="a_Node000026"><a xlink:href="types_8h.html" target="_top" xlink:title="Common types used across the codebase.">
<polygon fill="white" stroke="#666666" points="873,-184 820,-184 820,-165 873,-165 873,-184"/>
<text text-anchor="middle" x="846.5" y="-172" font-family="Helvetica,sans-Serif" font-size="10.00">types.h</text>
</a>
</g>
</g>
<!-- Node25&#45;&gt;Node26 -->
<g id="edge39_Node000025_Node000026" class="edge">
<title>Node25&#45;&gt;Node26</title>
<g id="a_edge39_Node000025_Node000026"><a xlink:title=" ">
<path fill="none" stroke="#63b8ff" d="M829.8,-219.75C832.48,-212.65 836.35,-202.4 839.69,-193.56"/>
<polygon fill="#63b8ff" stroke="#63b8ff" points="843,-194.68 843.26,-184.09 836.45,-192.21 843,-194.68"/>
</a>
</g>
</g>
<!-- Node27 -->
<g id="Node000027" class="node">
<title>Node27</title>
<g id="a_Node000027"><a xlink:title=" ">
<polygon fill="#e0e0e0" stroke="#999999" points="895.5,-129 839.5,-129 839.5,-110 895.5,-110 895.5,-129"/>
<text text-anchor="middle" x="867.5" y="-117" font-family="Helvetica,sans-Serif" font-size="10.00">stddef.h</text>
</a>
</g>
</g>
<!-- Node26&#45;&gt;Node27 -->
<g id="edge40_Node000026_Node000027" class="edge">
<title>Node26&#45;&gt;Node27</title>
<g id="a_edge40_Node000026_Node000027"><a xlink:title=" ">
<path fill="none" stroke="#63b8ff" d="M849.97,-164.75C852.78,-157.65 856.84,-147.4 860.35,-138.56"/>
<polygon fill="#63b8ff" stroke="#63b8ff" points="863.67,-139.68 864.1,-129.09 857.16,-137.1 863.67,-139.68"/>
</a>
</g>
</g>
<!-- Node28&#45;&gt;Node4 -->
<g id="edge47_Node000028_Node000004" class="edge">
<title>Node28&#45;&gt;Node4</title>
<g id="a_edge47_Node000028_Node000004"><a xlink:title=" ">
<path fill="none" stroke="#63b8ff" d="M419.09,-384.8C431.81,-367.1 458.5,-325.24 458.5,-285.5 458.5,-285.5 458.5,-285.5 458.5,-118.5 458.5,-87.19 458.5,-50.77 458.5,-29.23"/>
<polygon fill="#63b8ff" stroke="#63b8ff" points="462,-29.18 458.5,-19.18 455,-29.18 462,-29.18"/>
</a>
</g>
</g>
<!-- Node29 -->
<g id="Node000029" class="node">
<title>Node29</title>
<g id="a_Node000029"><a xlink:href="transition_8h.html" target="_top" xlink:title="Level transitions.">
<polygon fill="white" stroke="#666666" points="558.5,-349 486.5,-349 486.5,-330 558.5,-330 558.5,-349"/>
<text text-anchor="middle" x="522.5" y="-337" font-family="Helvetica,sans-Serif" font-size="10.00">transition.h</text>
</a>
</g>
</g>
<!-- Node28&#45;&gt;Node29 -->
<g id="edge43_Node000028_Node000029" class="edge">
<title>Node28&#45;&gt;Node29</title>
<g id="a_edge43_Node000028_Node000029"><a xlink:title=" ">
<path fill="none" stroke="#63b8ff" d="M430.17,-384.98C447.79,-376.5 475.08,-363.35 495.43,-353.54"/>
<polygon fill="#63b8ff" stroke="#63b8ff" points="497.02,-356.66 504.51,-349.17 493.98,-350.36 497.02,-356.66"/>
</a>
</g>
</g>
<!-- Node31 -->
<g id="Node000031" class="node">
<title>Node31</title>
<g id="a_Node000031"><a xlink:href="joy_8h.html" target="_top" xlink:title="Joypad manager.">
<polygon fill="white" stroke="#666666" points="372,-349 333,-349 333,-330 372,-330 372,-349"/>
<text text-anchor="middle" x="352.5" y="-337" font-family="Helvetica,sans-Serif" font-size="10.00">joy.h</text>
</a>
</g>
</g>
<!-- Node28&#45;&gt;Node31 -->
<g id="edge48_Node000028_Node000031" class="edge">
<title>Node28&#45;&gt;Node31</title>
<g id="a_edge48_Node000028_Node000031"><a xlink:title=" ">
<path fill="none" stroke="#63b8ff" d="M402.86,-384.98C393.99,-377.15 380.63,-365.34 369.89,-355.86"/>
<polygon fill="#63b8ff" stroke="#63b8ff" points="372.13,-353.17 362.32,-349.17 367.49,-358.41 372.13,-353.17"/>
</a>
</g>
</g>
<!-- Node29&#45;&gt;Node3 -->
<g id="edge46_Node000029_Node000003" class="edge">
<title>Node29&#45;&gt;Node3</title>
<g id="a_edge46_Node000029_Node000003"><a xlink:title=" ">
<path fill="none" stroke="#63b8ff" d="M536.64,-329.98C550.29,-321.77 571.19,-309.18 587.28,-299.49"/>
<polygon fill="#63b8ff" stroke="#63b8ff" points="589.34,-302.33 596.1,-294.17 585.73,-296.33 589.34,-302.33"/>
</a>
</g>
</g>
<!-- Node29&#45;&gt;Node4 -->
<g id="edge44_Node000029_Node000004" class="edge">
<title>Node29&#45;&gt;Node4</title>
<g id="a_edge44_Node000029_Node000004"><a xlink:title=" ">
<path fill="none" stroke="#63b8ff" d="M518.99,-329.99C511.9,-311.97 496.5,-268.49 496.5,-230.5 496.5,-230.5 496.5,-230.5 496.5,-118.5 496.5,-85.02 480.05,-48.84 468.8,-28.01"/>
<polygon fill="#63b8ff" stroke="#63b8ff" points="471.74,-26.1 463.78,-19.1 465.63,-29.53 471.74,-26.1"/>
</a>
</g>
</g>
<!-- Node30 -->
<g id="Node000030" class="node">
<title>Node30</title>
<g id="a_Node000030"><a xlink:href="cat_8h.html" target="_top" xlink:title="WAL catalog.">
<polygon fill="white" stroke="#666666" points="566,-294 525,-294 525,-275 566,-275 566,-294"/>
<text text-anchor="middle" x="545.5" y="-282" font-family="Helvetica,sans-Serif" font-size="10.00">cat.h</text>
</a>
</g>
</g>
<!-- Node29&#45;&gt;Node30 -->
<g id="edge45_Node000029_Node000030" class="edge">
<title>Node29&#45;&gt;Node30</title>
<g id="a_edge45_Node000029_Node000030"><a xlink:title=" ">
<path fill="none" stroke="#63b8ff" d="M526.3,-329.75C529.41,-322.57 533.92,-312.18 537.79,-303.27"/>
<polygon fill="#63b8ff" stroke="#63b8ff" points="541,-304.66 541.77,-294.09 534.58,-301.87 541,-304.66"/>
</a>
</g>
</g>
<!-- Node31&#45;&gt;Node6 -->
<g id="edge50_Node000031_Node000006" class="edge">
<title>Node31&#45;&gt;Node6</title>
<g id="a_edge50_Node000031_Node000006"><a xlink:title=" ">
<path fill="none" stroke="#63b8ff" d="M338.23,-329.84C307.51,-311.2 234.85,-267.11 197.52,-244.46"/>
<polygon fill="#63b8ff" stroke="#63b8ff" points="199.2,-241.39 188.83,-239.2 195.57,-247.38 199.2,-241.39"/>
</a>
</g>
</g>
<!-- Node32 -->
<g id="Node000032" class="node">
<title>Node32</title>
<g id="a_Node000032"><a xlink:href="rumble_8h.html" target="_top" xlink:title="Joypad rumble.">
<polygon fill="white" stroke="#666666" points="430.5,-294 370.5,-294 370.5,-275 430.5,-275 430.5,-294"/>
<text text-anchor="middle" x="400.5" y="-282" font-family="Helvetica,sans-Serif" font-size="10.00">rumble.h</text>
</a>
</g>
</g>
<!-- Node31&#45;&gt;Node32 -->
<g id="edge49_Node000031_Node000032" class="edge">
<title>Node31&#45;&gt;Node32</title>
<g id="a_edge49_Node000031_Node000032"><a xlink:title=" ">
<path fill="none" stroke="#63b8ff" d="M360.43,-329.75C367.35,-322.11 377.57,-310.82 385.95,-301.56"/>
<polygon fill="#63b8ff" stroke="#63b8ff" points="388.6,-303.85 392.72,-294.09 383.41,-299.15 388.6,-303.85"/>
</a>
</g>
</g>
<!-- Node33&#45;&gt;Node31 -->
<g id="edge53_Node000033_Node000031" class="edge">
<title>Node33&#45;&gt;Node31</title>
<g id="a_edge53_Node000033_Node000031"><a xlink:title=" ">
<path fill="none" stroke="#63b8ff" d="M310.76,-384.75C317.96,-377.11 328.61,-365.82 337.35,-356.56"/>
<polygon fill="#63b8ff" stroke="#63b8ff" points="340.08,-358.76 344.4,-349.09 334.99,-353.96 340.08,-358.76"/>
</a>
</g>
</g>
</g>
</svg>
