<?xml version="1.0" encoding="UTF-8" standalone="no"?>
<!DOCTYPE svg PUBLIC "-//W3C//DTD SVG 1.1//EN"
 "http://www.w3.org/Graphics/SVG/1.1/DTD/svg11.dtd">
<!-- Generated by graphviz version 2.43.0 (0)
 -->
<!-- Title: src/P2/difficulty.c Pages: 1 -->
<svg width="909pt" height="924pt"
 viewBox="0.00 0.00 908.54 924.00" xmlns="http://www.w3.org/2000/svg" xmlns:xlink="http://www.w3.org/1999/xlink">
<g id="graph0" class="graph" transform="scale(1 1) rotate(0) translate(4 920)">
<title>src/P2/difficulty.c</title>
<polygon fill="white" stroke="transparent" points="-4,4 -4,-920 904.54,-920 904.54,4 -4,4"/>
<!-- Node1 -->
<g id="node1" class="node">
<title>Node1</title>
<g id="a_node1"><a xlink:title=" ">
<polygon fill="#bfbfbf" stroke="black" points="89.54,-896.5 89.54,-915.5 187.54,-915.5 187.54,-896.5 89.54,-896.5"/>
<text text-anchor="middle" x="138.54" y="-903.5" font-family="Helvetica,sans-Serif" font-size="10.00">src/P2/difficulty.c</text>
</a>
</g>
</g>
<!-- Node2 -->
<g id="node2" class="node">
<title>Node2</title>
<g id="a_node2"><a xlink:href="memset_8h.html" target="_top" xlink:title="Memset.">
<polygon fill="white" stroke="black" points="24.54,-840.5 24.54,-859.5 110.54,-859.5 110.54,-840.5 24.54,-840.5"/>
<text text-anchor="middle" x="67.54" y="-847.5" font-family="Helvetica,sans-Serif" font-size="10.00">sce/memset.h</text>
</a>
</g>
</g>
<!-- Node1&#45;&gt;Node2 -->
<g id="edge1" class="edge">
<title>Node1&#45;&gt;Node2</title>
<path fill="none" stroke="midnightblue" d="M127.13,-896.32C116.43,-888.18 100.2,-875.84 87.37,-866.09"/>
<polygon fill="midnightblue" stroke="midnightblue" points="89.23,-863.1 79.15,-859.83 84.99,-868.67 89.23,-863.1"/>
</g>
<!-- Node4 -->
<g id="node4" class="node">
<title>Node4</title>
<g id="a_node4"><a xlink:href="difficulty_8h.html" target="_top" xlink:title="Dynamic difficulty system.">
<polygon fill="white" stroke="black" points="589.04,-840.5 589.04,-859.5 656.04,-859.5 656.04,-840.5 589.04,-840.5"/>
<text text-anchor="middle" x="622.54" y="-847.5" font-family="Helvetica,sans-Serif" font-size="10.00">difficulty.h</text>
</a>
</g>
</g>
<!-- Node1&#45;&gt;Node4 -->
<g id="edge3" class="edge">
<title>Node1&#45;&gt;Node4</title>
<path fill="none" stroke="midnightblue" d="M187.61,-899.53C282.16,-888.98 488.2,-865.99 578.57,-855.91"/>
<polygon fill="midnightblue" stroke="midnightblue" points="579.2,-859.36 588.75,-854.77 578.42,-852.4 579.2,-859.36"/>
</g>
<!-- Node25 -->
<g id="node25" class="node">
<title>Node25</title>
<g id="a_node25"><a xlink:href="game_8h.html" target="_top" xlink:title="Game state and level management.">
<polygon fill="white" stroke="black" points="257.04,-392.5 257.04,-411.5 310.04,-411.5 310.04,-392.5 257.04,-392.5"/>
<text text-anchor="middle" x="283.54" y="-399.5" font-family="Helvetica,sans-Serif" font-size="10.00">game.h</text>
</a>
</g>
</g>
<!-- Node1&#45;&gt;Node25 -->
<g id="edge66" class="edge">
<title>Node1&#45;&gt;Node25</title>
<path fill="none" stroke="midnightblue" d="M138.54,-896.44C138.54,-877.94 138.54,-832.81 138.54,-795 138.54,-795 138.54,-795 138.54,-513 138.54,-482.9 136.89,-469.9 157.54,-448 180.88,-423.24 218.78,-412.08 246.92,-407.07"/>
<polygon fill="midnightblue" stroke="midnightblue" points="247.48,-410.52 256.8,-405.48 246.37,-403.61 247.48,-410.52"/>
</g>
<!-- Node3 -->
<g id="node3" class="node">
<title>Node3</title>
<g id="a_node3"><a xlink:title=" ">
<polygon fill="white" stroke="#bfbfbf" points="39.54,-784.5 39.54,-803.5 95.54,-803.5 95.54,-784.5 39.54,-784.5"/>
<text text-anchor="middle" x="67.54" y="-791.5" font-family="Helvetica,sans-Serif" font-size="10.00">stddef.h</text>
</a>
</g>
</g>
<!-- Node2&#45;&gt;Node3 -->
<g id="edge2" class="edge">
<title>Node2&#45;&gt;Node3</title>
<path fill="none" stroke="midnightblue" d="M67.54,-840.08C67.54,-833.01 67.54,-822.86 67.54,-813.99"/>
<polygon fill="midnightblue" stroke="midnightblue" points="71.04,-813.75 67.54,-803.75 64.04,-813.75 71.04,-813.75"/>
</g>
<!-- Node5 -->
<g id="node5" class="node">
<title>Node5</title>
<g id="a_node5"><a xlink:href="util_8h.html" target="_top" xlink:title="Utility functions.">
<polygon fill="white" stroke="black" points="753.04,-616.5 753.04,-635.5 794.04,-635.5 794.04,-616.5 753.04,-616.5"/>
<text text-anchor="middle" x="773.54" y="-623.5" font-family="Helvetica,sans-Serif" font-size="10.00">util.h</text>
</a>
</g>
</g>
<!-- Node4&#45;&gt;Node5 -->
<g id="edge4" class="edge">
<title>Node4&#45;&gt;Node5</title>
<path fill="none" stroke="midnightblue" d="M628.46,-840.3C650.96,-807.22 731.43,-688.91 761.81,-644.24"/>
<polygon fill="midnightblue" stroke="midnightblue" points="764.76,-646.12 767.49,-635.88 758.98,-642.18 764.76,-646.12"/>
</g>
<!-- Node15 -->
<g id="node15" class="node">
<title>Node15</title>
<g id="a_node15"><a xlink:href="sw_8h.html" target="_top" xlink:title="Scene world?">
<polygon fill="white" stroke="black" points="741.54,-56.5 741.54,-75.5 779.54,-75.5 779.54,-56.5 741.54,-56.5"/>
<text text-anchor="middle" x="760.54" y="-63.5" font-family="Helvetica,sans-Serif" font-size="10.00">sw.h</text>
</a>
</g>
</g>
<!-- Node4&#45;&gt;Node15 -->
<g id="edge65" class="edge">
<title>Node4&#45;&gt;Node15</title>
<path fill="none" stroke="midnightblue" d="M656.07,-843.07C730.01,-829.04 900.54,-791.03 900.54,-739 900.54,-739 900.54,-739 900.54,-177 900.54,-121.01 830.44,-89.18 789.44,-75.35"/>
<polygon fill="midnightblue" stroke="midnightblue" points="790.3,-71.95 779.71,-72.22 788.16,-78.61 790.3,-71.95"/>
</g>
<!-- Node20 -->
<g id="node20" class="node">
<title>Node20</title>
<g id="a_node20"><a xlink:href="chkpnt_8h.html" target="_top" xlink:title="Checkpoint system.">
<polygon fill="white" stroke="black" points="486.04,-784.5 486.04,-803.5 545.04,-803.5 545.04,-784.5 486.04,-784.5"/>
<text text-anchor="middle" x="515.54" y="-791.5" font-family="Helvetica,sans-Serif" font-size="10.00">chkpnt.h</text>
</a>
</g>
</g>
<!-- Node4&#45;&gt;Node20 -->
<g id="edge24" class="edge">
<title>Node4&#45;&gt;Node20</title>
<path fill="none" stroke="midnightblue" d="M605.35,-840.32C588.19,-831.66 561.59,-818.24 541.79,-808.25"/>
<polygon fill="midnightblue" stroke="midnightblue" points="543.19,-805.04 532.69,-803.65 540.04,-811.28 543.19,-805.04"/>
</g>
<!-- Node6 -->
<g id="node6" class="node">
<title>Node6</title>
<g id="a_node6"><a xlink:href="mat_8h.html" target="_top" xlink:title="3x3 and 4x4 matrix types.">
<polygon fill="white" stroke="black" points="751.04,-560.5 751.04,-579.5 796.04,-579.5 796.04,-560.5 751.04,-560.5"/>
<text text-anchor="middle" x="773.54" y="-567.5" font-family="Helvetica,sans-Serif" font-size="10.00">mat.h</text>
</a>
</g>
</g>
<!-- Node5&#45;&gt;Node6 -->
<g id="edge5" class="edge">
<title>Node5&#45;&gt;Node6</title>
<path fill="none" stroke="midnightblue" d="M773.54,-616.08C773.54,-609.01 773.54,-598.86 773.54,-589.99"/>
<polygon fill="midnightblue" stroke="midnightblue" points="777.04,-589.75 773.54,-579.75 770.04,-589.75 777.04,-589.75"/>
</g>
<!-- Node7 -->
<g id="node7" class="node">
<title>Node7</title>
<g id="a_node7"><a xlink:href="vec_8h.html" target="_top" xlink:title="Vector math.">
<polygon fill="white" stroke="black" points="494.04,-280.5 494.04,-299.5 537.04,-299.5 537.04,-280.5 494.04,-280.5"/>
<text text-anchor="middle" x="515.54" y="-287.5" font-family="Helvetica,sans-Serif" font-size="10.00">vec.h</text>
</a>
</g>
</g>
<!-- Node5&#45;&gt;Node7 -->
<g id="edge6" class="edge">
<title>Node5&#45;&gt;Node7</title>
<path fill="none" stroke="midnightblue" d="M782.29,-616.29C790.1,-607.84 800.99,-594.25 805.54,-580 808.24,-571.53 807,-568.77 805.54,-560 788.19,-456.17 807.41,-405.73 728.54,-336 701.98,-312.52 599.98,-299.29 547.36,-293.89"/>
<polygon fill="midnightblue" stroke="midnightblue" points="547.52,-290.39 537.23,-292.89 546.83,-297.36 547.52,-290.39"/>
</g>
<!-- Node18 -->
<g id="node18" class="node">
<title>Node18</title>
<g id="a_node18"><a xlink:href="sm_8h.html" target="_top" xlink:title="State machines.">
<polygon fill="white" stroke="black" points="473.04,-224.5 473.04,-243.5 514.04,-243.5 514.04,-224.5 473.04,-224.5"/>
<text text-anchor="middle" x="493.54" y="-231.5" font-family="Helvetica,sans-Serif" font-size="10.00">sm.h</text>
</a>
</g>
</g>
<!-- Node5&#45;&gt;Node18 -->
<g id="edge19" class="edge">
<title>Node5&#45;&gt;Node18</title>
<path fill="none" stroke="midnightblue" d="M787.84,-616.4C812.99,-600.06 862.54,-561.92 862.54,-515 862.54,-515 862.54,-515 862.54,-345 862.54,-299.53 825.03,-298.59 783.54,-280 695.48,-240.55 579.01,-234.84 524.35,-234.54"/>
<polygon fill="midnightblue" stroke="midnightblue" points="524.26,-231.04 514.27,-234.55 524.27,-238.04 524.26,-231.04"/>
</g>
<!-- Node8 -->
<g id="node8" class="node">
<title>Node8</title>
<g id="a_node8"><a xlink:href="so_8h.html" target="_top" xlink:title="Scene objects.">
<polygon fill="white" stroke="black" points="272.04,-224.5 272.04,-243.5 309.04,-243.5 309.04,-224.5 272.04,-224.5"/>
<text text-anchor="middle" x="290.54" y="-231.5" font-family="Helvetica,sans-Serif" font-size="10.00">so.h</text>
</a>
</g>
</g>
<!-- Node7&#45;&gt;Node8 -->
<g id="edge7" class="edge">
<title>Node7&#45;&gt;Node8</title>
<path fill="none" stroke="midnightblue" d="M493.96,-283.82C453.15,-274.03 364.63,-252.78 319,-241.83"/>
<polygon fill="midnightblue" stroke="midnightblue" points="319.71,-238.4 309.16,-239.47 318.07,-245.21 319.71,-238.4"/>
</g>
<!-- Node9 -->
<g id="node9" class="node">
<title>Node9</title>
<g id="a_node9"><a xlink:href="alo_8h.html" target="_top" xlink:title=" ">
<polygon fill="white" stroke="black" points="265.04,-168.5 265.04,-187.5 306.04,-187.5 306.04,-168.5 265.04,-168.5"/>
<text text-anchor="middle" x="285.54" y="-175.5" font-family="Helvetica,sans-Serif" font-size="10.00">alo.h</text>
</a>
</g>
</g>
<!-- Node8&#45;&gt;Node9 -->
<g id="edge8" class="edge">
<title>Node8&#45;&gt;Node9</title>
<path fill="none" stroke="midnightblue" d="M289.71,-224.08C289.06,-217.01 288.12,-206.86 287.29,-197.99"/>
<polygon fill="midnightblue" stroke="midnightblue" points="290.75,-197.39 286.35,-187.75 283.78,-198.03 290.75,-197.39"/>
</g>
<!-- Node10 -->
<g id="node10" class="node">
<title>Node10</title>
<g id="a_node10"><a xlink:href="lo_8h.html" target="_top" xlink:title="Level objects.">
<polygon fill="white" stroke="black" points="469.04,-112.5 469.04,-131.5 504.04,-131.5 504.04,-112.5 469.04,-112.5"/>
<text text-anchor="middle" x="486.54" y="-119.5" font-family="Helvetica,sans-Serif" font-size="10.00">lo.h</text>
</a>
</g>
</g>
<!-- Node9&#45;&gt;Node10 -->
<g id="edge9" class="edge">
<title>Node9&#45;&gt;Node10</title>
<path fill="none" stroke="midnightblue" d="M306.29,-171.42C342.74,-161.63 418.24,-141.35 459,-130.4"/>
<polygon fill="midnightblue" stroke="midnightblue" points="460.06,-133.74 468.81,-127.76 458.24,-126.98 460.06,-133.74"/>
</g>
<!-- Node14 -->
<g id="node14" class="node">
<title>Node14</title>
<g id="a_node14"><a xlink:href="dl_8h.html" target="_top" xlink:title="Doubly&#45;linked list.">
<polygon fill="white" stroke="black" points="275.04,-56.5 275.04,-75.5 310.04,-75.5 310.04,-56.5 275.04,-56.5"/>
<text text-anchor="middle" x="292.54" y="-63.5" font-family="Helvetica,sans-Serif" font-size="10.00">dl.h</text>
</a>
</g>
</g>
<!-- Node9&#45;&gt;Node14 -->
<g id="edge18" class="edge">
<title>Node9&#45;&gt;Node14</title>
<path fill="none" stroke="midnightblue" d="M286.09,-168.37C287.22,-150.62 289.82,-109.67 291.35,-85.6"/>
<polygon fill="midnightblue" stroke="midnightblue" points="294.85,-85.79 291.99,-75.59 287.86,-85.35 294.85,-85.79"/>
</g>
<!-- Node11 -->
<g id="node11" class="node">
<title>Node11</title>
<g id="a_node11"><a xlink:href="oid_8h.html" target="_top" xlink:title="Object IDs.">
<polygon fill="white" stroke="black" points="146.04,-0.5 146.04,-19.5 187.04,-19.5 187.04,-0.5 146.04,-0.5"/>
<text text-anchor="middle" x="166.54" y="-7.5" font-family="Helvetica,sans-Serif" font-size="10.00">oid.h</text>
</a>
</g>
</g>
<!-- Node10&#45;&gt;Node11 -->
<g id="edge10" class="edge">
<title>Node10&#45;&gt;Node11</title>
<path fill="none" stroke="midnightblue" d="M468.72,-115.64C443.55,-107.89 396.35,-92.63 357.54,-76 339.63,-68.33 336.62,-63.24 318.54,-56 277.45,-39.55 228,-26.01 196.91,-18.21"/>
<polygon fill="midnightblue" stroke="midnightblue" points="197.65,-14.79 187.11,-15.79 195.98,-21.59 197.65,-14.79"/>
</g>
<!-- Node12 -->
<g id="node12" class="node">
<title>Node12</title>
<g id="a_node12"><a xlink:href="basic_8h.html" target="_top" xlink:title="Basic object.">
<polygon fill="white" stroke="black" points="471.04,-56.5 471.04,-75.5 522.04,-75.5 522.04,-56.5 471.04,-56.5"/>
<text text-anchor="middle" x="496.54" y="-63.5" font-family="Helvetica,sans-Serif" font-size="10.00">basic.h</text>
</a>
</g>
</g>
<!-- Node10&#45;&gt;Node12 -->
<g id="edge11" class="edge">
<title>Node10&#45;&gt;Node12</title>
<path fill="none" stroke="midnightblue" d="M488.19,-112.08C489.51,-104.93 491.42,-94.64 493.08,-85.69"/>
<polygon fill="midnightblue" stroke="midnightblue" points="496.54,-86.22 494.92,-75.75 489.65,-84.95 496.54,-86.22"/>
</g>
<!-- Node10&#45;&gt;Node14 -->
<g id="edge13" class="edge">
<title>Node10&#45;&gt;Node14</title>
<path fill="none" stroke="midnightblue" d="M468.94,-116.04C464.26,-114.72 459.21,-113.3 454.54,-112 396.79,-95.88 382.28,-92.12 324.54,-76 323.08,-75.59 321.58,-75.17 320.07,-74.75"/>
<polygon fill="midnightblue" stroke="midnightblue" points="320.71,-71.3 310.14,-71.96 318.82,-78.04 320.71,-71.3"/>
</g>
<!-- Node10&#45;&gt;Node15 -->
<g id="edge15" class="edge">
<title>Node10&#45;&gt;Node15</title>
<path fill="none" stroke="midnightblue" d="M504.09,-117.54C550.03,-108.49 674.16,-84.02 731.17,-72.79"/>
<polygon fill="midnightblue" stroke="midnightblue" points="732.19,-76.15 741.32,-70.79 730.83,-69.29 732.19,-76.15"/>
</g>
<!-- Node16 -->
<g id="node16" class="node">
<title>Node16</title>
<g id="a_node16"><a xlink:href="frame_8h.html" target="_top" xlink:title=" ">
<polygon fill="white" stroke="black" points="366.54,-56.5 366.54,-75.5 452.54,-75.5 452.54,-56.5 366.54,-56.5"/>
<text text-anchor="middle" x="409.54" y="-63.5" font-family="Helvetica,sans-Serif" font-size="10.00">splice/frame.h</text>
</a>
</g>
</g>
<!-- Node10&#45;&gt;Node16 -->
<g id="edge16" class="edge">
<title>Node10&#45;&gt;Node16</title>
<path fill="none" stroke="midnightblue" d="M474.17,-112.32C462.38,-104.06 444.4,-91.45 430.4,-81.63"/>
<polygon fill="midnightblue" stroke="midnightblue" points="432.07,-78.53 421.88,-75.65 428.06,-84.26 432.07,-78.53"/>
</g>
<!-- Node17 -->
<g id="node17" class="node">
<title>Node17</title>
<g id="a_node17"><a xlink:href="mq_8h.html" target="_top" xlink:title="Message queue.">
<polygon fill="white" stroke="black" points="540.04,-56.5 540.04,-75.5 581.04,-75.5 581.04,-56.5 540.04,-56.5"/>
<text text-anchor="middle" x="560.54" y="-63.5" font-family="Helvetica,sans-Serif" font-size="10.00">mq.h</text>
</a>
</g>
</g>
<!-- Node10&#45;&gt;Node17 -->
<g id="edge17" class="edge">
<title>Node10&#45;&gt;Node17</title>
<path fill="none" stroke="midnightblue" d="M498.43,-112.32C509.69,-104.11 526.82,-91.6 540.25,-81.81"/>
<polygon fill="midnightblue" stroke="midnightblue" points="542.42,-84.56 548.43,-75.83 538.29,-78.9 542.42,-84.56"/>
</g>
<!-- Node13 -->
<g id="node13" class="node">
<title>Node13</title>
<g id="a_node13"><a xlink:href="sidebag_8h.html" target="_top" xlink:title="Sidebag for splice.">
<polygon fill="white" stroke="black" points="449.04,-0.5 449.04,-19.5 544.04,-19.5 544.04,-0.5 449.04,-0.5"/>
<text text-anchor="middle" x="496.54" y="-7.5" font-family="Helvetica,sans-Serif" font-size="10.00">splice/sidebag.h</text>
</a>
</g>
</g>
<!-- Node12&#45;&gt;Node13 -->
<g id="edge12" class="edge">
<title>Node12&#45;&gt;Node13</title>
<path fill="none" stroke="midnightblue" d="M496.54,-56.08C496.54,-49.01 496.54,-38.86 496.54,-29.99"/>
<polygon fill="midnightblue" stroke="midnightblue" points="500.04,-29.75 496.54,-19.75 493.04,-29.75 500.04,-29.75"/>
</g>
<!-- Node14&#45;&gt;Node11 -->
<g id="edge14" class="edge">
<title>Node14&#45;&gt;Node11</title>
<path fill="none" stroke="midnightblue" d="M275.02,-57.49C254.48,-48.69 220.14,-33.97 195.6,-23.46"/>
<polygon fill="midnightblue" stroke="midnightblue" points="196.97,-20.23 186.4,-19.51 194.21,-26.67 196.97,-20.23"/>
</g>
<!-- Node18&#45;&gt;Node14 -->
<g id="edge20" class="edge">
<title>Node18&#45;&gt;Node14</title>
<path fill="none" stroke="midnightblue" d="M484.4,-224.37C470.91,-211.72 444.73,-187.51 421.54,-168 383.76,-136.23 337.92,-101.12 312.31,-81.8"/>
<polygon fill="midnightblue" stroke="midnightblue" points="314.24,-78.87 304.14,-75.65 310.03,-84.46 314.24,-78.87"/>
</g>
<!-- Node18&#45;&gt;Node17 -->
<g id="edge23" class="edge">
<title>Node18&#45;&gt;Node17</title>
<path fill="none" stroke="midnightblue" d="M497.14,-224.08C507.73,-197.83 538.93,-120.55 553.22,-85.12"/>
<polygon fill="midnightblue" stroke="midnightblue" points="556.58,-86.15 557.08,-75.57 550.09,-83.53 556.58,-86.15"/>
</g>
<!-- Node19 -->
<g id="node19" class="node">
<title>Node19</title>
<g id="a_node19"><a xlink:href="anim_8h.html" target="_top" xlink:title="Animation.">
<polygon fill="white" stroke="black" points="362.54,-168.5 362.54,-187.5 412.54,-187.5 412.54,-168.5 362.54,-168.5"/>
<text text-anchor="middle" x="387.54" y="-175.5" font-family="Helvetica,sans-Serif" font-size="10.00">anim.h</text>
</a>
</g>
</g>
<!-- Node18&#45;&gt;Node19 -->
<g id="edge21" class="edge">
<title>Node18&#45;&gt;Node19</title>
<path fill="none" stroke="midnightblue" d="M476.51,-224.32C459.51,-215.66 433.16,-202.24 413.54,-192.25"/>
<polygon fill="midnightblue" stroke="midnightblue" points="415.02,-189.08 404.53,-187.65 411.85,-195.31 415.02,-189.08"/>
</g>
<!-- Node19&#45;&gt;Node10 -->
<g id="edge22" class="edge">
<title>Node19&#45;&gt;Node10</title>
<path fill="none" stroke="midnightblue" d="M403.44,-168.32C419.17,-159.74 443.48,-146.49 461.75,-136.52"/>
<polygon fill="midnightblue" stroke="midnightblue" points="463.57,-139.52 470.67,-131.65 460.22,-133.37 463.57,-139.52"/>
</g>
<!-- Node20&#45;&gt;Node7 -->
<g id="edge25" class="edge">
<title>Node20&#45;&gt;Node7</title>
<path fill="none" stroke="midnightblue" d="M509.82,-784.3C488.45,-750.96 414.54,-627.46 414.54,-515 414.54,-515 414.54,-515 414.54,-401 414.54,-356.59 459.75,-322.37 489.67,-304.58"/>
<polygon fill="midnightblue" stroke="midnightblue" points="491.46,-307.59 498.4,-299.59 487.98,-301.51 491.46,-307.59"/>
</g>
<!-- Node21 -->
<g id="node21" class="node">
<title>Node21</title>
<g id="a_node21"><a xlink:href="vol_8h.html" target="_top" xlink:title="Volume object.">
<polygon fill="white" stroke="black" points="333.04,-728.5 333.04,-747.5 374.04,-747.5 374.04,-728.5 333.04,-728.5"/>
<text text-anchor="middle" x="353.54" y="-735.5" font-family="Helvetica,sans-Serif" font-size="10.00">vol.h</text>
</a>
</g>
</g>
<!-- Node20&#45;&gt;Node21 -->
<g id="edge26" class="edge">
<title>Node20&#45;&gt;Node21</title>
<path fill="none" stroke="midnightblue" d="M489.87,-784.44C461.17,-774.88 414.73,-759.4 384.16,-749.21"/>
<polygon fill="midnightblue" stroke="midnightblue" points="385.04,-745.81 374.45,-745.97 382.83,-752.45 385.04,-745.81"/>
</g>
<!-- Node29 -->
<g id="node29" class="node">
<title>Node29</title>
<g id="a_node29"><a xlink:href="bis_8h.html" target="_top" xlink:title="Binary Input Stream.">
<polygon fill="white" stroke="black" points="564.54,-616.5 564.54,-635.5 604.54,-635.5 604.54,-616.5 564.54,-616.5"/>
<text text-anchor="middle" x="584.54" y="-623.5" font-family="Helvetica,sans-Serif" font-size="10.00">bis.h</text>
</a>
</g>
</g>
<!-- Node20&#45;&gt;Node29 -->
<g id="edge64" class="edge">
<title>Node20&#45;&gt;Node29</title>
<path fill="none" stroke="midnightblue" d="M519.25,-784.08C530.15,-757.83 562.28,-680.55 577.01,-645.12"/>
<polygon fill="midnightblue" stroke="midnightblue" points="580.37,-646.15 580.98,-635.57 573.91,-643.46 580.37,-646.15"/>
</g>
<!-- Node22 -->
<g id="node22" class="node">
<title>Node22</title>
<g id="a_node22"><a xlink:href="xform_8h.html" target="_top" xlink:title="Transform.">
<polygon fill="white" stroke="black" points="278.04,-672.5 278.04,-691.5 333.04,-691.5 333.04,-672.5 278.04,-672.5"/>
<text text-anchor="middle" x="305.54" y="-679.5" font-family="Helvetica,sans-Serif" font-size="10.00">xform.h</text>
</a>
</g>
</g>
<!-- Node21&#45;&gt;Node22 -->
<g id="edge27" class="edge">
<title>Node21&#45;&gt;Node22</title>
<path fill="none" stroke="midnightblue" d="M345.61,-728.08C338.69,-720.3 328.47,-708.8 320.08,-699.37"/>
<polygon fill="midnightblue" stroke="midnightblue" points="322.58,-696.9 313.32,-691.75 317.34,-701.55 322.58,-696.9"/>
</g>
<!-- Node22&#45;&gt;Node5 -->
<g id="edge29" class="edge">
<title>Node22&#45;&gt;Node5</title>
<path fill="none" stroke="midnightblue" d="M333.07,-677.82C414.99,-668.37 656.86,-640.46 742.8,-630.55"/>
<polygon fill="midnightblue" stroke="midnightblue" points="743.42,-634 752.95,-629.38 742.61,-627.04 743.42,-634"/>
</g>
<!-- Node22&#45;&gt;Node9 -->
<g id="edge28" class="edge">
<title>Node22&#45;&gt;Node9</title>
<path fill="none" stroke="midnightblue" d="M297.08,-672.44C280.77,-654.96 246.54,-613.26 246.54,-571 246.54,-571 246.54,-571 246.54,-513 246.54,-384.36 226.89,-347.6 262.54,-224 265.3,-214.41 270.15,-204.46 274.69,-196.36"/>
<polygon fill="midnightblue" stroke="midnightblue" points="277.82,-197.94 279.9,-187.55 271.8,-194.37 277.82,-197.94"/>
</g>
<!-- Node22&#45;&gt;Node11 -->
<g id="edge37" class="edge">
<title>Node22&#45;&gt;Node11</title>
<path fill="none" stroke="midnightblue" d="M277.68,-680.92C231.27,-679.7 136.31,-672.5 66.54,-636 30.06,-616.92 0.54,-612.17 0.54,-571 0.54,-571 0.54,-571 0.54,-121 0.54,-90.9 -1.61,-77.42 19.54,-56 50.5,-24.64 102.68,-15.01 135.83,-12.13"/>
<polygon fill="midnightblue" stroke="midnightblue" points="136.14,-15.62 145.87,-11.41 135.64,-8.63 136.14,-15.62"/>
</g>
<!-- Node22&#45;&gt;Node14 -->
<g id="edge30" class="edge">
<title>Node22&#45;&gt;Node14</title>
<path fill="none" stroke="midnightblue" d="M277.89,-678.84C221.93,-672.82 100.54,-650.57 100.54,-571 100.54,-571 100.54,-571 100.54,-401 100.54,-261.27 228.4,-127.16 275.44,-82.56"/>
<polygon fill="midnightblue" stroke="midnightblue" points="277.83,-85.12 282.75,-75.73 273.05,-80 277.83,-85.12"/>
</g>
<!-- Node22&#45;&gt;Node19 -->
<g id="edge38" class="edge">
<title>Node22&#45;&gt;Node19</title>
<path fill="none" stroke="midnightblue" d="M316.32,-672.26C336.18,-655.11 376.54,-614.87 376.54,-571 376.54,-571 376.54,-571 376.54,-289 376.54,-256.79 381.26,-219.53 384.52,-197.69"/>
<polygon fill="midnightblue" stroke="midnightblue" points="388.02,-197.95 386.1,-187.53 381.11,-196.87 388.02,-197.95"/>
</g>
<!-- Node23 -->
<g id="node23" class="node">
<title>Node23</title>
<g id="a_node23"><a xlink:href="surf_8h.html" target="_top" xlink:title="Surfaces?">
<polygon fill="white" stroke="black" points="518.54,-336.5 518.54,-355.5 562.54,-355.5 562.54,-336.5 518.54,-336.5"/>
<text text-anchor="middle" x="540.54" y="-343.5" font-family="Helvetica,sans-Serif" font-size="10.00">surf.h</text>
</a>
</g>
</g>
<!-- Node22&#45;&gt;Node23 -->
<g id="edge31" class="edge">
<title>Node22&#45;&gt;Node23</title>
<path fill="none" stroke="midnightblue" d="M330.8,-672.37C349.21,-665.05 373.77,-653 390.54,-636 432.98,-592.99 452.54,-575.43 452.54,-515 452.54,-515 452.54,-515 452.54,-457 452.54,-415.03 492.08,-379.9 518.15,-361.3"/>
<polygon fill="midnightblue" stroke="midnightblue" points="520.13,-364.18 526.4,-355.64 516.17,-358.41 520.13,-364.18"/>
</g>
<!-- Node22&#45;&gt;Node25 -->
<g id="edge34" class="edge">
<title>Node22&#45;&gt;Node25</title>
<path fill="none" stroke="midnightblue" d="M302.7,-672.27C296.97,-653.79 284.54,-609.3 284.54,-571 284.54,-571 284.54,-571 284.54,-513 284.54,-480.95 284.11,-443.64 283.81,-421.75"/>
<polygon fill="midnightblue" stroke="midnightblue" points="287.31,-421.51 283.67,-411.56 280.31,-421.61 287.31,-421.51"/>
</g>
<!-- Node27 -->
<g id="node27" class="node">
<title>Node27</title>
<g id="a_node27"><a xlink:href="wipe_8h.html" target="_top" xlink:title="Screen wipes.">
<polygon fill="white" stroke="black" points="40.04,-112.5 40.04,-131.5 89.04,-131.5 89.04,-112.5 40.04,-112.5"/>
<text text-anchor="middle" x="64.54" y="-119.5" font-family="Helvetica,sans-Serif" font-size="10.00">wipe.h</text>
</a>
</g>
</g>
<!-- Node22&#45;&gt;Node27 -->
<g id="edge39" class="edge">
<title>Node22&#45;&gt;Node27</title>
<path fill="none" stroke="midnightblue" d="M277.84,-678.64C225.56,-673.66 115.02,-660.48 86.54,-636 63.18,-615.93 62.54,-601.8 62.54,-571 62.54,-571 62.54,-571 62.54,-233 62.54,-200.94 63.4,-163.64 63.99,-141.75"/>
<polygon fill="midnightblue" stroke="midnightblue" points="67.49,-141.65 64.28,-131.56 60.5,-141.45 67.49,-141.65"/>
</g>
<!-- Node22&#45;&gt;Node29 -->
<g id="edge43" class="edge">
<title>Node22&#45;&gt;Node29</title>
<path fill="none" stroke="midnightblue" d="M333.05,-675.67C385.51,-665.52 499.45,-643.47 554.1,-632.89"/>
<polygon fill="midnightblue" stroke="midnightblue" points="555.05,-636.27 564.2,-630.94 553.72,-629.4 555.05,-636.27"/>
</g>
<!-- Node39 -->
<g id="node39" class="node">
<title>Node39</title>
<g id="a_node39"><a xlink:href="proxy_8h.html" target="_top" xlink:title=" ">
<polygon fill="white" stroke="black" points="166.54,-448.5 166.54,-467.5 218.54,-467.5 218.54,-448.5 166.54,-448.5"/>
<text text-anchor="middle" x="192.54" y="-455.5" font-family="Helvetica,sans-Serif" font-size="10.00">proxy.h</text>
</a>
</g>
</g>
<!-- Node22&#45;&gt;Node39 -->
<g id="edge60" class="edge">
<title>Node22&#45;&gt;Node39</title>
<path fill="none" stroke="midnightblue" d="M282.31,-672.41C265.94,-665.17 244.83,-653.2 232.54,-636 197.49,-586.94 192.49,-512.32 192.2,-477.77"/>
<polygon fill="midnightblue" stroke="midnightblue" points="195.7,-477.7 192.24,-467.68 188.7,-477.67 195.7,-477.7"/>
</g>
<!-- Node40 -->
<g id="node40" class="node">
<title>Node40</title>
<g id="a_node40"><a xlink:href="rs_8h.html" target="_top" xlink:title=" ">
<polygon fill="white" stroke="black" points="313.04,-504.5 313.04,-523.5 348.04,-523.5 348.04,-504.5 313.04,-504.5"/>
<text text-anchor="middle" x="330.54" y="-511.5" font-family="Helvetica,sans-Serif" font-size="10.00">rs.h</text>
</a>
</g>
</g>
<!-- Node22&#45;&gt;Node40 -->
<g id="edge62" class="edge">
<title>Node22&#45;&gt;Node40</title>
<path fill="none" stroke="midnightblue" d="M306.88,-672.08C310.82,-645.95 322.37,-569.21 327.74,-533.58"/>
<polygon fill="midnightblue" stroke="midnightblue" points="331.22,-533.98 329.25,-523.57 324.3,-532.94 331.22,-533.98"/>
</g>
<!-- Node23&#45;&gt;Node7 -->
<g id="edge32" class="edge">
<title>Node23&#45;&gt;Node7</title>
<path fill="none" stroke="midnightblue" d="M536.41,-336.08C533.02,-328.77 528.12,-318.18 523.92,-309.1"/>
<polygon fill="midnightblue" stroke="midnightblue" points="526.97,-307.36 519.59,-299.75 520.61,-310.3 526.97,-307.36"/>
</g>
<!-- Node24 -->
<g id="node24" class="node">
<title>Node24</title>
<g id="a_node24"><a xlink:href="geom_8h.html" target="_top" xlink:title="Geometry.">
<polygon fill="white" stroke="black" points="722.04,-280.5 722.04,-299.5 775.04,-299.5 775.04,-280.5 722.04,-280.5"/>
<text text-anchor="middle" x="748.54" y="-287.5" font-family="Helvetica,sans-Serif" font-size="10.00">geom.h</text>
</a>
</g>
</g>
<!-- Node23&#45;&gt;Node24 -->
<g id="edge33" class="edge">
<title>Node23&#45;&gt;Node24</title>
<path fill="none" stroke="midnightblue" d="M562.8,-339.22C598.5,-329.95 668.93,-311.67 712.06,-300.47"/>
<polygon fill="midnightblue" stroke="midnightblue" points="713.08,-303.82 721.88,-297.92 711.32,-297.05 713.08,-303.82"/>
</g>
<!-- Node25&#45;&gt;Node11 -->
<g id="edge35" class="edge">
<title>Node25&#45;&gt;Node11</title>
<path fill="none" stroke="midnightblue" d="M274.74,-392.17C247.53,-363.86 166.54,-271.8 166.54,-179 166.54,-179 166.54,-179 166.54,-121 166.54,-88.95 166.54,-51.64 166.54,-29.75"/>
<polygon fill="midnightblue" stroke="midnightblue" points="170.04,-29.56 166.54,-19.56 163.04,-29.56 170.04,-29.56"/>
</g>
<!-- Node26 -->
<g id="node26" class="node">
<title>Node26</title>
<g id="a_node26"><a xlink:href="cid_8h.html" target="_top" xlink:title="Class IDs.">
<polygon fill="white" stroke="black" points="270.54,-336.5 270.54,-355.5 310.54,-355.5 310.54,-336.5 270.54,-336.5"/>
<text text-anchor="middle" x="290.54" y="-343.5" font-family="Helvetica,sans-Serif" font-size="10.00">cid.h</text>
</a>
</g>
</g>
<!-- Node25&#45;&gt;Node26 -->
<g id="edge36" class="edge">
<title>Node25&#45;&gt;Node26</title>
<path fill="none" stroke="midnightblue" d="M284.69,-392.08C285.62,-384.93 286.95,-374.64 288.11,-365.69"/>
<polygon fill="midnightblue" stroke="midnightblue" points="291.59,-366.12 289.4,-355.75 284.65,-365.22 291.59,-366.12"/>
</g>
<!-- Node27&#45;&gt;Node11 -->
<g id="edge42" class="edge">
<title>Node27&#45;&gt;Node11</title>
<path fill="none" stroke="midnightblue" d="M73.68,-112.2C82.9,-103.25 97.45,-88.9 109.54,-76 124.69,-59.82 141.32,-40.68 152.69,-27.38"/>
<polygon fill="midnightblue" stroke="midnightblue" points="155.52,-29.46 159.33,-19.57 150.19,-24.92 155.52,-29.46"/>
</g>
<!-- Node28 -->
<g id="node28" class="node">
<title>Node28</title>
<g id="a_node28"><a xlink:href="transition_8h.html" target="_top" xlink:title="Level transitions.">
<polygon fill="white" stroke="black" points="28.54,-56.5 28.54,-75.5 100.54,-75.5 100.54,-56.5 28.54,-56.5"/>
<text text-anchor="middle" x="64.54" y="-63.5" font-family="Helvetica,sans-Serif" font-size="10.00">transition.h</text>
</a>
</g>
</g>
<!-- Node27&#45;&gt;Node28 -->
<g id="edge40" class="edge">
<title>Node27&#45;&gt;Node28</title>
<path fill="none" stroke="midnightblue" d="M64.54,-112.08C64.54,-105.01 64.54,-94.86 64.54,-85.99"/>
<polygon fill="midnightblue" stroke="midnightblue" points="68.04,-85.75 64.54,-75.75 61.04,-85.75 68.04,-85.75"/>
</g>
<!-- Node28&#45;&gt;Node11 -->
<g id="edge41" class="edge">
<title>Node28&#45;&gt;Node11</title>
<path fill="none" stroke="midnightblue" d="M80.92,-56.32C97.21,-47.7 122.4,-34.36 141.25,-24.39"/>
<polygon fill="midnightblue" stroke="midnightblue" points="142.99,-27.43 150.19,-19.65 139.71,-21.24 142.99,-27.43"/>
</g>
<!-- Node29&#45;&gt;Node6 -->
<g id="edge57" class="edge">
<title>Node29&#45;&gt;Node6</title>
<path fill="none" stroke="midnightblue" d="M604.76,-619.22C637.37,-609.9 701.85,-591.48 740.98,-580.3"/>
<polygon fill="midnightblue" stroke="midnightblue" points="742.17,-583.6 750.83,-577.49 740.25,-576.87 742.17,-583.6"/>
</g>
<!-- Node29&#45;&gt;Node7 -->
<g id="edge56" class="edge">
<title>Node29&#45;&gt;Node7</title>
<path fill="none" stroke="midnightblue" d="M564.44,-617.8C547.44,-610.71 523.64,-598.27 509.54,-580 491.15,-556.17 490.54,-545.1 490.54,-515 490.54,-515 490.54,-515 490.54,-401 490.54,-368 501.37,-330.77 508.77,-309.19"/>
<polygon fill="midnightblue" stroke="midnightblue" points="512.1,-310.28 512.17,-299.69 505.51,-307.93 512.1,-310.28"/>
</g>
<!-- Node29&#45;&gt;Node24 -->
<g id="edge58" class="edge">
<title>Node29&#45;&gt;Node24</title>
<path fill="none" stroke="midnightblue" d="M604.58,-623.18C631.14,-619.65 677.54,-609.4 702.54,-580 770.76,-499.73 758.65,-359.9 751.58,-309.65"/>
<polygon fill="midnightblue" stroke="midnightblue" points="755.01,-308.97 750.06,-299.61 748.09,-310.02 755.01,-308.97"/>
</g>
<!-- Node30 -->
<g id="node30" class="node">
<title>Node30</title>
<g id="a_node30"><a xlink:href="prog_8h.html" target="_top" xlink:title=" ">
<polygon fill="white" stroke="black" points="519.04,-560.5 519.04,-579.5 566.04,-579.5 566.04,-560.5 519.04,-560.5"/>
<text text-anchor="middle" x="542.54" y="-567.5" font-family="Helvetica,sans-Serif" font-size="10.00">prog.h</text>
</a>
</g>
</g>
<!-- Node29&#45;&gt;Node30 -->
<g id="edge44" class="edge">
<title>Node29&#45;&gt;Node30</title>
<path fill="none" stroke="midnightblue" d="M577.6,-616.08C571.61,-608.38 562.78,-597.03 555.49,-587.65"/>
<polygon fill="midnightblue" stroke="midnightblue" points="558.25,-585.5 549.34,-579.75 552.72,-589.79 558.25,-585.5"/>
</g>
<!-- Node37 -->
<g id="node37" class="node">
<title>Node37</title>
<g id="a_node37"><a xlink:href="clock_8h.html" target="_top" xlink:title="Engine clock.">
<polygon fill="white" stroke="black" points="584.04,-560.5 584.04,-579.5 635.04,-579.5 635.04,-560.5 584.04,-560.5"/>
<text text-anchor="middle" x="609.54" y="-567.5" font-family="Helvetica,sans-Serif" font-size="10.00">clock.h</text>
</a>
</g>
</g>
<!-- Node29&#45;&gt;Node37 -->
<g id="edge55" class="edge">
<title>Node29&#45;&gt;Node37</title>
<path fill="none" stroke="midnightblue" d="M588.66,-616.08C592.05,-608.77 596.95,-598.18 601.16,-589.1"/>
<polygon fill="midnightblue" stroke="midnightblue" points="604.46,-590.3 605.49,-579.75 598.11,-587.36 604.46,-590.3"/>
</g>
<!-- Node38 -->
<g id="node38" class="node">
<title>Node38</title>
<g id="a_node38"><a xlink:href="cat_8h.html" target="_top" xlink:title="Catalog.">
<polygon fill="white" stroke="black" points="653.04,-560.5 653.04,-579.5 694.04,-579.5 694.04,-560.5 653.04,-560.5"/>
<text text-anchor="middle" x="673.54" y="-567.5" font-family="Helvetica,sans-Serif" font-size="10.00">cat.h</text>
</a>
</g>
</g>
<!-- Node29&#45;&gt;Node38 -->
<g id="edge59" class="edge">
<title>Node29&#45;&gt;Node38</title>
<path fill="none" stroke="midnightblue" d="M598.84,-616.32C612.72,-607.9 634.03,-594.97 650.34,-585.07"/>
<polygon fill="midnightblue" stroke="midnightblue" points="652.54,-587.83 659.27,-579.65 648.91,-581.85 652.54,-587.83"/>
</g>
<!-- Node31 -->
<g id="node31" class="node">
<title>Node31</title>
<g id="a_node31"><a xlink:href="binoc_8h.html" target="_top" xlink:title="Binoc&#45;u&#45;com.">
<polygon fill="white" stroke="black" points="518.54,-504.5 518.54,-523.5 570.54,-523.5 570.54,-504.5 518.54,-504.5"/>
<text text-anchor="middle" x="544.54" y="-511.5" font-family="Helvetica,sans-Serif" font-size="10.00">binoc.h</text>
</a>
</g>
</g>
<!-- Node30&#45;&gt;Node31 -->
<g id="edge45" class="edge">
<title>Node30&#45;&gt;Node31</title>
<path fill="none" stroke="midnightblue" d="M542.87,-560.08C543.13,-553.01 543.5,-542.86 543.83,-533.99"/>
<polygon fill="midnightblue" stroke="midnightblue" points="547.34,-533.87 544.21,-523.75 540.34,-533.61 547.34,-533.87"/>
</g>
<!-- Node36 -->
<g id="node36" class="node">
<title>Node36</title>
<g id="a_node36"><a xlink:href="gs_8h.html" target="_top" xlink:title="Graphics synthesizer.">
<polygon fill="white" stroke="black" points="589.04,-504.5 589.04,-523.5 626.04,-523.5 626.04,-504.5 589.04,-504.5"/>
<text text-anchor="middle" x="607.54" y="-511.5" font-family="Helvetica,sans-Serif" font-size="10.00">gs.h</text>
</a>
</g>
</g>
<!-- Node30&#45;&gt;Node36 -->
<g id="edge54" class="edge">
<title>Node30&#45;&gt;Node36</title>
<path fill="none" stroke="midnightblue" d="M552.98,-560.32C562.68,-552.26 577.35,-540.08 589.04,-530.37"/>
<polygon fill="midnightblue" stroke="midnightblue" points="591.45,-532.92 596.9,-523.83 586.97,-527.53 591.45,-532.92"/>
</g>
<!-- Node32 -->
<g id="node32" class="node">
<title>Node32</title>
<g id="a_node32"><a xlink:href="screen_8h.html" target="_top" xlink:title="GUI elements.">
<polygon fill="white" stroke="black" points="518.54,-448.5 518.54,-467.5 576.54,-467.5 576.54,-448.5 518.54,-448.5"/>
<text text-anchor="middle" x="547.54" y="-455.5" font-family="Helvetica,sans-Serif" font-size="10.00">screen.h</text>
</a>
</g>
</g>
<!-- Node31&#45;&gt;Node32 -->
<g id="edge46" class="edge">
<title>Node31&#45;&gt;Node32</title>
<path fill="none" stroke="midnightblue" d="M545.03,-504.08C545.43,-497.01 545.99,-486.86 546.48,-477.99"/>
<polygon fill="midnightblue" stroke="midnightblue" points="549.99,-477.93 547.05,-467.75 543,-477.54 549.99,-477.93"/>
</g>
<!-- Node32&#45;&gt;Node25 -->
<g id="edge48" class="edge">
<title>Node32&#45;&gt;Node25</title>
<path fill="none" stroke="midnightblue" d="M518.53,-451.07C470.18,-441.18 373.22,-421.34 320.21,-410.5"/>
<polygon fill="midnightblue" stroke="midnightblue" points="320.72,-407.03 310.22,-408.46 319.32,-413.89 320.72,-407.03"/>
</g>
<!-- Node33 -->
<g id="node33" class="node">
<title>Node33</title>
<g id="a_node33"><a xlink:href="font_8h.html" target="_top" xlink:title="Font system.">
<polygon fill="white" stroke="black" points="522.04,-392.5 522.04,-411.5 567.04,-411.5 567.04,-392.5 522.04,-392.5"/>
<text text-anchor="middle" x="544.54" y="-399.5" font-family="Helvetica,sans-Serif" font-size="10.00">font.h</text>
</a>
</g>
</g>
<!-- Node32&#45;&gt;Node33 -->
<g id="edge47" class="edge">
<title>Node32&#45;&gt;Node33</title>
<path fill="none" stroke="midnightblue" d="M547.04,-448.08C546.65,-441.01 546.08,-430.86 545.59,-421.99"/>
<polygon fill="midnightblue" stroke="midnightblue" points="549.07,-421.54 545.02,-411.75 542.08,-421.93 549.07,-421.54"/>
</g>
<!-- Node34 -->
<g id="node34" class="node">
<title>Node34</title>
<g id="a_node34"><a xlink:href="shd_8h.html" target="_top" xlink:title="Shaders.">
<polygon fill="white" stroke="black" points="585.04,-392.5 585.04,-411.5 628.04,-411.5 628.04,-392.5 585.04,-392.5"/>
<text text-anchor="middle" x="606.54" y="-399.5" font-family="Helvetica,sans-Serif" font-size="10.00">shd.h</text>
</a>
</g>
</g>
<!-- Node32&#45;&gt;Node34 -->
<g id="edge49" class="edge">
<title>Node32&#45;&gt;Node34</title>
<path fill="none" stroke="midnightblue" d="M557.02,-448.32C565.74,-440.34 578.88,-428.31 589.43,-418.65"/>
<polygon fill="midnightblue" stroke="midnightblue" points="591.87,-421.17 596.88,-411.83 587.15,-416 591.87,-421.17"/>
</g>
<!-- Node34&#45;&gt;Node7 -->
<g id="edge53" class="edge">
<title>Node34&#45;&gt;Node7</title>
<path fill="none" stroke="midnightblue" d="M603.19,-392.34C597.85,-379.22 586.46,-353.93 571.54,-336 561.84,-324.35 548.74,-313.62 537.64,-305.56"/>
<polygon fill="midnightblue" stroke="midnightblue" points="539.47,-302.57 529.27,-299.71 535.46,-308.31 539.47,-302.57"/>
</g>
<!-- Node34&#45;&gt;Node23 -->
<g id="edge52" class="edge">
<title>Node34&#45;&gt;Node23</title>
<path fill="none" stroke="midnightblue" d="M595.93,-392.32C586.08,-384.26 571.19,-372.08 559.32,-362.37"/>
<polygon fill="midnightblue" stroke="midnightblue" points="561.29,-359.46 551.33,-355.83 556.86,-364.88 561.29,-359.46"/>
</g>
<!-- Node34&#45;&gt;Node24 -->
<g id="edge51" class="edge">
<title>Node34&#45;&gt;Node24</title>
<path fill="none" stroke="midnightblue" d="M628.23,-398.82C655.41,-394.94 701.69,-384.36 728.54,-356 740.32,-343.55 745.17,-324.32 747.16,-310"/>
<polygon fill="midnightblue" stroke="midnightblue" points="750.67,-310.1 748.22,-299.79 743.71,-309.37 750.67,-310.1"/>
</g>
<!-- Node35 -->
<g id="node35" class="node">
<title>Node35</title>
<g id="a_node35"><a xlink:href="eestruct_8h.html" target="_top" xlink:title="Graphics synthesizer.">
<polygon fill="white" stroke="black" points="619.04,-336.5 619.04,-355.5 720.04,-355.5 720.04,-336.5 619.04,-336.5"/>
<text text-anchor="middle" x="669.54" y="-343.5" font-family="Helvetica,sans-Serif" font-size="10.00">sdk/ee/eestruct.h</text>
</a>
</g>
</g>
<!-- Node34&#45;&gt;Node35 -->
<g id="edge50" class="edge">
<title>Node34&#45;&gt;Node35</title>
<path fill="none" stroke="midnightblue" d="M616.66,-392.32C626.06,-384.26 640.28,-372.08 651.61,-362.37"/>
<polygon fill="midnightblue" stroke="midnightblue" points="653.92,-365 659.23,-355.83 649.36,-359.68 653.92,-365"/>
</g>
<!-- Node39&#45;&gt;Node9 -->
<g id="edge61" class="edge">
<title>Node39&#45;&gt;Node9</title>
<path fill="none" stroke="midnightblue" d="M191.34,-448.39C187.25,-415.68 176.83,-297.23 228.54,-224 237.2,-211.73 250.15,-201.13 261.51,-193.31"/>
<polygon fill="midnightblue" stroke="midnightblue" points="263.72,-196.05 270.18,-187.65 259.89,-190.19 263.72,-196.05"/>
</g>
<!-- Node40&#45;&gt;Node11 -->
<g id="edge63" class="edge">
<title>Node40&#45;&gt;Node11</title>
<path fill="none" stroke="midnightblue" d="M331.58,-504.46C333.75,-485.98 338.54,-440.91 338.54,-403 338.54,-403 338.54,-403 338.54,-289 338.54,-234.17 339.65,-216.73 314.54,-168 282.7,-106.22 219.26,-51.51 186.76,-26.09"/>
<polygon fill="midnightblue" stroke="midnightblue" points="188.52,-23.03 178.46,-19.71 184.26,-28.58 188.52,-23.03"/>
</g>
</g>
</svg>
