<?xml version="1.0" encoding="UTF-8" standalone="no"?>
<!DOCTYPE svg PUBLIC "-//W3C//DTD SVG 1.1//EN"
 "http://www.w3.org/Graphics/SVG/1.1/DTD/svg11.dtd">
<!-- Generated by graphviz version 2.43.0 (0)
 -->
<!-- Title: include/difficulty.h Pages: 1 -->
<!--zoomable 868 -->
<svg id="main" version="1.1" xmlns="http://www.w3.org/2000/svg" xmlns:xlink="http://www.w3.org/1999/xlink" xml:space="preserve" onload="init(evt)">
<style type="text/css"><![CDATA[
.edge:hover path { stroke: red; }
.edge:hover polygon { stroke: red; fill: red; }
]]></style>
<script type="text/javascript"><![CDATA[
var edges = document.getElementsByTagName('g');
if (edges && edges.length) {
  for (var i=0;i<edges.length;i++) {
    if (edges[i].id.substr(0,4)=='edge') {
      edges[i].setAttribute('class','edge');
    }
  }
}
]]></script>
        <defs>
                <circle id="rim" cx="0" cy="0" r="7"/>
                <circle id="rim2" cx="0" cy="0" r="3.5"/>
                <g id="zoomPlus">
                        <use xlink:href="#rim" fill="#404040">
                                <set attributeName="fill" to="#808080" begin="zoomplus.mouseover" end="zoomplus.mouseout"/>
                        </use>
                        <path d="M-4,0h8M0,-4v8" fill="none" stroke="white" stroke-width="1.5" pointer-events="none"/>
                </g>
                <g id="zoomMin">
                        <use xlink:href="#rim" fill="#404040">
                                <set attributeName="fill" to="#808080" begin="zoomminus.mouseover" end="zoomminus.mouseout"/>
                        </use>
                        <path d="M-4,0h8" fill="none" stroke="white" stroke-width="1.5" pointer-events="none"/>
                </g>
                <g id="dirArrow">
                        <path fill="none" stroke="white" stroke-width="1.5" d="M0,-3.0v7 M-2.5,-0.5L0,-3.0L2.5,-0.5"/>
                </g>
               <g id="resetDef">
                       <use xlink:href="#rim2" fill="#404040">
                               <set attributeName="fill" to="#808080" begin="reset.mouseover" end="reset.mouseout"/>
                       </use>
               </g>
        </defs>

<script type="text/javascript">
var viewWidth = 1011;
var viewHeight = 868;
var sectionId = 'dynsection-0';
</script>
<script xlink:href="svgpan.js"/>
<svg id="graph" class="graph">
<g id="viewport">
<title>include/difficulty.h</title>
<polygon fill="white" stroke="transparent" points="-4,4 -4,-864 1007,-864 1007,4 -4,4"/>
<!-- Node1 -->
<g id="node1" class="node">
<title>Node1</title>
<g id="a_node1"><a xlink:title="Dynamic difficulty system.">
<polygon fill="#bfbfbf" stroke="black" points="187.5,-840.5 187.5,-859.5 292.5,-859.5 292.5,-840.5 187.5,-840.5"/>
<text text-anchor="middle" x="240" y="-847.5" font-family="Helvetica,sans-Serif" font-size="10.00">include/difficulty.h</text>
</a>
</g>
</g>
<!-- Node2 -->
<g id="node2" class="node">
<title>Node2</title>
<g id="a_node2"><a xlink:href="util_8h.html" target="_top" xlink:title="Utility functions.">
<polygon fill="white" stroke="black" points="219.5,-616.5 219.5,-635.5 260.5,-635.5 260.5,-616.5 219.5,-616.5"/>
<text text-anchor="middle" x="240" y="-623.5" font-family="Helvetica,sans-Serif" font-size="10.00">util.h</text>
</a>
</g>
</g>
<!-- Node1&#45;&gt;Node2 -->
<g id="edge1" class="edge">
<title>Node1&#45;&gt;Node2</title>
<path fill="none" stroke="midnightblue" d="M240,-840.3C240,-807.63 240,-691.87 240,-645.96"/>
<polygon fill="midnightblue" stroke="midnightblue" points="243.5,-645.88 240,-635.88 236.5,-645.88 243.5,-645.88"/>
</g>
<!-- Node12 -->
<g id="node12" class="node">
<title>Node12</title>
<g id="a_node12"><a xlink:href="sw_8h.html" target="_top" xlink:title="Scene world?">
<polygon fill="white" stroke="black" points="350,-56.5 350,-75.5 388,-75.5 388,-56.5 350,-56.5"/>
<text text-anchor="middle" x="369" y="-63.5" font-family="Helvetica,sans-Serif" font-size="10.00">sw.h</text>
</a>
</g>
</g>
<!-- Node1&#45;&gt;Node12 -->
<g id="edge62" class="edge">
<title>Node1&#45;&gt;Node12</title>
<path fill="none" stroke="midnightblue" d="M187.33,-847.35C116.68,-842.02 0,-820.81 0,-739 0,-739 0,-739 0,-177 0,-106.17 252.85,-77.23 339.94,-69.36"/>
<polygon fill="midnightblue" stroke="midnightblue" points="340.28,-72.84 349.94,-68.49 339.67,-65.87 340.28,-72.84"/>
</g>
<!-- Node17 -->
<g id="node17" class="node">
<title>Node17</title>
<g id="a_node17"><a xlink:href="chkpnt_8h.html" target="_top" xlink:title="Checkpoint system.">
<polygon fill="white" stroke="black" points="473.5,-784.5 473.5,-803.5 532.5,-803.5 532.5,-784.5 473.5,-784.5"/>
<text text-anchor="middle" x="503" y="-791.5" font-family="Helvetica,sans-Serif" font-size="10.00">chkpnt.h</text>
</a>
</g>
</g>
<!-- Node1&#45;&gt;Node17 -->
<g id="edge21" class="edge">
<title>Node1&#45;&gt;Node17</title>
<path fill="none" stroke="midnightblue" d="M281.67,-840.44C331.57,-830.2 414.52,-813.17 463.46,-803.12"/>
<polygon fill="midnightblue" stroke="midnightblue" points="464.27,-806.53 473.36,-801.09 462.86,-799.67 464.27,-806.53"/>
</g>
<!-- Node3 -->
<g id="node3" class="node">
<title>Node3</title>
<g id="a_node3"><a xlink:href="mat_8h.html" target="_top" xlink:title="3x3 and 4x4 matrix types.">
<polygon fill="white" stroke="black" points="142.5,-560.5 142.5,-579.5 187.5,-579.5 187.5,-560.5 142.5,-560.5"/>
<text text-anchor="middle" x="165" y="-567.5" font-family="Helvetica,sans-Serif" font-size="10.00">mat.h</text>
</a>
</g>
</g>
<!-- Node2&#45;&gt;Node3 -->
<g id="edge2" class="edge">
<title>Node2&#45;&gt;Node3</title>
<path fill="none" stroke="midnightblue" d="M227.95,-616.32C216.54,-608.11 199.17,-595.6 185.57,-585.81"/>
<polygon fill="midnightblue" stroke="midnightblue" points="187.43,-582.84 177.27,-579.83 183.34,-588.52 187.43,-582.84"/>
</g>
<!-- Node4 -->
<g id="node4" class="node">
<title>Node4</title>
<g id="a_node4"><a xlink:href="vec_8h.html" target="_top" xlink:title="Vector math.">
<polygon fill="white" stroke="black" points="465.5,-280.5 465.5,-299.5 508.5,-299.5 508.5,-280.5 465.5,-280.5"/>
<text text-anchor="middle" x="487" y="-287.5" font-family="Helvetica,sans-Serif" font-size="10.00">vec.h</text>
</a>
</g>
</g>
<!-- Node2&#45;&gt;Node4 -->
<g id="edge3" class="edge">
<title>Node2&#45;&gt;Node4</title>
<path fill="none" stroke="midnightblue" d="M252.52,-616.5C265.11,-607.77 284.92,-593.59 301,-580 328.37,-556.87 337.24,-552.47 359,-524 415.09,-450.62 461.7,-349.59 479.38,-308.97"/>
<polygon fill="midnightblue" stroke="midnightblue" points="482.68,-310.16 483.42,-299.59 476.25,-307.4 482.68,-310.16"/>
</g>
<!-- Node15 -->
<g id="node15" class="node">
<title>Node15</title>
<g id="a_node15"><a xlink:href="sm_8h.html" target="_top" xlink:title="State machines.">
<polygon fill="white" stroke="black" points="477.5,-224.5 477.5,-243.5 518.5,-243.5 518.5,-224.5 477.5,-224.5"/>
<text text-anchor="middle" x="498" y="-231.5" font-family="Helvetica,sans-Serif" font-size="10.00">sm.h</text>
</a>
</g>
</g>
<!-- Node2&#45;&gt;Node15 -->
<g id="edge16" class="edge">
<title>Node2&#45;&gt;Node15</title>
<path fill="none" stroke="midnightblue" d="M219.18,-621.75C195.04,-616.88 155.67,-605.41 133,-580 112.96,-557.54 114,-545.1 114,-515 114,-515 114,-515 114,-457 114,-376.72 24.34,-339.71 78,-280 103.96,-251.11 374.61,-239.22 467.16,-235.98"/>
<polygon fill="midnightblue" stroke="midnightblue" points="467.42,-239.47 477.29,-235.63 467.18,-232.47 467.42,-239.47"/>
</g>
<!-- Node5 -->
<g id="node5" class="node">
<title>Node5</title>
<g id="a_node5"><a xlink:href="so_8h.html" target="_top" xlink:title="Scene objects.">
<polygon fill="white" stroke="black" points="560.5,-224.5 560.5,-243.5 597.5,-243.5 597.5,-224.5 560.5,-224.5"/>
<text text-anchor="middle" x="579" y="-231.5" font-family="Helvetica,sans-Serif" font-size="10.00">so.h</text>
</a>
</g>
</g>
<!-- Node4&#45;&gt;Node5 -->
<g id="edge4" class="edge">
<title>Node4&#45;&gt;Node5</title>
<path fill="none" stroke="midnightblue" d="M501.78,-280.32C516.27,-271.82 538.57,-258.73 555.49,-248.8"/>
<polygon fill="midnightblue" stroke="midnightblue" points="557.4,-251.74 564.26,-243.65 553.86,-245.7 557.4,-251.74"/>
</g>
<!-- Node6 -->
<g id="node6" class="node">
<title>Node6</title>
<g id="a_node6"><a xlink:href="alo_8h.html" target="_top" xlink:title=" ">
<polygon fill="white" stroke="black" points="682.5,-168.5 682.5,-187.5 723.5,-187.5 723.5,-168.5 682.5,-168.5"/>
<text text-anchor="middle" x="703" y="-175.5" font-family="Helvetica,sans-Serif" font-size="10.00">alo.h</text>
</a>
</g>
</g>
<!-- Node5&#45;&gt;Node6 -->
<g id="edge5" class="edge">
<title>Node5&#45;&gt;Node6</title>
<path fill="none" stroke="midnightblue" d="M597.56,-224.92C617.75,-216.12 650.29,-201.95 673.89,-191.68"/>
<polygon fill="midnightblue" stroke="midnightblue" points="675.3,-194.88 683.08,-187.68 672.51,-188.46 675.3,-194.88"/>
</g>
<!-- Node7 -->
<g id="node7" class="node">
<title>Node7</title>
<g id="a_node7"><a xlink:href="lo_8h.html" target="_top" xlink:title="Level objects.">
<polygon fill="white" stroke="black" points="523.5,-112.5 523.5,-131.5 558.5,-131.5 558.5,-112.5 523.5,-112.5"/>
<text text-anchor="middle" x="541" y="-119.5" font-family="Helvetica,sans-Serif" font-size="10.00">lo.h</text>
</a>
</g>
</g>
<!-- Node6&#45;&gt;Node7 -->
<g id="edge6" class="edge">
<title>Node6&#45;&gt;Node7</title>
<path fill="none" stroke="midnightblue" d="M682.48,-170.16C653.6,-160.53 600.87,-142.96 568.58,-132.19"/>
<polygon fill="midnightblue" stroke="midnightblue" points="569.46,-128.8 558.87,-128.96 567.25,-135.44 569.46,-128.8"/>
</g>
<!-- Node11 -->
<g id="node11" class="node">
<title>Node11</title>
<g id="a_node11"><a xlink:href="dl_8h.html" target="_top" xlink:title="Doubly&#45;linked list.">
<polygon fill="white" stroke="black" points="727.5,-56.5 727.5,-75.5 762.5,-75.5 762.5,-56.5 727.5,-56.5"/>
<text text-anchor="middle" x="745" y="-63.5" font-family="Helvetica,sans-Serif" font-size="10.00">dl.h</text>
</a>
</g>
</g>
<!-- Node6&#45;&gt;Node11 -->
<g id="edge15" class="edge">
<title>Node6&#45;&gt;Node11</title>
<path fill="none" stroke="midnightblue" d="M706.3,-168.37C713.13,-150.46 728.99,-108.92 738.15,-84.95"/>
<polygon fill="midnightblue" stroke="midnightblue" points="741.42,-86.18 741.72,-75.59 734.88,-83.69 741.42,-86.18"/>
</g>
<!-- Node8 -->
<g id="node8" class="node">
<title>Node8</title>
<g id="a_node8"><a xlink:href="oid_8h.html" target="_top" xlink:title="Object IDs.">
<polygon fill="white" stroke="black" points="806.5,-0.5 806.5,-19.5 847.5,-19.5 847.5,-0.5 806.5,-0.5"/>
<text text-anchor="middle" x="827" y="-7.5" font-family="Helvetica,sans-Serif" font-size="10.00">oid.h</text>
</a>
</g>
</g>
<!-- Node7&#45;&gt;Node8 -->
<g id="edge7" class="edge">
<title>Node7&#45;&gt;Node8</title>
<path fill="none" stroke="midnightblue" d="M558.5,-115.72C590.57,-105.98 657.51,-85.34 680,-76 697.99,-68.53 701.33,-64.2 719,-56 745.05,-43.92 775.26,-31.46 797.09,-22.72"/>
<polygon fill="midnightblue" stroke="midnightblue" points="798.49,-25.93 806.49,-18.99 795.9,-19.43 798.49,-25.93"/>
</g>
<!-- Node9 -->
<g id="node9" class="node">
<title>Node9</title>
<g id="a_node9"><a xlink:href="basic_8h.html" target="_top" xlink:title="Basic object.">
<polygon fill="white" stroke="black" points="515.5,-56.5 515.5,-75.5 566.5,-75.5 566.5,-56.5 515.5,-56.5"/>
<text text-anchor="middle" x="541" y="-63.5" font-family="Helvetica,sans-Serif" font-size="10.00">basic.h</text>
</a>
</g>
</g>
<!-- Node7&#45;&gt;Node9 -->
<g id="edge8" class="edge">
<title>Node7&#45;&gt;Node9</title>
<path fill="none" stroke="midnightblue" d="M541,-112.08C541,-105.01 541,-94.86 541,-85.99"/>
<polygon fill="midnightblue" stroke="midnightblue" points="544.5,-85.75 541,-75.75 537.5,-85.75 544.5,-85.75"/>
</g>
<!-- Node7&#45;&gt;Node11 -->
<g id="edge10" class="edge">
<title>Node7&#45;&gt;Node11</title>
<path fill="none" stroke="midnightblue" d="M558.59,-115.98C563.26,-114.66 568.32,-113.26 573,-112 635.04,-95.3 650.96,-92.7 713,-76 714.46,-75.61 715.96,-75.2 717.48,-74.78"/>
<polygon fill="midnightblue" stroke="midnightblue" points="718.72,-78.07 727.41,-72.02 716.84,-71.33 718.72,-78.07"/>
</g>
<!-- Node7&#45;&gt;Node12 -->
<g id="edge12" class="edge">
<title>Node7&#45;&gt;Node12</title>
<path fill="none" stroke="midnightblue" d="M523.24,-115.42C493.63,-106.13 433.91,-87.38 398.09,-76.13"/>
<polygon fill="midnightblue" stroke="midnightblue" points="398.82,-72.69 388.23,-73.04 396.72,-79.37 398.82,-72.69"/>
</g>
<!-- Node13 -->
<g id="node13" class="node">
<title>Node13</title>
<g id="a_node13"><a xlink:href="frame_8h.html" target="_top" xlink:title=" ">
<polygon fill="white" stroke="black" points="585,-56.5 585,-75.5 671,-75.5 671,-56.5 585,-56.5"/>
<text text-anchor="middle" x="628" y="-63.5" font-family="Helvetica,sans-Serif" font-size="10.00">splice/frame.h</text>
</a>
</g>
</g>
<!-- Node7&#45;&gt;Node13 -->
<g id="edge13" class="edge">
<title>Node7&#45;&gt;Node13</title>
<path fill="none" stroke="midnightblue" d="M554.98,-112.32C568.55,-103.9 589.38,-90.97 605.32,-81.07"/>
<polygon fill="midnightblue" stroke="midnightblue" points="607.41,-83.9 614.06,-75.65 603.71,-77.95 607.41,-83.9"/>
</g>
<!-- Node14 -->
<g id="node14" class="node">
<title>Node14</title>
<g id="a_node14"><a xlink:href="mq_8h.html" target="_top" xlink:title="Message queue.">
<polygon fill="white" stroke="black" points="456.5,-56.5 456.5,-75.5 497.5,-75.5 497.5,-56.5 456.5,-56.5"/>
<text text-anchor="middle" x="477" y="-63.5" font-family="Helvetica,sans-Serif" font-size="10.00">mq.h</text>
</a>
</g>
</g>
<!-- Node7&#45;&gt;Node14 -->
<g id="edge14" class="edge">
<title>Node7&#45;&gt;Node14</title>
<path fill="none" stroke="midnightblue" d="M530.72,-112.32C521.16,-104.26 506.72,-92.08 495.22,-82.37"/>
<polygon fill="midnightblue" stroke="midnightblue" points="497.37,-79.61 487.47,-75.83 492.86,-84.96 497.37,-79.61"/>
</g>
<!-- Node10 -->
<g id="node10" class="node">
<title>Node10</title>
<g id="a_node10"><a xlink:href="sidebag_8h.html" target="_top" xlink:title="Sidebag for splice.">
<polygon fill="white" stroke="black" points="493.5,-0.5 493.5,-19.5 588.5,-19.5 588.5,-0.5 493.5,-0.5"/>
<text text-anchor="middle" x="541" y="-7.5" font-family="Helvetica,sans-Serif" font-size="10.00">splice/sidebag.h</text>
</a>
</g>
</g>
<!-- Node9&#45;&gt;Node10 -->
<g id="edge9" class="edge">
<title>Node9&#45;&gt;Node10</title>
<path fill="none" stroke="midnightblue" d="M541,-56.08C541,-49.01 541,-38.86 541,-29.99"/>
<polygon fill="midnightblue" stroke="midnightblue" points="544.5,-29.75 541,-19.75 537.5,-29.75 544.5,-29.75"/>
</g>
<!-- Node11&#45;&gt;Node8 -->
<g id="edge11" class="edge">
<title>Node11&#45;&gt;Node8</title>
<path fill="none" stroke="midnightblue" d="M758.17,-56.32C770.85,-47.98 790.23,-35.21 805.21,-25.35"/>
<polygon fill="midnightblue" stroke="midnightblue" points="807.43,-28.08 813.86,-19.65 803.58,-22.23 807.43,-28.08"/>
</g>
<!-- Node15&#45;&gt;Node11 -->
<g id="edge17" class="edge">
<title>Node15&#45;&gt;Node11</title>
<path fill="none" stroke="midnightblue" d="M510.93,-224.31C551.11,-197.3 674.07,-114.67 723.8,-81.25"/>
<polygon fill="midnightblue" stroke="midnightblue" points="725.85,-84.09 732.2,-75.61 721.94,-78.28 725.85,-84.09"/>
</g>
<!-- Node15&#45;&gt;Node14 -->
<g id="edge20" class="edge">
<title>Node15&#45;&gt;Node14</title>
<path fill="none" stroke="midnightblue" d="M496.87,-224.08C493.57,-197.95 483.86,-121.21 479.35,-85.58"/>
<polygon fill="midnightblue" stroke="midnightblue" points="482.81,-85.05 478.08,-75.57 475.87,-85.93 482.81,-85.05"/>
</g>
<!-- Node16 -->
<g id="node16" class="node">
<title>Node16</title>
<g id="a_node16"><a xlink:href="anim_8h.html" target="_top" xlink:title="Animation.">
<polygon fill="white" stroke="black" points="614,-168.5 614,-187.5 664,-187.5 664,-168.5 614,-168.5"/>
<text text-anchor="middle" x="639" y="-175.5" font-family="Helvetica,sans-Serif" font-size="10.00">anim.h</text>
</a>
</g>
</g>
<!-- Node15&#45;&gt;Node16 -->
<g id="edge18" class="edge">
<title>Node15&#45;&gt;Node16</title>
<path fill="none" stroke="midnightblue" d="M518.5,-225.15C541.77,-216.24 580,-201.6 607.15,-191.2"/>
<polygon fill="midnightblue" stroke="midnightblue" points="608.52,-194.42 616.61,-187.58 606.02,-187.88 608.52,-194.42"/>
</g>
<!-- Node16&#45;&gt;Node7 -->
<g id="edge19" class="edge">
<title>Node16&#45;&gt;Node7</title>
<path fill="none" stroke="midnightblue" d="M623.25,-168.32C607.68,-159.74 583.62,-146.49 565.54,-136.52"/>
<polygon fill="midnightblue" stroke="midnightblue" points="567.15,-133.42 556.71,-131.65 563.78,-139.55 567.15,-133.42"/>
</g>
<!-- Node17&#45;&gt;Node4 -->
<g id="edge22" class="edge">
<title>Node17&#45;&gt;Node4</title>
<path fill="none" stroke="midnightblue" d="M505.97,-784.28C511.97,-765.82 525,-721.37 525,-683 525,-683 525,-683 525,-513 525,-433.61 518.18,-413.5 501,-336 499.01,-327 496.06,-317.21 493.38,-309.07"/>
<polygon fill="midnightblue" stroke="midnightblue" points="496.66,-307.85 490.12,-299.51 490.03,-310.11 496.66,-307.85"/>
</g>
<!-- Node18 -->
<g id="node18" class="node">
<title>Node18</title>
<g id="a_node18"><a xlink:href="vol_8h.html" target="_top" xlink:title="Volume object.">
<polygon fill="white" stroke="black" points="585.5,-728.5 585.5,-747.5 626.5,-747.5 626.5,-728.5 585.5,-728.5"/>
<text text-anchor="middle" x="606" y="-735.5" font-family="Helvetica,sans-Serif" font-size="10.00">vol.h</text>
</a>
</g>
</g>
<!-- Node17&#45;&gt;Node18 -->
<g id="edge23" class="edge">
<title>Node17&#45;&gt;Node18</title>
<path fill="none" stroke="midnightblue" d="M519.55,-784.32C535.99,-775.7 561.43,-762.36 580.47,-752.39"/>
<polygon fill="midnightblue" stroke="midnightblue" points="582.26,-755.4 589.49,-747.65 579.01,-749.2 582.26,-755.4"/>
</g>
<!-- Node26 -->
<g id="node26" class="node">
<title>Node26</title>
<g id="a_node26"><a xlink:href="bis_8h.html" target="_top" xlink:title="Binary Input Stream.">
<polygon fill="white" stroke="black" points="386,-616.5 386,-635.5 426,-635.5 426,-616.5 386,-616.5"/>
<text text-anchor="middle" x="406" y="-623.5" font-family="Helvetica,sans-Serif" font-size="10.00">bis.h</text>
</a>
</g>
</g>
<!-- Node17&#45;&gt;Node26 -->
<g id="edge61" class="edge">
<title>Node17&#45;&gt;Node26</title>
<path fill="none" stroke="midnightblue" d="M497.78,-784.08C482.32,-757.61 436.51,-679.21 416.06,-644.21"/>
<polygon fill="midnightblue" stroke="midnightblue" points="419.07,-642.44 411.01,-635.57 413.03,-645.97 419.07,-642.44"/>
</g>
<!-- Node19 -->
<g id="node19" class="node">
<title>Node19</title>
<g id="a_node19"><a xlink:href="xform_8h.html" target="_top" xlink:title="Transform.">
<polygon fill="white" stroke="black" points="634.5,-672.5 634.5,-691.5 689.5,-691.5 689.5,-672.5 634.5,-672.5"/>
<text text-anchor="middle" x="662" y="-679.5" font-family="Helvetica,sans-Serif" font-size="10.00">xform.h</text>
</a>
</g>
</g>
<!-- Node18&#45;&gt;Node19 -->
<g id="edge24" class="edge">
<title>Node18&#45;&gt;Node19</title>
<path fill="none" stroke="midnightblue" d="M615,-728.32C623.19,-720.42 635.51,-708.55 645.47,-698.94"/>
<polygon fill="midnightblue" stroke="midnightblue" points="648.07,-701.29 652.84,-691.83 643.21,-696.26 648.07,-701.29"/>
</g>
<!-- Node19&#45;&gt;Node2 -->
<g id="edge26" class="edge">
<title>Node19&#45;&gt;Node2</title>
<path fill="none" stroke="midnightblue" d="M634.31,-677.46C558.83,-667.8 349.84,-641.06 270.81,-630.94"/>
<polygon fill="midnightblue" stroke="midnightblue" points="270.91,-627.43 260.55,-629.63 270.02,-634.37 270.91,-627.43"/>
</g>
<!-- Node19&#45;&gt;Node6 -->
<g id="edge25" class="edge">
<title>Node19&#45;&gt;Node6</title>
<path fill="none" stroke="midnightblue" d="M666.81,-672.18C684.79,-638.4 747,-513.53 747,-403 747,-403 747,-403 747,-289 747,-254.04 727.6,-217.01 714.57,-196.07"/>
<polygon fill="midnightblue" stroke="midnightblue" points="717.49,-194.15 709.12,-187.65 711.61,-197.95 717.49,-194.15"/>
</g>
<!-- Node19&#45;&gt;Node8 -->
<g id="edge34" class="edge">
<title>Node19&#45;&gt;Node8</title>
<path fill="none" stroke="midnightblue" d="M689.56,-680.01C723.21,-677.36 779.97,-668.06 815,-636 853.88,-600.41 846.26,-576.14 854,-524 884.55,-318.18 875.24,-261.24 841,-56 839.5,-47.02 836.66,-37.35 833.93,-29.28"/>
<polygon fill="midnightblue" stroke="midnightblue" points="837.2,-28.02 830.52,-19.79 830.61,-30.39 837.2,-28.02"/>
</g>
<!-- Node19&#45;&gt;Node11 -->
<g id="edge27" class="edge">
<title>Node19&#45;&gt;Node11</title>
<path fill="none" stroke="midnightblue" d="M671.55,-672.5C680.63,-664 694.18,-650.18 703,-636 761,-542.79 785,-512.78 785,-403 785,-403 785,-403 785,-177 785,-142.62 767.53,-105.63 755.68,-84.5"/>
<polygon fill="midnightblue" stroke="midnightblue" points="758.62,-82.61 750.56,-75.73 752.58,-86.13 758.62,-82.61"/>
</g>
<!-- Node19&#45;&gt;Node16 -->
<g id="edge35" class="edge">
<title>Node19&#45;&gt;Node16</title>
<path fill="none" stroke="midnightblue" d="M658.9,-672.29C652.62,-653.86 639,-609.44 639,-571 639,-571 639,-571 639,-289 639,-256.95 639,-219.64 639,-197.75"/>
<polygon fill="midnightblue" stroke="midnightblue" points="642.5,-197.56 639,-187.56 635.5,-197.56 642.5,-197.56"/>
</g>
<!-- Node20 -->
<g id="node20" class="node">
<title>Node20</title>
<g id="a_node20"><a xlink:href="surf_8h.html" target="_top" xlink:title="Surfaces?">
<polygon fill="white" stroke="black" points="396,-336.5 396,-355.5 440,-355.5 440,-336.5 396,-336.5"/>
<text text-anchor="middle" x="418" y="-343.5" font-family="Helvetica,sans-Serif" font-size="10.00">surf.h</text>
</a>
</g>
</g>
<!-- Node19&#45;&gt;Node20 -->
<g id="edge28" class="edge">
<title>Node19&#45;&gt;Node20</title>
<path fill="none" stroke="midnightblue" d="M653.26,-672.49C636.39,-655.12 601,-613.58 601,-571 601,-571 601,-571 601,-513 601,-432.2 501.93,-380.44 449.58,-358.72"/>
<polygon fill="midnightblue" stroke="midnightblue" points="450.66,-355.38 440.07,-354.9 448.04,-361.88 450.66,-355.38"/>
</g>
<!-- Node22 -->
<g id="node22" class="node">
<title>Node22</title>
<g id="a_node22"><a xlink:href="game_8h.html" target="_top" xlink:title="Game state and level management.">
<polygon fill="white" stroke="black" points="328.5,-392.5 328.5,-411.5 381.5,-411.5 381.5,-392.5 328.5,-392.5"/>
<text text-anchor="middle" x="355" y="-399.5" font-family="Helvetica,sans-Serif" font-size="10.00">game.h</text>
</a>
</g>
</g>
<!-- Node19&#45;&gt;Node22 -->
<g id="edge31" class="edge">
<title>Node19&#45;&gt;Node22</title>
<path fill="none" stroke="midnightblue" d="M639.51,-672.36C622.94,-664.97 600.95,-652.84 587,-636 567.35,-612.29 563,-601.8 563,-571 563,-571 563,-571 563,-513 563,-436.51 451.71,-413.06 391.94,-405.99"/>
<polygon fill="midnightblue" stroke="midnightblue" points="392.09,-402.48 381.77,-404.88 391.33,-409.44 392.09,-402.48"/>
</g>
<!-- Node24 -->
<g id="node24" class="node">
<title>Node24</title>
<g id="a_node24"><a xlink:href="wipe_8h.html" target="_top" xlink:title="Screen wipes.">
<polygon fill="white" stroke="black" points="893.5,-112.5 893.5,-131.5 942.5,-131.5 942.5,-112.5 893.5,-112.5"/>
<text text-anchor="middle" x="918" y="-119.5" font-family="Helvetica,sans-Serif" font-size="10.00">wipe.h</text>
</a>
</g>
</g>
<!-- Node19&#45;&gt;Node24 -->
<g id="edge36" class="edge">
<title>Node19&#45;&gt;Node24</title>
<path fill="none" stroke="midnightblue" d="M689.62,-678.81C742.97,-674.07 857.55,-661.17 887,-636 910.41,-615.99 911,-601.8 911,-571 911,-571 911,-571 911,-233 911,-200.88 914.01,-163.6 916.08,-141.73"/>
<polygon fill="midnightblue" stroke="midnightblue" points="919.59,-141.84 917.08,-131.55 912.62,-141.15 919.59,-141.84"/>
</g>
<!-- Node19&#45;&gt;Node26 -->
<g id="edge40" class="edge">
<title>Node19&#45;&gt;Node26</title>
<path fill="none" stroke="midnightblue" d="M634.12,-675.12C585.6,-664.88 486.07,-643.89 436.07,-633.34"/>
<polygon fill="midnightblue" stroke="midnightblue" points="436.7,-629.9 426.19,-631.26 435.25,-636.75 436.7,-629.9"/>
</g>
<!-- Node36 -->
<g id="node36" class="node">
<title>Node36</title>
<g id="a_node36"><a xlink:href="proxy_8h.html" target="_top" xlink:title=" ">
<polygon fill="white" stroke="black" points="667,-448.5 667,-467.5 719,-467.5 719,-448.5 667,-448.5"/>
<text text-anchor="middle" x="693" y="-455.5" font-family="Helvetica,sans-Serif" font-size="10.00">proxy.h</text>
</a>
</g>
</g>
<!-- Node19&#45;&gt;Node36 -->
<g id="edge57" class="edge">
<title>Node19&#45;&gt;Node36</title>
<path fill="none" stroke="midnightblue" d="M663.22,-672.3C667.78,-639.63 683.94,-523.87 690.35,-477.96"/>
<polygon fill="midnightblue" stroke="midnightblue" points="693.84,-478.27 691.76,-467.88 686.91,-477.3 693.84,-478.27"/>
</g>
<!-- Node37 -->
<g id="node37" class="node">
<title>Node37</title>
<g id="a_node37"><a xlink:href="rs_8h.html" target="_top" xlink:title=" ">
<polygon fill="white" stroke="black" points="809.5,-504.5 809.5,-523.5 844.5,-523.5 844.5,-504.5 809.5,-504.5"/>
<text text-anchor="middle" x="827" y="-511.5" font-family="Helvetica,sans-Serif" font-size="10.00">rs.h</text>
</a>
</g>
</g>
<!-- Node19&#45;&gt;Node37 -->
<g id="edge59" class="edge">
<title>Node19&#45;&gt;Node37</title>
<path fill="none" stroke="midnightblue" d="M689.51,-679.19C719.65,-675.71 767.37,-665.56 795,-636 821.49,-607.65 826.6,-559.97 827.26,-533.73"/>
<polygon fill="midnightblue" stroke="midnightblue" points="830.76,-533.64 827.32,-523.62 823.76,-533.6 830.76,-533.64"/>
</g>
<!-- Node20&#45;&gt;Node4 -->
<g id="edge29" class="edge">
<title>Node20&#45;&gt;Node4</title>
<path fill="none" stroke="midnightblue" d="M429.09,-336.32C439.49,-328.18 455.26,-315.84 467.72,-306.09"/>
<polygon fill="midnightblue" stroke="midnightblue" points="469.99,-308.75 475.71,-299.83 465.68,-303.24 469.99,-308.75"/>
</g>
<!-- Node21 -->
<g id="node21" class="node">
<title>Node21</title>
<g id="a_node21"><a xlink:href="geom_8h.html" target="_top" xlink:title="Geometry.">
<polygon fill="white" stroke="black" points="87.5,-280.5 87.5,-299.5 140.5,-299.5 140.5,-280.5 87.5,-280.5"/>
<text text-anchor="middle" x="114" y="-287.5" font-family="Helvetica,sans-Serif" font-size="10.00">geom.h</text>
</a>
</g>
</g>
<!-- Node20&#45;&gt;Node21 -->
<g id="edge30" class="edge">
<title>Node20&#45;&gt;Node21</title>
<path fill="none" stroke="midnightblue" d="M395.73,-338.19C392.81,-337.4 389.84,-336.64 387,-336 303.29,-317.02 203.43,-302.61 150.75,-295.64"/>
<polygon fill="midnightblue" stroke="midnightblue" points="150.93,-292.13 140.56,-294.31 150.02,-299.07 150.93,-292.13"/>
</g>
<!-- Node22&#45;&gt;Node8 -->
<g id="edge32" class="edge">
<title>Node22&#45;&gt;Node8</title>
<path fill="none" stroke="midnightblue" d="M342.03,-392.43C318.69,-375.84 272,-336.93 272,-291 272,-291 272,-291 272,-121 272,-78.87 302.6,-73.33 341,-56 382.45,-37.29 696.15,-18.32 796.34,-12.68"/>
<polygon fill="midnightblue" stroke="midnightblue" points="796.63,-16.17 806.42,-12.11 796.24,-9.18 796.63,-16.17"/>
</g>
<!-- Node23 -->
<g id="node23" class="node">
<title>Node23</title>
<g id="a_node23"><a xlink:href="cid_8h.html" target="_top" xlink:title="Class IDs.">
<polygon fill="white" stroke="black" points="338,-336.5 338,-355.5 378,-355.5 378,-336.5 338,-336.5"/>
<text text-anchor="middle" x="358" y="-343.5" font-family="Helvetica,sans-Serif" font-size="10.00">cid.h</text>
</a>
</g>
</g>
<!-- Node22&#45;&gt;Node23 -->
<g id="edge33" class="edge">
<title>Node22&#45;&gt;Node23</title>
<path fill="none" stroke="midnightblue" d="M355.5,-392.08C355.89,-385.01 356.45,-374.86 356.95,-365.99"/>
<polygon fill="midnightblue" stroke="midnightblue" points="360.45,-365.93 357.51,-355.75 353.46,-365.54 360.45,-365.93"/>
</g>
<!-- Node24&#45;&gt;Node8 -->
<g id="edge39" class="edge">
<title>Node24&#45;&gt;Node8</title>
<path fill="none" stroke="midnightblue" d="M913.97,-112.44C907.62,-99.45 894.41,-74.34 879,-56 869.64,-44.86 857.4,-34.13 847.16,-25.94"/>
<polygon fill="midnightblue" stroke="midnightblue" points="849.17,-23.07 839.12,-19.71 844.88,-28.6 849.17,-23.07"/>
</g>
<!-- Node25 -->
<g id="node25" class="node">
<title>Node25</title>
<g id="a_node25"><a xlink:href="transition_8h.html" target="_top" xlink:title="Level transitions.">
<polygon fill="white" stroke="black" points="931,-56.5 931,-75.5 1003,-75.5 1003,-56.5 931,-56.5"/>
<text text-anchor="middle" x="967" y="-63.5" font-family="Helvetica,sans-Serif" font-size="10.00">transition.h</text>
</a>
</g>
</g>
<!-- Node24&#45;&gt;Node25 -->
<g id="edge37" class="edge">
<title>Node24&#45;&gt;Node25</title>
<path fill="none" stroke="midnightblue" d="M926.09,-112.08C933.16,-104.3 943.59,-92.8 952.15,-83.37"/>
<polygon fill="midnightblue" stroke="midnightblue" points="954.93,-85.51 959.06,-75.75 949.75,-80.8 954.93,-85.51"/>
</g>
<!-- Node25&#45;&gt;Node8 -->
<g id="edge38" class="edge">
<title>Node25&#45;&gt;Node8</title>
<path fill="none" stroke="midnightblue" d="M944.82,-56.44C921.16,-47.32 883.55,-32.81 857.2,-22.65"/>
<polygon fill="midnightblue" stroke="midnightblue" points="858.3,-19.32 847.71,-18.99 855.78,-25.85 858.3,-19.32"/>
</g>
<!-- Node26&#45;&gt;Node3 -->
<g id="edge54" class="edge">
<title>Node26&#45;&gt;Node3</title>
<path fill="none" stroke="midnightblue" d="M385.99,-620.73C349.41,-612.91 269.3,-595.61 202,-580 200.55,-579.66 199.07,-579.32 197.58,-578.97"/>
<polygon fill="midnightblue" stroke="midnightblue" points="198.22,-575.52 187.68,-576.6 196.59,-582.33 198.22,-575.52"/>
</g>
<!-- Node26&#45;&gt;Node4 -->
<g id="edge53" class="edge">
<title>Node26&#45;&gt;Node4</title>
<path fill="none" stroke="midnightblue" d="M423.46,-616.48C437.46,-608.79 456.59,-596.2 468,-580 485.33,-555.39 487,-545.1 487,-515 487,-515 487,-515 487,-457 487,-403.59 487,-340.52 487,-309.76"/>
<polygon fill="midnightblue" stroke="midnightblue" points="490.5,-309.64 487,-299.64 483.5,-309.64 490.5,-309.64"/>
</g>
<!-- Node26&#45;&gt;Node21 -->
<g id="edge55" class="edge">
<title>Node26&#45;&gt;Node21</title>
<path fill="none" stroke="midnightblue" d="M385.75,-624.8C351.16,-623.43 280.05,-616.07 235,-580 147.48,-509.93 149.69,-463.83 119,-356 114.69,-340.85 113.59,-322.95 113.48,-309.78"/>
<polygon fill="midnightblue" stroke="midnightblue" points="116.98,-309.64 113.59,-299.6 109.98,-309.57 116.98,-309.64"/>
</g>
<!-- Node27 -->
<g id="node27" class="node">
<title>Node27</title>
<g id="a_node27"><a xlink:href="prog_8h.html" target="_top" xlink:title=" ">
<polygon fill="white" stroke="black" points="244.5,-560.5 244.5,-579.5 291.5,-579.5 291.5,-560.5 244.5,-560.5"/>
<text text-anchor="middle" x="268" y="-567.5" font-family="Helvetica,sans-Serif" font-size="10.00">prog.h</text>
</a>
</g>
</g>
<!-- Node26&#45;&gt;Node27 -->
<g id="edge41" class="edge">
<title>Node26&#45;&gt;Node27</title>
<path fill="none" stroke="midnightblue" d="M385.93,-617.15C363.26,-608.28 326.08,-593.73 299.52,-583.33"/>
<polygon fill="midnightblue" stroke="midnightblue" points="300.5,-579.96 289.92,-579.58 297.95,-586.48 300.5,-579.96"/>
</g>
<!-- Node34 -->
<g id="node34" class="node">
<title>Node34</title>
<g id="a_node34"><a xlink:href="clock_8h.html" target="_top" xlink:title="Engine clock.">
<polygon fill="white" stroke="black" points="348.5,-560.5 348.5,-579.5 399.5,-579.5 399.5,-560.5 348.5,-560.5"/>
<text text-anchor="middle" x="374" y="-567.5" font-family="Helvetica,sans-Serif" font-size="10.00">clock.h</text>
</a>
</g>
</g>
<!-- Node26&#45;&gt;Node34 -->
<g id="edge52" class="edge">
<title>Node26&#45;&gt;Node34</title>
<path fill="none" stroke="midnightblue" d="M400.72,-616.08C396.29,-608.61 389.84,-597.72 384.38,-588.52"/>
<polygon fill="midnightblue" stroke="midnightblue" points="387.29,-586.57 379.19,-579.75 381.27,-590.14 387.29,-586.57"/>
</g>
<!-- Node35 -->
<g id="node35" class="node">
<title>Node35</title>
<g id="a_node35"><a xlink:href="cat_8h.html" target="_top" xlink:title="Catalog.">
<polygon fill="white" stroke="black" points="417.5,-560.5 417.5,-579.5 458.5,-579.5 458.5,-560.5 417.5,-560.5"/>
<text text-anchor="middle" x="438" y="-567.5" font-family="Helvetica,sans-Serif" font-size="10.00">cat.h</text>
</a>
</g>
</g>
<!-- Node26&#45;&gt;Node35 -->
<g id="edge56" class="edge">
<title>Node26&#45;&gt;Node35</title>
<path fill="none" stroke="midnightblue" d="M411.28,-616.08C415.71,-608.61 422.16,-597.72 427.62,-588.52"/>
<polygon fill="midnightblue" stroke="midnightblue" points="430.73,-590.14 432.81,-579.75 424.71,-586.57 430.73,-590.14"/>
</g>
<!-- Node28 -->
<g id="node28" class="node">
<title>Node28</title>
<g id="a_node28"><a xlink:href="binoc_8h.html" target="_top" xlink:title="Binoc&#45;u&#45;com.">
<polygon fill="white" stroke="black" points="242,-504.5 242,-523.5 294,-523.5 294,-504.5 242,-504.5"/>
<text text-anchor="middle" x="268" y="-511.5" font-family="Helvetica,sans-Serif" font-size="10.00">binoc.h</text>
</a>
</g>
</g>
<!-- Node27&#45;&gt;Node28 -->
<g id="edge42" class="edge">
<title>Node27&#45;&gt;Node28</title>
<path fill="none" stroke="midnightblue" d="M268,-560.08C268,-553.01 268,-542.86 268,-533.99"/>
<polygon fill="midnightblue" stroke="midnightblue" points="271.5,-533.75 268,-523.75 264.5,-533.75 271.5,-533.75"/>
</g>
<!-- Node33 -->
<g id="node33" class="node">
<title>Node33</title>
<g id="a_node33"><a xlink:href="gs_8h.html" target="_top" xlink:title="Graphics synthesizer.">
<polygon fill="white" stroke="black" points="312.5,-504.5 312.5,-523.5 349.5,-523.5 349.5,-504.5 312.5,-504.5"/>
<text text-anchor="middle" x="331" y="-511.5" font-family="Helvetica,sans-Serif" font-size="10.00">gs.h</text>
</a>
</g>
</g>
<!-- Node27&#45;&gt;Node33 -->
<g id="edge51" class="edge">
<title>Node27&#45;&gt;Node33</title>
<path fill="none" stroke="midnightblue" d="M278.12,-560.32C287.53,-552.26 301.74,-540.08 313.07,-530.37"/>
<polygon fill="midnightblue" stroke="midnightblue" points="315.38,-533 320.69,-523.83 310.82,-527.68 315.38,-533"/>
</g>
<!-- Node29 -->
<g id="node29" class="node">
<title>Node29</title>
<g id="a_node29"><a xlink:href="screen_8h.html" target="_top" xlink:title="GUI elements.">
<polygon fill="white" stroke="black" points="242,-448.5 242,-467.5 300,-467.5 300,-448.5 242,-448.5"/>
<text text-anchor="middle" x="271" y="-455.5" font-family="Helvetica,sans-Serif" font-size="10.00">screen.h</text>
</a>
</g>
</g>
<!-- Node28&#45;&gt;Node29 -->
<g id="edge43" class="edge">
<title>Node28&#45;&gt;Node29</title>
<path fill="none" stroke="midnightblue" d="M268.5,-504.08C268.89,-497.01 269.45,-486.86 269.95,-477.99"/>
<polygon fill="midnightblue" stroke="midnightblue" points="273.45,-477.93 270.51,-467.75 266.46,-477.54 273.45,-477.93"/>
</g>
<!-- Node29&#45;&gt;Node22 -->
<g id="edge45" class="edge">
<title>Node29&#45;&gt;Node22</title>
<path fill="none" stroke="midnightblue" d="M284.5,-448.32C297.6,-439.9 317.71,-426.97 333.11,-417.07"/>
<polygon fill="midnightblue" stroke="midnightblue" points="335.02,-420.01 341.54,-411.65 331.23,-414.12 335.02,-420.01"/>
</g>
<!-- Node30 -->
<g id="node30" class="node">
<title>Node30</title>
<g id="a_node30"><a xlink:href="font_8h.html" target="_top" xlink:title="Font system.">
<polygon fill="white" stroke="black" points="259.5,-392.5 259.5,-411.5 304.5,-411.5 304.5,-392.5 259.5,-392.5"/>
<text text-anchor="middle" x="282" y="-399.5" font-family="Helvetica,sans-Serif" font-size="10.00">font.h</text>
</a>
</g>
</g>
<!-- Node29&#45;&gt;Node30 -->
<g id="edge44" class="edge">
<title>Node29&#45;&gt;Node30</title>
<path fill="none" stroke="midnightblue" d="M272.82,-448.08C274.27,-440.93 276.37,-430.64 278.19,-421.69"/>
<polygon fill="midnightblue" stroke="midnightblue" points="281.65,-422.25 280.22,-411.75 274.79,-420.85 281.65,-422.25"/>
</g>
<!-- Node31 -->
<g id="node31" class="node">
<title>Node31</title>
<g id="a_node31"><a xlink:href="shd_8h.html" target="_top" xlink:title="Shaders.">
<polygon fill="white" stroke="black" points="198.5,-392.5 198.5,-411.5 241.5,-411.5 241.5,-392.5 198.5,-392.5"/>
<text text-anchor="middle" x="220" y="-399.5" font-family="Helvetica,sans-Serif" font-size="10.00">shd.h</text>
</a>
</g>
</g>
<!-- Node29&#45;&gt;Node31 -->
<g id="edge46" class="edge">
<title>Node29&#45;&gt;Node31</title>
<path fill="none" stroke="midnightblue" d="M262.58,-448.08C255.15,-440.22 244.15,-428.57 235.19,-419.08"/>
<polygon fill="midnightblue" stroke="midnightblue" points="237.68,-416.62 228.26,-411.75 232.59,-421.42 237.68,-416.62"/>
</g>
<!-- Node31&#45;&gt;Node4 -->
<g id="edge50" class="edge">
<title>Node31&#45;&gt;Node4</title>
<path fill="none" stroke="midnightblue" d="M232.18,-392.28C251.75,-378.62 291.78,-352.07 329,-336 371.29,-317.74 423.11,-304.61 455.6,-297.4"/>
<polygon fill="midnightblue" stroke="midnightblue" points="456.41,-300.81 465.44,-295.27 454.92,-293.97 456.41,-300.81"/>
</g>
<!-- Node31&#45;&gt;Node20 -->
<g id="edge49" class="edge">
<title>Node31&#45;&gt;Node20</title>
<path fill="none" stroke="midnightblue" d="M241.6,-394.42C244.42,-393.59 247.28,-392.77 250,-392 307.64,-375.78 324.68,-373.03 385.88,-356.25"/>
<polygon fill="midnightblue" stroke="midnightblue" points="386.96,-359.59 395.67,-353.56 385.1,-352.84 386.96,-359.59"/>
</g>
<!-- Node31&#45;&gt;Node21 -->
<g id="edge48" class="edge">
<title>Node31&#45;&gt;Node21</title>
<path fill="none" stroke="midnightblue" d="M198.27,-395.14C178.48,-388.71 149.86,-376.48 133,-356 122.15,-342.82 117.49,-323.69 115.5,-309.59"/>
<polygon fill="midnightblue" stroke="midnightblue" points="118.97,-309.13 114.4,-299.57 112.01,-309.89 118.97,-309.13"/>
</g>
<!-- Node32 -->
<g id="node32" class="node">
<title>Node32</title>
<g id="a_node32"><a xlink:href="eestruct_8h.html" target="_top" xlink:title="Graphics synthesizer.">
<polygon fill="white" stroke="black" points="142.5,-336.5 142.5,-355.5 243.5,-355.5 243.5,-336.5 142.5,-336.5"/>
<text text-anchor="middle" x="193" y="-343.5" font-family="Helvetica,sans-Serif" font-size="10.00">sdk/ee/eestruct.h</text>
</a>
</g>
</g>
<!-- Node31&#45;&gt;Node32 -->
<g id="edge47" class="edge">
<title>Node31&#45;&gt;Node32</title>
<path fill="none" stroke="midnightblue" d="M215.54,-392.08C211.85,-384.69 206.48,-373.95 201.91,-364.81"/>
<polygon fill="midnightblue" stroke="midnightblue" points="204.98,-363.13 197.38,-355.75 198.72,-366.26 204.98,-363.13"/>
</g>
<!-- Node36&#45;&gt;Node6 -->
<g id="edge58" class="edge">
<title>Node36&#45;&gt;Node6</title>
<path fill="none" stroke="midnightblue" d="M693.65,-448.45C695.01,-429.95 698,-384.85 698,-347 698,-347 698,-347 698,-289 698,-256.91 700.15,-219.62 701.63,-197.74"/>
<polygon fill="midnightblue" stroke="midnightblue" points="705.14,-197.77 702.35,-187.55 698.15,-197.28 705.14,-197.77"/>
</g>
<!-- Node37&#45;&gt;Node8 -->
<g id="edge60" class="edge">
<title>Node37&#45;&gt;Node8</title>
<path fill="none" stroke="midnightblue" d="M827,-504.44C827,-485.94 827,-440.81 827,-403 827,-403 827,-403 827,-121 827,-88.95 827,-51.64 827,-29.75"/>
<polygon fill="midnightblue" stroke="midnightblue" points="830.5,-29.56 827,-19.56 823.5,-29.56 830.5,-29.56"/>
</g>
</g>
</svg>
        <g id="navigator" transform="translate(0 0)" fill="#404254">
                <rect fill="#f2f5e9" fill-opacity="0.5" stroke="#606060" stroke-width=".5" x="0" y="0" width="60" height="60"/>
                <use id="zoomplus" xlink:href="#zoomPlus" x="17" y="9" onmousedown="handleZoom(evt,'in')"/>
                <use id="zoomminus" xlink:href="#zoomMin" x="42" y="9" onmousedown="handleZoom(evt,'out')"/>
                <use id="reset" xlink:href="#resetDef" x="30" y="36" onmousedown="handleReset()"/>
                <g id="arrowUp" xlink:href="#dirArrow" transform="translate(30 24)" onmousedown="handlePan(0,-1)">
                  <use xlink:href="#rim" fill="#404040">
                        <set attributeName="fill" to="#808080" begin="arrowUp.mouseover" end="arrowUp.mouseout"/>
                  </use>
                  <path fill="none" stroke="white" stroke-width="1.5" d="M0,-3.0v7 M-2.5,-0.5L0,-3.0L2.5,-0.5"/>
                </g>
                <g id="arrowRight" xlink:href="#dirArrow" transform="rotate(90) translate(36 -43)" onmousedown="handlePan(1,0)">
                  <use xlink:href="#rim" fill="#404040">
                        <set attributeName="fill" to="#808080" begin="arrowRight.mouseover" end="arrowRight.mouseout"/>
                  </use>
                  <path fill="none" stroke="white" stroke-width="1.5" d="M0,-3.0v7 M-2.5,-0.5L0,-3.0L2.5,-0.5"/>
                </g>
                <g id="arrowDown" xlink:href="#dirArrow" transform="rotate(180) translate(-30 -48)" onmousedown="handlePan(0,1)">
                  <use xlink:href="#rim" fill="#404040">
                        <set attributeName="fill" to="#808080" begin="arrowDown.mouseover" end="arrowDown.mouseout"/>
                  </use>
                  <path fill="none" stroke="white" stroke-width="1.5" d="M0,-3.0v7 M-2.5,-0.5L0,-3.0L2.5,-0.5"/>
                </g>
                <g id="arrowLeft" xlink:href="#dirArrow" transform="rotate(270) translate(-36 17)" onmousedown="handlePan(-1,0)">
                  <use xlink:href="#rim" fill="#404040">
                        <set attributeName="fill" to="#808080" begin="arrowLeft.mouseover" end="arrowLeft.mouseout"/>
                  </use>
                  <path fill="none" stroke="white" stroke-width="1.5" d="M0,-3.0v7 M-2.5,-0.5L0,-3.0L2.5,-0.5"/>
                </g>
        </g>
        <svg viewBox="0 0 15 15" width="100%" height="30px" preserveAspectRatio="xMaxYMin meet">
         <g id="arrow_out" transform="scale(0.3 0.3)">
          <a xlink:href="difficulty_8h__incl_org.svg" target="_base">
           <rect id="button" ry="5" rx="5" y="6" x="6" height="38" width="38"
                fill="#f2f5e9" fill-opacity="0.5" stroke="#606060" stroke-width="1.0"/>
           <path id="arrow"
             d="M 11.500037,31.436501 C 11.940474,20.09759 22.043105,11.32322 32.158766,21.979434 L 37.068811,17.246167 C 37.068811,17.246167 37.088388,32 37.088388,32 L 22.160133,31.978069 C 22.160133,31.978069 26.997745,27.140456 26.997745,27.140456 C 18.528582,18.264221 13.291696,25.230495 11.500037,31.436501 z"
             style="fill:#404040;"/>
          </a>
         </g>
        </svg>
</svg>
