<?xml version="1.0" encoding="UTF-8" standalone="no"?>
<!DOCTYPE svg PUBLIC "-//W3C//DTD SVG 1.1//EN"
 "http://www.w3.org/Graphics/SVG/1.1/DTD/svg11.dtd">
<!-- Generated by graphviz version 2.43.0 (0)
 -->
<!-- Title: include Pages: 1 -->
<svg width="310pt" height="148pt"
 viewBox="0.00 0.00 310.00 148.00" xmlns="http://www.w3.org/2000/svg" xmlns:xlink="http://www.w3.org/1999/xlink">
<g id="graph0" class="graph" transform="scale(1 1) rotate(0) translate(4 144)">
<title>include</title>
<polygon fill="white" stroke="transparent" points="-4,4 -4,-144 306,-144 306,4 -4,4"/>
<g id="clust1" class="cluster">
<title>clusterdir_d44c64559bbebec7f509842c48db8b23</title>
<g id="a_clust1"><a xlink:href="dir_d44c64559bbebec7f509842c48db8b23.html" target="_top">
<polygon fill="#eeeeff" stroke="black" points="8,-8 8,-132 294,-132 294,-8 8,-8"/>
</a>
</g>
</g>
<!-- dir_d44c64559bbebec7f509842c48db8b23 -->
<g id="node1" class="node">
<title>dir_d44c64559bbebec7f509842c48db8b23</title>
<text text-anchor="middle" x="259" y="-103.5" font-family="Helvetica,sans-Serif" font-size="10.00">include</text>
</g>
<!-- dir_1ede18532ce6284c46efe733029b594d -->
<g id="node5" class="node">
<title>dir_1ede18532ce6284c46efe733029b594d</title>
<g id="a_node5"><a xlink:href="dir_1ede18532ce6284c46efe733029b594d.html" target="_top" xlink:title="sdk">
<polygon fill="white" stroke="red" points="214,-52 160,-52 160,-16 214,-16 214,-52"/>
<text text-anchor="middle" x="187" y="-31.5" font-family="Helvetica,sans-Serif" font-size="10.00">sdk</text>
</a>
</g>
</g>
<!-- dir_d44c64559bbebec7f509842c48db8b23&#45;&gt;dir_1ede18532ce6284c46efe733029b594d -->
<g id="edge2" class="edge">
<title>dir_d44c64559bbebec7f509842c48db8b23&#45;&gt;dir_1ede18532ce6284c46efe733029b594d</title>
<path fill="none" stroke="black" d="M241.2,-87.7C232.4,-79.14 221.62,-68.66 212,-59.3"/>
<polygon fill="black" stroke="black" points="214.2,-56.57 204.59,-52.1 209.32,-61.58 214.2,-56.57"/>
<g id="a_edge2&#45;headlabel"><a xlink:href="dir_000001_000006.html" target="_top" xlink:title="3">
<text text-anchor="middle" x="218.76" y="-54.54" font-family="Helvetica,sans-Serif" font-size="10.00">3</text>
</a>
</g>
</g>
<!-- dir_23baffee792579c8d813c328b6f753b1 -->
<g id="node6" class="node">
<title>dir_23baffee792579c8d813c328b6f753b1</title>
<g id="a_node6"><a xlink:href="dir_23baffee792579c8d813c328b6f753b1.html" target="_top" xlink:title="splice">
<polygon fill="white" stroke="black" points="286,-52 232,-52 232,-16 286,-16 286,-52"/>
<text text-anchor="middle" x="259" y="-31.5" font-family="Helvetica,sans-Serif" font-size="10.00">splice</text>
</a>
</g>
</g>
<!-- dir_d44c64559bbebec7f509842c48db8b23&#45;&gt;dir_23baffee792579c8d813c328b6f753b1 -->
<g id="edge1" class="edge">
<title>dir_d44c64559bbebec7f509842c48db8b23&#45;&gt;dir_23baffee792579c8d813c328b6f753b1</title>
<path fill="none" stroke="black" d="M259,-87.7C259,-79.98 259,-70.71 259,-62.11"/>
<polygon fill="black" stroke="black" points="262.5,-62.1 259,-52.1 255.5,-62.1 262.5,-62.1"/>
<g id="a_edge1&#45;headlabel"><a xlink:href="dir_000001_000008.html" target="_top" xlink:title="2">
<text text-anchor="middle" x="265.34" y="-63.2" font-family="Helvetica,sans-Serif" font-size="10.00">2</text>
</a>
</g>
</g>
<!-- dir_969e0773b27e378cdc2da0845b5406f4 -->
<g id="node2" class="node">
<title>dir_969e0773b27e378cdc2da0845b5406f4</title>
<g id="a_node2"><a xlink:href="dir_969e0773b27e378cdc2da0845b5406f4.html" target="_top" xlink:title="gcc">
<polygon fill="white" stroke="black" points="214,-124 160,-124 160,-88 214,-88 214,-124"/>
<text text-anchor="middle" x="187" y="-103.5" font-family="Helvetica,sans-Serif" font-size="10.00">gcc</text>
</a>
</g>
</g>
<!-- dir_a61f22007e0f347cded0d82030ee545d -->
<g id="node3" class="node">
<title>dir_a61f22007e0f347cded0d82030ee545d</title>
<g id="a_node3"><a xlink:href="dir_a61f22007e0f347cded0d82030ee545d.html" target="_top" xlink:title="lib">
<polygon fill="white" stroke="red" points="142,-124 88,-124 88,-88 142,-88 142,-124"/>
<text text-anchor="middle" x="115" y="-103.5" font-family="Helvetica,sans-Serif" font-size="10.00">lib</text>
</a>
</g>
</g>
<!-- dir_cd78c0b4510bca7204a44a61df6f442c -->
<g id="node4" class="node">
<title>dir_cd78c0b4510bca7204a44a61df6f442c</title>
<g id="a_node4"><a xlink:href="dir_cd78c0b4510bca7204a44a61df6f442c.html" target="_top" xlink:title="sce">
<polygon fill="white" stroke="black" points="70,-124 16,-124 16,-88 70,-88 70,-124"/>
<text text-anchor="middle" x="43" y="-103.5" font-family="Helvetica,sans-Serif" font-size="10.00">sce</text>
</a>
</g>
</g>
</g>
</svg>
