<?xml version="1.0" encoding="UTF-8" standalone="no"?>
<!DOCTYPE svg PUBLIC "-//W3C//DTD SVG 1.1//EN"
 "http://www.w3.org/Graphics/SVG/1.1/DTD/svg11.dtd">
<!-- Generated by graphviz version 2.43.0 (0)
 -->
<!-- Title: include/dl.h Pages: 1 -->
<!--zoomable 588 -->
<svg id="main" version="1.1" xmlns="http://www.w3.org/2000/svg" xmlns:xlink="http://www.w3.org/1999/xlink" xml:space="preserve" onload="init(evt)">
<style type="text/css"><![CDATA[
.edge:hover path { stroke: red; }
.edge:hover polygon { stroke: red; fill: red; }
]]></style>
<script type="text/javascript"><![CDATA[
var edges = document.getElementsByTagName('g');
if (edges && edges.length) {
  for (var i=0;i<edges.length;i++) {
    if (edges[i].id.substr(0,4)=='edge') {
      edges[i].setAttribute('class','edge');
    }
  }
}
]]></script>
        <defs>
                <circle id="rim" cx="0" cy="0" r="7"/>
                <circle id="rim2" cx="0" cy="0" r="3.5"/>
                <g id="zoomPlus">
                        <use xlink:href="#rim" fill="#404040">
                                <set attributeName="fill" to="#808080" begin="zoomplus.mouseover" end="zoomplus.mouseout"/>
                        </use>
                        <path d="M-4,0h8M0,-4v8" fill="none" stroke="white" stroke-width="1.5" pointer-events="none"/>
                </g>
                <g id="zoomMin">
                        <use xlink:href="#rim" fill="#404040">
                                <set attributeName="fill" to="#808080" begin="zoomminus.mouseover" end="zoomminus.mouseout"/>
                        </use>
                        <path d="M-4,0h8" fill="none" stroke="white" stroke-width="1.5" pointer-events="none"/>
                </g>
                <g id="dirArrow">
                        <path fill="none" stroke="white" stroke-width="1.5" d="M0,-3.0v7 M-2.5,-0.5L0,-3.0L2.5,-0.5"/>
                </g>
               <g id="resetDef">
                       <use xlink:href="#rim2" fill="#404040">
                               <set attributeName="fill" to="#808080" begin="reset.mouseover" end="reset.mouseout"/>
                       </use>
               </g>
        </defs>

<script type="text/javascript">
var viewWidth = 1141;
var viewHeight = 588;
var sectionId = 'dynsection-1';
</script>
<script xlink:href="svgpan.js"/>
<svg id="graph" class="graph">
<g id="viewport">
<title>include/dl.h</title>
<polygon fill="white" stroke="transparent" points="-4,4 -4,-584 1137,-584 1137,4 -4,4"/>
<!-- Node1 -->
<g id="node1" class="node">
<title>Node1</title>
<g id="a_node1"><a xlink:title=" ">
<polygon fill="#bfbfbf" stroke="black" points="981.5,-560.5 981.5,-579.5 1054.5,-579.5 1054.5,-560.5 981.5,-560.5"/>
<text text-anchor="middle" x="1018" y="-567.5" font-family="Helvetica,sans-Serif" font-size="10.00">include/dl.h</text>
</a>
</g>
</g>
<!-- Node2 -->
<g id="node2" class="node">
<title>Node2</title>
<g id="a_node2"><a xlink:href="alo_8h.html" target="_top" xlink:title=" ">
<polygon fill="white" stroke="black" points="825.5,-448.5 825.5,-467.5 904.5,-467.5 904.5,-448.5 825.5,-448.5"/>
<text text-anchor="middle" x="865" y="-455.5" font-family="Helvetica,sans-Serif" font-size="10.00">include/alo.h</text>
</a>
</g>
</g>
<!-- Node1&#45;&gt;Node2 -->
<g id="edge1" class="edge">
<title>Node1&#45;&gt;Node2</title>
<path fill="none" stroke="midnightblue" d="M997.72,-554.42C965.36,-531.15 903.04,-486.35 876.95,-467.59"/>
<polygon fill="midnightblue" stroke="midnightblue" points="995.83,-557.37 1005.99,-560.37 999.92,-551.69 995.83,-557.37"/>
</g>
<!-- Node8 -->
<g id="node8" class="node">
<title>Node8</title>
<g id="a_node8"><a xlink:href="xform_8h.html" target="_top" xlink:title="Transform.">
<polygon fill="white" stroke="black" points="810.5,-224.5 810.5,-243.5 903.5,-243.5 903.5,-224.5 810.5,-224.5"/>
<text text-anchor="middle" x="857" y="-231.5" font-family="Helvetica,sans-Serif" font-size="10.00">include/xform.h</text>
</a>
</g>
</g>
<!-- Node1&#45;&gt;Node8 -->
<g id="edge62" class="edge">
<title>Node1&#45;&gt;Node8</title>
<path fill="none" stroke="midnightblue" d="M1030.36,-552.04C1044.28,-531.21 1065,-494.3 1065,-459 1065,-459 1065,-459 1065,-401 1065,-375.94 915.55,-274.09 870.01,-243.64"/>
<polygon fill="midnightblue" stroke="midnightblue" points="1027.37,-550.2 1024.54,-560.41 1033.12,-554.2 1027.37,-550.2"/>
</g>
<!-- Node40 -->
<g id="node40" class="node">
<title>Node40</title>
<g id="a_node40"><a xlink:href="lo_8h.html" target="_top" xlink:title="Level objects.">
<polygon fill="white" stroke="black" points="842.5,-504.5 842.5,-523.5 915.5,-523.5 915.5,-504.5 842.5,-504.5"/>
<text text-anchor="middle" x="879" y="-511.5" font-family="Helvetica,sans-Serif" font-size="10.00">include/lo.h</text>
</a>
</g>
</g>
<!-- Node1&#45;&gt;Node40 -->
<g id="edge53" class="edge">
<title>Node1&#45;&gt;Node40</title>
<path fill="none" stroke="midnightblue" d="M986.52,-556.77C960.41,-546.63 923.96,-532.47 900.92,-523.52"/>
<polygon fill="midnightblue" stroke="midnightblue" points="985.39,-560.08 995.98,-560.44 987.92,-553.56 985.39,-560.08"/>
</g>
<!-- Node42 -->
<g id="node42" class="node">
<title>Node42</title>
<g id="a_node42"><a xlink:href="sm_8h.html" target="_top" xlink:title="State machines.">
<polygon fill="white" stroke="black" points="997.5,-224.5 997.5,-243.5 1076.5,-243.5 1076.5,-224.5 997.5,-224.5"/>
<text text-anchor="middle" x="1037" y="-231.5" font-family="Helvetica,sans-Serif" font-size="10.00">include/sm.h</text>
</a>
</g>
</g>
<!-- Node1&#45;&gt;Node42 -->
<g id="edge61" class="edge">
<title>Node1&#45;&gt;Node42</title>
<path fill="none" stroke="midnightblue" d="M1043.47,-554.99C1055.63,-547.22 1069.55,-536.58 1079,-524 1097.5,-499.38 1103,-489.8 1103,-459 1103,-459 1103,-459 1103,-401 1103,-345.14 1093.1,-330.4 1069,-280 1062.47,-266.34 1051.81,-252.4 1044.61,-243.73"/>
<polygon fill="midnightblue" stroke="midnightblue" points="1041.35,-552.18 1034.61,-560.36 1044.98,-558.17 1041.35,-552.18"/>
</g>
<!-- Node3 -->
<g id="node3" class="node">
<title>Node3</title>
<g id="a_node3"><a xlink:href="coin_8h.html" target="_top" xlink:title="Coins, keys, and other collectibles.">
<polygon fill="white" stroke="black" points="1049,-168.5 1049,-187.5 1133,-187.5 1133,-168.5 1049,-168.5"/>
<text text-anchor="middle" x="1091" y="-175.5" font-family="Helvetica,sans-Serif" font-size="10.00">include/coin.h</text>
</a>
</g>
</g>
<!-- Node2&#45;&gt;Node3 -->
<g id="edge2" class="edge">
<title>Node2&#45;&gt;Node3</title>
<path fill="none" stroke="midnightblue" d="M903.47,-445.15C924.33,-437.62 949.88,-426.54 970,-412 1023.84,-373.08 1036.61,-358 1069,-300 1090.13,-262.16 1091.58,-208.25 1091.28,-187.55"/>
<polygon fill="midnightblue" stroke="midnightblue" points="902.25,-441.87 893.96,-448.46 904.55,-448.48 902.25,-441.87"/>
</g>
<!-- Node5 -->
<g id="node5" class="node">
<title>Node5</title>
<g id="a_node5"><a xlink:href="find_8h.html" target="_top" xlink:title="Find objects in the SW.">
<polygon fill="white" stroke="black" points="879,-392.5 879,-411.5 961,-411.5 961,-392.5 879,-392.5"/>
<text text-anchor="middle" x="920" y="-399.5" font-family="Helvetica,sans-Serif" font-size="10.00">include/find.h</text>
</a>
</g>
</g>
<!-- Node2&#45;&gt;Node5 -->
<g id="edge4" class="edge">
<title>Node2&#45;&gt;Node5</title>
<path fill="none" stroke="midnightblue" d="M881.29,-441C891.04,-431.43 903.05,-419.64 911.09,-411.75"/>
<polygon fill="midnightblue" stroke="midnightblue" points="878.77,-438.58 874.08,-448.08 883.67,-443.57 878.77,-438.58"/>
</g>
<!-- Node7 -->
<g id="node7" class="node">
<title>Node7</title>
<g id="a_node7"><a xlink:href="proxy_8h.html" target="_top" xlink:title=" ">
<polygon fill="white" stroke="black" points="733,-392.5 733,-411.5 823,-411.5 823,-392.5 733,-392.5"/>
<text text-anchor="middle" x="778" y="-399.5" font-family="Helvetica,sans-Serif" font-size="10.00">include/proxy.h</text>
</a>
</g>
</g>
<!-- Node2&#45;&gt;Node7 -->
<g id="edge6" class="edge">
<title>Node2&#45;&gt;Node7</title>
<path fill="none" stroke="midnightblue" d="M842.28,-442.9C826.33,-433 805.5,-420.07 791.94,-411.65"/>
<polygon fill="midnightblue" stroke="midnightblue" points="840.68,-446.02 851.02,-448.32 844.37,-440.08 840.68,-446.02"/>
</g>
<!-- Node2&#45;&gt;Node8 -->
<g id="edge52" class="edge">
<title>Node2&#45;&gt;Node8</title>
<path fill="none" stroke="midnightblue" d="M864.33,-438.3C862.68,-392.64 858.51,-276.85 857.32,-243.88"/>
<polygon fill="midnightblue" stroke="midnightblue" points="860.83,-438.43 864.69,-448.3 867.82,-438.18 860.83,-438.43"/>
</g>
<!-- Node20 -->
<g id="node20" class="node">
<title>Node20</title>
<g id="a_node20"><a xlink:href="so_8h.html" target="_top" xlink:title="Scene objects.">
<polygon fill="white" stroke="black" points="534.5,-392.5 534.5,-411.5 609.5,-411.5 609.5,-392.5 534.5,-392.5"/>
<text text-anchor="middle" x="572" y="-399.5" font-family="Helvetica,sans-Serif" font-size="10.00">include/so.h</text>
</a>
</g>
</g>
<!-- Node2&#45;&gt;Node20 -->
<g id="edge20" class="edge">
<title>Node2&#45;&gt;Node20</title>
<path fill="none" stroke="midnightblue" d="M815.41,-447.86C757.19,-437.13 661.92,-419.57 609.5,-409.91"/>
<polygon fill="midnightblue" stroke="midnightblue" points="815.02,-451.35 825.48,-449.72 816.28,-444.46 815.02,-451.35"/>
</g>
<!-- Node39 -->
<g id="node39" class="node">
<title>Node39</title>
<g id="a_node39"><a xlink:href="sound_8h.html" target="_top" xlink:title="Sound playback.">
<polygon fill="white" stroke="black" points="600.5,-224.5 600.5,-243.5 693.5,-243.5 693.5,-224.5 600.5,-224.5"/>
<text text-anchor="middle" x="647" y="-231.5" font-family="Helvetica,sans-Serif" font-size="10.00">include/sound.h</text>
</a>
</g>
</g>
<!-- Node2&#45;&gt;Node39 -->
<g id="edge51" class="edge">
<title>Node2&#45;&gt;Node39</title>
<path fill="none" stroke="midnightblue" d="M815.18,-451.49C785.59,-445.9 749.07,-434.65 724,-412 670.79,-363.93 652.73,-272.54 648.24,-243.85"/>
<polygon fill="midnightblue" stroke="midnightblue" points="814.88,-454.99 825.33,-453.24 816.07,-448.1 814.88,-454.99"/>
</g>
<!-- Node4 -->
<g id="node4" class="node">
<title>Node4</title>
<g id="a_node4"><a xlink:href="coin_8c.html" target="_top" xlink:title=" ">
<polygon fill="white" stroke="black" points="1052.5,-112.5 1052.5,-131.5 1129.5,-131.5 1129.5,-112.5 1052.5,-112.5"/>
<text text-anchor="middle" x="1091" y="-119.5" font-family="Helvetica,sans-Serif" font-size="10.00">src/P2/coin.c</text>
</a>
</g>
</g>
<!-- Node3&#45;&gt;Node4 -->
<g id="edge3" class="edge">
<title>Node3&#45;&gt;Node4</title>
<path fill="none" stroke="midnightblue" d="M1091,-157.8C1091,-148.91 1091,-138.78 1091,-131.75"/>
<polygon fill="midnightblue" stroke="midnightblue" points="1087.5,-158.08 1091,-168.08 1094.5,-158.08 1087.5,-158.08"/>
</g>
<!-- Node6 -->
<g id="node6" class="node">
<title>Node6</title>
<g id="a_node6"><a xlink:href="find_8c.html" target="_top" xlink:title=" ">
<polygon fill="white" stroke="black" points="883.5,-336.5 883.5,-355.5 958.5,-355.5 958.5,-336.5 883.5,-336.5"/>
<text text-anchor="middle" x="921" y="-343.5" font-family="Helvetica,sans-Serif" font-size="10.00">src/P2/find.c</text>
</a>
</g>
</g>
<!-- Node5&#45;&gt;Node6 -->
<g id="edge5" class="edge">
<title>Node5&#45;&gt;Node6</title>
<path fill="none" stroke="midnightblue" d="M920.36,-381.8C920.52,-372.91 920.71,-362.78 920.84,-355.75"/>
<polygon fill="midnightblue" stroke="midnightblue" points="916.85,-382.02 920.17,-392.08 923.85,-382.15 916.85,-382.02"/>
</g>
<!-- Node7&#45;&gt;Node8 -->
<g id="edge7" class="edge">
<title>Node7&#45;&gt;Node8</title>
<path fill="none" stroke="midnightblue" d="M786.63,-382.86C803.58,-347.25 840.6,-269.45 852.92,-243.57"/>
<polygon fill="midnightblue" stroke="midnightblue" points="783.38,-381.54 782.25,-392.08 789.71,-384.55 783.38,-381.54"/>
</g>
<!-- Node8&#45;&gt;Node3 -->
<g id="edge14" class="edge">
<title>Node8&#45;&gt;Node3</title>
<path fill="none" stroke="midnightblue" d="M904,-222.15C948.22,-211.95 1013.52,-196.88 1054.1,-187.52"/>
<polygon fill="midnightblue" stroke="midnightblue" points="903.03,-218.78 894.08,-224.44 904.61,-225.61 903.03,-218.78"/>
</g>
<!-- Node9 -->
<g id="node9" class="node">
<title>Node9</title>
<g id="a_node9"><a xlink:href="xform1_8c.html" target="_top" xlink:title=" ">
<polygon fill="white" stroke="black" points="901,-168.5 901,-187.5 993,-187.5 993,-168.5 901,-168.5"/>
<text text-anchor="middle" x="947" y="-175.5" font-family="Helvetica,sans-Serif" font-size="10.00">src/P2/xform1.c</text>
</a>
</g>
</g>
<!-- Node8&#45;&gt;Node9 -->
<g id="edge8" class="edge">
<title>Node8&#45;&gt;Node9</title>
<path fill="none" stroke="midnightblue" d="M880.04,-219.18C896.6,-209.24 918.42,-196.15 932.58,-187.65"/>
<polygon fill="midnightblue" stroke="midnightblue" points="878.23,-216.18 871.46,-224.32 881.84,-222.18 878.23,-216.18"/>
</g>
<!-- Node10 -->
<g id="node10" class="node">
<title>Node10</title>
<g id="a_node10"><a xlink:href="xform2_8c.html" target="_top" xlink:title=" ">
<polygon fill="white" stroke="black" points="791,-168.5 791,-187.5 883,-187.5 883,-168.5 791,-168.5"/>
<text text-anchor="middle" x="837" y="-175.5" font-family="Helvetica,sans-Serif" font-size="10.00">src/P2/xform2.c</text>
</a>
</g>
</g>
<!-- Node8&#45;&gt;Node10 -->
<g id="edge9" class="edge">
<title>Node8&#45;&gt;Node10</title>
<path fill="none" stroke="midnightblue" d="M850.22,-214.69C846.85,-205.59 842.93,-195.01 840.24,-187.75"/>
<polygon fill="midnightblue" stroke="midnightblue" points="846.94,-215.92 853.7,-224.08 853.51,-213.49 846.94,-215.92"/>
</g>
<!-- Node11 -->
<g id="node11" class="node">
<title>Node11</title>
<g id="a_node11"><a xlink:href="cm_8h.html" target="_top" xlink:title="Game camera.">
<polygon fill="white" stroke="black" points="655.5,-168.5 655.5,-187.5 734.5,-187.5 734.5,-168.5 655.5,-168.5"/>
<text text-anchor="middle" x="695" y="-175.5" font-family="Helvetica,sans-Serif" font-size="10.00">include/cm.h</text>
</a>
</g>
</g>
<!-- Node8&#45;&gt;Node11 -->
<g id="edge10" class="edge">
<title>Node8&#45;&gt;Node11</title>
<path fill="none" stroke="midnightblue" d="M821.52,-221.17C791.01,-211 747.76,-196.59 720.55,-187.52"/>
<polygon fill="midnightblue" stroke="midnightblue" points="820.74,-224.6 831.33,-224.44 822.95,-217.96 820.74,-224.6"/>
</g>
<!-- Node15 -->
<g id="node15" class="node">
<title>Node15</title>
<g id="a_node15"><a xlink:href="vol_8h.html" target="_top" xlink:title="Volume object.">
<polygon fill="white" stroke="black" points="334.5,-168.5 334.5,-187.5 413.5,-187.5 413.5,-168.5 334.5,-168.5"/>
<text text-anchor="middle" x="374" y="-175.5" font-family="Helvetica,sans-Serif" font-size="10.00">include/vol.h</text>
</a>
</g>
</g>
<!-- Node8&#45;&gt;Node15 -->
<g id="edge15" class="edge">
<title>Node8&#45;&gt;Node15</title>
<path fill="none" stroke="midnightblue" d="M800.03,-223.8C651.86,-204.15 487.58,-188.91 413.63,-182.4"/>
<polygon fill="midnightblue" stroke="midnightblue" points="799.84,-227.3 810.22,-225.16 800.77,-220.36 799.84,-227.3"/>
</g>
<!-- Node12 -->
<g id="node12" class="node">
<title>Node12</title>
<g id="a_node12"><a xlink:href="cm_8c.html" target="_top" xlink:title=" ">
<polygon fill="white" stroke="black" points="669,-112.5 669,-131.5 741,-131.5 741,-112.5 669,-112.5"/>
<text text-anchor="middle" x="705" y="-119.5" font-family="Helvetica,sans-Serif" font-size="10.00">src/P2/cm.c</text>
</a>
</g>
</g>
<!-- Node11&#45;&gt;Node12 -->
<g id="edge11" class="edge">
<title>Node11&#45;&gt;Node12</title>
<path fill="none" stroke="midnightblue" d="M698.5,-158.1C700.16,-149.14 702.06,-138.86 703.38,-131.75"/>
<polygon fill="midnightblue" stroke="midnightblue" points="695.03,-157.61 696.65,-168.08 701.91,-158.89 695.03,-157.61"/>
</g>
<!-- Node13 -->
<g id="node13" class="node">
<title>Node13</title>
<g id="a_node13"><a xlink:href="flash_8h.html" target="_top" xlink:title="Flash (might be flash animation, or literal screen flashes).">
<polygon fill="white" stroke="black" points="759.5,-112.5 759.5,-131.5 846.5,-131.5 846.5,-112.5 759.5,-112.5"/>
<text text-anchor="middle" x="803" y="-119.5" font-family="Helvetica,sans-Serif" font-size="10.00">include/flash.h</text>
</a>
</g>
</g>
<!-- Node11&#45;&gt;Node13 -->
<g id="edge12" class="edge">
<title>Node11&#45;&gt;Node13</title>
<path fill="none" stroke="midnightblue" d="M721.55,-163.73C741.55,-153.73 768.39,-140.31 785.69,-131.65"/>
<polygon fill="midnightblue" stroke="midnightblue" points="719.73,-160.72 712.35,-168.32 722.86,-166.98 719.73,-160.72"/>
</g>
<!-- Node14 -->
<g id="node14" class="node">
<title>Node14</title>
<g id="a_node14"><a xlink:href="flash_8c.html" target="_top" xlink:title=" ">
<polygon fill="white" stroke="black" points="763,-56.5 763,-75.5 843,-75.5 843,-56.5 763,-56.5"/>
<text text-anchor="middle" x="803" y="-63.5" font-family="Helvetica,sans-Serif" font-size="10.00">src/P2/flash.c</text>
</a>
</g>
</g>
<!-- Node13&#45;&gt;Node14 -->
<g id="edge13" class="edge">
<title>Node13&#45;&gt;Node14</title>
<path fill="none" stroke="midnightblue" d="M803,-101.8C803,-92.91 803,-82.78 803,-75.75"/>
<polygon fill="midnightblue" stroke="midnightblue" points="799.5,-102.08 803,-112.08 806.5,-102.08 799.5,-102.08"/>
</g>
<!-- Node16 -->
<g id="node16" class="node">
<title>Node16</title>
<g id="a_node16"><a xlink:href="chkpnt_8h.html" target="_top" xlink:title="Checkpoint system.">
<polygon fill="white" stroke="black" points="185.5,-112.5 185.5,-131.5 282.5,-131.5 282.5,-112.5 185.5,-112.5"/>
<text text-anchor="middle" x="234" y="-119.5" font-family="Helvetica,sans-Serif" font-size="10.00">include/chkpnt.h</text>
</a>
</g>
</g>
<!-- Node15&#45;&gt;Node16 -->
<g id="edge16" class="edge">
<title>Node15&#45;&gt;Node16</title>
<path fill="none" stroke="midnightblue" d="M342.3,-164.77C316,-154.63 279.28,-140.47 256.08,-131.52"/>
<polygon fill="midnightblue" stroke="midnightblue" points="341.23,-168.11 351.82,-168.44 343.75,-161.58 341.23,-168.11"/>
</g>
<!-- Node17 -->
<g id="node17" class="node">
<title>Node17</title>
<g id="a_node17"><a xlink:href="chkpnt_8c.html" target="_top" xlink:title=" ">
<polygon fill="white" stroke="black" points="189,-56.5 189,-75.5 279,-75.5 279,-56.5 189,-56.5"/>
<text text-anchor="middle" x="234" y="-63.5" font-family="Helvetica,sans-Serif" font-size="10.00">src/P2/chkpnt.c</text>
</a>
</g>
</g>
<!-- Node16&#45;&gt;Node17 -->
<g id="edge17" class="edge">
<title>Node16&#45;&gt;Node17</title>
<path fill="none" stroke="midnightblue" d="M234,-101.8C234,-92.91 234,-82.78 234,-75.75"/>
<polygon fill="midnightblue" stroke="midnightblue" points="230.5,-102.08 234,-112.08 237.5,-102.08 230.5,-102.08"/>
</g>
<!-- Node18 -->
<g id="node18" class="node">
<title>Node18</title>
<g id="a_node18"><a xlink:href="difficulty_8h.html" target="_top" xlink:title="Dynamic difficulty system.">
<polygon fill="white" stroke="black" points="315.5,-56.5 315.5,-75.5 420.5,-75.5 420.5,-56.5 315.5,-56.5"/>
<text text-anchor="middle" x="368" y="-63.5" font-family="Helvetica,sans-Serif" font-size="10.00">include/difficulty.h</text>
</a>
</g>
</g>
<!-- Node16&#45;&gt;Node18 -->
<g id="edge18" class="edge">
<title>Node16&#45;&gt;Node18</title>
<path fill="none" stroke="midnightblue" d="M264.68,-108.64C289.82,-98.5 324.75,-84.43 346.87,-75.52"/>
<polygon fill="midnightblue" stroke="midnightblue" points="263.2,-105.46 255.23,-112.44 265.82,-111.95 263.2,-105.46"/>
</g>
<!-- Node19 -->
<g id="node19" class="node">
<title>Node19</title>
<g id="a_node19"><a xlink:href="difficulty_8c.html" target="_top" xlink:title=" ">
<polygon fill="white" stroke="black" points="319,-0.5 319,-19.5 417,-19.5 417,-0.5 319,-0.5"/>
<text text-anchor="middle" x="368" y="-7.5" font-family="Helvetica,sans-Serif" font-size="10.00">src/P2/difficulty.c</text>
</a>
</g>
</g>
<!-- Node18&#45;&gt;Node19 -->
<g id="edge19" class="edge">
<title>Node18&#45;&gt;Node19</title>
<path fill="none" stroke="midnightblue" d="M368,-45.8C368,-36.91 368,-26.78 368,-19.75"/>
<polygon fill="midnightblue" stroke="midnightblue" points="364.5,-46.08 368,-56.08 371.5,-46.08 364.5,-46.08"/>
</g>
<!-- Node21 -->
<g id="node21" class="node">
<title>Node21</title>
<g id="a_node21"><a xlink:href="po_8h.html" target="_top" xlink:title="Player object(?).">
<polygon fill="white" stroke="black" points="206,-336.5 206,-355.5 282,-355.5 282,-336.5 206,-336.5"/>
<text text-anchor="middle" x="244" y="-343.5" font-family="Helvetica,sans-Serif" font-size="10.00">include/po.h</text>
</a>
</g>
</g>
<!-- Node20&#45;&gt;Node21 -->
<g id="edge21" class="edge">
<title>Node20&#45;&gt;Node21</title>
<path fill="none" stroke="midnightblue" d="M524.32,-393.15C458.81,-382.37 342.29,-363.18 282.2,-353.29"/>
<polygon fill="midnightblue" stroke="midnightblue" points="523.94,-396.63 534.37,-394.81 525.08,-389.73 523.94,-396.63"/>
</g>
<!-- Node26 -->
<g id="node26" class="node">
<title>Node26</title>
<g id="a_node26"><a xlink:href="vec_8h.html" target="_top" xlink:title="Vector math functions.">
<polygon fill="white" stroke="black" points="531.5,-336.5 531.5,-355.5 612.5,-355.5 612.5,-336.5 531.5,-336.5"/>
<text text-anchor="middle" x="572" y="-343.5" font-family="Helvetica,sans-Serif" font-size="10.00">include/vec.h</text>
</a>
</g>
</g>
<!-- Node20&#45;&gt;Node26 -->
<g id="edge26" class="edge">
<title>Node20&#45;&gt;Node26</title>
<path fill="none" stroke="midnightblue" d="M572,-381.8C572,-372.91 572,-362.78 572,-355.75"/>
<polygon fill="midnightblue" stroke="midnightblue" points="568.5,-382.08 572,-392.08 575.5,-382.08 568.5,-382.08"/>
</g>
<!-- Node22 -->
<g id="node22" class="node">
<title>Node22</title>
<g id="a_node22"><a xlink:href="step_8h.html" target="_top" xlink:title=" ">
<polygon fill="white" stroke="black" points="141.5,-280.5 141.5,-299.5 226.5,-299.5 226.5,-280.5 141.5,-280.5"/>
<text text-anchor="middle" x="184" y="-287.5" font-family="Helvetica,sans-Serif" font-size="10.00">include/step.h</text>
</a>
</g>
</g>
<!-- Node21&#45;&gt;Node22 -->
<g id="edge22" class="edge">
<title>Node21&#45;&gt;Node22</title>
<path fill="none" stroke="midnightblue" d="M226.82,-329.54C216.12,-319.91 202.74,-307.87 193.82,-299.83"/>
<polygon fill="midnightblue" stroke="midnightblue" points="224.59,-332.24 234.36,-336.32 229.27,-327.03 224.59,-332.24"/>
</g>
<!-- Node23 -->
<g id="node23" class="node">
<title>Node23</title>
<g id="a_node23"><a xlink:href="jt_8h.html" target="_top" xlink:title="Sly entity.">
<polygon fill="white" stroke="black" points="32.5,-224.5 32.5,-243.5 103.5,-243.5 103.5,-224.5 32.5,-224.5"/>
<text text-anchor="middle" x="68" y="-231.5" font-family="Helvetica,sans-Serif" font-size="10.00">include/jt.h</text>
</a>
</g>
</g>
<!-- Node22&#45;&gt;Node23 -->
<g id="edge23" class="edge">
<title>Node22&#45;&gt;Node23</title>
<path fill="none" stroke="midnightblue" d="M156.28,-276.1C134.61,-266.01 105.1,-252.27 86.29,-243.52"/>
<polygon fill="midnightblue" stroke="midnightblue" points="155.08,-279.4 165.62,-280.44 158.03,-273.05 155.08,-279.4"/>
</g>
<!-- Node24 -->
<g id="node24" class="node">
<title>Node24</title>
<g id="a_node24"><a xlink:href="steppower_8h.html" target="_top" xlink:title=" ">
<polygon fill="white" stroke="black" points="0,-168.5 0,-187.5 114,-187.5 114,-168.5 0,-168.5"/>
<text text-anchor="middle" x="57" y="-175.5" font-family="Helvetica,sans-Serif" font-size="10.00">include/steppower.h</text>
</a>
</g>
</g>
<!-- Node23&#45;&gt;Node24 -->
<g id="edge24" class="edge">
<title>Node23&#45;&gt;Node24</title>
<path fill="none" stroke="midnightblue" d="M64.15,-214.1C62.32,-205.14 60.23,-194.86 58.78,-187.75"/>
<polygon fill="midnightblue" stroke="midnightblue" points="60.76,-214.98 66.18,-224.08 67.62,-213.59 60.76,-214.98"/>
</g>
<!-- Node25 -->
<g id="node25" class="node">
<title>Node25</title>
<g id="a_node25"><a xlink:href="steppower_8c.html" target="_top" xlink:title=" ">
<polygon fill="white" stroke="black" points="3.5,-112.5 3.5,-131.5 110.5,-131.5 110.5,-112.5 3.5,-112.5"/>
<text text-anchor="middle" x="57" y="-119.5" font-family="Helvetica,sans-Serif" font-size="10.00">src/P2/steppower.c</text>
</a>
</g>
</g>
<!-- Node24&#45;&gt;Node25 -->
<g id="edge25" class="edge">
<title>Node24&#45;&gt;Node25</title>
<path fill="none" stroke="midnightblue" d="M57,-157.8C57,-148.91 57,-138.78 57,-131.75"/>
<polygon fill="midnightblue" stroke="midnightblue" points="53.5,-158.08 57,-168.08 60.5,-158.08 53.5,-158.08"/>
</g>
<!-- Node26&#45;&gt;Node16 -->
<g id="edge31" class="edge">
<title>Node26&#45;&gt;Node16</title>
<path fill="none" stroke="midnightblue" d="M521.2,-336.11C416.25,-317.24 183.4,-272.57 161,-244 130.42,-205 193.55,-152.21 221.54,-131.67"/>
<polygon fill="midnightblue" stroke="midnightblue" points="520.78,-339.59 531.24,-337.91 522.02,-332.7 520.78,-339.59"/>
</g>
<!-- Node27 -->
<g id="node27" class="node">
<title>Node27</title>
<g id="a_node27"><a xlink:href="bis_8h.html" target="_top" xlink:title="Binary Input Stream.">
<polygon fill="white" stroke="black" points="436,-280.5 436,-299.5 514,-299.5 514,-280.5 436,-280.5"/>
<text text-anchor="middle" x="475" y="-287.5" font-family="Helvetica,sans-Serif" font-size="10.00">include/bis.h</text>
</a>
</g>
</g>
<!-- Node26&#45;&gt;Node27 -->
<g id="edge27" class="edge">
<title>Node26&#45;&gt;Node27</title>
<path fill="none" stroke="midnightblue" d="M547.66,-331.45C529.76,-321.48 505.95,-308.23 490.55,-299.65"/>
<polygon fill="midnightblue" stroke="midnightblue" points="545.98,-334.52 556.42,-336.32 549.38,-328.4 545.98,-334.52"/>
</g>
<!-- Node29 -->
<g id="node29" class="node">
<title>Node29</title>
<g id="a_node29"><a xlink:href="shd_8h.html" target="_top" xlink:title="Shaders.">
<polygon fill="white" stroke="black" points="711.5,-224.5 711.5,-243.5 792.5,-243.5 792.5,-224.5 711.5,-224.5"/>
<text text-anchor="middle" x="752" y="-231.5" font-family="Helvetica,sans-Serif" font-size="10.00">include/shd.h</text>
</a>
</g>
</g>
<!-- Node26&#45;&gt;Node29 -->
<g id="edge32" class="edge">
<title>Node26&#45;&gt;Node29</title>
<path fill="none" stroke="midnightblue" d="M594.89,-331.01C632.68,-307.92 706.98,-262.51 737.94,-243.59"/>
<polygon fill="midnightblue" stroke="midnightblue" points="592.83,-328.17 586.12,-336.37 596.48,-334.14 592.83,-328.17"/>
</g>
<!-- Node34 -->
<g id="node34" class="node">
<title>Node34</title>
<g id="a_node34"><a xlink:href="surf_8h.html" target="_top" xlink:title="Surface?">
<polygon fill="white" stroke="black" points="707,-280.5 707,-299.5 789,-299.5 789,-280.5 707,-280.5"/>
<text text-anchor="middle" x="748" y="-287.5" font-family="Helvetica,sans-Serif" font-size="10.00">include/surf.h</text>
</a>
</g>
</g>
<!-- Node26&#45;&gt;Node34 -->
<g id="edge38" class="edge">
<title>Node26&#45;&gt;Node34</title>
<path fill="none" stroke="midnightblue" d="M609.69,-333.44C642.87,-323.26 690.43,-308.66 720.24,-299.52"/>
<polygon fill="midnightblue" stroke="midnightblue" points="608.42,-330.16 599.89,-336.44 610.47,-336.86 608.42,-330.16"/>
</g>
<!-- Node35 -->
<g id="node35" class="node">
<title>Node35</title>
<g id="a_node35"><a xlink:href="util_8h.html" target="_top" xlink:title="Utility functions.">
<polygon fill="white" stroke="black" points="532,-280.5 532,-299.5 612,-299.5 612,-280.5 532,-280.5"/>
<text text-anchor="middle" x="572" y="-287.5" font-family="Helvetica,sans-Serif" font-size="10.00">include/util.h</text>
</a>
</g>
</g>
<!-- Node26&#45;&gt;Node35 -->
<g id="edge41" class="edge">
<title>Node26&#45;&gt;Node35</title>
<path fill="none" stroke="midnightblue" d="M572,-325.8C572,-316.91 572,-306.78 572,-299.75"/>
<polygon fill="midnightblue" stroke="midnightblue" points="568.5,-326.08 572,-336.08 575.5,-326.08 568.5,-326.08"/>
</g>
<!-- Node27&#45;&gt;Node8 -->
<g id="edge30" class="edge">
<title>Node27&#45;&gt;Node8</title>
<path fill="none" stroke="midnightblue" d="M523.9,-279.94C648.17,-260.54 681.43,-261.64 802,-244 804.68,-243.61 807.43,-243.19 810.21,-242.77"/>
<polygon fill="midnightblue" stroke="midnightblue" points="523.33,-276.48 514,-281.49 524.42,-283.4 523.33,-276.48"/>
</g>
<!-- Node27&#45;&gt;Node16 -->
<g id="edge29" class="edge">
<title>Node27&#45;&gt;Node16</title>
<path fill="none" stroke="midnightblue" d="M425.65,-280.35C378.72,-271.53 311.97,-257.31 289,-244 259.35,-226.82 249.17,-219.64 236,-188 228.19,-169.24 230.38,-144.72 232.36,-131.82"/>
<polygon fill="midnightblue" stroke="midnightblue" points="425.17,-283.82 435.64,-282.2 426.45,-276.93 425.17,-283.82"/>
</g>
<!-- Node28 -->
<g id="node28" class="node">
<title>Node28</title>
<g id="a_node28"><a xlink:href="bis_8c.html" target="_top" xlink:title=" ">
<polygon fill="white" stroke="black" points="170.5,-224.5 170.5,-243.5 241.5,-243.5 241.5,-224.5 170.5,-224.5"/>
<text text-anchor="middle" x="206" y="-231.5" font-family="Helvetica,sans-Serif" font-size="10.00">src/P2/bis.c</text>
</a>
</g>
</g>
<!-- Node27&#45;&gt;Node28 -->
<g id="edge28" class="edge">
<title>Node27&#45;&gt;Node28</title>
<path fill="none" stroke="midnightblue" d="M425.99,-279.16C372.78,-268.48 289.06,-251.67 241.72,-242.17"/>
<polygon fill="midnightblue" stroke="midnightblue" points="425.39,-282.61 435.89,-281.15 426.77,-275.75 425.39,-282.61"/>
</g>
<!-- Node29&#45;&gt;Node13 -->
<g id="edge33" class="edge">
<title>Node29&#45;&gt;Node13</title>
<path fill="none" stroke="midnightblue" d="M760.33,-214.91C766.34,-201.86 774.65,-183.83 782,-168 787.88,-155.33 794.73,-140.68 798.96,-131.62"/>
<polygon fill="midnightblue" stroke="midnightblue" points="757.07,-213.62 756.06,-224.16 763.43,-216.54 757.07,-213.62"/>
</g>
<!-- Node30 -->
<g id="node30" class="node">
<title>Node30</title>
<g id="a_node30"><a xlink:href="screen_8h.html" target="_top" xlink:title="User interface manager.">
<polygon fill="white" stroke="black" points="541,-168.5 541,-187.5 637,-187.5 637,-168.5 541,-168.5"/>
<text text-anchor="middle" x="589" y="-175.5" font-family="Helvetica,sans-Serif" font-size="10.00">include/screen.h</text>
</a>
</g>
</g>
<!-- Node29&#45;&gt;Node30 -->
<g id="edge34" class="edge">
<title>Node29&#45;&gt;Node30</title>
<path fill="none" stroke="midnightblue" d="M716.3,-221.17C685.6,-211 642.08,-196.59 614.71,-187.52"/>
<polygon fill="midnightblue" stroke="midnightblue" points="715.58,-224.62 726.17,-224.44 717.78,-217.98 715.58,-224.62"/>
</g>
<!-- Node31 -->
<g id="node31" class="node">
<title>Node31</title>
<g id="a_node31"><a xlink:href="screen_8c.html" target="_top" xlink:title=" ">
<polygon fill="white" stroke="black" points="561.5,-112.5 561.5,-131.5 650.5,-131.5 650.5,-112.5 561.5,-112.5"/>
<text text-anchor="middle" x="606" y="-119.5" font-family="Helvetica,sans-Serif" font-size="10.00">src/P2/screen.c</text>
</a>
</g>
</g>
<!-- Node30&#45;&gt;Node31 -->
<g id="edge35" class="edge">
<title>Node30&#45;&gt;Node31</title>
<path fill="none" stroke="midnightblue" d="M594.86,-158.4C597.7,-149.36 600.98,-138.94 603.25,-131.75"/>
<polygon fill="midnightblue" stroke="midnightblue" points="591.47,-157.49 591.81,-168.08 598.15,-159.6 591.47,-157.49"/>
</g>
<!-- Node32 -->
<g id="node32" class="node">
<title>Node32</title>
<g id="a_node32"><a xlink:href="ui_8h.html" target="_top" xlink:title="User interface.">
<polygon fill="white" stroke="black" points="470.5,-112.5 470.5,-131.5 543.5,-131.5 543.5,-112.5 470.5,-112.5"/>
<text text-anchor="middle" x="507" y="-119.5" font-family="Helvetica,sans-Serif" font-size="10.00">include/ui.h</text>
</a>
</g>
</g>
<!-- Node30&#45;&gt;Node32 -->
<g id="edge36" class="edge">
<title>Node30&#45;&gt;Node32</title>
<path fill="none" stroke="midnightblue" d="M567.17,-162.62C552.19,-152.76 532.8,-139.99 520.14,-131.65"/>
<polygon fill="midnightblue" stroke="midnightblue" points="565.55,-165.75 575.83,-168.32 569.4,-159.9 565.55,-165.75"/>
</g>
<!-- Node33 -->
<g id="node33" class="node">
<title>Node33</title>
<g id="a_node33"><a xlink:href="ui_8c.html" target="_top" xlink:title=" ">
<polygon fill="white" stroke="black" points="474,-56.5 474,-75.5 540,-75.5 540,-56.5 474,-56.5"/>
<text text-anchor="middle" x="507" y="-63.5" font-family="Helvetica,sans-Serif" font-size="10.00">src/P2/ui.c</text>
</a>
</g>
</g>
<!-- Node32&#45;&gt;Node33 -->
<g id="edge37" class="edge">
<title>Node32&#45;&gt;Node33</title>
<path fill="none" stroke="midnightblue" d="M507,-101.8C507,-92.91 507,-82.78 507,-75.75"/>
<polygon fill="midnightblue" stroke="midnightblue" points="503.5,-102.08 507,-112.08 510.5,-102.08 503.5,-102.08"/>
</g>
<!-- Node34&#45;&gt;Node8 -->
<g id="edge40" class="edge">
<title>Node34&#45;&gt;Node8</title>
<path fill="none" stroke="midnightblue" d="M774.52,-275.86C794.73,-265.85 821.99,-252.35 839.53,-243.65"/>
<polygon fill="midnightblue" stroke="midnightblue" points="772.92,-272.75 765.51,-280.32 776.03,-279.02 772.92,-272.75"/>
</g>
<!-- Node34&#45;&gt;Node29 -->
<g id="edge39" class="edge">
<title>Node34&#45;&gt;Node29</title>
<path fill="none" stroke="midnightblue" d="M749.4,-270.1C750.06,-261.14 750.83,-250.86 751.35,-243.75"/>
<polygon fill="midnightblue" stroke="midnightblue" points="745.91,-269.85 748.66,-280.08 752.89,-270.37 745.91,-269.85"/>
</g>
<!-- Node35&#45;&gt;Node8 -->
<g id="edge50" class="edge">
<title>Node35&#45;&gt;Node8</title>
<path fill="none" stroke="midnightblue" d="M622.2,-279.49C675.86,-269.32 760.15,-253.35 811.8,-243.56"/>
<polygon fill="midnightblue" stroke="midnightblue" points="621.4,-276.08 612.23,-281.38 622.71,-282.95 621.4,-276.08"/>
</g>
<!-- Node35&#45;&gt;Node11 -->
<g id="edge43" class="edge">
<title>Node35&#45;&gt;Node11</title>
<path fill="none" stroke="midnightblue" d="M573.25,-270.2C575.11,-255.98 579.7,-236.79 591,-224 607.6,-205.2 633.47,-193.96 655.25,-187.42"/>
<polygon fill="midnightblue" stroke="midnightblue" points="569.75,-270.02 572.27,-280.32 576.71,-270.7 569.75,-270.02"/>
</g>
<!-- Node35&#45;&gt;Node18 -->
<g id="edge44" class="edge">
<title>Node35&#45;&gt;Node18</title>
<path fill="none" stroke="midnightblue" d="M523.07,-277.43C502.03,-270.5 478.35,-259.87 461,-244 432.99,-218.37 439.62,-201.63 422,-168 404.01,-133.65 382.09,-93.03 372.67,-75.62"/>
<polygon fill="midnightblue" stroke="midnightblue" points="522.24,-280.83 532.83,-280.44 524.31,-274.14 522.24,-280.83"/>
</g>
<!-- Node36 -->
<g id="node36" class="node">
<title>Node36</title>
<g id="a_node36"><a xlink:href="util_8c.html" target="_top" xlink:title=" ">
<polygon fill="white" stroke="black" points="470.5,-224.5 470.5,-243.5 543.5,-243.5 543.5,-224.5 470.5,-224.5"/>
<text text-anchor="middle" x="507" y="-231.5" font-family="Helvetica,sans-Serif" font-size="10.00">src/P2/util.c</text>
</a>
</g>
</g>
<!-- Node35&#45;&gt;Node36 -->
<g id="edge42" class="edge">
<title>Node35&#45;&gt;Node36</title>
<path fill="none" stroke="midnightblue" d="M553.73,-273.82C542.08,-264.15 527.4,-251.95 517.63,-243.83"/>
<polygon fill="midnightblue" stroke="midnightblue" points="551.63,-276.63 561.56,-280.32 556.1,-271.24 551.63,-276.63"/>
</g>
<!-- Node37 -->
<g id="node37" class="node">
<title>Node37</title>
<g id="a_node37"><a xlink:href="joy_8h.html" target="_top" xlink:title="Joypad manager.">
<polygon fill="white" stroke="black" points="298.5,-224.5 298.5,-243.5 375.5,-243.5 375.5,-224.5 298.5,-224.5"/>
<text text-anchor="middle" x="337" y="-231.5" font-family="Helvetica,sans-Serif" font-size="10.00">include/joy.h</text>
</a>
</g>
</g>
<!-- Node35&#45;&gt;Node37 -->
<g id="edge45" class="edge">
<title>Node35&#45;&gt;Node37</title>
<path fill="none" stroke="midnightblue" d="M524.79,-278.15C480.39,-267.95 414.81,-252.88 374.06,-243.52"/>
<polygon fill="midnightblue" stroke="midnightblue" points="524.23,-281.62 534.76,-280.44 525.8,-274.79 524.23,-281.62"/>
</g>
<!-- Node35&#45;&gt;Node39 -->
<g id="edge48" class="edge">
<title>Node35&#45;&gt;Node39</title>
<path fill="none" stroke="midnightblue" d="M592.31,-274.38C605.86,-264.62 623.24,-252.11 634.73,-243.83"/>
<polygon fill="midnightblue" stroke="midnightblue" points="590.12,-271.64 584.05,-280.32 594.21,-277.32 590.12,-271.64"/>
</g>
<!-- Node37&#45;&gt;Node24 -->
<g id="edge47" class="edge">
<title>Node37&#45;&gt;Node24</title>
<path fill="none" stroke="midnightblue" d="M288.24,-223.6C235.5,-213.42 152.15,-197.35 101.24,-187.53"/>
<polygon fill="midnightblue" stroke="midnightblue" points="287.88,-227.09 298.36,-225.55 289.2,-220.22 287.88,-227.09"/>
</g>
<!-- Node38 -->
<g id="node38" class="node">
<title>Node38</title>
<g id="a_node38"><a xlink:href="joy_8c.html" target="_top" xlink:title=" ">
<polygon fill="white" stroke="black" points="245.5,-168.5 245.5,-187.5 316.5,-187.5 316.5,-168.5 245.5,-168.5"/>
<text text-anchor="middle" x="281" y="-175.5" font-family="Helvetica,sans-Serif" font-size="10.00">src/P2/joy.c</text>
</a>
</g>
</g>
<!-- Node37&#45;&gt;Node38 -->
<g id="edge46" class="edge">
<title>Node37&#45;&gt;Node38</title>
<path fill="none" stroke="midnightblue" d="M320.67,-217.25C310.74,-207.67 298.41,-195.79 290.16,-187.83"/>
<polygon fill="midnightblue" stroke="midnightblue" points="318.37,-219.9 328,-224.32 323.23,-214.86 318.37,-219.9"/>
</g>
<!-- Node39&#45;&gt;Node11 -->
<g id="edge49" class="edge">
<title>Node39&#45;&gt;Node11</title>
<path fill="none" stroke="midnightblue" d="M661.73,-216.43C670.14,-206.97 680.35,-195.48 687.22,-187.75"/>
<polygon fill="midnightblue" stroke="midnightblue" points="658.95,-214.28 654.93,-224.08 664.19,-218.93 658.95,-214.28"/>
</g>
<!-- Node40&#45;&gt;Node2 -->
<g id="edge54" class="edge">
<title>Node40&#45;&gt;Node2</title>
<path fill="none" stroke="midnightblue" d="M874.18,-494.4C871.83,-485.36 869.13,-474.94 867.27,-467.75"/>
<polygon fill="midnightblue" stroke="midnightblue" points="870.79,-495.28 876.69,-504.08 877.57,-493.52 870.79,-495.28"/>
</g>
<!-- Node40&#45;&gt;Node11 -->
<g id="edge60" class="edge">
<title>Node40&#45;&gt;Node11</title>
<path fill="none" stroke="midnightblue" d="M832.3,-512.77C706.5,-510.9 370,-497.09 370,-403 370,-403 370,-403 370,-345 370,-277.71 403.92,-259.63 461,-224 463.07,-222.71 589.29,-198.86 655.47,-186.42"/>
<polygon fill="midnightblue" stroke="midnightblue" points="832.35,-516.27 842.39,-512.9 832.44,-509.27 832.35,-516.27"/>
</g>
<!-- Node41 -->
<g id="node41" class="node">
<title>Node41</title>
<g id="a_node41"><a xlink:href="anim_8h.html" target="_top" xlink:title="Animation.">
<polygon fill="white" stroke="black" points="970.5,-280.5 970.5,-299.5 1059.5,-299.5 1059.5,-280.5 970.5,-280.5"/>
<text text-anchor="middle" x="1015" y="-287.5" font-family="Helvetica,sans-Serif" font-size="10.00">include/anim.h</text>
</a>
</g>
</g>
<!-- Node40&#45;&gt;Node41 -->
<g id="edge55" class="edge">
<title>Node40&#45;&gt;Node41</title>
<path fill="none" stroke="midnightblue" d="M896.31,-497.67C916.39,-479.11 949.36,-446.06 970,-412 993.46,-373.28 1007.91,-320.33 1012.97,-299.71"/>
<polygon fill="midnightblue" stroke="midnightblue" points="893.86,-495.17 888.82,-504.49 898.57,-500.35 893.86,-495.17"/>
</g>
<!-- Node41&#45;&gt;Node8 -->
<g id="edge59" class="edge">
<title>Node41&#45;&gt;Node8</title>
<path fill="none" stroke="midnightblue" d="M980.39,-277.17C950.64,-267 908.45,-252.59 881.92,-243.52"/>
<polygon fill="midnightblue" stroke="midnightblue" points="979.37,-280.52 989.96,-280.44 981.63,-273.9 979.37,-280.52"/>
</g>
<!-- Node41&#45;&gt;Node42 -->
<g id="edge56" class="edge">
<title>Node41&#45;&gt;Node42</title>
<path fill="none" stroke="midnightblue" d="M1022.46,-270.69C1026.17,-261.59 1030.48,-251.01 1033.43,-243.75"/>
<polygon fill="midnightblue" stroke="midnightblue" points="1019.16,-269.5 1018.63,-280.08 1025.65,-272.14 1019.16,-269.5"/>
</g>
<!-- Node42&#45;&gt;Node3 -->
<g id="edge57" class="edge">
<title>Node42&#45;&gt;Node3</title>
<path fill="none" stroke="midnightblue" d="M1053,-217C1062.57,-207.43 1074.36,-195.64 1082.25,-187.75"/>
<polygon fill="midnightblue" stroke="midnightblue" points="1050.51,-214.54 1045.92,-224.08 1055.46,-219.49 1050.51,-214.54"/>
</g>
<!-- Node42&#45;&gt;Node13 -->
<g id="edge58" class="edge">
<title>Node42&#45;&gt;Node13</title>
<path fill="none" stroke="midnightblue" d="M1031.81,-214.68C1026.65,-199.86 1017.28,-179.6 1002,-168 956.73,-133.61 890,-124.66 846.52,-122.76"/>
<polygon fill="midnightblue" stroke="midnightblue" points="1028.5,-215.82 1034.84,-224.31 1035.18,-213.72 1028.5,-215.82"/>
</g>
</g>
</svg>
        <g id="navigator" transform="translate(0 0)" fill="#404254">
                <rect fill="#f2f5e9" fill-opacity="0.5" stroke="#606060" stroke-width=".5" x="0" y="0" width="60" height="60"/>
                <use id="zoomplus" xlink:href="#zoomPlus" x="17" y="9" onmousedown="handleZoom(evt,'in')"/>
                <use id="zoomminus" xlink:href="#zoomMin" x="42" y="9" onmousedown="handleZoom(evt,'out')"/>
                <use id="reset" xlink:href="#resetDef" x="30" y="36" onmousedown="handleReset()"/>
                <g id="arrowUp" xlink:href="#dirArrow" transform="translate(30 24)" onmousedown="handlePan(0,-1)">
                  <use xlink:href="#rim" fill="#404040">
                        <set attributeName="fill" to="#808080" begin="arrowUp.mouseover" end="arrowUp.mouseout"/>
                  </use>
                  <path fill="none" stroke="white" stroke-width="1.5" d="M0,-3.0v7 M-2.5,-0.5L0,-3.0L2.5,-0.5"/>
                </g>
                <g id="arrowRight" xlink:href="#dirArrow" transform="rotate(90) translate(36 -43)" onmousedown="handlePan(1,0)">
                  <use xlink:href="#rim" fill="#404040">
                        <set attributeName="fill" to="#808080" begin="arrowRight.mouseover" end="arrowRight.mouseout"/>
                  </use>
                  <path fill="none" stroke="white" stroke-width="1.5" d="M0,-3.0v7 M-2.5,-0.5L0,-3.0L2.5,-0.5"/>
                </g>
                <g id="arrowDown" xlink:href="#dirArrow" transform="rotate(180) translate(-30 -48)" onmousedown="handlePan(0,1)">
                  <use xlink:href="#rim" fill="#404040">
                        <set attributeName="fill" to="#808080" begin="arrowDown.mouseover" end="arrowDown.mouseout"/>
                  </use>
                  <path fill="none" stroke="white" stroke-width="1.5" d="M0,-3.0v7 M-2.5,-0.5L0,-3.0L2.5,-0.5"/>
                </g>
                <g id="arrowLeft" xlink:href="#dirArrow" transform="rotate(270) translate(-36 17)" onmousedown="handlePan(-1,0)">
                  <use xlink:href="#rim" fill="#404040">
                        <set attributeName="fill" to="#808080" begin="arrowLeft.mouseover" end="arrowLeft.mouseout"/>
                  </use>
                  <path fill="none" stroke="white" stroke-width="1.5" d="M0,-3.0v7 M-2.5,-0.5L0,-3.0L2.5,-0.5"/>
                </g>
        </g>
        <svg viewBox="0 0 15 15" width="100%" height="30px" preserveAspectRatio="xMaxYMin meet">
         <g id="arrow_out" transform="scale(0.3 0.3)">
          <a xlink:href="dl_8h__dep__incl_org.svg" target="_base">
           <rect id="button" ry="5" rx="5" y="6" x="6" height="38" width="38"
                fill="#f2f5e9" fill-opacity="0.5" stroke="#606060" stroke-width="1.0"/>
           <path id="arrow"
             d="M 11.500037,31.436501 C 11.940474,20.09759 22.043105,11.32322 32.158766,21.979434 L 37.068811,17.246167 C 37.068811,17.246167 37.088388,32 37.088388,32 L 22.160133,31.978069 C 22.160133,31.978069 26.997745,27.140456 26.997745,27.140456 C 18.528582,18.264221 13.291696,25.230495 11.500037,31.436501 z"
             style="fill:#404040;"/>
          </a>
         </g>
        </svg>
</svg>
