<?xml version="1.0" encoding="UTF-8" standalone="no"?>
<!DOCTYPE svg PUBLIC "-//W3C//DTD SVG 1.1//EN"
 "http://www.w3.org/Graphics/SVG/1.1/DTD/svg11.dtd">
<!-- Generated by graphviz version 2.43.0 (0)
 -->
<!-- Title: src/P2/dmas.c Pages: 1 -->
<!--zoomable 532 -->
<svg id="main" version="1.1" xmlns="http://www.w3.org/2000/svg" xmlns:xlink="http://www.w3.org/1999/xlink" xml:space="preserve" onload="init(evt)">
<style type="text/css"><![CDATA[
.edge:hover path { stroke: red; }
.edge:hover polygon { stroke: red; fill: red; }
]]></style>
<script type="text/javascript"><![CDATA[
var edges = document.getElementsByTagName('g');
if (edges && edges.length) {
  for (var i=0;i<edges.length;i++) {
    if (edges[i].id.substr(0,4)=='edge') {
      edges[i].setAttribute('class','edge');
    }
  }
}
]]></script>
        <defs>
                <circle id="rim" cx="0" cy="0" r="7"/>
                <circle id="rim2" cx="0" cy="0" r="3.5"/>
                <g id="zoomPlus">
                        <use xlink:href="#rim" fill="#404040">
                                <set attributeName="fill" to="#808080" begin="zoomplus.mouseover" end="zoomplus.mouseout"/>
                        </use>
                        <path d="M-4,0h8M0,-4v8" fill="none" stroke="white" stroke-width="1.5" pointer-events="none"/>
                </g>
                <g id="zoomMin">
                        <use xlink:href="#rim" fill="#404040">
                                <set attributeName="fill" to="#808080" begin="zoomminus.mouseover" end="zoomminus.mouseout"/>
                        </use>
                        <path d="M-4,0h8" fill="none" stroke="white" stroke-width="1.5" pointer-events="none"/>
                </g>
                <g id="dirArrow">
                        <path fill="none" stroke="white" stroke-width="1.5" d="M0,-3.0v7 M-2.5,-0.5L0,-3.0L2.5,-0.5"/>
                </g>
               <g id="resetDef">
                       <use xlink:href="#rim2" fill="#404040">
                               <set attributeName="fill" to="#808080" begin="reset.mouseover" end="reset.mouseout"/>
                       </use>
               </g>
        </defs>

<script type="text/javascript">
var viewWidth = 613;
var viewHeight = 532;
var sectionId = 'dynsection-0';
</script>
<script xlink:href="svgpan.js"/>
<svg id="graph" class="graph">
<g id="viewport">
<title>src/P2/dmas.c</title>
<polygon fill="white" stroke="transparent" points="-4,4 -4,-528 609,-528 609,4 -4,4"/>
<!-- Node1 -->
<g id="node1" class="node">
<title>Node1</title>
<g id="a_node1"><a xlink:title=" ">
<polygon fill="#bfbfbf" stroke="black" points="110.5,-504.5 110.5,-523.5 194.5,-523.5 194.5,-504.5 110.5,-504.5"/>
<text text-anchor="middle" x="152.5" y="-511.5" font-family="Helvetica,sans-Serif" font-size="10.00">src/P2/dmas.c</text>
</a>
</g>
</g>
<!-- Node2 -->
<g id="node2" class="node">
<title>Node2</title>
<g id="a_node2"><a xlink:href="dmas_8h.html" target="_top" xlink:title="Direct memory access.">
<polygon fill="white" stroke="black" points="126,-448.5 126,-467.5 179,-467.5 179,-448.5 126,-448.5"/>
<text text-anchor="middle" x="152.5" y="-455.5" font-family="Helvetica,sans-Serif" font-size="10.00">dmas.h</text>
</a>
</g>
</g>
<!-- Node1&#45;&gt;Node2 -->
<g id="edge1" class="edge">
<title>Node1&#45;&gt;Node2</title>
<path fill="none" stroke="midnightblue" d="M152.5,-504.08C152.5,-497.01 152.5,-486.86 152.5,-477.99"/>
<polygon fill="midnightblue" stroke="midnightblue" points="156,-477.75 152.5,-467.75 149,-477.75 156,-477.75"/>
</g>
<!-- Node3 -->
<g id="node3" class="node">
<title>Node3</title>
<g id="a_node3"><a xlink:href="dma_8h.html" target="_top" xlink:title=" ">
<polygon fill="white" stroke="black" points="0,-392.5 0,-411.5 83,-411.5 83,-392.5 0,-392.5"/>
<text text-anchor="middle" x="41.5" y="-399.5" font-family="Helvetica,sans-Serif" font-size="10.00">sdk/ee/dma.h</text>
</a>
</g>
</g>
<!-- Node2&#45;&gt;Node3 -->
<g id="edge2" class="edge">
<title>Node2&#45;&gt;Node3</title>
<path fill="none" stroke="midnightblue" d="M134.67,-448.32C116.78,-439.62 89.02,-426.12 68.45,-416.11"/>
<polygon fill="midnightblue" stroke="midnightblue" points="69.81,-412.88 59.29,-411.65 66.75,-419.18 69.81,-412.88"/>
</g>
<!-- Node4 -->
<g id="node4" class="node">
<title>Node4</title>
<g id="a_node4"><a xlink:href="eekernel_8h.html" target="_top" xlink:title=" ">
<polygon fill="white" stroke="black" points="101,-392.5 101,-411.5 204,-411.5 204,-392.5 101,-392.5"/>
<text text-anchor="middle" x="152.5" y="-399.5" font-family="Helvetica,sans-Serif" font-size="10.00">sdk/ee/eekernel.h</text>
</a>
</g>
</g>
<!-- Node2&#45;&gt;Node4 -->
<g id="edge3" class="edge">
<title>Node2&#45;&gt;Node4</title>
<path fill="none" stroke="midnightblue" d="M152.5,-448.08C152.5,-441.01 152.5,-430.86 152.5,-421.99"/>
<polygon fill="midnightblue" stroke="midnightblue" points="156,-421.75 152.5,-411.75 149,-421.75 156,-421.75"/>
</g>
<!-- Node5 -->
<g id="node5" class="node">
<title>Node5</title>
<g id="a_node5"><a xlink:href="shd_8h.html" target="_top" xlink:title="Shaders.">
<polygon fill="white" stroke="black" points="222,-392.5 222,-411.5 265,-411.5 265,-392.5 222,-392.5"/>
<text text-anchor="middle" x="243.5" y="-399.5" font-family="Helvetica,sans-Serif" font-size="10.00">shd.h</text>
</a>
</g>
</g>
<!-- Node2&#45;&gt;Node5 -->
<g id="edge4" class="edge">
<title>Node2&#45;&gt;Node5</title>
<path fill="none" stroke="midnightblue" d="M167.12,-448.32C181.45,-439.82 203.51,-426.73 220.25,-416.8"/>
<polygon fill="midnightblue" stroke="midnightblue" points="222.1,-419.77 228.92,-411.65 218.53,-413.75 222.1,-419.77"/>
</g>
<!-- Node6 -->
<g id="node6" class="node">
<title>Node6</title>
<g id="a_node6"><a xlink:href="eestruct_8h.html" target="_top" xlink:title="Graphics synthesizer.">
<polygon fill="white" stroke="black" points="89,-336.5 89,-355.5 190,-355.5 190,-336.5 89,-336.5"/>
<text text-anchor="middle" x="139.5" y="-343.5" font-family="Helvetica,sans-Serif" font-size="10.00">sdk/ee/eestruct.h</text>
</a>
</g>
</g>
<!-- Node5&#45;&gt;Node6 -->
<g id="edge5" class="edge">
<title>Node5&#45;&gt;Node6</title>
<path fill="none" stroke="midnightblue" d="M226.79,-392.32C210.19,-383.7 184.5,-370.36 165.28,-360.39"/>
<polygon fill="midnightblue" stroke="midnightblue" points="166.66,-357.16 156.17,-355.65 163.43,-363.37 166.66,-357.16"/>
</g>
<!-- Node7 -->
<g id="node7" class="node">
<title>Node7</title>
<g id="a_node7"><a xlink:href="geom_8h.html" target="_top" xlink:title="Geometry.">
<polygon fill="white" stroke="black" points="209,-280.5 209,-299.5 262,-299.5 262,-280.5 209,-280.5"/>
<text text-anchor="middle" x="235.5" y="-287.5" font-family="Helvetica,sans-Serif" font-size="10.00">geom.h</text>
</a>
</g>
</g>
<!-- Node5&#45;&gt;Node7 -->
<g id="edge6" class="edge">
<title>Node5&#45;&gt;Node7</title>
<path fill="none" stroke="midnightblue" d="M242.09,-392.4C240.67,-383.37 238.54,-368.73 237.5,-356 236.23,-340.51 235.75,-322.88 235.57,-309.89"/>
<polygon fill="midnightblue" stroke="midnightblue" points="239.07,-309.82 235.49,-299.85 232.07,-309.88 239.07,-309.82"/>
</g>
<!-- Node8 -->
<g id="node8" class="node">
<title>Node8</title>
<g id="a_node8"><a xlink:href="surf_8h.html" target="_top" xlink:title="Surfaces?">
<polygon fill="white" stroke="black" points="246.5,-336.5 246.5,-355.5 290.5,-355.5 290.5,-336.5 246.5,-336.5"/>
<text text-anchor="middle" x="268.5" y="-343.5" font-family="Helvetica,sans-Serif" font-size="10.00">surf.h</text>
</a>
</g>
</g>
<!-- Node5&#45;&gt;Node8 -->
<g id="edge7" class="edge">
<title>Node5&#45;&gt;Node8</title>
<path fill="none" stroke="midnightblue" d="M247.63,-392.08C251.01,-384.77 255.92,-374.18 260.12,-365.1"/>
<polygon fill="midnightblue" stroke="midnightblue" points="263.42,-366.3 264.45,-355.75 257.07,-363.36 263.42,-366.3"/>
</g>
<!-- Node9 -->
<g id="node9" class="node">
<title>Node9</title>
<g id="a_node9"><a xlink:href="vec_8h.html" target="_top" xlink:title="Vector math.">
<polygon fill="white" stroke="black" points="288,-280.5 288,-299.5 331,-299.5 331,-280.5 288,-280.5"/>
<text text-anchor="middle" x="309.5" y="-287.5" font-family="Helvetica,sans-Serif" font-size="10.00">vec.h</text>
</a>
</g>
</g>
<!-- Node5&#45;&gt;Node9 -->
<g id="edge22" class="edge">
<title>Node5&#45;&gt;Node9</title>
<path fill="none" stroke="midnightblue" d="M259.8,-392.42C272.77,-384.7 290.21,-372.1 299.5,-356 307.61,-341.94 309.8,-323.44 310.14,-309.78"/>
<polygon fill="midnightblue" stroke="midnightblue" points="313.64,-309.62 310.08,-299.64 306.64,-309.66 313.64,-309.62"/>
</g>
<!-- Node8&#45;&gt;Node7 -->
<g id="edge21" class="edge">
<title>Node8&#45;&gt;Node7</title>
<path fill="none" stroke="midnightblue" d="M263.05,-336.08C258.49,-328.61 251.83,-317.72 246.21,-308.52"/>
<polygon fill="midnightblue" stroke="midnightblue" points="249.05,-306.46 240.85,-299.75 243.08,-310.11 249.05,-306.46"/>
</g>
<!-- Node8&#45;&gt;Node9 -->
<g id="edge8" class="edge">
<title>Node8&#45;&gt;Node9</title>
<path fill="none" stroke="midnightblue" d="M275.27,-336.08C281.06,-328.46 289.56,-317.26 296.64,-307.94"/>
<polygon fill="midnightblue" stroke="midnightblue" points="299.6,-309.83 302.86,-299.75 294.02,-305.6 299.6,-309.83"/>
</g>
<!-- Node10 -->
<g id="node10" class="node">
<title>Node10</title>
<g id="a_node10"><a xlink:href="so_8h.html" target="_top" xlink:title="Scene objects.">
<polygon fill="white" stroke="black" points="291,-224.5 291,-243.5 328,-243.5 328,-224.5 291,-224.5"/>
<text text-anchor="middle" x="309.5" y="-231.5" font-family="Helvetica,sans-Serif" font-size="10.00">so.h</text>
</a>
</g>
</g>
<!-- Node9&#45;&gt;Node10 -->
<g id="edge9" class="edge">
<title>Node9&#45;&gt;Node10</title>
<path fill="none" stroke="midnightblue" d="M309.5,-280.08C309.5,-273.01 309.5,-262.86 309.5,-253.99"/>
<polygon fill="midnightblue" stroke="midnightblue" points="313,-253.75 309.5,-243.75 306,-253.75 313,-253.75"/>
</g>
<!-- Node11 -->
<g id="node11" class="node">
<title>Node11</title>
<g id="a_node11"><a xlink:href="alo_8h.html" target="_top" xlink:title=" ">
<polygon fill="white" stroke="black" points="289,-168.5 289,-187.5 330,-187.5 330,-168.5 289,-168.5"/>
<text text-anchor="middle" x="309.5" y="-175.5" font-family="Helvetica,sans-Serif" font-size="10.00">alo.h</text>
</a>
</g>
</g>
<!-- Node10&#45;&gt;Node11 -->
<g id="edge10" class="edge">
<title>Node10&#45;&gt;Node11</title>
<path fill="none" stroke="midnightblue" d="M309.5,-224.08C309.5,-217.01 309.5,-206.86 309.5,-197.99"/>
<polygon fill="midnightblue" stroke="midnightblue" points="313,-197.75 309.5,-187.75 306,-197.75 313,-197.75"/>
</g>
<!-- Node12 -->
<g id="node12" class="node">
<title>Node12</title>
<g id="a_node12"><a xlink:href="lo_8h.html" target="_top" xlink:title="Level objects.">
<polygon fill="white" stroke="black" points="342,-112.5 342,-131.5 377,-131.5 377,-112.5 342,-112.5"/>
<text text-anchor="middle" x="359.5" y="-119.5" font-family="Helvetica,sans-Serif" font-size="10.00">lo.h</text>
</a>
</g>
</g>
<!-- Node11&#45;&gt;Node12 -->
<g id="edge11" class="edge">
<title>Node11&#45;&gt;Node12</title>
<path fill="none" stroke="midnightblue" d="M317.76,-168.08C324.96,-160.3 335.61,-148.8 344.35,-139.37"/>
<polygon fill="midnightblue" stroke="midnightblue" points="347.17,-141.47 351.4,-131.75 342.03,-136.71 347.17,-141.47"/>
</g>
<!-- Node16 -->
<g id="node16" class="node">
<title>Node16</title>
<g id="a_node16"><a xlink:href="dl_8h.html" target="_top" xlink:title="Doubly&#45;linked list.">
<polygon fill="white" stroke="black" points="242,-56.5 242,-75.5 277,-75.5 277,-56.5 242,-56.5"/>
<text text-anchor="middle" x="259.5" y="-63.5" font-family="Helvetica,sans-Serif" font-size="10.00">dl.h</text>
</a>
</g>
</g>
<!-- Node11&#45;&gt;Node16 -->
<g id="edge20" class="edge">
<title>Node11&#45;&gt;Node16</title>
<path fill="none" stroke="midnightblue" d="M305.58,-168.37C297.43,-150.46 278.56,-108.92 267.66,-84.95"/>
<polygon fill="midnightblue" stroke="midnightblue" points="270.73,-83.25 263.41,-75.59 264.36,-86.14 270.73,-83.25"/>
</g>
<!-- Node13 -->
<g id="node13" class="node">
<title>Node13</title>
<g id="a_node13"><a xlink:href="oid_8h.html" target="_top" xlink:title="Object IDs.">
<polygon fill="white" stroke="black" points="246,-0.5 246,-19.5 287,-19.5 287,-0.5 246,-0.5"/>
<text text-anchor="middle" x="266.5" y="-7.5" font-family="Helvetica,sans-Serif" font-size="10.00">oid.h</text>
</a>
</g>
</g>
<!-- Node12&#45;&gt;Node13 -->
<g id="edge12" class="edge">
<title>Node12&#45;&gt;Node13</title>
<path fill="none" stroke="midnightblue" d="M352.2,-112.37C336.72,-94.05 300.36,-51.05 280.33,-27.36"/>
<polygon fill="midnightblue" stroke="midnightblue" points="282.89,-24.97 273.76,-19.59 277.55,-29.49 282.89,-24.97"/>
</g>
<!-- Node14 -->
<g id="node14" class="node">
<title>Node14</title>
<g id="a_node14"><a xlink:href="basic_8h.html" target="_top" xlink:title="Basic object.">
<polygon fill="white" stroke="black" points="334,-56.5 334,-75.5 385,-75.5 385,-56.5 334,-56.5"/>
<text text-anchor="middle" x="359.5" y="-63.5" font-family="Helvetica,sans-Serif" font-size="10.00">basic.h</text>
</a>
</g>
</g>
<!-- Node12&#45;&gt;Node14 -->
<g id="edge13" class="edge">
<title>Node12&#45;&gt;Node14</title>
<path fill="none" stroke="midnightblue" d="M359.5,-112.08C359.5,-105.01 359.5,-94.86 359.5,-85.99"/>
<polygon fill="midnightblue" stroke="midnightblue" points="363,-85.75 359.5,-75.75 356,-85.75 363,-85.75"/>
</g>
<!-- Node12&#45;&gt;Node16 -->
<g id="edge15" class="edge">
<title>Node12&#45;&gt;Node16</title>
<path fill="none" stroke="midnightblue" d="M343.43,-112.32C327.54,-103.74 302.99,-90.49 284.54,-80.52"/>
<polygon fill="midnightblue" stroke="midnightblue" points="285.99,-77.33 275.53,-75.65 282.66,-83.49 285.99,-77.33"/>
</g>
<!-- Node17 -->
<g id="node17" class="node">
<title>Node17</title>
<g id="a_node17"><a xlink:href="sw_8h.html" target="_top" xlink:title="Scene world?">
<polygon fill="white" stroke="black" points="403.5,-56.5 403.5,-75.5 441.5,-75.5 441.5,-56.5 403.5,-56.5"/>
<text text-anchor="middle" x="422.5" y="-63.5" font-family="Helvetica,sans-Serif" font-size="10.00">sw.h</text>
</a>
</g>
</g>
<!-- Node12&#45;&gt;Node17 -->
<g id="edge17" class="edge">
<title>Node12&#45;&gt;Node17</title>
<path fill="none" stroke="midnightblue" d="M369.62,-112.32C379.03,-104.26 393.24,-92.08 404.57,-82.37"/>
<polygon fill="midnightblue" stroke="midnightblue" points="406.88,-85 412.19,-75.83 402.32,-79.68 406.88,-85"/>
</g>
<!-- Node18 -->
<g id="node18" class="node">
<title>Node18</title>
<g id="a_node18"><a xlink:href="frame_8h.html" target="_top" xlink:title=" ">
<polygon fill="white" stroke="black" points="459.5,-56.5 459.5,-75.5 545.5,-75.5 545.5,-56.5 459.5,-56.5"/>
<text text-anchor="middle" x="502.5" y="-63.5" font-family="Helvetica,sans-Serif" font-size="10.00">splice/frame.h</text>
</a>
</g>
</g>
<!-- Node12&#45;&gt;Node18 -->
<g id="edge18" class="edge">
<title>Node12&#45;&gt;Node18</title>
<path fill="none" stroke="midnightblue" d="M377.03,-114.38C400.12,-105.66 441.14,-90.17 469.98,-79.28"/>
<polygon fill="midnightblue" stroke="midnightblue" points="471.5,-82.45 479.62,-75.64 469.03,-75.9 471.5,-82.45"/>
</g>
<!-- Node19 -->
<g id="node19" class="node">
<title>Node19</title>
<g id="a_node19"><a xlink:href="mq_8h.html" target="_top" xlink:title="Message queue.">
<polygon fill="white" stroke="black" points="564,-56.5 564,-75.5 605,-75.5 605,-56.5 564,-56.5"/>
<text text-anchor="middle" x="584.5" y="-63.5" font-family="Helvetica,sans-Serif" font-size="10.00">mq.h</text>
</a>
</g>
</g>
<!-- Node12&#45;&gt;Node19 -->
<g id="edge19" class="edge">
<title>Node12&#45;&gt;Node19</title>
<path fill="none" stroke="midnightblue" d="M377.07,-117.34C409.82,-110.45 482.58,-94.73 553.85,-76.03"/>
<polygon fill="midnightblue" stroke="midnightblue" points="555.12,-79.31 563.89,-73.37 553.33,-72.55 555.12,-79.31"/>
</g>
<!-- Node15 -->
<g id="node15" class="node">
<title>Node15</title>
<g id="a_node15"><a xlink:href="sidebag_8h.html" target="_top" xlink:title="Sidebag for splice.">
<polygon fill="white" stroke="black" points="312,-0.5 312,-19.5 407,-19.5 407,-0.5 312,-0.5"/>
<text text-anchor="middle" x="359.5" y="-7.5" font-family="Helvetica,sans-Serif" font-size="10.00">splice/sidebag.h</text>
</a>
</g>
</g>
<!-- Node14&#45;&gt;Node15 -->
<g id="edge14" class="edge">
<title>Node14&#45;&gt;Node15</title>
<path fill="none" stroke="midnightblue" d="M359.5,-56.08C359.5,-49.01 359.5,-38.86 359.5,-29.99"/>
<polygon fill="midnightblue" stroke="midnightblue" points="363,-29.75 359.5,-19.75 356,-29.75 363,-29.75"/>
</g>
<!-- Node16&#45;&gt;Node13 -->
<g id="edge16" class="edge">
<title>Node16&#45;&gt;Node13</title>
<path fill="none" stroke="midnightblue" d="M260.66,-56.08C261.58,-48.93 262.92,-38.64 264.08,-29.69"/>
<polygon fill="midnightblue" stroke="midnightblue" points="267.55,-30.12 265.37,-19.75 260.61,-29.22 267.55,-30.12"/>
</g>
</g>
</svg>
        <g id="navigator" transform="translate(0 0)" fill="#404254">
                <rect fill="#f2f5e9" fill-opacity="0.5" stroke="#606060" stroke-width=".5" x="0" y="0" width="60" height="60"/>
                <use id="zoomplus" xlink:href="#zoomPlus" x="17" y="9" onmousedown="handleZoom(evt,'in')"/>
                <use id="zoomminus" xlink:href="#zoomMin" x="42" y="9" onmousedown="handleZoom(evt,'out')"/>
                <use id="reset" xlink:href="#resetDef" x="30" y="36" onmousedown="handleReset()"/>
                <g id="arrowUp" xlink:href="#dirArrow" transform="translate(30 24)" onmousedown="handlePan(0,-1)">
                  <use xlink:href="#rim" fill="#404040">
                        <set attributeName="fill" to="#808080" begin="arrowUp.mouseover" end="arrowUp.mouseout"/>
                  </use>
                  <path fill="none" stroke="white" stroke-width="1.5" d="M0,-3.0v7 M-2.5,-0.5L0,-3.0L2.5,-0.5"/>
                </g>
                <g id="arrowRight" xlink:href="#dirArrow" transform="rotate(90) translate(36 -43)" onmousedown="handlePan(1,0)">
                  <use xlink:href="#rim" fill="#404040">
                        <set attributeName="fill" to="#808080" begin="arrowRight.mouseover" end="arrowRight.mouseout"/>
                  </use>
                  <path fill="none" stroke="white" stroke-width="1.5" d="M0,-3.0v7 M-2.5,-0.5L0,-3.0L2.5,-0.5"/>
                </g>
                <g id="arrowDown" xlink:href="#dirArrow" transform="rotate(180) translate(-30 -48)" onmousedown="handlePan(0,1)">
                  <use xlink:href="#rim" fill="#404040">
                        <set attributeName="fill" to="#808080" begin="arrowDown.mouseover" end="arrowDown.mouseout"/>
                  </use>
                  <path fill="none" stroke="white" stroke-width="1.5" d="M0,-3.0v7 M-2.5,-0.5L0,-3.0L2.5,-0.5"/>
                </g>
                <g id="arrowLeft" xlink:href="#dirArrow" transform="rotate(270) translate(-36 17)" onmousedown="handlePan(-1,0)">
                  <use xlink:href="#rim" fill="#404040">
                        <set attributeName="fill" to="#808080" begin="arrowLeft.mouseover" end="arrowLeft.mouseout"/>
                  </use>
                  <path fill="none" stroke="white" stroke-width="1.5" d="M0,-3.0v7 M-2.5,-0.5L0,-3.0L2.5,-0.5"/>
                </g>
        </g>
        <svg viewBox="0 0 15 15" width="100%" height="30px" preserveAspectRatio="xMaxYMin meet">
         <g id="arrow_out" transform="scale(0.3 0.3)">
          <a xlink:href="dmas_8c__incl_org.svg" target="_base">
           <rect id="button" ry="5" rx="5" y="6" x="6" height="38" width="38"
                fill="#f2f5e9" fill-opacity="0.5" stroke="#606060" stroke-width="1.0"/>
           <path id="arrow"
             d="M 11.500037,31.436501 C 11.940474,20.09759 22.043105,11.32322 32.158766,21.979434 L 37.068811,17.246167 C 37.068811,17.246167 37.088388,32 37.088388,32 L 22.160133,31.978069 C 22.160133,31.978069 26.997745,27.140456 26.997745,27.140456 C 18.528582,18.264221 13.291696,25.230495 11.500037,31.436501 z"
             style="fill:#404040;"/>
          </a>
         </g>
        </svg>
</svg>
