<?xml version="1.0" encoding="UTF-8" standalone="no"?>
<!DOCTYPE svg PUBLIC "-//W3C//DTD SVG 1.1//EN"
 "http://www.w3.org/Graphics/SVG/1.1/DTD/svg11.dtd">
<!-- Generated by graphviz version 2.43.0 (0)
 -->
<!-- Title: include/find.h Pages: 1 -->
<!--zoomable 420 -->
<svg id="main" version="1.1" xmlns="http://www.w3.org/2000/svg" xmlns:xlink="http://www.w3.org/1999/xlink" xml:space="preserve" onload="init(evt)">
<style type="text/css"><![CDATA[
.edge:hover path { stroke: red; }
.edge:hover polygon { stroke: red; fill: red; }
]]></style>
<script type="text/javascript"><![CDATA[
var edges = document.getElementsByTagName('g');
if (edges && edges.length) {
  for (var i=0;i<edges.length;i++) {
    if (edges[i].id.substr(0,4)=='edge') {
      edges[i].setAttribute('class','edge');
    }
  }
}
]]></script>
        <defs>
                <circle id="rim" cx="0" cy="0" r="7"/>
                <circle id="rim2" cx="0" cy="0" r="3.5"/>
                <g id="zoomPlus">
                        <use xlink:href="#rim" fill="#404040">
                                <set attributeName="fill" to="#808080" begin="zoomplus.mouseover" end="zoomplus.mouseout"/>
                        </use>
                        <path d="M-4,0h8M0,-4v8" fill="none" stroke="white" stroke-width="1.5" pointer-events="none"/>
                </g>
                <g id="zoomMin">
                        <use xlink:href="#rim" fill="#404040">
                                <set attributeName="fill" to="#808080" begin="zoomminus.mouseover" end="zoomminus.mouseout"/>
                        </use>
                        <path d="M-4,0h8" fill="none" stroke="white" stroke-width="1.5" pointer-events="none"/>
                </g>
                <g id="dirArrow">
                        <path fill="none" stroke="white" stroke-width="1.5" d="M0,-3.0v7 M-2.5,-0.5L0,-3.0L2.5,-0.5"/>
                </g>
               <g id="resetDef">
                       <use xlink:href="#rim2" fill="#404040">
                               <set attributeName="fill" to="#808080" begin="reset.mouseover" end="reset.mouseout"/>
                       </use>
               </g>
        </defs>

<script type="text/javascript">
var viewWidth = 556;
var viewHeight = 420;
var sectionId = 'dynsection-0';
</script>
<script xlink:href="svgpan.js"/>
<svg id="graph" class="graph">
<g id="viewport">
<title>include/find.h</title>
<polygon fill="white" stroke="transparent" points="-4,4 -4,-416 551.62,-416 551.62,4 -4,4"/>
<!-- Node1 -->
<g id="node1" class="node">
<title>Node1</title>
<g id="a_node1"><a xlink:title="Find objects in the SW.">
<polygon fill="#bfbfbf" stroke="black" points="205,-392.5 205,-411.5 287,-411.5 287,-392.5 205,-392.5"/>
<text text-anchor="middle" x="246" y="-399.5" font-family="Helvetica,sans-Serif" font-size="10.00">include/find.h</text>
</a>
</g>
</g>
<!-- Node2 -->
<g id="node2" class="node">
<title>Node2</title>
<g id="a_node2"><a xlink:href="common_8h.html" target="_top" xlink:title="Common header file.">
<polygon fill="white" stroke="black" points="199,-56.5 199,-75.5 267,-75.5 267,-56.5 199,-56.5"/>
<text text-anchor="middle" x="233" y="-63.5" font-family="Helvetica,sans-Serif" font-size="10.00">common.h</text>
</a>
</g>
</g>
<!-- Node1&#45;&gt;Node2 -->
<g id="edge1" class="edge">
<title>Node1&#45;&gt;Node2</title>
<path fill="none" stroke="midnightblue" d="M204.83,-400.54C134.79,-397.33 0,-379.65 0,-291 0,-291 0,-291 0,-177 0,-94.63 120.56,-73.84 188.24,-68.66"/>
<polygon fill="midnightblue" stroke="midnightblue" points="188.88,-72.13 198.62,-67.96 188.41,-65.15 188.88,-72.13"/>
</g>
<!-- Node7 -->
<g id="node7" class="node">
<title>Node7</title>
<g id="a_node7"><a xlink:href="alo_8h.html" target="_top" xlink:title=" ">
<polygon fill="white" stroke="black" points="178.5,-280.5 178.5,-299.5 219.5,-299.5 219.5,-280.5 178.5,-280.5"/>
<text text-anchor="middle" x="199" y="-287.5" font-family="Helvetica,sans-Serif" font-size="10.00">alo.h</text>
</a>
</g>
</g>
<!-- Node1&#45;&gt;Node7 -->
<g id="edge6" class="edge">
<title>Node1&#45;&gt;Node7</title>
<path fill="none" stroke="midnightblue" d="M239.68,-392.43C233.44,-383.66 224.01,-369.44 218,-356 211.25,-340.91 206.18,-322.78 202.99,-309.51"/>
<polygon fill="midnightblue" stroke="midnightblue" points="206.38,-308.65 200.75,-299.68 199.56,-310.2 206.38,-308.65"/>
</g>
<!-- Node13 -->
<g id="node13" class="node">
<title>Node13</title>
<g id="a_node13"><a xlink:href="sw_8h.html" target="_top" xlink:title="Scene world?">
<polygon fill="white" stroke="black" points="451,-168.5 451,-187.5 489,-187.5 489,-168.5 451,-168.5"/>
<text text-anchor="middle" x="470" y="-175.5" font-family="Helvetica,sans-Serif" font-size="10.00">sw.h</text>
</a>
</g>
</g>
<!-- Node1&#45;&gt;Node13 -->
<g id="edge26" class="edge">
<title>Node1&#45;&gt;Node13</title>
<path fill="none" stroke="midnightblue" d="M254.78,-392.3C288.44,-358.94 409.54,-238.92 453.72,-195.13"/>
<polygon fill="midnightblue" stroke="midnightblue" points="456.4,-197.41 461.04,-187.88 451.47,-192.44 456.4,-197.41"/>
</g>
<!-- Node16 -->
<g id="node16" class="node">
<title>Node16</title>
<g id="a_node16"><a xlink:href="cid_8h.html" target="_top" xlink:title="Class ID.">
<polygon fill="white" stroke="black" points="506,-280.5 506,-299.5 546,-299.5 546,-280.5 506,-280.5"/>
<text text-anchor="middle" x="526" y="-287.5" font-family="Helvetica,sans-Serif" font-size="10.00">cid.h</text>
</a>
</g>
</g>
<!-- Node1&#45;&gt;Node16 -->
<g id="edge27" class="edge">
<title>Node1&#45;&gt;Node16</title>
<path fill="none" stroke="midnightblue" d="M268.05,-392.39C291.21,-383.34 328.67,-368.69 361,-356 408.4,-337.39 463.42,-315.7 496.43,-302.67"/>
<polygon fill="midnightblue" stroke="midnightblue" points="497.92,-305.85 505.94,-298.92 495.35,-299.33 497.92,-305.85"/>
</g>
<!-- Node17 -->
<g id="node17" class="node">
<title>Node17</title>
<g id="a_node17"><a xlink:href="so_8h.html" target="_top" xlink:title="Scene objects.">
<polygon fill="white" stroke="black" points="227.5,-336.5 227.5,-355.5 264.5,-355.5 264.5,-336.5 227.5,-336.5"/>
<text text-anchor="middle" x="246" y="-343.5" font-family="Helvetica,sans-Serif" font-size="10.00">so.h</text>
</a>
</g>
</g>
<!-- Node1&#45;&gt;Node17 -->
<g id="edge29" class="edge">
<title>Node1&#45;&gt;Node17</title>
<path fill="none" stroke="midnightblue" d="M246,-392.08C246,-385.01 246,-374.86 246,-365.99"/>
<polygon fill="midnightblue" stroke="midnightblue" points="249.5,-365.75 246,-355.75 242.5,-365.75 249.5,-365.75"/>
</g>
<!-- Node3 -->
<g id="node3" class="node">
<title>Node3</title>
<g id="a_node3"><a xlink:href="include__asm_8h.html" target="_top" xlink:title=" ">
<polygon fill="white" stroke="black" points="31.5,-0.5 31.5,-19.5 118.5,-19.5 118.5,-0.5 31.5,-0.5"/>
<text text-anchor="middle" x="75" y="-7.5" font-family="Helvetica,sans-Serif" font-size="10.00">include_asm.h</text>
</a>
</g>
</g>
<!-- Node2&#45;&gt;Node3 -->
<g id="edge2" class="edge">
<title>Node2&#45;&gt;Node3</title>
<path fill="none" stroke="midnightblue" d="M207.96,-56.44C181.38,-47.36 139.19,-32.94 109.48,-22.78"/>
<polygon fill="midnightblue" stroke="midnightblue" points="110.51,-19.44 99.92,-19.52 108.25,-26.06 110.51,-19.44"/>
</g>
<!-- Node4 -->
<g id="node4" class="node">
<title>Node4</title>
<g id="a_node4"><a xlink:href="include__rodata_8h.html" target="_top" xlink:title=" ">
<polygon fill="white" stroke="black" points="137,-0.5 137,-19.5 235,-19.5 235,-0.5 137,-0.5"/>
<text text-anchor="middle" x="186" y="-7.5" font-family="Helvetica,sans-Serif" font-size="10.00">include_rodata.h</text>
</a>
</g>
</g>
<!-- Node2&#45;&gt;Node4 -->
<g id="edge3" class="edge">
<title>Node2&#45;&gt;Node4</title>
<path fill="none" stroke="midnightblue" d="M225.24,-56.08C218.46,-48.3 208.46,-36.8 200.24,-27.37"/>
<polygon fill="midnightblue" stroke="midnightblue" points="202.82,-25 193.62,-19.75 197.54,-29.59 202.82,-25"/>
</g>
<!-- Node5 -->
<g id="node5" class="node">
<title>Node5</title>
<g id="a_node5"><a xlink:href="types_8h.html" target="_top" xlink:title="Types used throughout the engine.">
<polygon fill="white" stroke="black" points="253.5,-0.5 253.5,-19.5 306.5,-19.5 306.5,-0.5 253.5,-0.5"/>
<text text-anchor="middle" x="280" y="-7.5" font-family="Helvetica,sans-Serif" font-size="10.00">types.h</text>
</a>
</g>
</g>
<!-- Node2&#45;&gt;Node5 -->
<g id="edge4" class="edge">
<title>Node2&#45;&gt;Node5</title>
<path fill="none" stroke="midnightblue" d="M240.76,-56.08C247.54,-48.3 257.54,-36.8 265.76,-27.37"/>
<polygon fill="midnightblue" stroke="midnightblue" points="268.46,-29.59 272.38,-19.75 263.18,-25 268.46,-29.59"/>
</g>
<!-- Node6 -->
<g id="node6" class="node">
<title>Node6</title>
<g id="a_node6"><a xlink:href="vtables_8h.html" target="_top" xlink:title=" ">
<polygon fill="white" stroke="black" points="325,-0.5 325,-19.5 387,-19.5 387,-0.5 325,-0.5"/>
<text text-anchor="middle" x="356" y="-7.5" font-family="Helvetica,sans-Serif" font-size="10.00">vtables.h</text>
</a>
</g>
</g>
<!-- Node2&#45;&gt;Node6 -->
<g id="edge5" class="edge">
<title>Node2&#45;&gt;Node6</title>
<path fill="none" stroke="midnightblue" d="M252.49,-56.44C272.64,-47.6 304.32,-33.69 327.33,-23.59"/>
<polygon fill="midnightblue" stroke="midnightblue" points="328.85,-26.74 336.6,-19.52 326.04,-20.33 328.85,-26.74"/>
</g>
<!-- Node7&#45;&gt;Node2 -->
<g id="edge7" class="edge">
<title>Node7&#45;&gt;Node2</title>
<path fill="none" stroke="midnightblue" d="M185.88,-280.42C147.57,-254.33 41.32,-173.88 87,-112 110.13,-80.67 154.75,-70.48 188.6,-67.48"/>
<polygon fill="midnightblue" stroke="midnightblue" points="189,-70.96 198.72,-66.76 188.5,-63.98 189,-70.96"/>
</g>
<!-- Node8 -->
<g id="node8" class="node">
<title>Node8</title>
<g id="a_node8"><a xlink:href="lo_8h.html" target="_top" xlink:title="Level objects.">
<polygon fill="white" stroke="black" points="218.5,-224.5 218.5,-243.5 253.5,-243.5 253.5,-224.5 218.5,-224.5"/>
<text text-anchor="middle" x="236" y="-231.5" font-family="Helvetica,sans-Serif" font-size="10.00">lo.h</text>
</a>
</g>
</g>
<!-- Node7&#45;&gt;Node8 -->
<g id="edge8" class="edge">
<title>Node7&#45;&gt;Node8</title>
<path fill="none" stroke="midnightblue" d="M205.11,-280.08C210.28,-272.53 217.85,-261.49 224.19,-252.23"/>
<polygon fill="midnightblue" stroke="midnightblue" points="227.24,-253.98 230,-243.75 221.46,-250.02 227.24,-253.98"/>
</g>
<!-- Node12 -->
<g id="node12" class="node">
<title>Node12</title>
<g id="a_node12"><a xlink:href="dl_8h.html" target="_top" xlink:title=" ">
<polygon fill="white" stroke="black" points="107.5,-168.5 107.5,-187.5 142.5,-187.5 142.5,-168.5 107.5,-168.5"/>
<text text-anchor="middle" x="125" y="-175.5" font-family="Helvetica,sans-Serif" font-size="10.00">dl.h</text>
</a>
</g>
</g>
<!-- Node7&#45;&gt;Node12 -->
<g id="edge25" class="edge">
<title>Node7&#45;&gt;Node12</title>
<path fill="none" stroke="midnightblue" d="M193.19,-280.37C180.98,-262.22 152.45,-219.8 136.43,-195.99"/>
<polygon fill="midnightblue" stroke="midnightblue" points="139.27,-193.94 130.78,-187.59 133.46,-197.84 139.27,-193.94"/>
</g>
<!-- Node8&#45;&gt;Node2 -->
<g id="edge9" class="edge">
<title>Node8&#45;&gt;Node2</title>
<path fill="none" stroke="midnightblue" d="M253.68,-226.6C296.87,-209.99 401.63,-163.19 365,-112 345.21,-84.35 307.41,-73.49 277.31,-69.33"/>
<polygon fill="midnightblue" stroke="midnightblue" points="277.37,-65.81 267.03,-68.12 276.55,-72.76 277.37,-65.81"/>
</g>
<!-- Node9 -->
<g id="node9" class="node">
<title>Node9</title>
<g id="a_node9"><a xlink:href="oid_8h.html" target="_top" xlink:title="Object IDs.">
<polygon fill="white" stroke="black" points="104.5,-112.5 104.5,-131.5 145.5,-131.5 145.5,-112.5 104.5,-112.5"/>
<text text-anchor="middle" x="125" y="-119.5" font-family="Helvetica,sans-Serif" font-size="10.00">oid.h</text>
</a>
</g>
</g>
<!-- Node8&#45;&gt;Node9 -->
<g id="edge10" class="edge">
<title>Node8&#45;&gt;Node9</title>
<path fill="none" stroke="midnightblue" d="M227.29,-224.37C208.65,-205.89 164.65,-162.29 140.89,-138.74"/>
<polygon fill="midnightblue" stroke="midnightblue" points="143.24,-136.14 133.67,-131.59 138.31,-141.12 143.24,-136.14"/>
</g>
<!-- Node10 -->
<g id="node10" class="node">
<title>Node10</title>
<g id="a_node10"><a xlink:href="basic_8h.html" target="_top" xlink:title="Basic object.">
<polygon fill="white" stroke="black" points="237.5,-168.5 237.5,-187.5 288.5,-187.5 288.5,-168.5 237.5,-168.5"/>
<text text-anchor="middle" x="263" y="-175.5" font-family="Helvetica,sans-Serif" font-size="10.00">basic.h</text>
</a>
</g>
</g>
<!-- Node8&#45;&gt;Node10 -->
<g id="edge12" class="edge">
<title>Node8&#45;&gt;Node10</title>
<path fill="none" stroke="midnightblue" d="M240.46,-224.08C244.15,-216.69 249.52,-205.95 254.09,-196.81"/>
<polygon fill="midnightblue" stroke="midnightblue" points="257.28,-198.26 258.62,-187.75 251.02,-195.13 257.28,-198.26"/>
</g>
<!-- Node8&#45;&gt;Node12 -->
<g id="edge16" class="edge">
<title>Node8&#45;&gt;Node12</title>
<path fill="none" stroke="midnightblue" d="M218.17,-224.32C200.28,-215.62 172.52,-202.12 151.95,-192.11"/>
<polygon fill="midnightblue" stroke="midnightblue" points="153.31,-188.88 142.79,-187.65 150.25,-195.18 153.31,-188.88"/>
</g>
<!-- Node8&#45;&gt;Node13 -->
<g id="edge19" class="edge">
<title>Node8&#45;&gt;Node13</title>
<path fill="none" stroke="midnightblue" d="M253.54,-229.36C288.54,-222.02 369.5,-204.75 437,-188 438.26,-187.69 439.55,-187.36 440.86,-187.03"/>
<polygon fill="midnightblue" stroke="midnightblue" points="442.07,-190.33 450.84,-184.38 440.28,-183.56 442.07,-190.33"/>
</g>
<!-- Node14 -->
<g id="node14" class="node">
<title>Node14</title>
<g id="a_node14"><a xlink:href="frame_8h.html" target="_top" xlink:title=" ">
<polygon fill="white" stroke="black" points="413,-112.5 413,-131.5 499,-131.5 499,-112.5 413,-112.5"/>
<text text-anchor="middle" x="456" y="-119.5" font-family="Helvetica,sans-Serif" font-size="10.00">splice/frame.h</text>
</a>
</g>
</g>
<!-- Node8&#45;&gt;Node14 -->
<g id="edge21" class="edge">
<title>Node8&#45;&gt;Node14</title>
<path fill="none" stroke="midnightblue" d="M253.99,-231.42C285.55,-227.96 351.99,-217.48 399,-188 418.4,-175.83 434.92,-155.08 445.11,-140.3"/>
<polygon fill="midnightblue" stroke="midnightblue" points="448.26,-141.87 450.85,-131.6 442.42,-138.01 448.26,-141.87"/>
</g>
<!-- Node15 -->
<g id="node15" class="node">
<title>Node15</title>
<g id="a_node15"><a xlink:href="mq_8h.html" target="_top" xlink:title="Message queue(?).">
<polygon fill="white" stroke="black" points="163.5,-112.5 163.5,-131.5 204.5,-131.5 204.5,-112.5 163.5,-112.5"/>
<text text-anchor="middle" x="184" y="-119.5" font-family="Helvetica,sans-Serif" font-size="10.00">mq.h</text>
</a>
</g>
</g>
<!-- Node8&#45;&gt;Node15 -->
<g id="edge23" class="edge">
<title>Node8&#45;&gt;Node15</title>
<path fill="none" stroke="midnightblue" d="M231.92,-224.37C223.45,-206.46 203.82,-164.92 192.48,-140.95"/>
<polygon fill="midnightblue" stroke="midnightblue" points="195.5,-139.14 188.06,-131.59 189.17,-142.13 195.5,-139.14"/>
</g>
<!-- Node9&#45;&gt;Node2 -->
<g id="edge11" class="edge">
<title>Node9&#45;&gt;Node2</title>
<path fill="none" stroke="midnightblue" d="M142.35,-112.32C159.67,-103.66 186.52,-90.24 206.5,-80.25"/>
<polygon fill="midnightblue" stroke="midnightblue" points="208.31,-83.26 215.69,-75.65 205.18,-77 208.31,-83.26"/>
</g>
<!-- Node10&#45;&gt;Node2 -->
<g id="edge13" class="edge">
<title>Node10&#45;&gt;Node2</title>
<path fill="none" stroke="midnightblue" d="M260.65,-168.37C255.78,-150.54 244.54,-109.3 237.98,-85.27"/>
<polygon fill="midnightblue" stroke="midnightblue" points="241.35,-84.32 235.34,-75.59 234.6,-86.16 241.35,-84.32"/>
</g>
<!-- Node11 -->
<g id="node11" class="node">
<title>Node11</title>
<g id="a_node11"><a xlink:href="sidebag_8h.html" target="_top" xlink:title="Sidebag for splice.">
<polygon fill="white" stroke="black" points="261.5,-112.5 261.5,-131.5 356.5,-131.5 356.5,-112.5 261.5,-112.5"/>
<text text-anchor="middle" x="309" y="-119.5" font-family="Helvetica,sans-Serif" font-size="10.00">splice/sidebag.h</text>
</a>
</g>
</g>
<!-- Node10&#45;&gt;Node11 -->
<g id="edge14" class="edge">
<title>Node10&#45;&gt;Node11</title>
<path fill="none" stroke="midnightblue" d="M270.6,-168.08C277.23,-160.3 287.02,-148.8 295.06,-139.37"/>
<polygon fill="midnightblue" stroke="midnightblue" points="297.73,-141.63 301.55,-131.75 292.4,-137.09 297.73,-141.63"/>
</g>
<!-- Node11&#45;&gt;Node2 -->
<g id="edge15" class="edge">
<title>Node11&#45;&gt;Node2</title>
<path fill="none" stroke="midnightblue" d="M296.79,-112.32C285.22,-104.11 267.62,-91.6 253.84,-81.81"/>
<polygon fill="midnightblue" stroke="midnightblue" points="255.61,-78.77 245.43,-75.83 251.56,-84.48 255.61,-78.77"/>
</g>
<!-- Node12&#45;&gt;Node2 -->
<g id="edge17" class="edge">
<title>Node12&#45;&gt;Node2</title>
<path fill="none" stroke="midnightblue" d="M115.6,-168.44C102.48,-155.44 81.71,-130.31 95,-112 116.14,-82.87 156.66,-72.23 188.35,-68.53"/>
<polygon fill="midnightblue" stroke="midnightblue" points="189.1,-71.97 198.71,-67.52 188.42,-65 189.1,-71.97"/>
</g>
<!-- Node12&#45;&gt;Node9 -->
<g id="edge18" class="edge">
<title>Node12&#45;&gt;Node9</title>
<path fill="none" stroke="midnightblue" d="M125,-168.08C125,-161.01 125,-150.86 125,-141.99"/>
<polygon fill="midnightblue" stroke="midnightblue" points="128.5,-141.75 125,-131.75 121.5,-141.75 128.5,-141.75"/>
</g>
<!-- Node13&#45;&gt;Node2 -->
<g id="edge20" class="edge">
<title>Node13&#45;&gt;Node2</title>
<path fill="none" stroke="midnightblue" d="M481.55,-168.39C497.7,-155.33 523.4,-130.13 508,-112 478.95,-77.81 347.64,-69.54 277.49,-67.58"/>
<polygon fill="midnightblue" stroke="midnightblue" points="277.28,-64.07 267.2,-67.32 277.11,-71.07 277.28,-64.07"/>
</g>
<!-- Node14&#45;&gt;Node2 -->
<g id="edge22" class="edge">
<title>Node14&#45;&gt;Node2</title>
<path fill="none" stroke="midnightblue" d="M420.66,-112.44C381.75,-103.02 319.12,-87.85 277.04,-77.66"/>
<polygon fill="midnightblue" stroke="midnightblue" points="277.62,-74.2 267.07,-75.25 275.97,-81.01 277.62,-74.2"/>
</g>
<!-- Node15&#45;&gt;Node2 -->
<g id="edge24" class="edge">
<title>Node15&#45;&gt;Node2</title>
<path fill="none" stroke="midnightblue" d="M192.09,-112.08C199.16,-104.3 209.59,-92.8 218.15,-83.37"/>
<polygon fill="midnightblue" stroke="midnightblue" points="220.93,-85.51 225.06,-75.75 215.75,-80.8 220.93,-85.51"/>
</g>
<!-- Node16&#45;&gt;Node2 -->
<g id="edge28" class="edge">
<title>Node16&#45;&gt;Node2</title>
<path fill="none" stroke="midnightblue" d="M529.34,-280.28C539.53,-251.99 567.08,-161.69 524,-112 492.6,-75.79 351.05,-68.48 277.58,-67.16"/>
<polygon fill="midnightblue" stroke="midnightblue" points="277.3,-63.66 267.25,-67.01 277.2,-70.66 277.3,-63.66"/>
</g>
<!-- Node17&#45;&gt;Node7 -->
<g id="edge30" class="edge">
<title>Node17&#45;&gt;Node7</title>
<path fill="none" stroke="midnightblue" d="M238.24,-336.08C231.46,-328.3 221.46,-316.8 213.24,-307.37"/>
<polygon fill="midnightblue" stroke="midnightblue" points="215.82,-305 206.62,-299.75 210.54,-309.59 215.82,-305"/>
</g>
</g>
</svg>
        <g id="navigator" transform="translate(0 0)" fill="#404254">
                <rect fill="#f2f5e9" fill-opacity="0.5" stroke="#606060" stroke-width=".5" x="0" y="0" width="60" height="60"/>
                <use id="zoomplus" xlink:href="#zoomPlus" x="17" y="9" onmousedown="handleZoom(evt,'in')"/>
                <use id="zoomminus" xlink:href="#zoomMin" x="42" y="9" onmousedown="handleZoom(evt,'out')"/>
                <use id="reset" xlink:href="#resetDef" x="30" y="36" onmousedown="handleReset()"/>
                <g id="arrowUp" xlink:href="#dirArrow" transform="translate(30 24)" onmousedown="handlePan(0,-1)">
                  <use xlink:href="#rim" fill="#404040">
                        <set attributeName="fill" to="#808080" begin="arrowUp.mouseover" end="arrowUp.mouseout"/>
                  </use>
                  <path fill="none" stroke="white" stroke-width="1.5" d="M0,-3.0v7 M-2.5,-0.5L0,-3.0L2.5,-0.5"/>
                </g>
                <g id="arrowRight" xlink:href="#dirArrow" transform="rotate(90) translate(36 -43)" onmousedown="handlePan(1,0)">
                  <use xlink:href="#rim" fill="#404040">
                        <set attributeName="fill" to="#808080" begin="arrowRight.mouseover" end="arrowRight.mouseout"/>
                  </use>
                  <path fill="none" stroke="white" stroke-width="1.5" d="M0,-3.0v7 M-2.5,-0.5L0,-3.0L2.5,-0.5"/>
                </g>
                <g id="arrowDown" xlink:href="#dirArrow" transform="rotate(180) translate(-30 -48)" onmousedown="handlePan(0,1)">
                  <use xlink:href="#rim" fill="#404040">
                        <set attributeName="fill" to="#808080" begin="arrowDown.mouseover" end="arrowDown.mouseout"/>
                  </use>
                  <path fill="none" stroke="white" stroke-width="1.5" d="M0,-3.0v7 M-2.5,-0.5L0,-3.0L2.5,-0.5"/>
                </g>
                <g id="arrowLeft" xlink:href="#dirArrow" transform="rotate(270) translate(-36 17)" onmousedown="handlePan(-1,0)">
                  <use xlink:href="#rim" fill="#404040">
                        <set attributeName="fill" to="#808080" begin="arrowLeft.mouseover" end="arrowLeft.mouseout"/>
                  </use>
                  <path fill="none" stroke="white" stroke-width="1.5" d="M0,-3.0v7 M-2.5,-0.5L0,-3.0L2.5,-0.5"/>
                </g>
        </g>
        <svg viewBox="0 0 15 15" width="100%" height="30px" preserveAspectRatio="xMaxYMin meet">
         <g id="arrow_out" transform="scale(0.3 0.3)">
          <a xlink:href="find_8h__incl_org.svg" target="_base">
           <rect id="button" ry="5" rx="5" y="6" x="6" height="38" width="38"
                fill="#f2f5e9" fill-opacity="0.5" stroke="#606060" stroke-width="1.0"/>
           <path id="arrow"
             d="M 11.500037,31.436501 C 11.940474,20.09759 22.043105,11.32322 32.158766,21.979434 L 37.068811,17.246167 C 37.068811,17.246167 37.088388,32 37.088388,32 L 22.160133,31.978069 C 22.160133,31.978069 26.997745,27.140456 26.997745,27.140456 C 18.528582,18.264221 13.291696,25.230495 11.500037,31.436501 z"
             style="fill:#404040;"/>
          </a>
         </g>
        </svg>
</svg>
