<?xml version="1.0" encoding="UTF-8" standalone="no"?>
<!DOCTYPE svg PUBLIC "-//W3C//DTD SVG 1.1//EN"
 "http://www.w3.org/Graphics/SVG/1.1/DTD/svg11.dtd">
<!-- Generated by graphviz version 2.43.0 (0)
 -->
<!-- Title: include/flash.h Pages: 1 -->
<svg width="1410pt" height="644pt"
 viewBox="0.00 0.00 1410.00 644.00" xmlns="http://www.w3.org/2000/svg" xmlns:xlink="http://www.w3.org/1999/xlink">
<g id="graph0" class="graph" transform="scale(1 1) rotate(0) translate(4 640)">
<title>include/flash.h</title>
<polygon fill="white" stroke="transparent" points="-4,4 -4,-640 1406,-640 1406,4 -4,4"/>
<!-- Node1 -->
<g id="node1" class="node">
<title>Node1</title>
<g id="a_node1"><a xlink:title="Flash (might be flash animation, or literal screen flashes).">
<polygon fill="#bfbfbf" stroke="black" points="110.5,-616.5 110.5,-635.5 197.5,-635.5 197.5,-616.5 110.5,-616.5"/>
<text text-anchor="middle" x="154" y="-623.5" font-family="Helvetica,sans-Serif" font-size="10.00">include/flash.h</text>
</a>
</g>
</g>
<!-- Node2 -->
<g id="node2" class="node">
<title>Node2</title>
<g id="a_node2"><a xlink:href="common_8h.html" target="_top" xlink:title="Common header file.">
<polygon fill="white" stroke="black" points="725,-56.5 725,-75.5 793,-75.5 793,-56.5 725,-56.5"/>
<text text-anchor="middle" x="759" y="-63.5" font-family="Helvetica,sans-Serif" font-size="10.00">common.h</text>
</a>
</g>
</g>
<!-- Node1&#45;&gt;Node2 -->
<g id="edge1" class="edge">
<title>Node1&#45;&gt;Node2</title>
<path fill="none" stroke="midnightblue" d="M118.28,-616.43C72.79,-603.13 0,-572.83 0,-515 0,-515 0,-515 0,-177 0,-137.68 24.51,-128.92 60,-112 118.83,-83.95 569.34,-71.32 714.26,-67.96"/>
<polygon fill="midnightblue" stroke="midnightblue" points="714.63,-71.45 724.55,-67.72 714.47,-64.45 714.63,-71.45"/>
</g>
<!-- Node6 -->
<g id="node6" class="node">
<title>Node6</title>
<g id="a_node6"><a xlink:href="mat_8h.html" target="_top" xlink:title="3x3 and 4x4 matrix types.">
<polygon fill="white" stroke="black" points="564.5,-392.5 564.5,-411.5 609.5,-411.5 609.5,-392.5 564.5,-392.5"/>
<text text-anchor="middle" x="587" y="-399.5" font-family="Helvetica,sans-Serif" font-size="10.00">mat.h</text>
</a>
</g>
</g>
<!-- Node1&#45;&gt;Node6 -->
<g id="edge5" class="edge">
<title>Node1&#45;&gt;Node6</title>
<path fill="none" stroke="midnightblue" d="M197.52,-624.33C282.18,-622.28 465.3,-613.93 517,-580 571.08,-544.51 583.38,-459.8 586.18,-421.9"/>
<polygon fill="midnightblue" stroke="midnightblue" points="589.68,-421.93 586.78,-411.74 582.7,-421.52 589.68,-421.93"/>
</g>
<!-- Node7 -->
<g id="node7" class="node">
<title>Node7</title>
<g id="a_node7"><a xlink:href="sm_8h.html" target="_top" xlink:title="State machines.">
<polygon fill="white" stroke="black" points="294.5,-336.5 294.5,-355.5 335.5,-355.5 335.5,-336.5 294.5,-336.5"/>
<text text-anchor="middle" x="315" y="-343.5" font-family="Helvetica,sans-Serif" font-size="10.00">sm.h</text>
</a>
</g>
</g>
<!-- Node1&#45;&gt;Node7 -->
<g id="edge6" class="edge">
<title>Node1&#45;&gt;Node7</title>
<path fill="none" stroke="midnightblue" d="M150.47,-616.28C143.7,-599.01 129.11,-559.12 124,-524 115.02,-462.22 125.71,-433.88 172,-392 203.39,-363.61 252.6,-353.13 284.33,-349.26"/>
<polygon fill="midnightblue" stroke="midnightblue" points="284.79,-352.73 294.37,-348.19 284.05,-345.77 284.79,-352.73"/>
</g>
<!-- Node17 -->
<g id="node17" class="node">
<title>Node17</title>
<g id="a_node17"><a xlink:href="shd_8h.html" target="_top" xlink:title="Shaders.">
<polygon fill="white" stroke="black" points="132.5,-504.5 132.5,-523.5 175.5,-523.5 175.5,-504.5 132.5,-504.5"/>
<text text-anchor="middle" x="154" y="-511.5" font-family="Helvetica,sans-Serif" font-size="10.00">shd.h</text>
</a>
</g>
</g>
<!-- Node1&#45;&gt;Node17 -->
<g id="edge29" class="edge">
<title>Node1&#45;&gt;Node17</title>
<path fill="none" stroke="midnightblue" d="M154,-616.37C154,-598.62 154,-557.67 154,-533.6"/>
<polygon fill="midnightblue" stroke="midnightblue" points="157.5,-533.59 154,-523.59 150.5,-533.59 157.5,-533.59"/>
</g>
<!-- Node25 -->
<g id="node25" class="node">
<title>Node25</title>
<g id="a_node25"><a xlink:href="cm_8h.html" target="_top" xlink:title="Game camera.">
<polygon fill="white" stroke="black" points="466.5,-560.5 466.5,-579.5 507.5,-579.5 507.5,-560.5 466.5,-560.5"/>
<text text-anchor="middle" x="487" y="-567.5" font-family="Helvetica,sans-Serif" font-size="10.00">cm.h</text>
</a>
</g>
</g>
<!-- Node1&#45;&gt;Node25 -->
<g id="edge47" class="edge">
<title>Node1&#45;&gt;Node25</title>
<path fill="none" stroke="midnightblue" d="M197.53,-617.94C265.91,-606.85 396.81,-585.63 456.26,-575.98"/>
<polygon fill="midnightblue" stroke="midnightblue" points="457.19,-579.38 466.5,-574.32 456.07,-572.47 457.19,-579.38"/>
</g>
<!-- Node3 -->
<g id="node3" class="node">
<title>Node3</title>
<g id="a_node3"><a xlink:href="include__asm_8h.html" target="_top" xlink:title=" ">
<polygon fill="white" stroke="black" points="604.5,-0.5 604.5,-19.5 691.5,-19.5 691.5,-0.5 604.5,-0.5"/>
<text text-anchor="middle" x="648" y="-7.5" font-family="Helvetica,sans-Serif" font-size="10.00">include_asm.h</text>
</a>
</g>
</g>
<!-- Node2&#45;&gt;Node3 -->
<g id="edge2" class="edge">
<title>Node2&#45;&gt;Node3</title>
<path fill="none" stroke="midnightblue" d="M741.17,-56.32C723.28,-47.62 695.52,-34.12 674.95,-24.11"/>
<polygon fill="midnightblue" stroke="midnightblue" points="676.31,-20.88 665.79,-19.65 673.25,-27.18 676.31,-20.88"/>
</g>
<!-- Node4 -->
<g id="node4" class="node">
<title>Node4</title>
<g id="a_node4"><a xlink:href="include__rodata_8h.html" target="_top" xlink:title=" ">
<polygon fill="white" stroke="black" points="710,-0.5 710,-19.5 808,-19.5 808,-0.5 710,-0.5"/>
<text text-anchor="middle" x="759" y="-7.5" font-family="Helvetica,sans-Serif" font-size="10.00">include_rodata.h</text>
</a>
</g>
</g>
<!-- Node2&#45;&gt;Node4 -->
<g id="edge3" class="edge">
<title>Node2&#45;&gt;Node4</title>
<path fill="none" stroke="midnightblue" d="M759,-56.08C759,-49.01 759,-38.86 759,-29.99"/>
<polygon fill="midnightblue" stroke="midnightblue" points="762.5,-29.75 759,-19.75 755.5,-29.75 762.5,-29.75"/>
</g>
<!-- Node5 -->
<g id="node5" class="node">
<title>Node5</title>
<g id="a_node5"><a xlink:href="types_8h.html" target="_top" xlink:title="Types used throughout the engine.">
<polygon fill="white" stroke="black" points="826.5,-0.5 826.5,-19.5 879.5,-19.5 879.5,-0.5 826.5,-0.5"/>
<text text-anchor="middle" x="853" y="-7.5" font-family="Helvetica,sans-Serif" font-size="10.00">types.h</text>
</a>
</g>
</g>
<!-- Node2&#45;&gt;Node5 -->
<g id="edge4" class="edge">
<title>Node2&#45;&gt;Node5</title>
<path fill="none" stroke="midnightblue" d="M774.1,-56.32C788.9,-47.82 811.69,-34.73 828.98,-24.8"/>
<polygon fill="midnightblue" stroke="midnightblue" points="831.01,-27.67 837.93,-19.65 827.52,-21.6 831.01,-27.67"/>
</g>
<!-- Node7&#45;&gt;Node2 -->
<g id="edge7" class="edge">
<title>Node7&#45;&gt;Node2</title>
<path fill="none" stroke="midnightblue" d="M308.19,-336.46C294.72,-318.69 266,-275.98 266,-235 266,-235 266,-235 266,-177 266,-141.61 281.42,-129.82 312,-112 379.54,-72.64 615.36,-67.33 714.53,-66.88"/>
<polygon fill="midnightblue" stroke="midnightblue" points="714.82,-70.38 724.81,-66.85 714.8,-63.38 714.82,-70.38"/>
</g>
<!-- Node8 -->
<g id="node8" class="node">
<title>Node8</title>
<g id="a_node8"><a xlink:href="dl_8h.html" target="_top" xlink:title=" ">
<polygon fill="white" stroke="black" points="849.5,-168.5 849.5,-187.5 884.5,-187.5 884.5,-168.5 849.5,-168.5"/>
<text text-anchor="middle" x="867" y="-175.5" font-family="Helvetica,sans-Serif" font-size="10.00">dl.h</text>
</a>
</g>
</g>
<!-- Node7&#45;&gt;Node8 -->
<g id="edge8" class="edge">
<title>Node7&#45;&gt;Node8</title>
<path fill="none" stroke="midnightblue" d="M335.8,-344.09C406.96,-340.73 640.05,-327.83 709,-300 769.1,-275.74 825.96,-222.06 852.06,-195.11"/>
<polygon fill="midnightblue" stroke="midnightblue" points="854.78,-197.32 859.14,-187.66 849.71,-192.49 854.78,-197.32"/>
</g>
<!-- Node10 -->
<g id="node10" class="node">
<title>Node10</title>
<g id="a_node10"><a xlink:href="anim_8h.html" target="_top" xlink:title="Animation.">
<polygon fill="white" stroke="black" points="488,-280.5 488,-299.5 538,-299.5 538,-280.5 488,-280.5"/>
<text text-anchor="middle" x="513" y="-287.5" font-family="Helvetica,sans-Serif" font-size="10.00">anim.h</text>
</a>
</g>
</g>
<!-- Node7&#45;&gt;Node10 -->
<g id="edge12" class="edge">
<title>Node7&#45;&gt;Node10</title>
<path fill="none" stroke="midnightblue" d="M335.82,-339.32C369.59,-330.11 436.7,-311.81 477.94,-300.56"/>
<polygon fill="midnightblue" stroke="midnightblue" points="479.1,-303.87 487.83,-297.86 477.26,-297.12 479.1,-303.87"/>
</g>
<!-- Node16 -->
<g id="node16" class="node">
<title>Node16</title>
<g id="a_node16"><a xlink:href="mq_8h.html" target="_top" xlink:title="Message queue(?).">
<polygon fill="white" stroke="black" points="294.5,-168.5 294.5,-187.5 335.5,-187.5 335.5,-168.5 294.5,-168.5"/>
<text text-anchor="middle" x="315" y="-175.5" font-family="Helvetica,sans-Serif" font-size="10.00">mq.h</text>
</a>
</g>
</g>
<!-- Node7&#45;&gt;Node16 -->
<g id="edge28" class="edge">
<title>Node7&#45;&gt;Node16</title>
<path fill="none" stroke="midnightblue" d="M315,-336.08C315,-309.95 315,-233.21 315,-197.58"/>
<polygon fill="midnightblue" stroke="midnightblue" points="318.5,-197.57 315,-187.57 311.5,-197.57 318.5,-197.57"/>
</g>
<!-- Node8&#45;&gt;Node2 -->
<g id="edge9" class="edge">
<title>Node8&#45;&gt;Node2</title>
<path fill="none" stroke="midnightblue" d="M868.24,-168.45C869.7,-155.03 870.53,-128.8 858,-112 844.77,-94.26 822.9,-83.34 803.08,-76.7"/>
<polygon fill="midnightblue" stroke="midnightblue" points="803.85,-73.27 793.26,-73.69 801.8,-79.97 803.85,-73.27"/>
</g>
<!-- Node9 -->
<g id="node9" class="node">
<title>Node9</title>
<g id="a_node9"><a xlink:href="oid_8h.html" target="_top" xlink:title="Object IDs.">
<polygon fill="white" stroke="black" points="1062.5,-112.5 1062.5,-131.5 1103.5,-131.5 1103.5,-112.5 1062.5,-112.5"/>
<text text-anchor="middle" x="1083" y="-119.5" font-family="Helvetica,sans-Serif" font-size="10.00">oid.h</text>
</a>
</g>
</g>
<!-- Node8&#45;&gt;Node9 -->
<g id="edge10" class="edge">
<title>Node8&#45;&gt;Node9</title>
<path fill="none" stroke="midnightblue" d="M884.68,-172.58C921.41,-163.4 1006.4,-142.15 1052.29,-130.68"/>
<polygon fill="midnightblue" stroke="midnightblue" points="1053.4,-134.01 1062.26,-128.19 1051.71,-127.22 1053.4,-134.01"/>
</g>
<!-- Node9&#45;&gt;Node2 -->
<g id="edge11" class="edge">
<title>Node9&#45;&gt;Node2</title>
<path fill="none" stroke="midnightblue" d="M1062.35,-115.34C1057.65,-114.15 1052.67,-112.96 1048,-112 961.85,-94.26 859.97,-79.92 803.09,-72.51"/>
<polygon fill="midnightblue" stroke="midnightblue" points="803.37,-69.02 793.01,-71.2 802.47,-75.96 803.37,-69.02"/>
</g>
<!-- Node10&#45;&gt;Node2 -->
<g id="edge13" class="edge">
<title>Node10&#45;&gt;Node2</title>
<path fill="none" stroke="midnightblue" d="M503.33,-280.24C473.91,-252.59 390.25,-165.74 437,-112 472.46,-71.24 634.9,-66.28 714.62,-66.36"/>
<polygon fill="midnightblue" stroke="midnightblue" points="714.82,-69.87 724.83,-66.4 714.85,-62.87 714.82,-69.87"/>
</g>
<!-- Node11 -->
<g id="node11" class="node">
<title>Node11</title>
<g id="a_node11"><a xlink:href="lo_8h.html" target="_top" xlink:title="Level objects.">
<polygon fill="white" stroke="black" points="564.5,-224.5 564.5,-243.5 599.5,-243.5 599.5,-224.5 564.5,-224.5"/>
<text text-anchor="middle" x="582" y="-231.5" font-family="Helvetica,sans-Serif" font-size="10.00">lo.h</text>
</a>
</g>
</g>
<!-- Node10&#45;&gt;Node11 -->
<g id="edge14" class="edge">
<title>Node10&#45;&gt;Node11</title>
<path fill="none" stroke="midnightblue" d="M524.09,-280.32C534.49,-272.18 550.26,-259.84 562.72,-250.09"/>
<polygon fill="midnightblue" stroke="midnightblue" points="564.99,-252.75 570.71,-243.83 560.68,-247.24 564.99,-252.75"/>
</g>
<!-- Node11&#45;&gt;Node2 -->
<g id="edge15" class="edge">
<title>Node11&#45;&gt;Node2</title>
<path fill="none" stroke="midnightblue" d="M580.56,-224.25C577.4,-201.6 572.57,-140.79 606,-112 636.42,-85.8 681.46,-74.84 714.81,-70.27"/>
<polygon fill="midnightblue" stroke="midnightblue" points="715.25,-73.74 724.75,-69.04 714.4,-66.79 715.25,-73.74"/>
</g>
<!-- Node11&#45;&gt;Node8 -->
<g id="edge21" class="edge">
<title>Node11&#45;&gt;Node8</title>
<path fill="none" stroke="midnightblue" d="M599.75,-230.33C640.94,-224.01 746.12,-207.25 833,-188 835.18,-187.52 837.43,-186.99 839.69,-186.44"/>
<polygon fill="midnightblue" stroke="midnightblue" points="840.6,-189.82 849.42,-183.95 838.86,-183.03 840.6,-189.82"/>
</g>
<!-- Node11&#45;&gt;Node9 -->
<g id="edge16" class="edge">
<title>Node11&#45;&gt;Node9</title>
<path fill="none" stroke="midnightblue" d="M599.81,-228.12C641.68,-216.75 749.73,-187.92 841,-168 916.53,-151.52 1006.16,-135.86 1052.25,-128.09"/>
<polygon fill="midnightblue" stroke="midnightblue" points="1052.91,-131.53 1062.2,-126.42 1051.75,-124.62 1052.91,-131.53"/>
</g>
<!-- Node12 -->
<g id="node12" class="node">
<title>Node12</title>
<g id="a_node12"><a xlink:href="basic_8h.html" target="_top" xlink:title="Basic object.">
<polygon fill="white" stroke="black" points="588.5,-168.5 588.5,-187.5 639.5,-187.5 639.5,-168.5 588.5,-168.5"/>
<text text-anchor="middle" x="614" y="-175.5" font-family="Helvetica,sans-Serif" font-size="10.00">basic.h</text>
</a>
</g>
</g>
<!-- Node11&#45;&gt;Node12 -->
<g id="edge17" class="edge">
<title>Node11&#45;&gt;Node12</title>
<path fill="none" stroke="midnightblue" d="M587.28,-224.08C591.71,-216.61 598.16,-205.72 603.62,-196.52"/>
<polygon fill="midnightblue" stroke="midnightblue" points="606.73,-198.14 608.81,-187.75 600.71,-194.57 606.73,-198.14"/>
</g>
<!-- Node14 -->
<g id="node14" class="node">
<title>Node14</title>
<g id="a_node14"><a xlink:href="sw_8h.html" target="_top" xlink:title="Scene world?">
<polygon fill="white" stroke="black" points="740,-112.5 740,-131.5 778,-131.5 778,-112.5 740,-112.5"/>
<text text-anchor="middle" x="759" y="-119.5" font-family="Helvetica,sans-Serif" font-size="10.00">sw.h</text>
</a>
</g>
</g>
<!-- Node11&#45;&gt;Node14 -->
<g id="edge22" class="edge">
<title>Node11&#45;&gt;Node14</title>
<path fill="none" stroke="midnightblue" d="M595.89,-224.37C626.39,-205.41 699.46,-160 736.57,-136.94"/>
<polygon fill="midnightblue" stroke="midnightblue" points="738.53,-139.84 745.18,-131.59 734.83,-133.9 738.53,-139.84"/>
</g>
<!-- Node15 -->
<g id="node15" class="node">
<title>Node15</title>
<g id="a_node15"><a xlink:href="frame_8h.html" target="_top" xlink:title=" ">
<polygon fill="white" stroke="black" points="446,-112.5 446,-131.5 532,-131.5 532,-112.5 446,-112.5"/>
<text text-anchor="middle" x="489" y="-119.5" font-family="Helvetica,sans-Serif" font-size="10.00">splice/frame.h</text>
</a>
</g>
</g>
<!-- Node11&#45;&gt;Node15 -->
<g id="edge24" class="edge">
<title>Node11&#45;&gt;Node15</title>
<path fill="none" stroke="midnightblue" d="M574.7,-224.37C559.22,-206.05 522.86,-163.05 502.83,-139.36"/>
<polygon fill="midnightblue" stroke="midnightblue" points="505.39,-136.97 496.26,-131.59 500.05,-141.49 505.39,-136.97"/>
</g>
<!-- Node11&#45;&gt;Node16 -->
<g id="edge26" class="edge">
<title>Node11&#45;&gt;Node16</title>
<path fill="none" stroke="midnightblue" d="M564.48,-229.46C520.01,-220.46 402.31,-196.66 345.94,-185.26"/>
<polygon fill="midnightblue" stroke="midnightblue" points="346.34,-181.77 335.84,-183.21 344.95,-188.63 346.34,-181.77"/>
</g>
<!-- Node12&#45;&gt;Node2 -->
<g id="edge18" class="edge">
<title>Node12&#45;&gt;Node2</title>
<path fill="none" stroke="midnightblue" d="M611.74,-168.36C608.74,-154.81 605.22,-128.41 618,-112 640.72,-82.82 682.46,-72.23 714.65,-68.55"/>
<polygon fill="midnightblue" stroke="midnightblue" points="715.11,-72.02 724.73,-67.58 714.44,-65.05 715.11,-72.02"/>
</g>
<!-- Node13 -->
<g id="node13" class="node">
<title>Node13</title>
<g id="a_node13"><a xlink:href="sidebag_8h.html" target="_top" xlink:title="Sidebag for splice.">
<polygon fill="white" stroke="black" points="626.5,-112.5 626.5,-131.5 721.5,-131.5 721.5,-112.5 626.5,-112.5"/>
<text text-anchor="middle" x="674" y="-119.5" font-family="Helvetica,sans-Serif" font-size="10.00">splice/sidebag.h</text>
</a>
</g>
</g>
<!-- Node12&#45;&gt;Node13 -->
<g id="edge19" class="edge">
<title>Node12&#45;&gt;Node13</title>
<path fill="none" stroke="midnightblue" d="M623.64,-168.32C632.51,-160.34 645.87,-148.31 656.61,-138.65"/>
<polygon fill="midnightblue" stroke="midnightblue" points="659.09,-141.13 664.18,-131.83 654.41,-135.92 659.09,-141.13"/>
</g>
<!-- Node13&#45;&gt;Node2 -->
<g id="edge20" class="edge">
<title>Node13&#45;&gt;Node2</title>
<path fill="none" stroke="midnightblue" d="M687.66,-112.32C700.92,-103.9 721.27,-90.97 736.85,-81.07"/>
<polygon fill="midnightblue" stroke="midnightblue" points="738.81,-83.97 745.38,-75.65 735.06,-78.06 738.81,-83.97"/>
</g>
<!-- Node14&#45;&gt;Node2 -->
<g id="edge23" class="edge">
<title>Node14&#45;&gt;Node2</title>
<path fill="none" stroke="midnightblue" d="M759,-112.08C759,-105.01 759,-94.86 759,-85.99"/>
<polygon fill="midnightblue" stroke="midnightblue" points="762.5,-85.75 759,-75.75 755.5,-85.75 762.5,-85.75"/>
</g>
<!-- Node15&#45;&gt;Node2 -->
<g id="edge25" class="edge">
<title>Node15&#45;&gt;Node2</title>
<path fill="none" stroke="midnightblue" d="M531.78,-112.44C581.86,-102.43 664.38,-85.92 714.98,-75.8"/>
<polygon fill="midnightblue" stroke="midnightblue" points="715.85,-79.2 724.97,-73.81 714.47,-72.34 715.85,-79.2"/>
</g>
<!-- Node16&#45;&gt;Node2 -->
<g id="edge27" class="edge">
<title>Node16&#45;&gt;Node2</title>
<path fill="none" stroke="midnightblue" d="M313.83,-168.31C312.48,-154.2 312.17,-126.41 328,-112 356.2,-86.32 610.16,-73.09 714.53,-68.7"/>
<polygon fill="midnightblue" stroke="midnightblue" points="714.89,-72.18 724.74,-68.27 714.6,-65.19 714.89,-72.18"/>
</g>
<!-- Node17&#45;&gt;Node2 -->
<g id="edge30" class="edge">
<title>Node17&#45;&gt;Node2</title>
<path fill="none" stroke="midnightblue" d="M142.02,-504.44C112.39,-482.17 38,-419.08 38,-347 38,-347 38,-347 38,-177 38,-131.87 74.13,-128.83 116,-112 224.94,-68.2 587.34,-65.97 714.47,-66.59"/>
<polygon fill="midnightblue" stroke="midnightblue" points="714.6,-70.09 724.62,-66.65 714.64,-63.09 714.6,-70.09"/>
</g>
<!-- Node18 -->
<g id="node18" class="node">
<title>Node18</title>
<g id="a_node18"><a xlink:href="binoc_8h.html" target="_top" xlink:title="Binoc&#45;u&#45;com.">
<polygon fill="white" stroke="black" points="180,-448.5 180,-467.5 232,-467.5 232,-448.5 180,-448.5"/>
<text text-anchor="middle" x="206" y="-455.5" font-family="Helvetica,sans-Serif" font-size="10.00">binoc.h</text>
</a>
</g>
</g>
<!-- Node17&#45;&gt;Node18 -->
<g id="edge31" class="edge">
<title>Node17&#45;&gt;Node18</title>
<path fill="none" stroke="midnightblue" d="M162.59,-504.08C170.16,-496.22 181.38,-484.57 190.51,-475.08"/>
<polygon fill="midnightblue" stroke="midnightblue" points="193.16,-477.38 197.57,-467.75 188.12,-472.53 193.16,-477.38"/>
</g>
<!-- Node19 -->
<g id="node19" class="node">
<title>Node19</title>
<g id="a_node19"><a xlink:href="geom_8h.html" target="_top" xlink:title="Geometry.">
<polygon fill="white" stroke="black" points="180.5,-392.5 180.5,-411.5 233.5,-411.5 233.5,-392.5 180.5,-392.5"/>
<text text-anchor="middle" x="207" y="-399.5" font-family="Helvetica,sans-Serif" font-size="10.00">geom.h</text>
</a>
</g>
</g>
<!-- Node17&#45;&gt;Node19 -->
<g id="edge33" class="edge">
<title>Node17&#45;&gt;Node19</title>
<path fill="none" stroke="midnightblue" d="M155.11,-504.18C157,-491.28 161.58,-466.76 171,-448 176.26,-437.51 184.26,-427.19 191.38,-419.09"/>
<polygon fill="midnightblue" stroke="midnightblue" points="194.14,-421.25 198.33,-411.52 188.99,-416.52 194.14,-421.25"/>
</g>
<!-- Node20 -->
<g id="node20" class="node">
<title>Node20</title>
<g id="a_node20"><a xlink:href="surf_8h.html" target="_top" xlink:title="Surface?">
<polygon fill="white" stroke="black" points="250,-448.5 250,-467.5 294,-467.5 294,-448.5 250,-448.5"/>
<text text-anchor="middle" x="272" y="-455.5" font-family="Helvetica,sans-Serif" font-size="10.00">surf.h</text>
</a>
</g>
</g>
<!-- Node17&#45;&gt;Node20 -->
<g id="edge35" class="edge">
<title>Node17&#45;&gt;Node20</title>
<path fill="none" stroke="midnightblue" d="M172.7,-504.44C191.94,-495.64 222.15,-481.81 244.2,-471.72"/>
<polygon fill="midnightblue" stroke="midnightblue" points="245.75,-474.86 253.39,-467.52 242.84,-468.5 245.75,-474.86"/>
</g>
<!-- Node21 -->
<g id="node21" class="node">
<title>Node21</title>
<g id="a_node21"><a xlink:href="vec_8h.html" target="_top" xlink:title="Vector math functions.">
<polygon fill="white" stroke="black" points="426.5,-392.5 426.5,-411.5 469.5,-411.5 469.5,-392.5 426.5,-392.5"/>
<text text-anchor="middle" x="448" y="-399.5" font-family="Helvetica,sans-Serif" font-size="10.00">vec.h</text>
</a>
</g>
</g>
<!-- Node17&#45;&gt;Node21 -->
<g id="edge46" class="edge">
<title>Node17&#45;&gt;Node21</title>
<path fill="none" stroke="midnightblue" d="M175.51,-507.44C204.73,-499.67 258.45,-484.64 303,-468 345.31,-452.2 392.8,-430.03 421.54,-416.1"/>
<polygon fill="midnightblue" stroke="midnightblue" points="423.44,-419.07 430.89,-411.53 420.37,-412.77 423.44,-419.07"/>
</g>
<!-- Node24 -->
<g id="node24" class="node">
<title>Node24</title>
<g id="a_node24"><a xlink:href="sce_2gs_8h.html" target="_top" xlink:title="Graphics Synthesizer.">
<polygon fill="white" stroke="black" points="68,-280.5 68,-299.5 124,-299.5 124,-280.5 68,-280.5"/>
<text text-anchor="middle" x="96" y="-287.5" font-family="Helvetica,sans-Serif" font-size="10.00">sce/gs.h</text>
</a>
</g>
</g>
<!-- Node17&#45;&gt;Node24 -->
<g id="edge44" class="edge">
<title>Node17&#45;&gt;Node24</title>
<path fill="none" stroke="midnightblue" d="M151.73,-504.3C143.17,-471.56 112.82,-355.38 100.88,-309.67"/>
<polygon fill="midnightblue" stroke="midnightblue" points="104.24,-308.67 98.32,-299.88 97.46,-310.44 104.24,-308.67"/>
</g>
<!-- Node18&#45;&gt;Node2 -->
<g id="edge32" class="edge">
<title>Node18&#45;&gt;Node2</title>
<path fill="none" stroke="midnightblue" d="M197.96,-448.32C190.34,-439.69 179.04,-425.77 172,-412 158.24,-385.09 152,-377.23 152,-347 152,-347 152,-347 152,-177 152,-143.08 163.07,-129.71 192,-112 236.19,-84.96 588.93,-72.01 714.67,-68.22"/>
<polygon fill="midnightblue" stroke="midnightblue" points="714.84,-71.72 724.73,-67.93 714.63,-64.72 714.84,-71.72"/>
</g>
<!-- Node19&#45;&gt;Node2 -->
<g id="edge34" class="edge">
<title>Node19&#45;&gt;Node2</title>
<path fill="none" stroke="midnightblue" d="M204.71,-392.23C200.07,-373.69 190,-329.07 190,-291 190,-291 190,-291 190,-177 190,-146.2 189.48,-130.63 214,-112 253.48,-82 591.47,-71 714.47,-67.96"/>
<polygon fill="midnightblue" stroke="midnightblue" points="714.75,-71.46 724.67,-67.72 714.59,-64.46 714.75,-71.46"/>
</g>
<!-- Node20&#45;&gt;Node2 -->
<g id="edge36" class="edge">
<title>Node20&#45;&gt;Node2</title>
<path fill="none" stroke="midnightblue" d="M268.98,-448.24C259.03,-418.64 228,-319.48 228,-235 228,-235 228,-235 228,-177 228,-140.28 246.77,-129.59 279,-112 353.41,-71.4 610.54,-66.88 714.69,-66.76"/>
<polygon fill="midnightblue" stroke="midnightblue" points="714.86,-70.26 724.86,-66.76 714.86,-63.26 714.86,-70.26"/>
</g>
<!-- Node20&#45;&gt;Node19 -->
<g id="edge43" class="edge">
<title>Node20&#45;&gt;Node19</title>
<path fill="none" stroke="midnightblue" d="M261.56,-448.32C251.85,-440.26 237.18,-428.08 225.5,-418.37"/>
<polygon fill="midnightblue" stroke="midnightblue" points="227.56,-415.53 217.63,-411.83 223.09,-420.92 227.56,-415.53"/>
</g>
<!-- Node20&#45;&gt;Node21 -->
<g id="edge37" class="edge">
<title>Node20&#45;&gt;Node21</title>
<path fill="none" stroke="midnightblue" d="M294.29,-450.16C325.27,-440.66 381.5,-423.4 416.68,-412.61"/>
<polygon fill="midnightblue" stroke="midnightblue" points="417.91,-415.89 426.44,-409.61 415.85,-409.2 417.91,-415.89"/>
</g>
<!-- Node22 -->
<g id="node22" class="node">
<title>Node22</title>
<g id="a_node22"><a xlink:href="so_8h.html" target="_top" xlink:title="Scene objects.">
<polygon fill="white" stroke="black" points="771.5,-336.5 771.5,-355.5 808.5,-355.5 808.5,-336.5 771.5,-336.5"/>
<text text-anchor="middle" x="790" y="-343.5" font-family="Helvetica,sans-Serif" font-size="10.00">so.h</text>
</a>
</g>
</g>
<!-- Node21&#45;&gt;Node22 -->
<g id="edge38" class="edge">
<title>Node21&#45;&gt;Node22</title>
<path fill="none" stroke="midnightblue" d="M469.51,-398.78C520.03,-393.37 650.06,-378.28 757,-356 758.45,-355.7 759.94,-355.37 761.43,-355.02"/>
<polygon fill="midnightblue" stroke="midnightblue" points="762.41,-358.38 771.25,-352.54 760.7,-351.6 762.41,-358.38"/>
</g>
<!-- Node23 -->
<g id="node23" class="node">
<title>Node23</title>
<g id="a_node23"><a xlink:href="alo_8h.html" target="_top" xlink:title=" ">
<polygon fill="white" stroke="black" points="805.5,-280.5 805.5,-299.5 846.5,-299.5 846.5,-280.5 805.5,-280.5"/>
<text text-anchor="middle" x="826" y="-287.5" font-family="Helvetica,sans-Serif" font-size="10.00">alo.h</text>
</a>
</g>
</g>
<!-- Node22&#45;&gt;Node23 -->
<g id="edge39" class="edge">
<title>Node22&#45;&gt;Node23</title>
<path fill="none" stroke="midnightblue" d="M795.94,-336.08C800.98,-328.53 808.34,-317.49 814.51,-308.23"/>
<polygon fill="midnightblue" stroke="midnightblue" points="817.53,-310.01 820.17,-299.75 811.71,-306.13 817.53,-310.01"/>
</g>
<!-- Node23&#45;&gt;Node2 -->
<g id="edge40" class="edge">
<title>Node23&#45;&gt;Node2</title>
<path fill="none" stroke="midnightblue" d="M832.73,-280.44C848.65,-260.01 887.74,-208.52 894,-188 896.6,-179.5 895.38,-176.78 894,-168 889.95,-142.17 893.96,-131 876,-112 856.82,-91.71 827.47,-80.45 802.96,-74.27"/>
<polygon fill="midnightblue" stroke="midnightblue" points="803.68,-70.85 793.15,-72 802.1,-77.66 803.68,-70.85"/>
</g>
<!-- Node23&#45;&gt;Node8 -->
<g id="edge42" class="edge">
<title>Node23&#45;&gt;Node8</title>
<path fill="none" stroke="midnightblue" d="M826.95,-280.32C828.55,-267.61 832.36,-243.32 840,-224 843.85,-214.26 849.69,-204.18 854.95,-196.05"/>
<polygon fill="midnightblue" stroke="midnightblue" points="858.02,-197.76 860.72,-187.52 852.22,-193.85 858.02,-197.76"/>
</g>
<!-- Node23&#45;&gt;Node11 -->
<g id="edge41" class="edge">
<title>Node23&#45;&gt;Node11</title>
<path fill="none" stroke="midnightblue" d="M805.2,-284.4C761.28,-274.68 659.11,-252.07 609.72,-241.13"/>
<polygon fill="midnightblue" stroke="midnightblue" points="610.26,-237.67 599.74,-238.93 608.75,-244.5 610.26,-237.67"/>
</g>
<!-- Node24&#45;&gt;Node2 -->
<g id="edge45" class="edge">
<title>Node24&#45;&gt;Node2</title>
<path fill="none" stroke="midnightblue" d="M94.91,-280.22C91.81,-250.94 86.29,-156.01 138,-112 181.68,-74.83 579.82,-68.36 714.62,-67.24"/>
<polygon fill="midnightblue" stroke="midnightblue" points="715.01,-70.73 724.98,-67.16 714.95,-63.73 715.01,-70.73"/>
</g>
<!-- Node25&#45;&gt;Node2 -->
<g id="edge48" class="edge">
<title>Node25&#45;&gt;Node2</title>
<path fill="none" stroke="midnightblue" d="M507.83,-568.75C644.03,-566.87 1402,-552.2 1402,-459 1402,-459 1402,-459 1402,-177 1402,-130.49 1363.27,-129.04 1320,-112 1226.22,-75.07 919.24,-68.44 803.6,-67.25"/>
<polygon fill="midnightblue" stroke="midnightblue" points="803.38,-63.75 793.35,-67.16 803.31,-70.75 803.38,-63.75"/>
</g>
<!-- Node25&#45;&gt;Node11 -->
<g id="edge49" class="edge">
<title>Node25&#45;&gt;Node11</title>
<path fill="none" stroke="midnightblue" d="M489.74,-560.39C492.61,-551.35 497.21,-536.7 501,-524 531.42,-422.06 564.84,-298.9 577.12,-253.21"/>
<polygon fill="midnightblue" stroke="midnightblue" points="580.51,-254.11 579.72,-243.54 573.75,-252.29 580.51,-254.11"/>
</g>
<!-- Node25&#45;&gt;Node18 -->
<g id="edge54" class="edge">
<title>Node25&#45;&gt;Node18</title>
<path fill="none" stroke="midnightblue" d="M466.34,-560.91C417.57,-541.82 295.09,-493.88 237.22,-471.22"/>
<polygon fill="midnightblue" stroke="midnightblue" points="238.44,-467.94 227.85,-467.55 235.88,-474.46 238.44,-467.94"/>
</g>
<!-- Node26 -->
<g id="node26" class="node">
<title>Node26</title>
<g id="a_node26"><a xlink:href="util_8h.html" target="_top" xlink:title="Utility functions.">
<polygon fill="white" stroke="black" points="466.5,-448.5 466.5,-467.5 507.5,-467.5 507.5,-448.5 466.5,-448.5"/>
<text text-anchor="middle" x="487" y="-455.5" font-family="Helvetica,sans-Serif" font-size="10.00">util.h</text>
</a>
</g>
</g>
<!-- Node25&#45;&gt;Node26 -->
<g id="edge50" class="edge">
<title>Node25&#45;&gt;Node26</title>
<path fill="none" stroke="midnightblue" d="M487,-560.37C487,-542.62 487,-501.67 487,-477.6"/>
<polygon fill="midnightblue" stroke="midnightblue" points="490.5,-477.59 487,-467.59 483.5,-477.59 490.5,-477.59"/>
</g>
<!-- Node27 -->
<g id="node27" class="node">
<title>Node27</title>
<g id="a_node27"><a xlink:href="xform_8h.html" target="_top" xlink:title="Transform.">
<polygon fill="white" stroke="black" points="971.5,-504.5 971.5,-523.5 1026.5,-523.5 1026.5,-504.5 971.5,-504.5"/>
<text text-anchor="middle" x="999" y="-511.5" font-family="Helvetica,sans-Serif" font-size="10.00">xform.h</text>
</a>
</g>
</g>
<!-- Node25&#45;&gt;Node27 -->
<g id="edge55" class="edge">
<title>Node25&#45;&gt;Node27</title>
<path fill="none" stroke="midnightblue" d="M507.71,-566.82C585.4,-558.62 860.3,-529.63 961.36,-518.97"/>
<polygon fill="midnightblue" stroke="midnightblue" points="961.84,-522.44 971.42,-517.91 961.11,-515.48 961.84,-522.44"/>
</g>
<!-- Node38 -->
<g id="node38" class="node">
<title>Node38</title>
<g id="a_node38"><a xlink:href="sound_8h.html" target="_top" xlink:title="Sound playback.">
<polygon fill="white" stroke="black" points="387.5,-504.5 387.5,-523.5 442.5,-523.5 442.5,-504.5 387.5,-504.5"/>
<text text-anchor="middle" x="415" y="-511.5" font-family="Helvetica,sans-Serif" font-size="10.00">sound.h</text>
</a>
</g>
</g>
<!-- Node25&#45;&gt;Node38 -->
<g id="edge90" class="edge">
<title>Node25&#45;&gt;Node38</title>
<path fill="none" stroke="midnightblue" d="M475.43,-560.32C464.58,-552.18 448.12,-539.84 435.12,-530.09"/>
<polygon fill="midnightblue" stroke="midnightblue" points="436.88,-527.03 426.78,-523.83 432.68,-532.63 436.88,-527.03"/>
</g>
<!-- Node26&#45;&gt;Node2 -->
<g id="edge51" class="edge">
<title>Node26&#45;&gt;Node2</title>
<path fill="none" stroke="midnightblue" d="M486.34,-448.1C485.31,-435.51 483.02,-411.84 479,-392 453.8,-267.53 337.5,-206.81 422,-112 459.9,-69.48 632.19,-65.49 714.7,-66.11"/>
<polygon fill="midnightblue" stroke="midnightblue" points="714.74,-69.61 724.77,-66.21 714.81,-62.61 714.74,-69.61"/>
</g>
<!-- Node26&#45;&gt;Node6 -->
<g id="edge52" class="edge">
<title>Node26&#45;&gt;Node6</title>
<path fill="none" stroke="midnightblue" d="M503.07,-448.32C518.96,-439.74 543.51,-426.49 561.96,-416.52"/>
<polygon fill="midnightblue" stroke="midnightblue" points="563.84,-419.49 570.97,-411.65 560.51,-413.33 563.84,-419.49"/>
</g>
<!-- Node26&#45;&gt;Node21 -->
<g id="edge53" class="edge">
<title>Node26&#45;&gt;Node21</title>
<path fill="none" stroke="midnightblue" d="M480.56,-448.08C475.05,-440.46 466.97,-429.26 460.24,-419.94"/>
<polygon fill="midnightblue" stroke="midnightblue" points="463.01,-417.81 454.32,-411.75 457.34,-421.91 463.01,-417.81"/>
</g>
<!-- Node27&#45;&gt;Node2 -->
<g id="edge56" class="edge">
<title>Node27&#45;&gt;Node2</title>
<path fill="none" stroke="midnightblue" d="M1026.73,-510.67C1111.91,-502.76 1364,-473.4 1364,-403 1364,-403 1364,-403 1364,-177 1364,-129.44 1323.35,-129.18 1279,-112 1192.64,-78.55 912.67,-69.83 803.33,-67.67"/>
<polygon fill="midnightblue" stroke="midnightblue" points="803.35,-64.17 793.29,-67.48 803.22,-71.17 803.35,-64.17"/>
</g>
<!-- Node27&#45;&gt;Node8 -->
<g id="edge59" class="edge">
<title>Node27&#45;&gt;Node8</title>
<path fill="none" stroke="midnightblue" d="M1003.97,-504.27C1018.23,-478.06 1056.77,-398.05 1034,-336 1008.62,-266.83 932.59,-215.59 892.46,-192.52"/>
<polygon fill="midnightblue" stroke="midnightblue" points="893.98,-189.36 883.54,-187.53 890.55,-195.47 893.98,-189.36"/>
</g>
<!-- Node27&#45;&gt;Node9 -->
<g id="edge66" class="edge">
<title>Node27&#45;&gt;Node9</title>
<path fill="none" stroke="midnightblue" d="M1008.74,-504.29C1017.61,-495.84 1030.44,-482.25 1038,-468 1050.08,-445.24 1048.32,-437.34 1053,-412 1071.66,-310.94 1079.62,-187.69 1082.09,-141.58"/>
<polygon fill="midnightblue" stroke="midnightblue" points="1085.59,-141.75 1082.61,-131.58 1078.6,-141.39 1085.59,-141.75"/>
</g>
<!-- Node27&#45;&gt;Node10 -->
<g id="edge67" class="edge">
<title>Node27&#45;&gt;Node10</title>
<path fill="none" stroke="midnightblue" d="M971.36,-512.05C901.74,-509.22 721.18,-499.01 671,-468 636.18,-446.48 645.52,-423.18 619,-392 590.94,-359.01 553.28,-325.19 531.22,-306.26"/>
<polygon fill="midnightblue" stroke="midnightblue" points="533.21,-303.36 523.32,-299.55 528.68,-308.69 533.21,-303.36"/>
</g>
<!-- Node27&#45;&gt;Node20 -->
<g id="edge60" class="edge">
<title>Node27&#45;&gt;Node20</title>
<path fill="none" stroke="midnightblue" d="M971.39,-510.95C857.72,-502.51 426.18,-470.45 304.26,-461.4"/>
<polygon fill="midnightblue" stroke="midnightblue" points="304.31,-457.89 294.08,-460.64 303.8,-464.87 304.31,-457.89"/>
</g>
<!-- Node27&#45;&gt;Node23 -->
<g id="edge57" class="edge">
<title>Node27&#45;&gt;Node23</title>
<path fill="none" stroke="midnightblue" d="M992.22,-504.3C966.39,-471.15 873.86,-352.41 839.22,-307.96"/>
<polygon fill="midnightblue" stroke="midnightblue" points="841.83,-305.62 832.92,-299.88 836.31,-309.92 841.83,-305.62"/>
</g>
<!-- Node27&#45;&gt;Node26 -->
<g id="edge58" class="edge">
<title>Node27&#45;&gt;Node26</title>
<path fill="none" stroke="midnightblue" d="M971.47,-510.1C883.56,-500.82 609.93,-471.97 517.7,-462.24"/>
<polygon fill="midnightblue" stroke="midnightblue" points="517.94,-458.74 507.63,-461.18 517.2,-465.7 517.94,-458.74"/>
</g>
<!-- Node28 -->
<g id="node28" class="node">
<title>Node28</title>
<g id="a_node28"><a xlink:href="game_8h.html" target="_top" xlink:title="Game state and level management.">
<polygon fill="white" stroke="black" points="1101.5,-168.5 1101.5,-187.5 1154.5,-187.5 1154.5,-168.5 1101.5,-168.5"/>
<text text-anchor="middle" x="1128" y="-175.5" font-family="Helvetica,sans-Serif" font-size="10.00">game.h</text>
</a>
</g>
</g>
<!-- Node27&#45;&gt;Node28 -->
<g id="edge61" class="edge">
<title>Node27&#45;&gt;Node28</title>
<path fill="none" stroke="midnightblue" d="M1026.89,-507.64C1050.59,-501.74 1084.03,-489.99 1105,-468 1126.25,-445.71 1129,-433.8 1129,-403 1129,-403 1129,-403 1129,-289 1129,-256.95 1128.57,-219.64 1128.27,-197.75"/>
<polygon fill="midnightblue" stroke="midnightblue" points="1131.77,-197.51 1128.13,-187.56 1124.77,-197.61 1131.77,-197.51"/>
</g>
<!-- Node30 -->
<g id="node30" class="node">
<title>Node30</title>
<g id="a_node30"><a xlink:href="wipe_8h.html" target="_top" xlink:title=" ">
<polygon fill="white" stroke="black" points="1237.5,-224.5 1237.5,-243.5 1286.5,-243.5 1286.5,-224.5 1237.5,-224.5"/>
<text text-anchor="middle" x="1262" y="-231.5" font-family="Helvetica,sans-Serif" font-size="10.00">wipe.h</text>
</a>
</g>
</g>
<!-- Node27&#45;&gt;Node30 -->
<g id="edge68" class="edge">
<title>Node27&#45;&gt;Node30</title>
<path fill="none" stroke="midnightblue" d="M1026.65,-512.78C1089.95,-510.68 1240,-495.9 1240,-403 1240,-403 1240,-403 1240,-345 1240,-312.33 1249.45,-275.24 1255.96,-253.55"/>
<polygon fill="midnightblue" stroke="midnightblue" points="1259.39,-254.31 1259.03,-243.72 1252.71,-252.22 1259.39,-254.31"/>
</g>
<!-- Node32 -->
<g id="node32" class="node">
<title>Node32</title>
<g id="a_node32"><a xlink:href="bis_8h.html" target="_top" xlink:title="Binary Input Stream.">
<polygon fill="white" stroke="black" points="680,-448.5 680,-467.5 720,-467.5 720,-448.5 680,-448.5"/>
<text text-anchor="middle" x="700" y="-455.5" font-family="Helvetica,sans-Serif" font-size="10.00">bis.h</text>
</a>
</g>
</g>
<!-- Node27&#45;&gt;Node32 -->
<g id="edge73" class="edge">
<title>Node27&#45;&gt;Node32</title>
<path fill="none" stroke="midnightblue" d="M971.41,-508.02C915.33,-497.89 788.47,-474.98 730.24,-464.46"/>
<polygon fill="midnightblue" stroke="midnightblue" points="730.66,-460.98 720.2,-462.65 729.42,-467.87 730.66,-460.98"/>
</g>
<!-- Node36 -->
<g id="node36" class="node">
<title>Node36</title>
<g id="a_node36"><a xlink:href="proxy_8h.html" target="_top" xlink:title=" ">
<polygon fill="white" stroke="black" points="973,-336.5 973,-355.5 1025,-355.5 1025,-336.5 973,-336.5"/>
<text text-anchor="middle" x="999" y="-343.5" font-family="Helvetica,sans-Serif" font-size="10.00">proxy.h</text>
</a>
</g>
</g>
<!-- Node27&#45;&gt;Node36 -->
<g id="edge84" class="edge">
<title>Node27&#45;&gt;Node36</title>
<path fill="none" stroke="midnightblue" d="M999,-504.08C999,-477.95 999,-401.21 999,-365.58"/>
<polygon fill="midnightblue" stroke="midnightblue" points="1002.5,-365.57 999,-355.57 995.5,-365.57 1002.5,-365.57"/>
</g>
<!-- Node37 -->
<g id="node37" class="node">
<title>Node37</title>
<g id="a_node37"><a xlink:href="rs_8h.html" target="_top" xlink:title=" ">
<polygon fill="white" stroke="black" points="1172.5,-168.5 1172.5,-187.5 1207.5,-187.5 1207.5,-168.5 1172.5,-168.5"/>
<text text-anchor="middle" x="1190" y="-175.5" font-family="Helvetica,sans-Serif" font-size="10.00">rs.h</text>
</a>
</g>
</g>
<!-- Node27&#45;&gt;Node37 -->
<g id="edge87" class="edge">
<title>Node27&#45;&gt;Node37</title>
<path fill="none" stroke="midnightblue" d="M1026.88,-509.12C1077.66,-500.31 1180,-473.79 1180,-403 1180,-403 1180,-403 1180,-289 1180,-256.82 1184.3,-219.55 1187.26,-197.7"/>
<polygon fill="midnightblue" stroke="midnightblue" points="1190.76,-197.92 1188.69,-187.53 1183.83,-196.95 1190.76,-197.92"/>
</g>
<!-- Node28&#45;&gt;Node2 -->
<g id="edge62" class="edge">
<title>Node28&#45;&gt;Node2</title>
<path fill="none" stroke="midnightblue" d="M1128.83,-168.32C1129.66,-154.21 1128.98,-126.45 1113,-112 1068.39,-71.66 887.83,-66.63 803.19,-66.55"/>
<polygon fill="midnightblue" stroke="midnightblue" points="803.11,-63.05 793.12,-66.56 803.12,-70.05 803.11,-63.05"/>
</g>
<!-- Node28&#45;&gt;Node9 -->
<g id="edge63" class="edge">
<title>Node28&#45;&gt;Node9</title>
<path fill="none" stroke="midnightblue" d="M1120.57,-168.08C1114.15,-160.38 1104.69,-149.03 1096.88,-139.65"/>
<polygon fill="midnightblue" stroke="midnightblue" points="1099.38,-137.19 1090.29,-131.75 1094.01,-141.67 1099.38,-137.19"/>
</g>
<!-- Node29 -->
<g id="node29" class="node">
<title>Node29</title>
<g id="a_node29"><a xlink:href="cid_8h.html" target="_top" xlink:title="Class ID.">
<polygon fill="white" stroke="black" points="1160,-112.5 1160,-131.5 1200,-131.5 1200,-112.5 1160,-112.5"/>
<text text-anchor="middle" x="1180" y="-119.5" font-family="Helvetica,sans-Serif" font-size="10.00">cid.h</text>
</a>
</g>
</g>
<!-- Node28&#45;&gt;Node29 -->
<g id="edge64" class="edge">
<title>Node28&#45;&gt;Node29</title>
<path fill="none" stroke="midnightblue" d="M1136.59,-168.08C1144.16,-160.22 1155.38,-148.57 1164.51,-139.08"/>
<polygon fill="midnightblue" stroke="midnightblue" points="1167.16,-141.38 1171.57,-131.75 1162.12,-136.53 1167.16,-141.38"/>
</g>
<!-- Node29&#45;&gt;Node2 -->
<g id="edge65" class="edge">
<title>Node29&#45;&gt;Node2</title>
<path fill="none" stroke="midnightblue" d="M1159.97,-115.19C1155.41,-114.01 1150.56,-112.86 1146,-112 1022.96,-88.69 875.47,-75.56 803.25,-70.08"/>
<polygon fill="midnightblue" stroke="midnightblue" points="803.39,-66.58 793.15,-69.32 802.87,-73.56 803.39,-66.58"/>
</g>
<!-- Node30&#45;&gt;Node2 -->
<g id="edge69" class="edge">
<title>Node30&#45;&gt;Node2</title>
<path fill="none" stroke="midnightblue" d="M1275.23,-224.43C1291.69,-212.59 1316.53,-190.2 1307,-168 1292.73,-134.78 1280.93,-126.92 1248,-112 1169.27,-76.32 908.43,-68.93 803.4,-67.4"/>
<polygon fill="midnightblue" stroke="midnightblue" points="803.19,-63.9 793.14,-67.26 803.09,-70.9 803.19,-63.9"/>
</g>
<!-- Node31 -->
<g id="node31" class="node">
<title>Node31</title>
<g id="a_node31"><a xlink:href="transition_8h.html" target="_top" xlink:title="Level transitions.">
<polygon fill="white" stroke="black" points="1226,-168.5 1226,-187.5 1298,-187.5 1298,-168.5 1226,-168.5"/>
<text text-anchor="middle" x="1262" y="-175.5" font-family="Helvetica,sans-Serif" font-size="10.00">transition.h</text>
</a>
</g>
</g>
<!-- Node30&#45;&gt;Node31 -->
<g id="edge70" class="edge">
<title>Node30&#45;&gt;Node31</title>
<path fill="none" stroke="midnightblue" d="M1262,-224.08C1262,-217.01 1262,-206.86 1262,-197.99"/>
<polygon fill="midnightblue" stroke="midnightblue" points="1265.5,-197.75 1262,-187.75 1258.5,-197.75 1265.5,-197.75"/>
</g>
<!-- Node31&#45;&gt;Node2 -->
<g id="edge71" class="edge">
<title>Node31&#45;&gt;Node2</title>
<path fill="none" stroke="midnightblue" d="M1259.89,-168.49C1255.84,-154.11 1245.49,-125.27 1225,-112 1156.08,-67.36 905.64,-65.15 803.17,-66.21"/>
<polygon fill="midnightblue" stroke="midnightblue" points="803.1,-62.71 793.15,-66.32 803.19,-69.71 803.1,-62.71"/>
</g>
<!-- Node31&#45;&gt;Node9 -->
<g id="edge72" class="edge">
<title>Node31&#45;&gt;Node9</title>
<path fill="none" stroke="midnightblue" d="M1233.64,-168.44C1200.85,-158.55 1147.09,-142.34 1113.45,-132.19"/>
<polygon fill="midnightblue" stroke="midnightblue" points="1114.28,-128.78 1103.7,-129.24 1112.26,-135.48 1114.28,-128.78"/>
</g>
<!-- Node32&#45;&gt;Node2 -->
<g id="edge74" class="edge">
<title>Node32&#45;&gt;Node2</title>
<path fill="none" stroke="midnightblue" d="M703.83,-448.19C719.82,-410.85 781.31,-261.68 801,-132 802.33,-123.21 804.26,-120.27 801,-112 796.49,-100.55 787.53,-90.29 779.05,-82.47"/>
<polygon fill="midnightblue" stroke="midnightblue" points="781.09,-79.61 771.21,-75.76 776.53,-84.93 781.09,-79.61"/>
</g>
<!-- Node32&#45;&gt;Node6 -->
<g id="edge80" class="edge">
<title>Node32&#45;&gt;Node6</title>
<path fill="none" stroke="midnightblue" d="M682.09,-448.44C663.75,-439.68 634.99,-425.94 613.91,-415.86"/>
<polygon fill="midnightblue" stroke="midnightblue" points="615.35,-412.67 604.82,-411.52 612.33,-418.99 615.35,-412.67"/>
</g>
<!-- Node32&#45;&gt;Node19 -->
<g id="edge81" class="edge">
<title>Node32&#45;&gt;Node19</title>
<path fill="none" stroke="midnightblue" d="M679.75,-454.78C604.67,-446.56 341.43,-417.72 243.8,-407.03"/>
<polygon fill="midnightblue" stroke="midnightblue" points="244.13,-403.55 233.81,-405.94 243.37,-410.5 244.13,-403.55"/>
</g>
<!-- Node32&#45;&gt;Node21 -->
<g id="edge79" class="edge">
<title>Node32&#45;&gt;Node21</title>
<path fill="none" stroke="midnightblue" d="M679.8,-452.67C636.01,-443.29 532.02,-421 479.5,-409.75"/>
<polygon fill="midnightblue" stroke="midnightblue" points="480.23,-406.33 469.72,-407.65 478.76,-413.17 480.23,-406.33"/>
</g>
<!-- Node33 -->
<g id="node33" class="node">
<title>Node33</title>
<g id="a_node33"><a xlink:href="prog_8h.html" target="_top" xlink:title=" ">
<polygon fill="white" stroke="black" points="882.5,-224.5 882.5,-243.5 929.5,-243.5 929.5,-224.5 882.5,-224.5"/>
<text text-anchor="middle" x="906" y="-231.5" font-family="Helvetica,sans-Serif" font-size="10.00">prog.h</text>
</a>
</g>
</g>
<!-- Node32&#45;&gt;Node33 -->
<g id="edge75" class="edge">
<title>Node32&#45;&gt;Node33</title>
<path fill="none" stroke="midnightblue" d="M711.85,-448.35C734.06,-431.83 782.87,-394.03 818,-356 849.43,-321.98 879.78,-276.64 895.29,-252.26"/>
<polygon fill="midnightblue" stroke="midnightblue" points="898.29,-254.06 900.66,-243.74 892.37,-250.34 898.29,-254.06"/>
</g>
<!-- Node34 -->
<g id="node34" class="node">
<title>Node34</title>
<g id="a_node34"><a xlink:href="clock_8h.html" target="_top" xlink:title="Engine clock.">
<polygon fill="white" stroke="black" points="903.5,-336.5 903.5,-355.5 954.5,-355.5 954.5,-336.5 903.5,-336.5"/>
<text text-anchor="middle" x="929" y="-343.5" font-family="Helvetica,sans-Serif" font-size="10.00">clock.h</text>
</a>
</g>
</g>
<!-- Node32&#45;&gt;Node34 -->
<g id="edge77" class="edge">
<title>Node32&#45;&gt;Node34</title>
<path fill="none" stroke="midnightblue" d="M720.27,-457.07C757.29,-456.23 836.81,-449.77 889,-412 905.07,-400.37 916.02,-380.12 922.35,-365.31"/>
<polygon fill="midnightblue" stroke="midnightblue" points="925.73,-366.27 926.14,-355.68 919.22,-363.7 925.73,-366.27"/>
</g>
<!-- Node35 -->
<g id="node35" class="node">
<title>Node35</title>
<g id="a_node35"><a xlink:href="cat_8h.html" target="_top" xlink:title="Catalog.">
<polygon fill="white" stroke="black" points="658.5,-280.5 658.5,-299.5 699.5,-299.5 699.5,-280.5 658.5,-280.5"/>
<text text-anchor="middle" x="679" y="-287.5" font-family="Helvetica,sans-Serif" font-size="10.00">cat.h</text>
</a>
</g>
</g>
<!-- Node32&#45;&gt;Node35 -->
<g id="edge82" class="edge">
<title>Node32&#45;&gt;Node35</title>
<path fill="none" stroke="midnightblue" d="M698.87,-448.08C695.57,-421.95 685.86,-345.21 681.35,-309.58"/>
<polygon fill="midnightblue" stroke="midnightblue" points="684.81,-309.05 680.08,-299.57 677.87,-309.93 684.81,-309.05"/>
</g>
<!-- Node33&#45;&gt;Node2 -->
<g id="edge76" class="edge">
<title>Node33&#45;&gt;Node2</title>
<path fill="none" stroke="midnightblue" d="M912.33,-224.35C927.17,-202.96 960.95,-146.76 934,-112 918.09,-91.49 849.63,-78.69 803.2,-72.21"/>
<polygon fill="midnightblue" stroke="midnightblue" points="803.45,-68.71 793.07,-70.84 802.52,-75.65 803.45,-68.71"/>
</g>
<!-- Node34&#45;&gt;Node2 -->
<g id="edge78" class="edge">
<title>Node34&#45;&gt;Node2</title>
<path fill="none" stroke="midnightblue" d="M933.77,-336.17C951.16,-302.67 1007.34,-181.73 952,-112 933.79,-89.06 854.42,-76.73 803.31,-71.04"/>
<polygon fill="midnightblue" stroke="midnightblue" points="803.49,-67.54 793.18,-69.96 802.75,-74.5 803.49,-67.54"/>
</g>
<!-- Node35&#45;&gt;Node2 -->
<g id="edge83" class="edge">
<title>Node35&#45;&gt;Node2</title>
<path fill="none" stroke="midnightblue" d="M685.26,-280.22C707.89,-248.41 784.32,-140.61 787,-132 792.27,-115.03 782.65,-96.49 773.28,-83.57"/>
<polygon fill="midnightblue" stroke="midnightblue" points="775.96,-81.3 767.02,-75.61 770.45,-85.63 775.96,-81.3"/>
</g>
<!-- Node36&#45;&gt;Node2 -->
<g id="edge85" class="edge">
<title>Node36&#45;&gt;Node2</title>
<path fill="none" stroke="midnightblue" d="M1003.72,-336.46C1013.27,-318.34 1034,-274.48 1034,-235 1034,-235 1034,-235 1034,-177 1034,-136.77 1006.21,-131.47 971,-112 918,-82.69 847.84,-72.45 803.05,-68.88"/>
<polygon fill="midnightblue" stroke="midnightblue" points="803.29,-65.39 793.06,-68.17 802.78,-72.37 803.29,-65.39"/>
</g>
<!-- Node36&#45;&gt;Node23 -->
<g id="edge86" class="edge">
<title>Node36&#45;&gt;Node23</title>
<path fill="none" stroke="midnightblue" d="M972.73,-336.8C941.37,-327.01 889.06,-310.68 856.11,-300.4"/>
<polygon fill="midnightblue" stroke="midnightblue" points="857.14,-297.05 846.55,-297.41 855.05,-303.73 857.14,-297.05"/>
</g>
<!-- Node37&#45;&gt;Node2 -->
<g id="edge88" class="edge">
<title>Node37&#45;&gt;Node2</title>
<path fill="none" stroke="midnightblue" d="M1197.11,-168.27C1207.35,-154.6 1223.52,-128.04 1209,-112 1182.1,-82.28 911.8,-71.34 803.51,-68.13"/>
<polygon fill="midnightblue" stroke="midnightblue" points="803.35,-64.63 793.25,-67.84 803.14,-71.62 803.35,-64.63"/>
</g>
<!-- Node37&#45;&gt;Node9 -->
<g id="edge89" class="edge">
<title>Node37&#45;&gt;Node9</title>
<path fill="none" stroke="midnightblue" d="M1172.81,-168.32C1155.65,-159.66 1129.05,-146.24 1109.25,-136.25"/>
<polygon fill="midnightblue" stroke="midnightblue" points="1110.65,-133.04 1100.15,-131.65 1107.5,-139.28 1110.65,-133.04"/>
</g>
<!-- Node38&#45;&gt;Node2 -->
<g id="edge91" class="edge">
<title>Node38&#45;&gt;Node2</title>
<path fill="none" stroke="midnightblue" d="M411.15,-504.19C407.37,-495.22 401.63,-480.86 398,-468 376.21,-390.92 364,-371.1 364,-291 364,-291 364,-291 364,-233 364,-176.5 359.51,-148.07 403,-112 449.55,-73.39 630.26,-67.46 714.85,-66.85"/>
<polygon fill="midnightblue" stroke="midnightblue" points="714.94,-70.35 724.92,-66.8 714.9,-63.35 714.94,-70.35"/>
</g>
<!-- Node38&#45;&gt;Node23 -->
<g id="edge93" class="edge">
<title>Node38&#45;&gt;Node23</title>
<path fill="none" stroke="midnightblue" d="M412,-504.19C405.19,-482.42 391.16,-425.43 418,-392 465.86,-332.39 708.65,-302.7 795.26,-293.89"/>
<polygon fill="midnightblue" stroke="midnightblue" points="795.65,-297.36 805.25,-292.89 794.96,-290.4 795.65,-297.36"/>
</g>
<!-- Node38&#45;&gt;Node26 -->
<g id="edge92" class="edge">
<title>Node38&#45;&gt;Node26</title>
<path fill="none" stroke="midnightblue" d="M426.57,-504.32C437.42,-496.18 453.88,-483.84 466.88,-474.09"/>
<polygon fill="midnightblue" stroke="midnightblue" points="469.32,-476.63 475.22,-467.83 465.12,-471.03 469.32,-476.63"/>
</g>
</g>
</svg>
