<?xml version="1.0" encoding="UTF-8" standalone="no"?>
<!DOCTYPE svg PUBLIC "-//W3C//DTD SVG 1.1//EN"
 "http://www.w3.org/Graphics/SVG/1.1/DTD/svg11.dtd">
<!-- Generated by graphviz version 2.43.0 (0)
 -->
<!-- Title: include/flash.h Pages: 1 -->
<!--zoomable 812 -->
<svg id="main" version="1.1" xmlns="http://www.w3.org/2000/svg" xmlns:xlink="http://www.w3.org/1999/xlink" xml:space="preserve" onload="init(evt)">
<style type="text/css"><![CDATA[
.edge:hover path { stroke: red; }
.edge:hover polygon { stroke: red; fill: red; }
]]></style>
<script type="text/javascript"><![CDATA[
var edges = document.getElementsByTagName('g');
if (edges && edges.length) {
  for (var i=0;i<edges.length;i++) {
    if (edges[i].id.substr(0,4)=='edge') {
      edges[i].setAttribute('class','edge');
    }
  }
}
]]></script>
        <defs>
                <circle id="rim" cx="0" cy="0" r="7"/>
                <circle id="rim2" cx="0" cy="0" r="3.5"/>
                <g id="zoomPlus">
                        <use xlink:href="#rim" fill="#404040">
                                <set attributeName="fill" to="#808080" begin="zoomplus.mouseover" end="zoomplus.mouseout"/>
                        </use>
                        <path d="M-4,0h8M0,-4v8" fill="none" stroke="white" stroke-width="1.5" pointer-events="none"/>
                </g>
                <g id="zoomMin">
                        <use xlink:href="#rim" fill="#404040">
                                <set attributeName="fill" to="#808080" begin="zoomminus.mouseover" end="zoomminus.mouseout"/>
                        </use>
                        <path d="M-4,0h8" fill="none" stroke="white" stroke-width="1.5" pointer-events="none"/>
                </g>
                <g id="dirArrow">
                        <path fill="none" stroke="white" stroke-width="1.5" d="M0,-3.0v7 M-2.5,-0.5L0,-3.0L2.5,-0.5"/>
                </g>
               <g id="resetDef">
                       <use xlink:href="#rim2" fill="#404040">
                               <set attributeName="fill" to="#808080" begin="reset.mouseover" end="reset.mouseout"/>
                       </use>
               </g>
        </defs>

<script type="text/javascript">
var viewWidth = 959;
var viewHeight = 812;
var sectionId = 'dynsection-0';
</script>
<script xlink:href="svgpan.js"/>
<svg id="graph" class="graph">
<g id="viewport">
<title>include/flash.h</title>
<polygon fill="white" stroke="transparent" points="-4,4 -4,-808 954.5,-808 954.5,4 -4,4"/>
<!-- Node1 -->
<g id="node1" class="node">
<title>Node1</title>
<g id="a_node1"><a xlink:title="Flash (might be flash animation, or literal screen flashes).">
<polygon fill="#bfbfbf" stroke="black" points="211,-784.5 211,-803.5 298,-803.5 298,-784.5 211,-784.5"/>
<text text-anchor="middle" x="254.5" y="-791.5" font-family="Helvetica,sans-Serif" font-size="10.00">include/flash.h</text>
</a>
</g>
</g>
<!-- Node2 -->
<g id="node2" class="node">
<title>Node2</title>
<g id="a_node2"><a xlink:href="mat_8h.html" target="_top" xlink:title="3x3 and 4x4 matrix types.">
<polygon fill="white" stroke="black" points="521,-560.5 521,-579.5 566,-579.5 566,-560.5 521,-560.5"/>
<text text-anchor="middle" x="543.5" y="-567.5" font-family="Helvetica,sans-Serif" font-size="10.00">mat.h</text>
</a>
</g>
</g>
<!-- Node1&#45;&gt;Node2 -->
<g id="edge1" class="edge">
<title>Node1&#45;&gt;Node2</title>
<path fill="none" stroke="midnightblue" d="M294.11,-784.42C349.02,-771.17 449.72,-741.92 522.5,-692 550.02,-673.13 560.61,-667.17 572.5,-636 578.87,-619.3 568.79,-600.73 558.81,-587.72"/>
<polygon fill="midnightblue" stroke="midnightblue" points="561.21,-585.14 552.12,-579.7 555.84,-589.62 561.21,-585.14"/>
</g>
<!-- Node3 -->
<g id="node3" class="node">
<title>Node3</title>
<g id="a_node3"><a xlink:href="sm_8h.html" target="_top" xlink:title="State machines.">
<polygon fill="white" stroke="black" points="122,-560.5 122,-579.5 163,-579.5 163,-560.5 122,-560.5"/>
<text text-anchor="middle" x="142.5" y="-567.5" font-family="Helvetica,sans-Serif" font-size="10.00">sm.h</text>
</a>
</g>
</g>
<!-- Node1&#45;&gt;Node3 -->
<g id="edge2" class="edge">
<title>Node1&#45;&gt;Node3</title>
<path fill="none" stroke="midnightblue" d="M243.23,-784.41C223.31,-768.55 182.15,-732.55 162.5,-692 146.31,-658.59 142.89,-614.55 142.36,-589.87"/>
<polygon fill="midnightblue" stroke="midnightblue" points="145.86,-589.69 142.29,-579.71 138.86,-589.74 145.86,-589.69"/>
</g>
<!-- Node13 -->
<g id="node13" class="node">
<title>Node13</title>
<g id="a_node13"><a xlink:href="cm_8h.html" target="_top" xlink:title="Game camera.">
<polygon fill="white" stroke="black" points="234,-728.5 234,-747.5 275,-747.5 275,-728.5 234,-728.5"/>
<text text-anchor="middle" x="254.5" y="-735.5" font-family="Helvetica,sans-Serif" font-size="10.00">cm.h</text>
</a>
</g>
</g>
<!-- Node1&#45;&gt;Node13 -->
<g id="edge15" class="edge">
<title>Node1&#45;&gt;Node13</title>
<path fill="none" stroke="midnightblue" d="M254.5,-784.08C254.5,-777.01 254.5,-766.86 254.5,-757.99"/>
<polygon fill="midnightblue" stroke="midnightblue" points="258,-757.75 254.5,-747.75 251,-757.75 258,-757.75"/>
</g>
<!-- Node4 -->
<g id="node4" class="node">
<title>Node4</title>
<g id="a_node4"><a xlink:href="dl_8h.html" target="_top" xlink:title="Doubly&#45;linked list.">
<polygon fill="white" stroke="black" points="327,-56.5 327,-75.5 362,-75.5 362,-56.5 327,-56.5"/>
<text text-anchor="middle" x="344.5" y="-63.5" font-family="Helvetica,sans-Serif" font-size="10.00">dl.h</text>
</a>
</g>
</g>
<!-- Node3&#45;&gt;Node4 -->
<g id="edge3" class="edge">
<title>Node3&#45;&gt;Node4</title>
<path fill="none" stroke="midnightblue" d="M145.06,-560.25C150.25,-541.74 161.5,-497.18 161.5,-459 161.5,-459 161.5,-459 161.5,-177 161.5,-141.03 266.66,-96.38 317.55,-76.88"/>
<polygon fill="midnightblue" stroke="midnightblue" points="318.84,-80.14 326.95,-73.33 316.36,-73.59 318.84,-80.14"/>
</g>
<!-- Node6 -->
<g id="node6" class="node">
<title>Node6</title>
<g id="a_node6"><a xlink:href="anim_8h.html" target="_top" xlink:title="Animation.">
<polygon fill="white" stroke="black" points="45.5,-504.5 45.5,-523.5 95.5,-523.5 95.5,-504.5 45.5,-504.5"/>
<text text-anchor="middle" x="70.5" y="-511.5" font-family="Helvetica,sans-Serif" font-size="10.00">anim.h</text>
</a>
</g>
</g>
<!-- Node3&#45;&gt;Node6 -->
<g id="edge5" class="edge">
<title>Node3&#45;&gt;Node6</title>
<path fill="none" stroke="midnightblue" d="M130.93,-560.32C120.08,-552.18 103.62,-539.84 90.62,-530.09"/>
<polygon fill="midnightblue" stroke="midnightblue" points="92.38,-527.03 82.28,-523.83 88.18,-532.63 92.38,-527.03"/>
</g>
<!-- Node12 -->
<g id="node12" class="node">
<title>Node12</title>
<g id="a_node12"><a xlink:href="mq_8h.html" target="_top" xlink:title="Message queue.">
<polygon fill="white" stroke="black" points="0,-56.5 0,-75.5 41,-75.5 41,-56.5 0,-56.5"/>
<text text-anchor="middle" x="20.5" y="-63.5" font-family="Helvetica,sans-Serif" font-size="10.00">mq.h</text>
</a>
</g>
</g>
<!-- Node3&#45;&gt;Node12 -->
<g id="edge14" class="edge">
<title>Node3&#45;&gt;Node12</title>
<path fill="none" stroke="midnightblue" d="M139.94,-560.25C134.75,-541.74 123.5,-497.18 123.5,-459 123.5,-459 123.5,-459 123.5,-289 123.5,-205.18 62.33,-118.71 34.27,-83.45"/>
<polygon fill="midnightblue" stroke="midnightblue" points="36.93,-81.18 27.91,-75.62 31.5,-85.59 36.93,-81.18"/>
</g>
<!-- Node5 -->
<g id="node5" class="node">
<title>Node5</title>
<g id="a_node5"><a xlink:href="oid_8h.html" target="_top" xlink:title="Object IDs.">
<polygon fill="white" stroke="black" points="759,-0.5 759,-19.5 800,-19.5 800,-0.5 759,-0.5"/>
<text text-anchor="middle" x="779.5" y="-7.5" font-family="Helvetica,sans-Serif" font-size="10.00">oid.h</text>
</a>
</g>
</g>
<!-- Node4&#45;&gt;Node5 -->
<g id="edge4" class="edge">
<title>Node4&#45;&gt;Node5</title>
<path fill="none" stroke="midnightblue" d="M362.09,-62.82C428.47,-54.58 664.29,-25.3 748.96,-14.79"/>
<polygon fill="midnightblue" stroke="midnightblue" points="749.47,-18.25 758.97,-13.55 748.61,-11.31 749.47,-18.25"/>
</g>
<!-- Node7 -->
<g id="node7" class="node">
<title>Node7</title>
<g id="a_node7"><a xlink:href="lo_8h.html" target="_top" xlink:title="Level objects.">
<polygon fill="white" stroke="black" points="98,-112.5 98,-131.5 133,-131.5 133,-112.5 98,-112.5"/>
<text text-anchor="middle" x="115.5" y="-119.5" font-family="Helvetica,sans-Serif" font-size="10.00">lo.h</text>
</a>
</g>
</g>
<!-- Node6&#45;&gt;Node7 -->
<g id="edge6" class="edge">
<title>Node6&#45;&gt;Node7</title>
<path fill="none" stroke="midnightblue" d="M72.46,-504.5C76.53,-486.09 85.5,-441.16 85.5,-403 85.5,-403 85.5,-403 85.5,-289 85.5,-234.49 101.36,-171.48 110.02,-141.16"/>
<polygon fill="midnightblue" stroke="midnightblue" points="113.38,-142.12 112.84,-131.54 106.66,-140.15 113.38,-142.12"/>
</g>
<!-- Node7&#45;&gt;Node4 -->
<g id="edge10" class="edge">
<title>Node7&#45;&gt;Node4</title>
<path fill="none" stroke="midnightblue" d="M133.06,-115.86C137.73,-114.55 142.8,-113.17 147.5,-112 220.33,-93.83 239.67,-94.17 312.5,-76 313.97,-75.63 315.47,-75.25 316.99,-74.85"/>
<polygon fill="midnightblue" stroke="midnightblue" points="318.22,-78.14 326.94,-72.14 316.38,-71.39 318.22,-78.14"/>
</g>
<!-- Node7&#45;&gt;Node5 -->
<g id="edge7" class="edge">
<title>Node7&#45;&gt;Node5</title>
<path fill="none" stroke="midnightblue" d="M133.1,-116.02C137.78,-114.71 142.83,-113.29 147.5,-112 206.1,-95.77 222.81,-97.99 279.5,-76 297.66,-68.95 299.81,-61.49 318.5,-56 399.78,-32.14 659.52,-17.07 748.92,-12.49"/>
<polygon fill="midnightblue" stroke="midnightblue" points="749.15,-15.98 758.96,-11.98 748.79,-8.99 749.15,-15.98"/>
</g>
<!-- Node8 -->
<g id="node8" class="node">
<title>Node8</title>
<g id="a_node8"><a xlink:href="basic_8h.html" target="_top" xlink:title="Basic object.">
<polygon fill="white" stroke="black" points="59,-56.5 59,-75.5 110,-75.5 110,-56.5 59,-56.5"/>
<text text-anchor="middle" x="84.5" y="-63.5" font-family="Helvetica,sans-Serif" font-size="10.00">basic.h</text>
</a>
</g>
</g>
<!-- Node7&#45;&gt;Node8 -->
<g id="edge8" class="edge">
<title>Node7&#45;&gt;Node8</title>
<path fill="none" stroke="midnightblue" d="M110.38,-112.08C106.09,-104.61 99.84,-93.72 94.56,-84.52"/>
<polygon fill="midnightblue" stroke="midnightblue" points="97.54,-82.68 89.52,-75.75 91.47,-86.17 97.54,-82.68"/>
</g>
<!-- Node10 -->
<g id="node10" class="node">
<title>Node10</title>
<g id="a_node10"><a xlink:href="sw_8h.html" target="_top" xlink:title="Scene world?">
<polygon fill="white" stroke="black" points="128.5,-56.5 128.5,-75.5 166.5,-75.5 166.5,-56.5 128.5,-56.5"/>
<text text-anchor="middle" x="147.5" y="-63.5" font-family="Helvetica,sans-Serif" font-size="10.00">sw.h</text>
</a>
</g>
</g>
<!-- Node7&#45;&gt;Node10 -->
<g id="edge11" class="edge">
<title>Node7&#45;&gt;Node10</title>
<path fill="none" stroke="midnightblue" d="M120.78,-112.08C125.21,-104.61 131.66,-93.72 137.12,-84.52"/>
<polygon fill="midnightblue" stroke="midnightblue" points="140.23,-86.14 142.31,-75.75 134.21,-82.57 140.23,-86.14"/>
</g>
<!-- Node11 -->
<g id="node11" class="node">
<title>Node11</title>
<g id="a_node11"><a xlink:href="frame_8h.html" target="_top" xlink:title=" ">
<polygon fill="white" stroke="black" points="184.5,-56.5 184.5,-75.5 270.5,-75.5 270.5,-56.5 184.5,-56.5"/>
<text text-anchor="middle" x="227.5" y="-63.5" font-family="Helvetica,sans-Serif" font-size="10.00">splice/frame.h</text>
</a>
</g>
</g>
<!-- Node7&#45;&gt;Node11 -->
<g id="edge12" class="edge">
<title>Node7&#45;&gt;Node11</title>
<path fill="none" stroke="midnightblue" d="M133.49,-112.32C151.54,-103.62 179.55,-90.12 200.3,-80.11"/>
<polygon fill="midnightblue" stroke="midnightblue" points="202.06,-83.15 209.55,-75.65 199.02,-76.84 202.06,-83.15"/>
</g>
<!-- Node7&#45;&gt;Node12 -->
<g id="edge13" class="edge">
<title>Node7&#45;&gt;Node12</title>
<path fill="none" stroke="midnightblue" d="M100.24,-112.32C85.28,-103.82 62.25,-90.73 44.77,-80.8"/>
<polygon fill="midnightblue" stroke="midnightblue" points="46.15,-77.55 35.73,-75.65 42.69,-83.64 46.15,-77.55"/>
</g>
<!-- Node9 -->
<g id="node9" class="node">
<title>Node9</title>
<g id="a_node9"><a xlink:href="sidebag_8h.html" target="_top" xlink:title="Sidebag for splice.">
<polygon fill="white" stroke="black" points="37,-0.5 37,-19.5 132,-19.5 132,-0.5 37,-0.5"/>
<text text-anchor="middle" x="84.5" y="-7.5" font-family="Helvetica,sans-Serif" font-size="10.00">splice/sidebag.h</text>
</a>
</g>
</g>
<!-- Node8&#45;&gt;Node9 -->
<g id="edge9" class="edge">
<title>Node8&#45;&gt;Node9</title>
<path fill="none" stroke="midnightblue" d="M84.5,-56.08C84.5,-49.01 84.5,-38.86 84.5,-29.99"/>
<polygon fill="midnightblue" stroke="midnightblue" points="88,-29.75 84.5,-19.75 81,-29.75 88,-29.75"/>
</g>
<!-- Node13&#45;&gt;Node7 -->
<g id="edge16" class="edge">
<title>Node13&#45;&gt;Node7</title>
<path fill="none" stroke="midnightblue" d="M233.88,-732.98C176.22,-720.4 17.5,-676.24 17.5,-571 17.5,-571 17.5,-571 17.5,-233 17.5,-189.38 60.99,-155.06 90.03,-137.01"/>
<polygon fill="midnightblue" stroke="midnightblue" points="92.08,-139.86 98.88,-131.73 88.5,-133.85 92.08,-139.86"/>
</g>
<!-- Node14 -->
<g id="node14" class="node">
<title>Node14</title>
<g id="a_node14"><a xlink:href="util_8h.html" target="_top" xlink:title="Utility functions.">
<polygon fill="white" stroke="black" points="206,-616.5 206,-635.5 247,-635.5 247,-616.5 206,-616.5"/>
<text text-anchor="middle" x="226.5" y="-623.5" font-family="Helvetica,sans-Serif" font-size="10.00">util.h</text>
</a>
</g>
</g>
<!-- Node13&#45;&gt;Node14 -->
<g id="edge17" class="edge">
<title>Node13&#45;&gt;Node14</title>
<path fill="none" stroke="midnightblue" d="M252.3,-728.37C247.78,-710.62 237.36,-669.67 231.23,-645.6"/>
<polygon fill="midnightblue" stroke="midnightblue" points="234.55,-644.42 228.69,-635.59 227.76,-646.15 234.55,-644.42"/>
</g>
<!-- Node18 -->
<g id="node18" class="node">
<title>Node18</title>
<g id="a_node18"><a xlink:href="binoc_8h.html" target="_top" xlink:title="Binoc&#45;u&#45;com.">
<polygon fill="white" stroke="black" points="341.5,-504.5 341.5,-523.5 393.5,-523.5 393.5,-504.5 341.5,-504.5"/>
<text text-anchor="middle" x="367.5" y="-511.5" font-family="Helvetica,sans-Serif" font-size="10.00">binoc.h</text>
</a>
</g>
</g>
<!-- Node13&#45;&gt;Node18 -->
<g id="edge25" class="edge">
<title>Node13&#45;&gt;Node18</title>
<path fill="none" stroke="midnightblue" d="M258.03,-728.3C268.75,-702.18 302.34,-622.39 337.5,-560 342.86,-550.49 349.54,-540.34 355.23,-532.09"/>
<polygon fill="midnightblue" stroke="midnightblue" points="358.23,-533.91 361.12,-523.72 352.5,-529.88 358.23,-533.91"/>
</g>
<!-- Node27 -->
<g id="node27" class="node">
<title>Node27</title>
<g id="a_node27"><a xlink:href="xform_8h.html" target="_top" xlink:title="Transform.">
<polygon fill="white" stroke="black" points="458,-672.5 458,-691.5 513,-691.5 513,-672.5 458,-672.5"/>
<text text-anchor="middle" x="485.5" y="-679.5" font-family="Helvetica,sans-Serif" font-size="10.00">xform.h</text>
</a>
</g>
</g>
<!-- Node13&#45;&gt;Node27 -->
<g id="edge38" class="edge">
<title>Node13&#45;&gt;Node27</title>
<path fill="none" stroke="midnightblue" d="M275.41,-732.11C314.39,-723 398.68,-703.3 447.82,-691.81"/>
<polygon fill="midnightblue" stroke="midnightblue" points="448.8,-695.17 457.74,-689.49 447.21,-688.36 448.8,-695.17"/>
</g>
<!-- Node37 -->
<g id="node37" class="node">
<title>Node37</title>
<g id="a_node37"><a xlink:href="sound_8h.html" target="_top" xlink:title="Sound playback.">
<polygon fill="white" stroke="black" points="171,-672.5 171,-691.5 226,-691.5 226,-672.5 171,-672.5"/>
<text text-anchor="middle" x="198.5" y="-679.5" font-family="Helvetica,sans-Serif" font-size="10.00">sound.h</text>
</a>
</g>
</g>
<!-- Node13&#45;&gt;Node37 -->
<g id="edge63" class="edge">
<title>Node13&#45;&gt;Node37</title>
<path fill="none" stroke="midnightblue" d="M245.5,-728.32C237.31,-720.42 224.99,-708.55 215.03,-698.94"/>
<polygon fill="midnightblue" stroke="midnightblue" points="217.29,-696.26 207.66,-691.83 212.43,-701.29 217.29,-696.26"/>
</g>
<!-- Node14&#45;&gt;Node2 -->
<g id="edge18" class="edge">
<title>Node14&#45;&gt;Node2</title>
<path fill="none" stroke="midnightblue" d="M247.13,-622.66C292.94,-617.28 406.72,-602.86 510.85,-580.14"/>
<polygon fill="midnightblue" stroke="midnightblue" points="511.89,-583.5 520.9,-577.92 510.38,-576.67 511.89,-583.5"/>
</g>
<!-- Node14&#45;&gt;Node3 -->
<g id="edge24" class="edge">
<title>Node14&#45;&gt;Node3</title>
<path fill="none" stroke="midnightblue" d="M213,-616.32C199.9,-607.9 179.79,-594.97 164.39,-585.07"/>
<polygon fill="midnightblue" stroke="midnightblue" points="166.27,-582.12 155.96,-579.65 162.48,-588.01 166.27,-582.12"/>
</g>
<!-- Node15 -->
<g id="node15" class="node">
<title>Node15</title>
<g id="a_node15"><a xlink:href="vec_8h.html" target="_top" xlink:title="Vector math.">
<polygon fill="white" stroke="black" points="292,-280.5 292,-299.5 335,-299.5 335,-280.5 292,-280.5"/>
<text text-anchor="middle" x="313.5" y="-287.5" font-family="Helvetica,sans-Serif" font-size="10.00">vec.h</text>
</a>
</g>
</g>
<!-- Node14&#45;&gt;Node15 -->
<g id="edge19" class="edge">
<title>Node14&#45;&gt;Node15</title>
<path fill="none" stroke="midnightblue" d="M227.94,-616.47C230.92,-598.02 237.5,-553 237.5,-515 237.5,-515 237.5,-515 237.5,-457 237.5,-397.8 277.96,-336.61 299.84,-307.86"/>
<polygon fill="midnightblue" stroke="midnightblue" points="302.81,-309.74 306.21,-299.71 297.3,-305.43 302.81,-309.74"/>
</g>
<!-- Node16 -->
<g id="node16" class="node">
<title>Node16</title>
<g id="a_node16"><a xlink:href="so_8h.html" target="_top" xlink:title="Scene objects.">
<polygon fill="white" stroke="black" points="281,-224.5 281,-243.5 318,-243.5 318,-224.5 281,-224.5"/>
<text text-anchor="middle" x="299.5" y="-231.5" font-family="Helvetica,sans-Serif" font-size="10.00">so.h</text>
</a>
</g>
</g>
<!-- Node15&#45;&gt;Node16 -->
<g id="edge20" class="edge">
<title>Node15&#45;&gt;Node16</title>
<path fill="none" stroke="midnightblue" d="M311.19,-280.08C309.33,-272.93 306.66,-262.64 304.35,-253.69"/>
<polygon fill="midnightblue" stroke="midnightblue" points="307.67,-252.55 301.77,-243.75 300.89,-254.31 307.67,-252.55"/>
</g>
<!-- Node17 -->
<g id="node17" class="node">
<title>Node17</title>
<g id="a_node17"><a xlink:href="alo_8h.html" target="_top" xlink:title=" ">
<polygon fill="white" stroke="black" points="248,-168.5 248,-187.5 289,-187.5 289,-168.5 248,-168.5"/>
<text text-anchor="middle" x="268.5" y="-175.5" font-family="Helvetica,sans-Serif" font-size="10.00">alo.h</text>
</a>
</g>
</g>
<!-- Node16&#45;&gt;Node17 -->
<g id="edge21" class="edge">
<title>Node16&#45;&gt;Node17</title>
<path fill="none" stroke="midnightblue" d="M294.38,-224.08C290.09,-216.61 283.84,-205.72 278.56,-196.52"/>
<polygon fill="midnightblue" stroke="midnightblue" points="281.54,-194.68 273.52,-187.75 275.47,-198.17 281.54,-194.68"/>
</g>
<!-- Node17&#45;&gt;Node4 -->
<g id="edge23" class="edge">
<title>Node17&#45;&gt;Node4</title>
<path fill="none" stroke="midnightblue" d="M274.46,-168.37C287.01,-150.22 316.31,-107.8 332.76,-83.99"/>
<polygon fill="midnightblue" stroke="midnightblue" points="335.76,-85.81 338.56,-75.59 330,-81.83 335.76,-85.81"/>
</g>
<!-- Node17&#45;&gt;Node7 -->
<g id="edge22" class="edge">
<title>Node17&#45;&gt;Node7</title>
<path fill="none" stroke="midnightblue" d="M247.87,-169.72C220.75,-160.15 173.05,-143.31 142.92,-132.68"/>
<polygon fill="midnightblue" stroke="midnightblue" points="144.03,-129.36 133.43,-129.33 141.7,-135.96 144.03,-129.36"/>
</g>
<!-- Node19 -->
<g id="node19" class="node">
<title>Node19</title>
<g id="a_node19"><a xlink:href="screen_8h.html" target="_top" xlink:title="GUI elements.">
<polygon fill="white" stroke="black" points="354.5,-448.5 354.5,-467.5 412.5,-467.5 412.5,-448.5 354.5,-448.5"/>
<text text-anchor="middle" x="383.5" y="-455.5" font-family="Helvetica,sans-Serif" font-size="10.00">screen.h</text>
</a>
</g>
</g>
<!-- Node18&#45;&gt;Node19 -->
<g id="edge26" class="edge">
<title>Node18&#45;&gt;Node19</title>
<path fill="none" stroke="midnightblue" d="M370.14,-504.08C372.29,-496.85 375.38,-486.41 378.05,-477.4"/>
<polygon fill="midnightblue" stroke="midnightblue" points="381.42,-478.33 380.91,-467.75 374.71,-476.34 381.42,-478.33"/>
</g>
<!-- Node20 -->
<g id="node20" class="node">
<title>Node20</title>
<g id="a_node20"><a xlink:href="font_8h.html" target="_top" xlink:title="Font system.">
<polygon fill="white" stroke="black" points="342,-392.5 342,-411.5 387,-411.5 387,-392.5 342,-392.5"/>
<text text-anchor="middle" x="364.5" y="-399.5" font-family="Helvetica,sans-Serif" font-size="10.00">font.h</text>
</a>
</g>
</g>
<!-- Node19&#45;&gt;Node20 -->
<g id="edge27" class="edge">
<title>Node19&#45;&gt;Node20</title>
<path fill="none" stroke="midnightblue" d="M380.36,-448.08C377.82,-440.85 374.14,-430.41 370.97,-421.4"/>
<polygon fill="midnightblue" stroke="midnightblue" points="374.2,-420.02 367.58,-411.75 367.6,-422.35 374.2,-420.02"/>
</g>
<!-- Node21 -->
<g id="node21" class="node">
<title>Node21</title>
<g id="a_node21"><a xlink:href="game_8h.html" target="_top" xlink:title="Game state and level management.">
<polygon fill="white" stroke="black" points="755,-392.5 755,-411.5 808,-411.5 808,-392.5 755,-392.5"/>
<text text-anchor="middle" x="781.5" y="-399.5" font-family="Helvetica,sans-Serif" font-size="10.00">game.h</text>
</a>
</g>
</g>
<!-- Node19&#45;&gt;Node21 -->
<g id="edge28" class="edge">
<title>Node19&#45;&gt;Node21</title>
<path fill="none" stroke="midnightblue" d="M412.77,-453.03C483.92,-443.38 665.89,-418.69 744.45,-408.03"/>
<polygon fill="midnightblue" stroke="midnightblue" points="745.39,-411.43 754.83,-406.62 744.45,-404.49 745.39,-411.43"/>
</g>
<!-- Node23 -->
<g id="node23" class="node">
<title>Node23</title>
<g id="a_node23"><a xlink:href="shd_8h.html" target="_top" xlink:title="Shaders.">
<polygon fill="white" stroke="black" points="405,-392.5 405,-411.5 448,-411.5 448,-392.5 405,-392.5"/>
<text text-anchor="middle" x="426.5" y="-399.5" font-family="Helvetica,sans-Serif" font-size="10.00">shd.h</text>
</a>
</g>
</g>
<!-- Node19&#45;&gt;Node23 -->
<g id="edge31" class="edge">
<title>Node19&#45;&gt;Node23</title>
<path fill="none" stroke="midnightblue" d="M390.6,-448.08C396.74,-440.38 405.77,-429.03 413.24,-419.65"/>
<polygon fill="midnightblue" stroke="midnightblue" points="416.04,-421.75 419.53,-411.75 410.56,-417.39 416.04,-421.75"/>
</g>
<!-- Node21&#45;&gt;Node5 -->
<g id="edge29" class="edge">
<title>Node21&#45;&gt;Node5</title>
<path fill="none" stroke="midnightblue" d="M782.94,-392.47C788.65,-357.62 808.81,-222.6 798.5,-112 795.79,-82.91 788.77,-49.7 784.07,-29.55"/>
<polygon fill="midnightblue" stroke="midnightblue" points="787.41,-28.48 781.67,-19.57 780.6,-30.11 787.41,-28.48"/>
</g>
<!-- Node22 -->
<g id="node22" class="node">
<title>Node22</title>
<g id="a_node22"><a xlink:href="cid_8h.html" target="_top" xlink:title="Class IDs.">
<polygon fill="white" stroke="black" points="730.5,-336.5 730.5,-355.5 770.5,-355.5 770.5,-336.5 730.5,-336.5"/>
<text text-anchor="middle" x="750.5" y="-343.5" font-family="Helvetica,sans-Serif" font-size="10.00">cid.h</text>
</a>
</g>
</g>
<!-- Node21&#45;&gt;Node22 -->
<g id="edge30" class="edge">
<title>Node21&#45;&gt;Node22</title>
<path fill="none" stroke="midnightblue" d="M776.38,-392.08C772.09,-384.61 765.84,-373.72 760.56,-364.52"/>
<polygon fill="midnightblue" stroke="midnightblue" points="763.54,-362.68 755.52,-355.75 757.47,-366.17 763.54,-362.68"/>
</g>
<!-- Node23&#45;&gt;Node15 -->
<g id="edge37" class="edge">
<title>Node23&#45;&gt;Node15</title>
<path fill="none" stroke="midnightblue" d="M414.68,-392.19C403.23,-383.47 385.58,-369.49 371.5,-356 355.37,-340.55 338.56,-321.3 327.21,-307.77"/>
<polygon fill="midnightblue" stroke="midnightblue" points="329.68,-305.27 320.6,-299.81 324.29,-309.74 329.68,-305.27"/>
</g>
<!-- Node24 -->
<g id="node24" class="node">
<title>Node24</title>
<g id="a_node24"><a xlink:href="eestruct_8h.html" target="_top" xlink:title="Graphics synthesizer.">
<polygon fill="white" stroke="black" points="380,-336.5 380,-355.5 481,-355.5 481,-336.5 380,-336.5"/>
<text text-anchor="middle" x="430.5" y="-343.5" font-family="Helvetica,sans-Serif" font-size="10.00">sdk/ee/eestruct.h</text>
</a>
</g>
</g>
<!-- Node23&#45;&gt;Node24 -->
<g id="edge32" class="edge">
<title>Node23&#45;&gt;Node24</title>
<path fill="none" stroke="midnightblue" d="M427.16,-392.08C427.68,-385.01 428.44,-374.86 429.09,-365.99"/>
<polygon fill="midnightblue" stroke="midnightblue" points="432.6,-365.98 429.85,-355.75 425.62,-365.47 432.6,-365.98"/>
</g>
<!-- Node25 -->
<g id="node25" class="node">
<title>Node25</title>
<g id="a_node25"><a xlink:href="geom_8h.html" target="_top" xlink:title="Geometry.">
<polygon fill="white" stroke="black" points="533,-280.5 533,-299.5 586,-299.5 586,-280.5 533,-280.5"/>
<text text-anchor="middle" x="559.5" y="-287.5" font-family="Helvetica,sans-Serif" font-size="10.00">geom.h</text>
</a>
</g>
</g>
<!-- Node23&#45;&gt;Node25 -->
<g id="edge33" class="edge">
<title>Node23&#45;&gt;Node25</title>
<path fill="none" stroke="midnightblue" d="M439.89,-392.39C453.13,-383.7 473.76,-369.65 490.5,-356 509.69,-340.35 530.16,-320.64 543.77,-307.05"/>
<polygon fill="midnightblue" stroke="midnightblue" points="546.38,-309.4 550.94,-299.83 541.41,-304.47 546.38,-309.4"/>
</g>
<!-- Node26 -->
<g id="node26" class="node">
<title>Node26</title>
<g id="a_node26"><a xlink:href="surf_8h.html" target="_top" xlink:title="Surfaces?">
<polygon fill="white" stroke="black" points="537.5,-336.5 537.5,-355.5 581.5,-355.5 581.5,-336.5 537.5,-336.5"/>
<text text-anchor="middle" x="559.5" y="-343.5" font-family="Helvetica,sans-Serif" font-size="10.00">surf.h</text>
</a>
</g>
</g>
<!-- Node23&#45;&gt;Node26 -->
<g id="edge34" class="edge">
<title>Node23&#45;&gt;Node26</title>
<path fill="none" stroke="midnightblue" d="M447.57,-392.44C469.56,-383.52 504.23,-369.44 529.16,-359.32"/>
<polygon fill="midnightblue" stroke="midnightblue" points="530.58,-362.52 538.52,-355.52 527.94,-356.04 530.58,-362.52"/>
</g>
<!-- Node26&#45;&gt;Node15 -->
<g id="edge35" class="edge">
<title>Node26&#45;&gt;Node15</title>
<path fill="none" stroke="midnightblue" d="M537.24,-340.11C493.4,-330.49 395.78,-309.06 345.22,-297.96"/>
<polygon fill="midnightblue" stroke="midnightblue" points="345.7,-294.49 335.19,-295.76 344.2,-301.32 345.7,-294.49"/>
</g>
<!-- Node26&#45;&gt;Node25 -->
<g id="edge36" class="edge">
<title>Node26&#45;&gt;Node25</title>
<path fill="none" stroke="midnightblue" d="M559.5,-336.08C559.5,-329.01 559.5,-318.86 559.5,-309.99"/>
<polygon fill="midnightblue" stroke="midnightblue" points="563,-309.75 559.5,-299.75 556,-309.75 563,-309.75"/>
</g>
<!-- Node27&#45;&gt;Node4 -->
<g id="edge41" class="edge">
<title>Node27&#45;&gt;Node4</title>
<path fill="none" stroke="midnightblue" d="M513.35,-677.37C563.24,-669.33 667.74,-645.28 722.5,-580 776.62,-515.48 702.5,-357.37 702.5,-291 702.5,-291 702.5,-291 702.5,-177 702.5,-108.01 456.53,-77.81 372.35,-69.5"/>
<polygon fill="midnightblue" stroke="midnightblue" points="372.54,-66 362.25,-68.53 371.87,-72.97 372.54,-66"/>
</g>
<!-- Node27&#45;&gt;Node5 -->
<g id="edge44" class="edge">
<title>Node27&#45;&gt;Node5</title>
<path fill="none" stroke="midnightblue" d="M513.2,-680.43C613.3,-677.61 950.5,-661.42 950.5,-571 950.5,-571 950.5,-571 950.5,-121 950.5,-55.06 859.46,-26.78 810.23,-16.31"/>
<polygon fill="midnightblue" stroke="midnightblue" points="810.62,-12.82 800.13,-14.29 809.24,-19.69 810.62,-12.82"/>
</g>
<!-- Node27&#45;&gt;Node6 -->
<g id="edge45" class="edge">
<title>Node27&#45;&gt;Node6</title>
<path fill="none" stroke="midnightblue" d="M457.9,-680.55C405.42,-678.87 288.37,-671.12 197.5,-636 155.3,-619.69 144.35,-612.13 112.5,-580 98.65,-566.02 86.9,-546.77 79.38,-532.84"/>
<polygon fill="midnightblue" stroke="midnightblue" points="82.4,-531.06 74.68,-523.8 76.19,-534.29 82.4,-531.06"/>
</g>
<!-- Node27&#45;&gt;Node14 -->
<g id="edge40" class="edge">
<title>Node27&#45;&gt;Node14</title>
<path fill="none" stroke="midnightblue" d="M457.81,-675.93C415.4,-668.05 331.87,-652.1 261.5,-636 260.05,-635.67 258.56,-635.32 257.07,-634.96"/>
<polygon fill="midnightblue" stroke="midnightblue" points="257.73,-631.52 247.18,-632.51 256.05,-638.32 257.73,-631.52"/>
</g>
<!-- Node27&#45;&gt;Node17 -->
<g id="edge39" class="edge">
<title>Node27&#45;&gt;Node17</title>
<path fill="none" stroke="midnightblue" d="M457.61,-679.13C400.49,-673.62 275.5,-652.29 275.5,-571 275.5,-571 275.5,-571 275.5,-457 275.5,-359.5 271.14,-242.82 269.3,-197.9"/>
<polygon fill="midnightblue" stroke="midnightblue" points="272.79,-197.49 268.88,-187.65 265.8,-197.78 272.79,-197.49"/>
</g>
<!-- Node27&#45;&gt;Node21 -->
<g id="edge43" class="edge">
<title>Node27&#45;&gt;Node21</title>
<path fill="none" stroke="midnightblue" d="M513.09,-681.61C584.69,-682.53 773.62,-680.6 812.5,-636 867.12,-573.35 815.21,-462.91 791.7,-420.37"/>
<polygon fill="midnightblue" stroke="midnightblue" points="794.65,-418.48 786.67,-411.51 788.56,-421.94 794.65,-418.48"/>
</g>
<!-- Node27&#45;&gt;Node26 -->
<g id="edge42" class="edge">
<title>Node27&#45;&gt;Node26</title>
<path fill="none" stroke="midnightblue" d="M474.88,-672.21C465.68,-663.92 452.85,-650.6 446.5,-636 432.98,-604.93 435.8,-593.56 440.5,-560 451.98,-478.01 515.29,-397.07 544.6,-363.36"/>
<polygon fill="midnightblue" stroke="midnightblue" points="547.25,-365.64 551.27,-355.83 542.01,-361 547.25,-365.64"/>
</g>
<!-- Node28 -->
<g id="node28" class="node">
<title>Node28</title>
<g id="a_node28"><a xlink:href="wipe_8h.html" target="_top" xlink:title="Screen wipes.">
<polygon fill="white" stroke="black" points="740,-112.5 740,-131.5 789,-131.5 789,-112.5 740,-112.5"/>
<text text-anchor="middle" x="764.5" y="-119.5" font-family="Helvetica,sans-Serif" font-size="10.00">wipe.h</text>
</a>
</g>
</g>
<!-- Node27&#45;&gt;Node28 -->
<g id="edge46" class="edge">
<title>Node27&#45;&gt;Node28</title>
<path fill="none" stroke="midnightblue" d="M513.08,-680.43C577.7,-678.53 736.28,-670.39 774.5,-636 854.17,-564.33 836.5,-510.16 836.5,-403 836.5,-403 836.5,-403 836.5,-289 836.5,-230.32 798.17,-168.9 777.44,-139.97"/>
<polygon fill="midnightblue" stroke="midnightblue" points="780.15,-137.75 771.4,-131.77 774.51,-141.9 780.15,-137.75"/>
</g>
<!-- Node30 -->
<g id="node30" class="node">
<title>Node30</title>
<g id="a_node30"><a xlink:href="bis_8h.html" target="_top" xlink:title="Binary Input Stream.">
<polygon fill="white" stroke="black" points="523.5,-616.5 523.5,-635.5 563.5,-635.5 563.5,-616.5 523.5,-616.5"/>
<text text-anchor="middle" x="543.5" y="-623.5" font-family="Helvetica,sans-Serif" font-size="10.00">bis.h</text>
</a>
</g>
</g>
<!-- Node27&#45;&gt;Node30 -->
<g id="edge50" class="edge">
<title>Node27&#45;&gt;Node30</title>
<path fill="none" stroke="midnightblue" d="M494.82,-672.32C503.39,-664.34 516.31,-652.31 526.69,-642.65"/>
<polygon fill="midnightblue" stroke="midnightblue" points="529.08,-645.21 534.01,-635.83 524.31,-640.09 529.08,-645.21"/>
</g>
<!-- Node35 -->
<g id="node35" class="node">
<title>Node35</title>
<g id="a_node35"><a xlink:href="proxy_8h.html" target="_top" xlink:title=" ">
<polygon fill="white" stroke="black" points="564.5,-448.5 564.5,-467.5 616.5,-467.5 616.5,-448.5 564.5,-448.5"/>
<text text-anchor="middle" x="590.5" y="-455.5" font-family="Helvetica,sans-Serif" font-size="10.00">proxy.h</text>
</a>
</g>
</g>
<!-- Node27&#45;&gt;Node35 -->
<g id="edge59" class="edge">
<title>Node27&#45;&gt;Node35</title>
<path fill="none" stroke="midnightblue" d="M479.22,-672.27C465.75,-652.47 436.2,-602.56 447.5,-560 454.86,-532.29 457.92,-522.87 479.5,-504 500.77,-485.4 530.74,-473.87 554.17,-467.14"/>
<polygon fill="midnightblue" stroke="midnightblue" points="555.36,-470.45 564.1,-464.46 553.53,-463.69 555.36,-470.45"/>
</g>
<!-- Node36 -->
<g id="node36" class="node">
<title>Node36</title>
<g id="a_node36"><a xlink:href="rs_8h.html" target="_top" xlink:title=" ">
<polygon fill="white" stroke="black" points="865,-224.5 865,-243.5 900,-243.5 900,-224.5 865,-224.5"/>
<text text-anchor="middle" x="882.5" y="-231.5" font-family="Helvetica,sans-Serif" font-size="10.00">rs.h</text>
</a>
</g>
</g>
<!-- Node27&#45;&gt;Node36 -->
<g id="edge61" class="edge">
<title>Node27&#45;&gt;Node36</title>
<path fill="none" stroke="midnightblue" d="M513.19,-680.37C585.74,-678.25 779.4,-669.52 832.5,-636 861.59,-617.64 874.5,-605.39 874.5,-571 874.5,-571 874.5,-571 874.5,-345 874.5,-312.86 877.94,-275.58 880.31,-253.72"/>
<polygon fill="midnightblue" stroke="midnightblue" points="883.81,-253.87 881.45,-243.54 876.86,-253.09 883.81,-253.87"/>
</g>
<!-- Node28&#45;&gt;Node5 -->
<g id="edge49" class="edge">
<title>Node28&#45;&gt;Node5</title>
<path fill="none" stroke="midnightblue" d="M765.68,-112.37C768.1,-94.62 773.68,-53.67 776.96,-29.6"/>
<polygon fill="midnightblue" stroke="midnightblue" points="780.45,-29.97 778.33,-19.59 773.51,-29.03 780.45,-29.97"/>
</g>
<!-- Node29 -->
<g id="node29" class="node">
<title>Node29</title>
<g id="a_node29"><a xlink:href="transition_8h.html" target="_top" xlink:title="Level transitions.">
<polygon fill="white" stroke="black" points="679.5,-56.5 679.5,-75.5 751.5,-75.5 751.5,-56.5 679.5,-56.5"/>
<text text-anchor="middle" x="715.5" y="-63.5" font-family="Helvetica,sans-Serif" font-size="10.00">transition.h</text>
</a>
</g>
</g>
<!-- Node28&#45;&gt;Node29 -->
<g id="edge47" class="edge">
<title>Node28&#45;&gt;Node29</title>
<path fill="none" stroke="midnightblue" d="M756.41,-112.08C749.34,-104.3 738.91,-92.8 730.35,-83.37"/>
<polygon fill="midnightblue" stroke="midnightblue" points="732.75,-80.8 723.44,-75.75 727.57,-85.51 732.75,-80.8"/>
</g>
<!-- Node29&#45;&gt;Node5 -->
<g id="edge48" class="edge">
<title>Node29&#45;&gt;Node5</title>
<path fill="none" stroke="midnightblue" d="M725.78,-56.32C735.34,-48.26 749.78,-36.08 761.28,-26.37"/>
<polygon fill="midnightblue" stroke="midnightblue" points="763.64,-28.96 769.03,-19.83 759.13,-23.61 763.64,-28.96"/>
</g>
<!-- Node30&#45;&gt;Node2 -->
<g id="edge56" class="edge">
<title>Node30&#45;&gt;Node2</title>
<path fill="none" stroke="midnightblue" d="M543.5,-616.08C543.5,-609.01 543.5,-598.86 543.5,-589.99"/>
<polygon fill="midnightblue" stroke="midnightblue" points="547,-589.75 543.5,-579.75 540,-589.75 547,-589.75"/>
</g>
<!-- Node30&#45;&gt;Node15 -->
<g id="edge55" class="edge">
<title>Node30&#45;&gt;Node15</title>
<path fill="none" stroke="midnightblue" d="M523.27,-621.12C481.24,-611.99 384.1,-585.14 332.5,-524 313.09,-501 313.5,-489.1 313.5,-459 313.5,-459 313.5,-459 313.5,-401 313.5,-368.95 313.5,-331.64 313.5,-309.75"/>
<polygon fill="midnightblue" stroke="midnightblue" points="317,-309.56 313.5,-299.56 310,-309.56 317,-309.56"/>
</g>
<!-- Node30&#45;&gt;Node25 -->
<g id="edge57" class="edge">
<title>Node30&#45;&gt;Node25</title>
<path fill="none" stroke="midnightblue" d="M563.53,-622.37C602.57,-616.8 686.51,-602.43 703.5,-580 774.83,-485.84 631.16,-350.88 578.11,-306.08"/>
<polygon fill="midnightblue" stroke="midnightblue" points="580.35,-303.39 570.42,-299.69 575.87,-308.78 580.35,-303.39"/>
</g>
<!-- Node31 -->
<g id="node31" class="node">
<title>Node31</title>
<g id="a_node31"><a xlink:href="prog_8h.html" target="_top" xlink:title=" ">
<polygon fill="white" stroke="black" points="456,-560.5 456,-579.5 503,-579.5 503,-560.5 456,-560.5"/>
<text text-anchor="middle" x="479.5" y="-567.5" font-family="Helvetica,sans-Serif" font-size="10.00">prog.h</text>
</a>
</g>
</g>
<!-- Node30&#45;&gt;Node31 -->
<g id="edge51" class="edge">
<title>Node30&#45;&gt;Node31</title>
<path fill="none" stroke="midnightblue" d="M533.22,-616.32C523.66,-608.26 509.22,-596.08 497.72,-586.37"/>
<polygon fill="midnightblue" stroke="midnightblue" points="499.87,-583.61 489.97,-579.83 495.36,-588.96 499.87,-583.61"/>
</g>
<!-- Node33 -->
<g id="node33" class="node">
<title>Node33</title>
<g id="a_node33"><a xlink:href="clock_8h.html" target="_top" xlink:title="Engine clock.">
<polygon fill="white" stroke="black" points="584,-560.5 584,-579.5 635,-579.5 635,-560.5 584,-560.5"/>
<text text-anchor="middle" x="609.5" y="-567.5" font-family="Helvetica,sans-Serif" font-size="10.00">clock.h</text>
</a>
</g>
</g>
<!-- Node30&#45;&gt;Node33 -->
<g id="edge54" class="edge">
<title>Node30&#45;&gt;Node33</title>
<path fill="none" stroke="midnightblue" d="M554.1,-616.32C563.96,-608.26 578.85,-596.08 590.72,-586.37"/>
<polygon fill="midnightblue" stroke="midnightblue" points="593.18,-588.88 598.7,-579.83 588.75,-583.46 593.18,-588.88"/>
</g>
<!-- Node34 -->
<g id="node34" class="node">
<title>Node34</title>
<g id="a_node34"><a xlink:href="cat_8h.html" target="_top" xlink:title="Catalog.">
<polygon fill="white" stroke="black" points="653,-560.5 653,-579.5 694,-579.5 694,-560.5 653,-560.5"/>
<text text-anchor="middle" x="673.5" y="-567.5" font-family="Helvetica,sans-Serif" font-size="10.00">cat.h</text>
</a>
</g>
</g>
<!-- Node30&#45;&gt;Node34 -->
<g id="edge58" class="edge">
<title>Node30&#45;&gt;Node34</title>
<path fill="none" stroke="midnightblue" d="M563.53,-616.68C584.81,-607.84 618.71,-593.76 643.25,-583.56"/>
<polygon fill="midnightblue" stroke="midnightblue" points="644.91,-586.66 652.8,-579.6 642.23,-580.2 644.91,-586.66"/>
</g>
<!-- Node31&#45;&gt;Node18 -->
<g id="edge52" class="edge">
<title>Node31&#45;&gt;Node18</title>
<path fill="none" stroke="midnightblue" d="M461.51,-560.32C443.46,-551.62 415.45,-538.12 394.7,-528.11"/>
<polygon fill="midnightblue" stroke="midnightblue" points="395.98,-524.84 385.45,-523.65 392.94,-531.15 395.98,-524.84"/>
</g>
<!-- Node32 -->
<g id="node32" class="node">
<title>Node32</title>
<g id="a_node32"><a xlink:href="gs_8h.html" target="_top" xlink:title="Graphics synthesizer.">
<polygon fill="white" stroke="black" points="488,-504.5 488,-523.5 525,-523.5 525,-504.5 488,-504.5"/>
<text text-anchor="middle" x="506.5" y="-511.5" font-family="Helvetica,sans-Serif" font-size="10.00">gs.h</text>
</a>
</g>
</g>
<!-- Node31&#45;&gt;Node32 -->
<g id="edge53" class="edge">
<title>Node31&#45;&gt;Node32</title>
<path fill="none" stroke="midnightblue" d="M483.96,-560.08C487.65,-552.69 493.02,-541.95 497.59,-532.81"/>
<polygon fill="midnightblue" stroke="midnightblue" points="500.78,-534.26 502.12,-523.75 494.52,-531.13 500.78,-534.26"/>
</g>
<!-- Node35&#45;&gt;Node17 -->
<g id="edge60" class="edge">
<title>Node35&#45;&gt;Node17</title>
<path fill="none" stroke="midnightblue" d="M599.1,-448.47C615.69,-431.04 650.5,-389.42 650.5,-347 650.5,-347 650.5,-347 650.5,-289 650.5,-216.05 389.99,-188.57 299.24,-181.21"/>
<polygon fill="midnightblue" stroke="midnightblue" points="299.28,-177.7 289.04,-180.41 298.73,-184.68 299.28,-177.7"/>
</g>
<!-- Node36&#45;&gt;Node5 -->
<g id="edge62" class="edge">
<title>Node36&#45;&gt;Node5</title>
<path fill="none" stroke="midnightblue" d="M881.74,-224.17C879.03,-197.02 868.03,-113.11 831.5,-56 823.86,-44.06 812.12,-33.51 801.73,-25.64"/>
<polygon fill="midnightblue" stroke="midnightblue" points="803.6,-22.67 793.43,-19.68 799.51,-28.35 803.6,-22.67"/>
</g>
<!-- Node37&#45;&gt;Node14 -->
<g id="edge64" class="edge">
<title>Node37&#45;&gt;Node14</title>
<path fill="none" stroke="midnightblue" d="M203.12,-672.08C206.96,-664.69 212.52,-653.95 217.26,-644.81"/>
<polygon fill="midnightblue" stroke="midnightblue" points="220.47,-646.24 221.96,-635.75 214.25,-643.02 220.47,-646.24"/>
</g>
<!-- Node37&#45;&gt;Node17 -->
<g id="edge65" class="edge">
<title>Node37&#45;&gt;Node17</title>
<path fill="none" stroke="midnightblue" d="M198.25,-672.37C198,-663.32 197.64,-648.66 197.5,-636 196.63,-557.33 199.5,-537.67 199.5,-459 199.5,-459 199.5,-459 199.5,-289 199.5,-258.2 206.89,-249.93 223.5,-224 230.62,-212.89 240.89,-202.35 249.82,-194.27"/>
<polygon fill="midnightblue" stroke="midnightblue" points="252.26,-196.79 257.52,-187.59 247.67,-191.5 252.26,-196.79"/>
</g>
</g>
</svg>
        <g id="navigator" transform="translate(0 0)" fill="#404254">
                <rect fill="#f2f5e9" fill-opacity="0.5" stroke="#606060" stroke-width=".5" x="0" y="0" width="60" height="60"/>
                <use id="zoomplus" xlink:href="#zoomPlus" x="17" y="9" onmousedown="handleZoom(evt,'in')"/>
                <use id="zoomminus" xlink:href="#zoomMin" x="42" y="9" onmousedown="handleZoom(evt,'out')"/>
                <use id="reset" xlink:href="#resetDef" x="30" y="36" onmousedown="handleReset()"/>
                <g id="arrowUp" xlink:href="#dirArrow" transform="translate(30 24)" onmousedown="handlePan(0,-1)">
                  <use xlink:href="#rim" fill="#404040">
                        <set attributeName="fill" to="#808080" begin="arrowUp.mouseover" end="arrowUp.mouseout"/>
                  </use>
                  <path fill="none" stroke="white" stroke-width="1.5" d="M0,-3.0v7 M-2.5,-0.5L0,-3.0L2.5,-0.5"/>
                </g>
                <g id="arrowRight" xlink:href="#dirArrow" transform="rotate(90) translate(36 -43)" onmousedown="handlePan(1,0)">
                  <use xlink:href="#rim" fill="#404040">
                        <set attributeName="fill" to="#808080" begin="arrowRight.mouseover" end="arrowRight.mouseout"/>
                  </use>
                  <path fill="none" stroke="white" stroke-width="1.5" d="M0,-3.0v7 M-2.5,-0.5L0,-3.0L2.5,-0.5"/>
                </g>
                <g id="arrowDown" xlink:href="#dirArrow" transform="rotate(180) translate(-30 -48)" onmousedown="handlePan(0,1)">
                  <use xlink:href="#rim" fill="#404040">
                        <set attributeName="fill" to="#808080" begin="arrowDown.mouseover" end="arrowDown.mouseout"/>
                  </use>
                  <path fill="none" stroke="white" stroke-width="1.5" d="M0,-3.0v7 M-2.5,-0.5L0,-3.0L2.5,-0.5"/>
                </g>
                <g id="arrowLeft" xlink:href="#dirArrow" transform="rotate(270) translate(-36 17)" onmousedown="handlePan(-1,0)">
                  <use xlink:href="#rim" fill="#404040">
                        <set attributeName="fill" to="#808080" begin="arrowLeft.mouseover" end="arrowLeft.mouseout"/>
                  </use>
                  <path fill="none" stroke="white" stroke-width="1.5" d="M0,-3.0v7 M-2.5,-0.5L0,-3.0L2.5,-0.5"/>
                </g>
        </g>
        <svg viewBox="0 0 15 15" width="100%" height="30px" preserveAspectRatio="xMaxYMin meet">
         <g id="arrow_out" transform="scale(0.3 0.3)">
          <a xlink:href="flash_8h__incl_org.svg" target="_base">
           <rect id="button" ry="5" rx="5" y="6" x="6" height="38" width="38"
                fill="#f2f5e9" fill-opacity="0.5" stroke="#606060" stroke-width="1.0"/>
           <path id="arrow"
             d="M 11.500037,31.436501 C 11.940474,20.09759 22.043105,11.32322 32.158766,21.979434 L 37.068811,17.246167 C 37.068811,17.246167 37.088388,32 37.088388,32 L 22.160133,31.978069 C 22.160133,31.978069 26.997745,27.140456 26.997745,27.140456 C 18.528582,18.264221 13.291696,25.230495 11.500037,31.436501 z"
             style="fill:#404040;"/>
          </a>
         </g>
        </svg>
</svg>
