<?xml version="1.0" encoding="UTF-8" standalone="no"?>
<!DOCTYPE svg PUBLIC "-//W3C//DTD SVG 1.1//EN"
 "http://www.w3.org/Graphics/SVG/1.1/DTD/svg11.dtd">
<!-- Generated by graphviz version 2.43.0 (0)
 -->
<!-- Title: include/font.h Pages: 1 -->
<svg width="188pt" height="196pt"
 viewBox="0.00 0.00 188.00 196.00" xmlns="http://www.w3.org/2000/svg" xmlns:xlink="http://www.w3.org/1999/xlink">
<g id="graph0" class="graph" transform="scale(1 1) rotate(0) translate(4 192)">
<title>include/font.h</title>
<polygon fill="white" stroke="transparent" points="-4,4 -4,-192 184,-192 184,4 -4,4"/>
<!-- Node1 -->
<g id="node1" class="node">
<title>Node1</title>
<g id="a_node1"><a xlink:title="Font system.">
<polygon fill="#bfbfbf" stroke="black" points="41,-168.5 41,-187.5 124,-187.5 124,-168.5 41,-168.5"/>
<text text-anchor="middle" x="82.5" y="-175.5" font-family="Helvetica,sans-Serif" font-size="10.00">include/font.h</text>
</a>
</g>
</g>
<!-- Node2 -->
<g id="node2" class="node">
<title>Node2</title>
<g id="a_node2"><a xlink:href="screen_8c.html" target="_top" xlink:title=" ">
<polygon fill="white" stroke="black" points="0,-56.5 0,-75.5 89,-75.5 89,-56.5 0,-56.5"/>
<text text-anchor="middle" x="44.5" y="-63.5" font-family="Helvetica,sans-Serif" font-size="10.00">src/P2/screen.c</text>
</a>
</g>
</g>
<!-- Node1&#45;&gt;Node2 -->
<g id="edge1" class="edge">
<title>Node1&#45;&gt;Node2</title>
<path fill="none" stroke="midnightblue" d="M74.43,-159.21C70.86,-151.01 66.74,-141.1 63.5,-132 56.4,-112.06 49.89,-88.03 46.65,-75.51"/>
<polygon fill="midnightblue" stroke="midnightblue" points="71.3,-160.78 78.56,-168.49 77.69,-157.93 71.3,-160.78"/>
</g>
<!-- Node3 -->
<g id="node3" class="node">
<title>Node3</title>
<g id="a_node3"><a xlink:href="screen_8h.html" target="_top" xlink:title="User interface manager.">
<polygon fill="white" stroke="black" points="72.5,-112.5 72.5,-131.5 168.5,-131.5 168.5,-112.5 72.5,-112.5"/>
<text text-anchor="middle" x="120.5" y="-119.5" font-family="Helvetica,sans-Serif" font-size="10.00">include/screen.h</text>
</a>
</g>
</g>
<!-- Node1&#45;&gt;Node3 -->
<g id="edge2" class="edge">
<title>Node1&#45;&gt;Node3</title>
<path fill="none" stroke="midnightblue" d="M94.56,-159.86C101.14,-150.5 109.01,-139.33 114.34,-131.75"/>
<polygon fill="midnightblue" stroke="midnightblue" points="91.67,-157.89 88.77,-168.08 97.39,-161.92 91.67,-157.89"/>
</g>
<!-- Node3&#45;&gt;Node2 -->
<g id="edge3" class="edge">
<title>Node3&#45;&gt;Node2</title>
<path fill="none" stroke="midnightblue" d="M99.92,-106.38C86.19,-96.62 68.57,-84.11 56.93,-75.83"/>
<polygon fill="midnightblue" stroke="midnightblue" points="98.11,-109.38 108.29,-112.32 102.16,-103.68 98.11,-109.38"/>
</g>
<!-- Node4 -->
<g id="node4" class="node">
<title>Node4</title>
<g id="a_node4"><a xlink:href="ui_8h.html" target="_top" xlink:title="User interface.">
<polygon fill="white" stroke="black" points="107,-56.5 107,-75.5 180,-75.5 180,-56.5 107,-56.5"/>
<text text-anchor="middle" x="143.5" y="-63.5" font-family="Helvetica,sans-Serif" font-size="10.00">include/ui.h</text>
</a>
</g>
</g>
<!-- Node3&#45;&gt;Node4 -->
<g id="edge4" class="edge">
<title>Node3&#45;&gt;Node4</title>
<path fill="none" stroke="midnightblue" d="M128.3,-102.69C132.18,-93.59 136.68,-83.01 139.77,-75.75"/>
<polygon fill="midnightblue" stroke="midnightblue" points="125,-101.51 124.3,-112.08 131.44,-104.25 125,-101.51"/>
</g>
<!-- Node5 -->
<g id="node5" class="node">
<title>Node5</title>
<g id="a_node5"><a xlink:href="ui_8c.html" target="_top" xlink:title=" ">
<polygon fill="white" stroke="black" points="110.5,-0.5 110.5,-19.5 176.5,-19.5 176.5,-0.5 110.5,-0.5"/>
<text text-anchor="middle" x="143.5" y="-7.5" font-family="Helvetica,sans-Serif" font-size="10.00">src/P2/ui.c</text>
</a>
</g>
</g>
<!-- Node4&#45;&gt;Node5 -->
<g id="edge5" class="edge">
<title>Node4&#45;&gt;Node5</title>
<path fill="none" stroke="midnightblue" d="M143.5,-45.8C143.5,-36.91 143.5,-26.78 143.5,-19.75"/>
<polygon fill="midnightblue" stroke="midnightblue" points="140,-46.08 143.5,-56.08 147,-46.08 140,-46.08"/>
</g>
</g>
</svg>
