<?xml version="1.0" encoding="UTF-8" standalone="no"?>
<!DOCTYPE svg PUBLIC "-//W3C//DTD SVG 1.1//EN"
 "http://www.w3.org/Graphics/SVG/1.1/DTD/svg11.dtd">
<!-- Generated by graphviz version 2.43.0 (0)
 -->
<!-- Title: include/font.h Pages: 1 -->
<svg width="708pt" height="532pt"
 viewBox="0.00 0.00 707.50 532.00" xmlns="http://www.w3.org/2000/svg" xmlns:xlink="http://www.w3.org/1999/xlink">
<g id="graph0" class="graph" transform="scale(1 1) rotate(0) translate(4 528)">
<title>include/font.h</title>
<polygon fill="white" stroke="transparent" points="-4,4 -4,-528 703.5,-528 703.5,4 -4,4"/>
<!-- Node1 -->
<g id="node1" class="node">
<title>Node1</title>
<g id="a_node1"><a xlink:title="Font system.">
<polygon fill="#bfbfbf" stroke="black" points="72.5,-504.5 72.5,-523.5 155.5,-523.5 155.5,-504.5 72.5,-504.5"/>
<text text-anchor="middle" x="114" y="-511.5" font-family="Helvetica,sans-Serif" font-size="10.00">include/font.h</text>
</a>
</g>
</g>
<!-- Node2 -->
<g id="node2" class="node">
<title>Node2</title>
<g id="a_node2"><a xlink:href="screen_8c.html" target="_top" xlink:title=" ">
<polygon fill="white" stroke="black" points="15.5,-392.5 15.5,-411.5 104.5,-411.5 104.5,-392.5 15.5,-392.5"/>
<text text-anchor="middle" x="60" y="-399.5" font-family="Helvetica,sans-Serif" font-size="10.00">src/P2/screen.c</text>
</a>
</g>
</g>
<!-- Node1&#45;&gt;Node2 -->
<g id="edge1" class="edge">
<title>Node1&#45;&gt;Node2</title>
<path fill="none" stroke="midnightblue" d="M105.32,-495.32C93.56,-471.37 73.03,-429.55 64.22,-411.59"/>
<polygon fill="midnightblue" stroke="midnightblue" points="102.21,-496.93 109.76,-504.37 108.5,-493.85 102.21,-496.93"/>
</g>
<!-- Node3 -->
<g id="node3" class="node">
<title>Node3</title>
<g id="a_node3"><a xlink:href="screen_8h.html" target="_top" xlink:title="User interface manager.">
<polygon fill="white" stroke="black" points="112,-448.5 112,-467.5 208,-467.5 208,-448.5 112,-448.5"/>
<text text-anchor="middle" x="160" y="-455.5" font-family="Helvetica,sans-Serif" font-size="10.00">include/screen.h</text>
</a>
</g>
</g>
<!-- Node1&#45;&gt;Node3 -->
<g id="edge2" class="edge">
<title>Node1&#45;&gt;Node3</title>
<path fill="none" stroke="midnightblue" d="M128.11,-496.43C136.18,-486.97 145.96,-475.48 152.55,-467.75"/>
<polygon fill="midnightblue" stroke="midnightblue" points="125.42,-494.2 121.6,-504.08 130.75,-498.74 125.42,-494.2"/>
</g>
<!-- Node3&#45;&gt;Node2 -->
<g id="edge3" class="edge">
<title>Node3&#45;&gt;Node2</title>
<path fill="none" stroke="midnightblue" d="M134.91,-443.45C116.45,-433.48 91.9,-420.23 76.03,-411.65"/>
<polygon fill="midnightblue" stroke="midnightblue" points="133.47,-446.65 143.93,-448.32 136.8,-440.49 133.47,-446.65"/>
</g>
<!-- Node4 -->
<g id="node4" class="node">
<title>Node4</title>
<g id="a_node4"><a xlink:href="binoc_8h.html" target="_top" xlink:title="Binoc&#45;u&#45;com.">
<polygon fill="white" stroke="black" points="123,-392.5 123,-411.5 213,-411.5 213,-392.5 123,-392.5"/>
<text text-anchor="middle" x="168" y="-399.5" font-family="Helvetica,sans-Serif" font-size="10.00">include/binoc.h</text>
</a>
</g>
</g>
<!-- Node3&#45;&gt;Node4 -->
<g id="edge4" class="edge">
<title>Node3&#45;&gt;Node4</title>
<path fill="none" stroke="midnightblue" d="M162.8,-438.1C164.13,-429.14 165.65,-418.86 166.7,-411.75"/>
<polygon fill="midnightblue" stroke="midnightblue" points="159.32,-437.68 161.32,-448.08 166.25,-438.7 159.32,-437.68"/>
</g>
<!-- Node25 -->
<g id="node25" class="node">
<title>Node25</title>
<g id="a_node25"><a xlink:href="ui_8h.html" target="_top" xlink:title="User interface.">
<polygon fill="white" stroke="black" points="279.5,-392.5 279.5,-411.5 352.5,-411.5 352.5,-392.5 279.5,-392.5"/>
<text text-anchor="middle" x="316" y="-399.5" font-family="Helvetica,sans-Serif" font-size="10.00">include/ui.h</text>
</a>
</g>
</g>
<!-- Node3&#45;&gt;Node25 -->
<g id="edge30" class="edge">
<title>Node3&#45;&gt;Node25</title>
<path fill="none" stroke="midnightblue" d="M194.17,-445.17C223.54,-435 265.2,-420.59 291.4,-411.52"/>
<polygon fill="midnightblue" stroke="midnightblue" points="193.02,-441.86 184.72,-448.44 195.31,-448.48 193.02,-441.86"/>
</g>
<!-- Node5 -->
<g id="node5" class="node">
<title>Node5</title>
<g id="a_node5"><a xlink:href="binoc_8c.html" target="_top" xlink:title=" ">
<polygon fill="white" stroke="black" points="229.5,-336.5 229.5,-355.5 312.5,-355.5 312.5,-336.5 229.5,-336.5"/>
<text text-anchor="middle" x="271" y="-343.5" font-family="Helvetica,sans-Serif" font-size="10.00">src/P2/binoc.c</text>
</a>
</g>
</g>
<!-- Node4&#45;&gt;Node5 -->
<g id="edge5" class="edge">
<title>Node4&#45;&gt;Node5</title>
<path fill="none" stroke="midnightblue" d="M193.58,-387.59C212.62,-377.61 238.06,-364.27 254.49,-355.65"/>
<polygon fill="midnightblue" stroke="midnightblue" points="191.78,-384.58 184.55,-392.32 195.03,-390.78 191.78,-384.58"/>
</g>
<!-- Node6 -->
<g id="node6" class="node">
<title>Node6</title>
<g id="a_node6"><a xlink:href="cm_8c.html" target="_top" xlink:title=" ">
<polygon fill="white" stroke="black" points="0,-112.5 0,-131.5 72,-131.5 72,-112.5 0,-112.5"/>
<text text-anchor="middle" x="36" y="-119.5" font-family="Helvetica,sans-Serif" font-size="10.00">src/P2/cm.c</text>
</a>
</g>
</g>
<!-- Node4&#45;&gt;Node6 -->
<g id="edge6" class="edge">
<title>Node4&#45;&gt;Node6</title>
<path fill="none" stroke="midnightblue" d="M135.01,-388.48C98.27,-372.13 44,-339.74 44,-291 44,-291 44,-291 44,-233 44,-195.09 39.21,-150.02 37.05,-131.54"/>
<polygon fill="midnightblue" stroke="midnightblue" points="133.81,-391.77 144.38,-392.48 136.56,-385.33 133.81,-391.77"/>
</g>
<!-- Node7 -->
<g id="node7" class="node">
<title>Node7</title>
<g id="a_node7"><a xlink:href="cm_8h.html" target="_top" xlink:title="Game camera.">
<polygon fill="white" stroke="black" points="79.5,-168.5 79.5,-187.5 158.5,-187.5 158.5,-168.5 79.5,-168.5"/>
<text text-anchor="middle" x="119" y="-175.5" font-family="Helvetica,sans-Serif" font-size="10.00">include/cm.h</text>
</a>
</g>
</g>
<!-- Node4&#45;&gt;Node7 -->
<g id="edge7" class="edge">
<title>Node4&#45;&gt;Node7</title>
<path fill="none" stroke="midnightblue" d="M143.63,-386.73C133.05,-379.09 121.78,-368.64 116,-356 88.91,-296.74 108.75,-214.24 116.36,-187.64"/>
<polygon fill="midnightblue" stroke="midnightblue" points="141.96,-389.82 152.22,-392.47 145.85,-384 141.96,-389.82"/>
</g>
<!-- Node10 -->
<g id="node10" class="node">
<title>Node10</title>
<g id="a_node10"><a xlink:href="prog_8h.html" target="_top" xlink:title=" ">
<polygon fill="white" stroke="black" points="125,-336.5 125,-355.5 211,-355.5 211,-336.5 125,-336.5"/>
<text text-anchor="middle" x="168" y="-343.5" font-family="Helvetica,sans-Serif" font-size="10.00">include/prog.h</text>
</a>
</g>
</g>
<!-- Node4&#45;&gt;Node10 -->
<g id="edge11" class="edge">
<title>Node4&#45;&gt;Node10</title>
<path fill="none" stroke="midnightblue" d="M168,-381.8C168,-372.91 168,-362.78 168,-355.75"/>
<polygon fill="midnightblue" stroke="midnightblue" points="164.5,-382.08 168,-392.08 171.5,-382.08 164.5,-382.08"/>
</g>
<!-- Node7&#45;&gt;Node6 -->
<g id="edge8" class="edge">
<title>Node7&#45;&gt;Node6</title>
<path fill="none" stroke="midnightblue" d="M96.9,-162.62C81.74,-152.76 62.12,-139.99 49.3,-131.65"/>
<polygon fill="midnightblue" stroke="midnightblue" points="95.37,-165.8 105.66,-168.32 99.19,-159.94 95.37,-165.8"/>
</g>
<!-- Node8 -->
<g id="node8" class="node">
<title>Node8</title>
<g id="a_node8"><a xlink:href="flash_8h.html" target="_top" xlink:title="Flash (might be flash animation, or literal screen flashes).">
<polygon fill="white" stroke="black" points="90.5,-112.5 90.5,-131.5 177.5,-131.5 177.5,-112.5 90.5,-112.5"/>
<text text-anchor="middle" x="134" y="-119.5" font-family="Helvetica,sans-Serif" font-size="10.00">include/flash.h</text>
</a>
</g>
</g>
<!-- Node7&#45;&gt;Node8 -->
<g id="edge9" class="edge">
<title>Node7&#45;&gt;Node8</title>
<path fill="none" stroke="midnightblue" d="M124.17,-158.4C126.68,-149.36 129.57,-138.94 131.57,-131.75"/>
<polygon fill="midnightblue" stroke="midnightblue" points="120.78,-157.51 121.48,-168.08 127.53,-159.38 120.78,-157.51"/>
</g>
<!-- Node9 -->
<g id="node9" class="node">
<title>Node9</title>
<g id="a_node9"><a xlink:href="flash_8c.html" target="_top" xlink:title=" ">
<polygon fill="white" stroke="black" points="94,-56.5 94,-75.5 174,-75.5 174,-56.5 94,-56.5"/>
<text text-anchor="middle" x="134" y="-63.5" font-family="Helvetica,sans-Serif" font-size="10.00">src/P2/flash.c</text>
</a>
</g>
</g>
<!-- Node8&#45;&gt;Node9 -->
<g id="edge10" class="edge">
<title>Node8&#45;&gt;Node9</title>
<path fill="none" stroke="midnightblue" d="M134,-101.8C134,-92.91 134,-82.78 134,-75.75"/>
<polygon fill="midnightblue" stroke="midnightblue" points="130.5,-102.08 134,-112.08 137.5,-102.08 130.5,-102.08"/>
</g>
<!-- Node11 -->
<g id="node11" class="node">
<title>Node11</title>
<g id="a_node11"><a xlink:href="main_8c.html" target="_top" xlink:title=" ">
<polygon fill="white" stroke="black" points="125,-280.5 125,-299.5 207,-299.5 207,-280.5 125,-280.5"/>
<text text-anchor="middle" x="166" y="-287.5" font-family="Helvetica,sans-Serif" font-size="10.00">src/P2/main.c</text>
</a>
</g>
</g>
<!-- Node10&#45;&gt;Node11 -->
<g id="edge12" class="edge">
<title>Node10&#45;&gt;Node11</title>
<path fill="none" stroke="midnightblue" d="M167.29,-325.8C166.96,-316.91 166.58,-306.78 166.32,-299.75"/>
<polygon fill="midnightblue" stroke="midnightblue" points="163.8,-326.22 167.67,-336.08 170.8,-325.96 163.8,-326.22"/>
</g>
<!-- Node12 -->
<g id="node12" class="node">
<title>Node12</title>
<g id="a_node12"><a xlink:href="prog_8c.html" target="_top" xlink:title=" ">
<polygon fill="white" stroke="black" points="225.5,-280.5 225.5,-299.5 304.5,-299.5 304.5,-280.5 225.5,-280.5"/>
<text text-anchor="middle" x="265" y="-287.5" font-family="Helvetica,sans-Serif" font-size="10.00">src/P2/prog.c</text>
</a>
</g>
</g>
<!-- Node10&#45;&gt;Node12 -->
<g id="edge13" class="edge">
<title>Node10&#45;&gt;Node12</title>
<path fill="none" stroke="midnightblue" d="M192.34,-331.45C210.24,-321.48 234.05,-308.23 249.45,-299.65"/>
<polygon fill="midnightblue" stroke="midnightblue" points="190.62,-328.4 183.58,-336.32 194.02,-334.52 190.62,-328.4"/>
</g>
<!-- Node13 -->
<g id="node13" class="node">
<title>Node13</title>
<g id="a_node13"><a xlink:href="bis_8h.html" target="_top" xlink:title="Binary Input Stream.">
<polygon fill="white" stroke="black" points="323,-280.5 323,-299.5 401,-299.5 401,-280.5 323,-280.5"/>
<text text-anchor="middle" x="362" y="-287.5" font-family="Helvetica,sans-Serif" font-size="10.00">include/bis.h</text>
</a>
</g>
</g>
<!-- Node10&#45;&gt;Node13 -->
<g id="edge14" class="edge">
<title>Node10&#45;&gt;Node13</title>
<path fill="none" stroke="midnightblue" d="M208.6,-333.7C245.22,-323.51 298.26,-308.74 331.4,-299.52"/>
<polygon fill="midnightblue" stroke="midnightblue" points="207.44,-330.39 198.74,-336.44 209.31,-337.13 207.44,-330.39"/>
</g>
<!-- Node14 -->
<g id="node14" class="node">
<title>Node14</title>
<g id="a_node14"><a xlink:href="bis_8c.html" target="_top" xlink:title=" ">
<polygon fill="white" stroke="black" points="628.5,-224.5 628.5,-243.5 699.5,-243.5 699.5,-224.5 628.5,-224.5"/>
<text text-anchor="middle" x="664" y="-231.5" font-family="Helvetica,sans-Serif" font-size="10.00">src/P2/bis.c</text>
</a>
</g>
</g>
<!-- Node13&#45;&gt;Node14 -->
<g id="edge15" class="edge">
<title>Node13&#45;&gt;Node14</title>
<path fill="none" stroke="midnightblue" d="M411.34,-280.21C462.14,-271.15 543.61,-256.62 614,-244 618.69,-243.16 623.62,-242.27 628.49,-241.4"/>
<polygon fill="midnightblue" stroke="midnightblue" points="410.52,-276.8 401.29,-282 411.75,-283.69 410.52,-276.8"/>
</g>
<!-- Node15 -->
<g id="node15" class="node">
<title>Node15</title>
<g id="a_node15"><a xlink:href="coin_8c.html" target="_top" xlink:title=" ">
<polygon fill="white" stroke="black" points="237.5,-56.5 237.5,-75.5 314.5,-75.5 314.5,-56.5 237.5,-56.5"/>
<text text-anchor="middle" x="276" y="-63.5" font-family="Helvetica,sans-Serif" font-size="10.00">src/P2/coin.c</text>
</a>
</g>
</g>
<!-- Node13&#45;&gt;Node15 -->
<g id="edge16" class="edge">
<title>Node13&#45;&gt;Node15</title>
<path fill="none" stroke="midnightblue" d="M331.47,-276.05C316.13,-268.41 298.08,-257.57 285,-244 245.82,-203.34 238.75,-186.77 225,-132 222.84,-123.38 221.34,-120.1 225,-112 232.19,-96.07 248.11,-83.52 260.27,-75.76"/>
<polygon fill="midnightblue" stroke="midnightblue" points="330.06,-279.26 340.6,-280.39 333.07,-272.93 330.06,-279.26"/>
</g>
<!-- Node16 -->
<g id="node16" class="node">
<title>Node16</title>
<g id="a_node16"><a xlink:href="chkpnt_8h.html" target="_top" xlink:title="Checkpoint system.">
<polygon fill="white" stroke="black" points="483.5,-112.5 483.5,-131.5 580.5,-131.5 580.5,-112.5 483.5,-112.5"/>
<text text-anchor="middle" x="532" y="-119.5" font-family="Helvetica,sans-Serif" font-size="10.00">include/chkpnt.h</text>
</a>
</g>
</g>
<!-- Node13&#45;&gt;Node16 -->
<g id="edge17" class="edge">
<title>Node13&#45;&gt;Node16</title>
<path fill="none" stroke="midnightblue" d="M411.23,-281.84C463.55,-271.32 543.76,-246.19 581,-188 594.56,-166.81 565.57,-143.66 546.65,-131.52"/>
<polygon fill="midnightblue" stroke="midnightblue" points="410.33,-278.45 401.16,-283.76 411.63,-285.33 410.33,-278.45"/>
</g>
<!-- Node20 -->
<g id="node20" class="node">
<title>Node20</title>
<g id="a_node20"><a xlink:href="xform_8h.html" target="_top" xlink:title="Transform.">
<polygon fill="white" stroke="black" points="293.5,-224.5 293.5,-243.5 386.5,-243.5 386.5,-224.5 293.5,-224.5"/>
<text text-anchor="middle" x="340" y="-231.5" font-family="Helvetica,sans-Serif" font-size="10.00">include/xform.h</text>
</a>
</g>
</g>
<!-- Node13&#45;&gt;Node20 -->
<g id="edge22" class="edge">
<title>Node13&#45;&gt;Node20</title>
<path fill="none" stroke="midnightblue" d="M354.54,-270.69C350.83,-261.59 346.52,-251.01 343.57,-243.75"/>
<polygon fill="midnightblue" stroke="midnightblue" points="351.35,-272.14 358.37,-280.08 357.84,-269.5 351.35,-272.14"/>
</g>
<!-- Node16&#45;&gt;Node15 -->
<g id="edge19" class="edge">
<title>Node16&#45;&gt;Node15</title>
<path fill="none" stroke="midnightblue" d="M481.37,-110.32C432.38,-99.99 359.19,-84.55 314.7,-75.16"/>
<polygon fill="midnightblue" stroke="midnightblue" points="480.93,-113.8 491.44,-112.44 482.37,-106.95 480.93,-113.8"/>
</g>
<!-- Node17 -->
<g id="node17" class="node">
<title>Node17</title>
<g id="a_node17"><a xlink:href="chkpnt_8c.html" target="_top" xlink:title=" ">
<polygon fill="white" stroke="black" points="545,-56.5 545,-75.5 635,-75.5 635,-56.5 545,-56.5"/>
<text text-anchor="middle" x="590" y="-63.5" font-family="Helvetica,sans-Serif" font-size="10.00">src/P2/chkpnt.c</text>
</a>
</g>
</g>
<!-- Node16&#45;&gt;Node17 -->
<g id="edge18" class="edge">
<title>Node16&#45;&gt;Node17</title>
<path fill="none" stroke="midnightblue" d="M548.91,-105.25C559.2,-95.67 571.97,-83.79 580.51,-75.83"/>
<polygon fill="midnightblue" stroke="midnightblue" points="546.25,-102.95 541.32,-112.32 551.02,-108.07 546.25,-102.95"/>
</g>
<!-- Node18 -->
<g id="node18" class="node">
<title>Node18</title>
<g id="a_node18"><a xlink:href="difficulty_8h.html" target="_top" xlink:title="Dynamic difficulty system.">
<polygon fill="white" stroke="black" points="421.5,-56.5 421.5,-75.5 526.5,-75.5 526.5,-56.5 421.5,-56.5"/>
<text text-anchor="middle" x="474" y="-63.5" font-family="Helvetica,sans-Serif" font-size="10.00">include/difficulty.h</text>
</a>
</g>
</g>
<!-- Node16&#45;&gt;Node18 -->
<g id="edge20" class="edge">
<title>Node16&#45;&gt;Node18</title>
<path fill="none" stroke="midnightblue" d="M515.09,-105.25C504.8,-95.67 492.03,-83.79 483.49,-75.83"/>
<polygon fill="midnightblue" stroke="midnightblue" points="512.98,-108.07 522.68,-112.32 517.75,-102.95 512.98,-108.07"/>
</g>
<!-- Node19 -->
<g id="node19" class="node">
<title>Node19</title>
<g id="a_node19"><a xlink:href="difficulty_8c.html" target="_top" xlink:title=" ">
<polygon fill="white" stroke="black" points="425,-0.5 425,-19.5 523,-19.5 523,-0.5 425,-0.5"/>
<text text-anchor="middle" x="474" y="-7.5" font-family="Helvetica,sans-Serif" font-size="10.00">src/P2/difficulty.c</text>
</a>
</g>
</g>
<!-- Node18&#45;&gt;Node19 -->
<g id="edge21" class="edge">
<title>Node18&#45;&gt;Node19</title>
<path fill="none" stroke="midnightblue" d="M474,-45.8C474,-36.91 474,-26.78 474,-19.75"/>
<polygon fill="midnightblue" stroke="midnightblue" points="470.5,-46.08 474,-56.08 477.5,-46.08 470.5,-46.08"/>
</g>
<!-- Node20&#45;&gt;Node7 -->
<g id="edge25" class="edge">
<title>Node20&#45;&gt;Node7</title>
<path fill="none" stroke="midnightblue" d="M295.08,-222.02C253.33,-211.82 192.02,-196.84 153.85,-187.52"/>
<polygon fill="midnightblue" stroke="midnightblue" points="294.44,-225.47 304.98,-224.44 296.1,-218.67 294.44,-225.47"/>
</g>
<!-- Node21 -->
<g id="node21" class="node">
<title>Node21</title>
<g id="a_node21"><a xlink:href="xform1_8c.html" target="_top" xlink:title=" ">
<polygon fill="white" stroke="black" points="382,-168.5 382,-187.5 474,-187.5 474,-168.5 382,-168.5"/>
<text text-anchor="middle" x="428" y="-175.5" font-family="Helvetica,sans-Serif" font-size="10.00">src/P2/xform1.c</text>
</a>
</g>
</g>
<!-- Node20&#45;&gt;Node21 -->
<g id="edge23" class="edge">
<title>Node20&#45;&gt;Node21</title>
<path fill="none" stroke="midnightblue" d="M362.98,-218.9C379.11,-209 400.18,-196.07 413.9,-187.65"/>
<polygon fill="midnightblue" stroke="midnightblue" points="360.83,-216.11 354.14,-224.32 364.49,-222.08 360.83,-216.11"/>
</g>
<!-- Node22 -->
<g id="node22" class="node">
<title>Node22</title>
<g id="a_node22"><a xlink:href="xform2_8c.html" target="_top" xlink:title=" ">
<polygon fill="white" stroke="black" points="272,-168.5 272,-187.5 364,-187.5 364,-168.5 272,-168.5"/>
<text text-anchor="middle" x="318" y="-175.5" font-family="Helvetica,sans-Serif" font-size="10.00">src/P2/xform2.c</text>
</a>
</g>
</g>
<!-- Node20&#45;&gt;Node22 -->
<g id="edge24" class="edge">
<title>Node20&#45;&gt;Node22</title>
<path fill="none" stroke="midnightblue" d="M332.54,-214.69C328.83,-205.59 324.52,-195.01 321.57,-187.75"/>
<polygon fill="midnightblue" stroke="midnightblue" points="329.35,-216.14 336.37,-224.08 335.84,-213.5 329.35,-216.14"/>
</g>
<!-- Node23 -->
<g id="node23" class="node">
<title>Node23</title>
<g id="a_node23"><a xlink:href="coin_8h.html" target="_top" xlink:title="Coins, keys, and other collectibles.">
<polygon fill="white" stroke="black" points="234,-112.5 234,-131.5 318,-131.5 318,-112.5 234,-112.5"/>
<text text-anchor="middle" x="276" y="-119.5" font-family="Helvetica,sans-Serif" font-size="10.00">include/coin.h</text>
</a>
</g>
</g>
<!-- Node20&#45;&gt;Node23 -->
<g id="edge26" class="edge">
<title>Node20&#45;&gt;Node23</title>
<path fill="none" stroke="midnightblue" d="M302.43,-220.54C287.39,-213.5 271.62,-203.01 263,-188 252.58,-169.83 263.54,-144.64 270.76,-131.6"/>
<polygon fill="midnightblue" stroke="midnightblue" points="301.06,-223.76 311.63,-224.49 303.82,-217.33 301.06,-223.76"/>
</g>
<!-- Node24 -->
<g id="node24" class="node">
<title>Node24</title>
<g id="a_node24"><a xlink:href="vol_8h.html" target="_top" xlink:title="Volume object.">
<polygon fill="white" stroke="black" points="492.5,-168.5 492.5,-187.5 571.5,-187.5 571.5,-168.5 492.5,-168.5"/>
<text text-anchor="middle" x="532" y="-175.5" font-family="Helvetica,sans-Serif" font-size="10.00">include/vol.h</text>
</a>
</g>
</g>
<!-- Node20&#45;&gt;Node24 -->
<g id="edge28" class="edge">
<title>Node20&#45;&gt;Node24</title>
<path fill="none" stroke="midnightblue" d="M380.18,-221.7C416.42,-211.51 468.91,-196.74 501.72,-187.52"/>
<polygon fill="midnightblue" stroke="midnightblue" points="379.1,-218.37 370.42,-224.44 381,-225.11 379.1,-218.37"/>
</g>
<!-- Node23&#45;&gt;Node15 -->
<g id="edge27" class="edge">
<title>Node23&#45;&gt;Node15</title>
<path fill="none" stroke="midnightblue" d="M276,-101.8C276,-92.91 276,-82.78 276,-75.75"/>
<polygon fill="midnightblue" stroke="midnightblue" points="272.5,-102.08 276,-112.08 279.5,-102.08 272.5,-102.08"/>
</g>
<!-- Node24&#45;&gt;Node16 -->
<g id="edge29" class="edge">
<title>Node24&#45;&gt;Node16</title>
<path fill="none" stroke="midnightblue" d="M532,-157.8C532,-148.91 532,-138.78 532,-131.75"/>
<polygon fill="midnightblue" stroke="midnightblue" points="528.5,-158.08 532,-168.08 535.5,-158.08 528.5,-158.08"/>
</g>
<!-- Node26 -->
<g id="node26" class="node">
<title>Node26</title>
<g id="a_node26"><a xlink:href="ui_8c.html" target="_top" xlink:title=" ">
<polygon fill="white" stroke="black" points="331,-336.5 331,-355.5 397,-355.5 397,-336.5 331,-336.5"/>
<text text-anchor="middle" x="364" y="-343.5" font-family="Helvetica,sans-Serif" font-size="10.00">src/P2/ui.c</text>
</a>
</g>
</g>
<!-- Node25&#45;&gt;Node26 -->
<g id="edge31" class="edge">
<title>Node25&#45;&gt;Node26</title>
<path fill="none" stroke="midnightblue" d="M330.73,-384.43C339.14,-374.97 349.35,-363.48 356.22,-355.75"/>
<polygon fill="midnightblue" stroke="midnightblue" points="327.95,-382.28 323.93,-392.08 333.19,-386.93 327.95,-382.28"/>
</g>
</g>
</svg>
