<?xml version="1.0" encoding="UTF-8" standalone="no"?>
<!DOCTYPE svg PUBLIC "-//W3C//DTD SVG 1.1//EN"
 "http://www.w3.org/Graphics/SVG/1.1/DTD/svg11.dtd">
<!-- Generated by graphviz version 2.43.0 (0)
 -->
<!-- Title: src/P2/font.c Pages: 1 -->
<!--zoomable 577 -->

<svg id="main" version="1.1" xmlns="http://www.w3.org/2000/svg" xmlns:xlink="http://www.w3.org/1999/xlink" xml:space="preserve" onload="init(evt)">
<style type="text/css"><![CDATA[
.node, .edge {opacity: 0.7;}
.node.selected, .edge.selected {opacity: 1;}
.edge:hover path { stroke: red; }
.edge:hover polygon { stroke: red; fill: red; }
]]></style>

<defs>
  <circle id="rim" cx="0" cy="0" r="7"/>
  <circle id="rim2" cx="0" cy="0" r="3.5"/>
  <g id="zoomPlus">
    <use xlink:href="#rim" fill="#404040"><set attributeName="fill" to="#808080" begin="zoomplus.mouseover" end="zoomplus.mouseout"/></use>
    <path d="M-4,0h8M0,-4v8" fill="none" stroke="white" stroke-width="1.5" pointer-events="none"/>
  </g>
  <g id="zoomMin">
    <use xlink:href="#rim" fill="#404040"><set attributeName="fill" to="#808080" begin="zoomminus.mouseover" end="zoomminus.mouseout"/></use>
    <path d="M-4,0h8" fill="none" stroke="white" stroke-width="1.5" pointer-events="none"/>
  </g>
  <g id="arrowUp" transform="translate(30 24)">
    <use xlink:href="#rim"/>
    <path pointer-events="none" fill="none" stroke="white" stroke-width="1.5" d="M0,-3.0v7 M-2.5,-0.5L0,-3.0L2.5,-0.5"/>
  </g>
  <g id="arrowRight" transform="rotate(90) translate(36 -43)">
    <use xlink:href="#rim"/>
    <path pointer-events="none" fill="none" stroke="white" stroke-width="1.5" d="M0,-3.0v7 M-2.5,-0.5L0,-3.0L2.5,-0.5"/>
  </g>
  <g id="arrowDown" transform="rotate(180) translate(-30 -48)">
    <use xlink:href="#rim"/>
    <path pointer-events="none" fill="none" stroke="white" stroke-width="1.5" d="M0,-3.0v7 M-2.5,-0.5L0,-3.0L2.5,-0.5"/>
  </g>
  <g id="arrowLeft" transform="rotate(270) translate(-36 17)">
    <use xlink:href="#rim"/>
    <path pointer-events="none" fill="none" stroke="white" stroke-width="1.5" d="M0,-3.0v7 M-2.5,-0.5L0,-3.0L2.5,-0.5"/>
  </g>
  <g id="resetDef">
    <use xlink:href="#rim2" fill="#404040"><set attributeName="fill" to="#808080" begin="reset.mouseover" end="reset.mouseout"/></use>
  </g>
</defs>
<script type="application/ecmascript">
var viewWidth = 738;
var viewHeight = 577;
var sectionId = 'dynsection-0';
</script>
<script type="application/ecmascript" xlink:href="svg.min.js"/>
<svg id="graph" class="graph">
<g id="viewport">
<title>src/P2/font.c</title>
<!-- Node1 -->
<g id="Node000001" class="node">
<title>Node1</title>
<g id="a_Node000001"><a xlink:title=" ">
<polygon fill="#999999" stroke="#666666" points="139.44,-569 62.44,-569 62.44,-550 139.44,-550 139.44,-569"/>
<text text-anchor="middle" x="100.94" y="-557" font-family="Helvetica,sans-Serif" font-size="10.00">src/P2/font.c</text>
</a>
</g>
</g>
<!-- Node2 -->
<g id="Node000002" class="node">
<title>Node2</title>
<g id="a_Node000002"><a xlink:href="font_8h.html" target="_top" xlink:title="Font system.">
<polygon fill="white" stroke="#666666" points="377.44,-184 332.44,-184 332.44,-165 377.44,-165 377.44,-184"/>
<text text-anchor="middle" x="354.94" y="-172" font-family="Helvetica,sans-Serif" font-size="10.00">font.h</text>
</a>
</g>
</g>
<!-- Node1&#45;&gt;Node2 -->
<g id="edge1_Node000001_Node000002" class="edge">
<title>Node1&#45;&gt;Node2</title>
<g id="a_edge1_Node000001_Node000002"><a xlink:title=" ">
<path fill="none" stroke="#63b8ff" d="M100.94,-549.82C100.94,-531.48 100.94,-487.44 100.94,-450.5 100.94,-450.5 100.94,-450.5 100.94,-283.5 100.94,-188.44 253.48,-175.85 322.13,-175"/>
<polygon fill="#63b8ff" stroke="#63b8ff" points="322.41,-178.5 332.4,-174.96 322.38,-171.5 322.41,-178.5"/>
</a>
</g>
</g>
<!-- Node11 -->
<g id="Node000011" class="node">
<title>Node11</title>
<g id="a_Node000011"><a xlink:href="memory_8h.html" target="_top" xlink:title=" ">
<polygon fill="white" stroke="#666666" points="194.44,-514 129.44,-514 129.44,-495 194.44,-495 194.44,-514"/>
<text text-anchor="middle" x="161.94" y="-502" font-family="Helvetica,sans-Serif" font-size="10.00">memory.h</text>
</a>
</g>
</g>
<!-- Node1&#45;&gt;Node11 -->
<g id="edge11_Node000001_Node000011" class="edge">
<title>Node1&#45;&gt;Node11</title>
<g id="a_edge11_Node000001_Node000011"><a xlink:title=" ">
<path fill="none" stroke="#63b8ff" d="M110.74,-549.98C119.75,-542.15 133.34,-530.34 144.25,-520.86"/>
<polygon fill="#63b8ff" stroke="#63b8ff" points="146.7,-523.37 151.96,-514.17 142.11,-518.09 146.7,-523.37"/>
</a>
</g>
</g>
<!-- Node12 -->
<g id="Node000012" class="node">
<title>Node12</title>
<g id="a_Node000012"><a xlink:href="gs_8h.html" target="_top" xlink:title="Graphics synthesizer.">
<polygon fill="white" stroke="#666666" points="72.44,-514 35.44,-514 35.44,-495 72.44,-495 72.44,-514"/>
<text text-anchor="middle" x="53.94" y="-502" font-family="Helvetica,sans-Serif" font-size="10.00">gs.h</text>
</a>
</g>
</g>
<!-- Node1&#45;&gt;Node12 -->
<g id="edge12_Node000001_Node000012" class="edge">
<title>Node1&#45;&gt;Node12</title>
<g id="a_edge12_Node000001_Node000012"><a xlink:title=" ">
<path fill="none" stroke="#63b8ff" d="M93.18,-549.75C86.47,-542.18 76.6,-531.05 68.43,-521.84"/>
<polygon fill="#63b8ff" stroke="#63b8ff" points="70.81,-519.25 61.55,-514.09 65.57,-523.89 70.81,-519.25"/>
</a>
</g>
</g>
<!-- Node3 -->
<g id="Node000003" class="node">
<title>Node3</title>
<g id="a_Node000003"><a xlink:href="gifs_8h.html" target="_top" xlink:title=" ">
<polygon fill="white" stroke="#666666" points="338.94,-129 294.94,-129 294.94,-110 338.94,-110 338.94,-129"/>
<text text-anchor="middle" x="316.94" y="-117" font-family="Helvetica,sans-Serif" font-size="10.00">gifs.h</text>
</a>
</g>
</g>
<!-- Node2&#45;&gt;Node3 -->
<g id="edge2_Node000002_Node000003" class="edge">
<title>Node2&#45;&gt;Node3</title>
<g id="a_edge2_Node000002_Node000003"><a xlink:title=" ">
<path fill="none" stroke="#63b8ff" d="M348.66,-164.75C343.35,-157.34 335.58,-146.5 329.06,-137.41"/>
<polygon fill="#63b8ff" stroke="#63b8ff" points="331.77,-135.18 323.09,-129.09 326.08,-139.26 331.77,-135.18"/>
</a>
</g>
</g>
<!-- Node4 -->
<g id="Node000004" class="node">
<title>Node4</title>
<g id="a_Node000004"><a xlink:href="dmas_8h.html" target="_top" xlink:title="Direct memory access.">
<polygon fill="white" stroke="#666666" points="431.44,-74 378.44,-74 378.44,-55 431.44,-55 431.44,-74"/>
<text text-anchor="middle" x="404.94" y="-62" font-family="Helvetica,sans-Serif" font-size="10.00">dmas.h</text>
</a>
</g>
</g>
<!-- Node2&#45;&gt;Node4 -->
<g id="edge7_Node000002_Node000004" class="edge">
<title>Node2&#45;&gt;Node4</title>
<g id="a_edge7_Node000002_Node000004"><a xlink:title=" ">
<path fill="none" stroke="#63b8ff" d="M359.03,-164.66C367.24,-146.93 385.85,-106.73 396.69,-83.32"/>
<polygon fill="#63b8ff" stroke="#63b8ff" points="399.9,-84.7 400.93,-74.16 393.55,-81.76 399.9,-84.7"/>
</a>
</g>
</g>
<!-- Node8 -->
<g id="Node000008" class="node">
<title>Node8</title>
<g id="a_Node000008"><a xlink:href="eestruct_8h.html" target="_top" xlink:title="Graphics synthesizer.">
<polygon fill="white" stroke="#666666" points="496.44,-129 395.44,-129 395.44,-110 496.44,-110 496.44,-129"/>
<text text-anchor="middle" x="445.94" y="-117" font-family="Helvetica,sans-Serif" font-size="10.00">sdk/ee/eestruct.h</text>
</a>
</g>
</g>
<!-- Node2&#45;&gt;Node8 -->
<g id="edge8_Node000002_Node000008" class="edge">
<title>Node2&#45;&gt;Node8</title>
<g id="a_edge8_Node000002_Node000008"><a xlink:title=" ">
<path fill="none" stroke="#63b8ff" d="M369.56,-164.98C383.8,-156.69 405.69,-143.94 422.39,-134.22"/>
<polygon fill="#63b8ff" stroke="#63b8ff" points="424.17,-137.23 431.05,-129.17 420.65,-131.18 424.17,-137.23"/>
</a>
</g>
</g>
<!-- Node3&#45;&gt;Node4 -->
<g id="edge3_Node000003_Node000004" class="edge">
<title>Node3&#45;&gt;Node4</title>
<g id="a_edge3_Node000003_Node000004"><a xlink:title=" ">
<path fill="none" stroke="#63b8ff" d="M331.08,-109.98C344.72,-101.77 365.62,-89.18 381.71,-79.49"/>
<polygon fill="#63b8ff" stroke="#63b8ff" points="383.78,-82.33 390.54,-74.17 380.17,-76.33 383.78,-82.33"/>
</a>
</g>
</g>
<!-- Node5 -->
<g id="Node000005" class="node">
<title>Node5</title>
<g id="a_Node000005"><a xlink:href="libdma_8h.html" target="_top" xlink:title="Direct memory access library.">
<polygon fill="white" stroke="#666666" points="323.44,-19 244.44,-19 244.44,0 323.44,0 323.44,-19"/>
<text text-anchor="middle" x="283.94" y="-7" font-family="Helvetica,sans-Serif" font-size="10.00">sce/libdma.h</text>
</a>
</g>
</g>
<!-- Node4&#45;&gt;Node5 -->
<g id="edge4_Node000004_Node000005" class="edge">
<title>Node4&#45;&gt;Node5</title>
<g id="a_edge4_Node000004_Node000005"><a xlink:title=" ">
<path fill="none" stroke="#63b8ff" d="M385.5,-54.98C365.94,-46.42 335.56,-33.11 313.11,-23.28"/>
<polygon fill="#63b8ff" stroke="#63b8ff" points="314.3,-19.98 303.73,-19.17 311.49,-26.39 314.3,-19.98"/>
</a>
</g>
</g>
<!-- Node6 -->
<g id="Node000006" class="node">
<title>Node6</title>
<g id="a_Node000006"><a xlink:href="eekernel_8h.html" target="_top" xlink:title=" ">
<polygon fill="white" stroke="#666666" points="453.44,-19 350.44,-19 350.44,0 453.44,0 453.44,-19"/>
<text text-anchor="middle" x="401.94" y="-7" font-family="Helvetica,sans-Serif" font-size="10.00">sdk/ee/eekernel.h</text>
</a>
</g>
</g>
<!-- Node4&#45;&gt;Node6 -->
<g id="edge5_Node000004_Node000006" class="edge">
<title>Node4&#45;&gt;Node6</title>
<g id="a_edge5_Node000004_Node000006"><a xlink:title=" ">
<path fill="none" stroke="#63b8ff" d="M404.44,-54.75C404.05,-47.8 403.48,-37.85 402.99,-29.13"/>
<polygon fill="#63b8ff" stroke="#63b8ff" points="406.48,-28.88 402.42,-19.09 399.49,-29.27 406.48,-28.88"/>
</a>
</g>
</g>
<!-- Node7 -->
<g id="Node000007" class="node">
<title>Node7</title>
<g id="a_Node000007"><a xlink:href="vec_8h.html" target="_top" xlink:title="Vector math.">
<polygon fill="white" stroke="#666666" points="593.44,-19 550.44,-19 550.44,0 593.44,0 593.44,-19"/>
<text text-anchor="middle" x="571.94" y="-7" font-family="Helvetica,sans-Serif" font-size="10.00">vec.h</text>
</a>
</g>
</g>
<!-- Node4&#45;&gt;Node7 -->
<g id="edge6_Node000004_Node000007" class="edge">
<title>Node4&#45;&gt;Node7</title>
<g id="a_edge6_Node000004_Node000007"><a xlink:title=" ">
<path fill="none" stroke="#63b8ff" d="M431.77,-54.98C461.47,-45.56 509.28,-30.38 540.66,-20.43"/>
<polygon fill="#63b8ff" stroke="#63b8ff" points="541.75,-23.75 550.23,-17.39 539.64,-17.08 541.75,-23.75"/>
</a>
</g>
</g>
<!-- Node9 -->
<g id="Node000009" class="node">
<title>Node9</title>
<g id="a_Node000009"><a xlink:href="types_8h.html" target="_top" xlink:title="Common types used across the codebase.">
<polygon fill="white" stroke="#666666" points="502.44,-74 449.44,-74 449.44,-55 502.44,-55 502.44,-74"/>
<text text-anchor="middle" x="475.94" y="-62" font-family="Helvetica,sans-Serif" font-size="10.00">types.h</text>
</a>
</g>
</g>
<!-- Node8&#45;&gt;Node9 -->
<g id="edge9_Node000008_Node000009" class="edge">
<title>Node8&#45;&gt;Node9</title>
<g id="a_edge9_Node000008_Node000009"><a xlink:title=" ">
<path fill="none" stroke="#63b8ff" d="M450.89,-109.75C455,-102.49 460.96,-91.95 466.04,-82.98"/>
<polygon fill="#63b8ff" stroke="#63b8ff" points="469.19,-84.52 471.08,-74.09 463.1,-81.07 469.19,-84.52"/>
</a>
</g>
</g>
<!-- Node10 -->
<g id="Node000010" class="node">
<title>Node10</title>
<g id="a_Node000010"><a xlink:title=" ">
<polygon fill="#e0e0e0" stroke="#999999" points="527.94,-19 471.94,-19 471.94,0 527.94,0 527.94,-19"/>
<text text-anchor="middle" x="499.94" y="-7" font-family="Helvetica,sans-Serif" font-size="10.00">stddef.h</text>
</a>
</g>
</g>
<!-- Node9&#45;&gt;Node10 -->
<g id="edge10_Node000009_Node000010" class="edge">
<title>Node9&#45;&gt;Node10</title>
<g id="a_edge10_Node000009_Node000010"><a xlink:title=" ">
<path fill="none" stroke="#63b8ff" d="M479.9,-54.75C483.15,-47.57 487.86,-37.18 491.89,-28.27"/>
<polygon fill="#63b8ff" stroke="#63b8ff" points="495.11,-29.64 496.05,-19.09 488.73,-26.75 495.11,-29.64"/>
</a>
</g>
</g>
<!-- Node12&#45;&gt;Node5 -->
<g id="edge52_Node000012_Node000005" class="edge">
<title>Node12&#45;&gt;Node5</title>
<g id="a_edge52_Node000012_Node000005"><a xlink:title=" ">
<path fill="none" stroke="#63b8ff" d="M49.9,-494.75C41.94,-476.64 24.94,-433.55 24.94,-395.5 24.94,-395.5 24.94,-395.5 24.94,-118.5 24.94,-89.04 22.02,-74.68 43.94,-55 51,-48.65 165.9,-29.37 234.11,-18.38"/>
<polygon fill="#63b8ff" stroke="#63b8ff" points="234.91,-21.8 244.23,-16.76 233.8,-14.89 234.91,-21.8"/>
</a>
</g>
</g>
<!-- Node13 -->
<g id="Node000013" class="node">
<title>Node13</title>
<g id="a_Node000013"><a xlink:href="shd_8h.html" target="_top" xlink:title="Shaders.">
<polygon fill="white" stroke="#666666" points="319.44,-459 276.44,-459 276.44,-440 319.44,-440 319.44,-459"/>
<text text-anchor="middle" x="297.94" y="-447" font-family="Helvetica,sans-Serif" font-size="10.00">shd.h</text>
</a>
</g>
</g>
<!-- Node12&#45;&gt;Node13 -->
<g id="edge13_Node000012_Node000013" class="edge">
<title>Node12&#45;&gt;Node13</title>
<g id="a_edge13_Node000012_Node000013"><a xlink:title=" ">
<path fill="none" stroke="#63b8ff" d="M72.68,-499.43C114.33,-490.38 214.98,-468.52 266.46,-457.34"/>
<polygon fill="#63b8ff" stroke="#63b8ff" points="267.34,-460.73 276.37,-455.18 265.85,-453.89 267.34,-460.73"/>
</a>
</g>
</g>
<!-- Node13&#45;&gt;Node3 -->
<g id="edge51_Node000013_Node000003" class="edge">
<title>Node13&#45;&gt;Node3</title>
<g id="a_edge51_Node000013_Node000003"><a xlink:title=" ">
<path fill="none" stroke="#63b8ff" d="M297.94,-439.82C297.94,-421.48 297.94,-377.44 297.94,-340.5 297.94,-340.5 297.94,-340.5 297.94,-228.5 297.94,-196.56 306.1,-160.1 311.72,-138.77"/>
<polygon fill="#63b8ff" stroke="#63b8ff" points="315.1,-139.66 314.37,-129.09 308.35,-137.81 315.1,-139.66"/>
</a>
</g>
</g>
<!-- Node13&#45;&gt;Node4 -->
<g id="edge50_Node000013_Node000004" class="edge">
<title>Node13&#45;&gt;Node4</title>
<g id="a_edge50_Node000013_Node000004"><a xlink:title=" ">
<path fill="none" stroke="#63b8ff" d="M292.65,-439.9C282.21,-422.07 259.94,-379.46 259.94,-340.5 259.94,-340.5 259.94,-340.5 259.94,-173.5 259.94,-143 264.04,-131.23 285.94,-110 298.03,-98.27 338.05,-84.7 368.37,-75.66"/>
<polygon fill="#63b8ff" stroke="#63b8ff" points="369.61,-78.94 378.23,-72.77 367.65,-72.22 369.61,-78.94"/>
</a>
</g>
</g>
<!-- Node13&#45;&gt;Node8 -->
<g id="edge14_Node000013_Node000008" class="edge">
<title>Node13&#45;&gt;Node8</title>
<g id="a_edge14_Node000013_Node000008"><a xlink:title=" ">
<path fill="none" stroke="#63b8ff" d="M300.78,-439.61C311.8,-405.21 351.29,-282.4 355.94,-275 368.14,-255.57 379.8,-257.81 392.94,-239 415.55,-206.64 432.03,-163.08 440.18,-138.8"/>
<polygon fill="#63b8ff" stroke="#63b8ff" points="443.57,-139.7 443.34,-129.11 436.91,-137.54 443.57,-139.7"/>
</a>
</g>
</g>
<!-- Node14 -->
<g id="Node000014" class="node">
<title>Node14</title>
<g id="a_Node000014"><a xlink:href="bis_8h.html" target="_top" xlink:title="Binary Input Stream.">
<polygon fill="white" stroke="#666666" points="563.94,-404 523.94,-404 523.94,-385 563.94,-385 563.94,-404"/>
<text text-anchor="middle" x="543.94" y="-392" font-family="Helvetica,sans-Serif" font-size="10.00">bis.h</text>
</a>
</g>
</g>
<!-- Node13&#45;&gt;Node14 -->
<g id="edge15_Node000013_Node000014" class="edge">
<title>Node13&#45;&gt;Node14</title>
<g id="a_edge15_Node000013_Node000014"><a xlink:title=" ">
<path fill="none" stroke="#63b8ff" d="M319.77,-443.8C363.9,-434.29 463.78,-412.77 513.97,-401.96"/>
<polygon fill="#63b8ff" stroke="#63b8ff" points="514.85,-405.35 523.89,-399.82 513.37,-398.5 514.85,-405.35"/>
</a>
</g>
</g>
<!-- Node19 -->
<g id="Node000019" class="node">
<title>Node19</title>
<g id="a_Node000019"><a xlink:href="oid_8h.html" target="_top" xlink:title="Object IDs.">
<polygon fill="white" stroke="#666666" points="49.44,-19 8.44,-19 8.44,0 49.44,0 49.44,-19"/>
<text text-anchor="middle" x="28.94" y="-7" font-family="Helvetica,sans-Serif" font-size="10.00">oid.h</text>
</a>
</g>
</g>
<!-- Node13&#45;&gt;Node19 -->
<g id="edge48_Node000013_Node000019" class="edge">
<title>Node13&#45;&gt;Node19</title>
<g id="a_edge48_Node000013_Node000019"><a xlink:title=" ">
<path fill="none" stroke="#63b8ff" d="M281.27,-439.81C229.08,-411.51 68.88,-316.19 10.94,-184 -12.11,-131.42 8.85,-61.57 21.27,-28.86"/>
<polygon fill="#63b8ff" stroke="#63b8ff" points="24.65,-29.86 25.09,-19.27 18.14,-27.27 24.65,-29.86"/>
</a>
</g>
</g>
<!-- Node31 -->
<g id="Node000031" class="node">
<title>Node31</title>
<g id="a_Node000031"><a xlink:href="geom_8h.html" target="_top" xlink:title="Geometry.">
<polygon fill="white" stroke="#666666" points="692.44,-294 639.44,-294 639.44,-275 692.44,-275 692.44,-294"/>
<text text-anchor="middle" x="665.94" y="-282" font-family="Helvetica,sans-Serif" font-size="10.00">geom.h</text>
</a>
</g>
</g>
<!-- Node13&#45;&gt;Node31 -->
<g id="edge49_Node000013_Node000031" class="edge">
<title>Node13&#45;&gt;Node31</title>
<g id="a_edge49_Node000013_Node000031"><a xlink:title=" ">
<path fill="none" stroke="#63b8ff" d="M319.71,-447.11C400.1,-441.46 678,-417.18 725.94,-349 739.3,-330 715.21,-311.01 693.69,-298.82"/>
<polygon fill="#63b8ff" stroke="#63b8ff" points="695.21,-295.66 684.74,-294.03 691.91,-301.83 695.21,-295.66"/>
</a>
</g>
</g>
<!-- Node14&#45;&gt;Node7 -->
<g id="edge39_Node000014_Node000007" class="edge">
<title>Node14&#45;&gt;Node7</title>
<g id="a_edge39_Node000014_Node000007"><a xlink:title=" ">
<path fill="none" stroke="#63b8ff" d="M547.31,-384.98C554.13,-366.93 568.94,-323.41 568.94,-285.5 568.94,-285.5 568.94,-285.5 568.94,-118.5 568.94,-87.18 570.21,-50.77 571.1,-29.23"/>
<polygon fill="#63b8ff" stroke="#63b8ff" points="574.6,-29.32 571.53,-19.18 567.61,-29.02 574.6,-29.32"/>
</a>
</g>
</g>
<!-- Node15 -->
<g id="Node000015" class="node">
<title>Node15</title>
<g id="a_Node000015"><a xlink:href="prog_8h.html" target="_top" xlink:title="Progress bar.">
<polygon fill="white" stroke="#666666" points="412.44,-349 365.44,-349 365.44,-330 412.44,-330 412.44,-349"/>
<text text-anchor="middle" x="388.94" y="-337" font-family="Helvetica,sans-Serif" font-size="10.00">prog.h</text>
</a>
</g>
</g>
<!-- Node14&#45;&gt;Node15 -->
<g id="edge16_Node000014_Node000015" class="edge">
<title>Node14&#45;&gt;Node15</title>
<g id="a_edge16_Node000014_Node000015"><a xlink:title=" ">
<path fill="none" stroke="#63b8ff" d="M523.67,-386.57C497.83,-377.73 452.81,-362.34 421.97,-351.8"/>
<polygon fill="#63b8ff" stroke="#63b8ff" points="423.1,-348.48 412.5,-348.56 420.83,-355.1 423.1,-348.48"/>
</a>
</g>
</g>
<!-- Node22 -->
<g id="Node000022" class="node">
<title>Node22</title>
<g id="a_Node000022"><a xlink:href="mat_8h.html" target="_top" xlink:title="3x3 and 4x4 matrix types.">
<polygon fill="white" stroke="#666666" points="642.44,-184 597.44,-184 597.44,-165 642.44,-165 642.44,-184"/>
<text text-anchor="middle" x="619.94" y="-172" font-family="Helvetica,sans-Serif" font-size="10.00">mat.h</text>
</a>
</g>
</g>
<!-- Node14&#45;&gt;Node22 -->
<g id="edge40_Node000014_Node000022" class="edge">
<title>Node14&#45;&gt;Node22</title>
<g id="a_edge40_Node000014_Node000022"><a xlink:title=" ">
<path fill="none" stroke="#63b8ff" d="M553.85,-384.99C562.84,-376.72 575.75,-363.32 582.94,-349 609,-297.04 616.74,-227.38 619.01,-194.37"/>
<polygon fill="#63b8ff" stroke="#63b8ff" points="622.51,-194.5 619.61,-184.31 615.52,-194.09 622.51,-194.5"/>
</a>
</g>
</g>
<!-- Node30 -->
<g id="Node000030" class="node">
<title>Node30</title>
<g id="a_Node000030"><a xlink:href="clock_8h.html" target="_top" xlink:title="Engine clock.">
<polygon fill="white" stroke="#666666" points="481.44,-349 430.44,-349 430.44,-330 481.44,-330 481.44,-349"/>
<text text-anchor="middle" x="455.94" y="-337" font-family="Helvetica,sans-Serif" font-size="10.00">clock.h</text>
</a>
</g>
</g>
<!-- Node14&#45;&gt;Node30 -->
<g id="edge38_Node000014_Node000030" class="edge">
<title>Node14&#45;&gt;Node30</title>
<g id="a_edge38_Node000014_Node000030"><a xlink:title=" ">
<path fill="none" stroke="#63b8ff" d="M529.8,-384.98C516.15,-376.77 495.25,-364.18 479.16,-354.49"/>
<polygon fill="#63b8ff" stroke="#63b8ff" points="480.7,-351.33 470.33,-349.17 477.09,-357.33 480.7,-351.33"/>
</a>
</g>
</g>
<!-- Node14&#45;&gt;Node31 -->
<g id="edge41_Node000014_Node000031" class="edge">
<title>Node14&#45;&gt;Node31</title>
<g id="a_edge41_Node000014_Node000031"><a xlink:title=" ">
<path fill="none" stroke="#63b8ff" d="M563.81,-384.95C580.33,-377.2 603.82,-364.6 620.94,-349 635.56,-335.67 648.18,-316.81 656.3,-303.11"/>
<polygon fill="#63b8ff" stroke="#63b8ff" points="659.47,-304.62 661.39,-294.2 653.39,-301.15 659.47,-304.62"/>
</a>
</g>
</g>
<!-- Node32 -->
<g id="Node000032" class="node">
<title>Node32</title>
<g id="a_Node000032"><a xlink:href="cat_8h.html" target="_top" xlink:title="WAL catalog.">
<polygon fill="white" stroke="#666666" points="540.44,-349 499.44,-349 499.44,-330 540.44,-330 540.44,-349"/>
<text text-anchor="middle" x="519.94" y="-337" font-family="Helvetica,sans-Serif" font-size="10.00">cat.h</text>
</a>
</g>
</g>
<!-- Node14&#45;&gt;Node32 -->
<g id="edge44_Node000014_Node000032" class="edge">
<title>Node14&#45;&gt;Node32</title>
<g id="a_edge44_Node000014_Node000032"><a xlink:title=" ">
<path fill="none" stroke="#63b8ff" d="M539.97,-384.75C536.72,-377.57 532.02,-367.18 527.98,-358.27"/>
<polygon fill="#63b8ff" stroke="#63b8ff" points="531.14,-356.75 523.83,-349.09 524.76,-359.64 531.14,-356.75"/>
</a>
</g>
</g>
<!-- Node33 -->
<g id="Node000033" class="node">
<title>Node33</title>
<g id="a_Node000033"><a xlink:href="bsp_8h.html" target="_top" xlink:title="Binary Space Partitioning.">
<polygon fill="white" stroke="#666666" points="716.44,-349 673.44,-349 673.44,-330 716.44,-330 716.44,-349"/>
<text text-anchor="middle" x="694.94" y="-337" font-family="Helvetica,sans-Serif" font-size="10.00">bsp.h</text>
</a>
</g>
</g>
<!-- Node14&#45;&gt;Node33 -->
<g id="edge45_Node000014_Node000033" class="edge">
<title>Node14&#45;&gt;Node33</title>
<g id="a_edge45_Node000014_Node000033"><a xlink:title=" ">
<path fill="none" stroke="#63b8ff" d="M563.99,-386.46C589.5,-377.51 633.85,-361.94 663.78,-351.43"/>
<polygon fill="#63b8ff" stroke="#63b8ff" points="665.06,-354.7 673.34,-348.08 662.74,-348.09 665.06,-354.7"/>
</a>
</g>
</g>
<!-- Node16 -->
<g id="Node000016" class="node">
<title>Node16</title>
<g id="a_Node000016"><a xlink:href="binoc_8h.html" target="_top" xlink:title="Binoc&#45;u&#45;com.">
<polygon fill="white" stroke="#666666" points="416.94,-294 364.94,-294 364.94,-275 416.94,-275 416.94,-294"/>
<text text-anchor="middle" x="390.94" y="-282" font-family="Helvetica,sans-Serif" font-size="10.00">binoc.h</text>
</a>
</g>
</g>
<!-- Node15&#45;&gt;Node16 -->
<g id="edge17_Node000015_Node000016" class="edge">
<title>Node15&#45;&gt;Node16</title>
<g id="a_edge17_Node000015_Node000016"><a xlink:title=" ">
<path fill="none" stroke="#63b8ff" d="M389.27,-329.75C389.53,-322.8 389.9,-312.85 390.23,-304.13"/>
<polygon fill="#63b8ff" stroke="#63b8ff" points="393.73,-304.21 390.61,-294.09 386.74,-303.95 393.73,-304.21"/>
</a>
</g>
</g>
<!-- Node17 -->
<g id="Node000017" class="node">
<title>Node17</title>
<g id="a_Node000017"><a xlink:href="screen_8h.html" target="_top" xlink:title="GUI elements.">
<polygon fill="white" stroke="#666666" points="383.94,-239 325.94,-239 325.94,-220 383.94,-220 383.94,-239"/>
<text text-anchor="middle" x="354.94" y="-227" font-family="Helvetica,sans-Serif" font-size="10.00">screen.h</text>
</a>
</g>
</g>
<!-- Node16&#45;&gt;Node17 -->
<g id="edge18_Node000016_Node000017" class="edge">
<title>Node16&#45;&gt;Node17</title>
<g id="a_edge18_Node000016_Node000017"><a xlink:title=" ">
<path fill="none" stroke="#63b8ff" d="M384.99,-274.75C379.96,-267.34 372.6,-256.5 366.42,-247.41"/>
<polygon fill="#63b8ff" stroke="#63b8ff" points="369.29,-245.39 360.77,-239.09 363.49,-249.33 369.29,-245.39"/>
</a>
</g>
</g>
<!-- Node21 -->
<g id="Node000021" class="node">
<title>Node21</title>
<g id="a_Node000021"><a xlink:href="util_8h.html" target="_top" xlink:title="Utility functions.">
<polygon fill="white" stroke="#666666" points="510.44,-239 469.44,-239 469.44,-220 510.44,-220 510.44,-239"/>
<text text-anchor="middle" x="489.94" y="-227" font-family="Helvetica,sans-Serif" font-size="10.00">util.h</text>
</a>
</g>
</g>
<!-- Node16&#45;&gt;Node21 -->
<g id="edge23_Node000016_Node000021" class="edge">
<title>Node16&#45;&gt;Node21</title>
<g id="a_edge23_Node000016_Node000021"><a xlink:title=" ">
<path fill="none" stroke="#63b8ff" d="M406.84,-274.98C422.48,-266.61 446.59,-253.7 464.82,-243.95"/>
<polygon fill="#63b8ff" stroke="#63b8ff" points="466.58,-246.98 473.74,-239.17 463.27,-240.8 466.58,-246.98"/>
</a>
</g>
</g>
<!-- Node17&#45;&gt;Node2 -->
<g id="edge19_Node000017_Node000002" class="edge">
<title>Node17&#45;&gt;Node2</title>
<g id="a_edge19_Node000017_Node000002"><a xlink:title=" ">
<path fill="none" stroke="#63b8ff" d="M354.94,-219.75C354.94,-212.8 354.94,-202.85 354.94,-194.13"/>
<polygon fill="#63b8ff" stroke="#63b8ff" points="358.44,-194.09 354.94,-184.09 351.44,-194.09 358.44,-194.09"/>
</a>
</g>
</g>
<!-- Node18 -->
<g id="Node000018" class="node">
<title>Node18</title>
<g id="a_Node000018"><a xlink:href="game_8h.html" target="_top" xlink:title="Game state and level management.">
<polygon fill="white" stroke="#666666" points="107.44,-184 54.44,-184 54.44,-165 107.44,-165 107.44,-184"/>
<text text-anchor="middle" x="80.94" y="-172" font-family="Helvetica,sans-Serif" font-size="10.00">game.h</text>
</a>
</g>
</g>
<!-- Node17&#45;&gt;Node18 -->
<g id="edge20_Node000017_Node000018" class="edge">
<title>Node17&#45;&gt;Node18</title>
<g id="a_edge20_Node000017_Node000018"><a xlink:title=" ">
<path fill="none" stroke="#63b8ff" d="M325.87,-222.88C275.67,-213.17 172.8,-193.27 117.71,-182.61"/>
<polygon fill="#63b8ff" stroke="#63b8ff" points="118.16,-179.13 107.67,-180.67 116.83,-186.01 118.16,-179.13"/>
</a>
</g>
</g>
<!-- Node18&#45;&gt;Node19 -->
<g id="edge21_Node000018_Node000019" class="edge">
<title>Node18&#45;&gt;Node19</title>
<g id="a_edge21_Node000018_Node000019"><a xlink:title=" ">
<path fill="none" stroke="#63b8ff" d="M73.84,-164.87C67.17,-156.29 57.4,-142.51 51.94,-129 38.35,-95.45 32.63,-53.22 30.34,-29.3"/>
<polygon fill="#63b8ff" stroke="#63b8ff" points="33.81,-28.82 29.48,-19.15 26.84,-29.41 33.81,-28.82"/>
</a>
</g>
</g>
<!-- Node20 -->
<g id="Node000020" class="node">
<title>Node20</title>
<g id="a_Node000020"><a xlink:href="cid_8h.html" target="_top" xlink:title="Class IDs.">
<polygon fill="white" stroke="#666666" points="100.94,-129 60.94,-129 60.94,-110 100.94,-110 100.94,-129"/>
<text text-anchor="middle" x="80.94" y="-117" font-family="Helvetica,sans-Serif" font-size="10.00">cid.h</text>
</a>
</g>
</g>
<!-- Node18&#45;&gt;Node20 -->
<g id="edge22_Node000018_Node000020" class="edge">
<title>Node18&#45;&gt;Node20</title>
<g id="a_edge22_Node000018_Node000020"><a xlink:title=" ">
<path fill="none" stroke="#63b8ff" d="M80.94,-164.75C80.94,-157.8 80.94,-147.85 80.94,-139.13"/>
<polygon fill="#63b8ff" stroke="#63b8ff" points="84.44,-139.09 80.94,-129.09 77.44,-139.09 84.44,-139.09"/>
</a>
</g>
</g>
<!-- Node21&#45;&gt;Node7 -->
<g id="edge24_Node000021_Node000007" class="edge">
<title>Node21&#45;&gt;Node7</title>
<g id="a_edge24_Node000021_Node000007"><a xlink:title=" ">
<path fill="none" stroke="#63b8ff" d="M493.16,-219.83C502.61,-194.46 531.03,-118.18 554.94,-55 558.23,-46.29 561.92,-36.63 565.02,-28.54"/>
<polygon fill="#63b8ff" stroke="#63b8ff" points="568.35,-29.62 568.66,-19.02 561.81,-27.11 568.35,-29.62"/>
</a>
</g>
</g>
<!-- Node21&#45;&gt;Node22 -->
<g id="edge25_Node000021_Node000022" class="edge">
<title>Node21&#45;&gt;Node22</title>
<g id="a_edge25_Node000021_Node000022"><a xlink:title=" ">
<path fill="none" stroke="#63b8ff" d="M510.54,-220.1C531.8,-211.43 565.22,-197.81 589.53,-187.9"/>
<polygon fill="#63b8ff" stroke="#63b8ff" points="591.07,-191.05 599,-184.03 588.42,-184.57 591.07,-191.05"/>
</a>
</g>
</g>
<!-- Node23 -->
<g id="Node000023" class="node">
<title>Node23</title>
<g id="a_Node000023"><a xlink:href="sm_8h.html" target="_top" xlink:title="Probabilistic finite state machines.">
<polygon fill="white" stroke="#666666" points="214.44,-184 173.44,-184 173.44,-165 214.44,-165 214.44,-184"/>
<text text-anchor="middle" x="193.94" y="-172" font-family="Helvetica,sans-Serif" font-size="10.00">sm.h</text>
</a>
</g>
</g>
<!-- Node21&#45;&gt;Node23 -->
<g id="edge27_Node000021_Node000023" class="edge">
<title>Node21&#45;&gt;Node23</title>
<g id="a_edge27_Node000021_Node000023"><a xlink:title=" ">
<path fill="none" stroke="#63b8ff" d="M469.12,-224.77C417.85,-215.59 285.26,-191.85 224.81,-181.03"/>
<polygon fill="#63b8ff" stroke="#63b8ff" points="225.19,-177.54 214.73,-179.22 223.95,-184.43 225.19,-177.54"/>
</a>
</g>
</g>
<!-- Node22&#45;&gt;Node7 -->
<g id="edge26_Node000022_Node000007" class="edge">
<title>Node22&#45;&gt;Node7</title>
<g id="a_edge26_Node000022_Node000007"><a xlink:title=" ">
<path fill="none" stroke="#63b8ff" d="M617.36,-164.74C609.84,-139.2 587.82,-64.43 577.45,-29.23"/>
<polygon fill="#63b8ff" stroke="#63b8ff" points="580.71,-27.91 574.53,-19.31 574,-29.89 580.71,-27.91"/>
</a>
</g>
</g>
<!-- Node24 -->
<g id="Node000024" class="node">
<title>Node24</title>
<g id="a_Node000024"><a xlink:href="dl_8h.html" target="_top" xlink:title="Doubly&#45;linked list.">
<polygon fill="white" stroke="#666666" points="88.44,-74 53.44,-74 53.44,-55 88.44,-55 88.44,-74"/>
<text text-anchor="middle" x="70.94" y="-62" font-family="Helvetica,sans-Serif" font-size="10.00">dl.h</text>
</a>
</g>
</g>
<!-- Node23&#45;&gt;Node24 -->
<g id="edge28_Node000023_Node000024" class="edge">
<title>Node23&#45;&gt;Node24</title>
<g id="a_edge28_Node000023_Node000024"><a xlink:title=" ">
<path fill="none" stroke="#63b8ff" d="M183.87,-164.66C162.96,-146.3 114.57,-103.81 88.44,-80.87"/>
<polygon fill="#63b8ff" stroke="#63b8ff" points="90.62,-78.13 80.8,-74.16 86,-83.39 90.62,-78.13"/>
</a>
</g>
</g>
<!-- Node25 -->
<g id="Node000025" class="node">
<title>Node25</title>
<g id="a_Node000025"><a xlink:href="mq_8h.html" target="_top" xlink:title="Message queue.">
<polygon fill="white" stroke="#666666" points="360.44,-74 319.44,-74 319.44,-55 360.44,-55 360.44,-74"/>
<text text-anchor="middle" x="339.94" y="-62" font-family="Helvetica,sans-Serif" font-size="10.00">mq.h</text>
</a>
</g>
</g>
<!-- Node23&#45;&gt;Node25 -->
<g id="edge30_Node000023_Node000025" class="edge">
<title>Node23&#45;&gt;Node25</title>
<g id="a_edge30_Node000023_Node000025"><a xlink:title=" ">
<path fill="none" stroke="#63b8ff" d="M199.34,-164.65C207.84,-151.33 225.5,-125.97 245.94,-110 265.2,-94.95 290.38,-83.37 309.83,-75.8"/>
<polygon fill="#63b8ff" stroke="#63b8ff" points="311.28,-78.99 319.42,-72.21 308.83,-72.44 311.28,-78.99"/>
</a>
</g>
</g>
<!-- Node26 -->
<g id="Node000026" class="node">
<title>Node26</title>
<g id="a_Node000026"><a xlink:href="lo_8h.html" target="_top" xlink:title="Level objects.">
<polygon fill="white" stroke="#666666" points="193.44,-129 158.44,-129 158.44,-110 193.44,-110 193.44,-129"/>
<text text-anchor="middle" x="175.94" y="-117" font-family="Helvetica,sans-Serif" font-size="10.00">lo.h</text>
</a>
</g>
</g>
<!-- Node23&#45;&gt;Node26 -->
<g id="edge31_Node000023_Node000026" class="edge">
<title>Node23&#45;&gt;Node26</title>
<g id="a_edge31_Node000023_Node000026"><a xlink:title=" ">
<path fill="none" stroke="#63b8ff" d="M190.96,-164.75C188.58,-157.72 185.15,-147.62 182.17,-138.84"/>
<polygon fill="#63b8ff" stroke="#63b8ff" points="185.38,-137.43 178.85,-129.09 178.76,-139.68 185.38,-137.43"/>
</a>
</g>
</g>
<!-- Node24&#45;&gt;Node19 -->
<g id="edge29_Node000024_Node000019" class="edge">
<title>Node24&#45;&gt;Node19</title>
<g id="a_edge29_Node000024_Node000019"><a xlink:title=" ">
<path fill="none" stroke="#63b8ff" d="M64,-54.75C58.07,-47.26 49.36,-36.28 42.11,-27.13"/>
<polygon fill="#63b8ff" stroke="#63b8ff" points="44.7,-24.75 35.74,-19.09 39.21,-29.1 44.7,-24.75"/>
</a>
</g>
</g>
<!-- Node26&#45;&gt;Node19 -->
<g id="edge34_Node000026_Node000019" class="edge">
<title>Node26&#45;&gt;Node19</title>
<g id="a_edge34_Node000026_Node000019"><a xlink:title=" ">
<path fill="none" stroke="#63b8ff" d="M166.12,-109.92C151.6,-97.36 123.37,-73.47 97.94,-55 83.04,-44.18 65.6,-32.95 51.99,-24.48"/>
<polygon fill="#63b8ff" stroke="#63b8ff" points="53.6,-21.36 43.25,-19.09 49.93,-27.32 53.6,-21.36"/>
</a>
</g>
</g>
<!-- Node26&#45;&gt;Node24 -->
<g id="edge32_Node000026_Node000024" class="edge">
<title>Node26&#45;&gt;Node24</title>
<g id="a_edge32_Node000026_Node000024"><a xlink:title=" ">
<path fill="none" stroke="#63b8ff" d="M159.07,-109.98C142.33,-101.54 116.44,-88.47 97.04,-78.68"/>
<polygon fill="#63b8ff" stroke="#63b8ff" points="98.62,-75.55 88.11,-74.17 95.46,-81.8 98.62,-75.55"/>
</a>
</g>
</g>
<!-- Node26&#45;&gt;Node25 -->
<g id="edge33_Node000026_Node000025" class="edge">
<title>Node26&#45;&gt;Node25</title>
<g id="a_edge33_Node000026_Node000025"><a xlink:title=" ">
<path fill="none" stroke="#63b8ff" d="M193.49,-112.83C221.12,-103.9 275.13,-86.44 309.27,-75.41"/>
<polygon fill="#63b8ff" stroke="#63b8ff" points="310.74,-78.61 319.18,-72.21 308.59,-71.95 310.74,-78.61"/>
</a>
</g>
</g>
<!-- Node27 -->
<g id="Node000027" class="node">
<title>Node27</title>
<g id="a_Node000027"><a xlink:href="basic_8h.html" target="_top" xlink:title="Basic object.">
<polygon fill="white" stroke="#666666" points="196.44,-74 145.44,-74 145.44,-55 196.44,-55 196.44,-74"/>
<text text-anchor="middle" x="170.94" y="-62" font-family="Helvetica,sans-Serif" font-size="10.00">basic.h</text>
</a>
</g>
</g>
<!-- Node26&#45;&gt;Node27 -->
<g id="edge35_Node000026_Node000027" class="edge">
<title>Node26&#45;&gt;Node27</title>
<g id="a_edge35_Node000026_Node000027"><a xlink:title=" ">
<path fill="none" stroke="#63b8ff" d="M175.11,-109.75C174.46,-102.8 173.52,-92.85 172.69,-84.13"/>
<polygon fill="#63b8ff" stroke="#63b8ff" points="176.17,-83.72 171.75,-74.09 169.2,-84.37 176.17,-83.72"/>
</a>
</g>
</g>
<!-- Node29 -->
<g id="Node000029" class="node">
<title>Node29</title>
<g id="a_Node000029"><a xlink:href="frame_8h.html" target="_top" xlink:title=" ">
<polygon fill="white" stroke="#666666" points="300.94,-74 214.94,-74 214.94,-55 300.94,-55 300.94,-74"/>
<text text-anchor="middle" x="257.94" y="-62" font-family="Helvetica,sans-Serif" font-size="10.00">splice/frame.h</text>
</a>
</g>
</g>
<!-- Node26&#45;&gt;Node29 -->
<g id="edge37_Node000026_Node000029" class="edge">
<title>Node26&#45;&gt;Node29</title>
<g id="a_edge37_Node000026_Node000029"><a xlink:title=" ">
<path fill="none" stroke="#63b8ff" d="M189.11,-109.98C201.71,-101.84 220.94,-89.41 235.88,-79.76"/>
<polygon fill="#63b8ff" stroke="#63b8ff" points="238.02,-82.54 244.52,-74.17 234.22,-76.66 238.02,-82.54"/>
</a>
</g>
</g>
<!-- Node28 -->
<g id="Node000028" class="node">
<title>Node28</title>
<g id="a_Node000028"><a xlink:href="sidebag_8h.html" target="_top" xlink:title="Sidebag for splice.">
<polygon fill="white" stroke="#666666" points="218.44,-19 123.44,-19 123.44,0 218.44,0 218.44,-19"/>
<text text-anchor="middle" x="170.94" y="-7" font-family="Helvetica,sans-Serif" font-size="10.00">splice/sidebag.h</text>
</a>
</g>
</g>
<!-- Node27&#45;&gt;Node28 -->
<g id="edge36_Node000027_Node000028" class="edge">
<title>Node27&#45;&gt;Node28</title>
<g id="a_edge36_Node000027_Node000028"><a xlink:title=" ">
<path fill="none" stroke="#63b8ff" d="M170.94,-54.75C170.94,-47.8 170.94,-37.85 170.94,-29.13"/>
<polygon fill="#63b8ff" stroke="#63b8ff" points="174.44,-29.09 170.94,-19.09 167.44,-29.09 174.44,-29.09"/>
</a>
</g>
</g>
<!-- Node31&#45;&gt;Node7 -->
<g id="edge42_Node000031_Node000007" class="edge">
<title>Node31&#45;&gt;Node7</title>
<g id="a_edge42_Node000031_Node000007"><a xlink:title=" ">
<path fill="none" stroke="#63b8ff" d="M668.23,-274.89C672.87,-256.69 682.94,-212.89 682.94,-175.5 682.94,-175.5 682.94,-175.5 682.94,-118.5 682.94,-72.98 634.4,-40.44 601.51,-23.61"/>
<polygon fill="#63b8ff" stroke="#63b8ff" points="602.82,-20.35 592.3,-19.09 599.73,-26.64 602.82,-20.35"/>
</a>
</g>
</g>
<!-- Node31&#45;&gt;Node22 -->
<g id="edge43_Node000031_Node000022" class="edge">
<title>Node31&#45;&gt;Node22</title>
<g id="a_edge43_Node000031_Node000022"><a xlink:title=" ">
<path fill="none" stroke="#63b8ff" d="M662.17,-274.66C654.66,-257.01 637.65,-217.09 627.66,-193.64"/>
<polygon fill="#63b8ff" stroke="#63b8ff" points="630.76,-191.99 623.62,-184.16 624.32,-194.73 630.76,-191.99"/>
</a>
</g>
</g>
<!-- Node33&#45;&gt;Node7 -->
<g id="edge47_Node000033_Node000007" class="edge">
<title>Node33&#45;&gt;Node7</title>
<g id="a_edge47_Node000033_Node000007"><a xlink:title=" ">
<path fill="none" stroke="#63b8ff" d="M698.44,-329.99C705.54,-311.97 720.94,-268.49 720.94,-230.5 720.94,-230.5 720.94,-230.5 720.94,-118.5 720.94,-60.97 647.22,-30.94 603.49,-18.19"/>
<polygon fill="#63b8ff" stroke="#63b8ff" points="604.17,-14.74 593.6,-15.45 602.3,-21.49 604.17,-14.74"/>
</a>
</g>
</g>
<!-- Node33&#45;&gt;Node31 -->
<g id="edge46_Node000033_Node000031" class="edge">
<title>Node33&#45;&gt;Node31</title>
<g id="a_edge46_Node000033_Node000031"><a xlink:title=" ">
<path fill="none" stroke="#63b8ff" d="M690.15,-329.75C686.18,-322.49 680.41,-311.95 675.5,-302.98"/>
<polygon fill="#63b8ff" stroke="#63b8ff" points="678.51,-301.18 670.64,-294.09 672.37,-304.54 678.51,-301.18"/>
</a>
</g>
</g>
</g>
</svg>

<g id="navigator" transform="translate(0 0)" fill="#404254">
  <rect fill="#f2f5e9" fill-opacity="0.5" stroke="#606060" stroke-width=".5" x="0" y="0" width="60" height="60"/>
  <use id="zoomplus" xlink:href="#zoomPlus" x="17" y="9" onmousedown="handleZoom(evt,'in')"/>
  <use id="zoomminus" xlink:href="#zoomMin" x="42" y="9" onmousedown="handleZoom(evt,'out')"/>
  <use id="reset" xlink:href="#resetDef" x="30" y="36" onmousedown="handleReset()"/>
   <use id="arrowup" xlink:href="#arrowUp" x="0" y="0" onmousedown="handlePan(0,-1)"/>
  <use id="arrowright" xlink:href="#arrowRight" x="0" y="0" onmousedown="handlePan(1,0)"/>
  <use id="arrowdown" xlink:href="#arrowDown" x="0" y="0" onmousedown="handlePan(0,1)"/>
  <use id="arrowleft" xlink:href="#arrowLeft" x="0" y="0" onmousedown="handlePan(-1,0)"/>
</g>
<svg viewBox="0 0 15 15" width="100%" height="30px" preserveAspectRatio="xMaxYMin meet">
 <g id="arrow_out" transform="scale(0.3 0.3)">
  <a xlink:href="font_8c__incl_org.svg" target="_base">
   <rect id="button" ry="5" rx="5" y="6" x="6" height="38" width="38"
        fill="#f2f5e9" fill-opacity="0.5" stroke="#606060" stroke-width="1.0"/>
   <path id="arrow"
     d="M 11.500037,31.436501 C 11.940474,20.09759 22.043105,11.32322 32.158766,21.979434 L 37.068811,17.246167 C 37.068811,17.246167 37.088388,32 37.088388,32 L 22.160133,31.978069 C 22.160133,31.978069 26.997745,27.140456 26.997745,27.140456 C 18.528582,18.264221 13.291696,25.230495 11.500037,31.436501 z"
     style="fill:#404040;"/>
  </a>
 </g>
</svg>

<style type='text/css'>
<![CDATA[
[data-mouse-over-selected='false'] { opacity: 0.7; }
[data-mouse-over-selected='true']  { opacity: 1.0; }
]]>
</style>
<script type="application/ecmascript"><![CDATA[
document.addEventListener('DOMContentLoaded', (event) => {
  highlightEdges();
  highlightAdjacentNodes();
});
]]></script>
</svg>
