<?xml version="1.0" encoding="UTF-8" standalone="no"?>
<!DOCTYPE svg PUBLIC "-//W3C//DTD SVG 1.1//EN"
 "http://www.w3.org/Graphics/SVG/1.1/DTD/svg11.dtd">
<!-- Generated by graphviz version 2.43.0 (0)
 -->
<!-- Title: include/splice/frame.h Pages: 1 -->
<svg width="1617pt" height="868pt"
 viewBox="0.00 0.00 1617.00 868.00" xmlns="http://www.w3.org/2000/svg" xmlns:xlink="http://www.w3.org/1999/xlink">
<g id="graph0" class="graph" transform="scale(1 1) rotate(0) translate(4 864)">
<title>include/splice/frame.h</title>
<polygon fill="white" stroke="transparent" points="-4,4 -4,-864 1613,-864 1613,4 -4,4"/>
<!-- Node1 -->
<g id="node1" class="node">
<title>Node1</title>
<g id="a_node1"><a xlink:title=" ">
<polygon fill="#bfbfbf" stroke="black" points="617.5,-840.5 617.5,-859.5 742.5,-859.5 742.5,-840.5 617.5,-840.5"/>
<text text-anchor="middle" x="680" y="-847.5" font-family="Helvetica,sans-Serif" font-size="10.00">include/splice/frame.h</text>
</a>
</g>
</g>
<!-- Node2 -->
<g id="node2" class="node">
<title>Node2</title>
<g id="a_node2"><a xlink:href="lo_8h.html" target="_top" xlink:title="Level objects.">
<polygon fill="white" stroke="black" points="643.5,-784.5 643.5,-803.5 716.5,-803.5 716.5,-784.5 643.5,-784.5"/>
<text text-anchor="middle" x="680" y="-791.5" font-family="Helvetica,sans-Serif" font-size="10.00">include/lo.h</text>
</a>
</g>
</g>
<!-- Node1&#45;&gt;Node2 -->
<g id="edge1" class="edge">
<title>Node1&#45;&gt;Node2</title>
<path fill="none" stroke="midnightblue" d="M680,-829.8C680,-820.91 680,-810.78 680,-803.75"/>
<polygon fill="midnightblue" stroke="midnightblue" points="676.5,-830.08 680,-840.08 683.5,-830.08 676.5,-830.08"/>
</g>
<!-- Node3 -->
<g id="node3" class="node">
<title>Node3</title>
<g id="a_node3"><a xlink:href="alo_8h.html" target="_top" xlink:title=" ">
<polygon fill="white" stroke="black" points="640.5,-728.5 640.5,-747.5 719.5,-747.5 719.5,-728.5 640.5,-728.5"/>
<text text-anchor="middle" x="680" y="-735.5" font-family="Helvetica,sans-Serif" font-size="10.00">include/alo.h</text>
</a>
</g>
</g>
<!-- Node2&#45;&gt;Node3 -->
<g id="edge2" class="edge">
<title>Node2&#45;&gt;Node3</title>
<path fill="none" stroke="midnightblue" d="M680,-773.8C680,-764.91 680,-754.78 680,-747.75"/>
<polygon fill="midnightblue" stroke="midnightblue" points="676.5,-774.08 680,-784.08 683.5,-774.08 676.5,-774.08"/>
</g>
<!-- Node12 -->
<g id="node12" class="node">
<title>Node12</title>
<g id="a_node12"><a xlink:href="cm_8h.html" target="_top" xlink:title="Game camera.">
<polygon fill="white" stroke="black" points="832.5,-168.5 832.5,-187.5 911.5,-187.5 911.5,-168.5 832.5,-168.5"/>
<text text-anchor="middle" x="872" y="-175.5" font-family="Helvetica,sans-Serif" font-size="10.00">include/cm.h</text>
</a>
</g>
</g>
<!-- Node2&#45;&gt;Node12 -->
<g id="edge76" class="edge">
<title>Node2&#45;&gt;Node12</title>
<path fill="none" stroke="midnightblue" d="M726.9,-791.34C810.32,-786.48 987.49,-767.33 1113,-692 1141.36,-674.98 1150.37,-666.96 1162,-636 1202.01,-529.52 1300.5,-404.02 1138,-224 1108.42,-191.23 978.18,-182.32 911.56,-179.9"/>
<polygon fill="midnightblue" stroke="midnightblue" points="726.52,-787.86 716.72,-791.89 726.9,-794.85 726.52,-787.86"/>
</g>
<!-- Node51 -->
<g id="node49" class="node">
<title>Node51</title>
<g id="a_node49"><a xlink:href="anim_8h.html" target="_top" xlink:title="Animation.">
<polygon fill="white" stroke="black" points="294.5,-392.5 294.5,-411.5 383.5,-411.5 383.5,-392.5 294.5,-392.5"/>
<text text-anchor="middle" x="339" y="-399.5" font-family="Helvetica,sans-Serif" font-size="10.00">include/anim.h</text>
</a>
</g>
</g>
<!-- Node2&#45;&gt;Node51 -->
<g id="edge70" class="edge">
<title>Node2&#45;&gt;Node51</title>
<path fill="none" stroke="midnightblue" d="M633.22,-793.79C497.63,-794.84 114,-788.49 114,-683 114,-683 114,-683 114,-513 114,-433.54 228.66,-411.47 294.28,-405.35"/>
<polygon fill="midnightblue" stroke="midnightblue" points="633.33,-797.29 643.3,-793.7 633.27,-790.29 633.33,-797.29"/>
</g>
<!-- Node4 -->
<g id="node4" class="node">
<title>Node4</title>
<g id="a_node4"><a xlink:href="coin_8h.html" target="_top" xlink:title="Coins, keys, and other collectibles.">
<polygon fill="white" stroke="black" points="0,-168.5 0,-187.5 84,-187.5 84,-168.5 0,-168.5"/>
<text text-anchor="middle" x="42" y="-175.5" font-family="Helvetica,sans-Serif" font-size="10.00">include/coin.h</text>
</a>
</g>
</g>
<!-- Node3&#45;&gt;Node4 -->
<g id="edge3" class="edge">
<title>Node3&#45;&gt;Node4</title>
<path fill="none" stroke="midnightblue" d="M630.11,-737.11C498.5,-736.06 152,-724.09 152,-627 152,-627 152,-627 152,-289 152,-238.36 92.99,-202.89 61.41,-187.54"/>
<polygon fill="midnightblue" stroke="midnightblue" points="630.29,-740.61 640.31,-737.17 630.34,-733.61 630.29,-740.61"/>
</g>
<!-- Node6 -->
<g id="node6" class="node">
<title>Node6</title>
<g id="a_node6"><a xlink:href="find_8h.html" target="_top" xlink:title="Find objects in the SW.">
<polygon fill="white" stroke="black" points="1071,-616.5 1071,-635.5 1153,-635.5 1153,-616.5 1071,-616.5"/>
<text text-anchor="middle" x="1112" y="-623.5" font-family="Helvetica,sans-Serif" font-size="10.00">include/find.h</text>
</a>
</g>
</g>
<!-- Node3&#45;&gt;Node6 -->
<g id="edge5" class="edge">
<title>Node3&#45;&gt;Node6</title>
<path fill="none" stroke="midnightblue" d="M729.85,-734.64C833.65,-729.3 1065.64,-714.93 1093,-692 1109.76,-677.95 1112.2,-650.01 1112.27,-635.77"/>
<polygon fill="midnightblue" stroke="midnightblue" points="729.44,-731.16 719.63,-735.16 729.79,-738.15 729.44,-731.16"/>
</g>
<!-- Node8 -->
<g id="node8" class="node">
<title>Node8</title>
<g id="a_node8"><a xlink:href="proxy_8h.html" target="_top" xlink:title=" ">
<polygon fill="white" stroke="black" points="302,-504.5 302,-523.5 392,-523.5 392,-504.5 302,-504.5"/>
<text text-anchor="middle" x="347" y="-511.5" font-family="Helvetica,sans-Serif" font-size="10.00">include/proxy.h</text>
</a>
</g>
</g>
<!-- Node3&#45;&gt;Node8 -->
<g id="edge7" class="edge">
<title>Node3&#45;&gt;Node8</title>
<path fill="none" stroke="midnightblue" d="M658.09,-723.12C615.54,-696.07 518.88,-634.21 439,-580 409.87,-560.23 376.22,-536.13 358.81,-523.56"/>
<polygon fill="midnightblue" stroke="midnightblue" points="656.24,-726.09 666.56,-728.49 659.99,-720.18 656.24,-726.09"/>
</g>
<!-- Node9 -->
<g id="node9" class="node">
<title>Node9</title>
<g id="a_node9"><a xlink:href="xform_8h.html" target="_top" xlink:title="Transform.">
<polygon fill="white" stroke="black" points="218.5,-224.5 218.5,-243.5 311.5,-243.5 311.5,-224.5 218.5,-224.5"/>
<text text-anchor="middle" x="265" y="-231.5" font-family="Helvetica,sans-Serif" font-size="10.00">include/xform.h</text>
</a>
</g>
</g>
<!-- Node3&#45;&gt;Node9 -->
<g id="edge69" class="edge">
<title>Node3&#45;&gt;Node9</title>
<path fill="none" stroke="midnightblue" d="M630.11,-735.36C512.55,-730.14 228,-709.02 228,-627 228,-627 228,-627 228,-345 228,-305.31 249.91,-261.56 260.01,-243.51"/>
<polygon fill="midnightblue" stroke="midnightblue" points="630.15,-738.86 640.28,-735.79 630.44,-731.87 630.15,-738.86"/>
</g>
<!-- Node21 -->
<g id="node21" class="node">
<title>Node21</title>
<g id="a_node21"><a xlink:href="so_8h.html" target="_top" xlink:title="Scene objects.">
<polygon fill="white" stroke="black" points="1008.5,-672.5 1008.5,-691.5 1083.5,-691.5 1083.5,-672.5 1008.5,-672.5"/>
<text text-anchor="middle" x="1046" y="-679.5" font-family="Helvetica,sans-Serif" font-size="10.00">include/so.h</text>
</a>
</g>
</g>
<!-- Node3&#45;&gt;Node21 -->
<g id="edge22" class="edge">
<title>Node3&#45;&gt;Node21</title>
<path fill="none" stroke="midnightblue" d="M729.99,-730.29C792,-721.87 900.93,-706.72 994,-692 998.62,-691.27 1003.46,-690.47 1008.25,-689.67"/>
<polygon fill="midnightblue" stroke="midnightblue" points="729.15,-726.87 719.71,-731.69 730.09,-733.81 729.15,-726.87"/>
</g>
<!-- Node48 -->
<g id="node46" class="node">
<title>Node48</title>
<g id="a_node46"><a xlink:href="sound_8h.html" target="_top" xlink:title="Sound playback.">
<polygon fill="white" stroke="black" points="1035.5,-224.5 1035.5,-243.5 1128.5,-243.5 1128.5,-224.5 1035.5,-224.5"/>
<text text-anchor="middle" x="1082" y="-231.5" font-family="Helvetica,sans-Serif" font-size="10.00">include/sound.h</text>
</a>
</g>
</g>
<!-- Node3&#45;&gt;Node48 -->
<g id="edge68" class="edge">
<title>Node3&#45;&gt;Node48</title>
<path fill="none" stroke="midnightblue" d="M709.15,-724.08C767.73,-696.51 899.61,-625.98 964,-524 1028.23,-422.27 1069.8,-279.65 1079.71,-243.56"/>
<polygon fill="midnightblue" stroke="midnightblue" points="707.35,-721.06 699.75,-728.43 710.29,-727.41 707.35,-721.06"/>
</g>
<!-- Node5 -->
<g id="node5" class="node">
<title>Node5</title>
<g id="a_node5"><a xlink:href="coin_8c.html" target="_top" xlink:title=" ">
<polygon fill="white" stroke="black" points="379.5,-56.5 379.5,-75.5 456.5,-75.5 456.5,-56.5 379.5,-56.5"/>
<text text-anchor="middle" x="418" y="-63.5" font-family="Helvetica,sans-Serif" font-size="10.00">src/P2/coin.c</text>
</a>
</g>
</g>
<!-- Node4&#45;&gt;Node5 -->
<g id="edge4" class="edge">
<title>Node4&#45;&gt;Node5</title>
<path fill="none" stroke="midnightblue" d="M80.81,-165.65C156.38,-143.54 321.72,-95.17 388.83,-75.53"/>
<polygon fill="midnightblue" stroke="midnightblue" points="79.81,-162.29 71.19,-168.46 81.77,-169.01 79.81,-162.29"/>
</g>
<!-- Node7 -->
<g id="node7" class="node">
<title>Node7</title>
<g id="a_node7"><a xlink:href="find_8c.html" target="_top" xlink:title=" ">
<polygon fill="white" stroke="black" points="1075.5,-560.5 1075.5,-579.5 1150.5,-579.5 1150.5,-560.5 1075.5,-560.5"/>
<text text-anchor="middle" x="1113" y="-567.5" font-family="Helvetica,sans-Serif" font-size="10.00">src/P2/find.c</text>
</a>
</g>
</g>
<!-- Node6&#45;&gt;Node7 -->
<g id="edge6" class="edge">
<title>Node6&#45;&gt;Node7</title>
<path fill="none" stroke="midnightblue" d="M1112.36,-605.8C1112.52,-596.91 1112.71,-586.78 1112.84,-579.75"/>
<polygon fill="midnightblue" stroke="midnightblue" points="1108.85,-606.02 1112.17,-616.08 1115.85,-606.15 1108.85,-606.02"/>
</g>
<!-- Node8&#45;&gt;Node9 -->
<g id="edge8" class="edge">
<title>Node8&#45;&gt;Node9</title>
<path fill="none" stroke="midnightblue" d="M326.14,-498.09C302.14,-479.01 266,-443.55 266,-403 266,-403 266,-403 266,-345 266,-307.19 265.4,-262.06 265.13,-243.56"/>
<polygon fill="midnightblue" stroke="midnightblue" points="324.27,-501.06 334.34,-504.35 328.52,-495.5 324.27,-501.06"/>
</g>
<!-- Node9&#45;&gt;Node4 -->
<g id="edge15" class="edge">
<title>Node9&#45;&gt;Node4</title>
<path fill="none" stroke="midnightblue" d="M219.94,-222.09C177.81,-211.89 115.76,-196.86 77.17,-187.52"/>
<polygon fill="midnightblue" stroke="midnightblue" points="219.12,-225.49 229.66,-224.44 220.77,-218.69 219.12,-225.49"/>
</g>
<!-- Node10 -->
<g id="node10" class="node">
<title>Node10</title>
<g id="a_node10"><a xlink:href="xform1_8c.html" target="_top" xlink:title=" ">
<polygon fill="white" stroke="black" points="212,-168.5 212,-187.5 304,-187.5 304,-168.5 212,-168.5"/>
<text text-anchor="middle" x="258" y="-175.5" font-family="Helvetica,sans-Serif" font-size="10.00">src/P2/xform1.c</text>
</a>
</g>
</g>
<!-- Node9&#45;&gt;Node10 -->
<g id="edge9" class="edge">
<title>Node9&#45;&gt;Node10</title>
<path fill="none" stroke="midnightblue" d="M262.55,-214.1C261.39,-205.14 260.06,-194.86 259.13,-187.75"/>
<polygon fill="midnightblue" stroke="midnightblue" points="259.09,-214.62 263.84,-224.08 266.03,-213.72 259.09,-214.62"/>
</g>
<!-- Node11 -->
<g id="node11" class="node">
<title>Node11</title>
<g id="a_node11"><a xlink:href="xform2_8c.html" target="_top" xlink:title=" ">
<polygon fill="white" stroke="black" points="102,-168.5 102,-187.5 194,-187.5 194,-168.5 102,-168.5"/>
<text text-anchor="middle" x="148" y="-175.5" font-family="Helvetica,sans-Serif" font-size="10.00">src/P2/xform2.c</text>
</a>
</g>
</g>
<!-- Node9&#45;&gt;Node11 -->
<g id="edge10" class="edge">
<title>Node9&#45;&gt;Node11</title>
<path fill="none" stroke="midnightblue" d="M237.34,-220.23C215.45,-210.13 185.5,-196.31 166.45,-187.52"/>
<polygon fill="midnightblue" stroke="midnightblue" points="235.91,-223.43 246.46,-224.44 238.85,-217.08 235.91,-223.43"/>
</g>
<!-- Node9&#45;&gt;Node12 -->
<g id="edge11" class="edge">
<title>Node9&#45;&gt;Node12</title>
<path fill="none" stroke="midnightblue" d="M322.14,-227.43C334.62,-226.26 347.75,-225.06 360,-224 566.08,-206.25 618.94,-215.1 824,-188 826.69,-187.64 829.46,-187.24 832.24,-186.8"/>
<polygon fill="midnightblue" stroke="midnightblue" points="321.48,-223.97 311.86,-228.4 322.14,-230.94 321.48,-223.97"/>
</g>
<!-- Node16 -->
<g id="node16" class="node">
<title>Node16</title>
<g id="a_node16"><a xlink:href="vol_8h.html" target="_top" xlink:title="Volume object.">
<polygon fill="white" stroke="black" points="322.5,-168.5 322.5,-187.5 401.5,-187.5 401.5,-168.5 322.5,-168.5"/>
<text text-anchor="middle" x="362" y="-175.5" font-family="Helvetica,sans-Serif" font-size="10.00">include/vol.h</text>
</a>
</g>
</g>
<!-- Node9&#45;&gt;Node16 -->
<g id="edge16" class="edge">
<title>Node9&#45;&gt;Node16</title>
<path fill="none" stroke="midnightblue" d="M289.34,-219.45C307.24,-209.48 331.05,-196.23 346.45,-187.65"/>
<polygon fill="midnightblue" stroke="midnightblue" points="287.62,-216.4 280.58,-224.32 291.02,-222.52 287.62,-216.4"/>
</g>
<!-- Node13 -->
<g id="node13" class="node">
<title>Node13</title>
<g id="a_node13"><a xlink:href="cm_8c.html" target="_top" xlink:title=" ">
<polygon fill="white" stroke="black" points="904,-112.5 904,-131.5 976,-131.5 976,-112.5 904,-112.5"/>
<text text-anchor="middle" x="940" y="-119.5" font-family="Helvetica,sans-Serif" font-size="10.00">src/P2/cm.c</text>
</a>
</g>
</g>
<!-- Node12&#45;&gt;Node13 -->
<g id="edge12" class="edge">
<title>Node12&#45;&gt;Node13</title>
<path fill="none" stroke="midnightblue" d="M890.76,-162.1C903,-152.38 918.56,-140.03 928.88,-131.83"/>
<polygon fill="midnightblue" stroke="midnightblue" points="888.58,-159.36 882.93,-168.32 892.93,-164.85 888.58,-159.36"/>
</g>
<!-- Node14 -->
<g id="node14" class="node">
<title>Node14</title>
<g id="a_node14"><a xlink:href="flash_8h.html" target="_top" xlink:title="Flash (might be flash animation, or literal screen flashes).">
<polygon fill="white" stroke="black" points="769.5,-112.5 769.5,-131.5 856.5,-131.5 856.5,-112.5 769.5,-112.5"/>
<text text-anchor="middle" x="813" y="-119.5" font-family="Helvetica,sans-Serif" font-size="10.00">include/flash.h</text>
</a>
</g>
</g>
<!-- Node12&#45;&gt;Node14 -->
<g id="edge13" class="edge">
<title>Node12&#45;&gt;Node14</title>
<path fill="none" stroke="midnightblue" d="M855.11,-161.54C844.59,-151.91 831.43,-139.87 822.65,-131.83"/>
<polygon fill="midnightblue" stroke="midnightblue" points="852.78,-164.15 862.52,-168.32 857.51,-158.99 852.78,-164.15"/>
</g>
<!-- Node15 -->
<g id="node15" class="node">
<title>Node15</title>
<g id="a_node15"><a xlink:href="flash_8c.html" target="_top" xlink:title=" ">
<polygon fill="white" stroke="black" points="773,-56.5 773,-75.5 853,-75.5 853,-56.5 773,-56.5"/>
<text text-anchor="middle" x="813" y="-63.5" font-family="Helvetica,sans-Serif" font-size="10.00">src/P2/flash.c</text>
</a>
</g>
</g>
<!-- Node14&#45;&gt;Node15 -->
<g id="edge14" class="edge">
<title>Node14&#45;&gt;Node15</title>
<path fill="none" stroke="midnightblue" d="M813,-101.8C813,-92.91 813,-82.78 813,-75.75"/>
<polygon fill="midnightblue" stroke="midnightblue" points="809.5,-102.08 813,-112.08 816.5,-102.08 809.5,-102.08"/>
</g>
<!-- Node17 -->
<g id="node17" class="node">
<title>Node17</title>
<g id="a_node17"><a xlink:href="chkpnt_8h.html" target="_top" xlink:title="Checkpoint system.">
<polygon fill="white" stroke="black" points="465.5,-112.5 465.5,-131.5 562.5,-131.5 562.5,-112.5 465.5,-112.5"/>
<text text-anchor="middle" x="514" y="-119.5" font-family="Helvetica,sans-Serif" font-size="10.00">include/chkpnt.h</text>
</a>
</g>
</g>
<!-- Node16&#45;&gt;Node17 -->
<g id="edge17" class="edge">
<title>Node16&#45;&gt;Node17</title>
<path fill="none" stroke="midnightblue" d="M395.67,-165.04C424.27,-154.88 464.61,-140.55 490.03,-131.52"/>
<polygon fill="midnightblue" stroke="midnightblue" points="394.34,-161.8 386.08,-168.44 396.68,-168.39 394.34,-161.8"/>
</g>
<!-- Node17&#45;&gt;Node5 -->
<g id="edge19" class="edge">
<title>Node17&#45;&gt;Node5</title>
<path fill="none" stroke="midnightblue" d="M489.43,-107.18C471.76,-97.24 448.49,-84.15 433.39,-75.65"/>
<polygon fill="midnightblue" stroke="midnightblue" points="488.14,-110.47 498.58,-112.32 491.58,-104.37 488.14,-110.47"/>
</g>
<!-- Node18 -->
<g id="node18" class="node">
<title>Node18</title>
<g id="a_node18"><a xlink:href="chkpnt_8c.html" target="_top" xlink:title=" ">
<polygon fill="white" stroke="black" points="475,-56.5 475,-75.5 565,-75.5 565,-56.5 475,-56.5"/>
<text text-anchor="middle" x="520" y="-63.5" font-family="Helvetica,sans-Serif" font-size="10.00">src/P2/chkpnt.c</text>
</a>
</g>
</g>
<!-- Node17&#45;&gt;Node18 -->
<g id="edge18" class="edge">
<title>Node17&#45;&gt;Node18</title>
<path fill="none" stroke="midnightblue" d="M516.1,-102.1C517.1,-93.14 518.24,-82.86 519.03,-75.75"/>
<polygon fill="midnightblue" stroke="midnightblue" points="512.62,-101.76 514.99,-112.08 519.57,-102.53 512.62,-101.76"/>
</g>
<!-- Node19 -->
<g id="node19" class="node">
<title>Node19</title>
<g id="a_node19"><a xlink:href="difficulty_8h.html" target="_top" xlink:title="Dynamic difficulty system.">
<polygon fill="white" stroke="black" points="602.5,-56.5 602.5,-75.5 707.5,-75.5 707.5,-56.5 602.5,-56.5"/>
<text text-anchor="middle" x="655" y="-63.5" font-family="Helvetica,sans-Serif" font-size="10.00">include/difficulty.h</text>
</a>
</g>
</g>
<!-- Node17&#45;&gt;Node19 -->
<g id="edge20" class="edge">
<title>Node17&#45;&gt;Node19</title>
<path fill="none" stroke="midnightblue" d="M545.93,-108.77C572.41,-98.63 609.39,-84.47 632.76,-75.52"/>
<polygon fill="midnightblue" stroke="midnightblue" points="544.43,-105.6 536.34,-112.44 546.93,-112.14 544.43,-105.6"/>
</g>
<!-- Node20 -->
<g id="node20" class="node">
<title>Node20</title>
<g id="a_node20"><a xlink:href="difficulty_8c.html" target="_top" xlink:title=" ">
<polygon fill="white" stroke="black" points="606,-0.5 606,-19.5 704,-19.5 704,-0.5 606,-0.5"/>
<text text-anchor="middle" x="655" y="-7.5" font-family="Helvetica,sans-Serif" font-size="10.00">src/P2/difficulty.c</text>
</a>
</g>
</g>
<!-- Node19&#45;&gt;Node20 -->
<g id="edge21" class="edge">
<title>Node19&#45;&gt;Node20</title>
<path fill="none" stroke="midnightblue" d="M655,-45.8C655,-36.91 655,-26.78 655,-19.75"/>
<polygon fill="midnightblue" stroke="midnightblue" points="651.5,-46.08 655,-56.08 658.5,-46.08 651.5,-46.08"/>
</g>
<!-- Node21&#45;&gt;Node6 -->
<g id="edge23" class="edge">
<title>Node21&#45;&gt;Node6</title>
<path fill="none" stroke="midnightblue" d="M1064.55,-665.82C1076.38,-656.15 1091.29,-643.95 1101.2,-635.83"/>
<polygon fill="midnightblue" stroke="midnightblue" points="1062.13,-663.28 1056.6,-672.32 1066.56,-668.7 1062.13,-663.28"/>
</g>
<!-- Node22 -->
<g id="node22" class="node">
<title>Node22</title>
<g id="a_node22"><a xlink:href="po_8h.html" target="_top" xlink:title="Player object(?).">
<polygon fill="white" stroke="black" points="1332,-448.5 1332,-467.5 1408,-467.5 1408,-448.5 1332,-448.5"/>
<text text-anchor="middle" x="1370" y="-455.5" font-family="Helvetica,sans-Serif" font-size="10.00">include/po.h</text>
</a>
</g>
</g>
<!-- Node21&#45;&gt;Node22 -->
<g id="edge24" class="edge">
<title>Node21&#45;&gt;Node22</title>
<path fill="none" stroke="midnightblue" d="M1043.79,-662.41C1041.76,-636.34 1042.17,-588.86 1067,-560 1135.08,-480.87 1266.88,-463.5 1331.87,-459.85"/>
<polygon fill="midnightblue" stroke="midnightblue" points="1040.31,-662.84 1044.77,-672.45 1047.28,-662.16 1040.31,-662.84"/>
</g>
<!-- Node29 -->
<g id="node29" class="node">
<title>Node29</title>
<g id="a_node29"><a xlink:href="vec_8h.html" target="_top" xlink:title="Vector math functions.">
<polygon fill="white" stroke="black" points="607.5,-616.5 607.5,-635.5 688.5,-635.5 688.5,-616.5 607.5,-616.5"/>
<text text-anchor="middle" x="648" y="-623.5" font-family="Helvetica,sans-Serif" font-size="10.00">include/vec.h</text>
</a>
</g>
</g>
<!-- Node21&#45;&gt;Node29 -->
<g id="edge31" class="edge">
<title>Node21&#45;&gt;Node29</title>
<path fill="none" stroke="midnightblue" d="M998.04,-674.49C919.01,-663.77 762.85,-642.58 688.8,-632.54"/>
<polygon fill="midnightblue" stroke="midnightblue" points="997.82,-677.99 1008.2,-675.87 998.76,-671.06 997.82,-677.99"/>
</g>
<!-- Node23 -->
<g id="node23" class="node">
<title>Node23</title>
<g id="a_node23"><a xlink:href="step_8h.html" target="_top" xlink:title=" ">
<polygon fill="white" stroke="black" points="1417.5,-280.5 1417.5,-299.5 1502.5,-299.5 1502.5,-280.5 1417.5,-280.5"/>
<text text-anchor="middle" x="1460" y="-287.5" font-family="Helvetica,sans-Serif" font-size="10.00">include/step.h</text>
</a>
</g>
</g>
<!-- Node22&#45;&gt;Node23 -->
<g id="edge25" class="edge">
<title>Node22&#45;&gt;Node23</title>
<path fill="none" stroke="midnightblue" d="M1379.84,-438.86C1399.14,-403.25 1441.32,-325.45 1455.35,-299.57"/>
<polygon fill="midnightblue" stroke="midnightblue" points="1376.53,-437.62 1374.84,-448.08 1382.68,-440.95 1376.53,-437.62"/>
</g>
<!-- Node24 -->
<g id="node24" class="node">
<title>Node24</title>
<g id="a_node24"><a xlink:href="jt_8h.html" target="_top" xlink:title="Sly entity.">
<polygon fill="white" stroke="black" points="1437.5,-224.5 1437.5,-243.5 1508.5,-243.5 1508.5,-224.5 1437.5,-224.5"/>
<text text-anchor="middle" x="1473" y="-231.5" font-family="Helvetica,sans-Serif" font-size="10.00">include/jt.h</text>
</a>
</g>
</g>
<!-- Node23&#45;&gt;Node24 -->
<g id="edge26" class="edge">
<title>Node23&#45;&gt;Node24</title>
<path fill="none" stroke="midnightblue" d="M1464.55,-270.1C1466.71,-261.14 1469.18,-250.86 1470.89,-243.75"/>
<polygon fill="midnightblue" stroke="midnightblue" points="1461.08,-269.54 1462.15,-280.08 1467.89,-271.18 1461.08,-269.54"/>
</g>
<!-- Node25 -->
<g id="node25" class="node">
<title>Node25</title>
<g id="a_node25"><a xlink:href="jt1_8c.html" target="_top" xlink:title=" ">
<polygon fill="white" stroke="black" points="1539,-168.5 1539,-187.5 1609,-187.5 1609,-168.5 1539,-168.5"/>
<text text-anchor="middle" x="1574" y="-175.5" font-family="Helvetica,sans-Serif" font-size="10.00">src/P2/jt1.c</text>
</a>
</g>
</g>
<!-- Node24&#45;&gt;Node25 -->
<g id="edge27" class="edge">
<title>Node24&#45;&gt;Node25</title>
<path fill="none" stroke="midnightblue" d="M1498.08,-219.59C1516.76,-209.61 1541.7,-196.27 1557.81,-187.65"/>
<polygon fill="midnightblue" stroke="midnightblue" points="1496.4,-216.52 1489.23,-224.32 1499.7,-222.7 1496.4,-216.52"/>
</g>
<!-- Node26 -->
<g id="node26" class="node">
<title>Node26</title>
<g id="a_node26"><a xlink:href="jt2_8c.html" target="_top" xlink:title=" ">
<polygon fill="white" stroke="black" points="1451,-168.5 1451,-187.5 1521,-187.5 1521,-168.5 1451,-168.5"/>
<text text-anchor="middle" x="1486" y="-175.5" font-family="Helvetica,sans-Serif" font-size="10.00">src/P2/jt2.c</text>
</a>
</g>
</g>
<!-- Node24&#45;&gt;Node26 -->
<g id="edge28" class="edge">
<title>Node24&#45;&gt;Node26</title>
<path fill="none" stroke="midnightblue" d="M1477.55,-214.1C1479.71,-205.14 1482.18,-194.86 1483.89,-187.75"/>
<polygon fill="midnightblue" stroke="midnightblue" points="1474.08,-213.54 1475.15,-224.08 1480.89,-215.18 1474.08,-213.54"/>
</g>
<!-- Node27 -->
<g id="node27" class="node">
<title>Node27</title>
<g id="a_node27"><a xlink:href="steppower_8h.html" target="_top" xlink:title=" ">
<polygon fill="white" stroke="black" points="1319,-168.5 1319,-187.5 1433,-187.5 1433,-168.5 1319,-168.5"/>
<text text-anchor="middle" x="1376" y="-175.5" font-family="Helvetica,sans-Serif" font-size="10.00">include/steppower.h</text>
</a>
</g>
</g>
<!-- Node24&#45;&gt;Node27 -->
<g id="edge29" class="edge">
<title>Node24&#45;&gt;Node27</title>
<path fill="none" stroke="midnightblue" d="M1448.66,-219.45C1430.76,-209.48 1406.95,-196.23 1391.55,-187.65"/>
<polygon fill="midnightblue" stroke="midnightblue" points="1446.98,-222.52 1457.42,-224.32 1450.38,-216.4 1446.98,-222.52"/>
</g>
<!-- Node28 -->
<g id="node28" class="node">
<title>Node28</title>
<g id="a_node28"><a xlink:href="steppower_8c.html" target="_top" xlink:title=" ">
<polygon fill="white" stroke="black" points="1322.5,-112.5 1322.5,-131.5 1429.5,-131.5 1429.5,-112.5 1322.5,-112.5"/>
<text text-anchor="middle" x="1376" y="-119.5" font-family="Helvetica,sans-Serif" font-size="10.00">src/P2/steppower.c</text>
</a>
</g>
</g>
<!-- Node27&#45;&gt;Node28 -->
<g id="edge30" class="edge">
<title>Node27&#45;&gt;Node28</title>
<path fill="none" stroke="midnightblue" d="M1376,-157.8C1376,-148.91 1376,-138.78 1376,-131.75"/>
<polygon fill="midnightblue" stroke="midnightblue" points="1372.5,-158.08 1376,-168.08 1379.5,-158.08 1372.5,-158.08"/>
</g>
<!-- Node29&#45;&gt;Node17 -->
<g id="edge39" class="edge">
<title>Node29&#45;&gt;Node17</title>
<path fill="none" stroke="midnightblue" d="M597.27,-622.69C566.64,-618.36 529.81,-607.3 510,-580 482.74,-542.43 508.66,-191.72 513.31,-131.71"/>
<polygon fill="midnightblue" stroke="midnightblue" points="597.04,-626.19 607.39,-623.91 597.88,-619.24 597.04,-626.19"/>
</g>
<!-- Node30 -->
<g id="node30" class="node">
<title>Node30</title>
<g id="a_node30"><a xlink:href="util_8c.html" target="_top" xlink:title=" ">
<polygon fill="white" stroke="black" points="944.5,-224.5 944.5,-243.5 1017.5,-243.5 1017.5,-224.5 944.5,-224.5"/>
<text text-anchor="middle" x="981" y="-231.5" font-family="Helvetica,sans-Serif" font-size="10.00">src/P2/util.c</text>
</a>
</g>
</g>
<!-- Node29&#45;&gt;Node30 -->
<g id="edge32" class="edge">
<title>Node29&#45;&gt;Node30</title>
<path fill="none" stroke="midnightblue" d="M698.74,-622.72C747.6,-618.83 822.5,-608.33 881,-580 915.32,-563.38 928.05,-557.64 946,-524 998.81,-425.01 986.35,-280.37 982.11,-243.7"/>
<polygon fill="midnightblue" stroke="midnightblue" points="698.45,-619.23 688.73,-623.46 698.96,-626.22 698.45,-619.23"/>
</g>
<!-- Node31 -->
<g id="node31" class="node">
<title>Node31</title>
<g id="a_node31"><a xlink:href="vec_8c.html" target="_top" xlink:title=" ">
<polygon fill="white" stroke="black" points="572,-224.5 572,-243.5 646,-243.5 646,-224.5 572,-224.5"/>
<text text-anchor="middle" x="609" y="-231.5" font-family="Helvetica,sans-Serif" font-size="10.00">src/P2/vec.c</text>
</a>
</g>
</g>
<!-- Node29&#45;&gt;Node31 -->
<g id="edge33" class="edge">
<title>Node29&#45;&gt;Node31</title>
<path fill="none" stroke="midnightblue" d="M639.82,-606.73C620.47,-561.39 574.32,-439.86 586,-336 589.92,-301.15 601.21,-260.79 606.37,-243.53"/>
<polygon fill="midnightblue" stroke="midnightblue" points="636.71,-608.35 643.92,-616.12 643.13,-605.55 636.71,-608.35"/>
</g>
<!-- Node32 -->
<g id="node32" class="node">
<title>Node32</title>
<g id="a_node32"><a xlink:href="bis_8h.html" target="_top" xlink:title="Binary Input Stream.">
<polygon fill="white" stroke="black" points="385,-280.5 385,-299.5 463,-299.5 463,-280.5 385,-280.5"/>
<text text-anchor="middle" x="424" y="-287.5" font-family="Helvetica,sans-Serif" font-size="10.00">include/bis.h</text>
</a>
</g>
</g>
<!-- Node29&#45;&gt;Node32 -->
<g id="edge34" class="edge">
<title>Node29&#45;&gt;Node32</title>
<path fill="none" stroke="midnightblue" d="M597.21,-623.76C559.72,-620.23 509.72,-609.71 477,-580 454.2,-559.3 453,-545.8 453,-515 453,-515 453,-515 453,-457 453,-403.16 476.47,-386.93 459,-336 453.99,-321.4 442.09,-307.88 433.56,-299.55"/>
<polygon fill="midnightblue" stroke="midnightblue" points="597.18,-627.27 607.43,-624.58 597.74,-620.29 597.18,-627.27"/>
</g>
<!-- Node34 -->
<g id="node34" class="node">
<title>Node34</title>
<g id="a_node34"><a xlink:href="shd_8h.html" target="_top" xlink:title="Shaders.">
<polygon fill="white" stroke="black" points="626.5,-504.5 626.5,-523.5 707.5,-523.5 707.5,-504.5 626.5,-504.5"/>
<text text-anchor="middle" x="667" y="-511.5" font-family="Helvetica,sans-Serif" font-size="10.00">include/shd.h</text>
</a>
</g>
</g>
<!-- Node29&#45;&gt;Node34 -->
<g id="edge40" class="edge">
<title>Node29&#45;&gt;Node34</title>
<path fill="none" stroke="midnightblue" d="M651.22,-606.35C655.38,-582.25 662.46,-541.31 665.52,-523.59"/>
<polygon fill="midnightblue" stroke="midnightblue" points="647.74,-605.92 649.49,-616.37 654.64,-607.11 647.74,-605.92"/>
</g>
<!-- Node44 -->
<g id="node42" class="node">
<title>Node44</title>
<g id="a_node42"><a xlink:href="surf_8h.html" target="_top" xlink:title="Surface?">
<polygon fill="white" stroke="black" points="519,-560.5 519,-579.5 601,-579.5 601,-560.5 519,-560.5"/>
<text text-anchor="middle" x="560" y="-567.5" font-family="Helvetica,sans-Serif" font-size="10.00">include/surf.h</text>
</a>
</g>
</g>
<!-- Node29&#45;&gt;Node44 -->
<g id="edge51" class="edge">
<title>Node29&#45;&gt;Node44</title>
<path fill="none" stroke="midnightblue" d="M625.02,-610.9C608.89,-601 587.82,-588.07 574.1,-579.65"/>
<polygon fill="midnightblue" stroke="midnightblue" points="623.51,-614.08 633.86,-616.32 627.17,-608.11 623.51,-614.08"/>
</g>
<!-- Node45 -->
<g id="node43" class="node">
<title>Node45</title>
<g id="a_node43"><a xlink:href="util_8h.html" target="_top" xlink:title="Utility functions.">
<polygon fill="white" stroke="black" points="787,-280.5 787,-299.5 867,-299.5 867,-280.5 787,-280.5"/>
<text text-anchor="middle" x="827" y="-287.5" font-family="Helvetica,sans-Serif" font-size="10.00">include/util.h</text>
</a>
</g>
</g>
<!-- Node29&#45;&gt;Node45 -->
<g id="edge54" class="edge">
<title>Node29&#45;&gt;Node45</title>
<path fill="none" stroke="midnightblue" d="M698.38,-616.25C780.22,-600.59 933,-564.7 933,-515 933,-515 933,-515 933,-401 933,-351.14 875.83,-315.19 845.46,-299.61"/>
<polygon fill="midnightblue" stroke="midnightblue" points="697.71,-612.82 688.53,-618.1 699.01,-619.69 697.71,-612.82"/>
</g>
<!-- Node32&#45;&gt;Node5 -->
<g id="edge36" class="edge">
<title>Node32&#45;&gt;Node5</title>
<path fill="none" stroke="midnightblue" d="M393.45,-275.56C380.67,-268.22 367.15,-257.77 360,-244 355.9,-236.11 355.91,-231.89 360,-224 372.76,-199.37 397.53,-212.26 411,-188 431.74,-150.66 423.99,-96.45 419.89,-75.61"/>
<polygon fill="midnightblue" stroke="midnightblue" points="392.04,-278.77 402.52,-280.36 395.32,-272.59 392.04,-278.77"/>
</g>
<!-- Node32&#45;&gt;Node9 -->
<g id="edge38" class="edge">
<title>Node32&#45;&gt;Node9</title>
<path fill="none" stroke="midnightblue" d="M389.17,-277.17C359.23,-267 316.78,-252.59 290.08,-243.52"/>
<polygon fill="midnightblue" stroke="midnightblue" points="388.21,-280.54 398.81,-280.44 390.46,-273.91 388.21,-280.54"/>
</g>
<!-- Node32&#45;&gt;Node17 -->
<g id="edge37" class="edge">
<title>Node32&#45;&gt;Node17</title>
<path fill="none" stroke="midnightblue" d="M433.74,-271.6C438.39,-263.27 444.01,-253.13 449,-244 471.98,-201.94 498.94,-151.33 509.47,-131.53"/>
<polygon fill="midnightblue" stroke="midnightblue" points="430.65,-269.96 428.83,-280.39 436.76,-273.37 430.65,-269.96"/>
</g>
<!-- Node33 -->
<g id="node33" class="node">
<title>Node33</title>
<g id="a_node33"><a xlink:href="bis_8c.html" target="_top" xlink:title=" ">
<polygon fill="white" stroke="black" points="368.5,-224.5 368.5,-243.5 439.5,-243.5 439.5,-224.5 368.5,-224.5"/>
<text text-anchor="middle" x="404" y="-231.5" font-family="Helvetica,sans-Serif" font-size="10.00">src/P2/bis.c</text>
</a>
</g>
</g>
<!-- Node32&#45;&gt;Node33 -->
<g id="edge35" class="edge">
<title>Node32&#45;&gt;Node33</title>
<path fill="none" stroke="midnightblue" d="M417.22,-270.69C413.85,-261.59 409.93,-251.01 407.24,-243.75"/>
<polygon fill="midnightblue" stroke="midnightblue" points="413.94,-271.92 420.7,-280.08 420.51,-269.49 413.94,-271.92"/>
</g>
<!-- Node35 -->
<g id="node35" class="node">
<title>Node35</title>
<g id="a_node35"><a xlink:href="screen_8h.html" target="_top" xlink:title="User interface manager.">
<polygon fill="white" stroke="black" points="655,-448.5 655,-467.5 751,-467.5 751,-448.5 655,-448.5"/>
<text text-anchor="middle" x="703" y="-455.5" font-family="Helvetica,sans-Serif" font-size="10.00">include/screen.h</text>
</a>
</g>
</g>
<!-- Node34&#45;&gt;Node35 -->
<g id="edge41" class="edge">
<title>Node34&#45;&gt;Node35</title>
<path fill="none" stroke="midnightblue" d="M678.62,-495.57C684.82,-486.27 692.17,-475.25 697.17,-467.75"/>
<polygon fill="midnightblue" stroke="midnightblue" points="675.58,-493.82 672.94,-504.08 681.4,-497.7 675.58,-493.82"/>
</g>
<!-- Node36 -->
<g id="node36" class="node">
<title>Node36</title>
<g id="a_node36"><a xlink:href="screen_8c.html" target="_top" xlink:title=" ">
<polygon fill="white" stroke="black" points="595.5,-392.5 595.5,-411.5 684.5,-411.5 684.5,-392.5 595.5,-392.5"/>
<text text-anchor="middle" x="640" y="-399.5" font-family="Helvetica,sans-Serif" font-size="10.00">src/P2/screen.c</text>
</a>
</g>
</g>
<!-- Node35&#45;&gt;Node36 -->
<g id="edge42" class="edge">
<title>Node35&#45;&gt;Node36</title>
<path fill="none" stroke="midnightblue" d="M684.96,-441.54C673.73,-431.91 659.68,-419.87 650.31,-411.83"/>
<polygon fill="midnightblue" stroke="midnightblue" points="683.01,-444.47 692.88,-448.32 687.56,-439.16 683.01,-444.47"/>
</g>
<!-- Node37 -->
<g id="node37" class="node">
<title>Node37</title>
<g id="a_node37"><a xlink:href="binoc_8h.html" target="_top" xlink:title="Binoc&#45;u&#45;com.">
<polygon fill="white" stroke="black" points="794,-392.5 794,-411.5 884,-411.5 884,-392.5 794,-392.5"/>
<text text-anchor="middle" x="839" y="-399.5" font-family="Helvetica,sans-Serif" font-size="10.00">include/binoc.h</text>
</a>
</g>
</g>
<!-- Node35&#45;&gt;Node37 -->
<g id="edge43" class="edge">
<title>Node35&#45;&gt;Node37</title>
<path fill="none" stroke="midnightblue" d="M734.13,-444.64C759.66,-434.5 795.11,-420.43 817.55,-411.52"/>
<polygon fill="midnightblue" stroke="midnightblue" points="732.55,-441.5 724.55,-448.44 735.14,-448.01 732.55,-441.5"/>
</g>
<!-- Node42 -->
<g id="node40" class="node">
<title>Node42</title>
<g id="a_node40"><a xlink:href="ui_8h.html" target="_top" xlink:title="User interface.">
<polygon fill="white" stroke="black" points="702.5,-392.5 702.5,-411.5 775.5,-411.5 775.5,-392.5 702.5,-392.5"/>
<text text-anchor="middle" x="739" y="-399.5" font-family="Helvetica,sans-Serif" font-size="10.00">include/ui.h</text>
</a>
</g>
</g>
<!-- Node35&#45;&gt;Node42 -->
<g id="edge49" class="edge">
<title>Node35&#45;&gt;Node42</title>
<path fill="none" stroke="midnightblue" d="M714.62,-439.57C720.82,-430.27 728.17,-419.25 733.17,-411.75"/>
<polygon fill="midnightblue" stroke="midnightblue" points="711.58,-437.82 708.94,-448.08 717.4,-441.7 711.58,-437.82"/>
</g>
<!-- Node37&#45;&gt;Node12 -->
<g id="edge46" class="edge">
<title>Node37&#45;&gt;Node12</title>
<path fill="none" stroke="midnightblue" d="M856.64,-385.15C864.14,-377.23 872.06,-367 876,-356 897.88,-294.95 880.97,-214.29 874.36,-187.83"/>
<polygon fill="midnightblue" stroke="midnightblue" points="854.11,-382.73 849.44,-392.24 859.02,-387.72 854.11,-382.73"/>
</g>
<!-- Node37&#45;&gt;Node13 -->
<g id="edge45" class="edge">
<title>Node37&#45;&gt;Node13</title>
<path fill="none" stroke="midnightblue" d="M894.09,-399.83C989.85,-394.45 1185.08,-367.97 1272,-244 1281.37,-230.64 1290.79,-191.66 1269,-168 1230.19,-125.86 1053.34,-122.03 976.18,-122.42"/>
<polygon fill="midnightblue" stroke="midnightblue" points="893.84,-396.33 884.03,-400.33 894.19,-403.32 893.84,-396.33"/>
</g>
<!-- Node38 -->
<g id="node38" class="node">
<title>Node38</title>
<g id="a_node38"><a xlink:href="binoc_8c.html" target="_top" xlink:title=" ">
<polygon fill="white" stroke="black" points="783.5,-336.5 783.5,-355.5 866.5,-355.5 866.5,-336.5 783.5,-336.5"/>
<text text-anchor="middle" x="825" y="-343.5" font-family="Helvetica,sans-Serif" font-size="10.00">src/P2/binoc.c</text>
</a>
</g>
</g>
<!-- Node37&#45;&gt;Node38 -->
<g id="edge44" class="edge">
<title>Node37&#45;&gt;Node38</title>
<path fill="none" stroke="midnightblue" d="M834.18,-382.4C831.83,-373.36 829.13,-362.94 827.27,-355.75"/>
<polygon fill="midnightblue" stroke="midnightblue" points="830.79,-383.28 836.69,-392.08 837.57,-381.52 830.79,-383.28"/>
</g>
<!-- Node39 -->
<g id="node39" class="node">
<title>Node39</title>
<g id="a_node39"><a xlink:href="prog_8h.html" target="_top" xlink:title=" ">
<polygon fill="white" stroke="red" points="679,-336.5 679,-355.5 765,-355.5 765,-336.5 679,-336.5"/>
<text text-anchor="middle" x="722" y="-343.5" font-family="Helvetica,sans-Serif" font-size="10.00">include/prog.h</text>
</a>
</g>
</g>
<!-- Node37&#45;&gt;Node39 -->
<g id="edge47" class="edge">
<title>Node37&#45;&gt;Node39</title>
<path fill="none" stroke="midnightblue" d="M811.34,-388.23C789.45,-378.13 759.5,-364.31 740.45,-355.52"/>
<polygon fill="midnightblue" stroke="midnightblue" points="809.91,-391.43 820.46,-392.44 812.85,-385.08 809.91,-391.43"/>
</g>
<!-- Node39&#45;&gt;Node32 -->
<g id="edge48" class="edge">
<title>Node39&#45;&gt;Node32</title>
<path fill="none" stroke="midnightblue" d="M669.11,-335.42C610.1,-324.72 515.99,-307.67 463.2,-298.1"/>
<polygon fill="midnightblue" stroke="midnightblue" points="668.52,-338.87 678.99,-337.21 669.77,-331.98 668.52,-338.87"/>
</g>
<!-- Node43 -->
<g id="node41" class="node">
<title>Node43</title>
<g id="a_node41"><a xlink:href="ui_8c.html" target="_top" xlink:title=" ">
<polygon fill="white" stroke="black" points="595,-336.5 595,-355.5 661,-355.5 661,-336.5 595,-336.5"/>
<text text-anchor="middle" x="628" y="-343.5" font-family="Helvetica,sans-Serif" font-size="10.00">src/P2/ui.c</text>
</a>
</g>
</g>
<!-- Node42&#45;&gt;Node43 -->
<g id="edge50" class="edge">
<title>Node42&#45;&gt;Node43</title>
<path fill="none" stroke="midnightblue" d="M711.99,-387.86C691.41,-377.85 663.66,-364.35 645.79,-355.65"/>
<polygon fill="midnightblue" stroke="midnightblue" points="710.64,-391.1 721.17,-392.32 713.7,-384.8 710.64,-391.1"/>
</g>
<!-- Node44&#45;&gt;Node9 -->
<g id="edge53" class="edge">
<title>Node44&#45;&gt;Node9</title>
<path fill="none" stroke="midnightblue" d="M544.15,-552.95C509.88,-518.03 426.78,-432.21 362,-356 334.3,-323.42 329.91,-313.23 303,-280 292.58,-267.13 280.13,-252.53 272.39,-243.54"/>
<polygon fill="midnightblue" stroke="midnightblue" points="541.9,-555.66 551.41,-560.33 546.89,-550.75 541.9,-555.66"/>
</g>
<!-- Node44&#45;&gt;Node34 -->
<g id="edge52" class="edge">
<title>Node44&#45;&gt;Node34</title>
<path fill="none" stroke="midnightblue" d="M586.3,-555.73C606.11,-545.73 632.71,-532.31 649.85,-523.65"/>
<polygon fill="midnightblue" stroke="midnightblue" points="584.54,-552.69 577.19,-560.32 587.7,-558.94 584.54,-552.69"/>
</g>
<!-- Node45&#45;&gt;Node9 -->
<g id="edge67" class="edge">
<title>Node45&#45;&gt;Node9</title>
<path fill="none" stroke="midnightblue" d="M776.59,-284.16C668.59,-273.78 416.22,-249.53 311.66,-239.48"/>
<polygon fill="midnightblue" stroke="midnightblue" points="776.29,-287.64 786.58,-285.12 776.96,-280.68 776.29,-287.64"/>
</g>
<!-- Node45&#45;&gt;Node12 -->
<g id="edge58" class="edge">
<title>Node45&#45;&gt;Node12</title>
<path fill="none" stroke="midnightblue" d="M834.36,-271C844.18,-247 861.17,-205.47 868.49,-187.59"/>
<polygon fill="midnightblue" stroke="midnightblue" points="831.08,-269.79 830.53,-280.37 837.56,-272.44 831.08,-269.79"/>
</g>
<!-- Node45&#45;&gt;Node13 -->
<g id="edge55" class="edge">
<title>Node45&#45;&gt;Node13</title>
<path fill="none" stroke="midnightblue" d="M845.4,-274C866.59,-255.79 901.04,-223.11 921,-188 931.46,-169.6 936.6,-144.94 938.74,-131.92"/>
<polygon fill="midnightblue" stroke="midnightblue" points="843.12,-271.35 837.73,-280.47 847.63,-276.7 843.12,-271.35"/>
</g>
<!-- Node45&#45;&gt;Node19 -->
<g id="edge59" class="edge">
<title>Node45&#45;&gt;Node19</title>
<path fill="none" stroke="midnightblue" d="M776.7,-283.82C748.85,-278.34 715.76,-267.09 695,-244 649.93,-193.86 652.26,-103.86 654.24,-75.68"/>
<polygon fill="midnightblue" stroke="midnightblue" points="776.24,-287.29 786.69,-285.59 777.46,-280.4 776.24,-287.29"/>
</g>
<!-- Node45&#45;&gt;Node30 -->
<g id="edge56" class="edge">
<title>Node45&#45;&gt;Node30</title>
<path fill="none" stroke="midnightblue" d="M861.11,-277.04C890.09,-266.88 930.96,-252.55 956.71,-243.52"/>
<polygon fill="midnightblue" stroke="midnightblue" points="859.68,-273.83 851.4,-280.44 862,-280.44 859.68,-273.83"/>
</g>
<!-- Node45&#45;&gt;Node31 -->
<g id="edge57" class="edge">
<title>Node45&#45;&gt;Node31</title>
<path fill="none" stroke="midnightblue" d="M782.69,-278.02C741.51,-267.82 681.03,-252.84 643.38,-243.52"/>
<polygon fill="midnightblue" stroke="midnightblue" points="781.91,-281.44 792.46,-280.44 783.59,-274.64 781.91,-281.44"/>
</g>
<!-- Node46 -->
<g id="node44" class="node">
<title>Node46</title>
<g id="a_node44"><a xlink:href="joy_8h.html" target="_top" xlink:title="Joypad manager.">
<polygon fill="white" stroke="black" points="1185.5,-224.5 1185.5,-243.5 1262.5,-243.5 1262.5,-224.5 1185.5,-224.5"/>
<text text-anchor="middle" x="1224" y="-231.5" font-family="Helvetica,sans-Serif" font-size="10.00">include/joy.h</text>
</a>
</g>
</g>
<!-- Node45&#45;&gt;Node46 -->
<g id="edge60" class="edge">
<title>Node45&#45;&gt;Node46</title>
<path fill="none" stroke="midnightblue" d="M877.62,-282.12C958.04,-271.18 1113.26,-250.06 1185.4,-240.25"/>
<polygon fill="midnightblue" stroke="midnightblue" points="876.69,-278.71 867.25,-283.53 877.63,-285.65 876.69,-278.71"/>
</g>
<!-- Node45&#45;&gt;Node48 -->
<g id="edge63" class="edge">
<title>Node45&#45;&gt;Node48</title>
<path fill="none" stroke="midnightblue" d="M877.02,-278.41C925.18,-268.21 997.09,-252.98 1041.69,-243.54"/>
<polygon fill="midnightblue" stroke="midnightblue" points="876.18,-275.01 867.12,-280.5 877.63,-281.86 876.18,-275.01"/>
</g>
<!-- Node49 -->
<g id="node47" class="node">
<title>Node49</title>
<g id="a_node47"><a xlink:href="ref_8h.html" target="_top" xlink:title=" ">
<polygon fill="white" stroke="black" points="704,-224.5 704,-243.5 812,-243.5 812,-224.5 704,-224.5"/>
<text text-anchor="middle" x="758" y="-231.5" font-family="Helvetica,sans-Serif" font-size="10.00">include/splice/ref.h</text>
</a>
</g>
</g>
<!-- Node45&#45;&gt;Node49 -->
<g id="edge65" class="edge">
<title>Node45&#45;&gt;Node49</title>
<path fill="none" stroke="midnightblue" d="M807.96,-274.1C795.54,-264.38 779.76,-252.03 769.29,-243.83"/>
<polygon fill="midnightblue" stroke="midnightblue" points="805.88,-276.92 815.91,-280.32 810.2,-271.4 805.88,-276.92"/>
</g>
<!-- Node46&#45;&gt;Node27 -->
<g id="edge62" class="edge">
<title>Node46&#45;&gt;Node27</title>
<path fill="none" stroke="midnightblue" d="M1257.67,-221.04C1286.27,-210.88 1326.61,-196.55 1352.03,-187.52"/>
<polygon fill="midnightblue" stroke="midnightblue" points="1256.34,-217.8 1248.08,-224.44 1258.68,-224.39 1256.34,-217.8"/>
</g>
<!-- Node47 -->
<g id="node45" class="node">
<title>Node47</title>
<g id="a_node45"><a xlink:href="joy_8c.html" target="_top" xlink:title=" ">
<polygon fill="white" stroke="black" points="1188.5,-168.5 1188.5,-187.5 1259.5,-187.5 1259.5,-168.5 1188.5,-168.5"/>
<text text-anchor="middle" x="1224" y="-175.5" font-family="Helvetica,sans-Serif" font-size="10.00">src/P2/joy.c</text>
</a>
</g>
</g>
<!-- Node46&#45;&gt;Node47 -->
<g id="edge61" class="edge">
<title>Node46&#45;&gt;Node47</title>
<path fill="none" stroke="midnightblue" d="M1224,-213.8C1224,-204.91 1224,-194.78 1224,-187.75"/>
<polygon fill="midnightblue" stroke="midnightblue" points="1220.5,-214.08 1224,-224.08 1227.5,-214.08 1220.5,-214.08"/>
</g>
<!-- Node48&#45;&gt;Node12 -->
<g id="edge64" class="edge">
<title>Node48&#45;&gt;Node12</title>
<path fill="none" stroke="midnightblue" d="M1038.81,-221.89C999.15,-211.7 941.23,-196.8 905.12,-187.52"/>
<polygon fill="midnightblue" stroke="midnightblue" points="1038.17,-225.34 1048.72,-224.44 1039.91,-218.56 1038.17,-225.34"/>
</g>
<!-- Node50 -->
<g id="node48" class="node">
<title>Node50</title>
<g id="a_node48"><a xlink:href="ref_8cpp.html" target="_top" xlink:title=" ">
<polygon fill="white" stroke="black" points="701.5,-168.5 701.5,-187.5 814.5,-187.5 814.5,-168.5 701.5,-168.5"/>
<text text-anchor="middle" x="758" y="-175.5" font-family="Helvetica,sans-Serif" font-size="10.00">src/P2/splice/ref.cpp</text>
</a>
</g>
</g>
<!-- Node49&#45;&gt;Node50 -->
<g id="edge66" class="edge">
<title>Node49&#45;&gt;Node50</title>
<path fill="none" stroke="midnightblue" d="M758,-213.8C758,-204.91 758,-194.78 758,-187.75"/>
<polygon fill="midnightblue" stroke="midnightblue" points="754.5,-214.08 758,-224.08 761.5,-214.08 754.5,-214.08"/>
</g>
<!-- Node51&#45;&gt;Node9 -->
<g id="edge75" class="edge">
<title>Node51&#45;&gt;Node9</title>
<path fill="none" stroke="midnightblue" d="M330.91,-382.86C315.04,-347.25 280.36,-269.45 268.82,-243.57"/>
<polygon fill="midnightblue" stroke="midnightblue" points="327.75,-384.37 335.02,-392.08 334.15,-381.52 327.75,-384.37"/>
</g>
<!-- Node52 -->
<g id="node50" class="node">
<title>Node52</title>
<g id="a_node50"><a xlink:href="sm_8h.html" target="_top" xlink:title="State machines.">
<polygon fill="white" stroke="black" points="370.5,-336.5 370.5,-355.5 449.5,-355.5 449.5,-336.5 370.5,-336.5"/>
<text text-anchor="middle" x="410" y="-343.5" font-family="Helvetica,sans-Serif" font-size="10.00">include/sm.h</text>
</a>
</g>
</g>
<!-- Node51&#45;&gt;Node52 -->
<g id="edge71" class="edge">
<title>Node51&#45;&gt;Node52</title>
<path fill="none" stroke="midnightblue" d="M358.59,-386.1C371.37,-376.38 387.61,-364.03 398.39,-355.83"/>
<polygon fill="midnightblue" stroke="midnightblue" points="356.25,-383.48 350.41,-392.32 360.49,-389.06 356.25,-383.48"/>
</g>
<!-- Node52&#45;&gt;Node4 -->
<g id="edge72" class="edge">
<title>Node52&#45;&gt;Node4</title>
<path fill="none" stroke="midnightblue" d="M383.92,-331.86C325.56,-302.48 187.83,-233.34 166,-224 132.94,-209.86 93.79,-196.14 68.46,-187.64"/>
<polygon fill="midnightblue" stroke="midnightblue" points="382.39,-335.01 392.9,-336.38 385.54,-328.76 382.39,-335.01"/>
</g>
<!-- Node52&#45;&gt;Node14 -->
<g id="edge73" class="edge">
<title>Node52&#45;&gt;Node14</title>
<path fill="none" stroke="midnightblue" d="M430.71,-330.5C442.89,-321.84 458.49,-310.52 472,-300 513.57,-267.62 518.11,-251.6 563,-224 616.59,-191.05 634.64,-191.5 693,-168 726.02,-154.7 764.64,-140.45 788.96,-131.63"/>
<polygon fill="midnightblue" stroke="midnightblue" points="428.68,-327.65 422.53,-336.28 432.72,-333.37 428.68,-327.65"/>
</g>
<!-- Node52&#45;&gt;Node45 -->
<g id="edge74" class="edge">
<title>Node52&#45;&gt;Node45</title>
<path fill="none" stroke="midnightblue" d="M459.6,-338.58C543.08,-327.77 710.02,-306.15 786.74,-296.21"/>
<polygon fill="midnightblue" stroke="midnightblue" points="459.07,-335.12 449.61,-339.87 459.97,-342.06 459.07,-335.12"/>
</g>
</g>
</svg>
