<?xml version="1.0" encoding="UTF-8" standalone="no"?>
<!DOCTYPE svg PUBLIC "-//W3C//DTD SVG 1.1//EN"
 "http://www.w3.org/Graphics/SVG/1.1/DTD/svg11.dtd">
<!-- Generated by graphviz version 2.43.0 (0)
 -->
<!-- Title: include/freeze.h Pages: 1 -->
<svg width="523pt" height="192pt"
 viewBox="0.00 0.00 523.00 192.00" xmlns="http://www.w3.org/2000/svg" xmlns:xlink="http://www.w3.org/1999/xlink">
<g id="graph0" class="graph" transform="scale(1 1) rotate(0) translate(4 188)">
<title>include/freeze.h</title>
<!-- Node1 -->
<g id="Node000001" class="node">
<title>Node1</title>
<g id="a_Node000001"><a xlink:title=" ">
<polygon fill="#999999" stroke="#666666" points="302,-184 207,-184 207,-165 302,-165 302,-184"/>
<text text-anchor="middle" x="254.5" y="-172" font-family="Helvetica,sans-Serif" font-size="10.00">include/freeze.h</text>
</a>
</g>
</g>
<!-- Node2 -->
<g id="Node000002" class="node">
<title>Node2</title>
<g id="a_Node000002"><a xlink:href="frzg_8h.html" target="_top" xlink:title=" ">
<polygon fill="white" stroke="#666666" points="83,-129 0,-129 0,-110 83,-110 83,-129"/>
<text text-anchor="middle" x="41.5" y="-117" font-family="Helvetica,sans-Serif" font-size="10.00">include/frzg.h</text>
</a>
</g>
</g>
<!-- Node1&#45;&gt;Node2 -->
<g id="edge1_Node000001_Node000002" class="edge">
<title>Node1&#45;&gt;Node2</title>
<g id="a_edge1_Node000001_Node000002"><a xlink:title=" ">
<path fill="none" stroke="#63b8ff" d="M210.55,-162.56C170.66,-152.64 112.63,-138.2 75.99,-129.08"/>
<polygon fill="#63b8ff" stroke="#63b8ff" points="209.73,-165.97 220.28,-164.98 211.42,-159.17 209.73,-165.97"/>
</a>
</g>
</g>
<!-- Node4 -->
<g id="Node000004" class="node">
<title>Node4</title>
<g id="a_Node000004"><a xlink:href="water_8h.html" target="_top" xlink:title="Good ol&#39; H20.">
<polygon fill="white" stroke="#666666" points="192,-129 101,-129 101,-110 192,-110 192,-129"/>
<text text-anchor="middle" x="146.5" y="-117" font-family="Helvetica,sans-Serif" font-size="10.00">include/water.h</text>
</a>
</g>
</g>
<!-- Node1&#45;&gt;Node4 -->
<g id="edge3_Node000001_Node000004" class="edge">
<title>Node1&#45;&gt;Node4</title>
<g id="a_edge3_Node000001_Node000004"><a xlink:title=" ">
<path fill="none" stroke="#63b8ff" d="M228.01,-160.5C208.14,-150.75 181.5,-137.68 164.17,-129.17"/>
<polygon fill="#63b8ff" stroke="#63b8ff" points="226.63,-163.72 237.15,-164.98 229.71,-157.44 226.63,-163.72"/>
</a>
</g>
</g>
<!-- Node8 -->
<g id="Node000008" class="node">
<title>Node8</title>
<g id="a_Node000008"><a xlink:href="freeze_8c.html" target="_top" xlink:title=" ">
<polygon fill="white" stroke="#666666" points="298.5,-129 210.5,-129 210.5,-110 298.5,-110 298.5,-129"/>
<text text-anchor="middle" x="254.5" y="-117" font-family="Helvetica,sans-Serif" font-size="10.00">src/P2/freeze.c</text>
</a>
</g>
</g>
<!-- Node1&#45;&gt;Node8 -->
<g id="edge7_Node000001_Node000008" class="edge">
<title>Node1&#45;&gt;Node8</title>
<g id="a_edge7_Node000001_Node000008"><a xlink:title=" ">
<path fill="none" stroke="#63b8ff" d="M254.5,-154.66C254.5,-145.93 254.5,-135.99 254.5,-129.09"/>
<polygon fill="#63b8ff" stroke="#63b8ff" points="251,-154.75 254.5,-164.75 258,-154.75 251,-154.75"/>
</a>
</g>
</g>
<!-- Node9 -->
<g id="Node000009" class="node">
<title>Node9</title>
<g id="a_Node000009"><a xlink:href="smartguard_8c.html" target="_top" xlink:title=" ">
<polygon fill="white" stroke="#666666" points="430,-129 317,-129 317,-110 430,-110 430,-129"/>
<text text-anchor="middle" x="373.5" y="-117" font-family="Helvetica,sans-Serif" font-size="10.00">src/P2/smartguard.c</text>
</a>
</g>
</g>
<!-- Node1&#45;&gt;Node9 -->
<g id="edge8_Node000001_Node000009" class="edge">
<title>Node1&#45;&gt;Node9</title>
<g id="a_edge8_Node000001_Node000009"><a xlink:title=" ">
<path fill="none" stroke="#63b8ff" d="M282.8,-160.9C304.78,-151.11 334.68,-137.79 354.03,-129.17"/>
<polygon fill="#63b8ff" stroke="#63b8ff" points="281.33,-157.72 273.62,-164.98 284.18,-164.11 281.33,-157.72"/>
</a>
</g>
</g>
<!-- Node10 -->
<g id="Node000010" class="node">
<title>Node10</title>
<g id="a_Node000010"><a xlink:href="tn_8c.html" target="_top" xlink:title=" ">
<polygon fill="white" stroke="#666666" points="515,-129 448,-129 448,-110 515,-110 515,-129"/>
<text text-anchor="middle" x="481.5" y="-117" font-family="Helvetica,sans-Serif" font-size="10.00">src/P2/tn.c</text>
</a>
</g>
</g>
<!-- Node1&#45;&gt;Node10 -->
<g id="edge9_Node000001_Node000010" class="edge">
<title>Node1&#45;&gt;Node10</title>
<g id="a_edge9_Node000001_Node000010"><a xlink:title=" ">
<path fill="none" stroke="#63b8ff" d="M300.77,-162.7C344.39,-152.51 408.72,-137.49 447.71,-128.39"/>
<polygon fill="#63b8ff" stroke="#63b8ff" points="299.91,-159.3 290.97,-164.98 301.51,-166.12 299.91,-159.3"/>
</a>
</g>
</g>
<!-- Node3 -->
<g id="Node000003" class="node">
<title>Node3</title>
<g id="a_Node000003"><a xlink:href="frzg_8c.html" target="_top" xlink:title=" ">
<polygon fill="white" stroke="#666666" points="79.5,-74 3.5,-74 3.5,-55 79.5,-55 79.5,-74"/>
<text text-anchor="middle" x="41.5" y="-62" font-family="Helvetica,sans-Serif" font-size="10.00">src/P2/frzg.c</text>
</a>
</g>
</g>
<!-- Node2&#45;&gt;Node3 -->
<g id="edge2_Node000002_Node000003" class="edge">
<title>Node2&#45;&gt;Node3</title>
<g id="a_edge2_Node000002_Node000003"><a xlink:title=" ">
<path fill="none" stroke="#63b8ff" d="M41.5,-99.66C41.5,-90.93 41.5,-80.99 41.5,-74.09"/>
<polygon fill="#63b8ff" stroke="#63b8ff" points="38,-99.75 41.5,-109.75 45,-99.75 38,-99.75"/>
</a>
</g>
</g>
<!-- Node5 -->
<g id="Node000005" class="node">
<title>Node5</title>
<g id="a_Node000005"><a xlink:href="puffer_8h.html" target="_top" xlink:title="Piranha Lake in Vicious Voodoo (believed to be formerly called &quot;Pufferfish Pond&quot;).">
<polygon fill="white" stroke="#666666" points="190.5,-74 98.5,-74 98.5,-55 190.5,-55 190.5,-74"/>
<text text-anchor="middle" x="144.5" y="-62" font-family="Helvetica,sans-Serif" font-size="10.00">include/puffer.h</text>
</a>
</g>
</g>
<!-- Node4&#45;&gt;Node5 -->
<g id="edge4_Node000004_Node000005" class="edge">
<title>Node4&#45;&gt;Node5</title>
<g id="a_edge4_Node000004_Node000005"><a xlink:title=" ">
<path fill="none" stroke="#63b8ff" d="M145.79,-99.66C145.46,-90.93 145.08,-80.99 144.82,-74.09"/>
<polygon fill="#63b8ff" stroke="#63b8ff" points="142.3,-99.89 146.17,-109.75 149.29,-99.62 142.3,-99.89"/>
</a>
</g>
</g>
<!-- Node7 -->
<g id="Node000007" class="node">
<title>Node7</title>
<g id="a_Node000007"><a xlink:href="water_8c.html" target="_top" xlink:title=" ">
<polygon fill="white" stroke="#666666" points="292.5,-74 208.5,-74 208.5,-55 292.5,-55 292.5,-74"/>
<text text-anchor="middle" x="250.5" y="-62" font-family="Helvetica,sans-Serif" font-size="10.00">src/P2/water.c</text>
</a>
</g>
</g>
<!-- Node4&#45;&gt;Node7 -->
<g id="edge6_Node000004_Node000007" class="edge">
<title>Node4&#45;&gt;Node7</title>
<g id="a_edge6_Node000004_Node000007"><a xlink:title=" ">
<path fill="none" stroke="#63b8ff" d="M172.27,-105.37C191.37,-95.63 216.87,-82.64 233.49,-74.17"/>
<polygon fill="#63b8ff" stroke="#63b8ff" points="170.53,-102.33 163.21,-109.98 173.71,-108.56 170.53,-102.33"/>
</a>
</g>
</g>
<!-- Node6 -->
<g id="Node000006" class="node">
<title>Node6</title>
<g id="a_Node000006"><a xlink:href="puffer_8c.html" target="_top" xlink:title=" ">
<polygon fill="white" stroke="#666666" points="187,-19 102,-19 102,0 187,0 187,-19"/>
<text text-anchor="middle" x="144.5" y="-7" font-family="Helvetica,sans-Serif" font-size="10.00">src/P2/puffer.c</text>
</a>
</g>
</g>
<!-- Node5&#45;&gt;Node6 -->
<g id="edge5_Node000005_Node000006" class="edge">
<title>Node5&#45;&gt;Node6</title>
<g id="a_edge5_Node000005_Node000006"><a xlink:title=" ">
<path fill="none" stroke="#63b8ff" d="M144.5,-44.66C144.5,-35.93 144.5,-25.99 144.5,-19.09"/>
<polygon fill="#63b8ff" stroke="#63b8ff" points="141,-44.75 144.5,-54.75 148,-44.75 141,-44.75"/>
</a>
</g>
</g>
</g>
</svg>
