<?xml version="1.0" encoding="UTF-8" standalone="no"?>
<!DOCTYPE svg PUBLIC "-//W3C//DTD SVG 1.1//EN"
 "http://www.w3.org/Graphics/SVG/1.1/DTD/svg11.dtd">
<!-- Generated by graphviz version 2.43.0 (0)
 -->
<!-- Title: include/frm.h Pages: 1 -->
<svg width="582pt" height="82pt"
 viewBox="0.00 0.00 581.50 82.00" xmlns="http://www.w3.org/2000/svg" xmlns:xlink="http://www.w3.org/1999/xlink">
<g id="graph0" class="graph" transform="scale(1 1) rotate(0) translate(4 78)">
<title>include/frm.h</title>
<!-- Node1 -->
<g id="Node000001" class="node">
<title>Node1</title>
<g id="a_Node000001"><a xlink:title="Frame manager.">
<polygon fill="#999999" stroke="#666666" points="322.5,-74 241.5,-74 241.5,-55 322.5,-55 322.5,-74"/>
<text text-anchor="middle" x="282" y="-62" font-family="Helvetica,sans-Serif" font-size="10.00">include/frm.h</text>
</a>
</g>
</g>
<!-- Node2 -->
<g id="Node000002" class="node">
<title>Node2</title>
<g id="a_Node000002"><a xlink:href="frm_8c.html" target="_top" xlink:title=" ">
<polygon fill="white" stroke="#666666" points="74,-19 0,-19 0,0 74,0 74,-19"/>
<text text-anchor="middle" x="37" y="-7" font-family="Helvetica,sans-Serif" font-size="10.00">src/P2/frm.c</text>
</a>
</g>
</g>
<!-- Node1&#45;&gt;Node2 -->
<g id="edge1_Node000001_Node000002" class="edge">
<title>Node1&#45;&gt;Node2</title>
<g id="a_edge1_Node000001_Node000002"><a xlink:title=" ">
<path fill="none" stroke="#63b8ff" d="M232.72,-52.84C185.92,-42.72 116.61,-27.72 74.26,-18.56"/>
<polygon fill="#63b8ff" stroke="#63b8ff" points="232.12,-56.29 242.64,-54.98 233.6,-49.45 232.12,-56.29"/>
</a>
</g>
</g>
<!-- Node3 -->
<g id="Node000003" class="node">
<title>Node3</title>
<g id="a_Node000003"><a xlink:href="light_8c.html" target="_top" xlink:title=" ">
<polygon fill="white" stroke="#666666" points="171.5,-19 92.5,-19 92.5,0 171.5,0 171.5,-19"/>
<text text-anchor="middle" x="132" y="-7" font-family="Helvetica,sans-Serif" font-size="10.00">src/P2/light.c</text>
</a>
</g>
</g>
<!-- Node1&#45;&gt;Node3 -->
<g id="edge2_Node000001_Node000003" class="edge">
<title>Node1&#45;&gt;Node3</title>
<g id="a_edge2_Node000001_Node000003"><a xlink:title=" ">
<path fill="none" stroke="#63b8ff" d="M248.18,-51.55C220.32,-41.71 181.49,-27.98 156.54,-19.17"/>
<polygon fill="#63b8ff" stroke="#63b8ff" points="247.31,-54.95 257.9,-54.98 249.64,-48.35 247.31,-54.95"/>
</a>
</g>
</g>
<!-- Node4 -->
<g id="Node000004" class="node">
<title>Node4</title>
<g id="a_Node000004"><a xlink:href="main_8c.html" target="_top" xlink:title=" ">
<polygon fill="white" stroke="#666666" points="272,-19 190,-19 190,0 272,0 272,-19"/>
<text text-anchor="middle" x="231" y="-7" font-family="Helvetica,sans-Serif" font-size="10.00">src/P2/main.c</text>
</a>
</g>
</g>
<!-- Node1&#45;&gt;Node4 -->
<g id="edge3_Node000001_Node000004" class="edge">
<title>Node1&#45;&gt;Node4</title>
<g id="a_edge3_Node000001_Node000004"><a xlink:title=" ">
<path fill="none" stroke="#63b8ff" d="M266.62,-47.52C257.63,-38.18 246.64,-26.75 239.26,-19.09"/>
<polygon fill="#63b8ff" stroke="#63b8ff" points="264.12,-49.97 273.58,-54.75 269.17,-45.12 264.12,-49.97"/>
</a>
</g>
</g>
<!-- Node5 -->
<g id="Node000005" class="node">
<title>Node5</title>
<g id="a_Node000005"><a xlink:href="render_8c.html" target="_top" xlink:title=" ">
<polygon fill="white" stroke="#666666" points="378,-19 290,-19 290,0 378,0 378,-19"/>
<text text-anchor="middle" x="334" y="-7" font-family="Helvetica,sans-Serif" font-size="10.00">src/P2/render.c</text>
</a>
</g>
</g>
<!-- Node1&#45;&gt;Node5 -->
<g id="edge4_Node000001_Node000005" class="edge">
<title>Node1&#45;&gt;Node5</title>
<g id="a_edge4_Node000001_Node000005"><a xlink:title=" ">
<path fill="none" stroke="#63b8ff" d="M297.68,-47.52C306.84,-38.18 318.05,-26.75 325.57,-19.09"/>
<polygon fill="#63b8ff" stroke="#63b8ff" points="295.09,-45.16 290.59,-54.75 300.09,-50.06 295.09,-45.16"/>
</a>
</g>
</g>
<!-- Node6 -->
<g id="Node000006" class="node">
<title>Node6</title>
<g id="a_Node000006"><a xlink:href="sw_8c.html" target="_top" xlink:title=" ">
<polygon fill="white" stroke="#666666" points="466,-19 396,-19 396,0 466,0 466,-19"/>
<text text-anchor="middle" x="431" y="-7" font-family="Helvetica,sans-Serif" font-size="10.00">src/P2/sw.c</text>
</a>
</g>
</g>
<!-- Node1&#45;&gt;Node6 -->
<g id="edge5_Node000001_Node000006" class="edge">
<title>Node1&#45;&gt;Node6</title>
<g id="a_edge5_Node000001_Node000006"><a xlink:title=" ">
<path fill="none" stroke="#63b8ff" d="M315.59,-51.55C343.26,-41.71 381.84,-27.98 406.62,-19.17"/>
<polygon fill="#63b8ff" stroke="#63b8ff" points="314.19,-48.34 305.94,-54.98 316.53,-54.93 314.19,-48.34"/>
</a>
</g>
</g>
<!-- Node7 -->
<g id="Node000007" class="node">
<title>Node7</title>
<g id="a_Node000007"><a xlink:href="thread_8c.html" target="_top" xlink:title=" ">
<polygon fill="white" stroke="#666666" points="573.5,-19 484.5,-19 484.5,0 573.5,0 573.5,-19"/>
<text text-anchor="middle" x="529" y="-7" font-family="Helvetica,sans-Serif" font-size="10.00">src/P2/thread.c</text>
</a>
</g>
</g>
<!-- Node1&#45;&gt;Node7 -->
<g id="edge6_Node000001_Node000007" class="edge">
<title>Node1&#45;&gt;Node7</title>
<g id="a_edge6_Node000001_Node000007"><a xlink:title=" ">
<path fill="none" stroke="#63b8ff" d="M331.5,-52.88C377.8,-42.94 446.07,-28.3 489,-19.08"/>
<polygon fill="#63b8ff" stroke="#63b8ff" points="330.73,-49.46 321.68,-54.98 332.2,-56.31 330.73,-49.46"/>
</a>
</g>
</g>
</g>
</svg>
