<?xml version="1.0" encoding="UTF-8" standalone="no"?>
<!DOCTYPE svg PUBLIC "-//W3C//DTD SVG 1.1//EN"
 "http://www.w3.org/Graphics/SVG/1.1/DTD/svg11.dtd">
<!-- Generated by graphviz version 2.43.0 (0)
 -->
<!-- Title: include/game.h Pages: 1 -->
<svg width="1022pt" height="308pt"
 viewBox="0.00 0.00 1022.00 308.00" xmlns="http://www.w3.org/2000/svg" xmlns:xlink="http://www.w3.org/1999/xlink">
<g id="graph0" class="graph" transform="scale(1 1) rotate(0) translate(4 304)">
<title>include/game.h</title>
<polygon fill="white" stroke="transparent" points="-4,4 -4,-304 1018,-304 1018,4 -4,4"/>
<!-- Node1 -->
<g id="node1" class="node">
<title>Node1</title>
<g id="a_node1"><a xlink:title="Game state and level management.">
<polygon fill="#bfbfbf" stroke="black" points="211.5,-280.5 211.5,-299.5 303.5,-299.5 303.5,-280.5 211.5,-280.5"/>
<text text-anchor="middle" x="257.5" y="-287.5" font-family="Helvetica,sans-Serif" font-size="10.00">include/game.h</text>
</a>
</g>
</g>
<!-- Node2 -->
<g id="node2" class="node">
<title>Node2</title>
<g id="a_node2"><a xlink:href="game_8c.html" target="_top" xlink:title=" ">
<polygon fill="white" stroke="black" points="0,-224.5 0,-243.5 85,-243.5 85,-224.5 0,-224.5"/>
<text text-anchor="middle" x="42.5" y="-231.5" font-family="Helvetica,sans-Serif" font-size="10.00">src/P2/game.c</text>
</a>
</g>
</g>
<!-- Node1&#45;&gt;Node2 -->
<g id="edge1" class="edge">
<title>Node1&#45;&gt;Node2</title>
<path fill="none" stroke="midnightblue" d="M213.54,-277.96C172.93,-267.76 113.46,-252.82 76.41,-243.52"/>
<polygon fill="midnightblue" stroke="midnightblue" points="212.88,-281.4 223.43,-280.44 214.59,-274.61 212.88,-281.4"/>
</g>
<!-- Node3 -->
<g id="node3" class="node">
<title>Node3</title>
<g id="a_node3"><a xlink:href="main_8c.html" target="_top" xlink:title=" ">
<polygon fill="white" stroke="black" points="103.5,-224.5 103.5,-243.5 185.5,-243.5 185.5,-224.5 103.5,-224.5"/>
<text text-anchor="middle" x="144.5" y="-231.5" font-family="Helvetica,sans-Serif" font-size="10.00">src/P2/main.c</text>
</a>
</g>
</g>
<!-- Node1&#45;&gt;Node3 -->
<g id="edge2" class="edge">
<title>Node1&#45;&gt;Node3</title>
<path fill="none" stroke="midnightblue" d="M230.5,-276.1C209.39,-266.01 180.64,-252.27 162.32,-243.52"/>
<polygon fill="midnightblue" stroke="midnightblue" points="229.06,-279.29 239.59,-280.44 232.08,-272.97 229.06,-279.29"/>
</g>
<!-- Node4 -->
<g id="node4" class="node">
<title>Node4</title>
<g id="a_node4"><a xlink:href="steppower_8c.html" target="_top" xlink:title=" ">
<polygon fill="white" stroke="black" points="204,-224.5 204,-243.5 311,-243.5 311,-224.5 204,-224.5"/>
<text text-anchor="middle" x="257.5" y="-231.5" font-family="Helvetica,sans-Serif" font-size="10.00">src/P2/steppower.c</text>
</a>
</g>
</g>
<!-- Node1&#45;&gt;Node4 -->
<g id="edge3" class="edge">
<title>Node1&#45;&gt;Node4</title>
<path fill="none" stroke="midnightblue" d="M257.5,-269.8C257.5,-260.91 257.5,-250.78 257.5,-243.75"/>
<polygon fill="midnightblue" stroke="midnightblue" points="254,-270.08 257.5,-280.08 261,-270.08 254,-270.08"/>
</g>
<!-- Node5 -->
<g id="node5" class="node">
<title>Node5</title>
<g id="a_node5"><a xlink:href="screen_8h.html" target="_top" xlink:title="User interface manager.">
<polygon fill="white" stroke="black" points="329.5,-224.5 329.5,-243.5 425.5,-243.5 425.5,-224.5 329.5,-224.5"/>
<text text-anchor="middle" x="377.5" y="-231.5" font-family="Helvetica,sans-Serif" font-size="10.00">include/screen.h</text>
</a>
</g>
</g>
<!-- Node1&#45;&gt;Node5 -->
<g id="edge4" class="edge">
<title>Node1&#45;&gt;Node5</title>
<path fill="none" stroke="midnightblue" d="M285.87,-276.23C308.32,-266.13 339.04,-252.31 358.57,-243.52"/>
<polygon fill="midnightblue" stroke="midnightblue" points="284.2,-273.15 276.51,-280.44 287.07,-279.53 284.2,-273.15"/>
</g>
<!-- Node9 -->
<g id="node9" class="node">
<title>Node9</title>
<g id="a_node9"><a xlink:href="xform_8h.html" target="_top" xlink:title="Transform.">
<polygon fill="white" stroke="black" points="594,-224.5 594,-243.5 687,-243.5 687,-224.5 594,-224.5"/>
<text text-anchor="middle" x="640.5" y="-231.5" font-family="Helvetica,sans-Serif" font-size="10.00">include/xform.h</text>
</a>
</g>
</g>
<!-- Node1&#45;&gt;Node9 -->
<g id="edge8" class="edge">
<title>Node1&#45;&gt;Node9</title>
<path fill="none" stroke="midnightblue" d="M314.01,-281.03C389.91,-270.33 523.35,-251.52 593.84,-241.58"/>
<polygon fill="midnightblue" stroke="midnightblue" points="313.11,-277.62 303.7,-282.49 314.09,-284.56 313.11,-277.62"/>
</g>
<!-- Node6 -->
<g id="node6" class="node">
<title>Node6</title>
<g id="a_node6"><a xlink:href="screen_8c.html" target="_top" xlink:title=" ">
<polygon fill="white" stroke="black" points="234,-168.5 234,-187.5 323,-187.5 323,-168.5 234,-168.5"/>
<text text-anchor="middle" x="278.5" y="-175.5" font-family="Helvetica,sans-Serif" font-size="10.00">src/P2/screen.c</text>
</a>
</g>
</g>
<!-- Node5&#45;&gt;Node6 -->
<g id="edge5" class="edge">
<title>Node5&#45;&gt;Node6</title>
<path fill="none" stroke="midnightblue" d="M352.66,-219.45C334.39,-209.48 310.08,-196.23 294.37,-187.65"/>
<polygon fill="midnightblue" stroke="midnightblue" points="351.14,-222.61 361.59,-224.32 354.49,-216.46 351.14,-222.61"/>
</g>
<!-- Node7 -->
<g id="node7" class="node">
<title>Node7</title>
<g id="a_node7"><a xlink:href="ui_8h.html" target="_top" xlink:title="User interface.">
<polygon fill="white" stroke="black" points="341,-168.5 341,-187.5 414,-187.5 414,-168.5 341,-168.5"/>
<text text-anchor="middle" x="377.5" y="-175.5" font-family="Helvetica,sans-Serif" font-size="10.00">include/ui.h</text>
</a>
</g>
</g>
<!-- Node5&#45;&gt;Node7 -->
<g id="edge6" class="edge">
<title>Node5&#45;&gt;Node7</title>
<path fill="none" stroke="midnightblue" d="M377.5,-213.8C377.5,-204.91 377.5,-194.78 377.5,-187.75"/>
<polygon fill="midnightblue" stroke="midnightblue" points="374,-214.08 377.5,-224.08 381,-214.08 374,-214.08"/>
</g>
<!-- Node8 -->
<g id="node8" class="node">
<title>Node8</title>
<g id="a_node8"><a xlink:href="ui_8c.html" target="_top" xlink:title=" ">
<polygon fill="white" stroke="black" points="344.5,-112.5 344.5,-131.5 410.5,-131.5 410.5,-112.5 344.5,-112.5"/>
<text text-anchor="middle" x="377.5" y="-119.5" font-family="Helvetica,sans-Serif" font-size="10.00">src/P2/ui.c</text>
</a>
</g>
</g>
<!-- Node7&#45;&gt;Node8 -->
<g id="edge7" class="edge">
<title>Node7&#45;&gt;Node8</title>
<path fill="none" stroke="midnightblue" d="M377.5,-157.8C377.5,-148.91 377.5,-138.78 377.5,-131.75"/>
<polygon fill="midnightblue" stroke="midnightblue" points="374,-158.08 377.5,-168.08 381,-158.08 374,-158.08"/>
</g>
<!-- Node10 -->
<g id="node10" class="node">
<title>Node10</title>
<g id="a_node10"><a xlink:href="xform1_8c.html" target="_top" xlink:title=" ">
<polygon fill="white" stroke="black" points="432.5,-168.5 432.5,-187.5 524.5,-187.5 524.5,-168.5 432.5,-168.5"/>
<text text-anchor="middle" x="478.5" y="-175.5" font-family="Helvetica,sans-Serif" font-size="10.00">src/P2/xform1.c</text>
</a>
</g>
</g>
<!-- Node9&#45;&gt;Node10 -->
<g id="edge9" class="edge">
<title>Node9&#45;&gt;Node10</title>
<path fill="none" stroke="midnightblue" d="M605.02,-221.17C574.51,-211 531.26,-196.59 504.05,-187.52"/>
<polygon fill="midnightblue" stroke="midnightblue" points="604.24,-224.6 614.83,-224.44 606.45,-217.96 604.24,-224.6"/>
</g>
<!-- Node11 -->
<g id="node11" class="node">
<title>Node11</title>
<g id="a_node11"><a xlink:href="xform2_8c.html" target="_top" xlink:title=" ">
<polygon fill="white" stroke="black" points="542.5,-168.5 542.5,-187.5 634.5,-187.5 634.5,-168.5 542.5,-168.5"/>
<text text-anchor="middle" x="588.5" y="-175.5" font-family="Helvetica,sans-Serif" font-size="10.00">src/P2/xform2.c</text>
</a>
</g>
</g>
<!-- Node9&#45;&gt;Node11 -->
<g id="edge10" class="edge">
<title>Node9&#45;&gt;Node11</title>
<path fill="none" stroke="midnightblue" d="M624.82,-216.72C615.66,-207.2 604.45,-195.56 596.93,-187.75"/>
<polygon fill="midnightblue" stroke="midnightblue" points="622.46,-219.31 631.91,-224.08 627.5,-214.45 622.46,-219.31"/>
</g>
<!-- Node12 -->
<g id="node12" class="node">
<title>Node12</title>
<g id="a_node12"><a xlink:href="cm_8h.html" target="_top" xlink:title="Game camera.">
<polygon fill="white" stroke="black" points="653,-168.5 653,-187.5 732,-187.5 732,-168.5 653,-168.5"/>
<text text-anchor="middle" x="692.5" y="-175.5" font-family="Helvetica,sans-Serif" font-size="10.00">include/cm.h</text>
</a>
</g>
</g>
<!-- Node9&#45;&gt;Node12 -->
<g id="edge11" class="edge">
<title>Node9&#45;&gt;Node12</title>
<path fill="none" stroke="midnightblue" d="M656.18,-216.72C665.34,-207.2 676.55,-195.56 684.07,-187.75"/>
<polygon fill="midnightblue" stroke="midnightblue" points="653.5,-214.45 649.09,-224.08 658.54,-219.31 653.5,-214.45"/>
</g>
<!-- Node16 -->
<g id="node16" class="node">
<title>Node16</title>
<g id="a_node16"><a xlink:href="coin_8h.html" target="_top" xlink:title="Coins, keys, and other collectibles.">
<polygon fill="white" stroke="black" points="749.5,-168.5 749.5,-187.5 833.5,-187.5 833.5,-168.5 749.5,-168.5"/>
<text text-anchor="middle" x="791.5" y="-175.5" font-family="Helvetica,sans-Serif" font-size="10.00">include/coin.h</text>
</a>
</g>
</g>
<!-- Node9&#45;&gt;Node16 -->
<g id="edge15" class="edge">
<title>Node9&#45;&gt;Node16</title>
<path fill="none" stroke="midnightblue" d="M673.95,-221.04C702.36,-210.88 742.44,-196.55 767.69,-187.52"/>
<polygon fill="midnightblue" stroke="midnightblue" points="672.66,-217.78 664.43,-224.44 675.02,-224.37 672.66,-217.78"/>
</g>
<!-- Node18 -->
<g id="node18" class="node">
<title>Node18</title>
<g id="a_node18"><a xlink:href="vol_8h.html" target="_top" xlink:title="Volume object.">
<polygon fill="white" stroke="black" points="854,-168.5 854,-187.5 933,-187.5 933,-168.5 854,-168.5"/>
<text text-anchor="middle" x="893.5" y="-175.5" font-family="Helvetica,sans-Serif" font-size="10.00">include/vol.h</text>
</a>
</g>
</g>
<!-- Node9&#45;&gt;Node18 -->
<g id="edge17" class="edge">
<title>Node9&#45;&gt;Node18</title>
<path fill="none" stroke="midnightblue" d="M690.42,-222.35C738.23,-212.14 809.45,-196.94 853.6,-187.52"/>
<polygon fill="midnightblue" stroke="midnightblue" points="689.64,-218.93 680.59,-224.44 691.1,-225.78 689.64,-218.93"/>
</g>
<!-- Node13 -->
<g id="node13" class="node">
<title>Node13</title>
<g id="a_node13"><a xlink:href="cm_8c.html" target="_top" xlink:title=" ">
<polygon fill="white" stroke="black" points="557.5,-112.5 557.5,-131.5 629.5,-131.5 629.5,-112.5 557.5,-112.5"/>
<text text-anchor="middle" x="593.5" y="-119.5" font-family="Helvetica,sans-Serif" font-size="10.00">src/P2/cm.c</text>
</a>
</g>
</g>
<!-- Node12&#45;&gt;Node13 -->
<g id="edge12" class="edge">
<title>Node12&#45;&gt;Node13</title>
<path fill="none" stroke="midnightblue" d="M667.66,-163.45C649.39,-153.48 625.08,-140.23 609.37,-131.65"/>
<polygon fill="midnightblue" stroke="midnightblue" points="666.14,-166.61 676.59,-168.32 669.49,-160.46 666.14,-166.61"/>
</g>
<!-- Node14 -->
<g id="node14" class="node">
<title>Node14</title>
<g id="a_node14"><a xlink:href="flash_8h.html" target="_top" xlink:title="Flash (might be flash animation, or literal screen flashes).">
<polygon fill="white" stroke="black" points="648,-112.5 648,-131.5 735,-131.5 735,-112.5 648,-112.5"/>
<text text-anchor="middle" x="691.5" y="-119.5" font-family="Helvetica,sans-Serif" font-size="10.00">include/flash.h</text>
</a>
</g>
</g>
<!-- Node12&#45;&gt;Node14 -->
<g id="edge13" class="edge">
<title>Node12&#45;&gt;Node14</title>
<path fill="none" stroke="midnightblue" d="M692.14,-157.8C691.98,-148.91 691.79,-138.78 691.66,-131.75"/>
<polygon fill="midnightblue" stroke="midnightblue" points="688.65,-158.15 692.33,-168.08 695.65,-158.02 688.65,-158.15"/>
</g>
<!-- Node15 -->
<g id="node15" class="node">
<title>Node15</title>
<g id="a_node15"><a xlink:href="flash_8c.html" target="_top" xlink:title=" ">
<polygon fill="white" stroke="black" points="651.5,-56.5 651.5,-75.5 731.5,-75.5 731.5,-56.5 651.5,-56.5"/>
<text text-anchor="middle" x="691.5" y="-63.5" font-family="Helvetica,sans-Serif" font-size="10.00">src/P2/flash.c</text>
</a>
</g>
</g>
<!-- Node14&#45;&gt;Node15 -->
<g id="edge14" class="edge">
<title>Node14&#45;&gt;Node15</title>
<path fill="none" stroke="midnightblue" d="M691.5,-101.8C691.5,-92.91 691.5,-82.78 691.5,-75.75"/>
<polygon fill="midnightblue" stroke="midnightblue" points="688,-102.08 691.5,-112.08 695,-102.08 688,-102.08"/>
</g>
<!-- Node17 -->
<g id="node17" class="node">
<title>Node17</title>
<g id="a_node17"><a xlink:href="coin_8c.html" target="_top" xlink:title=" ">
<polygon fill="white" stroke="black" points="753,-112.5 753,-131.5 830,-131.5 830,-112.5 753,-112.5"/>
<text text-anchor="middle" x="791.5" y="-119.5" font-family="Helvetica,sans-Serif" font-size="10.00">src/P2/coin.c</text>
</a>
</g>
</g>
<!-- Node16&#45;&gt;Node17 -->
<g id="edge16" class="edge">
<title>Node16&#45;&gt;Node17</title>
<path fill="none" stroke="midnightblue" d="M791.5,-157.8C791.5,-148.91 791.5,-138.78 791.5,-131.75"/>
<polygon fill="midnightblue" stroke="midnightblue" points="788,-158.08 791.5,-168.08 795,-158.08 788,-158.08"/>
</g>
<!-- Node19 -->
<g id="node19" class="node">
<title>Node19</title>
<g id="a_node19"><a xlink:href="chkpnt_8h.html" target="_top" xlink:title="Checkpoint system.">
<polygon fill="white" stroke="black" points="848,-112.5 848,-131.5 945,-131.5 945,-112.5 848,-112.5"/>
<text text-anchor="middle" x="896.5" y="-119.5" font-family="Helvetica,sans-Serif" font-size="10.00">include/chkpnt.h</text>
</a>
</g>
</g>
<!-- Node18&#45;&gt;Node19 -->
<g id="edge18" class="edge">
<title>Node18&#45;&gt;Node19</title>
<path fill="none" stroke="midnightblue" d="M894.57,-157.8C895.06,-148.91 895.62,-138.78 896.01,-131.75"/>
<polygon fill="midnightblue" stroke="midnightblue" points="891.06,-157.9 894,-168.08 898.04,-158.29 891.06,-157.9"/>
</g>
<!-- Node20 -->
<g id="node20" class="node">
<title>Node20</title>
<g id="a_node20"><a xlink:href="chkpnt_8c.html" target="_top" xlink:title=" ">
<polygon fill="white" stroke="black" points="800.5,-56.5 800.5,-75.5 890.5,-75.5 890.5,-56.5 800.5,-56.5"/>
<text text-anchor="middle" x="845.5" y="-63.5" font-family="Helvetica,sans-Serif" font-size="10.00">src/P2/chkpnt.c</text>
</a>
</g>
</g>
<!-- Node19&#45;&gt;Node20 -->
<g id="edge19" class="edge">
<title>Node19&#45;&gt;Node20</title>
<path fill="none" stroke="midnightblue" d="M881.12,-104.72C872.13,-95.2 861.14,-83.56 853.76,-75.75"/>
<polygon fill="midnightblue" stroke="midnightblue" points="878.67,-107.22 888.08,-112.08 883.76,-102.41 878.67,-107.22"/>
</g>
<!-- Node21 -->
<g id="node21" class="node">
<title>Node21</title>
<g id="a_node21"><a xlink:href="difficulty_8h.html" target="_top" xlink:title="Dynamic difficulty system.">
<polygon fill="white" stroke="black" points="909,-56.5 909,-75.5 1014,-75.5 1014,-56.5 909,-56.5"/>
<text text-anchor="middle" x="961.5" y="-63.5" font-family="Helvetica,sans-Serif" font-size="10.00">include/difficulty.h</text>
</a>
</g>
</g>
<!-- Node19&#45;&gt;Node21 -->
<g id="edge20" class="edge">
<title>Node19&#45;&gt;Node21</title>
<path fill="none" stroke="midnightblue" d="M914.77,-105.82C926.42,-96.15 941.1,-83.95 950.87,-75.83"/>
<polygon fill="midnightblue" stroke="midnightblue" points="912.4,-103.24 906.94,-112.32 916.87,-108.63 912.4,-103.24"/>
</g>
<!-- Node22 -->
<g id="node22" class="node">
<title>Node22</title>
<g id="a_node22"><a xlink:href="difficulty_8c.html" target="_top" xlink:title=" ">
<polygon fill="white" stroke="black" points="912.5,-0.5 912.5,-19.5 1010.5,-19.5 1010.5,-0.5 912.5,-0.5"/>
<text text-anchor="middle" x="961.5" y="-7.5" font-family="Helvetica,sans-Serif" font-size="10.00">src/P2/difficulty.c</text>
</a>
</g>
</g>
<!-- Node21&#45;&gt;Node22 -->
<g id="edge21" class="edge">
<title>Node21&#45;&gt;Node22</title>
<path fill="none" stroke="midnightblue" d="M961.5,-45.8C961.5,-36.91 961.5,-26.78 961.5,-19.75"/>
<polygon fill="midnightblue" stroke="midnightblue" points="958,-46.08 961.5,-56.08 965,-46.08 958,-46.08"/>
</g>
</g>
</svg>
