<?xml version="1.0" encoding="UTF-8" standalone="no"?>
<!DOCTYPE svg PUBLIC "-//W3C//DTD SVG 1.1//EN"
 "http://www.w3.org/Graphics/SVG/1.1/DTD/svg11.dtd">
<!-- Generated by graphviz version 2.43.0 (0)
 -->
<!-- Title: src/P2/game.c Pages: 1 -->
<svg width="194pt" height="196pt"
 viewBox="0.00 0.00 193.50 196.00" xmlns="http://www.w3.org/2000/svg" xmlns:xlink="http://www.w3.org/1999/xlink">
<g id="graph0" class="graph" transform="scale(1 1) rotate(0) translate(4 192)">
<title>src/P2/game.c</title>
<polygon fill="white" stroke="transparent" points="-4,4 -4,-192 189.5,-192 189.5,4 -4,4"/>
<!-- Node1 -->
<g id="node1" class="node">
<title>Node1</title>
<g id="a_node1"><a xlink:title=" ">
<polygon fill="#bfbfbf" stroke="black" points="18,-168.5 18,-187.5 103,-187.5 103,-168.5 18,-168.5"/>
<text text-anchor="middle" x="60.5" y="-175.5" font-family="Helvetica,sans-Serif" font-size="10.00">src/P2/game.c</text>
</a>
</g>
</g>
<!-- Node2 -->
<g id="node2" class="node">
<title>Node2</title>
<g id="a_node2"><a xlink:href="game_8h.html" target="_top" xlink:title="Game state and level management.">
<polygon fill="white" stroke="black" points="0,-112.5 0,-131.5 53,-131.5 53,-112.5 0,-112.5"/>
<text text-anchor="middle" x="26.5" y="-119.5" font-family="Helvetica,sans-Serif" font-size="10.00">game.h</text>
</a>
</g>
</g>
<!-- Node1&#45;&gt;Node2 -->
<g id="edge1" class="edge">
<title>Node1&#45;&gt;Node2</title>
<path fill="none" stroke="midnightblue" d="M54.89,-168.08C50.13,-160.53 43.18,-149.49 37.35,-140.23"/>
<polygon fill="midnightblue" stroke="midnightblue" points="40.3,-138.35 32.01,-131.75 34.38,-142.08 40.3,-138.35"/>
</g>
<!-- Node5 -->
<g id="node5" class="node">
<title>Node5</title>
<g id="a_node5"><a xlink:href="wipe_8h.html" target="_top" xlink:title="Screen wipes.">
<polygon fill="white" stroke="black" points="71,-112.5 71,-131.5 120,-131.5 120,-112.5 71,-112.5"/>
<text text-anchor="middle" x="95.5" y="-119.5" font-family="Helvetica,sans-Serif" font-size="10.00">wipe.h</text>
</a>
</g>
</g>
<!-- Node1&#45;&gt;Node5 -->
<g id="edge4" class="edge">
<title>Node1&#45;&gt;Node5</title>
<path fill="none" stroke="midnightblue" d="M66.28,-168.08C71.17,-160.53 78.33,-149.49 84.33,-140.23"/>
<polygon fill="midnightblue" stroke="midnightblue" points="87.33,-142.05 89.83,-131.75 81.45,-138.24 87.33,-142.05"/>
</g>
<!-- Node3 -->
<g id="node3" class="node">
<title>Node3</title>
<g id="a_node3"><a xlink:href="oid_8h.html" target="_top" xlink:title="Object IDs.">
<polygon fill="white" stroke="black" points="65,-0.5 65,-19.5 106,-19.5 106,-0.5 65,-0.5"/>
<text text-anchor="middle" x="85.5" y="-7.5" font-family="Helvetica,sans-Serif" font-size="10.00">oid.h</text>
</a>
</g>
</g>
<!-- Node2&#45;&gt;Node3 -->
<g id="edge2" class="edge">
<title>Node2&#45;&gt;Node3</title>
<path fill="none" stroke="midnightblue" d="M20.2,-112.48C11.47,-99.54 -2.11,-74.48 8.5,-56 18.55,-38.49 38.34,-27.14 55.34,-20.22"/>
<polygon fill="midnightblue" stroke="midnightblue" points="56.79,-23.42 64.93,-16.64 54.34,-16.86 56.79,-23.42"/>
</g>
<!-- Node4 -->
<g id="node4" class="node">
<title>Node4</title>
<g id="a_node4"><a xlink:href="cid_8h.html" target="_top" xlink:title="Class IDs.">
<polygon fill="white" stroke="black" points="17.5,-56.5 17.5,-75.5 57.5,-75.5 57.5,-56.5 17.5,-56.5"/>
<text text-anchor="middle" x="37.5" y="-63.5" font-family="Helvetica,sans-Serif" font-size="10.00">cid.h</text>
</a>
</g>
</g>
<!-- Node2&#45;&gt;Node4 -->
<g id="edge3" class="edge">
<title>Node2&#45;&gt;Node4</title>
<path fill="none" stroke="midnightblue" d="M28.32,-112.08C29.77,-104.93 31.87,-94.64 33.69,-85.69"/>
<polygon fill="midnightblue" stroke="midnightblue" points="37.15,-86.25 35.72,-75.75 30.29,-84.85 37.15,-86.25"/>
</g>
<!-- Node5&#45;&gt;Node3 -->
<g id="edge7" class="edge">
<title>Node5&#45;&gt;Node3</title>
<path fill="none" stroke="midnightblue" d="M94.72,-112.37C93.1,-94.62 89.38,-53.67 87.19,-29.6"/>
<polygon fill="midnightblue" stroke="midnightblue" points="90.67,-29.23 86.28,-19.59 83.7,-29.87 90.67,-29.23"/>
</g>
<!-- Node6 -->
<g id="node6" class="node">
<title>Node6</title>
<g id="a_node6"><a xlink:href="transition_8h.html" target="_top" xlink:title="Level transitions.">
<polygon fill="white" stroke="black" points="113.5,-56.5 113.5,-75.5 185.5,-75.5 185.5,-56.5 113.5,-56.5"/>
<text text-anchor="middle" x="149.5" y="-63.5" font-family="Helvetica,sans-Serif" font-size="10.00">transition.h</text>
</a>
</g>
</g>
<!-- Node5&#45;&gt;Node6 -->
<g id="edge5" class="edge">
<title>Node5&#45;&gt;Node6</title>
<path fill="none" stroke="midnightblue" d="M104.42,-112.08C112.28,-104.22 123.93,-92.57 133.42,-83.08"/>
<polygon fill="midnightblue" stroke="midnightblue" points="136.15,-85.3 140.75,-75.75 131.2,-80.35 136.15,-85.3"/>
</g>
<!-- Node6&#45;&gt;Node3 -->
<g id="edge6" class="edge">
<title>Node6&#45;&gt;Node3</title>
<path fill="none" stroke="midnightblue" d="M139.22,-56.32C129.66,-48.26 115.22,-36.08 103.72,-26.37"/>
<polygon fill="midnightblue" stroke="midnightblue" points="105.87,-23.61 95.97,-19.83 101.36,-28.96 105.87,-23.61"/>
</g>
</g>
</svg>
