<?xml version="1.0" encoding="UTF-8" standalone="no"?>
<!DOCTYPE svg PUBLIC "-//W3C//DTD SVG 1.1//EN"
 "http://www.w3.org/Graphics/SVG/1.1/DTD/svg11.dtd">
<!-- Generated by graphviz version 2.43.0 (0)
 -->
<!-- Title: src/P2/splice/gc.cpp Pages: 1 -->
<svg width="325pt" height="84pt"
 viewBox="0.00 0.00 324.50 84.00" xmlns="http://www.w3.org/2000/svg" xmlns:xlink="http://www.w3.org/1999/xlink">
<g id="graph0" class="graph" transform="scale(1 1) rotate(0) translate(4 80)">
<title>src/P2/splice/gc.cpp</title>
<polygon fill="white" stroke="transparent" points="-4,4 -4,-80 320.5,-80 320.5,4 -4,4"/>
<!-- Node1 -->
<g id="node1" class="node">
<title>Node1</title>
<g id="a_node1"><a xlink:title=" ">
<polygon fill="#bfbfbf" stroke="black" points="83,-56.5 83,-75.5 195,-75.5 195,-56.5 83,-56.5"/>
<text text-anchor="middle" x="139" y="-63.5" font-family="Helvetica,sans-Serif" font-size="10.00">src/P2/splice/gc.cpp</text>
</a>
</g>
</g>
<!-- Node2 -->
<g id="node2" class="node">
<title>Node2</title>
<g id="a_node2"><a xlink:href="gc_8h.html" target="_top" xlink:title=" ">
<polygon fill="white" stroke="black" points="0,-0.5 0,-19.5 68,-19.5 68,-0.5 0,-0.5"/>
<text text-anchor="middle" x="34" y="-7.5" font-family="Helvetica,sans-Serif" font-size="10.00">splice/gc.h</text>
</a>
</g>
</g>
<!-- Node1&#45;&gt;Node2 -->
<g id="edge1" class="edge">
<title>Node1&#45;&gt;Node2</title>
<path fill="none" stroke="midnightblue" d="M122.13,-56.32C105.29,-47.66 79.19,-34.24 59.76,-24.25"/>
<polygon fill="midnightblue" stroke="midnightblue" points="61.32,-21.12 50.83,-19.65 58.12,-27.34 61.32,-21.12"/>
</g>
<!-- Node3 -->
<g id="node3" class="node">
<title>Node3</title>
<g id="a_node3"><a xlink:href="splotheap_8h.html" target="_top" xlink:title=" ">
<polygon fill="white" stroke="black" points="86.5,-0.5 86.5,-19.5 191.5,-19.5 191.5,-0.5 86.5,-0.5"/>
<text text-anchor="middle" x="139" y="-7.5" font-family="Helvetica,sans-Serif" font-size="10.00">splice/splotheap.h</text>
</a>
</g>
</g>
<!-- Node1&#45;&gt;Node3 -->
<g id="edge2" class="edge">
<title>Node1&#45;&gt;Node3</title>
<path fill="none" stroke="midnightblue" d="M139,-56.08C139,-49.01 139,-38.86 139,-29.99"/>
<polygon fill="midnightblue" stroke="midnightblue" points="142.5,-29.75 139,-19.75 135.5,-29.75 142.5,-29.75"/>
</g>
<!-- Node4 -->
<g id="node4" class="node">
<title>Node4</title>
<g id="a_node4"><a xlink:href="spliceutils_8h.html" target="_top" xlink:title=" ">
<polygon fill="white" stroke="black" points="209.5,-0.5 209.5,-19.5 316.5,-19.5 316.5,-0.5 209.5,-0.5"/>
<text text-anchor="middle" x="263" y="-7.5" font-family="Helvetica,sans-Serif" font-size="10.00">splice/spliceutils.h</text>
</a>
</g>
</g>
<!-- Node1&#45;&gt;Node4 -->
<g id="edge3" class="edge">
<title>Node1&#45;&gt;Node4</title>
<path fill="none" stroke="midnightblue" d="M158.65,-56.44C178.96,-47.6 210.9,-33.69 234.1,-23.59"/>
<polygon fill="midnightblue" stroke="midnightblue" points="235.67,-26.72 243.44,-19.52 232.88,-20.3 235.67,-26.72"/>
</g>
</g>
</svg>
