<?xml version="1.0" encoding="UTF-8" standalone="no"?>
<!DOCTYPE svg PUBLIC "-//W3C//DTD SVG 1.1//EN"
 "http://www.w3.org/Graphics/SVG/1.1/DTD/svg11.dtd">
<!-- Generated by graphviz version 2.43.0 (0)
 -->
<!-- Title: include/geom.h Pages: 1 -->
<!--zoomable 644 -->
<svg id="main" version="1.1" xmlns="http://www.w3.org/2000/svg" xmlns:xlink="http://www.w3.org/1999/xlink" xml:space="preserve" onload="init(evt)">
<style type="text/css"><![CDATA[
.edge:hover path { stroke: red; }
.edge:hover polygon { stroke: red; fill: red; }
]]></style>
<script type="text/javascript"><![CDATA[
var edges = document.getElementsByTagName('g');
if (edges && edges.length) {
  for (var i=0;i<edges.length;i++) {
    if (edges[i].id.substr(0,4)=='edge') {
      edges[i].setAttribute('class','edge');
    }
  }
}
]]></script>
        <defs>
                <circle id="rim" cx="0" cy="0" r="7"/>
                <circle id="rim2" cx="0" cy="0" r="3.5"/>
                <g id="zoomPlus">
                        <use xlink:href="#rim" fill="#404040">
                                <set attributeName="fill" to="#808080" begin="zoomplus.mouseover" end="zoomplus.mouseout"/>
                        </use>
                        <path d="M-4,0h8M0,-4v8" fill="none" stroke="white" stroke-width="1.5" pointer-events="none"/>
                </g>
                <g id="zoomMin">
                        <use xlink:href="#rim" fill="#404040">
                                <set attributeName="fill" to="#808080" begin="zoomminus.mouseover" end="zoomminus.mouseout"/>
                        </use>
                        <path d="M-4,0h8" fill="none" stroke="white" stroke-width="1.5" pointer-events="none"/>
                </g>
                <g id="dirArrow">
                        <path fill="none" stroke="white" stroke-width="1.5" d="M0,-3.0v7 M-2.5,-0.5L0,-3.0L2.5,-0.5"/>
                </g>
               <g id="resetDef">
                       <use xlink:href="#rim2" fill="#404040">
                               <set attributeName="fill" to="#808080" begin="reset.mouseover" end="reset.mouseout"/>
                       </use>
               </g>
        </defs>

<script type="text/javascript">
var viewWidth = 712;
var viewHeight = 644;
var sectionId = 'dynsection-1';
</script>
<script xlink:href="svgpan.js"/>
<svg id="graph" class="graph">
<g id="viewport">
<title>include/geom.h</title>
<polygon fill="white" stroke="transparent" points="-4,4 -4,-640 707.66,-640 707.66,4 -4,4"/>
<!-- Node1 -->
<g id="node1" class="node">
<title>Node1</title>
<g id="a_node1"><a xlink:title="Geometry.">
<polygon fill="#bfbfbf" stroke="black" points="431,-616.5 431,-635.5 523,-635.5 523,-616.5 431,-616.5"/>
<text text-anchor="middle" x="477" y="-623.5" font-family="Helvetica,sans-Serif" font-size="10.00">include/geom.h</text>
</a>
</g>
</g>
<!-- Node2 -->
<g id="node2" class="node">
<title>Node2</title>
<g id="a_node2"><a xlink:href="bis_8h.html" target="_top" xlink:title="Binary Input Stream.">
<polygon fill="white" stroke="black" points="520,-280.5 520,-299.5 598,-299.5 598,-280.5 520,-280.5"/>
<text text-anchor="middle" x="559" y="-287.5" font-family="Helvetica,sans-Serif" font-size="10.00">include/bis.h</text>
</a>
</g>
</g>
<!-- Node1&#45;&gt;Node2 -->
<g id="edge1" class="edge">
<title>Node1&#45;&gt;Node2</title>
<path fill="none" stroke="midnightblue" d="M497.34,-609.97C520.75,-590.78 556,-555.21 556,-515 556,-515 556,-515 556,-401 556,-363.17 557.79,-318.06 558.61,-299.56"/>
<polygon fill="midnightblue" stroke="midnightblue" points="495.03,-607.34 489.34,-616.28 499.36,-612.83 495.03,-607.34"/>
</g>
<!-- Node18 -->
<g id="node18" class="node">
<title>Node18</title>
<g id="a_node18"><a xlink:href="shd_8h.html" target="_top" xlink:title="Shaders.">
<polygon fill="white" stroke="black" points="367.5,-504.5 367.5,-523.5 448.5,-523.5 448.5,-504.5 367.5,-504.5"/>
<text text-anchor="middle" x="408" y="-511.5" font-family="Helvetica,sans-Serif" font-size="10.00">include/shd.h</text>
</a>
</g>
</g>
<!-- Node1&#45;&gt;Node18 -->
<g id="edge20" class="edge">
<title>Node1&#45;&gt;Node18</title>
<path fill="none" stroke="midnightblue" d="M455.36,-609.95C445.45,-602.06 434.31,-591.62 427,-580 415.61,-561.88 410.81,-536.67 408.99,-523.61"/>
<polygon fill="midnightblue" stroke="midnightblue" points="453.54,-612.96 463.63,-616.19 457.76,-607.38 453.54,-612.96"/>
</g>
<!-- Node29 -->
<g id="node29" class="node">
<title>Node29</title>
<g id="a_node29"><a xlink:href="surf_8h.html" target="_top" xlink:title="Surface?">
<polygon fill="white" stroke="black" points="436,-560.5 436,-579.5 518,-579.5 518,-560.5 436,-560.5"/>
<text text-anchor="middle" x="477" y="-567.5" font-family="Helvetica,sans-Serif" font-size="10.00">include/surf.h</text>
</a>
</g>
</g>
<!-- Node1&#45;&gt;Node29 -->
<g id="edge34" class="edge">
<title>Node1&#45;&gt;Node29</title>
<path fill="none" stroke="midnightblue" d="M477,-605.8C477,-596.91 477,-586.78 477,-579.75"/>
<polygon fill="midnightblue" stroke="midnightblue" points="473.5,-606.08 477,-616.08 480.5,-606.08 473.5,-606.08"/>
</g>
<!-- Node3 -->
<g id="node3" class="node">
<title>Node3</title>
<g id="a_node3"><a xlink:href="bis_8c.html" target="_top" xlink:title=" ">
<polygon fill="white" stroke="black" points="597.5,-224.5 597.5,-243.5 668.5,-243.5 668.5,-224.5 597.5,-224.5"/>
<text text-anchor="middle" x="633" y="-231.5" font-family="Helvetica,sans-Serif" font-size="10.00">src/P2/bis.c</text>
</a>
</g>
</g>
<!-- Node2&#45;&gt;Node3 -->
<g id="edge2" class="edge">
<title>Node2&#45;&gt;Node3</title>
<path fill="none" stroke="midnightblue" d="M579.03,-274.38C592.41,-264.62 609.56,-252.11 620.89,-243.83"/>
<polygon fill="midnightblue" stroke="midnightblue" points="576.9,-271.6 570.89,-280.32 581.03,-277.26 576.9,-271.6"/>
</g>
<!-- Node4 -->
<g id="node4" class="node">
<title>Node4</title>
<g id="a_node4"><a xlink:href="coin_8c.html" target="_top" xlink:title=" ">
<polygon fill="white" stroke="black" points="569.5,-56.5 569.5,-75.5 646.5,-75.5 646.5,-56.5 569.5,-56.5"/>
<text text-anchor="middle" x="608" y="-63.5" font-family="Helvetica,sans-Serif" font-size="10.00">src/P2/coin.c</text>
</a>
</g>
</g>
<!-- Node2&#45;&gt;Node4 -->
<g id="edge3" class="edge">
<title>Node2&#45;&gt;Node4</title>
<path fill="none" stroke="midnightblue" d="M608.04,-283.6C633.4,-278.04 662.26,-266.78 678,-244 695.82,-218.21 733.4,-245.66 659,-112 650.39,-96.52 634.36,-83.73 622.56,-75.8"/>
<polygon fill="midnightblue" stroke="midnightblue" points="607.31,-280.18 598.17,-285.53 608.66,-287.05 607.31,-280.18"/>
</g>
<!-- Node5 -->
<g id="node5" class="node">
<title>Node5</title>
<g id="a_node5"><a xlink:href="chkpnt_8h.html" target="_top" xlink:title="Checkpoint system.">
<polygon fill="white" stroke="black" points="450.5,-112.5 450.5,-131.5 547.5,-131.5 547.5,-112.5 450.5,-112.5"/>
<text text-anchor="middle" x="499" y="-119.5" font-family="Helvetica,sans-Serif" font-size="10.00">include/chkpnt.h</text>
</a>
</g>
</g>
<!-- Node2&#45;&gt;Node5 -->
<g id="edge4" class="edge">
<title>Node2&#45;&gt;Node5</title>
<path fill="none" stroke="midnightblue" d="M556.17,-270.51C552.03,-246.24 543.13,-202.66 528,-168 522.12,-154.54 512.45,-140.55 505.91,-131.82"/>
<polygon fill="midnightblue" stroke="midnightblue" points="552.73,-271.17 557.78,-280.48 559.64,-270.05 552.73,-271.17"/>
</g>
<!-- Node9 -->
<g id="node9" class="node">
<title>Node9</title>
<g id="a_node9"><a xlink:href="xform_8h.html" target="_top" xlink:title="Transform.">
<polygon fill="white" stroke="black" points="430.5,-224.5 430.5,-243.5 523.5,-243.5 523.5,-224.5 430.5,-224.5"/>
<text text-anchor="middle" x="477" y="-231.5" font-family="Helvetica,sans-Serif" font-size="10.00">include/xform.h</text>
</a>
</g>
</g>
<!-- Node2&#45;&gt;Node9 -->
<g id="edge9" class="edge">
<title>Node2&#45;&gt;Node9</title>
<path fill="none" stroke="midnightblue" d="M537.17,-274.62C522.19,-264.76 502.8,-251.99 490.14,-243.65"/>
<polygon fill="midnightblue" stroke="midnightblue" points="535.55,-277.75 545.83,-280.32 539.4,-271.9 535.55,-277.75"/>
</g>
<!-- Node5&#45;&gt;Node4 -->
<g id="edge6" class="edge">
<title>Node5&#45;&gt;Node4</title>
<path fill="none" stroke="midnightblue" d="M525.52,-107.86C545.73,-97.85 572.99,-84.35 590.53,-75.65"/>
<polygon fill="midnightblue" stroke="midnightblue" points="523.92,-104.75 516.51,-112.32 527.03,-111.02 523.92,-104.75"/>
</g>
<!-- Node6 -->
<g id="node6" class="node">
<title>Node6</title>
<g id="a_node6"><a xlink:href="chkpnt_8c.html" target="_top" xlink:title=" ">
<polygon fill="white" stroke="black" points="338,-56.5 338,-75.5 428,-75.5 428,-56.5 338,-56.5"/>
<text text-anchor="middle" x="383" y="-63.5" font-family="Helvetica,sans-Serif" font-size="10.00">src/P2/chkpnt.c</text>
</a>
</g>
</g>
<!-- Node5&#45;&gt;Node6 -->
<g id="edge5" class="edge">
<title>Node5&#45;&gt;Node6</title>
<path fill="none" stroke="midnightblue" d="M471.28,-108.1C449.61,-98.01 420.1,-84.27 401.29,-75.52"/>
<polygon fill="midnightblue" stroke="midnightblue" points="470.08,-111.4 480.62,-112.44 473.03,-105.05 470.08,-111.4"/>
</g>
<!-- Node7 -->
<g id="node7" class="node">
<title>Node7</title>
<g id="a_node7"><a xlink:href="difficulty_8h.html" target="_top" xlink:title="Dynamic difficulty system.">
<polygon fill="white" stroke="black" points="446.5,-56.5 446.5,-75.5 551.5,-75.5 551.5,-56.5 446.5,-56.5"/>
<text text-anchor="middle" x="499" y="-63.5" font-family="Helvetica,sans-Serif" font-size="10.00">include/difficulty.h</text>
</a>
</g>
</g>
<!-- Node5&#45;&gt;Node7 -->
<g id="edge7" class="edge">
<title>Node5&#45;&gt;Node7</title>
<path fill="none" stroke="midnightblue" d="M499,-101.8C499,-92.91 499,-82.78 499,-75.75"/>
<polygon fill="midnightblue" stroke="midnightblue" points="495.5,-102.08 499,-112.08 502.5,-102.08 495.5,-102.08"/>
</g>
<!-- Node8 -->
<g id="node8" class="node">
<title>Node8</title>
<g id="a_node8"><a xlink:href="difficulty_8c.html" target="_top" xlink:title=" ">
<polygon fill="white" stroke="black" points="450,-0.5 450,-19.5 548,-19.5 548,-0.5 450,-0.5"/>
<text text-anchor="middle" x="499" y="-7.5" font-family="Helvetica,sans-Serif" font-size="10.00">src/P2/difficulty.c</text>
</a>
</g>
</g>
<!-- Node7&#45;&gt;Node8 -->
<g id="edge8" class="edge">
<title>Node7&#45;&gt;Node8</title>
<path fill="none" stroke="midnightblue" d="M499,-45.8C499,-36.91 499,-26.78 499,-19.75"/>
<polygon fill="midnightblue" stroke="midnightblue" points="495.5,-46.08 499,-56.08 502.5,-46.08 495.5,-46.08"/>
</g>
<!-- Node10 -->
<g id="node10" class="node">
<title>Node10</title>
<g id="a_node10"><a xlink:href="xform1_8c.html" target="_top" xlink:title=" ">
<polygon fill="white" stroke="black" points="220,-168.5 220,-187.5 312,-187.5 312,-168.5 220,-168.5"/>
<text text-anchor="middle" x="266" y="-175.5" font-family="Helvetica,sans-Serif" font-size="10.00">src/P2/xform1.c</text>
</a>
</g>
</g>
<!-- Node9&#45;&gt;Node10 -->
<g id="edge10" class="edge">
<title>Node9&#45;&gt;Node10</title>
<path fill="none" stroke="midnightblue" d="M433.86,-221.96C394.01,-211.76 335.64,-196.82 299.28,-187.52"/>
<polygon fill="midnightblue" stroke="midnightblue" points="433.01,-225.35 443.57,-224.44 434.75,-218.57 433.01,-225.35"/>
</g>
<!-- Node11 -->
<g id="node11" class="node">
<title>Node11</title>
<g id="a_node11"><a xlink:href="xform2_8c.html" target="_top" xlink:title=" ">
<polygon fill="white" stroke="black" points="330,-168.5 330,-187.5 422,-187.5 422,-168.5 330,-168.5"/>
<text text-anchor="middle" x="376" y="-175.5" font-family="Helvetica,sans-Serif" font-size="10.00">src/P2/xform2.c</text>
</a>
</g>
</g>
<!-- Node9&#45;&gt;Node11 -->
<g id="edge11" class="edge">
<title>Node9&#45;&gt;Node11</title>
<path fill="none" stroke="midnightblue" d="M451.92,-219.59C433.24,-209.61 408.3,-196.27 392.19,-187.65"/>
<polygon fill="midnightblue" stroke="midnightblue" points="450.3,-222.7 460.77,-224.32 453.6,-216.52 450.3,-222.7"/>
</g>
<!-- Node12 -->
<g id="node12" class="node">
<title>Node12</title>
<g id="a_node12"><a xlink:href="cm_8h.html" target="_top" xlink:title="Game camera.">
<polygon fill="white" stroke="black" points="122.5,-168.5 122.5,-187.5 201.5,-187.5 201.5,-168.5 122.5,-168.5"/>
<text text-anchor="middle" x="162" y="-175.5" font-family="Helvetica,sans-Serif" font-size="10.00">include/cm.h</text>
</a>
</g>
</g>
<!-- Node9&#45;&gt;Node12 -->
<g id="edge12" class="edge">
<title>Node9&#45;&gt;Node12</title>
<path fill="none" stroke="midnightblue" d="M420.32,-223.65C366.44,-214.7 283.15,-200.73 211,-188 207.93,-187.46 204.76,-186.89 201.57,-186.32"/>
<polygon fill="midnightblue" stroke="midnightblue" points="419.92,-227.13 430.36,-225.31 421.06,-220.22 419.92,-227.13"/>
</g>
<!-- Node16 -->
<g id="node16" class="node">
<title>Node16</title>
<g id="a_node16"><a xlink:href="coin_8h.html" target="_top" xlink:title="Coins, keys, and other collectibles.">
<polygon fill="white" stroke="black" points="566,-112.5 566,-131.5 650,-131.5 650,-112.5 566,-112.5"/>
<text text-anchor="middle" x="608" y="-119.5" font-family="Helvetica,sans-Serif" font-size="10.00">include/coin.h</text>
</a>
</g>
</g>
<!-- Node9&#45;&gt;Node16 -->
<g id="edge16" class="edge">
<title>Node9&#45;&gt;Node16</title>
<path fill="none" stroke="midnightblue" d="M495.08,-217.82C522.98,-194.39 575.62,-150.19 597.77,-131.59"/>
<polygon fill="midnightblue" stroke="midnightblue" points="492.69,-215.26 487.28,-224.37 497.19,-220.62 492.69,-215.26"/>
</g>
<!-- Node17 -->
<g id="node17" class="node">
<title>Node17</title>
<g id="a_node17"><a xlink:href="vol_8h.html" target="_top" xlink:title="Volume object.">
<polygon fill="white" stroke="black" points="440.5,-168.5 440.5,-187.5 519.5,-187.5 519.5,-168.5 440.5,-168.5"/>
<text text-anchor="middle" x="480" y="-175.5" font-family="Helvetica,sans-Serif" font-size="10.00">include/vol.h</text>
</a>
</g>
</g>
<!-- Node9&#45;&gt;Node17 -->
<g id="edge18" class="edge">
<title>Node9&#45;&gt;Node17</title>
<path fill="none" stroke="midnightblue" d="M478.07,-213.8C478.56,-204.91 479.12,-194.78 479.51,-187.75"/>
<polygon fill="midnightblue" stroke="midnightblue" points="474.56,-213.9 477.5,-224.08 481.54,-214.29 474.56,-213.9"/>
</g>
<!-- Node13 -->
<g id="node13" class="node">
<title>Node13</title>
<g id="a_node13"><a xlink:href="cm_8c.html" target="_top" xlink:title=" ">
<polygon fill="white" stroke="black" points="58,-112.5 58,-131.5 130,-131.5 130,-112.5 58,-112.5"/>
<text text-anchor="middle" x="94" y="-119.5" font-family="Helvetica,sans-Serif" font-size="10.00">src/P2/cm.c</text>
</a>
</g>
</g>
<!-- Node12&#45;&gt;Node13 -->
<g id="edge13" class="edge">
<title>Node12&#45;&gt;Node13</title>
<path fill="none" stroke="midnightblue" d="M143.24,-162.1C131,-152.38 115.44,-140.03 105.12,-131.83"/>
<polygon fill="midnightblue" stroke="midnightblue" points="141.07,-164.85 151.07,-168.32 145.42,-159.36 141.07,-164.85"/>
</g>
<!-- Node14 -->
<g id="node14" class="node">
<title>Node14</title>
<g id="a_node14"><a xlink:href="flash_8h.html" target="_top" xlink:title="Flash (might be flash animation, or literal screen flashes).">
<polygon fill="white" stroke="black" points="148.5,-112.5 148.5,-131.5 235.5,-131.5 235.5,-112.5 148.5,-112.5"/>
<text text-anchor="middle" x="192" y="-119.5" font-family="Helvetica,sans-Serif" font-size="10.00">include/flash.h</text>
</a>
</g>
</g>
<!-- Node12&#45;&gt;Node14 -->
<g id="edge14" class="edge">
<title>Node12&#45;&gt;Node14</title>
<path fill="none" stroke="midnightblue" d="M171.85,-159.27C176.97,-150.05 183.02,-139.17 187.14,-131.75"/>
<polygon fill="midnightblue" stroke="midnightblue" points="168.75,-157.64 166.95,-168.08 174.87,-161.04 168.75,-157.64"/>
</g>
<!-- Node15 -->
<g id="node15" class="node">
<title>Node15</title>
<g id="a_node15"><a xlink:href="flash_8c.html" target="_top" xlink:title=" ">
<polygon fill="white" stroke="black" points="152,-56.5 152,-75.5 232,-75.5 232,-56.5 152,-56.5"/>
<text text-anchor="middle" x="192" y="-63.5" font-family="Helvetica,sans-Serif" font-size="10.00">src/P2/flash.c</text>
</a>
</g>
</g>
<!-- Node14&#45;&gt;Node15 -->
<g id="edge15" class="edge">
<title>Node14&#45;&gt;Node15</title>
<path fill="none" stroke="midnightblue" d="M192,-101.8C192,-92.91 192,-82.78 192,-75.75"/>
<polygon fill="midnightblue" stroke="midnightblue" points="188.5,-102.08 192,-112.08 195.5,-102.08 188.5,-102.08"/>
</g>
<!-- Node16&#45;&gt;Node4 -->
<g id="edge17" class="edge">
<title>Node16&#45;&gt;Node4</title>
<path fill="none" stroke="midnightblue" d="M608,-101.8C608,-92.91 608,-82.78 608,-75.75"/>
<polygon fill="midnightblue" stroke="midnightblue" points="604.5,-102.08 608,-112.08 611.5,-102.08 604.5,-102.08"/>
</g>
<!-- Node17&#45;&gt;Node5 -->
<g id="edge19" class="edge">
<title>Node17&#45;&gt;Node5</title>
<path fill="none" stroke="midnightblue" d="M486.55,-158.4C489.72,-149.36 493.39,-138.94 495.92,-131.75"/>
<polygon fill="midnightblue" stroke="midnightblue" points="483.15,-157.49 483.14,-168.08 489.76,-159.81 483.15,-157.49"/>
</g>
<!-- Node19 -->
<g id="node19" class="node">
<title>Node19</title>
<g id="a_node19"><a xlink:href="screen_8h.html" target="_top" xlink:title="User interface manager.">
<polygon fill="white" stroke="black" points="225,-448.5 225,-467.5 321,-467.5 321,-448.5 225,-448.5"/>
<text text-anchor="middle" x="273" y="-455.5" font-family="Helvetica,sans-Serif" font-size="10.00">include/screen.h</text>
</a>
</g>
</g>
<!-- Node18&#45;&gt;Node19 -->
<g id="edge21" class="edge">
<title>Node18&#45;&gt;Node19</title>
<path fill="none" stroke="midnightblue" d="M377.09,-500.64C351.76,-490.5 316.57,-476.43 294.29,-467.52"/>
<polygon fill="midnightblue" stroke="midnightblue" points="376.02,-503.98 386.61,-504.44 378.62,-497.48 376.02,-503.98"/>
</g>
<!-- Node20 -->
<g id="node20" class="node">
<title>Node20</title>
<g id="a_node20"><a xlink:href="screen_8c.html" target="_top" xlink:title=" ">
<polygon fill="white" stroke="black" points="228.5,-392.5 228.5,-411.5 317.5,-411.5 317.5,-392.5 228.5,-392.5"/>
<text text-anchor="middle" x="273" y="-399.5" font-family="Helvetica,sans-Serif" font-size="10.00">src/P2/screen.c</text>
</a>
</g>
</g>
<!-- Node19&#45;&gt;Node20 -->
<g id="edge22" class="edge">
<title>Node19&#45;&gt;Node20</title>
<path fill="none" stroke="midnightblue" d="M273,-437.8C273,-428.91 273,-418.78 273,-411.75"/>
<polygon fill="midnightblue" stroke="midnightblue" points="269.5,-438.08 273,-448.08 276.5,-438.08 269.5,-438.08"/>
</g>
<!-- Node21 -->
<g id="node21" class="node">
<title>Node21</title>
<g id="a_node21"><a xlink:href="steppower_8c.html" target="_top" xlink:title=" ">
<polygon fill="white" stroke="black" points="335.5,-392.5 335.5,-411.5 442.5,-411.5 442.5,-392.5 335.5,-392.5"/>
<text text-anchor="middle" x="389" y="-399.5" font-family="Helvetica,sans-Serif" font-size="10.00">src/P2/steppower.c</text>
</a>
</g>
</g>
<!-- Node19&#45;&gt;Node21 -->
<g id="edge23" class="edge">
<title>Node19&#45;&gt;Node21</title>
<path fill="none" stroke="midnightblue" d="M300.72,-444.1C322.39,-434.01 351.9,-420.27 370.71,-411.52"/>
<polygon fill="midnightblue" stroke="midnightblue" points="298.97,-441.05 291.38,-448.44 301.92,-447.4 298.97,-441.05"/>
</g>
<!-- Node22 -->
<g id="node22" class="node">
<title>Node22</title>
<g id="a_node22"><a xlink:href="binoc_8h.html" target="_top" xlink:title="Binoc&#45;u&#45;com.">
<polygon fill="white" stroke="black" points="120,-392.5 120,-411.5 210,-411.5 210,-392.5 120,-392.5"/>
<text text-anchor="middle" x="165" y="-399.5" font-family="Helvetica,sans-Serif" font-size="10.00">include/binoc.h</text>
</a>
</g>
</g>
<!-- Node19&#45;&gt;Node22 -->
<g id="edge24" class="edge">
<title>Node19&#45;&gt;Node22</title>
<path fill="none" stroke="midnightblue" d="M246.45,-443.73C226.45,-433.73 199.61,-420.31 182.31,-411.65"/>
<polygon fill="midnightblue" stroke="midnightblue" points="245.14,-446.98 255.65,-448.32 248.27,-440.72 245.14,-446.98"/>
</g>
<!-- Node27 -->
<g id="node27" class="node">
<title>Node27</title>
<g id="a_node27"><a xlink:href="ui_8h.html" target="_top" xlink:title="User interface.">
<polygon fill="white" stroke="black" points="14.5,-392.5 14.5,-411.5 87.5,-411.5 87.5,-392.5 14.5,-392.5"/>
<text text-anchor="middle" x="51" y="-399.5" font-family="Helvetica,sans-Serif" font-size="10.00">include/ui.h</text>
</a>
</g>
</g>
<!-- Node19&#45;&gt;Node27 -->
<g id="edge32" class="edge">
<title>Node19&#45;&gt;Node27</title>
<path fill="none" stroke="midnightblue" d="M227.88,-446.02C185.94,-435.82 124.35,-420.84 86.01,-411.52"/>
<polygon fill="midnightblue" stroke="midnightblue" points="227.28,-449.48 237.82,-448.44 228.93,-442.68 227.28,-449.48"/>
</g>
<!-- Node22&#45;&gt;Node12 -->
<g id="edge27" class="edge">
<title>Node22&#45;&gt;Node12</title>
<path fill="none" stroke="midnightblue" d="M164.75,-382.3C164.13,-336.64 162.57,-220.85 162.12,-187.88"/>
<polygon fill="midnightblue" stroke="midnightblue" points="161.25,-382.35 164.88,-392.3 168.25,-382.25 161.25,-382.35"/>
</g>
<!-- Node22&#45;&gt;Node13 -->
<g id="edge26" class="edge">
<title>Node22&#45;&gt;Node13</title>
<path fill="none" stroke="midnightblue" d="M146.77,-385.57C125.73,-365.95 94,-329.9 94,-291 94,-291 94,-291 94,-233 94,-195.19 94,-150.06 94,-131.56"/>
<polygon fill="midnightblue" stroke="midnightblue" points="144.44,-388.19 154.22,-392.26 149.11,-382.98 144.44,-388.19"/>
</g>
<!-- Node23 -->
<g id="node23" class="node">
<title>Node23</title>
<g id="a_node23"><a xlink:href="binoc_8c.html" target="_top" xlink:title=" ">
<polygon fill="white" stroke="black" points="190.5,-336.5 190.5,-355.5 273.5,-355.5 273.5,-336.5 190.5,-336.5"/>
<text text-anchor="middle" x="232" y="-343.5" font-family="Helvetica,sans-Serif" font-size="10.00">src/P2/binoc.c</text>
</a>
</g>
</g>
<!-- Node22&#45;&gt;Node23 -->
<g id="edge25" class="edge">
<title>Node22&#45;&gt;Node23</title>
<path fill="none" stroke="midnightblue" d="M183.83,-385.82C195.84,-376.15 210.97,-363.95 221.04,-355.83"/>
<polygon fill="midnightblue" stroke="midnightblue" points="181.35,-383.32 175.76,-392.32 185.75,-388.77 181.35,-383.32"/>
</g>
<!-- Node24 -->
<g id="node24" class="node">
<title>Node24</title>
<g id="a_node24"><a xlink:href="prog_8h.html" target="_top" xlink:title=" ">
<polygon fill="white" stroke="black" points="328,-336.5 328,-355.5 414,-355.5 414,-336.5 328,-336.5"/>
<text text-anchor="middle" x="371" y="-343.5" font-family="Helvetica,sans-Serif" font-size="10.00">include/prog.h</text>
</a>
</g>
</g>
<!-- Node22&#45;&gt;Node24 -->
<g id="edge28" class="edge">
<title>Node22&#45;&gt;Node24</title>
<path fill="none" stroke="midnightblue" d="M207.62,-389.83C246.51,-379.63 303.16,-364.78 338.51,-355.52"/>
<polygon fill="midnightblue" stroke="midnightblue" points="206.43,-386.52 197.64,-392.44 208.2,-393.29 206.43,-386.52"/>
</g>
<!-- Node24&#45;&gt;Node2 -->
<g id="edge31" class="edge">
<title>Node24&#45;&gt;Node2</title>
<path fill="none" stroke="midnightblue" d="M410.8,-333.57C446.27,-323.38 497.37,-308.7 529.35,-299.52"/>
<polygon fill="midnightblue" stroke="midnightblue" points="409.43,-330.32 400.79,-336.44 411.37,-337.05 409.43,-330.32"/>
</g>
<!-- Node25 -->
<g id="node25" class="node">
<title>Node25</title>
<g id="a_node25"><a xlink:href="main_8c.html" target="_top" xlink:title=" ">
<polygon fill="white" stroke="black" points="348,-280.5 348,-299.5 430,-299.5 430,-280.5 348,-280.5"/>
<text text-anchor="middle" x="389" y="-287.5" font-family="Helvetica,sans-Serif" font-size="10.00">src/P2/main.c</text>
</a>
</g>
</g>
<!-- Node24&#45;&gt;Node25 -->
<g id="edge29" class="edge">
<title>Node24&#45;&gt;Node25</title>
<path fill="none" stroke="midnightblue" d="M377.2,-326.4C380.21,-317.36 383.69,-306.94 386.08,-299.75"/>
<polygon fill="midnightblue" stroke="midnightblue" points="373.81,-325.49 373.97,-336.08 380.46,-327.7 373.81,-325.49"/>
</g>
<!-- Node26 -->
<g id="node26" class="node">
<title>Node26</title>
<g id="a_node26"><a xlink:href="prog_8c.html" target="_top" xlink:title=" ">
<polygon fill="white" stroke="black" points="250.5,-280.5 250.5,-299.5 329.5,-299.5 329.5,-280.5 250.5,-280.5"/>
<text text-anchor="middle" x="290" y="-287.5" font-family="Helvetica,sans-Serif" font-size="10.00">src/P2/prog.c</text>
</a>
</g>
</g>
<!-- Node24&#45;&gt;Node26 -->
<g id="edge30" class="edge">
<title>Node24&#45;&gt;Node26</title>
<path fill="none" stroke="midnightblue" d="M349.43,-330.62C334.64,-320.76 315.49,-307.99 302.98,-299.65"/>
<polygon fill="midnightblue" stroke="midnightblue" points="347.72,-333.69 357.99,-336.32 351.61,-327.86 347.72,-333.69"/>
</g>
<!-- Node28 -->
<g id="node28" class="node">
<title>Node28</title>
<g id="a_node28"><a xlink:href="ui_8c.html" target="_top" xlink:title=" ">
<polygon fill="white" stroke="black" points="0,-336.5 0,-355.5 66,-355.5 66,-336.5 0,-336.5"/>
<text text-anchor="middle" x="33" y="-343.5" font-family="Helvetica,sans-Serif" font-size="10.00">src/P2/ui.c</text>
</a>
</g>
</g>
<!-- Node27&#45;&gt;Node28 -->
<g id="edge33" class="edge">
<title>Node27&#45;&gt;Node28</title>
<path fill="none" stroke="midnightblue" d="M44.8,-382.4C41.79,-373.36 38.31,-362.94 35.92,-355.75"/>
<polygon fill="midnightblue" stroke="midnightblue" points="41.54,-383.7 48.03,-392.08 48.19,-381.49 41.54,-383.7"/>
</g>
<!-- Node29&#45;&gt;Node9 -->
<g id="edge36" class="edge">
<title>Node29&#45;&gt;Node9</title>
<path fill="none" stroke="midnightblue" d="M477,-550.25C477,-528.36 477,-491.05 477,-459 477,-459 477,-459 477,-345 477,-307.19 477,-262.06 477,-243.56"/>
<polygon fill="midnightblue" stroke="midnightblue" points="473.5,-550.44 477,-560.44 480.5,-550.44 473.5,-550.44"/>
</g>
<!-- Node29&#45;&gt;Node18 -->
<g id="edge35" class="edge">
<title>Node29&#45;&gt;Node18</title>
<path fill="none" stroke="midnightblue" d="M457.96,-554.1C445.54,-544.38 429.76,-532.03 419.29,-523.83"/>
<polygon fill="midnightblue" stroke="midnightblue" points="455.88,-556.92 465.91,-560.32 460.2,-551.4 455.88,-556.92"/>
</g>
</g>
</svg>
        <g id="navigator" transform="translate(0 0)" fill="#404254">
                <rect fill="#f2f5e9" fill-opacity="0.5" stroke="#606060" stroke-width=".5" x="0" y="0" width="60" height="60"/>
                <use id="zoomplus" xlink:href="#zoomPlus" x="17" y="9" onmousedown="handleZoom(evt,'in')"/>
                <use id="zoomminus" xlink:href="#zoomMin" x="42" y="9" onmousedown="handleZoom(evt,'out')"/>
                <use id="reset" xlink:href="#resetDef" x="30" y="36" onmousedown="handleReset()"/>
                <g id="arrowUp" xlink:href="#dirArrow" transform="translate(30 24)" onmousedown="handlePan(0,-1)">
                  <use xlink:href="#rim" fill="#404040">
                        <set attributeName="fill" to="#808080" begin="arrowUp.mouseover" end="arrowUp.mouseout"/>
                  </use>
                  <path fill="none" stroke="white" stroke-width="1.5" d="M0,-3.0v7 M-2.5,-0.5L0,-3.0L2.5,-0.5"/>
                </g>
                <g id="arrowRight" xlink:href="#dirArrow" transform="rotate(90) translate(36 -43)" onmousedown="handlePan(1,0)">
                  <use xlink:href="#rim" fill="#404040">
                        <set attributeName="fill" to="#808080" begin="arrowRight.mouseover" end="arrowRight.mouseout"/>
                  </use>
                  <path fill="none" stroke="white" stroke-width="1.5" d="M0,-3.0v7 M-2.5,-0.5L0,-3.0L2.5,-0.5"/>
                </g>
                <g id="arrowDown" xlink:href="#dirArrow" transform="rotate(180) translate(-30 -48)" onmousedown="handlePan(0,1)">
                  <use xlink:href="#rim" fill="#404040">
                        <set attributeName="fill" to="#808080" begin="arrowDown.mouseover" end="arrowDown.mouseout"/>
                  </use>
                  <path fill="none" stroke="white" stroke-width="1.5" d="M0,-3.0v7 M-2.5,-0.5L0,-3.0L2.5,-0.5"/>
                </g>
                <g id="arrowLeft" xlink:href="#dirArrow" transform="rotate(270) translate(-36 17)" onmousedown="handlePan(-1,0)">
                  <use xlink:href="#rim" fill="#404040">
                        <set attributeName="fill" to="#808080" begin="arrowLeft.mouseover" end="arrowLeft.mouseout"/>
                  </use>
                  <path fill="none" stroke="white" stroke-width="1.5" d="M0,-3.0v7 M-2.5,-0.5L0,-3.0L2.5,-0.5"/>
                </g>
        </g>
        <svg viewBox="0 0 15 15" width="100%" height="30px" preserveAspectRatio="xMaxYMin meet">
         <g id="arrow_out" transform="scale(0.3 0.3)">
          <a xlink:href="geom_8h__dep__incl_org.svg" target="_base">
           <rect id="button" ry="5" rx="5" y="6" x="6" height="38" width="38"
                fill="#f2f5e9" fill-opacity="0.5" stroke="#606060" stroke-width="1.0"/>
           <path id="arrow"
             d="M 11.500037,31.436501 C 11.940474,20.09759 22.043105,11.32322 32.158766,21.979434 L 37.068811,17.246167 C 37.068811,17.246167 37.088388,32 37.088388,32 L 22.160133,31.978069 C 22.160133,31.978069 26.997745,27.140456 26.997745,27.140456 C 18.528582,18.264221 13.291696,25.230495 11.500037,31.436501 z"
             style="fill:#404040;"/>
          </a>
         </g>
        </svg>
</svg>
