<?xml version="1.0" encoding="UTF-8" standalone="no"?>
<!DOCTYPE svg PUBLIC "-//W3C//DTD SVG 1.1//EN"
 "http://www.w3.org/Graphics/SVG/1.1/DTD/svg11.dtd">
<!-- Generated by graphviz version 2.43.0 (0)
 -->
<!-- Title: include/geom.h Pages: 1 -->
<svg width="713pt" height="644pt"
 viewBox="0.00 0.00 712.50 644.00" xmlns="http://www.w3.org/2000/svg" xmlns:xlink="http://www.w3.org/1999/xlink">
<g id="graph0" class="graph" transform="scale(1 1) rotate(0) translate(4 640)">
<title>include/geom.h</title>
<polygon fill="white" stroke="transparent" points="-4,4 -4,-640 708.5,-640 708.5,4 -4,4"/>
<!-- Node1 -->
<g id="node1" class="node">
<title>Node1</title>
<g id="a_node1"><a xlink:title="Geometry.">
<polygon fill="#bfbfbf" stroke="black" points="431,-616.5 431,-635.5 523,-635.5 523,-616.5 431,-616.5"/>
<text text-anchor="middle" x="477" y="-623.5" font-family="Helvetica,sans-Serif" font-size="10.00">include/geom.h</text>
</a>
</g>
</g>
<!-- Node2 -->
<g id="node2" class="node">
<title>Node2</title>
<g id="a_node2"><a xlink:href="bis_8h.html" target="_top" xlink:title="Binary Input Stream.">
<polygon fill="white" stroke="black" points="516,-280.5 516,-299.5 594,-299.5 594,-280.5 516,-280.5"/>
<text text-anchor="middle" x="555" y="-287.5" font-family="Helvetica,sans-Serif" font-size="10.00">include/bis.h</text>
</a>
</g>
</g>
<!-- Node1&#45;&gt;Node2 -->
<g id="edge1" class="edge">
<title>Node1&#45;&gt;Node2</title>
<path fill="none" stroke="midnightblue" d="M497.84,-609.99C507.74,-602 519.12,-591.46 527,-580 544.54,-554.5 552,-545.95 552,-515 552,-515 552,-515 552,-401 552,-363.17 553.79,-318.06 554.61,-299.56"/>
<polygon fill="midnightblue" stroke="midnightblue" points="495.41,-607.44 489.63,-616.32 499.69,-612.98 495.41,-607.44"/>
</g>
<!-- Node19 -->
<g id="node19" class="node">
<title>Node19</title>
<g id="a_node19"><a xlink:href="shd_8h.html" target="_top" xlink:title="Shaders.">
<polygon fill="white" stroke="black" points="367.5,-504.5 367.5,-523.5 448.5,-523.5 448.5,-504.5 367.5,-504.5"/>
<text text-anchor="middle" x="408" y="-511.5" font-family="Helvetica,sans-Serif" font-size="10.00">include/shd.h</text>
</a>
</g>
</g>
<!-- Node1&#45;&gt;Node19 -->
<g id="edge21" class="edge">
<title>Node1&#45;&gt;Node19</title>
<path fill="none" stroke="midnightblue" d="M455.36,-609.95C445.45,-602.06 434.31,-591.62 427,-580 415.61,-561.88 410.81,-536.67 408.99,-523.61"/>
<polygon fill="midnightblue" stroke="midnightblue" points="453.54,-612.96 463.63,-616.19 457.76,-607.38 453.54,-612.96"/>
</g>
<!-- Node30 -->
<g id="node30" class="node">
<title>Node30</title>
<g id="a_node30"><a xlink:href="surf_8h.html" target="_top" xlink:title="Surface?">
<polygon fill="white" stroke="black" points="436,-560.5 436,-579.5 518,-579.5 518,-560.5 436,-560.5"/>
<text text-anchor="middle" x="477" y="-567.5" font-family="Helvetica,sans-Serif" font-size="10.00">include/surf.h</text>
</a>
</g>
</g>
<!-- Node1&#45;&gt;Node30 -->
<g id="edge35" class="edge">
<title>Node1&#45;&gt;Node30</title>
<path fill="none" stroke="midnightblue" d="M477,-605.8C477,-596.91 477,-586.78 477,-579.75"/>
<polygon fill="midnightblue" stroke="midnightblue" points="473.5,-606.08 477,-616.08 480.5,-606.08 473.5,-606.08"/>
</g>
<!-- Node3 -->
<g id="node3" class="node">
<title>Node3</title>
<g id="a_node3"><a xlink:href="bis_8c.html" target="_top" xlink:title=" ">
<polygon fill="white" stroke="black" points="589.5,-224.5 589.5,-243.5 660.5,-243.5 660.5,-224.5 589.5,-224.5"/>
<text text-anchor="middle" x="625" y="-231.5" font-family="Helvetica,sans-Serif" font-size="10.00">src/P2/bis.c</text>
</a>
</g>
</g>
<!-- Node2&#45;&gt;Node3 -->
<g id="edge2" class="edge">
<title>Node2&#45;&gt;Node3</title>
<path fill="none" stroke="midnightblue" d="M574.31,-274.1C586.91,-264.38 602.93,-252.03 613.55,-243.83"/>
<polygon fill="midnightblue" stroke="midnightblue" points="572.03,-271.44 566.25,-280.32 576.3,-276.99 572.03,-271.44"/>
</g>
<!-- Node4 -->
<g id="node4" class="node">
<title>Node4</title>
<g id="a_node4"><a xlink:href="coin_8c.html" target="_top" xlink:title=" ">
<polygon fill="white" stroke="black" points="627.5,-56.5 627.5,-75.5 704.5,-75.5 704.5,-56.5 627.5,-56.5"/>
<text text-anchor="middle" x="666" y="-63.5" font-family="Helvetica,sans-Serif" font-size="10.00">src/P2/coin.c</text>
</a>
</g>
</g>
<!-- Node2&#45;&gt;Node4 -->
<g id="edge3" class="edge">
<title>Node2&#45;&gt;Node4</title>
<path fill="none" stroke="midnightblue" d="M603.8,-282.83C627.98,-277.03 655.13,-265.79 670,-244 706.91,-189.92 679.63,-103.3 669.42,-75.73"/>
<polygon fill="midnightblue" stroke="midnightblue" points="603.06,-279.41 594.02,-284.93 604.53,-286.25 603.06,-279.41"/>
</g>
<!-- Node5 -->
<g id="node5" class="node">
<title>Node5</title>
<g id="a_node5"><a xlink:href="chkpnt_8h.html" target="_top" xlink:title="Checkpoint system.">
<polygon fill="white" stroke="black" points="441.5,-112.5 441.5,-131.5 538.5,-131.5 538.5,-112.5 441.5,-112.5"/>
<text text-anchor="middle" x="490" y="-119.5" font-family="Helvetica,sans-Serif" font-size="10.00">include/chkpnt.h</text>
</a>
</g>
</g>
<!-- Node2&#45;&gt;Node5 -->
<g id="edge4" class="edge">
<title>Node2&#45;&gt;Node5</title>
<path fill="none" stroke="midnightblue" d="M553.6,-270.2C551.16,-245.59 544.68,-201.63 528,-168 520.91,-153.71 508.35,-140.13 499.62,-131.69"/>
<polygon fill="midnightblue" stroke="midnightblue" points="550.13,-270.66 554.48,-280.32 557.1,-270.05 550.13,-270.66"/>
</g>
<!-- Node10 -->
<g id="node10" class="node">
<title>Node10</title>
<g id="a_node10"><a xlink:href="xform_8h.html" target="_top" xlink:title="Transform.">
<polygon fill="white" stroke="black" points="430.5,-224.5 430.5,-243.5 523.5,-243.5 523.5,-224.5 430.5,-224.5"/>
<text text-anchor="middle" x="477" y="-231.5" font-family="Helvetica,sans-Serif" font-size="10.00">include/xform.h</text>
</a>
</g>
</g>
<!-- Node2&#45;&gt;Node10 -->
<g id="edge10" class="edge">
<title>Node2&#45;&gt;Node10</title>
<path fill="none" stroke="midnightblue" d="M534.23,-274.62C519.98,-264.76 501.54,-251.99 489.5,-243.65"/>
<polygon fill="midnightblue" stroke="midnightblue" points="532.25,-277.51 542.47,-280.32 536.24,-271.75 532.25,-277.51"/>
</g>
<!-- Node5&#45;&gt;Node4 -->
<g id="edge6" class="edge">
<title>Node5&#45;&gt;Node4</title>
<path fill="none" stroke="midnightblue" d="M527.69,-109.44C560.87,-99.26 608.43,-84.66 638.24,-75.52"/>
<polygon fill="midnightblue" stroke="midnightblue" points="526.42,-106.16 517.89,-112.44 528.47,-112.86 526.42,-106.16"/>
</g>
<!-- Node6 -->
<g id="node6" class="node">
<title>Node6</title>
<g id="a_node6"><a xlink:href="chkpnt_8c.html" target="_top" xlink:title=" ">
<polygon fill="white" stroke="black" points="519,-56.5 519,-75.5 609,-75.5 609,-56.5 519,-56.5"/>
<text text-anchor="middle" x="564" y="-63.5" font-family="Helvetica,sans-Serif" font-size="10.00">src/P2/chkpnt.c</text>
</a>
</g>
</g>
<!-- Node5&#45;&gt;Node6 -->
<g id="edge5" class="edge">
<title>Node5&#45;&gt;Node6</title>
<path fill="none" stroke="midnightblue" d="M510.03,-106.38C523.41,-96.62 540.56,-84.11 551.89,-75.83"/>
<polygon fill="midnightblue" stroke="midnightblue" points="507.9,-103.6 501.89,-112.32 512.03,-109.26 507.9,-103.6"/>
</g>
<!-- Node7 -->
<g id="node7" class="node">
<title>Node7</title>
<g id="a_node7"><a xlink:href="transition_8c.html" target="_top" xlink:title=" ">
<polygon fill="white" stroke="black" points="273,-56.5 273,-75.5 377,-75.5 377,-56.5 273,-56.5"/>
<text text-anchor="middle" x="325" y="-63.5" font-family="Helvetica,sans-Serif" font-size="10.00">src/P2/transition.c</text>
</a>
</g>
</g>
<!-- Node5&#45;&gt;Node7 -->
<g id="edge7" class="edge">
<title>Node5&#45;&gt;Node7</title>
<path fill="none" stroke="midnightblue" d="M454.26,-109.3C423.17,-99.13 378.85,-84.62 351.02,-75.52"/>
<polygon fill="midnightblue" stroke="midnightblue" points="453.26,-112.66 463.86,-112.44 455.44,-106.01 453.26,-112.66"/>
</g>
<!-- Node8 -->
<g id="node8" class="node">
<title>Node8</title>
<g id="a_node8"><a xlink:href="difficulty_8h.html" target="_top" xlink:title="Dynamic difficulty system.">
<polygon fill="white" stroke="black" points="395.5,-56.5 395.5,-75.5 500.5,-75.5 500.5,-56.5 395.5,-56.5"/>
<text text-anchor="middle" x="448" y="-63.5" font-family="Helvetica,sans-Serif" font-size="10.00">include/difficulty.h</text>
</a>
</g>
</g>
<!-- Node5&#45;&gt;Node8 -->
<g id="edge8" class="edge">
<title>Node5&#45;&gt;Node8</title>
<path fill="none" stroke="midnightblue" d="M476.89,-104.14C469.57,-94.74 460.76,-83.4 454.81,-75.75"/>
<polygon fill="midnightblue" stroke="midnightblue" points="474.16,-106.34 483.06,-112.08 479.69,-102.04 474.16,-106.34"/>
</g>
<!-- Node9 -->
<g id="node9" class="node">
<title>Node9</title>
<g id="a_node9"><a xlink:href="difficulty_8c.html" target="_top" xlink:title=" ">
<polygon fill="white" stroke="black" points="399,-0.5 399,-19.5 497,-19.5 497,-0.5 399,-0.5"/>
<text text-anchor="middle" x="448" y="-7.5" font-family="Helvetica,sans-Serif" font-size="10.00">src/P2/difficulty.c</text>
</a>
</g>
</g>
<!-- Node8&#45;&gt;Node9 -->
<g id="edge9" class="edge">
<title>Node8&#45;&gt;Node9</title>
<path fill="none" stroke="midnightblue" d="M448,-45.8C448,-36.91 448,-26.78 448,-19.75"/>
<polygon fill="midnightblue" stroke="midnightblue" points="444.5,-46.08 448,-56.08 451.5,-46.08 444.5,-46.08"/>
</g>
<!-- Node11 -->
<g id="node11" class="node">
<title>Node11</title>
<g id="a_node11"><a xlink:href="xform1_8c.html" target="_top" xlink:title=" ">
<polygon fill="white" stroke="black" points="220,-168.5 220,-187.5 312,-187.5 312,-168.5 220,-168.5"/>
<text text-anchor="middle" x="266" y="-175.5" font-family="Helvetica,sans-Serif" font-size="10.00">src/P2/xform1.c</text>
</a>
</g>
</g>
<!-- Node10&#45;&gt;Node11 -->
<g id="edge11" class="edge">
<title>Node10&#45;&gt;Node11</title>
<path fill="none" stroke="midnightblue" d="M433.86,-221.96C394.01,-211.76 335.64,-196.82 299.28,-187.52"/>
<polygon fill="midnightblue" stroke="midnightblue" points="433.01,-225.35 443.57,-224.44 434.75,-218.57 433.01,-225.35"/>
</g>
<!-- Node12 -->
<g id="node12" class="node">
<title>Node12</title>
<g id="a_node12"><a xlink:href="xform2_8c.html" target="_top" xlink:title=" ">
<polygon fill="white" stroke="black" points="330,-168.5 330,-187.5 422,-187.5 422,-168.5 330,-168.5"/>
<text text-anchor="middle" x="376" y="-175.5" font-family="Helvetica,sans-Serif" font-size="10.00">src/P2/xform2.c</text>
</a>
</g>
</g>
<!-- Node10&#45;&gt;Node12 -->
<g id="edge12" class="edge">
<title>Node10&#45;&gt;Node12</title>
<path fill="none" stroke="midnightblue" d="M451.92,-219.59C433.24,-209.61 408.3,-196.27 392.19,-187.65"/>
<polygon fill="midnightblue" stroke="midnightblue" points="450.3,-222.7 460.77,-224.32 453.6,-216.52 450.3,-222.7"/>
</g>
<!-- Node13 -->
<g id="node13" class="node">
<title>Node13</title>
<g id="a_node13"><a xlink:href="cm_8h.html" target="_top" xlink:title="Game camera.">
<polygon fill="white" stroke="black" points="122.5,-168.5 122.5,-187.5 201.5,-187.5 201.5,-168.5 122.5,-168.5"/>
<text text-anchor="middle" x="162" y="-175.5" font-family="Helvetica,sans-Serif" font-size="10.00">include/cm.h</text>
</a>
</g>
</g>
<!-- Node10&#45;&gt;Node13 -->
<g id="edge13" class="edge">
<title>Node10&#45;&gt;Node13</title>
<path fill="none" stroke="midnightblue" d="M420.32,-223.65C366.44,-214.7 283.15,-200.73 211,-188 207.93,-187.46 204.76,-186.89 201.57,-186.32"/>
<polygon fill="midnightblue" stroke="midnightblue" points="419.92,-227.13 430.36,-225.31 421.06,-220.22 419.92,-227.13"/>
</g>
<!-- Node17 -->
<g id="node17" class="node">
<title>Node17</title>
<g id="a_node17"><a xlink:href="coin_8h.html" target="_top" xlink:title="Coins, keys, and other collectibles.">
<polygon fill="white" stroke="black" points="568,-112.5 568,-131.5 652,-131.5 652,-112.5 568,-112.5"/>
<text text-anchor="middle" x="610" y="-119.5" font-family="Helvetica,sans-Serif" font-size="10.00">include/coin.h</text>
</a>
</g>
</g>
<!-- Node10&#45;&gt;Node17 -->
<g id="edge17" class="edge">
<title>Node10&#45;&gt;Node17</title>
<path fill="none" stroke="midnightblue" d="M495.36,-217.82C523.69,-194.39 577.13,-150.19 599.61,-131.59"/>
<polygon fill="midnightblue" stroke="midnightblue" points="492.91,-215.3 487.44,-224.37 497.37,-220.69 492.91,-215.3"/>
</g>
<!-- Node18 -->
<g id="node18" class="node">
<title>Node18</title>
<g id="a_node18"><a xlink:href="vol_8h.html" target="_top" xlink:title="Volume object.">
<polygon fill="white" stroke="black" points="440.5,-168.5 440.5,-187.5 519.5,-187.5 519.5,-168.5 440.5,-168.5"/>
<text text-anchor="middle" x="480" y="-175.5" font-family="Helvetica,sans-Serif" font-size="10.00">include/vol.h</text>
</a>
</g>
</g>
<!-- Node10&#45;&gt;Node18 -->
<g id="edge19" class="edge">
<title>Node10&#45;&gt;Node18</title>
<path fill="none" stroke="midnightblue" d="M478.07,-213.8C478.56,-204.91 479.12,-194.78 479.51,-187.75"/>
<polygon fill="midnightblue" stroke="midnightblue" points="474.56,-213.9 477.5,-224.08 481.54,-214.29 474.56,-213.9"/>
</g>
<!-- Node14 -->
<g id="node14" class="node">
<title>Node14</title>
<g id="a_node14"><a xlink:href="cm_8c.html" target="_top" xlink:title=" ">
<polygon fill="white" stroke="black" points="58,-112.5 58,-131.5 130,-131.5 130,-112.5 58,-112.5"/>
<text text-anchor="middle" x="94" y="-119.5" font-family="Helvetica,sans-Serif" font-size="10.00">src/P2/cm.c</text>
</a>
</g>
</g>
<!-- Node13&#45;&gt;Node14 -->
<g id="edge14" class="edge">
<title>Node13&#45;&gt;Node14</title>
<path fill="none" stroke="midnightblue" d="M143.24,-162.1C131,-152.38 115.44,-140.03 105.12,-131.83"/>
<polygon fill="midnightblue" stroke="midnightblue" points="141.07,-164.85 151.07,-168.32 145.42,-159.36 141.07,-164.85"/>
</g>
<!-- Node15 -->
<g id="node15" class="node">
<title>Node15</title>
<g id="a_node15"><a xlink:href="flash_8h.html" target="_top" xlink:title="Flash (might be flash animation, or literal screen flashes).">
<polygon fill="white" stroke="black" points="148.5,-112.5 148.5,-131.5 235.5,-131.5 235.5,-112.5 148.5,-112.5"/>
<text text-anchor="middle" x="192" y="-119.5" font-family="Helvetica,sans-Serif" font-size="10.00">include/flash.h</text>
</a>
</g>
</g>
<!-- Node13&#45;&gt;Node15 -->
<g id="edge15" class="edge">
<title>Node13&#45;&gt;Node15</title>
<path fill="none" stroke="midnightblue" d="M171.85,-159.27C176.97,-150.05 183.02,-139.17 187.14,-131.75"/>
<polygon fill="midnightblue" stroke="midnightblue" points="168.75,-157.64 166.95,-168.08 174.87,-161.04 168.75,-157.64"/>
</g>
<!-- Node16 -->
<g id="node16" class="node">
<title>Node16</title>
<g id="a_node16"><a xlink:href="flash_8c.html" target="_top" xlink:title=" ">
<polygon fill="white" stroke="black" points="152,-56.5 152,-75.5 232,-75.5 232,-56.5 152,-56.5"/>
<text text-anchor="middle" x="192" y="-63.5" font-family="Helvetica,sans-Serif" font-size="10.00">src/P2/flash.c</text>
</a>
</g>
</g>
<!-- Node15&#45;&gt;Node16 -->
<g id="edge16" class="edge">
<title>Node15&#45;&gt;Node16</title>
<path fill="none" stroke="midnightblue" d="M192,-101.8C192,-92.91 192,-82.78 192,-75.75"/>
<polygon fill="midnightblue" stroke="midnightblue" points="188.5,-102.08 192,-112.08 195.5,-102.08 188.5,-102.08"/>
</g>
<!-- Node17&#45;&gt;Node4 -->
<g id="edge18" class="edge">
<title>Node17&#45;&gt;Node4</title>
<path fill="none" stroke="midnightblue" d="M626.33,-105.25C636.26,-95.67 648.59,-83.79 656.84,-75.83"/>
<polygon fill="midnightblue" stroke="midnightblue" points="623.77,-102.86 619,-112.32 628.63,-107.9 623.77,-102.86"/>
</g>
<!-- Node18&#45;&gt;Node5 -->
<g id="edge20" class="edge">
<title>Node18&#45;&gt;Node5</title>
<path fill="none" stroke="midnightblue" d="M483.5,-158.1C485.16,-149.14 487.06,-138.86 488.38,-131.75"/>
<polygon fill="midnightblue" stroke="midnightblue" points="480.03,-157.61 481.65,-168.08 486.91,-158.89 480.03,-157.61"/>
</g>
<!-- Node20 -->
<g id="node20" class="node">
<title>Node20</title>
<g id="a_node20"><a xlink:href="screen_8h.html" target="_top" xlink:title="User interface manager.">
<polygon fill="white" stroke="black" points="225,-448.5 225,-467.5 321,-467.5 321,-448.5 225,-448.5"/>
<text text-anchor="middle" x="273" y="-455.5" font-family="Helvetica,sans-Serif" font-size="10.00">include/screen.h</text>
</a>
</g>
</g>
<!-- Node19&#45;&gt;Node20 -->
<g id="edge22" class="edge">
<title>Node19&#45;&gt;Node20</title>
<path fill="none" stroke="midnightblue" d="M377.09,-500.64C351.76,-490.5 316.57,-476.43 294.29,-467.52"/>
<polygon fill="midnightblue" stroke="midnightblue" points="376.02,-503.98 386.61,-504.44 378.62,-497.48 376.02,-503.98"/>
</g>
<!-- Node21 -->
<g id="node21" class="node">
<title>Node21</title>
<g id="a_node21"><a xlink:href="screen_8c.html" target="_top" xlink:title=" ">
<polygon fill="white" stroke="black" points="228.5,-392.5 228.5,-411.5 317.5,-411.5 317.5,-392.5 228.5,-392.5"/>
<text text-anchor="middle" x="273" y="-399.5" font-family="Helvetica,sans-Serif" font-size="10.00">src/P2/screen.c</text>
</a>
</g>
</g>
<!-- Node20&#45;&gt;Node21 -->
<g id="edge23" class="edge">
<title>Node20&#45;&gt;Node21</title>
<path fill="none" stroke="midnightblue" d="M273,-437.8C273,-428.91 273,-418.78 273,-411.75"/>
<polygon fill="midnightblue" stroke="midnightblue" points="269.5,-438.08 273,-448.08 276.5,-438.08 269.5,-438.08"/>
</g>
<!-- Node22 -->
<g id="node22" class="node">
<title>Node22</title>
<g id="a_node22"><a xlink:href="steppower_8c.html" target="_top" xlink:title=" ">
<polygon fill="white" stroke="black" points="335.5,-392.5 335.5,-411.5 442.5,-411.5 442.5,-392.5 335.5,-392.5"/>
<text text-anchor="middle" x="389" y="-399.5" font-family="Helvetica,sans-Serif" font-size="10.00">src/P2/steppower.c</text>
</a>
</g>
</g>
<!-- Node20&#45;&gt;Node22 -->
<g id="edge24" class="edge">
<title>Node20&#45;&gt;Node22</title>
<path fill="none" stroke="midnightblue" d="M300.72,-444.1C322.39,-434.01 351.9,-420.27 370.71,-411.52"/>
<polygon fill="midnightblue" stroke="midnightblue" points="298.97,-441.05 291.38,-448.44 301.92,-447.4 298.97,-441.05"/>
</g>
<!-- Node23 -->
<g id="node23" class="node">
<title>Node23</title>
<g id="a_node23"><a xlink:href="binoc_8h.html" target="_top" xlink:title="Binoc&#45;u&#45;com.">
<polygon fill="white" stroke="black" points="120,-392.5 120,-411.5 210,-411.5 210,-392.5 120,-392.5"/>
<text text-anchor="middle" x="165" y="-399.5" font-family="Helvetica,sans-Serif" font-size="10.00">include/binoc.h</text>
</a>
</g>
</g>
<!-- Node20&#45;&gt;Node23 -->
<g id="edge25" class="edge">
<title>Node20&#45;&gt;Node23</title>
<path fill="none" stroke="midnightblue" d="M246.45,-443.73C226.45,-433.73 199.61,-420.31 182.31,-411.65"/>
<polygon fill="midnightblue" stroke="midnightblue" points="245.14,-446.98 255.65,-448.32 248.27,-440.72 245.14,-446.98"/>
</g>
<!-- Node28 -->
<g id="node28" class="node">
<title>Node28</title>
<g id="a_node28"><a xlink:href="ui_8h.html" target="_top" xlink:title="User interface.">
<polygon fill="white" stroke="black" points="14.5,-392.5 14.5,-411.5 87.5,-411.5 87.5,-392.5 14.5,-392.5"/>
<text text-anchor="middle" x="51" y="-399.5" font-family="Helvetica,sans-Serif" font-size="10.00">include/ui.h</text>
</a>
</g>
</g>
<!-- Node20&#45;&gt;Node28 -->
<g id="edge33" class="edge">
<title>Node20&#45;&gt;Node28</title>
<path fill="none" stroke="midnightblue" d="M227.88,-446.02C185.94,-435.82 124.35,-420.84 86.01,-411.52"/>
<polygon fill="midnightblue" stroke="midnightblue" points="227.28,-449.48 237.82,-448.44 228.93,-442.68 227.28,-449.48"/>
</g>
<!-- Node23&#45;&gt;Node13 -->
<g id="edge28" class="edge">
<title>Node23&#45;&gt;Node13</title>
<path fill="none" stroke="midnightblue" d="M164.75,-382.3C164.13,-336.64 162.57,-220.85 162.12,-187.88"/>
<polygon fill="midnightblue" stroke="midnightblue" points="161.25,-382.35 164.88,-392.3 168.25,-382.25 161.25,-382.35"/>
</g>
<!-- Node23&#45;&gt;Node14 -->
<g id="edge27" class="edge">
<title>Node23&#45;&gt;Node14</title>
<path fill="none" stroke="midnightblue" d="M146.77,-385.57C125.73,-365.95 94,-329.9 94,-291 94,-291 94,-291 94,-233 94,-195.19 94,-150.06 94,-131.56"/>
<polygon fill="midnightblue" stroke="midnightblue" points="144.44,-388.19 154.22,-392.26 149.11,-382.98 144.44,-388.19"/>
</g>
<!-- Node24 -->
<g id="node24" class="node">
<title>Node24</title>
<g id="a_node24"><a xlink:href="binoc_8c.html" target="_top" xlink:title=" ">
<polygon fill="white" stroke="black" points="190.5,-336.5 190.5,-355.5 273.5,-355.5 273.5,-336.5 190.5,-336.5"/>
<text text-anchor="middle" x="232" y="-343.5" font-family="Helvetica,sans-Serif" font-size="10.00">src/P2/binoc.c</text>
</a>
</g>
</g>
<!-- Node23&#45;&gt;Node24 -->
<g id="edge26" class="edge">
<title>Node23&#45;&gt;Node24</title>
<path fill="none" stroke="midnightblue" d="M183.83,-385.82C195.84,-376.15 210.97,-363.95 221.04,-355.83"/>
<polygon fill="midnightblue" stroke="midnightblue" points="181.35,-383.32 175.76,-392.32 185.75,-388.77 181.35,-383.32"/>
</g>
<!-- Node25 -->
<g id="node25" class="node">
<title>Node25</title>
<g id="a_node25"><a xlink:href="prog_8h.html" target="_top" xlink:title=" ">
<polygon fill="white" stroke="black" points="328,-336.5 328,-355.5 414,-355.5 414,-336.5 328,-336.5"/>
<text text-anchor="middle" x="371" y="-343.5" font-family="Helvetica,sans-Serif" font-size="10.00">include/prog.h</text>
</a>
</g>
</g>
<!-- Node23&#45;&gt;Node25 -->
<g id="edge29" class="edge">
<title>Node23&#45;&gt;Node25</title>
<path fill="none" stroke="midnightblue" d="M207.62,-389.83C246.51,-379.63 303.16,-364.78 338.51,-355.52"/>
<polygon fill="midnightblue" stroke="midnightblue" points="206.43,-386.52 197.64,-392.44 208.2,-393.29 206.43,-386.52"/>
</g>
<!-- Node25&#45;&gt;Node2 -->
<g id="edge32" class="edge">
<title>Node25&#45;&gt;Node2</title>
<path fill="none" stroke="midnightblue" d="M409.95,-333.57C444.66,-323.38 494.68,-308.7 525.98,-299.52"/>
<polygon fill="midnightblue" stroke="midnightblue" points="408.77,-330.27 400.16,-336.44 410.74,-336.99 408.77,-330.27"/>
</g>
<!-- Node26 -->
<g id="node26" class="node">
<title>Node26</title>
<g id="a_node26"><a xlink:href="main_8c.html" target="_top" xlink:title=" ">
<polygon fill="white" stroke="black" points="348,-280.5 348,-299.5 430,-299.5 430,-280.5 348,-280.5"/>
<text text-anchor="middle" x="389" y="-287.5" font-family="Helvetica,sans-Serif" font-size="10.00">src/P2/main.c</text>
</a>
</g>
</g>
<!-- Node25&#45;&gt;Node26 -->
<g id="edge30" class="edge">
<title>Node25&#45;&gt;Node26</title>
<path fill="none" stroke="midnightblue" d="M377.2,-326.4C380.21,-317.36 383.69,-306.94 386.08,-299.75"/>
<polygon fill="midnightblue" stroke="midnightblue" points="373.81,-325.49 373.97,-336.08 380.46,-327.7 373.81,-325.49"/>
</g>
<!-- Node27 -->
<g id="node27" class="node">
<title>Node27</title>
<g id="a_node27"><a xlink:href="prog_8c.html" target="_top" xlink:title=" ">
<polygon fill="white" stroke="black" points="250.5,-280.5 250.5,-299.5 329.5,-299.5 329.5,-280.5 250.5,-280.5"/>
<text text-anchor="middle" x="290" y="-287.5" font-family="Helvetica,sans-Serif" font-size="10.00">src/P2/prog.c</text>
</a>
</g>
</g>
<!-- Node25&#45;&gt;Node27 -->
<g id="edge31" class="edge">
<title>Node25&#45;&gt;Node27</title>
<path fill="none" stroke="midnightblue" d="M349.43,-330.62C334.64,-320.76 315.49,-307.99 302.98,-299.65"/>
<polygon fill="midnightblue" stroke="midnightblue" points="347.72,-333.69 357.99,-336.32 351.61,-327.86 347.72,-333.69"/>
</g>
<!-- Node29 -->
<g id="node29" class="node">
<title>Node29</title>
<g id="a_node29"><a xlink:href="ui_8c.html" target="_top" xlink:title=" ">
<polygon fill="white" stroke="black" points="0,-336.5 0,-355.5 66,-355.5 66,-336.5 0,-336.5"/>
<text text-anchor="middle" x="33" y="-343.5" font-family="Helvetica,sans-Serif" font-size="10.00">src/P2/ui.c</text>
</a>
</g>
</g>
<!-- Node28&#45;&gt;Node29 -->
<g id="edge34" class="edge">
<title>Node28&#45;&gt;Node29</title>
<path fill="none" stroke="midnightblue" d="M44.8,-382.4C41.79,-373.36 38.31,-362.94 35.92,-355.75"/>
<polygon fill="midnightblue" stroke="midnightblue" points="41.54,-383.7 48.03,-392.08 48.19,-381.49 41.54,-383.7"/>
</g>
<!-- Node30&#45;&gt;Node10 -->
<g id="edge37" class="edge">
<title>Node30&#45;&gt;Node10</title>
<path fill="none" stroke="midnightblue" d="M477,-550.25C477,-528.36 477,-491.05 477,-459 477,-459 477,-459 477,-345 477,-307.19 477,-262.06 477,-243.56"/>
<polygon fill="midnightblue" stroke="midnightblue" points="473.5,-550.44 477,-560.44 480.5,-550.44 473.5,-550.44"/>
</g>
<!-- Node30&#45;&gt;Node19 -->
<g id="edge36" class="edge">
<title>Node30&#45;&gt;Node19</title>
<path fill="none" stroke="midnightblue" d="M457.96,-554.1C445.54,-544.38 429.76,-532.03 419.29,-523.83"/>
<polygon fill="midnightblue" stroke="midnightblue" points="455.88,-556.92 465.91,-560.32 460.2,-551.4 455.88,-556.92"/>
</g>
</g>
</svg>
