<?xml version="1.0" encoding="UTF-8" standalone="no"?>
<!DOCTYPE svg PUBLIC "-//W3C//DTD SVG 1.1//EN"
 "http://www.w3.org/Graphics/SVG/1.1/DTD/svg11.dtd">
<!-- Generated by graphviz version 2.43.0 (0)
 -->
<!-- Title: include/geom.h Pages: 1 -->
<!--zoomable 644 -->
<svg id="main" version="1.1" xmlns="http://www.w3.org/2000/svg" xmlns:xlink="http://www.w3.org/1999/xlink" xml:space="preserve" onload="init(evt)">
<style type="text/css"><![CDATA[
.edge:hover path { stroke: red; }
.edge:hover polygon { stroke: red; fill: red; }
]]></style>
<script type="text/javascript"><![CDATA[
var edges = document.getElementsByTagName('g');
if (edges && edges.length) {
  for (var i=0;i<edges.length;i++) {
    if (edges[i].id.substr(0,4)=='edge') {
      edges[i].setAttribute('class','edge');
    }
  }
}
]]></script>
        <defs>
                <circle id="rim" cx="0" cy="0" r="7"/>
                <circle id="rim2" cx="0" cy="0" r="3.5"/>
                <g id="zoomPlus">
                        <use xlink:href="#rim" fill="#404040">
                                <set attributeName="fill" to="#808080" begin="zoomplus.mouseover" end="zoomplus.mouseout"/>
                        </use>
                        <path d="M-4,0h8M0,-4v8" fill="none" stroke="white" stroke-width="1.5" pointer-events="none"/>
                </g>
                <g id="zoomMin">
                        <use xlink:href="#rim" fill="#404040">
                                <set attributeName="fill" to="#808080" begin="zoomminus.mouseover" end="zoomminus.mouseout"/>
                        </use>
                        <path d="M-4,0h8" fill="none" stroke="white" stroke-width="1.5" pointer-events="none"/>
                </g>
                <g id="dirArrow">
                        <path fill="none" stroke="white" stroke-width="1.5" d="M0,-3.0v7 M-2.5,-0.5L0,-3.0L2.5,-0.5"/>
                </g>
               <g id="resetDef">
                       <use xlink:href="#rim2" fill="#404040">
                               <set attributeName="fill" to="#808080" begin="reset.mouseover" end="reset.mouseout"/>
                       </use>
               </g>
        </defs>

<script type="text/javascript">
var viewWidth = 969;
var viewHeight = 644;
var sectionId = 'dynsection-0';
</script>
<script xlink:href="svgpan.js"/>
<svg id="graph" class="graph">
<g id="viewport">
<title>include/geom.h</title>
<polygon fill="white" stroke="transparent" points="-4,4 -4,-640 964.5,-640 964.5,4 -4,4"/>
<!-- Node1 -->
<g id="node1" class="node">
<title>Node1</title>
<g id="a_node1"><a xlink:title="Geometry.">
<polygon fill="#bfbfbf" stroke="black" points="395.5,-616.5 395.5,-635.5 487.5,-635.5 487.5,-616.5 395.5,-616.5"/>
<text text-anchor="middle" x="441.5" y="-623.5" font-family="Helvetica,sans-Serif" font-size="10.00">include/geom.h</text>
</a>
</g>
</g>
<!-- Node2 -->
<g id="node2" class="node">
<title>Node2</title>
<g id="a_node2"><a xlink:href="bis_8h.html" target="_top" xlink:title="Binary Input Stream.">
<polygon fill="white" stroke="black" points="199.5,-280.5 199.5,-299.5 277.5,-299.5 277.5,-280.5 199.5,-280.5"/>
<text text-anchor="middle" x="238.5" y="-287.5" font-family="Helvetica,sans-Serif" font-size="10.00">include/bis.h</text>
</a>
</g>
</g>
<!-- Node1&#45;&gt;Node2 -->
<g id="edge1" class="edge">
<title>Node1&#45;&gt;Node2</title>
<path fill="none" stroke="midnightblue" d="M416.74,-611.21C388.01,-593.17 344.5,-558.65 344.5,-515 344.5,-515 344.5,-515 344.5,-401 344.5,-351.14 287.33,-315.19 256.96,-299.61"/>
<polygon fill="midnightblue" stroke="midnightblue" points="415.11,-614.32 425.48,-616.48 418.73,-608.32 415.11,-614.32"/>
</g>
<!-- Node19 -->
<g id="node19" class="node">
<title>Node19</title>
<g id="a_node19"><a xlink:href="shd_8h.html" target="_top" xlink:title="Shaders.">
<polygon fill="white" stroke="black" points="537,-504.5 537,-523.5 618,-523.5 618,-504.5 537,-504.5"/>
<text text-anchor="middle" x="577.5" y="-511.5" font-family="Helvetica,sans-Serif" font-size="10.00">include/shd.h</text>
</a>
</g>
</g>
<!-- Node1&#45;&gt;Node19 -->
<g id="edge21" class="edge">
<title>Node1&#45;&gt;Node19</title>
<path fill="none" stroke="midnightblue" d="M460.27,-609.82C489.24,-586.39 543.88,-542.19 566.88,-523.59"/>
<polygon fill="midnightblue" stroke="midnightblue" points="457.75,-607.36 452.17,-616.37 462.15,-612.8 457.75,-607.36"/>
</g>
<!-- Node31 -->
<g id="node31" class="node">
<title>Node31</title>
<g id="a_node31"><a xlink:href="surf_8h.html" target="_top" xlink:title="Surfaces?">
<polygon fill="white" stroke="black" points="400.5,-560.5 400.5,-579.5 482.5,-579.5 482.5,-560.5 400.5,-560.5"/>
<text text-anchor="middle" x="441.5" y="-567.5" font-family="Helvetica,sans-Serif" font-size="10.00">include/surf.h</text>
</a>
</g>
</g>
<!-- Node1&#45;&gt;Node31 -->
<g id="edge36" class="edge">
<title>Node1&#45;&gt;Node31</title>
<path fill="none" stroke="midnightblue" d="M441.5,-605.8C441.5,-596.91 441.5,-586.78 441.5,-579.75"/>
<polygon fill="midnightblue" stroke="midnightblue" points="438,-606.08 441.5,-616.08 445,-606.08 438,-606.08"/>
</g>
<!-- Node3 -->
<g id="node3" class="node">
<title>Node3</title>
<g id="a_node3"><a xlink:href="bis_8c.html" target="_top" xlink:title=" ">
<polygon fill="white" stroke="black" points="0,-224.5 0,-243.5 71,-243.5 71,-224.5 0,-224.5"/>
<text text-anchor="middle" x="35.5" y="-231.5" font-family="Helvetica,sans-Serif" font-size="10.00">src/P2/bis.c</text>
</a>
</g>
</g>
<!-- Node2&#45;&gt;Node3 -->
<g id="edge2" class="edge">
<title>Node2&#45;&gt;Node3</title>
<path fill="none" stroke="midnightblue" d="M196.51,-277.83C158.18,-267.63 102.35,-252.78 67.52,-243.52"/>
<polygon fill="midnightblue" stroke="midnightblue" points="195.77,-281.26 206.33,-280.44 197.57,-274.49 195.77,-281.26"/>
</g>
<!-- Node4 -->
<g id="node4" class="node">
<title>Node4</title>
<g id="a_node4"><a xlink:href="coin_8c.html" target="_top" xlink:title=" ">
<polygon fill="white" stroke="black" points="61,-56.5 61,-75.5 138,-75.5 138,-56.5 61,-56.5"/>
<text text-anchor="middle" x="99.5" y="-63.5" font-family="Helvetica,sans-Serif" font-size="10.00">src/P2/coin.c</text>
</a>
</g>
</g>
<!-- Node2&#45;&gt;Node4 -->
<g id="edge3" class="edge">
<title>Node2&#45;&gt;Node4</title>
<path fill="none" stroke="midnightblue" d="M222.62,-273C196.89,-246.18 146.19,-189.41 118.5,-132 109.31,-112.94 103.65,-88.55 101.1,-75.74"/>
<polygon fill="midnightblue" stroke="midnightblue" points="220.27,-275.6 229.75,-280.33 225.28,-270.72 220.27,-275.6"/>
</g>
<!-- Node5 -->
<g id="node5" class="node">
<title>Node5</title>
<g id="a_node5"><a xlink:href="chkpnt_8h.html" target="_top" xlink:title="Checkpoint system.">
<polygon fill="white" stroke="black" points="229,-112.5 229,-131.5 326,-131.5 326,-112.5 229,-112.5"/>
<text text-anchor="middle" x="277.5" y="-119.5" font-family="Helvetica,sans-Serif" font-size="10.00">include/chkpnt.h</text>
</a>
</g>
</g>
<!-- Node2&#45;&gt;Node5 -->
<g id="edge4" class="edge">
<title>Node2&#45;&gt;Node5</title>
<path fill="none" stroke="midnightblue" d="M225.99,-272.05C209.7,-247.73 185.45,-202.13 204.5,-168 214.44,-150.19 234.65,-138.56 251.29,-131.59"/>
<polygon fill="midnightblue" stroke="midnightblue" points="223.13,-274.07 231.73,-280.26 228.87,-270.06 223.13,-274.07"/>
</g>
<!-- Node10 -->
<g id="node10" class="node">
<title>Node10</title>
<g id="a_node10"><a xlink:href="xform_8h.html" target="_top" xlink:title="Transform.">
<polygon fill="white" stroke="black" points="310,-224.5 310,-243.5 403,-243.5 403,-224.5 310,-224.5"/>
<text text-anchor="middle" x="356.5" y="-231.5" font-family="Helvetica,sans-Serif" font-size="10.00">include/xform.h</text>
</a>
</g>
</g>
<!-- Node2&#45;&gt;Node10 -->
<g id="edge10" class="edge">
<title>Node2&#45;&gt;Node10</title>
<path fill="none" stroke="midnightblue" d="M266.4,-276.23C288.47,-266.13 318.68,-252.31 337.89,-243.52"/>
<polygon fill="midnightblue" stroke="midnightblue" points="264.83,-273.1 257.2,-280.44 267.75,-279.46 264.83,-273.1"/>
</g>
<!-- Node5&#45;&gt;Node4 -->
<g id="edge6" class="edge">
<title>Node5&#45;&gt;Node4</title>
<path fill="none" stroke="midnightblue" d="M239.38,-109.44C205.82,-99.26 157.73,-84.66 127.57,-75.52"/>
<polygon fill="midnightblue" stroke="midnightblue" points="238.71,-112.89 249.3,-112.44 240.74,-106.19 238.71,-112.89"/>
</g>
<!-- Node6 -->
<g id="node6" class="node">
<title>Node6</title>
<g id="a_node6"><a xlink:href="chkpnt_8c.html" target="_top" xlink:title=" ">
<polygon fill="white" stroke="black" points="156.5,-56.5 156.5,-75.5 246.5,-75.5 246.5,-56.5 156.5,-56.5"/>
<text text-anchor="middle" x="201.5" y="-63.5" font-family="Helvetica,sans-Serif" font-size="10.00">src/P2/chkpnt.c</text>
</a>
</g>
</g>
<!-- Node5&#45;&gt;Node6 -->
<g id="edge5" class="edge">
<title>Node5&#45;&gt;Node6</title>
<path fill="none" stroke="midnightblue" d="M256.92,-106.38C243.19,-96.62 225.57,-84.11 213.93,-75.83"/>
<polygon fill="midnightblue" stroke="midnightblue" points="255.11,-109.38 265.29,-112.32 259.16,-103.68 255.11,-109.38"/>
</g>
<!-- Node7 -->
<g id="node7" class="node">
<title>Node7</title>
<g id="a_node7"><a xlink:href="transition_8c.html" target="_top" xlink:title=" ">
<polygon fill="white" stroke="black" points="264.5,-56.5 264.5,-75.5 368.5,-75.5 368.5,-56.5 264.5,-56.5"/>
<text text-anchor="middle" x="316.5" y="-63.5" font-family="Helvetica,sans-Serif" font-size="10.00">src/P2/transition.c</text>
</a>
</g>
</g>
<!-- Node5&#45;&gt;Node7 -->
<g id="edge7" class="edge">
<title>Node5&#45;&gt;Node7</title>
<path fill="none" stroke="midnightblue" d="M289.88,-103.86C296.64,-94.5 304.71,-83.33 310.18,-75.75"/>
<polygon fill="midnightblue" stroke="midnightblue" points="286.96,-101.93 283.94,-112.08 292.63,-106.03 286.96,-101.93"/>
</g>
<!-- Node8 -->
<g id="node8" class="node">
<title>Node8</title>
<g id="a_node8"><a xlink:href="difficulty_8h.html" target="_top" xlink:title="Dynamic difficulty system.">
<polygon fill="white" stroke="black" points="387,-56.5 387,-75.5 492,-75.5 492,-56.5 387,-56.5"/>
<text text-anchor="middle" x="439.5" y="-63.5" font-family="Helvetica,sans-Serif" font-size="10.00">include/difficulty.h</text>
</a>
</g>
</g>
<!-- Node5&#45;&gt;Node8 -->
<g id="edge8" class="edge">
<title>Node5&#45;&gt;Node8</title>
<path fill="none" stroke="midnightblue" d="M312.98,-109.17C343.49,-99 386.74,-84.59 413.95,-75.52"/>
<polygon fill="midnightblue" stroke="midnightblue" points="311.55,-105.96 303.17,-112.44 313.76,-112.6 311.55,-105.96"/>
</g>
<!-- Node9 -->
<g id="node9" class="node">
<title>Node9</title>
<g id="a_node9"><a xlink:href="difficulty_8c.html" target="_top" xlink:title=" ">
<polygon fill="white" stroke="black" points="390.5,-0.5 390.5,-19.5 488.5,-19.5 488.5,-0.5 390.5,-0.5"/>
<text text-anchor="middle" x="439.5" y="-7.5" font-family="Helvetica,sans-Serif" font-size="10.00">src/P2/difficulty.c</text>
</a>
</g>
</g>
<!-- Node8&#45;&gt;Node9 -->
<g id="edge9" class="edge">
<title>Node8&#45;&gt;Node9</title>
<path fill="none" stroke="midnightblue" d="M439.5,-45.8C439.5,-36.91 439.5,-26.78 439.5,-19.75"/>
<polygon fill="midnightblue" stroke="midnightblue" points="436,-46.08 439.5,-56.08 443,-46.08 436,-46.08"/>
</g>
<!-- Node11 -->
<g id="node11" class="node">
<title>Node11</title>
<g id="a_node11"><a xlink:href="xform1_8c.html" target="_top" xlink:title=" ">
<polygon fill="white" stroke="black" points="310.5,-168.5 310.5,-187.5 402.5,-187.5 402.5,-168.5 310.5,-168.5"/>
<text text-anchor="middle" x="356.5" y="-175.5" font-family="Helvetica,sans-Serif" font-size="10.00">src/P2/xform1.c</text>
</a>
</g>
</g>
<!-- Node10&#45;&gt;Node11 -->
<g id="edge11" class="edge">
<title>Node10&#45;&gt;Node11</title>
<path fill="none" stroke="midnightblue" d="M356.5,-213.8C356.5,-204.91 356.5,-194.78 356.5,-187.75"/>
<polygon fill="midnightblue" stroke="midnightblue" points="353,-214.08 356.5,-224.08 360,-214.08 353,-214.08"/>
</g>
<!-- Node12 -->
<g id="node12" class="node">
<title>Node12</title>
<g id="a_node12"><a xlink:href="xform2_8c.html" target="_top" xlink:title=" ">
<polygon fill="white" stroke="black" points="420.5,-168.5 420.5,-187.5 512.5,-187.5 512.5,-168.5 420.5,-168.5"/>
<text text-anchor="middle" x="466.5" y="-175.5" font-family="Helvetica,sans-Serif" font-size="10.00">src/P2/xform2.c</text>
</a>
</g>
</g>
<!-- Node10&#45;&gt;Node12 -->
<g id="edge12" class="edge">
<title>Node10&#45;&gt;Node12</title>
<path fill="none" stroke="midnightblue" d="M383.26,-219.86C403.66,-209.85 431.17,-196.35 448.87,-187.65"/>
<polygon fill="midnightblue" stroke="midnightblue" points="381.61,-216.78 374.17,-224.32 384.69,-223.06 381.61,-216.78"/>
</g>
<!-- Node13 -->
<g id="node13" class="node">
<title>Node13</title>
<g id="a_node13"><a xlink:href="cm_8h.html" target="_top" xlink:title="Game camera.">
<polygon fill="white" stroke="black" points="531,-168.5 531,-187.5 610,-187.5 610,-168.5 531,-168.5"/>
<text text-anchor="middle" x="570.5" y="-175.5" font-family="Helvetica,sans-Serif" font-size="10.00">include/cm.h</text>
</a>
</g>
</g>
<!-- Node10&#45;&gt;Node13 -->
<g id="edge13" class="edge">
<title>Node10&#45;&gt;Node13</title>
<path fill="none" stroke="midnightblue" d="M400.26,-221.96C440.67,-211.76 499.87,-196.82 536.75,-187.52"/>
<polygon fill="midnightblue" stroke="midnightblue" points="399.25,-218.6 390.41,-224.44 400.96,-225.39 399.25,-218.6"/>
</g>
<!-- Node17 -->
<g id="node17" class="node">
<title>Node17</title>
<g id="a_node17"><a xlink:href="coin_8h.html" target="_top" xlink:title="Coins, keys, and other collectibles.">
<polygon fill="white" stroke="black" points="127.5,-112.5 127.5,-131.5 211.5,-131.5 211.5,-112.5 127.5,-112.5"/>
<text text-anchor="middle" x="169.5" y="-119.5" font-family="Helvetica,sans-Serif" font-size="10.00">include/coin.h</text>
</a>
</g>
</g>
<!-- Node10&#45;&gt;Node17 -->
<g id="edge17" class="edge">
<title>Node10&#45;&gt;Node17</title>
<path fill="none" stroke="midnightblue" d="M299.71,-226.92C268.79,-221.15 231.46,-209.91 204.5,-188 186,-172.97 175.91,-145.47 171.77,-131.55"/>
<polygon fill="midnightblue" stroke="midnightblue" points="299.48,-230.43 309.92,-228.68 300.66,-223.53 299.48,-230.43"/>
</g>
<!-- Node18 -->
<g id="node18" class="node">
<title>Node18</title>
<g id="a_node18"><a xlink:href="vol_8h.html" target="_top" xlink:title="Volume object.">
<polygon fill="white" stroke="black" points="213,-168.5 213,-187.5 292,-187.5 292,-168.5 213,-168.5"/>
<text text-anchor="middle" x="252.5" y="-175.5" font-family="Helvetica,sans-Serif" font-size="10.00">include/vol.h</text>
</a>
</g>
</g>
<!-- Node10&#45;&gt;Node18 -->
<g id="edge19" class="edge">
<title>Node10&#45;&gt;Node18</title>
<path fill="none" stroke="midnightblue" d="M330.67,-219.59C311.44,-209.61 285.76,-196.27 269.17,-187.65"/>
<polygon fill="midnightblue" stroke="midnightblue" points="329.3,-222.82 339.79,-224.32 332.53,-216.61 329.3,-222.82"/>
</g>
<!-- Node14 -->
<g id="node14" class="node">
<title>Node14</title>
<g id="a_node14"><a xlink:href="cm_8c.html" target="_top" xlink:title=" ">
<polygon fill="white" stroke="black" points="607.5,-112.5 607.5,-131.5 679.5,-131.5 679.5,-112.5 607.5,-112.5"/>
<text text-anchor="middle" x="643.5" y="-119.5" font-family="Helvetica,sans-Serif" font-size="10.00">src/P2/cm.c</text>
</a>
</g>
</g>
<!-- Node13&#45;&gt;Node14 -->
<g id="edge14" class="edge">
<title>Node13&#45;&gt;Node14</title>
<path fill="none" stroke="midnightblue" d="M590.64,-162.1C603.78,-152.38 620.48,-140.03 631.56,-131.83"/>
<polygon fill="midnightblue" stroke="midnightblue" points="588.19,-159.56 582.23,-168.32 592.35,-165.19 588.19,-159.56"/>
</g>
<!-- Node15 -->
<g id="node15" class="node">
<title>Node15</title>
<g id="a_node15"><a xlink:href="flash_8h.html" target="_top" xlink:title="Flash (might be flash animation, or literal screen flashes).">
<polygon fill="white" stroke="black" points="502,-112.5 502,-131.5 589,-131.5 589,-112.5 502,-112.5"/>
<text text-anchor="middle" x="545.5" y="-119.5" font-family="Helvetica,sans-Serif" font-size="10.00">include/flash.h</text>
</a>
</g>
</g>
<!-- Node13&#45;&gt;Node15 -->
<g id="edge15" class="edge">
<title>Node13&#45;&gt;Node15</title>
<path fill="none" stroke="midnightblue" d="M562.16,-158.98C557.92,-149.82 552.95,-139.09 549.55,-131.75"/>
<polygon fill="midnightblue" stroke="midnightblue" points="558.99,-160.48 566.37,-168.08 565.35,-157.54 558.99,-160.48"/>
</g>
<!-- Node16 -->
<g id="node16" class="node">
<title>Node16</title>
<g id="a_node16"><a xlink:href="flash_8c.html" target="_top" xlink:title=" ">
<polygon fill="white" stroke="black" points="510.5,-56.5 510.5,-75.5 590.5,-75.5 590.5,-56.5 510.5,-56.5"/>
<text text-anchor="middle" x="550.5" y="-63.5" font-family="Helvetica,sans-Serif" font-size="10.00">src/P2/flash.c</text>
</a>
</g>
</g>
<!-- Node15&#45;&gt;Node16 -->
<g id="edge16" class="edge">
<title>Node15&#45;&gt;Node16</title>
<path fill="none" stroke="midnightblue" d="M547.25,-102.1C548.08,-93.14 549.03,-82.86 549.69,-75.75"/>
<polygon fill="midnightblue" stroke="midnightblue" points="543.76,-101.8 546.33,-112.08 550.73,-102.45 543.76,-101.8"/>
</g>
<!-- Node17&#45;&gt;Node4 -->
<g id="edge18" class="edge">
<title>Node17&#45;&gt;Node4</title>
<path fill="none" stroke="midnightblue" d="M150.19,-106.1C137.59,-96.38 121.57,-84.03 110.95,-75.83"/>
<polygon fill="midnightblue" stroke="midnightblue" points="148.2,-108.99 158.25,-112.32 152.47,-103.44 148.2,-108.99"/>
</g>
<!-- Node18&#45;&gt;Node5 -->
<g id="edge20" class="edge">
<title>Node18&#45;&gt;Node5</title>
<path fill="none" stroke="midnightblue" d="M260.84,-158.98C265.08,-149.82 270.05,-139.09 273.45,-131.75"/>
<polygon fill="midnightblue" stroke="midnightblue" points="257.65,-157.54 256.63,-168.08 264.01,-160.48 257.65,-157.54"/>
</g>
<!-- Node20 -->
<g id="node20" class="node">
<title>Node20</title>
<g id="a_node20"><a xlink:href="dmas_8h.html" target="_top" xlink:title="Direct memory access.">
<polygon fill="white" stroke="black" points="768,-448.5 768,-467.5 859,-467.5 859,-448.5 768,-448.5"/>
<text text-anchor="middle" x="813.5" y="-455.5" font-family="Helvetica,sans-Serif" font-size="10.00">include/dmas.h</text>
</a>
</g>
</g>
<!-- Node19&#45;&gt;Node20 -->
<g id="edge22" class="edge">
<title>Node19&#45;&gt;Node20</title>
<path fill="none" stroke="midnightblue" d="M624.91,-502.15C669.5,-491.95 735.35,-476.88 776.28,-467.52"/>
<polygon fill="midnightblue" stroke="midnightblue" points="623.86,-498.8 614.89,-504.44 625.42,-505.62 623.86,-498.8"/>
</g>
<!-- Node22 -->
<g id="node22" class="node">
<title>Node22</title>
<g id="a_node22"><a xlink:href="screen_8h.html" target="_top" xlink:title="GUI elements.">
<polygon fill="white" stroke="black" points="549.5,-448.5 549.5,-467.5 645.5,-467.5 645.5,-448.5 549.5,-448.5"/>
<text text-anchor="middle" x="597.5" y="-455.5" font-family="Helvetica,sans-Serif" font-size="10.00">include/screen.h</text>
</a>
</g>
</g>
<!-- Node19&#45;&gt;Node22 -->
<g id="edge24" class="edge">
<title>Node19&#45;&gt;Node22</title>
<path fill="none" stroke="midnightblue" d="M584.28,-494.69C587.65,-485.59 591.57,-475.01 594.26,-467.75"/>
<polygon fill="midnightblue" stroke="midnightblue" points="580.99,-493.49 580.8,-504.08 587.56,-495.92 580.99,-493.49"/>
</g>
<!-- Node21 -->
<g id="node21" class="node">
<title>Node21</title>
<g id="a_node21"><a xlink:href="dmas_8c.html" target="_top" xlink:title=" ">
<polygon fill="white" stroke="black" points="876.5,-392.5 876.5,-411.5 960.5,-411.5 960.5,-392.5 876.5,-392.5"/>
<text text-anchor="middle" x="918.5" y="-399.5" font-family="Helvetica,sans-Serif" font-size="10.00">src/P2/dmas.c</text>
</a>
</g>
</g>
<!-- Node20&#45;&gt;Node21 -->
<g id="edge23" class="edge">
<title>Node20&#45;&gt;Node21</title>
<path fill="none" stroke="midnightblue" d="M839.31,-443.73C858.75,-433.73 884.85,-420.31 901.67,-411.65"/>
<polygon fill="midnightblue" stroke="midnightblue" points="837.66,-440.64 830.37,-448.32 840.86,-446.86 837.66,-440.64"/>
</g>
<!-- Node23 -->
<g id="node23" class="node">
<title>Node23</title>
<g id="a_node23"><a xlink:href="screen_8c.html" target="_top" xlink:title=" ">
<polygon fill="white" stroke="black" points="553,-392.5 553,-411.5 642,-411.5 642,-392.5 553,-392.5"/>
<text text-anchor="middle" x="597.5" y="-399.5" font-family="Helvetica,sans-Serif" font-size="10.00">src/P2/screen.c</text>
</a>
</g>
</g>
<!-- Node22&#45;&gt;Node23 -->
<g id="edge25" class="edge">
<title>Node22&#45;&gt;Node23</title>
<path fill="none" stroke="midnightblue" d="M597.5,-437.8C597.5,-428.91 597.5,-418.78 597.5,-411.75"/>
<polygon fill="midnightblue" stroke="midnightblue" points="594,-438.08 597.5,-448.08 601,-438.08 594,-438.08"/>
</g>
<!-- Node24 -->
<g id="node24" class="node">
<title>Node24</title>
<g id="a_node24"><a xlink:href="steppower_8c.html" target="_top" xlink:title=" ">
<polygon fill="white" stroke="black" points="660,-392.5 660,-411.5 767,-411.5 767,-392.5 660,-392.5"/>
<text text-anchor="middle" x="713.5" y="-399.5" font-family="Helvetica,sans-Serif" font-size="10.00">src/P2/steppower.c</text>
</a>
</g>
</g>
<!-- Node22&#45;&gt;Node24 -->
<g id="edge26" class="edge">
<title>Node22&#45;&gt;Node24</title>
<path fill="none" stroke="midnightblue" d="M625.22,-444.1C646.89,-434.01 676.4,-420.27 695.21,-411.52"/>
<polygon fill="midnightblue" stroke="midnightblue" points="623.47,-441.05 615.88,-448.44 626.42,-447.4 623.47,-441.05"/>
</g>
<!-- Node25 -->
<g id="node25" class="node">
<title>Node25</title>
<g id="a_node25"><a xlink:href="binoc_8h.html" target="_top" xlink:title="Binoc&#45;u&#45;com.">
<polygon fill="white" stroke="black" points="444.5,-392.5 444.5,-411.5 534.5,-411.5 534.5,-392.5 444.5,-392.5"/>
<text text-anchor="middle" x="489.5" y="-399.5" font-family="Helvetica,sans-Serif" font-size="10.00">include/binoc.h</text>
</a>
</g>
</g>
<!-- Node22&#45;&gt;Node25 -->
<g id="edge27" class="edge">
<title>Node22&#45;&gt;Node25</title>
<path fill="none" stroke="midnightblue" d="M570.95,-443.73C550.95,-433.73 524.11,-420.31 506.81,-411.65"/>
<polygon fill="midnightblue" stroke="midnightblue" points="569.64,-446.98 580.15,-448.32 572.77,-440.72 569.64,-446.98"/>
</g>
<!-- Node29 -->
<g id="node29" class="node">
<title>Node29</title>
<g id="a_node29"><a xlink:href="ui_8h.html" target="_top" xlink:title="User interface.">
<polygon fill="white" stroke="black" points="785,-392.5 785,-411.5 858,-411.5 858,-392.5 785,-392.5"/>
<text text-anchor="middle" x="821.5" y="-399.5" font-family="Helvetica,sans-Serif" font-size="10.00">include/ui.h</text>
</a>
</g>
</g>
<!-- Node22&#45;&gt;Node29 -->
<g id="edge34" class="edge">
<title>Node22&#45;&gt;Node29</title>
<path fill="none" stroke="midnightblue" d="M642.76,-446.09C685.08,-435.89 747.41,-420.86 786.17,-411.52"/>
<polygon fill="midnightblue" stroke="midnightblue" points="641.89,-442.7 632.99,-448.44 643.54,-449.5 641.89,-442.7"/>
</g>
<!-- Node25&#45;&gt;Node13 -->
<g id="edge30" class="edge">
<title>Node25&#45;&gt;Node13</title>
<path fill="none" stroke="midnightblue" d="M507.33,-385.55C515.54,-377.52 524.72,-367.08 530.5,-356 561.38,-296.78 568.55,-214.26 570.1,-187.64"/>
<polygon fill="midnightblue" stroke="midnightblue" points="504.84,-383.09 499.89,-392.46 509.6,-388.22 504.84,-383.09"/>
</g>
<!-- Node25&#45;&gt;Node14 -->
<g id="edge29" class="edge">
<title>Node25&#45;&gt;Node14</title>
<path fill="none" stroke="midnightblue" d="M532.58,-389.3C576.59,-374.42 638.5,-344.06 638.5,-291 638.5,-291 638.5,-291 638.5,-233 638.5,-195.15 641.49,-150.05 642.85,-131.55"/>
<polygon fill="midnightblue" stroke="midnightblue" points="531.38,-386.01 522.94,-392.41 533.53,-392.67 531.38,-386.01"/>
</g>
<!-- Node26 -->
<g id="node26" class="node">
<title>Node26</title>
<g id="a_node26"><a xlink:href="binoc_8c.html" target="_top" xlink:title=" ">
<polygon fill="white" stroke="black" points="667,-336.5 667,-355.5 750,-355.5 750,-336.5 667,-336.5"/>
<text text-anchor="middle" x="708.5" y="-343.5" font-family="Helvetica,sans-Serif" font-size="10.00">src/P2/binoc.c</text>
</a>
</g>
</g>
<!-- Node25&#45;&gt;Node26 -->
<g id="edge28" class="edge">
<title>Node25&#45;&gt;Node26</title>
<path fill="none" stroke="midnightblue" d="M534.01,-390.02C575.38,-379.82 636.14,-364.84 673.96,-355.52"/>
<polygon fill="midnightblue" stroke="midnightblue" points="533.07,-386.65 524.2,-392.44 534.75,-393.45 533.07,-386.65"/>
</g>
<!-- Node27 -->
<g id="node27" class="node">
<title>Node27</title>
<g id="a_node27"><a xlink:href="prog_8h.html" target="_top" xlink:title=" ">
<polygon fill="white" stroke="black" points="435.5,-336.5 435.5,-355.5 521.5,-355.5 521.5,-336.5 435.5,-336.5"/>
<text text-anchor="middle" x="478.5" y="-343.5" font-family="Helvetica,sans-Serif" font-size="10.00">include/prog.h</text>
</a>
</g>
</g>
<!-- Node25&#45;&gt;Node27 -->
<g id="edge31" class="edge">
<title>Node25&#45;&gt;Node27</title>
<path fill="none" stroke="midnightblue" d="M485.65,-382.1C483.82,-373.14 481.73,-362.86 480.28,-355.75"/>
<polygon fill="midnightblue" stroke="midnightblue" points="482.26,-382.98 487.68,-392.08 489.12,-381.59 482.26,-382.98"/>
</g>
<!-- Node27&#45;&gt;Node2 -->
<g id="edge33" class="edge">
<title>Node27&#45;&gt;Node2</title>
<path fill="none" stroke="midnightblue" d="M430.58,-334.22C385.23,-324.01 318.06,-308.9 276.35,-299.52"/>
<polygon fill="midnightblue" stroke="midnightblue" points="429.95,-337.66 440.47,-336.44 431.48,-330.83 429.95,-337.66"/>
</g>
<!-- Node28 -->
<g id="node28" class="node">
<title>Node28</title>
<g id="a_node28"><a xlink:href="prog_8c.html" target="_top" xlink:title=" ">
<polygon fill="white" stroke="black" points="439,-280.5 439,-299.5 518,-299.5 518,-280.5 439,-280.5"/>
<text text-anchor="middle" x="478.5" y="-287.5" font-family="Helvetica,sans-Serif" font-size="10.00">src/P2/prog.c</text>
</a>
</g>
</g>
<!-- Node27&#45;&gt;Node28 -->
<g id="edge32" class="edge">
<title>Node27&#45;&gt;Node28</title>
<path fill="none" stroke="midnightblue" d="M478.5,-325.8C478.5,-316.91 478.5,-306.78 478.5,-299.75"/>
<polygon fill="midnightblue" stroke="midnightblue" points="475,-326.08 478.5,-336.08 482,-326.08 475,-326.08"/>
</g>
<!-- Node30 -->
<g id="node30" class="node">
<title>Node30</title>
<g id="a_node30"><a xlink:href="ui_8c.html" target="_top" xlink:title=" ">
<polygon fill="white" stroke="black" points="788.5,-336.5 788.5,-355.5 854.5,-355.5 854.5,-336.5 788.5,-336.5"/>
<text text-anchor="middle" x="821.5" y="-343.5" font-family="Helvetica,sans-Serif" font-size="10.00">src/P2/ui.c</text>
</a>
</g>
</g>
<!-- Node29&#45;&gt;Node30 -->
<g id="edge35" class="edge">
<title>Node29&#45;&gt;Node30</title>
<path fill="none" stroke="midnightblue" d="M821.5,-381.8C821.5,-372.91 821.5,-362.78 821.5,-355.75"/>
<polygon fill="midnightblue" stroke="midnightblue" points="818,-382.08 821.5,-392.08 825,-382.08 818,-382.08"/>
</g>
<!-- Node31&#45;&gt;Node10 -->
<g id="edge38" class="edge">
<title>Node31&#45;&gt;Node10</title>
<path fill="none" stroke="midnightblue" d="M429.67,-551.96C416.34,-531.06 396.5,-494.07 396.5,-459 396.5,-459 396.5,-459 396.5,-345 396.5,-305.17 373.05,-261.85 362.06,-243.73"/>
<polygon fill="midnightblue" stroke="midnightblue" points="426.8,-553.97 435.24,-560.37 432.63,-550.1 426.8,-553.97"/>
</g>
<!-- Node31&#45;&gt;Node19 -->
<g id="edge37" class="edge">
<title>Node31&#45;&gt;Node19</title>
<path fill="none" stroke="midnightblue" d="M472.63,-556.64C498.16,-546.5 533.61,-532.43 556.05,-523.52"/>
<polygon fill="midnightblue" stroke="midnightblue" points="471.05,-553.5 463.05,-560.44 473.64,-560.01 471.05,-553.5"/>
</g>
</g>
</svg>
        <g id="navigator" transform="translate(0 0)" fill="#404254">
                <rect fill="#f2f5e9" fill-opacity="0.5" stroke="#606060" stroke-width=".5" x="0" y="0" width="60" height="60"/>
                <use id="zoomplus" xlink:href="#zoomPlus" x="17" y="9" onmousedown="handleZoom(evt,'in')"/>
                <use id="zoomminus" xlink:href="#zoomMin" x="42" y="9" onmousedown="handleZoom(evt,'out')"/>
                <use id="reset" xlink:href="#resetDef" x="30" y="36" onmousedown="handleReset()"/>
                <g id="arrowUp" xlink:href="#dirArrow" transform="translate(30 24)" onmousedown="handlePan(0,-1)">
                  <use xlink:href="#rim" fill="#404040">
                        <set attributeName="fill" to="#808080" begin="arrowUp.mouseover" end="arrowUp.mouseout"/>
                  </use>
                  <path fill="none" stroke="white" stroke-width="1.5" d="M0,-3.0v7 M-2.5,-0.5L0,-3.0L2.5,-0.5"/>
                </g>
                <g id="arrowRight" xlink:href="#dirArrow" transform="rotate(90) translate(36 -43)" onmousedown="handlePan(1,0)">
                  <use xlink:href="#rim" fill="#404040">
                        <set attributeName="fill" to="#808080" begin="arrowRight.mouseover" end="arrowRight.mouseout"/>
                  </use>
                  <path fill="none" stroke="white" stroke-width="1.5" d="M0,-3.0v7 M-2.5,-0.5L0,-3.0L2.5,-0.5"/>
                </g>
                <g id="arrowDown" xlink:href="#dirArrow" transform="rotate(180) translate(-30 -48)" onmousedown="handlePan(0,1)">
                  <use xlink:href="#rim" fill="#404040">
                        <set attributeName="fill" to="#808080" begin="arrowDown.mouseover" end="arrowDown.mouseout"/>
                  </use>
                  <path fill="none" stroke="white" stroke-width="1.5" d="M0,-3.0v7 M-2.5,-0.5L0,-3.0L2.5,-0.5"/>
                </g>
                <g id="arrowLeft" xlink:href="#dirArrow" transform="rotate(270) translate(-36 17)" onmousedown="handlePan(-1,0)">
                  <use xlink:href="#rim" fill="#404040">
                        <set attributeName="fill" to="#808080" begin="arrowLeft.mouseover" end="arrowLeft.mouseout"/>
                  </use>
                  <path fill="none" stroke="white" stroke-width="1.5" d="M0,-3.0v7 M-2.5,-0.5L0,-3.0L2.5,-0.5"/>
                </g>
        </g>
        <svg viewBox="0 0 15 15" width="100%" height="30px" preserveAspectRatio="xMaxYMin meet">
         <g id="arrow_out" transform="scale(0.3 0.3)">
          <a xlink:href="geom_8h__dep__incl_org.svg" target="_base">
           <rect id="button" ry="5" rx="5" y="6" x="6" height="38" width="38"
                fill="#f2f5e9" fill-opacity="0.5" stroke="#606060" stroke-width="1.0"/>
           <path id="arrow"
             d="M 11.500037,31.436501 C 11.940474,20.09759 22.043105,11.32322 32.158766,21.979434 L 37.068811,17.246167 C 37.068811,17.246167 37.088388,32 37.088388,32 L 22.160133,31.978069 C 22.160133,31.978069 26.997745,27.140456 26.997745,27.140456 C 18.528582,18.264221 13.291696,25.230495 11.500037,31.436501 z"
             style="fill:#404040;"/>
          </a>
         </g>
        </svg>
</svg>
