<?xml version="1.0" encoding="UTF-8" standalone="no"?>
<!DOCTYPE svg PUBLIC "-//W3C//DTD SVG 1.1//EN"
 "http://www.w3.org/Graphics/SVG/1.1/DTD/svg11.dtd">
<!-- Generated by graphviz version 2.43.0 (0)
 -->
<!-- Title: include/gs.h Pages: 1 -->
<svg width="671pt" height="82pt"
 viewBox="0.00 0.00 671.00 82.00" xmlns="http://www.w3.org/2000/svg" xmlns:xlink="http://www.w3.org/1999/xlink">
<g id="graph0" class="graph" transform="scale(1 1) rotate(0) translate(4 78)">
<title>include/gs.h</title>
<!-- Node1 -->
<g id="Node000001" class="node">
<title>Node1</title>
<g id="a_Node000001"><a xlink:title="Graphics synthesizer.">
<polygon fill="#999999" stroke="#666666" points="352,-74 277,-74 277,-55 352,-55 352,-74"/>
<text text-anchor="middle" x="314.5" y="-62" font-family="Helvetica,sans-Serif" font-size="10.00">include/gs.h</text>
</a>
</g>
</g>
<!-- Node2 -->
<g id="Node000002" class="node">
<title>Node2</title>
<g id="a_Node000002"><a xlink:href="font_8c.html" target="_top" xlink:title=" ">
<polygon fill="white" stroke="#666666" points="77,-19 0,-19 0,0 77,0 77,-19"/>
<text text-anchor="middle" x="38.5" y="-7" font-family="Helvetica,sans-Serif" font-size="10.00">src/P2/font.c</text>
</a>
</g>
</g>
<!-- Node1&#45;&gt;Node2 -->
<g id="edge1_Node000001_Node000002" class="edge">
<title>Node1&#45;&gt;Node2</title>
<g id="a_edge1_Node000001_Node000002"><a xlink:title=" ">
<path fill="none" stroke="#63b8ff" d="M267.04,-54.39C213.39,-44.08 127.04,-27.5 77.26,-17.94"/>
<polygon fill="#63b8ff" stroke="#63b8ff" points="266.51,-57.85 276.99,-56.3 267.83,-50.97 266.51,-57.85"/>
</a>
</g>
</g>
<!-- Node3 -->
<g id="Node000003" class="node">
<title>Node3</title>
<g id="a_Node000003"><a xlink:href="frm_8c.html" target="_top" xlink:title=" ">
<polygon fill="white" stroke="#666666" points="169.5,-19 95.5,-19 95.5,0 169.5,0 169.5,-19"/>
<text text-anchor="middle" x="132.5" y="-7" font-family="Helvetica,sans-Serif" font-size="10.00">src/P2/frm.c</text>
</a>
</g>
</g>
<!-- Node1&#45;&gt;Node3 -->
<g id="edge2_Node000001_Node000003" class="edge">
<title>Node1&#45;&gt;Node3</title>
<g id="a_edge2_Node000001_Node000003"><a xlink:title=" ">
<path fill="none" stroke="#63b8ff" d="M275.64,-52.18C241.6,-42.27 192.88,-28.08 161.97,-19.08"/>
<polygon fill="#63b8ff" stroke="#63b8ff" points="274.68,-55.55 285.26,-54.98 276.64,-48.83 274.68,-55.55"/>
</a>
</g>
</g>
<!-- Node4 -->
<g id="Node000004" class="node">
<title>Node4</title>
<g id="a_Node000004"><a xlink:href="gs_8c.html" target="_top" xlink:title=" ">
<polygon fill="white" stroke="#666666" points="255.5,-19 187.5,-19 187.5,0 255.5,0 255.5,-19"/>
<text text-anchor="middle" x="221.5" y="-7" font-family="Helvetica,sans-Serif" font-size="10.00">src/P2/gs.c</text>
</a>
</g>
</g>
<!-- Node1&#45;&gt;Node4 -->
<g id="edge3_Node000001_Node000004" class="edge">
<title>Node1&#45;&gt;Node4</title>
<g id="a_edge3_Node000001_Node000004"><a xlink:title=" ">
<path fill="none" stroke="#63b8ff" d="M290.75,-49.97C273.75,-40.28 251.37,-27.52 236.71,-19.17"/>
<polygon fill="#63b8ff" stroke="#63b8ff" points="289.14,-53.07 299.56,-54.98 292.6,-46.99 289.14,-53.07"/>
</a>
</g>
</g>
<!-- Node5 -->
<g id="Node000005" class="node">
<title>Node5</title>
<g id="a_Node000005"><a xlink:href="main_8c.html" target="_top" xlink:title=" ">
<polygon fill="white" stroke="#666666" points="355.5,-19 273.5,-19 273.5,0 355.5,0 355.5,-19"/>
<text text-anchor="middle" x="314.5" y="-7" font-family="Helvetica,sans-Serif" font-size="10.00">src/P2/main.c</text>
</a>
</g>
</g>
<!-- Node1&#45;&gt;Node5 -->
<g id="edge4_Node000001_Node000005" class="edge">
<title>Node1&#45;&gt;Node5</title>
<g id="a_edge4_Node000001_Node000005"><a xlink:title=" ">
<path fill="none" stroke="#63b8ff" d="M314.5,-44.66C314.5,-35.93 314.5,-25.99 314.5,-19.09"/>
<polygon fill="#63b8ff" stroke="#63b8ff" points="311,-44.75 314.5,-54.75 318,-44.75 311,-44.75"/>
</a>
</g>
</g>
<!-- Node6 -->
<g id="Node000006" class="node">
<title>Node6</title>
<g id="a_Node000006"><a xlink:href="prog_8c.html" target="_top" xlink:title=" ">
<polygon fill="white" stroke="#666666" points="453,-19 374,-19 374,0 453,0 453,-19"/>
<text text-anchor="middle" x="413.5" y="-7" font-family="Helvetica,sans-Serif" font-size="10.00">src/P2/prog.c</text>
</a>
</g>
</g>
<!-- Node1&#45;&gt;Node6 -->
<g id="edge5_Node000001_Node000006" class="edge">
<title>Node1&#45;&gt;Node6</title>
<g id="a_edge5_Node000001_Node000006"><a xlink:title=" ">
<path fill="none" stroke="#63b8ff" d="M339.28,-50.23C357.44,-40.51 381.56,-27.6 397.3,-19.17"/>
<polygon fill="#63b8ff" stroke="#63b8ff" points="337.57,-47.18 330.41,-54.98 340.87,-53.35 337.57,-47.18"/>
</a>
</g>
</g>
<!-- Node7 -->
<g id="Node000007" class="node">
<title>Node7</title>
<g id="a_Node000007"><a xlink:href="shd_8c.html" target="_top" xlink:title=" ">
<polygon fill="white" stroke="#666666" points="545.5,-19 471.5,-19 471.5,0 545.5,0 545.5,-19"/>
<text text-anchor="middle" x="508.5" y="-7" font-family="Helvetica,sans-Serif" font-size="10.00">src/P2/shd.c</text>
</a>
</g>
</g>
<!-- Node1&#45;&gt;Node7 -->
<g id="edge6_Node000001_Node000007" class="edge">
<title>Node1&#45;&gt;Node7</title>
<g id="a_edge6_Node000001_Node000007"><a xlink:title=" ">
<path fill="none" stroke="#63b8ff" d="M355.46,-52.31C391.76,-42.39 444,-28.12 477.09,-19.08"/>
<polygon fill="#63b8ff" stroke="#63b8ff" points="354.39,-48.97 345.67,-54.98 356.24,-55.73 354.39,-48.97"/>
</a>
</g>
</g>
<!-- Node8 -->
<g id="Node000008" class="node">
<title>Node8</title>
<g id="a_Node000008"><a xlink:href="shdanim_8c.html" target="_top" xlink:title=" ">
<polygon fill="white" stroke="#666666" points="663,-19 564,-19 564,0 663,0 663,-19"/>
<text text-anchor="middle" x="613.5" y="-7" font-family="Helvetica,sans-Serif" font-size="10.00">src/P2/shdanim.c</text>
</a>
</g>
</g>
<!-- Node1&#45;&gt;Node8 -->
<g id="edge7_Node000001_Node000008" class="edge">
<title>Node1&#45;&gt;Node8</title>
<g id="a_edge7_Node000001_Node000008"><a xlink:title=" ">
<path fill="none" stroke="#63b8ff" d="M362.03,-55.07C417.74,-45.2 509.55,-28.93 565.47,-19.01"/>
<polygon fill="#63b8ff" stroke="#63b8ff" points="361.3,-51.65 352.07,-56.84 362.52,-58.54 361.3,-51.65"/>
</a>
</g>
</g>
</g>
</svg>
