<?xml version="1.0" encoding="UTF-8" standalone="no"?>
<!DOCTYPE svg PUBLIC "-//W3C//DTD SVG 1.1//EN"
 "http://www.w3.org/Graphics/SVG/1.1/DTD/svg11.dtd">
<!-- Generated by graphviz version 2.43.0 (0)
 -->
<!-- Title: src/P2/gs.c Pages: 1 -->
<!--zoomable 577 -->

<svg id="main" version="1.1" xmlns="http://www.w3.org/2000/svg" xmlns:xlink="http://www.w3.org/1999/xlink" xml:space="preserve" onload="init(evt)">
<style type="text/css"><![CDATA[
.node, .edge {opacity: 0.7;}
.node.selected, .edge.selected {opacity: 1;}
.edge:hover path { stroke: red; }
.edge:hover polygon { stroke: red; fill: red; }
]]></style>

<defs>
  <circle id="rim" cx="0" cy="0" r="7"/>
  <circle id="rim2" cx="0" cy="0" r="3.5"/>
  <g id="zoomPlus">
    <use xlink:href="#rim" fill="#404040"><set attributeName="fill" to="#808080" begin="zoomplus.mouseover" end="zoomplus.mouseout"/></use>
    <path d="M-4,0h8M0,-4v8" fill="none" stroke="white" stroke-width="1.5" pointer-events="none"/>
  </g>
  <g id="zoomMin">
    <use xlink:href="#rim" fill="#404040"><set attributeName="fill" to="#808080" begin="zoomminus.mouseover" end="zoomminus.mouseout"/></use>
    <path d="M-4,0h8" fill="none" stroke="white" stroke-width="1.5" pointer-events="none"/>
  </g>
  <g id="arrowUp" transform="translate(30 24)">
    <use xlink:href="#rim"/>
    <path pointer-events="none" fill="none" stroke="white" stroke-width="1.5" d="M0,-3.0v7 M-2.5,-0.5L0,-3.0L2.5,-0.5"/>
  </g>
  <g id="arrowRight" transform="rotate(90) translate(36 -43)">
    <use xlink:href="#rim"/>
    <path pointer-events="none" fill="none" stroke="white" stroke-width="1.5" d="M0,-3.0v7 M-2.5,-0.5L0,-3.0L2.5,-0.5"/>
  </g>
  <g id="arrowDown" transform="rotate(180) translate(-30 -48)">
    <use xlink:href="#rim"/>
    <path pointer-events="none" fill="none" stroke="white" stroke-width="1.5" d="M0,-3.0v7 M-2.5,-0.5L0,-3.0L2.5,-0.5"/>
  </g>
  <g id="arrowLeft" transform="rotate(270) translate(-36 17)">
    <use xlink:href="#rim"/>
    <path pointer-events="none" fill="none" stroke="white" stroke-width="1.5" d="M0,-3.0v7 M-2.5,-0.5L0,-3.0L2.5,-0.5"/>
  </g>
  <g id="resetDef">
    <use xlink:href="#rim2" fill="#404040"><set attributeName="fill" to="#808080" begin="reset.mouseover" end="reset.mouseout"/></use>
  </g>
</defs>
<script type="application/ecmascript">
var viewWidth = 962;
var viewHeight = 577;
var sectionId = 'dynsection-0';
</script>
<script type="application/ecmascript" xlink:href="svg.min.js"/>
<svg id="graph" class="graph">
<g id="viewport">
<title>src/P2/gs.c</title>
<!-- Node1 -->
<g id="Node000001" class="node">
<title>Node1</title>
<g id="a_Node000001"><a xlink:title=" ">
<polygon fill="#999999" stroke="#666666" points="181.5,-569 113.5,-569 113.5,-550 181.5,-550 181.5,-569"/>
<text text-anchor="middle" x="147.5" y="-557" font-family="Helvetica,sans-Serif" font-size="10.00">src/P2/gs.c</text>
</a>
</g>
</g>
<!-- Node2 -->
<g id="Node000002" class="node">
<title>Node2</title>
<g id="a_Node000002"><a xlink:href="gs_8h.html" target="_top" xlink:title="Graphics synthesizer.">
<polygon fill="white" stroke="#666666" points="166,-514 129,-514 129,-495 166,-495 166,-514"/>
<text text-anchor="middle" x="147.5" y="-502" font-family="Helvetica,sans-Serif" font-size="10.00">gs.h</text>
</a>
</g>
</g>
<!-- Node1&#45;&gt;Node2 -->
<g id="edge1_Node000001_Node000002" class="edge">
<title>Node1&#45;&gt;Node2</title>
<g id="a_edge1_Node000001_Node000002"><a xlink:title=" ">
<path fill="none" stroke="#63b8ff" d="M147.5,-549.75C147.5,-542.8 147.5,-532.85 147.5,-524.13"/>
<polygon fill="#63b8ff" stroke="#63b8ff" points="151,-524.09 147.5,-514.09 144,-524.09 151,-524.09"/>
</a>
</g>
</g>
<!-- Node3 -->
<g id="Node000003" class="node">
<title>Node3</title>
<g id="a_Node000003"><a xlink:href="shd_8h.html" target="_top" xlink:title="Shaders.">
<polygon fill="white" stroke="#666666" points="278,-459 235,-459 235,-440 278,-440 278,-459"/>
<text text-anchor="middle" x="256.5" y="-447" font-family="Helvetica,sans-Serif" font-size="10.00">shd.h</text>
</a>
</g>
</g>
<!-- Node2&#45;&gt;Node3 -->
<g id="edge2_Node000002_Node000003" class="edge">
<title>Node2&#45;&gt;Node3</title>
<g id="a_edge2_Node000002_Node000003"><a xlink:title=" ">
<path fill="none" stroke="#63b8ff" d="M165.01,-494.98C182.47,-486.5 209.51,-473.35 229.67,-463.54"/>
<polygon fill="#63b8ff" stroke="#63b8ff" points="231.21,-466.69 238.67,-459.17 228.14,-460.4 231.21,-466.69"/>
</a>
</g>
</g>
<!-- Node14 -->
<g id="Node000014" class="node">
<title>Node14</title>
<g id="a_Node000014"><a xlink:href="libdma_8h.html" target="_top" xlink:title="Direct memory access library.">
<polygon fill="white" stroke="#666666" points="79,-19 0,-19 0,0 79,0 79,-19"/>
<text text-anchor="middle" x="39.5" y="-7" font-family="Helvetica,sans-Serif" font-size="10.00">sce/libdma.h</text>
</a>
</g>
</g>
<!-- Node2&#45;&gt;Node14 -->
<g id="edge50_Node000002_Node000014" class="edge">
<title>Node2&#45;&gt;Node14</title>
<g id="a_edge50_Node000002_Node000014"><a xlink:title=" ">
<path fill="none" stroke="#63b8ff" d="M128.69,-495.24C97.75,-480.23 39.5,-445.35 39.5,-395.5 39.5,-395.5 39.5,-395.5 39.5,-118.5 39.5,-87.19 39.5,-50.77 39.5,-29.23"/>
<polygon fill="#63b8ff" stroke="#63b8ff" points="43,-29.18 39.5,-19.18 36,-29.18 43,-29.18"/>
</a>
</g>
</g>
<!-- Node4 -->
<g id="Node000004" class="node">
<title>Node4</title>
<g id="a_Node000004"><a xlink:href="eestruct_8h.html" target="_top" xlink:title="Graphics synthesizer.">
<polygon fill="white" stroke="#666666" points="307,-129 206,-129 206,-110 307,-110 307,-129"/>
<text text-anchor="middle" x="256.5" y="-117" font-family="Helvetica,sans-Serif" font-size="10.00">sdk/ee/eestruct.h</text>
</a>
</g>
</g>
<!-- Node3&#45;&gt;Node4 -->
<g id="edge3_Node000003_Node000004" class="edge">
<title>Node3&#45;&gt;Node4</title>
<g id="a_edge3_Node000003_Node000004"><a xlink:title=" ">
<path fill="none" stroke="#63b8ff" d="M256.5,-439.82C256.5,-421.48 256.5,-377.44 256.5,-340.5 256.5,-340.5 256.5,-340.5 256.5,-228.5 256.5,-197.19 256.5,-160.77 256.5,-139.23"/>
<polygon fill="#63b8ff" stroke="#63b8ff" points="260,-139.18 256.5,-129.18 253,-139.18 260,-139.18"/>
</a>
</g>
</g>
<!-- Node7 -->
<g id="Node000007" class="node">
<title>Node7</title>
<g id="a_Node000007"><a xlink:href="bis_8h.html" target="_top" xlink:title="Binary Input Stream.">
<polygon fill="white" stroke="#666666" points="762.5,-404 722.5,-404 722.5,-385 762.5,-385 762.5,-404"/>
<text text-anchor="middle" x="742.5" y="-392" font-family="Helvetica,sans-Serif" font-size="10.00">bis.h</text>
</a>
</g>
</g>
<!-- Node3&#45;&gt;Node7 -->
<g id="edge6_Node000003_Node000007" class="edge">
<title>Node3&#45;&gt;Node7</title>
<g id="a_edge6_Node000003_Node000007"><a xlink:title=" ">
<path fill="none" stroke="#63b8ff" d="M278.01,-446.15C355.68,-437.68 621.83,-408.66 712.2,-398.8"/>
<polygon fill="#63b8ff" stroke="#63b8ff" points="712.76,-402.26 722.32,-397.7 712,-395.31 712.76,-402.26"/>
</a>
</g>
</g>
<!-- Node12 -->
<g id="Node000012" class="node">
<title>Node12</title>
<g id="a_Node000012"><a xlink:href="gifs_8h.html" target="_top" xlink:title=" ">
<polygon fill="white" stroke="#666666" points="149.5,-129 105.5,-129 105.5,-110 149.5,-110 149.5,-129"/>
<text text-anchor="middle" x="127.5" y="-117" font-family="Helvetica,sans-Serif" font-size="10.00">gifs.h</text>
</a>
</g>
</g>
<!-- Node3&#45;&gt;Node12 -->
<g id="edge49_Node000003_Node000012" class="edge">
<title>Node3&#45;&gt;Node12</title>
<g id="a_edge49_Node000003_Node000012"><a xlink:title=" ">
<path fill="none" stroke="#63b8ff" d="M234.97,-440.83C199.95,-426.82 134.5,-393.54 134.5,-340.5 134.5,-340.5 134.5,-340.5 134.5,-228.5 134.5,-197.12 131.52,-160.73 129.45,-139.21"/>
<polygon fill="#63b8ff" stroke="#63b8ff" points="132.92,-138.77 128.44,-129.17 125.96,-139.47 132.92,-138.77"/>
</a>
</g>
</g>
<!-- Node13 -->
<g id="Node000013" class="node">
<title>Node13</title>
<g id="a_Node000013"><a xlink:href="dmas_8h.html" target="_top" xlink:title="Direct memory access.">
<polygon fill="white" stroke="#666666" points="165,-74 112,-74 112,-55 165,-55 165,-74"/>
<text text-anchor="middle" x="138.5" y="-62" font-family="Helvetica,sans-Serif" font-size="10.00">dmas.h</text>
</a>
</g>
</g>
<!-- Node3&#45;&gt;Node13 -->
<g id="edge48_Node000003_Node000013" class="edge">
<title>Node3&#45;&gt;Node13</title>
<g id="a_edge48_Node000003_Node000013"><a xlink:title=" ">
<path fill="none" stroke="#63b8ff" d="M234.91,-445.73C187.3,-438.3 77.5,-413.27 77.5,-340.5 77.5,-340.5 77.5,-340.5 77.5,-173.5 77.5,-144.04 81.77,-135.51 96.5,-110 102.7,-99.26 111.97,-89.07 120.23,-81.15"/>
<polygon fill="#63b8ff" stroke="#63b8ff" points="122.69,-83.65 127.71,-74.32 117.97,-78.48 122.69,-83.65"/>
</a>
</g>
</g>
<!-- Node18 -->
<g id="Node000018" class="node">
<title>Node18</title>
<g id="a_Node000018"><a xlink:href="oid_8h.html" target="_top" xlink:title="Object IDs.">
<polygon fill="white" stroke="#666666" points="417,-19 376,-19 376,0 417,0 417,-19"/>
<text text-anchor="middle" x="396.5" y="-7" font-family="Helvetica,sans-Serif" font-size="10.00">oid.h</text>
</a>
</g>
</g>
<!-- Node3&#45;&gt;Node18 -->
<g id="edge46_Node000003_Node000018" class="edge">
<title>Node3&#45;&gt;Node18</title>
<g id="a_edge46_Node000003_Node000018"><a xlink:title=" ">
<path fill="none" stroke="#63b8ff" d="M268.84,-439.99C291.06,-423.55 335.5,-385.1 335.5,-340.5 335.5,-340.5 335.5,-340.5 335.5,-118.5 335.5,-81.95 362.32,-46.38 380.39,-26.57"/>
<polygon fill="#63b8ff" stroke="#63b8ff" points="383.15,-28.75 387.5,-19.08 378.08,-23.93 383.15,-28.75"/>
</a>
</g>
</g>
<!-- Node30 -->
<g id="Node000030" class="node">
<title>Node30</title>
<g id="a_Node000030"><a xlink:href="geom_8h.html" target="_top" xlink:title="Geometry.">
<polygon fill="white" stroke="#666666" points="904,-294 851,-294 851,-275 904,-275 904,-294"/>
<text text-anchor="middle" x="877.5" y="-282" font-family="Helvetica,sans-Serif" font-size="10.00">geom.h</text>
</a>
</g>
</g>
<!-- Node3&#45;&gt;Node30 -->
<g id="edge47_Node000003_Node000030" class="edge">
<title>Node3&#45;&gt;Node30</title>
<g id="a_edge47_Node000003_Node000030"><a xlink:title=" ">
<path fill="none" stroke="#63b8ff" d="M278.14,-448.23C363.84,-446.92 679.23,-439.71 771.5,-404 809.05,-389.47 817.4,-379.67 843.5,-349 855.14,-335.32 864.42,-317.01 870.32,-303.56"/>
<polygon fill="#63b8ff" stroke="#63b8ff" points="873.69,-304.58 874.32,-294.01 867.23,-301.88 873.69,-304.58"/>
</a>
</g>
</g>
<!-- Node5 -->
<g id="Node000005" class="node">
<title>Node5</title>
<g id="a_Node000005"><a xlink:href="types_8h.html" target="_top" xlink:title="Common types used across the codebase.">
<polygon fill="white" stroke="#666666" points="283,-74 230,-74 230,-55 283,-55 283,-74"/>
<text text-anchor="middle" x="256.5" y="-62" font-family="Helvetica,sans-Serif" font-size="10.00">types.h</text>
</a>
</g>
</g>
<!-- Node4&#45;&gt;Node5 -->
<g id="edge4_Node000004_Node000005" class="edge">
<title>Node4&#45;&gt;Node5</title>
<g id="a_edge4_Node000004_Node000005"><a xlink:title=" ">
<path fill="none" stroke="#63b8ff" d="M256.5,-109.75C256.5,-102.8 256.5,-92.85 256.5,-84.13"/>
<polygon fill="#63b8ff" stroke="#63b8ff" points="260,-84.09 256.5,-74.09 253,-84.09 260,-84.09"/>
</a>
</g>
</g>
<!-- Node6 -->
<g id="Node000006" class="node">
<title>Node6</title>
<g id="a_Node000006"><a xlink:title=" ">
<polygon fill="#e0e0e0" stroke="#999999" points="284.5,-19 228.5,-19 228.5,0 284.5,0 284.5,-19"/>
<text text-anchor="middle" x="256.5" y="-7" font-family="Helvetica,sans-Serif" font-size="10.00">stddef.h</text>
</a>
</g>
</g>
<!-- Node5&#45;&gt;Node6 -->
<g id="edge5_Node000005_Node000006" class="edge">
<title>Node5&#45;&gt;Node6</title>
<g id="a_edge5_Node000005_Node000006"><a xlink:title=" ">
<path fill="none" stroke="#63b8ff" d="M256.5,-54.75C256.5,-47.8 256.5,-37.85 256.5,-29.13"/>
<polygon fill="#63b8ff" stroke="#63b8ff" points="260,-29.09 256.5,-19.09 253,-29.09 260,-29.09"/>
</a>
</g>
</g>
<!-- Node8 -->
<g id="Node000008" class="node">
<title>Node8</title>
<g id="a_Node000008"><a xlink:href="prog_8h.html" target="_top" xlink:title="Progress bar.">
<polygon fill="white" stroke="#666666" points="740,-349 693,-349 693,-330 740,-330 740,-349"/>
<text text-anchor="middle" x="716.5" y="-337" font-family="Helvetica,sans-Serif" font-size="10.00">prog.h</text>
</a>
</g>
</g>
<!-- Node7&#45;&gt;Node8 -->
<g id="edge7_Node000007_Node000008" class="edge">
<title>Node7&#45;&gt;Node8</title>
<g id="a_edge7_Node000007_Node000008"><a xlink:title=" ">
<path fill="none" stroke="#63b8ff" d="M738.21,-384.75C734.69,-377.57 729.59,-367.18 725.22,-358.27"/>
<polygon fill="#63b8ff" stroke="#63b8ff" points="728.26,-356.53 720.71,-349.09 721.98,-359.61 728.26,-356.53"/>
</a>
</g>
</g>
<!-- Node16 -->
<g id="Node000016" class="node">
<title>Node16</title>
<g id="a_Node000016"><a xlink:href="vec_8h.html" target="_top" xlink:title="Vector math.">
<polygon fill="white" stroke="#666666" points="818,-19 775,-19 775,0 818,0 818,-19"/>
<text text-anchor="middle" x="796.5" y="-7" font-family="Helvetica,sans-Serif" font-size="10.00">vec.h</text>
</a>
</g>
</g>
<!-- Node7&#45;&gt;Node16 -->
<g id="edge37_Node000007_Node000016" class="edge">
<title>Node7&#45;&gt;Node16</title>
<g id="a_edge37_Node000007_Node000016"><a xlink:title=" ">
<path fill="none" stroke="#63b8ff" d="M743.89,-384.98C745.33,-376.02 747.64,-361.53 749.5,-349 767.52,-227.3 787.18,-80.68 794.01,-29.34"/>
<polygon fill="#63b8ff" stroke="#63b8ff" points="797.51,-29.51 795.36,-19.14 790.57,-28.59 797.51,-29.51"/>
</a>
</g>
</g>
<!-- Node21 -->
<g id="Node000021" class="node">
<title>Node21</title>
<g id="a_Node000021"><a xlink:href="mat_8h.html" target="_top" xlink:title="3x3 and 4x4 matrix types.">
<polygon fill="white" stroke="#666666" points="848,-184 803,-184 803,-165 848,-165 848,-184"/>
<text text-anchor="middle" x="825.5" y="-172" font-family="Helvetica,sans-Serif" font-size="10.00">mat.h</text>
</a>
</g>
</g>
<!-- Node7&#45;&gt;Node21 -->
<g id="edge38_Node000007_Node000021" class="edge">
<title>Node7&#45;&gt;Node21</title>
<g id="a_edge38_Node000007_Node000021"><a xlink:title=" ">
<path fill="none" stroke="#63b8ff" d="M752.57,-384.99C761.72,-376.71 774.91,-363.32 782.5,-349 809.94,-297.25 820.29,-227.5 823.84,-194.42"/>
<polygon fill="#63b8ff" stroke="#63b8ff" points="827.33,-194.63 824.82,-184.34 820.37,-193.95 827.33,-194.63"/>
</a>
</g>
</g>
<!-- Node29 -->
<g id="Node000029" class="node">
<title>Node29</title>
<g id="a_Node000029"><a xlink:href="clock_8h.html" target="_top" xlink:title="Engine clock.">
<polygon fill="white" stroke="#666666" points="616,-349 565,-349 565,-330 616,-330 616,-349"/>
<text text-anchor="middle" x="590.5" y="-337" font-family="Helvetica,sans-Serif" font-size="10.00">clock.h</text>
</a>
</g>
</g>
<!-- Node7&#45;&gt;Node29 -->
<g id="edge36_Node000007_Node000029" class="edge">
<title>Node7&#45;&gt;Node29</title>
<g id="a_edge36_Node000007_Node000029"><a xlink:title=" ">
<path fill="none" stroke="#63b8ff" d="M722.32,-386.46C697.43,-377.78 654.75,-362.9 624.71,-352.43"/>
<polygon fill="#63b8ff" stroke="#63b8ff" points="625.64,-349.05 615.05,-349.06 623.34,-355.66 625.64,-349.05"/>
</a>
</g>
</g>
<!-- Node7&#45;&gt;Node30 -->
<g id="edge39_Node000007_Node000030" class="edge">
<title>Node7&#45;&gt;Node30</title>
<g id="a_edge39_Node000007_Node000030"><a xlink:title=" ">
<path fill="none" stroke="#63b8ff" d="M761.2,-384.96C777.7,-376.95 801.94,-363.98 820.5,-349 837.71,-335.11 854.24,-315.83 865.02,-302.16"/>
<polygon fill="#63b8ff" stroke="#63b8ff" points="867.89,-304.16 871.23,-294.11 862.35,-299.89 867.89,-304.16"/>
</a>
</g>
</g>
<!-- Node31 -->
<g id="Node000031" class="node">
<title>Node31</title>
<g id="a_Node000031"><a xlink:href="cat_8h.html" target="_top" xlink:title="WAL catalog.">
<polygon fill="white" stroke="#666666" points="675,-349 634,-349 634,-330 675,-330 675,-349"/>
<text text-anchor="middle" x="654.5" y="-337" font-family="Helvetica,sans-Serif" font-size="10.00">cat.h</text>
</a>
</g>
</g>
<!-- Node7&#45;&gt;Node31 -->
<g id="edge42_Node000007_Node000031" class="edge">
<title>Node7&#45;&gt;Node31</title>
<g id="a_edge42_Node000007_Node000031"><a xlink:title=" ">
<path fill="none" stroke="#63b8ff" d="M728.36,-384.98C714.71,-376.77 693.81,-364.18 677.72,-354.49"/>
<polygon fill="#63b8ff" stroke="#63b8ff" points="679.27,-351.33 668.9,-349.17 675.66,-357.33 679.27,-351.33"/>
</a>
</g>
</g>
<!-- Node32 -->
<g id="Node000032" class="node">
<title>Node32</title>
<g id="a_Node000032"><a xlink:href="bsp_8h.html" target="_top" xlink:title="Binary Space Partitioning.">
<polygon fill="white" stroke="#666666" points="954,-349 911,-349 911,-330 954,-330 954,-349"/>
<text text-anchor="middle" x="932.5" y="-337" font-family="Helvetica,sans-Serif" font-size="10.00">bsp.h</text>
</a>
</g>
</g>
<!-- Node7&#45;&gt;Node32 -->
<g id="edge43_Node000007_Node000032" class="edge">
<title>Node7&#45;&gt;Node32</title>
<g id="a_edge43_Node000007_Node000032"><a xlink:title=" ">
<path fill="none" stroke="#63b8ff" d="M762.83,-387.83C795.96,-378.59 861.82,-360.22 901.03,-349.28"/>
<polygon fill="#63b8ff" stroke="#63b8ff" points="902.17,-352.59 910.86,-346.54 900.29,-345.85 902.17,-352.59"/>
</a>
</g>
</g>
<!-- Node9 -->
<g id="Node000009" class="node">
<title>Node9</title>
<g id="a_Node000009"><a xlink:href="binoc_8h.html" target="_top" xlink:title="Binoc&#45;u&#45;com.">
<polygon fill="white" stroke="#666666" points="740.5,-294 688.5,-294 688.5,-275 740.5,-275 740.5,-294"/>
<text text-anchor="middle" x="714.5" y="-282" font-family="Helvetica,sans-Serif" font-size="10.00">binoc.h</text>
</a>
</g>
</g>
<!-- Node8&#45;&gt;Node9 -->
<g id="edge8_Node000008_Node000009" class="edge">
<title>Node8&#45;&gt;Node9</title>
<g id="a_edge8_Node000008_Node000009"><a xlink:title=" ">
<path fill="none" stroke="#63b8ff" d="M716.17,-329.75C715.91,-322.8 715.53,-312.85 715.2,-304.13"/>
<polygon fill="#63b8ff" stroke="#63b8ff" points="718.7,-303.95 714.82,-294.09 711.7,-304.21 718.7,-303.95"/>
</a>
</g>
</g>
<!-- Node10 -->
<g id="Node000010" class="node">
<title>Node10</title>
<g id="a_Node000010"><a xlink:href="screen_8h.html" target="_top" xlink:title="GUI elements.">
<polygon fill="white" stroke="#666666" points="441.5,-239 383.5,-239 383.5,-220 441.5,-220 441.5,-239"/>
<text text-anchor="middle" x="412.5" y="-227" font-family="Helvetica,sans-Serif" font-size="10.00">screen.h</text>
</a>
</g>
</g>
<!-- Node9&#45;&gt;Node10 -->
<g id="edge9_Node000009_Node000010" class="edge">
<title>Node9&#45;&gt;Node10</title>
<g id="a_edge9_Node000009_Node000010"><a xlink:title=" ">
<path fill="none" stroke="#63b8ff" d="M688.49,-278.94C635.36,-269.61 514.13,-248.34 451.52,-237.35"/>
<polygon fill="#63b8ff" stroke="#63b8ff" points="452.09,-233.89 441.63,-235.61 450.88,-240.79 452.09,-233.89"/>
</a>
</g>
</g>
<!-- Node20 -->
<g id="Node000020" class="node">
<title>Node20</title>
<g id="a_Node000020"><a xlink:href="util_8h.html" target="_top" xlink:title="Utility functions.">
<polygon fill="white" stroke="#666666" points="737,-239 696,-239 696,-220 737,-220 737,-239"/>
<text text-anchor="middle" x="716.5" y="-227" font-family="Helvetica,sans-Serif" font-size="10.00">util.h</text>
</a>
</g>
</g>
<!-- Node9&#45;&gt;Node20 -->
<g id="edge21_Node000009_Node000020" class="edge">
<title>Node9&#45;&gt;Node20</title>
<g id="a_edge21_Node000009_Node000020"><a xlink:title=" ">
<path fill="none" stroke="#63b8ff" d="M714.83,-274.75C715.09,-267.8 715.47,-257.85 715.8,-249.13"/>
<polygon fill="#63b8ff" stroke="#63b8ff" points="719.3,-249.21 716.18,-239.09 712.3,-248.95 719.3,-249.21"/>
</a>
</g>
</g>
<!-- Node11 -->
<g id="Node000011" class="node">
<title>Node11</title>
<g id="a_Node000011"><a xlink:href="font_8h.html" target="_top" xlink:title="Font system.">
<polygon fill="white" stroke="#666666" points="215,-184 170,-184 170,-165 215,-165 215,-184"/>
<text text-anchor="middle" x="192.5" y="-172" font-family="Helvetica,sans-Serif" font-size="10.00">font.h</text>
</a>
</g>
</g>
<!-- Node10&#45;&gt;Node11 -->
<g id="edge10_Node000010_Node000011" class="edge">
<title>Node10&#45;&gt;Node11</title>
<g id="a_edge10_Node000010_Node000011"><a xlink:title=" ">
<path fill="none" stroke="#63b8ff" d="M383.29,-221.46C342.25,-211.58 267.8,-193.64 225.04,-183.34"/>
<polygon fill="#63b8ff" stroke="#63b8ff" points="225.69,-179.9 215.15,-180.96 224.05,-186.7 225.69,-179.9"/>
</a>
</g>
</g>
<!-- Node17 -->
<g id="Node000017" class="node">
<title>Node17</title>
<g id="a_Node000017"><a xlink:href="game_8h.html" target="_top" xlink:title="Game state and level management.">
<polygon fill="white" stroke="#666666" points="439,-184 386,-184 386,-165 439,-165 439,-184"/>
<text text-anchor="middle" x="412.5" y="-172" font-family="Helvetica,sans-Serif" font-size="10.00">game.h</text>
</a>
</g>
</g>
<!-- Node10&#45;&gt;Node17 -->
<g id="edge18_Node000010_Node000017" class="edge">
<title>Node10&#45;&gt;Node17</title>
<g id="a_edge18_Node000010_Node000017"><a xlink:title=" ">
<path fill="none" stroke="#63b8ff" d="M412.5,-219.75C412.5,-212.8 412.5,-202.85 412.5,-194.13"/>
<polygon fill="#63b8ff" stroke="#63b8ff" points="416,-194.09 412.5,-184.09 409,-194.09 416,-194.09"/>
</a>
</g>
</g>
<!-- Node11&#45;&gt;Node4 -->
<g id="edge17_Node000011_Node000004" class="edge">
<title>Node11&#45;&gt;Node4</title>
<g id="a_edge17_Node000011_Node000004"><a xlink:title=" ">
<path fill="none" stroke="#63b8ff" d="M202.78,-164.98C212.34,-157.07 226.78,-145.11 238.28,-135.58"/>
<polygon fill="#63b8ff" stroke="#63b8ff" points="240.56,-138.24 246.03,-129.17 236.1,-132.85 240.56,-138.24"/>
</a>
</g>
</g>
<!-- Node11&#45;&gt;Node12 -->
<g id="edge11_Node000011_Node000012" class="edge">
<title>Node11&#45;&gt;Node12</title>
<g id="a_edge11_Node000011_Node000012"><a xlink:title=" ">
<path fill="none" stroke="#63b8ff" d="M182.06,-164.98C172.35,-157.07 157.68,-145.11 146,-135.58"/>
<polygon fill="#63b8ff" stroke="#63b8ff" points="148.1,-132.78 138.13,-129.17 143.67,-138.2 148.1,-132.78"/>
</a>
</g>
</g>
<!-- Node11&#45;&gt;Node13 -->
<g id="edge16_Node000011_Node000013" class="edge">
<title>Node11&#45;&gt;Node13</title>
<g id="a_edge16_Node000011_Node000013"><a xlink:title=" ">
<path fill="none" stroke="#63b8ff" d="M188.08,-164.66C179.22,-146.93 159.11,-106.73 147.41,-83.32"/>
<polygon fill="#63b8ff" stroke="#63b8ff" points="150.43,-81.54 142.83,-74.16 144.17,-84.67 150.43,-81.54"/>
</a>
</g>
</g>
<!-- Node12&#45;&gt;Node13 -->
<g id="edge12_Node000012_Node000013" class="edge">
<title>Node12&#45;&gt;Node13</title>
<g id="a_edge12_Node000012_Node000013"><a xlink:title=" ">
<path fill="none" stroke="#63b8ff" d="M129.32,-109.75C130.76,-102.8 132.82,-92.85 134.63,-84.13"/>
<polygon fill="#63b8ff" stroke="#63b8ff" points="138.11,-84.59 136.72,-74.09 131.26,-83.17 138.11,-84.59"/>
</a>
</g>
</g>
<!-- Node13&#45;&gt;Node14 -->
<g id="edge13_Node000013_Node000014" class="edge">
<title>Node13&#45;&gt;Node14</title>
<g id="a_edge13_Node000013_Node000014"><a xlink:title=" ">
<path fill="none" stroke="#63b8ff" d="M122.59,-54.98C106.95,-46.61 82.84,-33.7 64.62,-23.95"/>
<polygon fill="#63b8ff" stroke="#63b8ff" points="66.16,-20.8 55.7,-19.17 62.86,-26.98 66.16,-20.8"/>
</a>
</g>
</g>
<!-- Node15 -->
<g id="Node000015" class="node">
<title>Node15</title>
<g id="a_Node000015"><a xlink:href="eekernel_8h.html" target="_top" xlink:title=" ">
<polygon fill="white" stroke="#666666" points="200,-19 97,-19 97,0 200,0 200,-19"/>
<text text-anchor="middle" x="148.5" y="-7" font-family="Helvetica,sans-Serif" font-size="10.00">sdk/ee/eekernel.h</text>
</a>
</g>
</g>
<!-- Node13&#45;&gt;Node15 -->
<g id="edge14_Node000013_Node000015" class="edge">
<title>Node13&#45;&gt;Node15</title>
<g id="a_edge14_Node000013_Node000015"><a xlink:title=" ">
<path fill="none" stroke="#63b8ff" d="M140.15,-54.75C141.46,-47.8 143.34,-37.85 144.98,-29.13"/>
<polygon fill="#63b8ff" stroke="#63b8ff" points="148.46,-29.56 146.88,-19.09 141.59,-28.27 148.46,-29.56"/>
</a>
</g>
</g>
<!-- Node13&#45;&gt;Node16 -->
<g id="edge15_Node000013_Node000016" class="edge">
<title>Node13&#45;&gt;Node16</title>
<g id="a_edge15_Node000013_Node000016"><a xlink:title=" ">
<path fill="none" stroke="#63b8ff" d="M165.02,-60.61C181.31,-58.88 202.6,-56.7 221.5,-55 328.53,-45.38 660.34,-20.61 764.72,-12.85"/>
<polygon fill="#63b8ff" stroke="#63b8ff" points="765.22,-16.33 774.93,-12.1 764.7,-9.35 765.22,-16.33"/>
</a>
</g>
</g>
<!-- Node17&#45;&gt;Node18 -->
<g id="edge19_Node000017_Node000018" class="edge">
<title>Node17&#45;&gt;Node18</title>
<g id="a_edge19_Node000017_Node000018"><a xlink:title=" ">
<path fill="none" stroke="#63b8ff" d="M413.81,-164.71C415.38,-152.31 417.22,-129.05 412.5,-110 408.15,-92.44 397.85,-91.56 393.5,-74 391.47,-65.8 393.22,-63.44 393.5,-55 393.79,-46.48 394.38,-37.06 394.97,-29.08"/>
<polygon fill="#63b8ff" stroke="#63b8ff" points="398.46,-29.26 395.75,-19.02 391.48,-28.72 398.46,-29.26"/>
</a>
</g>
</g>
<!-- Node19 -->
<g id="Node000019" class="node">
<title>Node19</title>
<g id="a_Node000019"><a xlink:href="cid_8h.html" target="_top" xlink:title="Class IDs.">
<polygon fill="white" stroke="#666666" points="403.5,-129 363.5,-129 363.5,-110 403.5,-110 403.5,-129"/>
<text text-anchor="middle" x="383.5" y="-117" font-family="Helvetica,sans-Serif" font-size="10.00">cid.h</text>
</a>
</g>
</g>
<!-- Node17&#45;&gt;Node19 -->
<g id="edge20_Node000017_Node000019" class="edge">
<title>Node17&#45;&gt;Node19</title>
<g id="a_edge20_Node000017_Node000019"><a xlink:title=" ">
<path fill="none" stroke="#63b8ff" d="M407.71,-164.75C403.74,-157.49 397.97,-146.95 393.07,-137.98"/>
<polygon fill="#63b8ff" stroke="#63b8ff" points="396.07,-136.18 388.2,-129.09 389.93,-139.54 396.07,-136.18"/>
</a>
</g>
</g>
<!-- Node20&#45;&gt;Node16 -->
<g id="edge22_Node000020_Node000016" class="edge">
<title>Node20&#45;&gt;Node16</title>
<g id="a_edge22_Node000020_Node000016"><a xlink:title=" ">
<path fill="none" stroke="#63b8ff" d="M717.38,-219.74C720.29,-193.48 731.14,-113.63 760.5,-55 765.65,-44.71 773.51,-34.63 780.57,-26.67"/>
<polygon fill="#63b8ff" stroke="#63b8ff" points="783.24,-28.93 787.49,-19.22 778.12,-24.16 783.24,-28.93"/>
</a>
</g>
</g>
<!-- Node20&#45;&gt;Node21 -->
<g id="edge23_Node000020_Node000021" class="edge">
<title>Node20&#45;&gt;Node21</title>
<g id="a_edge23_Node000020_Node000021"><a xlink:title=" ">
<path fill="none" stroke="#63b8ff" d="M734.01,-219.98C751.47,-211.5 778.51,-198.35 798.67,-188.54"/>
<polygon fill="#63b8ff" stroke="#63b8ff" points="800.21,-191.69 807.67,-184.17 797.14,-185.4 800.21,-191.69"/>
</a>
</g>
</g>
<!-- Node22 -->
<g id="Node000022" class="node">
<title>Node22</title>
<g id="a_Node000022"><a xlink:href="sm_8h.html" target="_top" xlink:title="Probabilistic finite state machines.">
<polygon fill="white" stroke="#666666" points="654,-184 613,-184 613,-165 654,-165 654,-184"/>
<text text-anchor="middle" x="633.5" y="-172" font-family="Helvetica,sans-Serif" font-size="10.00">sm.h</text>
</a>
</g>
</g>
<!-- Node20&#45;&gt;Node22 -->
<g id="edge25_Node000020_Node000022" class="edge">
<title>Node20&#45;&gt;Node22</title>
<g id="a_edge25_Node000020_Node000022"><a xlink:title=" ">
<path fill="none" stroke="#63b8ff" d="M703.16,-219.98C690.41,-211.84 670.95,-199.41 655.83,-189.76"/>
<polygon fill="#63b8ff" stroke="#63b8ff" points="657.39,-186.6 647.08,-184.17 653.62,-192.5 657.39,-186.6"/>
</a>
</g>
</g>
<!-- Node21&#45;&gt;Node16 -->
<g id="edge24_Node000021_Node000016" class="edge">
<title>Node21&#45;&gt;Node16</title>
<g id="a_edge24_Node000021_Node000016"><a xlink:title=" ">
<path fill="none" stroke="#63b8ff" d="M823.94,-164.74C819.4,-139.2 806.1,-64.43 799.83,-29.23"/>
<polygon fill="#63b8ff" stroke="#63b8ff" points="803.26,-28.54 798.07,-19.31 796.37,-29.77 803.26,-28.54"/>
</a>
</g>
</g>
<!-- Node23 -->
<g id="Node000023" class="node">
<title>Node23</title>
<g id="a_Node000023"><a xlink:href="dl_8h.html" target="_top" xlink:title="Doubly&#45;linked list.">
<polygon fill="white" stroke="#666666" points="437,-74 402,-74 402,-55 437,-55 437,-74"/>
<text text-anchor="middle" x="419.5" y="-62" font-family="Helvetica,sans-Serif" font-size="10.00">dl.h</text>
</a>
</g>
</g>
<!-- Node22&#45;&gt;Node23 -->
<g id="edge26_Node000022_Node000023" class="edge">
<title>Node22&#45;&gt;Node23</title>
<g id="a_edge26_Node000022_Node000023"><a xlink:title=" ">
<path fill="none" stroke="#63b8ff" d="M616.35,-164.84C578.93,-145.96 489.75,-100.96 445.43,-78.59"/>
<polygon fill="#63b8ff" stroke="#63b8ff" points="446.94,-75.43 436.44,-74.05 443.79,-81.68 446.94,-75.43"/>
</a>
</g>
</g>
<!-- Node24 -->
<g id="Node000024" class="node">
<title>Node24</title>
<g id="a_Node000024"><a xlink:href="mq_8h.html" target="_top" xlink:title="Message queue.">
<polygon fill="white" stroke="#666666" points="708,-74 667,-74 667,-55 708,-55 708,-74"/>
<text text-anchor="middle" x="687.5" y="-62" font-family="Helvetica,sans-Serif" font-size="10.00">mq.h</text>
</a>
</g>
</g>
<!-- Node22&#45;&gt;Node24 -->
<g id="edge28_Node000022_Node000024" class="edge">
<title>Node22&#45;&gt;Node24</title>
<g id="a_edge28_Node000022_Node000024"><a xlink:title=" ">
<path fill="none" stroke="#63b8ff" d="M637.92,-164.66C646.78,-146.93 666.89,-106.73 678.59,-83.32"/>
<polygon fill="#63b8ff" stroke="#63b8ff" points="681.83,-84.67 683.17,-74.16 675.57,-81.54 681.83,-84.67"/>
</a>
</g>
</g>
<!-- Node25 -->
<g id="Node000025" class="node">
<title>Node25</title>
<g id="a_Node000025"><a xlink:href="lo_8h.html" target="_top" xlink:title="Level objects.">
<polygon fill="white" stroke="#666666" points="614,-129 579,-129 579,-110 614,-110 614,-129"/>
<text text-anchor="middle" x="596.5" y="-117" font-family="Helvetica,sans-Serif" font-size="10.00">lo.h</text>
</a>
</g>
</g>
<!-- Node22&#45;&gt;Node25 -->
<g id="edge29_Node000022_Node000025" class="edge">
<title>Node22&#45;&gt;Node25</title>
<g id="a_edge29_Node000022_Node000025"><a xlink:title=" ">
<path fill="none" stroke="#63b8ff" d="M627.39,-164.75C622.22,-157.34 614.65,-146.5 608.31,-137.41"/>
<polygon fill="#63b8ff" stroke="#63b8ff" points="611.09,-135.29 602.5,-129.09 605.35,-139.29 611.09,-135.29"/>
</a>
</g>
</g>
<!-- Node23&#45;&gt;Node18 -->
<g id="edge27_Node000023_Node000018" class="edge">
<title>Node23&#45;&gt;Node18</title>
<g id="a_edge27_Node000023_Node000018"><a xlink:title=" ">
<path fill="none" stroke="#63b8ff" d="M415.7,-54.75C412.59,-47.57 408.08,-37.18 404.21,-28.27"/>
<polygon fill="#63b8ff" stroke="#63b8ff" points="407.42,-26.87 400.23,-19.09 401,-29.66 407.42,-26.87"/>
</a>
</g>
</g>
<!-- Node25&#45;&gt;Node18 -->
<g id="edge32_Node000025_Node000018" class="edge">
<title>Node25&#45;&gt;Node18</title>
<g id="a_edge32_Node000025_Node000018"><a xlink:title=" ">
<path fill="none" stroke="#63b8ff" d="M578.82,-112.99C556.23,-105.61 516.24,-91.41 484.5,-74 458.76,-59.88 431.75,-39.42 414.55,-25.57"/>
<polygon fill="#63b8ff" stroke="#63b8ff" points="416.47,-22.62 406.51,-19 412.04,-28.04 416.47,-22.62"/>
</a>
</g>
</g>
<!-- Node25&#45;&gt;Node23 -->
<g id="edge30_Node000025_Node000023" class="edge">
<title>Node25&#45;&gt;Node23</title>
<g id="a_edge30_Node000025_Node000023"><a xlink:title=" ">
<path fill="none" stroke="#63b8ff" d="M578.88,-113.22C548,-103.98 483.9,-84.78 447.09,-73.76"/>
<polygon fill="#63b8ff" stroke="#63b8ff" points="447.63,-70.27 437.05,-70.75 445.62,-76.98 447.63,-70.27"/>
</a>
</g>
</g>
<!-- Node25&#45;&gt;Node24 -->
<g id="edge31_Node000025_Node000024" class="edge">
<title>Node25&#45;&gt;Node24</title>
<g id="a_edge31_Node000025_Node000024"><a xlink:title=" ">
<path fill="none" stroke="#63b8ff" d="M611.12,-109.98C625.36,-101.69 647.25,-88.94 663.95,-79.22"/>
<polygon fill="#63b8ff" stroke="#63b8ff" points="665.73,-82.23 672.61,-74.17 662.21,-76.18 665.73,-82.23"/>
</a>
</g>
</g>
<!-- Node26 -->
<g id="Node000026" class="node">
<title>Node26</title>
<g id="a_Node000026"><a xlink:href="basic_8h.html" target="_top" xlink:title="Basic object.">
<polygon fill="white" stroke="#666666" points="649,-74 598,-74 598,-55 649,-55 649,-74"/>
<text text-anchor="middle" x="623.5" y="-62" font-family="Helvetica,sans-Serif" font-size="10.00">basic.h</text>
</a>
</g>
</g>
<!-- Node25&#45;&gt;Node26 -->
<g id="edge33_Node000025_Node000026" class="edge">
<title>Node25&#45;&gt;Node26</title>
<g id="a_edge33_Node000025_Node000026"><a xlink:title=" ">
<path fill="none" stroke="#63b8ff" d="M600.96,-109.75C604.62,-102.57 609.91,-92.18 614.45,-83.27"/>
<polygon fill="#63b8ff" stroke="#63b8ff" points="617.7,-84.59 619.12,-74.09 611.47,-81.41 617.7,-84.59"/>
</a>
</g>
</g>
<!-- Node28 -->
<g id="Node000028" class="node">
<title>Node28</title>
<g id="a_Node000028"><a xlink:href="frame_8h.html" target="_top" xlink:title=" ">
<polygon fill="white" stroke="#666666" points="579.5,-74 493.5,-74 493.5,-55 579.5,-55 579.5,-74"/>
<text text-anchor="middle" x="536.5" y="-62" font-family="Helvetica,sans-Serif" font-size="10.00">splice/frame.h</text>
</a>
</g>
</g>
<!-- Node25&#45;&gt;Node28 -->
<g id="edge35_Node000025_Node000028" class="edge">
<title>Node25&#45;&gt;Node28</title>
<g id="a_edge35_Node000025_Node000028"><a xlink:title=" ">
<path fill="none" stroke="#63b8ff" d="M586.86,-109.98C577.99,-102.15 564.63,-90.34 553.89,-80.86"/>
<polygon fill="#63b8ff" stroke="#63b8ff" points="556.13,-78.17 546.32,-74.17 551.49,-83.41 556.13,-78.17"/>
</a>
</g>
</g>
<!-- Node27 -->
<g id="Node000027" class="node">
<title>Node27</title>
<g id="a_Node000027"><a xlink:href="sidebag_8h.html" target="_top" xlink:title="Sidebag for splice.">
<polygon fill="white" stroke="#666666" points="671,-19 576,-19 576,0 671,0 671,-19"/>
<text text-anchor="middle" x="623.5" y="-7" font-family="Helvetica,sans-Serif" font-size="10.00">splice/sidebag.h</text>
</a>
</g>
</g>
<!-- Node26&#45;&gt;Node27 -->
<g id="edge34_Node000026_Node000027" class="edge">
<title>Node26&#45;&gt;Node27</title>
<g id="a_edge34_Node000026_Node000027"><a xlink:title=" ">
<path fill="none" stroke="#63b8ff" d="M623.5,-54.75C623.5,-47.8 623.5,-37.85 623.5,-29.13"/>
<polygon fill="#63b8ff" stroke="#63b8ff" points="627,-29.09 623.5,-19.09 620,-29.09 627,-29.09"/>
</a>
</g>
</g>
<!-- Node30&#45;&gt;Node16 -->
<g id="edge40_Node000030_Node000016" class="edge">
<title>Node30&#45;&gt;Node16</title>
<g id="a_edge40_Node000030_Node000016"><a xlink:title=" ">
<path fill="none" stroke="#63b8ff" d="M878.17,-274.83C879.54,-256.5 882.5,-212.48 882.5,-175.5 882.5,-175.5 882.5,-175.5 882.5,-118.5 882.5,-77.76 844.59,-43.51 819.11,-25.09"/>
<polygon fill="#63b8ff" stroke="#63b8ff" points="820.91,-22.08 810.7,-19.25 816.92,-27.83 820.91,-22.08"/>
</a>
</g>
</g>
<!-- Node30&#45;&gt;Node21 -->
<g id="edge41_Node000030_Node000021" class="edge">
<title>Node30&#45;&gt;Node21</title>
<g id="a_edge41_Node000030_Node000021"><a xlink:title=" ">
<path fill="none" stroke="#63b8ff" d="M873.24,-274.66C864.71,-256.93 845.35,-216.73 834.08,-193.32"/>
<polygon fill="#63b8ff" stroke="#63b8ff" points="837.16,-191.65 829.67,-184.16 830.85,-194.69 837.16,-191.65"/>
</a>
</g>
</g>
<!-- Node32&#45;&gt;Node16 -->
<g id="edge45_Node000032_Node000016" class="edge">
<title>Node32&#45;&gt;Node16</title>
<g id="a_edge45_Node000032_Node000016"><a xlink:title=" ">
<path fill="none" stroke="#63b8ff" d="M932.5,-329.82C932.5,-311.48 932.5,-267.44 932.5,-230.5 932.5,-230.5 932.5,-230.5 932.5,-118.5 932.5,-65.27 867.82,-34.1 827.67,-19.87"/>
<polygon fill="#63b8ff" stroke="#63b8ff" points="828.64,-16.5 818.05,-16.62 826.4,-23.14 828.64,-16.5"/>
</a>
</g>
</g>
<!-- Node32&#45;&gt;Node30 -->
<g id="edge44_Node000032_Node000030" class="edge">
<title>Node32&#45;&gt;Node30</title>
<g id="a_edge44_Node000032_Node000030"><a xlink:title=" ">
<path fill="none" stroke="#63b8ff" d="M923.42,-329.75C915.41,-322.03 903.54,-310.6 893.88,-301.28"/>
<polygon fill="#63b8ff" stroke="#63b8ff" points="896.04,-298.51 886.41,-294.09 891.19,-303.55 896.04,-298.51"/>
</a>
</g>
</g>
</g>
</svg>

<g id="navigator" transform="translate(0 0)" fill="#404254">
  <rect fill="#f2f5e9" fill-opacity="0.5" stroke="#606060" stroke-width=".5" x="0" y="0" width="60" height="60"/>
  <use id="zoomplus" xlink:href="#zoomPlus" x="17" y="9" onmousedown="handleZoom(evt,'in')"/>
  <use id="zoomminus" xlink:href="#zoomMin" x="42" y="9" onmousedown="handleZoom(evt,'out')"/>
  <use id="reset" xlink:href="#resetDef" x="30" y="36" onmousedown="handleReset()"/>
   <use id="arrowup" xlink:href="#arrowUp" x="0" y="0" onmousedown="handlePan(0,-1)"/>
  <use id="arrowright" xlink:href="#arrowRight" x="0" y="0" onmousedown="handlePan(1,0)"/>
  <use id="arrowdown" xlink:href="#arrowDown" x="0" y="0" onmousedown="handlePan(0,1)"/>
  <use id="arrowleft" xlink:href="#arrowLeft" x="0" y="0" onmousedown="handlePan(-1,0)"/>
</g>
<svg viewBox="0 0 15 15" width="100%" height="30px" preserveAspectRatio="xMaxYMin meet">
 <g id="arrow_out" transform="scale(0.3 0.3)">
  <a xlink:href="gs_8c__incl_org.svg" target="_base">
   <rect id="button" ry="5" rx="5" y="6" x="6" height="38" width="38"
        fill="#f2f5e9" fill-opacity="0.5" stroke="#606060" stroke-width="1.0"/>
   <path id="arrow"
     d="M 11.500037,31.436501 C 11.940474,20.09759 22.043105,11.32322 32.158766,21.979434 L 37.068811,17.246167 C 37.068811,17.246167 37.088388,32 37.088388,32 L 22.160133,31.978069 C 22.160133,31.978069 26.997745,27.140456 26.997745,27.140456 C 18.528582,18.264221 13.291696,25.230495 11.500037,31.436501 z"
     style="fill:#404040;"/>
  </a>
 </g>
</svg>

<style type='text/css'>
<![CDATA[
[data-mouse-over-selected='false'] { opacity: 0.7; }
[data-mouse-over-selected='true']  { opacity: 1.0; }
]]>
</style>
<script type="application/ecmascript"><![CDATA[
document.addEventListener('DOMContentLoaded', (event) => {
  highlightEdges();
  highlightAdjacentNodes();
});
]]></script>
</svg>
