<?xml version="1.0" encoding="UTF-8" standalone="no"?>
<!DOCTYPE svg PUBLIC "-//W3C//DTD SVG 1.1//EN"
 "http://www.w3.org/Graphics/SVG/1.1/DTD/svg11.dtd">
<!-- Generated by graphviz version 2.43.0 (0)
 -->
<!-- Title: include/include_asm.h Pages: 1 -->
<svg width="4918pt" height="308pt"
 viewBox="0.00 0.00 4917.68 308.00" xmlns="http://www.w3.org/2000/svg" xmlns:xlink="http://www.w3.org/1999/xlink">
<g id="graph0" class="graph" transform="scale(1 1) rotate(0) translate(4 304)">
<title>include/include_asm.h</title>
<polygon fill="white" stroke="transparent" points="-4,4 -4,-304 4913.68,-304 4913.68,4 -4,4"/>
<!-- Node1 -->
<g id="node1" class="node">
<title>Node1</title>
<g id="a_node1"><a xlink:title=" ">
<polygon fill="#bfbfbf" stroke="black" points="2432.68,-280.5 2432.68,-299.5 2557.68,-299.5 2557.68,-280.5 2432.68,-280.5"/>
<text text-anchor="middle" x="2495.18" y="-287.5" font-family="Helvetica,sans-Serif" font-size="10.00">include/include_asm.h</text>
</a>
</g>
</g>
<!-- Node2 -->
<g id="node2" class="node">
<title>Node2</title>
<g id="a_node2"><a xlink:href="common_8h.html" target="_top" xlink:title="Common header file.">
<polygon fill="white" stroke="red" points="2441.68,-224.5 2441.68,-243.5 2548.68,-243.5 2548.68,-224.5 2441.68,-224.5"/>
<text text-anchor="middle" x="2495.18" y="-231.5" font-family="Helvetica,sans-Serif" font-size="10.00">include/common.h</text>
</a>
</g>
</g>
<!-- Node1&#45;&gt;Node2 -->
<g id="edge1" class="edge">
<title>Node1&#45;&gt;Node2</title>
<path fill="none" stroke="midnightblue" d="M2495.18,-269.8C2495.18,-260.91 2495.18,-250.78 2495.18,-243.75"/>
<polygon fill="midnightblue" stroke="midnightblue" points="2491.68,-270.08 2495.18,-280.08 2498.68,-270.08 2491.68,-270.08"/>
</g>
<!-- Node3 -->
<g id="node3" class="node">
<title>Node3</title>
<g id="a_node3"><a xlink:href="dl_8c.html" target="_top" xlink:title=" ">
<polygon fill="white" stroke="black" points="16.18,-112.5 16.18,-131.5 82.18,-131.5 82.18,-112.5 16.18,-112.5"/>
<text text-anchor="middle" x="49.18" y="-119.5" font-family="Helvetica,sans-Serif" font-size="10.00">src/P2/dl.c</text>
</a>
</g>
</g>
<!-- Node2&#45;&gt;Node3 -->
<g id="edge2" class="edge">
<title>Node2&#45;&gt;Node3</title>
<path fill="none" stroke="midnightblue" d="M2431.59,-233.05C2050.86,-233.2 88.24,-231.85 45.18,-188 30.45,-172.99 39.23,-145.48 45.14,-131.56"/>
<polygon fill="midnightblue" stroke="midnightblue" points="2431.6,-236.55 2441.6,-233.05 2431.6,-229.55 2431.6,-236.55"/>
</g>
<!-- Node4 -->
<g id="node4" class="node">
<title>Node4</title>
<g id="a_node4"><a xlink:href="frm_8c.html" target="_top" xlink:title=" ">
<polygon fill="white" stroke="black" points="184.18,-168.5 184.18,-187.5 258.18,-187.5 258.18,-168.5 184.18,-168.5"/>
<text text-anchor="middle" x="221.18" y="-175.5" font-family="Helvetica,sans-Serif" font-size="10.00">src/P2/frm.c</text>
</a>
</g>
</g>
<!-- Node2&#45;&gt;Node4 -->
<g id="edge3" class="edge">
<title>Node2&#45;&gt;Node4</title>
<path fill="none" stroke="midnightblue" d="M2430.82,-233.2C2112.33,-233.98 702.93,-234.67 267.18,-188 264.27,-187.69 261.26,-187.29 258.25,-186.82"/>
<polygon fill="midnightblue" stroke="midnightblue" points="2431.25,-236.7 2441.24,-233.18 2431.23,-229.7 2431.25,-236.7"/>
</g>
<!-- Node5 -->
<g id="node5" class="node">
<title>Node5</title>
<g id="a_node5"><a xlink:href="main_8c.html" target="_top" xlink:title=" ">
<polygon fill="white" stroke="black" points="276.18,-168.5 276.18,-187.5 358.18,-187.5 358.18,-168.5 276.18,-168.5"/>
<text text-anchor="middle" x="317.18" y="-175.5" font-family="Helvetica,sans-Serif" font-size="10.00">src/P2/main.c</text>
</a>
</g>
</g>
<!-- Node2&#45;&gt;Node5 -->
<g id="edge4" class="edge">
<title>Node2&#45;&gt;Node5</title>
<path fill="none" stroke="midnightblue" d="M2431.2,-233C2122.25,-232.8 782.55,-229.52 367.18,-188 364.28,-187.71 361.3,-187.35 358.31,-186.93"/>
<polygon fill="midnightblue" stroke="midnightblue" points="2431.33,-236.5 2441.33,-233.01 2431.33,-229.5 2431.33,-236.5"/>
</g>
<!-- Node6 -->
<g id="node6" class="node">
<title>Node6</title>
<g id="a_node6"><a xlink:href="bif_8cpp.html" target="_top" xlink:title=" ">
<polygon fill="white" stroke="black" points="376.68,-168.5 376.68,-187.5 489.68,-187.5 489.68,-168.5 376.68,-168.5"/>
<text text-anchor="middle" x="433.18" y="-175.5" font-family="Helvetica,sans-Serif" font-size="10.00">src/P2/splice/bif.cpp</text>
</a>
</g>
</g>
<!-- Node2&#45;&gt;Node6 -->
<g id="edge5" class="edge">
<title>Node2&#45;&gt;Node6</title>
<path fill="none" stroke="midnightblue" d="M2431.39,-232.53C2134.72,-230.21 887.83,-218.78 499.18,-188 496.18,-187.76 493.11,-187.48 490.02,-187.17"/>
<polygon fill="midnightblue" stroke="midnightblue" points="2431.52,-236.03 2441.54,-232.61 2431.57,-229.03 2431.52,-236.03"/>
</g>
<!-- Node7 -->
<g id="node7" class="node">
<title>Node7</title>
<g id="a_node7"><a xlink:href="eval_8cpp.html" target="_top" xlink:title=" ">
<polygon fill="white" stroke="black" points="508.18,-168.5 508.18,-187.5 630.18,-187.5 630.18,-168.5 508.18,-168.5"/>
<text text-anchor="middle" x="569.18" y="-175.5" font-family="Helvetica,sans-Serif" font-size="10.00">src/P2/splice/eval.cpp</text>
</a>
</g>
</g>
<!-- Node2&#45;&gt;Node7 -->
<g id="edge6" class="edge">
<title>Node2&#45;&gt;Node7</title>
<path fill="none" stroke="midnightblue" d="M2431.3,-232.34C2147.45,-229.28 998.71,-215.4 639.18,-188 636.25,-187.78 633.25,-187.52 630.22,-187.23"/>
<polygon fill="midnightblue" stroke="midnightblue" points="2431.38,-235.84 2441.42,-232.45 2431.46,-228.84 2431.38,-235.84"/>
</g>
<!-- Node8 -->
<g id="node8" class="node">
<title>Node8</title>
<g id="a_node8"><a xlink:href="gc_8cpp.html" target="_top" xlink:title=" ">
<polygon fill="white" stroke="black" points="648.18,-168.5 648.18,-187.5 760.18,-187.5 760.18,-168.5 648.18,-168.5"/>
<text text-anchor="middle" x="704.18" y="-175.5" font-family="Helvetica,sans-Serif" font-size="10.00">src/P2/splice/gc.cpp</text>
</a>
</g>
</g>
<!-- Node2&#45;&gt;Node8 -->
<g id="edge7" class="edge">
<title>Node2&#45;&gt;Node8</title>
<path fill="none" stroke="midnightblue" d="M2431.37,-232.29C2160.13,-229.13 1101.56,-215.26 769.18,-188 766.34,-187.77 763.44,-187.49 760.51,-187.19"/>
<polygon fill="midnightblue" stroke="midnightblue" points="2431.4,-235.79 2441.44,-232.41 2431.48,-228.79 2431.4,-235.79"/>
</g>
<!-- Node9 -->
<g id="node9" class="node">
<title>Node9</title>
<g id="a_node9"><a xlink:href="method_8cpp.html" target="_top" xlink:title=" ">
<polygon fill="white" stroke="black" points="778.18,-168.5 778.18,-187.5 916.18,-187.5 916.18,-168.5 778.18,-168.5"/>
<text text-anchor="middle" x="847.18" y="-175.5" font-family="Helvetica,sans-Serif" font-size="10.00">src/P2/splice/method.cpp</text>
</a>
</g>
</g>
<!-- Node2&#45;&gt;Node9 -->
<g id="edge8" class="edge">
<title>Node2&#45;&gt;Node9</title>
<path fill="none" stroke="midnightblue" d="M2431.47,-233.14C2218.1,-233.2 1509.21,-229.99 925.18,-188 922.32,-187.79 919.41,-187.56 916.47,-187.31"/>
<polygon fill="midnightblue" stroke="midnightblue" points="2431.55,-236.64 2441.55,-233.14 2431.55,-229.64 2431.55,-236.64"/>
</g>
<!-- Node10 -->
<g id="node10" class="node">
<title>Node10</title>
<g id="a_node10"><a xlink:href="pair_8cpp.html" target="_top" xlink:title=" ">
<polygon fill="white" stroke="black" points="934.68,-168.5 934.68,-187.5 1053.68,-187.5 1053.68,-168.5 934.68,-168.5"/>
<text text-anchor="middle" x="994.18" y="-175.5" font-family="Helvetica,sans-Serif" font-size="10.00">src/P2/splice/pair.cpp</text>
</a>
</g>
</g>
<!-- Node2&#45;&gt;Node10 -->
<g id="edge9" class="edge">
<title>Node2&#45;&gt;Node10</title>
<path fill="none" stroke="midnightblue" d="M2431.33,-233.23C2229.98,-233.47 1590.46,-230.57 1063.18,-188 1060.17,-187.76 1057.09,-187.48 1053.98,-187.17"/>
<polygon fill="midnightblue" stroke="midnightblue" points="2431.44,-236.73 2441.43,-233.21 2431.43,-229.73 2431.44,-236.73"/>
</g>
<!-- Node11 -->
<g id="node11" class="node">
<title>Node11</title>
<g id="a_node11"><a xlink:href="proc_8cpp.html" target="_top" xlink:title=" ">
<polygon fill="white" stroke="black" points="1072.18,-168.5 1072.18,-187.5 1194.18,-187.5 1194.18,-168.5 1072.18,-168.5"/>
<text text-anchor="middle" x="1133.18" y="-175.5" font-family="Helvetica,sans-Serif" font-size="10.00">src/P2/splice/proc.cpp</text>
</a>
</g>
</g>
<!-- Node2&#45;&gt;Node11 -->
<g id="edge10" class="edge">
<title>Node2&#45;&gt;Node11</title>
<path fill="none" stroke="midnightblue" d="M2431.27,-232.88C2242.89,-232.06 1673.56,-226.35 1203.18,-188 1200.25,-187.76 1197.25,-187.49 1194.23,-187.19"/>
<polygon fill="midnightblue" stroke="midnightblue" points="2431.53,-236.38 2441.54,-232.92 2431.55,-229.38 2431.53,-236.38"/>
</g>
<!-- Node12 -->
<g id="node12" class="node">
<title>Node12</title>
<g id="a_node12"><a xlink:href="serialize_8cpp.html" target="_top" xlink:title=" ">
<polygon fill="white" stroke="black" points="1212.18,-168.5 1212.18,-187.5 1354.18,-187.5 1354.18,-168.5 1212.18,-168.5"/>
<text text-anchor="middle" x="1283.18" y="-175.5" font-family="Helvetica,sans-Serif" font-size="10.00">src/P2/splice/serialize.cpp</text>
</a>
</g>
</g>
<!-- Node2&#45;&gt;Node12 -->
<g id="edge11" class="edge">
<title>Node2&#45;&gt;Node12</title>
<path fill="none" stroke="midnightblue" d="M2431.31,-232.08C2258.81,-229.24 1769.18,-218.87 1363.18,-188 1360.25,-187.78 1357.27,-187.53 1354.25,-187.27"/>
<polygon fill="midnightblue" stroke="midnightblue" points="2431.43,-235.58 2441.48,-232.24 2431.54,-228.58 2431.43,-235.58"/>
</g>
<!-- Node13 -->
<g id="node13" class="node">
<title>Node13</title>
<g id="a_node13"><a xlink:href="sidebag_8cpp.html" target="_top" xlink:title=" ">
<polygon fill="white" stroke="black" points="1372.68,-168.5 1372.68,-187.5 1511.68,-187.5 1511.68,-168.5 1372.68,-168.5"/>
<text text-anchor="middle" x="1442.18" y="-175.5" font-family="Helvetica,sans-Serif" font-size="10.00">src/P2/splice/sidebag.cpp</text>
</a>
</g>
</g>
<!-- Node2&#45;&gt;Node13 -->
<g id="edge12" class="edge">
<title>Node2&#45;&gt;Node13</title>
<path fill="none" stroke="midnightblue" d="M2431.18,-231.53C2275.31,-227.63 1863.65,-215.39 1521.18,-188 1518.15,-187.76 1515.06,-187.49 1511.94,-187.21"/>
<polygon fill="midnightblue" stroke="midnightblue" points="2431.43,-235.04 2441.52,-231.79 2431.61,-228.04 2431.43,-235.04"/>
</g>
<!-- Node14 -->
<g id="node14" class="node">
<title>Node14</title>
<g id="a_node14"><a xlink:href="spliceutils_8cpp.html" target="_top" xlink:title=" ">
<polygon fill="white" stroke="black" points="1530.18,-168.5 1530.18,-187.5 1680.18,-187.5 1680.18,-168.5 1530.18,-168.5"/>
<text text-anchor="middle" x="1605.18" y="-175.5" font-family="Helvetica,sans-Serif" font-size="10.00">src/P2/splice/spliceutils.cpp</text>
</a>
</g>
</g>
<!-- Node2&#45;&gt;Node14 -->
<g id="edge13" class="edge">
<title>Node2&#45;&gt;Node14</title>
<path fill="none" stroke="midnightblue" d="M2430.99,-230.56C2294.26,-225.12 1964.19,-210.64 1688.18,-188 1685.58,-187.79 1682.93,-187.56 1680.26,-187.32"/>
<polygon fill="midnightblue" stroke="midnightblue" points="2431.15,-234.07 2441.28,-230.97 2431.43,-227.08 2431.15,-234.07"/>
</g>
<!-- Node15 -->
<g id="node15" class="node">
<title>Node15</title>
<g id="a_node15"><a xlink:href="splotheap_8cpp.html" target="_top" xlink:title=" ">
<polygon fill="white" stroke="black" points="1697.68,-168.5 1697.68,-187.5 1846.68,-187.5 1846.68,-168.5 1697.68,-168.5"/>
<text text-anchor="middle" x="1772.18" y="-175.5" font-family="Helvetica,sans-Serif" font-size="10.00">src/P2/splice/splotheap.cpp</text>
</a>
</g>
</g>
<!-- Node2&#45;&gt;Node15 -->
<g id="edge14" class="edge">
<title>Node2&#45;&gt;Node15</title>
<path fill="none" stroke="midnightblue" d="M2431.56,-229.33C2316.45,-222.5 2065.99,-206.83 1855.18,-188 1852.44,-187.75 1849.64,-187.5 1846.82,-187.23"/>
<polygon fill="midnightblue" stroke="midnightblue" points="2431.42,-232.82 2441.6,-229.92 2431.83,-225.84 2431.42,-232.82"/>
</g>
<!-- Node16 -->
<g id="node16" class="node">
<title>Node16</title>
<g id="a_node16"><a xlink:href="vecmat_8cpp.html" target="_top" xlink:title=" ">
<polygon fill="white" stroke="black" points="1864.68,-168.5 1864.68,-187.5 2001.68,-187.5 2001.68,-168.5 1864.68,-168.5"/>
<text text-anchor="middle" x="1933.18" y="-175.5" font-family="Helvetica,sans-Serif" font-size="10.00">src/P2/splice/vecmat.cpp</text>
</a>
</g>
</g>
<!-- Node2&#45;&gt;Node16 -->
<g id="edge15" class="edge">
<title>Node2&#45;&gt;Node16</title>
<path fill="none" stroke="midnightblue" d="M2431.61,-227.59C2338.89,-219.58 2161.16,-203.83 2010.18,-188 2007.5,-187.72 2004.77,-187.43 2002.02,-187.13"/>
<polygon fill="midnightblue" stroke="midnightblue" points="2431.41,-231.08 2441.67,-228.46 2432.01,-224.11 2431.41,-231.08"/>
</g>
<!-- Node17 -->
<g id="node17" class="node">
<title>Node17</title>
<g id="a_node17"><a xlink:href="thread_8c.html" target="_top" xlink:title=" ">
<polygon fill="white" stroke="black" points="2019.68,-168.5 2019.68,-187.5 2108.68,-187.5 2108.68,-168.5 2019.68,-168.5"/>
<text text-anchor="middle" x="2064.18" y="-175.5" font-family="Helvetica,sans-Serif" font-size="10.00">src/P2/thread.c</text>
</a>
</g>
</g>
<!-- Node2&#45;&gt;Node17 -->
<g id="edge16" class="edge">
<title>Node2&#45;&gt;Node17</title>
<path fill="none" stroke="midnightblue" d="M2431.41,-225.89C2357.25,-217.49 2231.22,-202.77 2123.18,-188 2118.56,-187.37 2113.74,-186.68 2108.94,-185.98"/>
<polygon fill="midnightblue" stroke="midnightblue" points="2431.19,-229.39 2441.52,-227.04 2431.97,-222.44 2431.19,-229.39"/>
</g>
<!-- Node18 -->
<g id="node18" class="node">
<title>Node18</title>
<g id="a_node18"><a xlink:href="transition_8c.html" target="_top" xlink:title=" ">
<polygon fill="white" stroke="black" points="2127.18,-0.5 2127.18,-19.5 2231.18,-19.5 2231.18,-0.5 2127.18,-0.5"/>
<text text-anchor="middle" x="2179.18" y="-7.5" font-family="Helvetica,sans-Serif" font-size="10.00">src/P2/transition.c</text>
</a>
</g>
</g>
<!-- Node2&#45;&gt;Node18 -->
<g id="edge17" class="edge">
<title>Node2&#45;&gt;Node18</title>
<path fill="none" stroke="midnightblue" d="M2431.44,-231.07C2357.37,-227.48 2241.31,-217.23 2210.18,-188 2161.28,-142.09 2172.65,-48.45 2177.55,-19.63"/>
<polygon fill="midnightblue" stroke="midnightblue" points="2431.45,-234.58 2441.6,-231.54 2431.77,-227.59 2431.45,-234.58"/>
</g>
<!-- Node19 -->
<g id="node19" class="node">
<title>Node19</title>
<g id="a_node19"><a xlink:href="989snd_8h.html" target="_top" xlink:title="989snd sound driver.">
<polygon fill="white" stroke="red" points="2484.68,-168.5 2484.68,-187.5 2583.68,-187.5 2583.68,-168.5 2484.68,-168.5"/>
<text text-anchor="middle" x="2534.18" y="-175.5" font-family="Helvetica,sans-Serif" font-size="10.00">include/989snd.h</text>
</a>
</g>
</g>
<!-- Node2&#45;&gt;Node19 -->
<g id="edge18" class="edge">
<title>Node2&#45;&gt;Node19</title>
<path fill="none" stroke="midnightblue" d="M2507.56,-215.86C2514.31,-206.5 2522.39,-195.33 2527.86,-187.75"/>
<polygon fill="midnightblue" stroke="midnightblue" points="2504.64,-213.93 2501.62,-224.08 2510.31,-218.03 2504.64,-213.93"/>
</g>
<!-- Node21 -->
<g id="node20" class="node">
<title>Node21</title>
<g id="a_node20"><a xlink:href="ac_8h.html" target="_top" xlink:title=" ">
<polygon fill="white" stroke="black" points="2601.68,-168.5 2601.68,-187.5 2676.68,-187.5 2676.68,-168.5 2601.68,-168.5"/>
<text text-anchor="middle" x="2639.18" y="-175.5" font-family="Helvetica,sans-Serif" font-size="10.00">include/ac.h</text>
</a>
</g>
</g>
<!-- Node2&#45;&gt;Node21 -->
<g id="edge19" class="edge">
<title>Node2&#45;&gt;Node21</title>
<path fill="none" stroke="midnightblue" d="M2527.43,-220.91C2554.5,-210.75 2592.5,-196.51 2616.47,-187.52"/>
<polygon fill="midnightblue" stroke="midnightblue" points="2526.13,-217.66 2518,-224.44 2528.59,-224.21 2526.13,-217.66"/>
</g>
<!-- Node22 -->
<g id="node21" class="node">
<title>Node22</title>
<g id="a_node21"><a xlink:href="alarm_8h.html" target="_top" xlink:title="Alarm system.">
<polygon fill="white" stroke="black" points="2695.18,-168.5 2695.18,-187.5 2787.18,-187.5 2787.18,-168.5 2695.18,-168.5"/>
<text text-anchor="middle" x="2741.18" y="-175.5" font-family="Helvetica,sans-Serif" font-size="10.00">include/alarm.h</text>
</a>
</g>
</g>
<!-- Node2&#45;&gt;Node22 -->
<g id="edge20" class="edge">
<title>Node2&#45;&gt;Node22</title>
<path fill="none" stroke="midnightblue" d="M2544.01,-222.28C2590.5,-212.08 2659.54,-196.92 2702.38,-187.52"/>
<polygon fill="midnightblue" stroke="midnightblue" points="2543.18,-218.88 2534.16,-224.44 2544.68,-225.72 2543.18,-218.88"/>
</g>
<!-- Node23 -->
<g id="node22" class="node">
<title>Node23</title>
<g id="a_node22"><a xlink:href="alo_8h.html" target="_top" xlink:title=" ">
<polygon fill="white" stroke="red" points="100.68,-112.5 100.68,-131.5 179.68,-131.5 179.68,-112.5 100.68,-112.5"/>
<text text-anchor="middle" x="140.18" y="-119.5" font-family="Helvetica,sans-Serif" font-size="10.00">include/alo.h</text>
</a>
</g>
</g>
<!-- Node2&#45;&gt;Node23 -->
<g id="edge21" class="edge">
<title>Node2&#45;&gt;Node23</title>
<path fill="none" stroke="midnightblue" d="M2431.46,-232.65C2063.45,-230.49 224.68,-218.22 175.18,-188 154.61,-175.44 145.38,-146.27 141.92,-131.66"/>
<polygon fill="midnightblue" stroke="midnightblue" points="2431.64,-236.15 2441.66,-232.7 2431.68,-229.15 2431.64,-236.15"/>
</g>
<!-- Node24 -->
<g id="node23" class="node">
<title>Node24</title>
<g id="a_node23"><a xlink:href="coin_8h.html" target="_top" xlink:title="Coins, keys, and other collectibles.">
<polygon fill="white" stroke="red" points="22.18,-56.5 22.18,-75.5 106.18,-75.5 106.18,-56.5 22.18,-56.5"/>
<text text-anchor="middle" x="64.18" y="-63.5" font-family="Helvetica,sans-Serif" font-size="10.00">include/coin.h</text>
</a>
</g>
</g>
<!-- Node2&#45;&gt;Node24 -->
<g id="edge49" class="edge">
<title>Node2&#45;&gt;Node24</title>
<path fill="none" stroke="midnightblue" d="M2431.55,-232.75C2050.56,-231.15 86.16,-221.31 34.18,-188 4,-168.66 -8.45,-144.26 7.18,-112 15.21,-95.43 32.62,-83.13 46.1,-75.61"/>
<polygon fill="midnightblue" stroke="midnightblue" points="2431.56,-236.25 2441.57,-232.79 2431.58,-229.25 2431.56,-236.25"/>
</g>
<!-- Node73 -->
<g id="node24" class="node">
<title>Node73</title>
<g id="a_node24"><a xlink:href="anim_8h.html" target="_top" xlink:title="Animation.">
<polygon fill="white" stroke="red" points="2805.68,-168.5 2805.68,-187.5 2894.68,-187.5 2894.68,-168.5 2805.68,-168.5"/>
<text text-anchor="middle" x="2850.18" y="-175.5" font-family="Helvetica,sans-Serif" font-size="10.00">include/anim.h</text>
</a>
</g>
</g>
<!-- Node2&#45;&gt;Node73 -->
<g id="edge23" class="edge">
<title>Node2&#45;&gt;Node73</title>
<path fill="none" stroke="midnightblue" d="M2559.01,-223.77C2619.97,-214.89 2714.41,-200.93 2796.18,-188 2799.18,-187.53 2802.28,-187.03 2805.4,-186.52"/>
<polygon fill="midnightblue" stroke="midnightblue" points="2558.17,-220.36 2548.78,-225.26 2559.18,-227.29 2558.17,-220.36"/>
</g>
<!-- Node75 -->
<g id="node25" class="node">
<title>Node75</title>
<g id="a_node25"><a xlink:href="bas_8h.html" target="_top" xlink:title="Binary Async Stream.">
<polygon fill="white" stroke="black" points="2912.68,-168.5 2912.68,-187.5 2993.68,-187.5 2993.68,-168.5 2912.68,-168.5"/>
<text text-anchor="middle" x="2953.18" y="-175.5" font-family="Helvetica,sans-Serif" font-size="10.00">include/bas.h</text>
</a>
</g>
</g>
<!-- Node2&#45;&gt;Node75 -->
<g id="edge24" class="edge">
<title>Node2&#45;&gt;Node75</title>
<path fill="none" stroke="midnightblue" d="M2558.76,-227.34C2639.17,-219.88 2781.78,-205.6 2903.18,-188 2906.23,-187.56 2909.39,-187.07 2912.56,-186.55"/>
<polygon fill="midnightblue" stroke="midnightblue" points="2558.43,-223.86 2548.79,-228.26 2559.07,-230.83 2558.43,-223.86"/>
</g>
<!-- Node76 -->
<g id="node26" class="node">
<title>Node76</title>
<g id="a_node26"><a xlink:href="basic_8h.html" target="_top" xlink:title="Basic object.">
<polygon fill="white" stroke="red" points="3011.68,-168.5 3011.68,-187.5 3100.68,-187.5 3100.68,-168.5 3011.68,-168.5"/>
<text text-anchor="middle" x="3056.18" y="-175.5" font-family="Helvetica,sans-Serif" font-size="10.00">include/basic.h</text>
</a>
</g>
</g>
<!-- Node2&#45;&gt;Node76 -->
<g id="edge25" class="edge">
<title>Node2&#45;&gt;Node76</title>
<path fill="none" stroke="midnightblue" d="M2559.14,-228.9C2655.46,-222.37 2843.39,-208.25 3002.18,-188 3005.2,-187.62 3008.3,-187.19 3011.43,-186.73"/>
<polygon fill="midnightblue" stroke="midnightblue" points="2558.72,-225.42 2548.98,-229.59 2559.19,-232.41 2558.72,-225.42"/>
</g>
<!-- Node78 -->
<g id="node27" class="node">
<title>Node78</title>
<g id="a_node27"><a xlink:href="bbmark_8h.html" target="_top" xlink:title=" ">
<polygon fill="white" stroke="black" points="3118.68,-168.5 3118.68,-187.5 3219.68,-187.5 3219.68,-168.5 3118.68,-168.5"/>
<text text-anchor="middle" x="3169.18" y="-175.5" font-family="Helvetica,sans-Serif" font-size="10.00">include/bbmark.h</text>
</a>
</g>
</g>
<!-- Node2&#45;&gt;Node78 -->
<g id="edge26" class="edge">
<title>Node2&#45;&gt;Node78</title>
<path fill="none" stroke="midnightblue" d="M2558.77,-229.93C2670.41,-224.19 2908.83,-210.34 3109.18,-188 3112.22,-187.66 3115.33,-187.28 3118.48,-186.88"/>
<polygon fill="midnightblue" stroke="midnightblue" points="2558.5,-226.44 2548.69,-230.44 2558.85,-233.43 2558.5,-226.44"/>
</g>
<!-- Node79 -->
<g id="node28" class="node">
<title>Node79</title>
<g id="a_node28"><a xlink:href="bez_8h.html" target="_top" xlink:title=" ">
<polygon fill="white" stroke="black" points="3237.68,-168.5 3237.68,-187.5 3318.68,-187.5 3318.68,-168.5 3237.68,-168.5"/>
<text text-anchor="middle" x="3278.18" y="-175.5" font-family="Helvetica,sans-Serif" font-size="10.00">include/bez.h</text>
</a>
</g>
</g>
<!-- Node2&#45;&gt;Node79 -->
<g id="edge27" class="edge">
<title>Node2&#45;&gt;Node79</title>
<path fill="none" stroke="midnightblue" d="M2559.08,-231.59C2686.67,-228.21 2981.93,-217.62 3228.18,-188 3231.24,-187.63 3234.41,-187.2 3237.58,-186.72"/>
<polygon fill="midnightblue" stroke="midnightblue" points="2558.62,-228.1 2548.72,-231.85 2558.8,-235.09 2558.62,-228.1"/>
</g>
<!-- Node58 -->
<g id="node29" class="node">
<title>Node58</title>
<g id="a_node29"><a xlink:href="binoc_8h.html" target="_top" xlink:title="Binoc&#45;u&#45;com.">
<polygon fill="white" stroke="red" points="3375.18,-168.5 3375.18,-187.5 3465.18,-187.5 3465.18,-168.5 3375.18,-168.5"/>
<text text-anchor="middle" x="3420.18" y="-175.5" font-family="Helvetica,sans-Serif" font-size="10.00">include/binoc.h</text>
</a>
</g>
</g>
<!-- Node2&#45;&gt;Node58 -->
<g id="edge28" class="edge">
<title>Node2&#45;&gt;Node58</title>
<path fill="none" stroke="midnightblue" d="M2559.43,-231.85C2703.34,-228.78 3062.37,-218.48 3361.18,-188 3365.72,-187.54 3370.43,-186.97 3375.14,-186.34"/>
<polygon fill="midnightblue" stroke="midnightblue" points="2558.96,-228.35 2549.03,-232.06 2559.1,-235.35 2558.96,-228.35"/>
</g>
<!-- Node32 -->
<g id="node30" class="node">
<title>Node32</title>
<g id="a_node30"><a xlink:href="cm_8h.html" target="_top" xlink:title="Game camera.">
<polygon fill="white" stroke="red" points="3343.68,-112.5 3343.68,-131.5 3422.68,-131.5 3422.68,-112.5 3343.68,-112.5"/>
<text text-anchor="middle" x="3383.18" y="-119.5" font-family="Helvetica,sans-Serif" font-size="10.00">include/cm.h</text>
</a>
</g>
</g>
<!-- Node2&#45;&gt;Node32 -->
<g id="edge47" class="edge">
<title>Node2&#45;&gt;Node32</title>
<path fill="none" stroke="midnightblue" d="M2559.07,-232.41C2741.99,-230.33 3258.97,-221.53 3327.18,-188 3352.31,-175.65 3370.73,-146.38 3378.74,-131.71"/>
<polygon fill="midnightblue" stroke="midnightblue" points="2558.76,-228.92 2548.8,-232.53 2558.84,-235.92 2558.76,-228.92"/>
</g>
<!-- Node54 -->
<g id="node31" class="node">
<title>Node54</title>
<g id="a_node31"><a xlink:href="bis_8h.html" target="_top" xlink:title="Binary Input Stream.">
<polygon fill="white" stroke="red" points="2232.18,-112.5 2232.18,-131.5 2310.18,-131.5 2310.18,-112.5 2232.18,-112.5"/>
<text text-anchor="middle" x="2271.18" y="-119.5" font-family="Helvetica,sans-Serif" font-size="10.00">include/bis.h</text>
</a>
</g>
</g>
<!-- Node2&#45;&gt;Node54 -->
<g id="edge30" class="edge">
<title>Node2&#45;&gt;Node54</title>
<path fill="none" stroke="midnightblue" d="M2431.17,-231.2C2361.65,-227.73 2257.14,-217.6 2232.18,-188 2216.74,-169.69 2242.96,-144.56 2259.42,-131.56"/>
<polygon fill="midnightblue" stroke="midnightblue" points="2431.44,-234.71 2441.59,-231.68 2431.76,-227.72 2431.44,-234.71"/>
</g>
<!-- Node37 -->
<g id="node32" class="node">
<title>Node37</title>
<g id="a_node32"><a xlink:href="chkpnt_8h.html" target="_top" xlink:title="Checkpoint system.">
<polygon fill="white" stroke="red" points="2194.68,-56.5 2194.68,-75.5 2291.68,-75.5 2291.68,-56.5 2194.68,-56.5"/>
<text text-anchor="middle" x="2243.18" y="-63.5" font-family="Helvetica,sans-Serif" font-size="10.00">include/chkpnt.h</text>
</a>
</g>
</g>
<!-- Node2&#45;&gt;Node37 -->
<g id="edge42" class="edge">
<title>Node2&#45;&gt;Node37</title>
<path fill="none" stroke="midnightblue" d="M2431.3,-231.49C2359.8,-228.31 2250.47,-218.45 2224.18,-188 2195.7,-155 2225.01,-97.26 2237.83,-75.56"/>
<polygon fill="midnightblue" stroke="midnightblue" points="2431.43,-235 2441.56,-231.92 2431.72,-228.01 2431.43,-235"/>
</g>
<!-- Node39 -->
<g id="node33" class="node">
<title>Node39</title>
<g id="a_node33"><a xlink:href="difficulty_8h.html" target="_top" xlink:title="Dynamic difficulty system.">
<polygon fill="white" stroke="red" points="2254.68,-0.5 2254.68,-19.5 2359.68,-19.5 2359.68,-0.5 2254.68,-0.5"/>
<text text-anchor="middle" x="2307.18" y="-7.5" font-family="Helvetica,sans-Serif" font-size="10.00">include/difficulty.h</text>
</a>
</g>
</g>
<!-- Node2&#45;&gt;Node39 -->
<g id="edge55" class="edge">
<title>Node2&#45;&gt;Node39</title>
<path fill="none" stroke="midnightblue" d="M2481.25,-216.56C2444.02,-172.59 2343.1,-53.41 2314.7,-19.88"/>
<polygon fill="midnightblue" stroke="midnightblue" points="2478.68,-218.93 2487.81,-224.3 2484.02,-214.4 2478.68,-218.93"/>
</g>
<!-- Node80 -->
<g id="node34" class="node">
<title>Node80</title>
<g id="a_node34"><a xlink:href="blend_8h.html" target="_top" xlink:title=" ">
<polygon fill="white" stroke="black" points="3483.68,-168.5 3483.68,-187.5 3574.68,-187.5 3574.68,-168.5 3483.68,-168.5"/>
<text text-anchor="middle" x="3529.18" y="-175.5" font-family="Helvetica,sans-Serif" font-size="10.00">include/blend.h</text>
</a>
</g>
</g>
<!-- Node2&#45;&gt;Node80 -->
<g id="edge34" class="edge">
<title>Node2&#45;&gt;Node80</title>
<path fill="none" stroke="midnightblue" d="M2559.32,-232.63C2716,-231.16 3130.51,-223.89 3474.18,-188 3477.26,-187.68 3480.43,-187.3 3483.62,-186.87"/>
<polygon fill="midnightblue" stroke="midnightblue" points="2558.9,-229.13 2548.94,-232.72 2558.97,-236.13 2558.9,-229.13"/>
</g>
<!-- Node81 -->
<g id="node35" class="node">
<title>Node81</title>
<g id="a_node35"><a xlink:href="blip_8h.html" target="_top" xlink:title=" ">
<polygon fill="white" stroke="black" points="3593.18,-168.5 3593.18,-187.5 3675.18,-187.5 3675.18,-168.5 3593.18,-168.5"/>
<text text-anchor="middle" x="3634.18" y="-175.5" font-family="Helvetica,sans-Serif" font-size="10.00">include/blip.h</text>
</a>
</g>
</g>
<!-- Node2&#45;&gt;Node81 -->
<g id="edge35" class="edge">
<title>Node2&#45;&gt;Node81</title>
<path fill="none" stroke="midnightblue" d="M2559.09,-233.4C2727.4,-233.81 3196.61,-230.69 3584.18,-188 3587.07,-187.68 3590.05,-187.3 3593.04,-186.86"/>
<polygon fill="midnightblue" stroke="midnightblue" points="2558.93,-229.9 2548.92,-233.37 2558.91,-236.9 2558.93,-229.9"/>
</g>
<!-- Node82 -->
<g id="node36" class="node">
<title>Node82</title>
<g id="a_node36"><a xlink:href="bomb_8h.html" target="_top" xlink:title=" ">
<polygon fill="white" stroke="black" points="3693.18,-168.5 3693.18,-187.5 3785.18,-187.5 3785.18,-168.5 3693.18,-168.5"/>
<text text-anchor="middle" x="3739.18" y="-175.5" font-family="Helvetica,sans-Serif" font-size="10.00">include/bomb.h</text>
</a>
</g>
</g>
<!-- Node2&#45;&gt;Node82 -->
<g id="edge36" class="edge">
<title>Node2&#45;&gt;Node82</title>
<path fill="none" stroke="midnightblue" d="M2559.23,-233.37C2737.8,-233.8 3256.19,-230.95 3684.18,-188 3687.07,-187.71 3690.03,-187.36 3693.02,-186.98"/>
<polygon fill="midnightblue" stroke="midnightblue" points="2558.98,-229.87 2548.97,-233.34 2558.96,-236.87 2558.98,-229.87"/>
</g>
<!-- Node83 -->
<g id="node37" class="node">
<title>Node83</title>
<g id="a_node37"><a xlink:href="break_8h.html" target="_top" xlink:title=" ">
<polygon fill="white" stroke="black" points="3803.18,-168.5 3803.18,-187.5 3895.18,-187.5 3895.18,-168.5 3803.18,-168.5"/>
<text text-anchor="middle" x="3849.18" y="-175.5" font-family="Helvetica,sans-Serif" font-size="10.00">include/break.h</text>
</a>
</g>
</g>
<!-- Node2&#45;&gt;Node83 -->
<g id="edge37" class="edge">
<title>Node2&#45;&gt;Node83</title>
<path fill="none" stroke="midnightblue" d="M2558.96,-231.87C2785.44,-227.69 3550.35,-212.07 3794.18,-188 3797.07,-187.71 3800.04,-187.37 3803.02,-186.99"/>
<polygon fill="midnightblue" stroke="midnightblue" points="2558.84,-228.37 2548.91,-232.05 2558.97,-235.37 2558.84,-228.37"/>
</g>
<!-- Node84 -->
<g id="node38" class="node">
<title>Node84</title>
<g id="a_node38"><a xlink:href="brx_8h.html" target="_top" xlink:title="Binary Resource Archive.">
<polygon fill="white" stroke="black" points="3913.18,-168.5 3913.18,-187.5 3993.18,-187.5 3993.18,-168.5 3913.18,-168.5"/>
<text text-anchor="middle" x="3953.18" y="-175.5" font-family="Helvetica,sans-Serif" font-size="10.00">include/brx.h</text>
</a>
</g>
</g>
<!-- Node2&#45;&gt;Node84 -->
<g id="edge38" class="edge">
<title>Node2&#45;&gt;Node84</title>
<path fill="none" stroke="midnightblue" d="M2559.09,-232.23C2797.95,-229.16 3638.02,-216.53 3904.18,-188 3907.1,-187.69 3910.12,-187.3 3913.14,-186.86"/>
<polygon fill="midnightblue" stroke="midnightblue" points="2558.8,-228.73 2548.84,-232.36 2558.89,-235.73 2558.8,-228.73"/>
</g>
<!-- Node85 -->
<g id="node39" class="node">
<title>Node85</title>
<g id="a_node39"><a xlink:href="cat_8h.html" target="_top" xlink:title="Catalog.">
<polygon fill="white" stroke="black" points="2241.68,-168.5 2241.68,-187.5 2320.68,-187.5 2320.68,-168.5 2241.68,-168.5"/>
<text text-anchor="middle" x="2281.18" y="-175.5" font-family="Helvetica,sans-Serif" font-size="10.00">include/cat.h</text>
</a>
</g>
</g>
<!-- Node2&#45;&gt;Node85 -->
<g id="edge39" class="edge">
<title>Node2&#45;&gt;Node85</title>
<path fill="none" stroke="midnightblue" d="M2451.42,-221.96C2411.01,-211.76 2351.81,-196.82 2314.93,-187.52"/>
<polygon fill="midnightblue" stroke="midnightblue" points="2450.72,-225.39 2461.27,-224.44 2452.43,-218.6 2450.72,-225.39"/>
</g>
<!-- Node86 -->
<g id="node40" class="node">
<title>Node86</title>
<g id="a_node40"><a xlink:href="cd_8h.html" target="_top" xlink:title=" ">
<polygon fill="white" stroke="black" points="4011.68,-168.5 4011.68,-187.5 4086.68,-187.5 4086.68,-168.5 4011.68,-168.5"/>
<text text-anchor="middle" x="4049.18" y="-175.5" font-family="Helvetica,sans-Serif" font-size="10.00">include/cd.h</text>
</a>
</g>
</g>
<!-- Node2&#45;&gt;Node86 -->
<g id="edge41" class="edge">
<title>Node2&#45;&gt;Node86</title>
<path fill="none" stroke="midnightblue" d="M2559.34,-232.45C2809.01,-230.08 3716.03,-219.47 4002.18,-188 4005.24,-187.66 4008.39,-187.24 4011.55,-186.75"/>
<polygon fill="midnightblue" stroke="midnightblue" points="2558.96,-228.95 2548.99,-232.54 2559.03,-235.95 2558.96,-228.95"/>
</g>
<!-- Node87 -->
<g id="node41" class="node">
<title>Node87</title>
<g id="a_node41"><a xlink:href="cid_8h.html" target="_top" xlink:title="Class ID.">
<polygon fill="white" stroke="red" points="4105.18,-168.5 4105.18,-187.5 4183.18,-187.5 4183.18,-168.5 4105.18,-168.5"/>
<text text-anchor="middle" x="4144.18" y="-175.5" font-family="Helvetica,sans-Serif" font-size="10.00">include/cid.h</text>
</a>
</g>
</g>
<!-- Node2&#45;&gt;Node87 -->
<g id="edge43" class="edge">
<title>Node2&#45;&gt;Node87</title>
<path fill="none" stroke="midnightblue" d="M2559.43,-232.54C2818.96,-230.49 3790.59,-220.74 4096.18,-188 4099.05,-187.69 4102,-187.31 4104.96,-186.87"/>
<polygon fill="midnightblue" stroke="midnightblue" points="2559.02,-229.05 2549.05,-232.62 2559.08,-236.05 2559.02,-229.05"/>
</g>
<!-- Node90 -->
<g id="node42" class="node">
<title>Node90</title>
<g id="a_node42"><a xlink:href="clip_8h.html" target="_top" xlink:title=" ">
<polygon fill="white" stroke="black" points="4201.68,-168.5 4201.68,-187.5 4282.68,-187.5 4282.68,-168.5 4201.68,-168.5"/>
<text text-anchor="middle" x="4242.18" y="-175.5" font-family="Helvetica,sans-Serif" font-size="10.00">include/clip.h</text>
</a>
</g>
</g>
<!-- Node2&#45;&gt;Node90 -->
<g id="edge44" class="edge">
<title>Node2&#45;&gt;Node90</title>
<path fill="none" stroke="midnightblue" d="M2559.24,-232.6C2828.1,-230.73 3866.52,-221.43 4192.18,-188 4195.25,-187.68 4198.42,-187.29 4201.59,-186.84"/>
<polygon fill="midnightblue" stroke="midnightblue" points="2558.85,-229.1 2548.88,-232.67 2558.9,-236.1 2558.85,-229.1"/>
</g>
<!-- Node91 -->
<g id="node43" class="node">
<title>Node91</title>
<g id="a_node43"><a xlink:href="clock_8h.html" target="_top" xlink:title="Engine clock.">
<polygon fill="white" stroke="red" points="2338.68,-168.5 2338.68,-187.5 2427.68,-187.5 2427.68,-168.5 2338.68,-168.5"/>
<text text-anchor="middle" x="2383.18" y="-175.5" font-family="Helvetica,sans-Serif" font-size="10.00">include/clock.h</text>
</a>
</g>
</g>
<!-- Node2&#45;&gt;Node91 -->
<g id="edge45" class="edge">
<title>Node2&#45;&gt;Node91</title>
<path fill="none" stroke="midnightblue" d="M2467.93,-219.86C2447.16,-209.85 2419.16,-196.35 2401.13,-187.65"/>
<polygon fill="midnightblue" stroke="midnightblue" points="2466.66,-223.13 2477.18,-224.32 2469.7,-216.83 2466.66,-223.13"/>
</g>
<!-- Node93 -->
<g id="node44" class="node">
<title>Node93</title>
<g id="a_node44"><a xlink:href="cnvo_8h.html" target="_top" xlink:title=" ">
<polygon fill="white" stroke="black" points="4300.68,-168.5 4300.68,-187.5 4387.68,-187.5 4387.68,-168.5 4300.68,-168.5"/>
<text text-anchor="middle" x="4344.18" y="-175.5" font-family="Helvetica,sans-Serif" font-size="10.00">include/cnvo.h</text>
</a>
</g>
</g>
<!-- Node2&#45;&gt;Node93 -->
<g id="edge48" class="edge">
<title>Node2&#45;&gt;Node93</title>
<path fill="none" stroke="midnightblue" d="M2559.31,-232.65C2838.03,-230.95 3945.69,-222.14 4292.18,-188 4294.91,-187.73 4297.72,-187.4 4300.55,-187.03"/>
<polygon fill="midnightblue" stroke="midnightblue" points="2558.95,-229.16 2548.97,-232.72 2558.99,-236.16 2558.95,-229.16"/>
</g>
<!-- Node94 -->
<g id="node45" class="node">
<title>Node94</title>
<g id="a_node45"><a xlink:href="cplcy_8h.html" target="_top" xlink:title="Camera policy.">
<polygon fill="white" stroke="black" points="4406.18,-168.5 4406.18,-187.5 4494.18,-187.5 4494.18,-168.5 4406.18,-168.5"/>
<text text-anchor="middle" x="4450.18" y="-175.5" font-family="Helvetica,sans-Serif" font-size="10.00">include/cplcy.h</text>
</a>
</g>
</g>
<!-- Node2&#45;&gt;Node94 -->
<g id="edge50" class="edge">
<title>Node2&#45;&gt;Node94</title>
<path fill="none" stroke="midnightblue" d="M2559.24,-232.73C2847.79,-231.32 4028.77,-223.45 4397.18,-188 4400.06,-187.72 4403.02,-187.38 4406,-186.99"/>
<polygon fill="midnightblue" stroke="midnightblue" points="2558.93,-229.23 2548.95,-232.78 2558.97,-236.23 2558.93,-229.23"/>
</g>
<!-- Node95 -->
<g id="node46" class="node">
<title>Node95</title>
<g id="a_node46"><a xlink:href="credit_8h.html" target="_top" xlink:title=" ">
<polygon fill="white" stroke="black" points="4512.18,-168.5 4512.18,-187.5 4604.18,-187.5 4604.18,-168.5 4512.18,-168.5"/>
<text text-anchor="middle" x="4558.18" y="-175.5" font-family="Helvetica,sans-Serif" font-size="10.00">include/credit.h</text>
</a>
</g>
</g>
<!-- Node2&#45;&gt;Node95 -->
<g id="edge51" class="edge">
<title>Node2&#45;&gt;Node95</title>
<path fill="none" stroke="midnightblue" d="M2558.88,-232.77C2856.54,-231.52 4112.42,-224.17 4503.18,-188 4506.07,-187.73 4509.04,-187.4 4512.03,-187.03"/>
<polygon fill="midnightblue" stroke="midnightblue" points="2558.68,-229.27 2548.7,-232.81 2558.71,-236.27 2558.68,-229.27"/>
</g>
<!-- Node96 -->
<g id="node47" class="node">
<title>Node96</title>
<g id="a_node47"><a xlink:href="crout_8h.html" target="_top" xlink:title=" ">
<polygon fill="white" stroke="black" points="4622.68,-168.5 4622.68,-187.5 4711.68,-187.5 4711.68,-168.5 4622.68,-168.5"/>
<text text-anchor="middle" x="4667.18" y="-175.5" font-family="Helvetica,sans-Serif" font-size="10.00">include/crout.h</text>
</a>
</g>
</g>
<!-- Node2&#45;&gt;Node96 -->
<g id="edge52" class="edge">
<title>Node2&#45;&gt;Node96</title>
<path fill="none" stroke="midnightblue" d="M2558.84,-232.88C2866.3,-232.13 4199.5,-226.67 4613.18,-188 4616.21,-187.72 4619.32,-187.36 4622.46,-186.96"/>
<polygon fill="midnightblue" stroke="midnightblue" points="2558.76,-229.38 2548.77,-232.91 2558.78,-236.38 2558.76,-229.38"/>
</g>
<!-- Node97 -->
<g id="node48" class="node">
<title>Node97</title>
<g id="a_node48"><a xlink:href="crv_8h.html" target="_top" xlink:title=" ">
<polygon fill="white" stroke="black" points="4730.18,-168.5 4730.18,-187.5 4808.18,-187.5 4808.18,-168.5 4730.18,-168.5"/>
<text text-anchor="middle" x="4769.18" y="-175.5" font-family="Helvetica,sans-Serif" font-size="10.00">include/crv.h</text>
</a>
</g>
</g>
<!-- Node2&#45;&gt;Node97 -->
<g id="edge53" class="edge">
<title>Node2&#45;&gt;Node97</title>
<path fill="none" stroke="midnightblue" d="M2559.48,-233.13C2877.64,-233.58 4285.64,-232.92 4721.18,-188 4724.05,-187.7 4727,-187.33 4729.96,-186.9"/>
<polygon fill="midnightblue" stroke="midnightblue" points="2559.07,-229.63 2549.06,-233.12 2559.06,-236.63 2559.07,-229.63"/>
</g>
<!-- Node98 -->
<g id="node49" class="node">
<title>Node98</title>
<g id="a_node49"><a xlink:href="dart_8h.html" target="_top" xlink:title="Dart gun projectiles.">
<polygon fill="white" stroke="black" points="4826.68,-168.5 4826.68,-187.5 4909.68,-187.5 4909.68,-168.5 4826.68,-168.5"/>
<text text-anchor="middle" x="4868.18" y="-175.5" font-family="Helvetica,sans-Serif" font-size="10.00">include/dart.h</text>
</a>
</g>
</g>
<!-- Node2&#45;&gt;Node98 -->
<g id="edge54" class="edge">
<title>Node2&#45;&gt;Node98</title>
<path fill="none" stroke="midnightblue" d="M2559.07,-233.1C2884.6,-233.43 4361.13,-232.39 4817.18,-188 4820.22,-187.7 4823.36,-187.33 4826.5,-186.9"/>
<polygon fill="midnightblue" stroke="midnightblue" points="2558.88,-229.6 2548.87,-233.09 2558.87,-236.6 2558.88,-229.6"/>
</g>
<!-- Node99 -->
<g id="node50" class="node">
<title>Node99</title>
<g id="a_node50"><a xlink:href="dl_8h.html" target="_top" xlink:title=" ">
<polygon fill="white" stroke="red" points="54.68,-168.5 54.68,-187.5 127.68,-187.5 127.68,-168.5 54.68,-168.5"/>
<text text-anchor="middle" x="91.18" y="-175.5" font-family="Helvetica,sans-Serif" font-size="10.00">include/dl.h</text>
</a>
</g>
</g>
<!-- Node2&#45;&gt;Node99 -->
<g id="edge56" class="edge">
<title>Node2&#45;&gt;Node99</title>
<path fill="none" stroke="midnightblue" d="M2431.24,-233.12C2103,-233.55 604.69,-232.96 142.18,-188 137.53,-187.55 132.66,-186.91 127.86,-186.18"/>
<polygon fill="midnightblue" stroke="midnightblue" points="2431.52,-236.62 2441.52,-233.11 2431.51,-229.62 2431.52,-236.62"/>
</g>
<!-- Node23&#45;&gt;Node24 -->
<g id="edge22" class="edge">
<title>Node23&#45;&gt;Node24</title>
<path fill="none" stroke="midnightblue" d="M119.6,-106.38C105.87,-96.62 88.25,-84.11 76.61,-75.83"/>
<polygon fill="midnightblue" stroke="midnightblue" points="117.79,-109.38 127.97,-112.32 121.84,-103.68 117.79,-109.38"/>
</g>
<!-- Node58&#45;&gt;Node32 -->
<g id="edge29" class="edge">
<title>Node58&#45;&gt;Node32</title>
<path fill="none" stroke="midnightblue" d="M3408.23,-159.57C3401.87,-150.27 3394.31,-139.25 3389.18,-131.75"/>
<polygon fill="midnightblue" stroke="midnightblue" points="3405.53,-161.81 3414.07,-168.08 3411.3,-157.86 3405.53,-161.81"/>
</g>
<!-- Node54&#45;&gt;Node37 -->
<g id="edge31" class="edge">
<title>Node54&#45;&gt;Node37</title>
<path fill="none" stroke="midnightblue" d="M2261.84,-102.98C2257.08,-93.82 2251.52,-83.09 2247.72,-75.75"/>
<polygon fill="midnightblue" stroke="midnightblue" points="2258.85,-104.82 2266.56,-112.08 2265.06,-101.59 2258.85,-104.82"/>
</g>
<!-- Node37&#45;&gt;Node18 -->
<g id="edge32" class="edge">
<title>Node37&#45;&gt;Node18</title>
<path fill="none" stroke="midnightblue" d="M2225.19,-49.82C2213.72,-40.15 2199.27,-27.95 2189.65,-19.83"/>
<polygon fill="midnightblue" stroke="midnightblue" points="2223,-52.55 2232.9,-56.32 2227.51,-47.2 2223,-52.55"/>
</g>
<!-- Node37&#45;&gt;Node39 -->
<g id="edge33" class="edge">
<title>Node37&#45;&gt;Node39</title>
<path fill="none" stroke="midnightblue" d="M2261.17,-49.82C2272.64,-40.15 2287.09,-27.95 2296.71,-19.83"/>
<polygon fill="midnightblue" stroke="midnightblue" points="2258.85,-47.2 2253.46,-56.32 2263.36,-52.55 2258.85,-47.2"/>
</g>
<!-- Node85&#45;&gt;Node54 -->
<g id="edge40" class="edge">
<title>Node85&#45;&gt;Node54</title>
<path fill="none" stroke="midnightblue" d="M2277.68,-158.1C2276.02,-149.14 2274.12,-138.86 2272.8,-131.75"/>
<polygon fill="midnightblue" stroke="midnightblue" points="2274.27,-158.89 2279.53,-168.08 2281.15,-157.61 2274.27,-158.89"/>
</g>
<!-- Node91&#45;&gt;Node54 -->
<g id="edge46" class="edge">
<title>Node91&#45;&gt;Node54</title>
<path fill="none" stroke="midnightblue" d="M2355.93,-163.86C2335.16,-153.85 2307.16,-140.35 2289.13,-131.65"/>
<polygon fill="midnightblue" stroke="midnightblue" points="2354.66,-167.13 2365.18,-168.32 2357.7,-160.83 2354.66,-167.13"/>
</g>
<!-- Node99&#45;&gt;Node3 -->
<g id="edge57" class="edge">
<title>Node99&#45;&gt;Node3</title>
<path fill="none" stroke="midnightblue" d="M78.07,-160.14C70.75,-150.74 61.94,-139.4 55.99,-131.75"/>
<polygon fill="midnightblue" stroke="midnightblue" points="75.34,-162.34 84.24,-168.08 80.87,-158.04 75.34,-162.34"/>
</g>
<!-- Node99&#45;&gt;Node23 -->
<g id="edge58" class="edge">
<title>Node99&#45;&gt;Node23</title>
<path fill="none" stroke="midnightblue" d="M106.21,-160.43C114.8,-150.97 125.22,-139.48 132.24,-131.75"/>
<polygon fill="midnightblue" stroke="midnightblue" points="103.4,-158.33 99.27,-168.08 108.58,-163.03 103.4,-158.33"/>
</g>
</g>
</svg>
