<?xml version="1.0" encoding="UTF-8" standalone="no"?>
<!DOCTYPE svg PUBLIC "-//W3C//DTD SVG 1.1//EN"
 "http://www.w3.org/Graphics/SVG/1.1/DTD/svg11.dtd">
<!-- Generated by graphviz version 2.43.0 (0)
 -->
<!-- Title: Graphical Class Hierarchy Pages: 1 -->
<svg width="128pt" height="64pt"
 viewBox="0.00 0.00 128.00 64.00" xmlns="http://www.w3.org/2000/svg" xmlns:xlink="http://www.w3.org/1999/xlink">
<g id="graph0" class="graph" transform="scale(1 1) rotate(0) translate(4 60)">
<title>Graphical Class Hierarchy</title>
<!-- Node0 -->
<g id="Node000000" class="node">
<title>Node0</title>
<g id="a_Node000000"><a xlink:href="classDMAS.html" target="_top" xlink:title=" ">
<polygon fill="white" stroke="#666666" points="46,-37 0,-37 0,-18 46,-18 46,-37"/>
<text text-anchor="middle" x="23" y="-25" font-family="Helvetica,sans-Serif" font-size="10.00">DMAS</text>
</a>
</g>
</g>
<!-- Node1 -->
<g id="Node000001" class="node">
<title>Node1</title>
<g id="a_Node000001"><a xlink:href="structGIFS.html" target="_top" xlink:title="Unknown. Constructs primitives for rendering?">
<polygon fill="white" stroke="#666666" points="120,-56 82,-56 82,-37 120,-37 120,-56"/>
<text text-anchor="middle" x="101" y="-44" font-family="Helvetica,sans-Serif" font-size="10.00">GIFS</text>
</a>
</g>
</g>
<!-- Node0&#45;&gt;Node1 -->
<g id="edge173_Node000000_Node000001" class="edge">
<title>Node0&#45;&gt;Node1</title>
<g id="a_edge173_Node000000_Node000001"><a xlink:title=" ">
<path fill="none" stroke="#63b8ff" d="M56.26,-35.56C64.92,-37.73 73.98,-40 81.6,-41.9"/>
<polygon fill="#63b8ff" stroke="#63b8ff" points="56.94,-32.13 46.39,-33.1 55.24,-38.92 56.94,-32.13"/>
</a>
</g>
</g>
<!-- Node2 -->
<g id="Node000002" class="node">
<title>Node2</title>
<g id="a_Node000002"><a xlink:href="classVIFS.html" target="_top" xlink:title="Vector Interface System?">
<polygon fill="white" stroke="#666666" points="120,-19 82,-19 82,0 120,0 120,-19"/>
<text text-anchor="middle" x="101" y="-7" font-family="Helvetica,sans-Serif" font-size="10.00">VIFS</text>
</a>
</g>
</g>
<!-- Node0&#45;&gt;Node2 -->
<g id="edge174_Node000000_Node000002" class="edge">
<title>Node0&#45;&gt;Node2</title>
<g id="a_edge174_Node000000_Node000002"><a xlink:title=" ">
<path fill="none" stroke="#63b8ff" d="M56.26,-19.86C64.92,-17.81 73.98,-15.66 81.6,-13.86"/>
<polygon fill="#63b8ff" stroke="#63b8ff" points="55.32,-16.49 46.39,-22.2 56.93,-23.3 55.32,-16.49"/>
</a>
</g>
</g>
</g>
</svg>
