<?xml version="1.0" encoding="UTF-8" standalone="no"?>
<!DOCTYPE svg PUBLIC "-//W3C//DTD SVG 1.1//EN"
 "http://www.w3.org/Graphics/SVG/1.1/DTD/svg11.dtd">
<!-- Generated by graphviz version 2.43.0 (0)
 -->
<!-- Title: Graphical Class Hierarchy Pages: 1 -->
<svg width="123pt" height="64pt"
 viewBox="0.00 0.00 123.00 64.00" xmlns="http://www.w3.org/2000/svg" xmlns:xlink="http://www.w3.org/1999/xlink">
<g id="graph0" class="graph" transform="scale(1 1) rotate(0) translate(4 60)">
<title>Graphical Class Hierarchy</title>
<!-- Node0 -->
<g id="Node000000" class="node">
<title>Node0</title>
<g id="a_Node000000"><a xlink:href="structBL.html" target="_top" xlink:title="Unknown.">
<polygon fill="white" stroke="#666666" points="29,-37 0,-37 0,-18 29,-18 29,-37"/>
<text text-anchor="middle" x="14.5" y="-25" font-family="Helvetica,sans-Serif" font-size="10.00">BL</text>
</a>
</g>
</g>
<!-- Node1 -->
<g id="Node000001" class="node">
<title>Node1</title>
<g id="a_Node000001"><a xlink:href="structBLRUN.html" target="_top" xlink:title="Unknown.">
<polygon fill="white" stroke="#666666" points="115,-56 65,-56 65,-37 115,-37 115,-56"/>
<text text-anchor="middle" x="90" y="-44" font-family="Helvetica,sans-Serif" font-size="10.00">BLRUN</text>
</a>
</g>
</g>
<!-- Node0&#45;&gt;Node1 -->
<g id="edge143_Node000000_Node000001" class="edge">
<title>Node0&#45;&gt;Node1</title>
<g id="a_edge143_Node000000_Node000001"><a xlink:title=" ">
<path fill="none" stroke="#63b8ff" d="M39.06,-33.59C47.29,-35.72 56.54,-38.11 64.82,-40.25"/>
<polygon fill="#63b8ff" stroke="#63b8ff" points="39.88,-30.19 29.32,-31.07 38.13,-36.97 39.88,-30.19"/>
</a>
</g>
</g>
<!-- Node2 -->
<g id="Node000002" class="node">
<title>Node2</title>
<g id="a_Node000002"><a xlink:href="structBLSS.html" target="_top" xlink:title="Unknown.">
<polygon fill="white" stroke="#666666" points="110.5,-19 69.5,-19 69.5,0 110.5,0 110.5,-19"/>
<text text-anchor="middle" x="90" y="-7" font-family="Helvetica,sans-Serif" font-size="10.00">BLSS</text>
</a>
</g>
</g>
<!-- Node0&#45;&gt;Node2 -->
<g id="edge144_Node000000_Node000002" class="edge">
<title>Node0&#45;&gt;Node2</title>
<g id="a_edge144_Node000000_Node000002"><a xlink:title=" ">
<path fill="none" stroke="#63b8ff" d="M39.2,-21.7C48.96,-19.31 60.13,-16.57 69.41,-14.3"/>
<polygon fill="#63b8ff" stroke="#63b8ff" points="38.21,-18.34 29.32,-24.11 39.87,-25.14 38.21,-18.34"/>
</a>
</g>
</g>
</g>
</svg>
