<?xml version="1.0" encoding="UTF-8" standalone="no"?>
<!DOCTYPE svg PUBLIC "-//W3C//DTD SVG 1.1//EN"
 "http://www.w3.org/Graphics/SVG/1.1/DTD/svg11.dtd">
<!-- Generated by graphviz version 2.43.0 (0)
 -->
<!-- Title: Graphical Class Hierarchy Pages: 1 -->
<svg width="150pt" height="180pt"
 viewBox="0.00 0.00 150.00 180.00" xmlns="http://www.w3.org/2000/svg" xmlns:xlink="http://www.w3.org/1999/xlink">
<g id="graph0" class="graph" transform="scale(1 1) rotate(0) translate(4 176)">
<title>Graphical Class Hierarchy</title>
<polygon fill="white" stroke="transparent" points="-4,4 -4,-176 146,-176 146,4 -4,4"/>
<!-- Node0 -->
<g id="node1" class="node">
<title>Node0</title>
<g id="a_node1"><a xlink:href="structCPLCY.html" target="_top" xlink:title="Camera policy.">
<polygon fill="white" stroke="black" points="0,-76.5 0,-95.5 47,-95.5 47,-76.5 0,-76.5"/>
<text text-anchor="middle" x="23.5" y="-83.5" font-family="Helvetica,sans-Serif" font-size="10.00">CPLCY</text>
</a>
</g>
</g>
<!-- Node1 -->
<g id="node2" class="node">
<title>Node1</title>
<g id="a_node2"><a xlink:href="structCPALIGN.html" target="_top" xlink:title="Camera policy: align.">
<polygon fill="white" stroke="black" points="83,-152.5 83,-171.5 142,-171.5 142,-152.5 83,-152.5"/>
<text text-anchor="middle" x="112.5" y="-159.5" font-family="Helvetica,sans-Serif" font-size="10.00">CPALIGN</text>
</a>
</g>
</g>
<!-- Node0&#45;&gt;Node1 -->
<g id="edge1" class="edge">
<title>Node0&#45;&gt;Node1</title>
<path fill="none" stroke="midnightblue" d="M40.6,-103.29C51.95,-115.06 67.77,-130.68 83,-143 87.07,-146.29 91.71,-149.57 96.04,-152.44"/>
<polygon fill="midnightblue" stroke="midnightblue" points="42.95,-100.68 33.53,-95.84 37.88,-105.5 42.95,-100.68"/>
</g>
<!-- Node2 -->
<g id="node3" class="node">
<title>Node2</title>
<g id="a_node3"><a xlink:href="structCPASEG.html" target="_top" xlink:title="Camera policy: animation segment(?)">
<polygon fill="white" stroke="black" points="85,-114.5 85,-133.5 140,-133.5 140,-114.5 85,-114.5"/>
<text text-anchor="middle" x="112.5" y="-121.5" font-family="Helvetica,sans-Serif" font-size="10.00">CPASEG</text>
</a>
</g>
</g>
<!-- Node0&#45;&gt;Node2 -->
<g id="edge2" class="edge">
<title>Node0&#45;&gt;Node2</title>
<path fill="none" stroke="midnightblue" d="M55.88,-99.71C67.04,-104.58 79.35,-109.96 89.55,-114.41"/>
<polygon fill="midnightblue" stroke="midnightblue" points="57.02,-96.38 46.45,-95.59 54.22,-102.8 57.02,-96.38"/>
</g>
<!-- Node3 -->
<g id="node4" class="node">
<title>Node3</title>
<g id="a_node4"><a xlink:href="structCPLOOK.html" target="_top" xlink:title="Camera policy: look.">
<polygon fill="white" stroke="black" points="84.5,-76.5 84.5,-95.5 140.5,-95.5 140.5,-76.5 84.5,-76.5"/>
<text text-anchor="middle" x="112.5" y="-83.5" font-family="Helvetica,sans-Serif" font-size="10.00">CPLOOK</text>
</a>
</g>
</g>
<!-- Node0&#45;&gt;Node3 -->
<g id="edge3" class="edge">
<title>Node0&#45;&gt;Node3</title>
<path fill="none" stroke="midnightblue" d="M57.44,-86C66.36,-86 75.91,-86 84.47,-86"/>
<polygon fill="midnightblue" stroke="midnightblue" points="57.36,-82.5 47.36,-86 57.36,-89.5 57.36,-82.5"/>
</g>
<!-- Node4 -->
<g id="node5" class="node">
<title>Node4</title>
<g id="a_node5"><a xlink:href="structCPMAN.html" target="_top" xlink:title="Camera policy: manual.">
<polygon fill="white" stroke="black" points="86,-38.5 86,-57.5 139,-57.5 139,-38.5 86,-38.5"/>
<text text-anchor="middle" x="112.5" y="-45.5" font-family="Helvetica,sans-Serif" font-size="10.00">CPMAN</text>
</a>
</g>
</g>
<!-- Node0&#45;&gt;Node4 -->
<g id="edge4" class="edge">
<title>Node0&#45;&gt;Node4</title>
<path fill="none" stroke="midnightblue" d="M55.88,-72.29C67.04,-67.42 79.35,-62.04 89.55,-57.59"/>
<polygon fill="midnightblue" stroke="midnightblue" points="54.22,-69.2 46.45,-76.41 57.02,-75.62 54.22,-69.2"/>
</g>
<!-- Node5 -->
<g id="node6" class="node">
<title>Node5</title>
<g id="a_node6"><a xlink:href="structCPTN.html" target="_top" xlink:title="Camera policy: tunnel.">
<polygon fill="white" stroke="black" points="91,-0.5 91,-19.5 134,-19.5 134,-0.5 91,-0.5"/>
<text text-anchor="middle" x="112.5" y="-7.5" font-family="Helvetica,sans-Serif" font-size="10.00">CPTN</text>
</a>
</g>
</g>
<!-- Node0&#45;&gt;Node5 -->
<g id="edge5" class="edge">
<title>Node0&#45;&gt;Node5</title>
<path fill="none" stroke="midnightblue" d="M40.6,-68.71C51.95,-56.94 67.77,-41.32 83,-29 87.07,-25.71 91.71,-22.43 96.04,-19.56"/>
<polygon fill="midnightblue" stroke="midnightblue" points="37.88,-66.5 33.53,-76.16 42.95,-71.32 37.88,-66.5"/>
</g>
</g>
</svg>
