<?xml version="1.0" encoding="UTF-8" standalone="no"?>
<!DOCTYPE svg PUBLIC "-//W3C//DTD SVG 1.1//EN"
 "http://www.w3.org/Graphics/SVG/1.1/DTD/svg11.dtd">
<!-- Generated by graphviz version 2.43.0 (0)
 -->
<!-- Title: Graphical Class Hierarchy Pages: 1 -->
<svg width="130pt" height="101pt"
 viewBox="0.00 0.00 130.00 101.00" xmlns="http://www.w3.org/2000/svg" xmlns:xlink="http://www.w3.org/1999/xlink">
<g id="graph0" class="graph" transform="scale(1 1) rotate(0) translate(4 97)">
<title>Graphical Class Hierarchy</title>
<!-- Node0 -->
<g id="Node000000" class="node">
<title>Node0</title>
<g id="a_Node000000"><a xlink:href="structACR.html" target="_top" xlink:title="Unknown.">
<polygon fill="white" stroke="#666666" points="37,-56 0,-56 0,-37 37,-37 37,-56"/>
<text text-anchor="middle" x="18.5" y="-44" font-family="Helvetica,sans-Serif" font-size="10.00">ACR</text>
</a>
</g>
</g>
<!-- Node1 -->
<g id="Node000001" class="node">
<title>Node1</title>
<g id="a_Node000001"><a xlink:href="structACRB.html" target="_top" xlink:title="Unknown.">
<polygon fill="white" stroke="#666666" points="119.5,-93 75.5,-93 75.5,-74 119.5,-74 119.5,-93"/>
<text text-anchor="middle" x="97.5" y="-81" font-family="Helvetica,sans-Serif" font-size="10.00">ACRB</text>
</a>
</g>
</g>
<!-- Node0&#45;&gt;Node1 -->
<g id="edge9_Node000000_Node000001" class="edge">
<title>Node0&#45;&gt;Node1</title>
<g id="a_edge9_Node000000_Node000001"><a xlink:title=" ">
<path fill="none" stroke="#63b8ff" d="M46.42,-59.44C56.34,-64.2 67.38,-69.51 76.57,-73.92"/>
<polygon fill="#63b8ff" stroke="#63b8ff" points="47.89,-56.26 37.36,-55.08 44.86,-62.57 47.89,-56.26"/>
</a>
</g>
</g>
<!-- Node2 -->
<g id="Node000002" class="node">
<title>Node2</title>
<g id="a_Node000002"><a xlink:href="structACRBL.html" target="_top" xlink:title="Unknown.">
<polygon fill="white" stroke="#666666" points="122,-56 73,-56 73,-37 122,-37 122,-56"/>
<text text-anchor="middle" x="97.5" y="-44" font-family="Helvetica,sans-Serif" font-size="10.00">ACRBL</text>
</a>
</g>
</g>
<!-- Node0&#45;&gt;Node2 -->
<g id="edge10_Node000000_Node000002" class="edge">
<title>Node0&#45;&gt;Node2</title>
<g id="a_edge10_Node000000_Node000002"><a xlink:title=" ">
<path fill="none" stroke="#63b8ff" d="M47.42,-46.5C55.78,-46.5 64.85,-46.5 72.9,-46.5"/>
<polygon fill="#63b8ff" stroke="#63b8ff" points="47.36,-43 37.36,-46.5 47.36,-50 47.36,-43"/>
</a>
</g>
</g>
<!-- Node3 -->
<g id="Node000003" class="node">
<title>Node3</title>
<g id="a_Node000003"><a xlink:href="structACRC.html" target="_top" xlink:title="Unknown.">
<polygon fill="white" stroke="#666666" points="119.5,-19 75.5,-19 75.5,0 119.5,0 119.5,-19"/>
<text text-anchor="middle" x="97.5" y="-7" font-family="Helvetica,sans-Serif" font-size="10.00">ACRC</text>
</a>
</g>
</g>
<!-- Node0&#45;&gt;Node3 -->
<g id="edge11_Node000000_Node000003" class="edge">
<title>Node0&#45;&gt;Node3</title>
<g id="a_edge11_Node000000_Node000003"><a xlink:title=" ">
<path fill="none" stroke="#63b8ff" d="M46.42,-33.56C56.34,-28.8 67.38,-23.49 76.57,-19.08"/>
<polygon fill="#63b8ff" stroke="#63b8ff" points="44.86,-30.43 37.36,-37.92 47.89,-36.74 44.86,-30.43"/>
</a>
</g>
</g>
</g>
</svg>
