<?xml version="1.0" encoding="UTF-8" standalone="no"?>
<!DOCTYPE svg PUBLIC "-//W3C//DTD SVG 1.1//EN"
 "http://www.w3.org/Graphics/SVG/1.1/DTD/svg11.dtd">
<!-- Generated by graphviz version 2.43.0 (0)
 -->
<!-- Title: Graphical Class Hierarchy Pages: 1 -->
<svg width="123pt" height="64pt"
 viewBox="0.00 0.00 123.00 64.00" xmlns="http://www.w3.org/2000/svg" xmlns:xlink="http://www.w3.org/1999/xlink">
<g id="graph0" class="graph" transform="scale(1 1) rotate(0) translate(4 60)">
<title>Graphical Class Hierarchy</title>
<!-- Node0 -->
<g id="Node000000" class="node">
<title>Node0</title>
<g id="a_Node000000"><a xlink:href="structACS.html" target="_top" xlink:title="Unknown.">
<polygon fill="white" stroke="#666666" points="36,-37 0,-37 0,-18 36,-18 36,-37"/>
<text text-anchor="middle" x="18" y="-25" font-family="Helvetica,sans-Serif" font-size="10.00">ACS</text>
</a>
</g>
</g>
<!-- Node1 -->
<g id="Node000001" class="node">
<title>Node1</title>
<g id="a_Node000001"><a xlink:href="structACSB.html" target="_top" xlink:title="Unknown.">
<polygon fill="white" stroke="#666666" points="115,-56 72,-56 72,-37 115,-37 115,-56"/>
<text text-anchor="middle" x="93.5" y="-44" font-family="Helvetica,sans-Serif" font-size="10.00">ACSB</text>
</a>
</g>
</g>
<!-- Node0&#45;&gt;Node1 -->
<g id="edge12_Node000000_Node000001" class="edge">
<title>Node0&#45;&gt;Node1</title>
<g id="a_edge12_Node000000_Node000001"><a xlink:title=" ">
<path fill="none" stroke="#63b8ff" d="M45.97,-34.47C54.52,-36.68 63.84,-39.09 71.88,-41.17"/>
<polygon fill="#63b8ff" stroke="#63b8ff" points="46.6,-31.02 36.05,-31.91 44.85,-37.8 46.6,-31.02"/>
</a>
</g>
</g>
<!-- Node2 -->
<g id="Node000002" class="node">
<title>Node2</title>
<g id="a_Node000002"><a xlink:href="structACSC.html" target="_top" xlink:title="Unknown.">
<polygon fill="white" stroke="#666666" points="115,-19 72,-19 72,0 115,0 115,-19"/>
<text text-anchor="middle" x="93.5" y="-7" font-family="Helvetica,sans-Serif" font-size="10.00">ACSC</text>
</a>
</g>
</g>
<!-- Node0&#45;&gt;Node2 -->
<g id="edge13_Node000000_Node000002" class="edge">
<title>Node0&#45;&gt;Node2</title>
<g id="a_edge13_Node000000_Node000002"><a xlink:title=" ">
<path fill="none" stroke="#63b8ff" d="M45.97,-20.9C54.52,-18.8 63.84,-16.52 71.88,-14.55"/>
<polygon fill="#63b8ff" stroke="#63b8ff" points="44.93,-17.55 36.05,-23.33 46.59,-24.35 44.93,-17.55"/>
</a>
</g>
</g>
</g>
</svg>
