<?xml version="1.0" encoding="UTF-8" standalone="no"?>
<!DOCTYPE svg PUBLIC "-//W3C//DTD SVG 1.1//EN"
 "http://www.w3.org/Graphics/SVG/1.1/DTD/svg11.dtd">
<!-- Generated by graphviz version 2.43.0 (0)
 -->
<!-- Title: Graphical Class Hierarchy Pages: 1 -->
<svg width="138pt" height="175pt"
 viewBox="0.00 0.00 138.00 175.00" xmlns="http://www.w3.org/2000/svg" xmlns:xlink="http://www.w3.org/1999/xlink">
<g id="graph0" class="graph" transform="scale(1 1) rotate(0) translate(4 171)">
<title>Graphical Class Hierarchy</title>
<!-- Node0 -->
<g id="Node000000" class="node">
<title>Node0</title>
<g id="a_Node000000"><a xlink:href="structACG.html" target="_top" xlink:title="Unknown.">
<polygon fill="white" stroke="#666666" points="38,-93 0,-93 0,-74 38,-74 38,-93"/>
<text text-anchor="middle" x="19" y="-81" font-family="Helvetica,sans-Serif" font-size="10.00">ACG</text>
</a>
</g>
</g>
<!-- Node1 -->
<g id="Node000001" class="node">
<title>Node1</title>
<g id="a_Node000001"><a xlink:href="structACGB.html" target="_top" xlink:title="Unknown.">
<polygon fill="white" stroke="#666666" points="124,-167 80,-167 80,-148 124,-148 124,-167"/>
<text text-anchor="middle" x="102" y="-155" font-family="Helvetica,sans-Serif" font-size="10.00">ACGB</text>
</a>
</g>
</g>
<!-- Node0&#45;&gt;Node1 -->
<g id="edge1_Node000000_Node000001" class="edge">
<title>Node0&#45;&gt;Node1</title>
<g id="a_edge1_Node000000_Node000001"><a xlink:title=" ">
<path fill="none" stroke="#63b8ff" d="M35,-100.91C45.37,-112.48 59.82,-127.66 74,-139.5 77.55,-142.46 81.59,-145.37 85.45,-147.96"/>
<polygon fill="#63b8ff" stroke="#63b8ff" points="37.46,-98.42 28.22,-93.23 32.21,-103.05 37.46,-98.42"/>
</a>
</g>
</g>
<!-- Node2 -->
<g id="Node000002" class="node">
<title>Node2</title>
<g id="a_Node000002"><a xlink:href="structACGBLP.html" target="_top" xlink:title="Unknown.">
<polygon fill="white" stroke="#666666" points="130,-130 74,-130 74,-111 130,-111 130,-130"/>
<text text-anchor="middle" x="102" y="-118" font-family="Helvetica,sans-Serif" font-size="10.00">ACGBLP</text>
</a>
</g>
</g>
<!-- Node0&#45;&gt;Node2 -->
<g id="edge2_Node000000_Node000002" class="edge">
<title>Node0&#45;&gt;Node2</title>
<g id="a_edge2_Node000000_Node000002"><a xlink:title=" ">
<path fill="none" stroke="#63b8ff" d="M47.67,-96.14C58.3,-100.99 70.24,-106.45 80.12,-110.96"/>
<polygon fill="#63b8ff" stroke="#63b8ff" points="48.93,-92.87 38.38,-91.9 46.02,-99.23 48.93,-92.87"/>
</a>
</g>
</g>
<!-- Node3 -->
<g id="Node000003" class="node">
<title>Node3</title>
<g id="a_Node000003"><a xlink:href="structACGBLT.html" target="_top" xlink:title="Unknown.">
<polygon fill="white" stroke="#666666" points="129.5,-93 74.5,-93 74.5,-74 129.5,-74 129.5,-93"/>
<text text-anchor="middle" x="102" y="-81" font-family="Helvetica,sans-Serif" font-size="10.00">ACGBLT</text>
</a>
</g>
</g>
<!-- Node0&#45;&gt;Node3 -->
<g id="edge3_Node000000_Node000003" class="edge">
<title>Node0&#45;&gt;Node3</title>
<g id="a_edge3_Node000000_Node000003"><a xlink:title=" ">
<path fill="none" stroke="#63b8ff" d="M48.51,-83.5C56.93,-83.5 66.11,-83.5 74.4,-83.5"/>
<polygon fill="#63b8ff" stroke="#63b8ff" points="48.38,-80 38.38,-83.5 48.38,-87 48.38,-80"/>
</a>
</g>
</g>
<!-- Node4 -->
<g id="Node000004" class="node">
<title>Node4</title>
<g id="a_Node000004"><a xlink:href="structACGBW.html" target="_top" xlink:title="Unknown.">
<polygon fill="white" stroke="#666666" points="129,-56 75,-56 75,-37 129,-37 129,-56"/>
<text text-anchor="middle" x="102" y="-44" font-family="Helvetica,sans-Serif" font-size="10.00">ACGBW</text>
</a>
</g>
</g>
<!-- Node0&#45;&gt;Node4 -->
<g id="edge4_Node000000_Node000004" class="edge">
<title>Node0&#45;&gt;Node4</title>
<g id="a_edge4_Node000000_Node000004"><a xlink:title=" ">
<path fill="none" stroke="#63b8ff" d="M47.67,-70.86C58.3,-66.01 70.24,-60.55 80.12,-56.04"/>
<polygon fill="#63b8ff" stroke="#63b8ff" points="46.02,-67.77 38.38,-75.1 48.93,-74.13 46.02,-67.77"/>
</a>
</g>
</g>
<!-- Node5 -->
<g id="Node000005" class="node">
<title>Node5</title>
<g id="a_Node000005"><a xlink:href="structACGL.html" target="_top" xlink:title="Unknown.">
<polygon fill="white" stroke="#666666" points="123.5,-19 80.5,-19 80.5,0 123.5,0 123.5,-19"/>
<text text-anchor="middle" x="102" y="-7" font-family="Helvetica,sans-Serif" font-size="10.00">ACGL</text>
</a>
</g>
</g>
<!-- Node0&#45;&gt;Node5 -->
<g id="edge5_Node000000_Node000005" class="edge">
<title>Node0&#45;&gt;Node5</title>
<g id="a_edge5_Node000000_Node000005"><a xlink:title=" ">
<path fill="none" stroke="#63b8ff" d="M35.51,-66.14C45.92,-54.89 60.21,-40.21 74,-28.5 77.85,-25.24 82.24,-21.97 86.35,-19.09"/>
<polygon fill="#63b8ff" stroke="#63b8ff" points="32.83,-63.88 28.68,-73.63 38.01,-68.6 32.83,-63.88"/>
</a>
</g>
</g>
</g>
</svg>
