<?xml version="1.0" encoding="UTF-8" standalone="no"?>
<!DOCTYPE svg PUBLIC "-//W3C//DTD SVG 1.1//EN"
 "http://www.w3.org/Graphics/SVG/1.1/DTD/svg11.dtd">
<!-- Generated by graphviz version 2.43.0 (0)
 -->
<!-- Title: include/intrinsics.h Pages: 1 -->
<svg width="184pt" height="82pt"
 viewBox="0.00 0.00 183.50 82.00" xmlns="http://www.w3.org/2000/svg" xmlns:xlink="http://www.w3.org/1999/xlink">
<g id="graph0" class="graph" transform="scale(1 1) rotate(0) translate(4 78)">
<title>include/intrinsics.h</title>
<!-- Node1 -->
<g id="Node000001" class="node">
<title>Node1</title>
<g id="a_Node000001"><a xlink:title="Hardware intrinsics and inline assembly macros for MIPS/PS2 EE.">
<polygon fill="#999999" stroke="#666666" points="143.5,-74 35.5,-74 35.5,-55 143.5,-55 143.5,-74"/>
<text text-anchor="middle" x="89.5" y="-62" font-family="Helvetica,sans-Serif" font-size="10.00">include/intrinsics.h</text>
</a>
</g>
</g>
<!-- Node2 -->
<g id="Node000002" class="node">
<title>Node2</title>
<g id="a_Node000002"><a xlink:href="clock_8c.html" target="_top" xlink:title=" ">
<polygon fill="white" stroke="#666666" points="83,-19 0,-19 0,0 83,0 83,-19"/>
<text text-anchor="middle" x="41.5" y="-7" font-family="Helvetica,sans-Serif" font-size="10.00">src/P2/clock.c</text>
</a>
</g>
</g>
<!-- Node1&#45;&gt;Node2 -->
<g id="edge1_Node000001_Node000002" class="edge">
<title>Node1&#45;&gt;Node2</title>
<g id="a_edge1_Node000001_Node000002"><a xlink:title=" ">
<path fill="none" stroke="#63b8ff" d="M74.77,-47.24C66.36,-37.95 56.15,-26.68 49.28,-19.09"/>
<polygon fill="#63b8ff" stroke="#63b8ff" points="72.27,-49.69 81.57,-54.75 77.46,-44.99 72.27,-49.69"/>
</a>
</g>
</g>
<!-- Node3 -->
<g id="Node000003" class="node">
<title>Node3</title>
<g id="a_Node000003"><a xlink:href="vec_8c.html" target="_top" xlink:title=" ">
<polygon fill="white" stroke="#666666" points="175.5,-19 101.5,-19 101.5,0 175.5,0 175.5,-19"/>
<text text-anchor="middle" x="138.5" y="-7" font-family="Helvetica,sans-Serif" font-size="10.00">src/P2/vec.c</text>
</a>
</g>
</g>
<!-- Node1&#45;&gt;Node3 -->
<g id="edge2_Node000001_Node000003" class="edge">
<title>Node1&#45;&gt;Node3</title>
<g id="a_edge2_Node000001_Node000003"><a xlink:title=" ">
<path fill="none" stroke="#63b8ff" d="M104.53,-47.24C113.12,-37.95 123.54,-26.68 130.56,-19.09"/>
<polygon fill="#63b8ff" stroke="#63b8ff" points="101.81,-45.03 97.59,-54.75 106.95,-49.78 101.81,-45.03"/>
</a>
</g>
</g>
</g>
</svg>
