<?xml version="1.0" encoding="UTF-8" standalone="no"?>
<!DOCTYPE svg PUBLIC "-//W3C//DTD SVG 1.1//EN"
 "http://www.w3.org/Graphics/SVG/1.1/DTD/svg11.dtd">
<!-- Generated by graphviz version 2.43.0 (0)
 -->
<!-- Title: src/P2/jt2.c Pages: 1 -->
<!--zoomable 588 -->
<svg id="main" version="1.1" xmlns="http://www.w3.org/2000/svg" xmlns:xlink="http://www.w3.org/1999/xlink" xml:space="preserve" onload="init(evt)">
<style type="text/css"><![CDATA[
.edge:hover path { stroke: red; }
.edge:hover polygon { stroke: red; fill: red; }
]]></style>
<script type="text/javascript"><![CDATA[
var edges = document.getElementsByTagName('g');
if (edges && edges.length) {
  for (var i=0;i<edges.length;i++) {
    if (edges[i].id.substr(0,4)=='edge') {
      edges[i].setAttribute('class','edge');
    }
  }
}
]]></script>
        <defs>
                <circle id="rim" cx="0" cy="0" r="7"/>
                <circle id="rim2" cx="0" cy="0" r="3.5"/>
                <g id="zoomPlus">
                        <use xlink:href="#rim" fill="#404040">
                                <set attributeName="fill" to="#808080" begin="zoomplus.mouseover" end="zoomplus.mouseout"/>
                        </use>
                        <path d="M-4,0h8M0,-4v8" fill="none" stroke="white" stroke-width="1.5" pointer-events="none"/>
                </g>
                <g id="zoomMin">
                        <use xlink:href="#rim" fill="#404040">
                                <set attributeName="fill" to="#808080" begin="zoomminus.mouseover" end="zoomminus.mouseout"/>
                        </use>
                        <path d="M-4,0h8" fill="none" stroke="white" stroke-width="1.5" pointer-events="none"/>
                </g>
                <g id="dirArrow">
                        <path fill="none" stroke="white" stroke-width="1.5" d="M0,-3.0v7 M-2.5,-0.5L0,-3.0L2.5,-0.5"/>
                </g>
               <g id="resetDef">
                       <use xlink:href="#rim2" fill="#404040">
                               <set attributeName="fill" to="#808080" begin="reset.mouseover" end="reset.mouseout"/>
                       </use>
               </g>
        </defs>

<script type="text/javascript">
var viewWidth = 609;
var viewHeight = 588;
var sectionId = 'dynsection-0';
</script>
<script xlink:href="svgpan.js"/>
<svg id="graph" class="graph">
<g id="viewport">
<title>src/P2/jt2.c</title>
<polygon fill="white" stroke="transparent" points="-4,4 -4,-584 604.95,-584 604.95,4 -4,4"/>
<!-- Node1 -->
<g id="node1" class="node">
<title>Node1</title>
<g id="a_node1"><a xlink:title=" ">
<polygon fill="#bfbfbf" stroke="black" points="222.95,-560.5 222.95,-579.5 292.95,-579.5 292.95,-560.5 222.95,-560.5"/>
<text text-anchor="middle" x="257.95" y="-567.5" font-family="Helvetica,sans-Serif" font-size="10.00">src/P2/jt2.c</text>
</a>
</g>
</g>
<!-- Node2 -->
<g id="node2" class="node">
<title>Node2</title>
<g id="a_node2"><a xlink:href="jt_8h.html" target="_top" xlink:title="Sly entity.">
<polygon fill="white" stroke="black" points="241.95,-504.5 241.95,-523.5 273.95,-523.5 273.95,-504.5 241.95,-504.5"/>
<text text-anchor="middle" x="257.95" y="-511.5" font-family="Helvetica,sans-Serif" font-size="10.00">jt.h</text>
</a>
</g>
</g>
<!-- Node1&#45;&gt;Node2 -->
<g id="edge1" class="edge">
<title>Node1&#45;&gt;Node2</title>
<path fill="none" stroke="midnightblue" d="M257.95,-560.08C257.95,-553.01 257.95,-542.86 257.95,-533.99"/>
<polygon fill="midnightblue" stroke="midnightblue" points="261.45,-533.75 257.95,-523.75 254.45,-533.75 261.45,-533.75"/>
</g>
<!-- Node3 -->
<g id="node3" class="node">
<title>Node3</title>
<g id="a_node3"><a xlink:href="common_8h.html" target="_top" xlink:title="Common header file.">
<polygon fill="white" stroke="black" points="318.95,-56.5 318.95,-75.5 386.95,-75.5 386.95,-56.5 318.95,-56.5"/>
<text text-anchor="middle" x="352.95" y="-63.5" font-family="Helvetica,sans-Serif" font-size="10.00">common.h</text>
</a>
</g>
</g>
<!-- Node2&#45;&gt;Node3 -->
<g id="edge2" class="edge">
<title>Node2&#45;&gt;Node3</title>
<path fill="none" stroke="midnightblue" d="M241.88,-513.45C185.61,-514.13 0.95,-508.32 0.95,-403 0.95,-403 0.95,-403 0.95,-177 0.95,-146.9 -2.86,-131.63 19.95,-112 62.33,-75.55 227.88,-68.45 308.44,-67.19"/>
<polygon fill="midnightblue" stroke="midnightblue" points="308.8,-70.69 318.76,-67.05 308.71,-63.69 308.8,-70.69"/>
</g>
<!-- Node8 -->
<g id="node8" class="node">
<title>Node8</title>
<g id="a_node8"><a xlink:href="step_8h.html" target="_top" xlink:title=" ">
<polygon fill="white" stroke="black" points="504.45,-448.5 504.45,-467.5 551.45,-467.5 551.45,-448.5 504.45,-448.5"/>
<text text-anchor="middle" x="527.95" y="-455.5" font-family="Helvetica,sans-Serif" font-size="10.00">step.h</text>
</a>
</g>
</g>
<!-- Node2&#45;&gt;Node8 -->
<g id="edge7" class="edge">
<title>Node2&#45;&gt;Node8</title>
<path fill="none" stroke="midnightblue" d="M274.04,-509.78C317.09,-501.17 435.67,-477.46 494.27,-465.74"/>
<polygon fill="midnightblue" stroke="midnightblue" points="495.03,-469.15 504.15,-463.76 493.66,-462.29 495.03,-469.15"/>
</g>
<!-- Node4 -->
<g id="node4" class="node">
<title>Node4</title>
<g id="a_node4"><a xlink:href="include__asm_8h.html" target="_top" xlink:title=" ">
<polygon fill="white" stroke="black" points="151.45,-0.5 151.45,-19.5 238.45,-19.5 238.45,-0.5 151.45,-0.5"/>
<text text-anchor="middle" x="194.95" y="-7.5" font-family="Helvetica,sans-Serif" font-size="10.00">include_asm.h</text>
</a>
</g>
</g>
<!-- Node3&#45;&gt;Node4 -->
<g id="edge3" class="edge">
<title>Node3&#45;&gt;Node4</title>
<path fill="none" stroke="midnightblue" d="M327.92,-56.44C301.34,-47.36 259.15,-32.94 229.43,-22.78"/>
<polygon fill="midnightblue" stroke="midnightblue" points="230.47,-19.44 219.87,-19.52 228.2,-26.06 230.47,-19.44"/>
</g>
<!-- Node5 -->
<g id="node5" class="node">
<title>Node5</title>
<g id="a_node5"><a xlink:href="include__rodata_8h.html" target="_top" xlink:title=" ">
<polygon fill="white" stroke="black" points="256.95,-0.5 256.95,-19.5 354.95,-19.5 354.95,-0.5 256.95,-0.5"/>
<text text-anchor="middle" x="305.95" y="-7.5" font-family="Helvetica,sans-Serif" font-size="10.00">include_rodata.h</text>
</a>
</g>
</g>
<!-- Node3&#45;&gt;Node5 -->
<g id="edge4" class="edge">
<title>Node3&#45;&gt;Node5</title>
<path fill="none" stroke="midnightblue" d="M345.19,-56.08C338.42,-48.3 328.41,-36.8 320.2,-27.37"/>
<polygon fill="midnightblue" stroke="midnightblue" points="322.78,-25 313.57,-19.75 317.5,-29.59 322.78,-25"/>
</g>
<!-- Node6 -->
<g id="node6" class="node">
<title>Node6</title>
<g id="a_node6"><a xlink:href="types_8h.html" target="_top" xlink:title="Common types used across the codebase.">
<polygon fill="white" stroke="black" points="373.45,-0.5 373.45,-19.5 426.45,-19.5 426.45,-0.5 373.45,-0.5"/>
<text text-anchor="middle" x="399.95" y="-7.5" font-family="Helvetica,sans-Serif" font-size="10.00">types.h</text>
</a>
</g>
</g>
<!-- Node3&#45;&gt;Node6 -->
<g id="edge5" class="edge">
<title>Node3&#45;&gt;Node6</title>
<path fill="none" stroke="midnightblue" d="M360.72,-56.08C367.49,-48.3 377.5,-36.8 385.71,-27.37"/>
<polygon fill="midnightblue" stroke="midnightblue" points="388.41,-29.59 392.34,-19.75 383.13,-25 388.41,-29.59"/>
</g>
<!-- Node7 -->
<g id="node7" class="node">
<title>Node7</title>
<g id="a_node7"><a xlink:href="vtables_8h.html" target="_top" xlink:title="Manually crafted vtables for various structs.">
<polygon fill="white" stroke="black" points="444.95,-0.5 444.95,-19.5 506.95,-19.5 506.95,-0.5 444.95,-0.5"/>
<text text-anchor="middle" x="475.95" y="-7.5" font-family="Helvetica,sans-Serif" font-size="10.00">vtables.h</text>
</a>
</g>
</g>
<!-- Node3&#45;&gt;Node7 -->
<g id="edge6" class="edge">
<title>Node3&#45;&gt;Node7</title>
<path fill="none" stroke="midnightblue" d="M372.44,-56.44C392.6,-47.6 424.28,-33.69 447.29,-23.59"/>
<polygon fill="midnightblue" stroke="midnightblue" points="448.81,-26.74 456.56,-19.52 445.99,-20.33 448.81,-26.74"/>
</g>
<!-- Node8&#45;&gt;Node3 -->
<g id="edge8" class="edge">
<title>Node8&#45;&gt;Node3</title>
<path fill="none" stroke="midnightblue" d="M539.04,-448.33C559.46,-431.29 600.95,-391.24 600.95,-347 600.95,-347 600.95,-347 600.95,-177 600.95,-88.9 468.55,-70.82 397.23,-67.47"/>
<polygon fill="midnightblue" stroke="midnightblue" points="397.31,-63.97 387.18,-67.07 397.03,-70.96 397.31,-63.97"/>
</g>
<!-- Node9 -->
<g id="node9" class="node">
<title>Node9</title>
<g id="a_node9"><a xlink:href="po_8h.html" target="_top" xlink:title="Player object.">
<polygon fill="white" stroke="black" points="508.95,-392.5 508.95,-411.5 546.95,-411.5 546.95,-392.5 508.95,-392.5"/>
<text text-anchor="middle" x="527.95" y="-399.5" font-family="Helvetica,sans-Serif" font-size="10.00">po.h</text>
</a>
</g>
</g>
<!-- Node8&#45;&gt;Node9 -->
<g id="edge9" class="edge">
<title>Node8&#45;&gt;Node9</title>
<path fill="none" stroke="midnightblue" d="M527.95,-448.08C527.95,-441.01 527.95,-430.86 527.95,-421.99"/>
<polygon fill="midnightblue" stroke="midnightblue" points="531.45,-421.75 527.95,-411.75 524.45,-421.75 531.45,-421.75"/>
</g>
<!-- Node9&#45;&gt;Node3 -->
<g id="edge10" class="edge">
<title>Node9&#45;&gt;Node3</title>
<path fill="none" stroke="midnightblue" d="M532.67,-392.46C542.23,-374.34 562.95,-330.48 562.95,-291 562.95,-291 562.95,-291 562.95,-177 562.95,-102.88 459.04,-78.61 397.41,-70.73"/>
<polygon fill="midnightblue" stroke="midnightblue" points="397.5,-67.22 387.16,-69.52 396.68,-74.17 397.5,-67.22"/>
</g>
<!-- Node10 -->
<g id="node10" class="node">
<title>Node10</title>
<g id="a_node10"><a xlink:href="so_8h.html" target="_top" xlink:title="Scene objects.">
<polygon fill="white" stroke="black" points="483.45,-336.5 483.45,-355.5 520.45,-355.5 520.45,-336.5 483.45,-336.5"/>
<text text-anchor="middle" x="501.95" y="-343.5" font-family="Helvetica,sans-Serif" font-size="10.00">so.h</text>
</a>
</g>
</g>
<!-- Node9&#45;&gt;Node10 -->
<g id="edge11" class="edge">
<title>Node9&#45;&gt;Node10</title>
<path fill="none" stroke="midnightblue" d="M523.66,-392.08C520.1,-384.69 514.93,-373.95 510.53,-364.81"/>
<polygon fill="midnightblue" stroke="midnightblue" points="513.66,-363.24 506.17,-355.75 507.35,-366.28 513.66,-363.24"/>
</g>
<!-- Node11 -->
<g id="node11" class="node">
<title>Node11</title>
<g id="a_node11"><a xlink:href="alo_8h.html" target="_top" xlink:title=" ">
<polygon fill="white" stroke="black" points="471.45,-280.5 471.45,-299.5 512.45,-299.5 512.45,-280.5 471.45,-280.5"/>
<text text-anchor="middle" x="491.95" y="-287.5" font-family="Helvetica,sans-Serif" font-size="10.00">alo.h</text>
</a>
</g>
</g>
<!-- Node10&#45;&gt;Node11 -->
<g id="edge12" class="edge">
<title>Node10&#45;&gt;Node11</title>
<path fill="none" stroke="midnightblue" d="M500.3,-336.08C498.98,-328.93 497.07,-318.64 495.42,-309.69"/>
<polygon fill="midnightblue" stroke="midnightblue" points="498.84,-308.95 493.58,-299.75 491.95,-310.22 498.84,-308.95"/>
</g>
<!-- Node11&#45;&gt;Node3 -->
<g id="edge13" class="edge">
<title>Node11&#45;&gt;Node3</title>
<path fill="none" stroke="midnightblue" d="M495.08,-280.49C504.92,-252.05 531.96,-159.47 485.95,-112 462.59,-87.88 425.86,-76.69 396.91,-71.5"/>
<polygon fill="midnightblue" stroke="midnightblue" points="397.46,-68.04 387.03,-69.9 396.34,-74.95 397.46,-68.04"/>
</g>
<!-- Node12 -->
<g id="node12" class="node">
<title>Node12</title>
<g id="a_node12"><a xlink:href="lo_8h.html" target="_top" xlink:title="Level objects.">
<polygon fill="white" stroke="black" points="330.45,-224.5 330.45,-243.5 365.45,-243.5 365.45,-224.5 330.45,-224.5"/>
<text text-anchor="middle" x="347.95" y="-231.5" font-family="Helvetica,sans-Serif" font-size="10.00">lo.h</text>
</a>
</g>
</g>
<!-- Node11&#45;&gt;Node12 -->
<g id="edge14" class="edge">
<title>Node11&#45;&gt;Node12</title>
<path fill="none" stroke="midnightblue" d="M471.32,-281.26C446.11,-271.81 403.37,-255.78 375.4,-245.29"/>
<polygon fill="midnightblue" stroke="midnightblue" points="376.42,-241.94 365.82,-241.7 373.96,-248.49 376.42,-241.94"/>
</g>
<!-- Node16 -->
<g id="node16" class="node">
<title>Node16</title>
<g id="a_node16"><a xlink:href="dl_8h.html" target="_top" xlink:title="Doubly&#45;linked list.">
<polygon fill="white" stroke="black" points="459.45,-168.5 459.45,-187.5 494.45,-187.5 494.45,-168.5 459.45,-168.5"/>
<text text-anchor="middle" x="476.95" y="-175.5" font-family="Helvetica,sans-Serif" font-size="10.00">dl.h</text>
</a>
</g>
</g>
<!-- Node11&#45;&gt;Node16 -->
<g id="edge31" class="edge">
<title>Node11&#45;&gt;Node16</title>
<path fill="none" stroke="midnightblue" d="M490.78,-280.37C488.36,-262.62 482.77,-221.67 479.49,-197.6"/>
<polygon fill="midnightblue" stroke="midnightblue" points="482.95,-197.03 478.13,-187.59 476.01,-197.97 482.95,-197.03"/>
</g>
<!-- Node12&#45;&gt;Node3 -->
<g id="edge15" class="edge">
<title>Node12&#45;&gt;Node3</title>
<path fill="none" stroke="midnightblue" d="M330.43,-227.24C285.25,-211.47 170.94,-165.18 209.95,-112 232.32,-81.51 275.35,-71.14 308.39,-67.86"/>
<polygon fill="midnightblue" stroke="midnightblue" points="309.04,-71.32 318.73,-67.03 308.48,-64.35 309.04,-71.32"/>
</g>
<!-- Node13 -->
<g id="node13" class="node">
<title>Node13</title>
<g id="a_node13"><a xlink:href="oid_8h.html" target="_top" xlink:title="Object IDs.">
<polygon fill="white" stroke="black" points="417.45,-112.5 417.45,-131.5 458.45,-131.5 458.45,-112.5 417.45,-112.5"/>
<text text-anchor="middle" x="437.95" y="-119.5" font-family="Helvetica,sans-Serif" font-size="10.00">oid.h</text>
</a>
</g>
</g>
<!-- Node12&#45;&gt;Node13 -->
<g id="edge16" class="edge">
<title>Node12&#45;&gt;Node13</title>
<path fill="none" stroke="midnightblue" d="M362.03,-224.42C374.52,-216.26 392.65,-203.02 404.95,-188 416.58,-173.8 425.63,-154.83 431.28,-141.05"/>
<polygon fill="midnightblue" stroke="midnightblue" points="434.56,-142.27 434.93,-131.69 428.04,-139.73 434.56,-142.27"/>
</g>
<!-- Node14 -->
<g id="node14" class="node">
<title>Node14</title>
<g id="a_node14"><a xlink:href="basic_8h.html" target="_top" xlink:title="Basic object.">
<polygon fill="white" stroke="black" points="111.45,-168.5 111.45,-187.5 162.45,-187.5 162.45,-168.5 111.45,-168.5"/>
<text text-anchor="middle" x="136.95" y="-175.5" font-family="Helvetica,sans-Serif" font-size="10.00">basic.h</text>
</a>
</g>
</g>
<!-- Node12&#45;&gt;Node14 -->
<g id="edge18" class="edge">
<title>Node12&#45;&gt;Node14</title>
<path fill="none" stroke="midnightblue" d="M330.33,-228.49C295.7,-219.63 218.22,-199.8 172.54,-188.11"/>
<polygon fill="midnightblue" stroke="midnightblue" points="173.31,-184.69 162.75,-185.6 171.57,-191.47 173.31,-184.69"/>
</g>
<!-- Node12&#45;&gt;Node16 -->
<g id="edge22" class="edge">
<title>Node12&#45;&gt;Node16</title>
<path fill="none" stroke="midnightblue" d="M365.62,-225.6C387.31,-216.53 424.32,-201.03 449.67,-190.42"/>
<polygon fill="midnightblue" stroke="midnightblue" points="451.21,-193.57 459.09,-186.48 448.51,-187.11 451.21,-193.57"/>
</g>
<!-- Node17 -->
<g id="node17" class="node">
<title>Node17</title>
<g id="a_node17"><a xlink:href="sw_8h.html" target="_top" xlink:title="Scene world?">
<polygon fill="white" stroke="black" points="218.95,-112.5 218.95,-131.5 256.95,-131.5 256.95,-112.5 218.95,-112.5"/>
<text text-anchor="middle" x="237.95" y="-119.5" font-family="Helvetica,sans-Serif" font-size="10.00">sw.h</text>
</a>
</g>
</g>
<!-- Node12&#45;&gt;Node17 -->
<g id="edge25" class="edge">
<title>Node12&#45;&gt;Node17</title>
<path fill="none" stroke="midnightblue" d="M339.32,-224.37C320.85,-205.89 277.25,-162.29 253.7,-138.74"/>
<polygon fill="midnightblue" stroke="midnightblue" points="256.09,-136.19 246.55,-131.59 251.14,-141.14 256.09,-136.19"/>
</g>
<!-- Node18 -->
<g id="node18" class="node">
<title>Node18</title>
<g id="a_node18"><a xlink:href="frame_8h.html" target="_top" xlink:title=" ">
<polygon fill="white" stroke="black" points="274.95,-112.5 274.95,-131.5 360.95,-131.5 360.95,-112.5 274.95,-112.5"/>
<text text-anchor="middle" x="317.95" y="-119.5" font-family="Helvetica,sans-Serif" font-size="10.00">splice/frame.h</text>
</a>
</g>
</g>
<!-- Node12&#45;&gt;Node18 -->
<g id="edge27" class="edge">
<title>Node12&#45;&gt;Node18</title>
<path fill="none" stroke="midnightblue" d="M345.6,-224.37C340.74,-206.54 329.49,-165.3 322.94,-141.27"/>
<polygon fill="midnightblue" stroke="midnightblue" points="326.31,-140.32 320.3,-131.59 319.55,-142.16 326.31,-140.32"/>
</g>
<!-- Node19 -->
<g id="node19" class="node">
<title>Node19</title>
<g id="a_node19"><a xlink:href="mq_8h.html" target="_top" xlink:title="Message queue.">
<polygon fill="white" stroke="black" points="355.45,-168.5 355.45,-187.5 396.45,-187.5 396.45,-168.5 355.45,-168.5"/>
<text text-anchor="middle" x="375.95" y="-175.5" font-family="Helvetica,sans-Serif" font-size="10.00">mq.h</text>
</a>
</g>
</g>
<!-- Node12&#45;&gt;Node19 -->
<g id="edge29" class="edge">
<title>Node12&#45;&gt;Node19</title>
<path fill="none" stroke="midnightblue" d="M352.58,-224.08C356.41,-216.69 361.98,-205.95 366.72,-196.81"/>
<polygon fill="midnightblue" stroke="midnightblue" points="369.92,-198.24 371.42,-187.75 363.71,-195.02 369.92,-198.24"/>
</g>
<!-- Node13&#45;&gt;Node3 -->
<g id="edge17" class="edge">
<title>Node13&#45;&gt;Node3</title>
<path fill="none" stroke="midnightblue" d="M424.3,-112.32C411.04,-103.9 390.69,-90.97 375.11,-81.07"/>
<polygon fill="midnightblue" stroke="midnightblue" points="376.89,-78.06 366.58,-75.65 373.14,-83.97 376.89,-78.06"/>
</g>
<!-- Node14&#45;&gt;Node3 -->
<g id="edge19" class="edge">
<title>Node14&#45;&gt;Node3</title>
<path fill="none" stroke="midnightblue" d="M139.84,-168.36C144.99,-154.3 157.11,-126.61 176.95,-112 215.49,-83.62 270.17,-73.08 308.33,-69.19"/>
<polygon fill="midnightblue" stroke="midnightblue" points="308.98,-72.65 318.62,-68.26 308.35,-65.68 308.98,-72.65"/>
</g>
<!-- Node15 -->
<g id="node15" class="node">
<title>Node15</title>
<g id="a_node15"><a xlink:href="sidebag_8h.html" target="_top" xlink:title="Sidebag for splice.">
<polygon fill="white" stroke="black" points="29.45,-112.5 29.45,-131.5 124.45,-131.5 124.45,-112.5 29.45,-112.5"/>
<text text-anchor="middle" x="76.95" y="-119.5" font-family="Helvetica,sans-Serif" font-size="10.00">splice/sidebag.h</text>
</a>
</g>
</g>
<!-- Node14&#45;&gt;Node15 -->
<g id="edge20" class="edge">
<title>Node14&#45;&gt;Node15</title>
<path fill="none" stroke="midnightblue" d="M127.31,-168.32C118.44,-160.34 105.08,-148.31 94.35,-138.65"/>
<polygon fill="midnightblue" stroke="midnightblue" points="96.54,-135.92 86.77,-131.83 91.86,-141.13 96.54,-135.92"/>
</g>
<!-- Node15&#45;&gt;Node3 -->
<g id="edge21" class="edge">
<title>Node15&#45;&gt;Node3</title>
<path fill="none" stroke="midnightblue" d="M120.69,-112.44C172.13,-102.38 257.05,-85.76 308.71,-75.66"/>
<polygon fill="midnightblue" stroke="midnightblue" points="309.44,-79.08 318.58,-73.73 308.1,-72.21 309.44,-79.08"/>
</g>
<!-- Node16&#45;&gt;Node3 -->
<g id="edge23" class="edge">
<title>Node16&#45;&gt;Node3</title>
<path fill="none" stroke="midnightblue" d="M478.14,-168.36C479.49,-154.81 480.06,-128.42 466.95,-112 449.86,-90.59 421.12,-79.33 396.78,-73.43"/>
<polygon fill="midnightblue" stroke="midnightblue" points="397.53,-70.01 387.01,-71.29 396.02,-76.85 397.53,-70.01"/>
</g>
<!-- Node16&#45;&gt;Node13 -->
<g id="edge24" class="edge">
<title>Node16&#45;&gt;Node13</title>
<path fill="none" stroke="midnightblue" d="M470.51,-168.08C465.01,-160.46 456.92,-149.26 450.19,-139.94"/>
<polygon fill="midnightblue" stroke="midnightblue" points="452.97,-137.81 444.27,-131.75 447.29,-141.91 452.97,-137.81"/>
</g>
<!-- Node17&#45;&gt;Node3 -->
<g id="edge26" class="edge">
<title>Node17&#45;&gt;Node3</title>
<path fill="none" stroke="midnightblue" d="M256.18,-112.44C274.85,-103.68 304.11,-89.94 325.57,-79.86"/>
<polygon fill="midnightblue" stroke="midnightblue" points="327.25,-82.93 334.82,-75.52 324.28,-76.6 327.25,-82.93"/>
</g>
<!-- Node18&#45;&gt;Node3 -->
<g id="edge28" class="edge">
<title>Node18&#45;&gt;Node3</title>
<path fill="none" stroke="midnightblue" d="M323.73,-112.08C328.63,-104.53 335.78,-93.49 341.79,-84.23"/>
<polygon fill="midnightblue" stroke="midnightblue" points="344.78,-86.05 347.28,-75.75 338.91,-82.24 344.78,-86.05"/>
</g>
<!-- Node19&#45;&gt;Node3 -->
<g id="edge30" class="edge">
<title>Node19&#45;&gt;Node3</title>
<path fill="none" stroke="midnightblue" d="M375.89,-168.47C375.64,-155.94 374.54,-131.88 369.95,-112 367.87,-102.95 364.38,-93.26 361.11,-85.21"/>
<polygon fill="midnightblue" stroke="midnightblue" points="364.22,-83.57 357.07,-75.75 357.78,-86.32 364.22,-83.57"/>
</g>
</g>
</svg>
        <g id="navigator" transform="translate(0 0)" fill="#404254">
                <rect fill="#f2f5e9" fill-opacity="0.5" stroke="#606060" stroke-width=".5" x="0" y="0" width="60" height="60"/>
                <use id="zoomplus" xlink:href="#zoomPlus" x="17" y="9" onmousedown="handleZoom(evt,'in')"/>
                <use id="zoomminus" xlink:href="#zoomMin" x="42" y="9" onmousedown="handleZoom(evt,'out')"/>
                <use id="reset" xlink:href="#resetDef" x="30" y="36" onmousedown="handleReset()"/>
                <g id="arrowUp" xlink:href="#dirArrow" transform="translate(30 24)" onmousedown="handlePan(0,-1)">
                  <use xlink:href="#rim" fill="#404040">
                        <set attributeName="fill" to="#808080" begin="arrowUp.mouseover" end="arrowUp.mouseout"/>
                  </use>
                  <path fill="none" stroke="white" stroke-width="1.5" d="M0,-3.0v7 M-2.5,-0.5L0,-3.0L2.5,-0.5"/>
                </g>
                <g id="arrowRight" xlink:href="#dirArrow" transform="rotate(90) translate(36 -43)" onmousedown="handlePan(1,0)">
                  <use xlink:href="#rim" fill="#404040">
                        <set attributeName="fill" to="#808080" begin="arrowRight.mouseover" end="arrowRight.mouseout"/>
                  </use>
                  <path fill="none" stroke="white" stroke-width="1.5" d="M0,-3.0v7 M-2.5,-0.5L0,-3.0L2.5,-0.5"/>
                </g>
                <g id="arrowDown" xlink:href="#dirArrow" transform="rotate(180) translate(-30 -48)" onmousedown="handlePan(0,1)">
                  <use xlink:href="#rim" fill="#404040">
                        <set attributeName="fill" to="#808080" begin="arrowDown.mouseover" end="arrowDown.mouseout"/>
                  </use>
                  <path fill="none" stroke="white" stroke-width="1.5" d="M0,-3.0v7 M-2.5,-0.5L0,-3.0L2.5,-0.5"/>
                </g>
                <g id="arrowLeft" xlink:href="#dirArrow" transform="rotate(270) translate(-36 17)" onmousedown="handlePan(-1,0)">
                  <use xlink:href="#rim" fill="#404040">
                        <set attributeName="fill" to="#808080" begin="arrowLeft.mouseover" end="arrowLeft.mouseout"/>
                  </use>
                  <path fill="none" stroke="white" stroke-width="1.5" d="M0,-3.0v7 M-2.5,-0.5L0,-3.0L2.5,-0.5"/>
                </g>
        </g>
        <svg viewBox="0 0 15 15" width="100%" height="30px" preserveAspectRatio="xMaxYMin meet">
         <g id="arrow_out" transform="scale(0.3 0.3)">
          <a xlink:href="jt2_8c__incl_org.svg" target="_base">
           <rect id="button" ry="5" rx="5" y="6" x="6" height="38" width="38"
                fill="#f2f5e9" fill-opacity="0.5" stroke="#606060" stroke-width="1.0"/>
           <path id="arrow"
             d="M 11.500037,31.436501 C 11.940474,20.09759 22.043105,11.32322 32.158766,21.979434 L 37.068811,17.246167 C 37.068811,17.246167 37.088388,32 37.088388,32 L 22.160133,31.978069 C 22.160133,31.978069 26.997745,27.140456 26.997745,27.140456 C 18.528582,18.264221 13.291696,25.230495 11.500037,31.436501 z"
             style="fill:#404040;"/>
          </a>
         </g>
        </svg>
</svg>
