<?xml version="1.0" encoding="UTF-8" standalone="no"?>
<!DOCTYPE svg PUBLIC "-//W3C//DTD SVG 1.1//EN"
 "http://www.w3.org/Graphics/SVG/1.1/DTD/svg11.dtd">
<!-- Generated by graphviz version 2.43.0 (0)
 -->
<!-- Title: src/P2/keyhole.c Pages: 1 -->
<svg width="883pt" height="522pt"
 viewBox="0.00 0.00 882.65 522.00" xmlns="http://www.w3.org/2000/svg" xmlns:xlink="http://www.w3.org/1999/xlink">
<g id="graph0" class="graph" transform="scale(1 1) rotate(0) translate(4 518)">
<title>src/P2/keyhole.c</title>
<!-- Node1 -->
<g id="Node000001" class="node">
<title>Node1</title>
<g id="a_Node000001"><a xlink:title=" ">
<polygon fill="#999999" stroke="#666666" points="421.15,-514 326.15,-514 326.15,-495 421.15,-495 421.15,-514"/>
<text text-anchor="middle" x="373.65" y="-502" font-family="Helvetica,sans-Serif" font-size="10.00">src/P2/keyhole.c</text>
</a>
</g>
</g>
<!-- Node2 -->
<g id="Node000002" class="node">
<title>Node2</title>
<g id="a_Node000002"><a xlink:href="keyhole_8h.html" target="_top" xlink:title=" ">
<polygon fill="white" stroke="#666666" points="405.65,-459 341.65,-459 341.65,-440 405.65,-440 405.65,-459"/>
<text text-anchor="middle" x="373.65" y="-447" font-family="Helvetica,sans-Serif" font-size="10.00">keyhole.h</text>
</a>
</g>
</g>
<!-- Node1&#45;&gt;Node2 -->
<g id="edge1_Node000001_Node000002" class="edge">
<title>Node1&#45;&gt;Node2</title>
<g id="a_edge1_Node000001_Node000002"><a xlink:title=" ">
<path fill="none" stroke="#63b8ff" d="M373.65,-494.75C373.65,-487.8 373.65,-477.85 373.65,-469.13"/>
<polygon fill="#63b8ff" stroke="#63b8ff" points="377.15,-469.09 373.65,-459.09 370.15,-469.09 377.15,-469.09"/>
</a>
</g>
</g>
<!-- Node3 -->
<g id="Node000003" class="node">
<title>Node3</title>
<g id="a_Node000003"><a xlink:href="bis_8h.html" target="_top" xlink:title="Binary Input Stream.">
<polygon fill="white" stroke="#666666" points="191.65,-404 151.65,-404 151.65,-385 191.65,-385 191.65,-404"/>
<text text-anchor="middle" x="171.65" y="-392" font-family="Helvetica,sans-Serif" font-size="10.00">bis.h</text>
</a>
</g>
</g>
<!-- Node2&#45;&gt;Node3 -->
<g id="edge2_Node000002_Node000003" class="edge">
<title>Node2&#45;&gt;Node3</title>
<g id="a_edge2_Node000002_Node000003"><a xlink:title=" ">
<path fill="none" stroke="#63b8ff" d="M341.64,-440.1C303.2,-430.02 239.23,-413.23 201.69,-403.38"/>
<polygon fill="#63b8ff" stroke="#63b8ff" points="202.4,-399.95 191.84,-400.8 200.63,-406.72 202.4,-399.95"/>
</a>
</g>
</g>
<!-- Node24 -->
<g id="Node000024" class="node">
<title>Node24</title>
<g id="a_Node000024"><a xlink:href="lo_8h.html" target="_top" xlink:title="Level objects.">
<polygon fill="white" stroke="#666666" points="613.15,-129 578.15,-129 578.15,-110 613.15,-110 613.15,-129"/>
<text text-anchor="middle" x="595.65" y="-117" font-family="Helvetica,sans-Serif" font-size="10.00">lo.h</text>
</a>
</g>
</g>
<!-- Node2&#45;&gt;Node24 -->
<g id="edge44_Node000002_Node000024" class="edge">
<title>Node2&#45;&gt;Node24</title>
<g id="a_edge44_Node000002_Node000024"><a xlink:title=" ">
<path fill="none" stroke="#63b8ff" d="M405.68,-446.11C463.33,-439.87 578.65,-417.74 578.65,-340.5 578.65,-340.5 578.65,-340.5 578.65,-228.5 578.65,-196.8 585.88,-160.51 590.91,-139.09"/>
<polygon fill="#63b8ff" stroke="#63b8ff" points="594.38,-139.65 593.35,-129.11 587.58,-137.99 594.38,-139.65"/>
</a>
</g>
</g>
<!-- Node4 -->
<g id="Node000004" class="node">
<title>Node4</title>
<g id="a_Node000004"><a xlink:href="prog_8h.html" target="_top" xlink:title="Progress bar.">
<polygon fill="white" stroke="#666666" points="305.15,-349 258.15,-349 258.15,-330 305.15,-330 305.15,-349"/>
<text text-anchor="middle" x="281.65" y="-337" font-family="Helvetica,sans-Serif" font-size="10.00">prog.h</text>
</a>
</g>
</g>
<!-- Node3&#45;&gt;Node4 -->
<g id="edge3_Node000003_Node000004" class="edge">
<title>Node3&#45;&gt;Node4</title>
<g id="a_edge3_Node000003_Node000004"><a xlink:title=" ">
<path fill="none" stroke="#63b8ff" d="M189.32,-384.98C206.94,-376.5 234.23,-363.35 254.57,-353.54"/>
<polygon fill="#63b8ff" stroke="#63b8ff" points="256.16,-356.66 263.65,-349.17 253.12,-350.36 256.16,-356.66"/>
</a>
</g>
</g>
<!-- Node12 -->
<g id="Node000012" class="node">
<title>Node12</title>
<g id="a_Node000012"><a xlink:href="vec_8h.html" target="_top" xlink:title="Vector math.">
<polygon fill="white" stroke="#666666" points="218.15,-19 175.15,-19 175.15,0 218.15,0 218.15,-19"/>
<text text-anchor="middle" x="196.65" y="-7" font-family="Helvetica,sans-Serif" font-size="10.00">vec.h</text>
</a>
</g>
</g>
<!-- Node3&#45;&gt;Node12 -->
<g id="edge35_Node000003_Node000012" class="edge">
<title>Node3&#45;&gt;Node12</title>
<g id="a_edge35_Node000003_Node000012"><a xlink:title=" ">
<path fill="none" stroke="#63b8ff" d="M172.23,-384.97C172.84,-376.01 173.82,-361.52 174.65,-349 182.71,-227.16 192.15,-80.62 195.44,-29.33"/>
<polygon fill="#63b8ff" stroke="#63b8ff" points="198.95,-29.34 196.09,-19.13 191.96,-28.89 198.95,-29.34"/>
</a>
</g>
</g>
<!-- Node20 -->
<g id="Node000020" class="node">
<title>Node20</title>
<g id="a_Node000020"><a xlink:href="mat_8h.html" target="_top" xlink:title="3x3 and 4x4 matrix types.">
<polygon fill="white" stroke="#666666" points="251.15,-184 206.15,-184 206.15,-165 251.15,-165 251.15,-184"/>
<text text-anchor="middle" x="228.65" y="-172" font-family="Helvetica,sans-Serif" font-size="10.00">mat.h</text>
</a>
</g>
</g>
<!-- Node3&#45;&gt;Node20 -->
<g id="edge36_Node000003_Node000020" class="edge">
<title>Node3&#45;&gt;Node20</title>
<g id="a_edge36_Node000003_Node000020"><a xlink:title=" ">
<path fill="none" stroke="#63b8ff" d="M180.22,-384.79C187.96,-376.38 198.97,-362.89 204.65,-349 226.25,-296.1 229.07,-227.37 229.04,-194.56"/>
<polygon fill="#63b8ff" stroke="#63b8ff" points="232.54,-194.15 228.93,-184.19 225.54,-194.23 232.54,-194.15"/>
</a>
</g>
</g>
<!-- Node28 -->
<g id="Node000028" class="node">
<title>Node28</title>
<g id="a_Node000028"><a xlink:href="clock_8h.html" target="_top" xlink:title="Engine clock.">
<polygon fill="white" stroke="#666666" points="65.15,-349 14.15,-349 14.15,-330 65.15,-330 65.15,-349"/>
<text text-anchor="middle" x="39.65" y="-337" font-family="Helvetica,sans-Serif" font-size="10.00">clock.h</text>
</a>
</g>
</g>
<!-- Node3&#45;&gt;Node28 -->
<g id="edge34_Node000003_Node000028" class="edge">
<title>Node3&#45;&gt;Node28</title>
<g id="a_edge34_Node000003_Node000028"><a xlink:title=" ">
<path fill="none" stroke="#63b8ff" d="M151.6,-385.45C130.08,-376.81 95.62,-362.97 70.61,-352.93"/>
<polygon fill="#63b8ff" stroke="#63b8ff" points="71.79,-349.63 61.2,-349.15 69.18,-356.13 71.79,-349.63"/>
</a>
</g>
</g>
<!-- Node29 -->
<g id="Node000029" class="node">
<title>Node29</title>
<g id="a_Node000029"><a xlink:href="geom_8h.html" target="_top" xlink:title="Geometry.">
<polygon fill="white" stroke="#666666" points="162.15,-239 109.15,-239 109.15,-220 162.15,-220 162.15,-239"/>
<text text-anchor="middle" x="135.65" y="-227" font-family="Helvetica,sans-Serif" font-size="10.00">geom.h</text>
</a>
</g>
</g>
<!-- Node3&#45;&gt;Node29 -->
<g id="edge37_Node000003_Node000029" class="edge">
<title>Node3&#45;&gt;Node29</title>
<g id="a_edge37_Node000003_Node000029"><a xlink:title=" ">
<path fill="none" stroke="#63b8ff" d="M169.71,-384.74C164.07,-359.2 147.56,-284.43 139.78,-249.23"/>
<polygon fill="#63b8ff" stroke="#63b8ff" points="143.17,-248.32 137.59,-239.31 136.33,-249.83 143.17,-248.32"/>
</a>
</g>
</g>
<!-- Node30 -->
<g id="Node000030" class="node">
<title>Node30</title>
<g id="a_Node000030"><a xlink:href="cat_8h.html" target="_top" xlink:title="WAL catalog.">
<polygon fill="white" stroke="#666666" points="124.15,-349 83.15,-349 83.15,-330 124.15,-330 124.15,-349"/>
<text text-anchor="middle" x="103.65" y="-337" font-family="Helvetica,sans-Serif" font-size="10.00">cat.h</text>
</a>
</g>
</g>
<!-- Node3&#45;&gt;Node30 -->
<g id="edge40_Node000003_Node000030" class="edge">
<title>Node3&#45;&gt;Node30</title>
<g id="a_edge40_Node000003_Node000030"><a xlink:title=" ">
<path fill="none" stroke="#63b8ff" d="M160.72,-384.98C150.57,-377.07 135.23,-365.11 123,-355.58"/>
<polygon fill="#63b8ff" stroke="#63b8ff" points="124.81,-352.56 114.77,-349.17 120.51,-358.08 124.81,-352.56"/>
</a>
</g>
</g>
<!-- Node31 -->
<g id="Node000031" class="node">
<title>Node31</title>
<g id="a_Node000031"><a xlink:href="bsp_8h.html" target="_top" xlink:title="Binary Space Partitioning.">
<polygon fill="white" stroke="#666666" points="102.15,-294 59.15,-294 59.15,-275 102.15,-275 102.15,-294"/>
<text text-anchor="middle" x="80.65" y="-282" font-family="Helvetica,sans-Serif" font-size="10.00">bsp.h</text>
</a>
</g>
</g>
<!-- Node3&#45;&gt;Node31 -->
<g id="edge41_Node000003_Node000031" class="edge">
<title>Node3&#45;&gt;Node31</title>
<g id="a_edge41_Node000003_Node000031"><a xlink:title=" ">
<path fill="none" stroke="#63b8ff" d="M151.38,-391.15C110.94,-386.01 22.56,-372.32 4.65,-349 -12.13,-327.17 21.81,-307.81 49.59,-296.36"/>
<polygon fill="#63b8ff" stroke="#63b8ff" points="51.03,-299.56 59.07,-292.66 48.48,-293.04 51.03,-299.56"/>
</a>
</g>
</g>
<!-- Node5 -->
<g id="Node000005" class="node">
<title>Node5</title>
<g id="a_Node000005"><a xlink:href="binoc_8h.html" target="_top" xlink:title="Binoc&#45;u&#45;com.">
<polygon fill="white" stroke="#666666" points="308.65,-294 256.65,-294 256.65,-275 308.65,-275 308.65,-294"/>
<text text-anchor="middle" x="282.65" y="-282" font-family="Helvetica,sans-Serif" font-size="10.00">binoc.h</text>
</a>
</g>
</g>
<!-- Node4&#45;&gt;Node5 -->
<g id="edge4_Node000004_Node000005" class="edge">
<title>Node4&#45;&gt;Node5</title>
<g id="a_edge4_Node000004_Node000005"><a xlink:title=" ">
<path fill="none" stroke="#63b8ff" d="M281.81,-329.75C281.94,-322.8 282.13,-312.85 282.3,-304.13"/>
<polygon fill="#63b8ff" stroke="#63b8ff" points="285.8,-304.15 282.49,-294.09 278.8,-304.02 285.8,-304.15"/>
</a>
</g>
</g>
<!-- Node6 -->
<g id="Node000006" class="node">
<title>Node6</title>
<g id="a_Node000006"><a xlink:href="screen_8h.html" target="_top" xlink:title="GUI elements.">
<polygon fill="white" stroke="#666666" points="452.65,-239 394.65,-239 394.65,-220 452.65,-220 452.65,-239"/>
<text text-anchor="middle" x="423.65" y="-227" font-family="Helvetica,sans-Serif" font-size="10.00">screen.h</text>
</a>
</g>
</g>
<!-- Node5&#45;&gt;Node6 -->
<g id="edge5_Node000005_Node000006" class="edge">
<title>Node5&#45;&gt;Node6</title>
<g id="a_edge5_Node000005_Node000006"><a xlink:title=" ">
<path fill="none" stroke="#63b8ff" d="M305.3,-274.98C328.49,-266.27 364.77,-252.63 391.05,-242.75"/>
<polygon fill="#63b8ff" stroke="#63b8ff" points="392.45,-245.97 400.58,-239.17 389.99,-239.41 392.45,-245.97"/>
</a>
</g>
</g>
<!-- Node19 -->
<g id="Node000019" class="node">
<title>Node19</title>
<g id="a_Node000019"><a xlink:href="util_8h.html" target="_top" xlink:title="Utility functions.">
<polygon fill="white" stroke="#666666" points="302.15,-239 261.15,-239 261.15,-220 302.15,-220 302.15,-239"/>
<text text-anchor="middle" x="281.65" y="-227" font-family="Helvetica,sans-Serif" font-size="10.00">util.h</text>
</a>
</g>
</g>
<!-- Node5&#45;&gt;Node19 -->
<g id="edge19_Node000005_Node000019" class="edge">
<title>Node5&#45;&gt;Node19</title>
<g id="a_edge19_Node000005_Node000019"><a xlink:title=" ">
<path fill="none" stroke="#63b8ff" d="M282.48,-274.75C282.35,-267.8 282.16,-257.85 282,-249.13"/>
<polygon fill="#63b8ff" stroke="#63b8ff" points="285.5,-249.02 281.81,-239.09 278.5,-249.15 285.5,-249.02"/>
</a>
</g>
</g>
<!-- Node7 -->
<g id="Node000007" class="node">
<title>Node7</title>
<g id="a_Node000007"><a xlink:href="font_8h.html" target="_top" xlink:title="Font system.">
<polygon fill="white" stroke="#666666" points="446.15,-184 401.15,-184 401.15,-165 446.15,-165 446.15,-184"/>
<text text-anchor="middle" x="423.65" y="-172" font-family="Helvetica,sans-Serif" font-size="10.00">font.h</text>
</a>
</g>
</g>
<!-- Node6&#45;&gt;Node7 -->
<g id="edge6_Node000006_Node000007" class="edge">
<title>Node6&#45;&gt;Node7</title>
<g id="a_edge6_Node000006_Node000007"><a xlink:title=" ">
<path fill="none" stroke="#63b8ff" d="M423.65,-219.75C423.65,-212.8 423.65,-202.85 423.65,-194.13"/>
<polygon fill="#63b8ff" stroke="#63b8ff" points="427.15,-194.09 423.65,-184.09 420.15,-194.09 427.15,-194.09"/>
</a>
</g>
</g>
<!-- Node16 -->
<g id="Node000016" class="node">
<title>Node16</title>
<g id="a_Node000016"><a xlink:href="game_8h.html" target="_top" xlink:title="Game state and level management.">
<polygon fill="white" stroke="#666666" points="833.15,-184 780.15,-184 780.15,-165 833.15,-165 833.15,-184"/>
<text text-anchor="middle" x="806.65" y="-172" font-family="Helvetica,sans-Serif" font-size="10.00">game.h</text>
</a>
</g>
</g>
<!-- Node6&#45;&gt;Node16 -->
<g id="edge16_Node000006_Node000016" class="edge">
<title>Node6&#45;&gt;Node16</title>
<g id="a_edge16_Node000006_Node000016"><a xlink:title=" ">
<path fill="none" stroke="#63b8ff" d="M452.75,-224.47C521.52,-214.96 694,-191.09 769.86,-180.59"/>
<polygon fill="#63b8ff" stroke="#63b8ff" points="770.48,-184.04 779.9,-179.2 769.52,-177.1 770.48,-184.04"/>
</a>
</g>
</g>
<!-- Node8 -->
<g id="Node000008" class="node">
<title>Node8</title>
<g id="a_Node000008"><a xlink:href="gifs_8h.html" target="_top" xlink:title=" ">
<polygon fill="white" stroke="#666666" points="445.65,-129 401.65,-129 401.65,-110 445.65,-110 445.65,-129"/>
<text text-anchor="middle" x="423.65" y="-117" font-family="Helvetica,sans-Serif" font-size="10.00">gifs.h</text>
</a>
</g>
</g>
<!-- Node7&#45;&gt;Node8 -->
<g id="edge7_Node000007_Node000008" class="edge">
<title>Node7&#45;&gt;Node8</title>
<g id="a_edge7_Node000007_Node000008"><a xlink:title=" ">
<path fill="none" stroke="#63b8ff" d="M423.65,-164.75C423.65,-157.8 423.65,-147.85 423.65,-139.13"/>
<polygon fill="#63b8ff" stroke="#63b8ff" points="427.15,-139.09 423.65,-129.09 420.15,-139.09 427.15,-139.09"/>
</a>
</g>
</g>
<!-- Node9 -->
<g id="Node000009" class="node">
<title>Node9</title>
<g id="a_Node000009"><a xlink:href="dmas_8h.html" target="_top" xlink:title="Direct memory access.">
<polygon fill="white" stroke="#666666" points="450.15,-74 397.15,-74 397.15,-55 450.15,-55 450.15,-74"/>
<text text-anchor="middle" x="423.65" y="-62" font-family="Helvetica,sans-Serif" font-size="10.00">dmas.h</text>
</a>
</g>
</g>
<!-- Node7&#45;&gt;Node9 -->
<g id="edge12_Node000007_Node000009" class="edge">
<title>Node7&#45;&gt;Node9</title>
<g id="a_edge12_Node000007_Node000009"><a xlink:title=" ">
<path fill="none" stroke="#63b8ff" d="M432.73,-164.81C444.04,-152.89 461.12,-130.6 454.65,-110 451.42,-99.71 444.87,-89.72 438.62,-81.82"/>
<polygon fill="#63b8ff" stroke="#63b8ff" points="441.26,-79.52 432.13,-74.15 435.92,-84.04 441.26,-79.52"/>
</a>
</g>
</g>
<!-- Node13 -->
<g id="Node000013" class="node">
<title>Node13</title>
<g id="a_Node000013"><a xlink:href="eestruct_8h.html" target="_top" xlink:title="Graphics synthesizer.">
<polygon fill="white" stroke="#666666" points="383.15,-129 282.15,-129 282.15,-110 383.15,-110 383.15,-129"/>
<text text-anchor="middle" x="332.65" y="-117" font-family="Helvetica,sans-Serif" font-size="10.00">sdk/ee/eestruct.h</text>
</a>
</g>
</g>
<!-- Node7&#45;&gt;Node13 -->
<g id="edge13_Node000007_Node000013" class="edge">
<title>Node7&#45;&gt;Node13</title>
<g id="a_edge13_Node000007_Node000013"><a xlink:title=" ">
<path fill="none" stroke="#63b8ff" d="M409.03,-164.98C394.78,-156.69 372.9,-143.94 356.2,-134.22"/>
<polygon fill="#63b8ff" stroke="#63b8ff" points="357.94,-131.18 347.53,-129.17 354.41,-137.23 357.94,-131.18"/>
</a>
</g>
</g>
<!-- Node8&#45;&gt;Node9 -->
<g id="edge8_Node000008_Node000009" class="edge">
<title>Node8&#45;&gt;Node9</title>
<g id="a_edge8_Node000008_Node000009"><a xlink:title=" ">
<path fill="none" stroke="#63b8ff" d="M423.65,-109.75C423.65,-102.8 423.65,-92.85 423.65,-84.13"/>
<polygon fill="#63b8ff" stroke="#63b8ff" points="427.15,-84.09 423.65,-74.09 420.15,-84.09 427.15,-84.09"/>
</a>
</g>
</g>
<!-- Node10 -->
<g id="Node000010" class="node">
<title>Node10</title>
<g id="a_Node000010"><a xlink:href="libdma_8h.html" target="_top" xlink:title="Direct memory access library.">
<polygon fill="white" stroke="#666666" points="424.15,-19 345.15,-19 345.15,0 424.15,0 424.15,-19"/>
<text text-anchor="middle" x="384.65" y="-7" font-family="Helvetica,sans-Serif" font-size="10.00">sce/libdma.h</text>
</a>
</g>
</g>
<!-- Node9&#45;&gt;Node10 -->
<g id="edge9_Node000009_Node000010" class="edge">
<title>Node9&#45;&gt;Node10</title>
<g id="a_edge9_Node000009_Node000010"><a xlink:title=" ">
<path fill="none" stroke="#63b8ff" d="M417.21,-54.75C411.76,-47.34 403.78,-36.5 397.09,-27.41"/>
<polygon fill="#63b8ff" stroke="#63b8ff" points="399.71,-25.07 390.97,-19.09 394.08,-29.22 399.71,-25.07"/>
</a>
</g>
</g>
<!-- Node11 -->
<g id="Node000011" class="node">
<title>Node11</title>
<g id="a_Node000011"><a xlink:href="eekernel_8h.html" target="_top" xlink:title=" ">
<polygon fill="white" stroke="#666666" points="545.15,-19 442.15,-19 442.15,0 545.15,0 545.15,-19"/>
<text text-anchor="middle" x="493.65" y="-7" font-family="Helvetica,sans-Serif" font-size="10.00">sdk/ee/eekernel.h</text>
</a>
</g>
</g>
<!-- Node9&#45;&gt;Node11 -->
<g id="edge10_Node000009_Node000011" class="edge">
<title>Node9&#45;&gt;Node11</title>
<g id="a_edge10_Node000009_Node000011"><a xlink:title=" ">
<path fill="none" stroke="#63b8ff" d="M434.89,-54.98C445.44,-47 461.45,-34.88 474.09,-25.31"/>
<polygon fill="#63b8ff" stroke="#63b8ff" points="476.34,-28 482.2,-19.17 472.11,-22.42 476.34,-28"/>
</a>
</g>
</g>
<!-- Node9&#45;&gt;Node12 -->
<g id="edge11_Node000009_Node000012" class="edge">
<title>Node9&#45;&gt;Node12</title>
<g id="a_edge11_Node000009_Node000012"><a xlink:title=" ">
<path fill="none" stroke="#63b8ff" d="M396.72,-57.21C354.44,-47.34 272.72,-28.26 227.91,-17.8"/>
<polygon fill="#63b8ff" stroke="#63b8ff" points="228.68,-14.39 218.15,-15.52 227.09,-21.2 228.68,-14.39"/>
</a>
</g>
</g>
<!-- Node14 -->
<g id="Node000014" class="node">
<title>Node14</title>
<g id="a_Node000014"><a xlink:href="types_8h.html" target="_top" xlink:title="Common types used across the codebase.">
<polygon fill="white" stroke="#666666" points="347.15,-74 294.15,-74 294.15,-55 347.15,-55 347.15,-74"/>
<text text-anchor="middle" x="320.65" y="-62" font-family="Helvetica,sans-Serif" font-size="10.00">types.h</text>
</a>
</g>
</g>
<!-- Node13&#45;&gt;Node14 -->
<g id="edge14_Node000013_Node000014" class="edge">
<title>Node13&#45;&gt;Node14</title>
<g id="a_edge14_Node000013_Node000014"><a xlink:title=" ">
<path fill="none" stroke="#63b8ff" d="M330.67,-109.75C329.08,-102.72 326.79,-92.62 324.8,-83.84"/>
<polygon fill="#63b8ff" stroke="#63b8ff" points="328.21,-83.07 322.59,-74.09 321.39,-84.62 328.21,-83.07"/>
</a>
</g>
</g>
<!-- Node15 -->
<g id="Node000015" class="node">
<title>Node15</title>
<g id="a_Node000015"><a xlink:title=" ">
<polygon fill="#e0e0e0" stroke="#999999" points="326.65,-19 270.65,-19 270.65,0 326.65,0 326.65,-19"/>
<text text-anchor="middle" x="298.65" y="-7" font-family="Helvetica,sans-Serif" font-size="10.00">stddef.h</text>
</a>
</g>
</g>
<!-- Node14&#45;&gt;Node15 -->
<g id="edge15_Node000014_Node000015" class="edge">
<title>Node14&#45;&gt;Node15</title>
<g id="a_edge15_Node000014_Node000015"><a xlink:title=" ">
<path fill="none" stroke="#63b8ff" d="M317.01,-54.75C314.07,-47.65 309.81,-37.4 306.14,-28.56"/>
<polygon fill="#63b8ff" stroke="#63b8ff" points="309.28,-26.98 302.21,-19.09 302.81,-29.67 309.28,-26.98"/>
</a>
</g>
</g>
<!-- Node17 -->
<g id="Node000017" class="node">
<title>Node17</title>
<g id="a_Node000017"><a xlink:href="oid_8h.html" target="_top" xlink:title="Object IDs.">
<polygon fill="white" stroke="#666666" points="717.15,-19 676.15,-19 676.15,0 717.15,0 717.15,-19"/>
<text text-anchor="middle" x="696.65" y="-7" font-family="Helvetica,sans-Serif" font-size="10.00">oid.h</text>
</a>
</g>
</g>
<!-- Node16&#45;&gt;Node17 -->
<g id="edge17_Node000016_Node000017" class="edge">
<title>Node16&#45;&gt;Node17</title>
<g id="a_edge17_Node000016_Node000017"><a xlink:title=" ">
<path fill="none" stroke="#63b8ff" d="M807.78,-164.74C810.02,-143.59 812.82,-88.99 787.65,-55 773.05,-35.29 747.36,-23.85 726.99,-17.52"/>
<polygon fill="#63b8ff" stroke="#63b8ff" points="727.77,-14.1 717.2,-14.73 725.85,-20.84 727.77,-14.1"/>
</a>
</g>
</g>
<!-- Node18 -->
<g id="Node000018" class="node">
<title>Node18</title>
<g id="a_Node000018"><a xlink:href="cid_8h.html" target="_top" xlink:title="Class IDs.">
<polygon fill="white" stroke="#666666" points="874.65,-129 834.65,-129 834.65,-110 874.65,-110 874.65,-129"/>
<text text-anchor="middle" x="854.65" y="-117" font-family="Helvetica,sans-Serif" font-size="10.00">cid.h</text>
</a>
</g>
</g>
<!-- Node16&#45;&gt;Node18 -->
<g id="edge18_Node000016_Node000018" class="edge">
<title>Node16&#45;&gt;Node18</title>
<g id="a_edge18_Node000016_Node000018"><a xlink:title=" ">
<path fill="none" stroke="#63b8ff" d="M814.57,-164.75C821.49,-157.11 831.71,-145.82 840.1,-136.56"/>
<polygon fill="#63b8ff" stroke="#63b8ff" points="842.75,-138.85 846.87,-129.09 837.56,-134.15 842.75,-138.85"/>
</a>
</g>
</g>
<!-- Node19&#45;&gt;Node12 -->
<g id="edge20_Node000019_Node000012" class="edge">
<title>Node19&#45;&gt;Node12</title>
<g id="a_edge20_Node000019_Node000012"><a xlink:title=" ">
<path fill="none" stroke="#63b8ff" d="M279.29,-219.99C272.1,-194.43 249.22,-116.34 221.65,-55 217.52,-45.81 212.12,-36 207.4,-27.93"/>
<polygon fill="#63b8ff" stroke="#63b8ff" points="210.26,-25.89 202.11,-19.12 204.26,-29.5 210.26,-25.89"/>
</a>
</g>
</g>
<!-- Node19&#45;&gt;Node20 -->
<g id="edge21_Node000019_Node000020" class="edge">
<title>Node19&#45;&gt;Node20</title>
<g id="a_edge21_Node000019_Node000020"><a xlink:title=" ">
<path fill="none" stroke="#63b8ff" d="M272.9,-219.75C265.18,-212.03 253.74,-200.6 244.43,-191.28"/>
<polygon fill="#63b8ff" stroke="#63b8ff" points="246.78,-188.69 237.24,-184.09 241.83,-193.64 246.78,-188.69"/>
</a>
</g>
</g>
<!-- Node21 -->
<g id="Node000021" class="node">
<title>Node21</title>
<g id="a_Node000021"><a xlink:href="sm_8h.html" target="_top" xlink:title="Probabilistic finite state machines.">
<polygon fill="white" stroke="#666666" points="541.15,-184 500.15,-184 500.15,-165 541.15,-165 541.15,-184"/>
<text text-anchor="middle" x="520.65" y="-172" font-family="Helvetica,sans-Serif" font-size="10.00">sm.h</text>
</a>
</g>
</g>
<!-- Node19&#45;&gt;Node21 -->
<g id="edge23_Node000019_Node000021" class="edge">
<title>Node19&#45;&gt;Node21</title>
<g id="a_edge23_Node000019_Node000021"><a xlink:title=" ">
<path fill="none" stroke="#63b8ff" d="M302.44,-223.89C344.74,-214.51 440.99,-193.16 490.3,-182.23"/>
<polygon fill="#63b8ff" stroke="#63b8ff" points="491.07,-185.64 500.07,-180.06 489.55,-178.81 491.07,-185.64"/>
</a>
</g>
</g>
<!-- Node20&#45;&gt;Node12 -->
<g id="edge22_Node000020_Node000012" class="edge">
<title>Node20&#45;&gt;Node12</title>
<g id="a_edge22_Node000020_Node000012"><a xlink:title=" ">
<path fill="none" stroke="#63b8ff" d="M226.93,-164.74C221.91,-139.2 207.24,-64.43 200.32,-29.23"/>
<polygon fill="#63b8ff" stroke="#63b8ff" points="203.74,-28.45 198.38,-19.31 196.87,-29.79 203.74,-28.45"/>
</a>
</g>
</g>
<!-- Node22 -->
<g id="Node000022" class="node">
<title>Node22</title>
<g id="a_Node000022"><a xlink:href="dl_8h.html" target="_top" xlink:title="Doubly&#45;linked list.">
<polygon fill="white" stroke="#666666" points="567.15,-74 532.15,-74 532.15,-55 567.15,-55 567.15,-74"/>
<text text-anchor="middle" x="549.65" y="-62" font-family="Helvetica,sans-Serif" font-size="10.00">dl.h</text>
</a>
</g>
</g>
<!-- Node21&#45;&gt;Node22 -->
<g id="edge24_Node000021_Node000022" class="edge">
<title>Node21&#45;&gt;Node22</title>
<g id="a_edge24_Node000021_Node000022"><a xlink:title=" ">
<path fill="none" stroke="#63b8ff" d="M523.02,-164.66C527.74,-147.09 538.38,-107.45 544.69,-83.95"/>
<polygon fill="#63b8ff" stroke="#63b8ff" points="548.11,-84.72 547.32,-74.16 541.35,-82.91 548.11,-84.72"/>
</a>
</g>
</g>
<!-- Node23 -->
<g id="Node000023" class="node">
<title>Node23</title>
<g id="a_Node000023"><a xlink:href="mq_8h.html" target="_top" xlink:title="Message queue.">
<polygon fill="white" stroke="#666666" points="514.15,-74 473.15,-74 473.15,-55 514.15,-55 514.15,-74"/>
<text text-anchor="middle" x="493.65" y="-62" font-family="Helvetica,sans-Serif" font-size="10.00">mq.h</text>
</a>
</g>
</g>
<!-- Node21&#45;&gt;Node23 -->
<g id="edge26_Node000021_Node000023" class="edge">
<title>Node21&#45;&gt;Node23</title>
<g id="a_edge26_Node000021_Node000023"><a xlink:title=" ">
<path fill="none" stroke="#63b8ff" d="M518.44,-164.66C514.05,-147.09 504.13,-107.45 498.26,-83.95"/>
<polygon fill="#63b8ff" stroke="#63b8ff" points="501.63,-83.01 495.81,-74.16 494.84,-84.71 501.63,-83.01"/>
</a>
</g>
</g>
<!-- Node21&#45;&gt;Node24 -->
<g id="edge27_Node000021_Node000024" class="edge">
<title>Node21&#45;&gt;Node24</title>
<g id="a_edge27_Node000021_Node000024"><a xlink:title=" ">
<path fill="none" stroke="#63b8ff" d="M532.7,-164.98C544.11,-156.92 561.48,-144.65 575.08,-135.03"/>
<polygon fill="#63b8ff" stroke="#63b8ff" points="577.23,-137.8 583.38,-129.17 573.19,-132.08 577.23,-137.8"/>
</a>
</g>
</g>
<!-- Node22&#45;&gt;Node17 -->
<g id="edge25_Node000022_Node000017" class="edge">
<title>Node22&#45;&gt;Node17</title>
<g id="a_edge25_Node000022_Node000017"><a xlink:title=" ">
<path fill="none" stroke="#63b8ff" d="M567.38,-57.11C591.94,-48.25 636.66,-32.13 666.51,-21.36"/>
<polygon fill="#63b8ff" stroke="#63b8ff" points="667.8,-24.62 676.02,-17.94 665.42,-18.04 667.8,-24.62"/>
</a>
</g>
</g>
<!-- Node24&#45;&gt;Node17 -->
<g id="edge30_Node000024_Node000017" class="edge">
<title>Node24&#45;&gt;Node17</title>
<g id="a_edge30_Node000024_Node000017"><a xlink:title=" ">
<path fill="none" stroke="#63b8ff" d="M606.46,-109.78C616.92,-101.14 633,-87.31 645.65,-74 659.9,-59.01 674.51,-40.42 684.42,-27.24"/>
<polygon fill="#63b8ff" stroke="#63b8ff" points="687.32,-29.21 690.47,-19.09 681.7,-25.04 687.32,-29.21"/>
</a>
</g>
</g>
<!-- Node24&#45;&gt;Node22 -->
<g id="edge28_Node000024_Node000022" class="edge">
<title>Node24&#45;&gt;Node22</title>
<g id="a_edge28_Node000024_Node000022"><a xlink:title=" ">
<path fill="none" stroke="#63b8ff" d="M588.05,-109.75C581.49,-102.18 571.82,-91.05 563.83,-81.84"/>
<polygon fill="#63b8ff" stroke="#63b8ff" points="566.3,-79.35 557.1,-74.09 561.01,-83.94 566.3,-79.35"/>
</a>
</g>
</g>
<!-- Node24&#45;&gt;Node23 -->
<g id="edge29_Node000024_Node000023" class="edge">
<title>Node24&#45;&gt;Node23</title>
<g id="a_edge29_Node000024_Node000023"><a xlink:title=" ">
<path fill="none" stroke="#63b8ff" d="M579.26,-109.98C563.07,-101.57 538.08,-88.59 519.27,-78.81"/>
<polygon fill="#63b8ff" stroke="#63b8ff" points="520.82,-75.68 510.33,-74.17 517.59,-81.89 520.82,-75.68"/>
</a>
</g>
</g>
<!-- Node25 -->
<g id="Node000025" class="node">
<title>Node25</title>
<g id="a_Node000025"><a xlink:href="basic_8h.html" target="_top" xlink:title="Basic object.">
<polygon fill="white" stroke="#666666" points="636.15,-74 585.15,-74 585.15,-55 636.15,-55 636.15,-74"/>
<text text-anchor="middle" x="610.65" y="-62" font-family="Helvetica,sans-Serif" font-size="10.00">basic.h</text>
</a>
</g>
</g>
<!-- Node24&#45;&gt;Node25 -->
<g id="edge31_Node000024_Node000025" class="edge">
<title>Node24&#45;&gt;Node25</title>
<g id="a_edge31_Node000024_Node000025"><a xlink:title=" ">
<path fill="none" stroke="#63b8ff" d="M598.12,-109.75C600.11,-102.72 602.97,-92.62 605.46,-83.84"/>
<polygon fill="#63b8ff" stroke="#63b8ff" points="608.86,-84.66 608.22,-74.09 602.13,-82.76 608.86,-84.66"/>
</a>
</g>
</g>
<!-- Node27 -->
<g id="Node000027" class="node">
<title>Node27</title>
<g id="a_Node000027"><a xlink:href="frame_8h.html" target="_top" xlink:title=" ">
<polygon fill="white" stroke="#666666" points="778.65,-74 692.65,-74 692.65,-55 778.65,-55 778.65,-74"/>
<text text-anchor="middle" x="735.65" y="-62" font-family="Helvetica,sans-Serif" font-size="10.00">splice/frame.h</text>
</a>
</g>
</g>
<!-- Node24&#45;&gt;Node27 -->
<g id="edge33_Node000024_Node000027" class="edge">
<title>Node24&#45;&gt;Node27</title>
<g id="a_edge33_Node000024_Node000027"><a xlink:title=" ">
<path fill="none" stroke="#63b8ff" d="M613.38,-111.79C636.02,-103.22 675.61,-88.23 703.6,-77.63"/>
<polygon fill="#63b8ff" stroke="#63b8ff" points="704.86,-80.9 712.97,-74.09 702.38,-74.35 704.86,-80.9"/>
</a>
</g>
</g>
<!-- Node26 -->
<g id="Node000026" class="node">
<title>Node26</title>
<g id="a_Node000026"><a xlink:href="sidebag_8h.html" target="_top" xlink:title="Sidebag for splice.">
<polygon fill="white" stroke="#666666" points="658.15,-19 563.15,-19 563.15,0 658.15,0 658.15,-19"/>
<text text-anchor="middle" x="610.65" y="-7" font-family="Helvetica,sans-Serif" font-size="10.00">splice/sidebag.h</text>
</a>
</g>
</g>
<!-- Node25&#45;&gt;Node26 -->
<g id="edge32_Node000025_Node000026" class="edge">
<title>Node25&#45;&gt;Node26</title>
<g id="a_edge32_Node000025_Node000026"><a xlink:title=" ">
<path fill="none" stroke="#63b8ff" d="M610.65,-54.75C610.65,-47.8 610.65,-37.85 610.65,-29.13"/>
<polygon fill="#63b8ff" stroke="#63b8ff" points="614.15,-29.09 610.65,-19.09 607.15,-29.09 614.15,-29.09"/>
</a>
</g>
</g>
<!-- Node29&#45;&gt;Node12 -->
<g id="edge38_Node000029_Node000012" class="edge">
<title>Node29&#45;&gt;Node12</title>
<g id="a_edge38_Node000029_Node000012"><a xlink:title=" ">
<path fill="none" stroke="#63b8ff" d="M135.62,-219.8C135.83,-193.72 138.63,-114.32 163.65,-55 167.93,-44.85 174.99,-34.87 181.48,-26.94"/>
<polygon fill="#63b8ff" stroke="#63b8ff" points="184.25,-29.09 188.14,-19.24 178.96,-24.51 184.25,-29.09"/>
</a>
</g>
</g>
<!-- Node29&#45;&gt;Node20 -->
<g id="edge39_Node000029_Node000020" class="edge">
<title>Node29&#45;&gt;Node20</title>
<g id="a_edge39_Node000029_Node000020"><a xlink:title=" ">
<path fill="none" stroke="#63b8ff" d="M150.59,-219.98C165.15,-211.69 187.51,-198.94 204.58,-189.22"/>
<polygon fill="#63b8ff" stroke="#63b8ff" points="206.48,-192.16 213.43,-184.17 203.01,-186.08 206.48,-192.16"/>
</a>
</g>
</g>
<!-- Node31&#45;&gt;Node12 -->
<g id="edge43_Node000031_Node000012" class="edge">
<title>Node31&#45;&gt;Node12</title>
<g id="a_edge43_Node000031_Node000012"><a xlink:title=" ">
<path fill="none" stroke="#63b8ff" d="M80.65,-274.82C80.65,-256.48 80.65,-212.44 80.65,-175.5 80.65,-175.5 80.65,-175.5 80.65,-118.5 80.65,-71.84 131.54,-39.61 165.9,-23.17"/>
<polygon fill="#63b8ff" stroke="#63b8ff" points="167.47,-26.3 175.1,-18.95 164.55,-19.94 167.47,-26.3"/>
</a>
</g>
</g>
<!-- Node31&#45;&gt;Node29 -->
<g id="edge42_Node000031_Node000029" class="edge">
<title>Node31&#45;&gt;Node29</title>
<g id="a_edge42_Node000031_Node000029"><a xlink:title=" ">
<path fill="none" stroke="#63b8ff" d="M89.73,-274.75C97.74,-267.03 109.61,-255.6 119.27,-246.28"/>
<polygon fill="#63b8ff" stroke="#63b8ff" points="121.96,-248.55 126.73,-239.09 117.1,-243.51 121.96,-248.55"/>
</a>
</g>
</g>
</g>
</svg>
