<?xml version="1.0" encoding="UTF-8" standalone="no"?>
<!DOCTYPE svg PUBLIC "-//W3C//DTD SVG 1.1//EN"
 "http://www.w3.org/Graphics/SVG/1.1/DTD/svg11.dtd">
<!-- Generated by graphviz version 2.43.0 (0)
 -->
<!-- Title: include/lo.h Pages: 1 -->
<svg width="1882pt" height="588pt"
 viewBox="0.00 0.00 1882.00 588.00" xmlns="http://www.w3.org/2000/svg" xmlns:xlink="http://www.w3.org/1999/xlink">
<g id="graph0" class="graph" transform="scale(1 1) rotate(0) translate(4 584)">
<title>include/lo.h</title>
<polygon fill="white" stroke="transparent" points="-4,4 -4,-584 1878,-584 1878,4 -4,4"/>
<!-- Node1 -->
<g id="node1" class="node">
<title>Node1</title>
<g id="a_node1"><a xlink:title="Level objects.">
<polygon fill="#bfbfbf" stroke="black" points="1148.5,-560.5 1148.5,-579.5 1221.5,-579.5 1221.5,-560.5 1148.5,-560.5"/>
<text text-anchor="middle" x="1185" y="-567.5" font-family="Helvetica,sans-Serif" font-size="10.00">include/lo.h</text>
</a>
</g>
</g>
<!-- Node2 -->
<g id="node2" class="node">
<title>Node2</title>
<g id="a_node2"><a xlink:href="alo_8h.html" target="_top" xlink:title=" ">
<polygon fill="white" stroke="black" points="959.5,-504.5 959.5,-523.5 1038.5,-523.5 1038.5,-504.5 959.5,-504.5"/>
<text text-anchor="middle" x="999" y="-511.5" font-family="Helvetica,sans-Serif" font-size="10.00">include/alo.h</text>
</a>
</g>
</g>
<!-- Node1&#45;&gt;Node2 -->
<g id="edge1" class="edge">
<title>Node1&#45;&gt;Node2</title>
<path fill="none" stroke="midnightblue" d="M1145.62,-557.57C1110.53,-547.38 1059.98,-532.7 1028.33,-523.52"/>
<polygon fill="midnightblue" stroke="midnightblue" points="1144.95,-561.02 1155.53,-560.44 1146.9,-554.29 1144.95,-561.02"/>
</g>
<!-- Node11 -->
<g id="node11" class="node">
<title>Node11</title>
<g id="a_node11"><a xlink:href="cm_8h.html" target="_top" xlink:title="Game camera.">
<polygon fill="white" stroke="black" points="1326.5,-112.5 1326.5,-131.5 1405.5,-131.5 1405.5,-112.5 1326.5,-112.5"/>
<text text-anchor="middle" x="1366" y="-119.5" font-family="Helvetica,sans-Serif" font-size="10.00">include/cm.h</text>
</a>
</g>
</g>
<!-- Node1&#45;&gt;Node11 -->
<g id="edge81" class="edge">
<title>Node1&#45;&gt;Node11</title>
<path fill="none" stroke="midnightblue" d="M1231.7,-566.49C1386.65,-557.54 1874,-524.2 1874,-459 1874,-459 1874,-459 1874,-233 1874,-137.35 1525.62,-124.68 1405.86,-123.15"/>
<polygon fill="midnightblue" stroke="midnightblue" points="1231.34,-563 1221.56,-567.07 1231.74,-569.99 1231.34,-563"/>
</g>
<!-- Node56 -->
<g id="node49" class="node">
<title>Node56</title>
<g id="a_node49"><a xlink:href="anim_8h.html" target="_top" xlink:title="Animation.">
<polygon fill="white" stroke="black" points="1140.5,-448.5 1140.5,-467.5 1229.5,-467.5 1229.5,-448.5 1140.5,-448.5"/>
<text text-anchor="middle" x="1185" y="-455.5" font-family="Helvetica,sans-Serif" font-size="10.00">include/anim.h</text>
</a>
</g>
</g>
<!-- Node1&#45;&gt;Node56 -->
<g id="edge75" class="edge">
<title>Node1&#45;&gt;Node56</title>
<path fill="none" stroke="midnightblue" d="M1185,-550.35C1185,-526.25 1185,-485.31 1185,-467.59"/>
<polygon fill="midnightblue" stroke="midnightblue" points="1181.5,-550.37 1185,-560.37 1188.5,-550.37 1181.5,-550.37"/>
</g>
<!-- Node3 -->
<g id="node3" class="node">
<title>Node3</title>
<g id="a_node3"><a xlink:href="coin_8h.html" target="_top" xlink:title="Coins, keys, and other collectibles.">
<polygon fill="white" stroke="black" points="542,-224.5 542,-243.5 626,-243.5 626,-224.5 542,-224.5"/>
<text text-anchor="middle" x="584" y="-231.5" font-family="Helvetica,sans-Serif" font-size="10.00">include/coin.h</text>
</a>
</g>
</g>
<!-- Node2&#45;&gt;Node3 -->
<g id="edge2" class="edge">
<title>Node2&#45;&gt;Node3</title>
<path fill="none" stroke="midnightblue" d="M948.84,-513.73C811.24,-514.39 438,-506.62 438,-403 438,-403 438,-403 438,-345 438,-288.35 508.98,-257.22 551.96,-243.56"/>
<polygon fill="midnightblue" stroke="midnightblue" points="949.13,-517.23 959.1,-513.66 949.08,-510.23 949.13,-517.23"/>
</g>
<!-- Node5 -->
<g id="node5" class="node">
<title>Node5</title>
<g id="a_node5"><a xlink:href="find_8h.html" target="_top" xlink:title="Find objects in the SW.">
<polygon fill="white" stroke="black" points="1058,-392.5 1058,-411.5 1140,-411.5 1140,-392.5 1058,-392.5"/>
<text text-anchor="middle" x="1099" y="-399.5" font-family="Helvetica,sans-Serif" font-size="10.00">include/find.h</text>
</a>
</g>
</g>
<!-- Node2&#45;&gt;Node5 -->
<g id="edge4" class="edge">
<title>Node2&#45;&gt;Node5</title>
<path fill="none" stroke="midnightblue" d="M1016.08,-497.6C1025.22,-489.13 1036.52,-478.27 1046,-468 1063.78,-448.74 1082.76,-424.43 1092.46,-411.69"/>
<polygon fill="midnightblue" stroke="midnightblue" points="1013.71,-495.03 1008.7,-504.36 1018.44,-500.19 1013.71,-495.03"/>
</g>
<!-- Node7 -->
<g id="node7" class="node">
<title>Node7</title>
<g id="a_node7"><a xlink:href="proxy_8h.html" target="_top" xlink:title=" ">
<polygon fill="white" stroke="black" points="641,-448.5 641,-467.5 731,-467.5 731,-448.5 641,-448.5"/>
<text text-anchor="middle" x="686" y="-455.5" font-family="Helvetica,sans-Serif" font-size="10.00">include/proxy.h</text>
</a>
</g>
</g>
<!-- Node2&#45;&gt;Node7 -->
<g id="edge6" class="edge">
<title>Node2&#45;&gt;Node7</title>
<path fill="none" stroke="midnightblue" d="M949.36,-504.44C889.31,-494.08 789.08,-476.78 731.13,-466.79"/>
<polygon fill="midnightblue" stroke="midnightblue" points="948.91,-507.91 959.36,-506.16 950.1,-501.01 948.91,-507.91"/>
</g>
<!-- Node8 -->
<g id="node8" class="node">
<title>Node8</title>
<g id="a_node8"><a xlink:href="xform_8h.html" target="_top" xlink:title="Transform.">
<polygon fill="white" stroke="black" points="713.5,-280.5 713.5,-299.5 806.5,-299.5 806.5,-280.5 713.5,-280.5"/>
<text text-anchor="middle" x="760" y="-287.5" font-family="Helvetica,sans-Serif" font-size="10.00">include/xform.h</text>
</a>
</g>
</g>
<!-- Node2&#45;&gt;Node8 -->
<g id="edge74" class="edge">
<title>Node2&#45;&gt;Node8</title>
<path fill="none" stroke="midnightblue" d="M974.69,-499.25C933.27,-474.85 848.23,-420.44 794,-356 779.08,-338.27 768.19,-312.89 763.14,-299.71"/>
<polygon fill="midnightblue" stroke="midnightblue" points="973.14,-502.4 983.54,-504.4 976.66,-496.34 973.14,-502.4"/>
</g>
<!-- Node20 -->
<g id="node20" class="node">
<title>Node20</title>
<g id="a_node20"><a xlink:href="so_8h.html" target="_top" xlink:title="Scene objects.">
<polygon fill="white" stroke="black" points="961.5,-448.5 961.5,-467.5 1036.5,-467.5 1036.5,-448.5 961.5,-448.5"/>
<text text-anchor="middle" x="999" y="-455.5" font-family="Helvetica,sans-Serif" font-size="10.00">include/so.h</text>
</a>
</g>
</g>
<!-- Node2&#45;&gt;Node20 -->
<g id="edge21" class="edge">
<title>Node2&#45;&gt;Node20</title>
<path fill="none" stroke="midnightblue" d="M999,-493.8C999,-484.91 999,-474.78 999,-467.75"/>
<polygon fill="midnightblue" stroke="midnightblue" points="995.5,-494.08 999,-504.08 1002.5,-494.08 995.5,-494.08"/>
</g>
<!-- Node52 -->
<g id="node45" class="node">
<title>Node52</title>
<g id="a_node45"><a xlink:href="sound_8h.html" target="_top" xlink:title="Sound playback.">
<polygon fill="white" stroke="black" points="1632.5,-280.5 1632.5,-299.5 1725.5,-299.5 1725.5,-280.5 1632.5,-280.5"/>
<text text-anchor="middle" x="1679" y="-287.5" font-family="Helvetica,sans-Serif" font-size="10.00">include/sound.h</text>
</a>
</g>
</g>
<!-- Node2&#45;&gt;Node52 -->
<g id="edge73" class="edge">
<title>Node2&#45;&gt;Node52</title>
<path fill="none" stroke="midnightblue" d="M1048.66,-506.61C1097.66,-499.62 1174.41,-486.85 1239,-468 1408.54,-418.53 1602.88,-327.7 1661.43,-299.55"/>
<polygon fill="midnightblue" stroke="midnightblue" points="1048.05,-503.16 1038.63,-508.01 1049.02,-510.09 1048.05,-503.16"/>
</g>
<!-- Node4 -->
<g id="node4" class="node">
<title>Node4</title>
<g id="a_node4"><a xlink:href="coin_8c.html" target="_top" xlink:title=" ">
<polygon fill="white" stroke="black" points="545.5,-112.5 545.5,-131.5 622.5,-131.5 622.5,-112.5 545.5,-112.5"/>
<text text-anchor="middle" x="584" y="-119.5" font-family="Helvetica,sans-Serif" font-size="10.00">src/P2/coin.c</text>
</a>
</g>
</g>
<!-- Node3&#45;&gt;Node4 -->
<g id="edge3" class="edge">
<title>Node3&#45;&gt;Node4</title>
<path fill="none" stroke="midnightblue" d="M584,-214.35C584,-190.25 584,-149.31 584,-131.59"/>
<polygon fill="midnightblue" stroke="midnightblue" points="580.5,-214.37 584,-224.37 587.5,-214.37 580.5,-214.37"/>
</g>
<!-- Node6 -->
<g id="node6" class="node">
<title>Node6</title>
<g id="a_node6"><a xlink:href="find_8c.html" target="_top" xlink:title=" ">
<polygon fill="white" stroke="black" points="1294.5,-336.5 1294.5,-355.5 1369.5,-355.5 1369.5,-336.5 1294.5,-336.5"/>
<text text-anchor="middle" x="1332" y="-343.5" font-family="Helvetica,sans-Serif" font-size="10.00">src/P2/find.c</text>
</a>
</g>
</g>
<!-- Node5&#45;&gt;Node6 -->
<g id="edge5" class="edge">
<title>Node5&#45;&gt;Node6</title>
<path fill="none" stroke="midnightblue" d="M1145.8,-390.15C1189.83,-379.95 1254.85,-364.88 1295.25,-355.52"/>
<polygon fill="midnightblue" stroke="midnightblue" points="1144.87,-386.78 1135.92,-392.44 1146.45,-393.6 1144.87,-386.78"/>
</g>
<!-- Node7&#45;&gt;Node8 -->
<g id="edge7" class="edge">
<title>Node7&#45;&gt;Node8</title>
<path fill="none" stroke="midnightblue" d="M694.09,-438.86C709.96,-403.25 744.64,-325.45 756.18,-299.57"/>
<polygon fill="midnightblue" stroke="midnightblue" points="690.85,-437.52 689.98,-448.08 697.25,-440.37 690.85,-437.52"/>
</g>
<!-- Node8&#45;&gt;Node3 -->
<g id="edge14" class="edge">
<title>Node8&#45;&gt;Node3</title>
<path fill="none" stroke="midnightblue" d="M722.31,-277.44C689.13,-267.26 641.57,-252.66 611.76,-243.52"/>
<polygon fill="midnightblue" stroke="midnightblue" points="721.53,-280.86 732.11,-280.44 723.58,-274.16 721.53,-280.86"/>
</g>
<!-- Node9 -->
<g id="node9" class="node">
<title>Node9</title>
<g id="a_node9"><a xlink:href="xform1_8c.html" target="_top" xlink:title=" ">
<polygon fill="white" stroke="black" points="644,-224.5 644,-243.5 736,-243.5 736,-224.5 644,-224.5"/>
<text text-anchor="middle" x="690" y="-231.5" font-family="Helvetica,sans-Serif" font-size="10.00">src/P2/xform1.c</text>
</a>
</g>
</g>
<!-- Node8&#45;&gt;Node9 -->
<g id="edge8" class="edge">
<title>Node8&#45;&gt;Node9</title>
<path fill="none" stroke="midnightblue" d="M740.69,-274.1C728.09,-264.38 712.07,-252.03 701.45,-243.83"/>
<polygon fill="midnightblue" stroke="midnightblue" points="738.7,-276.99 748.75,-280.32 742.97,-271.44 738.7,-276.99"/>
</g>
<!-- Node10 -->
<g id="node10" class="node">
<title>Node10</title>
<g id="a_node10"><a xlink:href="xform2_8c.html" target="_top" xlink:title=" ">
<polygon fill="white" stroke="black" points="754,-224.5 754,-243.5 846,-243.5 846,-224.5 754,-224.5"/>
<text text-anchor="middle" x="800" y="-231.5" font-family="Helvetica,sans-Serif" font-size="10.00">src/P2/xform2.c</text>
</a>
</g>
</g>
<!-- Node8&#45;&gt;Node10 -->
<g id="edge9" class="edge">
<title>Node8&#45;&gt;Node10</title>
<path fill="none" stroke="midnightblue" d="M772.7,-271.86C779.63,-262.5 787.91,-251.33 793.52,-243.75"/>
<polygon fill="midnightblue" stroke="midnightblue" points="769.75,-269.96 766.61,-280.08 775.37,-274.13 769.75,-269.96"/>
</g>
<!-- Node8&#45;&gt;Node11 -->
<g id="edge10" class="edge">
<title>Node8&#45;&gt;Node11</title>
<path fill="none" stroke="midnightblue" d="M816.8,-282.67C907.63,-272.39 1078.14,-252.36 1105,-244 1123.6,-238.21 1125.87,-231.14 1144,-224 1198.59,-202.51 1217.87,-212.89 1271,-188 1304.48,-172.32 1339.18,-145.35 1355.86,-131.61"/>
<polygon fill="midnightblue" stroke="midnightblue" points="816.21,-279.22 806.66,-283.82 816.99,-286.17 816.21,-279.22"/>
</g>
<!-- Node15 -->
<g id="node15" class="node">
<title>Node15</title>
<g id="a_node15"><a xlink:href="vol_8h.html" target="_top" xlink:title="Volume object.">
<polygon fill="white" stroke="black" points="864.5,-224.5 864.5,-243.5 943.5,-243.5 943.5,-224.5 864.5,-224.5"/>
<text text-anchor="middle" x="904" y="-231.5" font-family="Helvetica,sans-Serif" font-size="10.00">include/vol.h</text>
</a>
</g>
</g>
<!-- Node8&#45;&gt;Node15 -->
<g id="edge15" class="edge">
<title>Node8&#45;&gt;Node15</title>
<path fill="none" stroke="midnightblue" d="M792.25,-276.91C819.32,-266.75 857.32,-252.51 881.29,-243.52"/>
<polygon fill="midnightblue" stroke="midnightblue" points="790.95,-273.66 782.82,-280.44 793.41,-280.21 790.95,-273.66"/>
</g>
<!-- Node12 -->
<g id="node12" class="node">
<title>Node12</title>
<g id="a_node12"><a xlink:href="cm_8c.html" target="_top" xlink:title=" ">
<polygon fill="white" stroke="black" points="1254,-56.5 1254,-75.5 1326,-75.5 1326,-56.5 1254,-56.5"/>
<text text-anchor="middle" x="1290" y="-63.5" font-family="Helvetica,sans-Serif" font-size="10.00">src/P2/cm.c</text>
</a>
</g>
</g>
<!-- Node11&#45;&gt;Node12 -->
<g id="edge11" class="edge">
<title>Node11&#45;&gt;Node12</title>
<path fill="none" stroke="midnightblue" d="M1345.42,-106.38C1331.69,-96.62 1314.07,-84.11 1302.43,-75.83"/>
<polygon fill="midnightblue" stroke="midnightblue" points="1343.61,-109.38 1353.79,-112.32 1347.66,-103.68 1343.61,-109.38"/>
</g>
<!-- Node13 -->
<g id="node13" class="node">
<title>Node13</title>
<g id="a_node13"><a xlink:href="flash_8h.html" target="_top" xlink:title="Flash (might be flash animation, or literal screen flashes).">
<polygon fill="white" stroke="black" points="1568.5,-56.5 1568.5,-75.5 1655.5,-75.5 1655.5,-56.5 1568.5,-56.5"/>
<text text-anchor="middle" x="1612" y="-63.5" font-family="Helvetica,sans-Serif" font-size="10.00">include/flash.h</text>
</a>
</g>
</g>
<!-- Node11&#45;&gt;Node13 -->
<g id="edge12" class="edge">
<title>Node11&#45;&gt;Node13</title>
<path fill="none" stroke="midnightblue" d="M1414.83,-110.28C1461.32,-100.08 1530.36,-84.92 1573.2,-75.52"/>
<polygon fill="midnightblue" stroke="midnightblue" points="1414,-106.88 1404.98,-112.44 1415.5,-113.72 1414,-106.88"/>
</g>
<!-- Node14 -->
<g id="node14" class="node">
<title>Node14</title>
<g id="a_node14"><a xlink:href="flash_8c.html" target="_top" xlink:title=" ">
<polygon fill="white" stroke="black" points="1572,-0.5 1572,-19.5 1652,-19.5 1652,-0.5 1572,-0.5"/>
<text text-anchor="middle" x="1612" y="-7.5" font-family="Helvetica,sans-Serif" font-size="10.00">src/P2/flash.c</text>
</a>
</g>
</g>
<!-- Node13&#45;&gt;Node14 -->
<g id="edge13" class="edge">
<title>Node13&#45;&gt;Node14</title>
<path fill="none" stroke="midnightblue" d="M1612,-45.8C1612,-36.91 1612,-26.78 1612,-19.75"/>
<polygon fill="midnightblue" stroke="midnightblue" points="1608.5,-46.08 1612,-56.08 1615.5,-46.08 1608.5,-46.08"/>
</g>
<!-- Node16 -->
<g id="node16" class="node">
<title>Node16</title>
<g id="a_node16"><a xlink:href="chkpnt_8h.html" target="_top" xlink:title="Checkpoint system.">
<polygon fill="white" stroke="black" points="855.5,-168.5 855.5,-187.5 952.5,-187.5 952.5,-168.5 855.5,-168.5"/>
<text text-anchor="middle" x="904" y="-175.5" font-family="Helvetica,sans-Serif" font-size="10.00">include/chkpnt.h</text>
</a>
</g>
</g>
<!-- Node15&#45;&gt;Node16 -->
<g id="edge16" class="edge">
<title>Node15&#45;&gt;Node16</title>
<path fill="none" stroke="midnightblue" d="M904,-213.8C904,-204.91 904,-194.78 904,-187.75"/>
<polygon fill="midnightblue" stroke="midnightblue" points="900.5,-214.08 904,-224.08 907.5,-214.08 900.5,-214.08"/>
</g>
<!-- Node16&#45;&gt;Node4 -->
<g id="edge18" class="edge">
<title>Node16&#45;&gt;Node4</title>
<path fill="none" stroke="midnightblue" d="M845.36,-167.1C780.69,-156.19 678.46,-138.94 622.97,-129.58"/>
<polygon fill="midnightblue" stroke="midnightblue" points="844.96,-170.59 855.4,-168.8 846.12,-163.68 844.96,-170.59"/>
</g>
<!-- Node17 -->
<g id="node17" class="node">
<title>Node17</title>
<g id="a_node17"><a xlink:href="chkpnt_8c.html" target="_top" xlink:title=" ">
<polygon fill="white" stroke="black" points="859,-112.5 859,-131.5 949,-131.5 949,-112.5 859,-112.5"/>
<text text-anchor="middle" x="904" y="-119.5" font-family="Helvetica,sans-Serif" font-size="10.00">src/P2/chkpnt.c</text>
</a>
</g>
</g>
<!-- Node16&#45;&gt;Node17 -->
<g id="edge17" class="edge">
<title>Node16&#45;&gt;Node17</title>
<path fill="none" stroke="midnightblue" d="M904,-157.8C904,-148.91 904,-138.78 904,-131.75"/>
<polygon fill="midnightblue" stroke="midnightblue" points="900.5,-158.08 904,-168.08 907.5,-158.08 900.5,-158.08"/>
</g>
<!-- Node18 -->
<g id="node18" class="node">
<title>Node18</title>
<g id="a_node18"><a xlink:href="difficulty_8h.html" target="_top" xlink:title="Dynamic difficulty system.">
<polygon fill="white" stroke="black" points="1029.5,-112.5 1029.5,-131.5 1134.5,-131.5 1134.5,-112.5 1029.5,-112.5"/>
<text text-anchor="middle" x="1082" y="-119.5" font-family="Helvetica,sans-Serif" font-size="10.00">include/difficulty.h</text>
</a>
</g>
</g>
<!-- Node16&#45;&gt;Node18 -->
<g id="edge19" class="edge">
<title>Node16&#45;&gt;Node18</title>
<path fill="none" stroke="midnightblue" d="M942.12,-165.44C975.68,-155.26 1023.77,-140.66 1053.93,-131.52"/>
<polygon fill="midnightblue" stroke="midnightblue" points="940.76,-162.19 932.2,-168.44 942.79,-168.89 940.76,-162.19"/>
</g>
<!-- Node19 -->
<g id="node19" class="node">
<title>Node19</title>
<g id="a_node19"><a xlink:href="difficulty_8c.html" target="_top" xlink:title=" ">
<polygon fill="white" stroke="black" points="1033,-56.5 1033,-75.5 1131,-75.5 1131,-56.5 1033,-56.5"/>
<text text-anchor="middle" x="1082" y="-63.5" font-family="Helvetica,sans-Serif" font-size="10.00">src/P2/difficulty.c</text>
</a>
</g>
</g>
<!-- Node18&#45;&gt;Node19 -->
<g id="edge20" class="edge">
<title>Node18&#45;&gt;Node19</title>
<path fill="none" stroke="midnightblue" d="M1082,-101.8C1082,-92.91 1082,-82.78 1082,-75.75"/>
<polygon fill="midnightblue" stroke="midnightblue" points="1078.5,-102.08 1082,-112.08 1085.5,-102.08 1078.5,-102.08"/>
</g>
<!-- Node20&#45;&gt;Node5 -->
<g id="edge22" class="edge">
<title>Node20&#45;&gt;Node5</title>
<path fill="none" stroke="midnightblue" d="M1024.09,-443.45C1042.55,-433.48 1067.1,-420.23 1082.97,-411.65"/>
<polygon fill="midnightblue" stroke="midnightblue" points="1022.2,-440.49 1015.07,-448.32 1025.53,-446.65 1022.2,-440.49"/>
</g>
<!-- Node21 -->
<g id="node21" class="node">
<title>Node21</title>
<g id="a_node21"><a xlink:href="po_8h.html" target="_top" xlink:title="Player object(?).">
<polygon fill="white" stroke="black" points="533,-392.5 533,-411.5 609,-411.5 609,-392.5 533,-392.5"/>
<text text-anchor="middle" x="571" y="-399.5" font-family="Helvetica,sans-Serif" font-size="10.00">include/po.h</text>
</a>
</g>
</g>
<!-- Node20&#45;&gt;Node21 -->
<g id="edge23" class="edge">
<title>Node20&#45;&gt;Node21</title>
<path fill="none" stroke="midnightblue" d="M951.43,-451C865.86,-440.2 687.59,-417.71 609.29,-407.83"/>
<polygon fill="midnightblue" stroke="midnightblue" points="951.03,-454.48 961.39,-452.26 951.91,-447.53 951.03,-454.48"/>
</g>
<!-- Node30 -->
<g id="node29" class="node">
<title>Node30</title>
<g id="a_node29"><a xlink:href="vec_8h.html" target="_top" xlink:title="Vector math functions.">
<polygon fill="white" stroke="black" points="958.5,-392.5 958.5,-411.5 1039.5,-411.5 1039.5,-392.5 958.5,-392.5"/>
<text text-anchor="middle" x="999" y="-399.5" font-family="Helvetica,sans-Serif" font-size="10.00">include/vec.h</text>
</a>
</g>
</g>
<!-- Node20&#45;&gt;Node30 -->
<g id="edge33" class="edge">
<title>Node20&#45;&gt;Node30</title>
<path fill="none" stroke="midnightblue" d="M999,-437.8C999,-428.91 999,-418.78 999,-411.75"/>
<polygon fill="midnightblue" stroke="midnightblue" points="995.5,-438.08 999,-448.08 1002.5,-438.08 995.5,-438.08"/>
</g>
<!-- Node22 -->
<g id="node22" class="node">
<title>Node22</title>
<g id="a_node22"><a xlink:href="step_8h.html" target="_top" xlink:title=" ">
<polygon fill="white" stroke="black" points="273.5,-336.5 273.5,-355.5 358.5,-355.5 358.5,-336.5 273.5,-336.5"/>
<text text-anchor="middle" x="316" y="-343.5" font-family="Helvetica,sans-Serif" font-size="10.00">include/step.h</text>
</a>
</g>
</g>
<!-- Node21&#45;&gt;Node22 -->
<g id="edge24" class="edge">
<title>Node21&#45;&gt;Node22</title>
<path fill="none" stroke="midnightblue" d="M522.97,-390.83C474.9,-380.65 401.78,-365.17 356.55,-355.59"/>
<polygon fill="midnightblue" stroke="midnightblue" points="522.32,-394.27 532.82,-392.92 523.77,-387.42 522.32,-394.27"/>
</g>
<!-- Node23 -->
<g id="node23" class="node">
<title>Node23</title>
<g id="a_node23"><a xlink:href="jt_8h.html" target="_top" xlink:title="Sly entity.">
<polygon fill="white" stroke="black" points="190.5,-280.5 190.5,-299.5 261.5,-299.5 261.5,-280.5 190.5,-280.5"/>
<text text-anchor="middle" x="226" y="-287.5" font-family="Helvetica,sans-Serif" font-size="10.00">include/jt.h</text>
</a>
</g>
</g>
<!-- Node22&#45;&gt;Node23 -->
<g id="edge25" class="edge">
<title>Node22&#45;&gt;Node23</title>
<path fill="none" stroke="midnightblue" d="M292.96,-331.18C276.4,-321.24 254.58,-308.15 240.42,-299.65"/>
<polygon fill="midnightblue" stroke="midnightblue" points="291.16,-334.18 301.54,-336.32 294.77,-328.18 291.16,-334.18"/>
</g>
<!-- Node24 -->
<g id="node24" class="node">
<title>Node24</title>
<g id="a_node24"><a xlink:href="jt1_8c.html" target="_top" xlink:title=" ">
<polygon fill="white" stroke="black" points="0,-224.5 0,-243.5 70,-243.5 70,-224.5 0,-224.5"/>
<text text-anchor="middle" x="35" y="-231.5" font-family="Helvetica,sans-Serif" font-size="10.00">src/P2/jt1.c</text>
</a>
</g>
</g>
<!-- Node23&#45;&gt;Node24 -->
<g id="edge26" class="edge">
<title>Node23&#45;&gt;Node24</title>
<path fill="none" stroke="midnightblue" d="M186.03,-277.7C149.98,-267.51 97.76,-252.74 65.12,-243.52"/>
<polygon fill="midnightblue" stroke="midnightblue" points="185.16,-281.09 195.74,-280.44 187.06,-274.35 185.16,-281.09"/>
</g>
<!-- Node25 -->
<g id="node25" class="node">
<title>Node25</title>
<g id="a_node25"><a xlink:href="jt2_8c.html" target="_top" xlink:title=" ">
<polygon fill="white" stroke="black" points="88,-224.5 88,-243.5 158,-243.5 158,-224.5 88,-224.5"/>
<text text-anchor="middle" x="123" y="-231.5" font-family="Helvetica,sans-Serif" font-size="10.00">src/P2/jt2.c</text>
</a>
</g>
</g>
<!-- Node23&#45;&gt;Node25 -->
<g id="edge27" class="edge">
<title>Node23&#45;&gt;Node25</title>
<path fill="none" stroke="midnightblue" d="M200.42,-275.59C181.38,-265.61 155.94,-252.27 139.51,-243.65"/>
<polygon fill="midnightblue" stroke="midnightblue" points="198.97,-278.78 209.45,-280.32 202.22,-272.58 198.97,-278.78"/>
</g>
<!-- Node26 -->
<g id="node26" class="node">
<title>Node26</title>
<g id="a_node26"><a xlink:href="steppower_8c.html" target="_top" xlink:title=" ">
<polygon fill="white" stroke="black" points="274.5,-168.5 274.5,-187.5 381.5,-187.5 381.5,-168.5 274.5,-168.5"/>
<text text-anchor="middle" x="328" y="-175.5" font-family="Helvetica,sans-Serif" font-size="10.00">src/P2/steppower.c</text>
</a>
</g>
</g>
<!-- Node23&#45;&gt;Node26 -->
<g id="edge28" class="edge">
<title>Node23&#45;&gt;Node26</title>
<path fill="none" stroke="midnightblue" d="M212.81,-272.1C203.69,-258.2 194.86,-238.51 205,-224 220.7,-201.54 248.87,-190.26 274.29,-184.6"/>
<polygon fill="midnightblue" stroke="midnightblue" points="209.99,-274.18 218.65,-280.28 215.69,-270.11 209.99,-274.18"/>
</g>
<!-- Node27 -->
<g id="node27" class="node">
<title>Node27</title>
<g id="a_node27"><a xlink:href="steppower_8h.html" target="_top" xlink:title=" ">
<polygon fill="white" stroke="black" points="334,-224.5 334,-243.5 448,-243.5 448,-224.5 334,-224.5"/>
<text text-anchor="middle" x="391" y="-231.5" font-family="Helvetica,sans-Serif" font-size="10.00">include/steppower.h</text>
</a>
</g>
</g>
<!-- Node23&#45;&gt;Node27 -->
<g id="edge29" class="edge">
<title>Node23&#45;&gt;Node27</title>
<path fill="none" stroke="midnightblue" d="M261.74,-277.3C292.83,-267.13 337.15,-252.62 364.98,-243.52"/>
<polygon fill="midnightblue" stroke="midnightblue" points="260.56,-274.01 252.14,-280.44 262.74,-280.66 260.56,-274.01"/>
</g>
<!-- Node28 -->
<g id="node28" class="node">
<title>Node28</title>
<g id="a_node28"><a xlink:href="steprail_8h.html" target="_top" xlink:title="Rail behavior for STEP objects.">
<polygon fill="white" stroke="red" points="214.5,-224.5 214.5,-243.5 315.5,-243.5 315.5,-224.5 214.5,-224.5"/>
<text text-anchor="middle" x="265" y="-231.5" font-family="Helvetica,sans-Serif" font-size="10.00">include/steprail.h</text>
</a>
</g>
</g>
<!-- Node23&#45;&gt;Node28 -->
<g id="edge31" class="edge">
<title>Node23&#45;&gt;Node28</title>
<path fill="none" stroke="midnightblue" d="M238.38,-271.86C245.14,-262.5 253.21,-251.33 258.68,-243.75"/>
<polygon fill="midnightblue" stroke="midnightblue" points="235.46,-269.93 232.44,-280.08 241.13,-274.03 235.46,-269.93"/>
</g>
<!-- Node27&#45;&gt;Node26 -->
<g id="edge30" class="edge">
<title>Node27&#45;&gt;Node26</title>
<path fill="none" stroke="midnightblue" d="M372.96,-217.54C361.73,-207.91 347.68,-195.87 338.31,-187.83"/>
<polygon fill="midnightblue" stroke="midnightblue" points="371.01,-220.47 380.88,-224.32 375.56,-215.16 371.01,-220.47"/>
</g>
<!-- Node28&#45;&gt;Node26 -->
<g id="edge32" class="edge">
<title>Node28&#45;&gt;Node26</title>
<path fill="none" stroke="midnightblue" d="M283.04,-217.54C294.27,-207.91 308.32,-195.87 317.69,-187.83"/>
<polygon fill="midnightblue" stroke="midnightblue" points="280.44,-215.16 275.12,-224.32 284.99,-220.47 280.44,-215.16"/>
</g>
<!-- Node30&#45;&gt;Node16 -->
<g id="edge41" class="edge">
<title>Node30&#45;&gt;Node16</title>
<path fill="none" stroke="midnightblue" d="M955.79,-389.31C934.93,-382.14 910.48,-371.33 892,-356 869.04,-336.95 863.59,-328.57 855,-300 852.44,-291.49 849.91,-287.29 855,-280 881.56,-241.95 926.44,-282.05 953,-244 967.4,-223.37 938.08,-200.01 918.88,-187.68"/>
<polygon fill="midnightblue" stroke="midnightblue" points="954.81,-392.67 965.4,-392.45 956.98,-386.02 954.81,-392.67"/>
</g>
<!-- Node31 -->
<g id="node30" class="node">
<title>Node31</title>
<g id="a_node30"><a xlink:href="util_8c.html" target="_top" xlink:title=" ">
<polygon fill="white" stroke="black" points="1055.5,-280.5 1055.5,-299.5 1128.5,-299.5 1128.5,-280.5 1055.5,-280.5"/>
<text text-anchor="middle" x="1092" y="-287.5" font-family="Helvetica,sans-Serif" font-size="10.00">src/P2/util.c</text>
</a>
</g>
</g>
<!-- Node30&#45;&gt;Node31 -->
<g id="edge34" class="edge">
<title>Node30&#45;&gt;Node31</title>
<path fill="none" stroke="midnightblue" d="M1013.7,-384.8C1021.34,-376.3 1030.77,-365.67 1039,-356 1055.99,-336.04 1075.29,-312.02 1085.25,-299.51"/>
<polygon fill="midnightblue" stroke="midnightblue" points="1010.88,-382.7 1006.78,-392.47 1016.08,-387.39 1010.88,-382.7"/>
</g>
<!-- Node32 -->
<g id="node31" class="node">
<title>Node32</title>
<g id="a_node31"><a xlink:href="vec_8c.html" target="_top" xlink:title=" ">
<polygon fill="white" stroke="black" points="963,-280.5 963,-299.5 1037,-299.5 1037,-280.5 963,-280.5"/>
<text text-anchor="middle" x="1000" y="-287.5" font-family="Helvetica,sans-Serif" font-size="10.00">src/P2/vec.c</text>
</a>
</g>
</g>
<!-- Node30&#45;&gt;Node32 -->
<g id="edge35" class="edge">
<title>Node30&#45;&gt;Node32</title>
<path fill="none" stroke="midnightblue" d="M1011.73,-383.9C1016.93,-375.87 1022.35,-365.9 1025,-356 1030.57,-335.21 1016.31,-311.91 1007.1,-299.64"/>
<polygon fill="midnightblue" stroke="midnightblue" points="1008.71,-382.11 1005.89,-392.32 1014.46,-386.09 1008.71,-382.11"/>
</g>
<!-- Node33 -->
<g id="node32" class="node">
<title>Node33</title>
<g id="a_node32"><a xlink:href="bis_8h.html" target="_top" xlink:title="Binary Input Stream.">
<polygon fill="white" stroke="black" points="565,-336.5 565,-355.5 643,-355.5 643,-336.5 565,-336.5"/>
<text text-anchor="middle" x="604" y="-343.5" font-family="Helvetica,sans-Serif" font-size="10.00">include/bis.h</text>
</a>
</g>
</g>
<!-- Node30&#45;&gt;Node33 -->
<g id="edge36" class="edge">
<title>Node30&#45;&gt;Node33</title>
<path fill="none" stroke="midnightblue" d="M947.9,-394.01C867.93,-383.08 714.95,-362.17 643.1,-352.35"/>
<polygon fill="midnightblue" stroke="midnightblue" points="947.83,-397.54 958.22,-395.42 948.78,-390.6 947.83,-397.54"/>
</g>
<!-- Node35 -->
<g id="node34" class="node">
<title>Node35</title>
<g id="a_node34"><a xlink:href="shd_8h.html" target="_top" xlink:title="Shaders.">
<polygon fill="white" stroke="black" points="863.5,-280.5 863.5,-299.5 944.5,-299.5 944.5,-280.5 863.5,-280.5"/>
<text text-anchor="middle" x="904" y="-287.5" font-family="Helvetica,sans-Serif" font-size="10.00">include/shd.h</text>
</a>
</g>
</g>
<!-- Node30&#45;&gt;Node35 -->
<g id="edge42" class="edge">
<title>Node30&#45;&gt;Node35</title>
<path fill="none" stroke="midnightblue" d="M1001.5,-381.76C1002.29,-367.87 1001.15,-349.29 992,-336 979.35,-317.62 956.86,-306.31 937.78,-299.62"/>
<polygon fill="midnightblue" stroke="midnightblue" points="997.98,-381.83 1000.52,-392.11 1004.95,-382.49 997.98,-381.83"/>
</g>
<!-- Node45 -->
<g id="node38" class="node">
<title>Node45</title>
<g id="a_node38"><a xlink:href="vecmat_8h.html" target="_top" xlink:title=" ">
<polygon fill="white" stroke="black" points="1356,-280.5 1356,-299.5 1488,-299.5 1488,-280.5 1356,-280.5"/>
<text text-anchor="middle" x="1422" y="-287.5" font-family="Helvetica,sans-Serif" font-size="10.00">include/splice/vecmat.h</text>
</a>
</g>
</g>
<!-- Node30&#45;&gt;Node45 -->
<g id="edge49" class="edge">
<title>Node30&#45;&gt;Node45</title>
<path fill="none" stroke="midnightblue" d="M1049.97,-391.8C1122.21,-378.75 1245.83,-356.4 1247,-356 1265.45,-349.75 1268.03,-343.53 1286,-336 1321.55,-321.11 1363.91,-307.75 1391.8,-299.53"/>
<polygon fill="midnightblue" stroke="midnightblue" points="1048.93,-388.43 1039.71,-393.65 1050.17,-395.32 1048.93,-388.43"/>
</g>
<!-- Node48 -->
<g id="node41" class="node">
<title>Node48</title>
<g id="a_node41"><a xlink:href="surf_8h.html" target="_top" xlink:title="Surface?">
<polygon fill="white" stroke="black" points="901,-336.5 901,-355.5 983,-355.5 983,-336.5 901,-336.5"/>
<text text-anchor="middle" x="942" y="-343.5" font-family="Helvetica,sans-Serif" font-size="10.00">include/surf.h</text>
</a>
</g>
</g>
<!-- Node30&#45;&gt;Node48 -->
<g id="edge52" class="edge">
<title>Node30&#45;&gt;Node48</title>
<path fill="none" stroke="midnightblue" d="M982.38,-385.25C972.27,-375.67 959.72,-363.79 951.32,-355.83"/>
<polygon fill="midnightblue" stroke="midnightblue" points="980.18,-387.99 989.84,-392.32 984.99,-382.91 980.18,-387.99"/>
</g>
<!-- Node49 -->
<g id="node42" class="node">
<title>Node49</title>
<g id="a_node42"><a xlink:href="util_8h.html" target="_top" xlink:title="Utility functions.">
<polygon fill="white" stroke="black" points="1158,-336.5 1158,-355.5 1238,-355.5 1238,-336.5 1158,-336.5"/>
<text text-anchor="middle" x="1198" y="-343.5" font-family="Helvetica,sans-Serif" font-size="10.00">include/util.h</text>
</a>
</g>
</g>
<!-- Node30&#45;&gt;Node49 -->
<g id="edge55" class="edge">
<title>Node30&#45;&gt;Node49</title>
<path fill="none" stroke="midnightblue" d="M1040.65,-389.7C1078.21,-379.51 1132.61,-364.74 1166.62,-355.52"/>
<polygon fill="midnightblue" stroke="midnightblue" points="1039.27,-386.45 1030.53,-392.44 1041.1,-393.2 1039.27,-386.45"/>
</g>
<!-- Node33&#45;&gt;Node4 -->
<g id="edge38" class="edge">
<title>Node33&#45;&gt;Node4</title>
<path fill="none" stroke="midnightblue" d="M555.1,-337.45C532.83,-331.3 508.49,-320.16 495,-300 454.45,-239.39 542.1,-157.78 573.42,-131.52"/>
<polygon fill="midnightblue" stroke="midnightblue" points="554.26,-340.84 564.81,-339.86 555.95,-334.05 554.26,-340.84"/>
</g>
<!-- Node33&#45;&gt;Node8 -->
<g id="edge40" class="edge">
<title>Node33&#45;&gt;Node8</title>
<path fill="none" stroke="midnightblue" d="M638.17,-333.17C667.54,-323 709.2,-308.59 735.4,-299.52"/>
<polygon fill="midnightblue" stroke="midnightblue" points="637.02,-329.86 628.72,-336.44 639.31,-336.48 637.02,-329.86"/>
</g>
<!-- Node33&#45;&gt;Node16 -->
<g id="edge39" class="edge">
<title>Node33&#45;&gt;Node16</title>
<path fill="none" stroke="midnightblue" d="M601.5,-325.94C598.93,-312.14 593.85,-293.59 584,-280 564.24,-252.75 510.68,-249.2 533,-224 554.03,-200.27 759.31,-186.54 855.16,-181.38"/>
<polygon fill="midnightblue" stroke="midnightblue" points="598.1,-326.87 603.11,-336.21 605.02,-325.78 598.1,-326.87"/>
</g>
<!-- Node34 -->
<g id="node33" class="node">
<title>Node34</title>
<g id="a_node33"><a xlink:href="bis_8c.html" target="_top" xlink:title=" ">
<polygon fill="white" stroke="black" points="504.5,-280.5 504.5,-299.5 575.5,-299.5 575.5,-280.5 504.5,-280.5"/>
<text text-anchor="middle" x="540" y="-287.5" font-family="Helvetica,sans-Serif" font-size="10.00">src/P2/bis.c</text>
</a>
</g>
</g>
<!-- Node33&#45;&gt;Node34 -->
<g id="edge37" class="edge">
<title>Node33&#45;&gt;Node34</title>
<path fill="none" stroke="midnightblue" d="M586.01,-329.82C574.54,-320.15 560.09,-307.95 550.47,-299.83"/>
<polygon fill="midnightblue" stroke="midnightblue" points="583.82,-332.55 593.72,-336.32 588.33,-327.2 583.82,-332.55"/>
</g>
<!-- Node36 -->
<g id="node35" class="node">
<title>Node36</title>
<g id="a_node35"><a xlink:href="screen_8h.html" target="_top" xlink:title="User interface manager.">
<polygon fill="white" stroke="red" points="1000,-224.5 1000,-243.5 1096,-243.5 1096,-224.5 1000,-224.5"/>
<text text-anchor="middle" x="1048" y="-231.5" font-family="Helvetica,sans-Serif" font-size="10.00">include/screen.h</text>
</a>
</g>
</g>
<!-- Node35&#45;&gt;Node36 -->
<g id="edge43" class="edge">
<title>Node35&#45;&gt;Node36</title>
<path fill="none" stroke="midnightblue" d="M936.25,-276.91C963.32,-266.75 1001.32,-252.51 1025.29,-243.52"/>
<polygon fill="midnightblue" stroke="midnightblue" points="934.95,-273.66 926.82,-280.44 937.41,-280.21 934.95,-273.66"/>
</g>
<!-- Node36&#45;&gt;Node26 -->
<g id="edge45" class="edge">
<title>Node36&#45;&gt;Node26</title>
<path fill="none" stroke="midnightblue" d="M989.68,-227.27C977.56,-226.13 964.87,-224.99 953,-224 741.6,-206.38 489.62,-189.49 381.54,-182.45"/>
<polygon fill="midnightblue" stroke="midnightblue" points="989.41,-230.75 999.69,-228.21 990.06,-223.79 989.41,-230.75"/>
</g>
<!-- Node37 -->
<g id="node36" class="node">
<title>Node37</title>
<g id="a_node36"><a xlink:href="screen_8c.html" target="_top" xlink:title=" ">
<polygon fill="white" stroke="black" points="1003.5,-168.5 1003.5,-187.5 1092.5,-187.5 1092.5,-168.5 1003.5,-168.5"/>
<text text-anchor="middle" x="1048" y="-175.5" font-family="Helvetica,sans-Serif" font-size="10.00">src/P2/screen.c</text>
</a>
</g>
</g>
<!-- Node36&#45;&gt;Node37 -->
<g id="edge44" class="edge">
<title>Node36&#45;&gt;Node37</title>
<path fill="none" stroke="midnightblue" d="M1048,-213.8C1048,-204.91 1048,-194.78 1048,-187.75"/>
<polygon fill="midnightblue" stroke="midnightblue" points="1044.5,-214.08 1048,-224.08 1051.5,-214.08 1044.5,-214.08"/>
</g>
<!-- Node38 -->
<g id="node37" class="node">
<title>Node38</title>
<g id="a_node37"><a xlink:href="binoc_8h.html" target="_top" xlink:title="Binoc&#45;u&#45;com.">
<polygon fill="white" stroke="red" points="1172,-168.5 1172,-187.5 1262,-187.5 1262,-168.5 1172,-168.5"/>
<text text-anchor="middle" x="1217" y="-175.5" font-family="Helvetica,sans-Serif" font-size="10.00">include/binoc.h</text>
</a>
</g>
</g>
<!-- Node36&#45;&gt;Node38 -->
<g id="edge46" class="edge">
<title>Node36&#45;&gt;Node38</title>
<path fill="none" stroke="midnightblue" d="M1084.6,-221.3C1116.45,-211.13 1161.84,-196.62 1190.35,-187.52"/>
<polygon fill="midnightblue" stroke="midnightblue" points="1083.24,-218.07 1074.78,-224.44 1085.37,-224.73 1083.24,-218.07"/>
</g>
<!-- Node38&#45;&gt;Node11 -->
<g id="edge48" class="edge">
<title>Node38&#45;&gt;Node11</title>
<path fill="none" stroke="midnightblue" d="M1250.37,-164.91C1278.38,-154.75 1317.7,-140.51 1342.5,-131.52"/>
<polygon fill="midnightblue" stroke="midnightblue" points="1248.82,-161.75 1240.61,-168.44 1251.2,-168.33 1248.82,-161.75"/>
</g>
<!-- Node38&#45;&gt;Node12 -->
<g id="edge47" class="edge">
<title>Node38&#45;&gt;Node12</title>
<path fill="none" stroke="midnightblue" d="M1228.31,-159.96C1244.13,-136.12 1272.28,-93.71 1284.3,-75.59"/>
<polygon fill="midnightblue" stroke="midnightblue" points="1225.34,-158.1 1222.73,-168.37 1231.17,-161.97 1225.34,-158.1"/>
</g>
<!-- Node46 -->
<g id="node39" class="node">
<title>Node46</title>
<g id="a_node39"><a xlink:href="ref_8cpp.html" target="_top" xlink:title=" ">
<polygon fill="white" stroke="black" points="1394.5,-224.5 1394.5,-243.5 1507.5,-243.5 1507.5,-224.5 1394.5,-224.5"/>
<text text-anchor="middle" x="1451" y="-231.5" font-family="Helvetica,sans-Serif" font-size="10.00">src/P2/splice/ref.cpp</text>
</a>
</g>
</g>
<!-- Node45&#45;&gt;Node46 -->
<g id="edge50" class="edge">
<title>Node45&#45;&gt;Node46</title>
<path fill="none" stroke="midnightblue" d="M1431.68,-270.98C1436.6,-261.82 1442.36,-251.09 1446.3,-243.75"/>
<polygon fill="midnightblue" stroke="midnightblue" points="1428.44,-269.62 1426.79,-280.08 1434.6,-272.93 1428.44,-269.62"/>
</g>
<!-- Node47 -->
<g id="node40" class="node">
<title>Node47</title>
<g id="a_node40"><a xlink:href="spliceutils_8cpp.html" target="_top" xlink:title=" ">
<polygon fill="white" stroke="black" points="1451,-168.5 1451,-187.5 1601,-187.5 1601,-168.5 1451,-168.5"/>
<text text-anchor="middle" x="1526" y="-175.5" font-family="Helvetica,sans-Serif" font-size="10.00">src/P2/splice/spliceutils.cpp</text>
</a>
</g>
</g>
<!-- Node45&#45;&gt;Node47 -->
<g id="edge51" class="edge">
<title>Node45&#45;&gt;Node47</title>
<path fill="none" stroke="midnightblue" d="M1403.25,-273.35C1389.28,-259.76 1374.46,-239.83 1386,-224 1401.19,-203.16 1426.19,-191.76 1450.88,-185.6"/>
<polygon fill="midnightblue" stroke="midnightblue" points="1401,-276.03 1410.75,-280.18 1405.71,-270.85 1401,-276.03"/>
</g>
<!-- Node48&#45;&gt;Node8 -->
<g id="edge54" class="edge">
<title>Node48&#45;&gt;Node8</title>
<path fill="none" stroke="midnightblue" d="M903.47,-333.57C869.14,-323.38 819.67,-308.7 788.7,-299.52"/>
<polygon fill="midnightblue" stroke="midnightblue" points="902.58,-336.95 913.16,-336.44 904.57,-330.24 902.58,-336.95"/>
</g>
<!-- Node48&#45;&gt;Node35 -->
<g id="edge53" class="edge">
<title>Node48&#45;&gt;Node35</title>
<path fill="none" stroke="midnightblue" d="M929.94,-327.86C923.36,-318.5 915.49,-307.33 910.16,-299.75"/>
<polygon fill="midnightblue" stroke="midnightblue" points="927.11,-329.92 935.73,-336.08 932.83,-325.89 927.11,-329.92"/>
</g>
<!-- Node49&#45;&gt;Node8 -->
<g id="edge72" class="edge">
<title>Node49&#45;&gt;Node8</title>
<path fill="none" stroke="midnightblue" d="M1148,-338.84C1062.57,-328.3 889.71,-306.99 806.64,-296.75"/>
<polygon fill="midnightblue" stroke="midnightblue" points="1147.62,-342.31 1157.97,-340.06 1148.47,-335.37 1147.62,-342.31"/>
</g>
<!-- Node49&#45;&gt;Node11 -->
<g id="edge59" class="edge">
<title>Node49&#45;&gt;Node11</title>
<path fill="none" stroke="midnightblue" d="M1247.66,-333.36C1267.44,-326.53 1289.02,-315.98 1304,-300 1351.65,-249.17 1362.96,-159.63 1365.39,-131.62"/>
<polygon fill="midnightblue" stroke="midnightblue" points="1246.58,-330.03 1238.13,-336.42 1248.72,-336.7 1246.58,-330.03"/>
</g>
<!-- Node49&#45;&gt;Node12 -->
<g id="edge56" class="edge">
<title>Node49&#45;&gt;Node12</title>
<path fill="none" stroke="midnightblue" d="M1221.83,-330.66C1249.09,-312.23 1290,-277.5 1290,-235 1290,-235 1290,-235 1290,-177 1290,-139.19 1290,-94.06 1290,-75.56"/>
<polygon fill="midnightblue" stroke="midnightblue" points="1219.67,-327.89 1213.19,-336.27 1223.49,-333.76 1219.67,-327.89"/>
</g>
<!-- Node49&#45;&gt;Node18 -->
<g id="edge60" class="edge">
<title>Node49&#45;&gt;Node18</title>
<path fill="none" stroke="midnightblue" d="M1214.65,-329.04C1221.77,-321.08 1229.28,-310.84 1233,-300 1243.96,-268.05 1250.59,-252.83 1233,-224 1214.78,-194.14 1192.35,-207.04 1163,-188 1135.47,-170.14 1106.15,-144.82 1091.49,-131.68"/>
<polygon fill="midnightblue" stroke="midnightblue" points="1211.95,-326.81 1207.56,-336.45 1217,-331.65 1211.95,-326.81"/>
</g>
<!-- Node49&#45;&gt;Node31 -->
<g id="edge57" class="edge">
<title>Node49&#45;&gt;Node31</title>
<path fill="none" stroke="midnightblue" d="M1171.94,-331.73C1152.32,-321.73 1125.97,-308.31 1108.99,-299.65"/>
<polygon fill="midnightblue" stroke="midnightblue" points="1170.47,-334.9 1180.97,-336.32 1173.65,-328.67 1170.47,-334.9"/>
</g>
<!-- Node49&#45;&gt;Node32 -->
<g id="edge58" class="edge">
<title>Node49&#45;&gt;Node32</title>
<path fill="none" stroke="midnightblue" d="M1156.56,-333.7C1119.19,-323.51 1065.06,-308.74 1031.23,-299.52"/>
<polygon fill="midnightblue" stroke="midnightblue" points="1156.06,-337.19 1166.63,-336.44 1157.9,-330.44 1156.06,-337.19"/>
</g>
<!-- Node49&#45;&gt;Node45 -->
<g id="edge71" class="edge">
<title>Node49&#45;&gt;Node45</title>
<path fill="none" stroke="midnightblue" d="M1243.26,-334.09C1285.58,-323.89 1347.91,-308.86 1386.67,-299.52"/>
<polygon fill="midnightblue" stroke="midnightblue" points="1242.39,-330.7 1233.49,-336.44 1244.04,-337.5 1242.39,-330.7"/>
</g>
<!-- Node50 -->
<g id="node43" class="node">
<title>Node50</title>
<g id="a_node43"><a xlink:href="joy_8h.html" target="_top" xlink:title="Joypad manager.">
<polygon fill="white" stroke="black" points="1146.5,-280.5 1146.5,-299.5 1223.5,-299.5 1223.5,-280.5 1146.5,-280.5"/>
<text text-anchor="middle" x="1185" y="-287.5" font-family="Helvetica,sans-Serif" font-size="10.00">include/joy.h</text>
</a>
</g>
</g>
<!-- Node49&#45;&gt;Node50 -->
<g id="edge61" class="edge">
<title>Node49&#45;&gt;Node50</title>
<path fill="none" stroke="midnightblue" d="M1193.45,-326.1C1191.29,-317.14 1188.82,-306.86 1187.11,-299.75"/>
<polygon fill="midnightblue" stroke="midnightblue" points="1190.11,-327.18 1195.85,-336.08 1196.92,-325.54 1190.11,-327.18"/>
</g>
<!-- Node49&#45;&gt;Node52 -->
<g id="edge64" class="edge">
<title>Node49&#45;&gt;Node52</title>
<path fill="none" stroke="midnightblue" d="M1248.1,-339.85C1352.48,-329.09 1586.61,-304.85 1623,-300 1626.03,-299.6 1629.14,-299.16 1632.28,-298.7"/>
<polygon fill="midnightblue" stroke="midnightblue" points="1247.7,-336.37 1238.11,-340.88 1248.42,-343.33 1247.7,-336.37"/>
</g>
<!-- Node53 -->
<g id="node46" class="node">
<title>Node53</title>
<g id="a_node46"><a xlink:href="ref_8h.html" target="_top" xlink:title=" ">
<polygon fill="white" stroke="black" points="1506,-280.5 1506,-299.5 1614,-299.5 1614,-280.5 1506,-280.5"/>
<text text-anchor="middle" x="1560" y="-287.5" font-family="Helvetica,sans-Serif" font-size="10.00">include/splice/ref.h</text>
</a>
</g>
</g>
<!-- Node49&#45;&gt;Node53 -->
<g id="edge66" class="edge">
<title>Node49&#45;&gt;Node53</title>
<path fill="none" stroke="midnightblue" d="M1248.13,-337.52C1315.86,-327.42 1436.16,-309.47 1505.89,-299.07"/>
<polygon fill="midnightblue" stroke="midnightblue" points="1247.5,-334.08 1238.12,-339.01 1248.53,-341 1247.5,-334.08"/>
</g>
<!-- Node50&#45;&gt;Node27 -->
<g id="edge63" class="edge">
<title>Node50&#45;&gt;Node27</title>
<path fill="none" stroke="midnightblue" d="M1136.33,-279.94C869,-246.94 798.58,-260.32 533,-244 505.02,-242.28 473.93,-240.32 448,-238.66"/>
<polygon fill="midnightblue" stroke="midnightblue" points="1135.98,-283.42 1146.33,-281.18 1136.84,-276.48 1135.98,-283.42"/>
</g>
<!-- Node51 -->
<g id="node44" class="node">
<title>Node51</title>
<g id="a_node44"><a xlink:href="joy_8c.html" target="_top" xlink:title=" ">
<polygon fill="white" stroke="black" points="1152.5,-224.5 1152.5,-243.5 1223.5,-243.5 1223.5,-224.5 1152.5,-224.5"/>
<text text-anchor="middle" x="1188" y="-231.5" font-family="Helvetica,sans-Serif" font-size="10.00">src/P2/joy.c</text>
</a>
</g>
</g>
<!-- Node50&#45;&gt;Node51 -->
<g id="edge62" class="edge">
<title>Node50&#45;&gt;Node51</title>
<path fill="none" stroke="midnightblue" d="M1186.07,-269.8C1186.56,-260.91 1187.12,-250.78 1187.51,-243.75"/>
<polygon fill="midnightblue" stroke="midnightblue" points="1182.56,-269.9 1185.5,-280.08 1189.54,-270.29 1182.56,-269.9"/>
</g>
<!-- Node52&#45;&gt;Node11 -->
<g id="edge65" class="edge">
<title>Node52&#45;&gt;Node11</title>
<path fill="none" stroke="midnightblue" d="M1726.4,-277.49C1760.32,-266.88 1797.04,-248.98 1779,-224 1735.08,-163.18 1500.57,-135.27 1405.79,-126.35"/>
<polygon fill="midnightblue" stroke="midnightblue" points="1725.09,-274.23 1716.5,-280.42 1727.08,-280.94 1725.09,-274.23"/>
</g>
<!-- Node53&#45;&gt;Node46 -->
<g id="edge68" class="edge">
<title>Node53&#45;&gt;Node46</title>
<path fill="none" stroke="midnightblue" d="M1533.48,-275.86C1513.27,-265.85 1486.01,-252.35 1468.47,-243.65"/>
<polygon fill="midnightblue" stroke="midnightblue" points="1531.97,-279.02 1542.49,-280.32 1535.08,-272.75 1531.97,-279.02"/>
</g>
<!-- Node54 -->
<g id="node47" class="node">
<title>Node54</title>
<g id="a_node47"><a xlink:href="bif_8cpp.html" target="_top" xlink:title=" ">
<polygon fill="white" stroke="black" points="1656.5,-224.5 1656.5,-243.5 1769.5,-243.5 1769.5,-224.5 1656.5,-224.5"/>
<text text-anchor="middle" x="1713" y="-231.5" font-family="Helvetica,sans-Serif" font-size="10.00">src/P2/splice/bif.cpp</text>
</a>
</g>
</g>
<!-- Node53&#45;&gt;Node54 -->
<g id="edge67" class="edge">
<title>Node53&#45;&gt;Node54</title>
<path fill="none" stroke="midnightblue" d="M1593.89,-277.04C1622.68,-266.88 1663.29,-252.55 1688.87,-243.52"/>
<polygon fill="midnightblue" stroke="midnightblue" points="1592.51,-273.81 1584.24,-280.44 1594.84,-280.42 1592.51,-273.81"/>
</g>
<!-- Node55 -->
<g id="node48" class="node">
<title>Node55</title>
<g id="a_node48"><a xlink:href="pair_8h.html" target="_top" xlink:title=" ">
<polygon fill="white" stroke="black" points="1525.5,-224.5 1525.5,-243.5 1638.5,-243.5 1638.5,-224.5 1525.5,-224.5"/>
<text text-anchor="middle" x="1582" y="-231.5" font-family="Helvetica,sans-Serif" font-size="10.00">include/splice/pair.h</text>
</a>
</g>
</g>
<!-- Node53&#45;&gt;Node55 -->
<g id="edge69" class="edge">
<title>Node53&#45;&gt;Node55</title>
<path fill="none" stroke="midnightblue" d="M1567.46,-270.69C1571.17,-261.59 1575.48,-251.01 1578.43,-243.75"/>
<polygon fill="midnightblue" stroke="midnightblue" points="1564.16,-269.5 1563.63,-280.08 1570.65,-272.14 1564.16,-269.5"/>
</g>
<!-- Node55&#45;&gt;Node47 -->
<g id="edge70" class="edge">
<title>Node55&#45;&gt;Node47</title>
<path fill="none" stroke="midnightblue" d="M1565.67,-217.25C1555.74,-207.67 1543.41,-195.79 1535.16,-187.83"/>
<polygon fill="midnightblue" stroke="midnightblue" points="1563.37,-219.9 1573,-224.32 1568.23,-214.86 1563.37,-219.9"/>
</g>
<!-- Node56&#45;&gt;Node8 -->
<g id="edge80" class="edge">
<title>Node56&#45;&gt;Node8</title>
<path fill="none" stroke="midnightblue" d="M1130.04,-453.22C1054.22,-445.62 916.14,-422.97 821,-356 797.71,-339.61 776.39,-313.2 766.24,-299.64"/>
<polygon fill="midnightblue" stroke="midnightblue" points="1130.03,-456.74 1140.32,-454.2 1130.69,-449.77 1130.03,-456.74"/>
</g>
<!-- Node57 -->
<g id="node50" class="node">
<title>Node57</title>
<g id="a_node50"><a xlink:href="sm_8h.html" target="_top" xlink:title="State machines.">
<polygon fill="white" stroke="black" points="1158.5,-392.5 1158.5,-411.5 1237.5,-411.5 1237.5,-392.5 1158.5,-392.5"/>
<text text-anchor="middle" x="1198" y="-399.5" font-family="Helvetica,sans-Serif" font-size="10.00">include/sm.h</text>
</a>
</g>
</g>
<!-- Node56&#45;&gt;Node57 -->
<g id="edge76" class="edge">
<title>Node56&#45;&gt;Node57</title>
<path fill="none" stroke="midnightblue" d="M1189.55,-438.1C1191.71,-429.14 1194.18,-418.86 1195.89,-411.75"/>
<polygon fill="midnightblue" stroke="midnightblue" points="1186.08,-437.54 1187.15,-448.08 1192.89,-439.18 1186.08,-437.54"/>
</g>
<!-- Node57&#45;&gt;Node3 -->
<g id="edge77" class="edge">
<title>Node57&#45;&gt;Node3</title>
<path fill="none" stroke="midnightblue" d="M1148.49,-391.99C948.13,-360.34 888.24,-375.74 705,-300 664.45,-283.24 619.68,-256.99 597.71,-243.56"/>
<polygon fill="midnightblue" stroke="midnightblue" points="1148.02,-395.46 1158.44,-393.59 1149.12,-388.55 1148.02,-395.46"/>
</g>
<!-- Node57&#45;&gt;Node13 -->
<g id="edge78" class="edge">
<title>Node57&#45;&gt;Node13</title>
<path fill="none" stroke="midnightblue" d="M1248.25,-397.63C1398.82,-386.89 1836,-350.55 1836,-291 1836,-291 1836,-291 1836,-177 1836,-97.5 1720.91,-75.45 1655.72,-69.34"/>
<polygon fill="midnightblue" stroke="midnightblue" points="1247.64,-394.17 1237.91,-398.36 1248.13,-401.15 1247.64,-394.17"/>
</g>
<!-- Node57&#45;&gt;Node49 -->
<g id="edge79" class="edge">
<title>Node57&#45;&gt;Node49</title>
<path fill="none" stroke="midnightblue" d="M1198,-381.8C1198,-372.91 1198,-362.78 1198,-355.75"/>
<polygon fill="midnightblue" stroke="midnightblue" points="1194.5,-382.08 1198,-392.08 1201.5,-382.08 1194.5,-382.08"/>
</g>
</g>
</svg>
