<?xml version="1.0" encoding="UTF-8" standalone="no"?>
<!DOCTYPE svg PUBLIC "-//W3C//DTD SVG 1.1//EN"
 "http://www.w3.org/Graphics/SVG/1.1/DTD/svg11.dtd">
<!-- Generated by graphviz version 2.43.0 (0)
 -->
<!-- Title: include/lo.h Pages: 1 -->
<svg width="1422pt" height="812pt"
 viewBox="0.00 0.00 1421.50 812.00" xmlns="http://www.w3.org/2000/svg" xmlns:xlink="http://www.w3.org/1999/xlink">
<g id="graph0" class="graph" transform="scale(1 1) rotate(0) translate(4 808)">
<title>include/lo.h</title>
<polygon fill="white" stroke="transparent" points="-4,4 -4,-808 1417.5,-808 1417.5,4 -4,4"/>
<!-- Node1 -->
<g id="node1" class="node">
<title>Node1</title>
<g id="a_node1"><a xlink:title="Level objects.">
<polygon fill="#bfbfbf" stroke="black" points="1023.5,-784.5 1023.5,-803.5 1096.5,-803.5 1096.5,-784.5 1023.5,-784.5"/>
<text text-anchor="middle" x="1060" y="-791.5" font-family="Helvetica,sans-Serif" font-size="10.00">include/lo.h</text>
</a>
</g>
</g>
<!-- Node2 -->
<g id="node2" class="node">
<title>Node2</title>
<g id="a_node2"><a xlink:href="alo_8h.html" target="_top" xlink:title=" ">
<polygon fill="white" stroke="black" points="695.5,-728.5 695.5,-747.5 774.5,-747.5 774.5,-728.5 695.5,-728.5"/>
<text text-anchor="middle" x="735" y="-735.5" font-family="Helvetica,sans-Serif" font-size="10.00">include/alo.h</text>
</a>
</g>
</g>
<!-- Node1&#45;&gt;Node2 -->
<g id="edge1" class="edge">
<title>Node1&#45;&gt;Node2</title>
<path fill="none" stroke="midnightblue" d="M1013.11,-785.21C948.88,-774.54 834.68,-755.56 774.55,-745.57"/>
<polygon fill="midnightblue" stroke="midnightblue" points="1012.91,-788.72 1023.35,-786.91 1014.06,-781.82 1012.91,-788.72"/>
</g>
<!-- Node11 -->
<g id="node11" class="node">
<title>Node11</title>
<g id="a_node11"><a xlink:href="cm_8h.html" target="_top" xlink:title="Game camera.">
<polygon fill="white" stroke="black" points="1255.5,-168.5 1255.5,-187.5 1334.5,-187.5 1334.5,-168.5 1255.5,-168.5"/>
<text text-anchor="middle" x="1295" y="-175.5" font-family="Helvetica,sans-Serif" font-size="10.00">include/cm.h</text>
</a>
</g>
</g>
<!-- Node1&#45;&gt;Node11 -->
<g id="edge76" class="edge">
<title>Node1&#45;&gt;Node11</title>
<path fill="none" stroke="midnightblue" d="M1106.77,-788.13C1201.69,-776.94 1408,-745.45 1408,-683 1408,-683 1408,-683 1408,-289 1408,-237.8 1347.7,-202.71 1315.2,-187.51"/>
<polygon fill="midnightblue" stroke="midnightblue" points="1106.12,-784.68 1096.58,-789.3 1106.92,-791.64 1106.12,-784.68"/>
</g>
<!-- Node50 -->
<g id="node49" class="node">
<title>Node50</title>
<g id="a_node49"><a xlink:href="anim_8h.html" target="_top" xlink:title="Animation.">
<polygon fill="white" stroke="black" points="964.5,-392.5 964.5,-411.5 1053.5,-411.5 1053.5,-392.5 964.5,-392.5"/>
<text text-anchor="middle" x="1009" y="-399.5" font-family="Helvetica,sans-Serif" font-size="10.00">include/anim.h</text>
</a>
</g>
</g>
<!-- Node1&#45;&gt;Node50 -->
<g id="edge70" class="edge">
<title>Node1&#45;&gt;Node50</title>
<path fill="none" stroke="midnightblue" d="M1060,-774.25C1060,-752.36 1060,-715.05 1060,-683 1060,-683 1060,-683 1060,-513 1060,-471.95 1030.41,-429.61 1016.31,-411.77"/>
<polygon fill="midnightblue" stroke="midnightblue" points="1056.5,-774.44 1060,-784.44 1063.5,-774.44 1056.5,-774.44"/>
</g>
<!-- Node3 -->
<g id="node3" class="node">
<title>Node3</title>
<g id="a_node3"><a xlink:href="coin_8h.html" target="_top" xlink:title="Coins, keys, and other collectibles.">
<polygon fill="white" stroke="black" points="271,-168.5 271,-187.5 355,-187.5 355,-168.5 271,-168.5"/>
<text text-anchor="middle" x="313" y="-175.5" font-family="Helvetica,sans-Serif" font-size="10.00">include/coin.h</text>
</a>
</g>
</g>
<!-- Node2&#45;&gt;Node3 -->
<g id="edge2" class="edge">
<title>Node2&#45;&gt;Node3</title>
<path fill="none" stroke="midnightblue" d="M684.7,-737.85C545.78,-738.86 167,-731.99 167,-627 167,-627 167,-627 167,-289 167,-232.35 237.98,-201.22 280.96,-187.56"/>
<polygon fill="midnightblue" stroke="midnightblue" points="685.09,-741.35 695.06,-737.76 685.03,-734.35 685.09,-741.35"/>
</g>
<!-- Node5 -->
<g id="node5" class="node">
<title>Node5</title>
<g id="a_node5"><a xlink:href="find_8h.html" target="_top" xlink:title="Find objects in the SW.">
<polygon fill="white" stroke="black" points="794,-616.5 794,-635.5 876,-635.5 876,-616.5 794,-616.5"/>
<text text-anchor="middle" x="835" y="-623.5" font-family="Helvetica,sans-Serif" font-size="10.00">include/find.h</text>
</a>
</g>
</g>
<!-- Node2&#45;&gt;Node5 -->
<g id="edge4" class="edge">
<title>Node2&#45;&gt;Node5</title>
<path fill="none" stroke="midnightblue" d="M752.08,-721.6C761.22,-713.13 772.52,-702.27 782,-692 799.78,-672.74 818.76,-648.43 828.46,-635.69"/>
<polygon fill="midnightblue" stroke="midnightblue" points="749.71,-719.03 744.7,-728.36 754.44,-724.19 749.71,-719.03"/>
</g>
<!-- Node7 -->
<g id="node7" class="node">
<title>Node7</title>
<g id="a_node7"><a xlink:href="proxy_8h.html" target="_top" xlink:title=" ">
<polygon fill="white" stroke="black" points="451,-504.5 451,-523.5 541,-523.5 541,-504.5 451,-504.5"/>
<text text-anchor="middle" x="496" y="-511.5" font-family="Helvetica,sans-Serif" font-size="10.00">include/proxy.h</text>
</a>
</g>
</g>
<!-- Node2&#45;&gt;Node7 -->
<g id="edge6" class="edge">
<title>Node2&#45;&gt;Node7</title>
<path fill="none" stroke="midnightblue" d="M718.16,-721.35C671.43,-677.95 541.26,-557.04 505.3,-523.64"/>
<polygon fill="midnightblue" stroke="midnightblue" points="715.92,-724.06 725.63,-728.3 720.69,-718.93 715.92,-724.06"/>
</g>
<!-- Node8 -->
<g id="node8" class="node">
<title>Node8</title>
<g id="a_node8"><a xlink:href="xform_8h.html" target="_top" xlink:title="Transform.">
<polygon fill="white" stroke="black" points="469.5,-224.5 469.5,-243.5 562.5,-243.5 562.5,-224.5 469.5,-224.5"/>
<text text-anchor="middle" x="516" y="-231.5" font-family="Helvetica,sans-Serif" font-size="10.00">include/xform.h</text>
</a>
</g>
</g>
<!-- Node2&#45;&gt;Node8 -->
<g id="edge69" class="edge">
<title>Node2&#45;&gt;Node8</title>
<path fill="none" stroke="midnightblue" d="M685.28,-733.38C580.6,-724.39 347,-696.54 347,-627 347,-627 347,-627 347,-457 347,-426.77 346.52,-414.23 367,-392 396.19,-360.31 425.44,-385.33 457,-356 474.98,-339.29 503.16,-268.57 512.71,-243.7"/>
<polygon fill="midnightblue" stroke="midnightblue" points="685.04,-736.87 695.3,-734.22 685.63,-729.9 685.04,-736.87"/>
</g>
<!-- Node20 -->
<g id="node20" class="node">
<title>Node20</title>
<g id="a_node20"><a xlink:href="so_8h.html" target="_top" xlink:title="Scene objects.">
<polygon fill="white" stroke="black" points="697.5,-672.5 697.5,-691.5 772.5,-691.5 772.5,-672.5 697.5,-672.5"/>
<text text-anchor="middle" x="735" y="-679.5" font-family="Helvetica,sans-Serif" font-size="10.00">include/so.h</text>
</a>
</g>
</g>
<!-- Node2&#45;&gt;Node20 -->
<g id="edge21" class="edge">
<title>Node2&#45;&gt;Node20</title>
<path fill="none" stroke="midnightblue" d="M735,-717.8C735,-708.91 735,-698.78 735,-691.75"/>
<polygon fill="midnightblue" stroke="midnightblue" points="731.5,-718.08 735,-728.08 738.5,-718.08 731.5,-718.08"/>
</g>
<!-- Node47 -->
<g id="node46" class="node">
<title>Node47</title>
<g id="a_node46"><a xlink:href="sound_8h.html" target="_top" xlink:title="Sound playback.">
<polygon fill="white" stroke="black" points="1248.5,-224.5 1248.5,-243.5 1341.5,-243.5 1341.5,-224.5 1248.5,-224.5"/>
<text text-anchor="middle" x="1295" y="-231.5" font-family="Helvetica,sans-Serif" font-size="10.00">include/sound.h</text>
</a>
</g>
</g>
<!-- Node2&#45;&gt;Node47 -->
<g id="edge68" class="edge">
<title>Node2&#45;&gt;Node47</title>
<path fill="none" stroke="midnightblue" d="M784.65,-736.34C884.03,-732.11 1098,-707.2 1098,-571 1098,-571 1098,-571 1098,-345 1098,-306.32 1215.25,-261.85 1268.84,-243.55"/>
<polygon fill="midnightblue" stroke="midnightblue" points="784.4,-732.84 774.54,-736.71 784.66,-739.84 784.4,-732.84"/>
</g>
<!-- Node4 -->
<g id="node4" class="node">
<title>Node4</title>
<g id="a_node4"><a xlink:href="coin_8c.html" target="_top" xlink:title=" ">
<polygon fill="white" stroke="black" points="272.5,-56.5 272.5,-75.5 349.5,-75.5 349.5,-56.5 272.5,-56.5"/>
<text text-anchor="middle" x="311" y="-63.5" font-family="Helvetica,sans-Serif" font-size="10.00">src/P2/coin.c</text>
</a>
</g>
</g>
<!-- Node3&#45;&gt;Node4 -->
<g id="edge3" class="edge">
<title>Node3&#45;&gt;Node4</title>
<path fill="none" stroke="midnightblue" d="M312.66,-158.35C312.22,-134.25 311.48,-93.31 311.16,-75.59"/>
<polygon fill="midnightblue" stroke="midnightblue" points="309.16,-158.43 312.84,-168.37 316.16,-158.31 309.16,-158.43"/>
</g>
<!-- Node6 -->
<g id="node6" class="node">
<title>Node6</title>
<g id="a_node6"><a xlink:href="find_8c.html" target="_top" xlink:title=" ">
<polygon fill="white" stroke="black" points="956.5,-560.5 956.5,-579.5 1031.5,-579.5 1031.5,-560.5 956.5,-560.5"/>
<text text-anchor="middle" x="994" y="-567.5" font-family="Helvetica,sans-Serif" font-size="10.00">src/P2/find.c</text>
</a>
</g>
</g>
<!-- Node5&#45;&gt;Node6 -->
<g id="edge5" class="edge">
<title>Node5&#45;&gt;Node6</title>
<path fill="none" stroke="midnightblue" d="M869.83,-613.17C899.77,-603 942.22,-588.59 968.92,-579.52"/>
<polygon fill="midnightblue" stroke="midnightblue" points="868.54,-609.91 860.19,-616.44 870.79,-616.54 868.54,-609.91"/>
</g>
<!-- Node7&#45;&gt;Node8 -->
<g id="edge7" class="edge">
<title>Node7&#45;&gt;Node8</title>
<path fill="none" stroke="midnightblue" d="M495.51,-494.42C495.03,-470.65 494.67,-428.21 497,-392 500.65,-335.28 510.82,-267.64 514.58,-243.82"/>
<polygon fill="midnightblue" stroke="midnightblue" points="492.01,-494.56 495.74,-504.48 499.01,-494.4 492.01,-494.56"/>
</g>
<!-- Node8&#45;&gt;Node3 -->
<g id="edge14" class="edge">
<title>Node8&#45;&gt;Node3</title>
<path fill="none" stroke="midnightblue" d="M474.01,-221.83C435.68,-211.63 379.85,-196.78 345.02,-187.52"/>
<polygon fill="midnightblue" stroke="midnightblue" points="473.27,-225.26 483.83,-224.44 475.07,-218.49 473.27,-225.26"/>
</g>
<!-- Node9 -->
<g id="node9" class="node">
<title>Node9</title>
<g id="a_node9"><a xlink:href="xform1_8c.html" target="_top" xlink:title=" ">
<polygon fill="white" stroke="black" points="470,-168.5 470,-187.5 562,-187.5 562,-168.5 470,-168.5"/>
<text text-anchor="middle" x="516" y="-175.5" font-family="Helvetica,sans-Serif" font-size="10.00">src/P2/xform1.c</text>
</a>
</g>
</g>
<!-- Node8&#45;&gt;Node9 -->
<g id="edge8" class="edge">
<title>Node8&#45;&gt;Node9</title>
<path fill="none" stroke="midnightblue" d="M516,-213.8C516,-204.91 516,-194.78 516,-187.75"/>
<polygon fill="midnightblue" stroke="midnightblue" points="512.5,-214.08 516,-224.08 519.5,-214.08 512.5,-214.08"/>
</g>
<!-- Node10 -->
<g id="node10" class="node">
<title>Node10</title>
<g id="a_node10"><a xlink:href="xform2_8c.html" target="_top" xlink:title=" ">
<polygon fill="white" stroke="black" points="580,-168.5 580,-187.5 672,-187.5 672,-168.5 580,-168.5"/>
<text text-anchor="middle" x="626" y="-175.5" font-family="Helvetica,sans-Serif" font-size="10.00">src/P2/xform2.c</text>
</a>
</g>
</g>
<!-- Node8&#45;&gt;Node10 -->
<g id="edge9" class="edge">
<title>Node8&#45;&gt;Node10</title>
<path fill="none" stroke="midnightblue" d="M542.76,-219.86C563.16,-209.85 590.67,-196.35 608.37,-187.65"/>
<polygon fill="midnightblue" stroke="midnightblue" points="541.11,-216.78 533.67,-224.32 544.19,-223.06 541.11,-216.78"/>
</g>
<!-- Node8&#45;&gt;Node11 -->
<g id="edge10" class="edge">
<title>Node8&#45;&gt;Node11</title>
<path fill="none" stroke="midnightblue" d="M572.8,-230.01C690.95,-223.64 971.8,-207.68 1207,-188 1222.76,-186.68 1240.09,-184.97 1255.16,-183.39"/>
<polygon fill="midnightblue" stroke="midnightblue" points="572.35,-226.53 562.55,-230.56 572.72,-233.52 572.35,-226.53"/>
</g>
<!-- Node15 -->
<g id="node15" class="node">
<title>Node15</title>
<g id="a_node15"><a xlink:href="vol_8h.html" target="_top" xlink:title="Volume object.">
<polygon fill="white" stroke="black" points="372.5,-168.5 372.5,-187.5 451.5,-187.5 451.5,-168.5 372.5,-168.5"/>
<text text-anchor="middle" x="412" y="-175.5" font-family="Helvetica,sans-Serif" font-size="10.00">include/vol.h</text>
</a>
</g>
</g>
<!-- Node8&#45;&gt;Node15 -->
<g id="edge15" class="edge">
<title>Node8&#45;&gt;Node15</title>
<path fill="none" stroke="midnightblue" d="M490.17,-219.59C470.94,-209.61 445.26,-196.27 428.67,-187.65"/>
<polygon fill="midnightblue" stroke="midnightblue" points="488.8,-222.82 499.29,-224.32 492.03,-216.61 488.8,-222.82"/>
</g>
<!-- Node12 -->
<g id="node12" class="node">
<title>Node12</title>
<g id="a_node12"><a xlink:href="cm_8c.html" target="_top" xlink:title=" ">
<polygon fill="white" stroke="black" points="956,-112.5 956,-131.5 1028,-131.5 1028,-112.5 956,-112.5"/>
<text text-anchor="middle" x="992" y="-119.5" font-family="Helvetica,sans-Serif" font-size="10.00">src/P2/cm.c</text>
</a>
</g>
</g>
<!-- Node11&#45;&gt;Node12 -->
<g id="edge11" class="edge">
<title>Node11&#45;&gt;Node12</title>
<path fill="none" stroke="midnightblue" d="M1245.23,-168.13C1184.25,-157.26 1082.39,-139.11 1028.31,-129.47"/>
<polygon fill="midnightblue" stroke="midnightblue" points="1244.93,-171.63 1255.39,-169.94 1246.16,-164.74 1244.93,-171.63"/>
</g>
<!-- Node13 -->
<g id="node13" class="node">
<title>Node13</title>
<g id="a_node13"><a xlink:href="flash_8h.html" target="_top" xlink:title="Flash (might be flash animation, or literal screen flashes).">
<polygon fill="white" stroke="black" points="1326.5,-112.5 1326.5,-131.5 1413.5,-131.5 1413.5,-112.5 1326.5,-112.5"/>
<text text-anchor="middle" x="1370" y="-119.5" font-family="Helvetica,sans-Serif" font-size="10.00">include/flash.h</text>
</a>
</g>
</g>
<!-- Node11&#45;&gt;Node13 -->
<g id="edge12" class="edge">
<title>Node11&#45;&gt;Node13</title>
<path fill="none" stroke="midnightblue" d="M1315.31,-162.38C1328.86,-152.62 1346.24,-140.11 1357.73,-131.83"/>
<polygon fill="midnightblue" stroke="midnightblue" points="1313.12,-159.64 1307.05,-168.32 1317.21,-165.32 1313.12,-159.64"/>
</g>
<!-- Node14 -->
<g id="node14" class="node">
<title>Node14</title>
<g id="a_node14"><a xlink:href="flash_8c.html" target="_top" xlink:title=" ">
<polygon fill="white" stroke="black" points="1330,-56.5 1330,-75.5 1410,-75.5 1410,-56.5 1330,-56.5"/>
<text text-anchor="middle" x="1370" y="-63.5" font-family="Helvetica,sans-Serif" font-size="10.00">src/P2/flash.c</text>
</a>
</g>
</g>
<!-- Node13&#45;&gt;Node14 -->
<g id="edge13" class="edge">
<title>Node13&#45;&gt;Node14</title>
<path fill="none" stroke="midnightblue" d="M1370,-101.8C1370,-92.91 1370,-82.78 1370,-75.75"/>
<polygon fill="midnightblue" stroke="midnightblue" points="1366.5,-102.08 1370,-112.08 1373.5,-102.08 1366.5,-102.08"/>
</g>
<!-- Node16 -->
<g id="node16" class="node">
<title>Node16</title>
<g id="a_node16"><a xlink:href="chkpnt_8h.html" target="_top" xlink:title="Checkpoint system.">
<polygon fill="white" stroke="black" points="363.5,-112.5 363.5,-131.5 460.5,-131.5 460.5,-112.5 363.5,-112.5"/>
<text text-anchor="middle" x="412" y="-119.5" font-family="Helvetica,sans-Serif" font-size="10.00">include/chkpnt.h</text>
</a>
</g>
</g>
<!-- Node15&#45;&gt;Node16 -->
<g id="edge16" class="edge">
<title>Node15&#45;&gt;Node16</title>
<path fill="none" stroke="midnightblue" d="M412,-157.8C412,-148.91 412,-138.78 412,-131.75"/>
<polygon fill="midnightblue" stroke="midnightblue" points="408.5,-158.08 412,-168.08 415.5,-158.08 408.5,-158.08"/>
</g>
<!-- Node16&#45;&gt;Node4 -->
<g id="edge18" class="edge">
<title>Node16&#45;&gt;Node4</title>
<path fill="none" stroke="midnightblue" d="M386.92,-107.59C368.24,-97.61 343.3,-84.27 327.19,-75.65"/>
<polygon fill="midnightblue" stroke="midnightblue" points="385.3,-110.7 395.77,-112.32 388.6,-104.52 385.3,-110.7"/>
</g>
<!-- Node17 -->
<g id="node17" class="node">
<title>Node17</title>
<g id="a_node17"><a xlink:href="chkpnt_8c.html" target="_top" xlink:title=" ">
<polygon fill="white" stroke="black" points="368,-56.5 368,-75.5 458,-75.5 458,-56.5 368,-56.5"/>
<text text-anchor="middle" x="413" y="-63.5" font-family="Helvetica,sans-Serif" font-size="10.00">src/P2/chkpnt.c</text>
</a>
</g>
</g>
<!-- Node16&#45;&gt;Node17 -->
<g id="edge17" class="edge">
<title>Node16&#45;&gt;Node17</title>
<path fill="none" stroke="midnightblue" d="M412.36,-101.8C412.52,-92.91 412.71,-82.78 412.84,-75.75"/>
<polygon fill="midnightblue" stroke="midnightblue" points="408.85,-102.02 412.17,-112.08 415.85,-102.15 408.85,-102.02"/>
</g>
<!-- Node18 -->
<g id="node18" class="node">
<title>Node18</title>
<g id="a_node18"><a xlink:href="difficulty_8h.html" target="_top" xlink:title="Dynamic difficulty system.">
<polygon fill="white" stroke="black" points="739.5,-56.5 739.5,-75.5 844.5,-75.5 844.5,-56.5 739.5,-56.5"/>
<text text-anchor="middle" x="792" y="-63.5" font-family="Helvetica,sans-Serif" font-size="10.00">include/difficulty.h</text>
</a>
</g>
</g>
<!-- Node16&#45;&gt;Node18 -->
<g id="edge19" class="edge">
<title>Node16&#45;&gt;Node18</title>
<path fill="none" stroke="midnightblue" d="M470.52,-112.68C543.9,-102.26 668.62,-84.53 739.2,-74.5"/>
<polygon fill="midnightblue" stroke="midnightblue" points="469.92,-109.23 460.51,-114.11 470.91,-116.16 469.92,-109.23"/>
</g>
<!-- Node19 -->
<g id="node19" class="node">
<title>Node19</title>
<g id="a_node19"><a xlink:href="difficulty_8c.html" target="_top" xlink:title=" ">
<polygon fill="white" stroke="black" points="743,-0.5 743,-19.5 841,-19.5 841,-0.5 743,-0.5"/>
<text text-anchor="middle" x="792" y="-7.5" font-family="Helvetica,sans-Serif" font-size="10.00">src/P2/difficulty.c</text>
</a>
</g>
</g>
<!-- Node18&#45;&gt;Node19 -->
<g id="edge20" class="edge">
<title>Node18&#45;&gt;Node19</title>
<path fill="none" stroke="midnightblue" d="M792,-45.8C792,-36.91 792,-26.78 792,-19.75"/>
<polygon fill="midnightblue" stroke="midnightblue" points="788.5,-46.08 792,-56.08 795.5,-46.08 788.5,-46.08"/>
</g>
<!-- Node20&#45;&gt;Node5 -->
<g id="edge22" class="edge">
<title>Node20&#45;&gt;Node5</title>
<path fill="none" stroke="midnightblue" d="M760.09,-667.45C778.55,-657.48 803.1,-644.23 818.97,-635.65"/>
<polygon fill="midnightblue" stroke="midnightblue" points="758.2,-664.49 751.07,-672.32 761.53,-670.65 758.2,-664.49"/>
</g>
<!-- Node21 -->
<g id="node21" class="node">
<title>Node21</title>
<g id="a_node21"><a xlink:href="po_8h.html" target="_top" xlink:title="Player object(?).">
<polygon fill="white" stroke="black" points="221,-448.5 221,-467.5 297,-467.5 297,-448.5 221,-448.5"/>
<text text-anchor="middle" x="259" y="-455.5" font-family="Helvetica,sans-Serif" font-size="10.00">include/po.h</text>
</a>
</g>
</g>
<!-- Node20&#45;&gt;Node21 -->
<g id="edge23" class="edge">
<title>Node20&#45;&gt;Node21</title>
<path fill="none" stroke="midnightblue" d="M687.24,-672.12C621.68,-658.65 501.44,-629.26 409,-580 348.47,-547.74 288.69,-489.56 267.28,-467.65"/>
<polygon fill="midnightblue" stroke="midnightblue" points="686.78,-675.6 697.27,-674.15 688.16,-668.74 686.78,-675.6"/>
</g>
<!-- Node28 -->
<g id="node28" class="node">
<title>Node28</title>
<g id="a_node28"><a xlink:href="vec_8h.html" target="_top" xlink:title="Vector math functions.">
<polygon fill="white" stroke="black" points="694.5,-616.5 694.5,-635.5 775.5,-635.5 775.5,-616.5 694.5,-616.5"/>
<text text-anchor="middle" x="735" y="-623.5" font-family="Helvetica,sans-Serif" font-size="10.00">include/vec.h</text>
</a>
</g>
</g>
<!-- Node20&#45;&gt;Node28 -->
<g id="edge30" class="edge">
<title>Node20&#45;&gt;Node28</title>
<path fill="none" stroke="midnightblue" d="M735,-661.8C735,-652.91 735,-642.78 735,-635.75"/>
<polygon fill="midnightblue" stroke="midnightblue" points="731.5,-662.08 735,-672.08 738.5,-662.08 731.5,-662.08"/>
</g>
<!-- Node22 -->
<g id="node22" class="node">
<title>Node22</title>
<g id="a_node22"><a xlink:href="step_8h.html" target="_top" xlink:title=" ">
<polygon fill="white" stroke="black" points="195.5,-392.5 195.5,-411.5 280.5,-411.5 280.5,-392.5 195.5,-392.5"/>
<text text-anchor="middle" x="238" y="-399.5" font-family="Helvetica,sans-Serif" font-size="10.00">include/step.h</text>
</a>
</g>
</g>
<!-- Node21&#45;&gt;Node22 -->
<g id="edge24" class="edge">
<title>Node21&#45;&gt;Node22</title>
<path fill="none" stroke="midnightblue" d="M251.88,-438.69C248.34,-429.59 244.23,-419.01 241.4,-411.75"/>
<polygon fill="midnightblue" stroke="midnightblue" points="248.65,-440.03 255.53,-448.08 255.17,-437.49 248.65,-440.03"/>
</g>
<!-- Node23 -->
<g id="node23" class="node">
<title>Node23</title>
<g id="a_node23"><a xlink:href="jt_8h.html" target="_top" xlink:title="Sly entity.">
<polygon fill="white" stroke="black" points="67.5,-224.5 67.5,-243.5 138.5,-243.5 138.5,-224.5 67.5,-224.5"/>
<text text-anchor="middle" x="103" y="-231.5" font-family="Helvetica,sans-Serif" font-size="10.00">include/jt.h</text>
</a>
</g>
</g>
<!-- Node22&#45;&gt;Node23 -->
<g id="edge25" class="edge">
<title>Node22&#45;&gt;Node23</title>
<path fill="none" stroke="midnightblue" d="M224.35,-384.21C195.93,-349.26 131.29,-269.79 109.97,-243.57"/>
<polygon fill="midnightblue" stroke="midnightblue" points="221.72,-386.53 230.74,-392.08 227.15,-382.11 221.72,-386.53"/>
</g>
<!-- Node24 -->
<g id="node24" class="node">
<title>Node24</title>
<g id="a_node24"><a xlink:href="jt1_8c.html" target="_top" xlink:title=" ">
<polygon fill="white" stroke="black" points="0,-168.5 0,-187.5 70,-187.5 70,-168.5 0,-168.5"/>
<text text-anchor="middle" x="35" y="-175.5" font-family="Helvetica,sans-Serif" font-size="10.00">src/P2/jt1.c</text>
</a>
</g>
</g>
<!-- Node23&#45;&gt;Node24 -->
<g id="edge26" class="edge">
<title>Node23&#45;&gt;Node24</title>
<path fill="none" stroke="midnightblue" d="M84.24,-218.1C72,-208.38 56.44,-196.03 46.12,-187.83"/>
<polygon fill="midnightblue" stroke="midnightblue" points="82.07,-220.85 92.07,-224.32 86.42,-215.36 82.07,-220.85"/>
</g>
<!-- Node25 -->
<g id="node25" class="node">
<title>Node25</title>
<g id="a_node25"><a xlink:href="jt2_8c.html" target="_top" xlink:title=" ">
<polygon fill="white" stroke="black" points="88,-168.5 88,-187.5 158,-187.5 158,-168.5 88,-168.5"/>
<text text-anchor="middle" x="123" y="-175.5" font-family="Helvetica,sans-Serif" font-size="10.00">src/P2/jt2.c</text>
</a>
</g>
</g>
<!-- Node23&#45;&gt;Node25 -->
<g id="edge27" class="edge">
<title>Node23&#45;&gt;Node25</title>
<path fill="none" stroke="midnightblue" d="M109.78,-214.69C113.15,-205.59 117.07,-195.01 119.76,-187.75"/>
<polygon fill="midnightblue" stroke="midnightblue" points="106.49,-213.49 106.3,-224.08 113.06,-215.92 106.49,-213.49"/>
</g>
<!-- Node26 -->
<g id="node26" class="node">
<title>Node26</title>
<g id="a_node26"><a xlink:href="steppower_8h.html" target="_top" xlink:title=" ">
<polygon fill="white" stroke="black" points="728,-168.5 728,-187.5 842,-187.5 842,-168.5 728,-168.5"/>
<text text-anchor="middle" x="785" y="-175.5" font-family="Helvetica,sans-Serif" font-size="10.00">include/steppower.h</text>
</a>
</g>
</g>
<!-- Node23&#45;&gt;Node26 -->
<g id="edge28" class="edge">
<title>Node23&#45;&gt;Node26</title>
<path fill="none" stroke="midnightblue" d="M148.64,-229.58C246.31,-222.24 482.83,-204.29 681,-188 696.17,-186.75 712.58,-185.36 727.79,-184.04"/>
<polygon fill="midnightblue" stroke="midnightblue" points="148.23,-226.1 138.53,-230.34 148.76,-233.08 148.23,-226.1"/>
</g>
<!-- Node27 -->
<g id="node27" class="node">
<title>Node27</title>
<g id="a_node27"><a xlink:href="steppower_8c.html" target="_top" xlink:title=" ">
<polygon fill="white" stroke="black" points="731.5,-112.5 731.5,-131.5 838.5,-131.5 838.5,-112.5 731.5,-112.5"/>
<text text-anchor="middle" x="785" y="-119.5" font-family="Helvetica,sans-Serif" font-size="10.00">src/P2/steppower.c</text>
</a>
</g>
</g>
<!-- Node26&#45;&gt;Node27 -->
<g id="edge29" class="edge">
<title>Node26&#45;&gt;Node27</title>
<path fill="none" stroke="midnightblue" d="M785,-157.8C785,-148.91 785,-138.78 785,-131.75"/>
<polygon fill="midnightblue" stroke="midnightblue" points="781.5,-158.08 785,-168.08 788.5,-158.08 781.5,-158.08"/>
</g>
<!-- Node28&#45;&gt;Node16 -->
<g id="edge38" class="edge">
<title>Node28&#45;&gt;Node16</title>
<path fill="none" stroke="midnightblue" d="M744.06,-607.34C754.13,-586.03 769,-548.84 769,-515 769,-515 769,-515 769,-457 769,-423.43 706.22,-190.15 681,-168 648.98,-139.88 529,-129.06 460.58,-125.11"/>
<polygon fill="midnightblue" stroke="midnightblue" points="740.86,-605.92 739.59,-616.44 747.14,-609.01 740.86,-605.92"/>
</g>
<!-- Node29 -->
<g id="node29" class="node">
<title>Node29</title>
<g id="a_node29"><a xlink:href="util_8c.html" target="_top" xlink:title=" ">
<polygon fill="white" stroke="black" points="728.5,-224.5 728.5,-243.5 801.5,-243.5 801.5,-224.5 728.5,-224.5"/>
<text text-anchor="middle" x="765" y="-231.5" font-family="Helvetica,sans-Serif" font-size="10.00">src/P2/util.c</text>
</a>
</g>
</g>
<!-- Node28&#45;&gt;Node29 -->
<g id="edge31" class="edge">
<title>Node28&#45;&gt;Node29</title>
<path fill="none" stroke="midnightblue" d="M755.34,-609.97C778.75,-590.78 814,-555.21 814,-515 814,-515 814,-515 814,-345 814,-304.02 785.28,-261.31 771.81,-243.54"/>
<polygon fill="midnightblue" stroke="midnightblue" points="753.03,-607.34 747.34,-616.28 757.36,-612.83 753.03,-607.34"/>
</g>
<!-- Node30 -->
<g id="node30" class="node">
<title>Node30</title>
<g id="a_node30"><a xlink:href="vec_8c.html" target="_top" xlink:title=" ">
<polygon fill="white" stroke="black" points="820,-224.5 820,-243.5 894,-243.5 894,-224.5 820,-224.5"/>
<text text-anchor="middle" x="857" y="-231.5" font-family="Helvetica,sans-Serif" font-size="10.00">src/P2/vec.c</text>
</a>
</g>
</g>
<!-- Node28&#45;&gt;Node30 -->
<g id="edge32" class="edge">
<title>Node28&#45;&gt;Node30</title>
<path fill="none" stroke="midnightblue" d="M781.08,-613.43C826.77,-598.86 890,-568.95 890,-515 890,-515 890,-515 890,-401 890,-339.59 868,-267.81 859.93,-243.52"/>
<polygon fill="midnightblue" stroke="midnightblue" points="779.89,-610.13 771.34,-616.39 781.93,-616.83 779.89,-610.13"/>
</g>
<!-- Node31 -->
<g id="node31" class="node">
<title>Node31</title>
<g id="a_node31"><a xlink:href="bis_8h.html" target="_top" xlink:title="Binary Input Stream.">
<polygon fill="white" stroke="black" points="252,-280.5 252,-299.5 330,-299.5 330,-280.5 252,-280.5"/>
<text text-anchor="middle" x="291" y="-287.5" font-family="Helvetica,sans-Serif" font-size="10.00">include/bis.h</text>
</a>
</g>
</g>
<!-- Node28&#45;&gt;Node31 -->
<g id="edge33" class="edge">
<title>Node28&#45;&gt;Node31</title>
<path fill="none" stroke="midnightblue" d="M684.06,-614.61C623.17,-600.62 519.77,-571.83 442,-524 396.35,-495.93 289.87,-405.36 269,-356 260.65,-336.25 274.92,-312.14 284.13,-299.56"/>
<polygon fill="midnightblue" stroke="midnightblue" points="683.66,-618.11 694.18,-616.89 685.2,-611.28 683.66,-618.11"/>
</g>
<!-- Node33 -->
<g id="node33" class="node">
<title>Node33</title>
<g id="a_node33"><a xlink:href="shd_8h.html" target="_top" xlink:title="Shaders.">
<polygon fill="white" stroke="black" points="590.5,-504.5 590.5,-523.5 671.5,-523.5 671.5,-504.5 590.5,-504.5"/>
<text text-anchor="middle" x="631" y="-511.5" font-family="Helvetica,sans-Serif" font-size="10.00">include/shd.h</text>
</a>
</g>
</g>
<!-- Node28&#45;&gt;Node33 -->
<g id="edge39" class="edge">
<title>Node28&#45;&gt;Node33</title>
<path fill="none" stroke="midnightblue" d="M696.89,-612.54C680.37,-605.39 662.09,-594.82 650,-580 636.33,-563.24 632.49,-536.99 631.42,-523.55"/>
<polygon fill="midnightblue" stroke="midnightblue" points="695.76,-615.86 706.35,-616.36 698.39,-609.37 695.76,-615.86"/>
</g>
<!-- Node43 -->
<g id="node42" class="node">
<title>Node43</title>
<g id="a_node42"><a xlink:href="surf_8h.html" target="_top" xlink:title="Surface?">
<polygon fill="white" stroke="black" points="659,-560.5 659,-579.5 741,-579.5 741,-560.5 659,-560.5"/>
<text text-anchor="middle" x="700" y="-567.5" font-family="Helvetica,sans-Serif" font-size="10.00">include/surf.h</text>
</a>
</g>
</g>
<!-- Node28&#45;&gt;Node43 -->
<g id="edge51" class="edge">
<title>Node28&#45;&gt;Node43</title>
<path fill="none" stroke="midnightblue" d="M723.7,-607.57C717.68,-598.27 710.53,-587.25 705.67,-579.75"/>
<polygon fill="midnightblue" stroke="midnightblue" points="720.84,-609.6 729.22,-616.08 726.72,-605.79 720.84,-609.6"/>
</g>
<!-- Node44 -->
<g id="node43" class="node">
<title>Node44</title>
<g id="a_node43"><a xlink:href="util_8h.html" target="_top" xlink:title="Utility functions.">
<polygon fill="white" stroke="black" points="969,-280.5 969,-299.5 1049,-299.5 1049,-280.5 969,-280.5"/>
<text text-anchor="middle" x="1009" y="-287.5" font-family="Helvetica,sans-Serif" font-size="10.00">include/util.h</text>
</a>
</g>
</g>
<!-- Node28&#45;&gt;Node44 -->
<g id="edge54" class="edge">
<title>Node28&#45;&gt;Node44</title>
<path fill="none" stroke="midnightblue" d="M784.47,-614.26C831.06,-603.76 895.01,-588.19 904,-580 926.77,-559.27 928,-545.8 928,-515 928,-515 928,-515 928,-401 928,-355.46 973.56,-316.36 996.34,-299.65"/>
<polygon fill="midnightblue" stroke="midnightblue" points="783.52,-610.89 774.53,-616.48 785.05,-617.72 783.52,-610.89"/>
</g>
<!-- Node31&#45;&gt;Node4 -->
<g id="edge35" class="edge">
<title>Node31&#45;&gt;Node4</title>
<path fill="none" stroke="midnightblue" d="M259.16,-275.94C245.76,-268.67 231.55,-258.17 224,-244 219.82,-236.16 221.78,-232.61 224,-224 240.06,-161.85 286.61,-98.06 304.18,-75.51"/>
<polygon fill="midnightblue" stroke="midnightblue" points="257.7,-279.13 268.21,-280.47 260.83,-272.87 257.7,-279.13"/>
</g>
<!-- Node31&#45;&gt;Node8 -->
<g id="edge37" class="edge">
<title>Node31&#45;&gt;Node8</title>
<path fill="none" stroke="midnightblue" d="M336.47,-278.09C378.97,-267.89 441.58,-252.86 480.51,-243.52"/>
<polygon fill="midnightblue" stroke="midnightblue" points="335.56,-274.71 326.65,-280.44 337.19,-281.51 335.56,-274.71"/>
</g>
<!-- Node31&#45;&gt;Node16 -->
<g id="edge36" class="edge">
<title>Node31&#45;&gt;Node16</title>
<path fill="none" stroke="midnightblue" d="M304.54,-271.95C313.46,-258.51 322.12,-239.51 314,-224 300.95,-199.1 275.05,-212.9 262,-188 257.87,-180.13 256.69,-175.13 262,-168 285.13,-136.92 328.98,-126.49 363.33,-123.36"/>
<polygon fill="midnightblue" stroke="midnightblue" points="301.55,-270.11 298.52,-280.26 307.22,-274.21 301.55,-270.11"/>
</g>
<!-- Node32 -->
<g id="node32" class="node">
<title>Node32</title>
<g id="a_node32"><a xlink:href="bis_8c.html" target="_top" xlink:title=" ">
<polygon fill="white" stroke="black" points="233.5,-224.5 233.5,-243.5 304.5,-243.5 304.5,-224.5 233.5,-224.5"/>
<text text-anchor="middle" x="269" y="-231.5" font-family="Helvetica,sans-Serif" font-size="10.00">src/P2/bis.c</text>
</a>
</g>
</g>
<!-- Node31&#45;&gt;Node32 -->
<g id="edge34" class="edge">
<title>Node31&#45;&gt;Node32</title>
<path fill="none" stroke="midnightblue" d="M283.54,-270.69C279.83,-261.59 275.52,-251.01 272.57,-243.75"/>
<polygon fill="midnightblue" stroke="midnightblue" points="280.35,-272.14 287.37,-280.08 286.84,-269.5 280.35,-272.14"/>
</g>
<!-- Node34 -->
<g id="node34" class="node">
<title>Node34</title>
<g id="a_node34"><a xlink:href="screen_8h.html" target="_top" xlink:title="User interface manager.">
<polygon fill="white" stroke="black" points="544,-448.5 544,-467.5 640,-467.5 640,-448.5 544,-448.5"/>
<text text-anchor="middle" x="592" y="-455.5" font-family="Helvetica,sans-Serif" font-size="10.00">include/screen.h</text>
</a>
</g>
</g>
<!-- Node33&#45;&gt;Node34 -->
<g id="edge40" class="edge">
<title>Node33&#45;&gt;Node34</title>
<path fill="none" stroke="midnightblue" d="M618.62,-495.86C611.86,-486.5 603.79,-475.33 598.32,-467.75"/>
<polygon fill="midnightblue" stroke="midnightblue" points="615.87,-498.03 624.56,-504.08 621.54,-493.93 615.87,-498.03"/>
</g>
<!-- Node35 -->
<g id="node35" class="node">
<title>Node35</title>
<g id="a_node35"><a xlink:href="screen_8c.html" target="_top" xlink:title=" ">
<polygon fill="white" stroke="black" points="505.5,-392.5 505.5,-411.5 594.5,-411.5 594.5,-392.5 505.5,-392.5"/>
<text text-anchor="middle" x="550" y="-399.5" font-family="Helvetica,sans-Serif" font-size="10.00">src/P2/screen.c</text>
</a>
</g>
</g>
<!-- Node34&#45;&gt;Node35 -->
<g id="edge41" class="edge">
<title>Node34&#45;&gt;Node35</title>
<path fill="none" stroke="midnightblue" d="M578.89,-440.14C571.57,-430.74 562.76,-419.4 556.81,-411.75"/>
<polygon fill="midnightblue" stroke="midnightblue" points="576.16,-442.34 585.06,-448.08 581.69,-438.04 576.16,-442.34"/>
</g>
<!-- Node36 -->
<g id="node36" class="node">
<title>Node36</title>
<g id="a_node36"><a xlink:href="binoc_8h.html" target="_top" xlink:title="Binoc&#45;u&#45;com.">
<polygon fill="white" stroke="black" points="613,-392.5 613,-411.5 703,-411.5 703,-392.5 613,-392.5"/>
<text text-anchor="middle" x="658" y="-399.5" font-family="Helvetica,sans-Serif" font-size="10.00">include/binoc.h</text>
</a>
</g>
</g>
<!-- Node34&#45;&gt;Node36 -->
<g id="edge42" class="edge">
<title>Node34&#45;&gt;Node36</title>
<path fill="none" stroke="midnightblue" d="M610.55,-441.82C622.38,-432.15 637.29,-419.95 647.2,-411.83"/>
<polygon fill="midnightblue" stroke="midnightblue" points="608.13,-439.28 602.6,-448.32 612.56,-444.7 608.13,-439.28"/>
</g>
<!-- Node41 -->
<g id="node40" class="node">
<title>Node41</title>
<g id="a_node40"><a xlink:href="ui_8h.html" target="_top" xlink:title="User interface.">
<polygon fill="white" stroke="black" points="375.5,-392.5 375.5,-411.5 448.5,-411.5 448.5,-392.5 375.5,-392.5"/>
<text text-anchor="middle" x="412" y="-399.5" font-family="Helvetica,sans-Serif" font-size="10.00">include/ui.h</text>
</a>
</g>
</g>
<!-- Node34&#45;&gt;Node41 -->
<g id="edge49" class="edge">
<title>Node34&#45;&gt;Node41</title>
<path fill="none" stroke="midnightblue" d="M553.89,-445.57C519.94,-435.38 471.01,-420.7 440.39,-411.52"/>
<polygon fill="midnightblue" stroke="midnightblue" points="552.89,-448.92 563.48,-448.44 554.91,-442.22 552.89,-448.92"/>
</g>
<!-- Node36&#45;&gt;Node11 -->
<g id="edge45" class="edge">
<title>Node36&#45;&gt;Node11</title>
<path fill="none" stroke="midnightblue" d="M707.04,-390.31C864.27,-356 1345.85,-250.45 1351,-244 1367.55,-223.28 1334.01,-199.95 1312.04,-187.66"/>
<polygon fill="midnightblue" stroke="midnightblue" points="706.19,-386.92 697.16,-392.47 707.68,-393.76 706.19,-386.92"/>
</g>
<!-- Node36&#45;&gt;Node12 -->
<g id="edge44" class="edge">
<title>Node36&#45;&gt;Node12</title>
<path fill="none" stroke="midnightblue" d="M659.07,-381.97C662.14,-345.79 674.04,-266.9 720,-224 764.14,-182.8 794.28,-208.71 851,-188 897.34,-171.08 949.48,-145.14 975.45,-131.71"/>
<polygon fill="midnightblue" stroke="midnightblue" points="655.56,-381.89 658.35,-392.11 662.55,-382.38 655.56,-381.89"/>
</g>
<!-- Node37 -->
<g id="node37" class="node">
<title>Node37</title>
<g id="a_node37"><a xlink:href="binoc_8c.html" target="_top" xlink:title=" ">
<polygon fill="white" stroke="black" points="550.5,-336.5 550.5,-355.5 633.5,-355.5 633.5,-336.5 550.5,-336.5"/>
<text text-anchor="middle" x="592" y="-343.5" font-family="Helvetica,sans-Serif" font-size="10.00">src/P2/binoc.c</text>
</a>
</g>
</g>
<!-- Node36&#45;&gt;Node37 -->
<g id="edge43" class="edge">
<title>Node36&#45;&gt;Node37</title>
<path fill="none" stroke="midnightblue" d="M639.45,-385.82C627.62,-376.15 612.71,-363.95 602.8,-355.83"/>
<polygon fill="midnightblue" stroke="midnightblue" points="637.44,-388.7 647.4,-392.32 641.87,-383.28 637.44,-388.7"/>
</g>
<!-- Node38 -->
<g id="node38" class="node">
<title>Node38</title>
<g id="a_node38"><a xlink:href="prog_8h.html" target="_top" xlink:title=" ">
<polygon fill="white" stroke="red" points="362,-336.5 362,-355.5 448,-355.5 448,-336.5 362,-336.5"/>
<text text-anchor="middle" x="405" y="-343.5" font-family="Helvetica,sans-Serif" font-size="10.00">include/prog.h</text>
</a>
</g>
</g>
<!-- Node36&#45;&gt;Node38 -->
<g id="edge46" class="edge">
<title>Node36&#45;&gt;Node38</title>
<path fill="none" stroke="midnightblue" d="M608.08,-390.35C560.27,-380.14 489.05,-364.94 444.9,-355.52"/>
<polygon fill="midnightblue" stroke="midnightblue" points="607.4,-393.78 617.91,-392.44 608.86,-386.93 607.4,-393.78"/>
</g>
<!-- Node38&#45;&gt;Node31 -->
<g id="edge48" class="edge">
<title>Node38&#45;&gt;Node31</title>
<path fill="none" stroke="midnightblue" d="M377.76,-332.1C356.46,-322.01 327.46,-308.27 308.98,-299.52"/>
<polygon fill="midnightblue" stroke="midnightblue" points="376.4,-335.33 386.94,-336.44 379.4,-329 376.4,-335.33"/>
</g>
<!-- Node39 -->
<g id="node39" class="node">
<title>Node39</title>
<g id="a_node39"><a xlink:href="main_8c.html" target="_top" xlink:title=" ">
<polygon fill="white" stroke="black" points="364,-280.5 364,-299.5 446,-299.5 446,-280.5 364,-280.5"/>
<text text-anchor="middle" x="405" y="-287.5" font-family="Helvetica,sans-Serif" font-size="10.00">src/P2/main.c</text>
</a>
</g>
</g>
<!-- Node38&#45;&gt;Node39 -->
<g id="edge47" class="edge">
<title>Node38&#45;&gt;Node39</title>
<path fill="none" stroke="midnightblue" d="M405,-325.8C405,-316.91 405,-306.78 405,-299.75"/>
<polygon fill="midnightblue" stroke="midnightblue" points="401.5,-326.08 405,-336.08 408.5,-326.08 401.5,-326.08"/>
</g>
<!-- Node42 -->
<g id="node41" class="node">
<title>Node42</title>
<g id="a_node41"><a xlink:href="ui_8c.html" target="_top" xlink:title=" ">
<polygon fill="white" stroke="black" points="278,-336.5 278,-355.5 344,-355.5 344,-336.5 278,-336.5"/>
<text text-anchor="middle" x="311" y="-343.5" font-family="Helvetica,sans-Serif" font-size="10.00">src/P2/ui.c</text>
</a>
</g>
</g>
<!-- Node41&#45;&gt;Node42 -->
<g id="edge50" class="edge">
<title>Node41&#45;&gt;Node42</title>
<path fill="none" stroke="midnightblue" d="M386.92,-387.59C368.24,-377.61 343.3,-364.27 327.19,-355.65"/>
<polygon fill="midnightblue" stroke="midnightblue" points="385.3,-390.7 395.77,-392.32 388.6,-384.52 385.3,-390.7"/>
</g>
<!-- Node43&#45;&gt;Node8 -->
<g id="edge53" class="edge">
<title>Node43&#45;&gt;Node8</title>
<path fill="none" stroke="midnightblue" d="M706.92,-550.55C718.27,-517.1 737.23,-444.96 712,-392 674.88,-314.06 577.93,-262.77 535.91,-243.52"/>
<polygon fill="midnightblue" stroke="midnightblue" points="703.49,-549.74 703.43,-560.34 710.08,-552.09 703.49,-549.74"/>
</g>
<!-- Node43&#45;&gt;Node33 -->
<g id="edge52" class="edge">
<title>Node43&#45;&gt;Node33</title>
<path fill="none" stroke="midnightblue" d="M680.96,-554.1C668.54,-544.38 652.76,-532.03 642.29,-523.83"/>
<polygon fill="midnightblue" stroke="midnightblue" points="678.88,-556.92 688.91,-560.32 683.2,-551.4 678.88,-556.92"/>
</g>
<!-- Node44&#45;&gt;Node8 -->
<g id="edge67" class="edge">
<title>Node44&#45;&gt;Node8</title>
<path fill="none" stroke="midnightblue" d="M958.63,-283.48C862.79,-272.98 655.46,-250.28 562.61,-240.11"/>
<polygon fill="midnightblue" stroke="midnightblue" points="958.33,-286.97 968.66,-284.58 959.1,-280.01 958.33,-286.97"/>
</g>
<!-- Node44&#45;&gt;Node11 -->
<g id="edge58" class="edge">
<title>Node44&#45;&gt;Node11</title>
<path fill="none" stroke="midnightblue" d="M1058.98,-282.54C1098.73,-276.18 1155.08,-264.37 1201,-244 1234.73,-229.03 1269.07,-201.5 1285.33,-187.56"/>
<polygon fill="midnightblue" stroke="midnightblue" points="1058.35,-279.1 1049,-284.08 1059.42,-286.01 1058.35,-279.1"/>
</g>
<!-- Node44&#45;&gt;Node12 -->
<g id="edge55" class="edge">
<title>Node44&#45;&gt;Node12</title>
<path fill="none" stroke="midnightblue" d="M1007.05,-269.93C1003.36,-233.92 995.51,-157.23 992.88,-131.57"/>
<polygon fill="midnightblue" stroke="midnightblue" points="1003.59,-270.48 1008.09,-280.08 1010.55,-269.77 1003.59,-270.48"/>
</g>
<!-- Node44&#45;&gt;Node18 -->
<g id="edge59" class="edge">
<title>Node44&#45;&gt;Node18</title>
<path fill="none" stroke="midnightblue" d="M1019.69,-271.46C1039.34,-236.73 1075.79,-158.56 1037,-112 1013.02,-83.22 909.29,-72.78 844.73,-69.04"/>
<polygon fill="midnightblue" stroke="midnightblue" points="1016.49,-270 1014.45,-280.4 1022.53,-273.54 1016.49,-270"/>
</g>
<!-- Node44&#45;&gt;Node29 -->
<g id="edge56" class="edge">
<title>Node44&#45;&gt;Node29</title>
<path fill="none" stroke="midnightblue" d="M960.45,-278.26C913.76,-267.92 844.2,-252.53 801.88,-243.16"/>
<polygon fill="midnightblue" stroke="midnightblue" points="959.82,-281.7 970.34,-280.44 961.33,-274.87 959.82,-281.7"/>
</g>
<!-- Node44&#45;&gt;Node30 -->
<g id="edge57" class="edge">
<title>Node44&#45;&gt;Node30</title>
<path fill="none" stroke="midnightblue" d="M975.33,-277.04C946.73,-266.88 906.39,-252.55 880.97,-243.52"/>
<polygon fill="midnightblue" stroke="midnightblue" points="974.32,-280.39 984.92,-280.44 976.66,-273.8 974.32,-280.39"/>
</g>
<!-- Node45 -->
<g id="node44" class="node">
<title>Node45</title>
<g id="a_node44"><a xlink:href="joy_8h.html" target="_top" xlink:title="Joypad manager.">
<polygon fill="white" stroke="black" points="912.5,-224.5 912.5,-243.5 989.5,-243.5 989.5,-224.5 912.5,-224.5"/>
<text text-anchor="middle" x="951" y="-231.5" font-family="Helvetica,sans-Serif" font-size="10.00">include/joy.h</text>
</a>
</g>
</g>
<!-- Node44&#45;&gt;Node45 -->
<g id="edge60" class="edge">
<title>Node44&#45;&gt;Node45</title>
<path fill="none" stroke="midnightblue" d="M992.09,-273.25C981.8,-263.67 969.03,-251.79 960.49,-243.83"/>
<polygon fill="midnightblue" stroke="midnightblue" points="989.98,-276.07 999.68,-280.32 994.75,-270.95 989.98,-276.07"/>
</g>
<!-- Node44&#45;&gt;Node47 -->
<g id="edge63" class="edge">
<title>Node44&#45;&gt;Node47</title>
<path fill="none" stroke="midnightblue" d="M1059.07,-279.55C1112.86,-269.39 1197.6,-253.39 1249.54,-243.58"/>
<polygon fill="midnightblue" stroke="midnightblue" points="1058.25,-276.14 1049.07,-281.43 1059.54,-283.02 1058.25,-276.14"/>
</g>
<!-- Node48 -->
<g id="node47" class="node">
<title>Node48</title>
<g id="a_node47"><a xlink:href="ref_8h.html" target="_top" xlink:title=" ">
<polygon fill="white" stroke="black" points="1084,-224.5 1084,-243.5 1192,-243.5 1192,-224.5 1084,-224.5"/>
<text text-anchor="middle" x="1138" y="-231.5" font-family="Helvetica,sans-Serif" font-size="10.00">include/splice/ref.h</text>
</a>
</g>
</g>
<!-- Node44&#45;&gt;Node48 -->
<g id="edge65" class="edge">
<title>Node44&#45;&gt;Node48</title>
<path fill="none" stroke="midnightblue" d="M1038.85,-276.5C1063.04,-266.38 1096.46,-252.39 1117.66,-243.52"/>
<polygon fill="midnightblue" stroke="midnightblue" points="1037.31,-273.35 1029.44,-280.44 1040.02,-279.81 1037.31,-273.35"/>
</g>
<!-- Node45&#45;&gt;Node26 -->
<g id="edge62" class="edge">
<title>Node45&#45;&gt;Node26</title>
<path fill="none" stroke="midnightblue" d="M915.05,-221.3C883.77,-211.13 839.18,-196.62 811.18,-187.52"/>
<polygon fill="midnightblue" stroke="midnightblue" points="914.1,-224.68 924.7,-224.44 916.27,-218.02 914.1,-224.68"/>
</g>
<!-- Node46 -->
<g id="node45" class="node">
<title>Node46</title>
<g id="a_node45"><a xlink:href="joy_8c.html" target="_top" xlink:title=" ">
<polygon fill="white" stroke="black" points="915.5,-168.5 915.5,-187.5 986.5,-187.5 986.5,-168.5 915.5,-168.5"/>
<text text-anchor="middle" x="951" y="-175.5" font-family="Helvetica,sans-Serif" font-size="10.00">src/P2/joy.c</text>
</a>
</g>
</g>
<!-- Node45&#45;&gt;Node46 -->
<g id="edge61" class="edge">
<title>Node45&#45;&gt;Node46</title>
<path fill="none" stroke="midnightblue" d="M951,-213.8C951,-204.91 951,-194.78 951,-187.75"/>
<polygon fill="midnightblue" stroke="midnightblue" points="947.5,-214.08 951,-224.08 954.5,-214.08 947.5,-214.08"/>
</g>
<!-- Node47&#45;&gt;Node11 -->
<g id="edge64" class="edge">
<title>Node47&#45;&gt;Node11</title>
<path fill="none" stroke="midnightblue" d="M1295,-213.8C1295,-204.91 1295,-194.78 1295,-187.75"/>
<polygon fill="midnightblue" stroke="midnightblue" points="1291.5,-214.08 1295,-224.08 1298.5,-214.08 1291.5,-214.08"/>
</g>
<!-- Node49 -->
<g id="node48" class="node">
<title>Node49</title>
<g id="a_node48"><a xlink:href="ref_8cpp.html" target="_top" xlink:title=" ">
<polygon fill="white" stroke="black" points="1084.5,-168.5 1084.5,-187.5 1197.5,-187.5 1197.5,-168.5 1084.5,-168.5"/>
<text text-anchor="middle" x="1141" y="-175.5" font-family="Helvetica,sans-Serif" font-size="10.00">src/P2/splice/ref.cpp</text>
</a>
</g>
</g>
<!-- Node48&#45;&gt;Node49 -->
<g id="edge66" class="edge">
<title>Node48&#45;&gt;Node49</title>
<path fill="none" stroke="midnightblue" d="M1139.07,-213.8C1139.56,-204.91 1140.12,-194.78 1140.51,-187.75"/>
<polygon fill="midnightblue" stroke="midnightblue" points="1135.56,-213.9 1138.5,-224.08 1142.54,-214.29 1135.56,-213.9"/>
</g>
<!-- Node50&#45;&gt;Node8 -->
<g id="edge75" class="edge">
<title>Node50&#45;&gt;Node8</title>
<path fill="none" stroke="midnightblue" d="M982,-388.15C930.75,-364.15 815.4,-312.07 714,-280 663.08,-263.89 603.08,-251.09 562.59,-243.32"/>
<polygon fill="midnightblue" stroke="midnightblue" points="980.55,-391.33 991.09,-392.42 983.53,-385 980.55,-391.33"/>
</g>
<!-- Node51 -->
<g id="node50" class="node">
<title>Node51</title>
<g id="a_node50"><a xlink:href="sm_8h.html" target="_top" xlink:title="State machines.">
<polygon fill="white" stroke="black" points="969.5,-336.5 969.5,-355.5 1048.5,-355.5 1048.5,-336.5 969.5,-336.5"/>
<text text-anchor="middle" x="1009" y="-343.5" font-family="Helvetica,sans-Serif" font-size="10.00">include/sm.h</text>
</a>
</g>
</g>
<!-- Node50&#45;&gt;Node51 -->
<g id="edge71" class="edge">
<title>Node50&#45;&gt;Node51</title>
<path fill="none" stroke="midnightblue" d="M1009,-381.8C1009,-372.91 1009,-362.78 1009,-355.75"/>
<polygon fill="midnightblue" stroke="midnightblue" points="1005.5,-382.08 1009,-392.08 1012.5,-382.08 1005.5,-382.08"/>
</g>
<!-- Node51&#45;&gt;Node3 -->
<g id="edge72" class="edge">
<title>Node51&#45;&gt;Node3</title>
<path fill="none" stroke="midnightblue" d="M971.71,-333.33C896.64,-310.14 721.66,-257.58 572,-224 480.46,-203.46 456.42,-204.15 364,-188 361.08,-187.49 358.06,-186.96 355.02,-186.43"/>
<polygon fill="midnightblue" stroke="midnightblue" points="971.04,-336.79 981.63,-336.4 973.11,-330.1 971.04,-336.79"/>
</g>
<!-- Node51&#45;&gt;Node13 -->
<g id="edge73" class="edge">
<title>Node51&#45;&gt;Node13</title>
<path fill="none" stroke="midnightblue" d="M1058.93,-339.75C1152.78,-328.65 1349.23,-299.19 1384,-244 1406.88,-207.68 1384.67,-152.88 1374.49,-131.74"/>
<polygon fill="midnightblue" stroke="midnightblue" points="1058.35,-336.29 1048.82,-340.92 1059.16,-343.24 1058.35,-336.29"/>
</g>
<!-- Node51&#45;&gt;Node44 -->
<g id="edge74" class="edge">
<title>Node51&#45;&gt;Node44</title>
<path fill="none" stroke="midnightblue" d="M1009,-325.8C1009,-316.91 1009,-306.78 1009,-299.75"/>
<polygon fill="midnightblue" stroke="midnightblue" points="1005.5,-326.08 1009,-336.08 1012.5,-326.08 1005.5,-326.08"/>
</g>
</g>
</svg>
