<?xml version="1.0" encoding="UTF-8" standalone="no"?>
<!DOCTYPE svg PUBLIC "-//W3C//DTD SVG 1.1//EN"
 "http://www.w3.org/Graphics/SVG/1.1/DTD/svg11.dtd">
<!-- Generated by graphviz version 2.43.0 (0)
 -->
<!-- Title: include/lo.h Pages: 1 -->
<svg width="439pt" height="252pt"
 viewBox="0.00 0.00 439.40 252.00" xmlns="http://www.w3.org/2000/svg" xmlns:xlink="http://www.w3.org/1999/xlink">
<g id="graph0" class="graph" transform="scale(1 1) rotate(0) translate(4 248)">
<title>include/lo.h</title>
<polygon fill="white" stroke="transparent" points="-4,4 -4,-248 435.4,-248 435.4,4 -4,4"/>
<!-- Node1 -->
<g id="node1" class="node">
<title>Node1</title>
<g id="a_node1"><a xlink:title="Level objects.">
<polygon fill="#bfbfbf" stroke="black" points="198.4,-224.5 198.4,-243.5 271.4,-243.5 271.4,-224.5 198.4,-224.5"/>
<text text-anchor="middle" x="234.9" y="-231.5" font-family="Helvetica,sans-Serif" font-size="10.00">include/lo.h</text>
</a>
</g>
</g>
<!-- Node2 -->
<g id="node2" class="node">
<title>Node2</title>
<g id="a_node2"><a xlink:href="common_8h.html" target="_top" xlink:title="Common header file.">
<polygon fill="white" stroke="black" points="175.9,-56.5 175.9,-75.5 243.9,-75.5 243.9,-56.5 175.9,-56.5"/>
<text text-anchor="middle" x="209.9" y="-63.5" font-family="Helvetica,sans-Serif" font-size="10.00">common.h</text>
</a>
</g>
</g>
<!-- Node1&#45;&gt;Node2 -->
<g id="edge1" class="edge">
<title>Node1&#45;&gt;Node2</title>
<path fill="none" stroke="midnightblue" d="M198.14,-229.85C143.68,-222.93 43.73,-200.99 3.9,-132 -0.55,-124.3 -1.68,-118.92 3.9,-112 23.79,-87.29 111.18,-75.41 165.55,-70.32"/>
<polygon fill="midnightblue" stroke="midnightblue" points="165.97,-73.79 175.62,-69.41 165.35,-66.82 165.97,-73.79"/>
</g>
<!-- Node7 -->
<g id="node7" class="node">
<title>Node7</title>
<g id="a_node7"><a xlink:href="oid_8h.html" target="_top" xlink:title="Object IDs.">
<polygon fill="white" stroke="black" points="165.4,-112.5 165.4,-131.5 206.4,-131.5 206.4,-112.5 165.4,-112.5"/>
<text text-anchor="middle" x="185.9" y="-119.5" font-family="Helvetica,sans-Serif" font-size="10.00">oid.h</text>
</a>
</g>
</g>
<!-- Node1&#45;&gt;Node7 -->
<g id="edge6" class="edge">
<title>Node1&#45;&gt;Node7</title>
<path fill="none" stroke="midnightblue" d="M229.22,-224.29C223.59,-215.41 214.94,-201.11 208.9,-188 201.85,-172.71 195.61,-154.61 191.41,-141.39"/>
<polygon fill="midnightblue" stroke="midnightblue" points="194.68,-140.14 188.39,-131.61 187.99,-142.2 194.68,-140.14"/>
</g>
<!-- Node8 -->
<g id="node8" class="node">
<title>Node8</title>
<g id="a_node8"><a xlink:href="basic_8h.html" target="_top" xlink:title="Basic object.">
<polygon fill="white" stroke="black" points="109.4,-168.5 109.4,-187.5 160.4,-187.5 160.4,-168.5 109.4,-168.5"/>
<text text-anchor="middle" x="134.9" y="-175.5" font-family="Helvetica,sans-Serif" font-size="10.00">basic.h</text>
</a>
</g>
</g>
<!-- Node1&#45;&gt;Node8 -->
<g id="edge8" class="edge">
<title>Node1&#45;&gt;Node8</title>
<path fill="none" stroke="midnightblue" d="M218.83,-224.32C202.94,-215.74 178.39,-202.49 159.94,-192.52"/>
<polygon fill="midnightblue" stroke="midnightblue" points="161.39,-189.33 150.93,-187.65 158.06,-195.49 161.39,-189.33"/>
</g>
<!-- Node10 -->
<g id="node10" class="node">
<title>Node10</title>
<g id="a_node10"><a xlink:href="dl_8h.html" target="_top" xlink:title=" ">
<polygon fill="white" stroke="black" points="217.4,-168.5 217.4,-187.5 252.4,-187.5 252.4,-168.5 217.4,-168.5"/>
<text text-anchor="middle" x="234.9" y="-175.5" font-family="Helvetica,sans-Serif" font-size="10.00">dl.h</text>
</a>
</g>
</g>
<!-- Node1&#45;&gt;Node10 -->
<g id="edge12" class="edge">
<title>Node1&#45;&gt;Node10</title>
<path fill="none" stroke="midnightblue" d="M234.9,-224.08C234.9,-217.01 234.9,-206.86 234.9,-197.99"/>
<polygon fill="midnightblue" stroke="midnightblue" points="238.4,-197.75 234.9,-187.75 231.4,-197.75 238.4,-197.75"/>
</g>
<!-- Node11 -->
<g id="node11" class="node">
<title>Node11</title>
<g id="a_node11"><a xlink:href="sw_8h.html" target="_top" xlink:title="Scene world?">
<polygon fill="white" stroke="black" points="262.9,-112.5 262.9,-131.5 300.9,-131.5 300.9,-112.5 262.9,-112.5"/>
<text text-anchor="middle" x="281.9" y="-119.5" font-family="Helvetica,sans-Serif" font-size="10.00">sw.h</text>
</a>
</g>
</g>
<!-- Node1&#45;&gt;Node11 -->
<g id="edge15" class="edge">
<title>Node1&#45;&gt;Node11</title>
<path fill="none" stroke="midnightblue" d="M240.94,-224.38C246.9,-215.56 255.96,-201.31 261.9,-188 268.66,-172.84 274.03,-154.72 277.49,-141.47"/>
<polygon fill="midnightblue" stroke="midnightblue" points="280.92,-142.2 279.95,-131.65 274.13,-140.51 280.92,-142.2"/>
</g>
<!-- Node12 -->
<g id="node12" class="node">
<title>Node12</title>
<g id="a_node12"><a xlink:href="frame_8h.html" target="_top" xlink:title=" ">
<polygon fill="white" stroke="black" points="318.9,-112.5 318.9,-131.5 404.9,-131.5 404.9,-112.5 318.9,-112.5"/>
<text text-anchor="middle" x="361.9" y="-119.5" font-family="Helvetica,sans-Serif" font-size="10.00">splice/frame.h</text>
</a>
</g>
</g>
<!-- Node1&#45;&gt;Node12 -->
<g id="edge17" class="edge">
<title>Node1&#45;&gt;Node12</title>
<path fill="none" stroke="midnightblue" d="M244.86,-224.37C266.29,-205.81 316.97,-161.91 344.08,-138.44"/>
<polygon fill="midnightblue" stroke="midnightblue" points="346.71,-140.78 351.98,-131.59 342.13,-135.49 346.71,-140.78"/>
</g>
<!-- Node13 -->
<g id="node13" class="node">
<title>Node13</title>
<g id="a_node13"><a xlink:href="mq_8h.html" target="_top" xlink:title="Message queue(?).">
<polygon fill="white" stroke="black" points="390.4,-168.5 390.4,-187.5 431.4,-187.5 431.4,-168.5 390.4,-168.5"/>
<text text-anchor="middle" x="410.9" y="-175.5" font-family="Helvetica,sans-Serif" font-size="10.00">mq.h</text>
</a>
</g>
</g>
<!-- Node1&#45;&gt;Node13 -->
<g id="edge19" class="edge">
<title>Node1&#45;&gt;Node13</title>
<path fill="none" stroke="midnightblue" d="M262.79,-224.44C294.94,-214.58 347.59,-198.42 380.69,-188.27"/>
<polygon fill="midnightblue" stroke="midnightblue" points="381.76,-191.6 390.29,-185.32 379.7,-184.91 381.76,-191.6"/>
</g>
<!-- Node3 -->
<g id="node3" class="node">
<title>Node3</title>
<g id="a_node3"><a xlink:href="include__asm_8h.html" target="_top" xlink:title=" ">
<polygon fill="white" stroke="black" points="8.4,-0.5 8.4,-19.5 95.4,-19.5 95.4,-0.5 8.4,-0.5"/>
<text text-anchor="middle" x="51.9" y="-7.5" font-family="Helvetica,sans-Serif" font-size="10.00">include_asm.h</text>
</a>
</g>
</g>
<!-- Node2&#45;&gt;Node3 -->
<g id="edge2" class="edge">
<title>Node2&#45;&gt;Node3</title>
<path fill="none" stroke="midnightblue" d="M184.86,-56.44C158.28,-47.36 116.09,-32.94 86.37,-22.78"/>
<polygon fill="midnightblue" stroke="midnightblue" points="87.41,-19.44 76.82,-19.52 85.15,-26.06 87.41,-19.44"/>
</g>
<!-- Node4 -->
<g id="node4" class="node">
<title>Node4</title>
<g id="a_node4"><a xlink:href="include__rodata_8h.html" target="_top" xlink:title=" ">
<polygon fill="white" stroke="black" points="113.9,-0.5 113.9,-19.5 211.9,-19.5 211.9,-0.5 113.9,-0.5"/>
<text text-anchor="middle" x="162.9" y="-7.5" font-family="Helvetica,sans-Serif" font-size="10.00">include_rodata.h</text>
</a>
</g>
</g>
<!-- Node2&#45;&gt;Node4 -->
<g id="edge3" class="edge">
<title>Node2&#45;&gt;Node4</title>
<path fill="none" stroke="midnightblue" d="M202.14,-56.08C195.36,-48.3 185.36,-36.8 177.14,-27.37"/>
<polygon fill="midnightblue" stroke="midnightblue" points="179.72,-25 170.52,-19.75 174.44,-29.59 179.72,-25"/>
</g>
<!-- Node5 -->
<g id="node5" class="node">
<title>Node5</title>
<g id="a_node5"><a xlink:href="types_8h.html" target="_top" xlink:title="Types used throughout the engine.">
<polygon fill="white" stroke="black" points="230.4,-0.5 230.4,-19.5 283.4,-19.5 283.4,-0.5 230.4,-0.5"/>
<text text-anchor="middle" x="256.9" y="-7.5" font-family="Helvetica,sans-Serif" font-size="10.00">types.h</text>
</a>
</g>
</g>
<!-- Node2&#45;&gt;Node5 -->
<g id="edge4" class="edge">
<title>Node2&#45;&gt;Node5</title>
<path fill="none" stroke="midnightblue" d="M217.66,-56.08C224.44,-48.3 234.44,-36.8 242.65,-27.37"/>
<polygon fill="midnightblue" stroke="midnightblue" points="245.36,-29.59 249.28,-19.75 240.08,-25 245.36,-29.59"/>
</g>
<!-- Node6 -->
<g id="node6" class="node">
<title>Node6</title>
<g id="a_node6"><a xlink:href="vtables_8h.html" target="_top" xlink:title=" ">
<polygon fill="white" stroke="black" points="301.9,-0.5 301.9,-19.5 363.9,-19.5 363.9,-0.5 301.9,-0.5"/>
<text text-anchor="middle" x="332.9" y="-7.5" font-family="Helvetica,sans-Serif" font-size="10.00">vtables.h</text>
</a>
</g>
</g>
<!-- Node2&#45;&gt;Node6 -->
<g id="edge5" class="edge">
<title>Node2&#45;&gt;Node6</title>
<path fill="none" stroke="midnightblue" d="M229.39,-56.44C249.54,-47.6 281.22,-33.69 304.23,-23.59"/>
<polygon fill="midnightblue" stroke="midnightblue" points="305.75,-26.74 313.5,-19.52 302.94,-20.33 305.75,-26.74"/>
</g>
<!-- Node7&#45;&gt;Node2 -->
<g id="edge7" class="edge">
<title>Node7&#45;&gt;Node2</title>
<path fill="none" stroke="midnightblue" d="M189.86,-112.08C193.11,-104.77 197.82,-94.18 201.85,-85.1"/>
<polygon fill="midnightblue" stroke="midnightblue" points="205.15,-86.31 206.01,-75.75 198.75,-83.47 205.15,-86.31"/>
</g>
<!-- Node8&#45;&gt;Node2 -->
<g id="edge9" class="edge">
<title>Node8&#45;&gt;Node2</title>
<path fill="none" stroke="midnightblue" d="M136.3,-168.34C138.74,-155.22 144.72,-129.94 156.9,-112 164.95,-100.14 176.94,-89.6 187.48,-81.71"/>
<polygon fill="midnightblue" stroke="midnightblue" points="189.75,-84.38 195.87,-75.73 185.69,-78.68 189.75,-84.38"/>
</g>
<!-- Node9 -->
<g id="node9" class="node">
<title>Node9</title>
<g id="a_node9"><a xlink:href="sidebag_8h.html" target="_top" xlink:title="Sidebag for splice.">
<polygon fill="white" stroke="black" points="13.4,-112.5 13.4,-131.5 108.4,-131.5 108.4,-112.5 13.4,-112.5"/>
<text text-anchor="middle" x="60.9" y="-119.5" font-family="Helvetica,sans-Serif" font-size="10.00">splice/sidebag.h</text>
</a>
</g>
</g>
<!-- Node8&#45;&gt;Node9 -->
<g id="edge10" class="edge">
<title>Node8&#45;&gt;Node9</title>
<path fill="none" stroke="midnightblue" d="M123.01,-168.32C111.75,-160.11 94.61,-147.6 81.19,-137.81"/>
<polygon fill="midnightblue" stroke="midnightblue" points="83.15,-134.9 73,-131.83 79.02,-140.56 83.15,-134.9"/>
</g>
<!-- Node9&#45;&gt;Node2 -->
<g id="edge11" class="edge">
<title>Node9&#45;&gt;Node2</title>
<path fill="none" stroke="midnightblue" d="M84.51,-112.44C109.36,-103.44 148.67,-89.19 176.65,-79.05"/>
<polygon fill="midnightblue" stroke="midnightblue" points="178.19,-82.21 186.4,-75.52 175.81,-75.63 178.19,-82.21"/>
</g>
<!-- Node10&#45;&gt;Node2 -->
<g id="edge13" class="edge">
<title>Node10&#45;&gt;Node2</title>
<path fill="none" stroke="midnightblue" d="M232.94,-168.37C228.9,-150.62 219.6,-109.67 214.13,-85.6"/>
<polygon fill="midnightblue" stroke="midnightblue" points="217.48,-84.57 211.85,-75.59 210.65,-86.12 217.48,-84.57"/>
</g>
<!-- Node10&#45;&gt;Node7 -->
<g id="edge14" class="edge">
<title>Node10&#45;&gt;Node7</title>
<path fill="none" stroke="midnightblue" d="M226.81,-168.08C219.74,-160.3 209.31,-148.8 200.75,-139.37"/>
<polygon fill="midnightblue" stroke="midnightblue" points="203.15,-136.8 193.84,-131.75 197.97,-141.51 203.15,-136.8"/>
</g>
<!-- Node11&#45;&gt;Node2 -->
<g id="edge16" class="edge">
<title>Node11&#45;&gt;Node2</title>
<path fill="none" stroke="midnightblue" d="M270.33,-112.32C259.48,-104.18 243.02,-91.84 230.01,-82.09"/>
<polygon fill="midnightblue" stroke="midnightblue" points="231.78,-79.03 221.68,-75.83 227.58,-84.63 231.78,-79.03"/>
</g>
<!-- Node12&#45;&gt;Node2 -->
<g id="edge18" class="edge">
<title>Node12&#45;&gt;Node2</title>
<path fill="none" stroke="midnightblue" d="M337.81,-112.44C312.35,-103.4 272,-89.06 243.44,-78.92"/>
<polygon fill="midnightblue" stroke="midnightblue" points="244.47,-75.57 233.87,-75.52 242.12,-82.16 244.47,-75.57"/>
</g>
<!-- Node13&#45;&gt;Node2 -->
<g id="edge20" class="edge">
<title>Node13&#45;&gt;Node2</title>
<path fill="none" stroke="midnightblue" d="M414.57,-168.31C419.67,-154.69 426.92,-128.2 413.9,-112 394.27,-87.56 308.13,-75.61 254.26,-70.42"/>
<polygon fill="midnightblue" stroke="midnightblue" points="254.55,-66.94 244.27,-69.5 253.91,-73.91 254.55,-66.94"/>
</g>
</g>
</svg>
