<?xml version="1.0" encoding="UTF-8" standalone="no"?>
<!DOCTYPE svg PUBLIC "-//W3C//DTD SVG 1.1//EN"
 "http://www.w3.org/Graphics/SVG/1.1/DTD/svg11.dtd">
<!-- Generated by graphviz version 2.43.0 (0)
 -->
<!-- Title: src/P2/main.c Pages: 1 -->
<svg width="283pt" height="252pt"
 viewBox="0.00 0.00 283.00 252.00" xmlns="http://www.w3.org/2000/svg" xmlns:xlink="http://www.w3.org/1999/xlink">
<g id="graph0" class="graph" transform="scale(1 1) rotate(0) translate(4 248)">
<title>src/P2/main.c</title>
<polygon fill="white" stroke="transparent" points="-4,4 -4,-248 279,-248 279,4 -4,4"/>
<!-- Node1 -->
<g id="node1" class="node">
<title>Node1</title>
<g id="a_node1"><a xlink:title=" ">
<polygon fill="#bfbfbf" stroke="black" points="78.5,-224.5 78.5,-243.5 160.5,-243.5 160.5,-224.5 78.5,-224.5"/>
<text text-anchor="middle" x="119.5" y="-231.5" font-family="Helvetica,sans-Serif" font-size="10.00">src/P2/main.c</text>
</a>
</g>
</g>
<!-- Node2 -->
<g id="node2" class="node">
<title>Node2</title>
<g id="a_node2"><a xlink:href="common_8h.html" target="_top" xlink:title="Common header file.">
<polygon fill="white" stroke="black" points="120.5,-56.5 120.5,-75.5 188.5,-75.5 188.5,-56.5 120.5,-56.5"/>
<text text-anchor="middle" x="154.5" y="-63.5" font-family="Helvetica,sans-Serif" font-size="10.00">common.h</text>
</a>
</g>
</g>
<!-- Node1&#45;&gt;Node2 -->
<g id="edge1" class="edge">
<title>Node1&#45;&gt;Node2</title>
<path fill="none" stroke="midnightblue" d="M120.2,-224.11C121.28,-211.53 123.64,-187.87 127.5,-168 133.19,-138.68 142.72,-105.33 148.8,-85.24"/>
<polygon fill="midnightblue" stroke="midnightblue" points="152.19,-86.14 151.78,-75.55 145.5,-84.08 152.19,-86.14"/>
</g>
<!-- Node6 -->
<g id="node6" class="node">
<title>Node6</title>
<g id="a_node6"><a xlink:href="game_8h.html" target="_top" xlink:title="Game state and level management.">
<polygon fill="white" stroke="black" points="137,-168.5 137,-187.5 190,-187.5 190,-168.5 137,-168.5"/>
<text text-anchor="middle" x="163.5" y="-175.5" font-family="Helvetica,sans-Serif" font-size="10.00">game.h</text>
</a>
</g>
</g>
<!-- Node1&#45;&gt;Node6 -->
<g id="edge5" class="edge">
<title>Node1&#45;&gt;Node6</title>
<path fill="none" stroke="midnightblue" d="M126.77,-224.08C133.04,-216.38 142.29,-205.03 149.93,-195.65"/>
<polygon fill="midnightblue" stroke="midnightblue" points="152.77,-197.71 156.37,-187.75 147.34,-193.29 152.77,-197.71"/>
</g>
<!-- Node3 -->
<g id="node3" class="node">
<title>Node3</title>
<g id="a_node3"><a xlink:href="include__asm_8h.html" target="_top" xlink:title=" ">
<polygon fill="white" stroke="black" points="0,-0.5 0,-19.5 87,-19.5 87,-0.5 0,-0.5"/>
<text text-anchor="middle" x="43.5" y="-7.5" font-family="Helvetica,sans-Serif" font-size="10.00">include_asm.h</text>
</a>
</g>
</g>
<!-- Node2&#45;&gt;Node3 -->
<g id="edge2" class="edge">
<title>Node2&#45;&gt;Node3</title>
<path fill="none" stroke="midnightblue" d="M136.67,-56.32C118.78,-47.62 91.02,-34.12 70.45,-24.11"/>
<polygon fill="midnightblue" stroke="midnightblue" points="71.81,-20.88 61.29,-19.65 68.75,-27.18 71.81,-20.88"/>
</g>
<!-- Node4 -->
<g id="node4" class="node">
<title>Node4</title>
<g id="a_node4"><a xlink:href="include__rodata_8h.html" target="_top" xlink:title=" ">
<polygon fill="white" stroke="black" points="105.5,-0.5 105.5,-19.5 203.5,-19.5 203.5,-0.5 105.5,-0.5"/>
<text text-anchor="middle" x="154.5" y="-7.5" font-family="Helvetica,sans-Serif" font-size="10.00">include_rodata.h</text>
</a>
</g>
</g>
<!-- Node2&#45;&gt;Node4 -->
<g id="edge3" class="edge">
<title>Node2&#45;&gt;Node4</title>
<path fill="none" stroke="midnightblue" d="M154.5,-56.08C154.5,-49.01 154.5,-38.86 154.5,-29.99"/>
<polygon fill="midnightblue" stroke="midnightblue" points="158,-29.75 154.5,-19.75 151,-29.75 158,-29.75"/>
</g>
<!-- Node5 -->
<g id="node5" class="node">
<title>Node5</title>
<g id="a_node5"><a xlink:href="types_8h.html" target="_top" xlink:title="Types used throughout the engine.">
<polygon fill="white" stroke="black" points="222,-0.5 222,-19.5 275,-19.5 275,-0.5 222,-0.5"/>
<text text-anchor="middle" x="248.5" y="-7.5" font-family="Helvetica,sans-Serif" font-size="10.00">types.h</text>
</a>
</g>
</g>
<!-- Node2&#45;&gt;Node5 -->
<g id="edge4" class="edge">
<title>Node2&#45;&gt;Node5</title>
<path fill="none" stroke="midnightblue" d="M169.6,-56.32C184.4,-47.82 207.19,-34.73 224.48,-24.8"/>
<polygon fill="midnightblue" stroke="midnightblue" points="226.51,-27.67 233.43,-19.65 223.02,-21.6 226.51,-27.67"/>
</g>
<!-- Node6&#45;&gt;Node2 -->
<g id="edge6" class="edge">
<title>Node6&#45;&gt;Node2</title>
<path fill="none" stroke="midnightblue" d="M159.9,-168.22C156.44,-159.28 151.47,-144.94 149.5,-132 147.16,-116.6 148.78,-98.96 150.78,-85.95"/>
<polygon fill="midnightblue" stroke="midnightblue" points="154.27,-86.33 152.55,-75.88 147.37,-85.12 154.27,-86.33"/>
</g>
<!-- Node7 -->
<g id="node7" class="node">
<title>Node7</title>
<g id="a_node7"><a xlink:href="oid_8h.html" target="_top" xlink:title="Object IDs.">
<polygon fill="white" stroke="black" points="159,-112.5 159,-131.5 200,-131.5 200,-112.5 159,-112.5"/>
<text text-anchor="middle" x="179.5" y="-119.5" font-family="Helvetica,sans-Serif" font-size="10.00">oid.h</text>
</a>
</g>
</g>
<!-- Node6&#45;&gt;Node7 -->
<g id="edge7" class="edge">
<title>Node6&#45;&gt;Node7</title>
<path fill="none" stroke="midnightblue" d="M166.14,-168.08C168.29,-160.85 171.38,-150.41 174.05,-141.4"/>
<polygon fill="midnightblue" stroke="midnightblue" points="177.42,-142.33 176.91,-131.75 170.71,-140.34 177.42,-142.33"/>
</g>
<!-- Node8 -->
<g id="node8" class="node">
<title>Node8</title>
<g id="a_node8"><a xlink:href="cid_8h.html" target="_top" xlink:title="Class ID.">
<polygon fill="white" stroke="black" points="218.5,-112.5 218.5,-131.5 258.5,-131.5 258.5,-112.5 218.5,-112.5"/>
<text text-anchor="middle" x="238.5" y="-119.5" font-family="Helvetica,sans-Serif" font-size="10.00">cid.h</text>
</a>
</g>
</g>
<!-- Node6&#45;&gt;Node8 -->
<g id="edge9" class="edge">
<title>Node6&#45;&gt;Node8</title>
<path fill="none" stroke="midnightblue" d="M175.55,-168.32C186.96,-160.11 204.33,-147.6 217.93,-137.81"/>
<polygon fill="midnightblue" stroke="midnightblue" points="220.16,-140.52 226.23,-131.83 216.07,-134.84 220.16,-140.52"/>
</g>
<!-- Node7&#45;&gt;Node2 -->
<g id="edge8" class="edge">
<title>Node7&#45;&gt;Node2</title>
<path fill="none" stroke="midnightblue" d="M175.37,-112.08C171.99,-104.77 167.08,-94.18 162.88,-85.1"/>
<polygon fill="midnightblue" stroke="midnightblue" points="165.93,-83.36 158.55,-75.75 159.58,-86.3 165.93,-83.36"/>
</g>
<!-- Node8&#45;&gt;Node2 -->
<g id="edge10" class="edge">
<title>Node8&#45;&gt;Node2</title>
<path fill="none" stroke="midnightblue" d="M225,-112.32C211.9,-103.9 191.79,-90.97 176.39,-81.07"/>
<polygon fill="midnightblue" stroke="midnightblue" points="178.27,-78.12 167.96,-75.65 174.48,-84.01 178.27,-78.12"/>
</g>
</g>
</svg>
