<?xml version="1.0" encoding="UTF-8" standalone="no"?>
<!DOCTYPE svg PUBLIC "-//W3C//DTD SVG 1.1//EN"
 "http://www.w3.org/Graphics/SVG/1.1/DTD/svg11.dtd">
<!-- Generated by graphviz version 2.43.0 (0)
 -->
<!-- Title: include/memory.h Pages: 1 -->
<svg width="2048pt" height="82pt"
 viewBox="0.00 0.00 2048.00 82.00" xmlns="http://www.w3.org/2000/svg" xmlns:xlink="http://www.w3.org/1999/xlink">
<g id="graph0" class="graph" transform="scale(1 1) rotate(0) translate(4 78)">
<title>include/memory.h</title>
<!-- Node1 -->
<g id="Node000001" class="node">
<title>Node1</title>
<g id="a_Node000001"><a xlink:title=" ">
<polygon fill="#999999" stroke="#666666" points="943,-74 839,-74 839,-55 943,-55 943,-74"/>
<text text-anchor="middle" x="891" y="-62" font-family="Helvetica,sans-Serif" font-size="10.00">include/memory.h</text>
</a>
</g>
</g>
<!-- Node2 -->
<g id="Node000002" class="node">
<title>Node2</title>
<g id="a_Node000002"><a xlink:href="alo_8c.html" target="_top" xlink:title=" ">
<polygon fill="white" stroke="#666666" points="72,-19 0,-19 0,0 72,0 72,-19"/>
<text text-anchor="middle" x="36" y="-7" font-family="Helvetica,sans-Serif" font-size="10.00">src/P2/alo.c</text>
</a>
</g>
</g>
<!-- Node1&#45;&gt;Node2 -->
<g id="edge1_Node000001_Node000002" class="edge">
<title>Node1&#45;&gt;Node2</title>
<g id="a_edge1_Node000001_Node000002"><a xlink:title=" ">
<path fill="none" stroke="#63b8ff" d="M828.42,-62.87C692.1,-60.87 358.29,-52.66 81,-19 78.16,-18.66 75.23,-18.24 72.29,-17.78"/>
<polygon fill="#63b8ff" stroke="#63b8ff" points="828.62,-66.37 838.67,-63.01 828.72,-59.37 828.62,-66.37"/>
</a>
</g>
</g>
<!-- Node3 -->
<g id="Node000003" class="node">
<title>Node3</title>
<g id="a_Node000003"><a xlink:href="bis_8c.html" target="_top" xlink:title=" ">
<polygon fill="white" stroke="#666666" points="161.5,-19 90.5,-19 90.5,0 161.5,0 161.5,-19"/>
<text text-anchor="middle" x="126" y="-7" font-family="Helvetica,sans-Serif" font-size="10.00">src/P2/bis.c</text>
</a>
</g>
</g>
<!-- Node1&#45;&gt;Node3 -->
<g id="edge2_Node000001_Node000003" class="edge">
<title>Node1&#45;&gt;Node3</title>
<g id="a_edge2_Node000001_Node000003"><a xlink:title=" ">
<path fill="none" stroke="#63b8ff" d="M828.59,-62.36C703.28,-59.47 412.33,-49.75 170,-19 167.38,-18.67 164.67,-18.27 161.96,-17.84"/>
<polygon fill="#63b8ff" stroke="#63b8ff" points="828.68,-65.86 838.76,-62.59 828.84,-58.86 828.68,-65.86"/>
</a>
</g>
</g>
<!-- Node4 -->
<g id="Node000004" class="node">
<title>Node4</title>
<g id="a_Node000004"><a xlink:href="bomb_8c.html" target="_top" xlink:title=" ">
<polygon fill="white" stroke="#666666" points="264.5,-19 179.5,-19 179.5,0 264.5,0 264.5,-19"/>
<text text-anchor="middle" x="222" y="-7" font-family="Helvetica,sans-Serif" font-size="10.00">src/P2/bomb.c</text>
</a>
</g>
</g>
<!-- Node1&#45;&gt;Node4 -->
<g id="edge3_Node000001_Node000004" class="edge">
<title>Node1&#45;&gt;Node4</title>
<g id="a_edge3_Node000001_Node000004"><a xlink:title=" ">
<path fill="none" stroke="#63b8ff" d="M828.79,-60.87C717.3,-55.74 476.21,-42.77 274,-19 270.91,-18.64 267.73,-18.22 264.52,-17.77"/>
<polygon fill="#63b8ff" stroke="#63b8ff" points="828.7,-64.37 838.85,-61.33 829.02,-57.37 828.7,-64.37"/>
</a>
</g>
</g>
<!-- Node5 -->
<g id="Node000005" class="node">
<title>Node5</title>
<g id="a_Node000005"><a xlink:href="dmas_8c.html" target="_top" xlink:title=" ">
<polygon fill="white" stroke="#666666" points="367,-19 283,-19 283,0 367,0 367,-19"/>
<text text-anchor="middle" x="325" y="-7" font-family="Helvetica,sans-Serif" font-size="10.00">src/P2/dmas.c</text>
</a>
</g>
</g>
<!-- Node1&#45;&gt;Node5 -->
<g id="edge4_Node000001_Node000005" class="edge">
<title>Node1&#45;&gt;Node5</title>
<g id="a_edge4_Node000001_Node000005"><a xlink:title=" ">
<path fill="none" stroke="#63b8ff" d="M828.74,-59.71C731.75,-53.45 538.79,-39.57 376,-19 373.15,-18.64 370.22,-18.24 367.26,-17.81"/>
<polygon fill="#63b8ff" stroke="#63b8ff" points="828.75,-63.22 838.96,-60.37 829.2,-56.24 828.75,-63.22"/>
</a>
</g>
</g>
<!-- Node6 -->
<g id="Node000006" class="node">
<title>Node6</title>
<g id="a_Node000006"><a xlink:href="font_8c.html" target="_top" xlink:title=" ">
<polygon fill="white" stroke="#666666" points="462.5,-19 385.5,-19 385.5,0 462.5,0 462.5,-19"/>
<text text-anchor="middle" x="424" y="-7" font-family="Helvetica,sans-Serif" font-size="10.00">src/P2/font.c</text>
</a>
</g>
</g>
<!-- Node1&#45;&gt;Node6 -->
<g id="edge5_Node000001_Node000006" class="edge">
<title>Node1&#45;&gt;Node6</title>
<g id="a_edge5_Node000001_Node000006"><a xlink:title=" ">
<path fill="none" stroke="#63b8ff" d="M828.78,-58.25C746.81,-51.03 598.24,-36.86 472,-19 468.98,-18.57 465.87,-18.1 462.74,-17.6"/>
<polygon fill="#63b8ff" stroke="#63b8ff" points="828.66,-61.76 838.93,-59.14 829.27,-54.78 828.66,-61.76"/>
</a>
</g>
</g>
<!-- Node7 -->
<g id="Node000007" class="node">
<title>Node7</title>
<g id="a_Node000007"><a xlink:href="gomer_8c.html" target="_top" xlink:title=" ">
<polygon fill="white" stroke="#666666" points="569,-19 481,-19 481,0 569,0 569,-19"/>
<text text-anchor="middle" x="525" y="-7" font-family="Helvetica,sans-Serif" font-size="10.00">src/P2/gomer.c</text>
</a>
</g>
</g>
<!-- Node1&#45;&gt;Node7 -->
<g id="edge6_Node000001_Node000007" class="edge">
<title>Node1&#45;&gt;Node7</title>
<g id="a_edge6_Node000001_Node000007"><a xlink:title=" ">
<path fill="none" stroke="#63b8ff" d="M828.7,-54.98C765.5,-46.25 664.88,-32.14 578,-19 575.14,-18.57 572.2,-18.12 569.24,-17.65"/>
<polygon fill="#63b8ff" stroke="#63b8ff" points="828.51,-58.48 838.9,-56.38 829.47,-51.55 828.51,-58.48"/>
</a>
</g>
</g>
<!-- Node8 -->
<g id="Node000008" class="node">
<title>Node8</title>
<g id="a_Node000008"><a xlink:href="joy_8c.html" target="_top" xlink:title=" ">
<polygon fill="white" stroke="#666666" points="658.5,-19 587.5,-19 587.5,0 658.5,0 658.5,-19"/>
<text text-anchor="middle" x="623" y="-7" font-family="Helvetica,sans-Serif" font-size="10.00">src/P2/joy.c</text>
</a>
</g>
</g>
<!-- Node1&#45;&gt;Node8 -->
<g id="edge7_Node000001_Node000008" class="edge">
<title>Node1&#45;&gt;Node8</title>
<g id="a_edge7_Node000001_Node000008"><a xlink:title=" ">
<path fill="none" stroke="#63b8ff" d="M838.03,-53.02C784.92,-42.52 704.63,-26.64 658.66,-17.55"/>
<polygon fill="#63b8ff" stroke="#63b8ff" points="837.45,-56.48 847.94,-54.98 838.81,-49.61 837.45,-56.48"/>
</a>
</g>
</g>
<!-- Node9 -->
<g id="Node000009" class="node">
<title>Node9</title>
<g id="a_Node000009"><a xlink:href="jsg_8c.html" target="_top" xlink:title=" ">
<polygon fill="white" stroke="#666666" points="747.5,-19 676.5,-19 676.5,0 747.5,0 747.5,-19"/>
<text text-anchor="middle" x="712" y="-7" font-family="Helvetica,sans-Serif" font-size="10.00">src/P2/jsg.c</text>
</a>
</g>
</g>
<!-- Node1&#45;&gt;Node9 -->
<g id="edge8_Node000001_Node000009" class="edge">
<title>Node1&#45;&gt;Node9</title>
<g id="a_edge8_Node000001_Node000009"><a xlink:title=" ">
<path fill="none" stroke="#63b8ff" d="M852.35,-52.06C818.89,-42.15 771.25,-28.04 740.98,-19.08"/>
<polygon fill="#63b8ff" stroke="#63b8ff" points="851.66,-55.5 862.24,-54.98 853.65,-48.79 851.66,-55.5"/>
</a>
</g>
</g>
<!-- Node10 -->
<g id="Node000010" class="node">
<title>Node10</title>
<g id="a_Node000010"><a xlink:href="lo_8c.html" target="_top" xlink:title=" ">
<polygon fill="white" stroke="#666666" points="832,-19 766,-19 766,0 832,0 832,-19"/>
<text text-anchor="middle" x="799" y="-7" font-family="Helvetica,sans-Serif" font-size="10.00">src/P2/lo.c</text>
</a>
</g>
</g>
<!-- Node1&#45;&gt;Node10 -->
<g id="edge9_Node000001_Node000010" class="edge">
<title>Node1&#45;&gt;Node10</title>
<g id="a_edge9_Node000001_Node000010"><a xlink:title=" ">
<path fill="none" stroke="#63b8ff" d="M867.51,-49.97C850.69,-40.28 828.55,-27.52 814.05,-19.17"/>
<polygon fill="#63b8ff" stroke="#63b8ff" points="865.81,-53.03 876.22,-54.98 869.3,-46.96 865.81,-53.03"/>
</a>
</g>
</g>
<!-- Node11 -->
<g id="Node000011" class="node">
<title>Node11</title>
<g id="a_Node000011"><a xlink:href="main_8c.html" target="_top" xlink:title=" ">
<polygon fill="white" stroke="#666666" points="932,-19 850,-19 850,0 932,0 932,-19"/>
<text text-anchor="middle" x="891" y="-7" font-family="Helvetica,sans-Serif" font-size="10.00">src/P2/main.c</text>
</a>
</g>
</g>
<!-- Node1&#45;&gt;Node11 -->
<g id="edge10_Node000001_Node000011" class="edge">
<title>Node1&#45;&gt;Node11</title>
<g id="a_edge10_Node000001_Node000011"><a xlink:title=" ">
<path fill="none" stroke="#63b8ff" d="M891,-44.66C891,-35.93 891,-25.99 891,-19.09"/>
<polygon fill="#63b8ff" stroke="#63b8ff" points="887.5,-44.75 891,-54.75 894.5,-44.75 887.5,-44.75"/>
</a>
</g>
</g>
<!-- Node12 -->
<g id="Node000012" class="node">
<title>Node12</title>
<g id="a_Node000012"><a xlink:href="memory_8c.html" target="_top" xlink:title=" ">
<polygon fill="white" stroke="#666666" points="1047.5,-19 950.5,-19 950.5,0 1047.5,0 1047.5,-19"/>
<text text-anchor="middle" x="999" y="-7" font-family="Helvetica,sans-Serif" font-size="10.00">src/P2/memory.c</text>
</a>
</g>
</g>
<!-- Node1&#45;&gt;Node12 -->
<g id="edge11_Node000001_Node000012" class="edge">
<title>Node1&#45;&gt;Node12</title>
<g id="a_edge11_Node000001_Node000012"><a xlink:title=" ">
<path fill="none" stroke="#63b8ff" d="M917.49,-50.5C937.36,-40.75 964,-27.68 981.33,-19.17"/>
<polygon fill="#63b8ff" stroke="#63b8ff" points="915.79,-47.44 908.35,-54.98 918.87,-53.72 915.79,-47.44"/>
</a>
</g>
</g>
<!-- Node13 -->
<g id="Node000013" class="node">
<title>Node13</title>
<g id="a_Node000013"><a xlink:href="slotheap_8c.html" target="_top" xlink:title=" ">
<polygon fill="white" stroke="#666666" points="1164.5,-19 1065.5,-19 1065.5,0 1164.5,0 1164.5,-19"/>
<text text-anchor="middle" x="1115" y="-7" font-family="Helvetica,sans-Serif" font-size="10.00">src/P2/slotheap.c</text>
</a>
</g>
</g>
<!-- Node1&#45;&gt;Node13 -->
<g id="edge12_Node000001_Node000013" class="edge">
<title>Node1&#45;&gt;Node13</title>
<g id="a_edge12_Node000001_Node000013"><a xlink:title=" ">
<path fill="none" stroke="#63b8ff" d="M936.95,-52.63C978.91,-42.7 1040.12,-28.22 1078.73,-19.08"/>
<polygon fill="#63b8ff" stroke="#63b8ff" points="935.91,-49.28 926.99,-54.98 937.53,-56.09 935.91,-49.28"/>
</a>
</g>
</g>
<!-- Node14 -->
<g id="Node000014" class="node">
<title>Node14</title>
<g id="a_Node000014"><a xlink:href="sidebag_8cpp.html" target="_top" xlink:title=" ">
<polygon fill="white" stroke="#666666" points="1321.5,-19 1182.5,-19 1182.5,0 1321.5,0 1321.5,-19"/>
<text text-anchor="middle" x="1252" y="-7" font-family="Helvetica,sans-Serif" font-size="10.00">src/P2/splice/sidebag.cpp</text>
</a>
</g>
</g>
<!-- Node1&#45;&gt;Node14 -->
<g id="edge13_Node000001_Node000014" class="edge">
<title>Node1&#45;&gt;Node14</title>
<g id="a_edge13_Node000001_Node000014"><a xlink:title=" ">
<path fill="none" stroke="#63b8ff" d="M953.2,-54.37C1020.8,-44.44 1127.99,-28.71 1193.93,-19.03"/>
<polygon fill="#63b8ff" stroke="#63b8ff" points="952.49,-50.93 943.11,-55.85 953.51,-57.86 952.49,-50.93"/>
</a>
</g>
</g>
<!-- Node15 -->
<g id="Node000015" class="node">
<title>Node15</title>
<g id="a_Node000015"><a xlink:href="splotheap_8cpp.html" target="_top" xlink:title=" ">
<polygon fill="white" stroke="#666666" points="1488.5,-19 1339.5,-19 1339.5,0 1488.5,0 1488.5,-19"/>
<text text-anchor="middle" x="1414" y="-7" font-family="Helvetica,sans-Serif" font-size="10.00">src/P2/splice/splotheap.cpp</text>
</a>
</g>
</g>
<!-- Node1&#45;&gt;Node15 -->
<g id="edge14_Node000001_Node000015" class="edge">
<title>Node1&#45;&gt;Node15</title>
<g id="a_edge14_Node000001_Node000015"><a xlink:title=" ">
<path fill="none" stroke="#63b8ff" d="M953.18,-57.24C1038.41,-48.64 1196.31,-32.71 1331,-19 1333.74,-18.72 1336.53,-18.44 1339.34,-18.15"/>
<polygon fill="#63b8ff" stroke="#63b8ff" points="952.75,-53.76 943.16,-58.25 953.46,-60.73 952.75,-53.76"/>
</a>
</g>
</g>
<!-- Node16 -->
<g id="Node000016" class="node">
<title>Node16</title>
<g id="a_Node000016"><a xlink:href="vecmat_8cpp.html" target="_top" xlink:title=" ">
<polygon fill="white" stroke="#666666" points="1643.5,-19 1506.5,-19 1506.5,0 1643.5,0 1643.5,-19"/>
<text text-anchor="middle" x="1575" y="-7" font-family="Helvetica,sans-Serif" font-size="10.00">src/P2/splice/vecmat.cpp</text>
</a>
</g>
</g>
<!-- Node1&#45;&gt;Node16 -->
<g id="edge15_Node000001_Node000016" class="edge">
<title>Node1&#45;&gt;Node16</title>
<g id="a_edge15_Node000001_Node000016"><a xlink:title=" ">
<path fill="none" stroke="#63b8ff" d="M953.27,-59.69C1063.29,-52.8 1299.23,-37.25 1498,-19 1500.68,-18.75 1503.41,-18.49 1506.17,-18.23"/>
<polygon fill="#63b8ff" stroke="#63b8ff" points="952.78,-56.22 943.02,-60.33 953.22,-63.2 952.78,-56.22"/>
</a>
</g>
</g>
<!-- Node17 -->
<g id="Node000017" class="node">
<title>Node17</title>
<g id="a_Node000017"><a xlink:href="text_8c.html" target="_top" xlink:title=" ">
<polygon fill="white" stroke="#666666" points="1738.5,-19 1661.5,-19 1661.5,0 1738.5,0 1738.5,-19"/>
<text text-anchor="middle" x="1700" y="-7" font-family="Helvetica,sans-Serif" font-size="10.00">src/P2/text.c</text>
</a>
</g>
</g>
<!-- Node1&#45;&gt;Node17 -->
<g id="edge16_Node000001_Node000017" class="edge">
<title>Node1&#45;&gt;Node17</title>
<g id="a_edge16_Node000001_Node000017"><a xlink:title=" ">
<path fill="none" stroke="#63b8ff" d="M953.59,-62.4C1084.07,-59.54 1394.53,-49.81 1653,-19 1655.72,-18.68 1658.51,-18.29 1661.33,-17.88"/>
<polygon fill="#63b8ff" stroke="#63b8ff" points="953.31,-58.9 943.39,-62.61 953.46,-65.9 953.31,-58.9"/>
</a>
</g>
</g>
<!-- Node18 -->
<g id="Node000018" class="node">
<title>Node18</title>
<g id="a_Node000018"><a xlink:href="vis_8c.html" target="_top" xlink:title=" ">
<polygon fill="white" stroke="#666666" points="1827.5,-19 1756.5,-19 1756.5,0 1827.5,0 1827.5,-19"/>
<text text-anchor="middle" x="1792" y="-7" font-family="Helvetica,sans-Serif" font-size="10.00">src/P2/vis.c</text>
</a>
</g>
</g>
<!-- Node1&#45;&gt;Node18 -->
<g id="edge17_Node000001_Node000018" class="edge">
<title>Node1&#45;&gt;Node18</title>
<g id="a_edge17_Node000001_Node000018"><a xlink:title=" ">
<path fill="none" stroke="#63b8ff" d="M953.63,-63.22C1095.54,-61.94 1452.23,-55.07 1748,-19 1750.63,-18.68 1753.33,-18.29 1756.05,-17.87"/>
<polygon fill="#63b8ff" stroke="#63b8ff" points="953.36,-59.72 943.39,-63.31 953.42,-66.72 953.36,-59.72"/>
</a>
</g>
</g>
<!-- Node19 -->
<g id="Node000019" class="node">
<title>Node19</title>
<g id="a_Node000019"><a xlink:href="waypoint_8c.html" target="_top" xlink:title=" ">
<polygon fill="white" stroke="#666666" points="1948,-19 1846,-19 1846,0 1948,0 1948,-19"/>
<text text-anchor="middle" x="1897" y="-7" font-family="Helvetica,sans-Serif" font-size="10.00">src/P2/waypoint.c</text>
</a>
</g>
</g>
<!-- Node1&#45;&gt;Node19 -->
<g id="edge18_Node000001_Node000019" class="edge">
<title>Node1&#45;&gt;Node19</title>
<g id="a_edge18_Node000001_Node000019"><a xlink:title=" ">
<path fill="none" stroke="#63b8ff" d="M953.21,-62.59C1104.71,-59.93 1504.76,-50.28 1837,-19 1839.93,-18.72 1842.94,-18.41 1845.98,-18.06"/>
<polygon fill="#63b8ff" stroke="#63b8ff" points="953.1,-59.09 943.16,-62.76 953.22,-66.09 953.1,-59.09"/>
</a>
</g>
</g>
<!-- Node20 -->
<g id="Node000020" class="node">
<title>Node20</title>
<g id="a_Node000020"><a xlink:href="zap_8c.html" target="_top" xlink:title=" ">
<polygon fill="white" stroke="#666666" points="2040,-19 1966,-19 1966,0 2040,0 2040,-19"/>
<text text-anchor="middle" x="2003" y="-7" font-family="Helvetica,sans-Serif" font-size="10.00">src/P2/zap.c</text>
</a>
</g>
</g>
<!-- Node1&#45;&gt;Node20 -->
<g id="edge19_Node000001_Node000020" class="edge">
<title>Node1&#45;&gt;Node20</title>
<g id="a_edge19_Node000001_Node000020"><a xlink:title=" ">
<path fill="none" stroke="#63b8ff" d="M953.48,-63.96C1118.18,-64.51 1577.64,-61.75 1957,-19 1959.91,-18.67 1962.9,-18.27 1965.91,-17.82"/>
<polygon fill="#63b8ff" stroke="#63b8ff" points="953.07,-60.46 943.06,-63.92 953.04,-67.46 953.07,-60.46"/>
</a>
</g>
</g>
</g>
</svg>
