<?xml version="1.0" encoding="UTF-8" standalone="no"?>
<!DOCTYPE svg PUBLIC "-//W3C//DTD SVG 1.1//EN"
 "http://www.w3.org/Graphics/SVG/1.1/DTD/svg11.dtd">
<!-- Generated by graphviz version 2.43.0 (0)
 -->
<!-- Title: include/sce/memset.h Pages: 1 -->
<svg width="2402pt" height="82pt"
 viewBox="0.00 0.00 2402.00 82.00" xmlns="http://www.w3.org/2000/svg" xmlns:xlink="http://www.w3.org/1999/xlink">
<g id="graph0" class="graph" transform="scale(1 1) rotate(0) translate(4 78)">
<title>include/sce/memset.h</title>
<!-- Node1 -->
<g id="Node000001" class="node">
<title>Node1</title>
<g id="a_Node000001"><a xlink:title="Memset.">
<polygon fill="#999999" stroke="#666666" points="1096,-74 972,-74 972,-55 1096,-55 1096,-74"/>
<text text-anchor="middle" x="1034" y="-62" font-family="Helvetica,sans-Serif" font-size="10.00">include/sce/memset.h</text>
</a>
</g>
</g>
<!-- Node2 -->
<g id="Node000002" class="node">
<title>Node2</title>
<g id="a_Node000002"><a xlink:href="chkpnt_8c.html" target="_top" xlink:title=" ">
<polygon fill="white" stroke="#666666" points="90,-19 0,-19 0,0 90,0 90,-19"/>
<text text-anchor="middle" x="45" y="-7" font-family="Helvetica,sans-Serif" font-size="10.00">src/P2/chkpnt.c</text>
</a>
</g>
</g>
<!-- Node1&#45;&gt;Node2 -->
<g id="edge1_Node000001_Node000002" class="edge">
<title>Node1&#45;&gt;Node2</title>
<g id="a_edge1_Node000001_Node000002"><a xlink:title=" ">
<path fill="none" stroke="#63b8ff" d="M961.71,-62.73C804.42,-60.47 419.54,-51.76 99,-19 96.07,-18.7 93.06,-18.35 90.03,-17.96"/>
<polygon fill="#63b8ff" stroke="#63b8ff" points="961.69,-66.23 971.73,-62.87 961.78,-59.23 961.69,-66.23"/>
</a>
</g>
</g>
<!-- Node3 -->
<g id="Node000003" class="node">
<title>Node3</title>
<g id="a_Node000003"><a xlink:href="difficulty_8c.html" target="_top" xlink:title=" ">
<polygon fill="white" stroke="#666666" points="206,-19 108,-19 108,0 206,0 206,-19"/>
<text text-anchor="middle" x="157" y="-7" font-family="Helvetica,sans-Serif" font-size="10.00">src/P2/difficulty.c</text>
</a>
</g>
</g>
<!-- Node1&#45;&gt;Node3 -->
<g id="edge2_Node000001_Node000003" class="edge">
<title>Node1&#45;&gt;Node3</title>
<g id="a_edge2_Node000001_Node000003"><a xlink:title=" ">
<path fill="none" stroke="#63b8ff" d="M961.57,-61.78C818.54,-57.9 489.9,-46.55 215,-19 212.06,-18.71 209.05,-18.37 206.01,-18"/>
<polygon fill="#63b8ff" stroke="#63b8ff" points="961.86,-65.29 971.95,-62.06 962.05,-58.29 961.86,-65.29"/>
</a>
</g>
</g>
<!-- Node4 -->
<g id="Node000004" class="node">
<title>Node4</title>
<g id="a_Node000004"><a xlink:href="game_8c.html" target="_top" xlink:title=" ">
<polygon fill="white" stroke="#666666" points="309.5,-19 224.5,-19 224.5,0 309.5,0 309.5,-19"/>
<text text-anchor="middle" x="267" y="-7" font-family="Helvetica,sans-Serif" font-size="10.00">src/P2/game.c</text>
</a>
</g>
</g>
<!-- Node1&#45;&gt;Node4 -->
<g id="edge3_Node000001_Node000004" class="edge">
<title>Node1&#45;&gt;Node4</title>
<g id="a_edge3_Node000001_Node000004"><a xlink:title=" ">
<path fill="none" stroke="#63b8ff" d="M961.36,-61.46C831.78,-57.27 552.33,-45.74 318,-19 315.24,-18.68 312.39,-18.32 309.53,-17.93"/>
<polygon fill="#63b8ff" stroke="#63b8ff" points="961.45,-64.96 971.56,-61.78 961.67,-57.97 961.45,-64.96"/>
</a>
</g>
</g>
<!-- Node5 -->
<g id="Node000005" class="node">
<title>Node5</title>
<g id="a_Node000005"><a xlink:href="glbs_8c.html" target="_top" xlink:title=" ">
<polygon fill="white" stroke="#666666" points="404.5,-19 327.5,-19 327.5,0 404.5,0 404.5,-19"/>
<text text-anchor="middle" x="366" y="-7" font-family="Helvetica,sans-Serif" font-size="10.00">src/P2/glbs.c</text>
</a>
</g>
</g>
<!-- Node1&#45;&gt;Node5 -->
<g id="edge4_Node000001_Node000005" class="edge">
<title>Node1&#45;&gt;Node5</title>
<g id="a_edge4_Node000001_Node000005"><a xlink:title=" ">
<path fill="none" stroke="#63b8ff" d="M961.45,-60.83C845.29,-55.99 610.53,-43.87 413,-19 410.29,-18.66 407.49,-18.26 404.68,-17.83"/>
<polygon fill="#63b8ff" stroke="#63b8ff" points="961.51,-64.33 971.64,-61.25 961.79,-57.34 961.51,-64.33"/>
</a>
</g>
</g>
<!-- Node6 -->
<g id="Node000006" class="node">
<title>Node6</title>
<g id="a_Node000006"><a xlink:href="joy_8c.html" target="_top" xlink:title=" ">
<polygon fill="white" stroke="#666666" points="493.5,-19 422.5,-19 422.5,0 493.5,0 493.5,-19"/>
<text text-anchor="middle" x="458" y="-7" font-family="Helvetica,sans-Serif" font-size="10.00">src/P2/joy.c</text>
</a>
</g>
</g>
<!-- Node1&#45;&gt;Node6 -->
<g id="edge5_Node000001_Node000006" class="edge">
<title>Node1&#45;&gt;Node6</title>
<g id="a_edge5_Node000001_Node000006"><a xlink:title=" ">
<path fill="none" stroke="#63b8ff" d="M961.68,-59.92C859.08,-54.28 665.55,-41.57 502,-19 499.38,-18.64 496.68,-18.22 493.97,-17.77"/>
<polygon fill="#63b8ff" stroke="#63b8ff" points="961.75,-63.43 971.92,-60.47 962.12,-56.44 961.75,-63.43"/>
</a>
</g>
</g>
<!-- Node7 -->
<g id="Node000007" class="node">
<title>Node7</title>
<g id="a_Node000007"><a xlink:href="jsg_8c.html" target="_top" xlink:title=" ">
<polygon fill="white" stroke="#666666" points="582.5,-19 511.5,-19 511.5,0 582.5,0 582.5,-19"/>
<text text-anchor="middle" x="547" y="-7" font-family="Helvetica,sans-Serif" font-size="10.00">src/P2/jsg.c</text>
</a>
</g>
</g>
<!-- Node1&#45;&gt;Node7 -->
<g id="edge6_Node000001_Node000007" class="edge">
<title>Node1&#45;&gt;Node7</title>
<g id="a_edge6_Node000001_Node000007"><a xlink:title=" ">
<path fill="none" stroke="#63b8ff" d="M961.65,-58.26C873.74,-51.42 721.03,-38.05 591,-19 588.38,-18.62 585.68,-18.19 582.97,-17.72"/>
<polygon fill="#63b8ff" stroke="#63b8ff" points="961.55,-61.76 971.79,-59.04 962.08,-54.78 961.55,-61.76"/>
</a>
</g>
</g>
<!-- Node8 -->
<g id="Node000008" class="node">
<title>Node8</title>
<g id="a_Node000008"><a xlink:href="mat_8c.html" target="_top" xlink:title=" ">
<polygon fill="white" stroke="#666666" points="677.5,-19 600.5,-19 600.5,0 677.5,0 677.5,-19"/>
<text text-anchor="middle" x="639" y="-7" font-family="Helvetica,sans-Serif" font-size="10.00">src/P2/mat.c</text>
</a>
</g>
</g>
<!-- Node1&#45;&gt;Node8 -->
<g id="edge7_Node000001_Node000008" class="edge">
<title>Node1&#45;&gt;Node8</title>
<g id="a_edge7_Node000001_Node000008"><a xlink:title=" ">
<path fill="none" stroke="#63b8ff" d="M961.84,-55.38C891.35,-47.18 781.1,-33.67 686,-19 683.3,-18.58 680.51,-18.13 677.7,-17.66"/>
<polygon fill="#63b8ff" stroke="#63b8ff" points="961.61,-58.87 971.94,-56.55 962.41,-51.92 961.61,-58.87"/>
</a>
</g>
</g>
<!-- Node9 -->
<g id="Node000009" class="node">
<title>Node9</title>
<g id="a_Node000009"><a xlink:href="memory_8c.html" target="_top" xlink:title=" ">
<polygon fill="white" stroke="#666666" points="792.5,-19 695.5,-19 695.5,0 792.5,0 792.5,-19"/>
<text text-anchor="middle" x="744" y="-7" font-family="Helvetica,sans-Serif" font-size="10.00">src/P2/memory.c</text>
</a>
</g>
</g>
<!-- Node1&#45;&gt;Node9 -->
<g id="edge8_Node000001_Node000009" class="edge">
<title>Node1&#45;&gt;Node9</title>
<g id="a_edge8_Node000001_Node000009"><a xlink:title=" ">
<path fill="none" stroke="#63b8ff" d="M977.24,-53.13C922.87,-43.19 841.79,-28.37 790.96,-19.08"/>
<polygon fill="#63b8ff" stroke="#63b8ff" points="976.94,-56.63 987.41,-54.98 978.2,-49.74 976.94,-56.63"/>
</a>
</g>
</g>
<!-- Node10 -->
<g id="Node000010" class="node">
<title>Node10</title>
<g id="a_Node000010"><a xlink:href="slotheap_8c.html" target="_top" xlink:title=" ">
<polygon fill="white" stroke="#666666" points="909.5,-19 810.5,-19 810.5,0 909.5,0 909.5,-19"/>
<text text-anchor="middle" x="860" y="-7" font-family="Helvetica,sans-Serif" font-size="10.00">src/P2/slotheap.c</text>
</a>
</g>
</g>
<!-- Node1&#45;&gt;Node10 -->
<g id="edge9_Node000001_Node000010" class="edge">
<title>Node1&#45;&gt;Node10</title>
<g id="a_edge9_Node000001_Node000010"><a xlink:title=" ">
<path fill="none" stroke="#63b8ff" d="M996.43,-52.06C963.91,-42.15 917.6,-28.04 888.18,-19.08"/>
<polygon fill="#63b8ff" stroke="#63b8ff" points="995.46,-55.42 1006.04,-54.98 997.5,-48.72 995.46,-55.42"/>
</a>
</g>
</g>
<!-- Node11 -->
<g id="Node000011" class="node">
<title>Node11</title>
<g id="a_Node000011"><a xlink:href="sound_8c.html" target="_top" xlink:title=" ">
<polygon fill="white" stroke="#666666" points="1014,-19 928,-19 928,0 1014,0 1014,-19"/>
<text text-anchor="middle" x="971" y="-7" font-family="Helvetica,sans-Serif" font-size="10.00">src/P2/sound.c</text>
</a>
</g>
</g>
<!-- Node1&#45;&gt;Node11 -->
<g id="edge10_Node000001_Node000011" class="edge">
<title>Node1&#45;&gt;Node11</title>
<g id="a_edge10_Node000001_Node000011"><a xlink:title=" ">
<path fill="none" stroke="#63b8ff" d="M1015.96,-48.32C1004.73,-38.87 990.68,-27.06 981.31,-19.17"/>
<polygon fill="#63b8ff" stroke="#63b8ff" points="1013.97,-51.23 1023.88,-54.98 1018.48,-45.87 1013.97,-51.23"/>
</a>
</g>
</g>
<!-- Node12 -->
<g id="Node000012" class="node">
<title>Node12</title>
<g id="a_Node000012"><a xlink:href="frame_8cpp.html" target="_top" xlink:title=" ">
<polygon fill="white" stroke="#666666" points="1162,-19 1032,-19 1032,0 1162,0 1162,-19"/>
<text text-anchor="middle" x="1097" y="-7" font-family="Helvetica,sans-Serif" font-size="10.00">src/P2/splice/frame.cpp</text>
</a>
</g>
</g>
<!-- Node1&#45;&gt;Node12 -->
<g id="edge11_Node000001_Node000012" class="edge">
<title>Node1&#45;&gt;Node12</title>
<g id="a_edge11_Node000001_Node000012"><a xlink:title=" ">
<path fill="none" stroke="#63b8ff" d="M1052.04,-48.32C1063.27,-38.87 1077.32,-27.06 1086.69,-19.17"/>
<polygon fill="#63b8ff" stroke="#63b8ff" points="1049.52,-45.87 1044.12,-54.98 1054.03,-51.23 1049.52,-45.87"/>
</a>
</g>
</g>
<!-- Node13 -->
<g id="Node000013" class="node">
<title>Node13</title>
<g id="a_Node000013"><a xlink:href="method_8cpp.html" target="_top" xlink:title=" ">
<polygon fill="white" stroke="#666666" points="1318,-19 1180,-19 1180,0 1318,0 1318,-19"/>
<text text-anchor="middle" x="1249" y="-7" font-family="Helvetica,sans-Serif" font-size="10.00">src/P2/splice/method.cpp</text>
</a>
</g>
</g>
<!-- Node1&#45;&gt;Node13 -->
<g id="edge12_Node000001_Node000013" class="edge">
<title>Node1&#45;&gt;Node13</title>
<g id="a_edge12_Node000001_Node000013"><a xlink:title=" ">
<path fill="none" stroke="#63b8ff" d="M1078.36,-52.56C1118.63,-42.64 1177.2,-28.2 1214.19,-19.08"/>
<polygon fill="#63b8ff" stroke="#63b8ff" points="1077.42,-49.19 1068.54,-54.98 1079.09,-55.99 1077.42,-49.19"/>
</a>
</g>
</g>
<!-- Node14 -->
<g id="Node000014" class="node">
<title>Node14</title>
<g id="a_Node000014"><a xlink:href="pair_8cpp.html" target="_top" xlink:title=" ">
<polygon fill="white" stroke="#666666" points="1455.5,-19 1336.5,-19 1336.5,0 1455.5,0 1455.5,-19"/>
<text text-anchor="middle" x="1396" y="-7" font-family="Helvetica,sans-Serif" font-size="10.00">src/P2/splice/pair.cpp</text>
</a>
</g>
</g>
<!-- Node1&#45;&gt;Node14 -->
<g id="edge13_Node000001_Node000014" class="edge">
<title>Node1&#45;&gt;Node14</title>
<g id="a_edge13_Node000001_Node000014"><a xlink:title=" ">
<path fill="none" stroke="#63b8ff" d="M1102.34,-53.49C1170.31,-43.54 1273.46,-28.44 1337.68,-19.04"/>
<polygon fill="#63b8ff" stroke="#63b8ff" points="1101.55,-50.07 1092.16,-54.98 1102.56,-57 1101.55,-50.07"/>
</a>
</g>
</g>
<!-- Node15 -->
<g id="Node000015" class="node">
<title>Node15</title>
<g id="a_Node000015"><a xlink:href="proc_8cpp.html" target="_top" xlink:title=" ">
<polygon fill="white" stroke="#666666" points="1596,-19 1474,-19 1474,0 1596,0 1596,-19"/>
<text text-anchor="middle" x="1535" y="-7" font-family="Helvetica,sans-Serif" font-size="10.00">src/P2/splice/proc.cpp</text>
</a>
</g>
</g>
<!-- Node1&#45;&gt;Node15 -->
<g id="edge14_Node000001_Node000015" class="edge">
<title>Node1&#45;&gt;Node15</title>
<g id="a_edge14_Node000001_Node000015"><a xlink:title=" ">
<path fill="none" stroke="#63b8ff" d="M1106.27,-56.44C1191.92,-47.98 1338.93,-33.16 1465,-19 1467.92,-18.67 1470.91,-18.33 1473.92,-17.98"/>
<polygon fill="#63b8ff" stroke="#63b8ff" points="1105.74,-52.97 1096.13,-57.44 1106.43,-59.94 1105.74,-52.97"/>
</a>
</g>
</g>
<!-- Node16 -->
<g id="Node000016" class="node">
<title>Node16</title>
<g id="a_Node000016"><a xlink:href="sidebag_8cpp.html" target="_top" xlink:title=" ">
<polygon fill="white" stroke="#666666" points="1753.5,-19 1614.5,-19 1614.5,0 1753.5,0 1753.5,-19"/>
<text text-anchor="middle" x="1684" y="-7" font-family="Helvetica,sans-Serif" font-size="10.00">src/P2/splice/sidebag.cpp</text>
</a>
</g>
</g>
<!-- Node1&#45;&gt;Node16 -->
<g id="edge15_Node000001_Node000016" class="edge">
<title>Node1&#45;&gt;Node16</title>
<g id="a_edge15_Node000001_Node000016"><a xlink:title=" ">
<path fill="none" stroke="#63b8ff" d="M1106.32,-58.55C1214.76,-50.97 1425.88,-35.61 1605,-19 1608.02,-18.72 1611.11,-18.42 1614.22,-18.12"/>
<polygon fill="#63b8ff" stroke="#63b8ff" points="1105.89,-55.07 1096.15,-59.26 1106.37,-62.05 1105.89,-55.07"/>
</a>
</g>
</g>
<!-- Node17 -->
<g id="Node000017" class="node">
<title>Node17</title>
<g id="a_Node000017"><a xlink:href="splotheap_8cpp.html" target="_top" xlink:title=" ">
<polygon fill="white" stroke="#666666" points="1920.5,-19 1771.5,-19 1771.5,0 1920.5,0 1920.5,-19"/>
<text text-anchor="middle" x="1846" y="-7" font-family="Helvetica,sans-Serif" font-size="10.00">src/P2/splice/splotheap.cpp</text>
</a>
</g>
</g>
<!-- Node1&#45;&gt;Node17 -->
<g id="edge16_Node000001_Node000017" class="edge">
<title>Node1&#45;&gt;Node17</title>
<g id="a_edge16_Node000001_Node000017"><a xlink:title=" ">
<path fill="none" stroke="#63b8ff" d="M1106.79,-60.05C1238.05,-53.6 1523.06,-38.6 1763,-19 1765.74,-18.78 1768.54,-18.54 1771.36,-18.29"/>
<polygon fill="#63b8ff" stroke="#63b8ff" points="1106.29,-56.57 1096.47,-60.55 1106.63,-63.56 1106.29,-56.57"/>
</a>
</g>
</g>
<!-- Node18 -->
<g id="Node000018" class="node">
<title>Node18</title>
<g id="a_Node000018"><a xlink:href="vecmat_8cpp.html" target="_top" xlink:title=" ">
<polygon fill="white" stroke="#666666" points="2075.5,-19 1938.5,-19 1938.5,0 2075.5,0 2075.5,-19"/>
<text text-anchor="middle" x="2007" y="-7" font-family="Helvetica,sans-Serif" font-size="10.00">src/P2/splice/vecmat.cpp</text>
</a>
</g>
</g>
<!-- Node1&#45;&gt;Node18 -->
<g id="edge17_Node000001_Node000018" class="edge">
<title>Node1&#45;&gt;Node18</title>
<g id="a_edge17_Node000001_Node000018"><a xlink:title=" ">
<path fill="none" stroke="#63b8ff" d="M1106.16,-61.39C1258.53,-56.62 1624.19,-43.45 1930,-19 1932.68,-18.79 1935.41,-18.55 1938.17,-18.31"/>
<polygon fill="#63b8ff" stroke="#63b8ff" points="1105.89,-57.9 1096,-61.71 1106.11,-64.9 1105.89,-57.9"/>
</a>
</g>
</g>
<!-- Node19 -->
<g id="Node000019" class="node">
<title>Node19</title>
<g id="a_Node000019"><a xlink:href="sw_8c.html" target="_top" xlink:title=" ">
<polygon fill="white" stroke="#666666" points="2164,-19 2094,-19 2094,0 2164,0 2164,-19"/>
<text text-anchor="middle" x="2129" y="-7" font-family="Helvetica,sans-Serif" font-size="10.00">src/P2/sw.c</text>
</a>
</g>
</g>
<!-- Node1&#45;&gt;Node19 -->
<g id="edge18_Node000001_Node000019" class="edge">
<title>Node1&#45;&gt;Node19</title>
<g id="a_edge18_Node000001_Node000019"><a xlink:title=" ">
<path fill="none" stroke="#63b8ff" d="M1106.28,-64.13C1277.13,-64.8 1719.04,-61.86 2085,-19 2087.78,-18.67 2090.65,-18.27 2093.53,-17.82"/>
<polygon fill="#63b8ff" stroke="#63b8ff" points="1106.17,-60.62 1096.15,-64.08 1106.13,-67.62 1106.17,-60.62"/>
</a>
</g>
</g>
<!-- Node20 -->
<g id="Node000020" class="node">
<title>Node20</title>
<g id="a_Node000020"><a xlink:href="thread_8c.html" target="_top" xlink:title=" ">
<polygon fill="white" stroke="#666666" points="2271.5,-19 2182.5,-19 2182.5,0 2271.5,0 2271.5,-19"/>
<text text-anchor="middle" x="2227" y="-7" font-family="Helvetica,sans-Serif" font-size="10.00">src/P2/thread.c</text>
</a>
</g>
</g>
<!-- Node1&#45;&gt;Node20 -->
<g id="edge19_Node000001_Node000020" class="edge">
<title>Node1&#45;&gt;Node20</title>
<g id="a_edge19_Node000001_Node000020"><a xlink:title=" ">
<path fill="none" stroke="#63b8ff" d="M1106.38,-63.61C1286.9,-63.23 1771.38,-58.32 2173,-19 2176.02,-18.7 2179.13,-18.35 2182.26,-17.96"/>
<polygon fill="#63b8ff" stroke="#63b8ff" points="1106.21,-60.11 1096.22,-63.62 1106.22,-67.11 1106.21,-60.11"/>
</a>
</g>
</g>
<!-- Node21 -->
<g id="Node000021" class="node">
<title>Node21</title>
<g id="a_Node000021"><a xlink:href="transition_8c.html" target="_top" xlink:title=" ">
<polygon fill="white" stroke="#666666" points="2394,-19 2290,-19 2290,0 2394,0 2394,-19"/>
<text text-anchor="middle" x="2342" y="-7" font-family="Helvetica,sans-Serif" font-size="10.00">src/P2/transition.c</text>
</a>
</g>
</g>
<!-- Node1&#45;&gt;Node21 -->
<g id="edge20_Node000001_Node000021" class="edge">
<title>Node1&#45;&gt;Node21</title>
<g id="a_edge20_Node000001_Node000021"><a xlink:title=" ">
<path fill="none" stroke="#63b8ff" d="M1106.33,-63.51C1298.17,-62.99 1835.72,-57.86 2281,-19 2283.88,-18.75 2286.82,-18.46 2289.8,-18.13"/>
<polygon fill="#63b8ff" stroke="#63b8ff" points="1106.09,-60.01 1096.09,-63.54 1106.1,-67.01 1106.09,-60.01"/>
</a>
</g>
</g>
</g>
</svg>
