<?xml version="1.0" encoding="UTF-8" standalone="no"?>
<!DOCTYPE svg PUBLIC "-//W3C//DTD SVG 1.1//EN"
 "http://www.w3.org/Graphics/SVG/1.1/DTD/svg11.dtd">
<!-- Generated by graphviz version 2.43.0 (0)
 -->
<!-- Title: src/P2/splice/method.cpp Pages: 1 -->
<svg width="331pt" height="137pt"
 viewBox="0.00 0.00 330.50 137.00" xmlns="http://www.w3.org/2000/svg" xmlns:xlink="http://www.w3.org/1999/xlink">
<g id="graph0" class="graph" transform="scale(1 1) rotate(0) translate(4 133)">
<title>src/P2/splice/method.cpp</title>
<!-- Node1 -->
<g id="Node000001" class="node">
<title>Node1</title>
<g id="a_Node000001"><a xlink:title=" ">
<polygon fill="#999999" stroke="#666666" points="221,-129 83,-129 83,-110 221,-110 221,-129"/>
<text text-anchor="middle" x="152" y="-117" font-family="Helvetica,sans-Serif" font-size="10.00">src/P2/splice/method.cpp</text>
</a>
</g>
</g>
<!-- Node2 -->
<g id="Node000002" class="node">
<title>Node2</title>
<g id="a_Node000002"><a xlink:href="memset_8h.html" target="_top" xlink:title="Memset.">
<polygon fill="white" stroke="#666666" points="86,-74 0,-74 0,-55 86,-55 86,-74"/>
<text text-anchor="middle" x="43" y="-62" font-family="Helvetica,sans-Serif" font-size="10.00">sce/memset.h</text>
</a>
</g>
</g>
<!-- Node1&#45;&gt;Node2 -->
<g id="edge1_Node000001_Node000002" class="edge">
<title>Node1&#45;&gt;Node2</title>
<g id="a_edge1_Node000001_Node000002"><a xlink:title=" ">
<path fill="none" stroke="#63b8ff" d="M134.49,-109.98C117.03,-101.5 89.99,-88.35 69.83,-78.54"/>
<polygon fill="#63b8ff" stroke="#63b8ff" points="71.36,-75.4 60.83,-74.17 68.29,-81.69 71.36,-75.4"/>
</a>
</g>
</g>
<!-- Node4 -->
<g id="Node000004" class="node">
<title>Node4</title>
<g id="a_Node000004"><a xlink:href="method_8h.html" target="_top" xlink:title=" ">
<polygon fill="white" stroke="#666666" points="199.5,-74 104.5,-74 104.5,-55 199.5,-55 199.5,-74"/>
<text text-anchor="middle" x="152" y="-62" font-family="Helvetica,sans-Serif" font-size="10.00">splice/method.h</text>
</a>
</g>
</g>
<!-- Node1&#45;&gt;Node4 -->
<g id="edge3_Node000001_Node000004" class="edge">
<title>Node1&#45;&gt;Node4</title>
<g id="a_edge3_Node000001_Node000004"><a xlink:title=" ">
<path fill="none" stroke="#63b8ff" d="M152,-109.75C152,-102.8 152,-92.85 152,-84.13"/>
<polygon fill="#63b8ff" stroke="#63b8ff" points="155.5,-84.09 152,-74.09 148.5,-84.09 155.5,-84.09"/>
</a>
</g>
</g>
<!-- Node5 -->
<g id="Node000005" class="node">
<title>Node5</title>
<g id="a_Node000005"><a xlink:href="splotheap_8h.html" target="_top" xlink:title=" ">
<polygon fill="white" stroke="#666666" points="322.5,-74 217.5,-74 217.5,-55 322.5,-55 322.5,-74"/>
<text text-anchor="middle" x="270" y="-62" font-family="Helvetica,sans-Serif" font-size="10.00">splice/splotheap.h</text>
</a>
</g>
</g>
<!-- Node1&#45;&gt;Node5 -->
<g id="edge4_Node000001_Node000005" class="edge">
<title>Node1&#45;&gt;Node5</title>
<g id="a_edge4_Node000001_Node000005"><a xlink:title=" ">
<path fill="none" stroke="#63b8ff" d="M170.96,-109.98C190.03,-101.42 219.66,-88.11 241.55,-78.28"/>
<polygon fill="#63b8ff" stroke="#63b8ff" points="243.01,-81.46 250.7,-74.17 240.14,-75.07 243.01,-81.46"/>
</a>
</g>
</g>
<!-- Node3 -->
<g id="Node000003" class="node">
<title>Node3</title>
<g id="a_Node000003"><a xlink:title=" ">
<polygon fill="#e0e0e0" stroke="#999999" points="71,-19 15,-19 15,0 71,0 71,-19"/>
<text text-anchor="middle" x="43" y="-7" font-family="Helvetica,sans-Serif" font-size="10.00">stddef.h</text>
</a>
</g>
</g>
<!-- Node2&#45;&gt;Node3 -->
<g id="edge2_Node000002_Node000003" class="edge">
<title>Node2&#45;&gt;Node3</title>
<g id="a_edge2_Node000002_Node000003"><a xlink:title=" ">
<path fill="none" stroke="#63b8ff" d="M43,-54.75C43,-47.8 43,-37.85 43,-29.13"/>
<polygon fill="#63b8ff" stroke="#63b8ff" points="46.5,-29.09 43,-19.09 39.5,-29.09 46.5,-29.09"/>
</a>
</g>
</g>
</g>
</svg>
