<?xml version="1.0" encoding="UTF-8" standalone="no"?>
<!DOCTYPE svg PUBLIC "-//W3C//DTD SVG 1.1//EN"
 "http://www.w3.org/Graphics/SVG/1.1/DTD/svg11.dtd">
<!-- Generated by graphviz version 2.43.0 (0)
 -->
<!-- Title: include/splice/method.h Pages: 1 -->
<svg width="500pt" height="196pt"
 viewBox="0.00 0.00 500.00 196.00" xmlns="http://www.w3.org/2000/svg" xmlns:xlink="http://www.w3.org/1999/xlink">
<g id="graph0" class="graph" transform="scale(1 1) rotate(0) translate(4 192)">
<title>include/splice/method.h</title>
<polygon fill="white" stroke="transparent" points="-4,4 -4,-192 496,-192 496,4 -4,4"/>
<!-- Node1 -->
<g id="node1" class="node">
<title>Node1</title>
<g id="a_node1"><a xlink:title=" ">
<polygon fill="#bfbfbf" stroke="black" points="72.5,-168.5 72.5,-187.5 205.5,-187.5 205.5,-168.5 72.5,-168.5"/>
<text text-anchor="middle" x="139" y="-175.5" font-family="Helvetica,sans-Serif" font-size="10.00">include/splice/method.h</text>
</a>
</g>
</g>
<!-- Node2 -->
<g id="node2" class="node">
<title>Node2</title>
<g id="a_node2"><a xlink:href="method_8cpp.html" target="_top" xlink:title=" ">
<polygon fill="white" stroke="black" points="0,-112.5 0,-131.5 138,-131.5 138,-112.5 0,-112.5"/>
<text text-anchor="middle" x="69" y="-119.5" font-family="Helvetica,sans-Serif" font-size="10.00">src/P2/splice/method.cpp</text>
</a>
</g>
</g>
<!-- Node1&#45;&gt;Node2 -->
<g id="edge1" class="edge">
<title>Node1&#45;&gt;Node2</title>
<path fill="none" stroke="midnightblue" d="M119.69,-162.1C107.09,-152.38 91.07,-140.03 80.45,-131.83"/>
<polygon fill="midnightblue" stroke="midnightblue" points="117.7,-164.99 127.75,-168.32 121.97,-159.44 117.7,-164.99"/>
</g>
<!-- Node3 -->
<g id="node3" class="node">
<title>Node3</title>
<g id="a_node3"><a xlink:href="ref_8h.html" target="_top" xlink:title=" ">
<polygon fill="white" stroke="black" points="156,-112.5 156,-131.5 264,-131.5 264,-112.5 156,-112.5"/>
<text text-anchor="middle" x="210" y="-119.5" font-family="Helvetica,sans-Serif" font-size="10.00">include/splice/ref.h</text>
</a>
</g>
</g>
<!-- Node1&#45;&gt;Node3 -->
<g id="edge2" class="edge">
<title>Node1&#45;&gt;Node3</title>
<path fill="none" stroke="midnightblue" d="M158.59,-162.1C171.37,-152.38 187.61,-140.03 198.39,-131.83"/>
<polygon fill="midnightblue" stroke="midnightblue" points="156.25,-159.48 150.41,-168.32 160.49,-165.06 156.25,-159.48"/>
</g>
<!-- Node4 -->
<g id="node4" class="node">
<title>Node4</title>
<g id="a_node4"><a xlink:href="bif_8cpp.html" target="_top" xlink:title=" ">
<polygon fill="white" stroke="black" points="22.5,-56.5 22.5,-75.5 135.5,-75.5 135.5,-56.5 22.5,-56.5"/>
<text text-anchor="middle" x="79" y="-63.5" font-family="Helvetica,sans-Serif" font-size="10.00">src/P2/splice/bif.cpp</text>
</a>
</g>
</g>
<!-- Node3&#45;&gt;Node4 -->
<g id="edge3" class="edge">
<title>Node3&#45;&gt;Node4</title>
<path fill="none" stroke="midnightblue" d="M179.68,-108.5C155.12,-98.38 121.18,-84.39 99.66,-75.52"/>
<polygon fill="midnightblue" stroke="midnightblue" points="178.66,-111.87 189.24,-112.44 181.33,-105.4 178.66,-111.87"/>
</g>
<!-- Node5 -->
<g id="node5" class="node">
<title>Node5</title>
<g id="a_node5"><a xlink:href="ref_8cpp.html" target="_top" xlink:title=" ">
<polygon fill="white" stroke="black" points="153.5,-56.5 153.5,-75.5 266.5,-75.5 266.5,-56.5 153.5,-56.5"/>
<text text-anchor="middle" x="210" y="-63.5" font-family="Helvetica,sans-Serif" font-size="10.00">src/P2/splice/ref.cpp</text>
</a>
</g>
</g>
<!-- Node3&#45;&gt;Node5 -->
<g id="edge4" class="edge">
<title>Node3&#45;&gt;Node5</title>
<path fill="none" stroke="midnightblue" d="M210,-101.8C210,-92.91 210,-82.78 210,-75.75"/>
<polygon fill="midnightblue" stroke="midnightblue" points="206.5,-102.08 210,-112.08 213.5,-102.08 206.5,-102.08"/>
</g>
<!-- Node6 -->
<g id="node6" class="node">
<title>Node6</title>
<g id="a_node6"><a xlink:href="pair_8h.html" target="_top" xlink:title=" ">
<polygon fill="white" stroke="black" points="284.5,-56.5 284.5,-75.5 397.5,-75.5 397.5,-56.5 284.5,-56.5"/>
<text text-anchor="middle" x="341" y="-63.5" font-family="Helvetica,sans-Serif" font-size="10.00">include/splice/pair.h</text>
</a>
</g>
</g>
<!-- Node3&#45;&gt;Node6 -->
<g id="edge5" class="edge">
<title>Node3&#45;&gt;Node6</title>
<path fill="none" stroke="midnightblue" d="M240.32,-108.5C264.88,-98.38 298.82,-84.39 320.34,-75.52"/>
<polygon fill="midnightblue" stroke="midnightblue" points="238.67,-105.4 230.76,-112.44 241.34,-111.87 238.67,-105.4"/>
</g>
<!-- Node7 -->
<g id="node7" class="node">
<title>Node7</title>
<g id="a_node7"><a xlink:href="pair_8cpp.html" target="_top" xlink:title=" ">
<polygon fill="white" stroke="black" points="204.5,-0.5 204.5,-19.5 323.5,-19.5 323.5,-0.5 204.5,-0.5"/>
<text text-anchor="middle" x="264" y="-7.5" font-family="Helvetica,sans-Serif" font-size="10.00">src/P2/splice/pair.cpp</text>
</a>
</g>
</g>
<!-- Node6&#45;&gt;Node7 -->
<g id="edge6" class="edge">
<title>Node6&#45;&gt;Node7</title>
<path fill="none" stroke="midnightblue" d="M320.1,-50.34C306.09,-40.52 288.12,-27.91 276.34,-19.65"/>
<polygon fill="midnightblue" stroke="midnightblue" points="318.43,-53.45 328.63,-56.32 322.45,-47.72 318.43,-53.45"/>
</g>
<!-- Node8 -->
<g id="node8" class="node">
<title>Node8</title>
<g id="a_node8"><a xlink:href="spliceutils_8cpp.html" target="_top" xlink:title=" ">
<polygon fill="white" stroke="black" points="342,-0.5 342,-19.5 492,-19.5 492,-0.5 342,-0.5"/>
<text text-anchor="middle" x="417" y="-7.5" font-family="Helvetica,sans-Serif" font-size="10.00">src/P2/splice/spliceutils.cpp</text>
</a>
</g>
</g>
<!-- Node6&#45;&gt;Node8 -->
<g id="edge7" class="edge">
<title>Node6&#45;&gt;Node8</title>
<path fill="none" stroke="midnightblue" d="M361.58,-50.38C375.31,-40.62 392.93,-28.11 404.57,-19.83"/>
<polygon fill="midnightblue" stroke="midnightblue" points="359.34,-47.68 353.21,-56.32 363.39,-53.38 359.34,-47.68"/>
</g>
</g>
</svg>
