<?xml version="1.0" encoding="UTF-8" standalone="no"?>
<!DOCTYPE svg PUBLIC "-//W3C//DTD SVG 1.1//EN"
 "http://www.w3.org/Graphics/SVG/1.1/DTD/svg11.dtd">
<!-- Generated by graphviz version 2.43.0 (0)
 -->
<!-- Title: include/mpeg.h Pages: 1 -->
<svg width="346pt" height="357pt"
 viewBox="0.00 0.00 345.50 357.00" xmlns="http://www.w3.org/2000/svg" xmlns:xlink="http://www.w3.org/1999/xlink">

<svg id="main" version="1.1" xmlns="http://www.w3.org/2000/svg" xmlns:xlink="http://www.w3.org/1999/xlink" xml:space="preserve" onload="init(evt)">
<style type="text/css"><![CDATA[
.node, .edge {opacity: 0.7;}
.node.selected, .edge.selected {opacity: 1;}
.edge:hover path { stroke: red; }
.edge:hover polygon { stroke: red; fill: red; }
]]></style>
<script type="application/ecmascript" xlink:href="svg.min.js"/>
<svg id="graph" class="graph">
<g id="graph0" class="graph" transform="scale(1 1) rotate(0) translate(4 353)">
<title>include/mpeg.h</title>
<!-- Node1 -->
<g id="Node000001" class="node">
<title>Node1</title>
<g id="a_Node000001"><a xlink:title="Mpeg video.">
<polygon fill="#999999" stroke="#666666" points="92,-349 0,-349 0,-330 92,-330 92,-349"/>
<text text-anchor="middle" x="46" y="-337" font-family="Helvetica,sans-Serif" font-size="10.00">include/mpeg.h</text>
</a>
</g>
</g>
<!-- Node2 -->
<g id="Node000002" class="node">
<title>Node2</title>
<g id="a_Node000002"><a xlink:href="oid_8h.html" target="_top" xlink:title="Object IDs.">
<polygon fill="white" stroke="#666666" points="68.5,-19 27.5,-19 27.5,0 68.5,0 68.5,-19"/>
<text text-anchor="middle" x="48" y="-7" font-family="Helvetica,sans-Serif" font-size="10.00">oid.h</text>
</a>
</g>
</g>
<!-- Node1&#45;&gt;Node2 -->
<g id="edge1_Node000001_Node000002" class="edge">
<title>Node1&#45;&gt;Node2</title>
<g id="a_edge1_Node000001_Node000002"><a xlink:title=" ">
<path fill="none" stroke="#63b8ff" d="M39.7,-329.75C27.53,-311.98 2,-269.98 2,-230.5 2,-230.5 2,-230.5 2,-118.5 2,-84.04 22.07,-47.98 35.7,-27.47"/>
<polygon fill="#63b8ff" stroke="#63b8ff" points="38.6,-29.42 41.41,-19.2 32.85,-25.44 38.6,-29.42"/>
</a>
</g>
</g>
<!-- Node3 -->
<g id="Node000003" class="node">
<title>Node3</title>
<g id="a_Node000003"><a xlink:href="bas_8h.html" target="_top" xlink:title="Binary Async Stream.">
<polygon fill="white" stroke="#666666" points="165.5,-294 122.5,-294 122.5,-275 165.5,-275 165.5,-294"/>
<text text-anchor="middle" x="144" y="-282" font-family="Helvetica,sans-Serif" font-size="10.00">bas.h</text>
</a>
</g>
</g>
<!-- Node1&#45;&gt;Node3 -->
<g id="edge2_Node000001_Node000003" class="edge">
<title>Node1&#45;&gt;Node3</title>
<g id="a_edge2_Node000001_Node000003"><a xlink:title=" ">
<path fill="none" stroke="#63b8ff" d="M61.75,-329.98C77.23,-321.61 101.09,-308.7 119.14,-298.95"/>
<polygon fill="#63b8ff" stroke="#63b8ff" points="120.84,-302.01 127.97,-294.17 117.51,-295.85 120.84,-302.01"/>
</a>
</g>
</g>
<!-- Node4 -->
<g id="Node000004" class="node">
<title>Node4</title>
<g id="a_Node000004"><a xlink:href="util_8h.html" target="_top" xlink:title="Utility functions.">
<polygon fill="white" stroke="#666666" points="164.5,-239 123.5,-239 123.5,-220 164.5,-220 164.5,-239"/>
<text text-anchor="middle" x="144" y="-227" font-family="Helvetica,sans-Serif" font-size="10.00">util.h</text>
</a>
</g>
</g>
<!-- Node3&#45;&gt;Node4 -->
<g id="edge3_Node000003_Node000004" class="edge">
<title>Node3&#45;&gt;Node4</title>
<g id="a_edge3_Node000003_Node000004"><a xlink:title=" ">
<path fill="none" stroke="#63b8ff" d="M144,-274.75C144,-267.8 144,-257.85 144,-249.13"/>
<polygon fill="#63b8ff" stroke="#63b8ff" points="147.5,-249.09 144,-239.09 140.5,-249.09 147.5,-249.09"/>
</a>
</g>
</g>
<!-- Node14 -->
<g id="Node000014" class="node">
<title>Node14</title>
<g id="a_Node000014"><a xlink:href="cat_8h.html" target="_top" xlink:title="WAL catalog.">
<polygon fill="white" stroke="#666666" points="223.5,-239 182.5,-239 182.5,-220 223.5,-220 223.5,-239"/>
<text text-anchor="middle" x="203" y="-227" font-family="Helvetica,sans-Serif" font-size="10.00">cat.h</text>
</a>
</g>
</g>
<!-- Node3&#45;&gt;Node14 -->
<g id="edge18_Node000003_Node000014" class="edge">
<title>Node3&#45;&gt;Node14</title>
<g id="a_edge18_Node000003_Node000014"><a xlink:title=" ">
<path fill="none" stroke="#63b8ff" d="M153.48,-274.98C162.2,-267.15 175.34,-255.34 185.9,-245.86"/>
<polygon fill="#63b8ff" stroke="#63b8ff" points="188.25,-248.46 193.35,-239.17 183.57,-243.25 188.25,-248.46"/>
</a>
</g>
</g>
<!-- Node5 -->
<g id="Node000005" class="node">
<title>Node5</title>
<g id="a_Node000005"><a xlink:href="vec_8h.html" target="_top" xlink:title="Vector math.">
<polygon fill="white" stroke="#666666" points="241.5,-129 198.5,-129 198.5,-110 241.5,-110 241.5,-129"/>
<text text-anchor="middle" x="220" y="-117" font-family="Helvetica,sans-Serif" font-size="10.00">vec.h</text>
</a>
</g>
</g>
<!-- Node4&#45;&gt;Node5 -->
<g id="edge4_Node000004_Node000005" class="edge">
<title>Node4&#45;&gt;Node5</title>
<g id="a_edge4_Node000004_Node000005"><a xlink:title=" ">
<path fill="none" stroke="#63b8ff" d="M150.22,-219.66C162.86,-201.69 191.75,-160.64 208.12,-137.38"/>
<polygon fill="#63b8ff" stroke="#63b8ff" points="211.01,-139.35 213.91,-129.16 205.29,-135.32 211.01,-139.35"/>
</a>
</g>
</g>
<!-- Node6 -->
<g id="Node000006" class="node">
<title>Node6</title>
<g id="a_Node000006"><a xlink:href="mat_8h.html" target="_top" xlink:title="3x3 and 4x4 matrix types.">
<polygon fill="white" stroke="#666666" points="242.5,-184 197.5,-184 197.5,-165 242.5,-165 242.5,-184"/>
<text text-anchor="middle" x="220" y="-172" font-family="Helvetica,sans-Serif" font-size="10.00">mat.h</text>
</a>
</g>
</g>
<!-- Node4&#45;&gt;Node6 -->
<g id="edge5_Node000004_Node000006" class="edge">
<title>Node4&#45;&gt;Node6</title>
<g id="a_edge5_Node000004_Node000006"><a xlink:title=" ">
<path fill="none" stroke="#63b8ff" d="M156.21,-219.98C167.78,-211.92 185.38,-199.65 199.16,-190.03"/>
<polygon fill="#63b8ff" stroke="#63b8ff" points="201.37,-192.76 207.57,-184.17 197.36,-187.02 201.37,-192.76"/>
</a>
</g>
</g>
<!-- Node7 -->
<g id="Node000007" class="node">
<title>Node7</title>
<g id="a_Node000007"><a xlink:href="sm_8h.html" target="_top" xlink:title="Probabilistic finite state machines.">
<polygon fill="white" stroke="#666666" points="140.5,-184 99.5,-184 99.5,-165 140.5,-165 140.5,-184"/>
<text text-anchor="middle" x="120" y="-172" font-family="Helvetica,sans-Serif" font-size="10.00">sm.h</text>
</a>
</g>
</g>
<!-- Node4&#45;&gt;Node7 -->
<g id="edge7_Node000004_Node000007" class="edge">
<title>Node4&#45;&gt;Node7</title>
<g id="a_edge7_Node000004_Node000007"><a xlink:title=" ">
<path fill="none" stroke="#63b8ff" d="M140.04,-219.75C136.79,-212.57 132.08,-202.18 128.05,-193.27"/>
<polygon fill="#63b8ff" stroke="#63b8ff" points="131.2,-191.75 123.89,-184.09 124.83,-194.64 131.2,-191.75"/>
</a>
</g>
</g>
<!-- Node6&#45;&gt;Node5 -->
<g id="edge6_Node000006_Node000005" class="edge">
<title>Node6&#45;&gt;Node5</title>
<g id="a_edge6_Node000006_Node000005"><a xlink:title=" ">
<path fill="none" stroke="#63b8ff" d="M220,-164.75C220,-157.8 220,-147.85 220,-139.13"/>
<polygon fill="#63b8ff" stroke="#63b8ff" points="223.5,-139.09 220,-129.09 216.5,-139.09 223.5,-139.09"/>
</a>
</g>
</g>
<!-- Node8 -->
<g id="Node000008" class="node">
<title>Node8</title>
<g id="a_Node000008"><a xlink:href="dl_8h.html" target="_top" xlink:title="Doubly&#45;linked list.">
<polygon fill="white" stroke="#666666" points="65.5,-74 30.5,-74 30.5,-55 65.5,-55 65.5,-74"/>
<text text-anchor="middle" x="48" y="-62" font-family="Helvetica,sans-Serif" font-size="10.00">dl.h</text>
</a>
</g>
</g>
<!-- Node7&#45;&gt;Node8 -->
<g id="edge8_Node000007_Node000008" class="edge">
<title>Node7&#45;&gt;Node8</title>
<g id="a_edge8_Node000007_Node000008"><a xlink:title=" ">
<path fill="none" stroke="#63b8ff" d="M114.11,-164.66C102.18,-146.77 75,-106 59.46,-82.69"/>
<polygon fill="#63b8ff" stroke="#63b8ff" points="62.23,-80.54 53.77,-74.16 56.41,-84.42 62.23,-80.54"/>
</a>
</g>
</g>
<!-- Node9 -->
<g id="Node000009" class="node">
<title>Node9</title>
<g id="a_Node000009"><a xlink:href="mq_8h.html" target="_top" xlink:title="Message queue.">
<polygon fill="white" stroke="#666666" points="337.5,-74 296.5,-74 296.5,-55 337.5,-55 337.5,-74"/>
<text text-anchor="middle" x="317" y="-62" font-family="Helvetica,sans-Serif" font-size="10.00">mq.h</text>
</a>
</g>
</g>
<!-- Node7&#45;&gt;Node9 -->
<g id="edge10_Node000007_Node000009" class="edge">
<title>Node7&#45;&gt;Node9</title>
<g id="a_edge10_Node000007_Node000009"><a xlink:title=" ">
<path fill="none" stroke="#63b8ff" d="M127.34,-164.92C139.24,-151.49 164.06,-125.44 190,-110 206.58,-100.13 254.61,-84.48 286.62,-74.61"/>
<polygon fill="#63b8ff" stroke="#63b8ff" points="287.85,-77.9 296.39,-71.62 285.8,-71.2 287.85,-77.9"/>
</a>
</g>
</g>
<!-- Node10 -->
<g id="Node000010" class="node">
<title>Node10</title>
<g id="a_Node000010"><a xlink:href="lo_8h.html" target="_top" xlink:title="Level objects.">
<polygon fill="white" stroke="#666666" points="138.5,-129 103.5,-129 103.5,-110 138.5,-110 138.5,-129"/>
<text text-anchor="middle" x="121" y="-117" font-family="Helvetica,sans-Serif" font-size="10.00">lo.h</text>
</a>
</g>
</g>
<!-- Node7&#45;&gt;Node10 -->
<g id="edge11_Node000007_Node000010" class="edge">
<title>Node7&#45;&gt;Node10</title>
<g id="a_edge11_Node000007_Node000010"><a xlink:title=" ">
<path fill="none" stroke="#63b8ff" d="M120.17,-164.75C120.3,-157.8 120.48,-147.85 120.65,-139.13"/>
<polygon fill="#63b8ff" stroke="#63b8ff" points="124.15,-139.15 120.84,-129.09 117.15,-139.02 124.15,-139.15"/>
</a>
</g>
</g>
<!-- Node8&#45;&gt;Node2 -->
<g id="edge9_Node000008_Node000002" class="edge">
<title>Node8&#45;&gt;Node2</title>
<g id="a_edge9_Node000008_Node000002"><a xlink:title=" ">
<path fill="none" stroke="#63b8ff" d="M48,-54.75C48,-47.8 48,-37.85 48,-29.13"/>
<polygon fill="#63b8ff" stroke="#63b8ff" points="51.5,-29.09 48,-19.09 44.5,-29.09 51.5,-29.09"/>
</a>
</g>
</g>
<!-- Node10&#45;&gt;Node2 -->
<g id="edge14_Node000010_Node000002" class="edge">
<title>Node10&#45;&gt;Node2</title>
<g id="a_edge14_Node000010_Node000002"><a xlink:title=" ">
<path fill="none" stroke="#63b8ff" d="M115.03,-109.66C102.94,-91.77 75.38,-51 59.62,-27.69"/>
<polygon fill="#63b8ff" stroke="#63b8ff" points="62.35,-25.48 53.85,-19.16 56.55,-29.4 62.35,-25.48"/>
</a>
</g>
</g>
<!-- Node10&#45;&gt;Node8 -->
<g id="edge12_Node000010_Node000008" class="edge">
<title>Node10&#45;&gt;Node8</title>
<g id="a_edge12_Node000010_Node000008"><a xlink:title=" ">
<path fill="none" stroke="#63b8ff" d="M109.27,-109.98C98.27,-102 81.58,-89.88 68.4,-80.31"/>
<polygon fill="#63b8ff" stroke="#63b8ff" points="70.09,-77.21 59.94,-74.17 65.98,-82.88 70.09,-77.21"/>
</a>
</g>
</g>
<!-- Node10&#45;&gt;Node9 -->
<g id="edge13_Node000010_Node000009" class="edge">
<title>Node10&#45;&gt;Node9</title>
<g id="a_edge13_Node000010_Node000009"><a xlink:title=" ">
<path fill="none" stroke="#63b8ff" d="M138.95,-113.78C167.82,-106.16 226.58,-90.59 286.36,-74.14"/>
<polygon fill="#63b8ff" stroke="#63b8ff" points="287.64,-77.42 296.35,-71.39 285.78,-70.67 287.64,-77.42"/>
</a>
</g>
</g>
<!-- Node11 -->
<g id="Node000011" class="node">
<title>Node11</title>
<g id="a_Node000011"><a xlink:href="basic_8h.html" target="_top" xlink:title="Basic object.">
<polygon fill="white" stroke="#666666" points="173.5,-74 122.5,-74 122.5,-55 173.5,-55 173.5,-74"/>
<text text-anchor="middle" x="148" y="-62" font-family="Helvetica,sans-Serif" font-size="10.00">basic.h</text>
</a>
</g>
</g>
<!-- Node10&#45;&gt;Node11 -->
<g id="edge15_Node000010_Node000011" class="edge">
<title>Node10&#45;&gt;Node11</title>
<g id="a_edge15_Node000010_Node000011"><a xlink:title=" ">
<path fill="none" stroke="#63b8ff" d="M125.46,-109.75C129.12,-102.57 134.41,-92.18 138.95,-83.27"/>
<polygon fill="#63b8ff" stroke="#63b8ff" points="142.2,-84.59 143.62,-74.09 135.97,-81.41 142.2,-84.59"/>
</a>
</g>
</g>
<!-- Node13 -->
<g id="Node000013" class="node">
<title>Node13</title>
<g id="a_Node000013"><a xlink:href="frame_8h.html" target="_top" xlink:title=" ">
<polygon fill="white" stroke="#666666" points="278,-74 192,-74 192,-55 278,-55 278,-74"/>
<text text-anchor="middle" x="235" y="-62" font-family="Helvetica,sans-Serif" font-size="10.00">splice/frame.h</text>
</a>
</g>
</g>
<!-- Node10&#45;&gt;Node13 -->
<g id="edge17_Node000010_Node000013" class="edge">
<title>Node10&#45;&gt;Node13</title>
<g id="a_edge17_Node000010_Node000013"><a xlink:title=" ">
<path fill="none" stroke="#63b8ff" d="M138.81,-110.22C157.17,-101.69 186.03,-88.27 207.35,-78.35"/>
<polygon fill="#63b8ff" stroke="#63b8ff" points="208.96,-81.46 216.56,-74.07 206.01,-75.12 208.96,-81.46"/>
</a>
</g>
</g>
<!-- Node12 -->
<g id="Node000012" class="node">
<title>Node12</title>
<g id="a_Node000012"><a xlink:href="sidebag_8h.html" target="_top" xlink:title="Sidebag for splice.">
<polygon fill="white" stroke="#666666" points="195.5,-19 100.5,-19 100.5,0 195.5,0 195.5,-19"/>
<text text-anchor="middle" x="148" y="-7" font-family="Helvetica,sans-Serif" font-size="10.00">splice/sidebag.h</text>
</a>
</g>
</g>
<!-- Node11&#45;&gt;Node12 -->
<g id="edge16_Node000011_Node000012" class="edge">
<title>Node11&#45;&gt;Node12</title>
<g id="a_edge16_Node000011_Node000012"><a xlink:title=" ">
<path fill="none" stroke="#63b8ff" d="M148,-54.75C148,-47.8 148,-37.85 148,-29.13"/>
<polygon fill="#63b8ff" stroke="#63b8ff" points="151.5,-29.09 148,-19.09 144.5,-29.09 151.5,-29.09"/>
</a>
</g>
</g>
</g>
</svg>
</svg>

<style type='text/css'>
<![CDATA[
[data-mouse-over-selected='false'] { opacity: 0.7; }
[data-mouse-over-selected='true']  { opacity: 1.0; }
]]>
</style>
<script type="application/ecmascript"><![CDATA[
document.addEventListener('DOMContentLoaded', (event) => {
  highlightEdges();
  highlightAdjacentNodes();
});
]]></script>
</svg>
