<?xml version="1.0" encoding="UTF-8" standalone="no"?>
<!DOCTYPE svg PUBLIC "-//W3C//DTD SVG 1.1//EN"
 "http://www.w3.org/Graphics/SVG/1.1/DTD/svg11.dtd">
<!-- Generated by graphviz version 2.43.0 (0)
 -->
<!-- Title: include/mq.h Pages: 1 -->
<svg width="1909pt" height="588pt"
 viewBox="0.00 0.00 1908.50 588.00" xmlns="http://www.w3.org/2000/svg" xmlns:xlink="http://www.w3.org/1999/xlink">
<g id="graph0" class="graph" transform="scale(1 1) rotate(0) translate(4 584)">
<title>include/mq.h</title>
<polygon fill="white" stroke="transparent" points="-4,4 -4,-584 1904.5,-584 1904.5,4 -4,4"/>
<!-- Node1 -->
<g id="node1" class="node">
<title>Node1</title>
<g id="a_node1"><a xlink:title="Message queue(?).">
<polygon fill="#bfbfbf" stroke="black" points="32.5,-560.5 32.5,-579.5 112.5,-579.5 112.5,-560.5 32.5,-560.5"/>
<text text-anchor="middle" x="72.5" y="-567.5" font-family="Helvetica,sans-Serif" font-size="10.00">include/mq.h</text>
</a>
</g>
</g>
<!-- Node2 -->
<g id="node2" class="node">
<title>Node2</title>
<g id="a_node2"><a xlink:href="lo_8h.html" target="_top" xlink:title="Level objects.">
<polygon fill="white" stroke="black" points="199,-504.5 199,-523.5 272,-523.5 272,-504.5 199,-504.5"/>
<text text-anchor="middle" x="235.5" y="-511.5" font-family="Helvetica,sans-Serif" font-size="10.00">include/lo.h</text>
</a>
</g>
</g>
<!-- Node1&#45;&gt;Node2 -->
<g id="edge1" class="edge">
<title>Node1&#45;&gt;Node2</title>
<path fill="none" stroke="midnightblue" d="M108.2,-557.17C138.9,-547 182.42,-532.59 209.79,-523.52"/>
<polygon fill="midnightblue" stroke="midnightblue" points="106.72,-553.98 98.33,-560.44 108.92,-560.62 106.72,-553.98"/>
</g>
<!-- Node58 -->
<g id="node50" class="node">
<title>Node58</title>
<g id="a_node50"><a xlink:href="sm_8h.html" target="_top" xlink:title="State machines.">
<polygon fill="white" stroke="black" points="327,-336.5 327,-355.5 406,-355.5 406,-336.5 327,-336.5"/>
<text text-anchor="middle" x="366.5" y="-343.5" font-family="Helvetica,sans-Serif" font-size="10.00">include/sm.h</text>
</a>
</g>
</g>
<!-- Node1&#45;&gt;Node58 -->
<g id="edge80" class="edge">
<title>Node1&#45;&gt;Node58</title>
<path fill="none" stroke="midnightblue" d="M92.16,-554.15C148.71,-511.45 310.55,-389.25 355.05,-355.64"/>
<polygon fill="midnightblue" stroke="midnightblue" points="89.9,-551.48 84.03,-560.3 94.11,-557.06 89.9,-551.48"/>
</g>
<!-- Node3 -->
<g id="node3" class="node">
<title>Node3</title>
<g id="a_node3"><a xlink:href="alo_8h.html" target="_top" xlink:title=" ">
<polygon fill="white" stroke="black" points="1421,-448.5 1421,-467.5 1500,-467.5 1500,-448.5 1421,-448.5"/>
<text text-anchor="middle" x="1460.5" y="-455.5" font-family="Helvetica,sans-Serif" font-size="10.00">include/alo.h</text>
</a>
</g>
</g>
<!-- Node2&#45;&gt;Node3 -->
<g id="edge2" class="edge">
<title>Node2&#45;&gt;Node3</title>
<path fill="none" stroke="midnightblue" d="M282.17,-510.94C478.87,-502.27 1238.51,-468.79 1420.95,-460.74"/>
<polygon fill="midnightblue" stroke="midnightblue" points="282,-507.45 272.16,-511.38 282.31,-514.44 282,-507.45"/>
</g>
<!-- Node12 -->
<g id="node12" class="node">
<title>Node12</title>
<g id="a_node12"><a xlink:href="cm_8h.html" target="_top" xlink:title="Game camera.">
<polygon fill="white" stroke="black" points="69,-168.5 69,-187.5 148,-187.5 148,-168.5 69,-168.5"/>
<text text-anchor="middle" x="108.5" y="-175.5" font-family="Helvetica,sans-Serif" font-size="10.00">include/cm.h</text>
</a>
</g>
</g>
<!-- Node2&#45;&gt;Node12 -->
<g id="edge79" class="edge">
<title>Node2&#45;&gt;Node12</title>
<path fill="none" stroke="midnightblue" d="M188.78,-502.19C120.77,-483.36 2.5,-437.59 2.5,-347 2.5,-347 2.5,-347 2.5,-289 2.5,-239.14 59.67,-203.19 90.04,-187.61"/>
<polygon fill="midnightblue" stroke="midnightblue" points="188.27,-505.67 198.84,-504.88 190.08,-498.91 188.27,-505.67"/>
</g>
<!-- Node57 -->
<g id="node49" class="node">
<title>Node57</title>
<g id="a_node49"><a xlink:href="anim_8h.html" target="_top" xlink:title="Animation.">
<polygon fill="white" stroke="black" points="322,-392.5 322,-411.5 411,-411.5 411,-392.5 322,-392.5"/>
<text text-anchor="middle" x="366.5" y="-399.5" font-family="Helvetica,sans-Serif" font-size="10.00">include/anim.h</text>
</a>
</g>
</g>
<!-- Node2&#45;&gt;Node57 -->
<g id="edge73" class="edge">
<title>Node2&#45;&gt;Node57</title>
<path fill="none" stroke="midnightblue" d="M253.58,-497.82C281.48,-474.39 334.12,-430.19 356.27,-411.59"/>
<polygon fill="midnightblue" stroke="midnightblue" points="251.19,-495.26 245.78,-504.37 255.69,-500.62 251.19,-495.26"/>
</g>
<!-- Node4 -->
<g id="node4" class="node">
<title>Node4</title>
<g id="a_node4"><a xlink:href="coin_8h.html" target="_top" xlink:title="Coins, keys, and other collectibles.">
<polygon fill="white" stroke="black" points="1738.5,-168.5 1738.5,-187.5 1822.5,-187.5 1822.5,-168.5 1738.5,-168.5"/>
<text text-anchor="middle" x="1780.5" y="-175.5" font-family="Helvetica,sans-Serif" font-size="10.00">include/coin.h</text>
</a>
</g>
</g>
<!-- Node3&#45;&gt;Node4 -->
<g id="edge3" class="edge">
<title>Node3&#45;&gt;Node4</title>
<path fill="none" stroke="midnightblue" d="M1510.65,-455.01C1626.04,-449.08 1900.5,-426.6 1900.5,-347 1900.5,-347 1900.5,-347 1900.5,-289 1900.5,-236.57 1837.49,-202.37 1802.79,-187.5"/>
<polygon fill="midnightblue" stroke="midnightblue" points="1510.14,-451.53 1500.32,-455.52 1510.48,-458.53 1510.14,-451.53"/>
</g>
<!-- Node6 -->
<g id="node6" class="node">
<title>Node6</title>
<g id="a_node6"><a xlink:href="find_8h.html" target="_top" xlink:title="Find objects in the SW.">
<polygon fill="white" stroke="black" points="1565.5,-336.5 1565.5,-355.5 1647.5,-355.5 1647.5,-336.5 1565.5,-336.5"/>
<text text-anchor="middle" x="1606.5" y="-343.5" font-family="Helvetica,sans-Serif" font-size="10.00">include/find.h</text>
</a>
</g>
</g>
<!-- Node3&#45;&gt;Node6 -->
<g id="edge5" class="edge">
<title>Node3&#45;&gt;Node6</title>
<path fill="none" stroke="midnightblue" d="M1509.88,-450.53C1536.21,-444.64 1567.27,-433.4 1587.5,-412 1602.36,-396.28 1605.67,-369.58 1606.36,-355.8"/>
<polygon fill="midnightblue" stroke="midnightblue" points="1509.15,-447.11 1500.05,-452.54 1510.55,-453.97 1509.15,-447.11"/>
</g>
<!-- Node8 -->
<g id="node8" class="node">
<title>Node8</title>
<g id="a_node8"><a xlink:href="proxy_8h.html" target="_top" xlink:title=" ">
<polygon fill="white" stroke="black" points="1488.5,-392.5 1488.5,-411.5 1578.5,-411.5 1578.5,-392.5 1488.5,-392.5"/>
<text text-anchor="middle" x="1533.5" y="-399.5" font-family="Helvetica,sans-Serif" font-size="10.00">include/proxy.h</text>
</a>
</g>
</g>
<!-- Node3&#45;&gt;Node8 -->
<g id="edge7" class="edge">
<title>Node3&#45;&gt;Node8</title>
<path fill="none" stroke="midnightblue" d="M1480.64,-442.1C1493.78,-432.38 1510.48,-420.03 1521.56,-411.83"/>
<polygon fill="midnightblue" stroke="midnightblue" points="1478.19,-439.56 1472.23,-448.32 1482.35,-445.19 1478.19,-439.56"/>
</g>
<!-- Node9 -->
<g id="node9" class="node">
<title>Node9</title>
<g id="a_node9"><a xlink:href="xform_8h.html" target="_top" xlink:title="Transform.">
<polygon fill="white" stroke="black" points="1414,-224.5 1414,-243.5 1507,-243.5 1507,-224.5 1414,-224.5"/>
<text text-anchor="middle" x="1460.5" y="-231.5" font-family="Helvetica,sans-Serif" font-size="10.00">include/xform.h</text>
</a>
</g>
</g>
<!-- Node3&#45;&gt;Node9 -->
<g id="edge72" class="edge">
<title>Node3&#45;&gt;Node9</title>
<path fill="none" stroke="midnightblue" d="M1460.5,-438.3C1460.5,-392.64 1460.5,-276.85 1460.5,-243.88"/>
<polygon fill="midnightblue" stroke="midnightblue" points="1457,-438.3 1460.5,-448.3 1464,-438.3 1457,-438.3"/>
</g>
<!-- Node21 -->
<g id="node21" class="node">
<title>Node21</title>
<g id="a_node21"><a xlink:href="so_8h.html" target="_top" xlink:title="Scene objects.">
<polygon fill="white" stroke="black" points="1283,-392.5 1283,-411.5 1358,-411.5 1358,-392.5 1283,-392.5"/>
<text text-anchor="middle" x="1320.5" y="-399.5" font-family="Helvetica,sans-Serif" font-size="10.00">include/so.h</text>
</a>
</g>
</g>
<!-- Node3&#45;&gt;Node21 -->
<g id="edge22" class="edge">
<title>Node3&#45;&gt;Node21</title>
<path fill="none" stroke="midnightblue" d="M1428.8,-444.77C1402.5,-434.63 1365.78,-420.47 1342.58,-411.52"/>
<polygon fill="midnightblue" stroke="midnightblue" points="1427.73,-448.11 1438.32,-448.44 1430.25,-441.58 1427.73,-448.11"/>
</g>
<!-- Node53 -->
<g id="node45" class="node">
<title>Node53</title>
<g id="a_node45"><a xlink:href="sound_8h.html" target="_top" xlink:title="Sound playback.">
<polygon fill="white" stroke="black" points="69,-224.5 69,-243.5 162,-243.5 162,-224.5 69,-224.5"/>
<text text-anchor="middle" x="115.5" y="-231.5" font-family="Helvetica,sans-Serif" font-size="10.00">include/sound.h</text>
</a>
</g>
</g>
<!-- Node3&#45;&gt;Node53 -->
<g id="edge71" class="edge">
<title>Node3&#45;&gt;Node53</title>
<path fill="none" stroke="midnightblue" d="M1410.6,-457.03C1203.16,-456.9 415.08,-453.64 312.5,-412 220.48,-374.65 143.5,-274.32 121.69,-243.88"/>
<polygon fill="midnightblue" stroke="midnightblue" points="1410.88,-460.53 1420.89,-457.04 1410.89,-453.53 1410.88,-460.53"/>
</g>
<!-- Node5 -->
<g id="node5" class="node">
<title>Node5</title>
<g id="a_node5"><a xlink:href="coin_8c.html" target="_top" xlink:title=" ">
<polygon fill="white" stroke="black" points="1742,-56.5 1742,-75.5 1819,-75.5 1819,-56.5 1742,-56.5"/>
<text text-anchor="middle" x="1780.5" y="-63.5" font-family="Helvetica,sans-Serif" font-size="10.00">src/P2/coin.c</text>
</a>
</g>
</g>
<!-- Node4&#45;&gt;Node5 -->
<g id="edge4" class="edge">
<title>Node4&#45;&gt;Node5</title>
<path fill="none" stroke="midnightblue" d="M1780.5,-158.35C1780.5,-134.25 1780.5,-93.31 1780.5,-75.59"/>
<polygon fill="midnightblue" stroke="midnightblue" points="1777,-158.37 1780.5,-168.37 1784,-158.37 1777,-158.37"/>
</g>
<!-- Node7 -->
<g id="node7" class="node">
<title>Node7</title>
<g id="a_node7"><a xlink:href="find_8c.html" target="_top" xlink:title=" ">
<polygon fill="white" stroke="black" points="1797,-280.5 1797,-299.5 1872,-299.5 1872,-280.5 1797,-280.5"/>
<text text-anchor="middle" x="1834.5" y="-287.5" font-family="Helvetica,sans-Serif" font-size="10.00">src/P2/find.c</text>
</a>
</g>
</g>
<!-- Node6&#45;&gt;Node7 -->
<g id="edge6" class="edge">
<title>Node6&#45;&gt;Node7</title>
<path fill="none" stroke="midnightblue" d="M1652.57,-334.09C1695.65,-323.89 1759.09,-308.86 1798.54,-299.52"/>
<polygon fill="midnightblue" stroke="midnightblue" points="1651.55,-330.73 1642.63,-336.44 1653.16,-337.54 1651.55,-330.73"/>
</g>
<!-- Node8&#45;&gt;Node9 -->
<g id="edge8" class="edge">
<title>Node8&#45;&gt;Node9</title>
<path fill="none" stroke="midnightblue" d="M1525.52,-382.86C1509.86,-347.25 1475.65,-269.45 1464.27,-243.57"/>
<polygon fill="midnightblue" stroke="midnightblue" points="1522.35,-384.33 1529.58,-392.08 1528.75,-381.51 1522.35,-384.33"/>
</g>
<!-- Node9&#45;&gt;Node4 -->
<g id="edge15" class="edge">
<title>Node9&#45;&gt;Node4</title>
<path fill="none" stroke="midnightblue" d="M1517.24,-223.43C1580.55,-212.74 1681.53,-195.7 1738.25,-186.13"/>
<polygon fill="midnightblue" stroke="midnightblue" points="1516.31,-220.03 1507.03,-225.15 1517.47,-226.94 1516.31,-220.03"/>
</g>
<!-- Node10 -->
<g id="node10" class="node">
<title>Node10</title>
<g id="a_node10"><a xlink:href="xform1_8c.html" target="_top" xlink:title=" ">
<polygon fill="white" stroke="black" points="1480.5,-168.5 1480.5,-187.5 1572.5,-187.5 1572.5,-168.5 1480.5,-168.5"/>
<text text-anchor="middle" x="1526.5" y="-175.5" font-family="Helvetica,sans-Serif" font-size="10.00">src/P2/xform1.c</text>
</a>
</g>
</g>
<!-- Node9&#45;&gt;Node10 -->
<g id="edge9" class="edge">
<title>Node9&#45;&gt;Node10</title>
<path fill="none" stroke="midnightblue" d="M1479.05,-217.82C1490.88,-208.15 1505.79,-195.95 1515.7,-187.83"/>
<polygon fill="midnightblue" stroke="midnightblue" points="1476.63,-215.28 1471.1,-224.32 1481.06,-220.7 1476.63,-215.28"/>
</g>
<!-- Node11 -->
<g id="node11" class="node">
<title>Node11</title>
<g id="a_node11"><a xlink:href="xform2_8c.html" target="_top" xlink:title=" ">
<polygon fill="white" stroke="black" points="1590.5,-168.5 1590.5,-187.5 1682.5,-187.5 1682.5,-168.5 1590.5,-168.5"/>
<text text-anchor="middle" x="1636.5" y="-175.5" font-family="Helvetica,sans-Serif" font-size="10.00">src/P2/xform2.c</text>
</a>
</g>
</g>
<!-- Node9&#45;&gt;Node11 -->
<g id="edge10" class="edge">
<title>Node9&#45;&gt;Node11</title>
<path fill="none" stroke="midnightblue" d="M1498.19,-221.44C1531.37,-211.26 1578.93,-196.66 1608.74,-187.52"/>
<polygon fill="midnightblue" stroke="midnightblue" points="1496.92,-218.16 1488.39,-224.44 1498.97,-224.86 1496.92,-218.16"/>
</g>
<!-- Node9&#45;&gt;Node12 -->
<g id="edge11" class="edge">
<title>Node9&#45;&gt;Node12</title>
<path fill="none" stroke="midnightblue" d="M1403.73,-228.69C1380.43,-227.03 1353.18,-225.25 1328.5,-224 842.19,-199.43 719.76,-213.49 233.5,-188 204.93,-186.5 172.73,-184.17 148.16,-182.25"/>
<polygon fill="midnightblue" stroke="midnightblue" points="1403.56,-232.19 1413.79,-229.41 1404.07,-225.2 1403.56,-232.19"/>
</g>
<!-- Node16 -->
<g id="node16" class="node">
<title>Node16</title>
<g id="a_node16"><a xlink:href="vol_8h.html" target="_top" xlink:title="Volume object.">
<polygon fill="white" stroke="black" points="1383,-168.5 1383,-187.5 1462,-187.5 1462,-168.5 1383,-168.5"/>
<text text-anchor="middle" x="1422.5" y="-175.5" font-family="Helvetica,sans-Serif" font-size="10.00">include/vol.h</text>
</a>
</g>
</g>
<!-- Node9&#45;&gt;Node16 -->
<g id="edge16" class="edge">
<title>Node9&#45;&gt;Node16</title>
<path fill="none" stroke="midnightblue" d="M1448.44,-215.86C1441.86,-206.5 1433.99,-195.33 1428.66,-187.75"/>
<polygon fill="midnightblue" stroke="midnightblue" points="1445.61,-217.92 1454.23,-224.08 1451.33,-213.89 1445.61,-217.92"/>
</g>
<!-- Node13 -->
<g id="node13" class="node">
<title>Node13</title>
<g id="a_node13"><a xlink:href="cm_8c.html" target="_top" xlink:title=" ">
<polygon fill="white" stroke="black" points="111.5,-112.5 111.5,-131.5 183.5,-131.5 183.5,-112.5 111.5,-112.5"/>
<text text-anchor="middle" x="147.5" y="-119.5" font-family="Helvetica,sans-Serif" font-size="10.00">src/P2/cm.c</text>
</a>
</g>
</g>
<!-- Node12&#45;&gt;Node13 -->
<g id="edge12" class="edge">
<title>Node12&#45;&gt;Node13</title>
<path fill="none" stroke="midnightblue" d="M120.88,-159.86C127.64,-150.5 135.71,-139.33 141.18,-131.75"/>
<polygon fill="midnightblue" stroke="midnightblue" points="117.96,-157.93 114.94,-168.08 123.63,-162.03 117.96,-157.93"/>
</g>
<!-- Node14 -->
<g id="node14" class="node">
<title>Node14</title>
<g id="a_node14"><a xlink:href="flash_8h.html" target="_top" xlink:title="Flash (might be flash animation, or literal screen flashes).">
<polygon fill="white" stroke="black" points="0,-112.5 0,-131.5 87,-131.5 87,-112.5 0,-112.5"/>
<text text-anchor="middle" x="43.5" y="-119.5" font-family="Helvetica,sans-Serif" font-size="10.00">include/flash.h</text>
</a>
</g>
</g>
<!-- Node12&#45;&gt;Node14 -->
<g id="edge13" class="edge">
<title>Node12&#45;&gt;Node14</title>
<path fill="none" stroke="midnightblue" d="M90.23,-161.82C78.58,-152.15 63.9,-139.95 54.13,-131.83"/>
<polygon fill="midnightblue" stroke="midnightblue" points="88.13,-164.63 98.06,-168.32 92.6,-159.24 88.13,-164.63"/>
</g>
<!-- Node15 -->
<g id="node15" class="node">
<title>Node15</title>
<g id="a_node15"><a xlink:href="flash_8c.html" target="_top" xlink:title=" ">
<polygon fill="white" stroke="black" points="3.5,-56.5 3.5,-75.5 83.5,-75.5 83.5,-56.5 3.5,-56.5"/>
<text text-anchor="middle" x="43.5" y="-63.5" font-family="Helvetica,sans-Serif" font-size="10.00">src/P2/flash.c</text>
</a>
</g>
</g>
<!-- Node14&#45;&gt;Node15 -->
<g id="edge14" class="edge">
<title>Node14&#45;&gt;Node15</title>
<path fill="none" stroke="midnightblue" d="M43.5,-101.8C43.5,-92.91 43.5,-82.78 43.5,-75.75"/>
<polygon fill="midnightblue" stroke="midnightblue" points="40,-102.08 43.5,-112.08 47,-102.08 40,-102.08"/>
</g>
<!-- Node17 -->
<g id="node17" class="node">
<title>Node17</title>
<g id="a_node17"><a xlink:href="chkpnt_8h.html" target="_top" xlink:title="Checkpoint system.">
<polygon fill="white" stroke="black" points="1374,-112.5 1374,-131.5 1471,-131.5 1471,-112.5 1374,-112.5"/>
<text text-anchor="middle" x="1422.5" y="-119.5" font-family="Helvetica,sans-Serif" font-size="10.00">include/chkpnt.h</text>
</a>
</g>
</g>
<!-- Node16&#45;&gt;Node17 -->
<g id="edge17" class="edge">
<title>Node16&#45;&gt;Node17</title>
<path fill="none" stroke="midnightblue" d="M1422.5,-157.8C1422.5,-148.91 1422.5,-138.78 1422.5,-131.75"/>
<polygon fill="midnightblue" stroke="midnightblue" points="1419,-158.08 1422.5,-168.08 1426,-158.08 1419,-158.08"/>
</g>
<!-- Node17&#45;&gt;Node5 -->
<g id="edge19" class="edge">
<title>Node17&#45;&gt;Node5</title>
<path fill="none" stroke="midnightblue" d="M1481.2,-112.15C1554.86,-101.03 1679.12,-82.29 1741.83,-72.83"/>
<polygon fill="midnightblue" stroke="midnightblue" points="1480.52,-108.71 1471.15,-113.66 1481.56,-115.63 1480.52,-108.71"/>
</g>
<!-- Node18 -->
<g id="node18" class="node">
<title>Node18</title>
<g id="a_node18"><a xlink:href="chkpnt_8c.html" target="_top" xlink:title=" ">
<polygon fill="white" stroke="black" points="1377.5,-56.5 1377.5,-75.5 1467.5,-75.5 1467.5,-56.5 1377.5,-56.5"/>
<text text-anchor="middle" x="1422.5" y="-63.5" font-family="Helvetica,sans-Serif" font-size="10.00">src/P2/chkpnt.c</text>
</a>
</g>
</g>
<!-- Node17&#45;&gt;Node18 -->
<g id="edge18" class="edge">
<title>Node17&#45;&gt;Node18</title>
<path fill="none" stroke="midnightblue" d="M1422.5,-101.8C1422.5,-92.91 1422.5,-82.78 1422.5,-75.75"/>
<polygon fill="midnightblue" stroke="midnightblue" points="1419,-102.08 1422.5,-112.08 1426,-102.08 1419,-102.08"/>
</g>
<!-- Node19 -->
<g id="node19" class="node">
<title>Node19</title>
<g id="a_node19"><a xlink:href="difficulty_8h.html" target="_top" xlink:title="Dynamic difficulty system.">
<polygon fill="white" stroke="black" points="708,-56.5 708,-75.5 813,-75.5 813,-56.5 708,-56.5"/>
<text text-anchor="middle" x="760.5" y="-63.5" font-family="Helvetica,sans-Serif" font-size="10.00">include/difficulty.h</text>
</a>
</g>
</g>
<!-- Node17&#45;&gt;Node19 -->
<g id="edge20" class="edge">
<title>Node17&#45;&gt;Node19</title>
<path fill="none" stroke="midnightblue" d="M1363.7,-114.94C1353.31,-113.92 1342.59,-112.9 1332.5,-112 1141.51,-94.94 914.32,-78.09 813.37,-70.78"/>
<polygon fill="midnightblue" stroke="midnightblue" points="1363.64,-118.45 1373.94,-115.95 1364.34,-111.48 1363.64,-118.45"/>
</g>
<!-- Node20 -->
<g id="node20" class="node">
<title>Node20</title>
<g id="a_node20"><a xlink:href="difficulty_8c.html" target="_top" xlink:title=" ">
<polygon fill="white" stroke="black" points="711.5,-0.5 711.5,-19.5 809.5,-19.5 809.5,-0.5 711.5,-0.5"/>
<text text-anchor="middle" x="760.5" y="-7.5" font-family="Helvetica,sans-Serif" font-size="10.00">src/P2/difficulty.c</text>
</a>
</g>
</g>
<!-- Node19&#45;&gt;Node20 -->
<g id="edge21" class="edge">
<title>Node19&#45;&gt;Node20</title>
<path fill="none" stroke="midnightblue" d="M760.5,-45.8C760.5,-36.91 760.5,-26.78 760.5,-19.75"/>
<polygon fill="midnightblue" stroke="midnightblue" points="757,-46.08 760.5,-56.08 764,-46.08 757,-46.08"/>
</g>
<!-- Node21&#45;&gt;Node6 -->
<g id="edge23" class="edge">
<title>Node21&#45;&gt;Node6</title>
<path fill="none" stroke="midnightblue" d="M1368.06,-392.02C1423.23,-381.6 1513.28,-364.6 1565.49,-354.74"/>
<polygon fill="midnightblue" stroke="midnightblue" points="1367.36,-388.59 1358.18,-393.88 1368.66,-395.47 1367.36,-388.59"/>
</g>
<!-- Node22 -->
<g id="node22" class="node">
<title>Node22</title>
<g id="a_node22"><a xlink:href="po_8h.html" target="_top" xlink:title="Player object(?).">
<polygon fill="white" stroke="black" points="1034.5,-336.5 1034.5,-355.5 1110.5,-355.5 1110.5,-336.5 1034.5,-336.5"/>
<text text-anchor="middle" x="1072.5" y="-343.5" font-family="Helvetica,sans-Serif" font-size="10.00">include/po.h</text>
</a>
</g>
</g>
<!-- Node21&#45;&gt;Node22 -->
<g id="edge24" class="edge">
<title>Node21&#45;&gt;Node22</title>
<path fill="none" stroke="midnightblue" d="M1272.84,-390.62C1225.58,-380.33 1154.1,-364.77 1110.52,-355.28"/>
<polygon fill="midnightblue" stroke="midnightblue" points="1272.32,-394.09 1282.83,-392.8 1273.81,-387.25 1272.32,-394.09"/>
</g>
<!-- Node31 -->
<g id="node30" class="node">
<title>Node31</title>
<g id="a_node30"><a xlink:href="vec_8h.html" target="_top" xlink:title="Vector math functions.">
<polygon fill="white" stroke="black" points="1206,-336.5 1206,-355.5 1287,-355.5 1287,-336.5 1206,-336.5"/>
<text text-anchor="middle" x="1246.5" y="-343.5" font-family="Helvetica,sans-Serif" font-size="10.00">include/vec.h</text>
</a>
</g>
</g>
<!-- Node21&#45;&gt;Node31 -->
<g id="edge34" class="edge">
<title>Node21&#45;&gt;Node31</title>
<path fill="none" stroke="midnightblue" d="M1300.47,-386.38C1287.09,-376.62 1269.94,-364.11 1258.61,-355.83"/>
<polygon fill="midnightblue" stroke="midnightblue" points="1298.47,-389.26 1308.61,-392.32 1302.6,-383.6 1298.47,-389.26"/>
</g>
<!-- Node23 -->
<g id="node23" class="node">
<title>Node23</title>
<g id="a_node23"><a xlink:href="step_8h.html" target="_top" xlink:title=" ">
<polygon fill="white" stroke="black" points="958,-280.5 958,-299.5 1043,-299.5 1043,-280.5 958,-280.5"/>
<text text-anchor="middle" x="1000.5" y="-287.5" font-family="Helvetica,sans-Serif" font-size="10.00">include/step.h</text>
</a>
</g>
</g>
<!-- Node22&#45;&gt;Node23 -->
<g id="edge25" class="edge">
<title>Node22&#45;&gt;Node23</title>
<path fill="none" stroke="midnightblue" d="M1052.63,-330.1C1039.68,-320.38 1023.2,-308.03 1012.28,-299.83"/>
<polygon fill="midnightblue" stroke="midnightblue" points="1050.83,-333.12 1060.93,-336.32 1055.03,-327.52 1050.83,-333.12"/>
</g>
<!-- Node24 -->
<g id="node24" class="node">
<title>Node24</title>
<g id="a_node24"><a xlink:href="jt_8h.html" target="_top" xlink:title="Sly entity.">
<polygon fill="white" stroke="black" points="963,-224.5 963,-243.5 1034,-243.5 1034,-224.5 963,-224.5"/>
<text text-anchor="middle" x="998.5" y="-231.5" font-family="Helvetica,sans-Serif" font-size="10.00">include/jt.h</text>
</a>
</g>
</g>
<!-- Node23&#45;&gt;Node24 -->
<g id="edge26" class="edge">
<title>Node23&#45;&gt;Node24</title>
<path fill="none" stroke="midnightblue" d="M999.79,-269.8C999.46,-260.91 999.08,-250.78 998.82,-243.75"/>
<polygon fill="midnightblue" stroke="midnightblue" points="996.3,-270.22 1000.17,-280.08 1003.3,-269.96 996.3,-270.22"/>
</g>
<!-- Node25 -->
<g id="node25" class="node">
<title>Node25</title>
<g id="a_node25"><a xlink:href="jt1_8c.html" target="_top" xlink:title=" ">
<polygon fill="white" stroke="black" points="1142.5,-168.5 1142.5,-187.5 1212.5,-187.5 1212.5,-168.5 1142.5,-168.5"/>
<text text-anchor="middle" x="1177.5" y="-175.5" font-family="Helvetica,sans-Serif" font-size="10.00">src/P2/jt1.c</text>
</a>
</g>
</g>
<!-- Node24&#45;&gt;Node25 -->
<g id="edge27" class="edge">
<title>Node24&#45;&gt;Node25</title>
<path fill="none" stroke="midnightblue" d="M1036.83,-221.44C1070.58,-211.26 1118.95,-196.66 1149.27,-187.52"/>
<polygon fill="midnightblue" stroke="midnightblue" points="1035.43,-218.2 1026.86,-224.44 1037.45,-224.91 1035.43,-218.2"/>
</g>
<!-- Node26 -->
<g id="node26" class="node">
<title>Node26</title>
<g id="a_node26"><a xlink:href="jt2_8c.html" target="_top" xlink:title=" ">
<polygon fill="white" stroke="black" points="896.5,-168.5 896.5,-187.5 966.5,-187.5 966.5,-168.5 896.5,-168.5"/>
<text text-anchor="middle" x="931.5" y="-175.5" font-family="Helvetica,sans-Serif" font-size="10.00">src/P2/jt2.c</text>
</a>
</g>
</g>
<!-- Node24&#45;&gt;Node26 -->
<g id="edge28" class="edge">
<title>Node24&#45;&gt;Node26</title>
<path fill="none" stroke="midnightblue" d="M979.67,-217.82C967.66,-208.15 952.53,-195.95 942.46,-187.83"/>
<polygon fill="midnightblue" stroke="midnightblue" points="977.75,-220.77 987.74,-224.32 982.15,-215.32 977.75,-220.77"/>
</g>
<!-- Node27 -->
<g id="node27" class="node">
<title>Node27</title>
<g id="a_node27"><a xlink:href="steppower_8c.html" target="_top" xlink:title=" ">
<polygon fill="white" stroke="black" points="980,-112.5 980,-131.5 1087,-131.5 1087,-112.5 980,-112.5"/>
<text text-anchor="middle" x="1033.5" y="-119.5" font-family="Helvetica,sans-Serif" font-size="10.00">src/P2/steppower.c</text>
</a>
</g>
</g>
<!-- Node24&#45;&gt;Node27 -->
<g id="edge29" class="edge">
<title>Node24&#45;&gt;Node27</title>
<path fill="none" stroke="midnightblue" d="M1002.27,-214.35C1005.12,-201.23 1009.4,-183.36 1014.5,-168 1018.77,-155.12 1025.13,-140.76 1029.29,-131.81"/>
<polygon fill="midnightblue" stroke="midnightblue" points="998.77,-213.96 1000.15,-224.46 1005.63,-215.39 998.77,-213.96"/>
</g>
<!-- Node28 -->
<g id="node28" class="node">
<title>Node28</title>
<g id="a_node28"><a xlink:href="steppower_8h.html" target="_top" xlink:title=" ">
<polygon fill="white" stroke="black" points="764.5,-168.5 764.5,-187.5 878.5,-187.5 878.5,-168.5 764.5,-168.5"/>
<text text-anchor="middle" x="821.5" y="-175.5" font-family="Helvetica,sans-Serif" font-size="10.00">include/steppower.h</text>
</a>
</g>
</g>
<!-- Node24&#45;&gt;Node28 -->
<g id="edge30" class="edge">
<title>Node24&#45;&gt;Node28</title>
<path fill="none" stroke="midnightblue" d="M960.6,-221.44C927.22,-211.26 879.4,-196.66 849.41,-187.52"/>
<polygon fill="midnightblue" stroke="midnightblue" points="959.87,-224.87 970.45,-224.44 961.91,-218.18 959.87,-224.87"/>
</g>
<!-- Node29 -->
<g id="node29" class="node">
<title>Node29</title>
<g id="a_node29"><a xlink:href="steprail_8h.html" target="_top" xlink:title="Rail behavior for STEP objects.">
<polygon fill="white" stroke="red" points="1023,-168.5 1023,-187.5 1124,-187.5 1124,-168.5 1023,-168.5"/>
<text text-anchor="middle" x="1073.5" y="-175.5" font-family="Helvetica,sans-Serif" font-size="10.00">include/steprail.h</text>
</a>
</g>
</g>
<!-- Node24&#45;&gt;Node29 -->
<g id="edge32" class="edge">
<title>Node24&#45;&gt;Node29</title>
<path fill="none" stroke="midnightblue" d="M1018.81,-218.38C1032.36,-208.62 1049.74,-196.11 1061.23,-187.83"/>
<polygon fill="midnightblue" stroke="midnightblue" points="1016.62,-215.64 1010.55,-224.32 1020.71,-221.32 1016.62,-215.64"/>
</g>
<!-- Node28&#45;&gt;Node27 -->
<g id="edge31" class="edge">
<title>Node28&#45;&gt;Node27</title>
<path fill="none" stroke="midnightblue" d="M864.85,-165.96C904.89,-155.76 963.53,-140.82 1000.07,-131.52"/>
<polygon fill="midnightblue" stroke="midnightblue" points="863.92,-162.58 855.09,-168.44 865.65,-169.37 863.92,-162.58"/>
</g>
<!-- Node29&#45;&gt;Node27 -->
<g id="edge33" class="edge">
<title>Node29&#45;&gt;Node27</title>
<path fill="none" stroke="midnightblue" d="M1060.8,-159.86C1053.87,-150.5 1045.59,-139.33 1039.98,-131.75"/>
<polygon fill="midnightblue" stroke="midnightblue" points="1058.13,-162.13 1066.89,-168.08 1063.75,-157.96 1058.13,-162.13"/>
</g>
<!-- Node31&#45;&gt;Node17 -->
<g id="edge42" class="edge">
<title>Node31&#45;&gt;Node17</title>
<path fill="none" stroke="midnightblue" d="M1260.87,-328.75C1277.84,-309.23 1306.54,-275.22 1328.5,-244 1351.22,-211.71 1349.64,-198.68 1374.5,-168 1385.86,-153.98 1401.48,-140.12 1411.78,-131.57"/>
<polygon fill="midnightblue" stroke="midnightblue" points="1258.12,-326.57 1254.16,-336.4 1263.38,-331.19 1258.12,-326.57"/>
</g>
<!-- Node32 -->
<g id="node31" class="node">
<title>Node32</title>
<g id="a_node31"><a xlink:href="util_8c.html" target="_top" xlink:title=" ">
<polygon fill="white" stroke="black" points="773,-224.5 773,-243.5 846,-243.5 846,-224.5 773,-224.5"/>
<text text-anchor="middle" x="809.5" y="-231.5" font-family="Helvetica,sans-Serif" font-size="10.00">src/P2/util.c</text>
</a>
</g>
</g>
<!-- Node31&#45;&gt;Node32 -->
<g id="edge35" class="edge">
<title>Node31&#45;&gt;Node32</title>
<path fill="none" stroke="midnightblue" d="M1224.72,-331.09C1199.98,-315.99 1157.93,-292.37 1118.5,-280 1007.61,-245.21 974.27,-262.3 859.5,-244 855.14,-243.31 850.58,-242.54 846.06,-241.76"/>
<polygon fill="midnightblue" stroke="midnightblue" points="1222.97,-334.12 1233.31,-336.42 1226.66,-328.17 1222.97,-334.12"/>
</g>
<!-- Node33 -->
<g id="node32" class="node">
<title>Node33</title>
<g id="a_node32"><a xlink:href="vec_8c.html" target="_top" xlink:title=" ">
<polygon fill="white" stroke="black" points="868.5,-224.5 868.5,-243.5 942.5,-243.5 942.5,-224.5 868.5,-224.5"/>
<text text-anchor="middle" x="905.5" y="-231.5" font-family="Helvetica,sans-Serif" font-size="10.00">src/P2/vec.c</text>
</a>
</g>
</g>
<!-- Node31&#45;&gt;Node33 -->
<g id="edge36" class="edge">
<title>Node31&#45;&gt;Node33</title>
<path fill="none" stroke="midnightblue" d="M1232.96,-328.49C1219.54,-313.3 1197.54,-291.47 1173.5,-280 1084.48,-237.52 1051.68,-260.91 954.5,-244 950.67,-243.33 946.66,-242.62 942.68,-241.9"/>
<polygon fill="midnightblue" stroke="midnightblue" points="1230.34,-330.8 1239.5,-336.13 1235.66,-326.25 1230.34,-330.8"/>
</g>
<!-- Node34 -->
<g id="node33" class="node">
<title>Node34</title>
<g id="a_node33"><a xlink:href="bis_8h.html" target="_top" xlink:title="Binary Input Stream.">
<polygon fill="white" stroke="black" points="1607.5,-280.5 1607.5,-299.5 1685.5,-299.5 1685.5,-280.5 1607.5,-280.5"/>
<text text-anchor="middle" x="1646.5" y="-287.5" font-family="Helvetica,sans-Serif" font-size="10.00">include/bis.h</text>
</a>
</g>
</g>
<!-- Node31&#45;&gt;Node34 -->
<g id="edge37" class="edge">
<title>Node31&#45;&gt;Node34</title>
<path fill="none" stroke="midnightblue" d="M1296.99,-338.18C1377.77,-327.28 1534.35,-306.14 1607.32,-296.29"/>
<polygon fill="midnightblue" stroke="midnightblue" points="1296.5,-334.72 1287.06,-339.53 1297.43,-341.66 1296.5,-334.72"/>
</g>
<!-- Node36 -->
<g id="node35" class="node">
<title>Node36</title>
<g id="a_node35"><a xlink:href="shd_8h.html" target="_top" xlink:title="Shaders.">
<polygon fill="white" stroke="black" points="1238,-224.5 1238,-243.5 1319,-243.5 1319,-224.5 1238,-224.5"/>
<text text-anchor="middle" x="1278.5" y="-231.5" font-family="Helvetica,sans-Serif" font-size="10.00">include/shd.h</text>
</a>
</g>
</g>
<!-- Node31&#45;&gt;Node36 -->
<g id="edge43" class="edge">
<title>Node31&#45;&gt;Node36</title>
<path fill="none" stroke="midnightblue" d="M1251.83,-326.67C1258.83,-302.62 1270.82,-261.39 1276,-243.59"/>
<polygon fill="midnightblue" stroke="midnightblue" points="1248.44,-325.79 1249.01,-336.37 1255.17,-327.74 1248.44,-325.79"/>
</g>
<!-- Node46 -->
<g id="node38" class="node">
<title>Node46</title>
<g id="a_node38"><a xlink:href="vecmat_8h.html" target="_top" xlink:title=" ">
<polygon fill="white" stroke="black" points="516.5,-224.5 516.5,-243.5 648.5,-243.5 648.5,-224.5 516.5,-224.5"/>
<text text-anchor="middle" x="582.5" y="-231.5" font-family="Helvetica,sans-Serif" font-size="10.00">include/splice/vecmat.h</text>
</a>
</g>
</g>
<!-- Node31&#45;&gt;Node46 -->
<g id="edge47" class="edge">
<title>Node31&#45;&gt;Node46</title>
<path fill="none" stroke="midnightblue" d="M1212.29,-333.06C1160.99,-315.22 1068.43,-283.36 1052.5,-280 882.61,-244.18 836.23,-261.59 663.5,-244 658.71,-243.51 653.77,-243 648.8,-242.47"/>
<polygon fill="midnightblue" stroke="midnightblue" points="1211.37,-336.44 1221.96,-336.43 1213.67,-329.83 1211.37,-336.44"/>
</g>
<!-- Node49 -->
<g id="node41" class="node">
<title>Node49</title>
<g id="a_node41"><a xlink:href="surf_8h.html" target="_top" xlink:title="Surface?">
<polygon fill="white" stroke="black" points="1312.5,-280.5 1312.5,-299.5 1394.5,-299.5 1394.5,-280.5 1312.5,-280.5"/>
<text text-anchor="middle" x="1353.5" y="-287.5" font-family="Helvetica,sans-Serif" font-size="10.00">include/surf.h</text>
</a>
</g>
</g>
<!-- Node31&#45;&gt;Node49 -->
<g id="edge50" class="edge">
<title>Node31&#45;&gt;Node49</title>
<path fill="none" stroke="midnightblue" d="M1272.8,-331.73C1292.61,-321.73 1319.21,-308.31 1336.35,-299.65"/>
<polygon fill="midnightblue" stroke="midnightblue" points="1271.04,-328.69 1263.69,-336.32 1274.2,-334.94 1271.04,-328.69"/>
</g>
<!-- Node50 -->
<g id="node42" class="node">
<title>Node50</title>
<g id="a_node42"><a xlink:href="util_8h.html" target="_top" xlink:title="Utility functions.">
<polygon fill="white" stroke="black" points="469.5,-280.5 469.5,-299.5 549.5,-299.5 549.5,-280.5 469.5,-280.5"/>
<text text-anchor="middle" x="509.5" y="-287.5" font-family="Helvetica,sans-Serif" font-size="10.00">include/util.h</text>
</a>
</g>
</g>
<!-- Node31&#45;&gt;Node50 -->
<g id="edge53" class="edge">
<title>Node31&#45;&gt;Node50</title>
<path fill="none" stroke="midnightblue" d="M1195.49,-341.26C1056.73,-331.1 674.54,-303.09 549.6,-293.94"/>
<polygon fill="midnightblue" stroke="midnightblue" points="1195.6,-344.78 1205.83,-342.02 1196.11,-337.8 1195.6,-344.78"/>
</g>
<!-- Node34&#45;&gt;Node5 -->
<g id="edge39" class="edge">
<title>Node34&#45;&gt;Node5</title>
<path fill="none" stroke="midnightblue" d="M1695.29,-278.71C1740.76,-266.11 1805.36,-239.73 1831.5,-188 1852.17,-147.1 1808.94,-95.83 1789.41,-75.69"/>
<polygon fill="midnightblue" stroke="midnightblue" points="1694.38,-275.32 1685.61,-281.26 1696.17,-282.09 1694.38,-275.32"/>
</g>
<!-- Node34&#45;&gt;Node9 -->
<g id="edge41" class="edge">
<title>Node34&#45;&gt;Node9</title>
<path fill="none" stroke="midnightblue" d="M1607.12,-277.57C1572.03,-267.38 1521.48,-252.7 1489.83,-243.52"/>
<polygon fill="midnightblue" stroke="midnightblue" points="1606.45,-281.02 1617.03,-280.44 1608.4,-274.29 1606.45,-281.02"/>
</g>
<!-- Node34&#45;&gt;Node17 -->
<g id="edge40" class="edge">
<title>Node34&#45;&gt;Node17</title>
<path fill="none" stroke="midnightblue" d="M1650.6,-270.39C1653.92,-257.07 1659.24,-238.93 1666.5,-224 1678.42,-199.49 1709.11,-188.8 1691.5,-168 1663.81,-135.29 1540.8,-126.34 1471.11,-123.9"/>
<polygon fill="midnightblue" stroke="midnightblue" points="1647.16,-269.73 1648.28,-280.27 1653.97,-271.33 1647.16,-269.73"/>
</g>
<!-- Node35 -->
<g id="node34" class="node">
<title>Node35</title>
<g id="a_node34"><a xlink:href="bis_8c.html" target="_top" xlink:title=" ">
<polygon fill="white" stroke="black" points="1675,-224.5 1675,-243.5 1746,-243.5 1746,-224.5 1675,-224.5"/>
<text text-anchor="middle" x="1710.5" y="-231.5" font-family="Helvetica,sans-Serif" font-size="10.00">src/P2/bis.c</text>
</a>
</g>
</g>
<!-- Node34&#45;&gt;Node35 -->
<g id="edge38" class="edge">
<title>Node34&#45;&gt;Node35</title>
<path fill="none" stroke="midnightblue" d="M1664.49,-273.82C1675.96,-264.15 1690.41,-251.95 1700.03,-243.83"/>
<polygon fill="midnightblue" stroke="midnightblue" points="1662.17,-271.2 1656.78,-280.32 1666.68,-276.55 1662.17,-271.2"/>
</g>
<!-- Node37 -->
<g id="node36" class="node">
<title>Node37</title>
<g id="a_node36"><a xlink:href="screen_8h.html" target="_top" xlink:title="User interface manager.">
<polygon fill="white" stroke="red" points="1230.5,-168.5 1230.5,-187.5 1326.5,-187.5 1326.5,-168.5 1230.5,-168.5"/>
<text text-anchor="middle" x="1278.5" y="-175.5" font-family="Helvetica,sans-Serif" font-size="10.00">include/screen.h</text>
</a>
</g>
</g>
<!-- Node36&#45;&gt;Node37 -->
<g id="edge44" class="edge">
<title>Node36&#45;&gt;Node37</title>
<path fill="none" stroke="midnightblue" d="M1278.5,-213.8C1278.5,-204.91 1278.5,-194.78 1278.5,-187.75"/>
<polygon fill="midnightblue" stroke="midnightblue" points="1275,-214.08 1278.5,-224.08 1282,-214.08 1275,-214.08"/>
</g>
<!-- Node37&#45;&gt;Node27 -->
<g id="edge46" class="edge">
<title>Node37&#45;&gt;Node27</title>
<path fill="none" stroke="midnightblue" d="M1229.87,-166.28C1183.57,-156.08 1114.81,-140.92 1072.14,-131.52"/>
<polygon fill="midnightblue" stroke="midnightblue" points="1229.16,-169.71 1239.68,-168.44 1230.67,-162.87 1229.16,-169.71"/>
</g>
<!-- Node38 -->
<g id="node37" class="node">
<title>Node38</title>
<g id="a_node37"><a xlink:href="screen_8c.html" target="_top" xlink:title=" ">
<polygon fill="white" stroke="black" points="1234,-112.5 1234,-131.5 1323,-131.5 1323,-112.5 1234,-112.5"/>
<text text-anchor="middle" x="1278.5" y="-119.5" font-family="Helvetica,sans-Serif" font-size="10.00">src/P2/screen.c</text>
</a>
</g>
</g>
<!-- Node37&#45;&gt;Node38 -->
<g id="edge45" class="edge">
<title>Node37&#45;&gt;Node38</title>
<path fill="none" stroke="midnightblue" d="M1278.5,-157.8C1278.5,-148.91 1278.5,-138.78 1278.5,-131.75"/>
<polygon fill="midnightblue" stroke="midnightblue" points="1275,-158.08 1278.5,-168.08 1282,-158.08 1275,-158.08"/>
</g>
<!-- Node47 -->
<g id="node39" class="node">
<title>Node47</title>
<g id="a_node39"><a xlink:href="ref_8cpp.html" target="_top" xlink:title=" ">
<polygon fill="white" stroke="black" points="505,-168.5 505,-187.5 618,-187.5 618,-168.5 505,-168.5"/>
<text text-anchor="middle" x="561.5" y="-175.5" font-family="Helvetica,sans-Serif" font-size="10.00">src/P2/splice/ref.cpp</text>
</a>
</g>
</g>
<!-- Node46&#45;&gt;Node47 -->
<g id="edge48" class="edge">
<title>Node46&#45;&gt;Node47</title>
<path fill="none" stroke="midnightblue" d="M575.38,-214.69C571.84,-205.59 567.73,-195.01 564.9,-187.75"/>
<polygon fill="midnightblue" stroke="midnightblue" points="572.15,-216.03 579.03,-224.08 578.67,-213.49 572.15,-216.03"/>
</g>
<!-- Node48 -->
<g id="node40" class="node">
<title>Node48</title>
<g id="a_node40"><a xlink:href="spliceutils_8cpp.html" target="_top" xlink:title=" ">
<polygon fill="white" stroke="black" points="463.5,-112.5 463.5,-131.5 613.5,-131.5 613.5,-112.5 463.5,-112.5"/>
<text text-anchor="middle" x="538.5" y="-119.5" font-family="Helvetica,sans-Serif" font-size="10.00">src/P2/splice/spliceutils.cpp</text>
</a>
</g>
</g>
<!-- Node46&#45;&gt;Node48 -->
<g id="edge49" class="edge">
<title>Node46&#45;&gt;Node48</title>
<path fill="none" stroke="midnightblue" d="M604.29,-218.22C620.61,-205.25 638.4,-185.72 627.5,-168 616.07,-149.42 594.33,-138.23 575.2,-131.65"/>
<polygon fill="midnightblue" stroke="midnightblue" points="601.98,-215.59 596.05,-224.37 606.16,-221.2 601.98,-215.59"/>
</g>
<!-- Node49&#45;&gt;Node9 -->
<g id="edge52" class="edge">
<title>Node49&#45;&gt;Node9</title>
<path fill="none" stroke="midnightblue" d="M1379.8,-275.73C1399.61,-265.73 1426.21,-252.31 1443.35,-243.65"/>
<polygon fill="midnightblue" stroke="midnightblue" points="1378.04,-272.69 1370.69,-280.32 1381.2,-278.94 1378.04,-272.69"/>
</g>
<!-- Node49&#45;&gt;Node36 -->
<g id="edge51" class="edge">
<title>Node49&#45;&gt;Node36</title>
<path fill="none" stroke="midnightblue" d="M1333.19,-274.38C1319.64,-264.62 1302.26,-252.11 1290.77,-243.83"/>
<polygon fill="midnightblue" stroke="midnightblue" points="1331.29,-277.32 1341.45,-280.32 1335.38,-271.64 1331.29,-277.32"/>
</g>
<!-- Node50&#45;&gt;Node9 -->
<g id="edge70" class="edge">
<title>Node50&#45;&gt;Node9</title>
<path fill="none" stroke="midnightblue" d="M559.85,-286.47C688.1,-279.96 1037.49,-261.91 1328.5,-244 1356.81,-242.26 1388.53,-240.1 1413.78,-238.34"/>
<polygon fill="midnightblue" stroke="midnightblue" points="559.38,-282.98 549.57,-286.99 559.73,-289.98 559.38,-282.98"/>
</g>
<!-- Node50&#45;&gt;Node12 -->
<g id="edge57" class="edge">
<title>Node50&#45;&gt;Node12</title>
<path fill="none" stroke="midnightblue" d="M458.79,-287.36C398.78,-284.04 296.66,-274.06 214.5,-244 176.59,-230.13 137.5,-201.84 119.19,-187.6"/>
<polygon fill="midnightblue" stroke="midnightblue" points="458.96,-290.87 469.13,-287.88 459.32,-283.88 458.96,-290.87"/>
</g>
<!-- Node50&#45;&gt;Node13 -->
<g id="edge54" class="edge">
<title>Node50&#45;&gt;Node13</title>
<path fill="none" stroke="midnightblue" d="M459,-289.49C404.81,-287.96 317.74,-279.46 252.5,-244 201.92,-216.5 164.48,-154.36 152.01,-131.58"/>
<polygon fill="midnightblue" stroke="midnightblue" points="458.99,-292.99 469.06,-289.7 459.13,-285.99 458.99,-292.99"/>
</g>
<!-- Node50&#45;&gt;Node19 -->
<g id="edge58" class="edge">
<title>Node50&#45;&gt;Node19</title>
<path fill="none" stroke="midnightblue" d="M462.74,-278.06C376.16,-256.68 202.4,-207.97 233.5,-168 291.29,-93.75 586,-73.79 707.76,-68.67"/>
<polygon fill="midnightblue" stroke="midnightblue" points="462.05,-281.49 472.59,-280.47 463.71,-274.69 462.05,-281.49"/>
</g>
<!-- Node50&#45;&gt;Node32 -->
<g id="edge55" class="edge">
<title>Node50&#45;&gt;Node32</title>
<path fill="none" stroke="midnightblue" d="M559.69,-279.97C619.91,-269.13 719.44,-251.21 772.88,-241.59"/>
<polygon fill="midnightblue" stroke="midnightblue" points="558.87,-276.56 549.65,-281.77 560.11,-283.45 558.87,-276.56"/>
</g>
<!-- Node50&#45;&gt;Node33 -->
<g id="edge56" class="edge">
<title>Node50&#45;&gt;Node33</title>
<path fill="none" stroke="midnightblue" d="M559.88,-283.23C627.34,-275.32 750.66,-260.24 855.5,-244 859.68,-243.35 864.06,-242.63 868.4,-241.89"/>
<polygon fill="midnightblue" stroke="midnightblue" points="559.08,-279.8 549.55,-284.43 559.89,-286.75 559.08,-279.8"/>
</g>
<!-- Node50&#45;&gt;Node46 -->
<g id="edge69" class="edge">
<title>Node50&#45;&gt;Node46</title>
<path fill="none" stroke="midnightblue" d="M529.64,-274.1C542.78,-264.38 559.48,-252.03 570.56,-243.83"/>
<polygon fill="midnightblue" stroke="midnightblue" points="527.19,-271.56 521.23,-280.32 531.35,-277.19 527.19,-271.56"/>
</g>
<!-- Node51 -->
<g id="node43" class="node">
<title>Node51</title>
<g id="a_node43"><a xlink:href="joy_8h.html" target="_top" xlink:title="Joypad manager.">
<polygon fill="white" stroke="black" points="672,-224.5 672,-243.5 749,-243.5 749,-224.5 672,-224.5"/>
<text text-anchor="middle" x="710.5" y="-231.5" font-family="Helvetica,sans-Serif" font-size="10.00">include/joy.h</text>
</a>
</g>
</g>
<!-- Node50&#45;&gt;Node51 -->
<g id="edge59" class="edge">
<title>Node50&#45;&gt;Node51</title>
<path fill="none" stroke="midnightblue" d="M551.08,-277.83C589.03,-267.63 644.31,-252.78 678.8,-243.52"/>
<polygon fill="midnightblue" stroke="midnightblue" points="550.1,-274.47 541.35,-280.44 551.91,-281.23 550.1,-274.47"/>
</g>
<!-- Node50&#45;&gt;Node53 -->
<g id="edge62" class="edge">
<title>Node50&#45;&gt;Node53</title>
<path fill="none" stroke="midnightblue" d="M459.5,-282.44C394.33,-273.84 276.84,-258.18 176.5,-244 171.84,-243.34 166.97,-242.64 162.12,-241.94"/>
<polygon fill="midnightblue" stroke="midnightblue" points="459.12,-285.92 469.5,-283.75 460.04,-278.98 459.12,-285.92"/>
</g>
<!-- Node54 -->
<g id="node46" class="node">
<title>Node54</title>
<g id="a_node46"><a xlink:href="ref_8h.html" target="_top" xlink:title=" ">
<polygon fill="white" stroke="black" points="381.5,-224.5 381.5,-243.5 489.5,-243.5 489.5,-224.5 381.5,-224.5"/>
<text text-anchor="middle" x="435.5" y="-231.5" font-family="Helvetica,sans-Serif" font-size="10.00">include/splice/ref.h</text>
</a>
</g>
</g>
<!-- Node50&#45;&gt;Node54 -->
<g id="edge64" class="edge">
<title>Node50&#45;&gt;Node54</title>
<path fill="none" stroke="midnightblue" d="M489.47,-274.38C476.09,-264.62 458.94,-252.11 447.61,-243.83"/>
<polygon fill="midnightblue" stroke="midnightblue" points="487.47,-277.26 497.61,-280.32 491.6,-271.6 487.47,-277.26"/>
</g>
<!-- Node51&#45;&gt;Node28 -->
<g id="edge61" class="edge">
<title>Node51&#45;&gt;Node28</title>
<path fill="none" stroke="midnightblue" d="M737.51,-219.86C758.09,-209.85 785.84,-196.35 803.71,-187.65"/>
<polygon fill="midnightblue" stroke="midnightblue" points="735.8,-216.8 728.33,-224.32 738.86,-223.1 735.8,-216.8"/>
</g>
<!-- Node52 -->
<g id="node44" class="node">
<title>Node52</title>
<g id="a_node44"><a xlink:href="joy_8c.html" target="_top" xlink:title=" ">
<polygon fill="white" stroke="black" points="675,-168.5 675,-187.5 746,-187.5 746,-168.5 675,-168.5"/>
<text text-anchor="middle" x="710.5" y="-175.5" font-family="Helvetica,sans-Serif" font-size="10.00">src/P2/joy.c</text>
</a>
</g>
</g>
<!-- Node51&#45;&gt;Node52 -->
<g id="edge60" class="edge">
<title>Node51&#45;&gt;Node52</title>
<path fill="none" stroke="midnightblue" d="M710.5,-213.8C710.5,-204.91 710.5,-194.78 710.5,-187.75"/>
<polygon fill="midnightblue" stroke="midnightblue" points="707,-214.08 710.5,-224.08 714,-214.08 707,-214.08"/>
</g>
<!-- Node53&#45;&gt;Node12 -->
<g id="edge63" class="edge">
<title>Node53&#45;&gt;Node12</title>
<path fill="none" stroke="midnightblue" d="M113.05,-214.1C111.89,-205.14 110.56,-194.86 109.63,-187.75"/>
<polygon fill="midnightblue" stroke="midnightblue" points="109.59,-214.62 114.34,-224.08 116.53,-213.72 109.59,-214.62"/>
</g>
<!-- Node54&#45;&gt;Node47 -->
<g id="edge66" class="edge">
<title>Node54&#45;&gt;Node47</title>
<path fill="none" stroke="midnightblue" d="M464.66,-220.5C488.28,-210.38 520.93,-196.39 541.63,-187.52"/>
<polygon fill="midnightblue" stroke="midnightblue" points="463.28,-217.29 455.47,-224.44 466.04,-223.72 463.28,-217.29"/>
</g>
<!-- Node55 -->
<g id="node47" class="node">
<title>Node55</title>
<g id="a_node47"><a xlink:href="bif_8cpp.html" target="_top" xlink:title=" ">
<polygon fill="white" stroke="black" points="243,-168.5 243,-187.5 356,-187.5 356,-168.5 243,-168.5"/>
<text text-anchor="middle" x="299.5" y="-175.5" font-family="Helvetica,sans-Serif" font-size="10.00">src/P2/splice/bif.cpp</text>
</a>
</g>
</g>
<!-- Node54&#45;&gt;Node55 -->
<g id="edge65" class="edge">
<title>Node54&#45;&gt;Node55</title>
<path fill="none" stroke="midnightblue" d="M404.37,-220.64C378.84,-210.5 343.39,-196.43 320.95,-187.52"/>
<polygon fill="midnightblue" stroke="midnightblue" points="403.36,-224.01 413.95,-224.44 405.95,-217.5 403.36,-224.01"/>
</g>
<!-- Node56 -->
<g id="node48" class="node">
<title>Node56</title>
<g id="a_node48"><a xlink:href="pair_8h.html" target="_top" xlink:title=" ">
<polygon fill="white" stroke="black" points="374,-168.5 374,-187.5 487,-187.5 487,-168.5 374,-168.5"/>
<text text-anchor="middle" x="430.5" y="-175.5" font-family="Helvetica,sans-Serif" font-size="10.00">include/splice/pair.h</text>
</a>
</g>
</g>
<!-- Node54&#45;&gt;Node56 -->
<g id="edge67" class="edge">
<title>Node54&#45;&gt;Node56</title>
<path fill="none" stroke="midnightblue" d="M433.75,-214.1C432.92,-205.14 431.97,-194.86 431.31,-187.75"/>
<polygon fill="midnightblue" stroke="midnightblue" points="430.27,-214.45 434.67,-224.08 437.24,-213.8 430.27,-214.45"/>
</g>
<!-- Node56&#45;&gt;Node48 -->
<g id="edge68" class="edge">
<title>Node56&#45;&gt;Node48</title>
<path fill="none" stroke="midnightblue" d="M457.05,-163.73C477.05,-153.73 503.89,-140.31 521.19,-131.65"/>
<polygon fill="midnightblue" stroke="midnightblue" points="455.23,-160.72 447.85,-168.32 458.36,-166.98 455.23,-160.72"/>
</g>
<!-- Node57&#45;&gt;Node9 -->
<g id="edge78" class="edge">
<title>Node57&#45;&gt;Node9</title>
<path fill="none" stroke="midnightblue" d="M421.38,-401.43C594.91,-402.32 1130.06,-401.21 1296.5,-356 1348.3,-341.93 1361.31,-333.18 1403.5,-300 1424.97,-283.11 1444.72,-257.38 1454.35,-243.92"/>
<polygon fill="midnightblue" stroke="midnightblue" points="421.23,-397.93 411.21,-401.38 421.19,-404.93 421.23,-397.93"/>
</g>
<!-- Node57&#45;&gt;Node58 -->
<g id="edge74" class="edge">
<title>Node57&#45;&gt;Node58</title>
<path fill="none" stroke="midnightblue" d="M366.5,-381.8C366.5,-372.91 366.5,-362.78 366.5,-355.75"/>
<polygon fill="midnightblue" stroke="midnightblue" points="363,-382.08 366.5,-392.08 370,-382.08 363,-382.08"/>
</g>
<!-- Node58&#45;&gt;Node4 -->
<g id="edge75" class="edge">
<title>Node58&#45;&gt;Node4</title>
<path fill="none" stroke="midnightblue" d="M416.27,-344.28C650.53,-340.77 1634.34,-324.61 1694.5,-300 1728.56,-286.07 1734.79,-274.42 1755.5,-244 1767.88,-225.81 1775.29,-200.63 1778.54,-187.59"/>
<polygon fill="midnightblue" stroke="midnightblue" points="415.96,-340.78 406.01,-344.43 416.06,-347.78 415.96,-340.78"/>
</g>
<!-- Node58&#45;&gt;Node14 -->
<g id="edge76" class="edge">
<title>Node58&#45;&gt;Node14</title>
<path fill="none" stroke="midnightblue" d="M316.52,-344.02C247.24,-339.75 123.37,-321.04 59.5,-244 31.78,-210.56 38.19,-153.08 41.85,-131.51"/>
<polygon fill="midnightblue" stroke="midnightblue" points="316.57,-347.53 326.74,-344.57 316.95,-340.54 316.57,-347.53"/>
</g>
<!-- Node58&#45;&gt;Node50 -->
<g id="edge77" class="edge">
<title>Node58&#45;&gt;Node50</title>
<path fill="none" stroke="midnightblue" d="M398.53,-332.91C425.41,-322.75 463.14,-308.51 486.95,-299.52"/>
<polygon fill="midnightblue" stroke="midnightblue" points="397.28,-329.64 389.16,-336.44 399.75,-336.19 397.28,-329.64"/>
</g>
</g>
</svg>
