<?xml version="1.0" encoding="UTF-8" standalone="no"?>
<!DOCTYPE svg PUBLIC "-//W3C//DTD SVG 1.1//EN"
 "http://www.w3.org/Graphics/SVG/1.1/DTD/svg11.dtd">
<!-- Generated by graphviz version 2.43.0 (0)
 -->
<!-- Title: include/mq.h Pages: 1 -->
<svg width="1745pt" height="588pt"
 viewBox="0.00 0.00 1744.50 588.00" xmlns="http://www.w3.org/2000/svg" xmlns:xlink="http://www.w3.org/1999/xlink">
<g id="graph0" class="graph" transform="scale(1 1) rotate(0) translate(4 584)">
<title>include/mq.h</title>
<polygon fill="white" stroke="transparent" points="-4,4 -4,-584 1740.5,-584 1740.5,4 -4,4"/>
<!-- Node1 -->
<g id="node1" class="node">
<title>Node1</title>
<g id="a_node1"><a xlink:title="Message queue.">
<polygon fill="#bfbfbf" stroke="black" points="125.5,-560.5 125.5,-579.5 205.5,-579.5 205.5,-560.5 125.5,-560.5"/>
<text text-anchor="middle" x="165.5" y="-567.5" font-family="Helvetica,sans-Serif" font-size="10.00">include/mq.h</text>
</a>
</g>
</g>
<!-- Node2 -->
<g id="node2" class="node">
<title>Node2</title>
<g id="a_node2"><a xlink:href="lo_8h.html" target="_top" xlink:title="Level objects.">
<polygon fill="white" stroke="black" points="361,-504.5 361,-523.5 434,-523.5 434,-504.5 361,-504.5"/>
<text text-anchor="middle" x="397.5" y="-511.5" font-family="Helvetica,sans-Serif" font-size="10.00">include/lo.h</text>
</a>
</g>
</g>
<!-- Node1&#45;&gt;Node2 -->
<g id="edge1" class="edge">
<title>Node1&#45;&gt;Node2</title>
<path fill="none" stroke="midnightblue" d="M212.1,-558.15C255.94,-547.95 320.68,-532.88 360.91,-523.52"/>
<polygon fill="midnightblue" stroke="midnightblue" points="211.21,-554.77 202.26,-560.44 212.79,-561.59 211.21,-554.77"/>
</g>
<!-- Node62 -->
<g id="node50" class="node">
<title>Node62</title>
<g id="a_node50"><a xlink:href="sm_8h.html" target="_top" xlink:title="State machines.">
<polygon fill="white" stroke="black" points="557,-336.5 557,-355.5 636,-355.5 636,-336.5 557,-336.5"/>
<text text-anchor="middle" x="596.5" y="-343.5" font-family="Helvetica,sans-Serif" font-size="10.00">include/sm.h</text>
</a>
</g>
</g>
<!-- Node1&#45;&gt;Node62 -->
<g id="edge78" class="edge">
<title>Node1&#45;&gt;Node62</title>
<path fill="none" stroke="midnightblue" d="M191.51,-555.61C271.68,-514.31 513.64,-389.68 579.69,-355.66"/>
<polygon fill="midnightblue" stroke="midnightblue" points="189.42,-552.74 182.13,-560.43 192.62,-558.97 189.42,-552.74"/>
</g>
<!-- Node3 -->
<g id="node3" class="node">
<title>Node3</title>
<g id="a_node3"><a xlink:href="alo_8h.html" target="_top" xlink:title=" ">
<polygon fill="white" stroke="black" points="1309,-448.5 1309,-467.5 1388,-467.5 1388,-448.5 1309,-448.5"/>
<text text-anchor="middle" x="1348.5" y="-455.5" font-family="Helvetica,sans-Serif" font-size="10.00">include/alo.h</text>
</a>
</g>
</g>
<!-- Node2&#45;&gt;Node3 -->
<g id="edge2" class="edge">
<title>Node2&#45;&gt;Node3</title>
<path fill="none" stroke="midnightblue" d="M444.46,-510.33C608.8,-501 1156.31,-469.91 1308.79,-461.26"/>
<polygon fill="midnightblue" stroke="midnightblue" points="443.98,-506.85 434.2,-510.92 444.38,-513.84 443.98,-506.85"/>
</g>
<!-- Node13 -->
<g id="node13" class="node">
<title>Node13</title>
<g id="a_node13"><a xlink:href="cm_8h.html" target="_top" xlink:title="Game camera.">
<polygon fill="white" stroke="black" points="62,-168.5 62,-187.5 141,-187.5 141,-168.5 62,-168.5"/>
<text text-anchor="middle" x="101.5" y="-175.5" font-family="Helvetica,sans-Serif" font-size="10.00">include/cm.h</text>
</a>
</g>
</g>
<!-- Node2&#45;&gt;Node13 -->
<g id="edge77" class="edge">
<title>Node2&#45;&gt;Node13</title>
<path fill="none" stroke="midnightblue" d="M350.62,-508.64C265.79,-497.9 95.5,-462.01 95.5,-347 95.5,-347 95.5,-347 95.5,-289 95.5,-251.13 99.09,-206.04 100.72,-187.55"/>
<polygon fill="midnightblue" stroke="midnightblue" points="350.43,-512.14 360.77,-509.86 351.26,-505.19 350.43,-512.14"/>
</g>
<!-- Node61 -->
<g id="node49" class="node">
<title>Node61</title>
<g id="a_node49"><a xlink:href="anim_8h.html" target="_top" xlink:title="Animation.">
<polygon fill="white" stroke="black" points="552,-392.5 552,-411.5 641,-411.5 641,-392.5 552,-392.5"/>
<text text-anchor="middle" x="596.5" y="-399.5" font-family="Helvetica,sans-Serif" font-size="10.00">include/anim.h</text>
</a>
</g>
</g>
<!-- Node2&#45;&gt;Node61 -->
<g id="edge71" class="edge">
<title>Node2&#45;&gt;Node61</title>
<path fill="none" stroke="midnightblue" d="M422.02,-499.45C463.54,-476.5 546.51,-430.63 580.96,-411.59"/>
<polygon fill="midnightblue" stroke="midnightblue" points="420.17,-496.47 413.12,-504.37 423.56,-502.59 420.17,-496.47"/>
</g>
<!-- Node4 -->
<g id="node4" class="node">
<title>Node4</title>
<g id="a_node4"><a xlink:href="binoc_8c.html" target="_top" xlink:title=" ">
<polygon fill="white" stroke="black" points="1414,-392.5 1414,-411.5 1497,-411.5 1497,-392.5 1414,-392.5"/>
<text text-anchor="middle" x="1455.5" y="-399.5" font-family="Helvetica,sans-Serif" font-size="10.00">src/P2/binoc.c</text>
</a>
</g>
</g>
<!-- Node3&#45;&gt;Node4 -->
<g id="edge3" class="edge">
<title>Node3&#45;&gt;Node4</title>
<path fill="none" stroke="midnightblue" d="M1374.8,-443.73C1394.61,-433.73 1421.21,-420.31 1438.35,-411.65"/>
<polygon fill="midnightblue" stroke="midnightblue" points="1373.04,-440.69 1365.69,-448.32 1376.2,-446.94 1373.04,-440.69"/>
</g>
<!-- Node5 -->
<g id="node5" class="node">
<title>Node5</title>
<g id="a_node5"><a xlink:href="coin_8h.html" target="_top" xlink:title="Coins, keys, and other collectibles.">
<polygon fill="white" stroke="black" points="1586.5,-168.5 1586.5,-187.5 1670.5,-187.5 1670.5,-168.5 1586.5,-168.5"/>
<text text-anchor="middle" x="1628.5" y="-175.5" font-family="Helvetica,sans-Serif" font-size="10.00">include/coin.h</text>
</a>
</g>
</g>
<!-- Node3&#45;&gt;Node5 -->
<g id="edge4" class="edge">
<title>Node3&#45;&gt;Node5</title>
<path fill="none" stroke="midnightblue" d="M1398.22,-453.38C1502.9,-444.39 1736.5,-416.54 1736.5,-347 1736.5,-347 1736.5,-347 1736.5,-289 1736.5,-238.69 1678.25,-202.95 1647.31,-187.51"/>
<polygon fill="midnightblue" stroke="midnightblue" points="1397.87,-449.9 1388.2,-454.22 1398.46,-456.87 1397.87,-449.9"/>
</g>
<!-- Node7 -->
<g id="node7" class="node">
<title>Node7</title>
<g id="a_node7"><a xlink:href="find_8h.html" target="_top" xlink:title="Find objects in the SW.">
<polygon fill="white" stroke="black" points="1484.5,-336.5 1484.5,-355.5 1566.5,-355.5 1566.5,-336.5 1484.5,-336.5"/>
<text text-anchor="middle" x="1525.5" y="-343.5" font-family="Helvetica,sans-Serif" font-size="10.00">include/find.h</text>
</a>
</g>
</g>
<!-- Node3&#45;&gt;Node7 -->
<g id="edge6" class="edge">
<title>Node3&#45;&gt;Node7</title>
<path fill="none" stroke="midnightblue" d="M1398.62,-455.03C1433.27,-451.03 1478.07,-440.23 1506.5,-412 1521.85,-396.76 1524.95,-369.85 1525.48,-355.92"/>
<polygon fill="midnightblue" stroke="midnightblue" points="1397.83,-451.59 1388.23,-456.06 1398.52,-458.55 1397.83,-451.59"/>
</g>
<!-- Node9 -->
<g id="node9" class="node">
<title>Node9</title>
<g id="a_node9"><a xlink:href="proxy_8h.html" target="_top" xlink:title=" ">
<polygon fill="white" stroke="black" points="1267.5,-392.5 1267.5,-411.5 1357.5,-411.5 1357.5,-392.5 1267.5,-392.5"/>
<text text-anchor="middle" x="1312.5" y="-399.5" font-family="Helvetica,sans-Serif" font-size="10.00">include/proxy.h</text>
</a>
</g>
</g>
<!-- Node3&#45;&gt;Node9 -->
<g id="edge8" class="edge">
<title>Node3&#45;&gt;Node9</title>
<path fill="none" stroke="midnightblue" d="M1336.88,-439.57C1330.68,-430.27 1323.33,-419.25 1318.33,-411.75"/>
<polygon fill="midnightblue" stroke="midnightblue" points="1334.1,-441.7 1342.56,-448.08 1339.92,-437.82 1334.1,-441.7"/>
</g>
<!-- Node10 -->
<g id="node10" class="node">
<title>Node10</title>
<g id="a_node10"><a xlink:href="xform_8h.html" target="_top" xlink:title="Transform.">
<polygon fill="white" stroke="black" points="1301,-224.5 1301,-243.5 1394,-243.5 1394,-224.5 1301,-224.5"/>
<text text-anchor="middle" x="1347.5" y="-231.5" font-family="Helvetica,sans-Serif" font-size="10.00">include/xform.h</text>
</a>
</g>
</g>
<!-- Node3&#45;&gt;Node10 -->
<g id="edge70" class="edge">
<title>Node3&#45;&gt;Node10</title>
<path fill="none" stroke="midnightblue" d="M1357.44,-439.2C1361.02,-431.11 1364.71,-421.3 1366.5,-412 1378.83,-347.97 1357.93,-269.25 1350.2,-243.55"/>
<polygon fill="midnightblue" stroke="midnightblue" points="1354.23,-437.8 1353.12,-448.34 1360.56,-440.79 1354.23,-437.8"/>
</g>
<!-- Node23 -->
<g id="node23" class="node">
<title>Node23</title>
<g id="a_node23"><a xlink:href="so_8h.html" target="_top" xlink:title="Scene objects.">
<polygon fill="white" stroke="black" points="1116,-392.5 1116,-411.5 1191,-411.5 1191,-392.5 1116,-392.5"/>
<text text-anchor="middle" x="1153.5" y="-399.5" font-family="Helvetica,sans-Serif" font-size="10.00">include/so.h</text>
</a>
</g>
</g>
<!-- Node3&#45;&gt;Node23 -->
<g id="edge24" class="edge">
<title>Node3&#45;&gt;Node23</title>
<path fill="none" stroke="midnightblue" d="M1307.69,-445.7C1270.89,-435.51 1217.57,-420.74 1184.25,-411.52"/>
<polygon fill="midnightblue" stroke="midnightblue" points="1307.03,-449.15 1317.6,-448.44 1308.9,-442.4 1307.03,-449.15"/>
</g>
<!-- Node56 -->
<g id="node44" class="node">
<title>Node56</title>
<g id="a_node44"><a xlink:href="sound_8h.html" target="_top" xlink:title="Sound playback.">
<polygon fill="white" stroke="black" points="124,-224.5 124,-243.5 217,-243.5 217,-224.5 124,-224.5"/>
<text text-anchor="middle" x="170.5" y="-231.5" font-family="Helvetica,sans-Serif" font-size="10.00">include/sound.h</text>
</a>
</g>
</g>
<!-- Node3&#45;&gt;Node56 -->
<g id="edge69" class="edge">
<title>Node3&#45;&gt;Node56</title>
<path fill="none" stroke="midnightblue" d="M1298.87,-456.72C1146.59,-455.48 687.53,-448.69 543.5,-412 393.12,-373.69 230.32,-273.58 183.66,-243.61"/>
<polygon fill="midnightblue" stroke="midnightblue" points="1298.85,-460.22 1308.88,-456.8 1298.91,-453.22 1298.85,-460.22"/>
</g>
<!-- Node6 -->
<g id="node6" class="node">
<title>Node6</title>
<g id="a_node6"><a xlink:href="coin_8c.html" target="_top" xlink:title=" ">
<polygon fill="white" stroke="black" points="1590,-56.5 1590,-75.5 1667,-75.5 1667,-56.5 1590,-56.5"/>
<text text-anchor="middle" x="1628.5" y="-63.5" font-family="Helvetica,sans-Serif" font-size="10.00">src/P2/coin.c</text>
</a>
</g>
</g>
<!-- Node5&#45;&gt;Node6 -->
<g id="edge5" class="edge">
<title>Node5&#45;&gt;Node6</title>
<path fill="none" stroke="midnightblue" d="M1628.5,-158.35C1628.5,-134.25 1628.5,-93.31 1628.5,-75.59"/>
<polygon fill="midnightblue" stroke="midnightblue" points="1625,-158.37 1628.5,-168.37 1632,-158.37 1625,-158.37"/>
</g>
<!-- Node8 -->
<g id="node8" class="node">
<title>Node8</title>
<g id="a_node8"><a xlink:href="find_8c.html" target="_top" xlink:title=" ">
<polygon fill="white" stroke="black" points="1510,-280.5 1510,-299.5 1585,-299.5 1585,-280.5 1510,-280.5"/>
<text text-anchor="middle" x="1547.5" y="-287.5" font-family="Helvetica,sans-Serif" font-size="10.00">src/P2/find.c</text>
</a>
</g>
</g>
<!-- Node7&#45;&gt;Node8 -->
<g id="edge7" class="edge">
<title>Node7&#45;&gt;Node8</title>
<path fill="none" stroke="midnightblue" d="M1532.96,-326.69C1536.67,-317.59 1540.98,-307.01 1543.93,-299.75"/>
<polygon fill="midnightblue" stroke="midnightblue" points="1529.66,-325.5 1529.13,-336.08 1536.15,-328.14 1529.66,-325.5"/>
</g>
<!-- Node9&#45;&gt;Node10 -->
<g id="edge9" class="edge">
<title>Node9&#45;&gt;Node10</title>
<path fill="none" stroke="midnightblue" d="M1317.21,-382.51C1319.23,-374.4 1321.56,-364.75 1323.5,-356 1332.8,-313.97 1342.29,-263.35 1345.94,-243.54"/>
<polygon fill="midnightblue" stroke="midnightblue" points="1313.77,-381.85 1314.72,-392.4 1320.56,-383.56 1313.77,-381.85"/>
</g>
<!-- Node10&#45;&gt;Node5 -->
<g id="edge16" class="edge">
<title>Node10&#45;&gt;Node5</title>
<path fill="none" stroke="midnightblue" d="M1402.1,-222.51C1456.04,-212.14 1537.39,-196.51 1586.48,-187.08"/>
<polygon fill="midnightblue" stroke="midnightblue" points="1401.19,-219.12 1392.03,-224.44 1402.51,-225.99 1401.19,-219.12"/>
</g>
<!-- Node11 -->
<g id="node11" class="node">
<title>Node11</title>
<g id="a_node11"><a xlink:href="xform1_8c.html" target="_top" xlink:title=" ">
<polygon fill="white" stroke="black" points="1328.5,-168.5 1328.5,-187.5 1420.5,-187.5 1420.5,-168.5 1328.5,-168.5"/>
<text text-anchor="middle" x="1374.5" y="-175.5" font-family="Helvetica,sans-Serif" font-size="10.00">src/P2/xform1.c</text>
</a>
</g>
</g>
<!-- Node10&#45;&gt;Node11 -->
<g id="edge10" class="edge">
<title>Node10&#45;&gt;Node11</title>
<path fill="none" stroke="midnightblue" d="M1356.51,-214.98C1361.09,-205.82 1366.45,-195.09 1370.12,-187.75"/>
<polygon fill="midnightblue" stroke="midnightblue" points="1353.3,-213.57 1351.96,-224.08 1359.56,-216.7 1353.3,-213.57"/>
</g>
<!-- Node12 -->
<g id="node12" class="node">
<title>Node12</title>
<g id="a_node12"><a xlink:href="xform2_8c.html" target="_top" xlink:title=" ">
<polygon fill="white" stroke="black" points="1438.5,-168.5 1438.5,-187.5 1530.5,-187.5 1530.5,-168.5 1438.5,-168.5"/>
<text text-anchor="middle" x="1484.5" y="-175.5" font-family="Helvetica,sans-Serif" font-size="10.00">src/P2/xform2.c</text>
</a>
</g>
</g>
<!-- Node10&#45;&gt;Node12 -->
<g id="edge11" class="edge">
<title>Node10&#45;&gt;Node12</title>
<path fill="none" stroke="midnightblue" d="M1378.52,-220.77C1404.26,-210.63 1440.19,-196.47 1462.89,-187.52"/>
<polygon fill="midnightblue" stroke="midnightblue" points="1377.23,-217.52 1369.21,-224.44 1379.79,-224.03 1377.23,-217.52"/>
</g>
<!-- Node10&#45;&gt;Node13 -->
<g id="edge12" class="edge">
<title>Node10&#45;&gt;Node13</title>
<path fill="none" stroke="midnightblue" d="M1290.72,-228.65C1267.97,-227.01 1241.5,-225.25 1217.5,-224 760.51,-200.19 645.02,-219.56 188.5,-188 173.05,-186.93 156.1,-185.29 141.3,-183.69"/>
<polygon fill="midnightblue" stroke="midnightblue" points="1290.66,-232.15 1300.89,-229.39 1291.17,-225.17 1290.66,-232.15"/>
</g>
<!-- Node17 -->
<g id="node17" class="node">
<title>Node17</title>
<g id="a_node17"><a xlink:href="vol_8h.html" target="_top" xlink:title="Volume object.">
<polygon fill="white" stroke="black" points="1231,-168.5 1231,-187.5 1310,-187.5 1310,-168.5 1231,-168.5"/>
<text text-anchor="middle" x="1270.5" y="-175.5" font-family="Helvetica,sans-Serif" font-size="10.00">include/vol.h</text>
</a>
</g>
</g>
<!-- Node10&#45;&gt;Node17 -->
<g id="edge17" class="edge">
<title>Node10&#45;&gt;Node17</title>
<path fill="none" stroke="midnightblue" d="M1326.6,-218.34C1312.59,-208.52 1294.62,-195.91 1282.84,-187.65"/>
<polygon fill="midnightblue" stroke="midnightblue" points="1324.93,-221.45 1335.13,-224.32 1328.95,-215.72 1324.93,-221.45"/>
</g>
<!-- Node14 -->
<g id="node14" class="node">
<title>Node14</title>
<g id="a_node14"><a xlink:href="cm_8c.html" target="_top" xlink:title=" ">
<polygon fill="white" stroke="black" points="114.5,-112.5 114.5,-131.5 186.5,-131.5 186.5,-112.5 114.5,-112.5"/>
<text text-anchor="middle" x="150.5" y="-119.5" font-family="Helvetica,sans-Serif" font-size="10.00">src/P2/cm.c</text>
</a>
</g>
</g>
<!-- Node13&#45;&gt;Node14 -->
<g id="edge13" class="edge">
<title>Node13&#45;&gt;Node14</title>
<path fill="none" stroke="midnightblue" d="M116.53,-160.43C125.12,-150.97 135.54,-139.48 142.56,-131.75"/>
<polygon fill="midnightblue" stroke="midnightblue" points="113.72,-158.33 109.59,-168.08 118.9,-163.03 113.72,-158.33"/>
</g>
<!-- Node15 -->
<g id="node15" class="node">
<title>Node15</title>
<g id="a_node15"><a xlink:href="flash_8h.html" target="_top" xlink:title="Flash (might be flash animation, or literal screen flashes).">
<polygon fill="white" stroke="black" points="0,-112.5 0,-131.5 87,-131.5 87,-112.5 0,-112.5"/>
<text text-anchor="middle" x="43.5" y="-119.5" font-family="Helvetica,sans-Serif" font-size="10.00">include/flash.h</text>
</a>
</g>
</g>
<!-- Node13&#45;&gt;Node15 -->
<g id="edge14" class="edge">
<title>Node13&#45;&gt;Node15</title>
<path fill="none" stroke="midnightblue" d="M84.59,-161.25C74.3,-151.67 61.53,-139.79 52.99,-131.83"/>
<polygon fill="midnightblue" stroke="midnightblue" points="82.48,-164.07 92.18,-168.32 87.25,-158.95 82.48,-164.07"/>
</g>
<!-- Node16 -->
<g id="node16" class="node">
<title>Node16</title>
<g id="a_node16"><a xlink:href="flash_8c.html" target="_top" xlink:title=" ">
<polygon fill="white" stroke="black" points="3.5,-56.5 3.5,-75.5 83.5,-75.5 83.5,-56.5 3.5,-56.5"/>
<text text-anchor="middle" x="43.5" y="-63.5" font-family="Helvetica,sans-Serif" font-size="10.00">src/P2/flash.c</text>
</a>
</g>
</g>
<!-- Node15&#45;&gt;Node16 -->
<g id="edge15" class="edge">
<title>Node15&#45;&gt;Node16</title>
<path fill="none" stroke="midnightblue" d="M43.5,-101.8C43.5,-92.91 43.5,-82.78 43.5,-75.75"/>
<polygon fill="midnightblue" stroke="midnightblue" points="40,-102.08 43.5,-112.08 47,-102.08 40,-102.08"/>
</g>
<!-- Node18 -->
<g id="node18" class="node">
<title>Node18</title>
<g id="a_node18"><a xlink:href="chkpnt_8h.html" target="_top" xlink:title="Checkpoint system.">
<polygon fill="white" stroke="black" points="1222,-112.5 1222,-131.5 1319,-131.5 1319,-112.5 1222,-112.5"/>
<text text-anchor="middle" x="1270.5" y="-119.5" font-family="Helvetica,sans-Serif" font-size="10.00">include/chkpnt.h</text>
</a>
</g>
</g>
<!-- Node17&#45;&gt;Node18 -->
<g id="edge18" class="edge">
<title>Node17&#45;&gt;Node18</title>
<path fill="none" stroke="midnightblue" d="M1270.5,-157.8C1270.5,-148.91 1270.5,-138.78 1270.5,-131.75"/>
<polygon fill="midnightblue" stroke="midnightblue" points="1267,-158.08 1270.5,-168.08 1274,-158.08 1267,-158.08"/>
</g>
<!-- Node18&#45;&gt;Node6 -->
<g id="edge20" class="edge">
<title>Node18&#45;&gt;Node6</title>
<path fill="none" stroke="midnightblue" d="M1329.2,-112.15C1402.86,-101.03 1527.12,-82.29 1589.83,-72.83"/>
<polygon fill="midnightblue" stroke="midnightblue" points="1328.52,-108.71 1319.15,-113.66 1329.56,-115.63 1328.52,-108.71"/>
</g>
<!-- Node19 -->
<g id="node19" class="node">
<title>Node19</title>
<g id="a_node19"><a xlink:href="chkpnt_8c.html" target="_top" xlink:title=" ">
<polygon fill="white" stroke="black" points="1294.5,-56.5 1294.5,-75.5 1384.5,-75.5 1384.5,-56.5 1294.5,-56.5"/>
<text text-anchor="middle" x="1339.5" y="-63.5" font-family="Helvetica,sans-Serif" font-size="10.00">src/P2/chkpnt.c</text>
</a>
</g>
</g>
<!-- Node18&#45;&gt;Node19 -->
<g id="edge19" class="edge">
<title>Node18&#45;&gt;Node19</title>
<path fill="none" stroke="midnightblue" d="M1289.54,-106.1C1301.96,-96.38 1317.74,-84.03 1328.21,-75.83"/>
<polygon fill="midnightblue" stroke="midnightblue" points="1287.3,-103.4 1281.59,-112.32 1291.62,-108.92 1287.3,-103.4"/>
</g>
<!-- Node20 -->
<g id="node20" class="node">
<title>Node20</title>
<g id="a_node20"><a xlink:href="transition_8c.html" target="_top" xlink:title=" ">
<polygon fill="white" stroke="black" points="1172.5,-56.5 1172.5,-75.5 1276.5,-75.5 1276.5,-56.5 1172.5,-56.5"/>
<text text-anchor="middle" x="1224.5" y="-63.5" font-family="Helvetica,sans-Serif" font-size="10.00">src/P2/transition.c</text>
</a>
</g>
</g>
<!-- Node18&#45;&gt;Node20 -->
<g id="edge21" class="edge">
<title>Node18&#45;&gt;Node20</title>
<path fill="none" stroke="midnightblue" d="M1256.39,-104.43C1248.32,-94.97 1238.54,-83.48 1231.95,-75.75"/>
<polygon fill="midnightblue" stroke="midnightblue" points="1253.75,-106.74 1262.9,-112.08 1259.08,-102.2 1253.75,-106.74"/>
</g>
<!-- Node21 -->
<g id="node21" class="node">
<title>Node21</title>
<g id="a_node21"><a xlink:href="difficulty_8h.html" target="_top" xlink:title="Dynamic difficulty system.">
<polygon fill="white" stroke="black" points="1026,-56.5 1026,-75.5 1131,-75.5 1131,-56.5 1026,-56.5"/>
<text text-anchor="middle" x="1078.5" y="-63.5" font-family="Helvetica,sans-Serif" font-size="10.00">include/difficulty.h</text>
</a>
</g>
</g>
<!-- Node18&#45;&gt;Node21 -->
<g id="edge22" class="edge">
<title>Node18&#45;&gt;Node21</title>
<path fill="none" stroke="midnightblue" d="M1230.32,-109.7C1194.08,-99.51 1141.59,-84.74 1108.78,-75.52"/>
<polygon fill="midnightblue" stroke="midnightblue" points="1229.5,-113.11 1240.08,-112.44 1231.4,-106.37 1229.5,-113.11"/>
</g>
<!-- Node22 -->
<g id="node22" class="node">
<title>Node22</title>
<g id="a_node22"><a xlink:href="difficulty_8c.html" target="_top" xlink:title=" ">
<polygon fill="white" stroke="black" points="1029.5,-0.5 1029.5,-19.5 1127.5,-19.5 1127.5,-0.5 1029.5,-0.5"/>
<text text-anchor="middle" x="1078.5" y="-7.5" font-family="Helvetica,sans-Serif" font-size="10.00">src/P2/difficulty.c</text>
</a>
</g>
</g>
<!-- Node21&#45;&gt;Node22 -->
<g id="edge23" class="edge">
<title>Node21&#45;&gt;Node22</title>
<path fill="none" stroke="midnightblue" d="M1078.5,-45.8C1078.5,-36.91 1078.5,-26.78 1078.5,-19.75"/>
<polygon fill="midnightblue" stroke="midnightblue" points="1075,-46.08 1078.5,-56.08 1082,-46.08 1075,-46.08"/>
</g>
<!-- Node23&#45;&gt;Node7 -->
<g id="edge25" class="edge">
<title>Node23&#45;&gt;Node7</title>
<path fill="none" stroke="midnightblue" d="M1201.15,-394.08C1274.74,-383.4 1414.81,-363.07 1484.3,-352.98"/>
<polygon fill="midnightblue" stroke="midnightblue" points="1200.61,-390.62 1191.22,-395.53 1201.62,-397.55 1200.61,-390.62"/>
</g>
<!-- Node24 -->
<g id="node24" class="node">
<title>Node24</title>
<g id="a_node24"><a xlink:href="po_8h.html" target="_top" xlink:title="Player object.">
<polygon fill="white" stroke="black" points="800.5,-336.5 800.5,-355.5 876.5,-355.5 876.5,-336.5 800.5,-336.5"/>
<text text-anchor="middle" x="838.5" y="-343.5" font-family="Helvetica,sans-Serif" font-size="10.00">include/po.h</text>
</a>
</g>
</g>
<!-- Node23&#45;&gt;Node24 -->
<g id="edge26" class="edge">
<title>Node23&#45;&gt;Node24</title>
<path fill="none" stroke="midnightblue" d="M1105.79,-392.82C1043.12,-382.08 934.27,-363.42 876.72,-353.55"/>
<polygon fill="midnightblue" stroke="midnightblue" points="1105.37,-396.3 1115.82,-394.54 1106.55,-389.4 1105.37,-396.3"/>
</g>
<!-- Node33 -->
<g id="node29" class="node">
<title>Node33</title>
<g id="a_node29"><a xlink:href="vec_8h.html" target="_top" xlink:title="Vector math.">
<polygon fill="white" stroke="black" points="1055,-336.5 1055,-355.5 1136,-355.5 1136,-336.5 1055,-336.5"/>
<text text-anchor="middle" x="1095.5" y="-343.5" font-family="Helvetica,sans-Serif" font-size="10.00">include/vec.h</text>
</a>
</g>
</g>
<!-- Node23&#45;&gt;Node33 -->
<g id="edge32" class="edge">
<title>Node23&#45;&gt;Node33</title>
<path fill="none" stroke="midnightblue" d="M1136.59,-385.25C1126.3,-375.67 1113.53,-363.79 1104.99,-355.83"/>
<polygon fill="midnightblue" stroke="midnightblue" points="1134.48,-388.07 1144.18,-392.32 1139.25,-382.95 1134.48,-388.07"/>
</g>
<!-- Node25 -->
<g id="node25" class="node">
<title>Node25</title>
<g id="a_node25"><a xlink:href="step_8h.html" target="_top" xlink:title=" ">
<polygon fill="white" stroke="black" points="476,-280.5 476,-299.5 561,-299.5 561,-280.5 476,-280.5"/>
<text text-anchor="middle" x="518.5" y="-287.5" font-family="Helvetica,sans-Serif" font-size="10.00">include/step.h</text>
</a>
</g>
</g>
<!-- Node24&#45;&gt;Node25 -->
<g id="edge27" class="edge">
<title>Node24&#45;&gt;Node25</title>
<path fill="none" stroke="midnightblue" d="M790.25,-336.86C727.97,-326.35 620.57,-308.22 561.15,-298.2"/>
<polygon fill="midnightblue" stroke="midnightblue" points="789.78,-340.33 800.22,-338.54 790.94,-333.42 789.78,-340.33"/>
</g>
<!-- Node26 -->
<g id="node26" class="node">
<title>Node26</title>
<g id="a_node26"><a xlink:href="jt_8h.html" target="_top" xlink:title="Sly entity.">
<polygon fill="white" stroke="red" points="407,-224.5 407,-243.5 478,-243.5 478,-224.5 407,-224.5"/>
<text text-anchor="middle" x="442.5" y="-231.5" font-family="Helvetica,sans-Serif" font-size="10.00">include/jt.h</text>
</a>
</g>
</g>
<!-- Node25&#45;&gt;Node26 -->
<g id="edge28" class="edge">
<title>Node25&#45;&gt;Node26</title>
<path fill="none" stroke="midnightblue" d="M497.92,-274.38C484.19,-264.62 466.57,-252.11 454.93,-243.83"/>
<polygon fill="midnightblue" stroke="midnightblue" points="496.11,-277.38 506.29,-280.32 500.16,-271.68 496.11,-277.38"/>
</g>
<!-- Node29 -->
<g id="node27" class="node">
<title>Node29</title>
<g id="a_node27"><a xlink:href="steppower_8c.html" target="_top" xlink:title=" ">
<polygon fill="white" stroke="black" points="334,-112.5 334,-131.5 441,-131.5 441,-112.5 334,-112.5"/>
<text text-anchor="middle" x="387.5" y="-119.5" font-family="Helvetica,sans-Serif" font-size="10.00">src/P2/steppower.c</text>
</a>
</g>
</g>
<!-- Node26&#45;&gt;Node29 -->
<g id="edge29" class="edge">
<title>Node26&#45;&gt;Node29</title>
<path fill="none" stroke="midnightblue" d="M433.67,-214.88C427.28,-201.82 418.42,-183.79 410.5,-168 404.13,-155.3 396.61,-140.65 391.95,-131.61"/>
<polygon fill="midnightblue" stroke="midnightblue" points="430.66,-216.7 438.19,-224.15 436.95,-213.63 430.66,-216.7"/>
</g>
<!-- Node30 -->
<g id="node28" class="node">
<title>Node30</title>
<g id="a_node28"><a xlink:href="steppower_8h.html" target="_top" xlink:title=" ">
<polygon fill="white" stroke="black" points="287.5,-168.5 287.5,-187.5 401.5,-187.5 401.5,-168.5 287.5,-168.5"/>
<text text-anchor="middle" x="344.5" y="-175.5" font-family="Helvetica,sans-Serif" font-size="10.00">include/steppower.h</text>
</a>
</g>
</g>
<!-- Node26&#45;&gt;Node30 -->
<g id="edge30" class="edge">
<title>Node26&#45;&gt;Node30</title>
<path fill="none" stroke="midnightblue" d="M417.91,-219.45C399.82,-209.48 375.77,-196.23 360.21,-187.65"/>
<polygon fill="midnightblue" stroke="midnightblue" points="416.31,-222.56 426.75,-224.32 419.69,-216.43 416.31,-222.56"/>
</g>
<!-- Node30&#45;&gt;Node29 -->
<g id="edge31" class="edge">
<title>Node30&#45;&gt;Node29</title>
<path fill="none" stroke="midnightblue" d="M357.92,-160.14C365.41,-150.74 374.44,-139.4 380.53,-131.75"/>
<polygon fill="midnightblue" stroke="midnightblue" points="355.09,-158.08 351.6,-168.08 360.57,-162.44 355.09,-158.08"/>
</g>
<!-- Node33&#45;&gt;Node18 -->
<g id="edge40" class="edge">
<title>Node33&#45;&gt;Node18</title>
<path fill="none" stroke="midnightblue" d="M1091.3,-326.48C1084.46,-291.19 1075.24,-213.75 1113.5,-168 1139.69,-136.68 1186.1,-126.36 1221.68,-123.32"/>
<polygon fill="midnightblue" stroke="midnightblue" points="1087.89,-327.3 1093.37,-336.36 1094.74,-325.86 1087.89,-327.3"/>
</g>
<!-- Node34 -->
<g id="node30" class="node">
<title>Node34</title>
<g id="a_node30"><a xlink:href="util_8c.html" target="_top" xlink:title=" ">
<polygon fill="white" stroke="black" points="902,-224.5 902,-243.5 975,-243.5 975,-224.5 902,-224.5"/>
<text text-anchor="middle" x="938.5" y="-231.5" font-family="Helvetica,sans-Serif" font-size="10.00">src/P2/util.c</text>
</a>
</g>
</g>
<!-- Node33&#45;&gt;Node34 -->
<g id="edge33" class="edge">
<title>Node33&#45;&gt;Node34</title>
<path fill="none" stroke="midnightblue" d="M1074.69,-330.42C1041.48,-307.15 977.54,-262.35 950.76,-243.59"/>
<polygon fill="midnightblue" stroke="midnightblue" points="1072.98,-333.5 1083.18,-336.37 1077,-327.76 1072.98,-333.5"/>
</g>
<!-- Node35 -->
<g id="node31" class="node">
<title>Node35</title>
<g id="a_node31"><a xlink:href="vec_8c.html" target="_top" xlink:title=" ">
<polygon fill="white" stroke="black" points="993.5,-224.5 993.5,-243.5 1067.5,-243.5 1067.5,-224.5 993.5,-224.5"/>
<text text-anchor="middle" x="1030.5" y="-231.5" font-family="Helvetica,sans-Serif" font-size="10.00">src/P2/vec.c</text>
</a>
</g>
</g>
<!-- Node33&#45;&gt;Node35 -->
<g id="edge34" class="edge">
<title>Node33&#45;&gt;Node35</title>
<path fill="none" stroke="midnightblue" d="M1085.24,-327.64C1071.12,-303.74 1046.24,-261.63 1035.58,-243.59"/>
<polygon fill="midnightblue" stroke="midnightblue" points="1082.3,-329.54 1090.4,-336.37 1088.33,-325.98 1082.3,-329.54"/>
</g>
<!-- Node36 -->
<g id="node32" class="node">
<title>Node36</title>
<g id="a_node32"><a xlink:href="bis_8h.html" target="_top" xlink:title="Binary Input Stream.">
<polygon fill="white" stroke="black" points="1413.5,-280.5 1413.5,-299.5 1491.5,-299.5 1491.5,-280.5 1413.5,-280.5"/>
<text text-anchor="middle" x="1452.5" y="-287.5" font-family="Helvetica,sans-Serif" font-size="10.00">include/bis.h</text>
</a>
</g>
</g>
<!-- Node33&#45;&gt;Node36 -->
<g id="edge35" class="edge">
<title>Node33&#45;&gt;Node36</title>
<path fill="none" stroke="midnightblue" d="M1146.28,-337.32C1218.23,-326.44 1348.28,-306.76 1413.29,-296.93"/>
<polygon fill="midnightblue" stroke="midnightblue" points="1145.47,-333.9 1136.1,-338.86 1146.52,-340.82 1145.47,-333.9"/>
</g>
<!-- Node38 -->
<g id="node34" class="node">
<title>Node38</title>
<g id="a_node34"><a xlink:href="shd_8h.html" target="_top" xlink:title="Shaders.">
<polygon fill="white" stroke="red" points="1127,-224.5 1127,-243.5 1208,-243.5 1208,-224.5 1127,-224.5"/>
<text text-anchor="middle" x="1167.5" y="-231.5" font-family="Helvetica,sans-Serif" font-size="10.00">include/shd.h</text>
</a>
</g>
</g>
<!-- Node33&#45;&gt;Node38 -->
<g id="edge41" class="edge">
<title>Node33&#45;&gt;Node38</title>
<path fill="none" stroke="midnightblue" d="M1106.66,-327.96C1122.26,-304.12 1150.02,-261.71 1161.88,-243.59"/>
<polygon fill="midnightblue" stroke="midnightblue" points="1103.7,-326.08 1101.15,-336.37 1109.55,-329.92 1103.7,-326.08"/>
</g>
<!-- Node48 -->
<g id="node36" class="node">
<title>Node48</title>
<g id="a_node36"><a xlink:href="vecmat_8h.html" target="_top" xlink:title=" ">
<polygon fill="white" stroke="black" points="713.5,-224.5 713.5,-243.5 845.5,-243.5 845.5,-224.5 713.5,-224.5"/>
<text text-anchor="middle" x="779.5" y="-231.5" font-family="Helvetica,sans-Serif" font-size="10.00">include/splice/vecmat.h</text>
</a>
</g>
</g>
<!-- Node33&#45;&gt;Node48 -->
<g id="edge43" class="edge">
<title>Node33&#45;&gt;Node48</title>
<path fill="none" stroke="midnightblue" d="M1061.33,-333.1C997.21,-310.79 860.31,-263.13 804.24,-243.61"/>
<polygon fill="midnightblue" stroke="midnightblue" points="1060.37,-336.48 1070.97,-336.46 1062.67,-329.87 1060.37,-336.48"/>
</g>
<!-- Node52 -->
<g id="node40" class="node">
<title>Node52</title>
<g id="a_node40"><a xlink:href="surf_8h.html" target="_top" xlink:title="Surfaces?">
<polygon fill="white" stroke="black" points="1161.5,-280.5 1161.5,-299.5 1243.5,-299.5 1243.5,-280.5 1161.5,-280.5"/>
<text text-anchor="middle" x="1202.5" y="-287.5" font-family="Helvetica,sans-Serif" font-size="10.00">include/surf.h</text>
</a>
</g>
</g>
<!-- Node33&#45;&gt;Node52 -->
<g id="edge47" class="edge">
<title>Node33&#45;&gt;Node52</title>
<path fill="none" stroke="midnightblue" d="M1121.8,-331.73C1141.61,-321.73 1168.21,-308.31 1185.35,-299.65"/>
<polygon fill="midnightblue" stroke="midnightblue" points="1120.04,-328.69 1112.69,-336.32 1123.2,-334.94 1120.04,-328.69"/>
</g>
<!-- Node53 -->
<g id="node41" class="node">
<title>Node53</title>
<g id="a_node41"><a xlink:href="util_8h.html" target="_top" xlink:title="Utility functions.">
<polygon fill="white" stroke="black" points="686.5,-280.5 686.5,-299.5 766.5,-299.5 766.5,-280.5 686.5,-280.5"/>
<text text-anchor="middle" x="726.5" y="-287.5" font-family="Helvetica,sans-Serif" font-size="10.00">include/util.h</text>
</a>
</g>
</g>
<!-- Node33&#45;&gt;Node53 -->
<g id="edge50" class="edge">
<title>Node33&#45;&gt;Node53</title>
<path fill="none" stroke="midnightblue" d="M1044.93,-337.6C970.81,-326.75 834.16,-306.76 766.55,-296.86"/>
<polygon fill="midnightblue" stroke="midnightblue" points="1044.55,-341.08 1054.96,-339.07 1045.57,-334.16 1044.55,-341.08"/>
</g>
<!-- Node36&#45;&gt;Node6 -->
<g id="edge37" class="edge">
<title>Node36&#45;&gt;Node6</title>
<path fill="none" stroke="midnightblue" d="M1501.51,-278.11C1530.81,-270.61 1568.28,-259.23 1599.5,-244 1638.51,-224.97 1659.46,-226.5 1679.5,-188 1700.66,-147.36 1657.15,-95.94 1637.48,-75.73"/>
<polygon fill="midnightblue" stroke="midnightblue" points="1500.37,-274.79 1491.51,-280.6 1502.06,-281.58 1500.37,-274.79"/>
</g>
<!-- Node36&#45;&gt;Node10 -->
<g id="edge39" class="edge">
<title>Node36&#45;&gt;Node10</title>
<path fill="none" stroke="midnightblue" d="M1426.69,-275.73C1407.25,-265.73 1381.15,-252.31 1364.33,-243.65"/>
<polygon fill="midnightblue" stroke="midnightblue" points="1425.14,-278.86 1435.63,-280.32 1428.34,-272.64 1425.14,-278.86"/>
</g>
<!-- Node36&#45;&gt;Node18 -->
<g id="edge38" class="edge">
<title>Node36&#45;&gt;Node18</title>
<path fill="none" stroke="midnightblue" d="M1467.06,-272.7C1491.33,-245.46 1537.6,-193.11 1539.5,-188 1542.59,-179.67 1545.24,-174.78 1539.5,-168 1511.81,-135.29 1388.8,-126.34 1319.11,-123.9"/>
<polygon fill="midnightblue" stroke="midnightblue" points="1464.35,-270.48 1460.31,-280.27 1469.58,-275.14 1464.35,-270.48"/>
</g>
<!-- Node37 -->
<g id="node33" class="node">
<title>Node37</title>
<g id="a_node33"><a xlink:href="bis_8c.html" target="_top" xlink:title=" ">
<polygon fill="white" stroke="black" points="1519,-224.5 1519,-243.5 1590,-243.5 1590,-224.5 1519,-224.5"/>
<text text-anchor="middle" x="1554.5" y="-231.5" font-family="Helvetica,sans-Serif" font-size="10.00">src/P2/bis.c</text>
</a>
</g>
</g>
<!-- Node36&#45;&gt;Node37 -->
<g id="edge36" class="edge">
<title>Node36&#45;&gt;Node37</title>
<path fill="none" stroke="midnightblue" d="M1477.83,-275.59C1496.69,-265.61 1521.88,-252.27 1538.15,-243.65"/>
<polygon fill="midnightblue" stroke="midnightblue" points="1476.09,-272.55 1468.89,-280.32 1479.36,-278.74 1476.09,-272.55"/>
</g>
<!-- Node39 -->
<g id="node35" class="node">
<title>Node39</title>
<g id="a_node35"><a xlink:href="dmas_8h.html" target="_top" xlink:title="Direct memory access.">
<polygon fill="white" stroke="red" points="1122,-168.5 1122,-187.5 1213,-187.5 1213,-168.5 1122,-168.5"/>
<text text-anchor="middle" x="1167.5" y="-175.5" font-family="Helvetica,sans-Serif" font-size="10.00">include/dmas.h</text>
</a>
</g>
</g>
<!-- Node38&#45;&gt;Node39 -->
<g id="edge42" class="edge">
<title>Node38&#45;&gt;Node39</title>
<path fill="none" stroke="midnightblue" d="M1167.5,-213.8C1167.5,-204.91 1167.5,-194.78 1167.5,-187.75"/>
<polygon fill="midnightblue" stroke="midnightblue" points="1164,-214.08 1167.5,-224.08 1171,-214.08 1164,-214.08"/>
</g>
<!-- Node49 -->
<g id="node37" class="node">
<title>Node49</title>
<g id="a_node37"><a xlink:href="ref_8cpp.html" target="_top" xlink:title=" ">
<polygon fill="white" stroke="black" points="720,-168.5 720,-187.5 833,-187.5 833,-168.5 720,-168.5"/>
<text text-anchor="middle" x="776.5" y="-175.5" font-family="Helvetica,sans-Serif" font-size="10.00">src/P2/splice/ref.cpp</text>
</a>
</g>
</g>
<!-- Node48&#45;&gt;Node49 -->
<g id="edge44" class="edge">
<title>Node48&#45;&gt;Node49</title>
<path fill="none" stroke="midnightblue" d="M778.43,-213.8C777.94,-204.91 777.38,-194.78 776.99,-187.75"/>
<polygon fill="midnightblue" stroke="midnightblue" points="774.96,-214.29 779,-224.08 781.94,-213.9 774.96,-214.29"/>
</g>
<!-- Node50 -->
<g id="node38" class="node">
<title>Node50</title>
<g id="a_node38"><a xlink:href="spliceutils_8cpp.html" target="_top" xlink:title=" ">
<polygon fill="white" stroke="black" points="755.5,-112.5 755.5,-131.5 905.5,-131.5 905.5,-112.5 755.5,-112.5"/>
<text text-anchor="middle" x="830.5" y="-119.5" font-family="Helvetica,sans-Serif" font-size="10.00">src/P2/splice/spliceutils.cpp</text>
</a>
</g>
</g>
<!-- Node48&#45;&gt;Node50 -->
<g id="edge45" class="edge">
<title>Node48&#45;&gt;Node50</title>
<path fill="none" stroke="midnightblue" d="M809.32,-219.61C821.98,-212.23 835.42,-201.75 842.5,-188 851.95,-169.63 842.18,-144.96 835.54,-131.93"/>
<polygon fill="midnightblue" stroke="midnightblue" points="807.5,-216.61 800.35,-224.43 810.81,-222.78 807.5,-216.61"/>
</g>
<!-- Node51 -->
<g id="node39" class="node">
<title>Node51</title>
<g id="a_node39"><a xlink:href="vecmat_8cpp.html" target="_top" xlink:title=" ">
<polygon fill="white" stroke="black" points="890,-168.5 890,-187.5 1027,-187.5 1027,-168.5 890,-168.5"/>
<text text-anchor="middle" x="958.5" y="-175.5" font-family="Helvetica,sans-Serif" font-size="10.00">src/P2/splice/vecmat.cpp</text>
</a>
</g>
</g>
<!-- Node48&#45;&gt;Node51 -->
<g id="edge46" class="edge">
<title>Node48&#45;&gt;Node51</title>
<path fill="none" stroke="midnightblue" d="M817.83,-221.44C851.58,-211.26 899.95,-196.66 930.27,-187.52"/>
<polygon fill="midnightblue" stroke="midnightblue" points="816.43,-218.2 807.86,-224.44 818.45,-224.91 816.43,-218.2"/>
</g>
<!-- Node52&#45;&gt;Node10 -->
<g id="edge49" class="edge">
<title>Node52&#45;&gt;Node10</title>
<path fill="none" stroke="midnightblue" d="M1234.98,-276.91C1262.24,-266.75 1300.49,-252.51 1324.63,-243.52"/>
<polygon fill="midnightblue" stroke="midnightblue" points="1233.63,-273.67 1225.48,-280.44 1236.07,-280.23 1233.63,-273.67"/>
</g>
<!-- Node52&#45;&gt;Node38 -->
<g id="edge48" class="edge">
<title>Node52&#45;&gt;Node38</title>
<path fill="none" stroke="midnightblue" d="M1191.2,-271.57C1185.18,-262.27 1178.03,-251.25 1173.17,-243.75"/>
<polygon fill="midnightblue" stroke="midnightblue" points="1188.34,-273.6 1196.72,-280.08 1194.22,-269.79 1188.34,-273.6"/>
</g>
<!-- Node53&#45;&gt;Node10 -->
<g id="edge68" class="edge">
<title>Node53&#45;&gt;Node10</title>
<path fill="none" stroke="midnightblue" d="M776.95,-284.61C894.74,-274.37 1186.51,-249 1300.66,-239.07"/>
<polygon fill="midnightblue" stroke="midnightblue" points="776.43,-281.15 766.77,-285.5 777.03,-288.12 776.43,-281.15"/>
</g>
<!-- Node53&#45;&gt;Node13 -->
<g id="edge54" class="edge">
<title>Node53&#45;&gt;Node13</title>
<path fill="none" stroke="midnightblue" d="M676.18,-286.13C573.92,-279.96 345.15,-264.32 269.5,-244 248.75,-238.43 245.39,-232.11 225.5,-224 191.78,-210.24 152.12,-196.22 126.9,-187.56"/>
<polygon fill="midnightblue" stroke="midnightblue" points="676.06,-289.63 686.25,-286.73 676.48,-282.64 676.06,-289.63"/>
</g>
<!-- Node53&#45;&gt;Node14 -->
<g id="edge51" class="edge">
<title>Node53&#45;&gt;Node14</title>
<path fill="none" stroke="midnightblue" d="M676.34,-285.88C579.78,-279.52 371.55,-263.94 302.5,-244 302.08,-243.88 188.82,-188.3 188.5,-188 170.89,-171.62 158.96,-145.21 153.65,-131.65"/>
<polygon fill="midnightblue" stroke="midnightblue" points="676.23,-289.38 686.43,-286.54 676.68,-282.4 676.23,-289.38"/>
</g>
<!-- Node53&#45;&gt;Node21 -->
<g id="edge55" class="edge">
<title>Node53&#45;&gt;Node21</title>
<path fill="none" stroke="midnightblue" d="M764.14,-277.26C789.92,-268.86 824.7,-256.81 854.5,-244 872.4,-236.31 875.27,-230.87 893.5,-224 954.83,-200.9 988.18,-232.27 1036.5,-188 1070.28,-157.06 1076.89,-97.56 1078.18,-75.5"/>
<polygon fill="midnightblue" stroke="midnightblue" points="762.82,-274.01 754.38,-280.41 764.97,-280.67 762.82,-274.01"/>
</g>
<!-- Node53&#45;&gt;Node34 -->
<g id="edge52" class="edge">
<title>Node53&#45;&gt;Node34</title>
<path fill="none" stroke="midnightblue" d="M769.85,-277.96C809.89,-267.76 868.53,-252.82 905.07,-243.52"/>
<polygon fill="midnightblue" stroke="midnightblue" points="768.92,-274.58 760.09,-280.44 770.65,-281.37 768.92,-274.58"/>
</g>
<!-- Node53&#45;&gt;Node35 -->
<g id="edge53" class="edge">
<title>Node53&#45;&gt;Node35</title>
<path fill="none" stroke="midnightblue" d="M776.74,-280.55C828.77,-271.73 912.41,-257.34 984.5,-244 987.38,-243.47 990.36,-242.91 993.36,-242.34"/>
<polygon fill="midnightblue" stroke="midnightblue" points="776.04,-277.12 766.77,-282.24 777.21,-284.02 776.04,-277.12"/>
</g>
<!-- Node53&#45;&gt;Node48 -->
<g id="edge67" class="edge">
<title>Node53&#45;&gt;Node48</title>
<path fill="none" stroke="midnightblue" d="M742.48,-272.72C751.82,-263.2 763.25,-251.56 770.91,-243.75"/>
<polygon fill="midnightblue" stroke="midnightblue" points="739.76,-270.49 735.25,-280.08 744.75,-275.4 739.76,-270.49"/>
</g>
<!-- Node54 -->
<g id="node42" class="node">
<title>Node54</title>
<g id="a_node42"><a xlink:href="joy_8h.html" target="_top" xlink:title="Joypad manager.">
<polygon fill="white" stroke="black" points="312,-224.5 312,-243.5 389,-243.5 389,-224.5 312,-224.5"/>
<text text-anchor="middle" x="350.5" y="-231.5" font-family="Helvetica,sans-Serif" font-size="10.00">include/joy.h</text>
</a>
</g>
</g>
<!-- Node53&#45;&gt;Node54 -->
<g id="edge56" class="edge">
<title>Node53&#45;&gt;Node54</title>
<path fill="none" stroke="midnightblue" d="M675.97,-282.85C611.46,-274.81 496.45,-259.89 398.5,-244 395.49,-243.51 392.37,-242.98 389.24,-242.43"/>
<polygon fill="midnightblue" stroke="midnightblue" points="675.91,-286.37 686.26,-284.12 676.77,-279.42 675.91,-286.37"/>
</g>
<!-- Node53&#45;&gt;Node56 -->
<g id="edge59" class="edge">
<title>Node53&#45;&gt;Node56</title>
<path fill="none" stroke="midnightblue" d="M676.17,-285.36C586.6,-278.67 393.67,-263.32 231.5,-244 226.82,-243.44 221.95,-242.81 217.09,-242.15"/>
<polygon fill="midnightblue" stroke="midnightblue" points="676.09,-288.86 686.32,-286.11 676.61,-281.88 676.09,-288.86"/>
</g>
<!-- Node57 -->
<g id="node45" class="node">
<title>Node57</title>
<g id="a_node45"><a xlink:href="ref_8h.html" target="_top" xlink:title=" ">
<polygon fill="white" stroke="black" points="587.5,-224.5 587.5,-243.5 695.5,-243.5 695.5,-224.5 587.5,-224.5"/>
<text text-anchor="middle" x="641.5" y="-231.5" font-family="Helvetica,sans-Serif" font-size="10.00">include/splice/ref.h</text>
</a>
</g>
</g>
<!-- Node53&#45;&gt;Node57 -->
<g id="edge61" class="edge">
<title>Node53&#45;&gt;Node57</title>
<path fill="none" stroke="midnightblue" d="M704.31,-274.9C688.72,-265 668.37,-252.07 655.12,-243.65"/>
<polygon fill="midnightblue" stroke="midnightblue" points="702.53,-277.92 712.84,-280.32 706.28,-272.01 702.53,-277.92"/>
</g>
<!-- Node54&#45;&gt;Node30 -->
<g id="edge58" class="edge">
<title>Node54&#45;&gt;Node30</title>
<path fill="none" stroke="midnightblue" d="M348.4,-214.1C347.4,-205.14 346.26,-194.86 345.47,-187.75"/>
<polygon fill="midnightblue" stroke="midnightblue" points="344.93,-214.53 349.51,-224.08 351.88,-213.76 344.93,-214.53"/>
</g>
<!-- Node55 -->
<g id="node43" class="node">
<title>Node55</title>
<g id="a_node43"><a xlink:href="joy_8c.html" target="_top" xlink:title=" ">
<polygon fill="white" stroke="black" points="198,-168.5 198,-187.5 269,-187.5 269,-168.5 198,-168.5"/>
<text text-anchor="middle" x="233.5" y="-175.5" font-family="Helvetica,sans-Serif" font-size="10.00">src/P2/joy.c</text>
</a>
</g>
</g>
<!-- Node54&#45;&gt;Node55 -->
<g id="edge57" class="edge">
<title>Node54&#45;&gt;Node55</title>
<path fill="none" stroke="midnightblue" d="M322.84,-220.23C300.95,-210.13 271,-196.31 251.95,-187.52"/>
<polygon fill="midnightblue" stroke="midnightblue" points="321.41,-223.43 331.96,-224.44 324.35,-217.08 321.41,-223.43"/>
</g>
<!-- Node56&#45;&gt;Node13 -->
<g id="edge60" class="edge">
<title>Node56&#45;&gt;Node13</title>
<path fill="none" stroke="midnightblue" d="M151.46,-218.1C139.04,-208.38 123.26,-196.03 112.79,-187.83"/>
<polygon fill="midnightblue" stroke="midnightblue" points="149.38,-220.92 159.41,-224.32 153.7,-215.4 149.38,-220.92"/>
</g>
<!-- Node57&#45;&gt;Node49 -->
<g id="edge63" class="edge">
<title>Node57&#45;&gt;Node49</title>
<path fill="none" stroke="midnightblue" d="M672.41,-220.64C697.74,-210.5 732.93,-196.43 755.21,-187.52"/>
<polygon fill="midnightblue" stroke="midnightblue" points="670.88,-217.48 662.89,-224.44 673.48,-223.98 670.88,-217.48"/>
</g>
<!-- Node58 -->
<g id="node46" class="node">
<title>Node58</title>
<g id="a_node46"><a xlink:href="bif_8cpp.html" target="_top" xlink:title=" ">
<polygon fill="white" stroke="black" points="458,-168.5 458,-187.5 571,-187.5 571,-168.5 458,-168.5"/>
<text text-anchor="middle" x="514.5" y="-175.5" font-family="Helvetica,sans-Serif" font-size="10.00">src/P2/splice/bif.cpp</text>
</a>
</g>
</g>
<!-- Node57&#45;&gt;Node58 -->
<g id="edge62" class="edge">
<title>Node57&#45;&gt;Node58</title>
<path fill="none" stroke="midnightblue" d="M612.11,-220.5C588.3,-210.38 555.39,-196.39 534.53,-187.52"/>
<polygon fill="midnightblue" stroke="midnightblue" points="610.8,-223.75 621.38,-224.44 613.54,-217.31 610.8,-223.75"/>
</g>
<!-- Node59 -->
<g id="node47" class="node">
<title>Node59</title>
<g id="a_node47"><a xlink:href="pair_8h.html" target="_top" xlink:title=" ">
<polygon fill="white" stroke="black" points="589,-168.5 589,-187.5 702,-187.5 702,-168.5 589,-168.5"/>
<text text-anchor="middle" x="645.5" y="-175.5" font-family="Helvetica,sans-Serif" font-size="10.00">include/splice/pair.h</text>
</a>
</g>
</g>
<!-- Node57&#45;&gt;Node59 -->
<g id="edge64" class="edge">
<title>Node57&#45;&gt;Node59</title>
<path fill="none" stroke="midnightblue" d="M642.9,-214.1C643.56,-205.14 644.33,-194.86 644.85,-187.75"/>
<polygon fill="midnightblue" stroke="midnightblue" points="639.41,-213.85 642.16,-224.08 646.39,-214.37 639.41,-213.85"/>
</g>
<!-- Node59&#45;&gt;Node50 -->
<g id="edge66" class="edge">
<title>Node59&#45;&gt;Node50</title>
<path fill="none" stroke="midnightblue" d="M684.67,-165.57C719.57,-155.38 769.85,-140.7 801.32,-131.52"/>
<polygon fill="midnightblue" stroke="midnightblue" points="683.43,-162.28 674.81,-168.44 685.39,-169 683.43,-162.28"/>
</g>
<!-- Node60 -->
<g id="node48" class="node">
<title>Node60</title>
<g id="a_node48"><a xlink:href="pair_8cpp.html" target="_top" xlink:title=" ">
<polygon fill="white" stroke="black" points="586,-112.5 586,-131.5 705,-131.5 705,-112.5 586,-112.5"/>
<text text-anchor="middle" x="645.5" y="-119.5" font-family="Helvetica,sans-Serif" font-size="10.00">src/P2/splice/pair.cpp</text>
</a>
</g>
</g>
<!-- Node59&#45;&gt;Node60 -->
<g id="edge65" class="edge">
<title>Node59&#45;&gt;Node60</title>
<path fill="none" stroke="midnightblue" d="M645.5,-157.8C645.5,-148.91 645.5,-138.78 645.5,-131.75"/>
<polygon fill="midnightblue" stroke="midnightblue" points="642,-158.08 645.5,-168.08 649,-158.08 642,-158.08"/>
</g>
<!-- Node61&#45;&gt;Node10 -->
<g id="edge76" class="edge">
<title>Node61&#45;&gt;Node10</title>
<path fill="none" stroke="midnightblue" d="M651.21,-399.28C771.14,-395.07 1053.79,-382.57 1145.5,-356 1227.17,-332.34 1309.48,-267.25 1337.47,-243.67"/>
<polygon fill="midnightblue" stroke="midnightblue" points="651.02,-395.79 641.14,-399.63 651.26,-402.78 651.02,-395.79"/>
</g>
<!-- Node61&#45;&gt;Node62 -->
<g id="edge72" class="edge">
<title>Node61&#45;&gt;Node62</title>
<path fill="none" stroke="midnightblue" d="M596.5,-381.8C596.5,-372.91 596.5,-362.78 596.5,-355.75"/>
<polygon fill="midnightblue" stroke="midnightblue" points="593,-382.08 596.5,-392.08 600,-382.08 593,-382.08"/>
</g>
<!-- Node62&#45;&gt;Node5 -->
<g id="edge73" class="edge">
<title>Node62&#45;&gt;Node5</title>
<path fill="none" stroke="midnightblue" d="M646.24,-342.29C789,-334.4 1193.58,-311.33 1252.5,-300 1323.63,-286.33 1533.4,-212.83 1604.57,-187.55"/>
<polygon fill="midnightblue" stroke="midnightblue" points="645.82,-338.8 636.03,-342.85 646.2,-345.79 645.82,-338.8"/>
</g>
<!-- Node62&#45;&gt;Node15 -->
<g id="edge74" class="edge">
<title>Node62&#45;&gt;Node15</title>
<path fill="none" stroke="midnightblue" d="M546.71,-343.06C456.01,-337.75 259.79,-317.91 114.5,-244 81.4,-227.16 69.87,-220.82 52.5,-188 42.8,-169.68 42.34,-144.55 42.89,-131.56"/>
<polygon fill="midnightblue" stroke="midnightblue" points="546.54,-346.56 556.72,-343.62 546.93,-339.57 546.54,-346.56"/>
</g>
<!-- Node62&#45;&gt;Node53 -->
<g id="edge75" class="edge">
<title>Node62&#45;&gt;Node53</title>
<path fill="none" stroke="midnightblue" d="M626.59,-332.5C650.96,-322.38 684.64,-308.39 706,-299.52"/>
<polygon fill="midnightblue" stroke="midnightblue" points="624.99,-329.38 617.1,-336.44 627.68,-335.84 624.99,-329.38"/>
</g>
</g>
</svg>
