<?xml version="1.0" encoding="UTF-8" standalone="no"?>
<!DOCTYPE svg PUBLIC "-//W3C//DTD SVG 1.1//EN"
 "http://www.w3.org/Graphics/SVG/1.1/DTD/svg11.dtd">
<!-- Generated by graphviz version 2.43.0 (0)
 -->
<!-- Title: include/mq.h Pages: 1 -->
<!--zoomable 588 -->
<svg id="main" version="1.1" xmlns="http://www.w3.org/2000/svg" xmlns:xlink="http://www.w3.org/1999/xlink" xml:space="preserve" onload="init(evt)">
<style type="text/css"><![CDATA[
.edge:hover path { stroke: red; }
.edge:hover polygon { stroke: red; fill: red; }
]]></style>
<script type="text/javascript"><![CDATA[
var edges = document.getElementsByTagName('g');
if (edges && edges.length) {
  for (var i=0;i<edges.length;i++) {
    if (edges[i].id.substr(0,4)=='edge') {
      edges[i].setAttribute('class','edge');
    }
  }
}
]]></script>
        <defs>
                <circle id="rim" cx="0" cy="0" r="7"/>
                <circle id="rim2" cx="0" cy="0" r="3.5"/>
                <g id="zoomPlus">
                        <use xlink:href="#rim" fill="#404040">
                                <set attributeName="fill" to="#808080" begin="zoomplus.mouseover" end="zoomplus.mouseout"/>
                        </use>
                        <path d="M-4,0h8M0,-4v8" fill="none" stroke="white" stroke-width="1.5" pointer-events="none"/>
                </g>
                <g id="zoomMin">
                        <use xlink:href="#rim" fill="#404040">
                                <set attributeName="fill" to="#808080" begin="zoomminus.mouseover" end="zoomminus.mouseout"/>
                        </use>
                        <path d="M-4,0h8" fill="none" stroke="white" stroke-width="1.5" pointer-events="none"/>
                </g>
                <g id="dirArrow">
                        <path fill="none" stroke="white" stroke-width="1.5" d="M0,-3.0v7 M-2.5,-0.5L0,-3.0L2.5,-0.5"/>
                </g>
               <g id="resetDef">
                       <use xlink:href="#rim2" fill="#404040">
                               <set attributeName="fill" to="#808080" begin="reset.mouseover" end="reset.mouseout"/>
                       </use>
               </g>
        </defs>

<script type="text/javascript">
var viewWidth = 1131;
var viewHeight = 588;
var sectionId = 'dynsection-1';
</script>
<script xlink:href="svgpan.js"/>
<svg id="graph" class="graph">
<g id="viewport">
<title>include/mq.h</title>
<polygon fill="white" stroke="transparent" points="-4,4 -4,-584 1126.79,-584 1126.79,4 -4,4"/>
<!-- Node1 -->
<g id="node1" class="node">
<title>Node1</title>
<g id="a_node1"><a xlink:title="Message queue(?).">
<polygon fill="#bfbfbf" stroke="black" points="110,-560.5 110,-579.5 190,-579.5 190,-560.5 110,-560.5"/>
<text text-anchor="middle" x="150" y="-567.5" font-family="Helvetica,sans-Serif" font-size="10.00">include/mq.h</text>
</a>
</g>
</g>
<!-- Node2 -->
<g id="node2" class="node">
<title>Node2</title>
<g id="a_node2"><a xlink:href="lo_8h.html" target="_top" xlink:title="Level objects.">
<polygon fill="white" stroke="black" points="224.5,-504.5 224.5,-523.5 297.5,-523.5 297.5,-504.5 224.5,-504.5"/>
<text text-anchor="middle" x="261" y="-511.5" font-family="Helvetica,sans-Serif" font-size="10.00">include/lo.h</text>
</a>
</g>
</g>
<!-- Node1&#45;&gt;Node2 -->
<g id="edge1" class="edge">
<title>Node1&#45;&gt;Node2</title>
<path fill="none" stroke="midnightblue" d="M177.01,-555.86C197.59,-545.85 225.34,-532.35 243.21,-523.65"/>
<polygon fill="midnightblue" stroke="midnightblue" points="175.3,-552.8 167.83,-560.32 178.36,-559.1 175.3,-552.8"/>
</g>
<!-- Node42 -->
<g id="node42" class="node">
<title>Node42</title>
<g id="a_node42"><a xlink:href="sm_8h.html" target="_top" xlink:title="State machines.">
<polygon fill="white" stroke="black" points="175.5,-224.5 175.5,-243.5 254.5,-243.5 254.5,-224.5 175.5,-224.5"/>
<text text-anchor="middle" x="215" y="-231.5" font-family="Helvetica,sans-Serif" font-size="10.00">include/sm.h</text>
</a>
</g>
</g>
<!-- Node1&#45;&gt;Node42 -->
<g id="edge60" class="edge">
<title>Node1&#45;&gt;Node42</title>
<path fill="none" stroke="midnightblue" d="M141.47,-551.28C131.99,-529.92 118,-492.67 118,-459 118,-459 118,-459 118,-345 118,-296.62 171.43,-259.46 198.98,-243.52"/>
<polygon fill="midnightblue" stroke="midnightblue" points="138.32,-552.79 145.68,-560.41 144.67,-549.86 138.32,-552.79"/>
</g>
<!-- Node3 -->
<g id="node3" class="node">
<title>Node3</title>
<g id="a_node3"><a xlink:href="alo_8h.html" target="_top" xlink:title=" ">
<polygon fill="white" stroke="black" points="308.5,-448.5 308.5,-467.5 387.5,-467.5 387.5,-448.5 308.5,-448.5"/>
<text text-anchor="middle" x="348" y="-455.5" font-family="Helvetica,sans-Serif" font-size="10.00">include/alo.h</text>
</a>
</g>
</g>
<!-- Node2&#45;&gt;Node3 -->
<g id="edge2" class="edge">
<title>Node2&#45;&gt;Node3</title>
<path fill="none" stroke="midnightblue" d="M283.72,-498.9C299.67,-489 320.5,-476.07 334.06,-467.65"/>
<polygon fill="midnightblue" stroke="midnightblue" points="281.63,-496.08 274.98,-504.32 285.32,-502.02 281.63,-496.08"/>
</g>
<!-- Node12 -->
<g id="node12" class="node">
<title>Node12</title>
<g id="a_node12"><a xlink:href="cm_8h.html" target="_top" xlink:title="Game camera.">
<polygon fill="white" stroke="black" points="843.5,-168.5 843.5,-187.5 922.5,-187.5 922.5,-168.5 843.5,-168.5"/>
<text text-anchor="middle" x="883" y="-175.5" font-family="Helvetica,sans-Serif" font-size="10.00">include/cm.h</text>
</a>
</g>
</g>
<!-- Node2&#45;&gt;Node12 -->
<g id="edge59" class="edge">
<title>Node2&#45;&gt;Node12</title>
<path fill="none" stroke="midnightblue" d="M307.91,-511.99C487.59,-507.5 1122,-485.79 1122,-403 1122,-403 1122,-403 1122,-289 1122,-258.9 1125.14,-244.39 1103,-224 1089.84,-211.89 982.51,-194.02 922.77,-184.87"/>
<polygon fill="midnightblue" stroke="midnightblue" points="307.63,-508.49 297.72,-512.24 307.8,-515.49 307.63,-508.49"/>
</g>
<!-- Node41 -->
<g id="node41" class="node">
<title>Node41</title>
<g id="a_node41"><a xlink:href="anim_8h.html" target="_top" xlink:title="Animation.">
<polygon fill="white" stroke="black" points="184.5,-280.5 184.5,-299.5 273.5,-299.5 273.5,-280.5 184.5,-280.5"/>
<text text-anchor="middle" x="229" y="-287.5" font-family="Helvetica,sans-Serif" font-size="10.00">include/anim.h</text>
</a>
</g>
</g>
<!-- Node2&#45;&gt;Node41 -->
<g id="edge54" class="edge">
<title>Node2&#45;&gt;Node41</title>
<path fill="none" stroke="midnightblue" d="M251.68,-495.45C241.8,-475.77 226.84,-442.6 221,-412 213.07,-370.43 222.52,-319.55 226.95,-299.6"/>
<polygon fill="midnightblue" stroke="midnightblue" points="248.61,-497.14 256.3,-504.42 254.83,-493.93 248.61,-497.14"/>
</g>
<!-- Node4 -->
<g id="node4" class="node">
<title>Node4</title>
<g id="a_node4"><a xlink:href="coin_8h.html" target="_top" xlink:title="Coins, keys, and other collectibles.">
<polygon fill="white" stroke="black" points="0,-168.5 0,-187.5 84,-187.5 84,-168.5 0,-168.5"/>
<text text-anchor="middle" x="42" y="-175.5" font-family="Helvetica,sans-Serif" font-size="10.00">include/coin.h</text>
</a>
</g>
</g>
<!-- Node3&#45;&gt;Node4 -->
<g id="edge3" class="edge">
<title>Node3&#45;&gt;Node4</title>
<path fill="none" stroke="midnightblue" d="M298.31,-446.51C273.45,-439.57 243.87,-428.61 221,-412 130.2,-346.05 63.27,-221.38 46.24,-187.61"/>
<polygon fill="midnightblue" stroke="midnightblue" points="297.72,-449.97 308.29,-449.15 299.52,-443.2 297.72,-449.97"/>
</g>
<!-- Node6 -->
<g id="node6" class="node">
<title>Node6</title>
<g id="a_node6"><a xlink:href="find_8h.html" target="_top" xlink:title="Find objects in the SW.">
<polygon fill="white" stroke="black" points="803,-392.5 803,-411.5 885,-411.5 885,-392.5 803,-392.5"/>
<text text-anchor="middle" x="844" y="-399.5" font-family="Helvetica,sans-Serif" font-size="10.00">include/find.h</text>
</a>
</g>
</g>
<!-- Node3&#45;&gt;Node6 -->
<g id="edge5" class="edge">
<title>Node3&#45;&gt;Node6</title>
<path fill="none" stroke="midnightblue" d="M397.63,-452.92C479.39,-445.98 647.43,-430.79 789,-412 793.51,-411.4 798.21,-410.72 802.89,-410.01"/>
<polygon fill="midnightblue" stroke="midnightblue" points="397.3,-449.44 387.63,-453.77 397.88,-456.41 397.3,-449.44"/>
</g>
<!-- Node8 -->
<g id="node8" class="node">
<title>Node8</title>
<g id="a_node8"><a xlink:href="proxy_8h.html" target="_top" xlink:title=" ">
<polygon fill="white" stroke="black" points="230,-392.5 230,-411.5 320,-411.5 320,-392.5 230,-392.5"/>
<text text-anchor="middle" x="275" y="-399.5" font-family="Helvetica,sans-Serif" font-size="10.00">include/proxy.h</text>
</a>
</g>
</g>
<!-- Node3&#45;&gt;Node8 -->
<g id="edge7" class="edge">
<title>Node3&#45;&gt;Node8</title>
<path fill="none" stroke="midnightblue" d="M327.86,-442.1C314.72,-432.38 298.02,-420.03 286.94,-411.83"/>
<polygon fill="midnightblue" stroke="midnightblue" points="326.15,-445.19 336.27,-448.32 330.31,-439.56 326.15,-445.19"/>
</g>
<!-- Node9 -->
<g id="node9" class="node">
<title>Node9</title>
<g id="a_node9"><a xlink:href="xform_8h.html" target="_top" xlink:title="Transform.">
<polygon fill="white" stroke="black" points="272.5,-224.5 272.5,-243.5 365.5,-243.5 365.5,-224.5 272.5,-224.5"/>
<text text-anchor="middle" x="319" y="-231.5" font-family="Helvetica,sans-Serif" font-size="10.00">include/xform.h</text>
</a>
</g>
</g>
<!-- Node3&#45;&gt;Node9 -->
<g id="edge53" class="edge">
<title>Node3&#45;&gt;Node9</title>
<path fill="none" stroke="midnightblue" d="M345.56,-438.3C339.59,-392.64 324.47,-276.85 320.16,-243.88"/>
<polygon fill="midnightblue" stroke="midnightblue" points="342.1,-438.83 346.86,-448.3 349.04,-437.93 342.1,-438.83"/>
</g>
<!-- Node21 -->
<g id="node21" class="node">
<title>Node21</title>
<g id="a_node21"><a xlink:href="so_8h.html" target="_top" xlink:title="Scene objects.">
<polygon fill="white" stroke="black" points="515.5,-392.5 515.5,-411.5 590.5,-411.5 590.5,-392.5 515.5,-392.5"/>
<text text-anchor="middle" x="553" y="-399.5" font-family="Helvetica,sans-Serif" font-size="10.00">include/so.h</text>
</a>
</g>
</g>
<!-- Node3&#45;&gt;Node21 -->
<g id="edge21" class="edge">
<title>Node3&#45;&gt;Node21</title>
<path fill="none" stroke="midnightblue" d="M390.41,-445.83C429.11,-435.63 485.49,-420.78 520.67,-411.52"/>
<polygon fill="midnightblue" stroke="midnightblue" points="389.26,-442.51 380.48,-448.44 391.04,-449.28 389.26,-442.51"/>
</g>
<!-- Node40 -->
<g id="node40" class="node">
<title>Node40</title>
<g id="a_node40"><a xlink:href="sound_8h.html" target="_top" xlink:title="Sound playback.">
<polygon fill="white" stroke="black" points="911.5,-224.5 911.5,-243.5 1004.5,-243.5 1004.5,-224.5 911.5,-224.5"/>
<text text-anchor="middle" x="958" y="-231.5" font-family="Helvetica,sans-Serif" font-size="10.00">include/sound.h</text>
</a>
</g>
</g>
<!-- Node3&#45;&gt;Node40 -->
<g id="edge52" class="edge">
<title>Node3&#45;&gt;Node40</title>
<path fill="none" stroke="midnightblue" d="M397.71,-451.68C449.14,-445.35 531.4,-432.92 600,-412 742.92,-368.42 898.91,-272.78 944.69,-243.62"/>
<polygon fill="midnightblue" stroke="midnightblue" points="397.05,-448.23 387.54,-452.9 397.88,-455.18 397.05,-448.23"/>
</g>
<!-- Node5 -->
<g id="node5" class="node">
<title>Node5</title>
<g id="a_node5"><a xlink:href="coin_8c.html" target="_top" xlink:title=" ">
<polygon fill="white" stroke="black" points="3.5,-112.5 3.5,-131.5 80.5,-131.5 80.5,-112.5 3.5,-112.5"/>
<text text-anchor="middle" x="42" y="-119.5" font-family="Helvetica,sans-Serif" font-size="10.00">src/P2/coin.c</text>
</a>
</g>
</g>
<!-- Node4&#45;&gt;Node5 -->
<g id="edge4" class="edge">
<title>Node4&#45;&gt;Node5</title>
<path fill="none" stroke="midnightblue" d="M42,-157.8C42,-148.91 42,-138.78 42,-131.75"/>
<polygon fill="midnightblue" stroke="midnightblue" points="38.5,-158.08 42,-168.08 45.5,-158.08 38.5,-158.08"/>
</g>
<!-- Node7 -->
<g id="node7" class="node">
<title>Node7</title>
<g id="a_node7"><a xlink:href="find_8c.html" target="_top" xlink:title=" ">
<polygon fill="white" stroke="black" points="806.5,-336.5 806.5,-355.5 881.5,-355.5 881.5,-336.5 806.5,-336.5"/>
<text text-anchor="middle" x="844" y="-343.5" font-family="Helvetica,sans-Serif" font-size="10.00">src/P2/find.c</text>
</a>
</g>
</g>
<!-- Node6&#45;&gt;Node7 -->
<g id="edge6" class="edge">
<title>Node6&#45;&gt;Node7</title>
<path fill="none" stroke="midnightblue" d="M844,-381.8C844,-372.91 844,-362.78 844,-355.75"/>
<polygon fill="midnightblue" stroke="midnightblue" points="840.5,-382.08 844,-392.08 847.5,-382.08 840.5,-382.08"/>
</g>
<!-- Node8&#45;&gt;Node9 -->
<g id="edge8" class="edge">
<title>Node8&#45;&gt;Node9</title>
<path fill="none" stroke="midnightblue" d="M279.93,-382.39C289.42,-346.59 309.9,-269.34 316.73,-243.57"/>
<polygon fill="midnightblue" stroke="midnightblue" points="276.54,-381.51 277.37,-392.08 283.31,-383.31 276.54,-381.51"/>
</g>
<!-- Node9&#45;&gt;Node4 -->
<g id="edge15" class="edge">
<title>Node9&#45;&gt;Node4</title>
<path fill="none" stroke="midnightblue" d="M265.24,-222.52C212.4,-212.22 132.82,-196.71 84.32,-187.25"/>
<polygon fill="midnightblue" stroke="midnightblue" points="264.62,-225.97 275.11,-224.44 265.96,-219.09 264.62,-225.97"/>
</g>
<!-- Node10 -->
<g id="node10" class="node">
<title>Node10</title>
<g id="a_node10"><a xlink:href="xform1_8c.html" target="_top" xlink:title=" ">
<polygon fill="white" stroke="black" points="352,-168.5 352,-187.5 444,-187.5 444,-168.5 352,-168.5"/>
<text text-anchor="middle" x="398" y="-175.5" font-family="Helvetica,sans-Serif" font-size="10.00">src/P2/xform1.c</text>
</a>
</g>
</g>
<!-- Node9&#45;&gt;Node10 -->
<g id="edge9" class="edge">
<title>Node9&#45;&gt;Node10</title>
<path fill="none" stroke="midnightblue" d="M340.03,-218.62C354.47,-208.76 373.14,-195.99 385.34,-187.65"/>
<polygon fill="midnightblue" stroke="midnightblue" points="337.97,-215.79 331.69,-224.32 341.92,-221.57 337.97,-215.79"/>
</g>
<!-- Node11 -->
<g id="node11" class="node">
<title>Node11</title>
<g id="a_node11"><a xlink:href="xform2_8c.html" target="_top" xlink:title=" ">
<polygon fill="white" stroke="black" points="462,-168.5 462,-187.5 554,-187.5 554,-168.5 462,-168.5"/>
<text text-anchor="middle" x="508" y="-175.5" font-family="Helvetica,sans-Serif" font-size="10.00">src/P2/xform2.c</text>
</a>
</g>
</g>
<!-- Node9&#45;&gt;Node11 -->
<g id="edge10" class="edge">
<title>Node9&#45;&gt;Node11</title>
<path fill="none" stroke="midnightblue" d="M359.01,-221.57C394.67,-211.38 446.04,-196.7 478.19,-187.52"/>
<polygon fill="midnightblue" stroke="midnightblue" points="357.6,-218.33 348.95,-224.44 359.52,-225.06 357.6,-218.33"/>
</g>
<!-- Node9&#45;&gt;Node12 -->
<g id="edge11" class="edge">
<title>Node9&#45;&gt;Node12</title>
<path fill="none" stroke="midnightblue" d="M375.84,-223.85C566.49,-200.68 616.99,-206.69 805,-188 817.48,-186.76 831.06,-185.25 843.35,-183.82"/>
<polygon fill="midnightblue" stroke="midnightblue" points="375.27,-220.4 365.77,-225.09 376.12,-227.35 375.27,-220.4"/>
</g>
<!-- Node16 -->
<g id="node16" class="node">
<title>Node16</title>
<g id="a_node16"><a xlink:href="vol_8h.html" target="_top" xlink:title="Volume object.">
<polygon fill="white" stroke="black" points="254.5,-168.5 254.5,-187.5 333.5,-187.5 333.5,-168.5 254.5,-168.5"/>
<text text-anchor="middle" x="294" y="-175.5" font-family="Helvetica,sans-Serif" font-size="10.00">include/vol.h</text>
</a>
</g>
</g>
<!-- Node9&#45;&gt;Node16 -->
<g id="edge16" class="edge">
<title>Node9&#45;&gt;Node16</title>
<path fill="none" stroke="midnightblue" d="M310.66,-214.98C306.42,-205.82 301.45,-195.09 298.05,-187.75"/>
<polygon fill="midnightblue" stroke="midnightblue" points="307.49,-216.48 314.87,-224.08 313.85,-213.54 307.49,-216.48"/>
</g>
<!-- Node13 -->
<g id="node13" class="node">
<title>Node13</title>
<g id="a_node13"><a xlink:href="cm_8c.html" target="_top" xlink:title=" ">
<polygon fill="white" stroke="black" points="847,-112.5 847,-131.5 919,-131.5 919,-112.5 847,-112.5"/>
<text text-anchor="middle" x="883" y="-119.5" font-family="Helvetica,sans-Serif" font-size="10.00">src/P2/cm.c</text>
</a>
</g>
</g>
<!-- Node12&#45;&gt;Node13 -->
<g id="edge12" class="edge">
<title>Node12&#45;&gt;Node13</title>
<path fill="none" stroke="midnightblue" d="M883,-157.8C883,-148.91 883,-138.78 883,-131.75"/>
<polygon fill="midnightblue" stroke="midnightblue" points="879.5,-158.08 883,-168.08 886.5,-158.08 879.5,-158.08"/>
</g>
<!-- Node14 -->
<g id="node14" class="node">
<title>Node14</title>
<g id="a_node14"><a xlink:href="flash_8h.html" target="_top" xlink:title="Flash (might be flash animation, or literal screen flashes).">
<polygon fill="white" stroke="black" points="696.5,-112.5 696.5,-131.5 783.5,-131.5 783.5,-112.5 696.5,-112.5"/>
<text text-anchor="middle" x="740" y="-119.5" font-family="Helvetica,sans-Serif" font-size="10.00">include/flash.h</text>
</a>
</g>
</g>
<!-- Node12&#45;&gt;Node14 -->
<g id="edge13" class="edge">
<title>Node12&#45;&gt;Node14</title>
<path fill="none" stroke="midnightblue" d="M850.97,-164.91C824.09,-154.75 786.36,-140.51 762.55,-131.52"/>
<polygon fill="midnightblue" stroke="midnightblue" points="849.75,-168.19 860.34,-168.44 852.22,-161.64 849.75,-168.19"/>
</g>
<!-- Node15 -->
<g id="node15" class="node">
<title>Node15</title>
<g id="a_node15"><a xlink:href="flash_8c.html" target="_top" xlink:title=" ">
<polygon fill="white" stroke="black" points="710,-56.5 710,-75.5 790,-75.5 790,-56.5 710,-56.5"/>
<text text-anchor="middle" x="750" y="-63.5" font-family="Helvetica,sans-Serif" font-size="10.00">src/P2/flash.c</text>
</a>
</g>
</g>
<!-- Node14&#45;&gt;Node15 -->
<g id="edge14" class="edge">
<title>Node14&#45;&gt;Node15</title>
<path fill="none" stroke="midnightblue" d="M743.5,-102.1C745.16,-93.14 747.06,-82.86 748.38,-75.75"/>
<polygon fill="midnightblue" stroke="midnightblue" points="740.03,-101.61 741.65,-112.08 746.91,-102.89 740.03,-101.61"/>
</g>
<!-- Node17 -->
<g id="node17" class="node">
<title>Node17</title>
<g id="a_node17"><a xlink:href="chkpnt_8h.html" target="_top" xlink:title="Checkpoint system.">
<polygon fill="white" stroke="black" points="532.5,-112.5 532.5,-131.5 629.5,-131.5 629.5,-112.5 532.5,-112.5"/>
<text text-anchor="middle" x="581" y="-119.5" font-family="Helvetica,sans-Serif" font-size="10.00">include/chkpnt.h</text>
</a>
</g>
</g>
<!-- Node16&#45;&gt;Node17 -->
<g id="edge17" class="edge">
<title>Node16&#45;&gt;Node17</title>
<path fill="none" stroke="midnightblue" d="M343.64,-167.66C397.69,-157.49 483.37,-141.37 535.66,-131.53"/>
<polygon fill="midnightblue" stroke="midnightblue" points="342.79,-164.26 333.6,-169.55 344.08,-171.14 342.79,-164.26"/>
</g>
<!-- Node18 -->
<g id="node18" class="node">
<title>Node18</title>
<g id="a_node18"><a xlink:href="chkpnt_8c.html" target="_top" xlink:title=" ">
<polygon fill="white" stroke="black" points="478,-56.5 478,-75.5 568,-75.5 568,-56.5 478,-56.5"/>
<text text-anchor="middle" x="523" y="-63.5" font-family="Helvetica,sans-Serif" font-size="10.00">src/P2/chkpnt.c</text>
</a>
</g>
</g>
<!-- Node17&#45;&gt;Node18 -->
<g id="edge18" class="edge">
<title>Node17&#45;&gt;Node18</title>
<path fill="none" stroke="midnightblue" d="M564.09,-105.25C553.8,-95.67 541.03,-83.79 532.49,-75.83"/>
<polygon fill="midnightblue" stroke="midnightblue" points="561.98,-108.07 571.68,-112.32 566.75,-102.95 561.98,-108.07"/>
</g>
<!-- Node19 -->
<g id="node19" class="node">
<title>Node19</title>
<g id="a_node19"><a xlink:href="difficulty_8h.html" target="_top" xlink:title="Dynamic difficulty system.">
<polygon fill="white" stroke="black" points="586.5,-56.5 586.5,-75.5 691.5,-75.5 691.5,-56.5 586.5,-56.5"/>
<text text-anchor="middle" x="639" y="-63.5" font-family="Helvetica,sans-Serif" font-size="10.00">include/difficulty.h</text>
</a>
</g>
</g>
<!-- Node17&#45;&gt;Node19 -->
<g id="edge19" class="edge">
<title>Node17&#45;&gt;Node19</title>
<path fill="none" stroke="midnightblue" d="M597.91,-105.25C608.2,-95.67 620.97,-83.79 629.51,-75.83"/>
<polygon fill="midnightblue" stroke="midnightblue" points="595.25,-102.95 590.32,-112.32 600.02,-108.07 595.25,-102.95"/>
</g>
<!-- Node20 -->
<g id="node20" class="node">
<title>Node20</title>
<g id="a_node20"><a xlink:href="difficulty_8c.html" target="_top" xlink:title=" ">
<polygon fill="white" stroke="black" points="590,-0.5 590,-19.5 688,-19.5 688,-0.5 590,-0.5"/>
<text text-anchor="middle" x="639" y="-7.5" font-family="Helvetica,sans-Serif" font-size="10.00">src/P2/difficulty.c</text>
</a>
</g>
</g>
<!-- Node19&#45;&gt;Node20 -->
<g id="edge20" class="edge">
<title>Node19&#45;&gt;Node20</title>
<path fill="none" stroke="midnightblue" d="M639,-45.8C639,-36.91 639,-26.78 639,-19.75"/>
<polygon fill="midnightblue" stroke="midnightblue" points="635.5,-46.08 639,-56.08 642.5,-46.08 635.5,-46.08"/>
</g>
<!-- Node22 -->
<g id="node22" class="node">
<title>Node22</title>
<g id="a_node22"><a xlink:href="po_8h.html" target="_top" xlink:title="Player object(?).">
<polygon fill="white" stroke="black" points="642,-336.5 642,-355.5 718,-355.5 718,-336.5 642,-336.5"/>
<text text-anchor="middle" x="680" y="-343.5" font-family="Helvetica,sans-Serif" font-size="10.00">include/po.h</text>
</a>
</g>
</g>
<!-- Node21&#45;&gt;Node22 -->
<g id="edge22" class="edge">
<title>Node21&#45;&gt;Node22</title>
<path fill="none" stroke="midnightblue" d="M582.39,-388.5C606.2,-378.38 639.11,-364.39 659.97,-355.52"/>
<polygon fill="midnightblue" stroke="midnightblue" points="580.96,-385.31 573.12,-392.44 583.7,-391.75 580.96,-385.31"/>
</g>
<!-- Node27 -->
<g id="node27" class="node">
<title>Node27</title>
<g id="a_node27"><a xlink:href="vec_8h.html" target="_top" xlink:title="Vector math functions.">
<polygon fill="white" stroke="black" points="512.5,-336.5 512.5,-355.5 593.5,-355.5 593.5,-336.5 512.5,-336.5"/>
<text text-anchor="middle" x="553" y="-343.5" font-family="Helvetica,sans-Serif" font-size="10.00">include/vec.h</text>
</a>
</g>
</g>
<!-- Node21&#45;&gt;Node27 -->
<g id="edge27" class="edge">
<title>Node21&#45;&gt;Node27</title>
<path fill="none" stroke="midnightblue" d="M553,-381.8C553,-372.91 553,-362.78 553,-355.75"/>
<polygon fill="midnightblue" stroke="midnightblue" points="549.5,-382.08 553,-392.08 556.5,-382.08 549.5,-382.08"/>
</g>
<!-- Node23 -->
<g id="node23" class="node">
<title>Node23</title>
<g id="a_node23"><a xlink:href="step_8h.html" target="_top" xlink:title=" ">
<polygon fill="white" stroke="black" points="906.5,-280.5 906.5,-299.5 991.5,-299.5 991.5,-280.5 906.5,-280.5"/>
<text text-anchor="middle" x="949" y="-287.5" font-family="Helvetica,sans-Serif" font-size="10.00">include/step.h</text>
</a>
</g>
</g>
<!-- Node22&#45;&gt;Node23 -->
<g id="edge23" class="edge">
<title>Node22&#45;&gt;Node23</title>
<path fill="none" stroke="midnightblue" d="M728.32,-335.3C779.03,-325.12 857.99,-309.27 906.44,-299.54"/>
<polygon fill="midnightblue" stroke="midnightblue" points="727.37,-331.92 718.26,-337.32 728.75,-338.78 727.37,-331.92"/>
</g>
<!-- Node24 -->
<g id="node24" class="node">
<title>Node24</title>
<g id="a_node24"><a xlink:href="jt_8h.html" target="_top" xlink:title="Sly entity.">
<polygon fill="white" stroke="black" points="1022.5,-224.5 1022.5,-243.5 1093.5,-243.5 1093.5,-224.5 1022.5,-224.5"/>
<text text-anchor="middle" x="1058" y="-231.5" font-family="Helvetica,sans-Serif" font-size="10.00">include/jt.h</text>
</a>
</g>
</g>
<!-- Node23&#45;&gt;Node24 -->
<g id="edge24" class="edge">
<title>Node23&#45;&gt;Node24</title>
<path fill="none" stroke="midnightblue" d="M975.52,-275.86C995.73,-265.85 1022.99,-252.35 1040.53,-243.65"/>
<polygon fill="midnightblue" stroke="midnightblue" points="973.92,-272.75 966.51,-280.32 977.03,-279.02 973.92,-272.75"/>
</g>
<!-- Node25 -->
<g id="node25" class="node">
<title>Node25</title>
<g id="a_node25"><a xlink:href="steppower_8h.html" target="_top" xlink:title=" ">
<polygon fill="white" stroke="black" points="971,-168.5 971,-187.5 1085,-187.5 1085,-168.5 971,-168.5"/>
<text text-anchor="middle" x="1028" y="-175.5" font-family="Helvetica,sans-Serif" font-size="10.00">include/steppower.h</text>
</a>
</g>
</g>
<!-- Node24&#45;&gt;Node25 -->
<g id="edge25" class="edge">
<title>Node24&#45;&gt;Node25</title>
<path fill="none" stroke="midnightblue" d="M1048.15,-215.27C1043.03,-206.05 1036.98,-195.17 1032.86,-187.75"/>
<polygon fill="midnightblue" stroke="midnightblue" points="1045.13,-217.04 1053.05,-224.08 1051.25,-213.64 1045.13,-217.04"/>
</g>
<!-- Node26 -->
<g id="node26" class="node">
<title>Node26</title>
<g id="a_node26"><a xlink:href="steppower_8c.html" target="_top" xlink:title=" ">
<polygon fill="white" stroke="black" points="974.5,-112.5 974.5,-131.5 1081.5,-131.5 1081.5,-112.5 974.5,-112.5"/>
<text text-anchor="middle" x="1028" y="-119.5" font-family="Helvetica,sans-Serif" font-size="10.00">src/P2/steppower.c</text>
</a>
</g>
</g>
<!-- Node25&#45;&gt;Node26 -->
<g id="edge26" class="edge">
<title>Node25&#45;&gt;Node26</title>
<path fill="none" stroke="midnightblue" d="M1028,-157.8C1028,-148.91 1028,-138.78 1028,-131.75"/>
<polygon fill="midnightblue" stroke="midnightblue" points="1024.5,-158.08 1028,-168.08 1031.5,-158.08 1024.5,-158.08"/>
</g>
<!-- Node27&#45;&gt;Node17 -->
<g id="edge32" class="edge">
<title>Node27&#45;&gt;Node17</title>
<path fill="none" stroke="midnightblue" d="M575.64,-330.26C585.38,-322.54 595.73,-312.16 601,-300 627.06,-239.84 596.24,-157.94 584.88,-131.56"/>
<polygon fill="midnightblue" stroke="midnightblue" points="573.36,-327.59 567.37,-336.33 577.5,-333.23 573.36,-327.59"/>
</g>
<!-- Node28 -->
<g id="node28" class="node">
<title>Node28</title>
<g id="a_node28"><a xlink:href="bis_8h.html" target="_top" xlink:title="Binary Input Stream.">
<polygon fill="white" stroke="black" points="514,-280.5 514,-299.5 592,-299.5 592,-280.5 514,-280.5"/>
<text text-anchor="middle" x="553" y="-287.5" font-family="Helvetica,sans-Serif" font-size="10.00">include/bis.h</text>
</a>
</g>
</g>
<!-- Node27&#45;&gt;Node28 -->
<g id="edge28" class="edge">
<title>Node27&#45;&gt;Node28</title>
<path fill="none" stroke="midnightblue" d="M553,-325.8C553,-316.91 553,-306.78 553,-299.75"/>
<polygon fill="midnightblue" stroke="midnightblue" points="549.5,-326.08 553,-336.08 556.5,-326.08 549.5,-326.08"/>
</g>
<!-- Node30 -->
<g id="node30" class="node">
<title>Node30</title>
<g id="a_node30"><a xlink:href="shd_8h.html" target="_top" xlink:title="Shaders.">
<polygon fill="white" stroke="black" points="383.5,-224.5 383.5,-243.5 464.5,-243.5 464.5,-224.5 383.5,-224.5"/>
<text text-anchor="middle" x="424" y="-231.5" font-family="Helvetica,sans-Serif" font-size="10.00">include/shd.h</text>
</a>
</g>
</g>
<!-- Node27&#45;&gt;Node30 -->
<g id="edge33" class="edge">
<title>Node27&#45;&gt;Node30</title>
<path fill="none" stroke="midnightblue" d="M535.19,-329.82C507.72,-306.39 455.89,-262.19 434.08,-243.59"/>
<polygon fill="midnightblue" stroke="midnightblue" points="533,-332.54 542.88,-336.37 537.54,-327.22 533,-332.54"/>
</g>
<!-- Node35 -->
<g id="node35" class="node">
<title>Node35</title>
<g id="a_node35"><a xlink:href="surf_8h.html" target="_top" xlink:title="Surface?">
<polygon fill="white" stroke="black" points="376,-280.5 376,-299.5 458,-299.5 458,-280.5 376,-280.5"/>
<text text-anchor="middle" x="417" y="-287.5" font-family="Helvetica,sans-Serif" font-size="10.00">include/surf.h</text>
</a>
</g>
</g>
<!-- Node27&#45;&gt;Node35 -->
<g id="edge39" class="edge">
<title>Node27&#45;&gt;Node35</title>
<path fill="none" stroke="midnightblue" d="M521.87,-332.64C496.34,-322.5 460.89,-308.43 438.45,-299.52"/>
<polygon fill="midnightblue" stroke="midnightblue" points="520.86,-336.01 531.45,-336.44 523.45,-329.5 520.86,-336.01"/>
</g>
<!-- Node36 -->
<g id="node36" class="node">
<title>Node36</title>
<g id="a_node36"><a xlink:href="util_8h.html" target="_top" xlink:title="Utility functions.">
<polygon fill="white" stroke="black" points="667,-280.5 667,-299.5 747,-299.5 747,-280.5 667,-280.5"/>
<text text-anchor="middle" x="707" y="-287.5" font-family="Helvetica,sans-Serif" font-size="10.00">include/util.h</text>
</a>
</g>
</g>
<!-- Node27&#45;&gt;Node36 -->
<g id="edge42" class="edge">
<title>Node27&#45;&gt;Node36</title>
<path fill="none" stroke="midnightblue" d="M587.11,-333.04C616.09,-322.88 656.96,-308.55 682.71,-299.52"/>
<polygon fill="midnightblue" stroke="midnightblue" points="585.68,-329.83 577.4,-336.44 588,-336.44 585.68,-329.83"/>
</g>
<!-- Node28&#45;&gt;Node9 -->
<g id="edge31" class="edge">
<title>Node28&#45;&gt;Node9</title>
<path fill="none" stroke="midnightblue" d="M506,-278.15C461.78,-267.95 396.48,-252.88 355.9,-243.52"/>
<polygon fill="midnightblue" stroke="midnightblue" points="505.39,-281.61 515.92,-280.44 506.97,-274.78 505.39,-281.61"/>
</g>
<!-- Node28&#45;&gt;Node17 -->
<g id="edge30" class="edge">
<title>Node28&#45;&gt;Node17</title>
<path fill="none" stroke="midnightblue" d="M557.41,-270.53C559.27,-262.42 561.38,-252.76 563,-244 570.78,-202.03 577.44,-151.37 579.94,-131.54"/>
<polygon fill="midnightblue" stroke="midnightblue" points="553.97,-269.88 555.1,-280.41 560.79,-271.47 553.97,-269.88"/>
</g>
<!-- Node29 -->
<g id="node29" class="node">
<title>Node29</title>
<g id="a_node29"><a xlink:href="bis_8c.html" target="_top" xlink:title=" ">
<polygon fill="white" stroke="black" points="482.5,-224.5 482.5,-243.5 553.5,-243.5 553.5,-224.5 482.5,-224.5"/>
<text text-anchor="middle" x="518" y="-231.5" font-family="Helvetica,sans-Serif" font-size="10.00">src/P2/bis.c</text>
</a>
</g>
</g>
<!-- Node28&#45;&gt;Node29 -->
<g id="edge29" class="edge">
<title>Node28&#45;&gt;Node29</title>
<path fill="none" stroke="midnightblue" d="M541.7,-271.57C535.68,-262.27 528.53,-251.25 523.67,-243.75"/>
<polygon fill="midnightblue" stroke="midnightblue" points="538.84,-273.6 547.22,-280.08 544.72,-269.79 538.84,-273.6"/>
</g>
<!-- Node30&#45;&gt;Node14 -->
<g id="edge34" class="edge">
<title>Node30&#45;&gt;Node14</title>
<path fill="none" stroke="midnightblue" d="M461.33,-221.35C489.39,-212.48 528.73,-199.84 563,-188 618.85,-168.71 683.94,-144.31 717.47,-131.59"/>
<polygon fill="midnightblue" stroke="midnightblue" points="460.02,-218.09 451.53,-224.43 462.12,-224.77 460.02,-218.09"/>
</g>
<!-- Node31 -->
<g id="node31" class="node">
<title>Node31</title>
<g id="a_node31"><a xlink:href="screen_8h.html" target="_top" xlink:title="User interface manager.">
<polygon fill="white" stroke="black" points="102,-168.5 102,-187.5 198,-187.5 198,-168.5 102,-168.5"/>
<text text-anchor="middle" x="150" y="-175.5" font-family="Helvetica,sans-Serif" font-size="10.00">include/screen.h</text>
</a>
</g>
</g>
<!-- Node30&#45;&gt;Node31 -->
<g id="edge35" class="edge">
<title>Node30&#45;&gt;Node31</title>
<path fill="none" stroke="midnightblue" d="M373.31,-223.01C321.56,-212.81 242.08,-197.15 193.21,-187.52"/>
<polygon fill="midnightblue" stroke="midnightblue" points="372.79,-226.47 383.28,-224.97 374.14,-219.61 372.79,-226.47"/>
</g>
<!-- Node32 -->
<g id="node32" class="node">
<title>Node32</title>
<g id="a_node32"><a xlink:href="screen_8c.html" target="_top" xlink:title=" ">
<polygon fill="white" stroke="black" points="197.5,-112.5 197.5,-131.5 286.5,-131.5 286.5,-112.5 197.5,-112.5"/>
<text text-anchor="middle" x="242" y="-119.5" font-family="Helvetica,sans-Serif" font-size="10.00">src/P2/screen.c</text>
</a>
</g>
</g>
<!-- Node31&#45;&gt;Node32 -->
<g id="edge36" class="edge">
<title>Node31&#45;&gt;Node32</title>
<path fill="none" stroke="midnightblue" d="M173.55,-163.18C190.48,-153.24 212.78,-140.15 227.26,-131.65"/>
<polygon fill="midnightblue" stroke="midnightblue" points="171.63,-160.24 164.78,-168.32 175.18,-166.28 171.63,-160.24"/>
</g>
<!-- Node33 -->
<g id="node33" class="node">
<title>Node33</title>
<g id="a_node33"><a xlink:href="ui_8h.html" target="_top" xlink:title="User interface.">
<polygon fill="white" stroke="black" points="106.5,-112.5 106.5,-131.5 179.5,-131.5 179.5,-112.5 106.5,-112.5"/>
<text text-anchor="middle" x="143" y="-119.5" font-family="Helvetica,sans-Serif" font-size="10.00">include/ui.h</text>
</a>
</g>
</g>
<!-- Node31&#45;&gt;Node33 -->
<g id="edge37" class="edge">
<title>Node31&#45;&gt;Node33</title>
<path fill="none" stroke="midnightblue" d="M147.55,-158.1C146.39,-149.14 145.06,-138.86 144.13,-131.75"/>
<polygon fill="midnightblue" stroke="midnightblue" points="144.09,-158.62 148.84,-168.08 151.03,-157.72 144.09,-158.62"/>
</g>
<!-- Node34 -->
<g id="node34" class="node">
<title>Node34</title>
<g id="a_node34"><a xlink:href="ui_8c.html" target="_top" xlink:title=" ">
<polygon fill="white" stroke="black" points="110,-56.5 110,-75.5 176,-75.5 176,-56.5 110,-56.5"/>
<text text-anchor="middle" x="143" y="-63.5" font-family="Helvetica,sans-Serif" font-size="10.00">src/P2/ui.c</text>
</a>
</g>
</g>
<!-- Node33&#45;&gt;Node34 -->
<g id="edge38" class="edge">
<title>Node33&#45;&gt;Node34</title>
<path fill="none" stroke="midnightblue" d="M143,-101.8C143,-92.91 143,-82.78 143,-75.75"/>
<polygon fill="midnightblue" stroke="midnightblue" points="139.5,-102.08 143,-112.08 146.5,-102.08 139.5,-102.08"/>
</g>
<!-- Node35&#45;&gt;Node9 -->
<g id="edge41" class="edge">
<title>Node35&#45;&gt;Node9</title>
<path fill="none" stroke="midnightblue" d="M392.41,-275.45C374.32,-265.48 350.27,-252.23 334.71,-243.65"/>
<polygon fill="midnightblue" stroke="midnightblue" points="390.81,-278.56 401.25,-280.32 394.19,-272.43 390.81,-278.56"/>
</g>
<!-- Node35&#45;&gt;Node30 -->
<g id="edge40" class="edge">
<title>Node35&#45;&gt;Node30</title>
<path fill="none" stroke="midnightblue" d="M419.45,-270.1C420.61,-261.14 421.94,-250.86 422.87,-243.75"/>
<polygon fill="midnightblue" stroke="midnightblue" points="415.97,-269.72 418.16,-280.08 422.91,-270.62 415.97,-269.72"/>
</g>
<!-- Node36&#45;&gt;Node9 -->
<g id="edge51" class="edge">
<title>Node36&#45;&gt;Node9</title>
<path fill="none" stroke="midnightblue" d="M656.96,-282.68C591.76,-274.34 474.23,-258.97 374,-244 371.32,-243.6 368.57,-243.18 365.79,-242.75"/>
<polygon fill="midnightblue" stroke="midnightblue" points="656.6,-286.16 666.97,-283.96 657.49,-279.22 656.6,-286.16"/>
</g>
<!-- Node36&#45;&gt;Node12 -->
<g id="edge44" class="edge">
<title>Node36&#45;&gt;Node12</title>
<path fill="none" stroke="midnightblue" d="M757.13,-280.07C797.12,-271.99 848.85,-259.07 864,-244 879.34,-228.74 882.44,-201.84 882.98,-187.91"/>
<polygon fill="midnightblue" stroke="midnightblue" points="756.38,-276.66 747.24,-282.02 757.73,-283.52 756.38,-276.66"/>
</g>
<!-- Node36&#45;&gt;Node19 -->
<g id="edge45" class="edge">
<title>Node36&#45;&gt;Node19</title>
<path fill="none" stroke="midnightblue" d="M694.01,-272.02C688.36,-263.91 682.1,-253.85 678,-244 652.47,-182.71 642.53,-102.21 639.83,-75.8"/>
<polygon fill="midnightblue" stroke="midnightblue" points="691.27,-274.2 699.99,-280.23 696.93,-270.08 691.27,-274.2"/>
</g>
<!-- Node37 -->
<g id="node37" class="node">
<title>Node37</title>
<g id="a_node37"><a xlink:href="util_8c.html" target="_top" xlink:title=" ">
<polygon fill="white" stroke="black" points="781.5,-224.5 781.5,-243.5 854.5,-243.5 854.5,-224.5 781.5,-224.5"/>
<text text-anchor="middle" x="818" y="-231.5" font-family="Helvetica,sans-Serif" font-size="10.00">src/P2/util.c</text>
</a>
</g>
</g>
<!-- Node36&#45;&gt;Node37 -->
<g id="edge43" class="edge">
<title>Node36&#45;&gt;Node37</title>
<path fill="none" stroke="midnightblue" d="M734.01,-275.86C754.59,-265.85 782.34,-252.35 800.21,-243.65"/>
<polygon fill="midnightblue" stroke="midnightblue" points="732.3,-272.8 724.83,-280.32 735.36,-279.1 732.3,-272.8"/>
</g>
<!-- Node38 -->
<g id="node38" class="node">
<title>Node38</title>
<g id="a_node38"><a xlink:href="joy_8h.html" target="_top" xlink:title="Joypad manager.">
<polygon fill="white" stroke="black" points="686.5,-224.5 686.5,-243.5 763.5,-243.5 763.5,-224.5 686.5,-224.5"/>
<text text-anchor="middle" x="725" y="-231.5" font-family="Helvetica,sans-Serif" font-size="10.00">include/joy.h</text>
</a>
</g>
</g>
<!-- Node36&#45;&gt;Node38 -->
<g id="edge46" class="edge">
<title>Node36&#45;&gt;Node38</title>
<path fill="none" stroke="midnightblue" d="M713.2,-270.4C716.21,-261.36 719.69,-250.94 722.08,-243.75"/>
<polygon fill="midnightblue" stroke="midnightblue" points="709.81,-269.49 709.97,-280.08 716.46,-271.7 709.81,-269.49"/>
</g>
<!-- Node36&#45;&gt;Node40 -->
<g id="edge49" class="edge">
<title>Node36&#45;&gt;Node40</title>
<path fill="none" stroke="midnightblue" d="M756.82,-278.28C804.25,-268.08 874.7,-252.92 918.41,-243.52"/>
<polygon fill="midnightblue" stroke="midnightblue" points="755.81,-274.92 746.77,-280.44 757.28,-281.76 755.81,-274.92"/>
</g>
<!-- Node38&#45;&gt;Node25 -->
<g id="edge48" class="edge">
<title>Node38&#45;&gt;Node25</title>
<path fill="none" stroke="midnightblue" d="M773.47,-223.93C851.17,-209.82 929.33,-196.13 978.61,-187.55"/>
<polygon fill="midnightblue" stroke="midnightblue" points="772.72,-220.51 763.51,-225.74 773.97,-227.4 772.72,-220.51"/>
</g>
<!-- Node39 -->
<g id="node39" class="node">
<title>Node39</title>
<g id="a_node39"><a xlink:href="joy_8c.html" target="_top" xlink:title=" ">
<polygon fill="white" stroke="black" points="724.5,-168.5 724.5,-187.5 795.5,-187.5 795.5,-168.5 724.5,-168.5"/>
<text text-anchor="middle" x="760" y="-175.5" font-family="Helvetica,sans-Serif" font-size="10.00">src/P2/joy.c</text>
</a>
</g>
</g>
<!-- Node38&#45;&gt;Node39 -->
<g id="edge47" class="edge">
<title>Node38&#45;&gt;Node39</title>
<path fill="none" stroke="midnightblue" d="M736.3,-215.57C742.32,-206.27 749.47,-195.25 754.33,-187.75"/>
<polygon fill="midnightblue" stroke="midnightblue" points="733.28,-213.79 730.78,-224.08 739.16,-217.6 733.28,-213.79"/>
</g>
<!-- Node40&#45;&gt;Node12 -->
<g id="edge50" class="edge">
<title>Node40&#45;&gt;Node12</title>
<path fill="none" stroke="midnightblue" d="M937.69,-218.38C924.14,-208.62 906.76,-196.11 895.27,-187.83"/>
<polygon fill="midnightblue" stroke="midnightblue" points="935.79,-221.32 945.95,-224.32 939.88,-215.64 935.79,-221.32"/>
</g>
<!-- Node41&#45;&gt;Node9 -->
<g id="edge58" class="edge">
<title>Node41&#45;&gt;Node9</title>
<path fill="none" stroke="midnightblue" d="M252.04,-275.18C268.6,-265.24 290.42,-252.15 304.58,-243.65"/>
<polygon fill="midnightblue" stroke="midnightblue" points="250.23,-272.18 243.46,-280.32 253.84,-278.18 250.23,-272.18"/>
</g>
<!-- Node41&#45;&gt;Node42 -->
<g id="edge55" class="edge">
<title>Node41&#45;&gt;Node42</title>
<path fill="none" stroke="midnightblue" d="M224.18,-270.4C221.83,-261.36 219.13,-250.94 217.27,-243.75"/>
<polygon fill="midnightblue" stroke="midnightblue" points="220.79,-271.28 226.69,-280.08 227.57,-269.52 220.79,-271.28"/>
</g>
<!-- Node42&#45;&gt;Node4 -->
<g id="edge56" class="edge">
<title>Node42&#45;&gt;Node4</title>
<path fill="none" stroke="midnightblue" d="M177.95,-221.44C145.34,-211.26 98.59,-196.66 69.28,-187.52"/>
<polygon fill="midnightblue" stroke="midnightblue" points="177,-224.8 187.59,-224.44 179.08,-218.12 177,-224.8"/>
</g>
<!-- Node42&#45;&gt;Node14 -->
<g id="edge57" class="edge">
<title>Node42&#45;&gt;Node14</title>
<path fill="none" stroke="midnightblue" d="M218.36,-214.23C222.12,-199.13 229.8,-178.73 245,-168 246.15,-167.19 575.35,-137.71 696.19,-126.91"/>
<polygon fill="midnightblue" stroke="midnightblue" points="214.92,-213.56 216.27,-224.07 221.77,-215.02 214.92,-213.56"/>
</g>
</g>
</svg>
        <g id="navigator" transform="translate(0 0)" fill="#404254">
                <rect fill="#f2f5e9" fill-opacity="0.5" stroke="#606060" stroke-width=".5" x="0" y="0" width="60" height="60"/>
                <use id="zoomplus" xlink:href="#zoomPlus" x="17" y="9" onmousedown="handleZoom(evt,'in')"/>
                <use id="zoomminus" xlink:href="#zoomMin" x="42" y="9" onmousedown="handleZoom(evt,'out')"/>
                <use id="reset" xlink:href="#resetDef" x="30" y="36" onmousedown="handleReset()"/>
                <g id="arrowUp" xlink:href="#dirArrow" transform="translate(30 24)" onmousedown="handlePan(0,-1)">
                  <use xlink:href="#rim" fill="#404040">
                        <set attributeName="fill" to="#808080" begin="arrowUp.mouseover" end="arrowUp.mouseout"/>
                  </use>
                  <path fill="none" stroke="white" stroke-width="1.5" d="M0,-3.0v7 M-2.5,-0.5L0,-3.0L2.5,-0.5"/>
                </g>
                <g id="arrowRight" xlink:href="#dirArrow" transform="rotate(90) translate(36 -43)" onmousedown="handlePan(1,0)">
                  <use xlink:href="#rim" fill="#404040">
                        <set attributeName="fill" to="#808080" begin="arrowRight.mouseover" end="arrowRight.mouseout"/>
                  </use>
                  <path fill="none" stroke="white" stroke-width="1.5" d="M0,-3.0v7 M-2.5,-0.5L0,-3.0L2.5,-0.5"/>
                </g>
                <g id="arrowDown" xlink:href="#dirArrow" transform="rotate(180) translate(-30 -48)" onmousedown="handlePan(0,1)">
                  <use xlink:href="#rim" fill="#404040">
                        <set attributeName="fill" to="#808080" begin="arrowDown.mouseover" end="arrowDown.mouseout"/>
                  </use>
                  <path fill="none" stroke="white" stroke-width="1.5" d="M0,-3.0v7 M-2.5,-0.5L0,-3.0L2.5,-0.5"/>
                </g>
                <g id="arrowLeft" xlink:href="#dirArrow" transform="rotate(270) translate(-36 17)" onmousedown="handlePan(-1,0)">
                  <use xlink:href="#rim" fill="#404040">
                        <set attributeName="fill" to="#808080" begin="arrowLeft.mouseover" end="arrowLeft.mouseout"/>
                  </use>
                  <path fill="none" stroke="white" stroke-width="1.5" d="M0,-3.0v7 M-2.5,-0.5L0,-3.0L2.5,-0.5"/>
                </g>
        </g>
        <svg viewBox="0 0 15 15" width="100%" height="30px" preserveAspectRatio="xMaxYMin meet">
         <g id="arrow_out" transform="scale(0.3 0.3)">
          <a xlink:href="mq_8h__dep__incl_org.svg" target="_base">
           <rect id="button" ry="5" rx="5" y="6" x="6" height="38" width="38"
                fill="#f2f5e9" fill-opacity="0.5" stroke="#606060" stroke-width="1.0"/>
           <path id="arrow"
             d="M 11.500037,31.436501 C 11.940474,20.09759 22.043105,11.32322 32.158766,21.979434 L 37.068811,17.246167 C 37.068811,17.246167 37.088388,32 37.088388,32 L 22.160133,31.978069 C 22.160133,31.978069 26.997745,27.140456 26.997745,27.140456 C 18.528582,18.264221 13.291696,25.230495 11.500037,31.436501 z"
             style="fill:#404040;"/>
          </a>
         </g>
        </svg>
</svg>
