<?xml version="1.0" encoding="UTF-8" standalone="no"?>
<!DOCTYPE svg PUBLIC "-//W3C//DTD SVG 1.1//EN"
 "http://www.w3.org/Graphics/SVG/1.1/DTD/svg11.dtd">
<!-- Generated by graphviz version 2.43.0 (0)
 -->
<!-- Title: include/oid.h Pages: 1 -->
<svg width="364pt" height="140pt"
 viewBox="0.00 0.00 363.50 140.00" xmlns="http://www.w3.org/2000/svg" xmlns:xlink="http://www.w3.org/1999/xlink">
<g id="graph0" class="graph" transform="scale(1 1) rotate(0) translate(4 136)">
<title>include/oid.h</title>
<polygon fill="white" stroke="transparent" points="-4,4 -4,-136 359.5,-136 359.5,4 -4,4"/>
<!-- Node1 -->
<g id="node1" class="node">
<title>Node1</title>
<g id="a_node1"><a xlink:title="Object IDs.">
<polygon fill="#bfbfbf" stroke="black" points="162,-112.5 162,-131.5 241,-131.5 241,-112.5 162,-112.5"/>
<text text-anchor="middle" x="201.5" y="-119.5" font-family="Helvetica,sans-Serif" font-size="10.00">include/oid.h</text>
</a>
</g>
</g>
<!-- Node2 -->
<g id="node2" class="node">
<title>Node2</title>
<g id="a_node2"><a xlink:href="common_8h.html" target="_top" xlink:title="Common header file.">
<polygon fill="white" stroke="black" points="167.5,-56.5 167.5,-75.5 235.5,-75.5 235.5,-56.5 167.5,-56.5"/>
<text text-anchor="middle" x="201.5" y="-63.5" font-family="Helvetica,sans-Serif" font-size="10.00">common.h</text>
</a>
</g>
</g>
<!-- Node1&#45;&gt;Node2 -->
<g id="edge1" class="edge">
<title>Node1&#45;&gt;Node2</title>
<path fill="none" stroke="midnightblue" d="M201.5,-112.08C201.5,-105.01 201.5,-94.86 201.5,-85.99"/>
<polygon fill="midnightblue" stroke="midnightblue" points="205,-85.75 201.5,-75.75 198,-85.75 205,-85.75"/>
</g>
<!-- Node3 -->
<g id="node3" class="node">
<title>Node3</title>
<g id="a_node3"><a xlink:href="include__asm_8h.html" target="_top" xlink:title=" ">
<polygon fill="white" stroke="black" points="0,-0.5 0,-19.5 87,-19.5 87,-0.5 0,-0.5"/>
<text text-anchor="middle" x="43.5" y="-7.5" font-family="Helvetica,sans-Serif" font-size="10.00">include_asm.h</text>
</a>
</g>
</g>
<!-- Node2&#45;&gt;Node3 -->
<g id="edge2" class="edge">
<title>Node2&#45;&gt;Node3</title>
<path fill="none" stroke="midnightblue" d="M176.46,-56.44C149.88,-47.36 107.69,-32.94 77.98,-22.78"/>
<polygon fill="midnightblue" stroke="midnightblue" points="79.01,-19.44 68.42,-19.52 76.75,-26.06 79.01,-19.44"/>
</g>
<!-- Node4 -->
<g id="node4" class="node">
<title>Node4</title>
<g id="a_node4"><a xlink:href="include__rodata_8h.html" target="_top" xlink:title=" ">
<polygon fill="white" stroke="black" points="105.5,-0.5 105.5,-19.5 203.5,-19.5 203.5,-0.5 105.5,-0.5"/>
<text text-anchor="middle" x="154.5" y="-7.5" font-family="Helvetica,sans-Serif" font-size="10.00">include_rodata.h</text>
</a>
</g>
</g>
<!-- Node2&#45;&gt;Node4 -->
<g id="edge3" class="edge">
<title>Node2&#45;&gt;Node4</title>
<path fill="none" stroke="midnightblue" d="M193.74,-56.08C186.96,-48.3 176.96,-36.8 168.74,-27.37"/>
<polygon fill="midnightblue" stroke="midnightblue" points="171.32,-25 162.12,-19.75 166.04,-29.59 171.32,-25"/>
</g>
<!-- Node5 -->
<g id="node5" class="node">
<title>Node5</title>
<g id="a_node5"><a xlink:href="types_8h.html" target="_top" xlink:title="Types used throughout the engine.">
<polygon fill="white" stroke="black" points="222,-0.5 222,-19.5 275,-19.5 275,-0.5 222,-0.5"/>
<text text-anchor="middle" x="248.5" y="-7.5" font-family="Helvetica,sans-Serif" font-size="10.00">types.h</text>
</a>
</g>
</g>
<!-- Node2&#45;&gt;Node5 -->
<g id="edge4" class="edge">
<title>Node2&#45;&gt;Node5</title>
<path fill="none" stroke="midnightblue" d="M209.26,-56.08C216.04,-48.3 226.04,-36.8 234.26,-27.37"/>
<polygon fill="midnightblue" stroke="midnightblue" points="236.96,-29.59 240.88,-19.75 231.68,-25 236.96,-29.59"/>
</g>
<!-- Node6 -->
<g id="node6" class="node">
<title>Node6</title>
<g id="a_node6"><a xlink:href="vtables_8h.html" target="_top" xlink:title=" ">
<polygon fill="white" stroke="black" points="293.5,-0.5 293.5,-19.5 355.5,-19.5 355.5,-0.5 293.5,-0.5"/>
<text text-anchor="middle" x="324.5" y="-7.5" font-family="Helvetica,sans-Serif" font-size="10.00">vtables.h</text>
</a>
</g>
</g>
<!-- Node2&#45;&gt;Node6 -->
<g id="edge5" class="edge">
<title>Node2&#45;&gt;Node6</title>
<path fill="none" stroke="midnightblue" d="M220.99,-56.44C241.14,-47.6 272.82,-33.69 295.83,-23.59"/>
<polygon fill="midnightblue" stroke="midnightblue" points="297.35,-26.74 305.1,-19.52 294.54,-20.33 297.35,-26.74"/>
</g>
</g>
</svg>
