<?xml version="1.0" encoding="UTF-8" standalone="no"?>
<!DOCTYPE svg PUBLIC "-//W3C//DTD SVG 1.1//EN"
 "http://www.w3.org/Graphics/SVG/1.1/DTD/svg11.dtd">
<!-- Generated by graphviz version 2.43.0 (0)
 -->
<!-- Title: src/P2/splice/pair.cpp Pages: 1 -->
<!--zoomable 412 -->

<svg id="main" version="1.1" xmlns="http://www.w3.org/2000/svg" xmlns:xlink="http://www.w3.org/1999/xlink" xml:space="preserve" onload="init(evt)">
<style type="text/css"><![CDATA[
.node, .edge {opacity: 0.7;}
.node.selected, .edge.selected {opacity: 1;}
.edge:hover path { stroke: red; }
.edge:hover polygon { stroke: red; fill: red; }
]]></style>

<defs>
  <circle id="rim" cx="0" cy="0" r="7"/>
  <circle id="rim2" cx="0" cy="0" r="3.5"/>
  <g id="zoomPlus">
    <use xlink:href="#rim" fill="#404040"><set attributeName="fill" to="#808080" begin="zoomplus.mouseover" end="zoomplus.mouseout"/></use>
    <path d="M-4,0h8M0,-4v8" fill="none" stroke="white" stroke-width="1.5" pointer-events="none"/>
  </g>
  <g id="zoomMin">
    <use xlink:href="#rim" fill="#404040"><set attributeName="fill" to="#808080" begin="zoomminus.mouseover" end="zoomminus.mouseout"/></use>
    <path d="M-4,0h8" fill="none" stroke="white" stroke-width="1.5" pointer-events="none"/>
  </g>
  <g id="arrowUp" transform="translate(30 24)">
    <use xlink:href="#rim"/>
    <path pointer-events="none" fill="none" stroke="white" stroke-width="1.5" d="M0,-3.0v7 M-2.5,-0.5L0,-3.0L2.5,-0.5"/>
  </g>
  <g id="arrowRight" transform="rotate(90) translate(36 -43)">
    <use xlink:href="#rim"/>
    <path pointer-events="none" fill="none" stroke="white" stroke-width="1.5" d="M0,-3.0v7 M-2.5,-0.5L0,-3.0L2.5,-0.5"/>
  </g>
  <g id="arrowDown" transform="rotate(180) translate(-30 -48)">
    <use xlink:href="#rim"/>
    <path pointer-events="none" fill="none" stroke="white" stroke-width="1.5" d="M0,-3.0v7 M-2.5,-0.5L0,-3.0L2.5,-0.5"/>
  </g>
  <g id="arrowLeft" transform="rotate(270) translate(-36 17)">
    <use xlink:href="#rim"/>
    <path pointer-events="none" fill="none" stroke="white" stroke-width="1.5" d="M0,-3.0v7 M-2.5,-0.5L0,-3.0L2.5,-0.5"/>
  </g>
  <g id="resetDef">
    <use xlink:href="#rim2" fill="#404040"><set attributeName="fill" to="#808080" begin="reset.mouseover" end="reset.mouseout"/></use>
  </g>
</defs>
<script type="application/ecmascript">
var viewWidth = 623;
var viewHeight = 412;
var sectionId = 'dynsection-0';
</script>
<script type="application/ecmascript" xlink:href="svg.min.js"/>
<svg id="graph" class="graph">
<g id="viewport">
<title>src/P2/splice/pair.cpp</title>
<!-- Node1 -->
<g id="Node000001" class="node">
<title>Node1</title>
<g id="a_Node000001"><a xlink:title=" ">
<polygon fill="#999999" stroke="#666666" points="411.5,-404 292.5,-404 292.5,-385 411.5,-385 411.5,-404"/>
<text text-anchor="middle" x="352" y="-392" font-family="Helvetica,sans-Serif" font-size="10.00">src/P2/splice/pair.cpp</text>
</a>
</g>
</g>
<!-- Node2 -->
<g id="Node000002" class="node">
<title>Node2</title>
<g id="a_Node000002"><a xlink:href="pair_8h.html" target="_top" xlink:title=" ">
<polygon fill="white" stroke="#666666" points="281.5,-349 206.5,-349 206.5,-330 281.5,-330 281.5,-349"/>
<text text-anchor="middle" x="244" y="-337" font-family="Helvetica,sans-Serif" font-size="10.00">splice/pair.h</text>
</a>
</g>
</g>
<!-- Node1&#45;&gt;Node2 -->
<g id="edge1_Node000001_Node000002" class="edge">
<title>Node1&#45;&gt;Node2</title>
<g id="a_edge1_Node000001_Node000002"><a xlink:title=" ">
<path fill="none" stroke="#63b8ff" d="M334.65,-384.98C317.43,-376.54 290.8,-363.47 270.85,-353.68"/>
<polygon fill="#63b8ff" stroke="#63b8ff" points="272.19,-350.43 261.67,-349.17 269.1,-356.72 272.19,-350.43"/>
</a>
</g>
</g>
<!-- Node18 -->
<g id="Node000018" class="node">
<title>Node18</title>
<g id="a_Node000018"><a xlink:href="splotheap_8h.html" target="_top" xlink:title=" ">
<polygon fill="white" stroke="#666666" points="404.5,-349 299.5,-349 299.5,-330 404.5,-330 404.5,-349"/>
<text text-anchor="middle" x="352" y="-337" font-family="Helvetica,sans-Serif" font-size="10.00">splice/splotheap.h</text>
</a>
</g>
</g>
<!-- Node1&#45;&gt;Node18 -->
<g id="edge22_Node000001_Node000018" class="edge">
<title>Node1&#45;&gt;Node18</title>
<g id="a_edge22_Node000001_Node000018"><a xlink:title=" ">
<path fill="none" stroke="#63b8ff" d="M352,-384.75C352,-377.8 352,-367.85 352,-359.13"/>
<polygon fill="#63b8ff" stroke="#63b8ff" points="355.5,-359.09 352,-349.09 348.5,-359.09 355.5,-359.09"/>
</a>
</g>
</g>
<!-- Node19 -->
<g id="Node000019" class="node">
<title>Node19</title>
<g id="a_Node000019"><a xlink:href="memset_8h.html" target="_top" xlink:title="Memset.">
<polygon fill="white" stroke="#666666" points="509,-349 423,-349 423,-330 509,-330 509,-349"/>
<text text-anchor="middle" x="466" y="-337" font-family="Helvetica,sans-Serif" font-size="10.00">sce/memset.h</text>
</a>
</g>
</g>
<!-- Node1&#45;&gt;Node19 -->
<g id="edge23_Node000001_Node000019" class="edge">
<title>Node1&#45;&gt;Node19</title>
<g id="a_edge23_Node000001_Node000019"><a xlink:title=" ">
<path fill="none" stroke="#63b8ff" d="M370.32,-384.98C388.66,-376.46 417.11,-363.23 438.23,-353.41"/>
<polygon fill="#63b8ff" stroke="#63b8ff" points="439.76,-356.56 447.35,-349.17 436.81,-350.21 439.76,-356.56"/>
</a>
</g>
</g>
<!-- Node3 -->
<g id="Node000003" class="node">
<title>Node3</title>
<g id="a_Node000003"><a xlink:href="ref_8h.html" target="_top" xlink:title=" ">
<polygon fill="white" stroke="#666666" points="279,-294 209,-294 209,-275 279,-275 279,-294"/>
<text text-anchor="middle" x="244" y="-282" font-family="Helvetica,sans-Serif" font-size="10.00">splice/ref.h</text>
</a>
</g>
</g>
<!-- Node2&#45;&gt;Node3 -->
<g id="edge2_Node000002_Node000003" class="edge">
<title>Node2&#45;&gt;Node3</title>
<g id="a_edge2_Node000002_Node000003"><a xlink:title=" ">
<path fill="none" stroke="#63b8ff" d="M244,-329.75C244,-322.8 244,-312.85 244,-304.13"/>
<polygon fill="#63b8ff" stroke="#63b8ff" points="247.5,-304.09 244,-294.09 240.5,-304.09 247.5,-304.09"/>
</a>
</g>
</g>
<!-- Node4 -->
<g id="Node000004" class="node">
<title>Node4</title>
<g id="a_Node000004"><a xlink:href="proc_8h.html" target="_top" xlink:title=" ">
<polygon fill="white" stroke="#666666" points="78,-239 0,-239 0,-220 78,-220 78,-239"/>
<text text-anchor="middle" x="39" y="-227" font-family="Helvetica,sans-Serif" font-size="10.00">splice/proc.h</text>
</a>
</g>
</g>
<!-- Node3&#45;&gt;Node4 -->
<g id="edge3_Node000003_Node000004" class="edge">
<title>Node3&#45;&gt;Node4</title>
<g id="a_edge3_Node000003_Node000004"><a xlink:title=" ">
<path fill="none" stroke="#63b8ff" d="M211.06,-274.98C176.05,-265.93 120.53,-251.58 82.07,-241.64"/>
<polygon fill="#63b8ff" stroke="#63b8ff" points="82.75,-238.2 72.19,-239.08 81,-244.97 82.75,-238.2"/>
</a>
</g>
</g>
<!-- Node5 -->
<g id="Node000005" class="node">
<title>Node5</title>
<g id="a_Node000005"><a xlink:href="method_8h.html" target="_top" xlink:title=" ">
<polygon fill="white" stroke="#666666" points="191.5,-239 96.5,-239 96.5,-220 191.5,-220 191.5,-239"/>
<text text-anchor="middle" x="144" y="-227" font-family="Helvetica,sans-Serif" font-size="10.00">splice/method.h</text>
</a>
</g>
</g>
<!-- Node3&#45;&gt;Node5 -->
<g id="edge4_Node000003_Node000005" class="edge">
<title>Node3&#45;&gt;Node5</title>
<g id="a_edge4_Node000003_Node000005"><a xlink:title=" ">
<path fill="none" stroke="#63b8ff" d="M227.93,-274.98C212.14,-266.61 187.78,-253.7 169.37,-243.95"/>
<polygon fill="#63b8ff" stroke="#63b8ff" points="170.83,-240.76 160.36,-239.17 167.56,-246.95 170.83,-240.76"/>
</a>
</g>
</g>
<!-- Node6 -->
<g id="Node000006" class="node">
<title>Node6</title>
<g id="a_Node000006"><a xlink:href="bif_8h.html" target="_top" xlink:title=" ">
<polygon fill="white" stroke="#666666" points="278.5,-239 209.5,-239 209.5,-220 278.5,-220 278.5,-239"/>
<text text-anchor="middle" x="244" y="-227" font-family="Helvetica,sans-Serif" font-size="10.00">splice/bif.h</text>
</a>
</g>
</g>
<!-- Node3&#45;&gt;Node6 -->
<g id="edge5_Node000003_Node000006" class="edge">
<title>Node3&#45;&gt;Node6</title>
<g id="a_edge5_Node000003_Node000006"><a xlink:title=" ">
<path fill="none" stroke="#63b8ff" d="M244,-274.75C244,-267.8 244,-257.85 244,-249.13"/>
<polygon fill="#63b8ff" stroke="#63b8ff" points="247.5,-249.09 244,-239.09 240.5,-249.09 247.5,-249.09"/>
</a>
</g>
</g>
<!-- Node7 -->
<g id="Node000007" class="node">
<title>Node7</title>
<g id="a_Node000007"><a xlink:href="basic_8h.html" target="_top" xlink:title="Basic object.">
<polygon fill="white" stroke="#666666" points="349.5,-74 298.5,-74 298.5,-55 349.5,-55 349.5,-74"/>
<text text-anchor="middle" x="324" y="-62" font-family="Helvetica,sans-Serif" font-size="10.00">basic.h</text>
</a>
</g>
</g>
<!-- Node3&#45;&gt;Node7 -->
<g id="edge6_Node000003_Node000007" class="edge">
<title>Node3&#45;&gt;Node7</title>
<g id="a_edge6_Node000003_Node000007"><a xlink:title=" ">
<path fill="none" stroke="#63b8ff" d="M255.34,-274.89C265.24,-266.74 279.23,-253.6 287,-239 314.45,-187.44 321.53,-117.06 323.36,-84.04"/>
<polygon fill="#63b8ff" stroke="#63b8ff" points="326.86,-84.15 323.82,-74.01 319.87,-83.84 326.86,-84.15"/>
</a>
</g>
</g>
<!-- Node9 -->
<g id="Node000009" class="node">
<title>Node9</title>
<g id="a_Node000009"><a xlink:href="util_8h.html" target="_top" xlink:title="Utility functions.">
<polygon fill="white" stroke="#666666" points="403.5,-239 362.5,-239 362.5,-220 403.5,-220 403.5,-239"/>
<text text-anchor="middle" x="383" y="-227" font-family="Helvetica,sans-Serif" font-size="10.00">util.h</text>
</a>
</g>
</g>
<!-- Node3&#45;&gt;Node9 -->
<g id="edge8_Node000003_Node000009" class="edge">
<title>Node3&#45;&gt;Node9</title>
<g id="a_edge8_Node000003_Node000009"><a xlink:title=" ">
<path fill="none" stroke="#63b8ff" d="M266.33,-274.98C289.74,-266.06 326.67,-251.98 352.7,-242.05"/>
<polygon fill="#63b8ff" stroke="#63b8ff" points="353.99,-245.31 362.09,-238.47 351.5,-238.77 353.99,-245.31"/>
</a>
</g>
</g>
<!-- Node8 -->
<g id="Node000008" class="node">
<title>Node8</title>
<g id="a_Node000008"><a xlink:href="sidebag_8h.html" target="_top" xlink:title="Sidebag for splice.">
<polygon fill="white" stroke="#666666" points="371.5,-19 276.5,-19 276.5,0 371.5,0 371.5,-19"/>
<text text-anchor="middle" x="324" y="-7" font-family="Helvetica,sans-Serif" font-size="10.00">splice/sidebag.h</text>
</a>
</g>
</g>
<!-- Node7&#45;&gt;Node8 -->
<g id="edge7_Node000007_Node000008" class="edge">
<title>Node7&#45;&gt;Node8</title>
<g id="a_edge7_Node000007_Node000008"><a xlink:title=" ">
<path fill="none" stroke="#63b8ff" d="M324,-54.75C324,-47.8 324,-37.85 324,-29.13"/>
<polygon fill="#63b8ff" stroke="#63b8ff" points="327.5,-29.09 324,-19.09 320.5,-29.09 327.5,-29.09"/>
</a>
</g>
</g>
<!-- Node10 -->
<g id="Node000010" class="node">
<title>Node10</title>
<g id="a_Node000010"><a xlink:href="vec_8h.html" target="_top" xlink:title="Vector math.">
<polygon fill="white" stroke="#666666" points="379.5,-129 336.5,-129 336.5,-110 379.5,-110 379.5,-129"/>
<text text-anchor="middle" x="358" y="-117" font-family="Helvetica,sans-Serif" font-size="10.00">vec.h</text>
</a>
</g>
</g>
<!-- Node9&#45;&gt;Node10 -->
<g id="edge9_Node000009_Node000010" class="edge">
<title>Node9&#45;&gt;Node10</title>
<g id="a_edge9_Node000009_Node000010"><a xlink:title=" ">
<path fill="none" stroke="#63b8ff" d="M385.98,-219.64C389.7,-207.16 394.9,-183.81 389,-165 385.77,-154.71 379.22,-144.72 372.97,-136.82"/>
<polygon fill="#63b8ff" stroke="#63b8ff" points="375.61,-134.52 366.48,-129.15 370.27,-139.04 375.61,-134.52"/>
</a>
</g>
</g>
<!-- Node11 -->
<g id="Node000011" class="node">
<title>Node11</title>
<g id="a_Node000011"><a xlink:href="mat_8h.html" target="_top" xlink:title="3x3 and 4x4 matrix types.">
<polygon fill="white" stroke="#666666" points="380.5,-184 335.5,-184 335.5,-165 380.5,-165 380.5,-184"/>
<text text-anchor="middle" x="358" y="-172" font-family="Helvetica,sans-Serif" font-size="10.00">mat.h</text>
</a>
</g>
</g>
<!-- Node9&#45;&gt;Node11 -->
<g id="edge10_Node000009_Node000011" class="edge">
<title>Node9&#45;&gt;Node11</title>
<g id="a_edge10_Node000009_Node000011"><a xlink:title=" ">
<path fill="none" stroke="#63b8ff" d="M378.87,-219.75C375.49,-212.57 370.58,-202.18 366.38,-193.27"/>
<polygon fill="#63b8ff" stroke="#63b8ff" points="369.48,-191.64 362.05,-184.09 363.15,-194.63 369.48,-191.64"/>
</a>
</g>
</g>
<!-- Node12 -->
<g id="Node000012" class="node">
<title>Node12</title>
<g id="a_Node000012"><a xlink:href="sm_8h.html" target="_top" xlink:title="Probabilistic finite state machines.">
<polygon fill="white" stroke="#666666" points="478.5,-184 437.5,-184 437.5,-165 478.5,-165 478.5,-184"/>
<text text-anchor="middle" x="458" y="-172" font-family="Helvetica,sans-Serif" font-size="10.00">sm.h</text>
</a>
</g>
</g>
<!-- Node9&#45;&gt;Node12 -->
<g id="edge12_Node000009_Node000012" class="edge">
<title>Node9&#45;&gt;Node12</title>
<g id="a_edge12_Node000009_Node000012"><a xlink:title=" ">
<path fill="none" stroke="#63b8ff" d="M395.05,-219.98C406.46,-211.92 423.83,-199.65 437.43,-190.03"/>
<polygon fill="#63b8ff" stroke="#63b8ff" points="439.58,-192.8 445.73,-184.17 435.54,-187.08 439.58,-192.8"/>
</a>
</g>
</g>
<!-- Node11&#45;&gt;Node10 -->
<g id="edge11_Node000011_Node000010" class="edge">
<title>Node11&#45;&gt;Node10</title>
<g id="a_edge11_Node000011_Node000010"><a xlink:title=" ">
<path fill="none" stroke="#63b8ff" d="M358,-164.75C358,-157.8 358,-147.85 358,-139.13"/>
<polygon fill="#63b8ff" stroke="#63b8ff" points="361.5,-139.09 358,-129.09 354.5,-139.09 361.5,-139.09"/>
</a>
</g>
</g>
<!-- Node13 -->
<g id="Node000013" class="node">
<title>Node13</title>
<g id="a_Node000013"><a xlink:href="dl_8h.html" target="_top" xlink:title="Doubly&#45;linked list.">
<polygon fill="white" stroke="#666666" points="614.5,-74 579.5,-74 579.5,-55 614.5,-55 614.5,-74"/>
<text text-anchor="middle" x="597" y="-62" font-family="Helvetica,sans-Serif" font-size="10.00">dl.h</text>
</a>
</g>
</g>
<!-- Node12&#45;&gt;Node13 -->
<g id="edge13_Node000012_Node000013" class="edge">
<title>Node12&#45;&gt;Node13</title>
<g id="a_edge13_Node000012_Node000013"><a xlink:title=" ">
<path fill="none" stroke="#63b8ff" d="M469.37,-164.66C493.11,-146.22 548.16,-103.45 577.6,-80.57"/>
<polygon fill="#63b8ff" stroke="#63b8ff" points="580.11,-83.06 585.86,-74.16 575.81,-77.53 580.11,-83.06"/>
</a>
</g>
</g>
<!-- Node15 -->
<g id="Node000015" class="node">
<title>Node15</title>
<g id="a_Node000015"><a xlink:href="mq_8h.html" target="_top" xlink:title="Message queue.">
<polygon fill="white" stroke="#666666" points="418.5,-74 377.5,-74 377.5,-55 418.5,-55 418.5,-74"/>
<text text-anchor="middle" x="398" y="-62" font-family="Helvetica,sans-Serif" font-size="10.00">mq.h</text>
</a>
</g>
</g>
<!-- Node12&#45;&gt;Node15 -->
<g id="edge15_Node000012_Node000015" class="edge">
<title>Node12&#45;&gt;Node15</title>
<g id="a_edge15_Node000012_Node000015"><a xlink:title=" ">
<path fill="none" stroke="#63b8ff" d="M452.17,-164.78C446.32,-155.92 437.18,-141.72 430,-129 421.47,-113.9 412.67,-96.26 406.46,-83.4"/>
<polygon fill="#63b8ff" stroke="#63b8ff" points="409.56,-81.78 402.09,-74.26 403.25,-84.8 409.56,-81.78"/>
</a>
</g>
</g>
<!-- Node16 -->
<g id="Node000016" class="node">
<title>Node16</title>
<g id="a_Node000016"><a xlink:href="lo_8h.html" target="_top" xlink:title="Level objects.">
<polygon fill="white" stroke="#666666" points="474.5,-129 439.5,-129 439.5,-110 474.5,-110 474.5,-129"/>
<text text-anchor="middle" x="457" y="-117" font-family="Helvetica,sans-Serif" font-size="10.00">lo.h</text>
</a>
</g>
</g>
<!-- Node12&#45;&gt;Node16 -->
<g id="edge16_Node000012_Node000016" class="edge">
<title>Node12&#45;&gt;Node16</title>
<g id="a_edge16_Node000012_Node000016"><a xlink:title=" ">
<path fill="none" stroke="#63b8ff" d="M457.83,-164.75C457.7,-157.8 457.52,-147.85 457.35,-139.13"/>
<polygon fill="#63b8ff" stroke="#63b8ff" points="460.85,-139.02 457.16,-129.09 453.85,-139.15 460.85,-139.02"/>
</a>
</g>
</g>
<!-- Node14 -->
<g id="Node000014" class="node">
<title>Node14</title>
<g id="a_Node000014"><a xlink:href="oid_8h.html" target="_top" xlink:title="Object IDs.">
<polygon fill="white" stroke="#666666" points="542.5,-19 501.5,-19 501.5,0 542.5,0 542.5,-19"/>
<text text-anchor="middle" x="522" y="-7" font-family="Helvetica,sans-Serif" font-size="10.00">oid.h</text>
</a>
</g>
</g>
<!-- Node13&#45;&gt;Node14 -->
<g id="edge14_Node000013_Node000014" class="edge">
<title>Node13&#45;&gt;Node14</title>
<g id="a_edge14_Node000013_Node000014"><a xlink:title=" ">
<path fill="none" stroke="#63b8ff" d="M584.95,-54.98C573.54,-46.92 556.17,-34.65 542.57,-25.03"/>
<polygon fill="#63b8ff" stroke="#63b8ff" points="544.46,-22.08 534.27,-19.17 540.42,-27.8 544.46,-22.08"/>
</a>
</g>
</g>
<!-- Node16&#45;&gt;Node7 -->
<g id="edge20_Node000016_Node000007" class="edge">
<title>Node16&#45;&gt;Node7</title>
<g id="a_edge20_Node000016_Node000007"><a xlink:title=" ">
<path fill="none" stroke="#63b8ff" d="M439.34,-111.46C417.91,-102.92 381.4,-88.37 355.2,-77.93"/>
<polygon fill="#63b8ff" stroke="#63b8ff" points="356.3,-74.6 345.71,-74.15 353.7,-81.1 356.3,-74.6"/>
</a>
</g>
</g>
<!-- Node16&#45;&gt;Node13 -->
<g id="edge17_Node000016_Node000013" class="edge">
<title>Node16&#45;&gt;Node13</title>
<g id="a_edge17_Node000016_Node000013"><a xlink:title=" ">
<path fill="none" stroke="#63b8ff" d="M474.73,-111.79C498.72,-102.71 541.72,-86.43 569.8,-75.8"/>
<polygon fill="#63b8ff" stroke="#63b8ff" points="571.3,-78.97 579.41,-72.16 568.82,-72.43 571.3,-78.97"/>
</a>
</g>
</g>
<!-- Node16&#45;&gt;Node14 -->
<g id="edge19_Node000016_Node000014" class="edge">
<title>Node16&#45;&gt;Node14</title>
<g id="a_edge19_Node000016_Node000014"><a xlink:title=" ">
<path fill="none" stroke="#63b8ff" d="M456.28,-109.63C455.64,-96.72 456.04,-72.39 466,-55 473.21,-42.42 485.49,-32.05 496.72,-24.5"/>
<polygon fill="#63b8ff" stroke="#63b8ff" points="498.78,-27.34 505.39,-19.06 495.06,-21.42 498.78,-27.34"/>
</a>
</g>
</g>
<!-- Node16&#45;&gt;Node15 -->
<g id="edge18_Node000016_Node000015" class="edge">
<title>Node16&#45;&gt;Node15</title>
<g id="a_edge18_Node000016_Node000015"><a xlink:title=" ">
<path fill="none" stroke="#63b8ff" d="M447.52,-109.98C438.8,-102.15 425.66,-90.34 415.1,-80.86"/>
<polygon fill="#63b8ff" stroke="#63b8ff" points="417.43,-78.25 407.65,-74.17 412.75,-83.46 417.43,-78.25"/>
</a>
</g>
</g>
<!-- Node17 -->
<g id="Node000017" class="node">
<title>Node17</title>
<g id="a_Node000017"><a xlink:href="frame_8h.html" target="_top" xlink:title=" ">
<polygon fill="white" stroke="#666666" points="561,-74 475,-74 475,-55 561,-55 561,-74"/>
<text text-anchor="middle" x="518" y="-62" font-family="Helvetica,sans-Serif" font-size="10.00">splice/frame.h</text>
</a>
</g>
</g>
<!-- Node16&#45;&gt;Node17 -->
<g id="edge21_Node000016_Node000017" class="edge">
<title>Node16&#45;&gt;Node17</title>
<g id="a_edge21_Node000016_Node000017"><a xlink:title=" ">
<path fill="none" stroke="#63b8ff" d="M466.8,-109.98C475.82,-102.15 489.41,-90.34 500.32,-80.86"/>
<polygon fill="#63b8ff" stroke="#63b8ff" points="502.77,-83.37 508.02,-74.17 498.18,-78.09 502.77,-83.37"/>
</a>
</g>
</g>
<!-- Node20 -->
<g id="Node000020" class="node">
<title>Node20</title>
<g id="a_Node000020"><a xlink:title=" ">
<polygon fill="#e0e0e0" stroke="#999999" points="494,-294 438,-294 438,-275 494,-275 494,-294"/>
<text text-anchor="middle" x="466" y="-282" font-family="Helvetica,sans-Serif" font-size="10.00">stddef.h</text>
</a>
</g>
</g>
<!-- Node19&#45;&gt;Node20 -->
<g id="edge24_Node000019_Node000020" class="edge">
<title>Node19&#45;&gt;Node20</title>
<g id="a_edge24_Node000019_Node000020"><a xlink:title=" ">
<path fill="none" stroke="#63b8ff" d="M466,-329.75C466,-322.8 466,-312.85 466,-304.13"/>
<polygon fill="#63b8ff" stroke="#63b8ff" points="469.5,-304.09 466,-294.09 462.5,-304.09 469.5,-304.09"/>
</a>
</g>
</g>
</g>
</svg>

<g id="navigator" transform="translate(0 0)" fill="#404254">
  <rect fill="#f2f5e9" fill-opacity="0.5" stroke="#606060" stroke-width=".5" x="0" y="0" width="60" height="60"/>
  <use id="zoomplus" xlink:href="#zoomPlus" x="17" y="9" onmousedown="handleZoom(evt,'in')"/>
  <use id="zoomminus" xlink:href="#zoomMin" x="42" y="9" onmousedown="handleZoom(evt,'out')"/>
  <use id="reset" xlink:href="#resetDef" x="30" y="36" onmousedown="handleReset()"/>
   <use id="arrowup" xlink:href="#arrowUp" x="0" y="0" onmousedown="handlePan(0,-1)"/>
  <use id="arrowright" xlink:href="#arrowRight" x="0" y="0" onmousedown="handlePan(1,0)"/>
  <use id="arrowdown" xlink:href="#arrowDown" x="0" y="0" onmousedown="handlePan(0,1)"/>
  <use id="arrowleft" xlink:href="#arrowLeft" x="0" y="0" onmousedown="handlePan(-1,0)"/>
</g>
<svg viewBox="0 0 15 15" width="100%" height="30px" preserveAspectRatio="xMaxYMin meet">
 <g id="arrow_out" transform="scale(0.3 0.3)">
  <a xlink:href="pair_8cpp__incl_org.svg" target="_base">
   <rect id="button" ry="5" rx="5" y="6" x="6" height="38" width="38"
        fill="#f2f5e9" fill-opacity="0.5" stroke="#606060" stroke-width="1.0"/>
   <path id="arrow"
     d="M 11.500037,31.436501 C 11.940474,20.09759 22.043105,11.32322 32.158766,21.979434 L 37.068811,17.246167 C 37.068811,17.246167 37.088388,32 37.088388,32 L 22.160133,31.978069 C 22.160133,31.978069 26.997745,27.140456 26.997745,27.140456 C 18.528582,18.264221 13.291696,25.230495 11.500037,31.436501 z"
     style="fill:#404040;"/>
  </a>
 </g>
</svg>

<style type='text/css'>
<![CDATA[
[data-mouse-over-selected='false'] { opacity: 0.7; }
[data-mouse-over-selected='true']  { opacity: 1.0; }
]]>
</style>
<script type="application/ecmascript"><![CDATA[
document.addEventListener('DOMContentLoaded', (event) => {
  highlightEdges();
  highlightAdjacentNodes();
});
]]></script>
</svg>
