<?xml version="1.0" encoding="UTF-8" standalone="no"?>
<!DOCTYPE svg PUBLIC "-//W3C//DTD SVG 1.1//EN"
 "http://www.w3.org/Graphics/SVG/1.1/DTD/svg11.dtd">
<!-- Generated by graphviz version 2.43.0 (0)
 -->
<!-- Title: include/po.h Pages: 1 -->
<!--zoomable 247 -->

<svg id="main" version="1.1" xmlns="http://www.w3.org/2000/svg" xmlns:xlink="http://www.w3.org/1999/xlink" xml:space="preserve" onload="init(evt)">
<style type="text/css"><![CDATA[
.node, .edge {opacity: 0.7;}
.node.selected, .edge.selected {opacity: 1;}
.edge:hover path { stroke: red; }
.edge:hover polygon { stroke: red; fill: red; }
]]></style>

<defs>
  <circle id="rim" cx="0" cy="0" r="7"/>
  <circle id="rim2" cx="0" cy="0" r="3.5"/>
  <g id="zoomPlus">
    <use xlink:href="#rim" fill="#404040"><set attributeName="fill" to="#808080" begin="zoomplus.mouseover" end="zoomplus.mouseout"/></use>
    <path d="M-4,0h8M0,-4v8" fill="none" stroke="white" stroke-width="1.5" pointer-events="none"/>
  </g>
  <g id="zoomMin">
    <use xlink:href="#rim" fill="#404040"><set attributeName="fill" to="#808080" begin="zoomminus.mouseover" end="zoomminus.mouseout"/></use>
    <path d="M-4,0h8" fill="none" stroke="white" stroke-width="1.5" pointer-events="none"/>
  </g>
  <g id="arrowUp" transform="translate(30 24)">
    <use xlink:href="#rim"/>
    <path pointer-events="none" fill="none" stroke="white" stroke-width="1.5" d="M0,-3.0v7 M-2.5,-0.5L0,-3.0L2.5,-0.5"/>
  </g>
  <g id="arrowRight" transform="rotate(90) translate(36 -43)">
    <use xlink:href="#rim"/>
    <path pointer-events="none" fill="none" stroke="white" stroke-width="1.5" d="M0,-3.0v7 M-2.5,-0.5L0,-3.0L2.5,-0.5"/>
  </g>
  <g id="arrowDown" transform="rotate(180) translate(-30 -48)">
    <use xlink:href="#rim"/>
    <path pointer-events="none" fill="none" stroke="white" stroke-width="1.5" d="M0,-3.0v7 M-2.5,-0.5L0,-3.0L2.5,-0.5"/>
  </g>
  <g id="arrowLeft" transform="rotate(270) translate(-36 17)">
    <use xlink:href="#rim"/>
    <path pointer-events="none" fill="none" stroke="white" stroke-width="1.5" d="M0,-3.0v7 M-2.5,-0.5L0,-3.0L2.5,-0.5"/>
  </g>
  <g id="resetDef">
    <use xlink:href="#rim2" fill="#404040"><set attributeName="fill" to="#808080" begin="reset.mouseover" end="reset.mouseout"/></use>
  </g>
</defs>
<script type="application/ecmascript">
var viewWidth = 2842;
var viewHeight = 247;
var sectionId = 'dynsection-1';
</script>
<script type="application/ecmascript" xlink:href="svg.min.js"/>
<svg id="graph" class="graph">
<g id="viewport">
<title>include/po.h</title>
<!-- Node1 -->
<g id="Node000001" class="node">
<title>Node1</title>
<g id="a_Node000001"><a xlink:title="Player object.">
<polygon fill="#999999" stroke="#666666" points="1113.5,-239 1037.5,-239 1037.5,-220 1113.5,-220 1113.5,-239"/>
<text text-anchor="middle" x="1075.5" y="-227" font-family="Helvetica,sans-Serif" font-size="10.00">include/po.h</text>
</a>
</g>
</g>
<!-- Node2 -->
<g id="Node000002" class="node">
<title>Node2</title>
<g id="a_Node000002"><a xlink:href="bomb_8h.html" target="_top" xlink:title=" ">
<polygon fill="white" stroke="#666666" points="203.5,-184 111.5,-184 111.5,-165 203.5,-165 203.5,-184"/>
<text text-anchor="middle" x="157.5" y="-172" font-family="Helvetica,sans-Serif" font-size="10.00">include/bomb.h</text>
</a>
</g>
</g>
<!-- Node1&#45;&gt;Node2 -->
<g id="edge1_Node000001_Node000002" class="edge">
<title>Node1&#45;&gt;Node2</title>
<g id="a_edge1_Node000001_Node000002"><a xlink:title=" ">
<path fill="none" stroke="#63b8ff" d="M1027.28,-227.5C896.63,-224.47 525.04,-213.7 217.5,-184 213,-183.57 208.31,-183.04 203.64,-182.46"/>
<polygon fill="#63b8ff" stroke="#63b8ff" points="1027.28,-231 1037.35,-227.73 1027.44,-224 1027.28,-231"/>
</a>
</g>
</g>
<!-- Node6 -->
<g id="Node000006" class="node">
<title>Node6</title>
<g id="a_Node000006"><a xlink:href="dart_8h.html" target="_top" xlink:title="Dartgun projectiles.">
<polygon fill="white" stroke="#666666" points="936,-129 853,-129 853,-110 936,-110 936,-129"/>
<text text-anchor="middle" x="894.5" y="-117" font-family="Helvetica,sans-Serif" font-size="10.00">include/dart.h</text>
</a>
</g>
</g>
<!-- Node1&#45;&gt;Node6 -->
<g id="edge5_Node000001_Node000006" class="edge">
<title>Node1&#45;&gt;Node6</title>
<g id="a_edge5_Node000001_Node000006"><a xlink:title=" ">
<path fill="none" stroke="#63b8ff" d="M1063.68,-211.52C1053.04,-197.35 1036.24,-177.52 1017.5,-165 991.44,-147.59 957.73,-136.02 932.2,-129.05"/>
<polygon fill="#63b8ff" stroke="#63b8ff" points="1061.04,-213.83 1069.74,-219.88 1066.7,-209.73 1061.04,-213.83"/>
</a>
</g>
</g>
<!-- Node8 -->
<g id="Node000008" class="node">
<title>Node8</title>
<g id="a_Node000008"><a xlink:href="lgn_8h.html" target="_top" xlink:title=" ">
<polygon fill="white" stroke="#666666" points="241,-74 162,-74 162,-55 241,-55 241,-74"/>
<text text-anchor="middle" x="201.5" y="-62" font-family="Helvetica,sans-Serif" font-size="10.00">include/lgn.h</text>
</a>
</g>
</g>
<!-- Node1&#45;&gt;Node8 -->
<g id="edge7_Node000001_Node000008" class="edge">
<title>Node1&#45;&gt;Node8</title>
<g id="a_edge7_Node000001_Node000008"><a xlink:title=" ">
<path fill="none" stroke="#63b8ff" d="M1026.94,-228.76C860.4,-229.24 319.17,-227.44 255.5,-184 235.89,-170.62 212.12,-99.45 204.2,-74.31"/>
<polygon fill="#63b8ff" stroke="#63b8ff" points="1027.37,-232.26 1037.36,-228.72 1027.35,-225.26 1027.37,-232.26"/>
</a>
</g>
</g>
<!-- Node10 -->
<g id="Node000010" class="node">
<title>Node10</title>
<g id="a_Node000010"><a xlink:href="pzo_8h.html" target="_top" xlink:title="Vaults, clue bottles, keys and locks.">
<polygon fill="white" stroke="#666666" points="1294,-184 1213,-184 1213,-165 1294,-165 1294,-184"/>
<text text-anchor="middle" x="1253.5" y="-172" font-family="Helvetica,sans-Serif" font-size="10.00">include/pzo.h</text>
</a>
</g>
</g>
<!-- Node1&#45;&gt;Node10 -->
<g id="edge9_Node000001_Node000010" class="edge">
<title>Node1&#45;&gt;Node10</title>
<g id="a_edge9_Node000001_Node000010"><a xlink:title=" ">
<path fill="none" stroke="#63b8ff" d="M1113.94,-217.06C1147.2,-207.15 1194.58,-193.04 1224.68,-184.08"/>
<polygon fill="#63b8ff" stroke="#63b8ff" points="1112.68,-213.78 1104.1,-219.98 1114.68,-220.49 1112.68,-213.78"/>
</a>
</g>
</g>
<!-- Node12 -->
<g id="Node000012" class="node">
<title>Node12</title>
<g id="a_Node000012"><a xlink:href="rog_8h.html" target="_top" xlink:title=" ">
<polygon fill="white" stroke="#666666" points="1392.5,-184 1312.5,-184 1312.5,-165 1392.5,-165 1392.5,-184"/>
<text text-anchor="middle" x="1352.5" y="-172" font-family="Helvetica,sans-Serif" font-size="10.00">include/rog.h</text>
</a>
</g>
</g>
<!-- Node1&#45;&gt;Node12 -->
<g id="edge11_Node000001_Node000012" class="edge">
<title>Node1&#45;&gt;Node12</title>
<g id="a_edge11_Node000001_Node000012"><a xlink:title=" ">
<path fill="none" stroke="#63b8ff" d="M1123.65,-219.29C1177.11,-209.06 1262.46,-192.73 1312.43,-183.17"/>
<polygon fill="#63b8ff" stroke="#63b8ff" points="1122.89,-215.87 1113.72,-221.19 1124.2,-222.74 1122.89,-215.87"/>
</a>
</g>
</g>
<!-- Node14 -->
<g id="Node000014" class="node">
<title>Node14</title>
<g id="a_Node000014"><a xlink:href="step_8h.html" target="_top" xlink:title=" ">
<polygon fill="white" stroke="#666666" points="1009,-184 924,-184 924,-165 1009,-165 1009,-184"/>
<text text-anchor="middle" x="966.5" y="-172" font-family="Helvetica,sans-Serif" font-size="10.00">include/step.h</text>
</a>
</g>
</g>
<!-- Node1&#45;&gt;Node14 -->
<g id="edge13_Node000001_Node000014" class="edge">
<title>Node1&#45;&gt;Node14</title>
<g id="a_edge13_Node000001_Node000014"><a xlink:title=" ">
<path fill="none" stroke="#63b8ff" d="M1048.77,-215.5C1028.71,-205.75 1001.82,-192.68 984.33,-184.17"/>
<polygon fill="#63b8ff" stroke="#63b8ff" points="1047.46,-218.76 1057.99,-219.98 1050.52,-212.46 1047.46,-218.76"/>
</a>
</g>
</g>
<!-- Node39 -->
<g id="Node000039" class="node">
<title>Node39</title>
<g id="a_Node000039"><a xlink:href="tank_8h.html" target="_top" xlink:title=" ">
<polygon fill="white" stroke="#666666" points="383.5,-74 297.5,-74 297.5,-55 383.5,-55 383.5,-74"/>
<text text-anchor="middle" x="340.5" y="-62" font-family="Helvetica,sans-Serif" font-size="10.00">include/tank.h</text>
</a>
</g>
</g>
<!-- Node1&#45;&gt;Node39 -->
<g id="edge52_Node000001_Node000039" class="edge">
<title>Node1&#45;&gt;Node39</title>
<g id="a_edge52_Node000001_Node000039"><a xlink:title=" ">
<path fill="none" stroke="#63b8ff" d="M1027.3,-218.44C943.07,-200.78 763.64,-162.88 612.5,-129 527.56,-109.96 428.01,-86.4 376.1,-74.02"/>
<polygon fill="#63b8ff" stroke="#63b8ff" points="1026.83,-221.91 1037.34,-220.54 1028.27,-215.06 1026.83,-221.91"/>
</a>
</g>
</g>
<!-- Node40 -->
<g id="Node000040" class="node">
<title>Node40</title>
<g id="a_Node000040"><a xlink:href="tank_8c.html" target="_top" xlink:title=" ">
<polygon fill="white" stroke="#666666" points="358,-19 279,-19 279,0 358,0 358,-19"/>
<text text-anchor="middle" x="318.5" y="-7" font-family="Helvetica,sans-Serif" font-size="10.00">src/P2/tank.c</text>
</a>
</g>
</g>
<!-- Node1&#45;&gt;Node40 -->
<g id="edge59_Node000001_Node000040" class="edge">
<title>Node1&#45;&gt;Node40</title>
<g id="a_edge59_Node000001_Node000040"><a xlink:title=" ">
<path fill="none" stroke="#63b8ff" d="M1027.27,-222.16C968.9,-214.27 867.71,-199.88 781.5,-184 560.71,-143.34 428.4,-249.58 288.5,-74 274.82,-56.84 295.21,-32.41 308.52,-19.43"/>
<polygon fill="#63b8ff" stroke="#63b8ff" points="1026.94,-225.65 1037.31,-223.51 1027.87,-218.71 1026.94,-225.65"/>
</a>
</g>
</g>
<!-- Node42 -->
<g id="Node000042" class="node">
<title>Node42</title>
<g id="a_Node000042"><a xlink:href="po_8c.html" target="_top" xlink:title=" ">
<polygon fill="white" stroke="#666666" points="1752,-74 1683,-74 1683,-55 1752,-55 1752,-74"/>
<text text-anchor="middle" x="1717.5" y="-62" font-family="Helvetica,sans-Serif" font-size="10.00">src/P2/po.c</text>
</a>
</g>
</g>
<!-- Node1&#45;&gt;Node42 -->
<g id="edge57_Node000001_Node000042" class="edge">
<title>Node1&#45;&gt;Node42</title>
<g id="a_edge57_Node000001_Node000042"><a xlink:title=" ">
<path fill="none" stroke="#63b8ff" d="M1076.03,-209.29C1077.51,-194.95 1081.93,-176.01 1094.5,-165 1105.78,-155.12 1553.69,-89.33 1682.93,-70.52"/>
<polygon fill="#63b8ff" stroke="#63b8ff" points="1072.52,-209.37 1075.38,-219.57 1079.51,-209.81 1072.52,-209.37"/>
</a>
</g>
</g>
<!-- Node63 -->
<g id="Node000063" class="node">
<title>Node63</title>
<g id="a_Node000063"><a xlink:href="turret_8h.html" target="_top" xlink:title="Stationary turret from Murray levels(?).">
<polygon fill="white" stroke="#666666" points="1195,-184 1104,-184 1104,-165 1195,-165 1195,-184"/>
<text text-anchor="middle" x="1149.5" y="-172" font-family="Helvetica,sans-Serif" font-size="10.00">include/turret.h</text>
</a>
</g>
</g>
<!-- Node1&#45;&gt;Node63 -->
<g id="edge53_Node000001_Node000063" class="edge">
<title>Node1&#45;&gt;Node63</title>
<g id="a_edge53_Node000001_Node000063"><a xlink:title=" ">
<path fill="none" stroke="#63b8ff" d="M1095.53,-214.15C1108.91,-204.57 1126.06,-192.29 1137.39,-184.17"/>
<polygon fill="#63b8ff" stroke="#63b8ff" points="1093.48,-211.32 1087.39,-219.98 1097.56,-217.01 1093.48,-211.32"/>
</a>
</g>
</g>
<!-- Node65 -->
<g id="Node000065" class="node">
<title>Node65</title>
<g id="a_Node000065"><a xlink:href="break_8c.html" target="_top" xlink:title=" ">
<polygon fill="white" stroke="#666666" points="1496,-184 1411,-184 1411,-165 1496,-165 1496,-184"/>
<text text-anchor="middle" x="1453.5" y="-172" font-family="Helvetica,sans-Serif" font-size="10.00">src/P2/break.c</text>
</a>
</g>
</g>
<!-- Node1&#45;&gt;Node65 -->
<g id="edge56_Node000001_Node000065" class="edge">
<title>Node1&#45;&gt;Node65</title>
<g id="a_edge56_Node000001_Node000065"><a xlink:title=" ">
<path fill="none" stroke="#63b8ff" d="M1123.83,-222.31C1187.53,-214.05 1303.04,-198.76 1401.5,-184 1404.58,-183.54 1407.75,-183.05 1410.95,-182.55"/>
<polygon fill="#63b8ff" stroke="#63b8ff" points="1123.16,-218.87 1113.69,-223.62 1124.06,-225.81 1123.16,-218.87"/>
</a>
</g>
</g>
<!-- Node66 -->
<g id="Node000066" class="node">
<title>Node66</title>
<g id="a_Node000066"><a xlink:href="bif_8cpp.html" target="_top" xlink:title=" ">
<polygon fill="white" stroke="#666666" points="1627,-184 1514,-184 1514,-165 1627,-165 1627,-184"/>
<text text-anchor="middle" x="1570.5" y="-172" font-family="Helvetica,sans-Serif" font-size="10.00">src/P2/splice/bif.cpp</text>
</a>
</g>
</g>
<!-- Node1&#45;&gt;Node66 -->
<g id="edge58_Node000001_Node000066" class="edge">
<title>Node1&#45;&gt;Node66</title>
<g id="a_edge58_Node000001_Node000066"><a xlink:title=" ">
<path fill="none" stroke="#63b8ff" d="M1123.7,-223.94C1203.28,-216.31 1367.1,-200.21 1505.5,-184 1508.21,-183.68 1510.99,-183.35 1513.79,-183.01"/>
<polygon fill="#63b8ff" stroke="#63b8ff" points="1123.12,-220.48 1113.5,-224.91 1123.79,-227.45 1123.12,-220.48"/>
</a>
</g>
</g>
<!-- Node67 -->
<g id="Node000067" class="node">
<title>Node67</title>
<g id="a_Node000067"><a xlink:href="zap_8c.html" target="_top" xlink:title=" ">
<polygon fill="white" stroke="#666666" points="1719.5,-184 1645.5,-184 1645.5,-165 1719.5,-165 1719.5,-184"/>
<text text-anchor="middle" x="1682.5" y="-172" font-family="Helvetica,sans-Serif" font-size="10.00">src/P2/zap.c</text>
</a>
</g>
</g>
<!-- Node1&#45;&gt;Node67 -->
<g id="edge60_Node000001_Node000067" class="edge">
<title>Node1&#45;&gt;Node67</title>
<g id="a_edge60_Node000001_Node000067"><a xlink:title=" ">
<path fill="none" stroke="#63b8ff" d="M1123.86,-226.35C1221.22,-221.66 1447.71,-208.86 1636.5,-184 1639.4,-183.62 1642.39,-183.18 1645.4,-182.7"/>
<polygon fill="#63b8ff" stroke="#63b8ff" points="1123.56,-222.86 1113.74,-226.83 1123.89,-229.86 1123.56,-222.86"/>
</a>
</g>
</g>
<!-- Node3 -->
<g id="Node000003" class="node">
<title>Node3</title>
<g id="a_Node000003"><a xlink:href="missile_8h.html" target="_top" xlink:title=" ">
<polygon fill="white" stroke="#666666" points="99,-129 0,-129 0,-110 99,-110 99,-129"/>
<text text-anchor="middle" x="49.5" y="-117" font-family="Helvetica,sans-Serif" font-size="10.00">include/missile.h</text>
</a>
</g>
</g>
<!-- Node2&#45;&gt;Node3 -->
<g id="edge2_Node000002_Node000003" class="edge">
<title>Node2&#45;&gt;Node3</title>
<g id="a_edge2_Node000002_Node000003"><a xlink:title=" ">
<path fill="none" stroke="#63b8ff" d="M131.01,-160.5C111.14,-150.75 84.5,-137.68 67.17,-129.17"/>
<polygon fill="#63b8ff" stroke="#63b8ff" points="129.63,-163.72 140.15,-164.98 132.71,-157.44 129.63,-163.72"/>
</a>
</g>
</g>
<!-- Node5 -->
<g id="Node000005" class="node">
<title>Node5</title>
<g id="a_Node000005"><a xlink:href="bomb_8c.html" target="_top" xlink:title=" ">
<polygon fill="white" stroke="#666666" points="202,-129 117,-129 117,-110 202,-110 202,-129"/>
<text text-anchor="middle" x="159.5" y="-117" font-family="Helvetica,sans-Serif" font-size="10.00">src/P2/bomb.c</text>
</a>
</g>
</g>
<!-- Node2&#45;&gt;Node5 -->
<g id="edge4_Node000002_Node000005" class="edge">
<title>Node2&#45;&gt;Node5</title>
<g id="a_edge4_Node000002_Node000005"><a xlink:title=" ">
<path fill="none" stroke="#63b8ff" d="M158.21,-154.66C158.54,-145.93 158.92,-135.99 159.18,-129.09"/>
<polygon fill="#63b8ff" stroke="#63b8ff" points="154.71,-154.62 157.83,-164.75 161.7,-154.89 154.71,-154.62"/>
</a>
</g>
</g>
<!-- Node4 -->
<g id="Node000004" class="node">
<title>Node4</title>
<g id="a_Node000004"><a xlink:href="missile_8c.html" target="_top" xlink:title=" ">
<polygon fill="white" stroke="#666666" points="95.5,-74 3.5,-74 3.5,-55 95.5,-55 95.5,-74"/>
<text text-anchor="middle" x="49.5" y="-62" font-family="Helvetica,sans-Serif" font-size="10.00">src/P2/missile.c</text>
</a>
</g>
</g>
<!-- Node3&#45;&gt;Node4 -->
<g id="edge3_Node000003_Node000004" class="edge">
<title>Node3&#45;&gt;Node4</title>
<g id="a_edge3_Node000003_Node000004"><a xlink:title=" ">
<path fill="none" stroke="#63b8ff" d="M49.5,-99.66C49.5,-90.93 49.5,-80.99 49.5,-74.09"/>
<polygon fill="#63b8ff" stroke="#63b8ff" points="46,-99.75 49.5,-109.75 53,-99.75 46,-99.75"/>
</a>
</g>
</g>
<!-- Node7 -->
<g id="Node000007" class="node">
<title>Node7</title>
<g id="a_Node000007"><a xlink:href="dart_8c.html" target="_top" xlink:title=" ">
<polygon fill="white" stroke="#666666" points="479,-74 402,-74 402,-55 479,-55 479,-74"/>
<text text-anchor="middle" x="440.5" y="-62" font-family="Helvetica,sans-Serif" font-size="10.00">src/P2/dart.c</text>
</a>
</g>
</g>
<!-- Node6&#45;&gt;Node7 -->
<g id="edge6_Node000006_Node000007" class="edge">
<title>Node6&#45;&gt;Node7</title>
<g id="a_edge6_Node000006_Node000007"><a xlink:title=" ">
<path fill="none" stroke="#63b8ff" d="M842.7,-109.98C684.6,-89.22 642.35,-95.39 488.5,-74 485.48,-73.58 482.36,-73.11 479.23,-72.61"/>
<polygon fill="#63b8ff" stroke="#63b8ff" points="842.41,-113.48 852.78,-111.32 843.33,-106.54 842.41,-113.48"/>
</a>
</g>
</g>
<!-- Node9 -->
<g id="Node000009" class="node">
<title>Node9</title>
<g id="a_Node000009"><a xlink:href="lgn_8c.html" target="_top" xlink:title=" ">
<polygon fill="white" stroke="#666666" points="237.5,-19 165.5,-19 165.5,0 237.5,0 237.5,-19"/>
<text text-anchor="middle" x="201.5" y="-7" font-family="Helvetica,sans-Serif" font-size="10.00">src/P2/lgn.c</text>
</a>
</g>
</g>
<!-- Node8&#45;&gt;Node9 -->
<g id="edge8_Node000008_Node000009" class="edge">
<title>Node8&#45;&gt;Node9</title>
<g id="a_edge8_Node000008_Node000009"><a xlink:title=" ">
<path fill="none" stroke="#63b8ff" d="M201.5,-44.66C201.5,-35.93 201.5,-25.99 201.5,-19.09"/>
<polygon fill="#63b8ff" stroke="#63b8ff" points="198,-44.75 201.5,-54.75 205,-44.75 198,-44.75"/>
</a>
</g>
</g>
<!-- Node11 -->
<g id="Node000011" class="node">
<title>Node11</title>
<g id="a_Node000011"><a xlink:href="pzo_8c.html" target="_top" xlink:title=" ">
<polygon fill="white" stroke="#666666" points="2465.5,-129 2391.5,-129 2391.5,-110 2465.5,-110 2465.5,-129"/>
<text text-anchor="middle" x="2428.5" y="-117" font-family="Helvetica,sans-Serif" font-size="10.00">src/P2/pzo.c</text>
</a>
</g>
</g>
<!-- Node10&#45;&gt;Node11 -->
<g id="edge10_Node000010_Node000011" class="edge">
<title>Node10&#45;&gt;Node11</title>
<g id="a_edge10_Node000010_Node000011"><a xlink:title=" ">
<path fill="none" stroke="#63b8ff" d="M1304.38,-165.09C1782.67,-117.58 1908.85,-180.37 2382.5,-129 2385.41,-128.68 2388.41,-128.29 2391.41,-127.84"/>
<polygon fill="#63b8ff" stroke="#63b8ff" points="1303.7,-161.64 1294.1,-166.13 1304.4,-168.61 1303.7,-161.64"/>
</a>
</g>
</g>
<!-- Node13 -->
<g id="Node000013" class="node">
<title>Node13</title>
<g id="a_Node000013"><a xlink:href="rog_8c.html" target="_top" xlink:title=" ">
<polygon fill="white" stroke="#666666" points="2557,-129 2484,-129 2484,-110 2557,-110 2557,-129"/>
<text text-anchor="middle" x="2520.5" y="-117" font-family="Helvetica,sans-Serif" font-size="10.00">src/P2/rog.c</text>
</a>
</g>
</g>
<!-- Node12&#45;&gt;Node13 -->
<g id="edge12_Node000012_Node000013" class="edge">
<title>Node12&#45;&gt;Node13</title>
<g id="a_edge12_Node000012_Node000013"><a xlink:title=" ">
<path fill="none" stroke="#63b8ff" d="M1402.2,-165.03C1402.3,-165.02 1402.4,-165.01 1402.5,-165 1876.78,-116.94 2000.57,-180.45 2474.5,-129 2477.57,-128.67 2480.74,-128.25 2483.91,-127.77"/>
<polygon fill="#63b8ff" stroke="#63b8ff" points="1402.06,-161.52 1392.55,-166.2 1402.9,-168.47 1402.06,-161.52"/>
</a>
</g>
</g>
<!-- Node15 -->
<g id="Node000015" class="node">
<title>Node15</title>
<g id="a_Node000015"><a xlink:href="jt_8h.html" target="_top" xlink:title="Sly entity.">
<polygon fill="white" stroke="#666666" points="1025,-129 954,-129 954,-110 1025,-110 1025,-129"/>
<text text-anchor="middle" x="989.5" y="-117" font-family="Helvetica,sans-Serif" font-size="10.00">include/jt.h</text>
</a>
</g>
</g>
<!-- Node14&#45;&gt;Node15 -->
<g id="edge14_Node000014_Node000015" class="edge">
<title>Node14&#45;&gt;Node15</title>
<g id="a_edge14_Node000014_Node000015"><a xlink:title=" ">
<path fill="none" stroke="#63b8ff" d="M974.3,-155.53C978.18,-146.6 982.68,-136.22 985.77,-129.09"/>
<polygon fill="#63b8ff" stroke="#63b8ff" points="971.07,-154.18 970.3,-164.75 977.49,-156.97 971.07,-154.18"/>
</a>
</g>
</g>
<!-- Node14&#45;&gt;Node39 -->
<g id="edge50_Node000014_Node000039" class="edge">
<title>Node14&#45;&gt;Node39</title>
<g id="a_edge50_Node000014_Node000039"><a xlink:title=" ">
<path fill="none" stroke="#63b8ff" d="M913.81,-164.41C792.4,-143.46 494.87,-92.13 383.51,-72.92"/>
<polygon fill="#63b8ff" stroke="#63b8ff" points="913.52,-167.91 923.96,-166.16 914.71,-161.01 913.52,-167.91"/>
</a>
</g>
</g>
<!-- Node43 -->
<g id="Node000043" class="node">
<title>Node43</title>
<g id="a_Node000043"><a xlink:href="stepguard_8h.html" target="_top" xlink:title=" ">
<polygon fill="white" stroke="#666666" points="2233,-129 2120,-129 2120,-110 2233,-110 2233,-129"/>
<text text-anchor="middle" x="2176.5" y="-117" font-family="Helvetica,sans-Serif" font-size="10.00">include/stepguard.h</text>
</a>
</g>
</g>
<!-- Node14&#45;&gt;Node43 -->
<g id="edge36_Node000014_Node000043" class="edge">
<title>Node14&#45;&gt;Node43</title>
<g id="a_edge36_Node000014_Node000043"><a xlink:title=" ">
<path fill="none" stroke="#63b8ff" d="M1019.42,-169.69C1042.47,-168.1 1069.81,-166.33 1094.5,-165 1486.63,-143.92 1959.18,-127.61 2119.87,-122.33"/>
<polygon fill="#63b8ff" stroke="#63b8ff" points="1018.88,-166.21 1009.15,-170.4 1019.37,-173.2 1018.88,-166.21"/>
</a>
</g>
</g>
<!-- Node62 -->
<g id="Node000062" class="node">
<title>Node62</title>
<g id="a_Node000062"><a xlink:href="step_8c.html" target="_top" xlink:title=" ">
<polygon fill="white" stroke="#666666" points="834.5,-129 756.5,-129 756.5,-110 834.5,-110 834.5,-129"/>
<text text-anchor="middle" x="795.5" y="-117" font-family="Helvetica,sans-Serif" font-size="10.00">src/P2/step.c</text>
</a>
</g>
</g>
<!-- Node14&#45;&gt;Node62 -->
<g id="edge51_Node000014_Node000062" class="edge">
<title>Node14&#45;&gt;Node62</title>
<g id="a_edge51_Node000014_Node000062"><a xlink:title=" ">
<path fill="none" stroke="#63b8ff" d="M929.16,-161.93C897.22,-152.03 851.98,-138.01 823.19,-129.08"/>
<polygon fill="#63b8ff" stroke="#63b8ff" points="928.44,-165.37 939.03,-164.98 930.51,-158.68 928.44,-165.37"/>
</a>
</g>
</g>
<!-- Node15&#45;&gt;Node7 -->
<g id="edge32_Node000015_Node000007" class="edge">
<title>Node15&#45;&gt;Node7</title>
<g id="a_edge32_Node000015_Node000007"><a xlink:title=" ">
<path fill="none" stroke="#63b8ff" d="M943.63,-110.04C741.25,-83.62 686.91,-99.34 488.5,-74 485.48,-73.61 482.36,-73.17 479.22,-72.69"/>
<polygon fill="#63b8ff" stroke="#63b8ff" points="943.32,-113.53 953.7,-111.38 944.24,-106.59 943.32,-113.53"/>
</a>
</g>
</g>
<!-- Node15&#45;&gt;Node8 -->
<g id="edge20_Node000015_Node000008" class="edge">
<title>Node15&#45;&gt;Node8</title>
<g id="a_edge20_Node000015_Node000008"><a xlink:title=" ">
<path fill="none" stroke="#63b8ff" d="M943.71,-110.09C652.92,-75.3 576.38,-95.95 288.5,-74 273.07,-72.82 256.12,-71.23 241.32,-69.75"/>
<polygon fill="#63b8ff" stroke="#63b8ff" points="943.36,-113.57 953.7,-111.3 944.2,-106.62 943.36,-113.57"/>
</a>
</g>
</g>
<!-- Node16 -->
<g id="Node000016" class="node">
<title>Node16</title>
<g id="a_Node000016"><a xlink:href="jsg_8h.html" target="_top" xlink:title=" ">
<polygon fill="white" stroke="#666666" points="575.5,-74 497.5,-74 497.5,-55 575.5,-55 575.5,-74"/>
<text text-anchor="middle" x="536.5" y="-62" font-family="Helvetica,sans-Serif" font-size="10.00">include/jsg.h</text>
</a>
</g>
</g>
<!-- Node15&#45;&gt;Node16 -->
<g id="edge15_Node000015_Node000016" class="edge">
<title>Node15&#45;&gt;Node16</title>
<g id="a_edge15_Node000015_Node000016"><a xlink:title=" ">
<path fill="none" stroke="#63b8ff" d="M943.49,-109.99C783.59,-87.41 740.51,-95.58 584.5,-74 581.65,-73.61 578.71,-73.17 575.75,-72.7"/>
<polygon fill="#63b8ff" stroke="#63b8ff" points="943.29,-113.49 953.69,-111.44 944.28,-106.56 943.29,-113.49"/>
</a>
</g>
</g>
<!-- Node18 -->
<g id="Node000018" class="node">
<title>Node18</title>
<g id="a_Node000018"><a xlink:href="jump_8h.html" target="_top" xlink:title=" ">
<polygon fill="white" stroke="#666666" points="683,-74 594,-74 594,-55 683,-55 683,-74"/>
<text text-anchor="middle" x="638.5" y="-62" font-family="Helvetica,sans-Serif" font-size="10.00">include/jump.h</text>
</a>
</g>
</g>
<!-- Node15&#45;&gt;Node18 -->
<g id="edge17_Node000015_Node000018" class="edge">
<title>Node15&#45;&gt;Node18</title>
<g id="a_edge17_Node000015_Node000018"><a xlink:title=" ">
<path fill="none" stroke="#63b8ff" d="M943.58,-109.92C830.76,-91.42 800.62,-90.51 691.5,-74 688.74,-73.58 685.89,-73.14 683.02,-72.7"/>
<polygon fill="#63b8ff" stroke="#63b8ff" points="943.23,-113.4 953.66,-111.58 944.37,-106.5 943.23,-113.4"/>
</a>
</g>
</g>
<!-- Node21 -->
<g id="Node000021" class="node">
<title>Node21</title>
<g id="a_Node000021"><a xlink:href="rchm_8h.html" target="_top" xlink:title=" ">
<polygon fill="#fff0f0" stroke="red" points="790,-74 701,-74 701,-55 790,-55 790,-74"/>
<text text-anchor="middle" x="745.5" y="-62" font-family="Helvetica,sans-Serif" font-size="10.00">include/rchm.h</text>
</a>
</g>
</g>
<!-- Node15&#45;&gt;Node21 -->
<g id="edge21_Node000015_Node000021" class="edge">
<title>Node15&#45;&gt;Node21</title>
<g id="a_edge21_Node000015_Node000021"><a xlink:title=" ">
<path fill="none" stroke="#63b8ff" d="M943.81,-108.58C898.07,-98.64 828.4,-83.51 784.98,-74.08"/>
<polygon fill="#63b8ff" stroke="#63b8ff" points="943.24,-112.03 953.76,-110.74 944.73,-105.19 943.24,-112.03"/>
</a>
</g>
</g>
<!-- Node23 -->
<g id="Node000023" class="node">
<title>Node23</title>
<g id="a_Node000023"><a xlink:href="stepcane_8h.html" target="_top" xlink:title=" ">
<polygon fill="#fff0f0" stroke="red" points="916.5,-74 808.5,-74 808.5,-55 916.5,-55 916.5,-74"/>
<text text-anchor="middle" x="862.5" y="-62" font-family="Helvetica,sans-Serif" font-size="10.00">include/stepcane.h</text>
</a>
</g>
</g>
<!-- Node15&#45;&gt;Node23 -->
<g id="edge22_Node000015_Node000023" class="edge">
<title>Node15&#45;&gt;Node23</title>
<g id="a_edge22_Node000015_Node000023"><a xlink:title=" ">
<path fill="none" stroke="#63b8ff" d="M959.62,-106.03C936.13,-96.23 904.03,-82.83 883.28,-74.17"/>
<polygon fill="#63b8ff" stroke="#63b8ff" points="958.52,-109.36 969.1,-109.98 961.21,-102.9 958.52,-109.36"/>
</a>
</g>
</g>
<!-- Node29 -->
<g id="Node000029" class="node">
<title>Node29</title>
<g id="a_Node000029"><a xlink:href="stephang_8h.html" target="_top" xlink:title=" ">
<polygon fill="#fff0f0" stroke="red" points="1044,-74 935,-74 935,-55 1044,-55 1044,-74"/>
<text text-anchor="middle" x="989.5" y="-62" font-family="Helvetica,sans-Serif" font-size="10.00">include/stephang.h</text>
</a>
</g>
</g>
<!-- Node15&#45;&gt;Node29 -->
<g id="edge23_Node000015_Node000029" class="edge">
<title>Node15&#45;&gt;Node29</title>
<g id="a_edge23_Node000015_Node000029"><a xlink:title=" ">
<path fill="none" stroke="#63b8ff" d="M989.5,-99.66C989.5,-90.93 989.5,-80.99 989.5,-74.09"/>
<polygon fill="#63b8ff" stroke="#63b8ff" points="986,-99.75 989.5,-109.75 993,-99.75 986,-99.75"/>
</a>
</g>
</g>
<!-- Node31 -->
<g id="Node000031" class="node">
<title>Node31</title>
<g id="a_Node000031"><a xlink:href="stephide_8h.html" target="_top" xlink:title=" ">
<polygon fill="#fff0f0" stroke="red" points="1168.5,-74 1062.5,-74 1062.5,-55 1168.5,-55 1168.5,-74"/>
<text text-anchor="middle" x="1115.5" y="-62" font-family="Helvetica,sans-Serif" font-size="10.00">include/stephide.h</text>
</a>
</g>
</g>
<!-- Node15&#45;&gt;Node31 -->
<g id="edge24_Node000015_Node000031" class="edge">
<title>Node15&#45;&gt;Node31</title>
<g id="a_edge24_Node000015_Node000031"><a xlink:title=" ">
<path fill="none" stroke="#63b8ff" d="M1019.15,-106.03C1042.45,-96.23 1074.3,-82.83 1094.89,-74.17"/>
<polygon fill="#63b8ff" stroke="#63b8ff" points="1017.6,-102.88 1009.74,-109.98 1020.32,-109.33 1017.6,-102.88"/>
</a>
</g>
</g>
<!-- Node33 -->
<g id="Node000033" class="node">
<title>Node33</title>
<g id="a_Node000033"><a xlink:href="steppipe_8h.html" target="_top" xlink:title=" ">
<polygon fill="#fff0f0" stroke="red" points="1292.5,-74 1186.5,-74 1186.5,-55 1292.5,-55 1292.5,-74"/>
<text text-anchor="middle" x="1239.5" y="-62" font-family="Helvetica,sans-Serif" font-size="10.00">include/steppipe.h</text>
</a>
</g>
</g>
<!-- Node15&#45;&gt;Node33 -->
<g id="edge25_Node000015_Node000033" class="edge">
<title>Node15&#45;&gt;Node33</title>
<g id="a_edge25_Node000015_Node000033"><a xlink:title=" ">
<path fill="none" stroke="#63b8ff" d="M1034.93,-108.87C1081.79,-98.93 1154.18,-83.59 1199.1,-74.06"/>
<polygon fill="#63b8ff" stroke="#63b8ff" points="1034.11,-105.46 1025.05,-110.96 1035.56,-112.31 1034.11,-105.46"/>
</a>
</g>
</g>
<!-- Node35 -->
<g id="Node000035" class="node">
<title>Node35</title>
<g id="a_Node000035"><a xlink:href="steppower_8h.html" target="_top" xlink:title=" ">
<polygon fill="white" stroke="#666666" points="1424.5,-74 1310.5,-74 1310.5,-55 1424.5,-55 1424.5,-74"/>
<text text-anchor="middle" x="1367.5" y="-62" font-family="Helvetica,sans-Serif" font-size="10.00">include/steppower.h</text>
</a>
</g>
</g>
<!-- Node15&#45;&gt;Node35 -->
<g id="edge26_Node000015_Node000035" class="edge">
<title>Node15&#45;&gt;Node35</title>
<g id="a_edge26_Node000015_Node000035"><a xlink:title=" ">
<path fill="none" stroke="#63b8ff" d="M1035.19,-112.09C1104.26,-102.41 1235.14,-84.06 1310.39,-73.51"/>
<polygon fill="#63b8ff" stroke="#63b8ff" points="1034.48,-108.66 1025.06,-113.51 1035.45,-115.59 1034.48,-108.66"/>
</a>
</g>
</g>
<!-- Node36 -->
<g id="Node000036" class="node">
<title>Node36</title>
<g id="a_Node000036"><a xlink:href="steppower_8c.html" target="_top" xlink:title=" ">
<polygon fill="white" stroke="#666666" points="1547,-19 1440,-19 1440,0 1547,0 1547,-19"/>
<text text-anchor="middle" x="1493.5" y="-7" font-family="Helvetica,sans-Serif" font-size="10.00">src/P2/steppower.c</text>
</a>
</g>
</g>
<!-- Node15&#45;&gt;Node36 -->
<g id="edge35_Node000015_Node000036" class="edge">
<title>Node15&#45;&gt;Node36</title>
<g id="a_edge35_Node000015_Node000036"><a xlink:title=" ">
<path fill="none" stroke="#63b8ff" d="M1035.34,-112.71C1044.02,-111.72 1053.03,-110.76 1061.5,-110 1125.14,-104.25 1591.75,-120.58 1635.5,-74 1665.82,-41.72 1599.02,-24.74 1547.08,-16.7"/>
<polygon fill="#63b8ff" stroke="#63b8ff" points="1034.88,-109.24 1025.35,-113.88 1035.69,-116.19 1034.88,-109.24"/>
</a>
</g>
</g>
<!-- Node37 -->
<g id="Node000037" class="node">
<title>Node37</title>
<g id="a_Node000037"><a xlink:href="steprail_8h.html" target="_top" xlink:title="Rail behavior for STEP objects.">
<polygon fill="#fff0f0" stroke="red" points="1544,-74 1443,-74 1443,-55 1544,-55 1544,-74"/>
<text text-anchor="middle" x="1493.5" y="-62" font-family="Helvetica,sans-Serif" font-size="10.00">include/steprail.h</text>
</a>
</g>
</g>
<!-- Node15&#45;&gt;Node37 -->
<g id="edge28_Node000015_Node000037" class="edge">
<title>Node15&#45;&gt;Node37</title>
<g id="a_edge28_Node000015_Node000037"><a xlink:title=" ">
<path fill="none" stroke="#63b8ff" d="M1035.08,-112.97C1043.85,-111.95 1052.95,-110.92 1061.5,-110 1226.66,-92.26 1268.56,-93.65 1433.5,-74 1436.53,-73.64 1439.64,-73.25 1442.78,-72.85"/>
<polygon fill="#63b8ff" stroke="#63b8ff" points="1034.53,-109.51 1025.01,-114.16 1035.35,-116.46 1034.53,-109.51"/>
</a>
</g>
</g>
<!-- Node15&#45;&gt;Node39 -->
<g id="edge30_Node000015_Node000039" class="edge">
<title>Node15&#45;&gt;Node39</title>
<g id="a_edge30_Node000015_Node000039"><a xlink:title=" ">
<path fill="none" stroke="#63b8ff" d="M943.42,-110.04C698.81,-79.74 633.43,-101.48 392.5,-74 389.59,-73.67 386.6,-73.29 383.59,-72.87"/>
<polygon fill="#63b8ff" stroke="#63b8ff" points="943.34,-113.56 953.7,-111.33 944.21,-106.61 943.34,-113.56"/>
</a>
</g>
</g>
<!-- Node41 -->
<g id="Node000041" class="node">
<title>Node41</title>
<g id="a_Node000041"><a xlink:href="jt_8c.html" target="_top" xlink:title=" ">
<polygon fill="white" stroke="#666666" points="1626.5,-74 1562.5,-74 1562.5,-55 1626.5,-55 1626.5,-74"/>
<text text-anchor="middle" x="1594.5" y="-62" font-family="Helvetica,sans-Serif" font-size="10.00">src/P2/jt.c</text>
</a>
</g>
</g>
<!-- Node15&#45;&gt;Node41 -->
<g id="edge33_Node000015_Node000041" class="edge">
<title>Node15&#45;&gt;Node41</title>
<g id="a_edge33_Node000015_Node000041"><a xlink:title=" ">
<path fill="none" stroke="#63b8ff" d="M1035.34,-112.78C1044.02,-111.78 1053.03,-110.81 1061.5,-110 1279.76,-89.14 1336.36,-104.32 1553.5,-74 1556.38,-73.6 1559.36,-73.11 1562.34,-72.58"/>
<polygon fill="#63b8ff" stroke="#63b8ff" points="1034.88,-109.31 1025.36,-113.95 1035.7,-116.26 1034.88,-109.31"/>
</a>
</g>
</g>
<!-- Node15&#45;&gt;Node42 -->
<g id="edge34_Node000015_Node000042" class="edge">
<title>Node15&#45;&gt;Node42</title>
<g id="a_edge34_Node000015_Node000042"><a xlink:title=" ">
<path fill="none" stroke="#63b8ff" d="M1035.33,-112.68C1044.01,-111.7 1053.03,-110.75 1061.5,-110 1330.7,-86.15 1400.05,-105.14 1668.5,-74 1673.13,-73.46 1677.99,-72.77 1682.77,-72.02"/>
<polygon fill="#63b8ff" stroke="#63b8ff" points="1034.87,-109.21 1025.35,-113.85 1035.69,-116.17 1034.87,-109.21"/>
</a>
</g>
</g>
<!-- Node17 -->
<g id="Node000017" class="node">
<title>Node17</title>
<g id="a_Node000017"><a xlink:href="jsg_8c.html" target="_top" xlink:title=" ">
<polygon fill="white" stroke="#666666" points="572,-19 501,-19 501,0 572,0 572,-19"/>
<text text-anchor="middle" x="536.5" y="-7" font-family="Helvetica,sans-Serif" font-size="10.00">src/P2/jsg.c</text>
</a>
</g>
</g>
<!-- Node16&#45;&gt;Node17 -->
<g id="edge16_Node000016_Node000017" class="edge">
<title>Node16&#45;&gt;Node17</title>
<g id="a_edge16_Node000016_Node000017"><a xlink:title=" ">
<path fill="none" stroke="#63b8ff" d="M536.5,-44.66C536.5,-35.93 536.5,-25.99 536.5,-19.09"/>
<polygon fill="#63b8ff" stroke="#63b8ff" points="533,-44.75 536.5,-54.75 540,-44.75 533,-44.75"/>
</a>
</g>
</g>
<!-- Node19 -->
<g id="Node000019" class="node">
<title>Node19</title>
<g id="a_Node000019"><a xlink:href="jump_8c.html" target="_top" xlink:title=" ">
<polygon fill="white" stroke="#666666" points="676.5,-19 594.5,-19 594.5,0 676.5,0 676.5,-19"/>
<text text-anchor="middle" x="635.5" y="-7" font-family="Helvetica,sans-Serif" font-size="10.00">src/P2/jump.c</text>
</a>
</g>
</g>
<!-- Node18&#45;&gt;Node19 -->
<g id="edge18_Node000018_Node000019" class="edge">
<title>Node18&#45;&gt;Node19</title>
<g id="a_edge18_Node000018_Node000019"><a xlink:title=" ">
<path fill="none" stroke="#63b8ff" d="M637.43,-44.66C636.94,-35.93 636.38,-25.99 635.99,-19.09"/>
<polygon fill="#63b8ff" stroke="#63b8ff" points="633.94,-44.96 638,-54.75 640.93,-44.57 633.94,-44.96"/>
</a>
</g>
</g>
<!-- Node20 -->
<g id="Node000020" class="node">
<title>Node20</title>
<g id="a_Node000020"><a xlink:href="main_8c.html" target="_top" xlink:title=" ">
<polygon fill="white" stroke="#666666" points="776.5,-19 694.5,-19 694.5,0 776.5,0 776.5,-19"/>
<text text-anchor="middle" x="735.5" y="-7" font-family="Helvetica,sans-Serif" font-size="10.00">src/P2/main.c</text>
</a>
</g>
</g>
<!-- Node18&#45;&gt;Node20 -->
<g id="edge19_Node000018_Node000020" class="edge">
<title>Node18&#45;&gt;Node20</title>
<g id="a_edge19_Node000018_Node000020"><a xlink:title=" ">
<path fill="none" stroke="#63b8ff" d="M663.27,-49.97C681,-40.28 704.35,-27.52 719.63,-19.17"/>
<polygon fill="#63b8ff" stroke="#63b8ff" points="661.18,-47.12 654.08,-54.98 664.54,-53.26 661.18,-47.12"/>
</a>
</g>
</g>
<!-- Node35&#45;&gt;Node36 -->
<g id="edge27_Node000035_Node000036" class="edge">
<title>Node35&#45;&gt;Node36</title>
<g id="a_edge27_Node000035_Node000036"><a xlink:title=" ">
<path fill="none" stroke="#63b8ff" d="M1397.15,-51.03C1420.45,-41.23 1452.3,-27.83 1472.89,-19.17"/>
<polygon fill="#63b8ff" stroke="#63b8ff" points="1395.6,-47.88 1387.74,-54.98 1398.32,-54.33 1395.6,-47.88"/>
</a>
</g>
</g>
<!-- Node37&#45;&gt;Node36 -->
<g id="edge29_Node000037_Node000036" class="edge">
<title>Node37&#45;&gt;Node36</title>
<g id="a_edge29_Node000037_Node000036"><a xlink:title=" ">
<path fill="none" stroke="#63b8ff" d="M1493.5,-44.66C1493.5,-35.93 1493.5,-25.99 1493.5,-19.09"/>
<polygon fill="#63b8ff" stroke="#63b8ff" points="1490,-44.75 1493.5,-54.75 1497,-44.75 1490,-44.75"/>
</a>
</g>
</g>
<!-- Node39&#45;&gt;Node40 -->
<g id="edge31_Node000039_Node000040" class="edge">
<title>Node39&#45;&gt;Node40</title>
<g id="a_edge31_Node000039_Node000040"><a xlink:title=" ">
<path fill="none" stroke="#63b8ff" d="M332.92,-45.24C329.24,-36.37 324.99,-26.14 322.07,-19.09"/>
<polygon fill="#63b8ff" stroke="#63b8ff" points="329.8,-46.85 336.87,-54.75 336.27,-44.17 329.8,-46.85"/>
</a>
</g>
</g>
<!-- Node44 -->
<g id="Node000044" class="node">
<title>Node44</title>
<g id="a_Node000044"><a xlink:href="crusher_8h.html" target="_top" xlink:title=" ">
<polygon fill="#fff0f0" stroke="red" points="2226,-74 2127,-74 2127,-55 2226,-55 2226,-74"/>
<text text-anchor="middle" x="2176.5" y="-62" font-family="Helvetica,sans-Serif" font-size="10.00">include/crusher.h</text>
</a>
</g>
</g>
<!-- Node43&#45;&gt;Node44 -->
<g id="edge37_Node000043_Node000044" class="edge">
<title>Node43&#45;&gt;Node44</title>
<g id="a_edge37_Node000043_Node000044"><a xlink:title=" ">
<path fill="none" stroke="#63b8ff" d="M2176.5,-99.66C2176.5,-90.93 2176.5,-80.99 2176.5,-74.09"/>
<polygon fill="#63b8ff" stroke="#63b8ff" points="2173,-99.75 2176.5,-109.75 2180,-99.75 2173,-99.75"/>
</a>
</g>
</g>
<!-- Node46 -->
<g id="Node000046" class="node">
<title>Node46</title>
<g id="a_Node000046"><a xlink:href="gomer_8h.html" target="_top" xlink:title=" ">
<polygon fill="#fff0f0" stroke="red" points="2378,-74 2283,-74 2283,-55 2378,-55 2378,-74"/>
<text text-anchor="middle" x="2330.5" y="-62" font-family="Helvetica,sans-Serif" font-size="10.00">include/gomer.h</text>
</a>
</g>
</g>
<!-- Node43&#45;&gt;Node46 -->
<g id="edge38_Node000043_Node000046" class="edge">
<title>Node43&#45;&gt;Node46</title>
<g id="a_edge38_Node000043_Node000046"><a xlink:title=" ">
<path fill="none" stroke="#63b8ff" d="M2210.88,-106.67C2239.59,-96.79 2279.86,-82.93 2305.56,-74.08"/>
<polygon fill="#63b8ff" stroke="#63b8ff" points="2209.56,-103.42 2201.24,-109.98 2211.84,-110.04 2209.56,-103.42"/>
</a>
</g>
</g>
<!-- Node49 -->
<g id="Node000049" class="node">
<title>Node49</title>
<g id="a_Node000049"><a xlink:href="gomer_8c.html" target="_top" xlink:title=" ">
<polygon fill="white" stroke="#666666" points="2336.5,-19 2248.5,-19 2248.5,0 2336.5,0 2336.5,-19"/>
<text text-anchor="middle" x="2292.5" y="-7" font-family="Helvetica,sans-Serif" font-size="10.00">src/P2/gomer.c</text>
</a>
</g>
</g>
<!-- Node43&#45;&gt;Node49 -->
<g id="edge47_Node000043_Node000049" class="edge">
<title>Node43&#45;&gt;Node49</title>
<g id="a_edge47_Node000043_Node000049"><a xlink:title=" ">
<path fill="none" stroke="#63b8ff" d="M2197.51,-104.17C2209.13,-95.87 2223.6,-84.92 2235.5,-74 2255.14,-55.97 2275.34,-31.9 2285.61,-19.2"/>
<polygon fill="#63b8ff" stroke="#63b8ff" points="2195.43,-101.35 2189.25,-109.96 2199.45,-107.08 2195.43,-101.35"/>
</a>
</g>
</g>
<!-- Node50 -->
<g id="Node000050" class="node">
<title>Node50</title>
<g id="a_Node000050"><a xlink:href="mb_8h.html" target="_top" xlink:title="Mesa boss.">
<polygon fill="#fff0f0" stroke="red" points="2476.5,-74 2396.5,-74 2396.5,-55 2476.5,-55 2476.5,-74"/>
<text text-anchor="middle" x="2436.5" y="-62" font-family="Helvetica,sans-Serif" font-size="10.00">include/mb.h</text>
</a>
</g>
</g>
<!-- Node43&#45;&gt;Node50 -->
<g id="edge40_Node000043_Node000050" class="edge">
<title>Node43&#45;&gt;Node50</title>
<g id="a_edge40_Node000043_Node000050"><a xlink:title=" ">
<path fill="none" stroke="#63b8ff" d="M2228.12,-107.98C2277.47,-97.92 2350.89,-82.95 2396.11,-73.73"/>
<polygon fill="#63b8ff" stroke="#63b8ff" points="2227.37,-104.56 2218.27,-109.98 2228.77,-111.42 2227.37,-104.56"/>
</a>
</g>
</g>
<!-- Node52 -->
<g id="Node000052" class="node">
<title>Node52</title>
<g id="a_Node000052"><a xlink:href="murray_8h.html" target="_top" xlink:title="&quot;The Murray&quot;.">
<polygon fill="white" stroke="#666666" points="2833.5,-74 2735.5,-74 2735.5,-55 2833.5,-55 2833.5,-74"/>
<text text-anchor="middle" x="2784.5" y="-62" font-family="Helvetica,sans-Serif" font-size="10.00">include/murray.h</text>
</a>
</g>
</g>
<!-- Node43&#45;&gt;Node52 -->
<g id="edge41_Node000043_Node000052" class="edge">
<title>Node43&#45;&gt;Node52</title>
<g id="a_edge41_Node000043_Node000052"><a xlink:title=" ">
<path fill="none" stroke="#63b8ff" d="M2243.05,-110.44C2244.55,-110.29 2246.03,-110.14 2247.5,-110 2460.43,-89.28 2514.89,-97.79 2727.5,-74 2730.09,-73.71 2732.73,-73.39 2735.4,-73.05"/>
<polygon fill="#63b8ff" stroke="#63b8ff" points="2242.63,-106.97 2233.06,-111.5 2243.37,-113.93 2242.63,-106.97"/>
</a>
</g>
</g>
<!-- Node53 -->
<g id="Node000053" class="node">
<title>Node53</title>
<g id="a_Node000053"><a xlink:href="murray_8c.html" target="_top" xlink:title=" ">
<polygon fill="white" stroke="#666666" points="2690,-19 2599,-19 2599,0 2690,0 2690,-19"/>
<text text-anchor="middle" x="2644.5" y="-7" font-family="Helvetica,sans-Serif" font-size="10.00">src/P2/murray.c</text>
</a>
</g>
</g>
<!-- Node43&#45;&gt;Node53 -->
<g id="edge48_Node000043_Node000053" class="edge">
<title>Node43&#45;&gt;Node53</title>
<g id="a_edge48_Node000043_Node000053"><a xlink:title=" ">
<path fill="none" stroke="#63b8ff" d="M2243.09,-110.06C2326.95,-99.25 2462.88,-81.08 2485.5,-74 2503.52,-68.36 2506.17,-62.49 2523.5,-55 2555.76,-41.06 2593.96,-27.48 2618.68,-19.06"/>
<polygon fill="#63b8ff" stroke="#63b8ff" points="2242.6,-106.59 2233.13,-111.34 2243.5,-113.54 2242.6,-106.59"/>
</a>
</g>
</g>
<!-- Node54 -->
<g id="Node000054" class="node">
<title>Node54</title>
<g id="a_Node000054"><a xlink:href="puffer_8h.html" target="_top" xlink:title="Piranha Lake in Vicious Voodoo (believed to be formerly called &quot;Pufferfish Pond&quot;).">
<polygon fill="#fff0f0" stroke="red" points="2624.5,-74 2532.5,-74 2532.5,-55 2624.5,-55 2624.5,-74"/>
<text text-anchor="middle" x="2578.5" y="-62" font-family="Helvetica,sans-Serif" font-size="10.00">include/puffer.h</text>
</a>
</g>
</g>
<!-- Node43&#45;&gt;Node54 -->
<g id="edge43_Node000043_Node000054" class="edge">
<title>Node43&#45;&gt;Node54</title>
<g id="a_edge43_Node000043_Node000054"><a xlink:title=" ">
<path fill="none" stroke="#63b8ff" d="M2243.39,-110.02C2312.36,-101.23 2422.99,-86.98 2518.5,-74 2522.98,-73.39 2527.65,-72.75 2532.32,-72.1"/>
<polygon fill="#63b8ff" stroke="#63b8ff" points="2242.59,-106.6 2233.11,-111.33 2243.47,-113.54 2242.59,-106.6"/>
</a>
</g>
</g>
<!-- Node56 -->
<g id="Node000056" class="node">
<title>Node56</title>
<g id="a_Node000056"><a xlink:href="sb_8h.html" target="_top" xlink:title="Snow boss.">
<polygon fill="#fff0f0" stroke="red" points="2718,-74 2643,-74 2643,-55 2718,-55 2718,-74"/>
<text text-anchor="middle" x="2680.5" y="-62" font-family="Helvetica,sans-Serif" font-size="10.00">include/sb.h</text>
</a>
</g>
</g>
<!-- Node43&#45;&gt;Node56 -->
<g id="edge44_Node000043_Node000056" class="edge">
<title>Node43&#45;&gt;Node56</title>
<g id="a_edge44_Node000043_Node000056"><a xlink:title=" ">
<path fill="none" stroke="#63b8ff" d="M2243.06,-110.48C2244.55,-110.32 2246.03,-110.16 2247.5,-110 2418.83,-91.76 2462.79,-97.35 2633.5,-74 2636.54,-73.58 2639.68,-73.11 2642.84,-72.61"/>
<polygon fill="#63b8ff" stroke="#63b8ff" points="2242.62,-107.01 2233.07,-111.59 2243.39,-113.96 2242.62,-107.01"/>
</a>
</g>
</g>
<!-- Node58 -->
<g id="Node000058" class="node">
<title>Node58</title>
<g id="a_Node000058"><a xlink:href="smartguard_8h.html" target="_top" xlink:title=" ">
<polygon fill="#fff0f0" stroke="red" points="1890.5,-74 1770.5,-74 1770.5,-55 1890.5,-55 1890.5,-74"/>
<text text-anchor="middle" x="1830.5" y="-62" font-family="Helvetica,sans-Serif" font-size="10.00">include/smartguard.h</text>
</a>
</g>
</g>
<!-- Node43&#45;&gt;Node58 -->
<g id="edge45_Node000043_Node000058" class="edge">
<title>Node43&#45;&gt;Node58</title>
<g id="a_edge45_Node000043_Node000058"><a xlink:title=" ">
<path fill="none" stroke="#63b8ff" d="M2110.78,-108.43C2045.81,-98.48 1947.5,-83.42 1886.24,-74.04"/>
<polygon fill="#63b8ff" stroke="#63b8ff" points="2110.49,-111.93 2120.91,-109.98 2111.55,-105.01 2110.49,-111.93"/>
</a>
</g>
</g>
<!-- Node60 -->
<g id="Node000060" class="node">
<title>Node60</title>
<g id="a_Node000060"><a xlink:href="vb_8h.html" target="_top" xlink:title="Voodoo boss.">
<polygon fill="white" stroke="#666666" points="1984.5,-74 1908.5,-74 1908.5,-55 1984.5,-55 1984.5,-74"/>
<text text-anchor="middle" x="1946.5" y="-62" font-family="Helvetica,sans-Serif" font-size="10.00">include/vb.h</text>
</a>
</g>
</g>
<!-- Node43&#45;&gt;Node60 -->
<g id="edge46_Node000043_Node000060" class="edge">
<title>Node43&#45;&gt;Node60</title>
<g id="a_edge46_Node000043_Node000060"><a xlink:title=" ">
<path fill="none" stroke="#63b8ff" d="M2129.59,-107.69C2086.5,-97.76 2023.47,-83.24 1983.74,-74.08"/>
<polygon fill="#63b8ff" stroke="#63b8ff" points="2129.02,-111.15 2139.55,-109.98 2130.59,-104.33 2129.02,-111.15"/>
</a>
</g>
</g>
<!-- Node61 -->
<g id="Node000061" class="node">
<title>Node61</title>
<g id="a_Node000061"><a xlink:href="stepguard_8c.html" target="_top" xlink:title=" ">
<polygon fill="white" stroke="#666666" points="2108.5,-74 2002.5,-74 2002.5,-55 2108.5,-55 2108.5,-74"/>
<text text-anchor="middle" x="2055.5" y="-62" font-family="Helvetica,sans-Serif" font-size="10.00">src/P2/stepguard.c</text>
</a>
</g>
</g>
<!-- Node43&#45;&gt;Node61 -->
<g id="edge49_Node000043_Node000061" class="edge">
<title>Node43&#45;&gt;Node61</title>
<g id="a_edge49_Node000043_Node000061"><a xlink:title=" ">
<path fill="none" stroke="#63b8ff" d="M2147.73,-105.9C2125.38,-96.11 2094.98,-82.79 2075.29,-74.17"/>
<polygon fill="#63b8ff" stroke="#63b8ff" points="2146.5,-109.18 2157.06,-109.98 2149.3,-102.77 2146.5,-109.18"/>
</a>
</g>
</g>
<!-- Node46&#45;&gt;Node49 -->
<g id="edge39_Node000046_Node000049" class="edge">
<title>Node46&#45;&gt;Node49</title>
<g id="a_edge39_Node000046_Node000049"><a xlink:title=" ">
<path fill="none" stroke="#63b8ff" d="M2318.23,-46.39C2311.69,-37.27 2303.93,-26.45 2298.66,-19.09"/>
<polygon fill="#63b8ff" stroke="#63b8ff" points="2315.55,-48.66 2324.23,-54.75 2321.24,-44.58 2315.55,-48.66"/>
</a>
</g>
</g>
<!-- Node52&#45;&gt;Node53 -->
<g id="edge42_Node000052_Node000053" class="edge">
<title>Node52&#45;&gt;Node53</title>
<g id="a_edge42_Node000052_Node000053"><a xlink:title=" ">
<path fill="none" stroke="#63b8ff" d="M2752.59,-51.42C2726.62,-41.59 2690.58,-27.95 2667.4,-19.17"/>
<polygon fill="#63b8ff" stroke="#63b8ff" points="2751.42,-54.72 2762.01,-54.98 2753.89,-48.17 2751.42,-54.72"/>
</a>
</g>
</g>
<!-- Node63&#45;&gt;Node52 -->
<g id="edge54_Node000063_Node000052" class="edge">
<title>Node63&#45;&gt;Node52</title>
<g id="a_edge54_Node000063_Node000052"><a xlink:title=" ">
<path fill="none" stroke="#63b8ff" d="M1205.08,-165.02C1449.41,-144.15 2021.67,-185.19 2242.5,-129 2260.8,-124.34 2262.31,-115.07 2280.5,-110 2472.48,-56.45 2529.49,-96.71 2727.5,-74 2730.08,-73.7 2732.73,-73.38 2735.4,-73.04"/>
<polygon fill="#63b8ff" stroke="#63b8ff" points="1204.76,-161.53 1195.12,-165.92 1205.39,-168.5 1204.76,-161.53"/>
</a>
</g>
</g>
<!-- Node64 -->
<g id="Node000064" class="node">
<title>Node64</title>
<g id="a_Node000064"><a xlink:href="turret_8c.html" target="_top" xlink:title=" ">
<polygon fill="white" stroke="#666666" points="2373.5,-129 2289.5,-129 2289.5,-110 2373.5,-110 2373.5,-129"/>
<text text-anchor="middle" x="2331.5" y="-117" font-family="Helvetica,sans-Serif" font-size="10.00">src/P2/turret.c</text>
</a>
</g>
</g>
<!-- Node63&#45;&gt;Node64 -->
<g id="edge55_Node000063_Node000064" class="edge">
<title>Node63&#45;&gt;Node64</title>
<g id="a_edge55_Node000063_Node000064"><a xlink:title=" ">
<path fill="none" stroke="#63b8ff" d="M1205.32,-164.95C1679.83,-120.6 1804.17,-172.53 2275.5,-129 2280,-128.58 2284.7,-128.04 2289.37,-127.44"/>
<polygon fill="#63b8ff" stroke="#63b8ff" points="1204.74,-161.49 1195.12,-165.92 1205.4,-168.46 1204.74,-161.49"/>
</a>
</g>
</g>
</g>
</svg>

<g id="navigator" transform="translate(0 0)" fill="#404254">
  <rect fill="#f2f5e9" fill-opacity="0.5" stroke="#606060" stroke-width=".5" x="0" y="0" width="60" height="60"/>
  <use id="zoomplus" xlink:href="#zoomPlus" x="17" y="9" onmousedown="handleZoom(evt,'in')"/>
  <use id="zoomminus" xlink:href="#zoomMin" x="42" y="9" onmousedown="handleZoom(evt,'out')"/>
  <use id="reset" xlink:href="#resetDef" x="30" y="36" onmousedown="handleReset()"/>
   <use id="arrowup" xlink:href="#arrowUp" x="0" y="0" onmousedown="handlePan(0,-1)"/>
  <use id="arrowright" xlink:href="#arrowRight" x="0" y="0" onmousedown="handlePan(1,0)"/>
  <use id="arrowdown" xlink:href="#arrowDown" x="0" y="0" onmousedown="handlePan(0,1)"/>
  <use id="arrowleft" xlink:href="#arrowLeft" x="0" y="0" onmousedown="handlePan(-1,0)"/>
</g>
<svg viewBox="0 0 15 15" width="100%" height="30px" preserveAspectRatio="xMaxYMin meet">
 <g id="arrow_out" transform="scale(0.3 0.3)">
  <a xlink:href="po_8h__dep__incl_org.svg" target="_base">
   <rect id="button" ry="5" rx="5" y="6" x="6" height="38" width="38"
        fill="#f2f5e9" fill-opacity="0.5" stroke="#606060" stroke-width="1.0"/>
   <path id="arrow"
     d="M 11.500037,31.436501 C 11.940474,20.09759 22.043105,11.32322 32.158766,21.979434 L 37.068811,17.246167 C 37.068811,17.246167 37.088388,32 37.088388,32 L 22.160133,31.978069 C 22.160133,31.978069 26.997745,27.140456 26.997745,27.140456 C 18.528582,18.264221 13.291696,25.230495 11.500037,31.436501 z"
     style="fill:#404040;"/>
  </a>
 </g>
</svg>

<style type='text/css'>
<![CDATA[
[data-mouse-over-selected='false'] { opacity: 0.7; }
[data-mouse-over-selected='true']  { opacity: 1.0; }
]]>
</style>
<script type="application/ecmascript"><![CDATA[
document.addEventListener('DOMContentLoaded', (event) => {
  highlightEdges();
  highlightAdjacentNodes();
});
]]></script>
</svg>
