<?xml version="1.0" encoding="UTF-8" standalone="no"?>
<!DOCTYPE svg PUBLIC "-//W3C//DTD SVG 1.1//EN"
 "http://www.w3.org/Graphics/SVG/1.1/DTD/svg11.dtd">
<!-- Generated by graphviz version 2.43.0 (0)
 -->
<!-- Title: include/po.h Pages: 1 -->
<svg width="519pt" height="420pt"
 viewBox="0.00 0.00 519.04 420.00" xmlns="http://www.w3.org/2000/svg" xmlns:xlink="http://www.w3.org/1999/xlink">
<g id="graph0" class="graph" transform="scale(1 1) rotate(0) translate(4 416)">
<title>include/po.h</title>
<polygon fill="white" stroke="transparent" points="-4,4 -4,-416 515.04,-416 515.04,4 -4,4"/>
<!-- Node1 -->
<g id="node1" class="node">
<title>Node1</title>
<g id="a_node1"><a xlink:title="Player object(?).">
<polygon fill="#bfbfbf" stroke="black" points="0,-392.5 0,-411.5 76,-411.5 76,-392.5 0,-392.5"/>
<text text-anchor="middle" x="38" y="-399.5" font-family="Helvetica,sans-Serif" font-size="10.00">include/po.h</text>
</a>
</g>
</g>
<!-- Node2 -->
<g id="node2" class="node">
<title>Node2</title>
<g id="a_node2"><a xlink:href="common_8h.html" target="_top" xlink:title="Common header file.">
<polygon fill="white" stroke="black" points="258,-56.5 258,-75.5 326,-75.5 326,-56.5 258,-56.5"/>
<text text-anchor="middle" x="292" y="-63.5" font-family="Helvetica,sans-Serif" font-size="10.00">common.h</text>
</a>
</g>
</g>
<!-- Node1&#45;&gt;Node2 -->
<g id="edge1" class="edge">
<title>Node1&#45;&gt;Node2</title>
<path fill="none" stroke="midnightblue" d="M34.9,-392.29C28.62,-373.86 15,-329.44 15,-291 15,-291 15,-291 15,-177 15,-146.9 11.56,-132.06 34,-112 64.89,-84.38 182.56,-73.28 247.79,-69.18"/>
<polygon fill="midnightblue" stroke="midnightblue" points="248.02,-72.67 257.79,-68.58 247.6,-65.68 248.02,-72.67"/>
</g>
<!-- Node6 -->
<g id="node6" class="node">
<title>Node6</title>
<g id="a_node6"><a xlink:href="so_8h.html" target="_top" xlink:title="Scene objects.">
<polygon fill="white" stroke="black" points="166.5,-336.5 166.5,-355.5 203.5,-355.5 203.5,-336.5 166.5,-336.5"/>
<text text-anchor="middle" x="185" y="-343.5" font-family="Helvetica,sans-Serif" font-size="10.00">so.h</text>
</a>
</g>
</g>
<!-- Node1&#45;&gt;Node6 -->
<g id="edge5" class="edge">
<title>Node1&#45;&gt;Node6</title>
<path fill="none" stroke="midnightblue" d="M61.29,-392.44C87.25,-382.91 129.21,-367.49 156.95,-357.3"/>
<polygon fill="midnightblue" stroke="midnightblue" points="158.29,-360.54 166.47,-353.81 155.88,-353.97 158.29,-360.54"/>
</g>
<!-- Node3 -->
<g id="node3" class="node">
<title>Node3</title>
<g id="a_node3"><a xlink:href="include__asm_8h.html" target="_top" xlink:title=" ">
<polygon fill="white" stroke="black" points="137.5,-0.5 137.5,-19.5 224.5,-19.5 224.5,-0.5 137.5,-0.5"/>
<text text-anchor="middle" x="181" y="-7.5" font-family="Helvetica,sans-Serif" font-size="10.00">include_asm.h</text>
</a>
</g>
</g>
<!-- Node2&#45;&gt;Node3 -->
<g id="edge2" class="edge">
<title>Node2&#45;&gt;Node3</title>
<path fill="none" stroke="midnightblue" d="M274.17,-56.32C256.28,-47.62 228.52,-34.12 207.95,-24.11"/>
<polygon fill="midnightblue" stroke="midnightblue" points="209.31,-20.88 198.79,-19.65 206.25,-27.18 209.31,-20.88"/>
</g>
<!-- Node4 -->
<g id="node4" class="node">
<title>Node4</title>
<g id="a_node4"><a xlink:href="include__rodata_8h.html" target="_top" xlink:title=" ">
<polygon fill="white" stroke="black" points="243,-0.5 243,-19.5 341,-19.5 341,-0.5 243,-0.5"/>
<text text-anchor="middle" x="292" y="-7.5" font-family="Helvetica,sans-Serif" font-size="10.00">include_rodata.h</text>
</a>
</g>
</g>
<!-- Node2&#45;&gt;Node4 -->
<g id="edge3" class="edge">
<title>Node2&#45;&gt;Node4</title>
<path fill="none" stroke="midnightblue" d="M292,-56.08C292,-49.01 292,-38.86 292,-29.99"/>
<polygon fill="midnightblue" stroke="midnightblue" points="295.5,-29.75 292,-19.75 288.5,-29.75 295.5,-29.75"/>
</g>
<!-- Node5 -->
<g id="node5" class="node">
<title>Node5</title>
<g id="a_node5"><a xlink:href="types_8h.html" target="_top" xlink:title="Types used throughout the engine.">
<polygon fill="white" stroke="black" points="359.5,-0.5 359.5,-19.5 412.5,-19.5 412.5,-0.5 359.5,-0.5"/>
<text text-anchor="middle" x="386" y="-7.5" font-family="Helvetica,sans-Serif" font-size="10.00">types.h</text>
</a>
</g>
</g>
<!-- Node2&#45;&gt;Node5 -->
<g id="edge4" class="edge">
<title>Node2&#45;&gt;Node5</title>
<path fill="none" stroke="midnightblue" d="M307.1,-56.32C321.9,-47.82 344.69,-34.73 361.98,-24.8"/>
<polygon fill="midnightblue" stroke="midnightblue" points="364.01,-27.67 370.93,-19.65 360.52,-21.6 364.01,-27.67"/>
</g>
<!-- Node7 -->
<g id="node7" class="node">
<title>Node7</title>
<g id="a_node7"><a xlink:href="alo_8h.html" target="_top" xlink:title=" ">
<polygon fill="white" stroke="black" points="389.5,-280.5 389.5,-299.5 430.5,-299.5 430.5,-280.5 389.5,-280.5"/>
<text text-anchor="middle" x="410" y="-287.5" font-family="Helvetica,sans-Serif" font-size="10.00">alo.h</text>
</a>
</g>
</g>
<!-- Node6&#45;&gt;Node7 -->
<g id="edge6" class="edge">
<title>Node6&#45;&gt;Node7</title>
<path fill="none" stroke="midnightblue" d="M203.8,-340.49C242.68,-331.16 332.26,-309.66 379.53,-298.31"/>
<polygon fill="midnightblue" stroke="midnightblue" points="380.58,-301.66 389.48,-295.92 378.94,-294.85 380.58,-301.66"/>
</g>
<!-- Node7&#45;&gt;Node2 -->
<g id="edge7" class="edge">
<title>Node7&#45;&gt;Node2</title>
<path fill="none" stroke="midnightblue" d="M420.95,-280.13C453.33,-252.86 543.63,-168.67 498,-112 478.1,-87.29 390.72,-75.41 336.35,-70.32"/>
<polygon fill="midnightblue" stroke="midnightblue" points="336.55,-66.82 326.28,-69.41 335.92,-73.79 336.55,-66.82"/>
</g>
<!-- Node8 -->
<g id="node8" class="node">
<title>Node8</title>
<g id="a_node8"><a xlink:href="lo_8h.html" target="_top" xlink:title="Level objects.">
<polygon fill="white" stroke="black" points="320.5,-224.5 320.5,-243.5 355.5,-243.5 355.5,-224.5 320.5,-224.5"/>
<text text-anchor="middle" x="338" y="-231.5" font-family="Helvetica,sans-Serif" font-size="10.00">lo.h</text>
</a>
</g>
</g>
<!-- Node7&#45;&gt;Node8 -->
<g id="edge8" class="edge">
<title>Node7&#45;&gt;Node8</title>
<path fill="none" stroke="midnightblue" d="M398.43,-280.32C387.58,-272.18 371.12,-259.84 358.12,-250.09"/>
<polygon fill="midnightblue" stroke="midnightblue" points="359.88,-247.03 349.78,-243.83 355.68,-252.63 359.88,-247.03"/>
</g>
<!-- Node12 -->
<g id="node12" class="node">
<title>Node12</title>
<g id="a_node12"><a xlink:href="dl_8h.html" target="_top" xlink:title=" ">
<polygon fill="white" stroke="black" points="446.5,-168.5 446.5,-187.5 481.5,-187.5 481.5,-168.5 446.5,-168.5"/>
<text text-anchor="middle" x="464" y="-175.5" font-family="Helvetica,sans-Serif" font-size="10.00">dl.h</text>
</a>
</g>
</g>
<!-- Node7&#45;&gt;Node12 -->
<g id="edge25" class="edge">
<title>Node7&#45;&gt;Node12</title>
<path fill="none" stroke="midnightblue" d="M414.24,-280.37C423.07,-262.38 443.6,-220.55 455.35,-196.63"/>
<polygon fill="midnightblue" stroke="midnightblue" points="458.52,-198.11 459.78,-187.59 452.23,-195.03 458.52,-198.11"/>
</g>
<!-- Node8&#45;&gt;Node2 -->
<g id="edge9" class="edge">
<title>Node8&#45;&gt;Node2</title>
<path fill="none" stroke="midnightblue" d="M321.01,-224.37C294.24,-209.68 243.31,-176.95 224,-132 220.49,-123.83 219.79,-119.83 224,-112 231.62,-97.82 245.9,-87.35 259.41,-80.1"/>
<polygon fill="midnightblue" stroke="midnightblue" points="261.13,-83.16 268.55,-75.59 258.03,-76.88 261.13,-83.16"/>
</g>
<!-- Node9 -->
<g id="node9" class="node">
<title>Node9</title>
<g id="a_node9"><a xlink:href="oid_8h.html" target="_top" xlink:title="Object IDs.">
<polygon fill="white" stroke="black" points="431.5,-112.5 431.5,-131.5 472.5,-131.5 472.5,-112.5 431.5,-112.5"/>
<text text-anchor="middle" x="452" y="-119.5" font-family="Helvetica,sans-Serif" font-size="10.00">oid.h</text>
</a>
</g>
</g>
<!-- Node8&#45;&gt;Node9 -->
<g id="edge10" class="edge">
<title>Node8&#45;&gt;Node9</title>
<path fill="none" stroke="midnightblue" d="M351.85,-224.25C364.74,-215.77 384.14,-202.16 399,-188 414.59,-173.15 429.85,-153.77 439.97,-140.04"/>
<polygon fill="midnightblue" stroke="midnightblue" points="443.07,-141.73 446.08,-131.57 437.39,-137.63 443.07,-141.73"/>
</g>
<!-- Node10 -->
<g id="node10" class="node">
<title>Node10</title>
<g id="a_node10"><a xlink:href="basic_8h.html" target="_top" xlink:title="Basic object.">
<polygon fill="white" stroke="black" points="125.5,-168.5 125.5,-187.5 176.5,-187.5 176.5,-168.5 125.5,-168.5"/>
<text text-anchor="middle" x="151" y="-175.5" font-family="Helvetica,sans-Serif" font-size="10.00">basic.h</text>
</a>
</g>
</g>
<!-- Node8&#45;&gt;Node10 -->
<g id="edge12" class="edge">
<title>Node8&#45;&gt;Node10</title>
<path fill="none" stroke="midnightblue" d="M320.41,-227.92C289.81,-219.09 226.26,-200.73 186.29,-189.19"/>
<polygon fill="midnightblue" stroke="midnightblue" points="187.25,-185.82 176.67,-186.41 185.3,-192.55 187.25,-185.82"/>
</g>
<!-- Node8&#45;&gt;Node12 -->
<g id="edge16" class="edge">
<title>Node8&#45;&gt;Node12</title>
<path fill="none" stroke="midnightblue" d="M355.52,-225.49C376.56,-216.47 412.09,-201.25 436.73,-190.69"/>
<polygon fill="midnightblue" stroke="midnightblue" points="438.41,-193.78 446.22,-186.62 435.65,-187.34 438.41,-193.78"/>
</g>
<!-- Node13 -->
<g id="node13" class="node">
<title>Node13</title>
<g id="a_node13"><a xlink:href="sw_8h.html" target="_top" xlink:title="Scene world?">
<polygon fill="white" stroke="black" points="233,-112.5 233,-131.5 271,-131.5 271,-112.5 233,-112.5"/>
<text text-anchor="middle" x="252" y="-119.5" font-family="Helvetica,sans-Serif" font-size="10.00">sw.h</text>
</a>
</g>
</g>
<!-- Node8&#45;&gt;Node13 -->
<g id="edge19" class="edge">
<title>Node8&#45;&gt;Node13</title>
<path fill="none" stroke="midnightblue" d="M331.25,-224.37C317,-206.14 283.61,-163.43 265.04,-139.68"/>
<polygon fill="midnightblue" stroke="midnightblue" points="267.63,-137.31 258.72,-131.59 262.12,-141.63 267.63,-137.31"/>
</g>
<!-- Node14 -->
<g id="node14" class="node">
<title>Node14</title>
<g id="a_node14"><a xlink:href="frame_8h.html" target="_top" xlink:title=" ">
<polygon fill="white" stroke="black" points="289,-112.5 289,-131.5 375,-131.5 375,-112.5 289,-112.5"/>
<text text-anchor="middle" x="332" y="-119.5" font-family="Helvetica,sans-Serif" font-size="10.00">splice/frame.h</text>
</a>
</g>
</g>
<!-- Node8&#45;&gt;Node14 -->
<g id="edge21" class="edge">
<title>Node8&#45;&gt;Node14</title>
<path fill="none" stroke="midnightblue" d="M337.53,-224.37C336.56,-206.62 334.33,-165.67 333.01,-141.6"/>
<polygon fill="midnightblue" stroke="midnightblue" points="336.51,-141.39 332.47,-131.59 329.52,-141.77 336.51,-141.39"/>
</g>
<!-- Node15 -->
<g id="node15" class="node">
<title>Node15</title>
<g id="a_node15"><a xlink:href="mq_8h.html" target="_top" xlink:title="Message queue(?).">
<polygon fill="white" stroke="black" points="348.5,-168.5 348.5,-187.5 389.5,-187.5 389.5,-168.5 348.5,-168.5"/>
<text text-anchor="middle" x="369" y="-175.5" font-family="Helvetica,sans-Serif" font-size="10.00">mq.h</text>
</a>
</g>
</g>
<!-- Node8&#45;&gt;Node15 -->
<g id="edge23" class="edge">
<title>Node8&#45;&gt;Node15</title>
<path fill="none" stroke="midnightblue" d="M343.12,-224.08C347.41,-216.61 353.66,-205.72 358.94,-196.52"/>
<polygon fill="midnightblue" stroke="midnightblue" points="362.03,-198.17 363.98,-187.75 355.96,-194.68 362.03,-198.17"/>
</g>
<!-- Node9&#45;&gt;Node2 -->
<g id="edge11" class="edge">
<title>Node9&#45;&gt;Node2</title>
<path fill="none" stroke="midnightblue" d="M431.41,-114.05C405.06,-105.16 359.01,-89.61 327.08,-78.84"/>
<polygon fill="midnightblue" stroke="midnightblue" points="327.85,-75.4 317.25,-75.52 325.61,-82.04 327.85,-75.4"/>
</g>
<!-- Node10&#45;&gt;Node2 -->
<g id="edge13" class="edge">
<title>Node10&#45;&gt;Node2</title>
<path fill="none" stroke="midnightblue" d="M154.36,-168.28C160.02,-154.61 172.66,-128.06 191,-112 208.17,-96.96 231.18,-86.19 250.9,-78.96"/>
<polygon fill="midnightblue" stroke="midnightblue" points="252.28,-82.18 260.57,-75.59 249.98,-75.57 252.28,-82.18"/>
</g>
<!-- Node11 -->
<g id="node11" class="node">
<title>Node11</title>
<g id="a_node11"><a xlink:href="sidebag_8h.html" target="_top" xlink:title="Sidebag for splice.">
<polygon fill="white" stroke="black" points="43.5,-112.5 43.5,-131.5 138.5,-131.5 138.5,-112.5 43.5,-112.5"/>
<text text-anchor="middle" x="91" y="-119.5" font-family="Helvetica,sans-Serif" font-size="10.00">splice/sidebag.h</text>
</a>
</g>
</g>
<!-- Node10&#45;&gt;Node11 -->
<g id="edge14" class="edge">
<title>Node10&#45;&gt;Node11</title>
<path fill="none" stroke="midnightblue" d="M141.36,-168.32C132.49,-160.34 119.13,-148.31 108.39,-138.65"/>
<polygon fill="midnightblue" stroke="midnightblue" points="110.59,-135.92 100.82,-131.83 105.91,-141.13 110.59,-135.92"/>
</g>
<!-- Node11&#45;&gt;Node2 -->
<g id="edge15" class="edge">
<title>Node11&#45;&gt;Node2</title>
<path fill="none" stroke="midnightblue" d="M122.85,-112.44C157.4,-103.16 212.68,-88.31 250.58,-78.13"/>
<polygon fill="midnightblue" stroke="midnightblue" points="251.55,-81.49 260.3,-75.52 249.73,-74.73 251.55,-81.49"/>
</g>
<!-- Node12&#45;&gt;Node2 -->
<g id="edge17" class="edge">
<title>Node12&#45;&gt;Node2</title>
<path fill="none" stroke="midnightblue" d="M470.64,-168.48C480.22,-155.09 495.36,-128.9 482,-112 464.15,-89.43 386.39,-77 336.05,-71.19"/>
<polygon fill="midnightblue" stroke="midnightblue" points="336.38,-67.71 326.06,-70.08 335.61,-74.67 336.38,-67.71"/>
</g>
<!-- Node12&#45;&gt;Node9 -->
<g id="edge18" class="edge">
<title>Node12&#45;&gt;Node9</title>
<path fill="none" stroke="midnightblue" d="M462.02,-168.08C460.43,-160.93 458.14,-150.64 456.15,-141.69"/>
<polygon fill="midnightblue" stroke="midnightblue" points="459.53,-140.75 453.94,-131.75 452.7,-142.27 459.53,-140.75"/>
</g>
<!-- Node13&#45;&gt;Node2 -->
<g id="edge20" class="edge">
<title>Node13&#45;&gt;Node2</title>
<path fill="none" stroke="midnightblue" d="M258.61,-112.08C264.26,-104.46 272.54,-93.26 279.45,-83.94"/>
<polygon fill="midnightblue" stroke="midnightblue" points="282.38,-85.87 285.52,-75.75 276.75,-81.7 282.38,-85.87"/>
</g>
<!-- Node14&#45;&gt;Node2 -->
<g id="edge22" class="edge">
<title>Node14&#45;&gt;Node2</title>
<path fill="none" stroke="midnightblue" d="M325.39,-112.08C319.74,-104.46 311.46,-93.26 304.55,-83.94"/>
<polygon fill="midnightblue" stroke="midnightblue" points="307.25,-81.7 298.48,-75.75 301.62,-85.87 307.25,-81.7"/>
</g>
<!-- Node15&#45;&gt;Node2 -->
<g id="edge24" class="edge">
<title>Node15&#45;&gt;Node2</title>
<path fill="none" stroke="midnightblue" d="M374.83,-168.33C382.87,-155.19 395.16,-129.88 384,-112 373.31,-94.87 353.99,-84.08 335.81,-77.38"/>
<polygon fill="midnightblue" stroke="midnightblue" points="336.77,-74.01 326.17,-74.15 334.54,-80.64 336.77,-74.01"/>
</g>
</g>
</svg>
