<?xml version="1.0" encoding="UTF-8" standalone="no"?>
<!DOCTYPE svg PUBLIC "-//W3C//DTD SVG 1.1//EN"
 "http://www.w3.org/Graphics/SVG/1.1/DTD/svg11.dtd">
<!-- Generated by graphviz version 2.43.0 (0)
 -->
<!-- Title: include/splice/proc.h Pages: 1 -->
<!--zoomable 192 -->

<svg id="main" version="1.1" xmlns="http://www.w3.org/2000/svg" xmlns:xlink="http://www.w3.org/1999/xlink" xml:space="preserve" onload="init(evt)">
<style type="text/css"><![CDATA[
.node, .edge {opacity: 0.7;}
.node.selected, .edge.selected {opacity: 1;}
.edge:hover path { stroke: red; }
.edge:hover polygon { stroke: red; fill: red; }
]]></style>

<defs>
  <circle id="rim" cx="0" cy="0" r="7"/>
  <circle id="rim2" cx="0" cy="0" r="3.5"/>
  <g id="zoomPlus">
    <use xlink:href="#rim" fill="#404040"><set attributeName="fill" to="#808080" begin="zoomplus.mouseover" end="zoomplus.mouseout"/></use>
    <path d="M-4,0h8M0,-4v8" fill="none" stroke="white" stroke-width="1.5" pointer-events="none"/>
  </g>
  <g id="zoomMin">
    <use xlink:href="#rim" fill="#404040"><set attributeName="fill" to="#808080" begin="zoomminus.mouseover" end="zoomminus.mouseout"/></use>
    <path d="M-4,0h8" fill="none" stroke="white" stroke-width="1.5" pointer-events="none"/>
  </g>
  <g id="arrowUp" transform="translate(30 24)">
    <use xlink:href="#rim"/>
    <path pointer-events="none" fill="none" stroke="white" stroke-width="1.5" d="M0,-3.0v7 M-2.5,-0.5L0,-3.0L2.5,-0.5"/>
  </g>
  <g id="arrowRight" transform="rotate(90) translate(36 -43)">
    <use xlink:href="#rim"/>
    <path pointer-events="none" fill="none" stroke="white" stroke-width="1.5" d="M0,-3.0v7 M-2.5,-0.5L0,-3.0L2.5,-0.5"/>
  </g>
  <g id="arrowDown" transform="rotate(180) translate(-30 -48)">
    <use xlink:href="#rim"/>
    <path pointer-events="none" fill="none" stroke="white" stroke-width="1.5" d="M0,-3.0v7 M-2.5,-0.5L0,-3.0L2.5,-0.5"/>
  </g>
  <g id="arrowLeft" transform="rotate(270) translate(-36 17)">
    <use xlink:href="#rim"/>
    <path pointer-events="none" fill="none" stroke="white" stroke-width="1.5" d="M0,-3.0v7 M-2.5,-0.5L0,-3.0L2.5,-0.5"/>
  </g>
  <g id="resetDef">
    <use xlink:href="#rim2" fill="#404040"><set attributeName="fill" to="#808080" begin="reset.mouseover" end="reset.mouseout"/></use>
  </g>
</defs>
<script type="application/ecmascript">
var viewWidth = 849;
var viewHeight = 192;
var sectionId = 'dynsection-0';
</script>
<script type="application/ecmascript" xlink:href="svg.min.js"/>
<svg id="graph" class="graph">
<g id="viewport">
<title>include/splice/proc.h</title>
<!-- Node1 -->
<g id="Node000001" class="node">
<title>Node1</title>
<g id="a_Node000001"><a xlink:title=" ">
<polygon fill="#999999" stroke="#666666" points="608.5,-184 492.5,-184 492.5,-165 608.5,-165 608.5,-184"/>
<text text-anchor="middle" x="550.5" y="-172" font-family="Helvetica,sans-Serif" font-size="10.00">include/splice/proc.h</text>
</a>
</g>
</g>
<!-- Node2 -->
<g id="Node000002" class="node">
<title>Node2</title>
<g id="a_Node000002"><a xlink:href="ref_8h.html" target="_top" xlink:title=" ">
<polygon fill="white" stroke="#666666" points="538.5,-129 430.5,-129 430.5,-110 538.5,-110 538.5,-129"/>
<text text-anchor="middle" x="484.5" y="-117" font-family="Helvetica,sans-Serif" font-size="10.00">include/splice/ref.h</text>
</a>
</g>
</g>
<!-- Node1&#45;&gt;Node2 -->
<g id="edge1_Node000001_Node000002" class="edge">
<title>Node1&#45;&gt;Node2</title>
<g id="a_edge1_Node000001_Node000002"><a xlink:title=" ">
<path fill="none" stroke="#63b8ff" d="M531.95,-158.6C520.12,-149.11 505.21,-137.13 495.3,-129.17"/>
<polygon fill="#63b8ff" stroke="#63b8ff" points="529.91,-161.45 539.9,-164.98 534.29,-155.99 529.91,-161.45"/>
</a>
</g>
</g>
<!-- Node13 -->
<g id="Node000013" class="node">
<title>Node13</title>
<g id="a_Node000013"><a xlink:href="proc_8cpp.html" target="_top" xlink:title=" ">
<polygon fill="white" stroke="#666666" points="678.5,-129 556.5,-129 556.5,-110 678.5,-110 678.5,-129"/>
<text text-anchor="middle" x="617.5" y="-117" font-family="Helvetica,sans-Serif" font-size="10.00">src/P2/splice/proc.cpp</text>
</a>
</g>
</g>
<!-- Node1&#45;&gt;Node13 -->
<g id="edge13_Node000001_Node000013" class="edge">
<title>Node1&#45;&gt;Node13</title>
<g id="a_edge13_Node000001_Node000013"><a xlink:title=" ">
<path fill="none" stroke="#63b8ff" d="M569.33,-158.6C581.34,-149.11 596.47,-137.13 606.54,-129.17"/>
<polygon fill="#63b8ff" stroke="#63b8ff" points="566.94,-156.04 561.26,-164.98 571.28,-161.53 566.94,-156.04"/>
</a>
</g>
</g>
<!-- Node3 -->
<g id="Node000003" class="node">
<title>Node3</title>
<g id="a_Node000003"><a xlink:href="pair_8h.html" target="_top" xlink:title=" ">
<polygon fill="white" stroke="#666666" points="269,-74 156,-74 156,-55 269,-55 269,-74"/>
<text text-anchor="middle" x="212.5" y="-62" font-family="Helvetica,sans-Serif" font-size="10.00">include/splice/pair.h</text>
</a>
</g>
</g>
<!-- Node2&#45;&gt;Node3 -->
<g id="edge2_Node000002_Node000003" class="edge">
<title>Node2&#45;&gt;Node3</title>
<g id="a_edge2_Node000002_Node000003"><a xlink:title=" ">
<path fill="none" stroke="#63b8ff" d="M430.95,-108.07C379.95,-98.13 304.13,-83.35 256.54,-74.08"/>
<polygon fill="#63b8ff" stroke="#63b8ff" points="430.31,-111.51 440.8,-109.98 431.65,-104.64 430.31,-111.51"/>
</a>
</g>
</g>
<!-- Node6 -->
<g id="Node000006" class="node">
<title>Node6</title>
<g id="a_Node000006"><a xlink:href="splicemap_8h.html" target="_top" xlink:title="Splice maps.">
<polygon fill="white" stroke="#666666" points="415.5,-74 301.5,-74 301.5,-55 415.5,-55 415.5,-74"/>
<text text-anchor="middle" x="358.5" y="-62" font-family="Helvetica,sans-Serif" font-size="10.00">include/splicemap.h</text>
</a>
</g>
</g>
<!-- Node2&#45;&gt;Node6 -->
<g id="edge5_Node000002_Node000006" class="edge">
<title>Node2&#45;&gt;Node6</title>
<g id="a_edge5_Node000002_Node000006"><a xlink:title=" ">
<path fill="none" stroke="#63b8ff" d="M454.85,-106.03C431.55,-96.23 399.7,-82.83 379.11,-74.17"/>
<polygon fill="#63b8ff" stroke="#63b8ff" points="453.68,-109.33 464.26,-109.98 456.4,-102.88 453.68,-109.33"/>
</a>
</g>
</g>
<!-- Node8 -->
<g id="Node000008" class="node">
<title>Node8</title>
<g id="a_Node000008"><a xlink:href="spliceobj_8h.html" target="_top" xlink:title="Splice objects.">
<polygon fill="white" stroke="#666666" points="579,-74 472,-74 472,-55 579,-55 579,-74"/>
<text text-anchor="middle" x="525.5" y="-62" font-family="Helvetica,sans-Serif" font-size="10.00">include/spliceobj.h</text>
</a>
</g>
</g>
<!-- Node2&#45;&gt;Node8 -->
<g id="edge7_Node000002_Node000008" class="edge">
<title>Node2&#45;&gt;Node8</title>
<g id="a_edge7_Node000002_Node000008"><a xlink:title=" ">
<path fill="none" stroke="#63b8ff" d="M497.52,-101.67C504.62,-92.5 513.1,-81.52 518.86,-74.09"/>
<polygon fill="#63b8ff" stroke="#63b8ff" points="494.62,-99.7 491.27,-109.75 500.16,-103.98 494.62,-99.7"/>
</a>
</g>
</g>
<!-- Node9 -->
<g id="Node000009" class="node">
<title>Node9</title>
<g id="a_Node000009"><a xlink:href="lo_8c.html" target="_top" xlink:title=" ">
<polygon fill="white" stroke="#666666" points="496.5,-19 430.5,-19 430.5,0 496.5,0 496.5,-19"/>
<text text-anchor="middle" x="463.5" y="-7" font-family="Helvetica,sans-Serif" font-size="10.00">src/P2/lo.c</text>
</a>
</g>
</g>
<!-- Node2&#45;&gt;Node9 -->
<g id="edge10_Node000002_Node000009" class="edge">
<title>Node2&#45;&gt;Node9</title>
<g id="a_edge10_Node000002_Node000009"><a xlink:title=" ">
<path fill="none" stroke="#63b8ff" d="M473.93,-100.77C469.8,-92.86 465.58,-83.26 463.5,-74 459.21,-54.85 460.89,-31.63 462.3,-19.26"/>
<polygon fill="#63b8ff" stroke="#63b8ff" points="470.99,-102.69 478.92,-109.72 477.1,-99.28 470.99,-102.69"/>
</a>
</g>
</g>
<!-- Node11 -->
<g id="Node000011" class="node">
<title>Node11</title>
<g id="a_Node000011"><a xlink:href="bif_8cpp.html" target="_top" xlink:title=" ">
<polygon fill="white" stroke="#666666" points="710,-74 597,-74 597,-55 710,-55 710,-74"/>
<text text-anchor="middle" x="653.5" y="-62" font-family="Helvetica,sans-Serif" font-size="10.00">src/P2/splice/bif.cpp</text>
</a>
</g>
</g>
<!-- Node2&#45;&gt;Node11 -->
<g id="edge11_Node000002_Node000011" class="edge">
<title>Node2&#45;&gt;Node11</title>
<g id="a_edge11_Node000002_Node000011"><a xlink:title=" ">
<path fill="none" stroke="#63b8ff" d="M521.4,-106.93C552.97,-97.03 597.68,-83.01 626.13,-74.08"/>
<polygon fill="#63b8ff" stroke="#63b8ff" points="520.15,-103.65 511.65,-109.98 522.24,-110.33 520.15,-103.65"/>
</a>
</g>
</g>
<!-- Node12 -->
<g id="Node000012" class="node">
<title>Node12</title>
<g id="a_Node000012"><a xlink:href="ref_8cpp.html" target="_top" xlink:title=" ">
<polygon fill="white" stroke="#666666" points="841,-74 728,-74 728,-55 841,-55 841,-74"/>
<text text-anchor="middle" x="784.5" y="-62" font-family="Helvetica,sans-Serif" font-size="10.00">src/P2/splice/ref.cpp</text>
</a>
</g>
</g>
<!-- Node2&#45;&gt;Node12 -->
<g id="edge12_Node000002_Node000012" class="edge">
<title>Node2&#45;&gt;Node12</title>
<g id="a_edge12_Node000002_Node000012"><a xlink:title=" ">
<path fill="none" stroke="#63b8ff" d="M542.86,-108.19C599.11,-98.25 683.22,-83.39 735.92,-74.08"/>
<polygon fill="#63b8ff" stroke="#63b8ff" points="541.94,-104.8 532.7,-109.98 543.16,-111.69 541.94,-104.8"/>
</a>
</g>
</g>
<!-- Node4 -->
<g id="Node000004" class="node">
<title>Node4</title>
<g id="a_Node000004"><a xlink:href="pair_8cpp.html" target="_top" xlink:title=" ">
<polygon fill="white" stroke="#666666" points="119,-19 0,-19 0,0 119,0 119,-19"/>
<text text-anchor="middle" x="59.5" y="-7" font-family="Helvetica,sans-Serif" font-size="10.00">src/P2/splice/pair.cpp</text>
</a>
</g>
</g>
<!-- Node3&#45;&gt;Node4 -->
<g id="edge3_Node000003_Node000004" class="edge">
<title>Node3&#45;&gt;Node4</title>
<g id="a_edge3_Node000003_Node000004"><a xlink:title=" ">
<path fill="none" stroke="#63b8ff" d="M178.35,-51.67C149.82,-41.79 109.81,-27.93 84.27,-19.08"/>
<polygon fill="#63b8ff" stroke="#63b8ff" points="177.32,-55.02 187.92,-54.98 179.61,-48.4 177.32,-55.02"/>
</a>
</g>
</g>
<!-- Node5 -->
<g id="Node000005" class="node">
<title>Node5</title>
<g id="a_Node000005"><a xlink:href="spliceutils_8cpp.html" target="_top" xlink:title=" ">
<polygon fill="white" stroke="#666666" points="287.5,-19 137.5,-19 137.5,0 287.5,0 287.5,-19"/>
<text text-anchor="middle" x="212.5" y="-7" font-family="Helvetica,sans-Serif" font-size="10.00">src/P2/splice/spliceutils.cpp</text>
</a>
</g>
</g>
<!-- Node3&#45;&gt;Node5 -->
<g id="edge4_Node000003_Node000005" class="edge">
<title>Node3&#45;&gt;Node5</title>
<g id="a_edge4_Node000003_Node000005"><a xlink:title=" ">
<path fill="none" stroke="#63b8ff" d="M212.5,-44.66C212.5,-35.93 212.5,-25.99 212.5,-19.09"/>
<polygon fill="#63b8ff" stroke="#63b8ff" points="209,-44.75 212.5,-54.75 216,-44.75 209,-44.75"/>
</a>
</g>
</g>
<!-- Node7 -->
<g id="Node000007" class="node">
<title>Node7</title>
<g id="a_Node000007"><a xlink:href="splicemap_8c.html" target="_top" xlink:title=" ">
<polygon fill="white" stroke="#666666" points="412,-19 305,-19 305,0 412,0 412,-19"/>
<text text-anchor="middle" x="358.5" y="-7" font-family="Helvetica,sans-Serif" font-size="10.00">src/P2/splicemap.c</text>
</a>
</g>
</g>
<!-- Node6&#45;&gt;Node7 -->
<g id="edge6_Node000006_Node000007" class="edge">
<title>Node6&#45;&gt;Node7</title>
<g id="a_edge6_Node000006_Node000007"><a xlink:title=" ">
<path fill="none" stroke="#63b8ff" d="M358.5,-44.66C358.5,-35.93 358.5,-25.99 358.5,-19.09"/>
<polygon fill="#63b8ff" stroke="#63b8ff" points="355,-44.75 358.5,-54.75 362,-44.75 355,-44.75"/>
</a>
</g>
</g>
<!-- Node8&#45;&gt;Node9 -->
<g id="edge8_Node000008_Node000009" class="edge">
<title>Node8&#45;&gt;Node9</title>
<g id="a_edge8_Node000008_Node000009"><a xlink:title=" ">
<path fill="none" stroke="#63b8ff" d="M507.75,-48.32C496.69,-38.87 482.87,-27.06 473.64,-19.17"/>
<polygon fill="#63b8ff" stroke="#63b8ff" points="505.66,-51.15 515.54,-54.98 510.21,-45.83 505.66,-51.15"/>
</a>
</g>
</g>
<!-- Node10 -->
<g id="Node000010" class="node">
<title>Node10</title>
<g id="a_Node000010"><a xlink:href="spliceobj_8c.html" target="_top" xlink:title=" ">
<polygon fill="white" stroke="#666666" points="616,-19 515,-19 515,0 616,0 616,-19"/>
<text text-anchor="middle" x="565.5" y="-7" font-family="Helvetica,sans-Serif" font-size="10.00">src/P2/spliceobj.c</text>
</a>
</g>
</g>
<!-- Node8&#45;&gt;Node10 -->
<g id="edge9_Node000008_Node000010" class="edge">
<title>Node8&#45;&gt;Node10</title>
<g id="a_edge9_Node000008_Node000010"><a xlink:title=" ">
<path fill="none" stroke="#63b8ff" d="M538.2,-46.67C545.13,-37.5 553.41,-26.52 559.02,-19.09"/>
<polygon fill="#63b8ff" stroke="#63b8ff" points="535.34,-44.66 532.11,-54.75 540.92,-48.87 535.34,-44.66"/>
</a>
</g>
</g>
</g>
</svg>

<g id="navigator" transform="translate(0 0)" fill="#404254">
  <rect fill="#f2f5e9" fill-opacity="0.5" stroke="#606060" stroke-width=".5" x="0" y="0" width="60" height="60"/>
  <use id="zoomplus" xlink:href="#zoomPlus" x="17" y="9" onmousedown="handleZoom(evt,'in')"/>
  <use id="zoomminus" xlink:href="#zoomMin" x="42" y="9" onmousedown="handleZoom(evt,'out')"/>
  <use id="reset" xlink:href="#resetDef" x="30" y="36" onmousedown="handleReset()"/>
   <use id="arrowup" xlink:href="#arrowUp" x="0" y="0" onmousedown="handlePan(0,-1)"/>
  <use id="arrowright" xlink:href="#arrowRight" x="0" y="0" onmousedown="handlePan(1,0)"/>
  <use id="arrowdown" xlink:href="#arrowDown" x="0" y="0" onmousedown="handlePan(0,1)"/>
  <use id="arrowleft" xlink:href="#arrowLeft" x="0" y="0" onmousedown="handlePan(-1,0)"/>
</g>
<svg viewBox="0 0 15 15" width="100%" height="30px" preserveAspectRatio="xMaxYMin meet">
 <g id="arrow_out" transform="scale(0.3 0.3)">
  <a xlink:href="proc_8h__dep__incl_org.svg" target="_base">
   <rect id="button" ry="5" rx="5" y="6" x="6" height="38" width="38"
        fill="#f2f5e9" fill-opacity="0.5" stroke="#606060" stroke-width="1.0"/>
   <path id="arrow"
     d="M 11.500037,31.436501 C 11.940474,20.09759 22.043105,11.32322 32.158766,21.979434 L 37.068811,17.246167 C 37.068811,17.246167 37.088388,32 37.088388,32 L 22.160133,31.978069 C 22.160133,31.978069 26.997745,27.140456 26.997745,27.140456 C 18.528582,18.264221 13.291696,25.230495 11.500037,31.436501 z"
     style="fill:#404040;"/>
  </a>
 </g>
</svg>

<style type='text/css'>
<![CDATA[
[data-mouse-over-selected='false'] { opacity: 0.7; }
[data-mouse-over-selected='true']  { opacity: 1.0; }
]]>
</style>
<script type="application/ecmascript"><![CDATA[
document.addEventListener('DOMContentLoaded', (event) => {
  highlightEdges();
  highlightAdjacentNodes();
});
]]></script>
</svg>
