<?xml version="1.0" encoding="UTF-8" standalone="no"?>
<!DOCTYPE svg PUBLIC "-//W3C//DTD SVG 1.1//EN"
 "http://www.w3.org/Graphics/SVG/1.1/DTD/svg11.dtd">
<!-- Generated by graphviz version 2.43.0 (0)
 -->
<!-- Title: include/prompt.h Pages: 1 -->
<svg width="745pt" height="357pt"
 viewBox="0.00 0.00 744.50 357.00" xmlns="http://www.w3.org/2000/svg" xmlns:xlink="http://www.w3.org/1999/xlink">
<g id="graph0" class="graph" transform="scale(1 1) rotate(0) translate(4 353)">
<title>include/prompt.h</title>
<!-- Node1 -->
<g id="Node000001" class="node">
<title>Node1</title>
<g id="a_Node000001"><a xlink:title=" ">
<polygon fill="#999999" stroke="#666666" points="337.5,-349 238.5,-349 238.5,-330 337.5,-330 337.5,-349"/>
<text text-anchor="middle" x="288" y="-337" font-family="Helvetica,sans-Serif" font-size="10.00">include/prompt.h</text>
</a>
</g>
</g>
<!-- Node2 -->
<g id="Node000002" class="node">
<title>Node2</title>
<g id="a_Node000002"><a xlink:href="screen_8h.html" target="_top" xlink:title="GUI elements.">
<polygon fill="white" stroke="#666666" points="280,-294 222,-294 222,-275 280,-275 280,-294"/>
<text text-anchor="middle" x="251" y="-282" font-family="Helvetica,sans-Serif" font-size="10.00">screen.h</text>
</a>
</g>
</g>
<!-- Node1&#45;&gt;Node2 -->
<g id="edge1_Node000001_Node000002" class="edge">
<title>Node1&#45;&gt;Node2</title>
<g id="a_edge1_Node000001_Node000002"><a xlink:title=" ">
<path fill="none" stroke="#63b8ff" d="M281.89,-329.75C276.72,-322.34 269.15,-311.5 262.81,-302.41"/>
<polygon fill="#63b8ff" stroke="#63b8ff" points="265.59,-300.29 257,-294.09 259.85,-304.29 265.59,-300.29"/>
</a>
</g>
</g>
<!-- Node15 -->
<g id="Node000015" class="node">
<title>Node15</title>
<g id="a_Node000015"><a xlink:href="joy_8h.html" target="_top" xlink:title="Joypad manager.">
<polygon fill="white" stroke="#666666" points="345.5,-294 306.5,-294 306.5,-275 345.5,-275 345.5,-294"/>
<text text-anchor="middle" x="326" y="-282" font-family="Helvetica,sans-Serif" font-size="10.00">joy.h</text>
</a>
</g>
</g>
<!-- Node1&#45;&gt;Node15 -->
<g id="edge15_Node000001_Node000015" class="edge">
<title>Node1&#45;&gt;Node15</title>
<g id="a_edge15_Node000001_Node000015"><a xlink:title=" ">
<path fill="none" stroke="#63b8ff" d="M294.27,-329.75C299.59,-322.34 307.36,-311.5 313.88,-302.41"/>
<polygon fill="#63b8ff" stroke="#63b8ff" points="316.86,-304.26 319.84,-294.09 311.17,-300.18 316.86,-304.26"/>
</a>
</g>
</g>
<!-- Node3 -->
<g id="Node000003" class="node">
<title>Node3</title>
<g id="a_Node000003"><a xlink:href="font_8h.html" target="_top" xlink:title="Font system.">
<polygon fill="white" stroke="#666666" points="188.5,-239 143.5,-239 143.5,-220 188.5,-220 188.5,-239"/>
<text text-anchor="middle" x="166" y="-227" font-family="Helvetica,sans-Serif" font-size="10.00">font.h</text>
</a>
</g>
</g>
<!-- Node2&#45;&gt;Node3 -->
<g id="edge2_Node000002_Node000003" class="edge">
<title>Node2&#45;&gt;Node3</title>
<g id="a_edge2_Node000002_Node000003"><a xlink:title=" ">
<path fill="none" stroke="#63b8ff" d="M237.34,-274.98C224.16,-266.77 203.97,-254.18 188.43,-244.49"/>
<polygon fill="#63b8ff" stroke="#63b8ff" points="190.24,-241.49 179.91,-239.17 186.54,-247.43 190.24,-241.49"/>
</a>
</g>
</g>
<!-- Node12 -->
<g id="Node000012" class="node">
<title>Node12</title>
<g id="a_Node000012"><a xlink:href="game_8h.html" target="_top" xlink:title="Game state and level management.">
<polygon fill="white" stroke="#666666" points="277.5,-239 224.5,-239 224.5,-220 277.5,-220 277.5,-239"/>
<text text-anchor="middle" x="251" y="-227" font-family="Helvetica,sans-Serif" font-size="10.00">game.h</text>
</a>
</g>
</g>
<!-- Node2&#45;&gt;Node12 -->
<g id="edge12_Node000002_Node000012" class="edge">
<title>Node2&#45;&gt;Node12</title>
<g id="a_edge12_Node000002_Node000012"><a xlink:title=" ">
<path fill="none" stroke="#63b8ff" d="M251,-274.75C251,-267.8 251,-257.85 251,-249.13"/>
<polygon fill="#63b8ff" stroke="#63b8ff" points="254.5,-249.09 251,-239.09 247.5,-249.09 254.5,-249.09"/>
</a>
</g>
</g>
<!-- Node4 -->
<g id="Node000004" class="node">
<title>Node4</title>
<g id="a_Node000004"><a xlink:href="gifs_8h.html" target="_top" xlink:title=" ">
<polygon fill="white" stroke="#666666" points="214,-184 170,-184 170,-165 214,-165 214,-184"/>
<text text-anchor="middle" x="192" y="-172" font-family="Helvetica,sans-Serif" font-size="10.00">gifs.h</text>
</a>
</g>
</g>
<!-- Node3&#45;&gt;Node4 -->
<g id="edge3_Node000003_Node000004" class="edge">
<title>Node3&#45;&gt;Node4</title>
<g id="a_edge3_Node000003_Node000004"><a xlink:title=" ">
<path fill="none" stroke="#63b8ff" d="M170.29,-219.75C173.81,-212.57 178.91,-202.18 183.28,-193.27"/>
<polygon fill="#63b8ff" stroke="#63b8ff" points="186.52,-194.61 187.79,-184.09 180.24,-191.53 186.52,-194.61"/>
</a>
</g>
</g>
<!-- Node5 -->
<g id="Node000005" class="node">
<title>Node5</title>
<g id="a_Node000005"><a xlink:href="dmas_8h.html" target="_top" xlink:title="Direct memory access.">
<polygon fill="white" stroke="#666666" points="218.5,-129 165.5,-129 165.5,-110 218.5,-110 218.5,-129"/>
<text text-anchor="middle" x="192" y="-117" font-family="Helvetica,sans-Serif" font-size="10.00">dmas.h</text>
</a>
</g>
</g>
<!-- Node3&#45;&gt;Node5 -->
<g id="edge8_Node000003_Node000005" class="edge">
<title>Node3&#45;&gt;Node5</title>
<g id="a_edge8_Node000003_Node000005"><a xlink:title=" ">
<path fill="none" stroke="#63b8ff" d="M163.25,-219.64C159.82,-207.14 155.1,-183.78 161,-165 164.23,-154.71 170.78,-144.72 177.03,-136.82"/>
<polygon fill="#63b8ff" stroke="#63b8ff" points="179.73,-139.04 183.52,-129.15 174.39,-134.52 179.73,-139.04"/>
</a>
</g>
</g>
<!-- Node9 -->
<g id="Node000009" class="node">
<title>Node9</title>
<g id="a_Node000009"><a xlink:href="eestruct_8h.html" target="_top" xlink:title="Graphics synthesizer.">
<polygon fill="white" stroke="#666666" points="104.5,-184 3.5,-184 3.5,-165 104.5,-165 104.5,-184"/>
<text text-anchor="middle" x="54" y="-172" font-family="Helvetica,sans-Serif" font-size="10.00">sdk/ee/eestruct.h</text>
</a>
</g>
</g>
<!-- Node3&#45;&gt;Node9 -->
<g id="edge9_Node000003_Node000009" class="edge">
<title>Node3&#45;&gt;Node9</title>
<g id="a_edge9_Node000003_Node000009"><a xlink:title=" ">
<path fill="none" stroke="#63b8ff" d="M148.01,-219.98C130.07,-211.5 102.28,-198.35 81.57,-188.54"/>
<polygon fill="#63b8ff" stroke="#63b8ff" points="82.86,-185.28 72.32,-184.17 79.86,-191.61 82.86,-185.28"/>
</a>
</g>
</g>
<!-- Node4&#45;&gt;Node5 -->
<g id="edge4_Node000004_Node000005" class="edge">
<title>Node4&#45;&gt;Node5</title>
<g id="a_edge4_Node000004_Node000005"><a xlink:title=" ">
<path fill="none" stroke="#63b8ff" d="M192,-164.75C192,-157.8 192,-147.85 192,-139.13"/>
<polygon fill="#63b8ff" stroke="#63b8ff" points="195.5,-139.09 192,-129.09 188.5,-139.09 195.5,-139.09"/>
</a>
</g>
</g>
<!-- Node6 -->
<g id="Node000006" class="node">
<title>Node6</title>
<g id="a_Node000006"><a xlink:href="libdma_8h.html" target="_top" xlink:title="Direct memory access library.">
<polygon fill="white" stroke="#666666" points="153.5,-74 74.5,-74 74.5,-55 153.5,-55 153.5,-74"/>
<text text-anchor="middle" x="114" y="-62" font-family="Helvetica,sans-Serif" font-size="10.00">sce/libdma.h</text>
</a>
</g>
</g>
<!-- Node5&#45;&gt;Node6 -->
<g id="edge5_Node000005_Node000006" class="edge">
<title>Node5&#45;&gt;Node6</title>
<g id="a_edge5_Node000005_Node000006"><a xlink:title=" ">
<path fill="none" stroke="#63b8ff" d="M179.47,-109.98C167.6,-101.92 149.54,-89.65 135.39,-80.03"/>
<polygon fill="#63b8ff" stroke="#63b8ff" points="137,-76.9 126.76,-74.17 133.06,-82.69 137,-76.9"/>
</a>
</g>
</g>
<!-- Node7 -->
<g id="Node000007" class="node">
<title>Node7</title>
<g id="a_Node000007"><a xlink:href="eekernel_8h.html" target="_top" xlink:title=" ">
<polygon fill="white" stroke="#666666" points="274.5,-74 171.5,-74 171.5,-55 274.5,-55 274.5,-74"/>
<text text-anchor="middle" x="223" y="-62" font-family="Helvetica,sans-Serif" font-size="10.00">sdk/ee/eekernel.h</text>
</a>
</g>
</g>
<!-- Node5&#45;&gt;Node7 -->
<g id="edge6_Node000005_Node000007" class="edge">
<title>Node5&#45;&gt;Node7</title>
<g id="a_edge6_Node000005_Node000007"><a xlink:title=" ">
<path fill="none" stroke="#63b8ff" d="M197.12,-109.75C201.36,-102.49 207.53,-91.95 212.78,-82.98"/>
<polygon fill="#63b8ff" stroke="#63b8ff" points="215.95,-84.49 217.98,-74.09 209.91,-80.95 215.95,-84.49"/>
</a>
</g>
</g>
<!-- Node8 -->
<g id="Node000008" class="node">
<title>Node8</title>
<g id="a_Node000008"><a xlink:href="vec_8h.html" target="_top" xlink:title="Vector math.">
<polygon fill="white" stroke="#666666" points="374.5,-74 331.5,-74 331.5,-55 374.5,-55 374.5,-74"/>
<text text-anchor="middle" x="353" y="-62" font-family="Helvetica,sans-Serif" font-size="10.00">vec.h</text>
</a>
</g>
</g>
<!-- Node5&#45;&gt;Node8 -->
<g id="edge7_Node000005_Node000008" class="edge">
<title>Node5&#45;&gt;Node8</title>
<g id="a_edge7_Node000005_Node000008"><a xlink:title=" ">
<path fill="none" stroke="#63b8ff" d="M217.87,-109.98C246.14,-100.68 291.43,-85.77 321.69,-75.81"/>
<polygon fill="#63b8ff" stroke="#63b8ff" points="322.92,-79.09 331.33,-72.63 320.73,-72.44 322.92,-79.09"/>
</a>
</g>
</g>
<!-- Node10 -->
<g id="Node000010" class="node">
<title>Node10</title>
<g id="a_Node000010"><a xlink:href="types_8h.html" target="_top" xlink:title="Common types used across the codebase.">
<polygon fill="white" stroke="#666666" points="61.5,-129 8.5,-129 8.5,-110 61.5,-110 61.5,-129"/>
<text text-anchor="middle" x="35" y="-117" font-family="Helvetica,sans-Serif" font-size="10.00">types.h</text>
</a>
</g>
</g>
<!-- Node9&#45;&gt;Node10 -->
<g id="edge10_Node000009_Node000010" class="edge">
<title>Node9&#45;&gt;Node10</title>
<g id="a_edge10_Node000009_Node000010"><a xlink:title=" ">
<path fill="none" stroke="#63b8ff" d="M50.86,-164.75C48.32,-157.65 44.64,-147.4 41.47,-138.56"/>
<polygon fill="#63b8ff" stroke="#63b8ff" points="44.75,-137.32 38.08,-129.09 38.16,-139.68 44.75,-137.32"/>
</a>
</g>
</g>
<!-- Node11 -->
<g id="Node000011" class="node">
<title>Node11</title>
<g id="a_Node000011"><a xlink:title=" ">
<polygon fill="#e0e0e0" stroke="#999999" points="56,-74 0,-74 0,-55 56,-55 56,-74"/>
<text text-anchor="middle" x="28" y="-62" font-family="Helvetica,sans-Serif" font-size="10.00">stddef.h</text>
</a>
</g>
</g>
<!-- Node10&#45;&gt;Node11 -->
<g id="edge11_Node000010_Node000011" class="edge">
<title>Node10&#45;&gt;Node11</title>
<g id="a_edge11_Node000010_Node000011"><a xlink:title=" ">
<path fill="none" stroke="#63b8ff" d="M33.84,-109.75C32.93,-102.8 31.61,-92.85 30.46,-84.13"/>
<polygon fill="#63b8ff" stroke="#63b8ff" points="33.91,-83.54 29.13,-74.09 26.97,-84.46 33.91,-83.54"/>
</a>
</g>
</g>
<!-- Node13 -->
<g id="Node000013" class="node">
<title>Node13</title>
<g id="a_Node000013"><a xlink:href="oid_8h.html" target="_top" xlink:title="Object IDs.">
<polygon fill="white" stroke="#666666" points="446.5,-19 405.5,-19 405.5,0 446.5,0 446.5,-19"/>
<text text-anchor="middle" x="426" y="-7" font-family="Helvetica,sans-Serif" font-size="10.00">oid.h</text>
</a>
</g>
</g>
<!-- Node12&#45;&gt;Node13 -->
<g id="edge13_Node000012_Node000013" class="edge">
<title>Node12&#45;&gt;Node13</title>
<g id="a_edge13_Node000012_Node000013"><a xlink:title=" ">
<path fill="none" stroke="#63b8ff" d="M257.98,-219.75C264.63,-211.08 274.54,-197.23 281,-184 307.44,-129.81 282.39,-99.57 323,-55 342,-34.15 372.46,-22.65 395.34,-16.59"/>
<polygon fill="#63b8ff" stroke="#63b8ff" points="396.36,-19.94 405.25,-14.18 394.71,-13.14 396.36,-19.94"/>
</a>
</g>
</g>
<!-- Node14 -->
<g id="Node000014" class="node">
<title>Node14</title>
<g id="a_Node000014"><a xlink:href="cid_8h.html" target="_top" xlink:title="Class IDs.">
<polygon fill="white" stroke="#666666" points="272,-184 232,-184 232,-165 272,-165 272,-184"/>
<text text-anchor="middle" x="252" y="-172" font-family="Helvetica,sans-Serif" font-size="10.00">cid.h</text>
</a>
</g>
</g>
<!-- Node12&#45;&gt;Node14 -->
<g id="edge14_Node000012_Node000014" class="edge">
<title>Node12&#45;&gt;Node14</title>
<g id="a_edge14_Node000012_Node000014"><a xlink:title=" ">
<path fill="none" stroke="#63b8ff" d="M251.17,-219.75C251.3,-212.8 251.48,-202.85 251.65,-194.13"/>
<polygon fill="#63b8ff" stroke="#63b8ff" points="255.15,-194.15 251.84,-184.09 248.15,-194.02 255.15,-194.15"/>
</a>
</g>
</g>
<!-- Node16 -->
<g id="Node000016" class="node">
<title>Node16</title>
<g id="a_Node000016"><a xlink:href="rumble_8h.html" target="_top" xlink:title="Joypad rumble.">
<polygon fill="white" stroke="#666666" points="356,-239 296,-239 296,-220 356,-220 356,-239"/>
<text text-anchor="middle" x="326" y="-227" font-family="Helvetica,sans-Serif" font-size="10.00">rumble.h</text>
</a>
</g>
</g>
<!-- Node15&#45;&gt;Node16 -->
<g id="edge16_Node000015_Node000016" class="edge">
<title>Node15&#45;&gt;Node16</title>
<g id="a_edge16_Node000015_Node000016"><a xlink:title=" ">
<path fill="none" stroke="#63b8ff" d="M326,-274.75C326,-267.8 326,-257.85 326,-249.13"/>
<polygon fill="#63b8ff" stroke="#63b8ff" points="329.5,-249.09 326,-239.09 322.5,-249.09 329.5,-249.09"/>
</a>
</g>
</g>
<!-- Node17 -->
<g id="Node000017" class="node">
<title>Node17</title>
<g id="a_Node000017"><a xlink:href="util_8h.html" target="_top" xlink:title="Utility functions.">
<polygon fill="white" stroke="#666666" points="415.5,-239 374.5,-239 374.5,-220 415.5,-220 415.5,-239"/>
<text text-anchor="middle" x="395" y="-227" font-family="Helvetica,sans-Serif" font-size="10.00">util.h</text>
</a>
</g>
</g>
<!-- Node15&#45;&gt;Node17 -->
<g id="edge17_Node000015_Node000017" class="edge">
<title>Node15&#45;&gt;Node17</title>
<g id="a_edge17_Node000015_Node000017"><a xlink:title=" ">
<path fill="none" stroke="#63b8ff" d="M337.09,-274.98C347.49,-267 363.26,-254.88 375.72,-245.31"/>
<polygon fill="#63b8ff" stroke="#63b8ff" points="377.91,-248.04 383.71,-239.17 373.65,-242.49 377.91,-248.04"/>
</a>
</g>
</g>
<!-- Node17&#45;&gt;Node8 -->
<g id="edge18_Node000017_Node000008" class="edge">
<title>Node17&#45;&gt;Node8</title>
<g id="a_edge18_Node000017_Node000008"><a xlink:title=" ">
<path fill="none" stroke="#63b8ff" d="M391.71,-219.84C385.33,-202.73 371.15,-163.25 363,-129 359.48,-114.2 356.87,-97.17 355.2,-84.47"/>
<polygon fill="#63b8ff" stroke="#63b8ff" points="358.64,-83.71 353.94,-74.21 351.69,-84.56 358.64,-83.71"/>
</a>
</g>
</g>
<!-- Node18 -->
<g id="Node000018" class="node">
<title>Node18</title>
<g id="a_Node000018"><a xlink:href="mat_8h.html" target="_top" xlink:title="3x3 and 4x4 matrix types.">
<polygon fill="white" stroke="#666666" points="416.5,-129 371.5,-129 371.5,-110 416.5,-110 416.5,-129"/>
<text text-anchor="middle" x="394" y="-117" font-family="Helvetica,sans-Serif" font-size="10.00">mat.h</text>
</a>
</g>
</g>
<!-- Node17&#45;&gt;Node18 -->
<g id="edge19_Node000017_Node000018" class="edge">
<title>Node17&#45;&gt;Node18</title>
<g id="a_edge19_Node000017_Node000018"><a xlink:title=" ">
<path fill="none" stroke="#63b8ff" d="M394.92,-219.66C394.76,-202.17 394.39,-162.8 394.17,-139.27"/>
<polygon fill="#63b8ff" stroke="#63b8ff" points="397.67,-139.13 394.08,-129.16 390.67,-139.19 397.67,-139.13"/>
</a>
</g>
</g>
<!-- Node19 -->
<g id="Node000019" class="node">
<title>Node19</title>
<g id="a_Node000019"><a xlink:href="sm_8h.html" target="_top" xlink:title="Probabilistic finite state machines.">
<polygon fill="white" stroke="#666666" points="484.5,-184 443.5,-184 443.5,-165 484.5,-165 484.5,-184"/>
<text text-anchor="middle" x="464" y="-172" font-family="Helvetica,sans-Serif" font-size="10.00">sm.h</text>
</a>
</g>
</g>
<!-- Node17&#45;&gt;Node19 -->
<g id="edge21_Node000017_Node000019" class="edge">
<title>Node17&#45;&gt;Node19</title>
<g id="a_edge21_Node000017_Node000019"><a xlink:title=" ">
<path fill="none" stroke="#63b8ff" d="M406.09,-219.98C416.49,-212 432.26,-199.88 444.72,-190.31"/>
<polygon fill="#63b8ff" stroke="#63b8ff" points="446.91,-193.04 452.71,-184.17 442.65,-187.49 446.91,-193.04"/>
</a>
</g>
</g>
<!-- Node18&#45;&gt;Node8 -->
<g id="edge20_Node000018_Node000008" class="edge">
<title>Node18&#45;&gt;Node8</title>
<g id="a_edge20_Node000018_Node000008"><a xlink:title=" ">
<path fill="none" stroke="#63b8ff" d="M387.23,-109.75C381.44,-102.26 372.94,-91.28 365.86,-82.13"/>
<polygon fill="#63b8ff" stroke="#63b8ff" points="368.53,-79.86 359.64,-74.09 362.99,-84.14 368.53,-79.86"/>
</a>
</g>
</g>
<!-- Node20 -->
<g id="Node000020" class="node">
<title>Node20</title>
<g id="a_Node000020"><a xlink:href="dl_8h.html" target="_top" xlink:title="Doubly&#45;linked list.">
<polygon fill="white" stroke="#666666" points="443.5,-74 408.5,-74 408.5,-55 443.5,-55 443.5,-74"/>
<text text-anchor="middle" x="426" y="-62" font-family="Helvetica,sans-Serif" font-size="10.00">dl.h</text>
</a>
</g>
</g>
<!-- Node19&#45;&gt;Node20 -->
<g id="edge22_Node000019_Node000020" class="edge">
<title>Node19&#45;&gt;Node20</title>
<g id="a_edge22_Node000019_Node000020"><a xlink:title=" ">
<path fill="none" stroke="#63b8ff" d="M460.89,-164.66C454.68,-147.01 440.63,-107.09 432.38,-83.64"/>
<polygon fill="#63b8ff" stroke="#63b8ff" points="435.67,-82.43 429.05,-74.16 429.06,-84.75 435.67,-82.43"/>
</a>
</g>
</g>
<!-- Node21 -->
<g id="Node000021" class="node">
<title>Node21</title>
<g id="a_Node000021"><a xlink:href="mq_8h.html" target="_top" xlink:title="Message queue.">
<polygon fill="white" stroke="#666666" points="502.5,-74 461.5,-74 461.5,-55 502.5,-55 502.5,-74"/>
<text text-anchor="middle" x="482" y="-62" font-family="Helvetica,sans-Serif" font-size="10.00">mq.h</text>
</a>
</g>
</g>
<!-- Node19&#45;&gt;Node21 -->
<g id="edge24_Node000019_Node000021" class="edge">
<title>Node19&#45;&gt;Node21</title>
<g id="a_edge24_Node000019_Node000021"><a xlink:title=" ">
<path fill="none" stroke="#63b8ff" d="M465.47,-164.66C468.39,-147.17 474.95,-107.8 478.87,-84.27"/>
<polygon fill="#63b8ff" stroke="#63b8ff" points="482.37,-84.6 480.56,-74.16 475.46,-83.45 482.37,-84.6"/>
</a>
</g>
</g>
<!-- Node22 -->
<g id="Node000022" class="node">
<title>Node22</title>
<g id="a_Node000022"><a xlink:href="lo_8h.html" target="_top" xlink:title="Level objects.">
<polygon fill="white" stroke="#666666" points="547.5,-129 512.5,-129 512.5,-110 547.5,-110 547.5,-129"/>
<text text-anchor="middle" x="530" y="-117" font-family="Helvetica,sans-Serif" font-size="10.00">lo.h</text>
</a>
</g>
</g>
<!-- Node19&#45;&gt;Node22 -->
<g id="edge25_Node000019_Node000022" class="edge">
<title>Node19&#45;&gt;Node22</title>
<g id="a_edge25_Node000019_Node000022"><a xlink:title=" ">
<path fill="none" stroke="#63b8ff" d="M474.6,-164.98C484.46,-157.07 499.35,-145.11 511.22,-135.58"/>
<polygon fill="#63b8ff" stroke="#63b8ff" points="513.6,-138.16 519.2,-129.17 509.21,-132.7 513.6,-138.16"/>
</a>
</g>
</g>
<!-- Node20&#45;&gt;Node13 -->
<g id="edge23_Node000020_Node000013" class="edge">
<title>Node20&#45;&gt;Node13</title>
<g id="a_edge23_Node000020_Node000013"><a xlink:title=" ">
<path fill="none" stroke="#63b8ff" d="M426,-54.75C426,-47.8 426,-37.85 426,-29.13"/>
<polygon fill="#63b8ff" stroke="#63b8ff" points="429.5,-29.09 426,-19.09 422.5,-29.09 429.5,-29.09"/>
</a>
</g>
</g>
<!-- Node22&#45;&gt;Node13 -->
<g id="edge28_Node000022_Node000013" class="edge">
<title>Node22&#45;&gt;Node13</title>
<g id="a_edge28_Node000022_Node000013"><a xlink:title=" ">
<path fill="none" stroke="#63b8ff" d="M529.66,-109.7C528.72,-96.43 525.19,-71.15 512,-55 497.76,-37.56 474.88,-26.19 456.3,-19.31"/>
<polygon fill="#63b8ff" stroke="#63b8ff" points="457.37,-15.98 446.77,-16.03 455.09,-22.59 457.37,-15.98"/>
</a>
</g>
</g>
<!-- Node22&#45;&gt;Node20 -->
<g id="edge26_Node000022_Node000020" class="edge">
<title>Node22&#45;&gt;Node20</title>
<g id="a_edge26_Node000022_Node000020"><a xlink:title=" ">
<path fill="none" stroke="#63b8ff" d="M513.29,-109.98C496.79,-101.57 471.3,-88.59 452.12,-78.81"/>
<polygon fill="#63b8ff" stroke="#63b8ff" points="453.51,-75.59 443.01,-74.17 450.33,-81.83 453.51,-75.59"/>
</a>
</g>
</g>
<!-- Node22&#45;&gt;Node21 -->
<g id="edge27_Node000022_Node000021" class="edge">
<title>Node22&#45;&gt;Node21</title>
<g id="a_edge27_Node000022_Node000021"><a xlink:title=" ">
<path fill="none" stroke="#63b8ff" d="M522.07,-109.75C515.15,-102.11 504.93,-90.82 496.55,-81.56"/>
<polygon fill="#63b8ff" stroke="#63b8ff" points="499.09,-79.15 489.78,-74.09 493.9,-83.85 499.09,-79.15"/>
</a>
</g>
</g>
<!-- Node23 -->
<g id="Node000023" class="node">
<title>Node23</title>
<g id="a_Node000023"><a xlink:href="basic_8h.html" target="_top" xlink:title="Basic object.">
<polygon fill="white" stroke="#666666" points="714.5,-74 663.5,-74 663.5,-55 714.5,-55 714.5,-74"/>
<text text-anchor="middle" x="689" y="-62" font-family="Helvetica,sans-Serif" font-size="10.00">basic.h</text>
</a>
</g>
</g>
<!-- Node22&#45;&gt;Node23 -->
<g id="edge29_Node000022_Node000023" class="edge">
<title>Node22&#45;&gt;Node23</title>
<g id="a_edge29_Node000022_Node000023"><a xlink:title=" ">
<path fill="none" stroke="#63b8ff" d="M547.62,-112.63C573.12,-104.13 620.85,-88.22 653.75,-77.25"/>
<polygon fill="#63b8ff" stroke="#63b8ff" points="655.06,-80.5 663.44,-74.02 652.84,-73.86 655.06,-80.5"/>
</a>
</g>
</g>
<!-- Node25 -->
<g id="Node000025" class="node">
<title>Node25</title>
<g id="a_Node000025"><a xlink:href="frame_8h.html" target="_top" xlink:title=" ">
<polygon fill="white" stroke="#666666" points="645,-74 559,-74 559,-55 645,-55 645,-74"/>
<text text-anchor="middle" x="602" y="-62" font-family="Helvetica,sans-Serif" font-size="10.00">splice/frame.h</text>
</a>
</g>
</g>
<!-- Node22&#45;&gt;Node25 -->
<g id="edge31_Node000022_Node000025" class="edge">
<title>Node22&#45;&gt;Node25</title>
<g id="a_edge31_Node000022_Node000025"><a xlink:title=" ">
<path fill="none" stroke="#63b8ff" d="M541.57,-109.98C552.42,-102 568.88,-89.88 581.88,-80.31"/>
<polygon fill="#63b8ff" stroke="#63b8ff" points="584.24,-82.92 590.22,-74.17 580.09,-77.28 584.24,-82.92"/>
</a>
</g>
</g>
<!-- Node24 -->
<g id="Node000024" class="node">
<title>Node24</title>
<g id="a_Node000024"><a xlink:href="sidebag_8h.html" target="_top" xlink:title="Sidebag for splice.">
<polygon fill="white" stroke="#666666" points="736.5,-19 641.5,-19 641.5,0 736.5,0 736.5,-19"/>
<text text-anchor="middle" x="689" y="-7" font-family="Helvetica,sans-Serif" font-size="10.00">splice/sidebag.h</text>
</a>
</g>
</g>
<!-- Node23&#45;&gt;Node24 -->
<g id="edge30_Node000023_Node000024" class="edge">
<title>Node23&#45;&gt;Node24</title>
<g id="a_edge30_Node000023_Node000024"><a xlink:title=" ">
<path fill="none" stroke="#63b8ff" d="M689,-54.75C689,-47.8 689,-37.85 689,-29.13"/>
<polygon fill="#63b8ff" stroke="#63b8ff" points="692.5,-29.09 689,-19.09 685.5,-29.09 692.5,-29.09"/>
</a>
</g>
</g>
</g>
</svg>
