<?xml version="1.0" encoding="UTF-8" standalone="no"?>
<!DOCTYPE svg PUBLIC "-//W3C//DTD SVG 1.1//EN"
 "http://www.w3.org/Graphics/SVG/1.1/DTD/svg11.dtd">
<!-- Generated by graphviz version 2.43.0 (0)
 -->
<!-- Title: include/proxy.h Pages: 1 -->
<svg width="505pt" height="364pt"
 viewBox="0.00 0.00 504.90 364.00" xmlns="http://www.w3.org/2000/svg" xmlns:xlink="http://www.w3.org/1999/xlink">
<g id="graph0" class="graph" transform="scale(1 1) rotate(0) translate(4 360)">
<title>include/proxy.h</title>
<polygon fill="white" stroke="transparent" points="-4,4 -4,-360 500.9,-360 500.9,4 -4,4"/>
<!-- Node1 -->
<g id="node1" class="node">
<title>Node1</title>
<g id="a_node1"><a xlink:title=" ">
<polygon fill="#bfbfbf" stroke="black" points="101.86,-336.5 101.86,-355.5 191.86,-355.5 191.86,-336.5 101.86,-336.5"/>
<text text-anchor="middle" x="146.86" y="-343.5" font-family="Helvetica,sans-Serif" font-size="10.00">include/proxy.h</text>
</a>
</g>
</g>
<!-- Node2 -->
<g id="node2" class="node">
<title>Node2</title>
<g id="a_node2"><a xlink:href="common_8h.html" target="_top" xlink:title="Common header file.">
<polygon fill="white" stroke="black" points="243.86,-56.5 243.86,-75.5 311.86,-75.5 311.86,-56.5 243.86,-56.5"/>
<text text-anchor="middle" x="277.86" y="-63.5" font-family="Helvetica,sans-Serif" font-size="10.00">common.h</text>
</a>
</g>
</g>
<!-- Node1&#45;&gt;Node2 -->
<g id="edge1" class="edge">
<title>Node1&#45;&gt;Node2</title>
<path fill="none" stroke="midnightblue" d="M114.82,-336.44C71.84,-322.78 0.86,-291.65 0.86,-235 0.86,-235 0.86,-235 0.86,-177 0.86,-146.9 -2.58,-132.06 19.86,-112 50.75,-84.38 168.42,-73.28 233.65,-69.18"/>
<polygon fill="midnightblue" stroke="midnightblue" points="233.88,-72.67 243.65,-68.58 233.46,-65.68 233.88,-72.67"/>
</g>
<!-- Node7 -->
<g id="node7" class="node">
<title>Node7</title>
<g id="a_node7"><a xlink:href="alo_8h.html" target="_top" xlink:title=" ">
<polygon fill="white" stroke="black" points="375.36,-280.5 375.36,-299.5 416.36,-299.5 416.36,-280.5 375.36,-280.5"/>
<text text-anchor="middle" x="395.86" y="-287.5" font-family="Helvetica,sans-Serif" font-size="10.00">alo.h</text>
</a>
</g>
</g>
<!-- Node1&#45;&gt;Node7 -->
<g id="edge6" class="edge">
<title>Node1&#45;&gt;Node7</title>
<path fill="none" stroke="midnightblue" d="M186.31,-336.44C235.95,-325.68 320.14,-307.42 365.22,-297.65"/>
<polygon fill="midnightblue" stroke="midnightblue" points="366.23,-301.01 375.26,-295.47 364.75,-294.17 366.23,-301.01"/>
</g>
<!-- Node3 -->
<g id="node3" class="node">
<title>Node3</title>
<g id="a_node3"><a xlink:href="include__asm_8h.html" target="_top" xlink:title=" ">
<polygon fill="white" stroke="black" points="76.36,-0.5 76.36,-19.5 163.36,-19.5 163.36,-0.5 76.36,-0.5"/>
<text text-anchor="middle" x="119.86" y="-7.5" font-family="Helvetica,sans-Serif" font-size="10.00">include_asm.h</text>
</a>
</g>
</g>
<!-- Node2&#45;&gt;Node3 -->
<g id="edge2" class="edge">
<title>Node2&#45;&gt;Node3</title>
<path fill="none" stroke="midnightblue" d="M252.82,-56.44C226.24,-47.36 184.05,-32.94 154.34,-22.78"/>
<polygon fill="midnightblue" stroke="midnightblue" points="155.37,-19.44 144.78,-19.52 153.11,-26.06 155.37,-19.44"/>
</g>
<!-- Node4 -->
<g id="node4" class="node">
<title>Node4</title>
<g id="a_node4"><a xlink:href="include__rodata_8h.html" target="_top" xlink:title=" ">
<polygon fill="white" stroke="black" points="181.86,-0.5 181.86,-19.5 279.86,-19.5 279.86,-0.5 181.86,-0.5"/>
<text text-anchor="middle" x="230.86" y="-7.5" font-family="Helvetica,sans-Serif" font-size="10.00">include_rodata.h</text>
</a>
</g>
</g>
<!-- Node2&#45;&gt;Node4 -->
<g id="edge3" class="edge">
<title>Node2&#45;&gt;Node4</title>
<path fill="none" stroke="midnightblue" d="M270.1,-56.08C263.32,-48.3 253.32,-36.8 245.1,-27.37"/>
<polygon fill="midnightblue" stroke="midnightblue" points="247.68,-25 238.48,-19.75 242.4,-29.59 247.68,-25"/>
</g>
<!-- Node5 -->
<g id="node5" class="node">
<title>Node5</title>
<g id="a_node5"><a xlink:href="types_8h.html" target="_top" xlink:title="Types used throughout the engine.">
<polygon fill="white" stroke="black" points="298.36,-0.5 298.36,-19.5 351.36,-19.5 351.36,-0.5 298.36,-0.5"/>
<text text-anchor="middle" x="324.86" y="-7.5" font-family="Helvetica,sans-Serif" font-size="10.00">types.h</text>
</a>
</g>
</g>
<!-- Node2&#45;&gt;Node5 -->
<g id="edge4" class="edge">
<title>Node2&#45;&gt;Node5</title>
<path fill="none" stroke="midnightblue" d="M285.62,-56.08C292.4,-48.3 302.4,-36.8 310.61,-27.37"/>
<polygon fill="midnightblue" stroke="midnightblue" points="313.32,-29.59 317.24,-19.75 308.04,-25 313.32,-29.59"/>
</g>
<!-- Node6 -->
<g id="node6" class="node">
<title>Node6</title>
<g id="a_node6"><a xlink:href="vtables_8h.html" target="_top" xlink:title=" ">
<polygon fill="white" stroke="black" points="369.86,-0.5 369.86,-19.5 431.86,-19.5 431.86,-0.5 369.86,-0.5"/>
<text text-anchor="middle" x="400.86" y="-7.5" font-family="Helvetica,sans-Serif" font-size="10.00">vtables.h</text>
</a>
</g>
</g>
<!-- Node2&#45;&gt;Node6 -->
<g id="edge5" class="edge">
<title>Node2&#45;&gt;Node6</title>
<path fill="none" stroke="midnightblue" d="M297.35,-56.44C317.5,-47.6 349.18,-33.69 372.19,-23.59"/>
<polygon fill="midnightblue" stroke="midnightblue" points="373.71,-26.74 381.46,-19.52 370.9,-20.33 373.71,-26.74"/>
</g>
<!-- Node7&#45;&gt;Node2 -->
<g id="edge7" class="edge">
<title>Node7&#45;&gt;Node2</title>
<path fill="none" stroke="midnightblue" d="M406.81,-280.13C439.19,-252.86 529.49,-168.67 483.86,-112 463.96,-87.29 376.57,-75.41 322.21,-70.32"/>
<polygon fill="midnightblue" stroke="midnightblue" points="322.41,-66.82 312.14,-69.41 321.78,-73.79 322.41,-66.82"/>
</g>
<!-- Node8 -->
<g id="node8" class="node">
<title>Node8</title>
<g id="a_node8"><a xlink:href="lo_8h.html" target="_top" xlink:title="Level objects.">
<polygon fill="white" stroke="black" points="306.36,-224.5 306.36,-243.5 341.36,-243.5 341.36,-224.5 306.36,-224.5"/>
<text text-anchor="middle" x="323.86" y="-231.5" font-family="Helvetica,sans-Serif" font-size="10.00">lo.h</text>
</a>
</g>
</g>
<!-- Node7&#45;&gt;Node8 -->
<g id="edge8" class="edge">
<title>Node7&#45;&gt;Node8</title>
<path fill="none" stroke="midnightblue" d="M384.29,-280.32C373.44,-272.18 356.98,-259.84 343.98,-250.09"/>
<polygon fill="midnightblue" stroke="midnightblue" points="345.74,-247.03 335.64,-243.83 341.54,-252.63 345.74,-247.03"/>
</g>
<!-- Node12 -->
<g id="node12" class="node">
<title>Node12</title>
<g id="a_node12"><a xlink:href="dl_8h.html" target="_top" xlink:title=" ">
<polygon fill="white" stroke="black" points="432.36,-168.5 432.36,-187.5 467.36,-187.5 467.36,-168.5 432.36,-168.5"/>
<text text-anchor="middle" x="449.86" y="-175.5" font-family="Helvetica,sans-Serif" font-size="10.00">dl.h</text>
</a>
</g>
</g>
<!-- Node7&#45;&gt;Node12 -->
<g id="edge25" class="edge">
<title>Node7&#45;&gt;Node12</title>
<path fill="none" stroke="midnightblue" d="M400.1,-280.37C408.93,-262.38 429.46,-220.55 441.21,-196.63"/>
<polygon fill="midnightblue" stroke="midnightblue" points="444.38,-198.11 445.64,-187.59 438.09,-195.03 444.38,-198.11"/>
</g>
<!-- Node8&#45;&gt;Node2 -->
<g id="edge9" class="edge">
<title>Node8&#45;&gt;Node2</title>
<path fill="none" stroke="midnightblue" d="M306.92,-224.36C280.21,-209.63 229.36,-176.86 209.86,-132 200.23,-109.85 224.42,-91.6 246.56,-80.14"/>
<polygon fill="midnightblue" stroke="midnightblue" points="248.35,-83.16 255.83,-75.65 245.3,-76.86 248.35,-83.16"/>
</g>
<!-- Node9 -->
<g id="node9" class="node">
<title>Node9</title>
<g id="a_node9"><a xlink:href="oid_8h.html" target="_top" xlink:title="Object IDs.">
<polygon fill="white" stroke="black" points="417.36,-112.5 417.36,-131.5 458.36,-131.5 458.36,-112.5 417.36,-112.5"/>
<text text-anchor="middle" x="437.86" y="-119.5" font-family="Helvetica,sans-Serif" font-size="10.00">oid.h</text>
</a>
</g>
</g>
<!-- Node8&#45;&gt;Node9 -->
<g id="edge10" class="edge">
<title>Node8&#45;&gt;Node9</title>
<path fill="none" stroke="midnightblue" d="M336.95,-224.5C349.59,-216 368.95,-202.18 383.86,-188 399.73,-172.9 415.45,-153.31 425.81,-139.59"/>
<polygon fill="midnightblue" stroke="midnightblue" points="428.63,-141.66 431.78,-131.54 423.01,-137.49 428.63,-141.66"/>
</g>
<!-- Node10 -->
<g id="node10" class="node">
<title>Node10</title>
<g id="a_node10"><a xlink:href="basic_8h.html" target="_top" xlink:title="Basic object.">
<polygon fill="white" stroke="black" points="111.36,-168.5 111.36,-187.5 162.36,-187.5 162.36,-168.5 111.36,-168.5"/>
<text text-anchor="middle" x="136.86" y="-175.5" font-family="Helvetica,sans-Serif" font-size="10.00">basic.h</text>
</a>
</g>
</g>
<!-- Node8&#45;&gt;Node10 -->
<g id="edge12" class="edge">
<title>Node8&#45;&gt;Node10</title>
<path fill="none" stroke="midnightblue" d="M306.27,-227.92C275.67,-219.09 212.12,-200.73 172.15,-189.19"/>
<polygon fill="midnightblue" stroke="midnightblue" points="173.11,-185.82 162.53,-186.41 171.16,-192.55 173.11,-185.82"/>
</g>
<!-- Node8&#45;&gt;Node12 -->
<g id="edge16" class="edge">
<title>Node8&#45;&gt;Node12</title>
<path fill="none" stroke="midnightblue" d="M341.38,-225.49C362.42,-216.47 397.95,-201.25 422.58,-190.69"/>
<polygon fill="midnightblue" stroke="midnightblue" points="424.27,-193.78 432.08,-186.62 421.51,-187.34 424.27,-193.78"/>
</g>
<!-- Node13 -->
<g id="node13" class="node">
<title>Node13</title>
<g id="a_node13"><a xlink:href="sw_8h.html" target="_top" xlink:title="Scene world?">
<polygon fill="white" stroke="black" points="218.86,-112.5 218.86,-131.5 256.86,-131.5 256.86,-112.5 218.86,-112.5"/>
<text text-anchor="middle" x="237.86" y="-119.5" font-family="Helvetica,sans-Serif" font-size="10.00">sw.h</text>
</a>
</g>
</g>
<!-- Node8&#45;&gt;Node13 -->
<g id="edge19" class="edge">
<title>Node8&#45;&gt;Node13</title>
<path fill="none" stroke="midnightblue" d="M317.11,-224.37C302.86,-206.14 269.46,-163.43 250.9,-139.68"/>
<polygon fill="midnightblue" stroke="midnightblue" points="253.49,-137.31 244.58,-131.59 247.98,-141.63 253.49,-137.31"/>
</g>
<!-- Node14 -->
<g id="node14" class="node">
<title>Node14</title>
<g id="a_node14"><a xlink:href="frame_8h.html" target="_top" xlink:title=" ">
<polygon fill="white" stroke="black" points="274.86,-112.5 274.86,-131.5 360.86,-131.5 360.86,-112.5 274.86,-112.5"/>
<text text-anchor="middle" x="317.86" y="-119.5" font-family="Helvetica,sans-Serif" font-size="10.00">splice/frame.h</text>
</a>
</g>
</g>
<!-- Node8&#45;&gt;Node14 -->
<g id="edge21" class="edge">
<title>Node8&#45;&gt;Node14</title>
<path fill="none" stroke="midnightblue" d="M323.39,-224.37C322.42,-206.62 320.19,-165.67 318.87,-141.6"/>
<polygon fill="midnightblue" stroke="midnightblue" points="322.37,-141.39 318.33,-131.59 315.38,-141.77 322.37,-141.39"/>
</g>
<!-- Node15 -->
<g id="node15" class="node">
<title>Node15</title>
<g id="a_node15"><a xlink:href="mq_8h.html" target="_top" xlink:title="Message queue(?).">
<polygon fill="white" stroke="black" points="334.36,-168.5 334.36,-187.5 375.36,-187.5 375.36,-168.5 334.36,-168.5"/>
<text text-anchor="middle" x="354.86" y="-175.5" font-family="Helvetica,sans-Serif" font-size="10.00">mq.h</text>
</a>
</g>
</g>
<!-- Node8&#45;&gt;Node15 -->
<g id="edge23" class="edge">
<title>Node8&#45;&gt;Node15</title>
<path fill="none" stroke="midnightblue" d="M328.98,-224.08C333.27,-216.61 339.52,-205.72 344.8,-196.52"/>
<polygon fill="midnightblue" stroke="midnightblue" points="347.89,-198.17 349.84,-187.75 341.82,-194.68 347.89,-198.17"/>
</g>
<!-- Node9&#45;&gt;Node2 -->
<g id="edge11" class="edge">
<title>Node9&#45;&gt;Node2</title>
<path fill="none" stroke="midnightblue" d="M417.27,-114.05C390.92,-105.16 344.87,-89.61 312.94,-78.84"/>
<polygon fill="midnightblue" stroke="midnightblue" points="313.71,-75.4 303.11,-75.52 311.47,-82.04 313.71,-75.4"/>
</g>
<!-- Node10&#45;&gt;Node2 -->
<g id="edge13" class="edge">
<title>Node10&#45;&gt;Node2</title>
<path fill="none" stroke="midnightblue" d="M140.22,-168.28C145.88,-154.61 158.52,-128.06 176.86,-112 194.03,-96.96 217.04,-86.19 236.76,-78.96"/>
<polygon fill="midnightblue" stroke="midnightblue" points="238.14,-82.18 246.43,-75.59 235.84,-75.57 238.14,-82.18"/>
</g>
<!-- Node11 -->
<g id="node11" class="node">
<title>Node11</title>
<g id="a_node11"><a xlink:href="sidebag_8h.html" target="_top" xlink:title="Sidebag for splice.">
<polygon fill="white" stroke="black" points="29.36,-112.5 29.36,-131.5 124.36,-131.5 124.36,-112.5 29.36,-112.5"/>
<text text-anchor="middle" x="76.86" y="-119.5" font-family="Helvetica,sans-Serif" font-size="10.00">splice/sidebag.h</text>
</a>
</g>
</g>
<!-- Node10&#45;&gt;Node11 -->
<g id="edge14" class="edge">
<title>Node10&#45;&gt;Node11</title>
<path fill="none" stroke="midnightblue" d="M127.22,-168.32C118.35,-160.34 104.98,-148.31 94.25,-138.65"/>
<polygon fill="midnightblue" stroke="midnightblue" points="96.45,-135.92 86.67,-131.83 91.77,-141.13 96.45,-135.92"/>
</g>
<!-- Node11&#45;&gt;Node2 -->
<g id="edge15" class="edge">
<title>Node11&#45;&gt;Node2</title>
<path fill="none" stroke="midnightblue" d="M108.71,-112.44C143.26,-103.16 198.54,-88.31 236.44,-78.13"/>
<polygon fill="midnightblue" stroke="midnightblue" points="237.41,-81.49 246.16,-75.52 235.59,-74.73 237.41,-81.49"/>
</g>
<!-- Node12&#45;&gt;Node2 -->
<g id="edge17" class="edge">
<title>Node12&#45;&gt;Node2</title>
<path fill="none" stroke="midnightblue" d="M456.29,-168.46C465.56,-155.05 480.16,-128.84 466.86,-112 449.16,-89.59 372.18,-77.14 322.09,-71.27"/>
<polygon fill="midnightblue" stroke="midnightblue" points="322.48,-67.8 312.15,-70.16 321.69,-74.75 322.48,-67.8"/>
</g>
<!-- Node12&#45;&gt;Node9 -->
<g id="edge18" class="edge">
<title>Node12&#45;&gt;Node9</title>
<path fill="none" stroke="midnightblue" d="M447.88,-168.08C446.29,-160.93 444,-150.64 442.01,-141.69"/>
<polygon fill="midnightblue" stroke="midnightblue" points="445.39,-140.75 439.8,-131.75 438.56,-142.27 445.39,-140.75"/>
</g>
<!-- Node13&#45;&gt;Node2 -->
<g id="edge20" class="edge">
<title>Node13&#45;&gt;Node2</title>
<path fill="none" stroke="midnightblue" d="M244.46,-112.08C250.11,-104.46 258.4,-93.26 265.31,-83.94"/>
<polygon fill="midnightblue" stroke="midnightblue" points="268.24,-85.87 271.38,-75.75 262.61,-81.7 268.24,-85.87"/>
</g>
<!-- Node14&#45;&gt;Node2 -->
<g id="edge22" class="edge">
<title>Node14&#45;&gt;Node2</title>
<path fill="none" stroke="midnightblue" d="M311.25,-112.08C305.6,-104.46 297.31,-93.26 290.41,-83.94"/>
<polygon fill="midnightblue" stroke="midnightblue" points="293.11,-81.7 284.34,-75.75 287.48,-85.87 293.11,-81.7"/>
</g>
<!-- Node15&#45;&gt;Node2 -->
<g id="edge24" class="edge">
<title>Node15&#45;&gt;Node2</title>
<path fill="none" stroke="midnightblue" d="M360.69,-168.33C368.73,-155.19 381.02,-129.88 369.86,-112 359.17,-94.87 339.85,-84.08 321.67,-77.38"/>
<polygon fill="midnightblue" stroke="midnightblue" points="322.63,-74.01 312.03,-74.15 320.4,-80.64 322.63,-74.01"/>
</g>
</g>
</svg>
