<?xml version="1.0" encoding="UTF-8" standalone="no"?>
<!DOCTYPE svg PUBLIC "-//W3C//DTD SVG 1.1//EN"
 "http://www.w3.org/Graphics/SVG/1.1/DTD/svg11.dtd">
<!-- Generated by graphviz version 2.43.0 (0)
 -->
<!-- Title: include/proxy.h Pages: 1 -->
<svg width="371pt" height="252pt"
 viewBox="0.00 0.00 371.00 252.00" xmlns="http://www.w3.org/2000/svg" xmlns:xlink="http://www.w3.org/1999/xlink">
<g id="graph0" class="graph" transform="scale(1 1) rotate(0) translate(4 248)">
<title>include/proxy.h</title>
<polygon fill="white" stroke="transparent" points="-4,4 -4,-248 367,-248 367,4 -4,4"/>
<!-- Node1 -->
<g id="node1" class="node">
<title>Node1</title>
<g id="a_node1"><a xlink:title=" ">
<polygon fill="#bfbfbf" stroke="black" points="22.5,-224.5 22.5,-243.5 112.5,-243.5 112.5,-224.5 22.5,-224.5"/>
<text text-anchor="middle" x="67.5" y="-231.5" font-family="Helvetica,sans-Serif" font-size="10.00">include/proxy.h</text>
</a>
</g>
</g>
<!-- Node2 -->
<g id="node2" class="node">
<title>Node2</title>
<g id="a_node2"><a xlink:href="alo_8h.html" target="_top" xlink:title=" ">
<polygon fill="white" stroke="black" points="47,-168.5 47,-187.5 88,-187.5 88,-168.5 47,-168.5"/>
<text text-anchor="middle" x="67.5" y="-175.5" font-family="Helvetica,sans-Serif" font-size="10.00">alo.h</text>
</a>
</g>
</g>
<!-- Node1&#45;&gt;Node2 -->
<g id="edge1" class="edge">
<title>Node1&#45;&gt;Node2</title>
<path fill="none" stroke="midnightblue" d="M67.5,-224.08C67.5,-217.01 67.5,-206.86 67.5,-197.99"/>
<polygon fill="midnightblue" stroke="midnightblue" points="71,-197.75 67.5,-187.75 64,-197.75 71,-197.75"/>
</g>
<!-- Node3 -->
<g id="node3" class="node">
<title>Node3</title>
<g id="a_node3"><a xlink:href="lo_8h.html" target="_top" xlink:title="Level objects.">
<polygon fill="white" stroke="black" points="100,-112.5 100,-131.5 135,-131.5 135,-112.5 100,-112.5"/>
<text text-anchor="middle" x="117.5" y="-119.5" font-family="Helvetica,sans-Serif" font-size="10.00">lo.h</text>
</a>
</g>
</g>
<!-- Node2&#45;&gt;Node3 -->
<g id="edge2" class="edge">
<title>Node2&#45;&gt;Node3</title>
<path fill="none" stroke="midnightblue" d="M75.76,-168.08C82.96,-160.3 93.61,-148.8 102.35,-139.37"/>
<polygon fill="midnightblue" stroke="midnightblue" points="105.17,-141.47 109.4,-131.75 100.03,-136.71 105.17,-141.47"/>
</g>
<!-- Node7 -->
<g id="node7" class="node">
<title>Node7</title>
<g id="a_node7"><a xlink:href="dl_8h.html" target="_top" xlink:title="Doubly&#45;linked list.">
<polygon fill="white" stroke="black" points="0,-56.5 0,-75.5 35,-75.5 35,-56.5 0,-56.5"/>
<text text-anchor="middle" x="17.5" y="-63.5" font-family="Helvetica,sans-Serif" font-size="10.00">dl.h</text>
</a>
</g>
</g>
<!-- Node2&#45;&gt;Node7 -->
<g id="edge11" class="edge">
<title>Node2&#45;&gt;Node7</title>
<path fill="none" stroke="midnightblue" d="M63.58,-168.37C55.43,-150.46 36.56,-108.92 25.66,-84.95"/>
<polygon fill="midnightblue" stroke="midnightblue" points="28.73,-83.25 21.41,-75.59 22.36,-86.14 28.73,-83.25"/>
</g>
<!-- Node4 -->
<g id="node4" class="node">
<title>Node4</title>
<g id="a_node4"><a xlink:href="oid_8h.html" target="_top" xlink:title="Object IDs.">
<polygon fill="white" stroke="black" points="4,-0.5 4,-19.5 45,-19.5 45,-0.5 4,-0.5"/>
<text text-anchor="middle" x="24.5" y="-7.5" font-family="Helvetica,sans-Serif" font-size="10.00">oid.h</text>
</a>
</g>
</g>
<!-- Node3&#45;&gt;Node4 -->
<g id="edge3" class="edge">
<title>Node3&#45;&gt;Node4</title>
<path fill="none" stroke="midnightblue" d="M110.2,-112.37C94.72,-94.05 58.36,-51.05 38.33,-27.36"/>
<polygon fill="midnightblue" stroke="midnightblue" points="40.89,-24.97 31.76,-19.59 35.55,-29.49 40.89,-24.97"/>
</g>
<!-- Node5 -->
<g id="node5" class="node">
<title>Node5</title>
<g id="a_node5"><a xlink:href="basic_8h.html" target="_top" xlink:title="Basic object.">
<polygon fill="white" stroke="black" points="92,-56.5 92,-75.5 143,-75.5 143,-56.5 92,-56.5"/>
<text text-anchor="middle" x="117.5" y="-63.5" font-family="Helvetica,sans-Serif" font-size="10.00">basic.h</text>
</a>
</g>
</g>
<!-- Node3&#45;&gt;Node5 -->
<g id="edge4" class="edge">
<title>Node3&#45;&gt;Node5</title>
<path fill="none" stroke="midnightblue" d="M117.5,-112.08C117.5,-105.01 117.5,-94.86 117.5,-85.99"/>
<polygon fill="midnightblue" stroke="midnightblue" points="121,-85.75 117.5,-75.75 114,-85.75 121,-85.75"/>
</g>
<!-- Node3&#45;&gt;Node7 -->
<g id="edge6" class="edge">
<title>Node3&#45;&gt;Node7</title>
<path fill="none" stroke="midnightblue" d="M101.43,-112.32C85.54,-103.74 60.99,-90.49 42.54,-80.52"/>
<polygon fill="midnightblue" stroke="midnightblue" points="43.99,-77.33 33.53,-75.65 40.66,-83.49 43.99,-77.33"/>
</g>
<!-- Node8 -->
<g id="node8" class="node">
<title>Node8</title>
<g id="a_node8"><a xlink:href="sw_8h.html" target="_top" xlink:title="Scene world?">
<polygon fill="white" stroke="black" points="161.5,-56.5 161.5,-75.5 199.5,-75.5 199.5,-56.5 161.5,-56.5"/>
<text text-anchor="middle" x="180.5" y="-63.5" font-family="Helvetica,sans-Serif" font-size="10.00">sw.h</text>
</a>
</g>
</g>
<!-- Node3&#45;&gt;Node8 -->
<g id="edge8" class="edge">
<title>Node3&#45;&gt;Node8</title>
<path fill="none" stroke="midnightblue" d="M127.62,-112.32C137.03,-104.26 151.24,-92.08 162.57,-82.37"/>
<polygon fill="midnightblue" stroke="midnightblue" points="164.88,-85 170.19,-75.83 160.32,-79.68 164.88,-85"/>
</g>
<!-- Node9 -->
<g id="node9" class="node">
<title>Node9</title>
<g id="a_node9"><a xlink:href="frame_8h.html" target="_top" xlink:title=" ">
<polygon fill="white" stroke="black" points="217.5,-56.5 217.5,-75.5 303.5,-75.5 303.5,-56.5 217.5,-56.5"/>
<text text-anchor="middle" x="260.5" y="-63.5" font-family="Helvetica,sans-Serif" font-size="10.00">splice/frame.h</text>
</a>
</g>
</g>
<!-- Node3&#45;&gt;Node9 -->
<g id="edge9" class="edge">
<title>Node3&#45;&gt;Node9</title>
<path fill="none" stroke="midnightblue" d="M135.03,-114.38C158.12,-105.66 199.14,-90.17 227.98,-79.28"/>
<polygon fill="midnightblue" stroke="midnightblue" points="229.5,-82.45 237.62,-75.64 227.03,-75.9 229.5,-82.45"/>
</g>
<!-- Node10 -->
<g id="node10" class="node">
<title>Node10</title>
<g id="a_node10"><a xlink:href="mq_8h.html" target="_top" xlink:title="Message queue.">
<polygon fill="white" stroke="black" points="322,-56.5 322,-75.5 363,-75.5 363,-56.5 322,-56.5"/>
<text text-anchor="middle" x="342.5" y="-63.5" font-family="Helvetica,sans-Serif" font-size="10.00">mq.h</text>
</a>
</g>
</g>
<!-- Node3&#45;&gt;Node10 -->
<g id="edge10" class="edge">
<title>Node3&#45;&gt;Node10</title>
<path fill="none" stroke="midnightblue" d="M135.07,-117.34C167.82,-110.45 240.58,-94.73 311.85,-76.03"/>
<polygon fill="midnightblue" stroke="midnightblue" points="313.12,-79.31 321.89,-73.37 311.33,-72.55 313.12,-79.31"/>
</g>
<!-- Node6 -->
<g id="node6" class="node">
<title>Node6</title>
<g id="a_node6"><a xlink:href="sidebag_8h.html" target="_top" xlink:title="Sidebag for splice.">
<polygon fill="white" stroke="black" points="70,-0.5 70,-19.5 165,-19.5 165,-0.5 70,-0.5"/>
<text text-anchor="middle" x="117.5" y="-7.5" font-family="Helvetica,sans-Serif" font-size="10.00">splice/sidebag.h</text>
</a>
</g>
</g>
<!-- Node5&#45;&gt;Node6 -->
<g id="edge5" class="edge">
<title>Node5&#45;&gt;Node6</title>
<path fill="none" stroke="midnightblue" d="M117.5,-56.08C117.5,-49.01 117.5,-38.86 117.5,-29.99"/>
<polygon fill="midnightblue" stroke="midnightblue" points="121,-29.75 117.5,-19.75 114,-29.75 121,-29.75"/>
</g>
<!-- Node7&#45;&gt;Node4 -->
<g id="edge7" class="edge">
<title>Node7&#45;&gt;Node4</title>
<path fill="none" stroke="midnightblue" d="M18.66,-56.08C19.58,-48.93 20.92,-38.64 22.08,-29.69"/>
<polygon fill="midnightblue" stroke="midnightblue" points="25.55,-30.12 23.37,-19.75 18.61,-29.22 25.55,-30.12"/>
</g>
</g>
</svg>
