<?xml version="1.0" encoding="UTF-8" standalone="no"?>
<!DOCTYPE svg PUBLIC "-//W3C//DTD SVG 1.1//EN"
 "http://www.w3.org/Graphics/SVG/1.1/DTD/svg11.dtd">
<!-- Generated by graphviz version 2.43.0 (0)
 -->
<!-- Title: include/splice/ref.h Pages: 1 -->
<svg width="930pt" height="532pt"
 viewBox="0.00 0.00 930.00 532.00" xmlns="http://www.w3.org/2000/svg" xmlns:xlink="http://www.w3.org/1999/xlink">
<g id="graph0" class="graph" transform="scale(1 1) rotate(0) translate(4 528)">
<title>include/splice/ref.h</title>
<polygon fill="white" stroke="transparent" points="-4,4 -4,-528 926,-528 926,4 -4,4"/>
<!-- Node1 -->
<g id="node1" class="node">
<title>Node1</title>
<g id="a_node1"><a xlink:title=" ">
<polygon fill="#bfbfbf" stroke="black" points="145,-504.5 145,-523.5 253,-523.5 253,-504.5 145,-504.5"/>
<text text-anchor="middle" x="199" y="-511.5" font-family="Helvetica,sans-Serif" font-size="10.00">include/splice/ref.h</text>
</a>
</g>
</g>
<!-- Node2 -->
<g id="node2" class="node">
<title>Node2</title>
<g id="a_node2"><a xlink:href="common_8h.html" target="_top" xlink:title="Common header file.">
<polygon fill="white" stroke="black" points="478,-56.5 478,-75.5 546,-75.5 546,-56.5 478,-56.5"/>
<text text-anchor="middle" x="512" y="-63.5" font-family="Helvetica,sans-Serif" font-size="10.00">common.h</text>
</a>
</g>
</g>
<!-- Node1&#45;&gt;Node2 -->
<g id="edge1" class="edge">
<title>Node1&#45;&gt;Node2</title>
<path fill="none" stroke="midnightblue" d="M144.89,-506.5C85.96,-496.05 0,-469.42 0,-403 0,-403 0,-403 0,-177 0,-81.81 342.56,-68.75 467.28,-67.15"/>
<polygon fill="midnightblue" stroke="midnightblue" points="467.65,-70.64 477.61,-67.03 467.57,-63.64 467.65,-70.64"/>
</g>
<!-- Node6 -->
<g id="node6" class="node">
<title>Node6</title>
<g id="a_node6"><a xlink:href="pair_8h.html" target="_top" xlink:title=" ">
<polygon fill="white" stroke="black" points="28.5,-224.5 28.5,-243.5 103.5,-243.5 103.5,-224.5 28.5,-224.5"/>
<text text-anchor="middle" x="66" y="-231.5" font-family="Helvetica,sans-Serif" font-size="10.00">splice/pair.h</text>
</a>
</g>
</g>
<!-- Node1&#45;&gt;Node6 -->
<g id="edge5" class="edge">
<title>Node1&#45;&gt;Node6</title>
<path fill="none" stroke="midnightblue" d="M171.88,-504.47C132.73,-490.27 65,-457.78 65,-403 65,-403 65,-403 65,-345 65,-312.95 65.43,-275.64 65.73,-253.75"/>
<polygon fill="midnightblue" stroke="midnightblue" points="69.23,-253.61 65.87,-243.56 62.23,-253.51 69.23,-253.61"/>
</g>
<!-- Node7 -->
<g id="node7" class="node">
<title>Node7</title>
<g id="a_node7"><a xlink:href="proc_8h.html" target="_top" xlink:title=" ">
<polygon fill="white" stroke="black" points="93,-392.5 93,-411.5 171,-411.5 171,-392.5 93,-392.5"/>
<text text-anchor="middle" x="132" y="-399.5" font-family="Helvetica,sans-Serif" font-size="10.00">splice/proc.h</text>
</a>
</g>
</g>
<!-- Node1&#45;&gt;Node7 -->
<g id="edge7" class="edge">
<title>Node1&#45;&gt;Node7</title>
<path fill="none" stroke="midnightblue" d="M193.74,-504.37C182.73,-486.3 157.08,-444.18 142.54,-420.31"/>
<polygon fill="midnightblue" stroke="midnightblue" points="145.42,-418.31 137.23,-411.59 139.45,-421.95 145.42,-418.31"/>
</g>
<!-- Node8 -->
<g id="node8" class="node">
<title>Node8</title>
<g id="a_node8"><a xlink:href="method_8h.html" target="_top" xlink:title=" ">
<polygon fill="white" stroke="black" points="160.5,-336.5 160.5,-355.5 255.5,-355.5 255.5,-336.5 160.5,-336.5"/>
<text text-anchor="middle" x="208" y="-343.5" font-family="Helvetica,sans-Serif" font-size="10.00">splice/method.h</text>
</a>
</g>
</g>
<!-- Node1&#45;&gt;Node8 -->
<g id="edge9" class="edge">
<title>Node1&#45;&gt;Node8</title>
<path fill="none" stroke="midnightblue" d="M199.48,-504.08C200.9,-477.95 205.06,-401.21 206.99,-365.58"/>
<polygon fill="midnightblue" stroke="midnightblue" points="210.49,-365.74 207.54,-355.57 203.5,-365.36 210.49,-365.74"/>
</g>
<!-- Node9 -->
<g id="node9" class="node">
<title>Node9</title>
<g id="a_node9"><a xlink:href="bif_8h.html" target="_top" xlink:title=" ">
<polygon fill="white" stroke="black" points="227.5,-448.5 227.5,-467.5 296.5,-467.5 296.5,-448.5 227.5,-448.5"/>
<text text-anchor="middle" x="262" y="-455.5" font-family="Helvetica,sans-Serif" font-size="10.00">splice/bif.h</text>
</a>
</g>
</g>
<!-- Node1&#45;&gt;Node9 -->
<g id="edge11" class="edge">
<title>Node1&#45;&gt;Node9</title>
<path fill="none" stroke="midnightblue" d="M209.12,-504.32C218.53,-496.26 232.74,-484.08 244.07,-474.37"/>
<polygon fill="midnightblue" stroke="midnightblue" points="246.38,-477 251.69,-467.83 241.82,-471.68 246.38,-477"/>
</g>
<!-- Node10 -->
<g id="node10" class="node">
<title>Node10</title>
<g id="a_node10"><a xlink:href="basic_8h.html" target="_top" xlink:title="Basic object.">
<polygon fill="white" stroke="black" points="387.5,-168.5 387.5,-187.5 438.5,-187.5 438.5,-168.5 387.5,-168.5"/>
<text text-anchor="middle" x="413" y="-175.5" font-family="Helvetica,sans-Serif" font-size="10.00">basic.h</text>
</a>
</g>
</g>
<!-- Node1&#45;&gt;Node10 -->
<g id="edge13" class="edge">
<title>Node1&#45;&gt;Node10</title>
<path fill="none" stroke="midnightblue" d="M240.19,-504.44C262.19,-497.9 288.13,-486.71 305,-468 325.24,-445.56 325,-433.23 325,-403 325,-403 325,-403 325,-289 325,-247.03 364.54,-211.9 390.61,-193.3"/>
<polygon fill="midnightblue" stroke="midnightblue" points="392.6,-196.18 398.86,-187.64 388.64,-190.41 392.6,-196.18"/>
</g>
<!-- Node12 -->
<g id="node12" class="node">
<title>Node12</title>
<g id="a_node12"><a xlink:href="util_8h.html" target="_top" xlink:title="Utility functions.">
<polygon fill="white" stroke="black" points="697.5,-448.5 697.5,-467.5 738.5,-467.5 738.5,-448.5 697.5,-448.5"/>
<text text-anchor="middle" x="718" y="-455.5" font-family="Helvetica,sans-Serif" font-size="10.00">util.h</text>
</a>
</g>
</g>
<!-- Node1&#45;&gt;Node12 -->
<g id="edge17" class="edge">
<title>Node1&#45;&gt;Node12</title>
<path fill="none" stroke="midnightblue" d="M253.07,-507.37C361.38,-496.11 601.83,-471.09 687.2,-462.2"/>
<polygon fill="midnightblue" stroke="midnightblue" points="687.7,-465.67 697.28,-461.16 686.97,-458.71 687.7,-465.67"/>
</g>
<!-- Node3 -->
<g id="node3" class="node">
<title>Node3</title>
<g id="a_node3"><a xlink:href="include__asm_8h.html" target="_top" xlink:title=" ">
<polygon fill="white" stroke="black" points="357.5,-0.5 357.5,-19.5 444.5,-19.5 444.5,-0.5 357.5,-0.5"/>
<text text-anchor="middle" x="401" y="-7.5" font-family="Helvetica,sans-Serif" font-size="10.00">include_asm.h</text>
</a>
</g>
</g>
<!-- Node2&#45;&gt;Node3 -->
<g id="edge2" class="edge">
<title>Node2&#45;&gt;Node3</title>
<path fill="none" stroke="midnightblue" d="M494.17,-56.32C476.28,-47.62 448.52,-34.12 427.95,-24.11"/>
<polygon fill="midnightblue" stroke="midnightblue" points="429.31,-20.88 418.79,-19.65 426.25,-27.18 429.31,-20.88"/>
</g>
<!-- Node4 -->
<g id="node4" class="node">
<title>Node4</title>
<g id="a_node4"><a xlink:href="include__rodata_8h.html" target="_top" xlink:title=" ">
<polygon fill="white" stroke="black" points="463,-0.5 463,-19.5 561,-19.5 561,-0.5 463,-0.5"/>
<text text-anchor="middle" x="512" y="-7.5" font-family="Helvetica,sans-Serif" font-size="10.00">include_rodata.h</text>
</a>
</g>
</g>
<!-- Node2&#45;&gt;Node4 -->
<g id="edge3" class="edge">
<title>Node2&#45;&gt;Node4</title>
<path fill="none" stroke="midnightblue" d="M512,-56.08C512,-49.01 512,-38.86 512,-29.99"/>
<polygon fill="midnightblue" stroke="midnightblue" points="515.5,-29.75 512,-19.75 508.5,-29.75 515.5,-29.75"/>
</g>
<!-- Node5 -->
<g id="node5" class="node">
<title>Node5</title>
<g id="a_node5"><a xlink:href="types_8h.html" target="_top" xlink:title="Types used throughout the engine.">
<polygon fill="white" stroke="black" points="579.5,-0.5 579.5,-19.5 632.5,-19.5 632.5,-0.5 579.5,-0.5"/>
<text text-anchor="middle" x="606" y="-7.5" font-family="Helvetica,sans-Serif" font-size="10.00">types.h</text>
</a>
</g>
</g>
<!-- Node2&#45;&gt;Node5 -->
<g id="edge4" class="edge">
<title>Node2&#45;&gt;Node5</title>
<path fill="none" stroke="midnightblue" d="M527.1,-56.32C541.9,-47.82 564.69,-34.73 581.98,-24.8"/>
<polygon fill="midnightblue" stroke="midnightblue" points="584.01,-27.67 590.93,-19.65 580.52,-21.6 584.01,-27.67"/>
</g>
<!-- Node6&#45;&gt;Node2 -->
<g id="edge6" class="edge">
<title>Node6&#45;&gt;Node2</title>
<path fill="none" stroke="midnightblue" d="M66.85,-224.17C69.56,-201.33 80.2,-140.1 118,-112 172.46,-71.51 376.72,-66.69 467.75,-66.62"/>
<polygon fill="midnightblue" stroke="midnightblue" points="467.75,-70.12 477.75,-66.63 467.75,-63.12 467.75,-70.12"/>
</g>
<!-- Node7&#45;&gt;Node2 -->
<g id="edge8" class="edge">
<title>Node7&#45;&gt;Node2</title>
<path fill="none" stroke="midnightblue" d="M132,-392.44C132,-373.94 132,-328.81 132,-291 132,-291 132,-291 132,-177 132,-107.76 367.69,-79.36 467.84,-70.41"/>
<polygon fill="midnightblue" stroke="midnightblue" points="468.28,-73.88 477.94,-69.53 467.68,-66.91 468.28,-73.88"/>
</g>
<!-- Node8&#45;&gt;Node2 -->
<g id="edge10" class="edge">
<title>Node8&#45;&gt;Node2</title>
<path fill="none" stroke="midnightblue" d="M210.56,-336.25C215.75,-317.74 227,-273.18 227,-235 227,-235 227,-235 227,-177 227,-142.36 241.12,-131.13 270,-112 301.83,-90.92 407.1,-77.34 467.8,-71.07"/>
<polygon fill="midnightblue" stroke="midnightblue" points="468.27,-74.54 477.87,-70.05 467.57,-67.57 468.27,-74.54"/>
</g>
<!-- Node9&#45;&gt;Node2 -->
<g id="edge12" class="edge">
<title>Node9&#45;&gt;Node2</title>
<path fill="none" stroke="midnightblue" d="M264.97,-448.28C270.97,-429.82 284,-385.37 284,-347 284,-347 284,-347 284,-177 284,-96.28 401.37,-74.76 467.69,-69.05"/>
<polygon fill="midnightblue" stroke="midnightblue" points="468.17,-72.52 477.87,-68.26 467.63,-65.54 468.17,-72.52"/>
</g>
<!-- Node10&#45;&gt;Node2 -->
<g id="edge14" class="edge">
<title>Node10&#45;&gt;Node2</title>
<path fill="none" stroke="midnightblue" d="M420.89,-168.4C429.16,-159.36 442.53,-144.72 454,-132 468.79,-115.6 485.58,-96.76 497.27,-83.6"/>
<polygon fill="midnightblue" stroke="midnightblue" points="500.13,-85.66 504.15,-75.86 494.89,-81.01 500.13,-85.66"/>
</g>
<!-- Node11 -->
<g id="node11" class="node">
<title>Node11</title>
<g id="a_node11"><a xlink:href="sidebag_8h.html" target="_top" xlink:title="Sidebag for splice.">
<polygon fill="white" stroke="black" points="350.5,-112.5 350.5,-131.5 445.5,-131.5 445.5,-112.5 350.5,-112.5"/>
<text text-anchor="middle" x="398" y="-119.5" font-family="Helvetica,sans-Serif" font-size="10.00">splice/sidebag.h</text>
</a>
</g>
</g>
<!-- Node10&#45;&gt;Node11 -->
<g id="edge15" class="edge">
<title>Node10&#45;&gt;Node11</title>
<path fill="none" stroke="midnightblue" d="M410.52,-168.08C408.51,-160.85 405.61,-150.41 403.11,-141.4"/>
<polygon fill="midnightblue" stroke="midnightblue" points="406.48,-140.45 400.43,-131.75 399.74,-142.32 406.48,-140.45"/>
</g>
<!-- Node11&#45;&gt;Node2 -->
<g id="edge16" class="edge">
<title>Node11&#45;&gt;Node2</title>
<path fill="none" stroke="midnightblue" d="M416.06,-112.44C434.57,-103.68 463.58,-89.94 484.86,-79.86"/>
<polygon fill="midnightblue" stroke="midnightblue" points="486.48,-82.96 494.02,-75.52 483.49,-76.63 486.48,-82.96"/>
</g>
<!-- Node12&#45;&gt;Node2 -->
<g id="edge18" class="edge">
<title>Node12&#45;&gt;Node2</title>
<path fill="none" stroke="midnightblue" d="M738.68,-455.5C790.55,-450.5 922,-429.69 922,-347 922,-347 922,-347 922,-177 922,-138.28 898.26,-130.04 864,-112 811.46,-84.33 638.48,-72.82 556.22,-68.82"/>
<polygon fill="midnightblue" stroke="midnightblue" points="556.33,-65.32 546.18,-68.34 556,-72.31 556.33,-65.32"/>
</g>
<!-- Node13 -->
<g id="node13" class="node">
<title>Node13</title>
<g id="a_node13"><a xlink:href="mat_8h.html" target="_top" xlink:title="3x3 and 4x4 matrix types.">
<polygon fill="white" stroke="black" points="695.5,-392.5 695.5,-411.5 740.5,-411.5 740.5,-392.5 695.5,-392.5"/>
<text text-anchor="middle" x="718" y="-399.5" font-family="Helvetica,sans-Serif" font-size="10.00">mat.h</text>
</a>
</g>
</g>
<!-- Node12&#45;&gt;Node13 -->
<g id="edge19" class="edge">
<title>Node12&#45;&gt;Node13</title>
<path fill="none" stroke="midnightblue" d="M718,-448.08C718,-441.01 718,-430.86 718,-421.99"/>
<polygon fill="midnightblue" stroke="midnightblue" points="721.5,-421.75 718,-411.75 714.5,-421.75 721.5,-421.75"/>
</g>
<!-- Node14 -->
<g id="node14" class="node">
<title>Node14</title>
<g id="a_node14"><a xlink:href="vec_8h.html" target="_top" xlink:title="Vector math functions.">
<polygon fill="white" stroke="black" points="772.5,-392.5 772.5,-411.5 815.5,-411.5 815.5,-392.5 772.5,-392.5"/>
<text text-anchor="middle" x="794" y="-399.5" font-family="Helvetica,sans-Serif" font-size="10.00">vec.h</text>
</a>
</g>
</g>
<!-- Node12&#45;&gt;Node14 -->
<g id="edge20" class="edge">
<title>Node12&#45;&gt;Node14</title>
<path fill="none" stroke="midnightblue" d="M730.21,-448.32C741.78,-440.11 759.38,-427.6 773.16,-417.81"/>
<polygon fill="midnightblue" stroke="midnightblue" points="775.44,-420.48 781.57,-411.83 771.39,-414.77 775.44,-420.48"/>
</g>
<!-- Node23 -->
<g id="node23" class="node">
<title>Node23</title>
<g id="a_node23"><a xlink:href="sm_8h.html" target="_top" xlink:title="State machines.">
<polygon fill="white" stroke="black" points="605.5,-336.5 605.5,-355.5 646.5,-355.5 646.5,-336.5 605.5,-336.5"/>
<text text-anchor="middle" x="626" y="-343.5" font-family="Helvetica,sans-Serif" font-size="10.00">sm.h</text>
</a>
</g>
</g>
<!-- Node12&#45;&gt;Node23 -->
<g id="edge39" class="edge">
<title>Node12&#45;&gt;Node23</title>
<path fill="none" stroke="midnightblue" d="M710.78,-448.37C695.46,-430.05 659.5,-387.05 639.68,-363.36"/>
<polygon fill="midnightblue" stroke="midnightblue" points="642.29,-361.02 633.19,-355.59 636.92,-365.51 642.29,-361.02"/>
</g>
<!-- Node15 -->
<g id="node15" class="node">
<title>Node15</title>
<g id="a_node15"><a xlink:href="so_8h.html" target="_top" xlink:title="Scene objects.">
<polygon fill="white" stroke="black" points="782.5,-336.5 782.5,-355.5 819.5,-355.5 819.5,-336.5 782.5,-336.5"/>
<text text-anchor="middle" x="801" y="-343.5" font-family="Helvetica,sans-Serif" font-size="10.00">so.h</text>
</a>
</g>
</g>
<!-- Node14&#45;&gt;Node15 -->
<g id="edge21" class="edge">
<title>Node14&#45;&gt;Node15</title>
<path fill="none" stroke="midnightblue" d="M795.16,-392.08C796.08,-384.93 797.42,-374.64 798.58,-365.69"/>
<polygon fill="midnightblue" stroke="midnightblue" points="802.05,-366.12 799.87,-355.75 795.11,-365.22 802.05,-366.12"/>
</g>
<!-- Node16 -->
<g id="node16" class="node">
<title>Node16</title>
<g id="a_node16"><a xlink:href="alo_8h.html" target="_top" xlink:title=" ">
<polygon fill="white" stroke="black" points="783.5,-280.5 783.5,-299.5 824.5,-299.5 824.5,-280.5 783.5,-280.5"/>
<text text-anchor="middle" x="804" y="-287.5" font-family="Helvetica,sans-Serif" font-size="10.00">alo.h</text>
</a>
</g>
</g>
<!-- Node15&#45;&gt;Node16 -->
<g id="edge22" class="edge">
<title>Node15&#45;&gt;Node16</title>
<path fill="none" stroke="midnightblue" d="M801.5,-336.08C801.89,-329.01 802.45,-318.86 802.95,-309.99"/>
<polygon fill="midnightblue" stroke="midnightblue" points="806.45,-309.93 803.51,-299.75 799.46,-309.54 806.45,-309.93"/>
</g>
<!-- Node16&#45;&gt;Node2 -->
<g id="edge23" class="edge">
<title>Node16&#45;&gt;Node2</title>
<path fill="none" stroke="midnightblue" d="M810.46,-280.37C830.6,-252.35 888.36,-162.77 844,-112 807.19,-69.87 638.24,-65.65 556.52,-66.15"/>
<polygon fill="midnightblue" stroke="midnightblue" points="556.03,-62.65 546.06,-66.24 556.09,-69.65 556.03,-62.65"/>
</g>
<!-- Node17 -->
<g id="node17" class="node">
<title>Node17</title>
<g id="a_node17"><a xlink:href="lo_8h.html" target="_top" xlink:title="Level objects.">
<polygon fill="white" stroke="black" points="674.5,-224.5 674.5,-243.5 709.5,-243.5 709.5,-224.5 674.5,-224.5"/>
<text text-anchor="middle" x="692" y="-231.5" font-family="Helvetica,sans-Serif" font-size="10.00">lo.h</text>
</a>
</g>
</g>
<!-- Node16&#45;&gt;Node17 -->
<g id="edge24" class="edge">
<title>Node16&#45;&gt;Node17</title>
<path fill="none" stroke="midnightblue" d="M786.01,-280.32C767.86,-271.57 739.62,-257.96 718.83,-247.94"/>
<polygon fill="midnightblue" stroke="midnightblue" points="720.11,-244.67 709.58,-243.48 717.07,-250.97 720.11,-244.67"/>
</g>
<!-- Node19 -->
<g id="node19" class="node">
<title>Node19</title>
<g id="a_node19"><a xlink:href="dl_8h.html" target="_top" xlink:title=" ">
<polygon fill="white" stroke="black" points="796.5,-168.5 796.5,-187.5 831.5,-187.5 831.5,-168.5 796.5,-168.5"/>
<text text-anchor="middle" x="814" y="-175.5" font-family="Helvetica,sans-Serif" font-size="10.00">dl.h</text>
</a>
</g>
</g>
<!-- Node16&#45;&gt;Node19 -->
<g id="edge38" class="edge">
<title>Node16&#45;&gt;Node19</title>
<path fill="none" stroke="midnightblue" d="M804.78,-280.37C806.4,-262.62 810.12,-221.67 812.31,-197.6"/>
<polygon fill="midnightblue" stroke="midnightblue" points="815.8,-197.87 813.22,-187.59 808.83,-197.23 815.8,-197.87"/>
</g>
<!-- Node17&#45;&gt;Node2 -->
<g id="edge25" class="edge">
<title>Node17&#45;&gt;Node2</title>
<path fill="none" stroke="midnightblue" d="M693.49,-224.38C696.73,-202.57 701.97,-144.57 673,-112 643.94,-79.34 593.34,-69.53 556.61,-66.99"/>
<polygon fill="midnightblue" stroke="midnightblue" points="556.34,-63.47 546.17,-66.44 555.97,-70.46 556.34,-63.47"/>
</g>
<!-- Node17&#45;&gt;Node10 -->
<g id="edge28" class="edge">
<title>Node17&#45;&gt;Node10</title>
<path fill="none" stroke="midnightblue" d="M674.12,-229.54C628.85,-220.78 509.02,-197.58 448.72,-185.91"/>
<polygon fill="midnightblue" stroke="midnightblue" points="449.01,-182.41 438.53,-183.94 447.68,-189.28 449.01,-182.41"/>
</g>
<!-- Node18 -->
<g id="node18" class="node">
<title>Node18</title>
<g id="a_node18"><a xlink:href="oid_8h.html" target="_top" xlink:title="Object IDs.">
<polygon fill="white" stroke="black" points="776.5,-112.5 776.5,-131.5 817.5,-131.5 817.5,-112.5 776.5,-112.5"/>
<text text-anchor="middle" x="797" y="-119.5" font-family="Helvetica,sans-Serif" font-size="10.00">oid.h</text>
</a>
</g>
</g>
<!-- Node17&#45;&gt;Node18 -->
<g id="edge26" class="edge">
<title>Node17&#45;&gt;Node18</title>
<path fill="none" stroke="midnightblue" d="M700.24,-224.37C717.8,-205.97 759.13,-162.67 781.68,-139.05"/>
<polygon fill="midnightblue" stroke="midnightblue" points="784.43,-141.24 788.8,-131.59 779.36,-136.41 784.43,-141.24"/>
</g>
<!-- Node17&#45;&gt;Node19 -->
<g id="edge29" class="edge">
<title>Node17&#45;&gt;Node19</title>
<path fill="none" stroke="midnightblue" d="M709.74,-225.15C729.98,-216.19 763.31,-201.44 786.83,-191.03"/>
<polygon fill="midnightblue" stroke="midnightblue" points="788.51,-194.11 796.24,-186.86 785.68,-187.71 788.51,-194.11"/>
</g>
<!-- Node20 -->
<g id="node20" class="node">
<title>Node20</title>
<g id="a_node20"><a xlink:href="sw_8h.html" target="_top" xlink:title="Scene world?">
<polygon fill="white" stroke="black" points="720,-112.5 720,-131.5 758,-131.5 758,-112.5 720,-112.5"/>
<text text-anchor="middle" x="739" y="-119.5" font-family="Helvetica,sans-Serif" font-size="10.00">sw.h</text>
</a>
</g>
</g>
<!-- Node17&#45;&gt;Node20 -->
<g id="edge32" class="edge">
<title>Node17&#45;&gt;Node20</title>
<path fill="none" stroke="midnightblue" d="M695.69,-224.37C703.34,-206.46 721.09,-164.92 731.33,-140.95"/>
<polygon fill="midnightblue" stroke="midnightblue" points="734.62,-142.16 735.33,-131.59 728.18,-139.41 734.62,-142.16"/>
</g>
<!-- Node21 -->
<g id="node21" class="node">
<title>Node21</title>
<g id="a_node21"><a xlink:href="frame_8h.html" target="_top" xlink:title=" ">
<polygon fill="white" stroke="black" points="578,-112.5 578,-131.5 664,-131.5 664,-112.5 578,-112.5"/>
<text text-anchor="middle" x="621" y="-119.5" font-family="Helvetica,sans-Serif" font-size="10.00">splice/frame.h</text>
</a>
</g>
</g>
<!-- Node17&#45;&gt;Node21 -->
<g id="edge34" class="edge">
<title>Node17&#45;&gt;Node21</title>
<path fill="none" stroke="midnightblue" d="M686.43,-224.37C674.76,-206.3 647.58,-164.18 632.17,-140.31"/>
<polygon fill="midnightblue" stroke="midnightblue" points="634.91,-138.1 626.55,-131.59 629.03,-141.89 634.91,-138.1"/>
</g>
<!-- Node22 -->
<g id="node22" class="node">
<title>Node22</title>
<g id="a_node22"><a xlink:href="mq_8h.html" target="_top" xlink:title="Message queue(?).">
<polygon fill="white" stroke="black" points="584.5,-168.5 584.5,-187.5 625.5,-187.5 625.5,-168.5 584.5,-168.5"/>
<text text-anchor="middle" x="605" y="-175.5" font-family="Helvetica,sans-Serif" font-size="10.00">mq.h</text>
</a>
</g>
</g>
<!-- Node17&#45;&gt;Node22 -->
<g id="edge36" class="edge">
<title>Node17&#45;&gt;Node22</title>
<path fill="none" stroke="midnightblue" d="M678.02,-224.32C664.45,-215.9 643.62,-202.97 627.68,-193.07"/>
<polygon fill="midnightblue" stroke="midnightblue" points="629.29,-189.95 618.94,-187.65 625.59,-195.9 629.29,-189.95"/>
</g>
<!-- Node18&#45;&gt;Node2 -->
<g id="edge27" class="edge">
<title>Node18&#45;&gt;Node2</title>
<path fill="none" stroke="midnightblue" d="M776.43,-114.48C773.29,-113.59 770.07,-112.73 767,-112 693.75,-94.61 607.22,-80.72 556.12,-73.19"/>
<polygon fill="midnightblue" stroke="midnightblue" points="556.48,-69.7 546.08,-71.72 555.47,-76.63 556.48,-69.7"/>
</g>
<!-- Node19&#45;&gt;Node2 -->
<g id="edge30" class="edge">
<title>Node19&#45;&gt;Node2</title>
<path fill="none" stroke="midnightblue" d="M819.6,-168.25C827.58,-154.55 839.83,-127.95 826,-112 791.61,-72.33 634.23,-66.79 556.17,-66.55"/>
<polygon fill="midnightblue" stroke="midnightblue" points="556.15,-63.05 546.15,-66.54 556.15,-70.05 556.15,-63.05"/>
</g>
<!-- Node19&#45;&gt;Node18 -->
<g id="edge31" class="edge">
<title>Node19&#45;&gt;Node18</title>
<path fill="none" stroke="midnightblue" d="M811.19,-168.08C808.92,-160.85 805.63,-150.41 802.79,-141.4"/>
<polygon fill="midnightblue" stroke="midnightblue" points="806.1,-140.24 799.75,-131.75 799.42,-142.34 806.1,-140.24"/>
</g>
<!-- Node20&#45;&gt;Node2 -->
<g id="edge33" class="edge">
<title>Node20&#45;&gt;Node2</title>
<path fill="none" stroke="midnightblue" d="M719.84,-115.64C715.31,-114.41 710.49,-113.13 706,-112 654.65,-99.05 595.3,-85.49 555.9,-76.68"/>
<polygon fill="midnightblue" stroke="midnightblue" points="556.61,-73.25 546.09,-74.49 555.09,-80.08 556.61,-73.25"/>
</g>
<!-- Node21&#45;&gt;Node2 -->
<g id="edge35" class="edge">
<title>Node21&#45;&gt;Node2</title>
<path fill="none" stroke="midnightblue" d="M603.49,-112.32C585.93,-103.62 558.67,-90.12 538.47,-80.11"/>
<polygon fill="midnightblue" stroke="midnightblue" points="539.98,-76.96 529.47,-75.65 536.88,-83.23 539.98,-76.96"/>
</g>
<!-- Node22&#45;&gt;Node2 -->
<g id="edge37" class="edge">
<title>Node22&#45;&gt;Node2</title>
<path fill="none" stroke="midnightblue" d="M597.7,-168.37C582.22,-150.05 545.86,-107.05 525.83,-83.36"/>
<polygon fill="midnightblue" stroke="midnightblue" points="528.39,-80.97 519.26,-75.59 523.05,-85.49 528.39,-80.97"/>
</g>
<!-- Node23&#45;&gt;Node2 -->
<g id="edge40" class="edge">
<title>Node23&#45;&gt;Node2</title>
<path fill="none" stroke="midnightblue" d="M605.32,-338.87C546.2,-319.98 378.33,-256.23 341,-132 324.91,-78.45 411.81,-67.81 467.67,-66.39"/>
<polygon fill="midnightblue" stroke="midnightblue" points="467.76,-69.89 477.7,-66.22 467.65,-62.89 467.76,-69.89"/>
</g>
<!-- Node23&#45;&gt;Node19 -->
<g id="edge41" class="edge">
<title>Node23&#45;&gt;Node19</title>
<path fill="none" stroke="midnightblue" d="M635.84,-336.31C666.05,-309.64 757.7,-228.72 796.42,-194.52"/>
<polygon fill="midnightblue" stroke="midnightblue" points="799.07,-196.85 804.25,-187.61 794.44,-191.6 799.07,-196.85"/>
</g>
<!-- Node23&#45;&gt;Node22 -->
<g id="edge45" class="edge">
<title>Node23&#45;&gt;Node22</title>
<path fill="none" stroke="midnightblue" d="M624.87,-336.08C621.57,-309.95 611.86,-233.21 607.35,-197.58"/>
<polygon fill="midnightblue" stroke="midnightblue" points="610.81,-197.05 606.08,-187.57 603.87,-197.93 610.81,-197.05"/>
</g>
<!-- Node24 -->
<g id="node24" class="node">
<title>Node24</title>
<g id="a_node24"><a xlink:href="anim_8h.html" target="_top" xlink:title="Animation.">
<polygon fill="white" stroke="black" points="548,-280.5 548,-299.5 598,-299.5 598,-280.5 548,-280.5"/>
<text text-anchor="middle" x="573" y="-287.5" font-family="Helvetica,sans-Serif" font-size="10.00">anim.h</text>
</a>
</g>
</g>
<!-- Node23&#45;&gt;Node24 -->
<g id="edge42" class="edge">
<title>Node23&#45;&gt;Node24</title>
<path fill="none" stroke="midnightblue" d="M617.25,-336.08C609.53,-328.22 598.1,-316.57 588.78,-307.08"/>
<polygon fill="midnightblue" stroke="midnightblue" points="591.09,-304.44 581.59,-299.75 586.1,-309.34 591.09,-304.44"/>
</g>
<!-- Node24&#45;&gt;Node2 -->
<g id="edge43" class="edge">
<title>Node24&#45;&gt;Node2</title>
<path fill="none" stroke="midnightblue" d="M570.61,-280.3C561.61,-247.56 529.69,-131.38 517.13,-85.67"/>
<polygon fill="midnightblue" stroke="midnightblue" points="520.47,-84.6 514.44,-75.88 513.72,-86.45 520.47,-84.6"/>
</g>
<!-- Node24&#45;&gt;Node17 -->
<g id="edge44" class="edge">
<title>Node24&#45;&gt;Node17</title>
<path fill="none" stroke="midnightblue" d="M591.86,-280.44C611.61,-271.48 642.81,-257.32 665.13,-247.19"/>
<polygon fill="midnightblue" stroke="midnightblue" points="666.74,-250.31 674.4,-242.99 663.84,-243.93 666.74,-250.31"/>
</g>
</g>
</svg>
