<?xml version="1.0" encoding="UTF-8" standalone="no"?>
<!DOCTYPE svg PUBLIC "-//W3C//DTD SVG 1.1//EN"
 "http://www.w3.org/Graphics/SVG/1.1/DTD/svg11.dtd">
<!-- Generated by graphviz version 2.43.0 (0)
 -->
<!-- Title: src/P2/splice/ref.cpp Pages: 1 -->
<!--zoomable 588 -->
<svg id="main" version="1.1" xmlns="http://www.w3.org/2000/svg" xmlns:xlink="http://www.w3.org/1999/xlink" xml:space="preserve" onload="init(evt)">
<style type="text/css"><![CDATA[
.edge:hover path { stroke: red; }
.edge:hover polygon { stroke: red; fill: red; }
]]></style>
<script type="text/javascript"><![CDATA[
var edges = document.getElementsByTagName('g');
if (edges && edges.length) {
  for (var i=0;i<edges.length;i++) {
    if (edges[i].id.substr(0,4)=='edge') {
      edges[i].setAttribute('class','edge');
    }
  }
}
]]></script>
        <defs>
                <circle id="rim" cx="0" cy="0" r="7"/>
                <circle id="rim2" cx="0" cy="0" r="3.5"/>
                <g id="zoomPlus">
                        <use xlink:href="#rim" fill="#404040">
                                <set attributeName="fill" to="#808080" begin="zoomplus.mouseover" end="zoomplus.mouseout"/>
                        </use>
                        <path d="M-4,0h8M0,-4v8" fill="none" stroke="white" stroke-width="1.5" pointer-events="none"/>
                </g>
                <g id="zoomMin">
                        <use xlink:href="#rim" fill="#404040">
                                <set attributeName="fill" to="#808080" begin="zoomminus.mouseover" end="zoomminus.mouseout"/>
                        </use>
                        <path d="M-4,0h8" fill="none" stroke="white" stroke-width="1.5" pointer-events="none"/>
                </g>
                <g id="dirArrow">
                        <path fill="none" stroke="white" stroke-width="1.5" d="M0,-3.0v7 M-2.5,-0.5L0,-3.0L2.5,-0.5"/>
                </g>
               <g id="resetDef">
                       <use xlink:href="#rim2" fill="#404040">
                               <set attributeName="fill" to="#808080" begin="reset.mouseover" end="reset.mouseout"/>
                       </use>
               </g>
        </defs>

<script type="text/javascript">
var viewWidth = 1013;
var viewHeight = 588;
var sectionId = 'dynsection-0';
</script>
<script xlink:href="svgpan.js"/>
<svg id="graph" class="graph">
<g id="viewport">
<title>src/P2/splice/ref.cpp</title>
<polygon fill="white" stroke="transparent" points="-4,4 -4,-584 1008.5,-584 1008.5,4 -4,4"/>
<!-- Node1 -->
<g id="node1" class="node">
<title>Node1</title>
<g id="a_node1"><a xlink:title=" ">
<polygon fill="#bfbfbf" stroke="black" points="508,-560.5 508,-579.5 621,-579.5 621,-560.5 508,-560.5"/>
<text text-anchor="middle" x="564.5" y="-567.5" font-family="Helvetica,sans-Serif" font-size="10.00">src/P2/splice/ref.cpp</text>
</a>
</g>
</g>
<!-- Node2 -->
<g id="node2" class="node">
<title>Node2</title>
<g id="a_node2"><a xlink:href="ref_8h.html" target="_top" xlink:title=" ">
<polygon fill="white" stroke="black" points="223.5,-504.5 223.5,-523.5 293.5,-523.5 293.5,-504.5 223.5,-504.5"/>
<text text-anchor="middle" x="258.5" y="-511.5" font-family="Helvetica,sans-Serif" font-size="10.00">splice/ref.h</text>
</a>
</g>
</g>
<!-- Node1&#45;&gt;Node2 -->
<g id="edge1" class="edge">
<title>Node1&#45;&gt;Node2</title>
<path fill="none" stroke="midnightblue" d="M516.01,-560.44C457.79,-550.17 360.89,-533.07 304.02,-523.03"/>
<polygon fill="midnightblue" stroke="midnightblue" points="304.34,-519.53 293.88,-521.24 303.12,-526.43 304.34,-519.53"/>
</g>
<!-- Node26 -->
<g id="node26" class="node">
<title>Node26</title>
<g id="a_node26"><a xlink:href="vecmat_8h.html" target="_top" xlink:title=" ">
<polygon fill="white" stroke="black" points="910.5,-224.5 910.5,-243.5 1004.5,-243.5 1004.5,-224.5 910.5,-224.5"/>
<text text-anchor="middle" x="957.5" y="-231.5" font-family="Helvetica,sans-Serif" font-size="10.00">splice/vecmat.h</text>
</a>
</g>
</g>
<!-- Node1&#45;&gt;Node26 -->
<g id="edge47" class="edge">
<title>Node1&#45;&gt;Node26</title>
<path fill="none" stroke="midnightblue" d="M621.3,-564.16C725.93,-553.67 938.5,-524.31 938.5,-459 938.5,-459 938.5,-459 938.5,-345 938.5,-312.49 946.66,-275.35 952.28,-253.61"/>
<polygon fill="midnightblue" stroke="midnightblue" points="955.72,-254.32 954.94,-243.75 948.96,-252.5 955.72,-254.32"/>
</g>
<!-- Node3 -->
<g id="node3" class="node">
<title>Node3</title>
<g id="a_node3"><a xlink:href="common_8h.html" target="_top" xlink:title="Common header file.">
<polygon fill="white" stroke="black" points="473.5,-56.5 473.5,-75.5 541.5,-75.5 541.5,-56.5 473.5,-56.5"/>
<text text-anchor="middle" x="507.5" y="-63.5" font-family="Helvetica,sans-Serif" font-size="10.00">common.h</text>
</a>
</g>
</g>
<!-- Node2&#45;&gt;Node3 -->
<g id="edge2" class="edge">
<title>Node2&#45;&gt;Node3</title>
<path fill="none" stroke="midnightblue" d="M293.84,-510.55C425.84,-500.91 882.5,-463.23 882.5,-403 882.5,-403 882.5,-403 882.5,-177 882.5,-136.46 854.67,-130.3 818.5,-112 772.65,-88.8 625.86,-75.38 551.52,-69.9"/>
<polygon fill="midnightblue" stroke="midnightblue" points="551.76,-66.41 541.53,-69.18 551.26,-73.39 551.76,-66.41"/>
</g>
<!-- Node7 -->
<g id="node7" class="node">
<title>Node7</title>
<g id="a_node7"><a xlink:href="pair_8h.html" target="_top" xlink:title=" ">
<polygon fill="white" stroke="black" points="0,-392.5 0,-411.5 75,-411.5 75,-392.5 0,-392.5"/>
<text text-anchor="middle" x="37.5" y="-399.5" font-family="Helvetica,sans-Serif" font-size="10.00">splice/pair.h</text>
</a>
</g>
</g>
<!-- Node2&#45;&gt;Node7 -->
<g id="edge6" class="edge">
<title>Node2&#45;&gt;Node7</title>
<path fill="none" stroke="midnightblue" d="M223.24,-507.72C190.71,-501.72 141.93,-489.79 104.5,-468 82.72,-455.32 62.68,-434.07 50.3,-419.33"/>
<polygon fill="midnightblue" stroke="midnightblue" points="52.97,-417.06 43.95,-411.52 47.55,-421.48 52.97,-417.06"/>
</g>
<!-- Node8 -->
<g id="node8" class="node">
<title>Node8</title>
<g id="a_node8"><a xlink:href="proc_8h.html" target="_top" xlink:title=" ">
<polygon fill="white" stroke="black" points="57.5,-336.5 57.5,-355.5 135.5,-355.5 135.5,-336.5 57.5,-336.5"/>
<text text-anchor="middle" x="96.5" y="-343.5" font-family="Helvetica,sans-Serif" font-size="10.00">splice/proc.h</text>
</a>
</g>
</g>
<!-- Node2&#45;&gt;Node8 -->
<g id="edge8" class="edge">
<title>Node2&#45;&gt;Node8</title>
<path fill="none" stroke="midnightblue" d="M223.5,-505.8C200,-499.38 169.76,-487.84 149.5,-468 120.23,-439.35 106.01,-391.79 100.08,-365.65"/>
<polygon fill="midnightblue" stroke="midnightblue" points="103.45,-364.65 97.97,-355.58 96.6,-366.08 103.45,-364.65"/>
</g>
<!-- Node9 -->
<g id="node9" class="node">
<title>Node9</title>
<g id="a_node9"><a xlink:href="method_8h.html" target="_top" xlink:title=" ">
<polygon fill="white" stroke="black" points="103,-280.5 103,-299.5 198,-299.5 198,-280.5 103,-280.5"/>
<text text-anchor="middle" x="150.5" y="-287.5" font-family="Helvetica,sans-Serif" font-size="10.00">splice/method.h</text>
</a>
</g>
</g>
<!-- Node2&#45;&gt;Node9 -->
<g id="edge10" class="edge">
<title>Node2&#45;&gt;Node9</title>
<path fill="none" stroke="midnightblue" d="M233.01,-504.36C216.03,-497.26 194.67,-485.5 182.5,-468 148.39,-418.93 147.39,-344.32 149.07,-309.77"/>
<polygon fill="midnightblue" stroke="midnightblue" points="152.57,-309.88 149.69,-299.68 145.58,-309.45 152.57,-309.88"/>
</g>
<!-- Node10 -->
<g id="node10" class="node">
<title>Node10</title>
<g id="a_node10"><a xlink:href="bif_8h.html" target="_top" xlink:title=" ">
<polygon fill="white" stroke="black" points="192,-448.5 192,-467.5 261,-467.5 261,-448.5 192,-448.5"/>
<text text-anchor="middle" x="226.5" y="-455.5" font-family="Helvetica,sans-Serif" font-size="10.00">splice/bif.h</text>
</a>
</g>
</g>
<!-- Node2&#45;&gt;Node10 -->
<g id="edge12" class="edge">
<title>Node2&#45;&gt;Node10</title>
<path fill="none" stroke="midnightblue" d="M253.22,-504.08C248.79,-496.61 242.34,-485.72 236.88,-476.52"/>
<polygon fill="midnightblue" stroke="midnightblue" points="239.79,-474.57 231.69,-467.75 233.77,-478.14 239.79,-474.57"/>
</g>
<!-- Node11 -->
<g id="node11" class="node">
<title>Node11</title>
<g id="a_node11"><a xlink:href="basic_8h.html" target="_top" xlink:title="Basic object.">
<polygon fill="white" stroke="black" points="325,-168.5 325,-187.5 376,-187.5 376,-168.5 325,-168.5"/>
<text text-anchor="middle" x="350.5" y="-175.5" font-family="Helvetica,sans-Serif" font-size="10.00">basic.h</text>
</a>
</g>
</g>
<!-- Node2&#45;&gt;Node11 -->
<g id="edge14" class="edge">
<title>Node2&#45;&gt;Node11</title>
<path fill="none" stroke="midnightblue" d="M262.68,-504.39C271.14,-486.16 289.5,-442.09 289.5,-403 289.5,-403 289.5,-403 289.5,-289 289.5,-251.57 316.84,-214.96 334.91,-194.84"/>
<polygon fill="midnightblue" stroke="midnightblue" points="337.49,-197.21 341.76,-187.51 332.38,-192.43 337.49,-197.21"/>
</g>
<!-- Node13 -->
<g id="node13" class="node">
<title>Node13</title>
<g id="a_node13"><a xlink:href="util_8h.html" target="_top" xlink:title="Utility functions.">
<polygon fill="white" stroke="black" points="561,-448.5 561,-467.5 602,-467.5 602,-448.5 561,-448.5"/>
<text text-anchor="middle" x="581.5" y="-455.5" font-family="Helvetica,sans-Serif" font-size="10.00">util.h</text>
</a>
</g>
</g>
<!-- Node2&#45;&gt;Node13 -->
<g id="edge18" class="edge">
<title>Node2&#45;&gt;Node13</title>
<path fill="none" stroke="midnightblue" d="M293.68,-507.12C357.38,-496.47 490.8,-474.16 550.94,-464.11"/>
<polygon fill="midnightblue" stroke="midnightblue" points="551.67,-467.54 560.95,-462.44 550.51,-460.63 551.67,-467.54"/>
</g>
<!-- Node4 -->
<g id="node4" class="node">
<title>Node4</title>
<g id="a_node4"><a xlink:href="include__asm_8h.html" target="_top" xlink:title=" ">
<polygon fill="white" stroke="black" points="353,-0.5 353,-19.5 440,-19.5 440,-0.5 353,-0.5"/>
<text text-anchor="middle" x="396.5" y="-7.5" font-family="Helvetica,sans-Serif" font-size="10.00">include_asm.h</text>
</a>
</g>
</g>
<!-- Node3&#45;&gt;Node4 -->
<g id="edge3" class="edge">
<title>Node3&#45;&gt;Node4</title>
<path fill="none" stroke="midnightblue" d="M489.67,-56.32C471.78,-47.62 444.02,-34.12 423.45,-24.11"/>
<polygon fill="midnightblue" stroke="midnightblue" points="424.81,-20.88 414.29,-19.65 421.75,-27.18 424.81,-20.88"/>
</g>
<!-- Node5 -->
<g id="node5" class="node">
<title>Node5</title>
<g id="a_node5"><a xlink:href="include__rodata_8h.html" target="_top" xlink:title=" ">
<polygon fill="white" stroke="black" points="458.5,-0.5 458.5,-19.5 556.5,-19.5 556.5,-0.5 458.5,-0.5"/>
<text text-anchor="middle" x="507.5" y="-7.5" font-family="Helvetica,sans-Serif" font-size="10.00">include_rodata.h</text>
</a>
</g>
</g>
<!-- Node3&#45;&gt;Node5 -->
<g id="edge4" class="edge">
<title>Node3&#45;&gt;Node5</title>
<path fill="none" stroke="midnightblue" d="M507.5,-56.08C507.5,-49.01 507.5,-38.86 507.5,-29.99"/>
<polygon fill="midnightblue" stroke="midnightblue" points="511,-29.75 507.5,-19.75 504,-29.75 511,-29.75"/>
</g>
<!-- Node6 -->
<g id="node6" class="node">
<title>Node6</title>
<g id="a_node6"><a xlink:href="types_8h.html" target="_top" xlink:title="Types used throughout the engine.">
<polygon fill="white" stroke="black" points="575,-0.5 575,-19.5 628,-19.5 628,-0.5 575,-0.5"/>
<text text-anchor="middle" x="601.5" y="-7.5" font-family="Helvetica,sans-Serif" font-size="10.00">types.h</text>
</a>
</g>
</g>
<!-- Node3&#45;&gt;Node6 -->
<g id="edge5" class="edge">
<title>Node3&#45;&gt;Node6</title>
<path fill="none" stroke="midnightblue" d="M522.6,-56.32C537.4,-47.82 560.19,-34.73 577.48,-24.8"/>
<polygon fill="midnightblue" stroke="midnightblue" points="579.51,-27.67 586.43,-19.65 576.02,-21.6 579.51,-27.67"/>
</g>
<!-- Node7&#45;&gt;Node3 -->
<g id="edge7" class="edge">
<title>Node7&#45;&gt;Node3</title>
<path fill="none" stroke="midnightblue" d="M36.45,-392.46C34.29,-373.98 29.5,-328.91 29.5,-291 29.5,-291 29.5,-291 29.5,-177 29.5,-131.53 66.63,-129.72 108.5,-112 171.56,-85.31 372.84,-73.08 463.04,-68.84"/>
<polygon fill="midnightblue" stroke="midnightblue" points="463.39,-72.33 473.21,-68.37 463.07,-65.33 463.39,-72.33"/>
</g>
<!-- Node8&#45;&gt;Node3 -->
<g id="edge9" class="edge">
<title>Node8&#45;&gt;Node3</title>
<path fill="none" stroke="midnightblue" d="M93.53,-336.28C87.53,-317.82 74.5,-273.37 74.5,-235 74.5,-235 74.5,-235 74.5,-177 74.5,-97.45 352.52,-74.76 463.01,-68.88"/>
<polygon fill="midnightblue" stroke="midnightblue" points="463.35,-72.37 473.16,-68.36 463,-65.38 463.35,-72.37"/>
</g>
<!-- Node9&#45;&gt;Node3 -->
<g id="edge11" class="edge">
<title>Node9&#45;&gt;Node3</title>
<path fill="none" stroke="midnightblue" d="M149.53,-280.36C146.81,-251.51 142.35,-157.78 192.5,-112 231.22,-76.65 385.71,-68.98 463,-67.38"/>
<polygon fill="midnightblue" stroke="midnightblue" points="463.43,-70.87 473.37,-67.19 463.31,-63.87 463.43,-70.87"/>
</g>
<!-- Node10&#45;&gt;Node3 -->
<g id="edge13" class="edge">
<title>Node10&#45;&gt;Node3</title>
<path fill="none" stroke="midnightblue" d="M225.65,-448.32C221.11,-399.89 201.58,-163.31 247.5,-112 275.49,-80.73 396.57,-71.17 463.17,-68.26"/>
<polygon fill="midnightblue" stroke="midnightblue" points="463.52,-71.75 473.37,-67.85 463.24,-64.76 463.52,-71.75"/>
</g>
<!-- Node11&#45;&gt;Node3 -->
<g id="edge15" class="edge">
<title>Node11&#45;&gt;Node3</title>
<path fill="none" stroke="midnightblue" d="M358.48,-168.2C370.85,-154.89 395.81,-129.36 420.5,-112 438.57,-99.29 460.71,-87.89 478.14,-79.74"/>
<polygon fill="midnightblue" stroke="midnightblue" points="479.64,-82.91 487.27,-75.56 476.72,-76.54 479.64,-82.91"/>
</g>
<!-- Node12 -->
<g id="node12" class="node">
<title>Node12</title>
<g id="a_node12"><a xlink:href="sidebag_8h.html" target="_top" xlink:title="Sidebag for splice.">
<polygon fill="white" stroke="black" points="273,-112.5 273,-131.5 368,-131.5 368,-112.5 273,-112.5"/>
<text text-anchor="middle" x="320.5" y="-119.5" font-family="Helvetica,sans-Serif" font-size="10.00">splice/sidebag.h</text>
</a>
</g>
</g>
<!-- Node11&#45;&gt;Node12 -->
<g id="edge16" class="edge">
<title>Node11&#45;&gt;Node12</title>
<path fill="none" stroke="midnightblue" d="M345.55,-168.08C341.4,-160.61 335.35,-149.72 330.23,-140.52"/>
<polygon fill="midnightblue" stroke="midnightblue" points="333.28,-138.79 325.36,-131.75 327.16,-142.19 333.28,-138.79"/>
</g>
<!-- Node12&#45;&gt;Node3 -->
<g id="edge17" class="edge">
<title>Node12&#45;&gt;Node3</title>
<path fill="none" stroke="midnightblue" d="M350.13,-112.44C382,-103.24 432.83,-88.56 468.06,-78.39"/>
<polygon fill="midnightblue" stroke="midnightblue" points="469.37,-81.65 478.01,-75.52 467.43,-74.93 469.37,-81.65"/>
</g>
<!-- Node13&#45;&gt;Node3 -->
<g id="edge19" class="edge">
<title>Node13&#45;&gt;Node3</title>
<path fill="none" stroke="midnightblue" d="M602.14,-457.67C664.14,-458.5 844.5,-451.92 844.5,-347 844.5,-347 844.5,-347 844.5,-177 844.5,-138.28 820.46,-130.6 786.5,-112 746.85,-90.28 619.7,-76.51 551.58,-70.5"/>
<polygon fill="midnightblue" stroke="midnightblue" points="551.84,-67.01 541.57,-69.64 551.23,-73.99 551.84,-67.01"/>
</g>
<!-- Node14 -->
<g id="node14" class="node">
<title>Node14</title>
<g id="a_node14"><a xlink:href="mat_8h.html" target="_top" xlink:title="3x3 and 4x4 matrix types.">
<polygon fill="white" stroke="black" points="559,-392.5 559,-411.5 604,-411.5 604,-392.5 559,-392.5"/>
<text text-anchor="middle" x="581.5" y="-399.5" font-family="Helvetica,sans-Serif" font-size="10.00">mat.h</text>
</a>
</g>
</g>
<!-- Node13&#45;&gt;Node14 -->
<g id="edge20" class="edge">
<title>Node13&#45;&gt;Node14</title>
<path fill="none" stroke="midnightblue" d="M581.5,-448.08C581.5,-441.01 581.5,-430.86 581.5,-421.99"/>
<polygon fill="midnightblue" stroke="midnightblue" points="585,-421.75 581.5,-411.75 578,-421.75 585,-421.75"/>
</g>
<!-- Node15 -->
<g id="node15" class="node">
<title>Node15</title>
<g id="a_node15"><a xlink:href="vec_8h.html" target="_top" xlink:title="Vector math functions.">
<polygon fill="white" stroke="black" points="646,-392.5 646,-411.5 689,-411.5 689,-392.5 646,-392.5"/>
<text text-anchor="middle" x="667.5" y="-399.5" font-family="Helvetica,sans-Serif" font-size="10.00">vec.h</text>
</a>
</g>
</g>
<!-- Node13&#45;&gt;Node15 -->
<g id="edge21" class="edge">
<title>Node13&#45;&gt;Node15</title>
<path fill="none" stroke="midnightblue" d="M595.32,-448.32C608.73,-439.9 629.32,-426.97 645.09,-417.07"/>
<polygon fill="midnightblue" stroke="midnightblue" points="647.11,-419.94 653.72,-411.65 643.39,-414.01 647.11,-419.94"/>
</g>
<!-- Node24 -->
<g id="node24" class="node">
<title>Node24</title>
<g id="a_node24"><a xlink:href="sm_8h.html" target="_top" xlink:title="State machines.">
<polygon fill="white" stroke="black" points="508,-336.5 508,-355.5 549,-355.5 549,-336.5 508,-336.5"/>
<text text-anchor="middle" x="528.5" y="-343.5" font-family="Helvetica,sans-Serif" font-size="10.00">sm.h</text>
</a>
</g>
</g>
<!-- Node13&#45;&gt;Node24 -->
<g id="edge40" class="edge">
<title>Node13&#45;&gt;Node24</title>
<path fill="none" stroke="midnightblue" d="M574.01,-448.22C566.89,-439.51 556.3,-425.54 549.5,-412 542.02,-397.1 536.42,-378.95 532.89,-365.63"/>
<polygon fill="midnightblue" stroke="midnightblue" points="536.24,-364.59 530.42,-355.74 529.45,-366.29 536.24,-364.59"/>
</g>
<!-- Node16 -->
<g id="node16" class="node">
<title>Node16</title>
<g id="a_node16"><a xlink:href="so_8h.html" target="_top" xlink:title="Scene objects.">
<polygon fill="white" stroke="black" points="661,-336.5 661,-355.5 698,-355.5 698,-336.5 661,-336.5"/>
<text text-anchor="middle" x="679.5" y="-343.5" font-family="Helvetica,sans-Serif" font-size="10.00">so.h</text>
</a>
</g>
</g>
<!-- Node15&#45;&gt;Node16 -->
<g id="edge22" class="edge">
<title>Node15&#45;&gt;Node16</title>
<path fill="none" stroke="midnightblue" d="M669.48,-392.08C671.07,-384.93 673.36,-374.64 675.35,-365.69"/>
<polygon fill="midnightblue" stroke="midnightblue" points="678.8,-366.27 677.56,-355.75 671.97,-364.75 678.8,-366.27"/>
</g>
<!-- Node17 -->
<g id="node17" class="node">
<title>Node17</title>
<g id="a_node17"><a xlink:href="alo_8h.html" target="_top" xlink:title=" ">
<polygon fill="white" stroke="black" points="707,-280.5 707,-299.5 748,-299.5 748,-280.5 707,-280.5"/>
<text text-anchor="middle" x="727.5" y="-287.5" font-family="Helvetica,sans-Serif" font-size="10.00">alo.h</text>
</a>
</g>
</g>
<!-- Node16&#45;&gt;Node17 -->
<g id="edge23" class="edge">
<title>Node16&#45;&gt;Node17</title>
<path fill="none" stroke="midnightblue" d="M687.43,-336.08C694.35,-328.3 704.57,-316.8 712.95,-307.37"/>
<polygon fill="midnightblue" stroke="midnightblue" points="715.69,-309.55 719.72,-299.75 710.46,-304.9 715.69,-309.55"/>
</g>
<!-- Node17&#45;&gt;Node3 -->
<g id="edge24" class="edge">
<title>Node17&#45;&gt;Node3</title>
<path fill="none" stroke="midnightblue" d="M733.81,-280.43C753.47,-252.59 809.85,-163.53 766.5,-112 739.59,-80.01 618.56,-70.76 551.89,-68.09"/>
<polygon fill="midnightblue" stroke="midnightblue" points="551.81,-64.58 541.69,-67.71 551.55,-71.58 551.81,-64.58"/>
</g>
<!-- Node18 -->
<g id="node18" class="node">
<title>Node18</title>
<g id="a_node18"><a xlink:href="lo_8h.html" target="_top" xlink:title="Level objects.">
<polygon fill="white" stroke="black" points="597,-224.5 597,-243.5 632,-243.5 632,-224.5 597,-224.5"/>
<text text-anchor="middle" x="614.5" y="-231.5" font-family="Helvetica,sans-Serif" font-size="10.00">lo.h</text>
</a>
</g>
</g>
<!-- Node17&#45;&gt;Node18 -->
<g id="edge25" class="edge">
<title>Node17&#45;&gt;Node18</title>
<path fill="none" stroke="midnightblue" d="M709.59,-280.44C691.25,-271.68 662.49,-257.94 641.41,-247.86"/>
<polygon fill="midnightblue" stroke="midnightblue" points="642.85,-244.67 632.32,-243.52 639.83,-250.99 642.85,-244.67"/>
</g>
<!-- Node20 -->
<g id="node20" class="node">
<title>Node20</title>
<g id="a_node20"><a xlink:href="dl_8h.html" target="_top" xlink:title=" ">
<polygon fill="white" stroke="black" points="719,-168.5 719,-187.5 754,-187.5 754,-168.5 719,-168.5"/>
<text text-anchor="middle" x="736.5" y="-175.5" font-family="Helvetica,sans-Serif" font-size="10.00">dl.h</text>
</a>
</g>
</g>
<!-- Node17&#45;&gt;Node20 -->
<g id="edge39" class="edge">
<title>Node17&#45;&gt;Node20</title>
<path fill="none" stroke="midnightblue" d="M728.21,-280.37C729.66,-262.62 733.01,-221.67 734.98,-197.6"/>
<polygon fill="midnightblue" stroke="midnightblue" points="738.47,-197.84 735.8,-187.59 731.49,-197.27 738.47,-197.84"/>
</g>
<!-- Node18&#45;&gt;Node3 -->
<g id="edge26" class="edge">
<title>Node18&#45;&gt;Node3</title>
<path fill="none" stroke="midnightblue" d="M615.62,-224.4C617.9,-203.11 620.95,-147.13 595.5,-112 584.39,-96.67 566.51,-86.19 549.76,-79.23"/>
<polygon fill="midnightblue" stroke="midnightblue" points="550.68,-75.84 540.09,-75.53 548.18,-82.38 550.68,-75.84"/>
</g>
<!-- Node18&#45;&gt;Node11 -->
<g id="edge29" class="edge">
<title>Node18&#45;&gt;Node11</title>
<path fill="none" stroke="midnightblue" d="M596.77,-229.37C553.78,-220.58 443.33,-197.99 386.09,-186.28"/>
<polygon fill="midnightblue" stroke="midnightblue" points="386.55,-182.8 376.05,-184.23 385.14,-189.66 386.55,-182.8"/>
</g>
<!-- Node19 -->
<g id="node19" class="node">
<title>Node19</title>
<g id="a_node19"><a xlink:href="oid_8h.html" target="_top" xlink:title="Object IDs.">
<polygon fill="white" stroke="black" points="699,-112.5 699,-131.5 740,-131.5 740,-112.5 699,-112.5"/>
<text text-anchor="middle" x="719.5" y="-119.5" font-family="Helvetica,sans-Serif" font-size="10.00">oid.h</text>
</a>
</g>
</g>
<!-- Node18&#45;&gt;Node19 -->
<g id="edge27" class="edge">
<title>Node18&#45;&gt;Node19</title>
<path fill="none" stroke="midnightblue" d="M622.74,-224.37C640.3,-205.97 681.63,-162.67 704.18,-139.05"/>
<polygon fill="midnightblue" stroke="midnightblue" points="706.93,-141.24 711.3,-131.59 701.86,-136.41 706.93,-141.24"/>
</g>
<!-- Node18&#45;&gt;Node20 -->
<g id="edge30" class="edge">
<title>Node18&#45;&gt;Node20</title>
<path fill="none" stroke="midnightblue" d="M632.24,-225.15C652.48,-216.19 685.81,-201.44 709.33,-191.03"/>
<polygon fill="midnightblue" stroke="midnightblue" points="711.01,-194.11 718.74,-186.86 708.18,-187.71 711.01,-194.11"/>
</g>
<!-- Node21 -->
<g id="node21" class="node">
<title>Node21</title>
<g id="a_node21"><a xlink:href="sw_8h.html" target="_top" xlink:title="Scene world?">
<polygon fill="white" stroke="black" points="642.5,-112.5 642.5,-131.5 680.5,-131.5 680.5,-112.5 642.5,-112.5"/>
<text text-anchor="middle" x="661.5" y="-119.5" font-family="Helvetica,sans-Serif" font-size="10.00">sw.h</text>
</a>
</g>
</g>
<!-- Node18&#45;&gt;Node21 -->
<g id="edge33" class="edge">
<title>Node18&#45;&gt;Node21</title>
<path fill="none" stroke="midnightblue" d="M618.19,-224.37C625.84,-206.46 643.59,-164.92 653.83,-140.95"/>
<polygon fill="midnightblue" stroke="midnightblue" points="657.12,-142.16 657.83,-131.59 650.68,-139.41 657.12,-142.16"/>
</g>
<!-- Node22 -->
<g id="node22" class="node">
<title>Node22</title>
<g id="a_node22"><a xlink:href="frame_8h.html" target="_top" xlink:title=" ">
<polygon fill="white" stroke="black" points="500.5,-112.5 500.5,-131.5 586.5,-131.5 586.5,-112.5 500.5,-112.5"/>
<text text-anchor="middle" x="543.5" y="-119.5" font-family="Helvetica,sans-Serif" font-size="10.00">splice/frame.h</text>
</a>
</g>
</g>
<!-- Node18&#45;&gt;Node22 -->
<g id="edge35" class="edge">
<title>Node18&#45;&gt;Node22</title>
<path fill="none" stroke="midnightblue" d="M608.93,-224.37C597.26,-206.3 570.08,-164.18 554.67,-140.31"/>
<polygon fill="midnightblue" stroke="midnightblue" points="557.41,-138.1 549.05,-131.59 551.53,-141.89 557.41,-138.1"/>
</g>
<!-- Node23 -->
<g id="node23" class="node">
<title>Node23</title>
<g id="a_node23"><a xlink:href="mq_8h.html" target="_top" xlink:title="Message queue(?).">
<polygon fill="white" stroke="black" points="507,-168.5 507,-187.5 548,-187.5 548,-168.5 507,-168.5"/>
<text text-anchor="middle" x="527.5" y="-175.5" font-family="Helvetica,sans-Serif" font-size="10.00">mq.h</text>
</a>
</g>
</g>
<!-- Node18&#45;&gt;Node23 -->
<g id="edge37" class="edge">
<title>Node18&#45;&gt;Node23</title>
<path fill="none" stroke="midnightblue" d="M600.52,-224.32C586.95,-215.9 566.12,-202.97 550.18,-193.07"/>
<polygon fill="midnightblue" stroke="midnightblue" points="551.79,-189.95 541.44,-187.65 548.09,-195.9 551.79,-189.95"/>
</g>
<!-- Node19&#45;&gt;Node3 -->
<g id="edge28" class="edge">
<title>Node19&#45;&gt;Node3</title>
<path fill="none" stroke="midnightblue" d="M698.88,-114.67C695.75,-113.75 692.54,-112.83 689.5,-112 642.58,-99.17 588.41,-85.98 551.46,-77.23"/>
<polygon fill="midnightblue" stroke="midnightblue" points="552.04,-73.77 541.51,-74.88 550.44,-80.59 552.04,-73.77"/>
</g>
<!-- Node20&#45;&gt;Node3 -->
<g id="edge31" class="edge">
<title>Node20&#45;&gt;Node3</title>
<path fill="none" stroke="midnightblue" d="M742.02,-168.32C749.89,-154.72 761.99,-128.24 748.5,-112 723.96,-82.46 614.27,-72.2 551.67,-68.73"/>
<polygon fill="midnightblue" stroke="midnightblue" points="551.84,-65.23 541.67,-68.21 551.47,-72.22 551.84,-65.23"/>
</g>
<!-- Node20&#45;&gt;Node19 -->
<g id="edge32" class="edge">
<title>Node20&#45;&gt;Node19</title>
<path fill="none" stroke="midnightblue" d="M733.69,-168.08C731.42,-160.85 728.13,-150.41 725.29,-141.4"/>
<polygon fill="midnightblue" stroke="midnightblue" points="728.6,-140.24 722.25,-131.75 721.92,-142.34 728.6,-140.24"/>
</g>
<!-- Node21&#45;&gt;Node3 -->
<g id="edge34" class="edge">
<title>Node21&#45;&gt;Node3</title>
<path fill="none" stroke="midnightblue" d="M642.31,-114.27C617.06,-105.42 572.28,-89.71 541.29,-78.85"/>
<polygon fill="midnightblue" stroke="midnightblue" points="542.36,-75.51 531.76,-75.51 540.04,-82.12 542.36,-75.51"/>
</g>
<!-- Node22&#45;&gt;Node3 -->
<g id="edge36" class="edge">
<title>Node22&#45;&gt;Node3</title>
<path fill="none" stroke="midnightblue" d="M537.56,-112.08C532.52,-104.53 525.16,-93.49 518.99,-84.23"/>
<polygon fill="midnightblue" stroke="midnightblue" points="521.79,-82.13 513.33,-75.75 515.97,-86.01 521.79,-82.13"/>
</g>
<!-- Node23&#45;&gt;Node3 -->
<g id="edge38" class="edge">
<title>Node23&#45;&gt;Node3</title>
<path fill="none" stroke="midnightblue" d="M517.34,-168.19C508.59,-159.87 496.6,-146.54 491.5,-132 485.98,-116.27 491.67,-97.76 497.74,-84.53"/>
<polygon fill="midnightblue" stroke="midnightblue" points="500.88,-86.07 502.28,-75.57 494.64,-82.91 500.88,-86.07"/>
</g>
<!-- Node24&#45;&gt;Node3 -->
<g id="edge41" class="edge">
<title>Node24&#45;&gt;Node3</title>
<path fill="none" stroke="midnightblue" d="M507.85,-338.18C432.04,-312.1 177.76,-214.99 263.5,-112 288.43,-82.05 400,-71.96 463.29,-68.61"/>
<polygon fill="midnightblue" stroke="midnightblue" points="463.57,-72.1 473.39,-68.12 463.23,-65.11 463.57,-72.1"/>
</g>
<!-- Node24&#45;&gt;Node20 -->
<g id="edge42" class="edge">
<title>Node24&#45;&gt;Node20</title>
<path fill="none" stroke="midnightblue" d="M539.39,-336.31C573.02,-309.47 675.49,-227.69 717.86,-193.88"/>
<polygon fill="midnightblue" stroke="midnightblue" points="720.08,-196.58 725.72,-187.61 715.72,-191.11 720.08,-196.58"/>
</g>
<!-- Node24&#45;&gt;Node23 -->
<g id="edge46" class="edge">
<title>Node24&#45;&gt;Node23</title>
<path fill="none" stroke="midnightblue" d="M528.45,-336.08C528.29,-309.95 527.83,-233.21 527.61,-197.58"/>
<polygon fill="midnightblue" stroke="midnightblue" points="531.11,-197.55 527.55,-187.57 524.11,-197.59 531.11,-197.55"/>
</g>
<!-- Node25 -->
<g id="node25" class="node">
<title>Node25</title>
<g id="a_node25"><a xlink:href="anim_8h.html" target="_top" xlink:title="Animation.">
<polygon fill="white" stroke="black" points="450.5,-280.5 450.5,-299.5 500.5,-299.5 500.5,-280.5 450.5,-280.5"/>
<text text-anchor="middle" x="475.5" y="-287.5" font-family="Helvetica,sans-Serif" font-size="10.00">anim.h</text>
</a>
</g>
</g>
<!-- Node24&#45;&gt;Node25 -->
<g id="edge43" class="edge">
<title>Node24&#45;&gt;Node25</title>
<path fill="none" stroke="midnightblue" d="M519.75,-336.08C512.03,-328.22 500.6,-316.57 491.28,-307.08"/>
<polygon fill="midnightblue" stroke="midnightblue" points="493.59,-304.44 484.09,-299.75 488.6,-309.34 493.59,-304.44"/>
</g>
<!-- Node25&#45;&gt;Node3 -->
<g id="edge44" class="edge">
<title>Node25&#45;&gt;Node3</title>
<path fill="none" stroke="midnightblue" d="M474.8,-280.34C472.93,-254.33 469.08,-174.83 485.5,-112 488,-102.43 492.62,-92.48 496.99,-84.38"/>
<polygon fill="midnightblue" stroke="midnightblue" points="500.1,-85.98 502.02,-75.56 494.02,-82.51 500.1,-85.98"/>
</g>
<!-- Node25&#45;&gt;Node18 -->
<g id="edge45" class="edge">
<title>Node25&#45;&gt;Node18</title>
<path fill="none" stroke="midnightblue" d="M497.52,-280.44C521.96,-270.95 561.4,-255.63 587.63,-245.44"/>
<polygon fill="midnightblue" stroke="midnightblue" points="588.93,-248.69 596.98,-241.81 586.39,-242.17 588.93,-248.69"/>
</g>
<!-- Node26&#45;&gt;Node3 -->
<g id="edge48" class="edge">
<title>Node26&#45;&gt;Node3</title>
<path fill="none" stroke="midnightblue" d="M956.04,-224.46C951.67,-201.78 936.43,-139.88 896.5,-112 841.74,-73.77 641.91,-67.71 551.94,-66.97"/>
<polygon fill="midnightblue" stroke="midnightblue" points="551.81,-63.47 541.78,-66.9 551.76,-70.47 551.81,-63.47"/>
</g>
</g>
</svg>
        <g id="navigator" transform="translate(0 0)" fill="#404254">
                <rect fill="#f2f5e9" fill-opacity="0.5" stroke="#606060" stroke-width=".5" x="0" y="0" width="60" height="60"/>
                <use id="zoomplus" xlink:href="#zoomPlus" x="17" y="9" onmousedown="handleZoom(evt,'in')"/>
                <use id="zoomminus" xlink:href="#zoomMin" x="42" y="9" onmousedown="handleZoom(evt,'out')"/>
                <use id="reset" xlink:href="#resetDef" x="30" y="36" onmousedown="handleReset()"/>
                <g id="arrowUp" xlink:href="#dirArrow" transform="translate(30 24)" onmousedown="handlePan(0,-1)">
                  <use xlink:href="#rim" fill="#404040">
                        <set attributeName="fill" to="#808080" begin="arrowUp.mouseover" end="arrowUp.mouseout"/>
                  </use>
                  <path fill="none" stroke="white" stroke-width="1.5" d="M0,-3.0v7 M-2.5,-0.5L0,-3.0L2.5,-0.5"/>
                </g>
                <g id="arrowRight" xlink:href="#dirArrow" transform="rotate(90) translate(36 -43)" onmousedown="handlePan(1,0)">
                  <use xlink:href="#rim" fill="#404040">
                        <set attributeName="fill" to="#808080" begin="arrowRight.mouseover" end="arrowRight.mouseout"/>
                  </use>
                  <path fill="none" stroke="white" stroke-width="1.5" d="M0,-3.0v7 M-2.5,-0.5L0,-3.0L2.5,-0.5"/>
                </g>
                <g id="arrowDown" xlink:href="#dirArrow" transform="rotate(180) translate(-30 -48)" onmousedown="handlePan(0,1)">
                  <use xlink:href="#rim" fill="#404040">
                        <set attributeName="fill" to="#808080" begin="arrowDown.mouseover" end="arrowDown.mouseout"/>
                  </use>
                  <path fill="none" stroke="white" stroke-width="1.5" d="M0,-3.0v7 M-2.5,-0.5L0,-3.0L2.5,-0.5"/>
                </g>
                <g id="arrowLeft" xlink:href="#dirArrow" transform="rotate(270) translate(-36 17)" onmousedown="handlePan(-1,0)">
                  <use xlink:href="#rim" fill="#404040">
                        <set attributeName="fill" to="#808080" begin="arrowLeft.mouseover" end="arrowLeft.mouseout"/>
                  </use>
                  <path fill="none" stroke="white" stroke-width="1.5" d="M0,-3.0v7 M-2.5,-0.5L0,-3.0L2.5,-0.5"/>
                </g>
        </g>
        <svg viewBox="0 0 15 15" width="100%" height="30px" preserveAspectRatio="xMaxYMin meet">
         <g id="arrow_out" transform="scale(0.3 0.3)">
          <a xlink:href="ref_8cpp__incl_org.svg" target="_base">
           <rect id="button" ry="5" rx="5" y="6" x="6" height="38" width="38"
                fill="#f2f5e9" fill-opacity="0.5" stroke="#606060" stroke-width="1.0"/>
           <path id="arrow"
             d="M 11.500037,31.436501 C 11.940474,20.09759 22.043105,11.32322 32.158766,21.979434 L 37.068811,17.246167 C 37.068811,17.246167 37.088388,32 37.088388,32 L 22.160133,31.978069 C 22.160133,31.978069 26.997745,27.140456 26.997745,27.140456 C 18.528582,18.264221 13.291696,25.230495 11.500037,31.436501 z"
             style="fill:#404040;"/>
          </a>
         </g>
        </svg>
</svg>
