<?xml version="1.0" encoding="UTF-8" standalone="no"?>
<!DOCTYPE svg PUBLIC "-//W3C//DTD SVG 1.1//EN"
 "http://www.w3.org/Graphics/SVG/1.1/DTD/svg11.dtd">
<!-- Generated by graphviz version 2.43.0 (0)
 -->
<!-- Title: src/P2/splice/ref.cpp Pages: 1 -->
<svg width="874pt" height="588pt"
 viewBox="0.00 0.00 874.00 588.00" xmlns="http://www.w3.org/2000/svg" xmlns:xlink="http://www.w3.org/1999/xlink">
<g id="graph0" class="graph" transform="scale(1 1) rotate(0) translate(4 584)">
<title>src/P2/splice/ref.cpp</title>
<polygon fill="white" stroke="transparent" points="-4,4 -4,-584 870,-584 870,4 -4,4"/>
<!-- Node1 -->
<g id="node1" class="node">
<title>Node1</title>
<g id="a_node1"><a xlink:title=" ">
<polygon fill="#bfbfbf" stroke="black" points="402.5,-560.5 402.5,-579.5 515.5,-579.5 515.5,-560.5 402.5,-560.5"/>
<text text-anchor="middle" x="459" y="-567.5" font-family="Helvetica,sans-Serif" font-size="10.00">src/P2/splice/ref.cpp</text>
</a>
</g>
</g>
<!-- Node2 -->
<g id="node2" class="node">
<title>Node2</title>
<g id="a_node2"><a xlink:href="ref_8h.html" target="_top" xlink:title=" ">
<polygon fill="white" stroke="black" points="136,-504.5 136,-523.5 206,-523.5 206,-504.5 136,-504.5"/>
<text text-anchor="middle" x="171" y="-511.5" font-family="Helvetica,sans-Serif" font-size="10.00">splice/ref.h</text>
</a>
</g>
</g>
<!-- Node1&#45;&gt;Node2 -->
<g id="edge1" class="edge">
<title>Node1&#45;&gt;Node2</title>
<path fill="none" stroke="midnightblue" d="M413.37,-560.44C359.28,-550.3 269.72,-533.51 215.94,-523.43"/>
<polygon fill="midnightblue" stroke="midnightblue" points="216.48,-519.97 206,-521.56 215.19,-526.85 216.48,-519.97"/>
</g>
<!-- Node26 -->
<g id="node26" class="node">
<title>Node26</title>
<g id="a_node26"><a xlink:href="vecmat_8h.html" target="_top" xlink:title=" ">
<polygon fill="white" stroke="black" points="706,-504.5 706,-523.5 800,-523.5 800,-504.5 706,-504.5"/>
<text text-anchor="middle" x="753" y="-511.5" font-family="Helvetica,sans-Serif" font-size="10.00">splice/vecmat.h</text>
</a>
</g>
</g>
<!-- Node1&#45;&gt;Node26 -->
<g id="edge46" class="edge">
<title>Node1&#45;&gt;Node26</title>
<path fill="none" stroke="midnightblue" d="M505.59,-560.44C557.41,-550.92 641.13,-535.55 696.62,-525.36"/>
<polygon fill="midnightblue" stroke="midnightblue" points="697.43,-528.77 706.63,-523.52 696.16,-521.88 697.43,-528.77"/>
</g>
<!-- Node3 -->
<g id="node3" class="node">
<title>Node3</title>
<g id="a_node3"><a xlink:href="common_8h.html" target="_top" xlink:title="Common header file.">
<polygon fill="white" stroke="black" points="422,-56.5 422,-75.5 490,-75.5 490,-56.5 422,-56.5"/>
<text text-anchor="middle" x="456" y="-63.5" font-family="Helvetica,sans-Serif" font-size="10.00">common.h</text>
</a>
</g>
</g>
<!-- Node2&#45;&gt;Node3 -->
<g id="edge2" class="edge">
<title>Node2&#45;&gt;Node3</title>
<path fill="none" stroke="midnightblue" d="M135.98,-506.75C85.95,-495.58 0,-467.07 0,-403 0,-403 0,-403 0,-177 0,-92.89 296.85,-72.9 411.53,-68.31"/>
<polygon fill="midnightblue" stroke="midnightblue" points="411.87,-71.8 421.73,-67.93 411.6,-64.81 411.87,-71.8"/>
</g>
<!-- Node8 -->
<g id="node8" class="node">
<title>Node8</title>
<g id="a_node8"><a xlink:href="proc_8h.html" target="_top" xlink:title=" ">
<polygon fill="white" stroke="black" points="33,-224.5 33,-243.5 111,-243.5 111,-224.5 33,-224.5"/>
<text text-anchor="middle" x="72" y="-231.5" font-family="Helvetica,sans-Serif" font-size="10.00">splice/proc.h</text>
</a>
</g>
</g>
<!-- Node2&#45;&gt;Node8 -->
<g id="edge7" class="edge">
<title>Node2&#45;&gt;Node8</title>
<path fill="none" stroke="midnightblue" d="M144.09,-504.41C105.22,-490.13 38,-457.54 38,-403 38,-403 38,-403 38,-345 38,-311.16 52.87,-273.97 62.94,-252.66"/>
<polygon fill="midnightblue" stroke="midnightblue" points="66.14,-254.08 67.41,-243.56 59.86,-250.99 66.14,-254.08"/>
</g>
<!-- Node9 -->
<g id="node9" class="node">
<title>Node9</title>
<g id="a_node9"><a xlink:href="method_8h.html" target="_top" xlink:title=" ">
<polygon fill="white" stroke="black" points="66.5,-392.5 66.5,-411.5 161.5,-411.5 161.5,-392.5 66.5,-392.5"/>
<text text-anchor="middle" x="114" y="-399.5" font-family="Helvetica,sans-Serif" font-size="10.00">splice/method.h</text>
</a>
</g>
</g>
<!-- Node2&#45;&gt;Node9 -->
<g id="edge9" class="edge">
<title>Node2&#45;&gt;Node9</title>
<path fill="none" stroke="midnightblue" d="M159.35,-504.35C149.18,-496.14 134.86,-482.88 127,-468 119.36,-453.53 116.2,-435.08 114.89,-421.54"/>
<polygon fill="midnightblue" stroke="midnightblue" points="118.38,-421.24 114.18,-411.51 111.4,-421.73 118.38,-421.24"/>
</g>
<!-- Node10 -->
<g id="node10" class="node">
<title>Node10</title>
<g id="a_node10"><a xlink:href="bif_8h.html" target="_top" xlink:title=" ">
<polygon fill="white" stroke="black" points="136.5,-448.5 136.5,-467.5 205.5,-467.5 205.5,-448.5 136.5,-448.5"/>
<text text-anchor="middle" x="171" y="-455.5" font-family="Helvetica,sans-Serif" font-size="10.00">splice/bif.h</text>
</a>
</g>
</g>
<!-- Node2&#45;&gt;Node10 -->
<g id="edge11" class="edge">
<title>Node2&#45;&gt;Node10</title>
<path fill="none" stroke="midnightblue" d="M171,-504.08C171,-497.01 171,-486.86 171,-477.99"/>
<polygon fill="midnightblue" stroke="midnightblue" points="174.5,-477.75 171,-467.75 167.5,-477.75 174.5,-477.75"/>
</g>
<!-- Node11 -->
<g id="node11" class="node">
<title>Node11</title>
<g id="a_node11"><a xlink:href="basic_8h.html" target="_top" xlink:title="Basic object.">
<polygon fill="white" stroke="black" points="294.5,-168.5 294.5,-187.5 345.5,-187.5 345.5,-168.5 294.5,-168.5"/>
<text text-anchor="middle" x="320" y="-175.5" font-family="Helvetica,sans-Serif" font-size="10.00">basic.h</text>
</a>
</g>
</g>
<!-- Node2&#45;&gt;Node11 -->
<g id="edge13" class="edge">
<title>Node2&#45;&gt;Node11</title>
<path fill="none" stroke="midnightblue" d="M181.65,-504.42C191.37,-496.07 205.47,-482.54 214,-468 229.3,-441.93 234,-433.23 234,-403 234,-403 234,-403 234,-289 234,-247.58 272.31,-212.45 297.79,-193.67"/>
<polygon fill="midnightblue" stroke="midnightblue" points="300.05,-196.36 306.18,-187.72 296,-190.64 300.05,-196.36"/>
</g>
<!-- Node13 -->
<g id="node13" class="node">
<title>Node13</title>
<g id="a_node13"><a xlink:href="util_8h.html" target="_top" xlink:title="Utility functions.">
<polygon fill="white" stroke="black" points="683.5,-448.5 683.5,-467.5 724.5,-467.5 724.5,-448.5 683.5,-448.5"/>
<text text-anchor="middle" x="704" y="-455.5" font-family="Helvetica,sans-Serif" font-size="10.00">util.h</text>
</a>
</g>
</g>
<!-- Node2&#45;&gt;Node13 -->
<g id="edge17" class="edge">
<title>Node2&#45;&gt;Node13</title>
<path fill="none" stroke="midnightblue" d="M206.38,-509.42C304.79,-499.45 580.54,-471.51 673.19,-462.12"/>
<polygon fill="midnightblue" stroke="midnightblue" points="673.72,-465.59 683.32,-461.1 673.01,-458.62 673.72,-465.59"/>
</g>
<!-- Node4 -->
<g id="node4" class="node">
<title>Node4</title>
<g id="a_node4"><a xlink:href="include__asm_8h.html" target="_top" xlink:title=" ">
<polygon fill="white" stroke="black" points="254.5,-0.5 254.5,-19.5 341.5,-19.5 341.5,-0.5 254.5,-0.5"/>
<text text-anchor="middle" x="298" y="-7.5" font-family="Helvetica,sans-Serif" font-size="10.00">include_asm.h</text>
</a>
</g>
</g>
<!-- Node3&#45;&gt;Node4 -->
<g id="edge3" class="edge">
<title>Node3&#45;&gt;Node4</title>
<path fill="none" stroke="midnightblue" d="M430.96,-56.44C404.38,-47.36 362.19,-32.94 332.48,-22.78"/>
<polygon fill="midnightblue" stroke="midnightblue" points="333.51,-19.44 322.92,-19.52 331.25,-26.06 333.51,-19.44"/>
</g>
<!-- Node5 -->
<g id="node5" class="node">
<title>Node5</title>
<g id="a_node5"><a xlink:href="include__rodata_8h.html" target="_top" xlink:title=" ">
<polygon fill="white" stroke="black" points="360,-0.5 360,-19.5 458,-19.5 458,-0.5 360,-0.5"/>
<text text-anchor="middle" x="409" y="-7.5" font-family="Helvetica,sans-Serif" font-size="10.00">include_rodata.h</text>
</a>
</g>
</g>
<!-- Node3&#45;&gt;Node5 -->
<g id="edge4" class="edge">
<title>Node3&#45;&gt;Node5</title>
<path fill="none" stroke="midnightblue" d="M448.24,-56.08C441.46,-48.3 431.46,-36.8 423.24,-27.37"/>
<polygon fill="midnightblue" stroke="midnightblue" points="425.82,-25 416.62,-19.75 420.54,-29.59 425.82,-25"/>
</g>
<!-- Node6 -->
<g id="node6" class="node">
<title>Node6</title>
<g id="a_node6"><a xlink:href="types_8h.html" target="_top" xlink:title="Types used throughout the engine.">
<polygon fill="white" stroke="black" points="476.5,-0.5 476.5,-19.5 529.5,-19.5 529.5,-0.5 476.5,-0.5"/>
<text text-anchor="middle" x="503" y="-7.5" font-family="Helvetica,sans-Serif" font-size="10.00">types.h</text>
</a>
</g>
</g>
<!-- Node3&#45;&gt;Node6 -->
<g id="edge5" class="edge">
<title>Node3&#45;&gt;Node6</title>
<path fill="none" stroke="midnightblue" d="M463.76,-56.08C470.54,-48.3 480.54,-36.8 488.76,-27.37"/>
<polygon fill="midnightblue" stroke="midnightblue" points="491.46,-29.59 495.38,-19.75 486.18,-25 491.46,-29.59"/>
</g>
<!-- Node7 -->
<g id="node7" class="node">
<title>Node7</title>
<g id="a_node7"><a xlink:href="vtables_8h.html" target="_top" xlink:title=" ">
<polygon fill="white" stroke="black" points="548,-0.5 548,-19.5 610,-19.5 610,-0.5 548,-0.5"/>
<text text-anchor="middle" x="579" y="-7.5" font-family="Helvetica,sans-Serif" font-size="10.00">vtables.h</text>
</a>
</g>
</g>
<!-- Node3&#45;&gt;Node7 -->
<g id="edge6" class="edge">
<title>Node3&#45;&gt;Node7</title>
<path fill="none" stroke="midnightblue" d="M475.49,-56.44C495.64,-47.6 527.32,-33.69 550.33,-23.59"/>
<polygon fill="midnightblue" stroke="midnightblue" points="551.85,-26.74 559.6,-19.52 549.04,-20.33 551.85,-26.74"/>
</g>
<!-- Node8&#45;&gt;Node3 -->
<g id="edge8" class="edge">
<title>Node8&#45;&gt;Node3</title>
<path fill="none" stroke="midnightblue" d="M73.26,-224.2C77.03,-201.41 90.45,-140.32 129,-112 173.09,-79.61 333.3,-70.5 411.9,-67.97"/>
<polygon fill="midnightblue" stroke="midnightblue" points="412.09,-71.46 421.98,-67.66 411.88,-64.47 412.09,-71.46"/>
</g>
<!-- Node9&#45;&gt;Node3 -->
<g id="edge10" class="edge">
<title>Node9&#45;&gt;Node3</title>
<path fill="none" stroke="midnightblue" d="M117.91,-392.36C125.83,-374.07 143,-329.91 143,-291 143,-291 143,-291 143,-177 143,-144.6 149.82,-131.09 176,-112 212.8,-85.16 342.64,-73.61 411.83,-69.27"/>
<polygon fill="midnightblue" stroke="midnightblue" points="412.21,-72.75 421.98,-68.66 411.79,-65.77 412.21,-72.75"/>
</g>
<!-- Node10&#45;&gt;Node3 -->
<g id="edge12" class="edge">
<title>Node10&#45;&gt;Node3</title>
<path fill="none" stroke="midnightblue" d="M173.56,-448.25C178.75,-429.74 190,-385.18 190,-347 190,-347 190,-347 190,-177 190,-82.26 335.88,-67.51 411.58,-66.24"/>
<polygon fill="midnightblue" stroke="midnightblue" points="411.8,-69.74 421.77,-66.14 411.74,-62.74 411.8,-69.74"/>
</g>
<!-- Node11&#45;&gt;Node3 -->
<g id="edge14" class="edge">
<title>Node11&#45;&gt;Node3</title>
<path fill="none" stroke="midnightblue" d="M330.67,-168.37C353.71,-149.73 408.36,-105.53 437.29,-82.13"/>
<polygon fill="midnightblue" stroke="midnightblue" points="439.8,-84.6 445.38,-75.59 435.4,-79.16 439.8,-84.6"/>
</g>
<!-- Node12 -->
<g id="node12" class="node">
<title>Node12</title>
<g id="a_node12"><a xlink:href="sidebag_8h.html" target="_top" xlink:title="Sidebag for splice.">
<polygon fill="white" stroke="black" points="256.5,-112.5 256.5,-131.5 351.5,-131.5 351.5,-112.5 256.5,-112.5"/>
<text text-anchor="middle" x="304" y="-119.5" font-family="Helvetica,sans-Serif" font-size="10.00">splice/sidebag.h</text>
</a>
</g>
</g>
<!-- Node11&#45;&gt;Node12 -->
<g id="edge15" class="edge">
<title>Node11&#45;&gt;Node12</title>
<path fill="none" stroke="midnightblue" d="M317.36,-168.08C315.21,-160.85 312.12,-150.41 309.45,-141.4"/>
<polygon fill="midnightblue" stroke="midnightblue" points="312.79,-140.34 306.59,-131.75 306.08,-142.33 312.79,-140.34"/>
</g>
<!-- Node12&#45;&gt;Node3 -->
<g id="edge16" class="edge">
<title>Node12&#45;&gt;Node3</title>
<path fill="none" stroke="midnightblue" d="M328.08,-112.44C353.54,-103.4 393.89,-89.06 422.46,-78.92"/>
<polygon fill="midnightblue" stroke="midnightblue" points="423.78,-82.16 432.03,-75.52 421.43,-75.57 423.78,-82.16"/>
</g>
<!-- Node13&#45;&gt;Node3 -->
<g id="edge18" class="edge">
<title>Node13&#45;&gt;Node3</title>
<path fill="none" stroke="midnightblue" d="M703.22,-448.27C701.78,-427.16 700.71,-372.41 724,-336 739.34,-312.01 762.24,-324.35 777,-300 820.32,-228.52 835.9,-165.89 772,-112 731.79,-78.09 577.47,-69.73 500.37,-67.67"/>
<polygon fill="midnightblue" stroke="midnightblue" points="500.11,-64.16 490.03,-67.42 499.94,-71.16 500.11,-64.16"/>
</g>
<!-- Node14 -->
<g id="node14" class="node">
<title>Node14</title>
<g id="a_node14"><a xlink:href="mat_8h.html" target="_top" xlink:title="3x3 and 4x4 matrix types.">
<polygon fill="white" stroke="black" points="792.5,-392.5 792.5,-411.5 837.5,-411.5 837.5,-392.5 792.5,-392.5"/>
<text text-anchor="middle" x="815" y="-399.5" font-family="Helvetica,sans-Serif" font-size="10.00">mat.h</text>
</a>
</g>
</g>
<!-- Node13&#45;&gt;Node14 -->
<g id="edge19" class="edge">
<title>Node13&#45;&gt;Node14</title>
<path fill="none" stroke="midnightblue" d="M721.83,-448.32C739.72,-439.62 767.48,-426.12 788.05,-416.11"/>
<polygon fill="midnightblue" stroke="midnightblue" points="789.75,-419.18 797.21,-411.65 786.69,-412.88 789.75,-419.18"/>
</g>
<!-- Node15 -->
<g id="node15" class="node">
<title>Node15</title>
<g id="a_node15"><a xlink:href="vec_8h.html" target="_top" xlink:title="Vector math functions.">
<polygon fill="white" stroke="black" points="731.5,-392.5 731.5,-411.5 774.5,-411.5 774.5,-392.5 731.5,-392.5"/>
<text text-anchor="middle" x="753" y="-399.5" font-family="Helvetica,sans-Serif" font-size="10.00">vec.h</text>
</a>
</g>
</g>
<!-- Node13&#45;&gt;Node15 -->
<g id="edge20" class="edge">
<title>Node13&#45;&gt;Node15</title>
<path fill="none" stroke="midnightblue" d="M712.09,-448.08C719.16,-440.3 729.59,-428.8 738.15,-419.37"/>
<polygon fill="midnightblue" stroke="midnightblue" points="740.93,-421.51 745.06,-411.75 735.75,-416.8 740.93,-421.51"/>
</g>
<!-- Node24 -->
<g id="node24" class="node">
<title>Node24</title>
<g id="a_node24"><a xlink:href="sm_8h.html" target="_top" xlink:title="State machines.">
<polygon fill="white" stroke="black" points="542.5,-336.5 542.5,-355.5 583.5,-355.5 583.5,-336.5 542.5,-336.5"/>
<text text-anchor="middle" x="563" y="-343.5" font-family="Helvetica,sans-Serif" font-size="10.00">sm.h</text>
</a>
</g>
</g>
<!-- Node13&#45;&gt;Node24 -->
<g id="edge39" class="edge">
<title>Node13&#45;&gt;Node24</title>
<path fill="none" stroke="midnightblue" d="M692.94,-448.37C668.95,-429.65 611.9,-385.15 582.01,-361.83"/>
<polygon fill="midnightblue" stroke="midnightblue" points="584.05,-358.98 574.01,-355.59 579.74,-364.5 584.05,-358.98"/>
</g>
<!-- Node16 -->
<g id="node16" class="node">
<title>Node16</title>
<g id="a_node16"><a xlink:href="so_8h.html" target="_top" xlink:title="Scene objects.">
<polygon fill="white" stroke="black" points="733.5,-336.5 733.5,-355.5 770.5,-355.5 770.5,-336.5 733.5,-336.5"/>
<text text-anchor="middle" x="752" y="-343.5" font-family="Helvetica,sans-Serif" font-size="10.00">so.h</text>
</a>
</g>
</g>
<!-- Node15&#45;&gt;Node16 -->
<g id="edge21" class="edge">
<title>Node15&#45;&gt;Node16</title>
<path fill="none" stroke="midnightblue" d="M752.83,-392.08C752.7,-385.01 752.52,-374.86 752.35,-365.99"/>
<polygon fill="midnightblue" stroke="midnightblue" points="755.85,-365.68 752.16,-355.75 748.85,-365.81 755.85,-365.68"/>
</g>
<!-- Node17 -->
<g id="node17" class="node">
<title>Node17</title>
<g id="a_node17"><a xlink:href="alo_8h.html" target="_top" xlink:title=" ">
<polygon fill="white" stroke="black" points="727.5,-280.5 727.5,-299.5 768.5,-299.5 768.5,-280.5 727.5,-280.5"/>
<text text-anchor="middle" x="748" y="-287.5" font-family="Helvetica,sans-Serif" font-size="10.00">alo.h</text>
</a>
</g>
</g>
<!-- Node16&#45;&gt;Node17 -->
<g id="edge22" class="edge">
<title>Node16&#45;&gt;Node17</title>
<path fill="none" stroke="midnightblue" d="M751.34,-336.08C750.82,-329.01 750.06,-318.86 749.41,-309.99"/>
<polygon fill="midnightblue" stroke="midnightblue" points="752.88,-309.47 748.65,-299.75 745.9,-309.98 752.88,-309.47"/>
</g>
<!-- Node17&#45;&gt;Node3 -->
<g id="edge23" class="edge">
<title>Node17&#45;&gt;Node3</title>
<path fill="none" stroke="midnightblue" d="M751.94,-280.29C764.41,-251.23 799.48,-156.9 751,-112 715.36,-78.99 573.64,-70.2 500.37,-67.85"/>
<polygon fill="midnightblue" stroke="midnightblue" points="500.18,-64.34 490.08,-67.55 499.98,-71.34 500.18,-64.34"/>
</g>
<!-- Node18 -->
<g id="node18" class="node">
<title>Node18</title>
<g id="a_node18"><a xlink:href="lo_8h.html" target="_top" xlink:title="Level objects.">
<polygon fill="white" stroke="black" points="565.5,-224.5 565.5,-243.5 600.5,-243.5 600.5,-224.5 565.5,-224.5"/>
<text text-anchor="middle" x="583" y="-231.5" font-family="Helvetica,sans-Serif" font-size="10.00">lo.h</text>
</a>
</g>
</g>
<!-- Node17&#45;&gt;Node18 -->
<g id="edge24" class="edge">
<title>Node17&#45;&gt;Node18</title>
<path fill="none" stroke="midnightblue" d="M727.44,-282.27C697.97,-272.63 643.66,-254.85 610.69,-244.06"/>
<polygon fill="midnightblue" stroke="midnightblue" points="611.38,-240.61 600.79,-240.82 609.21,-247.26 611.38,-240.61"/>
</g>
<!-- Node20 -->
<g id="node20" class="node">
<title>Node20</title>
<g id="a_node20"><a xlink:href="dl_8h.html" target="_top" xlink:title=" ">
<polygon fill="white" stroke="black" points="720.5,-168.5 720.5,-187.5 755.5,-187.5 755.5,-168.5 720.5,-168.5"/>
<text text-anchor="middle" x="738" y="-175.5" font-family="Helvetica,sans-Serif" font-size="10.00">dl.h</text>
</a>
</g>
</g>
<!-- Node17&#45;&gt;Node20 -->
<g id="edge38" class="edge">
<title>Node17&#45;&gt;Node20</title>
<path fill="none" stroke="midnightblue" d="M747.22,-280.37C745.6,-262.62 741.88,-221.67 739.69,-197.6"/>
<polygon fill="midnightblue" stroke="midnightblue" points="743.17,-197.23 738.78,-187.59 736.2,-197.87 743.17,-197.23"/>
</g>
<!-- Node18&#45;&gt;Node3 -->
<g id="edge25" class="edge">
<title>Node18&#45;&gt;Node3</title>
<path fill="none" stroke="midnightblue" d="M592.43,-224.3C614.12,-203.24 663.54,-148.6 635,-112 618.57,-90.93 547.59,-78.21 500.1,-71.91"/>
<polygon fill="midnightblue" stroke="midnightblue" points="500.42,-68.42 490.05,-70.63 499.53,-75.37 500.42,-68.42"/>
</g>
<!-- Node18&#45;&gt;Node11 -->
<g id="edge28" class="edge">
<title>Node18&#45;&gt;Node11</title>
<path fill="none" stroke="midnightblue" d="M565.34,-229.37C522.62,-220.6 413.04,-198.1 355.89,-186.37"/>
<polygon fill="midnightblue" stroke="midnightblue" points="356.36,-182.89 345.86,-184.31 354.95,-189.75 356.36,-182.89"/>
</g>
<!-- Node19 -->
<g id="node19" class="node">
<title>Node19</title>
<g id="a_node19"><a xlink:href="oid_8h.html" target="_top" xlink:title="Object IDs.">
<polygon fill="white" stroke="black" points="682.5,-112.5 682.5,-131.5 723.5,-131.5 723.5,-112.5 682.5,-112.5"/>
<text text-anchor="middle" x="703" y="-119.5" font-family="Helvetica,sans-Serif" font-size="10.00">oid.h</text>
</a>
</g>
</g>
<!-- Node18&#45;&gt;Node19 -->
<g id="edge26" class="edge">
<title>Node18&#45;&gt;Node19</title>
<path fill="none" stroke="midnightblue" d="M600.51,-227.22C619.15,-220.34 648.57,-207.29 668,-188 681.33,-174.76 690.88,-155.36 696.6,-141.21"/>
<polygon fill="midnightblue" stroke="midnightblue" points="699.97,-142.18 700.22,-131.59 693.42,-139.71 699.97,-142.18"/>
</g>
<!-- Node18&#45;&gt;Node20 -->
<g id="edge29" class="edge">
<title>Node18&#45;&gt;Node20</title>
<path fill="none" stroke="midnightblue" d="M600.78,-226.81C627.76,-217.41 679.24,-199.47 710.9,-188.44"/>
<polygon fill="midnightblue" stroke="midnightblue" points="712.14,-191.72 720.43,-185.12 709.83,-185.11 712.14,-191.72"/>
</g>
<!-- Node21 -->
<g id="node21" class="node">
<title>Node21</title>
<g id="a_node21"><a xlink:href="sw_8h.html" target="_top" xlink:title="Scene world?">
<polygon fill="white" stroke="black" points="484,-112.5 484,-131.5 522,-131.5 522,-112.5 484,-112.5"/>
<text text-anchor="middle" x="503" y="-119.5" font-family="Helvetica,sans-Serif" font-size="10.00">sw.h</text>
</a>
</g>
</g>
<!-- Node18&#45;&gt;Node21 -->
<g id="edge32" class="edge">
<title>Node18&#45;&gt;Node21</title>
<path fill="none" stroke="midnightblue" d="M576.72,-224.37C563.52,-206.22 532.67,-163.8 515.36,-139.99"/>
<polygon fill="midnightblue" stroke="midnightblue" points="517.96,-137.62 509.25,-131.59 512.3,-141.74 517.96,-137.62"/>
</g>
<!-- Node22 -->
<g id="node22" class="node">
<title>Node22</title>
<g id="a_node22"><a xlink:href="frame_8h.html" target="_top" xlink:title=" ">
<polygon fill="white" stroke="black" points="540,-112.5 540,-131.5 626,-131.5 626,-112.5 540,-112.5"/>
<text text-anchor="middle" x="583" y="-119.5" font-family="Helvetica,sans-Serif" font-size="10.00">splice/frame.h</text>
</a>
</g>
</g>
<!-- Node18&#45;&gt;Node22 -->
<g id="edge34" class="edge">
<title>Node18&#45;&gt;Node22</title>
<path fill="none" stroke="midnightblue" d="M583,-224.37C583,-206.62 583,-165.67 583,-141.6"/>
<polygon fill="midnightblue" stroke="midnightblue" points="586.5,-141.59 583,-131.59 579.5,-141.59 586.5,-141.59"/>
</g>
<!-- Node23 -->
<g id="node23" class="node">
<title>Node23</title>
<g id="a_node23"><a xlink:href="mq_8h.html" target="_top" xlink:title="Message queue(?).">
<polygon fill="white" stroke="black" points="446.5,-168.5 446.5,-187.5 487.5,-187.5 487.5,-168.5 446.5,-168.5"/>
<text text-anchor="middle" x="467" y="-175.5" font-family="Helvetica,sans-Serif" font-size="10.00">mq.h</text>
</a>
</g>
</g>
<!-- Node18&#45;&gt;Node23 -->
<g id="edge36" class="edge">
<title>Node18&#45;&gt;Node23</title>
<path fill="none" stroke="midnightblue" d="M565.38,-224.8C546.61,-216.06 516.64,-202.11 494.7,-191.9"/>
<polygon fill="midnightblue" stroke="midnightblue" points="496.1,-188.68 485.55,-187.64 493.14,-195.03 496.1,-188.68"/>
</g>
<!-- Node19&#45;&gt;Node3 -->
<g id="edge27" class="edge">
<title>Node19&#45;&gt;Node3</title>
<path fill="none" stroke="midnightblue" d="M682.31,-115.52C677.61,-114.32 672.64,-113.09 668,-112 610.18,-98.44 543.06,-84.49 500.1,-75.79"/>
<polygon fill="midnightblue" stroke="midnightblue" points="500.74,-72.35 490.25,-73.8 499.36,-79.21 500.74,-72.35"/>
</g>
<!-- Node20&#45;&gt;Node3 -->
<g id="edge30" class="edge">
<title>Node20&#45;&gt;Node3</title>
<path fill="none" stroke="midnightblue" d="M740.22,-168.09C743.1,-154.16 746.22,-127.25 732,-112 701.29,-79.07 570.2,-70.24 500.3,-67.87"/>
<polygon fill="midnightblue" stroke="midnightblue" points="500.15,-64.36 490.04,-67.55 499.93,-71.36 500.15,-64.36"/>
</g>
<!-- Node20&#45;&gt;Node19 -->
<g id="edge31" class="edge">
<title>Node20&#45;&gt;Node19</title>
<path fill="none" stroke="midnightblue" d="M732.22,-168.08C727.33,-160.53 720.17,-149.49 714.17,-140.23"/>
<polygon fill="midnightblue" stroke="midnightblue" points="717.05,-138.24 708.67,-131.75 711.17,-142.05 717.05,-138.24"/>
</g>
<!-- Node21&#45;&gt;Node3 -->
<g id="edge33" class="edge">
<title>Node21&#45;&gt;Node3</title>
<path fill="none" stroke="midnightblue" d="M495.24,-112.08C488.46,-104.3 478.46,-92.8 470.24,-83.37"/>
<polygon fill="midnightblue" stroke="midnightblue" points="472.82,-81 463.62,-75.75 467.54,-85.59 472.82,-81"/>
</g>
<!-- Node22&#45;&gt;Node3 -->
<g id="edge35" class="edge">
<title>Node22&#45;&gt;Node3</title>
<path fill="none" stroke="midnightblue" d="M562.88,-112.44C541.98,-103.56 509.07,-89.56 485.28,-79.45"/>
<polygon fill="midnightblue" stroke="midnightblue" points="486.6,-76.21 476.03,-75.52 483.86,-82.65 486.6,-76.21"/>
</g>
<!-- Node23&#45;&gt;Node3 -->
<g id="edge37" class="edge">
<title>Node23&#45;&gt;Node3</title>
<path fill="none" stroke="midnightblue" d="M466.14,-168.37C464.36,-150.62 460.27,-109.67 457.86,-85.6"/>
<polygon fill="midnightblue" stroke="midnightblue" points="461.34,-85.19 456.86,-75.59 454.37,-85.89 461.34,-85.19"/>
</g>
<!-- Node24&#45;&gt;Node3 -->
<g id="edge40" class="edge">
<title>Node24&#45;&gt;Node3</title>
<path fill="none" stroke="midnightblue" d="M542.31,-340.28C478.77,-324.44 288.29,-266.39 247,-132 244.39,-123.5 241.42,-118.92 247,-112 267.26,-86.91 356.34,-75.14 411.46,-70.18"/>
<polygon fill="midnightblue" stroke="midnightblue" points="412,-73.64 421.67,-69.3 411.4,-66.67 412,-73.64"/>
</g>
<!-- Node24&#45;&gt;Node20 -->
<g id="edge41" class="edge">
<title>Node24&#45;&gt;Node20</title>
<path fill="none" stroke="midnightblue" d="M572.41,-336.08C600.79,-309.15 685.8,-228.51 721.71,-194.45"/>
<polygon fill="midnightblue" stroke="midnightblue" points="724.12,-196.99 728.97,-187.57 719.3,-191.91 724.12,-196.99"/>
</g>
<!-- Node24&#45;&gt;Node23 -->
<g id="edge45" class="edge">
<title>Node24&#45;&gt;Node23</title>
<path fill="none" stroke="midnightblue" d="M555.75,-336.36C548.53,-327.53 537.33,-313.27 529,-300 507.04,-264.99 486.11,-221.27 475.08,-197.13"/>
<polygon fill="midnightblue" stroke="midnightblue" points="478.17,-195.46 470.86,-187.79 471.79,-198.34 478.17,-195.46"/>
</g>
<!-- Node25 -->
<g id="node25" class="node">
<title>Node25</title>
<g id="a_node25"><a xlink:href="anim_8h.html" target="_top" xlink:title="Animation.">
<polygon fill="white" stroke="black" points="538,-280.5 538,-299.5 588,-299.5 588,-280.5 538,-280.5"/>
<text text-anchor="middle" x="563" y="-287.5" font-family="Helvetica,sans-Serif" font-size="10.00">anim.h</text>
</a>
</g>
</g>
<!-- Node24&#45;&gt;Node25 -->
<g id="edge42" class="edge">
<title>Node24&#45;&gt;Node25</title>
<path fill="none" stroke="midnightblue" d="M563,-336.08C563,-329.01 563,-318.86 563,-309.99"/>
<polygon fill="midnightblue" stroke="midnightblue" points="566.5,-309.75 563,-299.75 559.5,-309.75 566.5,-309.75"/>
</g>
<!-- Node25&#45;&gt;Node3 -->
<g id="edge43" class="edge">
<title>Node25&#45;&gt;Node3</title>
<path fill="none" stroke="midnightblue" d="M543.52,-280.33C514.05,-265.99 459.2,-234.25 437,-188 420.74,-154.12 435.99,-109.34 446.99,-84.87"/>
<polygon fill="midnightblue" stroke="midnightblue" points="450.21,-86.25 451.34,-75.71 443.89,-83.24 450.21,-86.25"/>
</g>
<!-- Node25&#45;&gt;Node18 -->
<g id="edge44" class="edge">
<title>Node25&#45;&gt;Node18</title>
<path fill="none" stroke="midnightblue" d="M566.3,-280.08C568.98,-272.85 572.85,-262.41 576.19,-253.4"/>
<polygon fill="midnightblue" stroke="midnightblue" points="579.57,-254.34 579.76,-243.75 573,-251.91 579.57,-254.34"/>
</g>
<!-- Node26&#45;&gt;Node3 -->
<g id="edge47" class="edge">
<title>Node26&#45;&gt;Node3</title>
<path fill="none" stroke="midnightblue" d="M773.2,-504.49C805.7,-489.29 866,-454.2 866,-403 866,-403 866,-403 866,-177 866,-134.54 834.41,-130.08 796,-112 744.51,-87.76 580.32,-74.63 500.47,-69.53"/>
<polygon fill="midnightblue" stroke="midnightblue" points="500.44,-66.02 490.24,-68.89 500,-73.01 500.44,-66.02"/>
</g>
<!-- Node26&#45;&gt;Node13 -->
<g id="edge50" class="edge">
<title>Node26&#45;&gt;Node13</title>
<path fill="none" stroke="midnightblue" d="M744.91,-504.08C737.84,-496.3 727.41,-484.8 718.85,-475.37"/>
<polygon fill="midnightblue" stroke="midnightblue" points="721.25,-472.8 711.94,-467.75 716.07,-477.51 721.25,-472.8"/>
</g>
<!-- Node26&#45;&gt;Node14 -->
<g id="edge49" class="edge">
<title>Node26&#45;&gt;Node14</title>
<path fill="none" stroke="midnightblue" d="M757.87,-504.37C768.05,-486.3 791.79,-444.18 805.24,-420.31"/>
<polygon fill="midnightblue" stroke="midnightblue" points="808.3,-422.02 810.16,-411.59 802.2,-418.58 808.3,-422.02"/>
</g>
<!-- Node26&#45;&gt;Node15 -->
<g id="edge48" class="edge">
<title>Node26&#45;&gt;Node15</title>
<path fill="none" stroke="midnightblue" d="M753,-504.37C753,-486.62 753,-445.67 753,-421.6"/>
<polygon fill="midnightblue" stroke="midnightblue" points="756.5,-421.59 753,-411.59 749.5,-421.59 756.5,-421.59"/>
</g>
</g>
</svg>
