<?xml version="1.0" encoding="UTF-8" standalone="no"?>
<!DOCTYPE svg PUBLIC "-//W3C//DTD SVG 1.1//EN"
 "http://www.w3.org/Graphics/SVG/1.1/DTD/svg11.dtd">
<!-- Generated by graphviz version 2.43.0 (0)
 -->
<!-- Title: src/P2/splice/ref.cpp Pages: 1 -->
<!--zoomable 476 -->
<svg id="main" version="1.1" xmlns="http://www.w3.org/2000/svg" xmlns:xlink="http://www.w3.org/1999/xlink" xml:space="preserve" onload="init(evt)">
<style type="text/css"><![CDATA[
.edge:hover path { stroke: red; }
.edge:hover polygon { stroke: red; fill: red; }
]]></style>
<script type="text/javascript"><![CDATA[
var edges = document.getElementsByTagName('g');
if (edges && edges.length) {
  for (var i=0;i<edges.length;i++) {
    if (edges[i].id.substr(0,4)=='edge') {
      edges[i].setAttribute('class','edge');
    }
  }
}
]]></script>
        <defs>
                <circle id="rim" cx="0" cy="0" r="7"/>
                <circle id="rim2" cx="0" cy="0" r="3.5"/>
                <g id="zoomPlus">
                        <use xlink:href="#rim" fill="#404040">
                                <set attributeName="fill" to="#808080" begin="zoomplus.mouseover" end="zoomplus.mouseout"/>
                        </use>
                        <path d="M-4,0h8M0,-4v8" fill="none" stroke="white" stroke-width="1.5" pointer-events="none"/>
                </g>
                <g id="zoomMin">
                        <use xlink:href="#rim" fill="#404040">
                                <set attributeName="fill" to="#808080" begin="zoomminus.mouseover" end="zoomminus.mouseout"/>
                        </use>
                        <path d="M-4,0h8" fill="none" stroke="white" stroke-width="1.5" pointer-events="none"/>
                </g>
                <g id="dirArrow">
                        <path fill="none" stroke="white" stroke-width="1.5" d="M0,-3.0v7 M-2.5,-0.5L0,-3.0L2.5,-0.5"/>
                </g>
               <g id="resetDef">
                       <use xlink:href="#rim2" fill="#404040">
                               <set attributeName="fill" to="#808080" begin="reset.mouseover" end="reset.mouseout"/>
                       </use>
               </g>
        </defs>

<script type="text/javascript">
var viewWidth = 546;
var viewHeight = 476;
var sectionId = 'dynsection-0';
</script>
<script xlink:href="svgpan.js"/>
<svg id="graph" class="graph">
<g id="viewport">
<title>src/P2/splice/ref.cpp</title>
<polygon fill="white" stroke="transparent" points="-4,4 -4,-472 542,-472 542,4 -4,4"/>
<!-- Node1 -->
<g id="node1" class="node">
<title>Node1</title>
<g id="a_node1"><a xlink:title=" ">
<polygon fill="#bfbfbf" stroke="black" points="249,-448.5 249,-467.5 362,-467.5 362,-448.5 249,-448.5"/>
<text text-anchor="middle" x="305.5" y="-455.5" font-family="Helvetica,sans-Serif" font-size="10.00">src/P2/splice/ref.cpp</text>
</a>
</g>
</g>
<!-- Node2 -->
<g id="node2" class="node">
<title>Node2</title>
<g id="a_node2"><a xlink:href="ref_8h.html" target="_top" xlink:title=" ">
<polygon fill="white" stroke="black" points="220.5,-392.5 220.5,-411.5 290.5,-411.5 290.5,-392.5 220.5,-392.5"/>
<text text-anchor="middle" x="255.5" y="-399.5" font-family="Helvetica,sans-Serif" font-size="10.00">splice/ref.h</text>
</a>
</g>
</g>
<!-- Node1&#45;&gt;Node2 -->
<g id="edge1" class="edge">
<title>Node1&#45;&gt;Node2</title>
<path fill="none" stroke="midnightblue" d="M297.24,-448.08C290.04,-440.3 279.39,-428.8 270.65,-419.37"/>
<polygon fill="midnightblue" stroke="midnightblue" points="272.97,-416.71 263.6,-411.75 267.83,-421.47 272.97,-416.71"/>
</g>
<!-- Node21 -->
<g id="node21" class="node">
<title>Node21</title>
<g id="a_node21"><a xlink:href="vecmat_8h.html" target="_top" xlink:title=" ">
<polygon fill="white" stroke="black" points="330.5,-392.5 330.5,-411.5 424.5,-411.5 424.5,-392.5 330.5,-392.5"/>
<text text-anchor="middle" x="377.5" y="-399.5" font-family="Helvetica,sans-Serif" font-size="10.00">splice/vecmat.h</text>
</a>
</g>
</g>
<!-- Node1&#45;&gt;Node21 -->
<g id="edge26" class="edge">
<title>Node1&#45;&gt;Node21</title>
<path fill="none" stroke="midnightblue" d="M317.07,-448.32C327.92,-440.18 344.38,-427.84 357.38,-418.09"/>
<polygon fill="midnightblue" stroke="midnightblue" points="359.82,-420.63 365.72,-411.83 355.62,-415.03 359.82,-420.63"/>
</g>
<!-- Node3 -->
<g id="node3" class="node">
<title>Node3</title>
<g id="a_node3"><a xlink:href="proc_8h.html" target="_top" xlink:title=" ">
<polygon fill="white" stroke="black" points="238.5,-336.5 238.5,-355.5 316.5,-355.5 316.5,-336.5 238.5,-336.5"/>
<text text-anchor="middle" x="277.5" y="-343.5" font-family="Helvetica,sans-Serif" font-size="10.00">splice/proc.h</text>
</a>
</g>
</g>
<!-- Node2&#45;&gt;Node3 -->
<g id="edge2" class="edge">
<title>Node2&#45;&gt;Node3</title>
<path fill="none" stroke="midnightblue" d="M259.13,-392.08C262.11,-384.77 266.43,-374.18 270.12,-365.1"/>
<polygon fill="midnightblue" stroke="midnightblue" points="273.4,-366.33 273.93,-355.75 266.92,-363.69 273.4,-366.33"/>
</g>
<!-- Node4 -->
<g id="node4" class="node">
<title>Node4</title>
<g id="a_node4"><a xlink:href="method_8h.html" target="_top" xlink:title=" ">
<polygon fill="white" stroke="black" points="0,-336.5 0,-355.5 95,-355.5 95,-336.5 0,-336.5"/>
<text text-anchor="middle" x="47.5" y="-343.5" font-family="Helvetica,sans-Serif" font-size="10.00">splice/method.h</text>
</a>
</g>
</g>
<!-- Node2&#45;&gt;Node4 -->
<g id="edge3" class="edge">
<title>Node2&#45;&gt;Node4</title>
<path fill="none" stroke="midnightblue" d="M222.54,-392.44C186.71,-383.14 129.34,-368.25 90.11,-358.06"/>
<polygon fill="midnightblue" stroke="midnightblue" points="90.86,-354.64 80.3,-355.52 89.1,-361.42 90.86,-354.64"/>
</g>
<!-- Node5 -->
<g id="node5" class="node">
<title>Node5</title>
<g id="a_node5"><a xlink:href="bif_8h.html" target="_top" xlink:title=" ">
<polygon fill="white" stroke="black" points="113,-336.5 113,-355.5 182,-355.5 182,-336.5 113,-336.5"/>
<text text-anchor="middle" x="147.5" y="-343.5" font-family="Helvetica,sans-Serif" font-size="10.00">splice/bif.h</text>
</a>
</g>
</g>
<!-- Node2&#45;&gt;Node5 -->
<g id="edge4" class="edge">
<title>Node2&#45;&gt;Node5</title>
<path fill="none" stroke="midnightblue" d="M238.15,-392.32C220.83,-383.66 193.98,-370.24 174,-360.25"/>
<polygon fill="midnightblue" stroke="midnightblue" points="175.32,-357 164.81,-355.65 172.19,-363.26 175.32,-357"/>
</g>
<!-- Node6 -->
<g id="node6" class="node">
<title>Node6</title>
<g id="a_node6"><a xlink:href="basic_8h.html" target="_top" xlink:title="Basic object.">
<polygon fill="white" stroke="black" points="176,-56.5 176,-75.5 227,-75.5 227,-56.5 176,-56.5"/>
<text text-anchor="middle" x="201.5" y="-63.5" font-family="Helvetica,sans-Serif" font-size="10.00">basic.h</text>
</a>
</g>
</g>
<!-- Node2&#45;&gt;Node6 -->
<g id="edge5" class="edge">
<title>Node2&#45;&gt;Node6</title>
<path fill="none" stroke="midnightblue" d="M249.24,-392.37C236.88,-374.44 210.5,-331.44 210.5,-291 210.5,-291 210.5,-291 210.5,-177 210.5,-144.84 206.63,-107.57 203.97,-85.71"/>
<polygon fill="midnightblue" stroke="midnightblue" points="207.41,-85.02 202.68,-75.54 200.46,-85.9 207.41,-85.02"/>
</g>
<!-- Node8 -->
<g id="node8" class="node">
<title>Node8</title>
<g id="a_node8"><a xlink:href="util_8h.html" target="_top" xlink:title="Utility functions.">
<polygon fill="white" stroke="black" points="335,-336.5 335,-355.5 376,-355.5 376,-336.5 335,-336.5"/>
<text text-anchor="middle" x="355.5" y="-343.5" font-family="Helvetica,sans-Serif" font-size="10.00">util.h</text>
</a>
</g>
</g>
<!-- Node2&#45;&gt;Node8 -->
<g id="edge7" class="edge">
<title>Node2&#45;&gt;Node8</title>
<path fill="none" stroke="midnightblue" d="M271.57,-392.32C287.46,-383.74 312.01,-370.49 330.46,-360.52"/>
<polygon fill="midnightblue" stroke="midnightblue" points="332.34,-363.49 339.47,-355.65 329.01,-357.33 332.34,-363.49"/>
</g>
<!-- Node7 -->
<g id="node7" class="node">
<title>Node7</title>
<g id="a_node7"><a xlink:href="sidebag_8h.html" target="_top" xlink:title="Sidebag for splice.">
<polygon fill="white" stroke="black" points="154,-0.5 154,-19.5 249,-19.5 249,-0.5 154,-0.5"/>
<text text-anchor="middle" x="201.5" y="-7.5" font-family="Helvetica,sans-Serif" font-size="10.00">splice/sidebag.h</text>
</a>
</g>
</g>
<!-- Node6&#45;&gt;Node7 -->
<g id="edge6" class="edge">
<title>Node6&#45;&gt;Node7</title>
<path fill="none" stroke="midnightblue" d="M201.5,-56.08C201.5,-49.01 201.5,-38.86 201.5,-29.99"/>
<polygon fill="midnightblue" stroke="midnightblue" points="205,-29.75 201.5,-19.75 198,-29.75 205,-29.75"/>
</g>
<!-- Node9 -->
<g id="node9" class="node">
<title>Node9</title>
<g id="a_node9"><a xlink:href="mat_8h.html" target="_top" xlink:title="3x3 and 4x4 matrix types.">
<polygon fill="white" stroke="black" points="373,-280.5 373,-299.5 418,-299.5 418,-280.5 373,-280.5"/>
<text text-anchor="middle" x="395.5" y="-287.5" font-family="Helvetica,sans-Serif" font-size="10.00">mat.h</text>
</a>
</g>
</g>
<!-- Node8&#45;&gt;Node9 -->
<g id="edge8" class="edge">
<title>Node8&#45;&gt;Node9</title>
<path fill="none" stroke="midnightblue" d="M362.11,-336.08C367.76,-328.46 376.04,-317.26 382.95,-307.94"/>
<polygon fill="midnightblue" stroke="midnightblue" points="385.88,-309.87 389.02,-299.75 380.25,-305.7 385.88,-309.87"/>
</g>
<!-- Node10 -->
<g id="node10" class="node">
<title>Node10</title>
<g id="a_node10"><a xlink:href="vec_8h.html" target="_top" xlink:title="Vector math.">
<polygon fill="white" stroke="black" points="436,-280.5 436,-299.5 479,-299.5 479,-280.5 436,-280.5"/>
<text text-anchor="middle" x="457.5" y="-287.5" font-family="Helvetica,sans-Serif" font-size="10.00">vec.h</text>
</a>
</g>
</g>
<!-- Node8&#45;&gt;Node10 -->
<g id="edge9" class="edge">
<title>Node8&#45;&gt;Node10</title>
<path fill="none" stroke="midnightblue" d="M371.89,-336.32C388.17,-327.7 413.37,-314.36 432.22,-304.39"/>
<polygon fill="midnightblue" stroke="midnightblue" points="433.95,-307.43 441.15,-299.65 430.68,-301.24 433.95,-307.43"/>
</g>
<!-- Node19 -->
<g id="node19" class="node">
<title>Node19</title>
<g id="a_node19"><a xlink:href="sm_8h.html" target="_top" xlink:title="State machines.">
<polygon fill="white" stroke="black" points="326,-224.5 326,-243.5 367,-243.5 367,-224.5 326,-224.5"/>
<text text-anchor="middle" x="346.5" y="-231.5" font-family="Helvetica,sans-Serif" font-size="10.00">sm.h</text>
</a>
</g>
</g>
<!-- Node8&#45;&gt;Node19 -->
<g id="edge21" class="edge">
<title>Node8&#45;&gt;Node19</title>
<path fill="none" stroke="midnightblue" d="M354.79,-336.37C353.34,-318.62 349.99,-277.67 348.02,-253.6"/>
<polygon fill="midnightblue" stroke="midnightblue" points="351.51,-253.27 347.2,-243.59 344.53,-253.84 351.51,-253.27"/>
</g>
<!-- Node11 -->
<g id="node11" class="node">
<title>Node11</title>
<g id="a_node11"><a xlink:href="so_8h.html" target="_top" xlink:title="Scene objects.">
<polygon fill="white" stroke="black" points="439,-224.5 439,-243.5 476,-243.5 476,-224.5 439,-224.5"/>
<text text-anchor="middle" x="457.5" y="-231.5" font-family="Helvetica,sans-Serif" font-size="10.00">so.h</text>
</a>
</g>
</g>
<!-- Node10&#45;&gt;Node11 -->
<g id="edge10" class="edge">
<title>Node10&#45;&gt;Node11</title>
<path fill="none" stroke="midnightblue" d="M457.5,-280.08C457.5,-273.01 457.5,-262.86 457.5,-253.99"/>
<polygon fill="midnightblue" stroke="midnightblue" points="461,-253.75 457.5,-243.75 454,-253.75 461,-253.75"/>
</g>
<!-- Node12 -->
<g id="node12" class="node">
<title>Node12</title>
<g id="a_node12"><a xlink:href="alo_8h.html" target="_top" xlink:title=" ">
<polygon fill="white" stroke="black" points="437,-168.5 437,-187.5 478,-187.5 478,-168.5 437,-168.5"/>
<text text-anchor="middle" x="457.5" y="-175.5" font-family="Helvetica,sans-Serif" font-size="10.00">alo.h</text>
</a>
</g>
</g>
<!-- Node11&#45;&gt;Node12 -->
<g id="edge11" class="edge">
<title>Node11&#45;&gt;Node12</title>
<path fill="none" stroke="midnightblue" d="M457.5,-224.08C457.5,-217.01 457.5,-206.86 457.5,-197.99"/>
<polygon fill="midnightblue" stroke="midnightblue" points="461,-197.75 457.5,-187.75 454,-197.75 461,-197.75"/>
</g>
<!-- Node13 -->
<g id="node13" class="node">
<title>Node13</title>
<g id="a_node13"><a xlink:href="lo_8h.html" target="_top" xlink:title="Level objects.">
<polygon fill="white" stroke="black" points="339,-112.5 339,-131.5 374,-131.5 374,-112.5 339,-112.5"/>
<text text-anchor="middle" x="356.5" y="-119.5" font-family="Helvetica,sans-Serif" font-size="10.00">lo.h</text>
</a>
</g>
</g>
<!-- Node12&#45;&gt;Node13 -->
<g id="edge12" class="edge">
<title>Node12&#45;&gt;Node13</title>
<path fill="none" stroke="midnightblue" d="M441.27,-168.32C425.15,-159.7 400.2,-146.36 381.54,-136.39"/>
<polygon fill="midnightblue" stroke="midnightblue" points="383.16,-133.28 372.69,-131.65 379.86,-139.46 383.16,-133.28"/>
</g>
<!-- Node15 -->
<g id="node15" class="node">
<title>Node15</title>
<g id="a_node15"><a xlink:href="dl_8h.html" target="_top" xlink:title="Doubly&#45;linked list.">
<polygon fill="white" stroke="black" points="503,-56.5 503,-75.5 538,-75.5 538,-56.5 503,-56.5"/>
<text text-anchor="middle" x="520.5" y="-63.5" font-family="Helvetica,sans-Serif" font-size="10.00">dl.h</text>
</a>
</g>
</g>
<!-- Node12&#45;&gt;Node15 -->
<g id="edge20" class="edge">
<title>Node12&#45;&gt;Node15</title>
<path fill="none" stroke="midnightblue" d="M462.44,-168.37C472.79,-150.3 496.92,-108.18 510.59,-84.31"/>
<polygon fill="midnightblue" stroke="midnightblue" points="513.65,-86.01 515.58,-75.59 507.57,-82.53 513.65,-86.01"/>
</g>
<!-- Node13&#45;&gt;Node6 -->
<g id="edge14" class="edge">
<title>Node13&#45;&gt;Node6</title>
<path fill="none" stroke="midnightblue" d="M338.72,-114.81C313.68,-106.08 267.53,-90 235.71,-78.92"/>
<polygon fill="midnightblue" stroke="midnightblue" points="236.52,-75.5 225.93,-75.51 234.22,-82.11 236.52,-75.5"/>
</g>
<!-- Node14 -->
<g id="node14" class="node">
<title>Node14</title>
<g id="a_node14"><a xlink:href="oid_8h.html" target="_top" xlink:title="Object IDs.">
<polygon fill="white" stroke="black" points="449,-0.5 449,-19.5 490,-19.5 490,-0.5 449,-0.5"/>
<text text-anchor="middle" x="469.5" y="-7.5" font-family="Helvetica,sans-Serif" font-size="10.00">oid.h</text>
</a>
</g>
</g>
<!-- Node13&#45;&gt;Node14 -->
<g id="edge13" class="edge">
<title>Node13&#45;&gt;Node14</title>
<path fill="none" stroke="midnightblue" d="M365.37,-112.37C384.35,-93.89 429.14,-50.29 453.33,-26.74"/>
<polygon fill="midnightblue" stroke="midnightblue" points="455.95,-29.07 460.67,-19.59 451.07,-24.06 455.95,-29.07"/>
</g>
<!-- Node13&#45;&gt;Node15 -->
<g id="edge15" class="edge">
<title>Node13&#45;&gt;Node15</title>
<path fill="none" stroke="midnightblue" d="M374.24,-115.2C398.73,-107.19 444.52,-92.19 493.05,-76.14"/>
<polygon fill="midnightblue" stroke="midnightblue" points="494.39,-79.38 502.78,-72.92 492.19,-72.74 494.39,-79.38"/>
</g>
<!-- Node16 -->
<g id="node16" class="node">
<title>Node16</title>
<g id="a_node16"><a xlink:href="sw_8h.html" target="_top" xlink:title="Scene world?">
<polygon fill="white" stroke="black" points="446.5,-56.5 446.5,-75.5 484.5,-75.5 484.5,-56.5 446.5,-56.5"/>
<text text-anchor="middle" x="465.5" y="-63.5" font-family="Helvetica,sans-Serif" font-size="10.00">sw.h</text>
</a>
</g>
</g>
<!-- Node13&#45;&gt;Node16 -->
<g id="edge17" class="edge">
<title>Node13&#45;&gt;Node16</title>
<path fill="none" stroke="midnightblue" d="M374.01,-112.32C391.57,-103.62 418.83,-90.12 439.03,-80.11"/>
<polygon fill="midnightblue" stroke="midnightblue" points="440.62,-83.23 448.03,-75.65 437.52,-76.96 440.62,-83.23"/>
</g>
<!-- Node17 -->
<g id="node17" class="node">
<title>Node17</title>
<g id="a_node17"><a xlink:href="frame_8h.html" target="_top" xlink:title=" ">
<polygon fill="white" stroke="black" points="304.5,-56.5 304.5,-75.5 390.5,-75.5 390.5,-56.5 304.5,-56.5"/>
<text text-anchor="middle" x="347.5" y="-63.5" font-family="Helvetica,sans-Serif" font-size="10.00">splice/frame.h</text>
</a>
</g>
</g>
<!-- Node13&#45;&gt;Node17 -->
<g id="edge18" class="edge">
<title>Node13&#45;&gt;Node17</title>
<path fill="none" stroke="midnightblue" d="M355.01,-112.08C353.82,-104.93 352.11,-94.64 350.62,-85.69"/>
<polygon fill="midnightblue" stroke="midnightblue" points="354.05,-85.04 348.96,-75.75 347.15,-86.19 354.05,-85.04"/>
</g>
<!-- Node18 -->
<g id="node18" class="node">
<title>Node18</title>
<g id="a_node18"><a xlink:href="mq_8h.html" target="_top" xlink:title="Message queue.">
<polygon fill="white" stroke="black" points="245,-56.5 245,-75.5 286,-75.5 286,-56.5 245,-56.5"/>
<text text-anchor="middle" x="265.5" y="-63.5" font-family="Helvetica,sans-Serif" font-size="10.00">mq.h</text>
</a>
</g>
</g>
<!-- Node13&#45;&gt;Node18 -->
<g id="edge19" class="edge">
<title>Node13&#45;&gt;Node18</title>
<path fill="none" stroke="midnightblue" d="M341.88,-112.32C327.55,-103.82 305.49,-90.73 288.75,-80.8"/>
<polygon fill="midnightblue" stroke="midnightblue" points="290.47,-77.75 280.08,-75.65 286.9,-83.77 290.47,-77.75"/>
</g>
<!-- Node15&#45;&gt;Node14 -->
<g id="edge16" class="edge">
<title>Node15&#45;&gt;Node14</title>
<path fill="none" stroke="midnightblue" d="M512.08,-56.08C504.65,-48.22 493.65,-36.57 484.69,-27.08"/>
<polygon fill="midnightblue" stroke="midnightblue" points="487.18,-24.62 477.76,-19.75 482.09,-29.42 487.18,-24.62"/>
</g>
<!-- Node19&#45;&gt;Node15 -->
<g id="edge22" class="edge">
<title>Node19&#45;&gt;Node15</title>
<path fill="none" stroke="midnightblue" d="M355.85,-224.08C383.96,-197.27 467.89,-117.19 503.85,-82.89"/>
<polygon fill="midnightblue" stroke="midnightblue" points="506.7,-85 511.52,-75.57 501.87,-79.94 506.7,-85"/>
</g>
<!-- Node19&#45;&gt;Node18 -->
<g id="edge25" class="edge">
<title>Node19&#45;&gt;Node18</title>
<path fill="none" stroke="midnightblue" d="M340.27,-224.3C334.07,-215.42 324.49,-201.13 317.5,-188 298.77,-152.82 281.44,-109.45 272.29,-85.35"/>
<polygon fill="midnightblue" stroke="midnightblue" points="275.47,-83.87 268.68,-75.74 268.91,-86.33 275.47,-83.87"/>
</g>
<!-- Node20 -->
<g id="node20" class="node">
<title>Node20</title>
<g id="a_node20"><a xlink:href="anim_8h.html" target="_top" xlink:title="Animation.">
<polygon fill="white" stroke="black" points="326.5,-168.5 326.5,-187.5 376.5,-187.5 376.5,-168.5 326.5,-168.5"/>
<text text-anchor="middle" x="351.5" y="-175.5" font-family="Helvetica,sans-Serif" font-size="10.00">anim.h</text>
</a>
</g>
</g>
<!-- Node19&#45;&gt;Node20 -->
<g id="edge23" class="edge">
<title>Node19&#45;&gt;Node20</title>
<path fill="none" stroke="midnightblue" d="M347.33,-224.08C347.98,-217.01 348.92,-206.86 349.74,-197.99"/>
<polygon fill="midnightblue" stroke="midnightblue" points="353.25,-198.03 350.69,-187.75 346.28,-197.39 353.25,-198.03"/>
</g>
<!-- Node20&#45;&gt;Node13 -->
<g id="edge24" class="edge">
<title>Node20&#45;&gt;Node13</title>
<path fill="none" stroke="midnightblue" d="M352.33,-168.08C352.98,-161.01 353.92,-150.86 354.74,-141.99"/>
<polygon fill="midnightblue" stroke="midnightblue" points="358.25,-142.03 355.69,-131.75 351.28,-141.39 358.25,-142.03"/>
</g>
<!-- Node21&#45;&gt;Node8 -->
<g id="edge29" class="edge">
<title>Node21&#45;&gt;Node8</title>
<path fill="none" stroke="midnightblue" d="M373.87,-392.08C370.89,-384.77 366.57,-374.18 362.88,-365.1"/>
<polygon fill="midnightblue" stroke="midnightblue" points="366.08,-363.69 359.07,-355.75 359.6,-366.33 366.08,-363.69"/>
</g>
<!-- Node21&#45;&gt;Node9 -->
<g id="edge28" class="edge">
<title>Node21&#45;&gt;Node9</title>
<path fill="none" stroke="midnightblue" d="M379.09,-392.38C380.75,-383.33 383.4,-368.68 385.5,-356 388.07,-340.49 390.77,-322.87 392.71,-309.88"/>
<polygon fill="midnightblue" stroke="midnightblue" points="396.2,-310.25 394.21,-299.84 389.27,-309.22 396.2,-310.25"/>
</g>
<!-- Node21&#45;&gt;Node10 -->
<g id="edge27" class="edge">
<title>Node21&#45;&gt;Node10</title>
<path fill="none" stroke="midnightblue" d="M383.78,-392.37C396.98,-374.22 427.83,-331.8 445.14,-307.99"/>
<polygon fill="midnightblue" stroke="midnightblue" points="448.2,-309.74 451.25,-299.59 442.54,-305.62 448.2,-309.74"/>
</g>
</g>
</svg>
        <g id="navigator" transform="translate(0 0)" fill="#404254">
                <rect fill="#f2f5e9" fill-opacity="0.5" stroke="#606060" stroke-width=".5" x="0" y="0" width="60" height="60"/>
                <use id="zoomplus" xlink:href="#zoomPlus" x="17" y="9" onmousedown="handleZoom(evt,'in')"/>
                <use id="zoomminus" xlink:href="#zoomMin" x="42" y="9" onmousedown="handleZoom(evt,'out')"/>
                <use id="reset" xlink:href="#resetDef" x="30" y="36" onmousedown="handleReset()"/>
                <g id="arrowUp" xlink:href="#dirArrow" transform="translate(30 24)" onmousedown="handlePan(0,-1)">
                  <use xlink:href="#rim" fill="#404040">
                        <set attributeName="fill" to="#808080" begin="arrowUp.mouseover" end="arrowUp.mouseout"/>
                  </use>
                  <path fill="none" stroke="white" stroke-width="1.5" d="M0,-3.0v7 M-2.5,-0.5L0,-3.0L2.5,-0.5"/>
                </g>
                <g id="arrowRight" xlink:href="#dirArrow" transform="rotate(90) translate(36 -43)" onmousedown="handlePan(1,0)">
                  <use xlink:href="#rim" fill="#404040">
                        <set attributeName="fill" to="#808080" begin="arrowRight.mouseover" end="arrowRight.mouseout"/>
                  </use>
                  <path fill="none" stroke="white" stroke-width="1.5" d="M0,-3.0v7 M-2.5,-0.5L0,-3.0L2.5,-0.5"/>
                </g>
                <g id="arrowDown" xlink:href="#dirArrow" transform="rotate(180) translate(-30 -48)" onmousedown="handlePan(0,1)">
                  <use xlink:href="#rim" fill="#404040">
                        <set attributeName="fill" to="#808080" begin="arrowDown.mouseover" end="arrowDown.mouseout"/>
                  </use>
                  <path fill="none" stroke="white" stroke-width="1.5" d="M0,-3.0v7 M-2.5,-0.5L0,-3.0L2.5,-0.5"/>
                </g>
                <g id="arrowLeft" xlink:href="#dirArrow" transform="rotate(270) translate(-36 17)" onmousedown="handlePan(-1,0)">
                  <use xlink:href="#rim" fill="#404040">
                        <set attributeName="fill" to="#808080" begin="arrowLeft.mouseover" end="arrowLeft.mouseout"/>
                  </use>
                  <path fill="none" stroke="white" stroke-width="1.5" d="M0,-3.0v7 M-2.5,-0.5L0,-3.0L2.5,-0.5"/>
                </g>
        </g>
        <svg viewBox="0 0 15 15" width="100%" height="30px" preserveAspectRatio="xMaxYMin meet">
         <g id="arrow_out" transform="scale(0.3 0.3)">
          <a xlink:href="ref_8cpp__incl_org.svg" target="_base">
           <rect id="button" ry="5" rx="5" y="6" x="6" height="38" width="38"
                fill="#f2f5e9" fill-opacity="0.5" stroke="#606060" stroke-width="1.0"/>
           <path id="arrow"
             d="M 11.500037,31.436501 C 11.940474,20.09759 22.043105,11.32322 32.158766,21.979434 L 37.068811,17.246167 C 37.068811,17.246167 37.088388,32 37.088388,32 L 22.160133,31.978069 C 22.160133,31.978069 26.997745,27.140456 26.997745,27.140456 C 18.528582,18.264221 13.291696,25.230495 11.500037,31.436501 z"
             style="fill:#404040;"/>
          </a>
         </g>
        </svg>
</svg>
