<?xml version="1.0" encoding="UTF-8" standalone="no"?>
<!DOCTYPE svg PUBLIC "-//W3C//DTD SVG 1.1//EN"
 "http://www.w3.org/Graphics/SVG/1.1/DTD/svg11.dtd">
<!-- Generated by graphviz version 2.43.0 (0)
 -->
<!-- Title: include/render.h Pages: 1 -->
<!--zoomable 137 -->

<svg id="main" version="1.1" xmlns="http://www.w3.org/2000/svg" xmlns:xlink="http://www.w3.org/1999/xlink" xml:space="preserve" onload="init(evt)">
<style type="text/css"><![CDATA[
.node, .edge {opacity: 0.7;}
.node.selected, .edge.selected {opacity: 1;}
.edge:hover path { stroke: red; }
.edge:hover polygon { stroke: red; fill: red; }
]]></style>

<defs>
  <circle id="rim" cx="0" cy="0" r="7"/>
  <circle id="rim2" cx="0" cy="0" r="3.5"/>
  <g id="zoomPlus">
    <use xlink:href="#rim" fill="#404040"><set attributeName="fill" to="#808080" begin="zoomplus.mouseover" end="zoomplus.mouseout"/></use>
    <path d="M-4,0h8M0,-4v8" fill="none" stroke="white" stroke-width="1.5" pointer-events="none"/>
  </g>
  <g id="zoomMin">
    <use xlink:href="#rim" fill="#404040"><set attributeName="fill" to="#808080" begin="zoomminus.mouseover" end="zoomminus.mouseout"/></use>
    <path d="M-4,0h8" fill="none" stroke="white" stroke-width="1.5" pointer-events="none"/>
  </g>
  <g id="arrowUp" transform="translate(30 24)">
    <use xlink:href="#rim"/>
    <path pointer-events="none" fill="none" stroke="white" stroke-width="1.5" d="M0,-3.0v7 M-2.5,-0.5L0,-3.0L2.5,-0.5"/>
  </g>
  <g id="arrowRight" transform="rotate(90) translate(36 -43)">
    <use xlink:href="#rim"/>
    <path pointer-events="none" fill="none" stroke="white" stroke-width="1.5" d="M0,-3.0v7 M-2.5,-0.5L0,-3.0L2.5,-0.5"/>
  </g>
  <g id="arrowDown" transform="rotate(180) translate(-30 -48)">
    <use xlink:href="#rim"/>
    <path pointer-events="none" fill="none" stroke="white" stroke-width="1.5" d="M0,-3.0v7 M-2.5,-0.5L0,-3.0L2.5,-0.5"/>
  </g>
  <g id="arrowLeft" transform="rotate(270) translate(-36 17)">
    <use xlink:href="#rim"/>
    <path pointer-events="none" fill="none" stroke="white" stroke-width="1.5" d="M0,-3.0v7 M-2.5,-0.5L0,-3.0L2.5,-0.5"/>
  </g>
  <g id="resetDef">
    <use xlink:href="#rim2" fill="#404040"><set attributeName="fill" to="#808080" begin="reset.mouseover" end="reset.mouseout"/></use>
  </g>
</defs>
<script type="application/ecmascript">
var viewWidth = 881;
var viewHeight = 137;
var sectionId = 'dynsection-1';
</script>
<script type="application/ecmascript" xlink:href="svg.min.js"/>
<svg id="graph" class="graph">
<g id="viewport">
<title>include/render.h</title>
<!-- Node1 -->
<g id="Node000001" class="node">
<title>Node1</title>
<g id="a_Node000001"><a xlink:title="Rendering system.">
<polygon fill="#999999" stroke="#666666" points="566.5,-129 471.5,-129 471.5,-110 566.5,-110 566.5,-129"/>
<text text-anchor="middle" x="519" y="-117" font-family="Helvetica,sans-Serif" font-size="10.00">include/render.h</text>
</a>
</g>
</g>
<!-- Node2 -->
<g id="Node000002" class="node">
<title>Node2</title>
<g id="a_Node000002"><a xlink:href="phasemem_8h.html" target="_top" xlink:title=" ">
<polygon fill="white" stroke="#666666" points="345.5,-74 226.5,-74 226.5,-55 345.5,-55 345.5,-74"/>
<text text-anchor="middle" x="286" y="-62" font-family="Helvetica,sans-Serif" font-size="10.00">include/phasemem.h</text>
</a>
</g>
</g>
<!-- Node1&#45;&gt;Node2 -->
<g id="edge1_Node000001_Node000002" class="edge">
<title>Node1&#45;&gt;Node2</title>
<g id="a_edge1_Node000001_Node000002"><a xlink:title=" ">
<path fill="none" stroke="#63b8ff" d="M471.75,-107.75C428.09,-97.82 364.06,-83.26 323.73,-74.08"/>
<polygon fill="#63b8ff" stroke="#63b8ff" points="471.04,-111.18 481.56,-109.98 472.59,-104.35 471.04,-111.18"/>
</a>
</g>
</g>
<!-- Node4 -->
<g id="Node000004" class="node">
<title>Node4</title>
<g id="a_Node000004"><a xlink:href="main_8c.html" target="_top" xlink:title=" ">
<polygon fill="white" stroke="#666666" points="82,-19 0,-19 0,0 82,0 82,-19"/>
<text text-anchor="middle" x="41" y="-7" font-family="Helvetica,sans-Serif" font-size="10.00">src/P2/main.c</text>
</a>
</g>
</g>
<!-- Node1&#45;&gt;Node4 -->
<g id="edge9_Node000001_Node000004" class="edge">
<title>Node1&#45;&gt;Node4</title>
<g id="a_edge9_Node000001_Node000004"><a xlink:title=" ">
<path fill="none" stroke="#63b8ff" d="M461.1,-113.44C399.81,-107.28 300.57,-95.01 217,-74 158.72,-59.35 92.76,-32.71 60.66,-19.06"/>
<polygon fill="#63b8ff" stroke="#63b8ff" points="461.05,-116.95 471.35,-114.45 461.74,-109.99 461.05,-116.95"/>
</a>
</g>
</g>
<!-- Node6 -->
<g id="Node000006" class="node">
<title>Node6</title>
<g id="a_Node000006"><a xlink:href="render_8c.html" target="_top" xlink:title=" ">
<polygon fill="white" stroke="#666666" points="532,-19 444,-19 444,0 532,0 532,-19"/>
<text text-anchor="middle" x="488" y="-7" font-family="Helvetica,sans-Serif" font-size="10.00">src/P2/render.c</text>
</a>
</g>
</g>
<!-- Node1&#45;&gt;Node6 -->
<g id="edge11_Node000001_Node000006" class="edge">
<title>Node1&#45;&gt;Node6</title>
<g id="a_edge11_Node000001_Node000006"><a xlink:title=" ">
<path fill="none" stroke="#63b8ff" d="M495.35,-104.09C485.23,-96.52 474.5,-86.26 469,-74 460.61,-55.31 473.08,-31.91 481.45,-19.39"/>
<polygon fill="#63b8ff" stroke="#63b8ff" points="493.36,-106.97 503.57,-109.8 497.35,-101.22 493.36,-106.97"/>
</a>
</g>
</g>
<!-- Node8 -->
<g id="Node000008" class="node">
<title>Node8</title>
<g id="a_Node000008"><a xlink:href="sqtr_8h.html" target="_top" xlink:title=" ">
<polygon fill="white" stroke="#666666" points="560,-74 478,-74 478,-55 560,-55 560,-74"/>
<text text-anchor="middle" x="519" y="-62" font-family="Helvetica,sans-Serif" font-size="10.00">include/sqtr.h</text>
</a>
</g>
</g>
<!-- Node1&#45;&gt;Node8 -->
<g id="edge7_Node000001_Node000008" class="edge">
<title>Node1&#45;&gt;Node8</title>
<g id="a_edge7_Node000001_Node000008"><a xlink:title=" ">
<path fill="none" stroke="#63b8ff" d="M519,-99.66C519,-90.93 519,-80.99 519,-74.09"/>
<polygon fill="#63b8ff" stroke="#63b8ff" points="515.5,-99.75 519,-109.75 522.5,-99.75 515.5,-99.75"/>
</a>
</g>
</g>
<!-- Node10 -->
<g id="Node000010" class="node">
<title>Node10</title>
<g id="a_Node000010"><a xlink:href="prog_8c.html" target="_top" xlink:title=" ">
<polygon fill="white" stroke="#666666" points="657.5,-74 578.5,-74 578.5,-55 657.5,-55 657.5,-74"/>
<text text-anchor="middle" x="618" y="-62" font-family="Helvetica,sans-Serif" font-size="10.00">src/P2/prog.c</text>
</a>
</g>
</g>
<!-- Node1&#45;&gt;Node10 -->
<g id="edge10_Node000001_Node000010" class="edge">
<title>Node1&#45;&gt;Node10</title>
<g id="a_edge10_Node000001_Node000010"><a xlink:title=" ">
<path fill="none" stroke="#63b8ff" d="M543.78,-105.23C561.94,-95.51 586.06,-82.6 601.8,-74.17"/>
<polygon fill="#63b8ff" stroke="#63b8ff" points="542.07,-102.18 534.91,-109.98 545.37,-108.35 542.07,-102.18"/>
</a>
</g>
</g>
<!-- Node11 -->
<g id="Node000011" class="node">
<title>Node11</title>
<g id="a_Node000011"><a xlink:href="shdanim_8c.html" target="_top" xlink:title=" ">
<polygon fill="white" stroke="#666666" points="774.5,-74 675.5,-74 675.5,-55 774.5,-55 774.5,-74"/>
<text text-anchor="middle" x="725" y="-62" font-family="Helvetica,sans-Serif" font-size="10.00">src/P2/shdanim.c</text>
</a>
</g>
</g>
<!-- Node1&#45;&gt;Node11 -->
<g id="edge12_Node000001_Node000011" class="edge">
<title>Node1&#45;&gt;Node11</title>
<g id="a_edge12_Node000001_Node000011"><a xlink:title=" ">
<path fill="none" stroke="#63b8ff" d="M562,-107.44C600.56,-97.52 656.36,-83.16 691.64,-74.08"/>
<polygon fill="#63b8ff" stroke="#63b8ff" points="560.91,-104.1 552.1,-109.98 562.65,-110.88 560.91,-104.1"/>
</a>
</g>
</g>
<!-- Node12 -->
<g id="Node000012" class="node">
<title>Node12</title>
<g id="a_Node000012"><a xlink:href="wipe_8c.html" target="_top" xlink:title=" ">
<polygon fill="white" stroke="#666666" points="873,-74 793,-74 793,-55 873,-55 873,-74"/>
<text text-anchor="middle" x="833" y="-62" font-family="Helvetica,sans-Serif" font-size="10.00">src/P2/wipe.c</text>
</a>
</g>
</g>
<!-- Node1&#45;&gt;Node12 -->
<g id="edge13_Node000001_Node000012" class="edge">
<title>Node1&#45;&gt;Node12</title>
<g id="a_edge13_Node000001_Node000012"><a xlink:title=" ">
<path fill="none" stroke="#63b8ff" d="M576.9,-108.87C630.6,-99.92 712.72,-86.17 784,-74 786.89,-73.51 789.88,-72.99 792.89,-72.48"/>
<polygon fill="#63b8ff" stroke="#63b8ff" points="576.17,-105.44 566.89,-110.54 577.33,-112.35 576.17,-105.44"/>
</a>
</g>
</g>
<!-- Node3 -->
<g id="Node000003" class="node">
<title>Node3</title>
<g id="a_Node000003"><a xlink:href="frm_8c.html" target="_top" xlink:title=" ">
<polygon fill="white" stroke="#666666" points="174,-19 100,-19 100,0 174,0 174,-19"/>
<text text-anchor="middle" x="137" y="-7" font-family="Helvetica,sans-Serif" font-size="10.00">src/P2/frm.c</text>
</a>
</g>
</g>
<!-- Node2&#45;&gt;Node3 -->
<g id="edge2_Node000002_Node000003" class="edge">
<title>Node2&#45;&gt;Node3</title>
<g id="a_edge2_Node000002_Node000003"><a xlink:title=" ">
<path fill="none" stroke="#63b8ff" d="M252.41,-51.55C224.74,-41.71 186.16,-27.98 161.38,-19.17"/>
<polygon fill="#63b8ff" stroke="#63b8ff" points="251.47,-54.93 262.06,-54.98 253.81,-48.34 251.47,-54.93"/>
</a>
</g>
</g>
<!-- Node2&#45;&gt;Node4 -->
<g id="edge3_Node000002_Node000004" class="edge">
<title>Node2&#45;&gt;Node4</title>
<g id="a_edge3_Node000002_Node000004"><a xlink:title=" ">
<path fill="none" stroke="#63b8ff" d="M236.61,-52.82C190.7,-42.88 123.17,-28.28 80.67,-19.08"/>
<polygon fill="#63b8ff" stroke="#63b8ff" points="236.12,-56.29 246.64,-54.98 237.6,-49.45 236.12,-56.29"/>
</a>
</g>
</g>
<!-- Node5 -->
<g id="Node000005" class="node">
<title>Node5</title>
<g id="a_Node000005"><a xlink:href="phasemem_8c.html" target="_top" xlink:title=" ">
<polygon fill="white" stroke="#666666" points="304,-19 192,-19 192,0 304,0 304,-19"/>
<text text-anchor="middle" x="248" y="-7" font-family="Helvetica,sans-Serif" font-size="10.00">src/P2/phasemem.c</text>
</a>
</g>
</g>
<!-- Node2&#45;&gt;Node5 -->
<g id="edge4_Node000002_Node000005" class="edge">
<title>Node2&#45;&gt;Node5</title>
<g id="a_edge4_Node000002_Node000005"><a xlink:title=" ">
<path fill="none" stroke="#63b8ff" d="M273.73,-46.39C267.19,-37.27 259.43,-26.45 254.16,-19.09"/>
<polygon fill="#63b8ff" stroke="#63b8ff" points="271.05,-48.66 279.73,-54.75 276.74,-44.58 271.05,-48.66"/>
</a>
</g>
</g>
<!-- Node2&#45;&gt;Node6 -->
<g id="edge5_Node000002_Node000006" class="edge">
<title>Node2&#45;&gt;Node6</title>
<g id="a_edge5_Node000002_Node000006"><a xlink:title=" ">
<path fill="none" stroke="#63b8ff" d="M328.16,-52.44C365.98,-42.52 420.69,-28.16 455.29,-19.08"/>
<polygon fill="#63b8ff" stroke="#63b8ff" points="327.24,-49.06 318.45,-54.98 329.02,-55.83 327.24,-49.06"/>
</a>
</g>
</g>
<!-- Node7 -->
<g id="Node000007" class="node">
<title>Node7</title>
<g id="a_Node000007"><a xlink:href="transition_8c.html" target="_top" xlink:title=" ">
<polygon fill="white" stroke="#666666" points="426,-19 322,-19 322,0 426,0 426,-19"/>
<text text-anchor="middle" x="374" y="-7" font-family="Helvetica,sans-Serif" font-size="10.00">src/P2/transition.c</text>
</a>
</g>
</g>
<!-- Node2&#45;&gt;Node7 -->
<g id="edge6_Node000002_Node000007" class="edge">
<title>Node2&#45;&gt;Node7</title>
<g id="a_edge6_Node000002_Node000007"><a xlink:title=" ">
<path fill="none" stroke="#63b8ff" d="M308.92,-49.7C324.95,-40.04 345.87,-27.44 359.6,-19.17"/>
<polygon fill="#63b8ff" stroke="#63b8ff" points="306.9,-46.83 300.14,-54.98 310.51,-52.82 306.9,-46.83"/>
</a>
</g>
</g>
<!-- Node9 -->
<g id="Node000009" class="node">
<title>Node9</title>
<g id="a_Node000009"><a xlink:href="sqtr_8c.html" target="_top" xlink:title=" ">
<polygon fill="white" stroke="#666666" points="624.5,-19 549.5,-19 549.5,0 624.5,0 624.5,-19"/>
<text text-anchor="middle" x="587" y="-7" font-family="Helvetica,sans-Serif" font-size="10.00">src/P2/sqtr.c</text>
</a>
</g>
</g>
<!-- Node8&#45;&gt;Node9 -->
<g id="edge8_Node000008_Node000009" class="edge">
<title>Node8&#45;&gt;Node9</title>
<g id="a_edge8_Node000008_Node000009"><a xlink:title=" ">
<path fill="none" stroke="#63b8ff" d="M538.12,-48.6C550.3,-39.11 565.66,-27.13 575.88,-19.17"/>
<polygon fill="#63b8ff" stroke="#63b8ff" points="535.66,-46.08 529.93,-54.98 539.96,-51.6 535.66,-46.08"/>
</a>
</g>
</g>
</g>
</svg>

<g id="navigator" transform="translate(0 0)" fill="#404254">
  <rect fill="#f2f5e9" fill-opacity="0.5" stroke="#606060" stroke-width=".5" x="0" y="0" width="60" height="60"/>
  <use id="zoomplus" xlink:href="#zoomPlus" x="17" y="9" onmousedown="handleZoom(evt,'in')"/>
  <use id="zoomminus" xlink:href="#zoomMin" x="42" y="9" onmousedown="handleZoom(evt,'out')"/>
  <use id="reset" xlink:href="#resetDef" x="30" y="36" onmousedown="handleReset()"/>
   <use id="arrowup" xlink:href="#arrowUp" x="0" y="0" onmousedown="handlePan(0,-1)"/>
  <use id="arrowright" xlink:href="#arrowRight" x="0" y="0" onmousedown="handlePan(1,0)"/>
  <use id="arrowdown" xlink:href="#arrowDown" x="0" y="0" onmousedown="handlePan(0,1)"/>
  <use id="arrowleft" xlink:href="#arrowLeft" x="0" y="0" onmousedown="handlePan(-1,0)"/>
</g>
<svg viewBox="0 0 15 15" width="100%" height="30px" preserveAspectRatio="xMaxYMin meet">
 <g id="arrow_out" transform="scale(0.3 0.3)">
  <a xlink:href="render_8h__dep__incl_org.svg" target="_base">
   <rect id="button" ry="5" rx="5" y="6" x="6" height="38" width="38"
        fill="#f2f5e9" fill-opacity="0.5" stroke="#606060" stroke-width="1.0"/>
   <path id="arrow"
     d="M 11.500037,31.436501 C 11.940474,20.09759 22.043105,11.32322 32.158766,21.979434 L 37.068811,17.246167 C 37.068811,17.246167 37.088388,32 37.088388,32 L 22.160133,31.978069 C 22.160133,31.978069 26.997745,27.140456 26.997745,27.140456 C 18.528582,18.264221 13.291696,25.230495 11.500037,31.436501 z"
     style="fill:#404040;"/>
  </a>
 </g>
</svg>

<style type='text/css'>
<![CDATA[
[data-mouse-over-selected='false'] { opacity: 0.7; }
[data-mouse-over-selected='true']  { opacity: 1.0; }
]]>
</style>
<script type="application/ecmascript"><![CDATA[
document.addEventListener('DOMContentLoaded', (event) => {
  highlightEdges();
  highlightAdjacentNodes();
});
]]></script>
</svg>
