<?xml version="1.0" encoding="UTF-8" standalone="no"?>
<!DOCTYPE svg PUBLIC "-//W3C//DTD SVG 1.1//EN"
 "http://www.w3.org/Graphics/SVG/1.1/DTD/svg11.dtd">
<!-- Generated by graphviz version 2.43.0 (0)
 -->
<!-- Title: include/rip.h Pages: 1 -->
<svg width="299pt" height="137pt"
 viewBox="0.00 0.00 298.50 137.00" xmlns="http://www.w3.org/2000/svg" xmlns:xlink="http://www.w3.org/1999/xlink">
<g id="graph0" class="graph" transform="scale(1 1) rotate(0) translate(4 133)">
<title>include/rip.h</title>
<!-- Node1 -->
<g id="Node000001" class="node">
<title>Node1</title>
<g id="a_Node000001"><a xlink:title="Particle system (?)">
<polygon fill="#999999" stroke="#666666" points="231,-129 154,-129 154,-110 231,-110 231,-129"/>
<text text-anchor="middle" x="192.5" y="-117" font-family="Helvetica,sans-Serif" font-size="10.00">include/rip.h</text>
</a>
</g>
</g>
<!-- Node2 -->
<g id="Node000002" class="node">
<title>Node2</title>
<g id="a_Node000002"><a xlink:href="emitter_8h.html" target="_top" xlink:title="Particle emitter.">
<polygon fill="white" stroke="#666666" points="191,-74 92,-74 92,-55 191,-55 191,-74"/>
<text text-anchor="middle" x="141.5" y="-62" font-family="Helvetica,sans-Serif" font-size="10.00">include/emitter.h</text>
</a>
</g>
</g>
<!-- Node1&#45;&gt;Node2 -->
<g id="edge1_Node000001_Node000002" class="edge">
<title>Node1&#45;&gt;Node2</title>
<g id="a_edge1_Node000001_Node000002"><a xlink:title=" ">
<path fill="none" stroke="#63b8ff" d="M177.12,-102.52C168.13,-93.18 157.14,-81.75 149.76,-74.09"/>
<polygon fill="#63b8ff" stroke="#63b8ff" points="174.62,-104.97 184.08,-109.75 179.67,-100.12 174.62,-104.97"/>
</a>
</g>
</g>
<!-- Node6 -->
<g id="Node000006" class="node">
<title>Node6</title>
<g id="a_Node000006"><a xlink:href="rip_8c.html" target="_top" xlink:title=" ">
<polygon fill="white" stroke="#666666" points="279.5,-74 209.5,-74 209.5,-55 279.5,-55 279.5,-74"/>
<text text-anchor="middle" x="244.5" y="-62" font-family="Helvetica,sans-Serif" font-size="10.00">src/P2/rip.c</text>
</a>
</g>
</g>
<!-- Node1&#45;&gt;Node6 -->
<g id="edge5_Node000001_Node000006" class="edge">
<title>Node1&#45;&gt;Node6</title>
<g id="a_edge5_Node000001_Node000006"><a xlink:title=" ">
<path fill="none" stroke="#63b8ff" d="M208.18,-102.52C217.34,-93.18 228.55,-81.75 236.07,-74.09"/>
<polygon fill="#63b8ff" stroke="#63b8ff" points="205.59,-100.16 201.09,-109.75 210.59,-105.06 205.59,-100.16"/>
</a>
</g>
</g>
<!-- Node3 -->
<g id="Node000003" class="node">
<title>Node3</title>
<g id="a_Node000003"><a xlink:href="bomb_8c.html" target="_top" xlink:title=" ">
<polygon fill="white" stroke="#666666" points="85,-19 0,-19 0,0 85,0 85,-19"/>
<text text-anchor="middle" x="42.5" y="-7" font-family="Helvetica,sans-Serif" font-size="10.00">src/P2/bomb.c</text>
</a>
</g>
</g>
<!-- Node2&#45;&gt;Node3 -->
<g id="edge2_Node000002_Node000003" class="edge">
<title>Node2&#45;&gt;Node3</title>
<g id="a_edge2_Node000002_Node000003"><a xlink:title=" ">
<path fill="none" stroke="#63b8ff" d="M116.72,-50.23C98.56,-40.51 74.44,-27.6 58.7,-19.17"/>
<polygon fill="#63b8ff" stroke="#63b8ff" points="115.13,-53.35 125.59,-54.98 118.43,-47.18 115.13,-53.35"/>
</a>
</g>
</g>
<!-- Node4 -->
<g id="Node000004" class="node">
<title>Node4</title>
<g id="a_Node000004"><a xlink:href="dart_8c.html" target="_top" xlink:title=" ">
<polygon fill="white" stroke="#666666" points="180,-19 103,-19 103,0 180,0 180,-19"/>
<text text-anchor="middle" x="141.5" y="-7" font-family="Helvetica,sans-Serif" font-size="10.00">src/P2/dart.c</text>
</a>
</g>
</g>
<!-- Node2&#45;&gt;Node4 -->
<g id="edge3_Node000002_Node000004" class="edge">
<title>Node2&#45;&gt;Node4</title>
<g id="a_edge3_Node000002_Node000004"><a xlink:title=" ">
<path fill="none" stroke="#63b8ff" d="M141.5,-44.66C141.5,-35.93 141.5,-25.99 141.5,-19.09"/>
<polygon fill="#63b8ff" stroke="#63b8ff" points="138,-44.75 141.5,-54.75 145,-44.75 138,-44.75"/>
</a>
</g>
</g>
<!-- Node5 -->
<g id="Node000005" class="node">
<title>Node5</title>
<g id="a_Node000005"><a xlink:href="emitter_8c.html" target="_top" xlink:title=" ">
<polygon fill="white" stroke="#666666" points="290.5,-19 198.5,-19 198.5,0 290.5,0 290.5,-19"/>
<text text-anchor="middle" x="244.5" y="-7" font-family="Helvetica,sans-Serif" font-size="10.00">src/P2/emitter.c</text>
</a>
</g>
</g>
<!-- Node2&#45;&gt;Node5 -->
<g id="edge4_Node000002_Node000005" class="edge">
<title>Node2&#45;&gt;Node5</title>
<g id="a_edge4_Node000002_Node000005"><a xlink:title=" ">
<path fill="none" stroke="#63b8ff" d="M167.02,-50.37C185.94,-40.63 211.2,-27.64 227.65,-19.17"/>
<polygon fill="#63b8ff" stroke="#63b8ff" points="165.34,-47.3 158.05,-54.98 168.54,-53.52 165.34,-47.3"/>
</a>
</g>
</g>
</g>
</svg>
