<?xml version="1.0" encoding="UTF-8" standalone="no"?>
<!DOCTYPE svg PUBLIC "-//W3C//DTD SVG 1.1//EN"
 "http://www.w3.org/Graphics/SVG/1.1/DTD/svg11.dtd">
<!-- Generated by graphviz version 2.43.0 (0)
 -->
<!-- Title: include/sce/gs.h Pages: 1 -->
<svg width="677pt" height="588pt"
 viewBox="0.00 0.00 677.09 588.00" xmlns="http://www.w3.org/2000/svg" xmlns:xlink="http://www.w3.org/1999/xlink">
<g id="graph0" class="graph" transform="scale(1 1) rotate(0) translate(4 584)">
<title>include/sce/gs.h</title>
<polygon fill="white" stroke="transparent" points="-4,4 -4,-584 673.09,-584 673.09,4 -4,4"/>
<!-- Node1 -->
<g id="node1" class="node">
<title>Node1</title>
<g id="a_node1"><a xlink:title="Graphics Synthesizer.">
<polygon fill="#bfbfbf" stroke="black" points="171,-560.5 171,-579.5 266,-579.5 266,-560.5 171,-560.5"/>
<text text-anchor="middle" x="218.5" y="-567.5" font-family="Helvetica,sans-Serif" font-size="10.00">include/sce/gs.h</text>
</a>
</g>
</g>
<!-- Node2 -->
<g id="node2" class="node">
<title>Node2</title>
<g id="a_node2"><a xlink:href="shd_8h.html" target="_top" xlink:title="Shaders.">
<polygon fill="white" stroke="black" points="178,-504.5 178,-523.5 259,-523.5 259,-504.5 178,-504.5"/>
<text text-anchor="middle" x="218.5" y="-511.5" font-family="Helvetica,sans-Serif" font-size="10.00">include/shd.h</text>
</a>
</g>
</g>
<!-- Node1&#45;&gt;Node2 -->
<g id="edge1" class="edge">
<title>Node1&#45;&gt;Node2</title>
<path fill="none" stroke="midnightblue" d="M218.5,-549.8C218.5,-540.91 218.5,-530.78 218.5,-523.75"/>
<polygon fill="midnightblue" stroke="midnightblue" points="215,-550.08 218.5,-560.08 222,-550.08 215,-550.08"/>
</g>
<!-- Node3 -->
<g id="node3" class="node">
<title>Node3</title>
<g id="a_node3"><a xlink:href="screen_8h.html" target="_top" xlink:title="User interface manager.">
<polygon fill="white" stroke="black" points="170.5,-448.5 170.5,-467.5 266.5,-467.5 266.5,-448.5 170.5,-448.5"/>
<text text-anchor="middle" x="218.5" y="-455.5" font-family="Helvetica,sans-Serif" font-size="10.00">include/screen.h</text>
</a>
</g>
</g>
<!-- Node2&#45;&gt;Node3 -->
<g id="edge2" class="edge">
<title>Node2&#45;&gt;Node3</title>
<path fill="none" stroke="midnightblue" d="M218.5,-493.8C218.5,-484.91 218.5,-474.78 218.5,-467.75"/>
<polygon fill="midnightblue" stroke="midnightblue" points="215,-494.08 218.5,-504.08 222,-494.08 215,-494.08"/>
</g>
<!-- Node4 -->
<g id="node4" class="node">
<title>Node4</title>
<g id="a_node4"><a xlink:href="screen_8c.html" target="_top" xlink:title=" ">
<polygon fill="white" stroke="black" points="0,-392.5 0,-411.5 89,-411.5 89,-392.5 0,-392.5"/>
<text text-anchor="middle" x="44.5" y="-399.5" font-family="Helvetica,sans-Serif" font-size="10.00">src/P2/screen.c</text>
</a>
</g>
</g>
<!-- Node3&#45;&gt;Node4 -->
<g id="edge3" class="edge">
<title>Node3&#45;&gt;Node4</title>
<path fill="none" stroke="midnightblue" d="M181.24,-445.44C148.43,-435.26 101.42,-420.66 71.94,-411.52"/>
<polygon fill="midnightblue" stroke="midnightblue" points="180.34,-448.82 190.93,-448.44 182.42,-442.14 180.34,-448.82"/>
</g>
<!-- Node5 -->
<g id="node5" class="node">
<title>Node5</title>
<g id="a_node5"><a xlink:href="steppower_8c.html" target="_top" xlink:title=" ">
<polygon fill="white" stroke="black" points="107,-392.5 107,-411.5 214,-411.5 214,-392.5 107,-392.5"/>
<text text-anchor="middle" x="160.5" y="-399.5" font-family="Helvetica,sans-Serif" font-size="10.00">src/P2/steppower.c</text>
</a>
</g>
</g>
<!-- Node3&#45;&gt;Node5 -->
<g id="edge4" class="edge">
<title>Node3&#45;&gt;Node5</title>
<path fill="none" stroke="midnightblue" d="M201.59,-441.25C191.3,-431.67 178.53,-419.79 169.99,-411.83"/>
<polygon fill="midnightblue" stroke="midnightblue" points="199.48,-444.07 209.18,-448.32 204.25,-438.95 199.48,-444.07"/>
</g>
<!-- Node6 -->
<g id="node6" class="node">
<title>Node6</title>
<g id="a_node6"><a xlink:href="binoc_8h.html" target="_top" xlink:title="Binoc&#45;u&#45;com.">
<polygon fill="white" stroke="black" points="232.5,-392.5 232.5,-411.5 322.5,-411.5 322.5,-392.5 232.5,-392.5"/>
<text text-anchor="middle" x="277.5" y="-399.5" font-family="Helvetica,sans-Serif" font-size="10.00">include/binoc.h</text>
</a>
</g>
</g>
<!-- Node3&#45;&gt;Node6 -->
<g id="edge5" class="edge">
<title>Node3&#45;&gt;Node6</title>
<path fill="none" stroke="midnightblue" d="M235.39,-441.54C245.91,-431.91 259.07,-419.87 267.85,-411.83"/>
<polygon fill="midnightblue" stroke="midnightblue" points="232.99,-438.99 227.98,-448.32 237.72,-444.15 232.99,-438.99"/>
</g>
<!-- Node28 -->
<g id="node28" class="node">
<title>Node28</title>
<g id="a_node28"><a xlink:href="ui_8h.html" target="_top" xlink:title="User interface.">
<polygon fill="white" stroke="black" points="389,-392.5 389,-411.5 462,-411.5 462,-392.5 389,-392.5"/>
<text text-anchor="middle" x="425.5" y="-399.5" font-family="Helvetica,sans-Serif" font-size="10.00">include/ui.h</text>
</a>
</g>
</g>
<!-- Node3&#45;&gt;Node28 -->
<g id="edge32" class="edge">
<title>Node3&#45;&gt;Node28</title>
<path fill="none" stroke="midnightblue" d="M261.32,-445.83C300.41,-435.63 357.33,-420.78 392.85,-411.52"/>
<polygon fill="midnightblue" stroke="midnightblue" points="260.09,-442.53 251.3,-448.44 261.86,-449.31 260.09,-442.53"/>
</g>
<!-- Node7 -->
<g id="node7" class="node">
<title>Node7</title>
<g id="a_node7"><a xlink:href="binoc_8c.html" target="_top" xlink:title=" ">
<polygon fill="white" stroke="black" points="339,-336.5 339,-355.5 422,-355.5 422,-336.5 339,-336.5"/>
<text text-anchor="middle" x="380.5" y="-343.5" font-family="Helvetica,sans-Serif" font-size="10.00">src/P2/binoc.c</text>
</a>
</g>
</g>
<!-- Node6&#45;&gt;Node7 -->
<g id="edge6" class="edge">
<title>Node6&#45;&gt;Node7</title>
<path fill="none" stroke="midnightblue" d="M303.08,-387.59C322.12,-377.61 347.56,-364.27 363.99,-355.65"/>
<polygon fill="midnightblue" stroke="midnightblue" points="301.28,-384.58 294.05,-392.32 304.53,-390.78 301.28,-384.58"/>
</g>
<!-- Node8 -->
<g id="node8" class="node">
<title>Node8</title>
<g id="a_node8"><a xlink:href="cm_8c.html" target="_top" xlink:title=" ">
<polygon fill="white" stroke="black" points="85.5,-112.5 85.5,-131.5 157.5,-131.5 157.5,-112.5 85.5,-112.5"/>
<text text-anchor="middle" x="121.5" y="-119.5" font-family="Helvetica,sans-Serif" font-size="10.00">src/P2/cm.c</text>
</a>
</g>
</g>
<!-- Node6&#45;&gt;Node8 -->
<g id="edge7" class="edge">
<title>Node6&#45;&gt;Node8</title>
<path fill="none" stroke="midnightblue" d="M235.08,-389.34C191.34,-374.43 129.5,-343.98 129.5,-291 129.5,-291 129.5,-291 129.5,-233 129.5,-195.09 124.71,-150.02 122.55,-131.54"/>
<polygon fill="midnightblue" stroke="midnightblue" points="234.06,-392.69 244.65,-392.46 236.23,-386.03 234.06,-392.69"/>
</g>
<!-- Node9 -->
<g id="node9" class="node">
<title>Node9</title>
<g id="a_node9"><a xlink:href="cm_8h.html" target="_top" xlink:title="Game camera.">
<polygon fill="white" stroke="black" points="173,-168.5 173,-187.5 252,-187.5 252,-168.5 173,-168.5"/>
<text text-anchor="middle" x="212.5" y="-175.5" font-family="Helvetica,sans-Serif" font-size="10.00">include/cm.h</text>
</a>
</g>
</g>
<!-- Node6&#45;&gt;Node9 -->
<g id="edge8" class="edge">
<title>Node6&#45;&gt;Node9</title>
<path fill="none" stroke="midnightblue" d="M253.75,-386.68C243.21,-378.99 231.78,-368.5 225.5,-356 196.19,-297.63 206.51,-214.55 210.92,-187.72"/>
<polygon fill="midnightblue" stroke="midnightblue" points="252.03,-389.75 262.27,-392.48 255.97,-383.96 252.03,-389.75"/>
</g>
<!-- Node12 -->
<g id="node12" class="node">
<title>Node12</title>
<g id="a_node12"><a xlink:href="prog_8h.html" target="_top" xlink:title=" ">
<polygon fill="white" stroke="black" points="234.5,-336.5 234.5,-355.5 320.5,-355.5 320.5,-336.5 234.5,-336.5"/>
<text text-anchor="middle" x="277.5" y="-343.5" font-family="Helvetica,sans-Serif" font-size="10.00">include/prog.h</text>
</a>
</g>
</g>
<!-- Node6&#45;&gt;Node12 -->
<g id="edge12" class="edge">
<title>Node6&#45;&gt;Node12</title>
<path fill="none" stroke="midnightblue" d="M277.5,-381.8C277.5,-372.91 277.5,-362.78 277.5,-355.75"/>
<polygon fill="midnightblue" stroke="midnightblue" points="274,-382.08 277.5,-392.08 281,-382.08 274,-382.08"/>
</g>
<!-- Node9&#45;&gt;Node8 -->
<g id="edge9" class="edge">
<title>Node9&#45;&gt;Node8</title>
<path fill="none" stroke="midnightblue" d="M189.21,-163.18C172.46,-153.24 150.4,-140.15 136.08,-131.65"/>
<polygon fill="midnightblue" stroke="midnightblue" points="187.49,-166.23 197.88,-168.32 191.07,-160.21 187.49,-166.23"/>
</g>
<!-- Node10 -->
<g id="node10" class="node">
<title>Node10</title>
<g id="a_node10"><a xlink:href="flash_8h.html" target="_top" xlink:title="Flash (might be flash animation, or literal screen flashes).">
<polygon fill="white" stroke="black" points="176,-112.5 176,-131.5 263,-131.5 263,-112.5 176,-112.5"/>
<text text-anchor="middle" x="219.5" y="-119.5" font-family="Helvetica,sans-Serif" font-size="10.00">include/flash.h</text>
</a>
</g>
</g>
<!-- Node9&#45;&gt;Node10 -->
<g id="edge10" class="edge">
<title>Node9&#45;&gt;Node10</title>
<path fill="none" stroke="midnightblue" d="M214.95,-158.1C216.11,-149.14 217.44,-138.86 218.37,-131.75"/>
<polygon fill="midnightblue" stroke="midnightblue" points="211.47,-157.72 213.66,-168.08 218.41,-158.62 211.47,-157.72"/>
</g>
<!-- Node11 -->
<g id="node11" class="node">
<title>Node11</title>
<g id="a_node11"><a xlink:href="flash_8c.html" target="_top" xlink:title=" ">
<polygon fill="white" stroke="black" points="109.5,-56.5 109.5,-75.5 189.5,-75.5 189.5,-56.5 109.5,-56.5"/>
<text text-anchor="middle" x="149.5" y="-63.5" font-family="Helvetica,sans-Serif" font-size="10.00">src/P2/flash.c</text>
</a>
</g>
</g>
<!-- Node10&#45;&gt;Node11 -->
<g id="edge11" class="edge">
<title>Node10&#45;&gt;Node11</title>
<path fill="none" stroke="midnightblue" d="M200.19,-106.1C187.59,-96.38 171.57,-84.03 160.95,-75.83"/>
<polygon fill="midnightblue" stroke="midnightblue" points="198.2,-108.99 208.25,-112.32 202.47,-103.44 198.2,-108.99"/>
</g>
<!-- Node13 -->
<g id="node13" class="node">
<title>Node13</title>
<g id="a_node13"><a xlink:href="main_8c.html" target="_top" xlink:title=" ">
<polygon fill="white" stroke="black" points="428.5,-280.5 428.5,-299.5 510.5,-299.5 510.5,-280.5 428.5,-280.5"/>
<text text-anchor="middle" x="469.5" y="-287.5" font-family="Helvetica,sans-Serif" font-size="10.00">src/P2/main.c</text>
</a>
</g>
</g>
<!-- Node12&#45;&gt;Node13 -->
<g id="edge13" class="edge">
<title>Node12&#45;&gt;Node13</title>
<path fill="none" stroke="midnightblue" d="M317.68,-333.7C353.92,-323.51 406.41,-308.74 439.22,-299.52"/>
<polygon fill="midnightblue" stroke="midnightblue" points="316.6,-330.37 307.92,-336.44 318.5,-337.11 316.6,-330.37"/>
</g>
<!-- Node14 -->
<g id="node14" class="node">
<title>Node14</title>
<g id="a_node14"><a xlink:href="prog_8c.html" target="_top" xlink:title=" ">
<polygon fill="white" stroke="black" points="235,-280.5 235,-299.5 314,-299.5 314,-280.5 235,-280.5"/>
<text text-anchor="middle" x="274.5" y="-287.5" font-family="Helvetica,sans-Serif" font-size="10.00">src/P2/prog.c</text>
</a>
</g>
</g>
<!-- Node12&#45;&gt;Node14 -->
<g id="edge14" class="edge">
<title>Node12&#45;&gt;Node14</title>
<path fill="none" stroke="midnightblue" d="M276.43,-325.8C275.94,-316.91 275.38,-306.78 274.99,-299.75"/>
<polygon fill="midnightblue" stroke="midnightblue" points="272.96,-326.29 277,-336.08 279.94,-325.9 272.96,-326.29"/>
</g>
<!-- Node15 -->
<g id="node15" class="node">
<title>Node15</title>
<g id="a_node15"><a xlink:href="bis_8h.html" target="_top" xlink:title="Binary Input Stream.">
<polygon fill="white" stroke="black" points="332.5,-280.5 332.5,-299.5 410.5,-299.5 410.5,-280.5 332.5,-280.5"/>
<text text-anchor="middle" x="371.5" y="-287.5" font-family="Helvetica,sans-Serif" font-size="10.00">include/bis.h</text>
</a>
</g>
</g>
<!-- Node12&#45;&gt;Node15 -->
<g id="edge15" class="edge">
<title>Node12&#45;&gt;Node15</title>
<path fill="none" stroke="midnightblue" d="M301.56,-331.18C318.86,-321.24 341.65,-308.15 356.43,-299.65"/>
<polygon fill="midnightblue" stroke="midnightblue" points="299.53,-328.31 292.6,-336.32 303.02,-334.38 299.53,-328.31"/>
</g>
<!-- Node16 -->
<g id="node16" class="node">
<title>Node16</title>
<g id="a_node16"><a xlink:href="bis_8c.html" target="_top" xlink:title=" ">
<polygon fill="white" stroke="black" points="324,-224.5 324,-243.5 395,-243.5 395,-224.5 324,-224.5"/>
<text text-anchor="middle" x="359.5" y="-231.5" font-family="Helvetica,sans-Serif" font-size="10.00">src/P2/bis.c</text>
</a>
</g>
</g>
<!-- Node15&#45;&gt;Node16 -->
<g id="edge16" class="edge">
<title>Node15&#45;&gt;Node16</title>
<path fill="none" stroke="midnightblue" d="M367.3,-270.1C365.31,-261.14 363.02,-250.86 361.44,-243.75"/>
<polygon fill="midnightblue" stroke="midnightblue" points="363.93,-271.08 369.52,-280.08 370.77,-269.56 363.93,-271.08"/>
</g>
<!-- Node17 -->
<g id="node17" class="node">
<title>Node17</title>
<g id="a_node17"><a xlink:href="coin_8c.html" target="_top" xlink:title=" ">
<polygon fill="white" stroke="black" points="573,-56.5 573,-75.5 650,-75.5 650,-56.5 573,-56.5"/>
<text text-anchor="middle" x="611.5" y="-63.5" font-family="Helvetica,sans-Serif" font-size="10.00">src/P2/coin.c</text>
</a>
</g>
</g>
<!-- Node15&#45;&gt;Node17 -->
<g id="edge17" class="edge">
<title>Node15&#45;&gt;Node17</title>
<path fill="none" stroke="midnightblue" d="M414.74,-277.71C482.35,-259.26 608.64,-221.38 640.5,-188 664.78,-162.56 676.96,-144.05 662.5,-112 655.31,-96.07 639.39,-83.52 627.23,-75.76"/>
<polygon fill="midnightblue" stroke="midnightblue" points="413.56,-274.4 404.82,-280.39 415.38,-281.16 413.56,-274.4"/>
</g>
<!-- Node18 -->
<g id="node18" class="node">
<title>Node18</title>
<g id="a_node18"><a xlink:href="chkpnt_8h.html" target="_top" xlink:title="Checkpoint system.">
<polygon fill="white" stroke="black" points="313,-112.5 313,-131.5 410,-131.5 410,-112.5 313,-112.5"/>
<text text-anchor="middle" x="361.5" y="-119.5" font-family="Helvetica,sans-Serif" font-size="10.00">include/chkpnt.h</text>
</a>
</g>
</g>
<!-- Node15&#45;&gt;Node18 -->
<g id="edge18" class="edge">
<title>Node15&#45;&gt;Node18</title>
<path fill="none" stroke="midnightblue" d="M346.45,-274.93C335.16,-267.27 322.76,-256.74 315.5,-244 303.05,-222.16 309.28,-213.08 307.5,-188 306.87,-179.13 303.73,-176.05 307.5,-168 315.16,-151.64 332.01,-139.16 344.87,-131.54"/>
<polygon fill="midnightblue" stroke="midnightblue" points="344.83,-278.05 355.15,-280.45 348.58,-272.14 344.83,-278.05"/>
</g>
<!-- Node23 -->
<g id="node23" class="node">
<title>Node23</title>
<g id="a_node23"><a xlink:href="xform_8h.html" target="_top" xlink:title="Transform.">
<polygon fill="white" stroke="black" points="413,-224.5 413,-243.5 506,-243.5 506,-224.5 413,-224.5"/>
<text text-anchor="middle" x="459.5" y="-231.5" font-family="Helvetica,sans-Serif" font-size="10.00">include/xform.h</text>
</a>
</g>
</g>
<!-- Node15&#45;&gt;Node23 -->
<g id="edge24" class="edge">
<title>Node15&#45;&gt;Node23</title>
<path fill="none" stroke="midnightblue" d="M394.48,-274.9C410.61,-265 431.68,-252.07 445.4,-243.65"/>
<polygon fill="midnightblue" stroke="midnightblue" points="392.33,-272.11 385.64,-280.32 395.99,-278.08 392.33,-272.11"/>
</g>
<!-- Node18&#45;&gt;Node17 -->
<g id="edge20" class="edge">
<title>Node18&#45;&gt;Node17</title>
<path fill="none" stroke="midnightblue" d="M411.18,-110.27C458.72,-100 529.44,-84.72 572.89,-75.34"/>
<polygon fill="midnightblue" stroke="midnightblue" points="410.15,-106.91 401.11,-112.44 411.63,-113.75 410.15,-106.91"/>
</g>
<!-- Node19 -->
<g id="node19" class="node">
<title>Node19</title>
<g id="a_node19"><a xlink:href="chkpnt_8c.html" target="_top" xlink:title=" ">
<polygon fill="white" stroke="black" points="207.5,-56.5 207.5,-75.5 297.5,-75.5 297.5,-56.5 207.5,-56.5"/>
<text text-anchor="middle" x="252.5" y="-63.5" font-family="Helvetica,sans-Serif" font-size="10.00">src/P2/chkpnt.c</text>
</a>
</g>
</g>
<!-- Node18&#45;&gt;Node19 -->
<g id="edge19" class="edge">
<title>Node18&#45;&gt;Node19</title>
<path fill="none" stroke="midnightblue" d="M334.98,-107.86C314.77,-97.85 287.51,-84.35 269.97,-75.65"/>
<polygon fill="midnightblue" stroke="midnightblue" points="333.47,-111.02 343.99,-112.32 336.58,-104.75 333.47,-111.02"/>
</g>
<!-- Node20 -->
<g id="node20" class="node">
<title>Node20</title>
<g id="a_node20"><a xlink:href="transition_8c.html" target="_top" xlink:title=" ">
<polygon fill="white" stroke="black" points="315.5,-56.5 315.5,-75.5 419.5,-75.5 419.5,-56.5 315.5,-56.5"/>
<text text-anchor="middle" x="367.5" y="-63.5" font-family="Helvetica,sans-Serif" font-size="10.00">src/P2/transition.c</text>
</a>
</g>
</g>
<!-- Node18&#45;&gt;Node20 -->
<g id="edge21" class="edge">
<title>Node18&#45;&gt;Node20</title>
<path fill="none" stroke="midnightblue" d="M363.6,-102.1C364.6,-93.14 365.74,-82.86 366.53,-75.75"/>
<polygon fill="midnightblue" stroke="midnightblue" points="360.12,-101.76 362.49,-112.08 367.07,-102.53 360.12,-101.76"/>
</g>
<!-- Node21 -->
<g id="node21" class="node">
<title>Node21</title>
<g id="a_node21"><a xlink:href="difficulty_8h.html" target="_top" xlink:title="Dynamic difficulty system.">
<polygon fill="white" stroke="black" points="438,-56.5 438,-75.5 543,-75.5 543,-56.5 438,-56.5"/>
<text text-anchor="middle" x="490.5" y="-63.5" font-family="Helvetica,sans-Serif" font-size="10.00">include/difficulty.h</text>
</a>
</g>
</g>
<!-- Node18&#45;&gt;Node21 -->
<g id="edge22" class="edge">
<title>Node18&#45;&gt;Node21</title>
<path fill="none" stroke="midnightblue" d="M391.35,-108.5C415.54,-98.38 448.96,-84.39 470.16,-75.52"/>
<polygon fill="midnightblue" stroke="midnightblue" points="389.81,-105.35 381.94,-112.44 392.52,-111.81 389.81,-105.35"/>
</g>
<!-- Node22 -->
<g id="node22" class="node">
<title>Node22</title>
<g id="a_node22"><a xlink:href="difficulty_8c.html" target="_top" xlink:title=" ">
<polygon fill="white" stroke="black" points="441.5,-0.5 441.5,-19.5 539.5,-19.5 539.5,-0.5 441.5,-0.5"/>
<text text-anchor="middle" x="490.5" y="-7.5" font-family="Helvetica,sans-Serif" font-size="10.00">src/P2/difficulty.c</text>
</a>
</g>
</g>
<!-- Node21&#45;&gt;Node22 -->
<g id="edge23" class="edge">
<title>Node21&#45;&gt;Node22</title>
<path fill="none" stroke="midnightblue" d="M490.5,-45.8C490.5,-36.91 490.5,-26.78 490.5,-19.75"/>
<polygon fill="midnightblue" stroke="midnightblue" points="487,-46.08 490.5,-56.08 494,-46.08 487,-46.08"/>
</g>
<!-- Node23&#45;&gt;Node9 -->
<g id="edge27" class="edge">
<title>Node23&#45;&gt;Node9</title>
<path fill="none" stroke="midnightblue" d="M410.47,-222.28C363.8,-212.08 294.47,-196.92 251.45,-187.52"/>
<polygon fill="midnightblue" stroke="midnightblue" points="409.85,-225.73 420.36,-224.44 411.34,-218.89 409.85,-225.73"/>
</g>
<!-- Node24 -->
<g id="node24" class="node">
<title>Node24</title>
<g id="a_node24"><a xlink:href="xform1_8c.html" target="_top" xlink:title=" ">
<polygon fill="white" stroke="black" points="523.5,-168.5 523.5,-187.5 615.5,-187.5 615.5,-168.5 523.5,-168.5"/>
<text text-anchor="middle" x="569.5" y="-175.5" font-family="Helvetica,sans-Serif" font-size="10.00">src/P2/xform1.c</text>
</a>
</g>
</g>
<!-- Node23&#45;&gt;Node24 -->
<g id="edge25" class="edge">
<title>Node23&#45;&gt;Node24</title>
<path fill="none" stroke="midnightblue" d="M486.26,-219.86C506.66,-209.85 534.17,-196.35 551.87,-187.65"/>
<polygon fill="midnightblue" stroke="midnightblue" points="484.61,-216.78 477.17,-224.32 487.69,-223.06 484.61,-216.78"/>
</g>
<!-- Node25 -->
<g id="node25" class="node">
<title>Node25</title>
<g id="a_node25"><a xlink:href="xform2_8c.html" target="_top" xlink:title=" ">
<polygon fill="white" stroke="black" points="413.5,-168.5 413.5,-187.5 505.5,-187.5 505.5,-168.5 413.5,-168.5"/>
<text text-anchor="middle" x="459.5" y="-175.5" font-family="Helvetica,sans-Serif" font-size="10.00">src/P2/xform2.c</text>
</a>
</g>
</g>
<!-- Node23&#45;&gt;Node25 -->
<g id="edge26" class="edge">
<title>Node23&#45;&gt;Node25</title>
<path fill="none" stroke="midnightblue" d="M459.5,-213.8C459.5,-204.91 459.5,-194.78 459.5,-187.75"/>
<polygon fill="midnightblue" stroke="midnightblue" points="456,-214.08 459.5,-224.08 463,-214.08 456,-214.08"/>
</g>
<!-- Node26 -->
<g id="node26" class="node">
<title>Node26</title>
<g id="a_node26"><a xlink:href="coin_8h.html" target="_top" xlink:title="Coins, keys, and other collectibles.">
<polygon fill="white" stroke="black" points="569.5,-112.5 569.5,-131.5 653.5,-131.5 653.5,-112.5 569.5,-112.5"/>
<text text-anchor="middle" x="611.5" y="-119.5" font-family="Helvetica,sans-Serif" font-size="10.00">include/coin.h</text>
</a>
</g>
</g>
<!-- Node23&#45;&gt;Node26 -->
<g id="edge28" class="edge">
<title>Node23&#45;&gt;Node26</title>
<path fill="none" stroke="midnightblue" d="M515.99,-225C558.34,-217.72 611.19,-205.42 624.5,-188 637.35,-171.17 625.01,-144.96 617.06,-131.54"/>
<polygon fill="midnightblue" stroke="midnightblue" points="515.32,-221.57 506.03,-226.66 516.47,-228.47 515.32,-221.57"/>
</g>
<!-- Node27 -->
<g id="node27" class="node">
<title>Node27</title>
<g id="a_node27"><a xlink:href="vol_8h.html" target="_top" xlink:title="Volume object.">
<polygon fill="white" stroke="black" points="316,-168.5 316,-187.5 395,-187.5 395,-168.5 316,-168.5"/>
<text text-anchor="middle" x="355.5" y="-175.5" font-family="Helvetica,sans-Serif" font-size="10.00">include/vol.h</text>
</a>
</g>
</g>
<!-- Node23&#45;&gt;Node27 -->
<g id="edge30" class="edge">
<title>Node23&#45;&gt;Node27</title>
<path fill="none" stroke="midnightblue" d="M433.67,-219.59C414.44,-209.61 388.76,-196.27 372.17,-187.65"/>
<polygon fill="midnightblue" stroke="midnightblue" points="432.3,-222.82 442.79,-224.32 435.53,-216.61 432.3,-222.82"/>
</g>
<!-- Node26&#45;&gt;Node17 -->
<g id="edge29" class="edge">
<title>Node26&#45;&gt;Node17</title>
<path fill="none" stroke="midnightblue" d="M611.5,-101.8C611.5,-92.91 611.5,-82.78 611.5,-75.75"/>
<polygon fill="midnightblue" stroke="midnightblue" points="608,-102.08 611.5,-112.08 615,-102.08 608,-102.08"/>
</g>
<!-- Node27&#45;&gt;Node18 -->
<g id="edge31" class="edge">
<title>Node27&#45;&gt;Node18</title>
<path fill="none" stroke="midnightblue" d="M357.6,-158.1C358.6,-149.14 359.74,-138.86 360.53,-131.75"/>
<polygon fill="midnightblue" stroke="midnightblue" points="354.12,-157.76 356.49,-168.08 361.07,-158.53 354.12,-157.76"/>
</g>
<!-- Node29 -->
<g id="node29" class="node">
<title>Node29</title>
<g id="a_node29"><a xlink:href="ui_8c.html" target="_top" xlink:title=" ">
<polygon fill="white" stroke="black" points="440.5,-336.5 440.5,-355.5 506.5,-355.5 506.5,-336.5 440.5,-336.5"/>
<text text-anchor="middle" x="473.5" y="-343.5" font-family="Helvetica,sans-Serif" font-size="10.00">src/P2/ui.c</text>
</a>
</g>
</g>
<!-- Node28&#45;&gt;Node29 -->
<g id="edge33" class="edge">
<title>Node28&#45;&gt;Node29</title>
<path fill="none" stroke="midnightblue" d="M440.23,-384.43C448.64,-374.97 458.85,-363.48 465.72,-355.75"/>
<polygon fill="midnightblue" stroke="midnightblue" points="437.45,-382.28 433.43,-392.08 442.69,-386.93 437.45,-382.28"/>
</g>
</g>
</svg>
