<?xml version="1.0" encoding="UTF-8" standalone="no"?>
<!DOCTYPE svg PUBLIC "-//W3C//DTD SVG 1.1//EN"
 "http://www.w3.org/Graphics/SVG/1.1/DTD/svg11.dtd">
<!-- Generated by graphviz version 2.43.0 (0)
 -->
<!-- Title: include/screen.h Pages: 1 -->
<!--zoomable 476 -->
<svg id="main" version="1.1" xmlns="http://www.w3.org/2000/svg" xmlns:xlink="http://www.w3.org/1999/xlink" xml:space="preserve" onload="init(evt)">
<style type="text/css"><![CDATA[
.edge:hover path { stroke: red; }
.edge:hover polygon { stroke: red; fill: red; }
]]></style>
<script type="text/javascript"><![CDATA[
var edges = document.getElementsByTagName('g');
if (edges && edges.length) {
  for (var i=0;i<edges.length;i++) {
    if (edges[i].id.substr(0,4)=='edge') {
      edges[i].setAttribute('class','edge');
    }
  }
}
]]></script>
        <defs>
                <circle id="rim" cx="0" cy="0" r="7"/>
                <circle id="rim2" cx="0" cy="0" r="3.5"/>
                <g id="zoomPlus">
                        <use xlink:href="#rim" fill="#404040">
                                <set attributeName="fill" to="#808080" begin="zoomplus.mouseover" end="zoomplus.mouseout"/>
                        </use>
                        <path d="M-4,0h8M0,-4v8" fill="none" stroke="white" stroke-width="1.5" pointer-events="none"/>
                </g>
                <g id="zoomMin">
                        <use xlink:href="#rim" fill="#404040">
                                <set attributeName="fill" to="#808080" begin="zoomminus.mouseover" end="zoomminus.mouseout"/>
                        </use>
                        <path d="M-4,0h8" fill="none" stroke="white" stroke-width="1.5" pointer-events="none"/>
                </g>
                <g id="dirArrow">
                        <path fill="none" stroke="white" stroke-width="1.5" d="M0,-3.0v7 M-2.5,-0.5L0,-3.0L2.5,-0.5"/>
                </g>
               <g id="resetDef">
                       <use xlink:href="#rim2" fill="#404040">
                               <set attributeName="fill" to="#808080" begin="reset.mouseover" end="reset.mouseout"/>
                       </use>
               </g>
        </defs>

<script type="text/javascript">
var viewWidth = 719;
var viewHeight = 476;
var sectionId = 'dynsection-1';
</script>
<script xlink:href="svgpan.js"/>
<svg id="graph" class="graph">
<g id="viewport">
<title>include/screen.h</title>
<polygon fill="white" stroke="transparent" points="-4,4 -4,-472 714.55,-472 714.55,4 -4,4"/>
<!-- Node1 -->
<g id="node1" class="node">
<title>Node1</title>
<g id="a_node1"><a xlink:title="User interface manager.">
<polygon fill="#bfbfbf" stroke="black" points="170.5,-448.5 170.5,-467.5 266.5,-467.5 266.5,-448.5 170.5,-448.5"/>
<text text-anchor="middle" x="218.5" y="-455.5" font-family="Helvetica,sans-Serif" font-size="10.00">include/screen.h</text>
</a>
</g>
</g>
<!-- Node2 -->
<g id="node2" class="node">
<title>Node2</title>
<g id="a_node2"><a xlink:href="screen_8c.html" target="_top" xlink:title=" ">
<polygon fill="white" stroke="black" points="0,-392.5 0,-411.5 89,-411.5 89,-392.5 0,-392.5"/>
<text text-anchor="middle" x="44.5" y="-399.5" font-family="Helvetica,sans-Serif" font-size="10.00">src/P2/screen.c</text>
</a>
</g>
</g>
<!-- Node1&#45;&gt;Node2 -->
<g id="edge1" class="edge">
<title>Node1&#45;&gt;Node2</title>
<path fill="none" stroke="midnightblue" d="M181.24,-445.44C148.43,-435.26 101.42,-420.66 71.94,-411.52"/>
<polygon fill="midnightblue" stroke="midnightblue" points="180.34,-448.82 190.93,-448.44 182.42,-442.14 180.34,-448.82"/>
</g>
<!-- Node3 -->
<g id="node3" class="node">
<title>Node3</title>
<g id="a_node3"><a xlink:href="steppower_8c.html" target="_top" xlink:title=" ">
<polygon fill="white" stroke="black" points="107,-392.5 107,-411.5 214,-411.5 214,-392.5 107,-392.5"/>
<text text-anchor="middle" x="160.5" y="-399.5" font-family="Helvetica,sans-Serif" font-size="10.00">src/P2/steppower.c</text>
</a>
</g>
</g>
<!-- Node1&#45;&gt;Node3 -->
<g id="edge2" class="edge">
<title>Node1&#45;&gt;Node3</title>
<path fill="none" stroke="midnightblue" d="M201.59,-441.25C191.3,-431.67 178.53,-419.79 169.99,-411.83"/>
<polygon fill="midnightblue" stroke="midnightblue" points="199.48,-444.07 209.18,-448.32 204.25,-438.95 199.48,-444.07"/>
</g>
<!-- Node4 -->
<g id="node4" class="node">
<title>Node4</title>
<g id="a_node4"><a xlink:href="binoc_8h.html" target="_top" xlink:title="Binoc&#45;u&#45;com.">
<polygon fill="white" stroke="black" points="232.5,-392.5 232.5,-411.5 322.5,-411.5 322.5,-392.5 232.5,-392.5"/>
<text text-anchor="middle" x="277.5" y="-399.5" font-family="Helvetica,sans-Serif" font-size="10.00">include/binoc.h</text>
</a>
</g>
</g>
<!-- Node1&#45;&gt;Node4 -->
<g id="edge3" class="edge">
<title>Node1&#45;&gt;Node4</title>
<path fill="none" stroke="midnightblue" d="M235.39,-441.54C245.91,-431.91 259.07,-419.87 267.85,-411.83"/>
<polygon fill="midnightblue" stroke="midnightblue" points="232.99,-438.99 227.98,-448.32 237.72,-444.15 232.99,-438.99"/>
</g>
<!-- Node25 -->
<g id="node25" class="node">
<title>Node25</title>
<g id="a_node25"><a xlink:href="ui_8h.html" target="_top" xlink:title="User interface.">
<polygon fill="white" stroke="black" points="374,-392.5 374,-411.5 447,-411.5 447,-392.5 374,-392.5"/>
<text text-anchor="middle" x="410.5" y="-399.5" font-family="Helvetica,sans-Serif" font-size="10.00">include/ui.h</text>
</a>
</g>
</g>
<!-- Node1&#45;&gt;Node25 -->
<g id="edge29" class="edge">
<title>Node1&#45;&gt;Node25</title>
<path fill="none" stroke="midnightblue" d="M258.68,-445.7C294.92,-435.51 347.41,-420.74 380.22,-411.52"/>
<polygon fill="midnightblue" stroke="midnightblue" points="257.6,-442.37 248.92,-448.44 259.5,-449.11 257.6,-442.37"/>
</g>
<!-- Node5 -->
<g id="node5" class="node">
<title>Node5</title>
<g id="a_node5"><a xlink:href="binoc_8c.html" target="_top" xlink:title=" ">
<polygon fill="white" stroke="black" points="166,-336.5 166,-355.5 249,-355.5 249,-336.5 166,-336.5"/>
<text text-anchor="middle" x="207.5" y="-343.5" font-family="Helvetica,sans-Serif" font-size="10.00">src/P2/binoc.c</text>
</a>
</g>
</g>
<!-- Node4&#45;&gt;Node5 -->
<g id="edge4" class="edge">
<title>Node4&#45;&gt;Node5</title>
<path fill="none" stroke="midnightblue" d="M258.19,-386.1C245.59,-376.38 229.57,-364.03 218.95,-355.83"/>
<polygon fill="midnightblue" stroke="midnightblue" points="256.2,-388.99 266.25,-392.32 260.47,-383.44 256.2,-388.99"/>
</g>
<!-- Node6 -->
<g id="node6" class="node">
<title>Node6</title>
<g id="a_node6"><a xlink:href="cm_8c.html" target="_top" xlink:title=" ">
<polygon fill="white" stroke="black" points="122.5,-112.5 122.5,-131.5 194.5,-131.5 194.5,-112.5 122.5,-112.5"/>
<text text-anchor="middle" x="158.5" y="-119.5" font-family="Helvetica,sans-Serif" font-size="10.00">src/P2/cm.c</text>
</a>
</g>
</g>
<!-- Node4&#45;&gt;Node6 -->
<g id="edge5" class="edge">
<title>Node4&#45;&gt;Node6</title>
<path fill="none" stroke="midnightblue" d="M222.49,-391.9C199.3,-385.45 173.74,-374.52 156.5,-356 135.99,-333.97 137.5,-321.1 137.5,-291 137.5,-291 137.5,-291 137.5,-233 137.5,-194.7 149.94,-150.21 155.67,-131.73"/>
<polygon fill="midnightblue" stroke="midnightblue" points="221.7,-395.31 232.25,-394.39 223.43,-388.52 221.7,-395.31"/>
</g>
<!-- Node7 -->
<g id="node7" class="node">
<title>Node7</title>
<g id="a_node7"><a xlink:href="cm_8h.html" target="_top" xlink:title="Game camera.">
<polygon fill="white" stroke="black" points="223,-168.5 223,-187.5 302,-187.5 302,-168.5 223,-168.5"/>
<text text-anchor="middle" x="262.5" y="-175.5" font-family="Helvetica,sans-Serif" font-size="10.00">include/cm.h</text>
</a>
</g>
</g>
<!-- Node4&#45;&gt;Node7 -->
<g id="edge6" class="edge">
<title>Node4&#45;&gt;Node7</title>
<path fill="none" stroke="midnightblue" d="M276.24,-382.3C273.15,-336.64 265.33,-220.85 263.1,-187.88"/>
<polygon fill="midnightblue" stroke="midnightblue" points="272.75,-382.56 276.91,-392.3 279.73,-382.08 272.75,-382.56"/>
</g>
<!-- Node10 -->
<g id="node10" class="node">
<title>Node10</title>
<g id="a_node10"><a xlink:href="prog_8h.html" target="_top" xlink:title=" ">
<polygon fill="white" stroke="black" points="305.5,-336.5 305.5,-355.5 391.5,-355.5 391.5,-336.5 305.5,-336.5"/>
<text text-anchor="middle" x="348.5" y="-343.5" font-family="Helvetica,sans-Serif" font-size="10.00">include/prog.h</text>
</a>
</g>
</g>
<!-- Node4&#45;&gt;Node10 -->
<g id="edge10" class="edge">
<title>Node4&#45;&gt;Node10</title>
<path fill="none" stroke="midnightblue" d="M297.09,-386.1C309.87,-376.38 326.11,-364.03 336.89,-355.83"/>
<polygon fill="midnightblue" stroke="midnightblue" points="294.75,-383.48 288.91,-392.32 298.99,-389.06 294.75,-383.48"/>
</g>
<!-- Node7&#45;&gt;Node6 -->
<g id="edge7" class="edge">
<title>Node7&#45;&gt;Node6</title>
<path fill="none" stroke="midnightblue" d="M236.67,-163.59C217.44,-153.61 191.76,-140.27 175.17,-131.65"/>
<polygon fill="midnightblue" stroke="midnightblue" points="235.3,-166.82 245.79,-168.32 238.53,-160.61 235.3,-166.82"/>
</g>
<!-- Node8 -->
<g id="node8" class="node">
<title>Node8</title>
<g id="a_node8"><a xlink:href="flash_8h.html" target="_top" xlink:title="Flash (might be flash animation, or literal screen flashes).">
<polygon fill="white" stroke="black" points="219,-112.5 219,-131.5 306,-131.5 306,-112.5 219,-112.5"/>
<text text-anchor="middle" x="262.5" y="-119.5" font-family="Helvetica,sans-Serif" font-size="10.00">include/flash.h</text>
</a>
</g>
</g>
<!-- Node7&#45;&gt;Node8 -->
<g id="edge8" class="edge">
<title>Node7&#45;&gt;Node8</title>
<path fill="none" stroke="midnightblue" d="M262.5,-157.8C262.5,-148.91 262.5,-138.78 262.5,-131.75"/>
<polygon fill="midnightblue" stroke="midnightblue" points="259,-158.08 262.5,-168.08 266,-158.08 259,-158.08"/>
</g>
<!-- Node9 -->
<g id="node9" class="node">
<title>Node9</title>
<g id="a_node9"><a xlink:href="flash_8c.html" target="_top" xlink:title=" ">
<polygon fill="white" stroke="black" points="222.5,-56.5 222.5,-75.5 302.5,-75.5 302.5,-56.5 222.5,-56.5"/>
<text text-anchor="middle" x="262.5" y="-63.5" font-family="Helvetica,sans-Serif" font-size="10.00">src/P2/flash.c</text>
</a>
</g>
</g>
<!-- Node8&#45;&gt;Node9 -->
<g id="edge9" class="edge">
<title>Node8&#45;&gt;Node9</title>
<path fill="none" stroke="midnightblue" d="M262.5,-101.8C262.5,-92.91 262.5,-82.78 262.5,-75.75"/>
<polygon fill="midnightblue" stroke="midnightblue" points="259,-102.08 262.5,-112.08 266,-102.08 259,-102.08"/>
</g>
<!-- Node11 -->
<g id="node11" class="node">
<title>Node11</title>
<g id="a_node11"><a xlink:href="main_8c.html" target="_top" xlink:title=" ">
<polygon fill="white" stroke="black" points="403.5,-280.5 403.5,-299.5 485.5,-299.5 485.5,-280.5 403.5,-280.5"/>
<text text-anchor="middle" x="444.5" y="-287.5" font-family="Helvetica,sans-Serif" font-size="10.00">src/P2/main.c</text>
</a>
</g>
</g>
<!-- Node10&#45;&gt;Node11 -->
<g id="edge11" class="edge">
<title>Node10&#45;&gt;Node11</title>
<path fill="none" stroke="midnightblue" d="M373.07,-331.18C390.74,-321.24 414.01,-308.15 429.11,-299.65"/>
<polygon fill="midnightblue" stroke="midnightblue" points="370.92,-328.37 363.92,-336.32 374.36,-334.47 370.92,-328.37"/>
</g>
<!-- Node12 -->
<g id="node12" class="node">
<title>Node12</title>
<g id="a_node12"><a xlink:href="prog_8c.html" target="_top" xlink:title=" ">
<polygon fill="white" stroke="black" points="306,-280.5 306,-299.5 385,-299.5 385,-280.5 306,-280.5"/>
<text text-anchor="middle" x="345.5" y="-287.5" font-family="Helvetica,sans-Serif" font-size="10.00">src/P2/prog.c</text>
</a>
</g>
</g>
<!-- Node10&#45;&gt;Node12 -->
<g id="edge12" class="edge">
<title>Node10&#45;&gt;Node12</title>
<path fill="none" stroke="midnightblue" d="M347.43,-325.8C346.94,-316.91 346.38,-306.78 345.99,-299.75"/>
<polygon fill="midnightblue" stroke="midnightblue" points="343.96,-326.29 348,-336.08 350.94,-325.9 343.96,-326.29"/>
</g>
<!-- Node13 -->
<g id="node13" class="node">
<title>Node13</title>
<g id="a_node13"><a xlink:href="bis_8h.html" target="_top" xlink:title="Binary Input Stream.">
<polygon fill="white" stroke="black" points="503.5,-280.5 503.5,-299.5 581.5,-299.5 581.5,-280.5 503.5,-280.5"/>
<text text-anchor="middle" x="542.5" y="-287.5" font-family="Helvetica,sans-Serif" font-size="10.00">include/bis.h</text>
</a>
</g>
</g>
<!-- Node10&#45;&gt;Node13 -->
<g id="edge13" class="edge">
<title>Node10&#45;&gt;Node13</title>
<path fill="none" stroke="midnightblue" d="M389.1,-333.7C425.72,-323.51 478.76,-308.74 511.9,-299.52"/>
<polygon fill="midnightblue" stroke="midnightblue" points="387.94,-330.39 379.24,-336.44 389.81,-337.13 387.94,-330.39"/>
</g>
<!-- Node14 -->
<g id="node14" class="node">
<title>Node14</title>
<g id="a_node14"><a xlink:href="bis_8c.html" target="_top" xlink:title=" ">
<polygon fill="white" stroke="black" points="567,-224.5 567,-243.5 638,-243.5 638,-224.5 567,-224.5"/>
<text text-anchor="middle" x="602.5" y="-231.5" font-family="Helvetica,sans-Serif" font-size="10.00">src/P2/bis.c</text>
</a>
</g>
</g>
<!-- Node13&#45;&gt;Node14 -->
<g id="edge14" class="edge">
<title>Node13&#45;&gt;Node14</title>
<path fill="none" stroke="midnightblue" d="M559.68,-273.54C570.38,-263.91 583.76,-251.87 592.68,-243.83"/>
<polygon fill="midnightblue" stroke="midnightblue" points="557.23,-271.03 552.14,-280.32 561.91,-276.24 557.23,-271.03"/>
</g>
<!-- Node15 -->
<g id="node15" class="node">
<title>Node15</title>
<g id="a_node15"><a xlink:href="coin_8c.html" target="_top" xlink:title=" ">
<polygon fill="white" stroke="black" points="616,-56.5 616,-75.5 693,-75.5 693,-56.5 616,-56.5"/>
<text text-anchor="middle" x="654.5" y="-63.5" font-family="Helvetica,sans-Serif" font-size="10.00">src/P2/coin.c</text>
</a>
</g>
</g>
<!-- Node13&#45;&gt;Node15 -->
<g id="edge15" class="edge">
<title>Node13&#45;&gt;Node15</title>
<path fill="none" stroke="midnightblue" d="M585.26,-277.15C605.69,-269.97 629.54,-259.19 647.5,-244 670.09,-224.89 670.03,-214.34 683.5,-188 699.51,-156.69 719.96,-144.05 705.5,-112 698.31,-96.07 682.39,-83.52 670.23,-75.76"/>
<polygon fill="midnightblue" stroke="midnightblue" points="583.92,-273.91 575.54,-280.4 586.14,-280.55 583.92,-273.91"/>
</g>
<!-- Node16 -->
<g id="node16" class="node">
<title>Node16</title>
<g id="a_node16"><a xlink:href="chkpnt_8h.html" target="_top" xlink:title="Checkpoint system.">
<polygon fill="white" stroke="black" points="350,-112.5 350,-131.5 447,-131.5 447,-112.5 350,-112.5"/>
<text text-anchor="middle" x="398.5" y="-119.5" font-family="Helvetica,sans-Serif" font-size="10.00">include/chkpnt.h</text>
</a>
</g>
</g>
<!-- Node13&#45;&gt;Node16 -->
<g id="edge16" class="edge">
<title>Node13&#45;&gt;Node16</title>
<path fill="none" stroke="midnightblue" d="M493.45,-278.79C447.13,-266.21 380.41,-239.81 350.5,-188 338.08,-166.5 365.78,-143.66 384.06,-131.61"/>
<polygon fill="midnightblue" stroke="midnightblue" points="492.74,-282.22 503.3,-281.34 494.5,-275.44 492.74,-282.22"/>
</g>
<!-- Node20 -->
<g id="node20" class="node">
<title>Node20</title>
<g id="a_node20"><a xlink:href="xform_8h.html" target="_top" xlink:title="Transform.">
<polygon fill="white" stroke="black" points="456,-224.5 456,-243.5 549,-243.5 549,-224.5 456,-224.5"/>
<text text-anchor="middle" x="502.5" y="-231.5" font-family="Helvetica,sans-Serif" font-size="10.00">include/xform.h</text>
</a>
</g>
</g>
<!-- Node13&#45;&gt;Node20 -->
<g id="edge21" class="edge">
<title>Node13&#45;&gt;Node20</title>
<path fill="none" stroke="midnightblue" d="M529.8,-271.86C522.87,-262.5 514.59,-251.33 508.98,-243.75"/>
<polygon fill="midnightblue" stroke="midnightblue" points="527.13,-274.13 535.89,-280.08 532.75,-269.96 527.13,-274.13"/>
</g>
<!-- Node16&#45;&gt;Node15 -->
<g id="edge18" class="edge">
<title>Node16&#45;&gt;Node15</title>
<path fill="none" stroke="midnightblue" d="M449.13,-110.32C498.12,-99.99 571.31,-84.55 615.8,-75.16"/>
<polygon fill="midnightblue" stroke="midnightblue" points="448.13,-106.95 439.06,-112.44 449.57,-113.8 448.13,-106.95"/>
</g>
<!-- Node17 -->
<g id="node17" class="node">
<title>Node17</title>
<g id="a_node17"><a xlink:href="chkpnt_8c.html" target="_top" xlink:title=" ">
<polygon fill="white" stroke="black" points="457.5,-56.5 457.5,-75.5 547.5,-75.5 547.5,-56.5 457.5,-56.5"/>
<text text-anchor="middle" x="502.5" y="-63.5" font-family="Helvetica,sans-Serif" font-size="10.00">src/P2/chkpnt.c</text>
</a>
</g>
</g>
<!-- Node16&#45;&gt;Node17 -->
<g id="edge17" class="edge">
<title>Node16&#45;&gt;Node17</title>
<path fill="none" stroke="midnightblue" d="M424.33,-107.59C443.56,-97.61 469.24,-84.27 485.83,-75.65"/>
<polygon fill="midnightblue" stroke="midnightblue" points="422.47,-104.61 415.21,-112.32 425.7,-110.82 422.47,-104.61"/>
</g>
<!-- Node18 -->
<g id="node18" class="node">
<title>Node18</title>
<g id="a_node18"><a xlink:href="difficulty_8h.html" target="_top" xlink:title="Dynamic difficulty system.">
<polygon fill="white" stroke="black" points="334,-56.5 334,-75.5 439,-75.5 439,-56.5 334,-56.5"/>
<text text-anchor="middle" x="386.5" y="-63.5" font-family="Helvetica,sans-Serif" font-size="10.00">include/difficulty.h</text>
</a>
</g>
</g>
<!-- Node16&#45;&gt;Node18 -->
<g id="edge19" class="edge">
<title>Node16&#45;&gt;Node18</title>
<path fill="none" stroke="midnightblue" d="M394.3,-102.1C392.31,-93.14 390.02,-82.86 388.44,-75.75"/>
<polygon fill="midnightblue" stroke="midnightblue" points="390.93,-103.08 396.52,-112.08 397.77,-101.56 390.93,-103.08"/>
</g>
<!-- Node19 -->
<g id="node19" class="node">
<title>Node19</title>
<g id="a_node19"><a xlink:href="difficulty_8c.html" target="_top" xlink:title=" ">
<polygon fill="white" stroke="black" points="337.5,-0.5 337.5,-19.5 435.5,-19.5 435.5,-0.5 337.5,-0.5"/>
<text text-anchor="middle" x="386.5" y="-7.5" font-family="Helvetica,sans-Serif" font-size="10.00">src/P2/difficulty.c</text>
</a>
</g>
</g>
<!-- Node18&#45;&gt;Node19 -->
<g id="edge20" class="edge">
<title>Node18&#45;&gt;Node19</title>
<path fill="none" stroke="midnightblue" d="M386.5,-45.8C386.5,-36.91 386.5,-26.78 386.5,-19.75"/>
<polygon fill="midnightblue" stroke="midnightblue" points="383,-46.08 386.5,-56.08 390,-46.08 383,-46.08"/>
</g>
<!-- Node20&#45;&gt;Node7 -->
<g id="edge24" class="edge">
<title>Node20&#45;&gt;Node7</title>
<path fill="none" stroke="midnightblue" d="M454.58,-222.22C409.23,-212.01 342.06,-196.9 300.35,-187.52"/>
<polygon fill="midnightblue" stroke="midnightblue" points="453.95,-225.66 464.47,-224.44 455.48,-218.83 453.95,-225.66"/>
</g>
<!-- Node21 -->
<g id="node21" class="node">
<title>Node21</title>
<g id="a_node21"><a xlink:href="xform1_8c.html" target="_top" xlink:title=" ">
<polygon fill="white" stroke="black" points="456.5,-168.5 456.5,-187.5 548.5,-187.5 548.5,-168.5 456.5,-168.5"/>
<text text-anchor="middle" x="502.5" y="-175.5" font-family="Helvetica,sans-Serif" font-size="10.00">src/P2/xform1.c</text>
</a>
</g>
</g>
<!-- Node20&#45;&gt;Node21 -->
<g id="edge22" class="edge">
<title>Node20&#45;&gt;Node21</title>
<path fill="none" stroke="midnightblue" d="M502.5,-213.8C502.5,-204.91 502.5,-194.78 502.5,-187.75"/>
<polygon fill="midnightblue" stroke="midnightblue" points="499,-214.08 502.5,-224.08 506,-214.08 499,-214.08"/>
</g>
<!-- Node22 -->
<g id="node22" class="node">
<title>Node22</title>
<g id="a_node22"><a xlink:href="xform2_8c.html" target="_top" xlink:title=" ">
<polygon fill="white" stroke="black" points="566.5,-168.5 566.5,-187.5 658.5,-187.5 658.5,-168.5 566.5,-168.5"/>
<text text-anchor="middle" x="612.5" y="-175.5" font-family="Helvetica,sans-Serif" font-size="10.00">src/P2/xform2.c</text>
</a>
</g>
</g>
<!-- Node20&#45;&gt;Node22 -->
<g id="edge23" class="edge">
<title>Node20&#45;&gt;Node22</title>
<path fill="none" stroke="midnightblue" d="M529.26,-219.86C549.66,-209.85 577.17,-196.35 594.87,-187.65"/>
<polygon fill="midnightblue" stroke="midnightblue" points="527.61,-216.78 520.17,-224.32 530.69,-223.06 527.61,-216.78"/>
</g>
<!-- Node23 -->
<g id="node23" class="node">
<title>Node23</title>
<g id="a_node23"><a xlink:href="coin_8h.html" target="_top" xlink:title="Coins, keys, and other collectibles.">
<polygon fill="white" stroke="black" points="612.5,-112.5 612.5,-131.5 696.5,-131.5 696.5,-112.5 612.5,-112.5"/>
<text text-anchor="middle" x="654.5" y="-119.5" font-family="Helvetica,sans-Serif" font-size="10.00">include/coin.h</text>
</a>
</g>
</g>
<!-- Node20&#45;&gt;Node23 -->
<g id="edge25" class="edge">
<title>Node20&#45;&gt;Node23</title>
<path fill="none" stroke="midnightblue" d="M553.47,-222.35C599.26,-212.26 660.38,-197.32 667.5,-188 680.35,-171.17 668.01,-144.96 660.06,-131.54"/>
<polygon fill="midnightblue" stroke="midnightblue" points="552.69,-218.93 543.67,-224.48 554.18,-225.77 552.69,-218.93"/>
</g>
<!-- Node24 -->
<g id="node24" class="node">
<title>Node24</title>
<g id="a_node24"><a xlink:href="vol_8h.html" target="_top" xlink:title="Volume object.">
<polygon fill="white" stroke="black" points="359,-168.5 359,-187.5 438,-187.5 438,-168.5 359,-168.5"/>
<text text-anchor="middle" x="398.5" y="-175.5" font-family="Helvetica,sans-Serif" font-size="10.00">include/vol.h</text>
</a>
</g>
</g>
<!-- Node20&#45;&gt;Node24 -->
<g id="edge27" class="edge">
<title>Node20&#45;&gt;Node24</title>
<path fill="none" stroke="midnightblue" d="M476.67,-219.59C457.44,-209.61 431.76,-196.27 415.17,-187.65"/>
<polygon fill="midnightblue" stroke="midnightblue" points="475.3,-222.82 485.79,-224.32 478.53,-216.61 475.3,-222.82"/>
</g>
<!-- Node23&#45;&gt;Node15 -->
<g id="edge26" class="edge">
<title>Node23&#45;&gt;Node15</title>
<path fill="none" stroke="midnightblue" d="M654.5,-101.8C654.5,-92.91 654.5,-82.78 654.5,-75.75"/>
<polygon fill="midnightblue" stroke="midnightblue" points="651,-102.08 654.5,-112.08 658,-102.08 651,-102.08"/>
</g>
<!-- Node24&#45;&gt;Node16 -->
<g id="edge28" class="edge">
<title>Node24&#45;&gt;Node16</title>
<path fill="none" stroke="midnightblue" d="M398.5,-157.8C398.5,-148.91 398.5,-138.78 398.5,-131.75"/>
<polygon fill="midnightblue" stroke="midnightblue" points="395,-158.08 398.5,-168.08 402,-158.08 395,-158.08"/>
</g>
<!-- Node26 -->
<g id="node26" class="node">
<title>Node26</title>
<g id="a_node26"><a xlink:href="ui_8c.html" target="_top" xlink:title=" ">
<polygon fill="white" stroke="black" points="409.5,-336.5 409.5,-355.5 475.5,-355.5 475.5,-336.5 409.5,-336.5"/>
<text text-anchor="middle" x="442.5" y="-343.5" font-family="Helvetica,sans-Serif" font-size="10.00">src/P2/ui.c</text>
</a>
</g>
</g>
<!-- Node25&#45;&gt;Node26 -->
<g id="edge30" class="edge">
<title>Node25&#45;&gt;Node26</title>
<path fill="none" stroke="midnightblue" d="M421,-383.27C426.47,-374.05 432.92,-363.17 437.31,-355.75"/>
<polygon fill="midnightblue" stroke="midnightblue" points="417.87,-381.7 415.78,-392.08 423.89,-385.26 417.87,-381.7"/>
</g>
</g>
</svg>
        <g id="navigator" transform="translate(0 0)" fill="#404254">
                <rect fill="#f2f5e9" fill-opacity="0.5" stroke="#606060" stroke-width=".5" x="0" y="0" width="60" height="60"/>
                <use id="zoomplus" xlink:href="#zoomPlus" x="17" y="9" onmousedown="handleZoom(evt,'in')"/>
                <use id="zoomminus" xlink:href="#zoomMin" x="42" y="9" onmousedown="handleZoom(evt,'out')"/>
                <use id="reset" xlink:href="#resetDef" x="30" y="36" onmousedown="handleReset()"/>
                <g id="arrowUp" xlink:href="#dirArrow" transform="translate(30 24)" onmousedown="handlePan(0,-1)">
                  <use xlink:href="#rim" fill="#404040">
                        <set attributeName="fill" to="#808080" begin="arrowUp.mouseover" end="arrowUp.mouseout"/>
                  </use>
                  <path fill="none" stroke="white" stroke-width="1.5" d="M0,-3.0v7 M-2.5,-0.5L0,-3.0L2.5,-0.5"/>
                </g>
                <g id="arrowRight" xlink:href="#dirArrow" transform="rotate(90) translate(36 -43)" onmousedown="handlePan(1,0)">
                  <use xlink:href="#rim" fill="#404040">
                        <set attributeName="fill" to="#808080" begin="arrowRight.mouseover" end="arrowRight.mouseout"/>
                  </use>
                  <path fill="none" stroke="white" stroke-width="1.5" d="M0,-3.0v7 M-2.5,-0.5L0,-3.0L2.5,-0.5"/>
                </g>
                <g id="arrowDown" xlink:href="#dirArrow" transform="rotate(180) translate(-30 -48)" onmousedown="handlePan(0,1)">
                  <use xlink:href="#rim" fill="#404040">
                        <set attributeName="fill" to="#808080" begin="arrowDown.mouseover" end="arrowDown.mouseout"/>
                  </use>
                  <path fill="none" stroke="white" stroke-width="1.5" d="M0,-3.0v7 M-2.5,-0.5L0,-3.0L2.5,-0.5"/>
                </g>
                <g id="arrowLeft" xlink:href="#dirArrow" transform="rotate(270) translate(-36 17)" onmousedown="handlePan(-1,0)">
                  <use xlink:href="#rim" fill="#404040">
                        <set attributeName="fill" to="#808080" begin="arrowLeft.mouseover" end="arrowLeft.mouseout"/>
                  </use>
                  <path fill="none" stroke="white" stroke-width="1.5" d="M0,-3.0v7 M-2.5,-0.5L0,-3.0L2.5,-0.5"/>
                </g>
        </g>
        <svg viewBox="0 0 15 15" width="100%" height="30px" preserveAspectRatio="xMaxYMin meet">
         <g id="arrow_out" transform="scale(0.3 0.3)">
          <a xlink:href="screen_8h__dep__incl_org.svg" target="_base">
           <rect id="button" ry="5" rx="5" y="6" x="6" height="38" width="38"
                fill="#f2f5e9" fill-opacity="0.5" stroke="#606060" stroke-width="1.0"/>
           <path id="arrow"
             d="M 11.500037,31.436501 C 11.940474,20.09759 22.043105,11.32322 32.158766,21.979434 L 37.068811,17.246167 C 37.068811,17.246167 37.088388,32 37.088388,32 L 22.160133,31.978069 C 22.160133,31.978069 26.997745,27.140456 26.997745,27.140456 C 18.528582,18.264221 13.291696,25.230495 11.500037,31.436501 z"
             style="fill:#404040;"/>
          </a>
         </g>
        </svg>
</svg>
