<?xml version="1.0" encoding="UTF-8" standalone="no"?>
<!DOCTYPE svg PUBLIC "-//W3C//DTD SVG 1.1//EN"
 "http://www.w3.org/Graphics/SVG/1.1/DTD/svg11.dtd">
<!-- Generated by graphviz version 2.43.0 (0)
 -->
<!-- Title: include/screen.h Pages: 1 -->
<!--zoomable 588 -->
<svg id="main" version="1.1" xmlns="http://www.w3.org/2000/svg" xmlns:xlink="http://www.w3.org/1999/xlink" xml:space="preserve" onload="init(evt)">
<style type="text/css"><![CDATA[
.edge:hover path { stroke: red; }
.edge:hover polygon { stroke: red; fill: red; }
]]></style>
<script type="text/javascript"><![CDATA[
var edges = document.getElementsByTagName('g');
if (edges && edges.length) {
  for (var i=0;i<edges.length;i++) {
    if (edges[i].id.substr(0,4)=='edge') {
      edges[i].setAttribute('class','edge');
    }
  }
}
]]></script>
        <defs>
                <circle id="rim" cx="0" cy="0" r="7"/>
                <circle id="rim2" cx="0" cy="0" r="3.5"/>
                <g id="zoomPlus">
                        <use xlink:href="#rim" fill="#404040">
                                <set attributeName="fill" to="#808080" begin="zoomplus.mouseover" end="zoomplus.mouseout"/>
                        </use>
                        <path d="M-4,0h8M0,-4v8" fill="none" stroke="white" stroke-width="1.5" pointer-events="none"/>
                </g>
                <g id="zoomMin">
                        <use xlink:href="#rim" fill="#404040">
                                <set attributeName="fill" to="#808080" begin="zoomminus.mouseover" end="zoomminus.mouseout"/>
                        </use>
                        <path d="M-4,0h8" fill="none" stroke="white" stroke-width="1.5" pointer-events="none"/>
                </g>
                <g id="dirArrow">
                        <path fill="none" stroke="white" stroke-width="1.5" d="M0,-3.0v7 M-2.5,-0.5L0,-3.0L2.5,-0.5"/>
                </g>
               <g id="resetDef">
                       <use xlink:href="#rim2" fill="#404040">
                               <set attributeName="fill" to="#808080" begin="reset.mouseover" end="reset.mouseout"/>
                       </use>
               </g>
        </defs>

<script type="text/javascript">
var viewWidth = 907;
var viewHeight = 588;
var sectionId = 'dynsection-0';
</script>
<script xlink:href="svgpan.js"/>
<svg id="graph" class="graph">
<g id="viewport">
<title>include/screen.h</title>
<polygon fill="white" stroke="transparent" points="-4,4 -4,-584 903,-584 903,4 -4,4"/>
<!-- Node1 -->
<g id="node1" class="node">
<title>Node1</title>
<g id="a_node1"><a xlink:title="User interface manager.">
<polygon fill="#bfbfbf" stroke="black" points="36,-560.5 36,-579.5 132,-579.5 132,-560.5 36,-560.5"/>
<text text-anchor="middle" x="84" y="-567.5" font-family="Helvetica,sans-Serif" font-size="10.00">include/screen.h</text>
</a>
</g>
</g>
<!-- Node2 -->
<g id="node2" class="node">
<title>Node2</title>
<g id="a_node2"><a xlink:href="common_8h.html" target="_top" xlink:title="Common header file.">
<polygon fill="white" stroke="black" points="388,-56.5 388,-75.5 456,-75.5 456,-56.5 388,-56.5"/>
<text text-anchor="middle" x="422" y="-63.5" font-family="Helvetica,sans-Serif" font-size="10.00">common.h</text>
</a>
</g>
</g>
<!-- Node1&#45;&gt;Node2 -->
<g id="edge1" class="edge">
<title>Node1&#45;&gt;Node2</title>
<path fill="none" stroke="midnightblue" d="M70.88,-560.46C47.25,-543.94 0,-505.14 0,-459 0,-459 0,-459 0,-177 0,-139.72 20.36,-130 53,-112 107.93,-81.7 292.2,-71.47 377.72,-68.3"/>
<polygon fill="midnightblue" stroke="midnightblue" points="378.02,-71.79 387.89,-67.94 377.77,-64.8 378.02,-71.79"/>
</g>
<!-- Node6 -->
<g id="node6" class="node">
<title>Node6</title>
<g id="a_node6"><a xlink:href="font_8h.html" target="_top" xlink:title="Font system.">
<polygon fill="white" stroke="black" points="30.5,-336.5 30.5,-355.5 75.5,-355.5 75.5,-336.5 30.5,-336.5"/>
<text text-anchor="middle" x="53" y="-343.5" font-family="Helvetica,sans-Serif" font-size="10.00">font.h</text>
</a>
</g>
</g>
<!-- Node1&#45;&gt;Node6 -->
<g id="edge5" class="edge">
<title>Node1&#45;&gt;Node6</title>
<path fill="none" stroke="midnightblue" d="M82.78,-560.3C78.22,-527.63 62.06,-411.87 55.65,-365.96"/>
<polygon fill="midnightblue" stroke="midnightblue" points="59.09,-365.3 54.24,-355.88 52.16,-366.27 59.09,-365.3"/>
</g>
<!-- Node7 -->
<g id="node7" class="node">
<title>Node7</title>
<g id="a_node7"><a xlink:href="game_8h.html" target="_top" xlink:title="Game state and level management.">
<polygon fill="white" stroke="black" points="86.5,-168.5 86.5,-187.5 139.5,-187.5 139.5,-168.5 86.5,-168.5"/>
<text text-anchor="middle" x="113" y="-175.5" font-family="Helvetica,sans-Serif" font-size="10.00">game.h</text>
</a>
</g>
</g>
<!-- Node1&#45;&gt;Node7 -->
<g id="edge7" class="edge">
<title>Node1&#45;&gt;Node7</title>
<path fill="none" stroke="midnightblue" d="M87.64,-560.34C95.01,-542 111,-497.74 111,-459 111,-459 111,-459 111,-289 111,-256.94 111.86,-219.64 112.45,-197.75"/>
<polygon fill="midnightblue" stroke="midnightblue" points="115.96,-197.65 112.74,-187.56 108.96,-197.45 115.96,-197.65"/>
</g>
<!-- Node10 -->
<g id="node10" class="node">
<title>Node10</title>
<g id="a_node10"><a xlink:href="shd_8h.html" target="_top" xlink:title="Shaders.">
<polygon fill="white" stroke="black" points="687.5,-504.5 687.5,-523.5 730.5,-523.5 730.5,-504.5 687.5,-504.5"/>
<text text-anchor="middle" x="709" y="-511.5" font-family="Helvetica,sans-Serif" font-size="10.00">shd.h</text>
</a>
</g>
</g>
<!-- Node1&#45;&gt;Node10 -->
<g id="edge13" class="edge">
<title>Node1&#45;&gt;Node10</title>
<path fill="none" stroke="midnightblue" d="M132,-564.85C254.31,-554.29 575.13,-526.57 677.28,-517.74"/>
<polygon fill="midnightblue" stroke="midnightblue" points="677.62,-521.22 687.29,-516.88 677.02,-514.25 677.62,-521.22"/>
</g>
<!-- Node3 -->
<g id="node3" class="node">
<title>Node3</title>
<g id="a_node3"><a xlink:href="include__asm_8h.html" target="_top" xlink:title=" ">
<polygon fill="white" stroke="black" points="267.5,-0.5 267.5,-19.5 354.5,-19.5 354.5,-0.5 267.5,-0.5"/>
<text text-anchor="middle" x="311" y="-7.5" font-family="Helvetica,sans-Serif" font-size="10.00">include_asm.h</text>
</a>
</g>
</g>
<!-- Node2&#45;&gt;Node3 -->
<g id="edge2" class="edge">
<title>Node2&#45;&gt;Node3</title>
<path fill="none" stroke="midnightblue" d="M404.17,-56.32C386.28,-47.62 358.52,-34.12 337.95,-24.11"/>
<polygon fill="midnightblue" stroke="midnightblue" points="339.31,-20.88 328.79,-19.65 336.25,-27.18 339.31,-20.88"/>
</g>
<!-- Node4 -->
<g id="node4" class="node">
<title>Node4</title>
<g id="a_node4"><a xlink:href="include__rodata_8h.html" target="_top" xlink:title=" ">
<polygon fill="white" stroke="black" points="373,-0.5 373,-19.5 471,-19.5 471,-0.5 373,-0.5"/>
<text text-anchor="middle" x="422" y="-7.5" font-family="Helvetica,sans-Serif" font-size="10.00">include_rodata.h</text>
</a>
</g>
</g>
<!-- Node2&#45;&gt;Node4 -->
<g id="edge3" class="edge">
<title>Node2&#45;&gt;Node4</title>
<path fill="none" stroke="midnightblue" d="M422,-56.08C422,-49.01 422,-38.86 422,-29.99"/>
<polygon fill="midnightblue" stroke="midnightblue" points="425.5,-29.75 422,-19.75 418.5,-29.75 425.5,-29.75"/>
</g>
<!-- Node5 -->
<g id="node5" class="node">
<title>Node5</title>
<g id="a_node5"><a xlink:href="types_8h.html" target="_top" xlink:title="Types used throughout the engine.">
<polygon fill="white" stroke="black" points="489.5,-0.5 489.5,-19.5 542.5,-19.5 542.5,-0.5 489.5,-0.5"/>
<text text-anchor="middle" x="516" y="-7.5" font-family="Helvetica,sans-Serif" font-size="10.00">types.h</text>
</a>
</g>
</g>
<!-- Node2&#45;&gt;Node5 -->
<g id="edge4" class="edge">
<title>Node2&#45;&gt;Node5</title>
<path fill="none" stroke="midnightblue" d="M437.1,-56.32C451.9,-47.82 474.69,-34.73 491.98,-24.8"/>
<polygon fill="midnightblue" stroke="midnightblue" points="494.01,-27.67 500.93,-19.65 490.52,-21.6 494.01,-27.67"/>
</g>
<!-- Node6&#45;&gt;Node2 -->
<g id="edge6" class="edge">
<title>Node6&#45;&gt;Node2</title>
<path fill="none" stroke="midnightblue" d="M51.04,-336.5C46.97,-318.09 38,-273.16 38,-235 38,-235 38,-235 38,-177 38,-141.09 55.09,-130.28 86,-112 134.43,-83.37 297.89,-72.41 377.58,-68.69"/>
<polygon fill="midnightblue" stroke="midnightblue" points="377.96,-72.17 387.79,-68.23 377.64,-65.18 377.96,-72.17"/>
</g>
<!-- Node7&#45;&gt;Node2 -->
<g id="edge8" class="edge">
<title>Node7&#45;&gt;Node2</title>
<path fill="none" stroke="midnightblue" d="M106.17,-168.32C96.33,-154.71 80.84,-128.24 95,-112 131.13,-70.56 296.81,-65.96 377.54,-66.26"/>
<polygon fill="midnightblue" stroke="midnightblue" points="377.86,-69.76 387.88,-66.32 377.9,-62.76 377.86,-69.76"/>
</g>
<!-- Node8 -->
<g id="node8" class="node">
<title>Node8</title>
<g id="a_node8"><a xlink:href="oid_8h.html" target="_top" xlink:title="Object IDs.">
<polygon fill="white" stroke="black" points="238.5,-112.5 238.5,-131.5 279.5,-131.5 279.5,-112.5 238.5,-112.5"/>
<text text-anchor="middle" x="259" y="-119.5" font-family="Helvetica,sans-Serif" font-size="10.00">oid.h</text>
</a>
</g>
</g>
<!-- Node7&#45;&gt;Node8 -->
<g id="edge9" class="edge">
<title>Node7&#45;&gt;Node8</title>
<path fill="none" stroke="midnightblue" d="M136.13,-168.44C161.2,-159.17 201.29,-144.35 228.81,-134.17"/>
<polygon fill="midnightblue" stroke="midnightblue" points="230.17,-137.4 238.33,-130.64 227.74,-130.83 230.17,-137.4"/>
</g>
<!-- Node9 -->
<g id="node9" class="node">
<title>Node9</title>
<g id="a_node9"><a xlink:href="cid_8h.html" target="_top" xlink:title="Class ID.">
<polygon fill="white" stroke="black" points="104,-112.5 104,-131.5 144,-131.5 144,-112.5 104,-112.5"/>
<text text-anchor="middle" x="124" y="-119.5" font-family="Helvetica,sans-Serif" font-size="10.00">cid.h</text>
</a>
</g>
</g>
<!-- Node7&#45;&gt;Node9 -->
<g id="edge11" class="edge">
<title>Node7&#45;&gt;Node9</title>
<path fill="none" stroke="midnightblue" d="M114.82,-168.08C116.27,-160.93 118.37,-150.64 120.19,-141.69"/>
<polygon fill="midnightblue" stroke="midnightblue" points="123.65,-142.25 122.22,-131.75 116.79,-140.85 123.65,-142.25"/>
</g>
<!-- Node8&#45;&gt;Node2 -->
<g id="edge10" class="edge">
<title>Node8&#45;&gt;Node2</title>
<path fill="none" stroke="midnightblue" d="M279.64,-114.16C306.51,-105.26 353.86,-89.57 386.53,-78.75"/>
<polygon fill="midnightblue" stroke="midnightblue" points="387.77,-82.03 396.16,-75.56 385.56,-75.38 387.77,-82.03"/>
</g>
<!-- Node9&#45;&gt;Node2 -->
<g id="edge12" class="edge">
<title>Node9&#45;&gt;Node2</title>
<path fill="none" stroke="midnightblue" d="M144.06,-115.37C148.63,-114.18 153.47,-112.98 158,-112 234.67,-95.35 324.98,-81.1 377.62,-73.32"/>
<polygon fill="midnightblue" stroke="midnightblue" points="378.25,-76.76 387.64,-71.85 377.23,-69.84 378.25,-76.76"/>
</g>
<!-- Node10&#45;&gt;Node2 -->
<g id="edge14" class="edge">
<title>Node10&#45;&gt;Node2</title>
<path fill="none" stroke="midnightblue" d="M728.41,-504.46C759.99,-489.11 819,-453.64 819,-403 819,-403 819,-403 819,-177 819,-137.68 793.89,-130.12 759,-112 708.93,-85.99 545.72,-73.73 466.26,-69.19"/>
<polygon fill="midnightblue" stroke="midnightblue" points="466.26,-65.69 456.08,-68.63 465.87,-72.68 466.26,-65.69"/>
</g>
<!-- Node11 -->
<g id="node11" class="node">
<title>Node11</title>
<g id="a_node11"><a xlink:href="binoc_8h.html" target="_top" xlink:title="Binoc&#45;u&#45;com.">
<polygon fill="white" stroke="black" points="847,-280.5 847,-299.5 899,-299.5 899,-280.5 847,-280.5"/>
<text text-anchor="middle" x="873" y="-287.5" font-family="Helvetica,sans-Serif" font-size="10.00">binoc.h</text>
</a>
</g>
</g>
<!-- Node10&#45;&gt;Node11 -->
<g id="edge15" class="edge">
<title>Node10&#45;&gt;Node11</title>
<path fill="none" stroke="midnightblue" d="M730.91,-511.31C758.84,-507.94 806.65,-497.89 833,-468 873.05,-422.56 875.51,-345.54 874.24,-310"/>
<polygon fill="midnightblue" stroke="midnightblue" points="877.72,-309.46 873.72,-299.65 870.73,-309.81 877.72,-309.46"/>
</g>
<!-- Node12 -->
<g id="node12" class="node">
<title>Node12</title>
<g id="a_node12"><a xlink:href="geom_8h.html" target="_top" xlink:title="Geometry.">
<polygon fill="white" stroke="black" points="737.5,-392.5 737.5,-411.5 790.5,-411.5 790.5,-392.5 737.5,-392.5"/>
<text text-anchor="middle" x="764" y="-399.5" font-family="Helvetica,sans-Serif" font-size="10.00">geom.h</text>
</a>
</g>
</g>
<!-- Node10&#45;&gt;Node12 -->
<g id="edge17" class="edge">
<title>Node10&#45;&gt;Node12</title>
<path fill="none" stroke="midnightblue" d="M713.32,-504.37C722.31,-486.38 743.22,-444.55 755.19,-420.63"/>
<polygon fill="midnightblue" stroke="midnightblue" points="758.36,-422.1 759.7,-411.59 752.1,-418.97 758.36,-422.1"/>
</g>
<!-- Node13 -->
<g id="node13" class="node">
<title>Node13</title>
<g id="a_node13"><a xlink:href="surf_8h.html" target="_top" xlink:title="Surface?">
<polygon fill="white" stroke="black" points="637,-448.5 637,-467.5 681,-467.5 681,-448.5 637,-448.5"/>
<text text-anchor="middle" x="659" y="-455.5" font-family="Helvetica,sans-Serif" font-size="10.00">surf.h</text>
</a>
</g>
</g>
<!-- Node10&#45;&gt;Node13 -->
<g id="edge19" class="edge">
<title>Node10&#45;&gt;Node13</title>
<path fill="none" stroke="midnightblue" d="M700.74,-504.08C693.54,-496.3 682.89,-484.8 674.15,-475.37"/>
<polygon fill="midnightblue" stroke="midnightblue" points="676.47,-472.71 667.1,-467.75 671.33,-477.47 676.47,-472.71"/>
</g>
<!-- Node14 -->
<g id="node14" class="node">
<title>Node14</title>
<g id="a_node14"><a xlink:href="vec_8h.html" target="_top" xlink:title="Vector math functions.">
<polygon fill="white" stroke="black" points="587.5,-392.5 587.5,-411.5 630.5,-411.5 630.5,-392.5 587.5,-392.5"/>
<text text-anchor="middle" x="609" y="-399.5" font-family="Helvetica,sans-Serif" font-size="10.00">vec.h</text>
</a>
</g>
</g>
<!-- Node10&#45;&gt;Node14 -->
<g id="edge45" class="edge">
<title>Node10&#45;&gt;Node14</title>
<path fill="none" stroke="midnightblue" d="M687.31,-506.21C668.96,-499.39 643.26,-487.1 628,-468 617.35,-454.66 612.67,-435.55 610.61,-421.5"/>
<polygon fill="midnightblue" stroke="midnightblue" points="614.08,-421.06 609.46,-411.52 607.13,-421.86 614.08,-421.06"/>
</g>
<!-- Node24 -->
<g id="node24" class="node">
<title>Node24</title>
<g id="a_node24"><a xlink:href="sce_2gs_8h.html" target="_top" xlink:title="Graphics Synthesizer.">
<polygon fill="white" stroke="black" points="697,-224.5 697,-243.5 753,-243.5 753,-224.5 697,-224.5"/>
<text text-anchor="middle" x="725" y="-231.5" font-family="Helvetica,sans-Serif" font-size="10.00">sce/gs.h</text>
</a>
</g>
</g>
<!-- Node10&#45;&gt;Node24 -->
<g id="edge43" class="edge">
<title>Node10&#45;&gt;Node24</title>
<path fill="none" stroke="midnightblue" d="M709,-504.44C709,-485.94 709,-440.81 709,-403 709,-403 709,-403 709,-345 709,-312.63 715.87,-275.44 720.61,-253.66"/>
<polygon fill="midnightblue" stroke="midnightblue" points="724.05,-254.3 722.84,-243.78 717.22,-252.76 724.05,-254.3"/>
</g>
<!-- Node11&#45;&gt;Node2 -->
<g id="edge16" class="edge">
<title>Node11&#45;&gt;Node2</title>
<path fill="none" stroke="midnightblue" d="M874.14,-280.31C877.4,-251.29 883.53,-157.11 833,-112 806.04,-87.93 567.18,-73.88 466.47,-68.99"/>
<polygon fill="midnightblue" stroke="midnightblue" points="466.47,-65.48 456.32,-68.5 466.14,-72.47 466.47,-65.48"/>
</g>
<!-- Node12&#45;&gt;Node2 -->
<g id="edge18" class="edge">
<title>Node12&#45;&gt;Node2</title>
<path fill="none" stroke="midnightblue" d="M766.29,-392.23C770.93,-373.69 781,-329.07 781,-291 781,-291 781,-291 781,-177 781,-140.28 761.77,-130.41 730,-112 686.11,-86.56 540.91,-74.23 466.62,-69.46"/>
<polygon fill="midnightblue" stroke="midnightblue" points="466.4,-65.94 456.2,-68.82 465.96,-72.93 466.4,-65.94"/>
</g>
<!-- Node13&#45;&gt;Node2 -->
<g id="edge20" class="edge">
<title>Node13&#45;&gt;Node2</title>
<path fill="none" stroke="midnightblue" d="M660.31,-448.47C663.02,-430.01 669,-384.97 669,-347 669,-347 669,-347 669,-289 669,-210.09 707.59,-170.83 655,-112 630.47,-84.56 526.69,-73.5 466.23,-69.33"/>
<polygon fill="midnightblue" stroke="midnightblue" points="466.4,-65.83 456.19,-68.67 465.94,-72.82 466.4,-65.83"/>
</g>
<!-- Node13&#45;&gt;Node12 -->
<g id="edge42" class="edge">
<title>Node13&#45;&gt;Node12</title>
<path fill="none" stroke="midnightblue" d="M675.87,-448.32C692.71,-439.66 718.81,-426.24 738.24,-416.25"/>
<polygon fill="midnightblue" stroke="midnightblue" points="739.88,-419.34 747.17,-411.65 736.68,-413.12 739.88,-419.34"/>
</g>
<!-- Node13&#45;&gt;Node14 -->
<g id="edge21" class="edge">
<title>Node13&#45;&gt;Node14</title>
<path fill="none" stroke="midnightblue" d="M650.74,-448.08C643.54,-440.3 632.89,-428.8 624.15,-419.37"/>
<polygon fill="midnightblue" stroke="midnightblue" points="626.47,-416.71 617.1,-411.75 621.33,-421.47 626.47,-416.71"/>
</g>
<!-- Node15 -->
<g id="node15" class="node">
<title>Node15</title>
<g id="a_node15"><a xlink:href="so_8h.html" target="_top" xlink:title="Scene objects.">
<polygon fill="white" stroke="black" points="443.5,-336.5 443.5,-355.5 480.5,-355.5 480.5,-336.5 443.5,-336.5"/>
<text text-anchor="middle" x="462" y="-343.5" font-family="Helvetica,sans-Serif" font-size="10.00">so.h</text>
</a>
</g>
</g>
<!-- Node14&#45;&gt;Node15 -->
<g id="edge22" class="edge">
<title>Node14&#45;&gt;Node15</title>
<path fill="none" stroke="midnightblue" d="M587.31,-393.03C561.56,-383.57 518.55,-367.77 490.23,-357.37"/>
<polygon fill="midnightblue" stroke="midnightblue" points="491.11,-353.97 480.52,-353.8 488.7,-360.54 491.11,-353.97"/>
</g>
<!-- Node16 -->
<g id="node16" class="node">
<title>Node16</title>
<g id="a_node16"><a xlink:href="alo_8h.html" target="_top" xlink:title=" ">
<polygon fill="white" stroke="black" points="293.5,-280.5 293.5,-299.5 334.5,-299.5 334.5,-280.5 293.5,-280.5"/>
<text text-anchor="middle" x="314" y="-287.5" font-family="Helvetica,sans-Serif" font-size="10.00">alo.h</text>
</a>
</g>
</g>
<!-- Node15&#45;&gt;Node16 -->
<g id="edge23" class="edge">
<title>Node15&#45;&gt;Node16</title>
<path fill="none" stroke="midnightblue" d="M443.26,-338.16C418.38,-329.08 374.14,-312.94 344.44,-302.11"/>
<polygon fill="midnightblue" stroke="midnightblue" points="345.57,-298.79 334.97,-298.65 343.17,-305.37 345.57,-298.79"/>
</g>
<!-- Node16&#45;&gt;Node2 -->
<g id="edge24" class="edge">
<title>Node16&#45;&gt;Node2</title>
<path fill="none" stroke="midnightblue" d="M296.64,-280.5C269.29,-265.97 217.3,-233.47 198,-188 187.73,-163.81 214.82,-113.95 217,-112 240.36,-91.1 324.9,-77.97 377.84,-71.6"/>
<polygon fill="midnightblue" stroke="midnightblue" points="378.46,-75.06 387.98,-70.42 377.64,-68.1 378.46,-75.06"/>
</g>
<!-- Node17 -->
<g id="node17" class="node">
<title>Node17</title>
<g id="a_node17"><a xlink:href="lo_8h.html" target="_top" xlink:title="Level objects.">
<polygon fill="white" stroke="black" points="328.5,-224.5 328.5,-243.5 363.5,-243.5 363.5,-224.5 328.5,-224.5"/>
<text text-anchor="middle" x="346" y="-231.5" font-family="Helvetica,sans-Serif" font-size="10.00">lo.h</text>
</a>
</g>
</g>
<!-- Node16&#45;&gt;Node17 -->
<g id="edge25" class="edge">
<title>Node16&#45;&gt;Node17</title>
<path fill="none" stroke="midnightblue" d="M319.28,-280.08C323.71,-272.61 330.16,-261.72 335.62,-252.52"/>
<polygon fill="midnightblue" stroke="midnightblue" points="338.73,-254.14 340.81,-243.75 332.71,-250.57 338.73,-254.14"/>
</g>
<!-- Node20 -->
<g id="node20" class="node">
<title>Node20</title>
<g id="a_node20"><a xlink:href="dl_8h.html" target="_top" xlink:title=" ">
<polygon fill="white" stroke="black" points="206.5,-168.5 206.5,-187.5 241.5,-187.5 241.5,-168.5 206.5,-168.5"/>
<text text-anchor="middle" x="224" y="-175.5" font-family="Helvetica,sans-Serif" font-size="10.00">dl.h</text>
</a>
</g>
</g>
<!-- Node16&#45;&gt;Node20 -->
<g id="edge41" class="edge">
<title>Node16&#45;&gt;Node20</title>
<path fill="none" stroke="midnightblue" d="M306.94,-280.37C291.95,-262.05 256.77,-219.05 237.39,-195.36"/>
<polygon fill="midnightblue" stroke="midnightblue" points="240.07,-193.11 231.03,-187.59 234.65,-197.55 240.07,-193.11"/>
</g>
<!-- Node17&#45;&gt;Node2 -->
<g id="edge26" class="edge">
<title>Node17&#45;&gt;Node2</title>
<path fill="none" stroke="midnightblue" d="M341.05,-224.28C329.8,-203.19 305.02,-148.48 328,-112 339.09,-94.4 359.17,-83.53 377.94,-76.9"/>
<polygon fill="midnightblue" stroke="midnightblue" points="379.13,-80.2 387.58,-73.81 376.99,-73.53 379.13,-80.2"/>
</g>
<!-- Node17&#45;&gt;Node8 -->
<g id="edge27" class="edge">
<title>Node17&#45;&gt;Node8</title>
<path fill="none" stroke="midnightblue" d="M333.73,-224.42C322.41,-216.06 305.65,-202.53 294,-188 282.37,-173.5 272.69,-154.56 266.47,-140.88"/>
<polygon fill="midnightblue" stroke="midnightblue" points="269.63,-139.36 262.43,-131.59 263.21,-142.16 269.63,-139.36"/>
</g>
<!-- Node18 -->
<g id="node18" class="node">
<title>Node18</title>
<g id="a_node18"><a xlink:href="basic_8h.html" target="_top" xlink:title="Basic object.">
<polygon fill="white" stroke="black" points="358.5,-168.5 358.5,-187.5 409.5,-187.5 409.5,-168.5 358.5,-168.5"/>
<text text-anchor="middle" x="384" y="-175.5" font-family="Helvetica,sans-Serif" font-size="10.00">basic.h</text>
</a>
</g>
</g>
<!-- Node17&#45;&gt;Node18 -->
<g id="edge28" class="edge">
<title>Node17&#45;&gt;Node18</title>
<path fill="none" stroke="midnightblue" d="M352.27,-224.08C357.64,-216.46 365.52,-205.26 372.08,-195.94"/>
<polygon fill="midnightblue" stroke="midnightblue" points="374.95,-197.94 377.84,-187.75 369.22,-193.91 374.95,-197.94"/>
</g>
<!-- Node17&#45;&gt;Node20 -->
<g id="edge32" class="edge">
<title>Node17&#45;&gt;Node20</title>
<path fill="none" stroke="midnightblue" d="M328.26,-225.15C308.02,-216.19 274.69,-201.44 251.17,-191.03"/>
<polygon fill="midnightblue" stroke="midnightblue" points="252.32,-187.71 241.76,-186.86 249.49,-194.11 252.32,-187.71"/>
</g>
<!-- Node21 -->
<g id="node21" class="node">
<title>Node21</title>
<g id="a_node21"><a xlink:href="sw_8h.html" target="_top" xlink:title="Scene world?">
<polygon fill="white" stroke="black" points="488,-112.5 488,-131.5 526,-131.5 526,-112.5 488,-112.5"/>
<text text-anchor="middle" x="507" y="-119.5" font-family="Helvetica,sans-Serif" font-size="10.00">sw.h</text>
</a>
</g>
</g>
<!-- Node17&#45;&gt;Node21 -->
<g id="edge35" class="edge">
<title>Node17&#45;&gt;Node21</title>
<path fill="none" stroke="midnightblue" d="M360.77,-224.39C375.68,-215.58 399.26,-201.34 419,-188 443.26,-171.61 470.2,-151.39 487.81,-137.9"/>
<polygon fill="midnightblue" stroke="midnightblue" points="490.31,-140.39 496.1,-131.51 486.04,-134.84 490.31,-140.39"/>
</g>
<!-- Node22 -->
<g id="node22" class="node">
<title>Node22</title>
<g id="a_node22"><a xlink:href="frame_8h.html" target="_top" xlink:title=" ">
<polygon fill="white" stroke="black" points="544,-112.5 544,-131.5 630,-131.5 630,-112.5 544,-112.5"/>
<text text-anchor="middle" x="587" y="-119.5" font-family="Helvetica,sans-Serif" font-size="10.00">splice/frame.h</text>
</a>
</g>
</g>
<!-- Node17&#45;&gt;Node22 -->
<g id="edge37" class="edge">
<title>Node17&#45;&gt;Node22</title>
<path fill="none" stroke="midnightblue" d="M363.72,-225.08C383.73,-216.13 417.24,-201.1 446,-188 485.28,-170.11 530.58,-149.17 559.01,-135.99"/>
<polygon fill="midnightblue" stroke="midnightblue" points="560.72,-139.06 568.32,-131.68 557.78,-132.71 560.72,-139.06"/>
</g>
<!-- Node23 -->
<g id="node23" class="node">
<title>Node23</title>
<g id="a_node23"><a xlink:href="mq_8h.html" target="_top" xlink:title="Message queue(?).">
<polygon fill="white" stroke="black" points="590.5,-168.5 590.5,-187.5 631.5,-187.5 631.5,-168.5 590.5,-168.5"/>
<text text-anchor="middle" x="611" y="-175.5" font-family="Helvetica,sans-Serif" font-size="10.00">mq.h</text>
</a>
</g>
</g>
<!-- Node17&#45;&gt;Node23 -->
<g id="edge39" class="edge">
<title>Node17&#45;&gt;Node23</title>
<path fill="none" stroke="midnightblue" d="M363.8,-229.37C408.28,-220.31 524.7,-196.59 580.42,-185.23"/>
<polygon fill="midnightblue" stroke="midnightblue" points="581.31,-188.62 590.41,-183.2 579.91,-181.76 581.31,-188.62"/>
</g>
<!-- Node18&#45;&gt;Node2 -->
<g id="edge29" class="edge">
<title>Node18&#45;&gt;Node2</title>
<path fill="none" stroke="midnightblue" d="M402.08,-168.39C415.56,-160.87 432.97,-148.57 441,-132 448.43,-116.68 441.37,-97.88 433.84,-84.45"/>
<polygon fill="midnightblue" stroke="midnightblue" points="436.7,-82.43 428.47,-75.75 430.74,-86.1 436.7,-82.43"/>
</g>
<!-- Node19 -->
<g id="node19" class="node">
<title>Node19</title>
<g id="a_node19"><a xlink:href="sidebag_8h.html" target="_top" xlink:title="Sidebag for splice.">
<polygon fill="white" stroke="black" points="336.5,-112.5 336.5,-131.5 431.5,-131.5 431.5,-112.5 336.5,-112.5"/>
<text text-anchor="middle" x="384" y="-119.5" font-family="Helvetica,sans-Serif" font-size="10.00">splice/sidebag.h</text>
</a>
</g>
</g>
<!-- Node18&#45;&gt;Node19 -->
<g id="edge30" class="edge">
<title>Node18&#45;&gt;Node19</title>
<path fill="none" stroke="midnightblue" d="M384,-168.08C384,-161.01 384,-150.86 384,-141.99"/>
<polygon fill="midnightblue" stroke="midnightblue" points="387.5,-141.75 384,-131.75 380.5,-141.75 387.5,-141.75"/>
</g>
<!-- Node19&#45;&gt;Node2 -->
<g id="edge31" class="edge">
<title>Node19&#45;&gt;Node2</title>
<path fill="none" stroke="midnightblue" d="M390.27,-112.08C395.64,-104.46 403.52,-93.26 410.08,-83.94"/>
<polygon fill="midnightblue" stroke="midnightblue" points="412.95,-85.94 415.84,-75.75 407.22,-81.91 412.95,-85.94"/>
</g>
<!-- Node20&#45;&gt;Node2 -->
<g id="edge33" class="edge">
<title>Node20&#45;&gt;Node2</title>
<path fill="none" stroke="midnightblue" d="M221.91,-168.2C219.2,-154.43 216.31,-127.73 230,-112 249.09,-90.08 327.32,-77.44 377.85,-71.41"/>
<polygon fill="midnightblue" stroke="midnightblue" points="378.33,-74.88 387.87,-70.26 377.53,-67.93 378.33,-74.88"/>
</g>
<!-- Node20&#45;&gt;Node8 -->
<g id="edge34" class="edge">
<title>Node20&#45;&gt;Node8</title>
<path fill="none" stroke="midnightblue" d="M229.78,-168.08C234.67,-160.53 241.83,-149.49 247.83,-140.23"/>
<polygon fill="midnightblue" stroke="midnightblue" points="250.83,-142.05 253.33,-131.75 244.95,-138.24 250.83,-142.05"/>
</g>
<!-- Node21&#45;&gt;Node2 -->
<g id="edge36" class="edge">
<title>Node21&#45;&gt;Node2</title>
<path fill="none" stroke="midnightblue" d="M493.34,-112.32C480.08,-103.9 459.73,-90.97 444.15,-81.07"/>
<polygon fill="midnightblue" stroke="midnightblue" points="445.94,-78.06 435.62,-75.65 442.19,-83.97 445.94,-78.06"/>
</g>
<!-- Node22&#45;&gt;Node2 -->
<g id="edge38" class="edge">
<title>Node22&#45;&gt;Node2</title>
<path fill="none" stroke="midnightblue" d="M560.86,-112.44C532.98,-103.32 488.65,-88.81 457.6,-78.65"/>
<polygon fill="midnightblue" stroke="midnightblue" points="458.62,-75.3 448.02,-75.52 456.44,-81.95 458.62,-75.3"/>
</g>
<!-- Node23&#45;&gt;Node2 -->
<g id="edge40" class="edge">
<title>Node23&#45;&gt;Node2</title>
<path fill="none" stroke="midnightblue" d="M620.2,-168.19C633.01,-154.88 653.12,-129.34 639,-112 617.68,-85.8 523.53,-74.37 466.48,-69.78"/>
<polygon fill="midnightblue" stroke="midnightblue" points="466.53,-66.27 456.29,-69 465.99,-73.25 466.53,-66.27"/>
</g>
<!-- Node24&#45;&gt;Node2 -->
<g id="edge44" class="edge">
<title>Node24&#45;&gt;Node2</title>
<path fill="none" stroke="midnightblue" d="M727.05,-224.22C731.65,-202.01 740.19,-143.17 710,-112 677.07,-78.01 538.5,-69.66 466.25,-67.64"/>
<polygon fill="midnightblue" stroke="midnightblue" points="466.18,-64.13 456.1,-67.38 466,-71.13 466.18,-64.13"/>
</g>
</g>
</svg>
        <g id="navigator" transform="translate(0 0)" fill="#404254">
                <rect fill="#f2f5e9" fill-opacity="0.5" stroke="#606060" stroke-width=".5" x="0" y="0" width="60" height="60"/>
                <use id="zoomplus" xlink:href="#zoomPlus" x="17" y="9" onmousedown="handleZoom(evt,'in')"/>
                <use id="zoomminus" xlink:href="#zoomMin" x="42" y="9" onmousedown="handleZoom(evt,'out')"/>
                <use id="reset" xlink:href="#resetDef" x="30" y="36" onmousedown="handleReset()"/>
                <g id="arrowUp" xlink:href="#dirArrow" transform="translate(30 24)" onmousedown="handlePan(0,-1)">
                  <use xlink:href="#rim" fill="#404040">
                        <set attributeName="fill" to="#808080" begin="arrowUp.mouseover" end="arrowUp.mouseout"/>
                  </use>
                  <path fill="none" stroke="white" stroke-width="1.5" d="M0,-3.0v7 M-2.5,-0.5L0,-3.0L2.5,-0.5"/>
                </g>
                <g id="arrowRight" xlink:href="#dirArrow" transform="rotate(90) translate(36 -43)" onmousedown="handlePan(1,0)">
                  <use xlink:href="#rim" fill="#404040">
                        <set attributeName="fill" to="#808080" begin="arrowRight.mouseover" end="arrowRight.mouseout"/>
                  </use>
                  <path fill="none" stroke="white" stroke-width="1.5" d="M0,-3.0v7 M-2.5,-0.5L0,-3.0L2.5,-0.5"/>
                </g>
                <g id="arrowDown" xlink:href="#dirArrow" transform="rotate(180) translate(-30 -48)" onmousedown="handlePan(0,1)">
                  <use xlink:href="#rim" fill="#404040">
                        <set attributeName="fill" to="#808080" begin="arrowDown.mouseover" end="arrowDown.mouseout"/>
                  </use>
                  <path fill="none" stroke="white" stroke-width="1.5" d="M0,-3.0v7 M-2.5,-0.5L0,-3.0L2.5,-0.5"/>
                </g>
                <g id="arrowLeft" xlink:href="#dirArrow" transform="rotate(270) translate(-36 17)" onmousedown="handlePan(-1,0)">
                  <use xlink:href="#rim" fill="#404040">
                        <set attributeName="fill" to="#808080" begin="arrowLeft.mouseover" end="arrowLeft.mouseout"/>
                  </use>
                  <path fill="none" stroke="white" stroke-width="1.5" d="M0,-3.0v7 M-2.5,-0.5L0,-3.0L2.5,-0.5"/>
                </g>
        </g>
        <svg viewBox="0 0 15 15" width="100%" height="30px" preserveAspectRatio="xMaxYMin meet">
         <g id="arrow_out" transform="scale(0.3 0.3)">
          <a xlink:href="screen_8h__incl_org.svg" target="_base">
           <rect id="button" ry="5" rx="5" y="6" x="6" height="38" width="38"
                fill="#f2f5e9" fill-opacity="0.5" stroke="#606060" stroke-width="1.0"/>
           <path id="arrow"
             d="M 11.500037,31.436501 C 11.940474,20.09759 22.043105,11.32322 32.158766,21.979434 L 37.068811,17.246167 C 37.068811,17.246167 37.088388,32 37.088388,32 L 22.160133,31.978069 C 22.160133,31.978069 26.997745,27.140456 26.997745,27.140456 C 18.528582,18.264221 13.291696,25.230495 11.500037,31.436501 z"
             style="fill:#404040;"/>
          </a>
         </g>
        </svg>
</svg>
