<?xml version="1.0" encoding="UTF-8" standalone="no"?>
<!DOCTYPE svg PUBLIC "-//W3C//DTD SVG 1.1//EN"
 "http://www.w3.org/Graphics/SVG/1.1/DTD/svg11.dtd">
<!-- Generated by graphviz version 2.43.0 (0)
 -->
<!-- Title: include/screen.h Pages: 1 -->
<svg width="850pt" height="588pt"
 viewBox="0.00 0.00 849.50 588.00" xmlns="http://www.w3.org/2000/svg" xmlns:xlink="http://www.w3.org/1999/xlink">
<g id="graph0" class="graph" transform="scale(1 1) rotate(0) translate(4 584)">
<title>include/screen.h</title>
<polygon fill="white" stroke="transparent" points="-4,4 -4,-584 845.5,-584 845.5,4 -4,4"/>
<!-- Node1 -->
<g id="node1" class="node">
<title>Node1</title>
<g id="a_node1"><a xlink:title="GUI elements.">
<polygon fill="#bfbfbf" stroke="black" points="34,-560.5 34,-579.5 130,-579.5 130,-560.5 34,-560.5"/>
<text text-anchor="middle" x="82" y="-567.5" font-family="Helvetica,sans-Serif" font-size="10.00">include/screen.h</text>
</a>
</g>
</g>
<!-- Node2 -->
<g id="node2" class="node">
<title>Node2</title>
<g id="a_node2"><a xlink:href="common_8h.html" target="_top" xlink:title="Common header file.">
<polygon fill="white" stroke="black" points="312,-56.5 312,-75.5 380,-75.5 380,-56.5 312,-56.5"/>
<text text-anchor="middle" x="346" y="-63.5" font-family="Helvetica,sans-Serif" font-size="10.00">common.h</text>
</a>
</g>
</g>
<!-- Node1&#45;&gt;Node2 -->
<g id="edge1" class="edge">
<title>Node1&#45;&gt;Node2</title>
<path fill="none" stroke="midnightblue" d="M69.19,-560.39C46.12,-543.74 0,-504.73 0,-459 0,-459 0,-459 0,-177 0,-143.54 10.26,-130.71 38,-112 80.2,-83.54 227.09,-72.6 301.73,-68.8"/>
<polygon fill="midnightblue" stroke="midnightblue" points="301.94,-72.3 311.76,-68.31 301.6,-65.3 301.94,-72.3"/>
</g>
<!-- Node7 -->
<g id="node7" class="node">
<title>Node7</title>
<g id="a_node7"><a xlink:href="font_8h.html" target="_top" xlink:title="Font system.">
<polygon fill="white" stroke="black" points="28.5,-336.5 28.5,-355.5 73.5,-355.5 73.5,-336.5 28.5,-336.5"/>
<text text-anchor="middle" x="51" y="-343.5" font-family="Helvetica,sans-Serif" font-size="10.00">font.h</text>
</a>
</g>
</g>
<!-- Node1&#45;&gt;Node7 -->
<g id="edge6" class="edge">
<title>Node1&#45;&gt;Node7</title>
<path fill="none" stroke="midnightblue" d="M80.78,-560.3C76.22,-527.63 60.06,-411.87 53.65,-365.96"/>
<polygon fill="midnightblue" stroke="midnightblue" points="57.09,-365.3 52.24,-355.88 50.16,-366.27 57.09,-365.3"/>
</g>
<!-- Node8 -->
<g id="node8" class="node">
<title>Node8</title>
<g id="a_node8"><a xlink:href="game_8h.html" target="_top" xlink:title="Game state and level management.">
<polygon fill="white" stroke="black" points="83.5,-168.5 83.5,-187.5 136.5,-187.5 136.5,-168.5 83.5,-168.5"/>
<text text-anchor="middle" x="110" y="-175.5" font-family="Helvetica,sans-Serif" font-size="10.00">game.h</text>
</a>
</g>
</g>
<!-- Node1&#45;&gt;Node8 -->
<g id="edge8" class="edge">
<title>Node1&#45;&gt;Node8</title>
<path fill="none" stroke="midnightblue" d="M84.7,-560.26C90.16,-541.77 102,-497.24 102,-459 102,-459 102,-459 102,-289 102,-256.86 105.44,-219.58 107.81,-197.72"/>
<polygon fill="midnightblue" stroke="midnightblue" points="111.31,-197.87 108.95,-187.54 104.36,-197.09 111.31,-197.87"/>
</g>
<!-- Node11 -->
<g id="node11" class="node">
<title>Node11</title>
<g id="a_node11"><a xlink:href="shd_8h.html" target="_top" xlink:title="Shaders.">
<polygon fill="white" stroke="black" points="223.5,-504.5 223.5,-523.5 266.5,-523.5 266.5,-504.5 223.5,-504.5"/>
<text text-anchor="middle" x="245" y="-511.5" font-family="Helvetica,sans-Serif" font-size="10.00">shd.h</text>
</a>
</g>
</g>
<!-- Node1&#45;&gt;Node11 -->
<g id="edge14" class="edge">
<title>Node1&#45;&gt;Node11</title>
<path fill="none" stroke="midnightblue" d="M107.83,-560.44C136.54,-550.93 182.91,-535.57 213.67,-525.38"/>
<polygon fill="midnightblue" stroke="midnightblue" points="215.07,-528.6 223.46,-522.14 212.86,-521.96 215.07,-528.6"/>
</g>
<!-- Node3 -->
<g id="node3" class="node">
<title>Node3</title>
<g id="a_node3"><a xlink:href="include__asm_8h.html" target="_top" xlink:title=" ">
<polygon fill="white" stroke="black" points="144.5,-0.5 144.5,-19.5 231.5,-19.5 231.5,-0.5 144.5,-0.5"/>
<text text-anchor="middle" x="188" y="-7.5" font-family="Helvetica,sans-Serif" font-size="10.00">include_asm.h</text>
</a>
</g>
</g>
<!-- Node2&#45;&gt;Node3 -->
<g id="edge2" class="edge">
<title>Node2&#45;&gt;Node3</title>
<path fill="none" stroke="midnightblue" d="M320.96,-56.44C294.38,-47.36 252.19,-32.94 222.48,-22.78"/>
<polygon fill="midnightblue" stroke="midnightblue" points="223.51,-19.44 212.92,-19.52 221.25,-26.06 223.51,-19.44"/>
</g>
<!-- Node4 -->
<g id="node4" class="node">
<title>Node4</title>
<g id="a_node4"><a xlink:href="include__rodata_8h.html" target="_top" xlink:title=" ">
<polygon fill="white" stroke="black" points="250,-0.5 250,-19.5 348,-19.5 348,-0.5 250,-0.5"/>
<text text-anchor="middle" x="299" y="-7.5" font-family="Helvetica,sans-Serif" font-size="10.00">include_rodata.h</text>
</a>
</g>
</g>
<!-- Node2&#45;&gt;Node4 -->
<g id="edge3" class="edge">
<title>Node2&#45;&gt;Node4</title>
<path fill="none" stroke="midnightblue" d="M338.24,-56.08C331.46,-48.3 321.46,-36.8 313.24,-27.37"/>
<polygon fill="midnightblue" stroke="midnightblue" points="315.82,-25 306.62,-19.75 310.54,-29.59 315.82,-25"/>
</g>
<!-- Node5 -->
<g id="node5" class="node">
<title>Node5</title>
<g id="a_node5"><a xlink:href="types_8h.html" target="_top" xlink:title="Common types used across the codebase.">
<polygon fill="white" stroke="black" points="366.5,-0.5 366.5,-19.5 419.5,-19.5 419.5,-0.5 366.5,-0.5"/>
<text text-anchor="middle" x="393" y="-7.5" font-family="Helvetica,sans-Serif" font-size="10.00">types.h</text>
</a>
</g>
</g>
<!-- Node2&#45;&gt;Node5 -->
<g id="edge4" class="edge">
<title>Node2&#45;&gt;Node5</title>
<path fill="none" stroke="midnightblue" d="M353.76,-56.08C360.54,-48.3 370.54,-36.8 378.76,-27.37"/>
<polygon fill="midnightblue" stroke="midnightblue" points="381.46,-29.59 385.38,-19.75 376.18,-25 381.46,-29.59"/>
</g>
<!-- Node6 -->
<g id="node6" class="node">
<title>Node6</title>
<g id="a_node6"><a xlink:href="vtables_8h.html" target="_top" xlink:title="Manually crafted vtables for various structs.">
<polygon fill="white" stroke="black" points="438,-0.5 438,-19.5 500,-19.5 500,-0.5 438,-0.5"/>
<text text-anchor="middle" x="469" y="-7.5" font-family="Helvetica,sans-Serif" font-size="10.00">vtables.h</text>
</a>
</g>
</g>
<!-- Node2&#45;&gt;Node6 -->
<g id="edge5" class="edge">
<title>Node2&#45;&gt;Node6</title>
<path fill="none" stroke="midnightblue" d="M365.49,-56.44C385.64,-47.6 417.32,-33.69 440.33,-23.59"/>
<polygon fill="midnightblue" stroke="midnightblue" points="441.85,-26.74 449.6,-19.52 439.04,-20.33 441.85,-26.74"/>
</g>
<!-- Node7&#45;&gt;Node2 -->
<g id="edge7" class="edge">
<title>Node7&#45;&gt;Node2</title>
<path fill="none" stroke="midnightblue" d="M49.3,-336.48C45.78,-318.06 38,-273.08 38,-235 38,-235 38,-235 38,-177 38,-146.9 34.38,-131.86 57,-112 92.64,-80.71 230.16,-71.12 301.89,-68.23"/>
<polygon fill="midnightblue" stroke="midnightblue" points="302.12,-71.72 311.98,-67.85 301.85,-64.73 302.12,-71.72"/>
</g>
<!-- Node8&#45;&gt;Node2 -->
<g id="edge9" class="edge">
<title>Node8&#45;&gt;Node2</title>
<path fill="none" stroke="midnightblue" d="M113.92,-168.31C120.76,-154.19 136.24,-126.4 158,-112 201.38,-83.28 261.15,-72.84 301.56,-69.08"/>
<polygon fill="midnightblue" stroke="midnightblue" points="301.97,-72.55 311.65,-68.24 301.39,-65.58 301.97,-72.55"/>
</g>
<!-- Node9 -->
<g id="node9" class="node">
<title>Node9</title>
<g id="a_node9"><a xlink:href="oid_8h.html" target="_top" xlink:title="Object IDs.">
<polygon fill="white" stroke="black" points="276.5,-112.5 276.5,-131.5 317.5,-131.5 317.5,-112.5 276.5,-112.5"/>
<text text-anchor="middle" x="297" y="-119.5" font-family="Helvetica,sans-Serif" font-size="10.00">oid.h</text>
</a>
</g>
</g>
<!-- Node8&#45;&gt;Node9 -->
<g id="edge10" class="edge">
<title>Node8&#45;&gt;Node9</title>
<path fill="none" stroke="midnightblue" d="M136.79,-169.26C171.08,-159.36 230.33,-142.25 266.37,-131.85"/>
<polygon fill="midnightblue" stroke="midnightblue" points="267.68,-135.11 276.32,-128.97 265.74,-128.38 267.68,-135.11"/>
</g>
<!-- Node10 -->
<g id="node10" class="node">
<title>Node10</title>
<g id="a_node10"><a xlink:href="cid_8h.html" target="_top" xlink:title="Class IDs.">
<polygon fill="white" stroke="black" points="66,-112.5 66,-131.5 106,-131.5 106,-112.5 66,-112.5"/>
<text text-anchor="middle" x="86" y="-119.5" font-family="Helvetica,sans-Serif" font-size="10.00">cid.h</text>
</a>
</g>
</g>
<!-- Node8&#45;&gt;Node10 -->
<g id="edge12" class="edge">
<title>Node8&#45;&gt;Node10</title>
<path fill="none" stroke="midnightblue" d="M106.04,-168.08C102.79,-160.77 98.08,-150.18 94.05,-141.1"/>
<polygon fill="midnightblue" stroke="midnightblue" points="97.15,-139.47 89.89,-131.75 90.75,-142.31 97.15,-139.47"/>
</g>
<!-- Node9&#45;&gt;Node2 -->
<g id="edge11" class="edge">
<title>Node9&#45;&gt;Node2</title>
<path fill="none" stroke="midnightblue" d="M305.09,-112.08C312.16,-104.3 322.59,-92.8 331.15,-83.37"/>
<polygon fill="midnightblue" stroke="midnightblue" points="333.93,-85.51 338.06,-75.75 328.75,-80.8 333.93,-85.51"/>
</g>
<!-- Node10&#45;&gt;Node2 -->
<g id="edge13" class="edge">
<title>Node10&#45;&gt;Node2</title>
<path fill="none" stroke="midnightblue" d="M106.08,-115.46C110.65,-114.27 115.48,-113.05 120,-112 182.87,-97.44 256.23,-83.36 301.91,-74.94"/>
<polygon fill="midnightblue" stroke="midnightblue" points="302.58,-78.37 311.78,-73.13 301.31,-71.49 302.58,-78.37"/>
</g>
<!-- Node11&#45;&gt;Node2 -->
<g id="edge15" class="edge">
<title>Node11&#45;&gt;Node2</title>
<path fill="none" stroke="midnightblue" d="M240.82,-504.39C232.36,-486.16 214,-442.09 214,-403 214,-403 214,-403 214,-345 214,-239.85 191.97,-196.16 255,-112 266.68,-96.41 285.24,-85.89 302.56,-78.97"/>
<polygon fill="midnightblue" stroke="midnightblue" points="303.83,-82.24 312,-75.49 301.41,-75.67 303.83,-82.24"/>
</g>
<!-- Node12 -->
<g id="node12" class="node">
<title>Node12</title>
<g id="a_node12"><a xlink:href="geom_8h.html" target="_top" xlink:title="Geometry.">
<polygon fill="white" stroke="black" points="788.5,-392.5 788.5,-411.5 841.5,-411.5 841.5,-392.5 788.5,-392.5"/>
<text text-anchor="middle" x="815" y="-399.5" font-family="Helvetica,sans-Serif" font-size="10.00">geom.h</text>
</a>
</g>
</g>
<!-- Node11&#45;&gt;Node12 -->
<g id="edge16" class="edge">
<title>Node11&#45;&gt;Node12</title>
<path fill="none" stroke="midnightblue" d="M266.53,-511.19C320.31,-506.46 464.71,-492.32 583,-468 653.66,-453.47 734.4,-429.02 779.58,-414.61"/>
<polygon fill="midnightblue" stroke="midnightblue" points="780.75,-417.91 789.2,-411.52 778.61,-411.24 780.75,-417.91"/>
</g>
<!-- Node13 -->
<g id="node13" class="node">
<title>Node13</title>
<g id="a_node13"><a xlink:href="surf_8h.html" target="_top" xlink:title="Surfaces?">
<polygon fill="white" stroke="black" points="530,-448.5 530,-467.5 574,-467.5 574,-448.5 530,-448.5"/>
<text text-anchor="middle" x="552" y="-455.5" font-family="Helvetica,sans-Serif" font-size="10.00">surf.h</text>
</a>
</g>
</g>
<!-- Node11&#45;&gt;Node13 -->
<g id="edge18" class="edge">
<title>Node11&#45;&gt;Node13</title>
<path fill="none" stroke="midnightblue" d="M266.59,-509.2C319.61,-499.88 456.51,-475.8 519.46,-464.72"/>
<polygon fill="midnightblue" stroke="midnightblue" points="520.37,-468.12 529.61,-462.94 519.16,-461.22 520.37,-468.12"/>
</g>
<!-- Node14 -->
<g id="node14" class="node">
<title>Node14</title>
<g id="a_node14"><a xlink:href="vec_8h.html" target="_top" xlink:title="Vector math.">
<polygon fill="white" stroke="black" points="278.5,-392.5 278.5,-411.5 321.5,-411.5 321.5,-392.5 278.5,-392.5"/>
<text text-anchor="middle" x="300" y="-399.5" font-family="Helvetica,sans-Serif" font-size="10.00">vec.h</text>
</a>
</g>
</g>
<!-- Node11&#45;&gt;Node14 -->
<g id="edge44" class="edge">
<title>Node11&#45;&gt;Node14</title>
<path fill="none" stroke="midnightblue" d="M249.32,-504.37C258.31,-486.38 279.22,-444.55 291.19,-420.63"/>
<polygon fill="midnightblue" stroke="midnightblue" points="294.36,-422.1 295.7,-411.59 288.1,-418.97 294.36,-422.1"/>
</g>
<!-- Node24 -->
<g id="node24" class="node">
<title>Node24</title>
<g id="a_node24"><a xlink:href="sce_2gs_8h.html" target="_top" xlink:title="Graphics synthesizer.">
<polygon fill="white" stroke="black" points="130,-280.5 130,-299.5 186,-299.5 186,-280.5 130,-280.5"/>
<text text-anchor="middle" x="158" y="-287.5" font-family="Helvetica,sans-Serif" font-size="10.00">sce/gs.h</text>
</a>
</g>
</g>
<!-- Node11&#45;&gt;Node24 -->
<g id="edge42" class="edge">
<title>Node11&#45;&gt;Node24</title>
<path fill="none" stroke="midnightblue" d="M233.21,-504.34C222.89,-496.12 208.29,-482.86 200,-468 170.8,-415.7 161.82,-343.76 159.12,-309.97"/>
<polygon fill="midnightblue" stroke="midnightblue" points="162.59,-309.44 158.4,-299.71 155.61,-309.93 162.59,-309.44"/>
</g>
<!-- Node12&#45;&gt;Node2 -->
<g id="edge17" class="edge">
<title>Node12&#45;&gt;Node2</title>
<path fill="none" stroke="midnightblue" d="M814.48,-392.45C813.39,-373.95 811,-328.84 811,-291 811,-291 811,-291 811,-177 811,-146.05 810.59,-130.8 786,-112 755,-88.3 495.82,-73.87 390.37,-68.92"/>
<polygon fill="midnightblue" stroke="midnightblue" points="390.21,-65.41 380.06,-68.45 389.89,-72.41 390.21,-65.41"/>
</g>
<!-- Node13&#45;&gt;Node2 -->
<g id="edge19" class="edge">
<title>Node13&#45;&gt;Node2</title>
<path fill="none" stroke="midnightblue" d="M563.32,-448.32C616.22,-406.78 832.16,-225.67 731,-112 708.64,-86.87 486.31,-73.54 390.05,-68.91"/>
<polygon fill="midnightblue" stroke="midnightblue" points="390.2,-65.42 380.05,-68.44 389.87,-72.41 390.2,-65.42"/>
</g>
<!-- Node13&#45;&gt;Node12 -->
<g id="edge41" class="edge">
<title>Node13&#45;&gt;Node12</title>
<path fill="none" stroke="midnightblue" d="M574.08,-452.65C614.02,-444.75 700.89,-427.43 774,-412 775.28,-411.73 776.59,-411.45 777.91,-411.17"/>
<polygon fill="midnightblue" stroke="midnightblue" points="779.07,-414.5 788.11,-408.97 777.59,-407.66 779.07,-414.5"/>
</g>
<!-- Node13&#45;&gt;Node14 -->
<g id="edge20" class="edge">
<title>Node13&#45;&gt;Node14</title>
<path fill="none" stroke="midnightblue" d="M529.64,-452.21C484.67,-442.57 383.21,-420.83 331.53,-409.76"/>
<polygon fill="midnightblue" stroke="midnightblue" points="332.11,-406.3 321.6,-407.63 330.64,-413.15 332.11,-406.3"/>
</g>
<!-- Node15 -->
<g id="node15" class="node">
<title>Node15</title>
<g id="a_node15"><a xlink:href="so_8h.html" target="_top" xlink:title="Scene objects.">
<polygon fill="white" stroke="black" points="281.5,-336.5 281.5,-355.5 318.5,-355.5 318.5,-336.5 281.5,-336.5"/>
<text text-anchor="middle" x="300" y="-343.5" font-family="Helvetica,sans-Serif" font-size="10.00">so.h</text>
</a>
</g>
</g>
<!-- Node14&#45;&gt;Node15 -->
<g id="edge21" class="edge">
<title>Node14&#45;&gt;Node15</title>
<path fill="none" stroke="midnightblue" d="M300,-392.08C300,-385.01 300,-374.86 300,-365.99"/>
<polygon fill="midnightblue" stroke="midnightblue" points="303.5,-365.75 300,-355.75 296.5,-365.75 303.5,-365.75"/>
</g>
<!-- Node16 -->
<g id="node16" class="node">
<title>Node16</title>
<g id="a_node16"><a xlink:href="alo_8h.html" target="_top" xlink:title=" ">
<polygon fill="white" stroke="black" points="279.5,-280.5 279.5,-299.5 320.5,-299.5 320.5,-280.5 279.5,-280.5"/>
<text text-anchor="middle" x="300" y="-287.5" font-family="Helvetica,sans-Serif" font-size="10.00">alo.h</text>
</a>
</g>
</g>
<!-- Node15&#45;&gt;Node16 -->
<g id="edge22" class="edge">
<title>Node15&#45;&gt;Node16</title>
<path fill="none" stroke="midnightblue" d="M300,-336.08C300,-329.01 300,-318.86 300,-309.99"/>
<polygon fill="midnightblue" stroke="midnightblue" points="303.5,-309.75 300,-299.75 296.5,-309.75 303.5,-309.75"/>
</g>
<!-- Node16&#45;&gt;Node2 -->
<g id="edge23" class="edge">
<title>Node16&#45;&gt;Node2</title>
<path fill="none" stroke="midnightblue" d="M294.55,-280.19C278.56,-253.09 234.89,-169.33 268,-112 276.68,-96.98 292.49,-86.52 307.62,-79.5"/>
<polygon fill="midnightblue" stroke="midnightblue" points="309.05,-82.69 316.88,-75.56 306.31,-76.25 309.05,-82.69"/>
</g>
<!-- Node17 -->
<g id="node17" class="node">
<title>Node17</title>
<g id="a_node17"><a xlink:href="lo_8h.html" target="_top" xlink:title="Level objects.">
<polygon fill="white" stroke="black" points="404.5,-224.5 404.5,-243.5 439.5,-243.5 439.5,-224.5 404.5,-224.5"/>
<text text-anchor="middle" x="422" y="-231.5" font-family="Helvetica,sans-Serif" font-size="10.00">lo.h</text>
</a>
</g>
</g>
<!-- Node16&#45;&gt;Node17 -->
<g id="edge24" class="edge">
<title>Node16&#45;&gt;Node17</title>
<path fill="none" stroke="midnightblue" d="M319.33,-280.44C339.79,-271.39 372.23,-257.03 395.16,-246.88"/>
<polygon fill="midnightblue" stroke="midnightblue" points="396.62,-250.06 404.34,-242.82 393.78,-243.66 396.62,-250.06"/>
</g>
<!-- Node20 -->
<g id="node20" class="node">
<title>Node20</title>
<g id="a_node20"><a xlink:href="dl_8h.html" target="_top" xlink:title="Doubly&#45;linked list.">
<polygon fill="white" stroke="black" points="282.5,-168.5 282.5,-187.5 317.5,-187.5 317.5,-168.5 282.5,-168.5"/>
<text text-anchor="middle" x="300" y="-175.5" font-family="Helvetica,sans-Serif" font-size="10.00">dl.h</text>
</a>
</g>
</g>
<!-- Node16&#45;&gt;Node20 -->
<g id="edge40" class="edge">
<title>Node16&#45;&gt;Node20</title>
<path fill="none" stroke="midnightblue" d="M300,-280.37C300,-262.62 300,-221.67 300,-197.6"/>
<polygon fill="midnightblue" stroke="midnightblue" points="303.5,-197.59 300,-187.59 296.5,-197.59 303.5,-197.59"/>
</g>
<!-- Node17&#45;&gt;Node2 -->
<g id="edge25" class="edge">
<title>Node17&#45;&gt;Node2</title>
<path fill="none" stroke="midnightblue" d="M417.91,-224.08C405.85,-197.72 370.21,-119.88 354.09,-84.66"/>
<polygon fill="midnightblue" stroke="midnightblue" points="357.27,-83.2 349.92,-75.57 350.9,-86.12 357.27,-83.2"/>
</g>
<!-- Node17&#45;&gt;Node9 -->
<g id="edge26" class="edge">
<title>Node17&#45;&gt;Node9</title>
<path fill="none" stroke="midnightblue" d="M411.99,-224.41C401.5,-215.39 384.54,-200.76 370,-188 351.02,-171.34 329.44,-152.09 314.7,-138.89"/>
<polygon fill="midnightblue" stroke="midnightblue" points="316.66,-135.94 306.88,-131.88 311.99,-141.16 316.66,-135.94"/>
</g>
<!-- Node18 -->
<g id="node18" class="node">
<title>Node18</title>
<g id="a_node18"><a xlink:href="basic_8h.html" target="_top" xlink:title="Basic object.">
<polygon fill="white" stroke="black" points="434.5,-168.5 434.5,-187.5 485.5,-187.5 485.5,-168.5 434.5,-168.5"/>
<text text-anchor="middle" x="460" y="-175.5" font-family="Helvetica,sans-Serif" font-size="10.00">basic.h</text>
</a>
</g>
</g>
<!-- Node17&#45;&gt;Node18 -->
<g id="edge27" class="edge">
<title>Node17&#45;&gt;Node18</title>
<path fill="none" stroke="midnightblue" d="M428.27,-224.08C433.64,-216.46 441.52,-205.26 448.08,-195.94"/>
<polygon fill="midnightblue" stroke="midnightblue" points="450.95,-197.94 453.84,-187.75 445.22,-193.91 450.95,-197.94"/>
</g>
<!-- Node17&#45;&gt;Node20 -->
<g id="edge31" class="edge">
<title>Node17&#45;&gt;Node20</title>
<path fill="none" stroke="midnightblue" d="M404.26,-225.15C384.02,-216.19 350.69,-201.44 327.17,-191.03"/>
<polygon fill="midnightblue" stroke="midnightblue" points="328.32,-187.71 317.76,-186.86 325.49,-194.11 328.32,-187.71"/>
</g>
<!-- Node21 -->
<g id="node21" class="node">
<title>Node21</title>
<g id="a_node21"><a xlink:href="sw_8h.html" target="_top" xlink:title="Scene world?">
<polygon fill="white" stroke="black" points="564,-112.5 564,-131.5 602,-131.5 602,-112.5 564,-112.5"/>
<text text-anchor="middle" x="583" y="-119.5" font-family="Helvetica,sans-Serif" font-size="10.00">sw.h</text>
</a>
</g>
</g>
<!-- Node17&#45;&gt;Node21 -->
<g id="edge34" class="edge">
<title>Node17&#45;&gt;Node21</title>
<path fill="none" stroke="midnightblue" d="M436.77,-224.39C451.68,-215.58 475.26,-201.34 495,-188 519.26,-171.61 546.2,-151.39 563.81,-137.9"/>
<polygon fill="midnightblue" stroke="midnightblue" points="566.31,-140.39 572.1,-131.51 562.04,-134.84 566.31,-140.39"/>
</g>
<!-- Node22 -->
<g id="node22" class="node">
<title>Node22</title>
<g id="a_node22"><a xlink:href="frame_8h.html" target="_top" xlink:title=" ">
<polygon fill="white" stroke="black" points="620,-112.5 620,-131.5 706,-131.5 706,-112.5 620,-112.5"/>
<text text-anchor="middle" x="663" y="-119.5" font-family="Helvetica,sans-Serif" font-size="10.00">splice/frame.h</text>
</a>
</g>
</g>
<!-- Node17&#45;&gt;Node22 -->
<g id="edge36" class="edge">
<title>Node17&#45;&gt;Node22</title>
<path fill="none" stroke="midnightblue" d="M439.72,-225.08C459.73,-216.13 493.24,-201.1 522,-188 561.28,-170.11 606.58,-149.17 635.01,-135.99"/>
<polygon fill="midnightblue" stroke="midnightblue" points="636.72,-139.06 644.32,-131.68 633.78,-132.71 636.72,-139.06"/>
</g>
<!-- Node23 -->
<g id="node23" class="node">
<title>Node23</title>
<g id="a_node23"><a xlink:href="mq_8h.html" target="_top" xlink:title="Message queue.">
<polygon fill="white" stroke="black" points="677.5,-168.5 677.5,-187.5 718.5,-187.5 718.5,-168.5 677.5,-168.5"/>
<text text-anchor="middle" x="698" y="-175.5" font-family="Helvetica,sans-Serif" font-size="10.00">mq.h</text>
</a>
</g>
</g>
<!-- Node17&#45;&gt;Node23 -->
<g id="edge38" class="edge">
<title>Node17&#45;&gt;Node23</title>
<path fill="none" stroke="midnightblue" d="M439.68,-229.54C485.61,-220.56 609.09,-196.39 667.1,-185.05"/>
<polygon fill="midnightblue" stroke="midnightblue" points="667.99,-188.44 677.14,-183.08 666.65,-181.57 667.99,-188.44"/>
</g>
<!-- Node18&#45;&gt;Node2 -->
<g id="edge28" class="edge">
<title>Node18&#45;&gt;Node2</title>
<path fill="none" stroke="midnightblue" d="M477.19,-168.47C499.38,-156.32 533.31,-133.16 517,-112 501.58,-92 435.33,-79.12 389.97,-72.47"/>
<polygon fill="midnightblue" stroke="midnightblue" points="390.46,-69 380.06,-71.06 389.47,-75.93 390.46,-69"/>
</g>
<!-- Node19 -->
<g id="node19" class="node">
<title>Node19</title>
<g id="a_node19"><a xlink:href="sidebag_8h.html" target="_top" xlink:title="Sidebag for splice.">
<polygon fill="white" stroke="black" points="412.5,-112.5 412.5,-131.5 507.5,-131.5 507.5,-112.5 412.5,-112.5"/>
<text text-anchor="middle" x="460" y="-119.5" font-family="Helvetica,sans-Serif" font-size="10.00">splice/sidebag.h</text>
</a>
</g>
</g>
<!-- Node18&#45;&gt;Node19 -->
<g id="edge29" class="edge">
<title>Node18&#45;&gt;Node19</title>
<path fill="none" stroke="midnightblue" d="M460,-168.08C460,-161.01 460,-150.86 460,-141.99"/>
<polygon fill="midnightblue" stroke="midnightblue" points="463.5,-141.75 460,-131.75 456.5,-141.75 463.5,-141.75"/>
</g>
<!-- Node19&#45;&gt;Node2 -->
<g id="edge30" class="edge">
<title>Node19&#45;&gt;Node2</title>
<path fill="none" stroke="midnightblue" d="M441.94,-112.44C423.43,-103.68 394.42,-89.94 373.14,-79.86"/>
<polygon fill="midnightblue" stroke="midnightblue" points="374.51,-76.63 363.98,-75.52 371.52,-82.96 374.51,-76.63"/>
</g>
<!-- Node20&#45;&gt;Node2 -->
<g id="edge32" class="edge">
<title>Node20&#45;&gt;Node2</title>
<path fill="none" stroke="midnightblue" d="M306.08,-168.4C312.07,-159.59 321.16,-145.36 327,-132 333.63,-116.85 338.71,-98.73 341.94,-85.48"/>
<polygon fill="midnightblue" stroke="midnightblue" points="345.37,-86.19 344.21,-75.66 338.55,-84.61 345.37,-86.19"/>
</g>
<!-- Node20&#45;&gt;Node9 -->
<g id="edge33" class="edge">
<title>Node20&#45;&gt;Node9</title>
<path fill="none" stroke="midnightblue" d="M299.5,-168.08C299.11,-161.01 298.55,-150.86 298.05,-141.99"/>
<polygon fill="midnightblue" stroke="midnightblue" points="301.54,-141.54 297.49,-131.75 294.55,-141.93 301.54,-141.54"/>
</g>
<!-- Node21&#45;&gt;Node2 -->
<g id="edge35" class="edge">
<title>Node21&#45;&gt;Node2</title>
<path fill="none" stroke="midnightblue" d="M563.85,-115.61C559.32,-114.38 554.5,-113.11 550,-112 495.14,-98.48 431.5,-84.75 390.08,-76.07"/>
<polygon fill="midnightblue" stroke="midnightblue" points="390.55,-72.59 380.05,-73.98 389.12,-79.45 390.55,-72.59"/>
</g>
<!-- Node22&#45;&gt;Node2 -->
<g id="edge37" class="edge">
<title>Node22&#45;&gt;Node2</title>
<path fill="none" stroke="midnightblue" d="M619.87,-113.52C616.87,-113.01 613.89,-112.5 611,-112 533.38,-98.69 442.95,-83.38 390.32,-74.48"/>
<polygon fill="midnightblue" stroke="midnightblue" points="390.75,-71.01 380.31,-72.79 389.59,-77.91 390.75,-71.01"/>
</g>
<!-- Node23&#45;&gt;Node2 -->
<g id="edge39" class="edge">
<title>Node23&#45;&gt;Node2</title>
<path fill="none" stroke="midnightblue" d="M704.65,-168.28C714.22,-154.62 729.23,-128.07 715,-112 693.78,-88.04 483.91,-74.19 390.48,-69.17"/>
<polygon fill="midnightblue" stroke="midnightblue" points="390.38,-65.66 380.21,-68.63 390.01,-72.65 390.38,-65.66"/>
</g>
<!-- Node24&#45;&gt;Node2 -->
<g id="edge43" class="edge">
<title>Node24&#45;&gt;Node2</title>
<path fill="none" stroke="midnightblue" d="M157.05,-280.26C154.48,-251.9 150.38,-161.42 196,-112 222.99,-82.76 268.15,-72.25 301.88,-68.6"/>
<polygon fill="midnightblue" stroke="midnightblue" points="302.31,-72.08 311.95,-67.68 301.67,-65.11 302.31,-72.08"/>
</g>
</g>
</svg>
