<?xml version="1.0" encoding="UTF-8" standalone="no"?>
<!DOCTYPE svg PUBLIC "-//W3C//DTD SVG 1.1//EN"
 "http://www.w3.org/Graphics/SVG/1.1/DTD/svg11.dtd">
<!-- Generated by graphviz version 2.43.0 (0)
 -->
<!-- Title: include/shd.h Pages: 1 -->
<svg width="863pt" height="467pt"
 viewBox="0.00 0.00 862.50 467.00" xmlns="http://www.w3.org/2000/svg" xmlns:xlink="http://www.w3.org/1999/xlink">
<g id="graph0" class="graph" transform="scale(1 1) rotate(0) translate(4 463)">
<title>include/shd.h</title>
<!-- Node1 -->
<g id="Node000001" class="node">
<title>Node1</title>
<g id="a_Node000001"><a xlink:title="Shaders.">
<polygon fill="#999999" stroke="#666666" points="259,-459 178,-459 178,-440 259,-440 259,-459"/>
<text text-anchor="middle" x="218.5" y="-447" font-family="Helvetica,sans-Serif" font-size="10.00">include/shd.h</text>
</a>
</g>
</g>
<!-- Node2 -->
<g id="Node000002" class="node">
<title>Node2</title>
<g id="a_Node000002"><a xlink:href="eestruct_8h.html" target="_top" xlink:title="Graphics synthesizer.">
<polygon fill="white" stroke="#666666" points="101,-129 0,-129 0,-110 101,-110 101,-129"/>
<text text-anchor="middle" x="50.5" y="-117" font-family="Helvetica,sans-Serif" font-size="10.00">sdk/ee/eestruct.h</text>
</a>
</g>
</g>
<!-- Node1&#45;&gt;Node2 -->
<g id="edge1_Node000001_Node000002" class="edge">
<title>Node1&#45;&gt;Node2</title>
<g id="a_edge1_Node000001_Node000002"><a xlink:title=" ">
<path fill="none" stroke="#63b8ff" d="M184.78,-439.89C141.38,-426.55 71.5,-396.39 71.5,-340.5 71.5,-340.5 71.5,-340.5 71.5,-228.5 71.5,-196.46 62.48,-160.03 56.27,-138.73"/>
<polygon fill="#63b8ff" stroke="#63b8ff" points="59.59,-137.62 53.33,-129.07 52.89,-139.65 59.59,-137.62"/>
</a>
</g>
</g>
<!-- Node5 -->
<g id="Node000005" class="node">
<title>Node5</title>
<g id="a_Node000005"><a xlink:href="bis_8h.html" target="_top" xlink:title="Binary Input Stream.">
<polygon fill="white" stroke="#666666" points="679.5,-404 639.5,-404 639.5,-385 679.5,-385 679.5,-404"/>
<text text-anchor="middle" x="659.5" y="-392" font-family="Helvetica,sans-Serif" font-size="10.00">bis.h</text>
</a>
</g>
</g>
<!-- Node1&#45;&gt;Node5 -->
<g id="edge4_Node000001_Node000005" class="edge">
<title>Node1&#45;&gt;Node5</title>
<g id="a_edge4_Node000001_Node000005"><a xlink:title=" ">
<path fill="none" stroke="#63b8ff" d="M259.2,-443.61C346.77,-433.08 551.41,-408.49 628.97,-399.17"/>
<polygon fill="#63b8ff" stroke="#63b8ff" points="629.53,-402.63 639.04,-397.96 628.69,-395.68 629.53,-402.63"/>
</a>
</g>
</g>
<!-- Node10 -->
<g id="Node000010" class="node">
<title>Node10</title>
<g id="a_Node000010"><a xlink:href="gifs_8h.html" target="_top" xlink:title=" ">
<polygon fill="white" stroke="#666666" points="201.5,-129 157.5,-129 157.5,-110 201.5,-110 201.5,-129"/>
<text text-anchor="middle" x="179.5" y="-117" font-family="Helvetica,sans-Serif" font-size="10.00">gifs.h</text>
</a>
</g>
</g>
<!-- Node1&#45;&gt;Node10 -->
<g id="edge47_Node000001_Node000010" class="edge">
<title>Node1&#45;&gt;Node10</title>
<g id="a_edge47_Node000001_Node000010"><a xlink:title=" ">
<path fill="none" stroke="#63b8ff" d="M211.19,-439.91C197.09,-422.43 167.5,-380.93 167.5,-340.5 167.5,-340.5 167.5,-340.5 167.5,-228.5 167.5,-197 172.61,-160.64 176.16,-139.16"/>
<polygon fill="#63b8ff" stroke="#63b8ff" points="179.63,-139.59 177.88,-129.14 172.74,-138.4 179.63,-139.59"/>
</a>
</g>
</g>
<!-- Node11 -->
<g id="Node000011" class="node">
<title>Node11</title>
<g id="a_Node000011"><a xlink:href="dmas_8h.html" target="_top" xlink:title="Direct memory access.">
<polygon fill="white" stroke="#666666" points="224,-74 171,-74 171,-55 224,-55 224,-74"/>
<text text-anchor="middle" x="197.5" y="-62" font-family="Helvetica,sans-Serif" font-size="10.00">dmas.h</text>
</a>
</g>
</g>
<!-- Node1&#45;&gt;Node11 -->
<g id="edge46_Node000001_Node000011" class="edge">
<title>Node1&#45;&gt;Node11</title>
<g id="a_edge46_Node000001_Node000011"><a xlink:title=" ">
<path fill="none" stroke="#63b8ff" d="M203.8,-439.87C178.52,-423.79 129.5,-386.66 129.5,-340.5 129.5,-340.5 129.5,-340.5 129.5,-173.5 129.5,-144.04 132.8,-134.93 148.5,-110 155.7,-98.57 166.62,-88.25 176.33,-80.44"/>
<polygon fill="#63b8ff" stroke="#63b8ff" points="178.6,-83.1 184.42,-74.25 174.35,-77.54 178.6,-83.1"/>
</a>
</g>
</g>
<!-- Node16 -->
<g id="Node000016" class="node">
<title>Node16</title>
<g id="a_Node000016"><a xlink:href="oid_8h.html" target="_top" xlink:title="Object IDs.">
<polygon fill="white" stroke="#666666" points="369,-19 328,-19 328,0 369,0 369,-19"/>
<text text-anchor="middle" x="348.5" y="-7" font-family="Helvetica,sans-Serif" font-size="10.00">oid.h</text>
</a>
</g>
</g>
<!-- Node1&#45;&gt;Node16 -->
<g id="edge44_Node000001_Node000016" class="edge">
<title>Node1&#45;&gt;Node16</title>
<g id="a_edge44_Node000001_Node000016"><a xlink:title=" ">
<path fill="none" stroke="#63b8ff" d="M225.81,-439.91C239.91,-422.43 269.5,-380.93 269.5,-340.5 269.5,-340.5 269.5,-340.5 269.5,-228.5 269.5,-148.25 286.11,-127.97 319.5,-55 323.9,-45.37 330.19,-35.43 335.78,-27.39"/>
<polygon fill="#63b8ff" stroke="#63b8ff" points="338.65,-29.4 341.67,-19.25 332.98,-25.3 338.65,-29.4"/>
</a>
</g>
</g>
<!-- Node28 -->
<g id="Node000028" class="node">
<title>Node28</title>
<g id="a_Node000028"><a xlink:href="geom_8h.html" target="_top" xlink:title="Geometry.">
<polygon fill="white" stroke="#666666" points="822,-294 769,-294 769,-275 822,-275 822,-294"/>
<text text-anchor="middle" x="795.5" y="-282" font-family="Helvetica,sans-Serif" font-size="10.00">geom.h</text>
</a>
</g>
</g>
<!-- Node1&#45;&gt;Node28 -->
<g id="edge45_Node000001_Node000028" class="edge">
<title>Node1&#45;&gt;Node28</title>
<g id="a_edge45_Node000001_Node000028"><a xlink:title=" ">
<path fill="none" stroke="#63b8ff" d="M259.36,-447.04C358.49,-443.12 609.41,-430.78 688.5,-404 732.19,-389.21 748.53,-385.68 776.5,-349 786.42,-335.99 791.18,-317.84 793.46,-304.28"/>
<polygon fill="#63b8ff" stroke="#63b8ff" points="796.95,-304.56 794.84,-294.18 790.01,-303.61 796.95,-304.56"/>
</a>
</g>
</g>
<!-- Node3 -->
<g id="Node000003" class="node">
<title>Node3</title>
<g id="a_Node000003"><a xlink:href="types_8h.html" target="_top" xlink:title="Common types used across the codebase.">
<polygon fill="white" stroke="#666666" points="77,-74 24,-74 24,-55 77,-55 77,-74"/>
<text text-anchor="middle" x="50.5" y="-62" font-family="Helvetica,sans-Serif" font-size="10.00">types.h</text>
</a>
</g>
</g>
<!-- Node2&#45;&gt;Node3 -->
<g id="edge2_Node000002_Node000003" class="edge">
<title>Node2&#45;&gt;Node3</title>
<g id="a_edge2_Node000002_Node000003"><a xlink:title=" ">
<path fill="none" stroke="#63b8ff" d="M50.5,-109.75C50.5,-102.8 50.5,-92.85 50.5,-84.13"/>
<polygon fill="#63b8ff" stroke="#63b8ff" points="54,-84.09 50.5,-74.09 47,-84.09 54,-84.09"/>
</a>
</g>
</g>
<!-- Node4 -->
<g id="Node000004" class="node">
<title>Node4</title>
<g id="a_Node000004"><a xlink:title=" ">
<polygon fill="#e0e0e0" stroke="#999999" points="78.5,-19 22.5,-19 22.5,0 78.5,0 78.5,-19"/>
<text text-anchor="middle" x="50.5" y="-7" font-family="Helvetica,sans-Serif" font-size="10.00">stddef.h</text>
</a>
</g>
</g>
<!-- Node3&#45;&gt;Node4 -->
<g id="edge3_Node000003_Node000004" class="edge">
<title>Node3&#45;&gt;Node4</title>
<g id="a_edge3_Node000003_Node000004"><a xlink:title=" ">
<path fill="none" stroke="#63b8ff" d="M50.5,-54.75C50.5,-47.8 50.5,-37.85 50.5,-29.13"/>
<polygon fill="#63b8ff" stroke="#63b8ff" points="54,-29.09 50.5,-19.09 47,-29.09 54,-29.09"/>
</a>
</g>
</g>
<!-- Node6 -->
<g id="Node000006" class="node">
<title>Node6</title>
<g id="a_Node000006"><a xlink:href="prog_8h.html" target="_top" xlink:title="Progress bar.">
<polygon fill="white" stroke="#666666" points="523,-349 476,-349 476,-330 523,-330 523,-349"/>
<text text-anchor="middle" x="499.5" y="-337" font-family="Helvetica,sans-Serif" font-size="10.00">prog.h</text>
</a>
</g>
</g>
<!-- Node5&#45;&gt;Node6 -->
<g id="edge5_Node000005_Node000006" class="edge">
<title>Node5&#45;&gt;Node6</title>
<g id="a_edge5_Node000005_Node000006"><a xlink:title=" ">
<path fill="none" stroke="#63b8ff" d="M639.24,-386.79C612.53,-377.94 565.18,-362.26 533.08,-351.62"/>
<polygon fill="#63b8ff" stroke="#63b8ff" points="533.83,-348.19 523.24,-348.36 531.63,-354.83 533.83,-348.19"/>
</a>
</g>
</g>
<!-- Node14 -->
<g id="Node000014" class="node">
<title>Node14</title>
<g id="a_Node000014"><a xlink:href="vec_8h.html" target="_top" xlink:title="Vector math.">
<polygon fill="white" stroke="#666666" points="752,-19 709,-19 709,0 752,0 752,-19"/>
<text text-anchor="middle" x="730.5" y="-7" font-family="Helvetica,sans-Serif" font-size="10.00">vec.h</text>
</a>
</g>
</g>
<!-- Node5&#45;&gt;Node14 -->
<g id="edge35_Node000005_Node000014" class="edge">
<title>Node5&#45;&gt;Node14</title>
<g id="a_edge35_Node000005_Node000014"><a xlink:title=" ">
<path fill="none" stroke="#63b8ff" d="M679.63,-391.79C729.46,-386.36 854.5,-364.83 854.5,-285.5 854.5,-285.5 854.5,-285.5 854.5,-118.5 854.5,-69.23 798.15,-37.31 761.42,-21.74"/>
<polygon fill="#63b8ff" stroke="#63b8ff" points="762.68,-18.47 752.1,-17.95 760.05,-24.96 762.68,-18.47"/>
</a>
</g>
</g>
<!-- Node19 -->
<g id="Node000019" class="node">
<title>Node19</title>
<g id="a_Node000019"><a xlink:href="mat_8h.html" target="_top" xlink:title="3x3 and 4x4 matrix types.">
<polygon fill="white" stroke="#666666" points="782,-184 737,-184 737,-165 782,-165 782,-184"/>
<text text-anchor="middle" x="759.5" y="-172" font-family="Helvetica,sans-Serif" font-size="10.00">mat.h</text>
</a>
</g>
</g>
<!-- Node5&#45;&gt;Node19 -->
<g id="edge36_Node000005_Node000019" class="edge">
<title>Node5&#45;&gt;Node19</title>
<g id="a_edge36_Node000005_Node000019"><a xlink:title=" ">
<path fill="none" stroke="#63b8ff" d="M678.11,-384.86C692.2,-377.36 710.87,-365.16 721.5,-349 753.64,-300.15 759.02,-228.46 759.64,-194.58"/>
<polygon fill="#63b8ff" stroke="#63b8ff" points="763.14,-194.29 759.7,-184.27 756.14,-194.25 763.14,-194.29"/>
</a>
</g>
</g>
<!-- Node27 -->
<g id="Node000027" class="node">
<title>Node27</title>
<g id="a_Node000027"><a xlink:href="clock_8h.html" target="_top" xlink:title="Engine clock.">
<polygon fill="white" stroke="#666666" points="653,-349 602,-349 602,-330 653,-330 653,-349"/>
<text text-anchor="middle" x="627.5" y="-337" font-family="Helvetica,sans-Serif" font-size="10.00">clock.h</text>
</a>
</g>
</g>
<!-- Node5&#45;&gt;Node27 -->
<g id="edge34_Node000005_Node000027" class="edge">
<title>Node5&#45;&gt;Node27</title>
<g id="a_edge34_Node000005_Node000027"><a xlink:title=" ">
<path fill="none" stroke="#63b8ff" d="M654.22,-384.75C649.79,-377.42 643.34,-366.73 637.88,-357.7"/>
<polygon fill="#63b8ff" stroke="#63b8ff" points="640.85,-355.84 632.69,-349.09 634.86,-359.46 640.85,-355.84"/>
</a>
</g>
</g>
<!-- Node5&#45;&gt;Node28 -->
<g id="edge37_Node000005_Node000028" class="edge">
<title>Node5&#45;&gt;Node28</title>
<g id="a_edge37_Node000005_Node000028"><a xlink:title=" ">
<path fill="none" stroke="#63b8ff" d="M679.53,-387.76C700.14,-381.07 732.27,-368.41 754.5,-349 768.98,-336.36 780.31,-317.4 787.36,-303.49"/>
<polygon fill="#63b8ff" stroke="#63b8ff" points="790.54,-304.94 791.71,-294.41 784.23,-301.91 790.54,-304.94"/>
</a>
</g>
</g>
<!-- Node29 -->
<g id="Node000029" class="node">
<title>Node29</title>
<g id="a_Node000029"><a xlink:href="cat_8h.html" target="_top" xlink:title="WAL catalog.">
<polygon fill="white" stroke="#666666" points="712,-349 671,-349 671,-330 712,-330 712,-349"/>
<text text-anchor="middle" x="691.5" y="-337" font-family="Helvetica,sans-Serif" font-size="10.00">cat.h</text>
</a>
</g>
</g>
<!-- Node5&#45;&gt;Node29 -->
<g id="edge40_Node000005_Node000029" class="edge">
<title>Node5&#45;&gt;Node29</title>
<g id="a_edge40_Node000005_Node000029"><a xlink:title=" ">
<path fill="none" stroke="#63b8ff" d="M664.78,-384.75C669.21,-377.42 675.66,-366.73 681.12,-357.7"/>
<polygon fill="#63b8ff" stroke="#63b8ff" points="684.14,-359.46 686.31,-349.09 678.15,-355.84 684.14,-359.46"/>
</a>
</g>
</g>
<!-- Node30 -->
<g id="Node000030" class="node">
<title>Node30</title>
<g id="a_Node000030"><a xlink:href="bsp_8h.html" target="_top" xlink:title="Binary Space Partitioning.">
<polygon fill="white" stroke="#666666" points="584,-349 541,-349 541,-330 584,-330 584,-349"/>
<text text-anchor="middle" x="562.5" y="-337" font-family="Helvetica,sans-Serif" font-size="10.00">bsp.h</text>
</a>
</g>
</g>
<!-- Node5&#45;&gt;Node30 -->
<g id="edge41_Node000005_Node000030" class="edge">
<title>Node5&#45;&gt;Node30</title>
<g id="a_edge41_Node000005_Node000030"><a xlink:title=" ">
<path fill="none" stroke="#63b8ff" d="M643.92,-384.98C628.73,-376.69 605.4,-363.94 587.6,-354.22"/>
<polygon fill="#63b8ff" stroke="#63b8ff" points="588.82,-350.89 578.37,-349.17 585.47,-357.04 588.82,-350.89"/>
</a>
</g>
</g>
<!-- Node7 -->
<g id="Node000007" class="node">
<title>Node7</title>
<g id="a_Node000007"><a xlink:href="binoc_8h.html" target="_top" xlink:title="Binoc&#45;u&#45;com.">
<polygon fill="white" stroke="#666666" points="525.5,-294 473.5,-294 473.5,-275 525.5,-275 525.5,-294"/>
<text text-anchor="middle" x="499.5" y="-282" font-family="Helvetica,sans-Serif" font-size="10.00">binoc.h</text>
</a>
</g>
</g>
<!-- Node6&#45;&gt;Node7 -->
<g id="edge6_Node000006_Node000007" class="edge">
<title>Node6&#45;&gt;Node7</title>
<g id="a_edge6_Node000006_Node000007"><a xlink:title=" ">
<path fill="none" stroke="#63b8ff" d="M499.5,-329.75C499.5,-322.8 499.5,-312.85 499.5,-304.13"/>
<polygon fill="#63b8ff" stroke="#63b8ff" points="503,-304.09 499.5,-294.09 496,-304.09 503,-304.09"/>
</a>
</g>
</g>
<!-- Node8 -->
<g id="Node000008" class="node">
<title>Node8</title>
<g id="a_Node000008"><a xlink:href="screen_8h.html" target="_top" xlink:title="GUI elements.">
<polygon fill="white" stroke="#666666" points="369.5,-239 311.5,-239 311.5,-220 369.5,-220 369.5,-239"/>
<text text-anchor="middle" x="340.5" y="-227" font-family="Helvetica,sans-Serif" font-size="10.00">screen.h</text>
</a>
</g>
</g>
<!-- Node7&#45;&gt;Node8 -->
<g id="edge7_Node000007_Node000008" class="edge">
<title>Node7&#45;&gt;Node8</title>
<g id="a_edge7_Node000007_Node000008"><a xlink:title=" ">
<path fill="none" stroke="#63b8ff" d="M473.95,-274.98C447.38,-266.13 405.56,-252.19 375.83,-242.28"/>
<polygon fill="#63b8ff" stroke="#63b8ff" points="376.84,-238.92 366.25,-239.08 374.63,-245.56 376.84,-238.92"/>
</a>
</g>
</g>
<!-- Node18 -->
<g id="Node000018" class="node">
<title>Node18</title>
<g id="a_Node000018"><a xlink:href="util_8h.html" target="_top" xlink:title="Utility functions.">
<polygon fill="white" stroke="#666666" points="632,-239 591,-239 591,-220 632,-220 632,-239"/>
<text text-anchor="middle" x="611.5" y="-227" font-family="Helvetica,sans-Serif" font-size="10.00">util.h</text>
</a>
</g>
</g>
<!-- Node7&#45;&gt;Node18 -->
<g id="edge19_Node000007_Node000018" class="edge">
<title>Node7&#45;&gt;Node18</title>
<g id="a_edge19_Node000007_Node000018"><a xlink:title=" ">
<path fill="none" stroke="#63b8ff" d="M517.49,-274.98C535.43,-266.5 563.22,-253.35 583.93,-243.54"/>
<polygon fill="#63b8ff" stroke="#63b8ff" points="585.64,-246.61 593.18,-239.17 582.64,-240.28 585.64,-246.61"/>
</a>
</g>
</g>
<!-- Node9 -->
<g id="Node000009" class="node">
<title>Node9</title>
<g id="a_Node000009"><a xlink:href="font_8h.html" target="_top" xlink:title="Font system.">
<polygon fill="white" stroke="#666666" points="241,-184 196,-184 196,-165 241,-165 241,-184"/>
<text text-anchor="middle" x="218.5" y="-172" font-family="Helvetica,sans-Serif" font-size="10.00">font.h</text>
</a>
</g>
</g>
<!-- Node8&#45;&gt;Node9 -->
<g id="edge8_Node000008_Node000009" class="edge">
<title>Node8&#45;&gt;Node9</title>
<g id="a_edge8_Node000008_Node000009"><a xlink:title=" ">
<path fill="none" stroke="#63b8ff" d="M320.9,-219.98C301.18,-211.42 270.55,-198.11 247.92,-188.28"/>
<polygon fill="#63b8ff" stroke="#63b8ff" points="249.02,-184.94 238.46,-184.17 246.24,-191.37 249.02,-184.94"/>
</a>
</g>
</g>
<!-- Node15 -->
<g id="Node000015" class="node">
<title>Node15</title>
<g id="a_Node000015"><a xlink:href="game_8h.html" target="_top" xlink:title="Game state and level management.">
<polygon fill="white" stroke="#666666" points="367,-184 314,-184 314,-165 367,-165 367,-184"/>
<text text-anchor="middle" x="340.5" y="-172" font-family="Helvetica,sans-Serif" font-size="10.00">game.h</text>
</a>
</g>
</g>
<!-- Node8&#45;&gt;Node15 -->
<g id="edge16_Node000008_Node000015" class="edge">
<title>Node8&#45;&gt;Node15</title>
<g id="a_edge16_Node000008_Node000015"><a xlink:title=" ">
<path fill="none" stroke="#63b8ff" d="M340.5,-219.75C340.5,-212.8 340.5,-202.85 340.5,-194.13"/>
<polygon fill="#63b8ff" stroke="#63b8ff" points="344,-194.09 340.5,-184.09 337,-194.09 344,-194.09"/>
</a>
</g>
</g>
<!-- Node9&#45;&gt;Node2 -->
<g id="edge15_Node000009_Node000002" class="edge">
<title>Node9&#45;&gt;Node2</title>
<g id="a_edge15_Node000009_Node000002"><a xlink:title=" ">
<path fill="none" stroke="#63b8ff" d="M195.84,-166.35C168,-157.57 120.39,-142.55 87.28,-132.1"/>
<polygon fill="#63b8ff" stroke="#63b8ff" points="88.1,-128.69 77.51,-129.02 85.99,-135.37 88.1,-128.69"/>
</a>
</g>
</g>
<!-- Node9&#45;&gt;Node10 -->
<g id="edge9_Node000009_Node000010" class="edge">
<title>Node9&#45;&gt;Node10</title>
<g id="a_edge9_Node000009_Node000010"><a xlink:title=" ">
<path fill="none" stroke="#63b8ff" d="M212.06,-164.75C206.61,-157.34 198.64,-146.5 191.94,-137.41"/>
<polygon fill="#63b8ff" stroke="#63b8ff" points="194.57,-135.07 185.82,-129.09 188.93,-139.22 194.57,-135.07"/>
</a>
</g>
</g>
<!-- Node9&#45;&gt;Node11 -->
<g id="edge14_Node000009_Node000011" class="edge">
<title>Node9&#45;&gt;Node11</title>
<g id="a_edge14_Node000009_Node000011"><a xlink:title=" ">
<path fill="none" stroke="#63b8ff" d="M217.84,-164.8C216.82,-152.5 214.52,-129.37 210.5,-110 208.7,-101.33 206.05,-91.9 203.61,-83.95"/>
<polygon fill="#63b8ff" stroke="#63b8ff" points="206.89,-82.72 200.51,-74.26 200.22,-84.85 206.89,-82.72"/>
</a>
</g>
</g>
<!-- Node10&#45;&gt;Node11 -->
<g id="edge10_Node000010_Node000011" class="edge">
<title>Node10&#45;&gt;Node11</title>
<g id="a_edge10_Node000010_Node000011"><a xlink:title=" ">
<path fill="none" stroke="#63b8ff" d="M182.47,-109.75C184.86,-102.72 188.29,-92.62 191.27,-83.84"/>
<polygon fill="#63b8ff" stroke="#63b8ff" points="194.68,-84.68 194.58,-74.09 188.05,-82.43 194.68,-84.68"/>
</a>
</g>
</g>
<!-- Node12 -->
<g id="Node000012" class="node">
<title>Node12</title>
<g id="a_Node000012"><a xlink:href="libdma_8h.html" target="_top" xlink:title="Direct memory access library.">
<polygon fill="white" stroke="#666666" points="181,-19 102,-19 102,0 181,0 181,-19"/>
<text text-anchor="middle" x="141.5" y="-7" font-family="Helvetica,sans-Serif" font-size="10.00">sce/libdma.h</text>
</a>
</g>
</g>
<!-- Node11&#45;&gt;Node12 -->
<g id="edge11_Node000011_Node000012" class="edge">
<title>Node11&#45;&gt;Node12</title>
<g id="a_edge11_Node000011_Node000012"><a xlink:title=" ">
<path fill="none" stroke="#63b8ff" d="M188.5,-54.98C180.31,-47.23 167.99,-35.58 158.03,-26.14"/>
<polygon fill="#63b8ff" stroke="#63b8ff" points="160.33,-23.5 150.66,-19.17 155.52,-28.59 160.33,-23.5"/>
</a>
</g>
</g>
<!-- Node13 -->
<g id="Node000013" class="node">
<title>Node13</title>
<g id="a_Node000013"><a xlink:href="eekernel_8h.html" target="_top" xlink:title=" ">
<polygon fill="white" stroke="#666666" points="302,-19 199,-19 199,0 302,0 302,-19"/>
<text text-anchor="middle" x="250.5" y="-7" font-family="Helvetica,sans-Serif" font-size="10.00">sdk/ee/eekernel.h</text>
</a>
</g>
</g>
<!-- Node11&#45;&gt;Node13 -->
<g id="edge12_Node000011_Node000013" class="edge">
<title>Node11&#45;&gt;Node13</title>
<g id="a_edge12_Node000011_Node000013"><a xlink:title=" ">
<path fill="none" stroke="#63b8ff" d="M206.25,-54.75C213.97,-47.03 225.4,-35.6 234.72,-26.28"/>
<polygon fill="#63b8ff" stroke="#63b8ff" points="237.31,-28.64 241.91,-19.09 232.36,-23.69 237.31,-28.64"/>
</a>
</g>
</g>
<!-- Node11&#45;&gt;Node14 -->
<g id="edge13_Node000011_Node000014" class="edge">
<title>Node11&#45;&gt;Node14</title>
<g id="a_edge13_Node000011_Node000014"><a xlink:title=" ">
<path fill="none" stroke="#63b8ff" d="M224.3,-60.84C313.82,-51.93 602.35,-23.24 698.78,-13.65"/>
<polygon fill="#63b8ff" stroke="#63b8ff" points="699.19,-17.13 708.79,-12.66 698.5,-10.17 699.19,-17.13"/>
</a>
</g>
</g>
<!-- Node15&#45;&gt;Node16 -->
<g id="edge17_Node000015_Node000016" class="edge">
<title>Node15&#45;&gt;Node16</title>
<g id="a_edge17_Node000015_Node000016"><a xlink:title=" ">
<path fill="none" stroke="#63b8ff" d="M336.64,-164.85C332.94,-156.04 327.61,-141.87 325.5,-129 323.18,-114.87 321.28,-76.46 326.5,-55 328.79,-45.59 333.3,-35.87 337.65,-27.93"/>
<polygon fill="#63b8ff" stroke="#63b8ff" points="340.7,-29.66 342.71,-19.25 334.65,-26.13 340.7,-29.66"/>
</a>
</g>
</g>
<!-- Node17 -->
<g id="Node000017" class="node">
<title>Node17</title>
<g id="a_Node000017"><a xlink:href="cid_8h.html" target="_top" xlink:title="Class IDs.">
<polygon fill="white" stroke="#666666" points="374.5,-129 334.5,-129 334.5,-110 374.5,-110 374.5,-129"/>
<text text-anchor="middle" x="354.5" y="-117" font-family="Helvetica,sans-Serif" font-size="10.00">cid.h</text>
</a>
</g>
</g>
<!-- Node15&#45;&gt;Node17 -->
<g id="edge18_Node000015_Node000017" class="edge">
<title>Node15&#45;&gt;Node17</title>
<g id="a_edge18_Node000015_Node000017"><a xlink:title=" ">
<path fill="none" stroke="#63b8ff" d="M342.81,-164.75C344.67,-157.72 347.34,-147.62 349.65,-138.84"/>
<polygon fill="#63b8ff" stroke="#63b8ff" points="353.06,-139.65 352.23,-129.09 346.29,-137.86 353.06,-139.65"/>
</a>
</g>
</g>
<!-- Node18&#45;&gt;Node14 -->
<g id="edge20_Node000018_Node000014" class="edge">
<title>Node18&#45;&gt;Node14</title>
<g id="a_edge20_Node000018_Node000014"><a xlink:title=" ">
<path fill="none" stroke="#63b8ff" d="M614.81,-219.82C624.89,-193.81 656.88,-114.57 694.5,-55 700.72,-45.15 708.8,-34.98 715.72,-26.86"/>
<polygon fill="#63b8ff" stroke="#63b8ff" points="718.45,-29.06 722.4,-19.23 713.18,-24.45 718.45,-29.06"/>
</a>
</g>
</g>
<!-- Node18&#45;&gt;Node19 -->
<g id="edge21_Node000018_Node000019" class="edge">
<title>Node18&#45;&gt;Node19</title>
<g id="a_edge21_Node000018_Node000019"><a xlink:title=" ">
<path fill="none" stroke="#63b8ff" d="M632.08,-221.13C656.66,-212.33 698.09,-197.49 727.01,-187.14"/>
<polygon fill="#63b8ff" stroke="#63b8ff" points="728.43,-190.34 736.67,-183.68 726.07,-183.75 728.43,-190.34"/>
</a>
</g>
</g>
<!-- Node20 -->
<g id="Node000020" class="node">
<title>Node20</title>
<g id="a_Node000020"><a xlink:href="sm_8h.html" target="_top" xlink:title="Probabilistic finite state machines.">
<polygon fill="white" stroke="#666666" points="591,-184 550,-184 550,-165 591,-165 591,-184"/>
<text text-anchor="middle" x="570.5" y="-172" font-family="Helvetica,sans-Serif" font-size="10.00">sm.h</text>
</a>
</g>
</g>
<!-- Node18&#45;&gt;Node20 -->
<g id="edge23_Node000018_Node000020" class="edge">
<title>Node18&#45;&gt;Node20</title>
<g id="a_edge23_Node000018_Node000020"><a xlink:title=" ">
<path fill="none" stroke="#63b8ff" d="M604.73,-219.75C598.94,-212.26 590.44,-201.28 583.36,-192.13"/>
<polygon fill="#63b8ff" stroke="#63b8ff" points="586.03,-189.86 577.14,-184.09 580.49,-194.14 586.03,-189.86"/>
</a>
</g>
</g>
<!-- Node19&#45;&gt;Node14 -->
<g id="edge22_Node000019_Node000014" class="edge">
<title>Node19&#45;&gt;Node14</title>
<g id="a_edge22_Node000019_Node000014"><a xlink:title=" ">
<path fill="none" stroke="#63b8ff" d="M757.94,-164.74C753.4,-139.2 740.1,-64.43 733.83,-29.23"/>
<polygon fill="#63b8ff" stroke="#63b8ff" points="737.26,-28.54 732.07,-19.31 730.37,-29.77 737.26,-28.54"/>
</a>
</g>
</g>
<!-- Node21 -->
<g id="Node000021" class="node">
<title>Node21</title>
<g id="a_Node000021"><a xlink:href="dl_8h.html" target="_top" xlink:title="Doubly&#45;linked list.">
<polygon fill="white" stroke="#666666" points="370,-74 335,-74 335,-55 370,-55 370,-74"/>
<text text-anchor="middle" x="352.5" y="-62" font-family="Helvetica,sans-Serif" font-size="10.00">dl.h</text>
</a>
</g>
</g>
<!-- Node20&#45;&gt;Node21 -->
<g id="edge24_Node000020_Node000021" class="edge">
<title>Node20&#45;&gt;Node21</title>
<g id="a_edge24_Node000020_Node000021"><a xlink:title=" ">
<path fill="none" stroke="#63b8ff" d="M553.03,-164.84C514.91,-145.96 424.07,-100.96 378.91,-78.59"/>
<polygon fill="#63b8ff" stroke="#63b8ff" points="380.27,-75.35 369.75,-74.05 377.16,-81.62 380.27,-75.35"/>
</a>
</g>
</g>
<!-- Node22 -->
<g id="Node000022" class="node">
<title>Node22</title>
<g id="a_Node000022"><a xlink:href="mq_8h.html" target="_top" xlink:title="Message queue.">
<polygon fill="white" stroke="#666666" points="642,-74 601,-74 601,-55 642,-55 642,-74"/>
<text text-anchor="middle" x="621.5" y="-62" font-family="Helvetica,sans-Serif" font-size="10.00">mq.h</text>
</a>
</g>
</g>
<!-- Node20&#45;&gt;Node22 -->
<g id="edge26_Node000020_Node000022" class="edge">
<title>Node20&#45;&gt;Node22</title>
<g id="a_edge26_Node000020_Node000022"><a xlink:title=" ">
<path fill="none" stroke="#63b8ff" d="M574.67,-164.66C583.05,-146.93 602.03,-106.73 613.09,-83.32"/>
<polygon fill="#63b8ff" stroke="#63b8ff" points="616.31,-84.7 617.41,-74.16 609.98,-81.71 616.31,-84.7"/>
</a>
</g>
</g>
<!-- Node23 -->
<g id="Node000023" class="node">
<title>Node23</title>
<g id="a_Node000023"><a xlink:href="lo_8h.html" target="_top" xlink:title="Level objects.">
<polygon fill="white" stroke="#666666" points="537,-129 502,-129 502,-110 537,-110 537,-129"/>
<text text-anchor="middle" x="519.5" y="-117" font-family="Helvetica,sans-Serif" font-size="10.00">lo.h</text>
</a>
</g>
</g>
<!-- Node20&#45;&gt;Node23 -->
<g id="edge27_Node000020_Node000023" class="edge">
<title>Node20&#45;&gt;Node23</title>
<g id="a_edge27_Node000020_Node000023"><a xlink:title=" ">
<path fill="none" stroke="#63b8ff" d="M562.08,-164.75C554.73,-157.11 543.87,-145.82 534.96,-136.56"/>
<polygon fill="#63b8ff" stroke="#63b8ff" points="537.22,-133.87 527.76,-129.09 532.18,-138.72 537.22,-133.87"/>
</a>
</g>
</g>
<!-- Node21&#45;&gt;Node16 -->
<g id="edge25_Node000021_Node000016" class="edge">
<title>Node21&#45;&gt;Node16</title>
<g id="a_edge25_Node000021_Node000016"><a xlink:title=" ">
<path fill="none" stroke="#63b8ff" d="M351.84,-54.75C351.32,-47.8 350.56,-37.85 349.91,-29.13"/>
<polygon fill="#63b8ff" stroke="#63b8ff" points="353.39,-28.8 349.15,-19.09 346.41,-29.32 353.39,-28.8"/>
</a>
</g>
</g>
<!-- Node23&#45;&gt;Node16 -->
<g id="edge30_Node000023_Node000016" class="edge">
<title>Node23&#45;&gt;Node16</title>
<g id="a_edge30_Node000023_Node000016"><a xlink:title=" ">
<path fill="none" stroke="#63b8ff" d="M501.84,-112.68C480.98,-105.38 445.66,-91.63 418.5,-74 397.56,-60.41 376.79,-40.54 363.38,-26.66"/>
<polygon fill="#63b8ff" stroke="#63b8ff" points="365.8,-24.13 356.39,-19.27 360.72,-28.94 365.8,-24.13"/>
</a>
</g>
</g>
<!-- Node23&#45;&gt;Node21 -->
<g id="edge28_Node000023_Node000021" class="edge">
<title>Node23&#45;&gt;Node21</title>
<g id="a_edge28_Node000023_Node000021"><a xlink:title=" ">
<path fill="none" stroke="#63b8ff" d="M501.94,-112.93C472.88,-103.7 414.54,-85.19 379.98,-74.22"/>
<polygon fill="#63b8ff" stroke="#63b8ff" points="380.66,-70.77 370.07,-71.08 378.54,-77.44 380.66,-70.77"/>
</a>
</g>
</g>
<!-- Node23&#45;&gt;Node22 -->
<g id="edge29_Node000023_Node000022" class="edge">
<title>Node23&#45;&gt;Node22</title>
<g id="a_edge29_Node000023_Node000022"><a xlink:title=" ">
<path fill="none" stroke="#63b8ff" d="M535.89,-109.98C552.07,-101.57 577.07,-88.59 595.88,-78.81"/>
<polygon fill="#63b8ff" stroke="#63b8ff" points="597.55,-81.89 604.81,-74.17 594.33,-75.68 597.55,-81.89"/>
</a>
</g>
</g>
<!-- Node24 -->
<g id="Node000024" class="node">
<title>Node24</title>
<g id="a_Node000024"><a xlink:href="basic_8h.html" target="_top" xlink:title="Basic object.">
<polygon fill="white" stroke="#666666" points="478,-74 427,-74 427,-55 478,-55 478,-74"/>
<text text-anchor="middle" x="452.5" y="-62" font-family="Helvetica,sans-Serif" font-size="10.00">basic.h</text>
</a>
</g>
</g>
<!-- Node23&#45;&gt;Node24 -->
<g id="edge31_Node000023_Node000024" class="edge">
<title>Node23&#45;&gt;Node24</title>
<g id="a_edge31_Node000023_Node000024"><a xlink:title=" ">
<path fill="none" stroke="#63b8ff" d="M508.74,-109.98C498.73,-102.07 483.61,-90.11 471.57,-80.58"/>
<polygon fill="#63b8ff" stroke="#63b8ff" points="473.47,-77.63 463.46,-74.17 469.13,-83.12 473.47,-77.63"/>
</a>
</g>
</g>
<!-- Node26 -->
<g id="Node000026" class="node">
<title>Node26</title>
<g id="a_Node000026"><a xlink:href="frame_8h.html" target="_top" xlink:title=" ">
<polygon fill="white" stroke="#666666" points="582.5,-74 496.5,-74 496.5,-55 582.5,-55 582.5,-74"/>
<text text-anchor="middle" x="539.5" y="-62" font-family="Helvetica,sans-Serif" font-size="10.00">splice/frame.h</text>
</a>
</g>
</g>
<!-- Node23&#45;&gt;Node26 -->
<g id="edge33_Node000023_Node000026" class="edge">
<title>Node23&#45;&gt;Node26</title>
<g id="a_edge33_Node000023_Node000026"><a xlink:title=" ">
<path fill="none" stroke="#63b8ff" d="M522.8,-109.75C525.48,-102.65 529.35,-92.4 532.69,-83.56"/>
<polygon fill="#63b8ff" stroke="#63b8ff" points="536,-84.68 536.26,-74.09 529.45,-82.21 536,-84.68"/>
</a>
</g>
</g>
<!-- Node25 -->
<g id="Node000025" class="node">
<title>Node25</title>
<g id="a_Node000025"><a xlink:href="sidebag_8h.html" target="_top" xlink:title="Sidebag for splice.">
<polygon fill="white" stroke="#666666" points="500,-19 405,-19 405,0 500,0 500,-19"/>
<text text-anchor="middle" x="452.5" y="-7" font-family="Helvetica,sans-Serif" font-size="10.00">splice/sidebag.h</text>
</a>
</g>
</g>
<!-- Node24&#45;&gt;Node25 -->
<g id="edge32_Node000024_Node000025" class="edge">
<title>Node24&#45;&gt;Node25</title>
<g id="a_edge32_Node000024_Node000025"><a xlink:title=" ">
<path fill="none" stroke="#63b8ff" d="M452.5,-54.75C452.5,-47.8 452.5,-37.85 452.5,-29.13"/>
<polygon fill="#63b8ff" stroke="#63b8ff" points="456,-29.09 452.5,-19.09 449,-29.09 456,-29.09"/>
</a>
</g>
</g>
<!-- Node28&#45;&gt;Node14 -->
<g id="edge38_Node000028_Node000014" class="edge">
<title>Node28&#45;&gt;Node14</title>
<g id="a_edge38_Node000028_Node000014"><a xlink:title=" ">
<path fill="none" stroke="#63b8ff" d="M798.33,-274.93C804.06,-256.8 816.5,-213.13 816.5,-175.5 816.5,-175.5 816.5,-175.5 816.5,-118.5 816.5,-77.76 778.59,-43.51 753.11,-25.09"/>
<polygon fill="#63b8ff" stroke="#63b8ff" points="754.91,-22.08 744.7,-19.25 750.92,-27.83 754.91,-22.08"/>
</a>
</g>
</g>
<!-- Node28&#45;&gt;Node19 -->
<g id="edge39_Node000028_Node000019" class="edge">
<title>Node28&#45;&gt;Node19</title>
<g id="a_edge39_Node000028_Node000019"><a xlink:title=" ">
<path fill="none" stroke="#63b8ff" d="M792.55,-274.66C786.7,-257.09 773.48,-217.45 765.65,-193.95"/>
<polygon fill="#63b8ff" stroke="#63b8ff" points="768.87,-192.54 762.39,-184.16 762.23,-194.75 768.87,-192.54"/>
</a>
</g>
</g>
<!-- Node30&#45;&gt;Node14 -->
<g id="edge43_Node000030_Node000014" class="edge">
<title>Node30&#45;&gt;Node14</title>
<g id="a_edge43_Node000030_Node000014"><a xlink:title=" ">
<path fill="none" stroke="#63b8ff" d="M570.89,-329.84C586.52,-313.33 620.41,-275.73 641.5,-239 683.55,-165.77 713.87,-68.84 725.39,-28.9"/>
<polygon fill="#63b8ff" stroke="#63b8ff" points="728.78,-29.79 728.14,-19.22 722.04,-27.88 728.78,-29.79"/>
</a>
</g>
</g>
<!-- Node30&#45;&gt;Node28 -->
<g id="edge42_Node000030_Node000028" class="edge">
<title>Node30&#45;&gt;Node28</title>
<g id="a_edge42_Node000030_Node000028"><a xlink:title=" ">
<path fill="none" stroke="#63b8ff" d="M584.14,-332.41C587.28,-331.58 590.47,-330.75 593.5,-330 651.07,-315.78 718.41,-301.39 758.97,-292.96"/>
<polygon fill="#63b8ff" stroke="#63b8ff" points="759.85,-296.36 768.93,-290.9 758.43,-289.5 759.85,-296.36"/>
</a>
</g>
</g>
</g>
</svg>
