<?xml version="1.0" encoding="UTF-8" standalone="no"?>
<!DOCTYPE svg PUBLIC "-//W3C//DTD SVG 1.1//EN"
 "http://www.w3.org/Graphics/SVG/1.1/DTD/svg11.dtd">
<!-- Generated by graphviz version 2.43.0 (0)
 -->
<!-- Title: include/shd.h Pages: 1 -->
<!--zoomable 532 -->
<svg id="main" version="1.1" xmlns="http://www.w3.org/2000/svg" xmlns:xlink="http://www.w3.org/1999/xlink" xml:space="preserve" onload="init(evt)">
<style type="text/css"><![CDATA[
.edge:hover path { stroke: red; }
.edge:hover polygon { stroke: red; fill: red; }
]]></style>
<script type="text/javascript"><![CDATA[
var edges = document.getElementsByTagName('g');
if (edges && edges.length) {
  for (var i=0;i<edges.length;i++) {
    if (edges[i].id.substr(0,4)=='edge') {
      edges[i].setAttribute('class','edge');
    }
  }
}
]]></script>
        <defs>
                <circle id="rim" cx="0" cy="0" r="7"/>
                <circle id="rim2" cx="0" cy="0" r="3.5"/>
                <g id="zoomPlus">
                        <use xlink:href="#rim" fill="#404040">
                                <set attributeName="fill" to="#808080" begin="zoomplus.mouseover" end="zoomplus.mouseout"/>
                        </use>
                        <path d="M-4,0h8M0,-4v8" fill="none" stroke="white" stroke-width="1.5" pointer-events="none"/>
                </g>
                <g id="zoomMin">
                        <use xlink:href="#rim" fill="#404040">
                                <set attributeName="fill" to="#808080" begin="zoomminus.mouseover" end="zoomminus.mouseout"/>
                        </use>
                        <path d="M-4,0h8" fill="none" stroke="white" stroke-width="1.5" pointer-events="none"/>
                </g>
                <g id="dirArrow">
                        <path fill="none" stroke="white" stroke-width="1.5" d="M0,-3.0v7 M-2.5,-0.5L0,-3.0L2.5,-0.5"/>
                </g>
               <g id="resetDef">
                       <use xlink:href="#rim2" fill="#404040">
                               <set attributeName="fill" to="#808080" begin="reset.mouseover" end="reset.mouseout"/>
                       </use>
               </g>
        </defs>

<script type="text/javascript">
var viewWidth = 675;
var viewHeight = 532;
var sectionId = 'dynsection-0';
</script>
<script xlink:href="svgpan.js"/>
<svg id="graph" class="graph">
<g id="viewport">
<title>include/shd.h</title>
<polygon fill="white" stroke="transparent" points="-4,4 -4,-528 671,-528 671,4 -4,4"/>
<!-- Node1 -->
<g id="node1" class="node">
<title>Node1</title>
<g id="a_node1"><a xlink:title="Shaders.">
<polygon fill="#bfbfbf" stroke="black" points="69.5,-504.5 69.5,-523.5 150.5,-523.5 150.5,-504.5 69.5,-504.5"/>
<text text-anchor="middle" x="110" y="-511.5" font-family="Helvetica,sans-Serif" font-size="10.00">include/shd.h</text>
</a>
</g>
</g>
<!-- Node2 -->
<g id="node2" class="node">
<title>Node2</title>
<g id="a_node2"><a xlink:href="common_8h.html" target="_top" xlink:title="Common header file.">
<polygon fill="white" stroke="black" points="327,-56.5 327,-75.5 395,-75.5 395,-56.5 327,-56.5"/>
<text text-anchor="middle" x="361" y="-63.5" font-family="Helvetica,sans-Serif" font-size="10.00">common.h</text>
</a>
</g>
</g>
<!-- Node1&#45;&gt;Node2 -->
<g id="edge1" class="edge">
<title>Node1&#45;&gt;Node2</title>
<path fill="none" stroke="midnightblue" d="M90.59,-504.46C59.01,-489.11 0,-453.64 0,-403 0,-403 0,-403 0,-177 0,-135.51 29.84,-130.46 67,-112 110.03,-90.62 245.86,-76.55 316.83,-70.45"/>
<polygon fill="midnightblue" stroke="midnightblue" points="317.15,-73.94 326.82,-69.61 316.56,-66.96 317.15,-73.94"/>
</g>
<!-- Node6 -->
<g id="node6" class="node">
<title>Node6</title>
<g id="a_node6"><a xlink:href="geom_8h.html" target="_top" xlink:title="Geometry.">
<polygon fill="white" stroke="black" points="28.5,-392.5 28.5,-411.5 81.5,-411.5 81.5,-392.5 28.5,-392.5"/>
<text text-anchor="middle" x="55" y="-399.5" font-family="Helvetica,sans-Serif" font-size="10.00">geom.h</text>
</a>
</g>
</g>
<!-- Node1&#45;&gt;Node6 -->
<g id="edge5" class="edge">
<title>Node1&#45;&gt;Node6</title>
<path fill="none" stroke="midnightblue" d="M103.14,-504.45C96.35,-495.68 85.99,-481.47 79,-468 71.21,-452.98 64.74,-434.85 60.48,-421.56"/>
<polygon fill="midnightblue" stroke="midnightblue" points="63.74,-420.23 57.45,-411.7 57.05,-422.29 63.74,-420.23"/>
</g>
<!-- Node7 -->
<g id="node7" class="node">
<title>Node7</title>
<g id="a_node7"><a xlink:href="surf_8h.html" target="_top" xlink:title="Surface?">
<polygon fill="white" stroke="black" points="88,-448.5 88,-467.5 132,-467.5 132,-448.5 88,-448.5"/>
<text text-anchor="middle" x="110" y="-455.5" font-family="Helvetica,sans-Serif" font-size="10.00">surf.h</text>
</a>
</g>
</g>
<!-- Node1&#45;&gt;Node7 -->
<g id="edge7" class="edge">
<title>Node1&#45;&gt;Node7</title>
<path fill="none" stroke="midnightblue" d="M110,-504.08C110,-497.01 110,-486.86 110,-477.99"/>
<polygon fill="midnightblue" stroke="midnightblue" points="113.5,-477.75 110,-467.75 106.5,-477.75 113.5,-477.75"/>
</g>
<!-- Node8 -->
<g id="node8" class="node">
<title>Node8</title>
<g id="a_node8"><a xlink:href="vec_8h.html" target="_top" xlink:title="Vector math functions.">
<polygon fill="white" stroke="black" points="138.5,-392.5 138.5,-411.5 181.5,-411.5 181.5,-392.5 138.5,-392.5"/>
<text text-anchor="middle" x="160" y="-399.5" font-family="Helvetica,sans-Serif" font-size="10.00">vec.h</text>
</a>
</g>
</g>
<!-- Node1&#45;&gt;Node8 -->
<g id="edge34" class="edge">
<title>Node1&#45;&gt;Node8</title>
<path fill="none" stroke="midnightblue" d="M117.32,-504.22C124.26,-495.51 134.56,-481.54 141,-468 148.1,-453.07 153.13,-434.93 156.23,-421.61"/>
<polygon fill="midnightblue" stroke="midnightblue" points="159.67,-422.25 158.37,-411.73 152.83,-420.76 159.67,-422.25"/>
</g>
<!-- Node19 -->
<g id="node19" class="node">
<title>Node19</title>
<g id="a_node19"><a xlink:href="sce_2gs_8h.html" target="_top" xlink:title="Graphics Synthesizer.">
<polygon fill="white" stroke="black" points="468,-336.5 468,-355.5 524,-355.5 524,-336.5 468,-336.5"/>
<text text-anchor="middle" x="496" y="-343.5" font-family="Helvetica,sans-Serif" font-size="10.00">sce/gs.h</text>
</a>
</g>
</g>
<!-- Node1&#45;&gt;Node19 -->
<g id="edge32" class="edge">
<title>Node1&#45;&gt;Node19</title>
<path fill="none" stroke="midnightblue" d="M129.94,-504.42C193.47,-477.1 391.36,-392 466.58,-359.65"/>
<polygon fill="midnightblue" stroke="midnightblue" points="468.14,-362.79 475.95,-355.62 465.38,-356.36 468.14,-362.79"/>
</g>
<!-- Node3 -->
<g id="node3" class="node">
<title>Node3</title>
<g id="a_node3"><a xlink:href="include__asm_8h.html" target="_top" xlink:title=" ">
<polygon fill="white" stroke="black" points="206.5,-0.5 206.5,-19.5 293.5,-19.5 293.5,-0.5 206.5,-0.5"/>
<text text-anchor="middle" x="250" y="-7.5" font-family="Helvetica,sans-Serif" font-size="10.00">include_asm.h</text>
</a>
</g>
</g>
<!-- Node2&#45;&gt;Node3 -->
<g id="edge2" class="edge">
<title>Node2&#45;&gt;Node3</title>
<path fill="none" stroke="midnightblue" d="M343.17,-56.32C325.28,-47.62 297.52,-34.12 276.95,-24.11"/>
<polygon fill="midnightblue" stroke="midnightblue" points="278.31,-20.88 267.79,-19.65 275.25,-27.18 278.31,-20.88"/>
</g>
<!-- Node4 -->
<g id="node4" class="node">
<title>Node4</title>
<g id="a_node4"><a xlink:href="include__rodata_8h.html" target="_top" xlink:title=" ">
<polygon fill="white" stroke="black" points="312,-0.5 312,-19.5 410,-19.5 410,-0.5 312,-0.5"/>
<text text-anchor="middle" x="361" y="-7.5" font-family="Helvetica,sans-Serif" font-size="10.00">include_rodata.h</text>
</a>
</g>
</g>
<!-- Node2&#45;&gt;Node4 -->
<g id="edge3" class="edge">
<title>Node2&#45;&gt;Node4</title>
<path fill="none" stroke="midnightblue" d="M361,-56.08C361,-49.01 361,-38.86 361,-29.99"/>
<polygon fill="midnightblue" stroke="midnightblue" points="364.5,-29.75 361,-19.75 357.5,-29.75 364.5,-29.75"/>
</g>
<!-- Node5 -->
<g id="node5" class="node">
<title>Node5</title>
<g id="a_node5"><a xlink:href="types_8h.html" target="_top" xlink:title="Types used throughout the engine.">
<polygon fill="white" stroke="black" points="428.5,-0.5 428.5,-19.5 481.5,-19.5 481.5,-0.5 428.5,-0.5"/>
<text text-anchor="middle" x="455" y="-7.5" font-family="Helvetica,sans-Serif" font-size="10.00">types.h</text>
</a>
</g>
</g>
<!-- Node2&#45;&gt;Node5 -->
<g id="edge4" class="edge">
<title>Node2&#45;&gt;Node5</title>
<path fill="none" stroke="midnightblue" d="M376.1,-56.32C390.9,-47.82 413.69,-34.73 430.98,-24.8"/>
<polygon fill="midnightblue" stroke="midnightblue" points="433.01,-27.67 439.93,-19.65 429.52,-21.6 433.01,-27.67"/>
</g>
<!-- Node6&#45;&gt;Node2 -->
<g id="edge6" class="edge">
<title>Node6&#45;&gt;Node2</title>
<path fill="none" stroke="midnightblue" d="M55.52,-392.45C56.61,-373.95 59,-328.84 59,-291 59,-291 59,-291 59,-177 59,-144.8 65.16,-131.21 91,-112 125.93,-86.03 249.14,-74.18 316.39,-69.55"/>
<polygon fill="midnightblue" stroke="midnightblue" points="316.93,-73.02 326.68,-68.86 316.47,-66.03 316.93,-73.02"/>
</g>
<!-- Node7&#45;&gt;Node2 -->
<g id="edge8" class="edge">
<title>Node7&#45;&gt;Node2</title>
<path fill="none" stroke="midnightblue" d="M106.98,-448.41C92.6,-405.76 35.31,-214.8 124,-112 148.5,-83.6 254.76,-72.91 316.36,-69.05"/>
<polygon fill="midnightblue" stroke="midnightblue" points="316.8,-72.53 326.58,-68.45 316.39,-65.55 316.8,-72.53"/>
</g>
<!-- Node7&#45;&gt;Node6 -->
<g id="edge31" class="edge">
<title>Node7&#45;&gt;Node6</title>
<path fill="none" stroke="midnightblue" d="M100.92,-448.08C92.83,-440.14 80.8,-428.34 71.09,-418.8"/>
<polygon fill="midnightblue" stroke="midnightblue" points="73.5,-416.26 63.91,-411.75 68.6,-421.25 73.5,-416.26"/>
</g>
<!-- Node7&#45;&gt;Node8 -->
<g id="edge9" class="edge">
<title>Node7&#45;&gt;Node8</title>
<path fill="none" stroke="midnightblue" d="M118.26,-448.08C125.46,-440.3 136.11,-428.8 144.85,-419.37"/>
<polygon fill="midnightblue" stroke="midnightblue" points="147.67,-421.47 151.9,-411.75 142.53,-416.71 147.67,-421.47"/>
</g>
<!-- Node9 -->
<g id="node9" class="node">
<title>Node9</title>
<g id="a_node9"><a xlink:href="so_8h.html" target="_top" xlink:title="Scene objects.">
<polygon fill="white" stroke="black" points="349.5,-336.5 349.5,-355.5 386.5,-355.5 386.5,-336.5 349.5,-336.5"/>
<text text-anchor="middle" x="368" y="-343.5" font-family="Helvetica,sans-Serif" font-size="10.00">so.h</text>
</a>
</g>
</g>
<!-- Node8&#45;&gt;Node9 -->
<g id="edge10" class="edge">
<title>Node8&#45;&gt;Node9</title>
<path fill="none" stroke="midnightblue" d="M181.87,-395.32C219.75,-385.49 297.56,-365.29 339.58,-354.38"/>
<polygon fill="midnightblue" stroke="midnightblue" points="340.65,-357.72 349.45,-351.82 338.89,-350.94 340.65,-357.72"/>
</g>
<!-- Node10 -->
<g id="node10" class="node">
<title>Node10</title>
<g id="a_node10"><a xlink:href="alo_8h.html" target="_top" xlink:title=" ">
<polygon fill="white" stroke="black" points="458.5,-280.5 458.5,-299.5 499.5,-299.5 499.5,-280.5 458.5,-280.5"/>
<text text-anchor="middle" x="479" y="-287.5" font-family="Helvetica,sans-Serif" font-size="10.00">alo.h</text>
</a>
</g>
</g>
<!-- Node9&#45;&gt;Node10 -->
<g id="edge11" class="edge">
<title>Node9&#45;&gt;Node10</title>
<path fill="none" stroke="midnightblue" d="M385.83,-336.32C403.72,-327.62 431.48,-314.12 452.05,-304.11"/>
<polygon fill="midnightblue" stroke="midnightblue" points="453.75,-307.18 461.21,-299.65 450.69,-300.88 453.75,-307.18"/>
</g>
<!-- Node10&#45;&gt;Node2 -->
<g id="edge12" class="edge">
<title>Node10&#45;&gt;Node2</title>
<path fill="none" stroke="midnightblue" d="M491.86,-280.35C529.94,-253.71 636.56,-171.13 588,-112 565.33,-84.39 464.63,-73.43 405.24,-69.3"/>
<polygon fill="midnightblue" stroke="midnightblue" points="405.22,-65.79 395.01,-68.63 404.76,-72.78 405.22,-65.79"/>
</g>
<!-- Node11 -->
<g id="node11" class="node">
<title>Node11</title>
<g id="a_node11"><a xlink:href="lo_8h.html" target="_top" xlink:title="Level objects.">
<polygon fill="white" stroke="black" points="438.5,-224.5 438.5,-243.5 473.5,-243.5 473.5,-224.5 438.5,-224.5"/>
<text text-anchor="middle" x="456" y="-231.5" font-family="Helvetica,sans-Serif" font-size="10.00">lo.h</text>
</a>
</g>
</g>
<!-- Node10&#45;&gt;Node11 -->
<g id="edge13" class="edge">
<title>Node10&#45;&gt;Node11</title>
<path fill="none" stroke="midnightblue" d="M475.2,-280.08C472.09,-272.77 467.58,-262.18 463.71,-253.1"/>
<polygon fill="midnightblue" stroke="midnightblue" points="466.87,-251.58 459.73,-243.75 460.43,-254.32 466.87,-251.58"/>
</g>
<!-- Node15 -->
<g id="node15" class="node">
<title>Node15</title>
<g id="a_node15"><a xlink:href="dl_8h.html" target="_top" xlink:title=" ">
<polygon fill="white" stroke="black" points="541.5,-168.5 541.5,-187.5 576.5,-187.5 576.5,-168.5 541.5,-168.5"/>
<text text-anchor="middle" x="559" y="-175.5" font-family="Helvetica,sans-Serif" font-size="10.00">dl.h</text>
</a>
</g>
</g>
<!-- Node10&#45;&gt;Node15 -->
<g id="edge30" class="edge">
<title>Node10&#45;&gt;Node15</title>
<path fill="none" stroke="midnightblue" d="M485.28,-280.37C498.48,-262.22 529.33,-219.8 546.64,-195.99"/>
<polygon fill="midnightblue" stroke="midnightblue" points="549.7,-197.74 552.75,-187.59 544.04,-193.62 549.7,-197.74"/>
</g>
<!-- Node11&#45;&gt;Node2 -->
<g id="edge14" class="edge">
<title>Node11&#45;&gt;Node2</title>
<path fill="none" stroke="midnightblue" d="M455.05,-224.32C452.4,-203.32 443.36,-148.8 418,-112 409.48,-99.63 396.54,-89.03 385.14,-81.23"/>
<polygon fill="midnightblue" stroke="midnightblue" points="386.74,-78.09 376.45,-75.59 382.94,-83.97 386.74,-78.09"/>
</g>
<!-- Node12 -->
<g id="node12" class="node">
<title>Node12</title>
<g id="a_node12"><a xlink:href="oid_8h.html" target="_top" xlink:title="Object IDs.">
<polygon fill="white" stroke="black" points="521.5,-112.5 521.5,-131.5 562.5,-131.5 562.5,-112.5 521.5,-112.5"/>
<text text-anchor="middle" x="542" y="-119.5" font-family="Helvetica,sans-Serif" font-size="10.00">oid.h</text>
</a>
</g>
</g>
<!-- Node11&#45;&gt;Node12 -->
<g id="edge15" class="edge">
<title>Node11&#45;&gt;Node12</title>
<path fill="none" stroke="midnightblue" d="M462.75,-224.37C477,-206.14 510.39,-163.43 528.96,-139.68"/>
<polygon fill="midnightblue" stroke="midnightblue" points="531.88,-141.63 535.28,-131.59 526.37,-137.31 531.88,-141.63"/>
</g>
<!-- Node13 -->
<g id="node13" class="node">
<title>Node13</title>
<g id="a_node13"><a xlink:href="basic_8h.html" target="_top" xlink:title="Basic object.">
<polygon fill="white" stroke="black" points="335.5,-168.5 335.5,-187.5 386.5,-187.5 386.5,-168.5 335.5,-168.5"/>
<text text-anchor="middle" x="361" y="-175.5" font-family="Helvetica,sans-Serif" font-size="10.00">basic.h</text>
</a>
</g>
</g>
<!-- Node11&#45;&gt;Node13 -->
<g id="edge17" class="edge">
<title>Node11&#45;&gt;Node13</title>
<path fill="none" stroke="midnightblue" d="M440.74,-224.32C425.78,-215.82 402.75,-202.73 385.27,-192.8"/>
<polygon fill="midnightblue" stroke="midnightblue" points="386.65,-189.55 376.23,-187.65 383.19,-195.64 386.65,-189.55"/>
</g>
<!-- Node11&#45;&gt;Node15 -->
<g id="edge21" class="edge">
<title>Node11&#45;&gt;Node15</title>
<path fill="none" stroke="midnightblue" d="M472.55,-224.32C488.99,-215.7 514.43,-202.36 533.47,-192.39"/>
<polygon fill="midnightblue" stroke="midnightblue" points="535.26,-195.4 542.49,-187.65 532.01,-189.2 535.26,-195.4"/>
</g>
<!-- Node16 -->
<g id="node16" class="node">
<title>Node16</title>
<g id="a_node16"><a xlink:href="sw_8h.html" target="_top" xlink:title="Scene world?">
<polygon fill="white" stroke="black" points="465,-112.5 465,-131.5 503,-131.5 503,-112.5 465,-112.5"/>
<text text-anchor="middle" x="484" y="-119.5" font-family="Helvetica,sans-Serif" font-size="10.00">sw.h</text>
</a>
</g>
</g>
<!-- Node11&#45;&gt;Node16 -->
<g id="edge24" class="edge">
<title>Node11&#45;&gt;Node16</title>
<path fill="none" stroke="midnightblue" d="M458.2,-224.37C462.72,-206.62 473.14,-165.67 479.27,-141.6"/>
<polygon fill="midnightblue" stroke="midnightblue" points="482.74,-142.15 481.81,-131.59 475.95,-140.42 482.74,-142.15"/>
</g>
<!-- Node17 -->
<g id="node17" class="node">
<title>Node17</title>
<g id="a_node17"><a xlink:href="frame_8h.html" target="_top" xlink:title=" ">
<polygon fill="white" stroke="black" points="133,-112.5 133,-131.5 219,-131.5 219,-112.5 133,-112.5"/>
<text text-anchor="middle" x="176" y="-119.5" font-family="Helvetica,sans-Serif" font-size="10.00">splice/frame.h</text>
</a>
</g>
</g>
<!-- Node11&#45;&gt;Node17 -->
<g id="edge26" class="edge">
<title>Node11&#45;&gt;Node17</title>
<path fill="none" stroke="midnightblue" d="M438.37,-232.17C401.34,-229.8 313.57,-220.86 249,-188 225.27,-175.92 203.2,-154.22 189.67,-139.24"/>
<polygon fill="midnightblue" stroke="midnightblue" points="192.3,-136.93 183.08,-131.71 187.03,-141.54 192.3,-136.93"/>
</g>
<!-- Node18 -->
<g id="node18" class="node">
<title>Node18</title>
<g id="a_node18"><a xlink:href="mq_8h.html" target="_top" xlink:title="Message queue(?).">
<polygon fill="white" stroke="black" points="258.5,-168.5 258.5,-187.5 299.5,-187.5 299.5,-168.5 258.5,-168.5"/>
<text text-anchor="middle" x="279" y="-175.5" font-family="Helvetica,sans-Serif" font-size="10.00">mq.h</text>
</a>
</g>
</g>
<!-- Node11&#45;&gt;Node18 -->
<g id="edge28" class="edge">
<title>Node11&#45;&gt;Node18</title>
<path fill="none" stroke="midnightblue" d="M438.38,-227.62C408.25,-218.43 346.48,-199.59 309.31,-188.25"/>
<polygon fill="midnightblue" stroke="midnightblue" points="310.11,-184.83 299.52,-185.26 308.07,-191.53 310.11,-184.83"/>
</g>
<!-- Node12&#45;&gt;Node2 -->
<g id="edge16" class="edge">
<title>Node12&#45;&gt;Node2</title>
<path fill="none" stroke="midnightblue" d="M521.34,-114.8C518.21,-113.86 515.02,-112.9 512,-112 473.74,-100.56 430.01,-87.53 399.49,-78.45"/>
<polygon fill="midnightblue" stroke="midnightblue" points="400.25,-75.03 389.67,-75.53 398.26,-81.73 400.25,-75.03"/>
</g>
<!-- Node13&#45;&gt;Node2 -->
<g id="edge18" class="edge">
<title>Node13&#45;&gt;Node2</title>
<path fill="none" stroke="midnightblue" d="M342.92,-168.39C329.44,-160.87 312.03,-148.57 304,-132 294.12,-111.62 315.69,-92.68 335.07,-80.57"/>
<polygon fill="midnightblue" stroke="midnightblue" points="336.85,-83.58 343.7,-75.5 333.3,-77.55 336.85,-83.58"/>
</g>
<!-- Node14 -->
<g id="node14" class="node">
<title>Node14</title>
<g id="a_node14"><a xlink:href="sidebag_8h.html" target="_top" xlink:title="Sidebag for splice.">
<polygon fill="white" stroke="black" points="313.5,-112.5 313.5,-131.5 408.5,-131.5 408.5,-112.5 313.5,-112.5"/>
<text text-anchor="middle" x="361" y="-119.5" font-family="Helvetica,sans-Serif" font-size="10.00">splice/sidebag.h</text>
</a>
</g>
</g>
<!-- Node13&#45;&gt;Node14 -->
<g id="edge19" class="edge">
<title>Node13&#45;&gt;Node14</title>
<path fill="none" stroke="midnightblue" d="M361,-168.08C361,-161.01 361,-150.86 361,-141.99"/>
<polygon fill="midnightblue" stroke="midnightblue" points="364.5,-141.75 361,-131.75 357.5,-141.75 364.5,-141.75"/>
</g>
<!-- Node14&#45;&gt;Node2 -->
<g id="edge20" class="edge">
<title>Node14&#45;&gt;Node2</title>
<path fill="none" stroke="midnightblue" d="M361,-112.08C361,-105.01 361,-94.86 361,-85.99"/>
<polygon fill="midnightblue" stroke="midnightblue" points="364.5,-85.75 361,-75.75 357.5,-85.75 364.5,-85.75"/>
</g>
<!-- Node15&#45;&gt;Node2 -->
<g id="edge22" class="edge">
<title>Node15&#45;&gt;Node2</title>
<path fill="none" stroke="midnightblue" d="M564.67,-168.37C572.78,-154.84 585.32,-128.46 572,-112 551.47,-86.63 461.11,-74.95 405.51,-70.07"/>
<polygon fill="midnightblue" stroke="midnightblue" points="405.48,-66.56 395.22,-69.21 404.89,-73.53 405.48,-66.56"/>
</g>
<!-- Node15&#45;&gt;Node12 -->
<g id="edge23" class="edge">
<title>Node15&#45;&gt;Node12</title>
<path fill="none" stroke="midnightblue" d="M556.19,-168.08C553.92,-160.85 550.63,-150.41 547.79,-141.4"/>
<polygon fill="midnightblue" stroke="midnightblue" points="551.1,-140.24 544.75,-131.75 544.42,-142.34 551.1,-140.24"/>
</g>
<!-- Node16&#45;&gt;Node2 -->
<g id="edge25" class="edge">
<title>Node16&#45;&gt;Node2</title>
<path fill="none" stroke="midnightblue" d="M464.78,-112.56C444.68,-103.74 412.9,-89.79 389.8,-79.64"/>
<polygon fill="midnightblue" stroke="midnightblue" points="391.05,-76.37 380.49,-75.56 388.24,-82.78 391.05,-76.37"/>
</g>
<!-- Node17&#45;&gt;Node2 -->
<g id="edge27" class="edge">
<title>Node17&#45;&gt;Node2</title>
<path fill="none" stroke="midnightblue" d="M205.31,-112.44C236.84,-103.24 287.13,-88.56 321.99,-78.39"/>
<polygon fill="midnightblue" stroke="midnightblue" points="323.2,-81.68 331.82,-75.52 321.24,-74.96 323.2,-81.68"/>
</g>
<!-- Node18&#45;&gt;Node2 -->
<g id="edge29" class="edge">
<title>Node18&#45;&gt;Node2</title>
<path fill="none" stroke="midnightblue" d="M279.74,-168.22C281.23,-154.94 285.61,-129.45 298,-112 307.27,-98.95 321.55,-88.3 334.17,-80.65"/>
<polygon fill="midnightblue" stroke="midnightblue" points="336.03,-83.61 342.97,-75.61 332.55,-77.54 336.03,-83.61"/>
</g>
<!-- Node19&#45;&gt;Node2 -->
<g id="edge33" class="edge">
<title>Node19&#45;&gt;Node2</title>
<path fill="none" stroke="midnightblue" d="M524.24,-340.21C572.81,-330.18 667,-302.07 667,-235 667,-235 667,-235 667,-177 667,-137.68 641.44,-130.96 607,-112 542.95,-76.75 456.72,-68.4 405.2,-66.82"/>
<polygon fill="midnightblue" stroke="midnightblue" points="405.15,-63.32 395.07,-66.58 404.98,-70.31 405.15,-63.32"/>
</g>
</g>
</svg>
        <g id="navigator" transform="translate(0 0)" fill="#404254">
                <rect fill="#f2f5e9" fill-opacity="0.5" stroke="#606060" stroke-width=".5" x="0" y="0" width="60" height="60"/>
                <use id="zoomplus" xlink:href="#zoomPlus" x="17" y="9" onmousedown="handleZoom(evt,'in')"/>
                <use id="zoomminus" xlink:href="#zoomMin" x="42" y="9" onmousedown="handleZoom(evt,'out')"/>
                <use id="reset" xlink:href="#resetDef" x="30" y="36" onmousedown="handleReset()"/>
                <g id="arrowUp" xlink:href="#dirArrow" transform="translate(30 24)" onmousedown="handlePan(0,-1)">
                  <use xlink:href="#rim" fill="#404040">
                        <set attributeName="fill" to="#808080" begin="arrowUp.mouseover" end="arrowUp.mouseout"/>
                  </use>
                  <path fill="none" stroke="white" stroke-width="1.5" d="M0,-3.0v7 M-2.5,-0.5L0,-3.0L2.5,-0.5"/>
                </g>
                <g id="arrowRight" xlink:href="#dirArrow" transform="rotate(90) translate(36 -43)" onmousedown="handlePan(1,0)">
                  <use xlink:href="#rim" fill="#404040">
                        <set attributeName="fill" to="#808080" begin="arrowRight.mouseover" end="arrowRight.mouseout"/>
                  </use>
                  <path fill="none" stroke="white" stroke-width="1.5" d="M0,-3.0v7 M-2.5,-0.5L0,-3.0L2.5,-0.5"/>
                </g>
                <g id="arrowDown" xlink:href="#dirArrow" transform="rotate(180) translate(-30 -48)" onmousedown="handlePan(0,1)">
                  <use xlink:href="#rim" fill="#404040">
                        <set attributeName="fill" to="#808080" begin="arrowDown.mouseover" end="arrowDown.mouseout"/>
                  </use>
                  <path fill="none" stroke="white" stroke-width="1.5" d="M0,-3.0v7 M-2.5,-0.5L0,-3.0L2.5,-0.5"/>
                </g>
                <g id="arrowLeft" xlink:href="#dirArrow" transform="rotate(270) translate(-36 17)" onmousedown="handlePan(-1,0)">
                  <use xlink:href="#rim" fill="#404040">
                        <set attributeName="fill" to="#808080" begin="arrowLeft.mouseover" end="arrowLeft.mouseout"/>
                  </use>
                  <path fill="none" stroke="white" stroke-width="1.5" d="M0,-3.0v7 M-2.5,-0.5L0,-3.0L2.5,-0.5"/>
                </g>
        </g>
        <svg viewBox="0 0 15 15" width="100%" height="30px" preserveAspectRatio="xMaxYMin meet">
         <g id="arrow_out" transform="scale(0.3 0.3)">
          <a xlink:href="shd_8h__incl_org.svg" target="_base">
           <rect id="button" ry="5" rx="5" y="6" x="6" height="38" width="38"
                fill="#f2f5e9" fill-opacity="0.5" stroke="#606060" stroke-width="1.0"/>
           <path id="arrow"
             d="M 11.500037,31.436501 C 11.940474,20.09759 22.043105,11.32322 32.158766,21.979434 L 37.068811,17.246167 C 37.068811,17.246167 37.088388,32 37.088388,32 L 22.160133,31.978069 C 22.160133,31.978069 26.997745,27.140456 26.997745,27.140456 C 18.528582,18.264221 13.291696,25.230495 11.500037,31.436501 z"
             style="fill:#404040;"/>
          </a>
         </g>
        </svg>
</svg>
