<?xml version="1.0" encoding="UTF-8" standalone="no"?>
<!DOCTYPE svg PUBLIC "-//W3C//DTD SVG 1.1//EN"
 "http://www.w3.org/Graphics/SVG/1.1/DTD/svg11.dtd">
<!-- Generated by graphviz version 2.43.0 (0)
 -->
<!-- Title: include/shd.h Pages: 1 -->
<svg width="596pt" height="532pt"
 viewBox="0.00 0.00 596.05 532.00" xmlns="http://www.w3.org/2000/svg" xmlns:xlink="http://www.w3.org/1999/xlink">
<g id="graph0" class="graph" transform="scale(1 1) rotate(0) translate(4 528)">
<title>include/shd.h</title>
<polygon fill="white" stroke="transparent" points="-4,4 -4,-528 592.05,-528 592.05,4 -4,4"/>
<!-- Node1 -->
<g id="node1" class="node">
<title>Node1</title>
<g id="a_node1"><a xlink:title="Shaders.">
<polygon fill="#bfbfbf" stroke="black" points="114.5,-504.5 114.5,-523.5 195.5,-523.5 195.5,-504.5 114.5,-504.5"/>
<text text-anchor="middle" x="155" y="-511.5" font-family="Helvetica,sans-Serif" font-size="10.00">include/shd.h</text>
</a>
</g>
</g>
<!-- Node2 -->
<g id="node2" class="node">
<title>Node2</title>
<g id="a_node2"><a xlink:href="screen_8h.html" target="_top" xlink:title="User interface manager.">
<polygon fill="white" stroke="black" points="107,-448.5 107,-467.5 203,-467.5 203,-448.5 107,-448.5"/>
<text text-anchor="middle" x="155" y="-455.5" font-family="Helvetica,sans-Serif" font-size="10.00">include/screen.h</text>
</a>
</g>
</g>
<!-- Node1&#45;&gt;Node2 -->
<g id="edge1" class="edge">
<title>Node1&#45;&gt;Node2</title>
<path fill="none" stroke="midnightblue" d="M155,-493.8C155,-484.91 155,-474.78 155,-467.75"/>
<polygon fill="midnightblue" stroke="midnightblue" points="151.5,-494.08 155,-504.08 158.5,-494.08 151.5,-494.08"/>
</g>
<!-- Node3 -->
<g id="node3" class="node">
<title>Node3</title>
<g id="a_node3"><a xlink:href="screen_8c.html" target="_top" xlink:title=" ">
<polygon fill="white" stroke="black" points="2.5,-392.5 2.5,-411.5 91.5,-411.5 91.5,-392.5 2.5,-392.5"/>
<text text-anchor="middle" x="47" y="-399.5" font-family="Helvetica,sans-Serif" font-size="10.00">src/P2/screen.c</text>
</a>
</g>
</g>
<!-- Node2&#45;&gt;Node3 -->
<g id="edge2" class="edge">
<title>Node2&#45;&gt;Node3</title>
<path fill="none" stroke="midnightblue" d="M128.45,-443.73C108.45,-433.73 81.61,-420.31 64.31,-411.65"/>
<polygon fill="midnightblue" stroke="midnightblue" points="127.14,-446.98 137.65,-448.32 130.27,-440.72 127.14,-446.98"/>
</g>
<!-- Node4 -->
<g id="node4" class="node">
<title>Node4</title>
<g id="a_node4"><a xlink:href="binoc_8h.html" target="_top" xlink:title="Binoc&#45;u&#45;com.">
<polygon fill="white" stroke="black" points="110,-392.5 110,-411.5 200,-411.5 200,-392.5 110,-392.5"/>
<text text-anchor="middle" x="155" y="-399.5" font-family="Helvetica,sans-Serif" font-size="10.00">include/binoc.h</text>
</a>
</g>
</g>
<!-- Node2&#45;&gt;Node4 -->
<g id="edge3" class="edge">
<title>Node2&#45;&gt;Node4</title>
<path fill="none" stroke="midnightblue" d="M155,-437.8C155,-428.91 155,-418.78 155,-411.75"/>
<polygon fill="midnightblue" stroke="midnightblue" points="151.5,-438.08 155,-448.08 158.5,-438.08 151.5,-438.08"/>
</g>
<!-- Node25 -->
<g id="node25" class="node">
<title>Node25</title>
<g id="a_node25"><a xlink:href="ui_8h.html" target="_top" xlink:title="User interface.">
<polygon fill="white" stroke="black" points="251.5,-392.5 251.5,-411.5 324.5,-411.5 324.5,-392.5 251.5,-392.5"/>
<text text-anchor="middle" x="288" y="-399.5" font-family="Helvetica,sans-Serif" font-size="10.00">include/ui.h</text>
</a>
</g>
</g>
<!-- Node2&#45;&gt;Node25 -->
<g id="edge29" class="edge">
<title>Node2&#45;&gt;Node25</title>
<path fill="none" stroke="midnightblue" d="M185.45,-444.64C210.41,-434.5 245.08,-420.43 267.02,-411.52"/>
<polygon fill="midnightblue" stroke="midnightblue" points="184.02,-441.44 176.07,-448.44 186.66,-447.92 184.02,-441.44"/>
</g>
<!-- Node5 -->
<g id="node5" class="node">
<title>Node5</title>
<g id="a_node5"><a xlink:href="binoc_8c.html" target="_top" xlink:title=" ">
<polygon fill="white" stroke="black" points="43.5,-336.5 43.5,-355.5 126.5,-355.5 126.5,-336.5 43.5,-336.5"/>
<text text-anchor="middle" x="85" y="-343.5" font-family="Helvetica,sans-Serif" font-size="10.00">src/P2/binoc.c</text>
</a>
</g>
</g>
<!-- Node4&#45;&gt;Node5 -->
<g id="edge4" class="edge">
<title>Node4&#45;&gt;Node5</title>
<path fill="none" stroke="midnightblue" d="M135.69,-386.1C123.09,-376.38 107.07,-364.03 96.45,-355.83"/>
<polygon fill="midnightblue" stroke="midnightblue" points="133.7,-388.99 143.75,-392.32 137.97,-383.44 133.7,-388.99"/>
</g>
<!-- Node6 -->
<g id="node6" class="node">
<title>Node6</title>
<g id="a_node6"><a xlink:href="cm_8c.html" target="_top" xlink:title=" ">
<polygon fill="white" stroke="black" points="0,-112.5 0,-131.5 72,-131.5 72,-112.5 0,-112.5"/>
<text text-anchor="middle" x="36" y="-119.5" font-family="Helvetica,sans-Serif" font-size="10.00">src/P2/cm.c</text>
</a>
</g>
</g>
<!-- Node4&#45;&gt;Node6 -->
<g id="edge5" class="edge">
<title>Node4&#45;&gt;Node6</title>
<path fill="none" stroke="midnightblue" d="M99.99,-391.9C76.8,-385.45 51.24,-374.52 34,-356 13.49,-333.97 15,-321.1 15,-291 15,-291 15,-291 15,-233 15,-194.7 27.44,-150.21 33.17,-131.73"/>
<polygon fill="midnightblue" stroke="midnightblue" points="99.2,-395.31 109.75,-394.39 100.93,-388.52 99.2,-395.31"/>
</g>
<!-- Node7 -->
<g id="node7" class="node">
<title>Node7</title>
<g id="a_node7"><a xlink:href="cm_8h.html" target="_top" xlink:title="Game camera.">
<polygon fill="white" stroke="black" points="100.5,-168.5 100.5,-187.5 179.5,-187.5 179.5,-168.5 100.5,-168.5"/>
<text text-anchor="middle" x="140" y="-175.5" font-family="Helvetica,sans-Serif" font-size="10.00">include/cm.h</text>
</a>
</g>
</g>
<!-- Node4&#45;&gt;Node7 -->
<g id="edge6" class="edge">
<title>Node4&#45;&gt;Node7</title>
<path fill="none" stroke="midnightblue" d="M153.74,-382.3C150.65,-336.64 142.83,-220.85 140.6,-187.88"/>
<polygon fill="midnightblue" stroke="midnightblue" points="150.25,-382.56 154.41,-392.3 157.23,-382.08 150.25,-382.56"/>
</g>
<!-- Node10 -->
<g id="node10" class="node">
<title>Node10</title>
<g id="a_node10"><a xlink:href="prog_8h.html" target="_top" xlink:title=" ">
<polygon fill="white" stroke="black" points="183,-336.5 183,-355.5 269,-355.5 269,-336.5 183,-336.5"/>
<text text-anchor="middle" x="226" y="-343.5" font-family="Helvetica,sans-Serif" font-size="10.00">include/prog.h</text>
</a>
</g>
</g>
<!-- Node4&#45;&gt;Node10 -->
<g id="edge10" class="edge">
<title>Node4&#45;&gt;Node10</title>
<path fill="none" stroke="midnightblue" d="M174.59,-386.1C187.37,-376.38 203.61,-364.03 214.39,-355.83"/>
<polygon fill="midnightblue" stroke="midnightblue" points="172.25,-383.48 166.41,-392.32 176.49,-389.06 172.25,-383.48"/>
</g>
<!-- Node7&#45;&gt;Node6 -->
<g id="edge7" class="edge">
<title>Node7&#45;&gt;Node6</title>
<path fill="none" stroke="midnightblue" d="M114.17,-163.59C94.94,-153.61 69.26,-140.27 52.67,-131.65"/>
<polygon fill="midnightblue" stroke="midnightblue" points="112.8,-166.82 123.29,-168.32 116.03,-160.61 112.8,-166.82"/>
</g>
<!-- Node8 -->
<g id="node8" class="node">
<title>Node8</title>
<g id="a_node8"><a xlink:href="flash_8h.html" target="_top" xlink:title="Flash (might be flash animation, or literal screen flashes).">
<polygon fill="white" stroke="black" points="96.5,-112.5 96.5,-131.5 183.5,-131.5 183.5,-112.5 96.5,-112.5"/>
<text text-anchor="middle" x="140" y="-119.5" font-family="Helvetica,sans-Serif" font-size="10.00">include/flash.h</text>
</a>
</g>
</g>
<!-- Node7&#45;&gt;Node8 -->
<g id="edge8" class="edge">
<title>Node7&#45;&gt;Node8</title>
<path fill="none" stroke="midnightblue" d="M140,-157.8C140,-148.91 140,-138.78 140,-131.75"/>
<polygon fill="midnightblue" stroke="midnightblue" points="136.5,-158.08 140,-168.08 143.5,-158.08 136.5,-158.08"/>
</g>
<!-- Node9 -->
<g id="node9" class="node">
<title>Node9</title>
<g id="a_node9"><a xlink:href="flash_8c.html" target="_top" xlink:title=" ">
<polygon fill="white" stroke="black" points="100,-56.5 100,-75.5 180,-75.5 180,-56.5 100,-56.5"/>
<text text-anchor="middle" x="140" y="-63.5" font-family="Helvetica,sans-Serif" font-size="10.00">src/P2/flash.c</text>
</a>
</g>
</g>
<!-- Node8&#45;&gt;Node9 -->
<g id="edge9" class="edge">
<title>Node8&#45;&gt;Node9</title>
<path fill="none" stroke="midnightblue" d="M140,-101.8C140,-92.91 140,-82.78 140,-75.75"/>
<polygon fill="midnightblue" stroke="midnightblue" points="136.5,-102.08 140,-112.08 143.5,-102.08 136.5,-102.08"/>
</g>
<!-- Node11 -->
<g id="node11" class="node">
<title>Node11</title>
<g id="a_node11"><a xlink:href="main_8c.html" target="_top" xlink:title=" ">
<polygon fill="white" stroke="black" points="281,-280.5 281,-299.5 363,-299.5 363,-280.5 281,-280.5"/>
<text text-anchor="middle" x="322" y="-287.5" font-family="Helvetica,sans-Serif" font-size="10.00">src/P2/main.c</text>
</a>
</g>
</g>
<!-- Node10&#45;&gt;Node11 -->
<g id="edge11" class="edge">
<title>Node10&#45;&gt;Node11</title>
<path fill="none" stroke="midnightblue" d="M250.57,-331.18C268.24,-321.24 291.51,-308.15 306.61,-299.65"/>
<polygon fill="midnightblue" stroke="midnightblue" points="248.42,-328.37 241.42,-336.32 251.86,-334.47 248.42,-328.37"/>
</g>
<!-- Node12 -->
<g id="node12" class="node">
<title>Node12</title>
<g id="a_node12"><a xlink:href="prog_8c.html" target="_top" xlink:title=" ">
<polygon fill="white" stroke="black" points="183.5,-280.5 183.5,-299.5 262.5,-299.5 262.5,-280.5 183.5,-280.5"/>
<text text-anchor="middle" x="223" y="-287.5" font-family="Helvetica,sans-Serif" font-size="10.00">src/P2/prog.c</text>
</a>
</g>
</g>
<!-- Node10&#45;&gt;Node12 -->
<g id="edge12" class="edge">
<title>Node10&#45;&gt;Node12</title>
<path fill="none" stroke="midnightblue" d="M224.93,-325.8C224.44,-316.91 223.88,-306.78 223.49,-299.75"/>
<polygon fill="midnightblue" stroke="midnightblue" points="221.46,-326.29 225.5,-336.08 228.44,-325.9 221.46,-326.29"/>
</g>
<!-- Node13 -->
<g id="node13" class="node">
<title>Node13</title>
<g id="a_node13"><a xlink:href="bis_8h.html" target="_top" xlink:title="Binary Input Stream.">
<polygon fill="white" stroke="black" points="381,-280.5 381,-299.5 459,-299.5 459,-280.5 381,-280.5"/>
<text text-anchor="middle" x="420" y="-287.5" font-family="Helvetica,sans-Serif" font-size="10.00">include/bis.h</text>
</a>
</g>
</g>
<!-- Node10&#45;&gt;Node13 -->
<g id="edge13" class="edge">
<title>Node10&#45;&gt;Node13</title>
<path fill="none" stroke="midnightblue" d="M266.6,-333.7C303.22,-323.51 356.26,-308.74 389.4,-299.52"/>
<polygon fill="midnightblue" stroke="midnightblue" points="265.44,-330.39 256.74,-336.44 267.31,-337.13 265.44,-330.39"/>
</g>
<!-- Node14 -->
<g id="node14" class="node">
<title>Node14</title>
<g id="a_node14"><a xlink:href="bis_8c.html" target="_top" xlink:title=" ">
<polygon fill="white" stroke="black" points="444.5,-224.5 444.5,-243.5 515.5,-243.5 515.5,-224.5 444.5,-224.5"/>
<text text-anchor="middle" x="480" y="-231.5" font-family="Helvetica,sans-Serif" font-size="10.00">src/P2/bis.c</text>
</a>
</g>
</g>
<!-- Node13&#45;&gt;Node14 -->
<g id="edge14" class="edge">
<title>Node13&#45;&gt;Node14</title>
<path fill="none" stroke="midnightblue" d="M437.18,-273.54C447.88,-263.91 461.26,-251.87 470.18,-243.83"/>
<polygon fill="midnightblue" stroke="midnightblue" points="434.73,-271.03 429.64,-280.32 439.41,-276.24 434.73,-271.03"/>
</g>
<!-- Node15 -->
<g id="node15" class="node">
<title>Node15</title>
<g id="a_node15"><a xlink:href="coin_8c.html" target="_top" xlink:title=" ">
<polygon fill="white" stroke="black" points="493.5,-56.5 493.5,-75.5 570.5,-75.5 570.5,-56.5 493.5,-56.5"/>
<text text-anchor="middle" x="532" y="-63.5" font-family="Helvetica,sans-Serif" font-size="10.00">src/P2/coin.c</text>
</a>
</g>
</g>
<!-- Node13&#45;&gt;Node15 -->
<g id="edge15" class="edge">
<title>Node13&#45;&gt;Node15</title>
<path fill="none" stroke="midnightblue" d="M462.76,-277.15C483.19,-269.97 507.04,-259.19 525,-244 547.59,-224.89 547.53,-214.34 561,-188 577.01,-156.69 597.46,-144.05 583,-112 575.81,-96.07 559.89,-83.52 547.73,-75.76"/>
<polygon fill="midnightblue" stroke="midnightblue" points="461.42,-273.91 453.04,-280.4 463.64,-280.55 461.42,-273.91"/>
</g>
<!-- Node16 -->
<g id="node16" class="node">
<title>Node16</title>
<g id="a_node16"><a xlink:href="chkpnt_8h.html" target="_top" xlink:title="Checkpoint system.">
<polygon fill="white" stroke="black" points="227.5,-112.5 227.5,-131.5 324.5,-131.5 324.5,-112.5 227.5,-112.5"/>
<text text-anchor="middle" x="276" y="-119.5" font-family="Helvetica,sans-Serif" font-size="10.00">include/chkpnt.h</text>
</a>
</g>
</g>
<!-- Node13&#45;&gt;Node16 -->
<g id="edge16" class="edge">
<title>Node13&#45;&gt;Node16</title>
<path fill="none" stroke="midnightblue" d="M370.95,-278.79C324.63,-266.21 257.91,-239.81 228,-188 215.58,-166.5 243.28,-143.66 261.56,-131.61"/>
<polygon fill="midnightblue" stroke="midnightblue" points="370.24,-282.22 380.8,-281.34 372,-275.44 370.24,-282.22"/>
</g>
<!-- Node20 -->
<g id="node20" class="node">
<title>Node20</title>
<g id="a_node20"><a xlink:href="xform_8h.html" target="_top" xlink:title="Transform.">
<polygon fill="white" stroke="black" points="333.5,-224.5 333.5,-243.5 426.5,-243.5 426.5,-224.5 333.5,-224.5"/>
<text text-anchor="middle" x="380" y="-231.5" font-family="Helvetica,sans-Serif" font-size="10.00">include/xform.h</text>
</a>
</g>
</g>
<!-- Node13&#45;&gt;Node20 -->
<g id="edge21" class="edge">
<title>Node13&#45;&gt;Node20</title>
<path fill="none" stroke="midnightblue" d="M407.3,-271.86C400.37,-262.5 392.09,-251.33 386.48,-243.75"/>
<polygon fill="midnightblue" stroke="midnightblue" points="404.63,-274.13 413.39,-280.08 410.25,-269.96 404.63,-274.13"/>
</g>
<!-- Node16&#45;&gt;Node15 -->
<g id="edge18" class="edge">
<title>Node16&#45;&gt;Node15</title>
<path fill="none" stroke="midnightblue" d="M326.63,-110.32C375.62,-99.99 448.81,-84.55 493.3,-75.16"/>
<polygon fill="midnightblue" stroke="midnightblue" points="325.63,-106.95 316.56,-112.44 327.07,-113.8 325.63,-106.95"/>
</g>
<!-- Node17 -->
<g id="node17" class="node">
<title>Node17</title>
<g id="a_node17"><a xlink:href="chkpnt_8c.html" target="_top" xlink:title=" ">
<polygon fill="white" stroke="black" points="335,-56.5 335,-75.5 425,-75.5 425,-56.5 335,-56.5"/>
<text text-anchor="middle" x="380" y="-63.5" font-family="Helvetica,sans-Serif" font-size="10.00">src/P2/chkpnt.c</text>
</a>
</g>
</g>
<!-- Node16&#45;&gt;Node17 -->
<g id="edge17" class="edge">
<title>Node16&#45;&gt;Node17</title>
<path fill="none" stroke="midnightblue" d="M301.83,-107.59C321.06,-97.61 346.74,-84.27 363.33,-75.65"/>
<polygon fill="midnightblue" stroke="midnightblue" points="299.97,-104.61 292.71,-112.32 303.2,-110.82 299.97,-104.61"/>
</g>
<!-- Node18 -->
<g id="node18" class="node">
<title>Node18</title>
<g id="a_node18"><a xlink:href="difficulty_8h.html" target="_top" xlink:title="Dynamic difficulty system.">
<polygon fill="white" stroke="black" points="211.5,-56.5 211.5,-75.5 316.5,-75.5 316.5,-56.5 211.5,-56.5"/>
<text text-anchor="middle" x="264" y="-63.5" font-family="Helvetica,sans-Serif" font-size="10.00">include/difficulty.h</text>
</a>
</g>
</g>
<!-- Node16&#45;&gt;Node18 -->
<g id="edge19" class="edge">
<title>Node16&#45;&gt;Node18</title>
<path fill="none" stroke="midnightblue" d="M271.8,-102.1C269.81,-93.14 267.52,-82.86 265.94,-75.75"/>
<polygon fill="midnightblue" stroke="midnightblue" points="268.43,-103.08 274.02,-112.08 275.27,-101.56 268.43,-103.08"/>
</g>
<!-- Node19 -->
<g id="node19" class="node">
<title>Node19</title>
<g id="a_node19"><a xlink:href="difficulty_8c.html" target="_top" xlink:title=" ">
<polygon fill="white" stroke="black" points="215,-0.5 215,-19.5 313,-19.5 313,-0.5 215,-0.5"/>
<text text-anchor="middle" x="264" y="-7.5" font-family="Helvetica,sans-Serif" font-size="10.00">src/P2/difficulty.c</text>
</a>
</g>
</g>
<!-- Node18&#45;&gt;Node19 -->
<g id="edge20" class="edge">
<title>Node18&#45;&gt;Node19</title>
<path fill="none" stroke="midnightblue" d="M264,-45.8C264,-36.91 264,-26.78 264,-19.75"/>
<polygon fill="midnightblue" stroke="midnightblue" points="260.5,-46.08 264,-56.08 267.5,-46.08 260.5,-46.08"/>
</g>
<!-- Node20&#45;&gt;Node7 -->
<g id="edge24" class="edge">
<title>Node20&#45;&gt;Node7</title>
<path fill="none" stroke="midnightblue" d="M332.08,-222.22C286.73,-212.01 219.56,-196.9 177.85,-187.52"/>
<polygon fill="midnightblue" stroke="midnightblue" points="331.45,-225.66 341.97,-224.44 332.98,-218.83 331.45,-225.66"/>
</g>
<!-- Node21 -->
<g id="node21" class="node">
<title>Node21</title>
<g id="a_node21"><a xlink:href="xform1_8c.html" target="_top" xlink:title=" ">
<polygon fill="white" stroke="black" points="334,-168.5 334,-187.5 426,-187.5 426,-168.5 334,-168.5"/>
<text text-anchor="middle" x="380" y="-175.5" font-family="Helvetica,sans-Serif" font-size="10.00">src/P2/xform1.c</text>
</a>
</g>
</g>
<!-- Node20&#45;&gt;Node21 -->
<g id="edge22" class="edge">
<title>Node20&#45;&gt;Node21</title>
<path fill="none" stroke="midnightblue" d="M380,-213.8C380,-204.91 380,-194.78 380,-187.75"/>
<polygon fill="midnightblue" stroke="midnightblue" points="376.5,-214.08 380,-224.08 383.5,-214.08 376.5,-214.08"/>
</g>
<!-- Node22 -->
<g id="node22" class="node">
<title>Node22</title>
<g id="a_node22"><a xlink:href="xform2_8c.html" target="_top" xlink:title=" ">
<polygon fill="white" stroke="black" points="444,-168.5 444,-187.5 536,-187.5 536,-168.5 444,-168.5"/>
<text text-anchor="middle" x="490" y="-175.5" font-family="Helvetica,sans-Serif" font-size="10.00">src/P2/xform2.c</text>
</a>
</g>
</g>
<!-- Node20&#45;&gt;Node22 -->
<g id="edge23" class="edge">
<title>Node20&#45;&gt;Node22</title>
<path fill="none" stroke="midnightblue" d="M406.76,-219.86C427.16,-209.85 454.67,-196.35 472.37,-187.65"/>
<polygon fill="midnightblue" stroke="midnightblue" points="405.11,-216.78 397.67,-224.32 408.19,-223.06 405.11,-216.78"/>
</g>
<!-- Node23 -->
<g id="node23" class="node">
<title>Node23</title>
<g id="a_node23"><a xlink:href="coin_8h.html" target="_top" xlink:title="Coins, keys, and other collectibles.">
<polygon fill="white" stroke="black" points="490,-112.5 490,-131.5 574,-131.5 574,-112.5 490,-112.5"/>
<text text-anchor="middle" x="532" y="-119.5" font-family="Helvetica,sans-Serif" font-size="10.00">include/coin.h</text>
</a>
</g>
</g>
<!-- Node20&#45;&gt;Node23 -->
<g id="edge25" class="edge">
<title>Node20&#45;&gt;Node23</title>
<path fill="none" stroke="midnightblue" d="M430.97,-222.35C476.76,-212.26 537.88,-197.32 545,-188 557.85,-171.17 545.51,-144.96 537.56,-131.54"/>
<polygon fill="midnightblue" stroke="midnightblue" points="430.19,-218.93 421.17,-224.48 431.68,-225.77 430.19,-218.93"/>
</g>
<!-- Node24 -->
<g id="node24" class="node">
<title>Node24</title>
<g id="a_node24"><a xlink:href="vol_8h.html" target="_top" xlink:title="Volume object.">
<polygon fill="white" stroke="black" points="236.5,-168.5 236.5,-187.5 315.5,-187.5 315.5,-168.5 236.5,-168.5"/>
<text text-anchor="middle" x="276" y="-175.5" font-family="Helvetica,sans-Serif" font-size="10.00">include/vol.h</text>
</a>
</g>
</g>
<!-- Node20&#45;&gt;Node24 -->
<g id="edge27" class="edge">
<title>Node20&#45;&gt;Node24</title>
<path fill="none" stroke="midnightblue" d="M354.17,-219.59C334.94,-209.61 309.26,-196.27 292.67,-187.65"/>
<polygon fill="midnightblue" stroke="midnightblue" points="352.8,-222.82 363.29,-224.32 356.03,-216.61 352.8,-222.82"/>
</g>
<!-- Node23&#45;&gt;Node15 -->
<g id="edge26" class="edge">
<title>Node23&#45;&gt;Node15</title>
<path fill="none" stroke="midnightblue" d="M532,-101.8C532,-92.91 532,-82.78 532,-75.75"/>
<polygon fill="midnightblue" stroke="midnightblue" points="528.5,-102.08 532,-112.08 535.5,-102.08 528.5,-102.08"/>
</g>
<!-- Node24&#45;&gt;Node16 -->
<g id="edge28" class="edge">
<title>Node24&#45;&gt;Node16</title>
<path fill="none" stroke="midnightblue" d="M276,-157.8C276,-148.91 276,-138.78 276,-131.75"/>
<polygon fill="midnightblue" stroke="midnightblue" points="272.5,-158.08 276,-168.08 279.5,-158.08 272.5,-158.08"/>
</g>
<!-- Node26 -->
<g id="node26" class="node">
<title>Node26</title>
<g id="a_node26"><a xlink:href="ui_8c.html" target="_top" xlink:title=" ">
<polygon fill="white" stroke="black" points="287,-336.5 287,-355.5 353,-355.5 353,-336.5 287,-336.5"/>
<text text-anchor="middle" x="320" y="-343.5" font-family="Helvetica,sans-Serif" font-size="10.00">src/P2/ui.c</text>
</a>
</g>
</g>
<!-- Node25&#45;&gt;Node26 -->
<g id="edge30" class="edge">
<title>Node25&#45;&gt;Node26</title>
<path fill="none" stroke="midnightblue" d="M298.5,-383.27C303.97,-374.05 310.42,-363.17 314.81,-355.75"/>
<polygon fill="midnightblue" stroke="midnightblue" points="295.37,-381.7 293.28,-392.08 301.39,-385.26 295.37,-381.7"/>
</g>
</g>
</svg>
