<?xml version="1.0" encoding="UTF-8" standalone="no"?>
<!DOCTYPE svg PUBLIC "-//W3C//DTD SVG 1.1//EN"
 "http://www.w3.org/Graphics/SVG/1.1/DTD/svg11.dtd">
<!-- Generated by graphviz version 2.43.0 (0)
 -->
<!-- Title: include/shd.h Pages: 1 -->
<svg width="293pt" height="196pt"
 viewBox="0.00 0.00 293.00 196.00" xmlns="http://www.w3.org/2000/svg" xmlns:xlink="http://www.w3.org/1999/xlink">
<g id="graph0" class="graph" transform="scale(1 1) rotate(0) translate(4 192)">
<title>include/shd.h</title>
<polygon fill="white" stroke="transparent" points="-4,4 -4,-192 289,-192 289,4 -4,4"/>
<!-- Node1 -->
<g id="node1" class="node">
<title>Node1</title>
<g id="a_node1"><a xlink:title="Shaders.">
<polygon fill="#bfbfbf" stroke="black" points="58,-168.5 58,-187.5 139,-187.5 139,-168.5 58,-168.5"/>
<text text-anchor="middle" x="98.5" y="-175.5" font-family="Helvetica,sans-Serif" font-size="10.00">include/shd.h</text>
</a>
</g>
</g>
<!-- Node2 -->
<g id="node2" class="node">
<title>Node2</title>
<g id="a_node2"><a xlink:href="flash_8h.html" target="_top" xlink:title="Flash (might be flash animation, or literal screen flashes).">
<polygon fill="white" stroke="black" points="0,-112.5 0,-131.5 87,-131.5 87,-112.5 0,-112.5"/>
<text text-anchor="middle" x="43.5" y="-119.5" font-family="Helvetica,sans-Serif" font-size="10.00">include/flash.h</text>
</a>
</g>
</g>
<!-- Node1&#45;&gt;Node2 -->
<g id="edge1" class="edge">
<title>Node1&#45;&gt;Node2</title>
<path fill="none" stroke="midnightblue" d="M82.21,-161C72.46,-151.43 60.45,-139.64 52.41,-131.75"/>
<polygon fill="midnightblue" stroke="midnightblue" points="79.83,-163.57 89.42,-168.08 84.73,-158.58 79.83,-163.57"/>
</g>
<!-- Node4 -->
<g id="node4" class="node">
<title>Node4</title>
<g id="a_node4"><a xlink:href="screen_8h.html" target="_top" xlink:title="User interface manager.">
<polygon fill="white" stroke="black" points="105.5,-112.5 105.5,-131.5 201.5,-131.5 201.5,-112.5 105.5,-112.5"/>
<text text-anchor="middle" x="153.5" y="-119.5" font-family="Helvetica,sans-Serif" font-size="10.00">include/screen.h</text>
</a>
</g>
</g>
<!-- Node1&#45;&gt;Node4 -->
<g id="edge3" class="edge">
<title>Node1&#45;&gt;Node4</title>
<path fill="none" stroke="midnightblue" d="M114.79,-161C124.54,-151.43 136.55,-139.64 144.59,-131.75"/>
<polygon fill="midnightblue" stroke="midnightblue" points="112.27,-158.58 107.58,-168.08 117.17,-163.57 112.27,-158.58"/>
</g>
<!-- Node3 -->
<g id="node3" class="node">
<title>Node3</title>
<g id="a_node3"><a xlink:href="flash_8c.html" target="_top" xlink:title=" ">
<polygon fill="white" stroke="black" points="3.5,-56.5 3.5,-75.5 83.5,-75.5 83.5,-56.5 3.5,-56.5"/>
<text text-anchor="middle" x="43.5" y="-63.5" font-family="Helvetica,sans-Serif" font-size="10.00">src/P2/flash.c</text>
</a>
</g>
</g>
<!-- Node2&#45;&gt;Node3 -->
<g id="edge2" class="edge">
<title>Node2&#45;&gt;Node3</title>
<path fill="none" stroke="midnightblue" d="M43.5,-101.8C43.5,-92.91 43.5,-82.78 43.5,-75.75"/>
<polygon fill="midnightblue" stroke="midnightblue" points="40,-102.08 43.5,-112.08 47,-102.08 40,-102.08"/>
</g>
<!-- Node5 -->
<g id="node5" class="node">
<title>Node5</title>
<g id="a_node5"><a xlink:href="screen_8c.html" target="_top" xlink:title=" ">
<polygon fill="white" stroke="black" points="105,-56.5 105,-75.5 194,-75.5 194,-56.5 105,-56.5"/>
<text text-anchor="middle" x="149.5" y="-63.5" font-family="Helvetica,sans-Serif" font-size="10.00">src/P2/screen.c</text>
</a>
</g>
</g>
<!-- Node4&#45;&gt;Node5 -->
<g id="edge4" class="edge">
<title>Node4&#45;&gt;Node5</title>
<path fill="none" stroke="midnightblue" d="M152.1,-102.1C151.44,-93.14 150.67,-82.86 150.15,-75.75"/>
<polygon fill="midnightblue" stroke="midnightblue" points="148.61,-102.37 152.84,-112.08 155.59,-101.85 148.61,-102.37"/>
</g>
<!-- Node6 -->
<g id="node6" class="node">
<title>Node6</title>
<g id="a_node6"><a xlink:href="ui_8h.html" target="_top" xlink:title="User interface.">
<polygon fill="white" stroke="black" points="212,-56.5 212,-75.5 285,-75.5 285,-56.5 212,-56.5"/>
<text text-anchor="middle" x="248.5" y="-63.5" font-family="Helvetica,sans-Serif" font-size="10.00">include/ui.h</text>
</a>
</g>
</g>
<!-- Node4&#45;&gt;Node6 -->
<g id="edge5" class="edge">
<title>Node4&#45;&gt;Node6</title>
<path fill="none" stroke="midnightblue" d="M177.82,-107.18C195.3,-97.24 218.33,-84.15 233.27,-75.65"/>
<polygon fill="midnightblue" stroke="midnightblue" points="175.73,-104.34 168.76,-112.32 179.19,-110.43 175.73,-104.34"/>
</g>
<!-- Node7 -->
<g id="node7" class="node">
<title>Node7</title>
<g id="a_node7"><a xlink:href="ui_8c.html" target="_top" xlink:title=" ">
<polygon fill="white" stroke="black" points="215.5,-0.5 215.5,-19.5 281.5,-19.5 281.5,-0.5 215.5,-0.5"/>
<text text-anchor="middle" x="248.5" y="-7.5" font-family="Helvetica,sans-Serif" font-size="10.00">src/P2/ui.c</text>
</a>
</g>
</g>
<!-- Node6&#45;&gt;Node7 -->
<g id="edge6" class="edge">
<title>Node6&#45;&gt;Node7</title>
<path fill="none" stroke="midnightblue" d="M248.5,-45.8C248.5,-36.91 248.5,-26.78 248.5,-19.75"/>
<polygon fill="midnightblue" stroke="midnightblue" points="245,-46.08 248.5,-56.08 252,-46.08 245,-46.08"/>
</g>
</g>
</svg>
