<?xml version="1.0" encoding="UTF-8" standalone="no"?>
<!DOCTYPE svg PUBLIC "-//W3C//DTD SVG 1.1//EN"
 "http://www.w3.org/Graphics/SVG/1.1/DTD/svg11.dtd">
<!-- Generated by graphviz version 2.43.0 (0)
 -->
<!-- Title: src/P2/shd.c Pages: 1 -->
<!--zoomable 577 -->

<svg id="main" version="1.1" xmlns="http://www.w3.org/2000/svg" xmlns:xlink="http://www.w3.org/1999/xlink" xml:space="preserve" onload="init(evt)">
<style type="text/css"><![CDATA[
.node, .edge {opacity: 0.7;}
.node.selected, .edge.selected {opacity: 1;}
.edge:hover path { stroke: red; }
.edge:hover polygon { stroke: red; fill: red; }
]]></style>

<defs>
  <circle id="rim" cx="0" cy="0" r="7"/>
  <circle id="rim2" cx="0" cy="0" r="3.5"/>
  <g id="zoomPlus">
    <use xlink:href="#rim" fill="#404040"><set attributeName="fill" to="#808080" begin="zoomplus.mouseover" end="zoomplus.mouseout"/></use>
    <path d="M-4,0h8M0,-4v8" fill="none" stroke="white" stroke-width="1.5" pointer-events="none"/>
  </g>
  <g id="zoomMin">
    <use xlink:href="#rim" fill="#404040"><set attributeName="fill" to="#808080" begin="zoomminus.mouseover" end="zoomminus.mouseout"/></use>
    <path d="M-4,0h8" fill="none" stroke="white" stroke-width="1.5" pointer-events="none"/>
  </g>
  <g id="arrowUp" transform="translate(30 24)">
    <use xlink:href="#rim"/>
    <path pointer-events="none" fill="none" stroke="white" stroke-width="1.5" d="M0,-3.0v7 M-2.5,-0.5L0,-3.0L2.5,-0.5"/>
  </g>
  <g id="arrowRight" transform="rotate(90) translate(36 -43)">
    <use xlink:href="#rim"/>
    <path pointer-events="none" fill="none" stroke="white" stroke-width="1.5" d="M0,-3.0v7 M-2.5,-0.5L0,-3.0L2.5,-0.5"/>
  </g>
  <g id="arrowDown" transform="rotate(180) translate(-30 -48)">
    <use xlink:href="#rim"/>
    <path pointer-events="none" fill="none" stroke="white" stroke-width="1.5" d="M0,-3.0v7 M-2.5,-0.5L0,-3.0L2.5,-0.5"/>
  </g>
  <g id="arrowLeft" transform="rotate(270) translate(-36 17)">
    <use xlink:href="#rim"/>
    <path pointer-events="none" fill="none" stroke="white" stroke-width="1.5" d="M0,-3.0v7 M-2.5,-0.5L0,-3.0L2.5,-0.5"/>
  </g>
  <g id="resetDef">
    <use xlink:href="#rim2" fill="#404040"><set attributeName="fill" to="#808080" begin="reset.mouseover" end="reset.mouseout"/></use>
  </g>
</defs>
<script type="application/ecmascript">
var viewWidth = 925;
var viewHeight = 577;
var sectionId = 'dynsection-0';
</script>
<script type="application/ecmascript" xlink:href="svg.min.js"/>
<svg id="graph" class="graph">
<g id="viewport">
<title>src/P2/shd.c</title>
<!-- Node1 -->
<g id="Node000001" class="node">
<title>Node1</title>
<g id="a_Node000001"><a xlink:title=" ">
<polygon fill="#999999" stroke="#666666" points="781.21,-569 707.21,-569 707.21,-550 781.21,-550 781.21,-569"/>
<text text-anchor="middle" x="744.21" y="-557" font-family="Helvetica,sans-Serif" font-size="10.00">src/P2/shd.c</text>
</a>
</g>
</g>
<!-- Node2 -->
<g id="Node000002" class="node">
<title>Node2</title>
<g id="a_Node000002"><a xlink:href="shd_8h.html" target="_top" xlink:title="Shaders.">
<polygon fill="white" stroke="#666666" points="742.71,-459 699.71,-459 699.71,-440 742.71,-440 742.71,-459"/>
<text text-anchor="middle" x="721.21" y="-447" font-family="Helvetica,sans-Serif" font-size="10.00">shd.h</text>
</a>
</g>
</g>
<!-- Node1&#45;&gt;Node2 -->
<g id="edge1_Node000001_Node000002" class="edge">
<title>Node1&#45;&gt;Node2</title>
<g id="a_edge1_Node000001_Node000002"><a xlink:title=" ">
<path fill="none" stroke="#63b8ff" d="M742.32,-549.66C738.58,-532.09 730.14,-492.45 725.14,-468.95"/>
<polygon fill="#63b8ff" stroke="#63b8ff" points="728.56,-468.21 723.05,-459.16 721.71,-469.67 728.56,-468.21"/>
</a>
</g>
</g>
<!-- Node32 -->
<g id="Node000032" class="node">
<title>Node32</title>
<g id="a_Node000032"><a xlink:href="gs_8h.html" target="_top" xlink:title="Graphics synthesizer.">
<polygon fill="white" stroke="#666666" points="786.71,-514 749.71,-514 749.71,-495 786.71,-495 786.71,-514"/>
<text text-anchor="middle" x="768.21" y="-502" font-family="Helvetica,sans-Serif" font-size="10.00">gs.h</text>
</a>
</g>
</g>
<!-- Node1&#45;&gt;Node32 -->
<g id="edge49_Node000001_Node000032" class="edge">
<title>Node1&#45;&gt;Node32</title>
<g id="a_edge49_Node000001_Node000032"><a xlink:title=" ">
<path fill="none" stroke="#63b8ff" d="M748.17,-549.75C751.42,-542.57 756.13,-532.18 760.16,-523.27"/>
<polygon fill="#63b8ff" stroke="#63b8ff" points="763.38,-524.64 764.32,-514.09 757,-521.75 763.38,-524.64"/>
</a>
</g>
</g>
<!-- Node3 -->
<g id="Node000003" class="node">
<title>Node3</title>
<g id="a_Node000003"><a xlink:href="eestruct_8h.html" target="_top" xlink:title="Graphics synthesizer.">
<polygon fill="white" stroke="#666666" points="888.71,-129 787.71,-129 787.71,-110 888.71,-110 888.71,-129"/>
<text text-anchor="middle" x="838.21" y="-117" font-family="Helvetica,sans-Serif" font-size="10.00">sdk/ee/eestruct.h</text>
</a>
</g>
</g>
<!-- Node2&#45;&gt;Node3 -->
<g id="edge2_Node000002_Node000003" class="edge">
<title>Node2&#45;&gt;Node3</title>
<g id="a_edge2_Node000002_Node000003"><a xlink:title=" ">
<path fill="none" stroke="#63b8ff" d="M737.66,-439.97C765.34,-424.3 818.21,-388.13 818.21,-340.5 818.21,-340.5 818.21,-340.5 818.21,-228.5 818.21,-196.51 826.8,-160.07 832.72,-138.75"/>
<polygon fill="#63b8ff" stroke="#63b8ff" points="836.1,-139.66 835.51,-129.08 829.37,-137.71 836.1,-139.66"/>
</a>
</g>
</g>
<!-- Node6 -->
<g id="Node000006" class="node">
<title>Node6</title>
<g id="a_Node000006"><a xlink:href="bis_8h.html" target="_top" xlink:title="Binary Input Stream.">
<polygon fill="white" stroke="#666666" points="186.21,-404 146.21,-404 146.21,-385 186.21,-385 186.21,-404"/>
<text text-anchor="middle" x="166.21" y="-392" font-family="Helvetica,sans-Serif" font-size="10.00">bis.h</text>
</a>
</g>
</g>
<!-- Node2&#45;&gt;Node6 -->
<g id="edge5_Node000002_Node000006" class="edge">
<title>Node2&#45;&gt;Node6</title>
<g id="a_edge5_Node000002_Node000006"><a xlink:title=" ">
<path fill="none" stroke="#63b8ff" d="M699.45,-446.42C613.31,-438.2 295.97,-407.89 196.34,-398.38"/>
<polygon fill="#63b8ff" stroke="#63b8ff" points="196.63,-394.89 186.34,-397.42 195.96,-401.86 196.63,-394.89"/>
</a>
</g>
</g>
<!-- Node11 -->
<g id="Node000011" class="node">
<title>Node11</title>
<g id="a_Node000011"><a xlink:href="gifs_8h.html" target="_top" xlink:title=" ">
<polygon fill="white" stroke="#666666" points="731.21,-129 687.21,-129 687.21,-110 731.21,-110 731.21,-129"/>
<text text-anchor="middle" x="709.21" y="-117" font-family="Helvetica,sans-Serif" font-size="10.00">gifs.h</text>
</a>
</g>
</g>
<!-- Node2&#45;&gt;Node11 -->
<g id="edge48_Node000002_Node000011" class="edge">
<title>Node2&#45;&gt;Node11</title>
<g id="a_edge48_Node000002_Node000011"><a xlink:title=" ">
<path fill="none" stroke="#63b8ff" d="M721.21,-439.82C721.21,-421.48 721.21,-377.44 721.21,-340.5 721.21,-340.5 721.21,-340.5 721.21,-228.5 721.21,-197 716.1,-160.64 712.55,-139.16"/>
<polygon fill="#63b8ff" stroke="#63b8ff" points="715.97,-138.4 710.83,-129.14 709.07,-139.59 715.97,-138.4"/>
</a>
</g>
</g>
<!-- Node12 -->
<g id="Node000012" class="node">
<title>Node12</title>
<g id="a_Node000012"><a xlink:href="dmas_8h.html" target="_top" xlink:title="Direct memory access.">
<polygon fill="white" stroke="#666666" points="718.71,-74 665.71,-74 665.71,-55 718.71,-55 718.71,-74"/>
<text text-anchor="middle" x="692.21" y="-62" font-family="Helvetica,sans-Serif" font-size="10.00">dmas.h</text>
</a>
</g>
</g>
<!-- Node2&#45;&gt;Node12 -->
<g id="edge47_Node000002_Node000012" class="edge">
<title>Node2&#45;&gt;Node12</title>
<g id="a_edge47_Node000002_Node000012"><a xlink:title=" ">
<path fill="none" stroke="#63b8ff" d="M726.49,-439.9C736.93,-422.07 759.21,-379.46 759.21,-340.5 759.21,-340.5 759.21,-340.5 759.21,-173.5 759.21,-144.04 755.78,-135.01 740.21,-110 733.15,-98.66 722.45,-88.35 712.94,-80.52"/>
<polygon fill="#63b8ff" stroke="#63b8ff" points="715.05,-77.72 705.02,-74.31 710.73,-83.23 715.05,-77.72"/>
</a>
</g>
</g>
<!-- Node17 -->
<g id="Node000017" class="node">
<title>Node17</title>
<g id="a_Node000017"><a xlink:href="oid_8h.html" target="_top" xlink:title="Object IDs.">
<polygon fill="white" stroke="#666666" points="586.71,-19 545.71,-19 545.71,0 586.71,0 586.71,-19"/>
<text text-anchor="middle" x="566.21" y="-7" font-family="Helvetica,sans-Serif" font-size="10.00">oid.h</text>
</a>
</g>
</g>
<!-- Node2&#45;&gt;Node17 -->
<g id="edge45_Node000002_Node000017" class="edge">
<title>Node2&#45;&gt;Node17</title>
<g id="a_edge45_Node000002_Node000017"><a xlink:title=" ">
<path fill="none" stroke="#63b8ff" d="M703.44,-439.95C674.22,-424.5 619.21,-388.99 619.21,-340.5 619.21,-340.5 619.21,-340.5 619.21,-228.5 619.21,-152.28 588.24,-65.21 573.65,-28.41"/>
<polygon fill="#63b8ff" stroke="#63b8ff" points="576.85,-26.99 569.85,-19.04 570.36,-29.62 576.85,-26.99"/>
</a>
</g>
</g>
<!-- Node29 -->
<g id="Node000029" class="node">
<title>Node29</title>
<g id="a_Node000029"><a xlink:href="geom_8h.html" target="_top" xlink:title="Geometry.">
<polygon fill="white" stroke="#666666" points="119.71,-294 66.71,-294 66.71,-275 119.71,-275 119.71,-294"/>
<text text-anchor="middle" x="93.21" y="-282" font-family="Helvetica,sans-Serif" font-size="10.00">geom.h</text>
</a>
</g>
</g>
<!-- Node2&#45;&gt;Node29 -->
<g id="edge46_Node000002_Node000029" class="edge">
<title>Node2&#45;&gt;Node29</title>
<g id="a_edge46_Node000002_Node000029"><a xlink:title=" ">
<path fill="none" stroke="#63b8ff" d="M699.46,-447.82C607.08,-444.8 246.94,-431.47 137.21,-404 78.33,-389.26 45.38,-399.83 12.21,-349 -2.69,-326.18 28.92,-308.01 56.9,-297.05"/>
<polygon fill="#63b8ff" stroke="#63b8ff" points="58.4,-300.23 66.57,-293.48 55.97,-293.66 58.4,-300.23"/>
</a>
</g>
</g>
<!-- Node4 -->
<g id="Node000004" class="node">
<title>Node4</title>
<g id="a_Node000004"><a xlink:href="types_8h.html" target="_top" xlink:title="Common types used across the codebase.">
<polygon fill="white" stroke="#666666" points="876.71,-74 823.71,-74 823.71,-55 876.71,-55 876.71,-74"/>
<text text-anchor="middle" x="850.21" y="-62" font-family="Helvetica,sans-Serif" font-size="10.00">types.h</text>
</a>
</g>
</g>
<!-- Node3&#45;&gt;Node4 -->
<g id="edge3_Node000003_Node000004" class="edge">
<title>Node3&#45;&gt;Node4</title>
<g id="a_edge3_Node000003_Node000004"><a xlink:title=" ">
<path fill="none" stroke="#63b8ff" d="M840.19,-109.75C841.78,-102.72 844.07,-92.62 846.05,-83.84"/>
<polygon fill="#63b8ff" stroke="#63b8ff" points="849.47,-84.62 848.26,-74.09 842.64,-83.07 849.47,-84.62"/>
</a>
</g>
</g>
<!-- Node5 -->
<g id="Node000005" class="node">
<title>Node5</title>
<g id="a_Node000005"><a xlink:title=" ">
<polygon fill="#e0e0e0" stroke="#999999" points="893.21,-19 837.21,-19 837.21,0 893.21,0 893.21,-19"/>
<text text-anchor="middle" x="865.21" y="-7" font-family="Helvetica,sans-Serif" font-size="10.00">stddef.h</text>
</a>
</g>
</g>
<!-- Node4&#45;&gt;Node5 -->
<g id="edge4_Node000004_Node000005" class="edge">
<title>Node4&#45;&gt;Node5</title>
<g id="a_edge4_Node000004_Node000005"><a xlink:title=" ">
<path fill="none" stroke="#63b8ff" d="M852.68,-54.75C854.67,-47.72 857.53,-37.62 860.02,-28.84"/>
<polygon fill="#63b8ff" stroke="#63b8ff" points="863.42,-29.66 862.78,-19.09 856.69,-27.76 863.42,-29.66"/>
</a>
</g>
</g>
<!-- Node7 -->
<g id="Node000007" class="node">
<title>Node7</title>
<g id="a_Node000007"><a xlink:href="prog_8h.html" target="_top" xlink:title="Progress bar.">
<polygon fill="white" stroke="#666666" points="335.71,-349 288.71,-349 288.71,-330 335.71,-330 335.71,-349"/>
<text text-anchor="middle" x="312.21" y="-337" font-family="Helvetica,sans-Serif" font-size="10.00">prog.h</text>
</a>
</g>
</g>
<!-- Node6&#45;&gt;Node7 -->
<g id="edge6_Node000006_Node000007" class="edge">
<title>Node6&#45;&gt;Node7</title>
<g id="a_edge6_Node000006_Node000007"><a xlink:title=" ">
<path fill="none" stroke="#63b8ff" d="M186.51,-386.13C210.48,-377.43 250.68,-362.83 279.16,-352.5"/>
<polygon fill="#63b8ff" stroke="#63b8ff" points="280.49,-355.74 288.7,-349.03 278.1,-349.16 280.49,-355.74"/>
</a>
</g>
</g>
<!-- Node15 -->
<g id="Node000015" class="node">
<title>Node15</title>
<g id="a_Node000015"><a xlink:href="vec_8h.html" target="_top" xlink:title="Vector math.">
<polygon fill="white" stroke="#666666" points="182.71,-19 139.71,-19 139.71,0 182.71,0 182.71,-19"/>
<text text-anchor="middle" x="161.21" y="-7" font-family="Helvetica,sans-Serif" font-size="10.00">vec.h</text>
</a>
</g>
</g>
<!-- Node6&#45;&gt;Node15 -->
<g id="edge36_Node000006_Node000015" class="edge">
<title>Node6&#45;&gt;Node15</title>
<g id="a_edge36_Node000006_Node000015"><a xlink:title=" ">
<path fill="none" stroke="#63b8ff" d="M167.45,-384.99C168.69,-376.05 170.5,-361.57 171.21,-349 171.68,-340.57 171.34,-338.44 171.21,-330 169.42,-215.7 164.03,-78.48 162,-29.23"/>
<polygon fill="#63b8ff" stroke="#63b8ff" points="165.49,-28.98 161.58,-19.14 158.5,-29.28 165.49,-28.98"/>
</a>
</g>
</g>
<!-- Node20 -->
<g id="Node000020" class="node">
<title>Node20</title>
<g id="a_Node000020"><a xlink:href="mat_8h.html" target="_top" xlink:title="3x3 and 4x4 matrix types.">
<polygon fill="white" stroke="#666666" points="113.71,-184 68.71,-184 68.71,-165 113.71,-165 113.71,-184"/>
<text text-anchor="middle" x="91.21" y="-172" font-family="Helvetica,sans-Serif" font-size="10.00">mat.h</text>
</a>
</g>
</g>
<!-- Node6&#45;&gt;Node20 -->
<g id="edge37_Node000006_Node000020" class="edge">
<title>Node6&#45;&gt;Node20</title>
<g id="a_edge37_Node000006_Node000020"><a xlink:title=" ">
<path fill="none" stroke="#63b8ff" d="M146.05,-390.69C108.09,-384.93 28.39,-370.52 12.21,-349 -26.83,-297.08 40.42,-222.79 73.93,-190.95"/>
<polygon fill="#63b8ff" stroke="#63b8ff" points="76.32,-193.51 81.27,-184.14 71.56,-188.38 76.32,-193.51"/>
</a>
</g>
</g>
<!-- Node28 -->
<g id="Node000028" class="node">
<title>Node28</title>
<g id="a_Node000028"><a xlink:href="clock_8h.html" target="_top" xlink:title="Engine clock.">
<polygon fill="white" stroke="#666666" points="270.71,-349 219.71,-349 219.71,-330 270.71,-330 270.71,-349"/>
<text text-anchor="middle" x="245.21" y="-337" font-family="Helvetica,sans-Serif" font-size="10.00">clock.h</text>
</a>
</g>
</g>
<!-- Node6&#45;&gt;Node28 -->
<g id="edge35_Node000006_Node000028" class="edge">
<title>Node6&#45;&gt;Node28</title>
<g id="a_edge35_Node000006_Node000028"><a xlink:title=" ">
<path fill="none" stroke="#63b8ff" d="M178.9,-384.98C191.04,-376.84 209.56,-364.41 223.95,-354.76"/>
<polygon fill="#63b8ff" stroke="#63b8ff" points="225.93,-357.65 232.28,-349.17 222.03,-351.84 225.93,-357.65"/>
</a>
</g>
</g>
<!-- Node6&#45;&gt;Node29 -->
<g id="edge38_Node000006_Node000029" class="edge">
<title>Node6&#45;&gt;Node29</title>
<g id="a_edge38_Node000006_Node000029"><a xlink:title=" ">
<path fill="none" stroke="#63b8ff" d="M151.28,-384.74C139.09,-376.85 122.29,-364.18 112.21,-349 103.26,-335.52 98.41,-317.69 95.85,-304.35"/>
<polygon fill="#63b8ff" stroke="#63b8ff" points="99.29,-303.7 94.21,-294.4 92.39,-304.84 99.29,-303.7"/>
</a>
</g>
</g>
<!-- Node30 -->
<g id="Node000030" class="node">
<title>Node30</title>
<g id="a_Node000030"><a xlink:href="cat_8h.html" target="_top" xlink:title="WAL catalog.">
<polygon fill="white" stroke="#666666" points="162.71,-349 121.71,-349 121.71,-330 162.71,-330 162.71,-349"/>
<text text-anchor="middle" x="142.21" y="-337" font-family="Helvetica,sans-Serif" font-size="10.00">cat.h</text>
</a>
</g>
</g>
<!-- Node6&#45;&gt;Node30 -->
<g id="edge41_Node000006_Node000030" class="edge">
<title>Node6&#45;&gt;Node30</title>
<g id="a_edge41_Node000006_Node000030"><a xlink:title=" ">
<path fill="none" stroke="#63b8ff" d="M162.24,-384.75C158.99,-377.57 154.29,-367.18 150.25,-358.27"/>
<polygon fill="#63b8ff" stroke="#63b8ff" points="153.41,-356.75 146.1,-349.09 147.03,-359.64 153.41,-356.75"/>
</a>
</g>
</g>
<!-- Node31 -->
<g id="Node000031" class="node">
<title>Node31</title>
<g id="a_Node000031"><a xlink:href="bsp_8h.html" target="_top" xlink:title="Binary Space Partitioning.">
<polygon fill="white" stroke="#666666" points="64.71,-349 21.71,-349 21.71,-330 64.71,-330 64.71,-349"/>
<text text-anchor="middle" x="43.21" y="-337" font-family="Helvetica,sans-Serif" font-size="10.00">bsp.h</text>
</a>
</g>
</g>
<!-- Node6&#45;&gt;Node31 -->
<g id="edge42_Node000006_Node000031" class="edge">
<title>Node6&#45;&gt;Node31</title>
<g id="a_edge42_Node000006_Node000031"><a xlink:title=" ">
<path fill="none" stroke="#63b8ff" d="M146.44,-384.98C126.48,-376.38 95.4,-362.99 72.56,-353.15"/>
<polygon fill="#63b8ff" stroke="#63b8ff" points="73.9,-349.91 63.33,-349.17 71.13,-356.34 73.9,-349.91"/>
</a>
</g>
</g>
<!-- Node8 -->
<g id="Node000008" class="node">
<title>Node8</title>
<g id="a_Node000008"><a xlink:href="binoc_8h.html" target="_top" xlink:title="Binoc&#45;u&#45;com.">
<polygon fill="white" stroke="#666666" points="338.21,-294 286.21,-294 286.21,-275 338.21,-275 338.21,-294"/>
<text text-anchor="middle" x="312.21" y="-282" font-family="Helvetica,sans-Serif" font-size="10.00">binoc.h</text>
</a>
</g>
</g>
<!-- Node7&#45;&gt;Node8 -->
<g id="edge7_Node000007_Node000008" class="edge">
<title>Node7&#45;&gt;Node8</title>
<g id="a_edge7_Node000007_Node000008"><a xlink:title=" ">
<path fill="none" stroke="#63b8ff" d="M312.21,-329.75C312.21,-322.8 312.21,-312.85 312.21,-304.13"/>
<polygon fill="#63b8ff" stroke="#63b8ff" points="315.71,-304.09 312.21,-294.09 308.71,-304.09 315.71,-304.09"/>
</a>
</g>
</g>
<!-- Node9 -->
<g id="Node000009" class="node">
<title>Node9</title>
<g id="a_Node000009"><a xlink:href="screen_8h.html" target="_top" xlink:title="GUI elements.">
<polygon fill="white" stroke="#666666" points="577.21,-239 519.21,-239 519.21,-220 577.21,-220 577.21,-239"/>
<text text-anchor="middle" x="548.21" y="-227" font-family="Helvetica,sans-Serif" font-size="10.00">screen.h</text>
</a>
</g>
</g>
<!-- Node8&#45;&gt;Node9 -->
<g id="edge8_Node000008_Node000009" class="edge">
<title>Node8&#45;&gt;Node9</title>
<g id="a_edge8_Node000008_Node000009"><a xlink:title=" ">
<path fill="none" stroke="#63b8ff" d="M338.36,-277.63C379.82,-268.32 460.85,-250.12 509.19,-239.26"/>
<polygon fill="#63b8ff" stroke="#63b8ff" points="509.99,-242.67 518.98,-237.06 508.46,-235.84 509.99,-242.67"/>
</a>
</g>
</g>
<!-- Node19 -->
<g id="Node000019" class="node">
<title>Node19</title>
<g id="a_Node000019"><a xlink:href="util_8h.html" target="_top" xlink:title="Utility functions.">
<polygon fill="white" stroke="#666666" points="293.71,-239 252.71,-239 252.71,-220 293.71,-220 293.71,-239"/>
<text text-anchor="middle" x="273.21" y="-227" font-family="Helvetica,sans-Serif" font-size="10.00">util.h</text>
</a>
</g>
</g>
<!-- Node8&#45;&gt;Node19 -->
<g id="edge20_Node000008_Node000019" class="edge">
<title>Node8&#45;&gt;Node19</title>
<g id="a_edge20_Node000008_Node000019"><a xlink:title=" ">
<path fill="none" stroke="#63b8ff" d="M305.77,-274.75C300.31,-267.34 292.34,-256.5 285.65,-247.41"/>
<polygon fill="#63b8ff" stroke="#63b8ff" points="288.27,-245.07 279.53,-239.09 282.64,-249.22 288.27,-245.07"/>
</a>
</g>
</g>
<!-- Node10 -->
<g id="Node000010" class="node">
<title>Node10</title>
<g id="a_Node000010"><a xlink:href="font_8h.html" target="_top" xlink:title="Font system.">
<polygon fill="white" stroke="#666666" points="692.71,-184 647.71,-184 647.71,-165 692.71,-165 692.71,-184"/>
<text text-anchor="middle" x="670.21" y="-172" font-family="Helvetica,sans-Serif" font-size="10.00">font.h</text>
</a>
</g>
</g>
<!-- Node9&#45;&gt;Node10 -->
<g id="edge9_Node000009_Node000010" class="edge">
<title>Node9&#45;&gt;Node10</title>
<g id="a_edge9_Node000009_Node000010"><a xlink:title=" ">
<path fill="none" stroke="#63b8ff" d="M567.81,-219.98C587.52,-211.42 618.16,-198.11 640.79,-188.28"/>
<polygon fill="#63b8ff" stroke="#63b8ff" points="642.47,-191.37 650.25,-184.17 639.68,-184.94 642.47,-191.37"/>
</a>
</g>
</g>
<!-- Node16 -->
<g id="Node000016" class="node">
<title>Node16</title>
<g id="a_Node000016"><a xlink:href="game_8h.html" target="_top" xlink:title="Game state and level management.">
<polygon fill="white" stroke="#666666" points="574.71,-184 521.71,-184 521.71,-165 574.71,-165 574.71,-184"/>
<text text-anchor="middle" x="548.21" y="-172" font-family="Helvetica,sans-Serif" font-size="10.00">game.h</text>
</a>
</g>
</g>
<!-- Node9&#45;&gt;Node16 -->
<g id="edge17_Node000009_Node000016" class="edge">
<title>Node9&#45;&gt;Node16</title>
<g id="a_edge17_Node000009_Node000016"><a xlink:title=" ">
<path fill="none" stroke="#63b8ff" d="M548.21,-219.75C548.21,-212.8 548.21,-202.85 548.21,-194.13"/>
<polygon fill="#63b8ff" stroke="#63b8ff" points="551.71,-194.09 548.21,-184.09 544.71,-194.09 551.71,-194.09"/>
</a>
</g>
</g>
<!-- Node10&#45;&gt;Node3 -->
<g id="edge16_Node000010_Node000003" class="edge">
<title>Node10&#45;&gt;Node3</title>
<g id="a_edge16_Node000010_Node000003"><a xlink:title=" ">
<path fill="none" stroke="#63b8ff" d="M692.86,-166.35C720.7,-157.57 768.31,-142.55 801.42,-132.1"/>
<polygon fill="#63b8ff" stroke="#63b8ff" points="802.71,-135.37 811.2,-129.02 800.61,-128.69 802.71,-135.37"/>
</a>
</g>
</g>
<!-- Node10&#45;&gt;Node11 -->
<g id="edge10_Node000010_Node000011" class="edge">
<title>Node10&#45;&gt;Node11</title>
<g id="a_edge10_Node000010_Node000011"><a xlink:title=" ">
<path fill="none" stroke="#63b8ff" d="M676.65,-164.75C682.1,-157.34 690.07,-146.5 696.76,-137.41"/>
<polygon fill="#63b8ff" stroke="#63b8ff" points="699.78,-139.22 702.89,-129.09 694.14,-135.07 699.78,-139.22"/>
</a>
</g>
</g>
<!-- Node10&#45;&gt;Node12 -->
<g id="edge15_Node000010_Node000012" class="edge">
<title>Node10&#45;&gt;Node12</title>
<g id="a_edge15_Node000010_Node000012"><a xlink:title=" ">
<path fill="none" stroke="#63b8ff" d="M670.81,-164.79C671.77,-152.47 673.99,-129.32 678.21,-110 680.11,-101.3 682.96,-91.86 685.6,-83.92"/>
<polygon fill="#63b8ff" stroke="#63b8ff" points="688.98,-84.83 688.94,-74.24 682.37,-82.55 688.98,-84.83"/>
</a>
</g>
</g>
<!-- Node11&#45;&gt;Node12 -->
<g id="edge11_Node000011_Node000012" class="edge">
<title>Node11&#45;&gt;Node12</title>
<g id="a_edge11_Node000011_Node000012"><a xlink:title=" ">
<path fill="none" stroke="#63b8ff" d="M706.4,-109.75C704.15,-102.72 700.91,-92.62 698.09,-83.84"/>
<polygon fill="#63b8ff" stroke="#63b8ff" points="701.35,-82.54 694.96,-74.09 694.68,-84.68 701.35,-82.54"/>
</a>
</g>
</g>
<!-- Node13 -->
<g id="Node000013" class="node">
<title>Node13</title>
<g id="a_Node000013"><a xlink:href="libdma_8h.html" target="_top" xlink:title="Direct memory access library.">
<polygon fill="white" stroke="#666666" points="819.71,-19 740.71,-19 740.71,0 819.71,0 819.71,-19"/>
<text text-anchor="middle" x="780.21" y="-7" font-family="Helvetica,sans-Serif" font-size="10.00">sce/libdma.h</text>
</a>
</g>
</g>
<!-- Node12&#45;&gt;Node13 -->
<g id="edge12_Node000012_Node000013" class="edge">
<title>Node12&#45;&gt;Node13</title>
<g id="a_edge12_Node000012_Node000013"><a xlink:title=" ">
<path fill="none" stroke="#63b8ff" d="M706.35,-54.98C719.99,-46.77 740.89,-34.18 756.98,-24.49"/>
<polygon fill="#63b8ff" stroke="#63b8ff" points="759.05,-27.33 765.81,-19.17 755.44,-21.33 759.05,-27.33"/>
</a>
</g>
</g>
<!-- Node14 -->
<g id="Node000014" class="node">
<title>Node14</title>
<g id="a_Node000014"><a xlink:href="eekernel_8h.html" target="_top" xlink:title=" ">
<polygon fill="white" stroke="#666666" points="722.71,-19 619.71,-19 619.71,0 722.71,0 722.71,-19"/>
<text text-anchor="middle" x="671.21" y="-7" font-family="Helvetica,sans-Serif" font-size="10.00">sdk/ee/eekernel.h</text>
</a>
</g>
</g>
<!-- Node12&#45;&gt;Node14 -->
<g id="edge13_Node000012_Node000014" class="edge">
<title>Node12&#45;&gt;Node14</title>
<g id="a_edge13_Node000012_Node000014"><a xlink:title=" ">
<path fill="none" stroke="#63b8ff" d="M688.74,-54.75C685.93,-47.65 681.87,-37.4 678.36,-28.56"/>
<polygon fill="#63b8ff" stroke="#63b8ff" points="681.55,-27.1 674.61,-19.09 675.04,-29.68 681.55,-27.1"/>
</a>
</g>
</g>
<!-- Node12&#45;&gt;Node15 -->
<g id="edge14_Node000012_Node000015" class="edge">
<title>Node12&#45;&gt;Node15</title>
<g id="a_edge14_Node000012_Node000015"><a xlink:title=" ">
<path fill="none" stroke="#63b8ff" d="M665.51,-60.84C576.32,-51.93 288.87,-23.24 192.81,-13.65"/>
<polygon fill="#63b8ff" stroke="#63b8ff" points="193.13,-10.17 182.83,-12.66 192.43,-17.13 193.13,-10.17"/>
</a>
</g>
</g>
<!-- Node16&#45;&gt;Node17 -->
<g id="edge18_Node000016_Node000017" class="edge">
<title>Node16&#45;&gt;Node17</title>
<g id="a_edge18_Node000016_Node000017"><a xlink:title=" ">
<path fill="none" stroke="#63b8ff" d="M551.99,-164.84C555.64,-156.02 560.93,-141.84 563.21,-129 569.37,-94.17 568.61,-52.69 567.45,-29.2"/>
<polygon fill="#63b8ff" stroke="#63b8ff" points="570.94,-28.99 566.87,-19.21 563.95,-29.4 570.94,-28.99"/>
</a>
</g>
</g>
<!-- Node18 -->
<g id="Node000018" class="node">
<title>Node18</title>
<g id="a_Node000018"><a xlink:href="cid_8h.html" target="_top" xlink:title="Class IDs.">
<polygon fill="white" stroke="#666666" points="554.21,-129 514.21,-129 514.21,-110 554.21,-110 554.21,-129"/>
<text text-anchor="middle" x="534.21" y="-117" font-family="Helvetica,sans-Serif" font-size="10.00">cid.h</text>
</a>
</g>
</g>
<!-- Node16&#45;&gt;Node18 -->
<g id="edge19_Node000016_Node000018" class="edge">
<title>Node16&#45;&gt;Node18</title>
<g id="a_edge19_Node000016_Node000018"><a xlink:title=" ">
<path fill="none" stroke="#63b8ff" d="M545.9,-164.75C544.04,-157.72 541.37,-147.62 539.05,-138.84"/>
<polygon fill="#63b8ff" stroke="#63b8ff" points="542.41,-137.86 536.48,-129.09 535.65,-139.65 542.41,-137.86"/>
</a>
</g>
</g>
<!-- Node19&#45;&gt;Node15 -->
<g id="edge21_Node000019_Node000015" class="edge">
<title>Node19&#45;&gt;Node15</title>
<g id="a_edge21_Node000019_Node000015"><a xlink:title=" ">
<path fill="none" stroke="#63b8ff" d="M270.03,-219.88C260.34,-194.01 229.67,-115.16 194.21,-55 188.54,-45.39 181.23,-35.35 174.93,-27.24"/>
<polygon fill="#63b8ff" stroke="#63b8ff" points="177.59,-24.96 168.62,-19.32 172.11,-29.32 177.59,-24.96"/>
</a>
</g>
</g>
<!-- Node19&#45;&gt;Node20 -->
<g id="edge22_Node000019_Node000020" class="edge">
<title>Node19&#45;&gt;Node20</title>
<g id="a_edge22_Node000019_Node000020"><a xlink:title=" ">
<path fill="none" stroke="#63b8ff" d="M252.68,-222.52C221.33,-213.39 161.21,-195.88 123.83,-185"/>
<polygon fill="#63b8ff" stroke="#63b8ff" points="124.51,-181.55 113.93,-182.12 122.55,-188.27 124.51,-181.55"/>
</a>
</g>
</g>
<!-- Node21 -->
<g id="Node000021" class="node">
<title>Node21</title>
<g id="a_Node000021"><a xlink:href="sm_8h.html" target="_top" xlink:title="Probabilistic finite state machines.">
<polygon fill="white" stroke="#666666" points="394.71,-184 353.71,-184 353.71,-165 394.71,-165 394.71,-184"/>
<text text-anchor="middle" x="374.21" y="-172" font-family="Helvetica,sans-Serif" font-size="10.00">sm.h</text>
</a>
</g>
</g>
<!-- Node19&#45;&gt;Node21 -->
<g id="edge24_Node000019_Node000021" class="edge">
<title>Node19&#45;&gt;Node21</title>
<g id="a_edge24_Node000019_Node000021"><a xlink:title=" ">
<path fill="none" stroke="#63b8ff" d="M289.43,-219.98C305.39,-211.61 329.99,-198.7 348.58,-188.95"/>
<polygon fill="#63b8ff" stroke="#63b8ff" points="350.46,-191.92 357.68,-184.17 347.2,-185.72 350.46,-191.92"/>
</a>
</g>
</g>
<!-- Node20&#45;&gt;Node15 -->
<g id="edge23_Node000020_Node000015" class="edge">
<title>Node20&#45;&gt;Node15</title>
<g id="a_edge23_Node000020_Node000015"><a xlink:title=" ">
<path fill="none" stroke="#63b8ff" d="M92.88,-164.79C96.96,-144.64 108.57,-93.62 128.21,-55 133.26,-45.05 140.52,-34.98 146.94,-26.94"/>
<polygon fill="#63b8ff" stroke="#63b8ff" points="149.74,-29.05 153.43,-19.12 144.35,-24.58 149.74,-29.05"/>
</a>
</g>
</g>
<!-- Node22 -->
<g id="Node000022" class="node">
<title>Node22</title>
<g id="a_Node000022"><a xlink:href="dl_8h.html" target="_top" xlink:title="Doubly&#45;linked list.">
<polygon fill="white" stroke="#666666" points="553.71,-74 518.71,-74 518.71,-55 553.71,-55 553.71,-74"/>
<text text-anchor="middle" x="536.21" y="-62" font-family="Helvetica,sans-Serif" font-size="10.00">dl.h</text>
</a>
</g>
</g>
<!-- Node21&#45;&gt;Node22 -->
<g id="edge25_Node000021_Node000022" class="edge">
<title>Node21&#45;&gt;Node22</title>
<g id="a_edge25_Node000021_Node000022"><a xlink:title=" ">
<path fill="none" stroke="#63b8ff" d="M387.76,-164.91C401.72,-156.02 424.09,-141.69 443.21,-129 468.26,-112.37 496.79,-92.8 515.56,-79.82"/>
<polygon fill="#63b8ff" stroke="#63b8ff" points="517.71,-82.6 523.94,-74.03 513.73,-76.84 517.71,-82.6"/>
</a>
</g>
</g>
<!-- Node23 -->
<g id="Node000023" class="node">
<title>Node23</title>
<g id="a_Node000023"><a xlink:href="mq_8h.html" target="_top" xlink:title="Message queue.">
<polygon fill="white" stroke="#666666" points="287.71,-74 246.71,-74 246.71,-55 287.71,-55 287.71,-74"/>
<text text-anchor="middle" x="267.21" y="-62" font-family="Helvetica,sans-Serif" font-size="10.00">mq.h</text>
</a>
</g>
</g>
<!-- Node21&#45;&gt;Node23 -->
<g id="edge27_Node000021_Node000023" class="edge">
<title>Node21&#45;&gt;Node23</title>
<g id="a_edge27_Node000021_Node000023"><a xlink:title=" ">
<path fill="none" stroke="#63b8ff" d="M365.45,-164.66C347.41,-146.46 305.89,-104.55 283.03,-81.47"/>
<polygon fill="#63b8ff" stroke="#63b8ff" points="285.31,-78.8 275.79,-74.16 280.34,-83.73 285.31,-78.8"/>
</a>
</g>
</g>
<!-- Node24 -->
<g id="Node000024" class="node">
<title>Node24</title>
<g id="a_Node000024"><a xlink:href="lo_8h.html" target="_top" xlink:title="Level objects.">
<polygon fill="white" stroke="#666666" points="434.71,-129 399.71,-129 399.71,-110 434.71,-110 434.71,-129"/>
<text text-anchor="middle" x="417.21" y="-117" font-family="Helvetica,sans-Serif" font-size="10.00">lo.h</text>
</a>
</g>
</g>
<!-- Node21&#45;&gt;Node24 -->
<g id="edge28_Node000021_Node000024" class="edge">
<title>Node21&#45;&gt;Node24</title>
<g id="a_edge28_Node000021_Node000024"><a xlink:title=" ">
<path fill="none" stroke="#63b8ff" d="M381.31,-164.75C387.38,-157.26 396.29,-146.28 403.72,-137.13"/>
<polygon fill="#63b8ff" stroke="#63b8ff" points="406.66,-139.06 410.24,-129.09 401.22,-134.65 406.66,-139.06"/>
</a>
</g>
</g>
<!-- Node22&#45;&gt;Node17 -->
<g id="edge26_Node000022_Node000017" class="edge">
<title>Node22&#45;&gt;Node17</title>
<g id="a_edge26_Node000022_Node000017"><a xlink:title=" ">
<path fill="none" stroke="#63b8ff" d="M541.16,-54.75C545.27,-47.49 551.23,-36.95 556.31,-27.98"/>
<polygon fill="#63b8ff" stroke="#63b8ff" points="559.47,-29.52 561.35,-19.09 553.37,-26.07 559.47,-29.52"/>
</a>
</g>
</g>
<!-- Node24&#45;&gt;Node17 -->
<g id="edge31_Node000024_Node000017" class="edge">
<title>Node24&#45;&gt;Node17</title>
<g id="a_edge31_Node000024_Node000017"><a xlink:title=" ">
<path fill="none" stroke="#63b8ff" d="M429.15,-109.84C454.54,-91.44 514.15,-48.23 545.73,-25.34"/>
<polygon fill="#63b8ff" stroke="#63b8ff" points="548.17,-27.9 554.21,-19.2 544.06,-22.23 548.17,-27.9"/>
</a>
</g>
</g>
<!-- Node24&#45;&gt;Node22 -->
<g id="edge29_Node000024_Node000022" class="edge">
<title>Node24&#45;&gt;Node22</title>
<g id="a_edge29_Node000024_Node000022"><a xlink:title=" ">
<path fill="none" stroke="#63b8ff" d="M434.77,-110.68C454.45,-101.91 486.6,-87.59 509.43,-77.43"/>
<polygon fill="#63b8ff" stroke="#63b8ff" points="510.87,-80.62 518.58,-73.35 508.02,-74.22 510.87,-80.62"/>
</a>
</g>
</g>
<!-- Node24&#45;&gt;Node23 -->
<g id="edge30_Node000024_Node000023" class="edge">
<title>Node24&#45;&gt;Node23</title>
<g id="a_edge30_Node000024_Node000023"><a xlink:title=" ">
<path fill="none" stroke="#63b8ff" d="M399.71,-112.32C374.71,-103.48 328.42,-87.13 297.71,-76.28"/>
<polygon fill="#63b8ff" stroke="#63b8ff" points="298.55,-72.86 287.95,-72.83 296.21,-79.46 298.55,-72.86"/>
</a>
</g>
</g>
<!-- Node25 -->
<g id="Node000025" class="node">
<title>Node25</title>
<g id="a_Node000025"><a xlink:href="basic_8h.html" target="_top" xlink:title="Basic object.">
<polygon fill="white" stroke="#666666" points="461.71,-74 410.71,-74 410.71,-55 461.71,-55 461.71,-74"/>
<text text-anchor="middle" x="436.21" y="-62" font-family="Helvetica,sans-Serif" font-size="10.00">basic.h</text>
</a>
</g>
</g>
<!-- Node24&#45;&gt;Node25 -->
<g id="edge32_Node000024_Node000025" class="edge">
<title>Node24&#45;&gt;Node25</title>
<g id="a_edge32_Node000024_Node000025"><a xlink:title=" ">
<path fill="none" stroke="#63b8ff" d="M420.34,-109.75C422.89,-102.65 426.56,-92.4 429.73,-83.56"/>
<polygon fill="#63b8ff" stroke="#63b8ff" points="433.05,-84.68 433.13,-74.09 426.46,-82.32 433.05,-84.68"/>
</a>
</g>
</g>
<!-- Node27 -->
<g id="Node000027" class="node">
<title>Node27</title>
<g id="a_Node000027"><a xlink:href="frame_8h.html" target="_top" xlink:title=" ">
<polygon fill="white" stroke="#666666" points="392.21,-74 306.21,-74 306.21,-55 392.21,-55 392.21,-74"/>
<text text-anchor="middle" x="349.21" y="-62" font-family="Helvetica,sans-Serif" font-size="10.00">splice/frame.h</text>
</a>
</g>
</g>
<!-- Node24&#45;&gt;Node27 -->
<g id="edge34_Node000024_Node000027" class="edge">
<title>Node24&#45;&gt;Node27</title>
<g id="a_edge34_Node000024_Node000027"><a xlink:title=" ">
<path fill="none" stroke="#63b8ff" d="M406.28,-109.98C396.13,-102.07 380.78,-90.11 368.56,-80.58"/>
<polygon fill="#63b8ff" stroke="#63b8ff" points="370.37,-77.56 360.33,-74.17 366.07,-83.08 370.37,-77.56"/>
</a>
</g>
</g>
<!-- Node26 -->
<g id="Node000026" class="node">
<title>Node26</title>
<g id="a_Node000026"><a xlink:href="sidebag_8h.html" target="_top" xlink:title="Sidebag for splice.">
<polygon fill="white" stroke="#666666" points="483.71,-19 388.71,-19 388.71,0 483.71,0 483.71,-19"/>
<text text-anchor="middle" x="436.21" y="-7" font-family="Helvetica,sans-Serif" font-size="10.00">splice/sidebag.h</text>
</a>
</g>
</g>
<!-- Node25&#45;&gt;Node26 -->
<g id="edge33_Node000025_Node000026" class="edge">
<title>Node25&#45;&gt;Node26</title>
<g id="a_edge33_Node000025_Node000026"><a xlink:title=" ">
<path fill="none" stroke="#63b8ff" d="M436.21,-54.75C436.21,-47.8 436.21,-37.85 436.21,-29.13"/>
<polygon fill="#63b8ff" stroke="#63b8ff" points="439.71,-29.09 436.21,-19.09 432.71,-29.09 439.71,-29.09"/>
</a>
</g>
</g>
<!-- Node29&#45;&gt;Node15 -->
<g id="edge39_Node000029_Node000015" class="edge">
<title>Node29&#45;&gt;Node15</title>
<g id="a_edge39_Node000029_Node000015"><a xlink:title=" ">
<path fill="none" stroke="#63b8ff" d="M100.23,-274.87C113.78,-257.3 142.21,-215.65 142.21,-175.5 142.21,-175.5 142.21,-175.5 142.21,-118.5 142.21,-86.56 150.37,-50.1 155.99,-28.77"/>
<polygon fill="#63b8ff" stroke="#63b8ff" points="159.38,-29.66 158.64,-19.09 152.62,-27.81 159.38,-29.66"/>
</a>
</g>
</g>
<!-- Node29&#45;&gt;Node20 -->
<g id="edge40_Node000029_Node000020" class="edge">
<title>Node29&#45;&gt;Node20</title>
<g id="a_edge40_Node000029_Node000020"><a xlink:title=" ">
<path fill="none" stroke="#63b8ff" d="M93.04,-274.66C92.72,-257.17 91.99,-217.8 91.55,-194.27"/>
<polygon fill="#63b8ff" stroke="#63b8ff" points="95.05,-194.09 91.37,-184.16 88.05,-194.22 95.05,-194.09"/>
</a>
</g>
</g>
<!-- Node31&#45;&gt;Node15 -->
<g id="edge44_Node000031_Node000015" class="edge">
<title>Node31&#45;&gt;Node15</title>
<g id="a_edge44_Node000031_Node000015"><a xlink:title=" ">
<path fill="none" stroke="#63b8ff" d="M42.53,-329.83C41.17,-311.5 38.21,-267.48 38.21,-230.5 38.21,-230.5 38.21,-230.5 38.21,-118.5 38.21,-69.59 93.81,-37.63 130.24,-21.93"/>
<polygon fill="#63b8ff" stroke="#63b8ff" points="131.59,-25.16 139.5,-18.11 128.92,-18.69 131.59,-25.16"/>
</a>
</g>
</g>
<!-- Node31&#45;&gt;Node29 -->
<g id="edge43_Node000031_Node000029" class="edge">
<title>Node31&#45;&gt;Node29</title>
<g id="a_edge43_Node000031_Node000029"><a xlink:title=" ">
<path fill="none" stroke="#63b8ff" d="M51.46,-329.75C58.67,-322.11 69.32,-310.82 78.05,-301.56"/>
<polygon fill="#63b8ff" stroke="#63b8ff" points="80.79,-303.76 85.1,-294.09 75.7,-298.96 80.79,-303.76"/>
</a>
</g>
</g>
<!-- Node32&#45;&gt;Node2 -->
<g id="edge50_Node000032_Node000002" class="edge">
<title>Node32&#45;&gt;Node2</title>
<g id="a_edge50_Node000032_Node000002"><a xlink:title=" ">
<path fill="none" stroke="#63b8ff" d="M760.45,-494.75C753.74,-487.18 743.87,-476.05 735.7,-466.84"/>
<polygon fill="#63b8ff" stroke="#63b8ff" points="738.08,-464.25 728.82,-459.09 732.84,-468.89 738.08,-464.25"/>
</a>
</g>
</g>
<!-- Node32&#45;&gt;Node13 -->
<g id="edge51_Node000032_Node000013" class="edge">
<title>Node32&#45;&gt;Node13</title>
<g id="a_edge51_Node000032_Node000013"><a xlink:title=" ">
<path fill="none" stroke="#63b8ff" d="M786.78,-499.35C826.72,-489.22 917.21,-459.24 917.21,-395.5 917.21,-395.5 917.21,-395.5 917.21,-118.5 917.21,-86.9 908.28,-76.6 885.21,-55 868.81,-39.65 846.33,-29.17 826.37,-22.25"/>
<polygon fill="#63b8ff" stroke="#63b8ff" points="827.41,-18.91 816.82,-19.14 825.24,-25.56 827.41,-18.91"/>
</a>
</g>
</g>
</g>
</svg>

<g id="navigator" transform="translate(0 0)" fill="#404254">
  <rect fill="#f2f5e9" fill-opacity="0.5" stroke="#606060" stroke-width=".5" x="0" y="0" width="60" height="60"/>
  <use id="zoomplus" xlink:href="#zoomPlus" x="17" y="9" onmousedown="handleZoom(evt,'in')"/>
  <use id="zoomminus" xlink:href="#zoomMin" x="42" y="9" onmousedown="handleZoom(evt,'out')"/>
  <use id="reset" xlink:href="#resetDef" x="30" y="36" onmousedown="handleReset()"/>
   <use id="arrowup" xlink:href="#arrowUp" x="0" y="0" onmousedown="handlePan(0,-1)"/>
  <use id="arrowright" xlink:href="#arrowRight" x="0" y="0" onmousedown="handlePan(1,0)"/>
  <use id="arrowdown" xlink:href="#arrowDown" x="0" y="0" onmousedown="handlePan(0,1)"/>
  <use id="arrowleft" xlink:href="#arrowLeft" x="0" y="0" onmousedown="handlePan(-1,0)"/>
</g>
<svg viewBox="0 0 15 15" width="100%" height="30px" preserveAspectRatio="xMaxYMin meet">
 <g id="arrow_out" transform="scale(0.3 0.3)">
  <a xlink:href="shd_8c__incl_org.svg" target="_base">
   <rect id="button" ry="5" rx="5" y="6" x="6" height="38" width="38"
        fill="#f2f5e9" fill-opacity="0.5" stroke="#606060" stroke-width="1.0"/>
   <path id="arrow"
     d="M 11.500037,31.436501 C 11.940474,20.09759 22.043105,11.32322 32.158766,21.979434 L 37.068811,17.246167 C 37.068811,17.246167 37.088388,32 37.088388,32 L 22.160133,31.978069 C 22.160133,31.978069 26.997745,27.140456 26.997745,27.140456 C 18.528582,18.264221 13.291696,25.230495 11.500037,31.436501 z"
     style="fill:#404040;"/>
  </a>
 </g>
</svg>

<style type='text/css'>
<![CDATA[
[data-mouse-over-selected='false'] { opacity: 0.7; }
[data-mouse-over-selected='true']  { opacity: 1.0; }
]]>
</style>
<script type="application/ecmascript"><![CDATA[
document.addEventListener('DOMContentLoaded', (event) => {
  highlightEdges();
  highlightAdjacentNodes();
});
]]></script>
</svg>
