<?xml version="1.0" encoding="UTF-8" standalone="no"?>
<!DOCTYPE svg PUBLIC "-//W3C//DTD SVG 1.1//EN"
 "http://www.w3.org/Graphics/SVG/1.1/DTD/svg11.dtd">
<!-- Generated by graphviz version 2.43.0 (0)
 -->
<!-- Title: include/shdanim.h Pages: 1 -->
<!--zoomable 522 -->

<svg id="main" version="1.1" xmlns="http://www.w3.org/2000/svg" xmlns:xlink="http://www.w3.org/1999/xlink" xml:space="preserve" onload="init(evt)">
<style type="text/css"><![CDATA[
.node, .edge {opacity: 0.7;}
.node.selected, .edge.selected {opacity: 1;}
.edge:hover path { stroke: red; }
.edge:hover polygon { stroke: red; fill: red; }
]]></style>

<defs>
  <circle id="rim" cx="0" cy="0" r="7"/>
  <circle id="rim2" cx="0" cy="0" r="3.5"/>
  <g id="zoomPlus">
    <use xlink:href="#rim" fill="#404040"><set attributeName="fill" to="#808080" begin="zoomplus.mouseover" end="zoomplus.mouseout"/></use>
    <path d="M-4,0h8M0,-4v8" fill="none" stroke="white" stroke-width="1.5" pointer-events="none"/>
  </g>
  <g id="zoomMin">
    <use xlink:href="#rim" fill="#404040"><set attributeName="fill" to="#808080" begin="zoomminus.mouseover" end="zoomminus.mouseout"/></use>
    <path d="M-4,0h8" fill="none" stroke="white" stroke-width="1.5" pointer-events="none"/>
  </g>
  <g id="arrowUp" transform="translate(30 24)">
    <use xlink:href="#rim"/>
    <path pointer-events="none" fill="none" stroke="white" stroke-width="1.5" d="M0,-3.0v7 M-2.5,-0.5L0,-3.0L2.5,-0.5"/>
  </g>
  <g id="arrowRight" transform="rotate(90) translate(36 -43)">
    <use xlink:href="#rim"/>
    <path pointer-events="none" fill="none" stroke="white" stroke-width="1.5" d="M0,-3.0v7 M-2.5,-0.5L0,-3.0L2.5,-0.5"/>
  </g>
  <g id="arrowDown" transform="rotate(180) translate(-30 -48)">
    <use xlink:href="#rim"/>
    <path pointer-events="none" fill="none" stroke="white" stroke-width="1.5" d="M0,-3.0v7 M-2.5,-0.5L0,-3.0L2.5,-0.5"/>
  </g>
  <g id="arrowLeft" transform="rotate(270) translate(-36 17)">
    <use xlink:href="#rim"/>
    <path pointer-events="none" fill="none" stroke="white" stroke-width="1.5" d="M0,-3.0v7 M-2.5,-0.5L0,-3.0L2.5,-0.5"/>
  </g>
  <g id="resetDef">
    <use xlink:href="#rim2" fill="#404040"><set attributeName="fill" to="#808080" begin="reset.mouseover" end="reset.mouseout"/></use>
  </g>
</defs>
<script type="application/ecmascript">
var viewWidth = 1089;
var viewHeight = 522;
var sectionId = 'dynsection-0';
</script>
<script type="application/ecmascript" xlink:href="svg.min.js"/>
<svg id="graph" class="graph">
<g id="viewport">
<title>include/shdanim.h</title>
<!-- Node1 -->
<g id="Node000001" class="node">
<title>Node1</title>
<g id="a_Node000001"><a xlink:title="Shader animations.">
<polygon fill="#999999" stroke="#666666" points="715.5,-514 609.5,-514 609.5,-495 715.5,-495 715.5,-514"/>
<text text-anchor="middle" x="662.5" y="-502" font-family="Helvetica,sans-Serif" font-size="10.00">include/shdanim.h</text>
</a>
</g>
</g>
<!-- Node2 -->
<g id="Node000002" class="node">
<title>Node2</title>
<g id="a_Node000002"><a xlink:href="glob_8h.html" target="_top" xlink:title=" ">
<polygon fill="white" stroke="#666666" points="585,-459 538,-459 538,-440 585,-440 585,-459"/>
<text text-anchor="middle" x="561.5" y="-447" font-family="Helvetica,sans-Serif" font-size="10.00">glob.h</text>
</a>
</g>
</g>
<!-- Node1&#45;&gt;Node2 -->
<g id="edge1_Node000001_Node000002" class="edge">
<title>Node1&#45;&gt;Node2</title>
<g id="a_edge1_Node000001_Node000002"><a xlink:title=" ">
<path fill="none" stroke="#63b8ff" d="M646.27,-494.98C630.32,-486.61 605.72,-473.7 587.12,-463.95"/>
<polygon fill="#63b8ff" stroke="#63b8ff" points="588.5,-460.72 578.02,-459.17 585.25,-466.92 588.5,-460.72"/>
</a>
</g>
</g>
<!-- Node34 -->
<g id="Node000034" class="node">
<title>Node34</title>
<g id="a_Node000034"><a xlink:href="shd_8h.html" target="_top" xlink:title="Shaders.">
<polygon fill="white" stroke="#666666" points="888,-459 845,-459 845,-440 888,-440 888,-459"/>
<text text-anchor="middle" x="866.5" y="-447" font-family="Helvetica,sans-Serif" font-size="10.00">shd.h</text>
</a>
</g>
</g>
<!-- Node1&#45;&gt;Node34 -->
<g id="edge52_Node000001_Node000034" class="edge">
<title>Node1&#45;&gt;Node34</title>
<g id="a_edge52_Node000001_Node000034"><a xlink:title=" ">
<path fill="none" stroke="#63b8ff" d="M695.28,-494.98C733.68,-485.01 796.86,-468.59 834.79,-458.74"/>
<polygon fill="#63b8ff" stroke="#63b8ff" points="835.98,-462.04 844.78,-456.14 834.22,-455.27 835.98,-462.04"/>
</a>
</g>
</g>
<!-- Node3 -->
<g id="Node000003" class="node">
<title>Node3</title>
<g id="a_Node000003"><a xlink:href="bis_8h.html" target="_top" xlink:title="Binary Input Stream.">
<polygon fill="white" stroke="#666666" points="690.5,-404 650.5,-404 650.5,-385 690.5,-385 690.5,-404"/>
<text text-anchor="middle" x="670.5" y="-392" font-family="Helvetica,sans-Serif" font-size="10.00">bis.h</text>
</a>
</g>
</g>
<!-- Node2&#45;&gt;Node3 -->
<g id="edge2_Node000002_Node000003" class="edge">
<title>Node2&#45;&gt;Node3</title>
<g id="a_edge2_Node000002_Node000003"><a xlink:title=" ">
<path fill="none" stroke="#63b8ff" d="M579.01,-439.98C596.47,-431.5 623.51,-418.35 643.67,-408.54"/>
<polygon fill="#63b8ff" stroke="#63b8ff" points="645.21,-411.69 652.67,-404.17 642.14,-405.4 645.21,-411.69"/>
</a>
</g>
</g>
<!-- Node12 -->
<g id="Node000012" class="node">
<title>Node12</title>
<g id="a_Node000012"><a xlink:href="vec_8h.html" target="_top" xlink:title="Vector math.">
<polygon fill="white" stroke="#666666" points="704,-19 661,-19 661,0 704,0 704,-19"/>
<text text-anchor="middle" x="682.5" y="-7" font-family="Helvetica,sans-Serif" font-size="10.00">vec.h</text>
</a>
</g>
</g>
<!-- Node2&#45;&gt;Node12 -->
<g id="edge51_Node000002_Node000012" class="edge">
<title>Node2&#45;&gt;Node12</title>
<g id="a_edge51_Node000002_Node000012"><a xlink:title=" ">
<path fill="none" stroke="#63b8ff" d="M545.79,-439.73C515.17,-421.39 452.12,-376.78 471.5,-330 480.16,-309.09 491.76,-310.26 507.5,-294 554.07,-245.87 574.19,-240.28 610.5,-184 644.02,-132.05 667.38,-61.9 677.24,-28.99"/>
<polygon fill="#63b8ff" stroke="#63b8ff" points="680.62,-29.92 680.07,-19.34 673.9,-27.95 680.62,-29.92"/>
</a>
</g>
</g>
<!-- Node32 -->
<g id="Node000032" class="node">
<title>Node32</title>
<g id="a_Node000032"><a xlink:href="alo_8h.html" target="_top" xlink:title=" ">
<polygon fill="white" stroke="#666666" points="403,-349 362,-349 362,-330 403,-330 403,-349"/>
<text text-anchor="middle" x="382.5" y="-337" font-family="Helvetica,sans-Serif" font-size="10.00">alo.h</text>
</a>
</g>
</g>
<!-- Node2&#45;&gt;Node32 -->
<g id="edge44_Node000002_Node000032" class="edge">
<title>Node2&#45;&gt;Node32</title>
<g id="a_edge44_Node000002_Node000032"><a xlink:title=" ">
<path fill="none" stroke="#63b8ff" d="M537.91,-443.83C511.66,-437.8 468.82,-425.46 437.5,-404 419.34,-391.56 403.48,-371.71 393.51,-357.52"/>
<polygon fill="#63b8ff" stroke="#63b8ff" points="396.35,-355.47 387.85,-349.14 390.55,-359.39 396.35,-355.47"/>
</a>
</g>
</g>
<!-- Node4 -->
<g id="Node000004" class="node">
<title>Node4</title>
<g id="a_Node000004"><a xlink:href="prog_8h.html" target="_top" xlink:title="Progress bar.">
<polygon fill="white" stroke="#666666" points="694,-349 647,-349 647,-330 694,-330 694,-349"/>
<text text-anchor="middle" x="670.5" y="-337" font-family="Helvetica,sans-Serif" font-size="10.00">prog.h</text>
</a>
</g>
</g>
<!-- Node3&#45;&gt;Node4 -->
<g id="edge3_Node000003_Node000004" class="edge">
<title>Node3&#45;&gt;Node4</title>
<g id="a_edge3_Node000003_Node000004"><a xlink:title=" ">
<path fill="none" stroke="#63b8ff" d="M670.5,-384.75C670.5,-377.8 670.5,-367.85 670.5,-359.13"/>
<polygon fill="#63b8ff" stroke="#63b8ff" points="674,-359.09 670.5,-349.09 667,-359.09 674,-359.09"/>
</a>
</g>
</g>
<!-- Node3&#45;&gt;Node12 -->
<g id="edge35_Node000003_Node000012" class="edge">
<title>Node3&#45;&gt;Node12</title>
<g id="a_edge35_Node000003_Node000012"><a xlink:title=" ">
<path fill="none" stroke="#63b8ff" d="M690.66,-390.07C715.08,-384.99 756.23,-373.29 782.5,-349 802.49,-330.51 803.34,-320.53 809.5,-294 833.86,-189.09 839.47,-136.88 769.5,-55 754.93,-37.95 732.19,-26.64 713.62,-19.69"/>
<polygon fill="#63b8ff" stroke="#63b8ff" points="714.68,-16.35 704.08,-16.36 712.37,-22.96 714.68,-16.35"/>
</a>
</g>
</g>
<!-- Node20 -->
<g id="Node000020" class="node">
<title>Node20</title>
<g id="a_Node000020"><a xlink:href="mat_8h.html" target="_top" xlink:title="3x3 and 4x4 matrix types.">
<polygon fill="white" stroke="#666666" points="530,-184 485,-184 485,-165 530,-165 530,-184"/>
<text text-anchor="middle" x="507.5" y="-172" font-family="Helvetica,sans-Serif" font-size="10.00">mat.h</text>
</a>
</g>
</g>
<!-- Node3&#45;&gt;Node20 -->
<g id="edge36_Node000003_Node000020" class="edge">
<title>Node3&#45;&gt;Node20</title>
<g id="a_edge36_Node000003_Node000020"><a xlink:title=" ">
<path fill="none" stroke="#63b8ff" d="M650.22,-388.19C629.89,-381.91 598.9,-369.63 579.5,-349 568.2,-336.98 529.77,-235.53 514.16,-193.56"/>
<polygon fill="#63b8ff" stroke="#63b8ff" points="517.4,-192.21 510.64,-184.05 510.83,-194.65 517.4,-192.21"/>
</a>
</g>
</g>
<!-- Node28 -->
<g id="Node000028" class="node">
<title>Node28</title>
<g id="a_Node000028"><a xlink:href="clock_8h.html" target="_top" xlink:title="Engine clock.">
<polygon fill="white" stroke="#666666" points="531,-349 480,-349 480,-330 531,-330 531,-349"/>
<text text-anchor="middle" x="505.5" y="-337" font-family="Helvetica,sans-Serif" font-size="10.00">clock.h</text>
</a>
</g>
</g>
<!-- Node3&#45;&gt;Node28 -->
<g id="edge34_Node000003_Node000028" class="edge">
<title>Node3&#45;&gt;Node28</title>
<g id="a_edge34_Node000003_Node000028"><a xlink:title=" ">
<path fill="none" stroke="#63b8ff" d="M650.27,-387C623.05,-378.26 574.22,-362.57 540.86,-351.86"/>
<polygon fill="#63b8ff" stroke="#63b8ff" points="541.64,-348.43 531.04,-348.7 539.49,-355.1 541.64,-348.43"/>
</a>
</g>
</g>
<!-- Node29 -->
<g id="Node000029" class="node">
<title>Node29</title>
<g id="a_Node000029"><a xlink:href="geom_8h.html" target="_top" xlink:title="Geometry.">
<polygon fill="white" stroke="#666666" points="800,-294 747,-294 747,-275 800,-275 800,-294"/>
<text text-anchor="middle" x="773.5" y="-282" font-family="Helvetica,sans-Serif" font-size="10.00">geom.h</text>
</a>
</g>
</g>
<!-- Node3&#45;&gt;Node29 -->
<g id="edge37_Node000003_Node000029" class="edge">
<title>Node3&#45;&gt;Node29</title>
<g id="a_edge37_Node000003_Node000029"><a xlink:title=" ">
<path fill="none" stroke="#63b8ff" d="M690.6,-389.82C712.48,-384.68 746.73,-373.13 764.5,-349 773.89,-336.25 775.62,-318.08 775.31,-304.43"/>
<polygon fill="#63b8ff" stroke="#63b8ff" points="778.79,-304.03 774.69,-294.26 771.81,-304.45 778.79,-304.03"/>
</a>
</g>
</g>
<!-- Node30 -->
<g id="Node000030" class="node">
<title>Node30</title>
<g id="a_Node000030"><a xlink:href="cat_8h.html" target="_top" xlink:title="WAL catalog.">
<polygon fill="white" stroke="#666666" points="629,-349 588,-349 588,-330 629,-330 629,-349"/>
<text text-anchor="middle" x="608.5" y="-337" font-family="Helvetica,sans-Serif" font-size="10.00">cat.h</text>
</a>
</g>
</g>
<!-- Node3&#45;&gt;Node30 -->
<g id="edge40_Node000003_Node000030" class="edge">
<title>Node3&#45;&gt;Node30</title>
<g id="a_edge40_Node000003_Node000030"><a xlink:title=" ">
<path fill="none" stroke="#63b8ff" d="M660.54,-384.98C651.37,-377.15 637.56,-365.34 626.47,-355.86"/>
<polygon fill="#63b8ff" stroke="#63b8ff" points="628.52,-353.01 618.64,-349.17 623.97,-358.33 628.52,-353.01"/>
</a>
</g>
</g>
<!-- Node31 -->
<g id="Node000031" class="node">
<title>Node31</title>
<g id="a_Node000031"><a xlink:href="bsp_8h.html" target="_top" xlink:title="Binary Space Partitioning.">
<polygon fill="white" stroke="#666666" points="755,-349 712,-349 712,-330 755,-330 755,-349"/>
<text text-anchor="middle" x="733.5" y="-337" font-family="Helvetica,sans-Serif" font-size="10.00">bsp.h</text>
</a>
</g>
</g>
<!-- Node3&#45;&gt;Node31 -->
<g id="edge41_Node000003_Node000031" class="edge">
<title>Node3&#45;&gt;Node31</title>
<g id="a_edge41_Node000003_Node000031"><a xlink:title=" ">
<path fill="none" stroke="#63b8ff" d="M680.62,-384.98C689.94,-377.15 703.97,-365.34 715.24,-355.86"/>
<polygon fill="#63b8ff" stroke="#63b8ff" points="717.79,-358.29 723.19,-349.17 713.29,-352.93 717.79,-358.29"/>
</a>
</g>
</g>
<!-- Node5 -->
<g id="Node000005" class="node">
<title>Node5</title>
<g id="a_Node000005"><a xlink:href="binoc_8h.html" target="_top" xlink:title="Binoc&#45;u&#45;com.">
<polygon fill="white" stroke="#666666" points="690.5,-294 638.5,-294 638.5,-275 690.5,-275 690.5,-294"/>
<text text-anchor="middle" x="664.5" y="-282" font-family="Helvetica,sans-Serif" font-size="10.00">binoc.h</text>
</a>
</g>
</g>
<!-- Node4&#45;&gt;Node5 -->
<g id="edge4_Node000004_Node000005" class="edge">
<title>Node4&#45;&gt;Node5</title>
<g id="a_edge4_Node000004_Node000005"><a xlink:title=" ">
<path fill="none" stroke="#63b8ff" d="M669.51,-329.75C668.72,-322.8 667.6,-312.85 666.61,-304.13"/>
<polygon fill="#63b8ff" stroke="#63b8ff" points="670.08,-303.63 665.47,-294.09 663.12,-304.42 670.08,-303.63"/>
</a>
</g>
</g>
<!-- Node6 -->
<g id="Node000006" class="node">
<title>Node6</title>
<g id="a_Node000006"><a xlink:href="screen_8h.html" target="_top" xlink:title="GUI elements.">
<polygon fill="white" stroke="#666666" points="707.5,-239 649.5,-239 649.5,-220 707.5,-220 707.5,-239"/>
<text text-anchor="middle" x="678.5" y="-227" font-family="Helvetica,sans-Serif" font-size="10.00">screen.h</text>
</a>
</g>
</g>
<!-- Node5&#45;&gt;Node6 -->
<g id="edge5_Node000005_Node000006" class="edge">
<title>Node5&#45;&gt;Node6</title>
<g id="a_edge5_Node000005_Node000006"><a xlink:title=" ">
<path fill="none" stroke="#63b8ff" d="M666.81,-274.75C668.67,-267.72 671.34,-257.62 673.65,-248.84"/>
<polygon fill="#63b8ff" stroke="#63b8ff" points="677.06,-249.65 676.23,-239.09 670.29,-247.86 677.06,-249.65"/>
</a>
</g>
</g>
<!-- Node19 -->
<g id="Node000019" class="node">
<title>Node19</title>
<g id="a_Node000019"><a xlink:href="util_8h.html" target="_top" xlink:title="Utility functions.">
<polygon fill="white" stroke="#666666" points="477,-239 436,-239 436,-220 477,-220 477,-239"/>
<text text-anchor="middle" x="456.5" y="-227" font-family="Helvetica,sans-Serif" font-size="10.00">util.h</text>
</a>
</g>
</g>
<!-- Node5&#45;&gt;Node19 -->
<g id="edge19_Node000005_Node000019" class="edge">
<title>Node5&#45;&gt;Node19</title>
<g id="a_edge19_Node000005_Node000019"><a xlink:title=" ">
<path fill="none" stroke="#63b8ff" d="M638.16,-276.79C599.54,-266.95 527.74,-248.65 486.92,-238.25"/>
<polygon fill="#63b8ff" stroke="#63b8ff" points="487.57,-234.8 477.01,-235.73 485.84,-241.59 487.57,-234.8"/>
</a>
</g>
</g>
<!-- Node7 -->
<g id="Node000007" class="node">
<title>Node7</title>
<g id="a_Node000007"><a xlink:href="font_8h.html" target="_top" xlink:title="Font system.">
<polygon fill="white" stroke="#666666" points="885,-184 840,-184 840,-165 885,-165 885,-184"/>
<text text-anchor="middle" x="862.5" y="-172" font-family="Helvetica,sans-Serif" font-size="10.00">font.h</text>
</a>
</g>
</g>
<!-- Node6&#45;&gt;Node7 -->
<g id="edge6_Node000006_Node000007" class="edge">
<title>Node6&#45;&gt;Node7</title>
<g id="a_edge6_Node000006_Node000007"><a xlink:title=" ">
<path fill="none" stroke="#63b8ff" d="M707.66,-220.1C741.04,-210.49 795.58,-194.78 830.22,-184.8"/>
<polygon fill="#63b8ff" stroke="#63b8ff" points="831.22,-188.15 839.86,-182.02 829.28,-181.43 831.22,-188.15"/>
</a>
</g>
</g>
<!-- Node16 -->
<g id="Node000016" class="node">
<title>Node16</title>
<g id="a_Node000016"><a xlink:href="game_8h.html" target="_top" xlink:title="Game state and level management.">
<polygon fill="white" stroke="#666666" points="601,-184 548,-184 548,-165 601,-165 601,-184"/>
<text text-anchor="middle" x="574.5" y="-172" font-family="Helvetica,sans-Serif" font-size="10.00">game.h</text>
</a>
</g>
</g>
<!-- Node6&#45;&gt;Node16 -->
<g id="edge16_Node000006_Node000016" class="edge">
<title>Node6&#45;&gt;Node16</title>
<g id="a_edge16_Node000006_Node000016"><a xlink:title=" ">
<path fill="none" stroke="#63b8ff" d="M661.79,-219.98C645.29,-211.57 619.8,-198.59 600.62,-188.81"/>
<polygon fill="#63b8ff" stroke="#63b8ff" points="602.01,-185.59 591.51,-184.17 598.83,-191.83 602.01,-185.59"/>
</a>
</g>
</g>
<!-- Node8 -->
<g id="Node000008" class="node">
<title>Node8</title>
<g id="a_Node000008"><a xlink:href="gifs_8h.html" target="_top" xlink:title=" ">
<polygon fill="white" stroke="#666666" points="923.5,-129 879.5,-129 879.5,-110 923.5,-110 923.5,-129"/>
<text text-anchor="middle" x="901.5" y="-117" font-family="Helvetica,sans-Serif" font-size="10.00">gifs.h</text>
</a>
</g>
</g>
<!-- Node7&#45;&gt;Node8 -->
<g id="edge7_Node000007_Node000008" class="edge">
<title>Node7&#45;&gt;Node8</title>
<g id="a_edge7_Node000007_Node000008"><a xlink:title=" ">
<path fill="none" stroke="#63b8ff" d="M868.94,-164.75C874.39,-157.34 882.36,-146.5 889.06,-137.41"/>
<polygon fill="#63b8ff" stroke="#63b8ff" points="892.07,-139.22 895.18,-129.09 886.43,-135.07 892.07,-139.22"/>
</a>
</g>
</g>
<!-- Node9 -->
<g id="Node000009" class="node">
<title>Node9</title>
<g id="a_Node000009"><a xlink:href="dmas_8h.html" target="_top" xlink:title="Direct memory access.">
<polygon fill="white" stroke="#666666" points="911,-74 858,-74 858,-55 911,-55 911,-74"/>
<text text-anchor="middle" x="884.5" y="-62" font-family="Helvetica,sans-Serif" font-size="10.00">dmas.h</text>
</a>
</g>
</g>
<!-- Node7&#45;&gt;Node9 -->
<g id="edge12_Node000007_Node000009" class="edge">
<title>Node7&#45;&gt;Node9</title>
<g id="a_edge12_Node000007_Node000009"><a xlink:title=" ">
<path fill="none" stroke="#63b8ff" d="M863.1,-164.79C864.06,-152.47 866.28,-129.32 870.5,-110 872.4,-101.3 875.25,-91.86 877.89,-83.92"/>
<polygon fill="#63b8ff" stroke="#63b8ff" points="881.28,-84.83 881.24,-74.24 874.66,-82.55 881.28,-84.83"/>
</a>
</g>
</g>
<!-- Node13 -->
<g id="Node000013" class="node">
<title>Node13</title>
<g id="a_Node000013"><a xlink:href="eestruct_8h.html" target="_top" xlink:title="Graphics synthesizer.">
<polygon fill="white" stroke="#666666" points="1081,-129 980,-129 980,-110 1081,-110 1081,-129"/>
<text text-anchor="middle" x="1030.5" y="-117" font-family="Helvetica,sans-Serif" font-size="10.00">sdk/ee/eestruct.h</text>
</a>
</g>
</g>
<!-- Node7&#45;&gt;Node13 -->
<g id="edge13_Node000007_Node000013" class="edge">
<title>Node7&#45;&gt;Node13</title>
<g id="a_edge13_Node000007_Node000013"><a xlink:title=" ">
<path fill="none" stroke="#63b8ff" d="M885.16,-166.35C913,-157.57 960.61,-142.55 993.72,-132.1"/>
<polygon fill="#63b8ff" stroke="#63b8ff" points="995.01,-135.37 1003.49,-129.02 992.9,-128.69 995.01,-135.37"/>
</a>
</g>
</g>
<!-- Node8&#45;&gt;Node9 -->
<g id="edge8_Node000008_Node000009" class="edge">
<title>Node8&#45;&gt;Node9</title>
<g id="a_edge8_Node000008_Node000009"><a xlink:title=" ">
<path fill="none" stroke="#63b8ff" d="M898.69,-109.75C896.44,-102.72 893.2,-92.62 890.38,-83.84"/>
<polygon fill="#63b8ff" stroke="#63b8ff" points="893.64,-82.54 887.25,-74.09 886.98,-84.68 893.64,-82.54"/>
</a>
</g>
</g>
<!-- Node10 -->
<g id="Node000010" class="node">
<title>Node10</title>
<g id="a_Node000010"><a xlink:href="libdma_8h.html" target="_top" xlink:title="Direct memory access library.">
<polygon fill="white" stroke="#666666" points="980,-19 901,-19 901,0 980,0 980,-19"/>
<text text-anchor="middle" x="940.5" y="-7" font-family="Helvetica,sans-Serif" font-size="10.00">sce/libdma.h</text>
</a>
</g>
</g>
<!-- Node9&#45;&gt;Node10 -->
<g id="edge9_Node000009_Node000010" class="edge">
<title>Node9&#45;&gt;Node10</title>
<g id="a_edge9_Node000009_Node000010"><a xlink:title=" ">
<path fill="none" stroke="#63b8ff" d="M893.5,-54.98C901.69,-47.23 914.01,-35.58 923.97,-26.14"/>
<polygon fill="#63b8ff" stroke="#63b8ff" points="926.48,-28.59 931.34,-19.17 921.67,-23.5 926.48,-28.59"/>
</a>
</g>
</g>
<!-- Node11 -->
<g id="Node000011" class="node">
<title>Node11</title>
<g id="a_Node000011"><a xlink:href="eekernel_8h.html" target="_top" xlink:title=" ">
<polygon fill="white" stroke="#666666" points="883,-19 780,-19 780,0 883,0 883,-19"/>
<text text-anchor="middle" x="831.5" y="-7" font-family="Helvetica,sans-Serif" font-size="10.00">sdk/ee/eekernel.h</text>
</a>
</g>
</g>
<!-- Node9&#45;&gt;Node11 -->
<g id="edge10_Node000009_Node000011" class="edge">
<title>Node9&#45;&gt;Node11</title>
<g id="a_edge10_Node000009_Node000011"><a xlink:title=" ">
<path fill="none" stroke="#63b8ff" d="M875.75,-54.75C868.03,-47.03 856.6,-35.6 847.28,-26.28"/>
<polygon fill="#63b8ff" stroke="#63b8ff" points="849.64,-23.69 840.09,-19.09 844.69,-28.64 849.64,-23.69"/>
</a>
</g>
</g>
<!-- Node9&#45;&gt;Node12 -->
<g id="edge11_Node000009_Node000012" class="edge">
<title>Node9&#45;&gt;Node12</title>
<g id="a_edge11_Node000009_Node000012"><a xlink:title=" ">
<path fill="none" stroke="#63b8ff" d="M857.68,-56.46C820.54,-46.72 753.57,-29.15 714.07,-18.78"/>
<polygon fill="#63b8ff" stroke="#63b8ff" points="714.74,-15.34 704.18,-16.19 712.96,-22.11 714.74,-15.34"/>
</a>
</g>
</g>
<!-- Node14 -->
<g id="Node000014" class="node">
<title>Node14</title>
<g id="a_Node000014"><a xlink:href="types_8h.html" target="_top" xlink:title="Common types used across the codebase.">
<polygon fill="white" stroke="#666666" points="1057,-74 1004,-74 1004,-55 1057,-55 1057,-74"/>
<text text-anchor="middle" x="1030.5" y="-62" font-family="Helvetica,sans-Serif" font-size="10.00">types.h</text>
</a>
</g>
</g>
<!-- Node13&#45;&gt;Node14 -->
<g id="edge14_Node000013_Node000014" class="edge">
<title>Node13&#45;&gt;Node14</title>
<g id="a_edge14_Node000013_Node000014"><a xlink:title=" ">
<path fill="none" stroke="#63b8ff" d="M1030.5,-109.75C1030.5,-102.8 1030.5,-92.85 1030.5,-84.13"/>
<polygon fill="#63b8ff" stroke="#63b8ff" points="1034,-84.09 1030.5,-74.09 1027,-84.09 1034,-84.09"/>
</a>
</g>
</g>
<!-- Node15 -->
<g id="Node000015" class="node">
<title>Node15</title>
<g id="a_Node000015"><a xlink:title=" ">
<polygon fill="#e0e0e0" stroke="#999999" points="1058.5,-19 1002.5,-19 1002.5,0 1058.5,0 1058.5,-19"/>
<text text-anchor="middle" x="1030.5" y="-7" font-family="Helvetica,sans-Serif" font-size="10.00">stddef.h</text>
</a>
</g>
</g>
<!-- Node14&#45;&gt;Node15 -->
<g id="edge15_Node000014_Node000015" class="edge">
<title>Node14&#45;&gt;Node15</title>
<g id="a_edge15_Node000014_Node000015"><a xlink:title=" ">
<path fill="none" stroke="#63b8ff" d="M1030.5,-54.75C1030.5,-47.8 1030.5,-37.85 1030.5,-29.13"/>
<polygon fill="#63b8ff" stroke="#63b8ff" points="1034,-29.09 1030.5,-19.09 1027,-29.09 1034,-29.09"/>
</a>
</g>
</g>
<!-- Node17 -->
<g id="Node000017" class="node">
<title>Node17</title>
<g id="a_Node000017"><a xlink:href="oid_8h.html" target="_top" xlink:title="Object IDs.">
<polygon fill="white" stroke="#666666" points="306,-19 265,-19 265,0 306,0 306,-19"/>
<text text-anchor="middle" x="285.5" y="-7" font-family="Helvetica,sans-Serif" font-size="10.00">oid.h</text>
</a>
</g>
</g>
<!-- Node16&#45;&gt;Node17 -->
<g id="edge17_Node000016_Node000017" class="edge">
<title>Node16&#45;&gt;Node17</title>
<g id="a_edge17_Node000016_Node000017"><a xlink:title=" ">
<path fill="none" stroke="#63b8ff" d="M559.37,-164.97C512.17,-138.35 367.37,-56.67 309.63,-24.11"/>
<polygon fill="#63b8ff" stroke="#63b8ff" points="311.26,-21.01 300.83,-19.15 307.82,-27.11 311.26,-21.01"/>
</a>
</g>
</g>
<!-- Node18 -->
<g id="Node000018" class="node">
<title>Node18</title>
<g id="a_Node000018"><a xlink:href="cid_8h.html" target="_top" xlink:title="Class IDs.">
<polygon fill="white" stroke="#666666" points="594.5,-129 554.5,-129 554.5,-110 594.5,-110 594.5,-129"/>
<text text-anchor="middle" x="574.5" y="-117" font-family="Helvetica,sans-Serif" font-size="10.00">cid.h</text>
</a>
</g>
</g>
<!-- Node16&#45;&gt;Node18 -->
<g id="edge18_Node000016_Node000018" class="edge">
<title>Node16&#45;&gt;Node18</title>
<g id="a_edge18_Node000016_Node000018"><a xlink:title=" ">
<path fill="none" stroke="#63b8ff" d="M574.5,-164.75C574.5,-157.8 574.5,-147.85 574.5,-139.13"/>
<polygon fill="#63b8ff" stroke="#63b8ff" points="578,-139.09 574.5,-129.09 571,-139.09 578,-139.09"/>
</a>
</g>
</g>
<!-- Node19&#45;&gt;Node12 -->
<g id="edge20_Node000019_Node000012" class="edge">
<title>Node19&#45;&gt;Node12</title>
<g id="a_edge20_Node000019_Node000012"><a xlink:title=" ">
<path fill="none" stroke="#63b8ff" d="M457.79,-219.77C459.95,-207.04 465.14,-182.93 475.5,-165 509.17,-106.75 524.38,-93.58 579.5,-55 601.54,-39.57 629.79,-27.84 651.12,-20.3"/>
<polygon fill="#63b8ff" stroke="#63b8ff" points="652.35,-23.58 660.68,-17.04 650.09,-16.96 652.35,-23.58"/>
</a>
</g>
</g>
<!-- Node19&#45;&gt;Node20 -->
<g id="edge21_Node000019_Node000020" class="edge">
<title>Node19&#45;&gt;Node20</title>
<g id="a_edge21_Node000019_Node000020"><a xlink:title=" ">
<path fill="none" stroke="#63b8ff" d="M464.92,-219.75C472.27,-212.11 483.13,-200.82 492.04,-191.56"/>
<polygon fill="#63b8ff" stroke="#63b8ff" points="494.82,-193.72 499.24,-184.09 489.78,-188.87 494.82,-193.72"/>
</a>
</g>
</g>
<!-- Node21 -->
<g id="Node000021" class="node">
<title>Node21</title>
<g id="a_Node000021"><a xlink:href="sm_8h.html" target="_top" xlink:title="Probabilistic finite state machines.">
<polygon fill="white" stroke="#666666" points="306,-184 265,-184 265,-165 306,-165 306,-184"/>
<text text-anchor="middle" x="285.5" y="-172" font-family="Helvetica,sans-Serif" font-size="10.00">sm.h</text>
</a>
</g>
</g>
<!-- Node19&#45;&gt;Node21 -->
<g id="edge23_Node000019_Node000021" class="edge">
<title>Node19&#45;&gt;Node21</title>
<g id="a_edge23_Node000019_Node000021"><a xlink:title=" ">
<path fill="none" stroke="#63b8ff" d="M435.87,-222.11C405.96,-212.84 350.34,-195.6 315.78,-184.88"/>
<polygon fill="#63b8ff" stroke="#63b8ff" points="316.79,-181.53 306.2,-181.92 314.72,-188.22 316.79,-181.53"/>
</a>
</g>
</g>
<!-- Node20&#45;&gt;Node12 -->
<g id="edge22_Node000020_Node000012" class="edge">
<title>Node20&#45;&gt;Node12</title>
<g id="a_edge22_Node000020_Node000012"><a xlink:title=" ">
<path fill="none" stroke="#63b8ff" d="M511.52,-164.62C517.64,-151.7 530.22,-127.35 545.5,-110 578.46,-72.58 627.9,-41.06 657.5,-24.05"/>
<polygon fill="#63b8ff" stroke="#63b8ff" points="659.38,-27.01 666.37,-19.05 655.94,-20.92 659.38,-27.01"/>
</a>
</g>
</g>
<!-- Node22 -->
<g id="Node000022" class="node">
<title>Node22</title>
<g id="a_Node000022"><a xlink:href="dl_8h.html" target="_top" xlink:title="Doubly&#45;linked list.">
<polygon fill="white" stroke="#666666" points="35,-74 0,-74 0,-55 35,-55 35,-74"/>
<text text-anchor="middle" x="17.5" y="-62" font-family="Helvetica,sans-Serif" font-size="10.00">dl.h</text>
</a>
</g>
</g>
<!-- Node21&#45;&gt;Node22 -->
<g id="edge24_Node000021_Node000022" class="edge">
<title>Node21&#45;&gt;Node22</title>
<g id="a_edge24_Node000021_Node000022"><a xlink:title=" ">
<path fill="none" stroke="#63b8ff" d="M264.92,-165.2C217.13,-145.95 98.66,-98.21 44.86,-76.53"/>
<polygon fill="#63b8ff" stroke="#63b8ff" points="45.88,-73.16 35.3,-72.67 43.27,-79.66 45.88,-73.16"/>
</a>
</g>
</g>
<!-- Node23 -->
<g id="Node000023" class="node">
<title>Node23</title>
<g id="a_Node000023"><a xlink:href="mq_8h.html" target="_top" xlink:title="Message queue.">
<polygon fill="white" stroke="#666666" points="306,-74 265,-74 265,-55 306,-55 306,-74"/>
<text text-anchor="middle" x="285.5" y="-62" font-family="Helvetica,sans-Serif" font-size="10.00">mq.h</text>
</a>
</g>
</g>
<!-- Node21&#45;&gt;Node23 -->
<g id="edge26_Node000021_Node000023" class="edge">
<title>Node21&#45;&gt;Node23</title>
<g id="a_edge26_Node000021_Node000023"><a xlink:title=" ">
<path fill="none" stroke="#63b8ff" d="M285.5,-164.66C285.5,-147.17 285.5,-107.8 285.5,-84.27"/>
<polygon fill="#63b8ff" stroke="#63b8ff" points="289,-84.16 285.5,-74.16 282,-84.16 289,-84.16"/>
</a>
</g>
</g>
<!-- Node24 -->
<g id="Node000024" class="node">
<title>Node24</title>
<g id="a_Node000024"><a xlink:href="lo_8h.html" target="_top" xlink:title="Level objects.">
<polygon fill="white" stroke="#666666" points="254,-129 219,-129 219,-110 254,-110 254,-129"/>
<text text-anchor="middle" x="236.5" y="-117" font-family="Helvetica,sans-Serif" font-size="10.00">lo.h</text>
</a>
</g>
</g>
<!-- Node21&#45;&gt;Node24 -->
<g id="edge27_Node000021_Node000024" class="edge">
<title>Node21&#45;&gt;Node24</title>
<g id="a_edge27_Node000021_Node000024"><a xlink:title=" ">
<path fill="none" stroke="#63b8ff" d="M277.41,-164.75C270.34,-157.11 259.91,-145.82 251.35,-136.56"/>
<polygon fill="#63b8ff" stroke="#63b8ff" points="253.8,-134.06 244.44,-129.09 248.66,-138.81 253.8,-134.06"/>
</a>
</g>
</g>
<!-- Node22&#45;&gt;Node17 -->
<g id="edge25_Node000022_Node000017" class="edge">
<title>Node22&#45;&gt;Node17</title>
<g id="a_edge25_Node000022_Node000017"><a xlink:title=" ">
<path fill="none" stroke="#63b8ff" d="M35.03,-57.42C37.84,-56.54 40.74,-55.7 43.5,-55 118.59,-35.91 208.75,-21.53 254.94,-14.77"/>
<polygon fill="#63b8ff" stroke="#63b8ff" points="255.51,-18.23 264.9,-13.33 254.5,-11.3 255.51,-18.23"/>
</a>
</g>
</g>
<!-- Node24&#45;&gt;Node17 -->
<g id="edge30_Node000024_Node000017" class="edge">
<title>Node24&#45;&gt;Node17</title>
<g id="a_edge30_Node000024_Node000017"><a xlink:title=" ">
<path fill="none" stroke="#63b8ff" d="M238.19,-109.98C240.85,-97.51 246.64,-73.72 255.5,-55 260.07,-45.33 266.58,-35.39 272.36,-27.36"/>
<polygon fill="#63b8ff" stroke="#63b8ff" points="275.26,-29.33 278.45,-19.22 269.65,-25.13 275.26,-29.33"/>
</a>
</g>
</g>
<!-- Node24&#45;&gt;Node22 -->
<g id="edge28_Node000024_Node000022" class="edge">
<title>Node24&#45;&gt;Node22</title>
<g id="a_edge28_Node000024_Node000022"><a xlink:title=" ">
<path fill="none" stroke="#63b8ff" d="M218.8,-114.97C186.2,-108.36 114.29,-93.23 44.84,-74.19"/>
<polygon fill="#63b8ff" stroke="#63b8ff" points="45.63,-70.77 35.06,-71.48 43.76,-77.52 45.63,-70.77"/>
</a>
</g>
</g>
<!-- Node24&#45;&gt;Node23 -->
<g id="edge29_Node000024_Node000023" class="edge">
<title>Node24&#45;&gt;Node23</title>
<g id="a_edge29_Node000024_Node000023"><a xlink:title=" ">
<path fill="none" stroke="#63b8ff" d="M244.59,-109.75C251.66,-102.11 262.09,-90.82 270.65,-81.56"/>
<polygon fill="#63b8ff" stroke="#63b8ff" points="273.34,-83.81 277.56,-74.09 268.2,-79.06 273.34,-83.81"/>
</a>
</g>
</g>
<!-- Node25 -->
<g id="Node000025" class="node">
<title>Node25</title>
<g id="a_Node000025"><a xlink:href="basic_8h.html" target="_top" xlink:title="Basic object.">
<polygon fill="white" stroke="#666666" points="104,-74 53,-74 53,-55 104,-55 104,-74"/>
<text text-anchor="middle" x="78.5" y="-62" font-family="Helvetica,sans-Serif" font-size="10.00">basic.h</text>
</a>
</g>
</g>
<!-- Node24&#45;&gt;Node25 -->
<g id="edge31_Node000024_Node000025" class="edge">
<title>Node24&#45;&gt;Node25</title>
<g id="a_edge31_Node000024_Node000025"><a xlink:title=" ">
<path fill="none" stroke="#63b8ff" d="M218.99,-112.63C193.65,-104.13 146.22,-88.22 113.53,-77.25"/>
<polygon fill="#63b8ff" stroke="#63b8ff" points="114.5,-73.88 103.9,-74.02 112.27,-80.52 114.5,-73.88"/>
</a>
</g>
</g>
<!-- Node27 -->
<g id="Node000027" class="node">
<title>Node27</title>
<g id="a_Node000027"><a xlink:href="frame_8h.html" target="_top" xlink:title=" ">
<polygon fill="white" stroke="#666666" points="208.5,-74 122.5,-74 122.5,-55 208.5,-55 208.5,-74"/>
<text text-anchor="middle" x="165.5" y="-62" font-family="Helvetica,sans-Serif" font-size="10.00">splice/frame.h</text>
</a>
</g>
</g>
<!-- Node24&#45;&gt;Node27 -->
<g id="edge33_Node000024_Node000027" class="edge">
<title>Node24&#45;&gt;Node27</title>
<g id="a_edge33_Node000024_Node000027"><a xlink:title=" ">
<path fill="none" stroke="#63b8ff" d="M225.09,-109.98C214.39,-102 198.16,-89.88 185.34,-80.31"/>
<polygon fill="#63b8ff" stroke="#63b8ff" points="187.22,-77.35 177.11,-74.17 183.03,-82.96 187.22,-77.35"/>
</a>
</g>
</g>
<!-- Node26 -->
<g id="Node000026" class="node">
<title>Node26</title>
<g id="a_Node000026"><a xlink:href="sidebag_8h.html" target="_top" xlink:title="Sidebag for splice.">
<polygon fill="white" stroke="#666666" points="126,-19 31,-19 31,0 126,0 126,-19"/>
<text text-anchor="middle" x="78.5" y="-7" font-family="Helvetica,sans-Serif" font-size="10.00">splice/sidebag.h</text>
</a>
</g>
</g>
<!-- Node25&#45;&gt;Node26 -->
<g id="edge32_Node000025_Node000026" class="edge">
<title>Node25&#45;&gt;Node26</title>
<g id="a_edge32_Node000025_Node000026"><a xlink:title=" ">
<path fill="none" stroke="#63b8ff" d="M78.5,-54.75C78.5,-47.8 78.5,-37.85 78.5,-29.13"/>
<polygon fill="#63b8ff" stroke="#63b8ff" points="82,-29.09 78.5,-19.09 75,-29.09 82,-29.09"/>
</a>
</g>
</g>
<!-- Node29&#45;&gt;Node12 -->
<g id="edge38_Node000029_Node000012" class="edge">
<title>Node29&#45;&gt;Node12</title>
<g id="a_edge38_Node000029_Node000012"><a xlink:title=" ">
<path fill="none" stroke="#63b8ff" d="M773.5,-274.82C773.5,-256.48 773.5,-212.44 773.5,-175.5 773.5,-175.5 773.5,-175.5 773.5,-118.5 773.5,-88.33 768.3,-78.59 749.5,-55 739.1,-41.96 723.83,-31.4 710.48,-23.85"/>
<polygon fill="#63b8ff" stroke="#63b8ff" points="712.1,-20.74 701.64,-19.1 708.8,-26.91 712.1,-20.74"/>
</a>
</g>
</g>
<!-- Node29&#45;&gt;Node20 -->
<g id="edge39_Node000029_Node000020" class="edge">
<title>Node29&#45;&gt;Node20</title>
<g id="a_edge39_Node000029_Node000020"><a xlink:title=" ">
<path fill="none" stroke="#63b8ff" d="M746.91,-275.66C719.81,-267.42 676.73,-253.65 640.5,-239 602.26,-223.54 559.44,-202.37 532.97,-188.81"/>
<polygon fill="#63b8ff" stroke="#63b8ff" points="534.49,-185.66 524,-184.19 531.29,-191.88 534.49,-185.66"/>
</a>
</g>
</g>
<!-- Node31&#45;&gt;Node12 -->
<g id="edge43_Node000031_Node000012" class="edge">
<title>Node31&#45;&gt;Node12</title>
<g id="a_edge43_Node000031_Node000012"><a xlink:title=" ">
<path fill="none" stroke="#63b8ff" d="M733.68,-329.67C734.18,-305.18 735.5,-234.37 735.5,-175.5 735.5,-175.5 735.5,-175.5 735.5,-118.5 735.5,-83.02 712.17,-47.08 696.46,-26.9"/>
<polygon fill="#63b8ff" stroke="#63b8ff" points="699.11,-24.61 690.09,-19.04 693.67,-29.01 699.11,-24.61"/>
</a>
</g>
</g>
<!-- Node31&#45;&gt;Node29 -->
<g id="edge42_Node000031_Node000029" class="edge">
<title>Node31&#45;&gt;Node29</title>
<g id="a_edge42_Node000031_Node000029"><a xlink:title=" ">
<path fill="none" stroke="#63b8ff" d="M740.11,-329.75C745.76,-322.26 754.04,-311.28 760.95,-302.13"/>
<polygon fill="#63b8ff" stroke="#63b8ff" points="763.79,-304.18 767.02,-294.09 758.2,-299.96 763.79,-304.18"/>
</a>
</g>
</g>
<!-- Node32&#45;&gt;Node12 -->
<g id="edge47_Node000032_Node000012" class="edge">
<title>Node32&#45;&gt;Node12</title>
<g id="a_edge47_Node000032_Node000012"><a xlink:title=" ">
<path fill="none" stroke="#63b8ff" d="M384.51,-329.74C394.23,-289.63 440.45,-122.48 549.5,-55 581.26,-35.35 622.72,-23.27 650.84,-16.74"/>
<polygon fill="#63b8ff" stroke="#63b8ff" points="651.91,-20.09 660.92,-14.51 650.4,-13.26 651.91,-20.09"/>
</a>
</g>
</g>
<!-- Node32&#45;&gt;Node20 -->
<g id="edge48_Node000032_Node000020" class="edge">
<title>Node32&#45;&gt;Node20</title>
<g id="a_edge48_Node000032_Node000020"><a xlink:title=" ">
<path fill="none" stroke="#63b8ff" d="M403.02,-335.75C427.18,-331.37 466.64,-320.41 487.5,-294 510.38,-265.04 511.19,-219.51 509.5,-194.15"/>
<polygon fill="#63b8ff" stroke="#63b8ff" points="512.98,-193.71 508.63,-184.05 506.01,-194.31 512.98,-193.71"/>
</a>
</g>
</g>
<!-- Node32&#45;&gt;Node22 -->
<g id="edge50_Node000032_Node000022" class="edge">
<title>Node32&#45;&gt;Node22</title>
<g id="a_edge50_Node000032_Node000022"><a xlink:title=" ">
<path fill="none" stroke="#63b8ff" d="M361.79,-336.31C289.33,-328.08 51.5,-296.08 51.5,-230.5 51.5,-230.5 51.5,-230.5 51.5,-173.5 51.5,-140.39 36.78,-104.1 26.71,-83.14"/>
<polygon fill="#63b8ff" stroke="#63b8ff" points="29.83,-81.55 22.23,-74.17 23.57,-84.68 29.83,-81.55"/>
</a>
</g>
</g>
<!-- Node32&#45;&gt;Node24 -->
<g id="edge49_Node000032_Node000024" class="edge">
<title>Node32&#45;&gt;Node24</title>
<g id="a_edge49_Node000032_Node000024"><a xlink:title=" ">
<path fill="none" stroke="#63b8ff" d="M373.03,-329.7C349.67,-307.51 288.8,-246.52 255.5,-184 247.97,-169.86 243.01,-152.32 240.05,-139.26"/>
<polygon fill="#63b8ff" stroke="#63b8ff" points="243.41,-138.21 237.95,-129.13 236.56,-139.64 243.41,-138.21"/>
</a>
</g>
</g>
<!-- Node33 -->
<g id="Node000033" class="node">
<title>Node33</title>
<g id="a_Node000033"><a xlink:href="sound_8h.html" target="_top" xlink:title="Sound playback.">
<polygon fill="white" stroke="#666666" points="479,-294 424,-294 424,-275 479,-275 479,-294"/>
<text text-anchor="middle" x="451.5" y="-282" font-family="Helvetica,sans-Serif" font-size="10.00">sound.h</text>
</a>
</g>
</g>
<!-- Node32&#45;&gt;Node33 -->
<g id="edge45_Node000032_Node000033" class="edge">
<title>Node32&#45;&gt;Node33</title>
<g id="a_edge45_Node000032_Node000033"><a xlink:title=" ">
<path fill="none" stroke="#63b8ff" d="M393.59,-329.98C403.99,-322 419.76,-309.88 432.22,-300.31"/>
<polygon fill="#63b8ff" stroke="#63b8ff" points="434.41,-303.04 440.21,-294.17 430.15,-297.49 434.41,-303.04"/>
</a>
</g>
</g>
<!-- Node33&#45;&gt;Node19 -->
<g id="edge46_Node000033_Node000019" class="edge">
<title>Node33&#45;&gt;Node19</title>
<g id="a_edge46_Node000033_Node000019"><a xlink:title=" ">
<path fill="none" stroke="#63b8ff" d="M452.33,-274.75C452.98,-267.8 453.92,-257.85 454.74,-249.13"/>
<polygon fill="#63b8ff" stroke="#63b8ff" points="458.23,-249.37 455.69,-239.09 451.27,-248.72 458.23,-249.37"/>
</a>
</g>
</g>
<!-- Node34&#45;&gt;Node3 -->
<g id="edge54_Node000034_Node000003" class="edge">
<title>Node34&#45;&gt;Node3</title>
<g id="a_edge54_Node000034_Node000003"><a xlink:title=" ">
<path fill="none" stroke="#63b8ff" d="M844.78,-442.63C809.57,-433.1 739.98,-414.29 700.22,-403.54"/>
<polygon fill="#63b8ff" stroke="#63b8ff" points="701.12,-400.15 690.55,-400.92 699.29,-406.91 701.12,-400.15"/>
</a>
</g>
</g>
<!-- Node34&#45;&gt;Node8 -->
<g id="edge58_Node000034_Node000008" class="edge">
<title>Node34&#45;&gt;Node8</title>
<g id="a_edge58_Node000034_Node000008"><a xlink:title=" ">
<path fill="none" stroke="#63b8ff" d="M873.23,-439.82C886.23,-422.17 913.5,-380.37 913.5,-340.5 913.5,-340.5 913.5,-340.5 913.5,-228.5 913.5,-197 908.39,-160.64 904.84,-139.16"/>
<polygon fill="#63b8ff" stroke="#63b8ff" points="908.26,-138.4 903.12,-129.14 901.37,-139.59 908.26,-138.4"/>
</a>
</g>
</g>
<!-- Node34&#45;&gt;Node9 -->
<g id="edge57_Node000034_Node000009" class="edge">
<title>Node34&#45;&gt;Node9</title>
<g id="a_edge57_Node000034_Node000009"><a xlink:title=" ">
<path fill="none" stroke="#63b8ff" d="M880.16,-439.96C904.18,-423.76 951.5,-386.07 951.5,-340.5 951.5,-340.5 951.5,-340.5 951.5,-173.5 951.5,-144.04 948.07,-135.01 932.5,-110 925.44,-98.66 914.74,-88.35 905.23,-80.52"/>
<polygon fill="#63b8ff" stroke="#63b8ff" points="907.34,-77.72 897.31,-74.31 903.02,-83.23 907.34,-77.72"/>
</a>
</g>
</g>
<!-- Node34&#45;&gt;Node13 -->
<g id="edge53_Node000034_Node000013" class="edge">
<title>Node34&#45;&gt;Node13</title>
<g id="a_edge53_Node000034_Node000013"><a xlink:title=" ">
<path fill="none" stroke="#63b8ff" d="M888.22,-443.01C928.22,-431.44 1009.5,-400.54 1009.5,-340.5 1009.5,-340.5 1009.5,-340.5 1009.5,-228.5 1009.5,-196.46 1018.52,-160.03 1024.73,-138.73"/>
<polygon fill="#63b8ff" stroke="#63b8ff" points="1028.11,-139.65 1027.67,-129.07 1021.41,-137.62 1028.11,-139.65"/>
</a>
</g>
</g>
<!-- Node34&#45;&gt;Node17 -->
<g id="edge55_Node000034_Node000017" class="edge">
<title>Node34&#45;&gt;Node17</title>
<g id="a_edge55_Node000034_Node000017"><a xlink:title=" ">
<path fill="none" stroke="#63b8ff" d="M844.72,-446.56C742.98,-437.21 319.5,-395.01 319.5,-340.5 319.5,-340.5 319.5,-340.5 319.5,-283.5 319.5,-181.92 344.49,-152.05 314.5,-55 311.41,-45.01 305.38,-35.15 299.6,-27.25"/>
<polygon fill="#63b8ff" stroke="#63b8ff" points="302.29,-25 293.37,-19.27 296.77,-29.31 302.29,-25"/>
</a>
</g>
</g>
<!-- Node34&#45;&gt;Node29 -->
<g id="edge56_Node000034_Node000029" class="edge">
<title>Node34&#45;&gt;Node29</title>
<g id="a_edge56_Node000034_Node000029"><a xlink:title=" ">
<path fill="none" stroke="#63b8ff" d="M861.5,-439.74C846.8,-413.98 803.53,-338.13 783.67,-303.33"/>
<polygon fill="#63b8ff" stroke="#63b8ff" points="786.52,-301.26 778.52,-294.31 780.44,-304.73 786.52,-301.26"/>
</a>
</g>
</g>
</g>
</svg>

<g id="navigator" transform="translate(0 0)" fill="#404254">
  <rect fill="#f2f5e9" fill-opacity="0.5" stroke="#606060" stroke-width=".5" x="0" y="0" width="60" height="60"/>
  <use id="zoomplus" xlink:href="#zoomPlus" x="17" y="9" onmousedown="handleZoom(evt,'in')"/>
  <use id="zoomminus" xlink:href="#zoomMin" x="42" y="9" onmousedown="handleZoom(evt,'out')"/>
  <use id="reset" xlink:href="#resetDef" x="30" y="36" onmousedown="handleReset()"/>
   <use id="arrowup" xlink:href="#arrowUp" x="0" y="0" onmousedown="handlePan(0,-1)"/>
  <use id="arrowright" xlink:href="#arrowRight" x="0" y="0" onmousedown="handlePan(1,0)"/>
  <use id="arrowdown" xlink:href="#arrowDown" x="0" y="0" onmousedown="handlePan(0,1)"/>
  <use id="arrowleft" xlink:href="#arrowLeft" x="0" y="0" onmousedown="handlePan(-1,0)"/>
</g>
<svg viewBox="0 0 15 15" width="100%" height="30px" preserveAspectRatio="xMaxYMin meet">
 <g id="arrow_out" transform="scale(0.3 0.3)">
  <a xlink:href="shdanim_8h__incl_org.svg" target="_base">
   <rect id="button" ry="5" rx="5" y="6" x="6" height="38" width="38"
        fill="#f2f5e9" fill-opacity="0.5" stroke="#606060" stroke-width="1.0"/>
   <path id="arrow"
     d="M 11.500037,31.436501 C 11.940474,20.09759 22.043105,11.32322 32.158766,21.979434 L 37.068811,17.246167 C 37.068811,17.246167 37.088388,32 37.088388,32 L 22.160133,31.978069 C 22.160133,31.978069 26.997745,27.140456 26.997745,27.140456 C 18.528582,18.264221 13.291696,25.230495 11.500037,31.436501 z"
     style="fill:#404040;"/>
  </a>
 </g>
</svg>

<style type='text/css'>
<![CDATA[
[data-mouse-over-selected='false'] { opacity: 0.7; }
[data-mouse-over-selected='true']  { opacity: 1.0; }
]]>
</style>
<script type="application/ecmascript"><![CDATA[
document.addEventListener('DOMContentLoaded', (event) => {
  highlightEdges();
  highlightAdjacentNodes();
});
]]></script>
</svg>
