<?xml version="1.0" encoding="UTF-8" standalone="no"?>
<!DOCTYPE svg PUBLIC "-//W3C//DTD SVG 1.1//EN"
 "http://www.w3.org/Graphics/SVG/1.1/DTD/svg11.dtd">
<!-- Generated by graphviz version 2.43.0 (0)
 -->
<!-- Title: include/splice/sidebag.h Pages: 1 -->
<svg width="1680pt" height="644pt"
 viewBox="0.00 0.00 1679.50 644.00" xmlns="http://www.w3.org/2000/svg" xmlns:xlink="http://www.w3.org/1999/xlink">
<g id="graph0" class="graph" transform="scale(1 1) rotate(0) translate(4 640)">
<title>include/splice/sidebag.h</title>
<polygon fill="white" stroke="transparent" points="-4,4 -4,-640 1675.5,-640 1675.5,4 -4,4"/>
<!-- Node1 -->
<g id="node1" class="node">
<title>Node1</title>
<g id="a_node1"><a xlink:title="Sidebag for splice.">
<polygon fill="#bfbfbf" stroke="black" points="497.5,-616.5 497.5,-635.5 631.5,-635.5 631.5,-616.5 497.5,-616.5"/>
<text text-anchor="middle" x="564.5" y="-623.5" font-family="Helvetica,sans-Serif" font-size="10.00">include/splice/sidebag.h</text>
</a>
</g>
</g>
<!-- Node2 -->
<g id="node2" class="node">
<title>Node2</title>
<g id="a_node2"><a xlink:href="sidebag_8cpp.html" target="_top" xlink:title=" ">
<polygon fill="white" stroke="black" points="429,-560.5 429,-579.5 568,-579.5 568,-560.5 429,-560.5"/>
<text text-anchor="middle" x="498.5" y="-567.5" font-family="Helvetica,sans-Serif" font-size="10.00">src/P2/splice/sidebag.cpp</text>
</a>
</g>
</g>
<!-- Node1&#45;&gt;Node2 -->
<g id="edge1" class="edge">
<title>Node1&#45;&gt;Node2</title>
<path fill="none" stroke="midnightblue" d="M545.95,-609.82C534.12,-600.15 519.21,-587.95 509.3,-579.83"/>
<polygon fill="midnightblue" stroke="midnightblue" points="543.94,-612.7 553.9,-616.32 548.37,-607.28 543.94,-612.7"/>
</g>
<!-- Node3 -->
<g id="node3" class="node">
<title>Node3</title>
<g id="a_node3"><a xlink:href="basic_8h.html" target="_top" xlink:title="Basic object.">
<polygon fill="white" stroke="black" points="586,-560.5 586,-579.5 675,-579.5 675,-560.5 586,-560.5"/>
<text text-anchor="middle" x="630.5" y="-567.5" font-family="Helvetica,sans-Serif" font-size="10.00">include/basic.h</text>
</a>
</g>
</g>
<!-- Node1&#45;&gt;Node3 -->
<g id="edge2" class="edge">
<title>Node1&#45;&gt;Node3</title>
<path fill="none" stroke="midnightblue" d="M583.05,-609.82C594.88,-600.15 609.79,-587.95 619.7,-579.83"/>
<polygon fill="midnightblue" stroke="midnightblue" points="580.63,-607.28 575.1,-616.32 585.06,-612.7 580.63,-607.28"/>
</g>
<!-- Node4 -->
<g id="node4" class="node">
<title>Node4</title>
<g id="a_node4"><a xlink:href="lo_8h.html" target="_top" xlink:title="Level objects.">
<polygon fill="white" stroke="black" points="560,-504.5 560,-523.5 633,-523.5 633,-504.5 560,-504.5"/>
<text text-anchor="middle" x="596.5" y="-511.5" font-family="Helvetica,sans-Serif" font-size="10.00">include/lo.h</text>
</a>
</g>
</g>
<!-- Node3&#45;&gt;Node4 -->
<g id="edge3" class="edge">
<title>Node3&#45;&gt;Node4</title>
<path fill="none" stroke="midnightblue" d="M619.52,-551.57C613.67,-542.27 606.73,-531.25 602.01,-523.75"/>
<polygon fill="midnightblue" stroke="midnightblue" points="616.6,-553.49 624.89,-560.08 622.52,-549.76 616.6,-553.49"/>
</g>
<!-- Node59 -->
<g id="node45" class="node">
<title>Node59</title>
<g id="a_node45"><a xlink:href="ref_8h.html" target="_top" xlink:title=" ">
<polygon fill="white" stroke="black" points="611.5,-224.5 611.5,-243.5 719.5,-243.5 719.5,-224.5 611.5,-224.5"/>
<text text-anchor="middle" x="665.5" y="-231.5" font-family="Helvetica,sans-Serif" font-size="10.00">include/splice/ref.h</text>
</a>
</g>
</g>
<!-- Node3&#45;&gt;Node59 -->
<g id="edge76" class="edge">
<title>Node3&#45;&gt;Node59</title>
<path fill="none" stroke="midnightblue" d="M639.82,-551.37C650.19,-530.09 665.5,-492.93 665.5,-459 665.5,-459 665.5,-459 665.5,-345 665.5,-307.19 665.5,-262.06 665.5,-243.56"/>
<polygon fill="midnightblue" stroke="midnightblue" points="636.62,-549.95 635.22,-560.46 642.86,-553.12 636.62,-549.95"/>
</g>
<!-- Node5 -->
<g id="node5" class="node">
<title>Node5</title>
<g id="a_node5"><a xlink:href="alo_8h.html" target="_top" xlink:title=" ">
<polygon fill="white" stroke="black" points="1071,-448.5 1071,-467.5 1150,-467.5 1150,-448.5 1071,-448.5"/>
<text text-anchor="middle" x="1110.5" y="-455.5" font-family="Helvetica,sans-Serif" font-size="10.00">include/alo.h</text>
</a>
</g>
</g>
<!-- Node4&#45;&gt;Node5 -->
<g id="edge4" class="edge">
<title>Node4&#45;&gt;Node5</title>
<path fill="none" stroke="midnightblue" d="M643.18,-508.1C743.38,-497.57 977.56,-472.97 1070.99,-463.15"/>
<polygon fill="midnightblue" stroke="midnightblue" points="642.63,-504.63 633.05,-509.16 643.36,-511.6 642.63,-504.63"/>
</g>
<!-- Node15 -->
<g id="node15" class="node">
<title>Node15</title>
<g id="a_node15"><a xlink:href="cm_8h.html" target="_top" xlink:title="Game camera.">
<polygon fill="white" stroke="black" points="154,-168.5 154,-187.5 233,-187.5 233,-168.5 154,-168.5"/>
<text text-anchor="middle" x="193.5" y="-175.5" font-family="Helvetica,sans-Serif" font-size="10.00">include/cm.h</text>
</a>
</g>
</g>
<!-- Node4&#45;&gt;Node15 -->
<g id="edge75" class="edge">
<title>Node4&#45;&gt;Node15</title>
<path fill="none" stroke="midnightblue" d="M549.53,-508.96C412.45,-496.54 22.5,-456.52 22.5,-403 22.5,-403 22.5,-403 22.5,-289 22.5,-258.9 20.25,-245.32 41.5,-224 71.22,-194.17 119.71,-183.93 153.92,-180.51"/>
<polygon fill="midnightblue" stroke="midnightblue" points="549.45,-512.47 559.72,-509.87 550.07,-505.49 549.45,-512.47"/>
</g>
<!-- Node63 -->
<g id="node49" class="node">
<title>Node63</title>
<g id="a_node49"><a xlink:href="anim_8h.html" target="_top" xlink:title="Animation.">
<polygon fill="white" stroke="black" points="548,-392.5 548,-411.5 637,-411.5 637,-392.5 548,-392.5"/>
<text text-anchor="middle" x="592.5" y="-399.5" font-family="Helvetica,sans-Serif" font-size="10.00">include/anim.h</text>
</a>
</g>
</g>
<!-- Node4&#45;&gt;Node63 -->
<g id="edge69" class="edge">
<title>Node4&#45;&gt;Node63</title>
<path fill="none" stroke="midnightblue" d="M595.82,-494.35C594.95,-470.25 593.46,-429.31 592.81,-411.59"/>
<polygon fill="midnightblue" stroke="midnightblue" points="592.32,-494.5 596.19,-504.37 599.32,-494.25 592.32,-494.5"/>
</g>
<!-- Node6 -->
<g id="node6" class="node">
<title>Node6</title>
<g id="a_node6"><a xlink:href="binoc_8c.html" target="_top" xlink:title=" ">
<polygon fill="white" stroke="black" points="1034,-392.5 1034,-411.5 1117,-411.5 1117,-392.5 1034,-392.5"/>
<text text-anchor="middle" x="1075.5" y="-399.5" font-family="Helvetica,sans-Serif" font-size="10.00">src/P2/binoc.c</text>
</a>
</g>
</g>
<!-- Node5&#45;&gt;Node6 -->
<g id="edge5" class="edge">
<title>Node5&#45;&gt;Node6</title>
<path fill="none" stroke="midnightblue" d="M1099.2,-439.57C1093.18,-430.27 1086.03,-419.25 1081.17,-411.75"/>
<polygon fill="midnightblue" stroke="midnightblue" points="1096.34,-441.6 1104.72,-448.08 1102.22,-437.79 1096.34,-441.6"/>
</g>
<!-- Node7 -->
<g id="node7" class="node">
<title>Node7</title>
<g id="a_node7"><a xlink:href="coin_8h.html" target="_top" xlink:title="Coins, keys, and other collectibles.">
<polygon fill="white" stroke="black" points="1576.5,-168.5 1576.5,-187.5 1660.5,-187.5 1660.5,-168.5 1576.5,-168.5"/>
<text text-anchor="middle" x="1618.5" y="-175.5" font-family="Helvetica,sans-Serif" font-size="10.00">include/coin.h</text>
</a>
</g>
</g>
<!-- Node5&#45;&gt;Node7 -->
<g id="edge6" class="edge">
<title>Node5&#45;&gt;Node7</title>
<path fill="none" stroke="midnightblue" d="M1160.66,-457.73C1298.26,-458.39 1671.5,-450.62 1671.5,-347 1671.5,-347 1671.5,-347 1671.5,-289 1671.5,-247.66 1640.75,-205.48 1626.09,-187.72"/>
<polygon fill="midnightblue" stroke="midnightblue" points="1160.42,-454.23 1150.4,-457.66 1160.37,-461.23 1160.42,-454.23"/>
</g>
<!-- Node9 -->
<g id="node9" class="node">
<title>Node9</title>
<g id="a_node9"><a xlink:href="find_8h.html" target="_top" xlink:title="Find objects in the SW.">
<polygon fill="white" stroke="black" points="1250.5,-336.5 1250.5,-355.5 1332.5,-355.5 1332.5,-336.5 1250.5,-336.5"/>
<text text-anchor="middle" x="1291.5" y="-343.5" font-family="Helvetica,sans-Serif" font-size="10.00">include/find.h</text>
</a>
</g>
</g>
<!-- Node5&#45;&gt;Node9 -->
<g id="edge8" class="edge">
<title>Node5&#45;&gt;Node9</title>
<path fill="none" stroke="midnightblue" d="M1160.38,-455.53C1196.09,-451.84 1242.9,-441.2 1272.5,-412 1287.9,-396.81 1290.98,-369.87 1291.49,-355.93"/>
<polygon fill="midnightblue" stroke="midnightblue" points="1159.81,-452.07 1150.16,-456.43 1160.43,-459.04 1159.81,-452.07"/>
</g>
<!-- Node11 -->
<g id="node11" class="node">
<title>Node11</title>
<g id="a_node11"><a xlink:href="proxy_8h.html" target="_top" xlink:title=" ">
<polygon fill="white" stroke="black" points="1173.5,-392.5 1173.5,-411.5 1263.5,-411.5 1263.5,-392.5 1173.5,-392.5"/>
<text text-anchor="middle" x="1218.5" y="-399.5" font-family="Helvetica,sans-Serif" font-size="10.00">include/proxy.h</text>
</a>
</g>
</g>
<!-- Node5&#45;&gt;Node11 -->
<g id="edge10" class="edge">
<title>Node5&#45;&gt;Node11</title>
<path fill="none" stroke="midnightblue" d="M1137.05,-443.73C1157.05,-433.73 1183.89,-420.31 1201.19,-411.65"/>
<polygon fill="midnightblue" stroke="midnightblue" points="1135.23,-440.72 1127.85,-448.32 1138.36,-446.98 1135.23,-440.72"/>
</g>
<!-- Node12 -->
<g id="node12" class="node">
<title>Node12</title>
<g id="a_node12"><a xlink:href="xform_8h.html" target="_top" xlink:title="Transform.">
<polygon fill="white" stroke="black" points="1172,-224.5 1172,-243.5 1265,-243.5 1265,-224.5 1172,-224.5"/>
<text text-anchor="middle" x="1218.5" y="-231.5" font-family="Helvetica,sans-Serif" font-size="10.00">include/xform.h</text>
</a>
</g>
</g>
<!-- Node5&#45;&gt;Node12 -->
<g id="edge68" class="edge">
<title>Node5&#45;&gt;Node12</title>
<path fill="none" stroke="midnightblue" d="M1119.18,-439.16C1141.09,-394.12 1198.04,-277.06 1214.18,-243.88"/>
<polygon fill="midnightblue" stroke="midnightblue" points="1115.96,-437.77 1114.73,-448.3 1122.26,-440.84 1115.96,-437.77"/>
</g>
<!-- Node25 -->
<g id="node25" class="node">
<title>Node25</title>
<g id="a_node25"><a xlink:href="so_8h.html" target="_top" xlink:title="Scene objects.">
<polygon fill="white" stroke="black" points="918,-392.5 918,-411.5 993,-411.5 993,-392.5 918,-392.5"/>
<text text-anchor="middle" x="955.5" y="-399.5" font-family="Helvetica,sans-Serif" font-size="10.00">include/so.h</text>
</a>
</g>
</g>
<!-- Node5&#45;&gt;Node25 -->
<g id="edge26" class="edge">
<title>Node5&#45;&gt;Node25</title>
<path fill="none" stroke="midnightblue" d="M1076.17,-445.04C1047,-434.88 1005.86,-420.55 979.95,-411.52"/>
<polygon fill="midnightblue" stroke="midnightblue" points="1075.34,-448.46 1085.94,-448.44 1077.65,-441.85 1075.34,-448.46"/>
</g>
<!-- Node58 -->
<g id="node44" class="node">
<title>Node58</title>
<g id="a_node44"><a xlink:href="sound_8h.html" target="_top" xlink:title="Sound playback.">
<polygon fill="white" stroke="black" points="140,-224.5 140,-243.5 233,-243.5 233,-224.5 140,-224.5"/>
<text text-anchor="middle" x="186.5" y="-231.5" font-family="Helvetica,sans-Serif" font-size="10.00">include/sound.h</text>
</a>
</g>
</g>
<!-- Node5&#45;&gt;Node58 -->
<g id="edge67" class="edge">
<title>Node5&#45;&gt;Node58</title>
<path fill="none" stroke="midnightblue" d="M1060.8,-457.63C939.37,-458.46 630.9,-456.04 539.5,-412 497.86,-391.93 507.12,-361.4 468.5,-336 391.81,-285.57 286.82,-256.67 229.01,-243.58"/>
<polygon fill="midnightblue" stroke="midnightblue" points="1060.96,-461.13 1070.93,-457.55 1060.9,-454.13 1060.96,-461.13"/>
</g>
<!-- Node8 -->
<g id="node8" class="node">
<title>Node8</title>
<g id="a_node8"><a xlink:href="coin_8c.html" target="_top" xlink:title=" ">
<polygon fill="white" stroke="black" points="1510,-56.5 1510,-75.5 1587,-75.5 1587,-56.5 1510,-56.5"/>
<text text-anchor="middle" x="1548.5" y="-63.5" font-family="Helvetica,sans-Serif" font-size="10.00">src/P2/coin.c</text>
</a>
</g>
</g>
<!-- Node7&#45;&gt;Node8 -->
<g id="edge7" class="edge">
<title>Node7&#45;&gt;Node8</title>
<path fill="none" stroke="midnightblue" d="M1607.45,-159.64C1592.25,-135.74 1565.45,-93.63 1553.97,-75.59"/>
<polygon fill="midnightblue" stroke="midnightblue" points="1604.69,-161.81 1613.01,-168.37 1610.59,-158.05 1604.69,-161.81"/>
</g>
<!-- Node10 -->
<g id="node10" class="node">
<title>Node10</title>
<g id="a_node10"><a xlink:href="find_8c.html" target="_top" xlink:title=" ">
<polygon fill="white" stroke="black" points="1568,-280.5 1568,-299.5 1643,-299.5 1643,-280.5 1568,-280.5"/>
<text text-anchor="middle" x="1605.5" y="-287.5" font-family="Helvetica,sans-Serif" font-size="10.00">src/P2/find.c</text>
</a>
</g>
</g>
<!-- Node9&#45;&gt;Node10 -->
<g id="edge9" class="edge">
<title>Node9&#45;&gt;Node10</title>
<path fill="none" stroke="midnightblue" d="M1342.93,-336.19C1395.76,-327.13 1480.37,-312.61 1553.5,-300 1558.1,-299.21 1562.94,-298.37 1567.73,-297.54"/>
<polygon fill="midnightblue" stroke="midnightblue" points="1342.06,-332.78 1332.8,-337.92 1343.24,-339.68 1342.06,-332.78"/>
</g>
<!-- Node11&#45;&gt;Node12 -->
<g id="edge11" class="edge">
<title>Node11&#45;&gt;Node12</title>
<path fill="none" stroke="midnightblue" d="M1218.5,-381.93C1218.5,-345.92 1218.5,-269.23 1218.5,-243.57"/>
<polygon fill="midnightblue" stroke="midnightblue" points="1215,-382.08 1218.5,-392.08 1222,-382.08 1215,-382.08"/>
</g>
<!-- Node12&#45;&gt;Node7 -->
<g id="edge18" class="edge">
<title>Node12&#45;&gt;Node7</title>
<path fill="none" stroke="midnightblue" d="M1275.22,-225.34C1356.45,-214.38 1504.09,-194.44 1576.37,-184.69"/>
<polygon fill="midnightblue" stroke="midnightblue" points="1274.61,-221.89 1265.17,-226.7 1275.55,-228.83 1274.61,-221.89"/>
</g>
<!-- Node13 -->
<g id="node13" class="node">
<title>Node13</title>
<g id="a_node13"><a xlink:href="xform1_8c.html" target="_top" xlink:title=" ">
<polygon fill="white" stroke="black" points="1280.5,-168.5 1280.5,-187.5 1372.5,-187.5 1372.5,-168.5 1280.5,-168.5"/>
<text text-anchor="middle" x="1326.5" y="-175.5" font-family="Helvetica,sans-Serif" font-size="10.00">src/P2/xform1.c</text>
</a>
</g>
</g>
<!-- Node12&#45;&gt;Node13 -->
<g id="edge12" class="edge">
<title>Node12&#45;&gt;Node13</title>
<path fill="none" stroke="midnightblue" d="M1245.05,-219.73C1265.05,-209.73 1291.89,-196.31 1309.19,-187.65"/>
<polygon fill="midnightblue" stroke="midnightblue" points="1243.23,-216.72 1235.85,-224.32 1246.36,-222.98 1243.23,-216.72"/>
</g>
<!-- Node14 -->
<g id="node14" class="node">
<title>Node14</title>
<g id="a_node14"><a xlink:href="xform2_8c.html" target="_top" xlink:title=" ">
<polygon fill="white" stroke="black" points="1390.5,-168.5 1390.5,-187.5 1482.5,-187.5 1482.5,-168.5 1390.5,-168.5"/>
<text text-anchor="middle" x="1436.5" y="-175.5" font-family="Helvetica,sans-Serif" font-size="10.00">src/P2/xform2.c</text>
</a>
</g>
</g>
<!-- Node12&#45;&gt;Node14 -->
<g id="edge13" class="edge">
<title>Node12&#45;&gt;Node14</title>
<path fill="none" stroke="midnightblue" d="M1262.81,-222.02C1303.99,-211.82 1364.47,-196.84 1402.12,-187.52"/>
<polygon fill="midnightblue" stroke="midnightblue" points="1261.91,-218.64 1253.04,-224.44 1263.59,-225.44 1261.91,-218.64"/>
</g>
<!-- Node12&#45;&gt;Node15 -->
<g id="edge14" class="edge">
<title>Node12&#45;&gt;Node15</title>
<path fill="none" stroke="midnightblue" d="M1161.49,-229.31C1134.78,-227.62 1102.51,-225.64 1073.5,-224 758.48,-206.23 679.6,-204.29 364.5,-188 319.52,-185.67 267.89,-182.95 233.23,-181.11"/>
<polygon fill="midnightblue" stroke="midnightblue" points="1161.62,-232.83 1171.82,-229.97 1162.06,-225.84 1161.62,-232.83"/>
</g>
<!-- Node19 -->
<g id="node19" class="node">
<title>Node19</title>
<g id="a_node19"><a xlink:href="vol_8h.html" target="_top" xlink:title="Volume object.">
<polygon fill="white" stroke="black" points="1183,-168.5 1183,-187.5 1262,-187.5 1262,-168.5 1183,-168.5"/>
<text text-anchor="middle" x="1222.5" y="-175.5" font-family="Helvetica,sans-Serif" font-size="10.00">include/vol.h</text>
</a>
</g>
</g>
<!-- Node12&#45;&gt;Node19 -->
<g id="edge19" class="edge">
<title>Node12&#45;&gt;Node19</title>
<path fill="none" stroke="midnightblue" d="M1219.9,-214.1C1220.56,-205.14 1221.33,-194.86 1221.85,-187.75"/>
<polygon fill="midnightblue" stroke="midnightblue" points="1216.41,-213.85 1219.16,-224.08 1223.39,-214.37 1216.41,-213.85"/>
</g>
<!-- Node16 -->
<g id="node16" class="node">
<title>Node16</title>
<g id="a_node16"><a xlink:href="cm_8c.html" target="_top" xlink:title=" ">
<polygon fill="white" stroke="black" points="185.5,-112.5 185.5,-131.5 257.5,-131.5 257.5,-112.5 185.5,-112.5"/>
<text text-anchor="middle" x="221.5" y="-119.5" font-family="Helvetica,sans-Serif" font-size="10.00">src/P2/cm.c</text>
</a>
</g>
</g>
<!-- Node15&#45;&gt;Node16 -->
<g id="edge15" class="edge">
<title>Node15&#45;&gt;Node16</title>
<path fill="none" stroke="midnightblue" d="M202.84,-158.98C207.59,-149.82 213.16,-139.09 216.96,-131.75"/>
<polygon fill="midnightblue" stroke="midnightblue" points="199.62,-157.59 198.12,-168.08 205.83,-160.82 199.62,-157.59"/>
</g>
<!-- Node17 -->
<g id="node17" class="node">
<title>Node17</title>
<g id="a_node17"><a xlink:href="flash_8h.html" target="_top" xlink:title="Flash (might be flash animation, or literal screen flashes).">
<polygon fill="white" stroke="black" points="0,-112.5 0,-131.5 87,-131.5 87,-112.5 0,-112.5"/>
<text text-anchor="middle" x="43.5" y="-119.5" font-family="Helvetica,sans-Serif" font-size="10.00">include/flash.h</text>
</a>
</g>
</g>
<!-- Node15&#45;&gt;Node17 -->
<g id="edge16" class="edge">
<title>Node15&#45;&gt;Node17</title>
<path fill="none" stroke="midnightblue" d="M160.28,-165.04C132.05,-154.88 92.24,-140.55 67.16,-131.52"/>
<polygon fill="midnightblue" stroke="midnightblue" points="159.14,-168.35 169.73,-168.44 161.51,-161.76 159.14,-168.35"/>
</g>
<!-- Node18 -->
<g id="node18" class="node">
<title>Node18</title>
<g id="a_node18"><a xlink:href="flash_8c.html" target="_top" xlink:title=" ">
<polygon fill="white" stroke="black" points="3.5,-56.5 3.5,-75.5 83.5,-75.5 83.5,-56.5 3.5,-56.5"/>
<text text-anchor="middle" x="43.5" y="-63.5" font-family="Helvetica,sans-Serif" font-size="10.00">src/P2/flash.c</text>
</a>
</g>
</g>
<!-- Node17&#45;&gt;Node18 -->
<g id="edge17" class="edge">
<title>Node17&#45;&gt;Node18</title>
<path fill="none" stroke="midnightblue" d="M43.5,-101.8C43.5,-92.91 43.5,-82.78 43.5,-75.75"/>
<polygon fill="midnightblue" stroke="midnightblue" points="40,-102.08 43.5,-112.08 47,-102.08 40,-102.08"/>
</g>
<!-- Node20 -->
<g id="node20" class="node">
<title>Node20</title>
<g id="a_node20"><a xlink:href="chkpnt_8h.html" target="_top" xlink:title="Checkpoint system.">
<polygon fill="white" stroke="black" points="1174,-112.5 1174,-131.5 1271,-131.5 1271,-112.5 1174,-112.5"/>
<text text-anchor="middle" x="1222.5" y="-119.5" font-family="Helvetica,sans-Serif" font-size="10.00">include/chkpnt.h</text>
</a>
</g>
</g>
<!-- Node19&#45;&gt;Node20 -->
<g id="edge20" class="edge">
<title>Node19&#45;&gt;Node20</title>
<path fill="none" stroke="midnightblue" d="M1222.5,-157.8C1222.5,-148.91 1222.5,-138.78 1222.5,-131.75"/>
<polygon fill="midnightblue" stroke="midnightblue" points="1219,-158.08 1222.5,-168.08 1226,-158.08 1219,-158.08"/>
</g>
<!-- Node20&#45;&gt;Node8 -->
<g id="edge22" class="edge">
<title>Node20&#45;&gt;Node8</title>
<path fill="none" stroke="midnightblue" d="M1281.57,-111.21C1347.72,-100.26 1453.05,-82.81 1509.59,-73.44"/>
<polygon fill="midnightblue" stroke="midnightblue" points="1280.6,-107.83 1271.31,-112.92 1281.74,-114.73 1280.6,-107.83"/>
</g>
<!-- Node21 -->
<g id="node21" class="node">
<title>Node21</title>
<g id="a_node21"><a xlink:href="chkpnt_8c.html" target="_top" xlink:title=" ">
<polygon fill="white" stroke="black" points="1235.5,-56.5 1235.5,-75.5 1325.5,-75.5 1325.5,-56.5 1235.5,-56.5"/>
<text text-anchor="middle" x="1280.5" y="-63.5" font-family="Helvetica,sans-Serif" font-size="10.00">src/P2/chkpnt.c</text>
</a>
</g>
</g>
<!-- Node20&#45;&gt;Node21 -->
<g id="edge21" class="edge">
<title>Node20&#45;&gt;Node21</title>
<path fill="none" stroke="midnightblue" d="M1239.41,-105.25C1249.7,-95.67 1262.47,-83.79 1271.01,-75.83"/>
<polygon fill="midnightblue" stroke="midnightblue" points="1236.75,-102.95 1231.82,-112.32 1241.52,-108.07 1236.75,-102.95"/>
</g>
<!-- Node22 -->
<g id="node22" class="node">
<title>Node22</title>
<g id="a_node22"><a xlink:href="transition_8c.html" target="_top" xlink:title=" ">
<polygon fill="white" stroke="black" points="1113.5,-56.5 1113.5,-75.5 1217.5,-75.5 1217.5,-56.5 1113.5,-56.5"/>
<text text-anchor="middle" x="1165.5" y="-63.5" font-family="Helvetica,sans-Serif" font-size="10.00">src/P2/transition.c</text>
</a>
</g>
</g>
<!-- Node20&#45;&gt;Node22 -->
<g id="edge23" class="edge">
<title>Node20&#45;&gt;Node22</title>
<path fill="none" stroke="midnightblue" d="M1205.88,-105.25C1195.77,-95.67 1183.22,-83.79 1174.82,-75.83"/>
<polygon fill="midnightblue" stroke="midnightblue" points="1203.68,-107.99 1213.34,-112.32 1208.49,-102.91 1203.68,-107.99"/>
</g>
<!-- Node23 -->
<g id="node23" class="node">
<title>Node23</title>
<g id="a_node23"><a xlink:href="difficulty_8h.html" target="_top" xlink:title="Dynamic difficulty system.">
<polygon fill="white" stroke="black" points="594,-56.5 594,-75.5 699,-75.5 699,-56.5 594,-56.5"/>
<text text-anchor="middle" x="646.5" y="-63.5" font-family="Helvetica,sans-Serif" font-size="10.00">include/difficulty.h</text>
</a>
</g>
</g>
<!-- Node20&#45;&gt;Node23 -->
<g id="edge24" class="edge">
<title>Node20&#45;&gt;Node23</title>
<path fill="none" stroke="midnightblue" d="M1163.74,-115.49C1051.24,-104.94 807.02,-82.05 699.33,-71.95"/>
<polygon fill="midnightblue" stroke="midnightblue" points="1163.6,-118.99 1173.89,-116.44 1164.26,-112.02 1163.6,-118.99"/>
</g>
<!-- Node24 -->
<g id="node24" class="node">
<title>Node24</title>
<g id="a_node24"><a xlink:href="difficulty_8c.html" target="_top" xlink:title=" ">
<polygon fill="white" stroke="black" points="597.5,-0.5 597.5,-19.5 695.5,-19.5 695.5,-0.5 597.5,-0.5"/>
<text text-anchor="middle" x="646.5" y="-7.5" font-family="Helvetica,sans-Serif" font-size="10.00">src/P2/difficulty.c</text>
</a>
</g>
</g>
<!-- Node23&#45;&gt;Node24 -->
<g id="edge25" class="edge">
<title>Node23&#45;&gt;Node24</title>
<path fill="none" stroke="midnightblue" d="M646.5,-45.8C646.5,-36.91 646.5,-26.78 646.5,-19.75"/>
<polygon fill="midnightblue" stroke="midnightblue" points="643,-46.08 646.5,-56.08 650,-46.08 643,-46.08"/>
</g>
<!-- Node25&#45;&gt;Node9 -->
<g id="edge27" class="edge">
<title>Node25&#45;&gt;Node9</title>
<path fill="none" stroke="midnightblue" d="M1003.21,-393.33C1069.34,-382.7 1187.75,-363.67 1250.25,-353.63"/>
<polygon fill="midnightblue" stroke="midnightblue" points="1002.38,-389.92 993.07,-394.96 1003.49,-396.83 1002.38,-389.92"/>
</g>
<!-- Node26 -->
<g id="node26" class="node">
<title>Node26</title>
<g id="a_node26"><a xlink:href="po_8h.html" target="_top" xlink:title="Player object.">
<polygon fill="white" stroke="black" points="383.5,-336.5 383.5,-355.5 459.5,-355.5 459.5,-336.5 383.5,-336.5"/>
<text text-anchor="middle" x="421.5" y="-343.5" font-family="Helvetica,sans-Serif" font-size="10.00">include/po.h</text>
</a>
</g>
</g>
<!-- Node25&#45;&gt;Node26 -->
<g id="edge28" class="edge">
<title>Node25&#45;&gt;Node26</title>
<path fill="none" stroke="midnightblue" d="M907.99,-396.2C803.43,-385.62 555.1,-360.51 459.72,-350.87"/>
<polygon fill="midnightblue" stroke="midnightblue" points="907.65,-399.68 917.95,-397.2 908.35,-392.71 907.65,-399.68"/>
</g>
<!-- Node35 -->
<g id="node29" class="node">
<title>Node35</title>
<g id="a_node29"><a xlink:href="vec_8h.html" target="_top" xlink:title="Vector math.">
<polygon fill="white" stroke="black" points="891,-336.5 891,-355.5 972,-355.5 972,-336.5 891,-336.5"/>
<text text-anchor="middle" x="931.5" y="-343.5" font-family="Helvetica,sans-Serif" font-size="10.00">include/vec.h</text>
</a>
</g>
</g>
<!-- Node25&#45;&gt;Node35 -->
<g id="edge31" class="edge">
<title>Node25&#45;&gt;Node35</title>
<path fill="none" stroke="midnightblue" d="M947.36,-382.69C943.32,-373.59 938.62,-363.01 935.39,-355.75"/>
<polygon fill="midnightblue" stroke="midnightblue" points="944.28,-384.37 951.54,-392.08 950.67,-381.52 944.28,-384.37"/>
</g>
<!-- Node27 -->
<g id="node27" class="node">
<title>Node27</title>
<g id="a_node27"><a xlink:href="step_8h.html" target="_top" xlink:title=" ">
<polygon fill="white" stroke="black" points="214,-280.5 214,-299.5 299,-299.5 299,-280.5 214,-280.5"/>
<text text-anchor="middle" x="256.5" y="-287.5" font-family="Helvetica,sans-Serif" font-size="10.00">include/step.h</text>
</a>
</g>
</g>
<!-- Node26&#45;&gt;Node27 -->
<g id="edge29" class="edge">
<title>Node26&#45;&gt;Node27</title>
<path fill="none" stroke="midnightblue" d="M385.76,-333.3C354.67,-323.13 310.35,-308.62 282.52,-299.52"/>
<polygon fill="midnightblue" stroke="midnightblue" points="384.76,-336.66 395.36,-336.44 386.94,-330.01 384.76,-336.66"/>
</g>
<!-- Node28 -->
<g id="node28" class="node">
<title>Node28</title>
<g id="a_node28"><a xlink:href="jt_8h.html" target="_top" xlink:title="Sly entity.">
<polygon fill="white" stroke="red" points="51,-224.5 51,-243.5 122,-243.5 122,-224.5 51,-224.5"/>
<text text-anchor="middle" x="86.5" y="-231.5" font-family="Helvetica,sans-Serif" font-size="10.00">include/jt.h</text>
</a>
</g>
</g>
<!-- Node27&#45;&gt;Node28 -->
<g id="edge30" class="edge">
<title>Node27&#45;&gt;Node28</title>
<path fill="none" stroke="midnightblue" d="M219.68,-277.3C187.65,-267.13 141.98,-252.62 113.31,-243.52"/>
<polygon fill="midnightblue" stroke="midnightblue" points="218.97,-280.75 229.56,-280.44 221.09,-274.08 218.97,-280.75"/>
</g>
<!-- Node35&#45;&gt;Node20 -->
<g id="edge39" class="edge">
<title>Node35&#45;&gt;Node20</title>
<path fill="none" stroke="midnightblue" d="M926.96,-326.05C919.55,-290.03 909.52,-211.39 950.5,-168 980.24,-136.51 1103.9,-127.05 1173.8,-124.22"/>
<polygon fill="midnightblue" stroke="midnightblue" points="923.61,-327.15 929.2,-336.15 930.45,-325.63 923.61,-327.15"/>
</g>
<!-- Node36 -->
<g id="node30" class="node">
<title>Node36</title>
<g id="a_node30"><a xlink:href="util_8c.html" target="_top" xlink:title=" ">
<polygon fill="white" stroke="black" points="738,-224.5 738,-243.5 811,-243.5 811,-224.5 738,-224.5"/>
<text text-anchor="middle" x="774.5" y="-231.5" font-family="Helvetica,sans-Serif" font-size="10.00">src/P2/util.c</text>
</a>
</g>
</g>
<!-- Node35&#45;&gt;Node36 -->
<g id="edge32" class="edge">
<title>Node35&#45;&gt;Node36</title>
<path fill="none" stroke="midnightblue" d="M910.69,-330.42C877.48,-307.15 813.54,-262.35 786.76,-243.59"/>
<polygon fill="midnightblue" stroke="midnightblue" points="908.98,-333.5 919.18,-336.37 913,-327.76 908.98,-333.5"/>
</g>
<!-- Node37 -->
<g id="node31" class="node">
<title>Node37</title>
<g id="a_node31"><a xlink:href="vec_8c.html" target="_top" xlink:title=" ">
<polygon fill="white" stroke="black" points="829.5,-224.5 829.5,-243.5 903.5,-243.5 903.5,-224.5 829.5,-224.5"/>
<text text-anchor="middle" x="866.5" y="-231.5" font-family="Helvetica,sans-Serif" font-size="10.00">src/P2/vec.c</text>
</a>
</g>
</g>
<!-- Node35&#45;&gt;Node37 -->
<g id="edge33" class="edge">
<title>Node35&#45;&gt;Node37</title>
<path fill="none" stroke="midnightblue" d="M921.24,-327.64C907.12,-303.74 882.24,-261.63 871.58,-243.59"/>
<polygon fill="midnightblue" stroke="midnightblue" points="918.3,-329.54 926.4,-336.37 924.33,-325.98 918.3,-329.54"/>
</g>
<!-- Node38 -->
<g id="node32" class="node">
<title>Node38</title>
<g id="a_node32"><a xlink:href="bis_8h.html" target="_top" xlink:title="Binary Input Stream.">
<polygon fill="white" stroke="black" points="1381.5,-280.5 1381.5,-299.5 1459.5,-299.5 1459.5,-280.5 1381.5,-280.5"/>
<text text-anchor="middle" x="1420.5" y="-287.5" font-family="Helvetica,sans-Serif" font-size="10.00">include/bis.h</text>
</a>
</g>
</g>
<!-- Node35&#45;&gt;Node38 -->
<g id="edge34" class="edge">
<title>Node35&#45;&gt;Node38</title>
<path fill="none" stroke="midnightblue" d="M982.31,-339.39C1080.34,-328.56 1293.61,-305.01 1381.47,-295.31"/>
<polygon fill="midnightblue" stroke="midnightblue" points="981.91,-335.91 972.35,-340.49 982.67,-342.87 981.91,-335.91"/>
</g>
<!-- Node40 -->
<g id="node34" class="node">
<title>Node40</title>
<g id="a_node34"><a xlink:href="shd_8h.html" target="_top" xlink:title="Shaders.">
<polygon fill="white" stroke="black" points="983,-224.5 983,-243.5 1064,-243.5 1064,-224.5 983,-224.5"/>
<text text-anchor="middle" x="1023.5" y="-231.5" font-family="Helvetica,sans-Serif" font-size="10.00">include/shd.h</text>
</a>
</g>
</g>
<!-- Node35&#45;&gt;Node40 -->
<g id="edge40" class="edge">
<title>Node35&#45;&gt;Node40</title>
<path fill="none" stroke="midnightblue" d="M945.23,-328.59C965.06,-304.87 1001.03,-261.87 1016.31,-243.59"/>
<polygon fill="midnightblue" stroke="midnightblue" points="942.45,-326.45 938.72,-336.37 947.82,-330.94 942.45,-326.45"/>
</g>
<!-- Node50 -->
<g id="node37" class="node">
<title>Node50</title>
<g id="a_node37"><a xlink:href="vecmat_8h.html" target="_top" xlink:title=" ">
<polygon fill="white" stroke="black" points="461.5,-224.5 461.5,-243.5 593.5,-243.5 593.5,-224.5 461.5,-224.5"/>
<text text-anchor="middle" x="527.5" y="-231.5" font-family="Helvetica,sans-Serif" font-size="10.00">include/splice/vecmat.h</text>
</a>
</g>
</g>
<!-- Node35&#45;&gt;Node50 -->
<g id="edge43" class="edge">
<title>Node35&#45;&gt;Node50</title>
<path fill="none" stroke="midnightblue" d="M890.3,-333.78C809.33,-311.74 631.1,-263.21 558.85,-243.53"/>
<polygon fill="midnightblue" stroke="midnightblue" points="889.57,-337.21 900.13,-336.46 891.41,-330.46 889.57,-337.21"/>
</g>
<!-- Node54 -->
<g id="node41" class="node">
<title>Node54</title>
<g id="a_node41"><a xlink:href="surf_8h.html" target="_top" xlink:title="Surfaces?">
<polygon fill="white" stroke="black" points="997.5,-280.5 997.5,-299.5 1079.5,-299.5 1079.5,-280.5 997.5,-280.5"/>
<text text-anchor="middle" x="1038.5" y="-287.5" font-family="Helvetica,sans-Serif" font-size="10.00">include/surf.h</text>
</a>
</g>
</g>
<!-- Node35&#45;&gt;Node54 -->
<g id="edge47" class="edge">
<title>Node35&#45;&gt;Node54</title>
<path fill="none" stroke="midnightblue" d="M957.8,-331.73C977.61,-321.73 1004.21,-308.31 1021.35,-299.65"/>
<polygon fill="midnightblue" stroke="midnightblue" points="956.04,-328.69 948.69,-336.32 959.2,-334.94 956.04,-328.69"/>
</g>
<!-- Node55 -->
<g id="node42" class="node">
<title>Node55</title>
<g id="a_node42"><a xlink:href="util_8h.html" target="_top" xlink:title="Utility functions.">
<polygon fill="white" stroke="black" points="534.5,-280.5 534.5,-299.5 614.5,-299.5 614.5,-280.5 534.5,-280.5"/>
<text text-anchor="middle" x="574.5" y="-287.5" font-family="Helvetica,sans-Serif" font-size="10.00">include/util.h</text>
</a>
</g>
</g>
<!-- Node35&#45;&gt;Node55 -->
<g id="edge50" class="edge">
<title>Node35&#45;&gt;Node55</title>
<path fill="none" stroke="midnightblue" d="M880.76,-337.32C809.12,-326.49 679.81,-306.93 614.52,-297.05"/>
<polygon fill="midnightblue" stroke="midnightblue" points="880.48,-340.82 890.9,-338.86 881.53,-333.9 880.48,-340.82"/>
</g>
<!-- Node38&#45;&gt;Node8 -->
<g id="edge36" class="edge">
<title>Node38&#45;&gt;Node8</title>
<path fill="none" stroke="midnightblue" d="M1460.11,-277.36C1487.56,-268.45 1520.7,-255.75 1529.5,-244 1568.98,-191.32 1555.91,-103.77 1550.41,-75.84"/>
<polygon fill="midnightblue" stroke="midnightblue" points="1458.79,-274.1 1450.31,-280.46 1460.9,-280.78 1458.79,-274.1"/>
</g>
<!-- Node38&#45;&gt;Node12 -->
<g id="edge38" class="edge">
<title>Node38&#45;&gt;Node12</title>
<path fill="none" stroke="midnightblue" d="M1378.71,-277.83C1340.57,-267.63 1285.02,-252.78 1250.36,-243.52"/>
<polygon fill="midnightblue" stroke="midnightblue" points="1377.93,-281.24 1388.49,-280.44 1379.74,-274.48 1377.93,-281.24"/>
</g>
<!-- Node38&#45;&gt;Node20 -->
<g id="edge37" class="edge">
<title>Node38&#45;&gt;Node20</title>
<path fill="none" stroke="midnightblue" d="M1423,-269.94C1425.57,-256.14 1430.65,-237.59 1440.5,-224 1460.26,-196.75 1513.25,-193.69 1491.5,-168 1463.81,-135.29 1340.8,-126.34 1271.11,-123.9"/>
<polygon fill="midnightblue" stroke="midnightblue" points="1419.48,-269.78 1421.39,-280.21 1426.4,-270.87 1419.48,-269.78"/>
</g>
<!-- Node39 -->
<g id="node33" class="node">
<title>Node39</title>
<g id="a_node33"><a xlink:href="bis_8c.html" target="_top" xlink:title=" ">
<polygon fill="white" stroke="black" points="1449,-224.5 1449,-243.5 1520,-243.5 1520,-224.5 1449,-224.5"/>
<text text-anchor="middle" x="1484.5" y="-231.5" font-family="Helvetica,sans-Serif" font-size="10.00">src/P2/bis.c</text>
</a>
</g>
</g>
<!-- Node38&#45;&gt;Node39 -->
<g id="edge35" class="edge">
<title>Node38&#45;&gt;Node39</title>
<path fill="none" stroke="midnightblue" d="M1438.49,-273.82C1449.96,-264.15 1464.41,-251.95 1474.03,-243.83"/>
<polygon fill="midnightblue" stroke="midnightblue" points="1436.17,-271.2 1430.78,-280.32 1440.68,-276.55 1436.17,-271.2"/>
</g>
<!-- Node41 -->
<g id="node35" class="node">
<title>Node41</title>
<g id="a_node35"><a xlink:href="dmas_8h.html" target="_top" xlink:title="Direct memory access.">
<polygon fill="white" stroke="red" points="1074,-168.5 1074,-187.5 1165,-187.5 1165,-168.5 1074,-168.5"/>
<text text-anchor="middle" x="1119.5" y="-175.5" font-family="Helvetica,sans-Serif" font-size="10.00">include/dmas.h</text>
</a>
</g>
</g>
<!-- Node40&#45;&gt;Node41 -->
<g id="edge41" class="edge">
<title>Node40&#45;&gt;Node41</title>
<path fill="none" stroke="midnightblue" d="M1048.07,-219.18C1065.74,-209.24 1089.01,-196.15 1104.11,-187.65"/>
<polygon fill="midnightblue" stroke="midnightblue" points="1045.92,-216.37 1038.92,-224.32 1049.36,-222.47 1045.92,-216.37"/>
</g>
<!-- Node43 -->
<g id="node36" class="node">
<title>Node43</title>
<g id="a_node36"><a xlink:href="screen_8h.html" target="_top" xlink:title="GUI elements.">
<polygon fill="white" stroke="red" points="959.5,-168.5 959.5,-187.5 1055.5,-187.5 1055.5,-168.5 959.5,-168.5"/>
<text text-anchor="middle" x="1007.5" y="-175.5" font-family="Helvetica,sans-Serif" font-size="10.00">include/screen.h</text>
</a>
</g>
</g>
<!-- Node40&#45;&gt;Node43 -->
<g id="edge42" class="edge">
<title>Node40&#45;&gt;Node43</title>
<path fill="none" stroke="midnightblue" d="M1017.99,-214.4C1015.31,-205.36 1012.22,-194.94 1010.09,-187.75"/>
<polygon fill="midnightblue" stroke="midnightblue" points="1014.66,-215.49 1020.86,-224.08 1021.37,-213.5 1014.66,-215.49"/>
</g>
<!-- Node51 -->
<g id="node38" class="node">
<title>Node51</title>
<g id="a_node38"><a xlink:href="ref_8cpp.html" target="_top" xlink:title=" ">
<polygon fill="white" stroke="black" points="528,-168.5 528,-187.5 641,-187.5 641,-168.5 528,-168.5"/>
<text text-anchor="middle" x="584.5" y="-175.5" font-family="Helvetica,sans-Serif" font-size="10.00">src/P2/splice/ref.cpp</text>
</a>
</g>
</g>
<!-- Node50&#45;&gt;Node51 -->
<g id="edge44" class="edge">
<title>Node50&#45;&gt;Node51</title>
<path fill="none" stroke="midnightblue" d="M544.12,-217.25C554.23,-207.67 566.78,-195.79 575.18,-187.83"/>
<polygon fill="midnightblue" stroke="midnightblue" points="541.51,-214.91 536.66,-224.32 546.32,-219.99 541.51,-214.91"/>
</g>
<!-- Node52 -->
<g id="node39" class="node">
<title>Node52</title>
<g id="a_node39"><a xlink:href="spliceutils_8cpp.html" target="_top" xlink:title=" ">
<polygon fill="white" stroke="black" points="411.5,-112.5 411.5,-131.5 561.5,-131.5 561.5,-112.5 411.5,-112.5"/>
<text text-anchor="middle" x="486.5" y="-119.5" font-family="Helvetica,sans-Serif" font-size="10.00">src/P2/splice/spliceutils.cpp</text>
</a>
</g>
</g>
<!-- Node50&#45;&gt;Node52 -->
<g id="edge45" class="edge">
<title>Node50&#45;&gt;Node52</title>
<path fill="none" stroke="midnightblue" d="M459.15,-222.61C420,-215.11 376.34,-203.56 364.5,-188 341.97,-158.4 391.44,-140.82 433.99,-131.55"/>
<polygon fill="midnightblue" stroke="midnightblue" points="458.51,-226.05 468.98,-224.43 459.79,-219.17 458.51,-226.05"/>
</g>
<!-- Node53 -->
<g id="node40" class="node">
<title>Node53</title>
<g id="a_node40"><a xlink:href="vecmat_8cpp.html" target="_top" xlink:title=" ">
<polygon fill="white" stroke="black" points="373,-168.5 373,-187.5 510,-187.5 510,-168.5 373,-168.5"/>
<text text-anchor="middle" x="441.5" y="-175.5" font-family="Helvetica,sans-Serif" font-size="10.00">src/P2/splice/vecmat.cpp</text>
</a>
</g>
</g>
<!-- Node50&#45;&gt;Node53 -->
<g id="edge46" class="edge">
<title>Node50&#45;&gt;Node53</title>
<path fill="none" stroke="midnightblue" d="M505.05,-218.9C489.28,-209 468.69,-196.07 455.28,-187.65"/>
<polygon fill="midnightblue" stroke="midnightblue" points="503.35,-221.97 513.68,-224.32 507.07,-216.04 503.35,-221.97"/>
</g>
<!-- Node54&#45;&gt;Node12 -->
<g id="edge49" class="edge">
<title>Node54&#45;&gt;Node12</title>
<path fill="none" stroke="midnightblue" d="M1076.61,-277.57C1110.56,-267.38 1159.49,-252.7 1190.11,-243.52"/>
<polygon fill="midnightblue" stroke="midnightblue" points="1075.59,-274.22 1067.02,-280.44 1077.61,-280.92 1075.59,-274.22"/>
</g>
<!-- Node54&#45;&gt;Node40 -->
<g id="edge48" class="edge">
<title>Node54&#45;&gt;Node40</title>
<path fill="none" stroke="midnightblue" d="M1033.33,-270.4C1030.82,-261.36 1027.93,-250.94 1025.93,-243.75"/>
<polygon fill="midnightblue" stroke="midnightblue" points="1029.97,-271.38 1036.02,-280.08 1036.72,-269.51 1029.97,-271.38"/>
</g>
<!-- Node55&#45;&gt;Node12 -->
<g id="edge66" class="edge">
<title>Node55&#45;&gt;Node12</title>
<path fill="none" stroke="midnightblue" d="M624.93,-284.77C746.47,-274.58 1054.23,-248.77 1171.83,-238.91"/>
<polygon fill="midnightblue" stroke="midnightblue" points="624.46,-281.3 614.79,-285.62 625.04,-288.27 624.46,-281.3"/>
</g>
<!-- Node55&#45;&gt;Node15 -->
<g id="edge54" class="edge">
<title>Node55&#45;&gt;Node15</title>
<path fill="none" stroke="midnightblue" d="M524.5,-282.48C447.69,-272.28 307.21,-252.79 285.5,-244 251.78,-230.35 218.5,-202.22 202.81,-187.86"/>
<polygon fill="midnightblue" stroke="midnightblue" points="524.07,-285.96 534.45,-283.8 524.99,-279.02 524.07,-285.96"/>
</g>
<!-- Node55&#45;&gt;Node16 -->
<g id="edge51" class="edge">
<title>Node55&#45;&gt;Node16</title>
<path fill="none" stroke="midnightblue" d="M524.22,-282.06C454.99,-272.2 336.86,-254.23 319.5,-244 271.52,-215.74 237.3,-154.61 225.76,-131.81"/>
<polygon fill="midnightblue" stroke="midnightblue" points="524.08,-285.57 534.47,-283.51 525.06,-278.64 524.08,-285.57"/>
</g>
<!-- Node55&#45;&gt;Node23 -->
<g id="edge55" class="edge">
<title>Node55&#45;&gt;Node23</title>
<path fill="none" stroke="midnightblue" d="M537.68,-277.2C513.13,-268.9 480.37,-257 452.5,-244 446.82,-241.35 357.65,-193.42 354.5,-188 350.04,-180.31 351.42,-176.34 354.5,-168 365.87,-137.26 374.09,-128.35 402.5,-112 461.86,-77.83 541.61,-68.75 593.52,-66.77"/>
<polygon fill="midnightblue" stroke="midnightblue" points="536.73,-280.57 547.32,-280.42 538.95,-273.93 536.73,-280.57"/>
</g>
<!-- Node55&#45;&gt;Node36 -->
<g id="edge52" class="edge">
<title>Node55&#45;&gt;Node36</title>
<path fill="none" stroke="midnightblue" d="M615.87,-277.83C653.64,-267.63 708.64,-252.78 742.96,-243.52"/>
<polygon fill="midnightblue" stroke="midnightblue" points="614.93,-274.46 606.19,-280.44 616.76,-281.22 614.93,-274.46"/>
</g>
<!-- Node55&#45;&gt;Node37 -->
<g id="edge53" class="edge">
<title>Node55&#45;&gt;Node37</title>
<path fill="none" stroke="midnightblue" d="M624.44,-280.05C674.16,-271.1 752.65,-256.84 820.5,-244 823.38,-243.46 826.36,-242.89 829.35,-242.31"/>
<polygon fill="midnightblue" stroke="midnightblue" points="623.8,-276.61 614.58,-281.82 625.04,-283.5 623.8,-276.61"/>
</g>
<!-- Node55&#45;&gt;Node50 -->
<g id="edge65" class="edge">
<title>Node55&#45;&gt;Node50</title>
<path fill="none" stroke="midnightblue" d="M560.08,-272.43C551.84,-262.97 541.85,-251.48 535.12,-243.75"/>
<polygon fill="midnightblue" stroke="midnightblue" points="557.53,-274.84 566.74,-280.08 562.81,-270.24 557.53,-274.84"/>
</g>
<!-- Node56 -->
<g id="node43" class="node">
<title>Node56</title>
<g id="a_node43"><a xlink:href="joy_8h.html" target="_top" xlink:title="Joypad manager.">
<polygon fill="white" stroke="red" points="328,-224.5 328,-243.5 405,-243.5 405,-224.5 328,-224.5"/>
<text text-anchor="middle" x="366.5" y="-231.5" font-family="Helvetica,sans-Serif" font-size="10.00">include/joy.h</text>
</a>
</g>
</g>
<!-- Node55&#45;&gt;Node56 -->
<g id="edge56" class="edge">
<title>Node55&#45;&gt;Node56</title>
<path fill="none" stroke="midnightblue" d="M531.72,-277.89C492.44,-267.7 435.07,-252.8 399.3,-243.52"/>
<polygon fill="midnightblue" stroke="midnightblue" points="530.98,-281.32 541.54,-280.44 532.74,-274.54 530.98,-281.32"/>
</g>
<!-- Node55&#45;&gt;Node58 -->
<g id="edge57" class="edge">
<title>Node55&#45;&gt;Node58</title>
<path fill="none" stroke="midnightblue" d="M524.22,-282.23C460,-273.56 345.44,-257.96 247.5,-244 242.84,-243.34 237.97,-242.63 233.12,-241.93"/>
<polygon fill="midnightblue" stroke="midnightblue" points="524.08,-285.75 534.46,-283.62 525.02,-278.81 524.08,-285.75"/>
</g>
<!-- Node55&#45;&gt;Node59 -->
<g id="edge59" class="edge">
<title>Node55&#45;&gt;Node59</title>
<path fill="none" stroke="midnightblue" d="M597.79,-275.18C614.54,-265.24 636.6,-252.15 650.92,-243.65"/>
<polygon fill="midnightblue" stroke="midnightblue" points="595.93,-272.21 589.12,-280.32 599.51,-278.23 595.93,-272.21"/>
</g>
<!-- Node58&#45;&gt;Node15 -->
<g id="edge58" class="edge">
<title>Node58&#45;&gt;Node15</title>
<path fill="none" stroke="midnightblue" d="M188.95,-214.1C190.11,-205.14 191.44,-194.86 192.37,-187.75"/>
<polygon fill="midnightblue" stroke="midnightblue" points="185.47,-213.72 187.66,-224.08 192.41,-214.62 185.47,-213.72"/>
</g>
<!-- Node59&#45;&gt;Node51 -->
<g id="edge61" class="edge">
<title>Node59&#45;&gt;Node51</title>
<path fill="none" stroke="midnightblue" d="M643.93,-218.62C629.14,-208.76 609.99,-195.99 597.48,-187.65"/>
<polygon fill="midnightblue" stroke="midnightblue" points="642.22,-221.69 652.49,-224.32 646.11,-215.86 642.22,-221.69"/>
</g>
<!-- Node60 -->
<g id="node46" class="node">
<title>Node60</title>
<g id="a_node46"><a xlink:href="bif_8cpp.html" target="_top" xlink:title=" ">
<polygon fill="white" stroke="black" points="790,-168.5 790,-187.5 903,-187.5 903,-168.5 790,-168.5"/>
<text text-anchor="middle" x="846.5" y="-175.5" font-family="Helvetica,sans-Serif" font-size="10.00">src/P2/splice/bif.cpp</text>
</a>
</g>
</g>
<!-- Node59&#45;&gt;Node60 -->
<g id="edge60" class="edge">
<title>Node59&#45;&gt;Node60</title>
<path fill="none" stroke="midnightblue" d="M703.82,-221.57C737.96,-211.38 787.16,-196.7 817.95,-187.52"/>
<polygon fill="midnightblue" stroke="midnightblue" points="702.76,-218.23 694.18,-224.44 704.76,-224.94 702.76,-218.23"/>
</g>
<!-- Node61 -->
<g id="node47" class="node">
<title>Node61</title>
<g id="a_node47"><a xlink:href="pair_8h.html" target="_top" xlink:title=" ">
<polygon fill="white" stroke="black" points="659,-168.5 659,-187.5 772,-187.5 772,-168.5 659,-168.5"/>
<text text-anchor="middle" x="715.5" y="-175.5" font-family="Helvetica,sans-Serif" font-size="10.00">include/splice/pair.h</text>
</a>
</g>
</g>
<!-- Node59&#45;&gt;Node61 -->
<g id="edge62" class="edge">
<title>Node59&#45;&gt;Node61</title>
<path fill="none" stroke="midnightblue" d="M680.58,-216.72C689.39,-207.2 700.17,-195.56 707.4,-187.75"/>
<polygon fill="midnightblue" stroke="midnightblue" points="677.98,-214.37 673.76,-224.08 683.12,-219.12 677.98,-214.37"/>
</g>
<!-- Node61&#45;&gt;Node52 -->
<g id="edge64" class="edge">
<title>Node61&#45;&gt;Node52</title>
<path fill="none" stroke="midnightblue" d="M669.23,-166.09C625.96,-155.89 562.24,-140.86 522.62,-131.52"/>
<polygon fill="midnightblue" stroke="midnightblue" points="668.68,-169.55 679.21,-168.44 670.28,-162.74 668.68,-169.55"/>
</g>
<!-- Node62 -->
<g id="node48" class="node">
<title>Node62</title>
<g id="a_node48"><a xlink:href="pair_8cpp.html" target="_top" xlink:title=" ">
<polygon fill="white" stroke="black" points="656,-112.5 656,-131.5 775,-131.5 775,-112.5 656,-112.5"/>
<text text-anchor="middle" x="715.5" y="-119.5" font-family="Helvetica,sans-Serif" font-size="10.00">src/P2/splice/pair.cpp</text>
</a>
</g>
</g>
<!-- Node61&#45;&gt;Node62 -->
<g id="edge63" class="edge">
<title>Node61&#45;&gt;Node62</title>
<path fill="none" stroke="midnightblue" d="M715.5,-157.8C715.5,-148.91 715.5,-138.78 715.5,-131.75"/>
<polygon fill="midnightblue" stroke="midnightblue" points="712,-158.08 715.5,-168.08 719,-158.08 712,-158.08"/>
</g>
<!-- Node63&#45;&gt;Node12 -->
<g id="edge74" class="edge">
<title>Node63&#45;&gt;Node12</title>
<path fill="none" stroke="midnightblue" d="M647.65,-400.74C724.18,-399.02 866.21,-390.86 981.5,-356 987.41,-354.21 1149.05,-270.86 1201.93,-243.56"/>
<polygon fill="midnightblue" stroke="midnightblue" points="647.22,-397.25 637.29,-400.95 647.36,-404.25 647.22,-397.25"/>
</g>
<!-- Node64 -->
<g id="node50" class="node">
<title>Node64</title>
<g id="a_node50"><a xlink:href="sm_8h.html" target="_top" xlink:title="State machines.">
<polygon fill="white" stroke="black" points="544,-336.5 544,-355.5 623,-355.5 623,-336.5 544,-336.5"/>
<text text-anchor="middle" x="583.5" y="-343.5" font-family="Helvetica,sans-Serif" font-size="10.00">include/sm.h</text>
</a>
</g>
</g>
<!-- Node63&#45;&gt;Node64 -->
<g id="edge70" class="edge">
<title>Node63&#45;&gt;Node64</title>
<path fill="none" stroke="midnightblue" d="M589.35,-382.1C587.86,-373.14 586.14,-362.86 584.96,-355.75"/>
<polygon fill="midnightblue" stroke="midnightblue" points="585.92,-382.79 591.01,-392.08 592.82,-381.64 585.92,-382.79"/>
</g>
<!-- Node64&#45;&gt;Node7 -->
<g id="edge71" class="edge">
<title>Node64&#45;&gt;Node7</title>
<path fill="none" stroke="midnightblue" d="M633.21,-343.14C814.03,-336.27 1428.35,-312.16 1468.5,-300 1515.04,-285.91 1525.26,-275.27 1562.5,-244 1583.26,-226.57 1602.81,-201.07 1612.37,-187.78"/>
<polygon fill="midnightblue" stroke="midnightblue" points="633.04,-339.64 623.18,-343.52 633.3,-346.64 633.04,-339.64"/>
</g>
<!-- Node64&#45;&gt;Node17 -->
<g id="edge72" class="edge">
<title>Node64&#45;&gt;Node17</title>
<path fill="none" stroke="midnightblue" d="M533.92,-340.41C446.15,-332.06 266.87,-313.97 205.5,-300 130.4,-282.91 86.31,-306.65 41.5,-244 16.57,-209.14 32.64,-153 40.2,-131.63"/>
<polygon fill="midnightblue" stroke="midnightblue" points="533.62,-343.89 543.91,-341.35 534.28,-336.93 533.62,-343.89"/>
</g>
<!-- Node64&#45;&gt;Node55 -->
<g id="edge73" class="edge">
<title>Node64&#45;&gt;Node55</title>
<path fill="none" stroke="midnightblue" d="M580.35,-326.1C578.86,-317.14 577.14,-306.86 575.96,-299.75"/>
<polygon fill="midnightblue" stroke="midnightblue" points="576.92,-326.79 582.01,-336.08 583.82,-325.64 576.92,-326.79"/>
</g>
</g>
</svg>
