<?xml version="1.0" encoding="UTF-8" standalone="no"?>
<!DOCTYPE svg PUBLIC "-//W3C//DTD SVG 1.1//EN"
 "http://www.w3.org/Graphics/SVG/1.1/DTD/svg11.dtd">
<!-- Generated by graphviz version 2.43.0 (0)
 -->
<!-- Title: include/splice/sidebag.h Pages: 1 -->
<svg width="1494pt" height="924pt"
 viewBox="0.00 0.00 1494.00 924.00" xmlns="http://www.w3.org/2000/svg" xmlns:xlink="http://www.w3.org/1999/xlink">
<g id="graph0" class="graph" transform="scale(1 1) rotate(0) translate(4 920)">
<title>include/splice/sidebag.h</title>
<polygon fill="white" stroke="transparent" points="-4,4 -4,-920 1490,-920 1490,4 -4,4"/>
<!-- Node1 -->
<g id="node1" class="node">
<title>Node1</title>
<g id="a_node1"><a xlink:title="Sidebag for splice.">
<polygon fill="#bfbfbf" stroke="black" points="1299,-896.5 1299,-915.5 1433,-915.5 1433,-896.5 1299,-896.5"/>
<text text-anchor="middle" x="1366" y="-903.5" font-family="Helvetica,sans-Serif" font-size="10.00">include/splice/sidebag.h</text>
</a>
</g>
</g>
<!-- Node2 -->
<g id="node2" class="node">
<title>Node2</title>
<g id="a_node2"><a xlink:href="basic_8h.html" target="_top" xlink:title="Basic object.">
<polygon fill="white" stroke="black" points="1321.5,-840.5 1321.5,-859.5 1410.5,-859.5 1410.5,-840.5 1321.5,-840.5"/>
<text text-anchor="middle" x="1366" y="-847.5" font-family="Helvetica,sans-Serif" font-size="10.00">include/basic.h</text>
</a>
</g>
</g>
<!-- Node1&#45;&gt;Node2 -->
<g id="edge1" class="edge">
<title>Node1&#45;&gt;Node2</title>
<path fill="none" stroke="midnightblue" d="M1366,-885.8C1366,-876.91 1366,-866.78 1366,-859.75"/>
<polygon fill="midnightblue" stroke="midnightblue" points="1362.5,-886.08 1366,-896.08 1369.5,-886.08 1362.5,-886.08"/>
</g>
<!-- Node3 -->
<g id="node3" class="node">
<title>Node3</title>
<g id="a_node3"><a xlink:href="lo_8h.html" target="_top" xlink:title="Level objects.">
<polygon fill="white" stroke="black" points="1210.5,-784.5 1210.5,-803.5 1283.5,-803.5 1283.5,-784.5 1210.5,-784.5"/>
<text text-anchor="middle" x="1247" y="-791.5" font-family="Helvetica,sans-Serif" font-size="10.00">include/lo.h</text>
</a>
</g>
</g>
<!-- Node2&#45;&gt;Node3 -->
<g id="edge2" class="edge">
<title>Node2&#45;&gt;Node3</title>
<path fill="none" stroke="midnightblue" d="M1337.86,-836.23C1315.6,-826.13 1285.14,-812.31 1265.77,-803.52"/>
<polygon fill="midnightblue" stroke="midnightblue" points="1336.59,-839.5 1347.14,-840.44 1339.48,-833.12 1336.59,-839.5"/>
</g>
<!-- Node50 -->
<g id="node47" class="node">
<title>Node50</title>
<g id="a_node47"><a xlink:href="ref_8h.html" target="_top" xlink:title=" ">
<polygon fill="white" stroke="black" points="1312,-224.5 1312,-243.5 1420,-243.5 1420,-224.5 1312,-224.5"/>
<text text-anchor="middle" x="1366" y="-231.5" font-family="Helvetica,sans-Serif" font-size="10.00">include/splice/ref.h</text>
</a>
</g>
</g>
<!-- Node2&#45;&gt;Node50 -->
<g id="edge77" class="edge">
<title>Node2&#45;&gt;Node50</title>
<path fill="none" stroke="midnightblue" d="M1397.81,-836.24C1433.36,-819.62 1486,-786.92 1486,-739 1486,-739 1486,-739 1486,-345 1486,-292.57 1422.99,-258.37 1388.29,-243.5"/>
<polygon fill="midnightblue" stroke="midnightblue" points="1395.99,-833.22 1388.29,-840.5 1398.85,-839.6 1395.99,-833.22"/>
</g>
<!-- Node4 -->
<g id="node4" class="node">
<title>Node4</title>
<g id="a_node4"><a xlink:href="alo_8h.html" target="_top" xlink:title=" ">
<polygon fill="white" stroke="black" points="873.5,-728.5 873.5,-747.5 952.5,-747.5 952.5,-728.5 873.5,-728.5"/>
<text text-anchor="middle" x="913" y="-735.5" font-family="Helvetica,sans-Serif" font-size="10.00">include/alo.h</text>
</a>
</g>
</g>
<!-- Node3&#45;&gt;Node4 -->
<g id="edge3" class="edge">
<title>Node3&#45;&gt;Node4</title>
<path fill="none" stroke="midnightblue" d="M1200.17,-785.43C1134.05,-774.74 1014.53,-755.42 952.6,-745.4"/>
<polygon fill="midnightblue" stroke="midnightblue" points="1199.87,-788.93 1210.3,-787.07 1200.99,-782.02 1199.87,-788.93"/>
</g>
<!-- Node13 -->
<g id="node13" class="node">
<title>Node13</title>
<g id="a_node13"><a xlink:href="cm_8h.html" target="_top" xlink:title="Game camera.">
<polygon fill="white" stroke="black" points="1131.5,-168.5 1131.5,-187.5 1210.5,-187.5 1210.5,-168.5 1131.5,-168.5"/>
<text text-anchor="middle" x="1171" y="-175.5" font-family="Helvetica,sans-Serif" font-size="10.00">include/cm.h</text>
</a>
</g>
</g>
<!-- Node3&#45;&gt;Node13 -->
<g id="edge76" class="edge">
<title>Node3&#45;&gt;Node13</title>
<path fill="none" stroke="midnightblue" d="M1256.86,-775.43C1267.82,-754.21 1284,-717.11 1284,-683 1284,-683 1284,-683 1284,-289 1284,-237.8 1223.7,-202.71 1191.2,-187.51"/>
<polygon fill="midnightblue" stroke="midnightblue" points="1253.64,-774.02 1251.99,-784.49 1259.81,-777.34 1253.64,-774.02"/>
</g>
<!-- Node52 -->
<g id="node49" class="node">
<title>Node52</title>
<g id="a_node49"><a xlink:href="anim_8h.html" target="_top" xlink:title="Animation.">
<polygon fill="white" stroke="black" points="1032.5,-392.5 1032.5,-411.5 1121.5,-411.5 1121.5,-392.5 1032.5,-392.5"/>
<text text-anchor="middle" x="1077" y="-399.5" font-family="Helvetica,sans-Serif" font-size="10.00">include/anim.h</text>
</a>
</g>
</g>
<!-- Node3&#45;&gt;Node52 -->
<g id="edge70" class="edge">
<title>Node3&#45;&gt;Node52</title>
<path fill="none" stroke="midnightblue" d="M1232.16,-776.74C1201.92,-741.84 1136,-656.01 1136,-571 1136,-571 1136,-571 1136,-513 1136,-470.74 1101.77,-429.04 1085.45,-411.56"/>
<polygon fill="midnightblue" stroke="midnightblue" points="1229.77,-779.31 1239.02,-784.48 1235.01,-774.67 1229.77,-779.31"/>
</g>
<!-- Node5 -->
<g id="node5" class="node">
<title>Node5</title>
<g id="a_node5"><a xlink:href="coin_8h.html" target="_top" xlink:title="Coins, keys, and other collectibles.">
<polygon fill="white" stroke="black" points="423,-168.5 423,-187.5 507,-187.5 507,-168.5 423,-168.5"/>
<text text-anchor="middle" x="465" y="-175.5" font-family="Helvetica,sans-Serif" font-size="10.00">include/coin.h</text>
</a>
</g>
</g>
<!-- Node4&#45;&gt;Node5 -->
<g id="edge4" class="edge">
<title>Node4&#45;&gt;Node5</title>
<path fill="none" stroke="midnightblue" d="M863.16,-734.67C699.81,-726.39 191,-695.12 191,-627 191,-627 191,-627 191,-289 191,-250.58 214.8,-243.35 248,-224 302.68,-192.13 376.69,-182.64 422.61,-179.92"/>
<polygon fill="midnightblue" stroke="midnightblue" points="863.25,-738.18 873.41,-735.19 863.6,-731.19 863.25,-738.18"/>
</g>
<!-- Node7 -->
<g id="node7" class="node">
<title>Node7</title>
<g id="a_node7"><a xlink:href="find_8h.html" target="_top" xlink:title="Find objects in the SW.">
<polygon fill="white" stroke="black" points="941,-616.5 941,-635.5 1023,-635.5 1023,-616.5 941,-616.5"/>
<text text-anchor="middle" x="982" y="-623.5" font-family="Helvetica,sans-Serif" font-size="10.00">include/find.h</text>
</a>
</g>
</g>
<!-- Node4&#45;&gt;Node7 -->
<g id="edge6" class="edge">
<title>Node4&#45;&gt;Node7</title>
<path fill="none" stroke="midnightblue" d="M923.89,-719.64C938.88,-695.74 965.3,-653.63 976.61,-635.59"/>
<polygon fill="midnightblue" stroke="midnightblue" points="920.76,-718.04 918.41,-728.37 926.69,-721.76 920.76,-718.04"/>
</g>
<!-- Node9 -->
<g id="node9" class="node">
<title>Node9</title>
<g id="a_node9"><a xlink:href="proxy_8h.html" target="_top" xlink:title=" ">
<polygon fill="white" stroke="black" points="886,-504.5 886,-523.5 976,-523.5 976,-504.5 886,-504.5"/>
<text text-anchor="middle" x="931" y="-511.5" font-family="Helvetica,sans-Serif" font-size="10.00">include/proxy.h</text>
</a>
</g>
</g>
<!-- Node4&#45;&gt;Node9 -->
<g id="edge8" class="edge">
<title>Node4&#45;&gt;Node9</title>
<path fill="none" stroke="midnightblue" d="M914.52,-718.3C918.22,-672.64 927.61,-556.85 930.28,-523.88"/>
<polygon fill="midnightblue" stroke="midnightblue" points="911.03,-718.05 913.71,-728.3 918,-718.61 911.03,-718.05"/>
</g>
<!-- Node10 -->
<g id="node10" class="node">
<title>Node10</title>
<g id="a_node10"><a xlink:href="xform_8h.html" target="_top" xlink:title="Transform.">
<polygon fill="white" stroke="black" points="580.5,-224.5 580.5,-243.5 673.5,-243.5 673.5,-224.5 580.5,-224.5"/>
<text text-anchor="middle" x="627" y="-231.5" font-family="Helvetica,sans-Serif" font-size="10.00">include/xform.h</text>
</a>
</g>
</g>
<!-- Node4&#45;&gt;Node10 -->
<g id="edge69" class="edge">
<title>Node4&#45;&gt;Node10</title>
<path fill="none" stroke="midnightblue" d="M898.73,-720.61C882.43,-700.16 858,-663.43 858,-627 858,-627 858,-627 858,-569 858,-435.44 698.66,-478.74 646,-356 629.06,-316.53 627.03,-264.01 626.92,-243.61"/>
<polygon fill="midnightblue" stroke="midnightblue" points="896.05,-722.86 905.12,-728.33 901.44,-718.4 896.05,-722.86"/>
</g>
<!-- Node22 -->
<g id="node22" class="node">
<title>Node22</title>
<g id="a_node22"><a xlink:href="so_8h.html" target="_top" xlink:title="Scene objects.">
<polygon fill="white" stroke="black" points="733.5,-672.5 733.5,-691.5 808.5,-691.5 808.5,-672.5 733.5,-672.5"/>
<text text-anchor="middle" x="771" y="-679.5" font-family="Helvetica,sans-Serif" font-size="10.00">include/so.h</text>
</a>
</g>
</g>
<!-- Node4&#45;&gt;Node22 -->
<g id="edge23" class="edge">
<title>Node4&#45;&gt;Node22</title>
<path fill="none" stroke="midnightblue" d="M880.84,-724.77C854.17,-714.63 816.93,-700.47 793.4,-691.52"/>
<polygon fill="midnightblue" stroke="midnightblue" points="879.91,-728.16 890.5,-728.44 882.4,-721.62 879.91,-728.16"/>
</g>
<!-- Node49 -->
<g id="node46" class="node">
<title>Node49</title>
<g id="a_node46"><a xlink:href="sound_8h.html" target="_top" xlink:title="Sound playback.">
<polygon fill="white" stroke="black" points="1124.5,-224.5 1124.5,-243.5 1217.5,-243.5 1217.5,-224.5 1124.5,-224.5"/>
<text text-anchor="middle" x="1171" y="-231.5" font-family="Helvetica,sans-Serif" font-size="10.00">include/sound.h</text>
</a>
</g>
</g>
<!-- Node4&#45;&gt;Node49 -->
<g id="edge68" class="edge">
<title>Node4&#45;&gt;Node49</title>
<path fill="none" stroke="midnightblue" d="M962.45,-728.63C1038.13,-712.66 1174,-670.19 1174,-571 1174,-571 1174,-571 1174,-345 1174,-307.17 1172.21,-262.06 1171.39,-243.56"/>
<polygon fill="midnightblue" stroke="midnightblue" points="961.74,-725.2 952.64,-730.62 963.14,-732.06 961.74,-725.2"/>
</g>
<!-- Node6 -->
<g id="node6" class="node">
<title>Node6</title>
<g id="a_node6"><a xlink:href="coin_8c.html" target="_top" xlink:title=" ">
<polygon fill="white" stroke="black" points="365.5,-56.5 365.5,-75.5 442.5,-75.5 442.5,-56.5 365.5,-56.5"/>
<text text-anchor="middle" x="404" y="-63.5" font-family="Helvetica,sans-Serif" font-size="10.00">src/P2/coin.c</text>
</a>
</g>
</g>
<!-- Node5&#45;&gt;Node6 -->
<g id="edge5" class="edge">
<title>Node5&#45;&gt;Node6</title>
<path fill="none" stroke="midnightblue" d="M455.2,-159.32C441.91,-135.37 418.72,-93.55 408.76,-75.59"/>
<polygon fill="midnightblue" stroke="midnightblue" points="452.3,-161.32 460.21,-168.37 458.42,-157.93 452.3,-161.32"/>
</g>
<!-- Node8 -->
<g id="node8" class="node">
<title>Node8</title>
<g id="a_node8"><a xlink:href="find_8c.html" target="_top" xlink:title=" ">
<polygon fill="white" stroke="black" points="1032.5,-560.5 1032.5,-579.5 1107.5,-579.5 1107.5,-560.5 1032.5,-560.5"/>
<text text-anchor="middle" x="1070" y="-567.5" font-family="Helvetica,sans-Serif" font-size="10.00">src/P2/find.c</text>
</a>
</g>
</g>
<!-- Node7&#45;&gt;Node8 -->
<g id="edge7" class="edge">
<title>Node7&#45;&gt;Node8</title>
<path fill="none" stroke="midnightblue" d="M1004.98,-610.9C1021.11,-601 1042.18,-588.07 1055.9,-579.65"/>
<polygon fill="midnightblue" stroke="midnightblue" points="1002.83,-608.11 996.14,-616.32 1006.49,-614.08 1002.83,-608.11"/>
</g>
<!-- Node9&#45;&gt;Node10 -->
<g id="edge9" class="edge">
<title>Node9&#45;&gt;Node10</title>
<path fill="none" stroke="midnightblue" d="M914.95,-496.85C883.4,-465.28 810.81,-393.43 747,-336 707.73,-300.66 659.07,-260.88 637.8,-243.68"/>
<polygon fill="midnightblue" stroke="midnightblue" points="912.85,-499.71 922.39,-504.32 917.8,-494.76 912.85,-499.71"/>
</g>
<!-- Node10&#45;&gt;Node5 -->
<g id="edge16" class="edge">
<title>Node10&#45;&gt;Node5</title>
<path fill="none" stroke="midnightblue" d="M591.52,-221.17C561.01,-211 517.76,-196.59 490.55,-187.52"/>
<polygon fill="midnightblue" stroke="midnightblue" points="590.74,-224.6 601.33,-224.44 592.95,-217.96 590.74,-224.6"/>
</g>
<!-- Node11 -->
<g id="node11" class="node">
<title>Node11</title>
<g id="a_node11"><a xlink:href="xform1_8c.html" target="_top" xlink:title=" ">
<polygon fill="white" stroke="black" points="525,-168.5 525,-187.5 617,-187.5 617,-168.5 525,-168.5"/>
<text text-anchor="middle" x="571" y="-175.5" font-family="Helvetica,sans-Serif" font-size="10.00">src/P2/xform1.c</text>
</a>
</g>
</g>
<!-- Node10&#45;&gt;Node11 -->
<g id="edge10" class="edge">
<title>Node10&#45;&gt;Node11</title>
<path fill="none" stroke="midnightblue" d="M610.67,-217.25C600.74,-207.67 588.41,-195.79 580.16,-187.83"/>
<polygon fill="midnightblue" stroke="midnightblue" points="608.37,-219.9 618,-224.32 613.23,-214.86 608.37,-219.9"/>
</g>
<!-- Node12 -->
<g id="node12" class="node">
<title>Node12</title>
<g id="a_node12"><a xlink:href="xform2_8c.html" target="_top" xlink:title=" ">
<polygon fill="white" stroke="black" points="635,-168.5 635,-187.5 727,-187.5 727,-168.5 635,-168.5"/>
<text text-anchor="middle" x="681" y="-175.5" font-family="Helvetica,sans-Serif" font-size="10.00">src/P2/xform2.c</text>
</a>
</g>
</g>
<!-- Node10&#45;&gt;Node12 -->
<g id="edge11" class="edge">
<title>Node10&#45;&gt;Node12</title>
<path fill="none" stroke="midnightblue" d="M643,-217C652.57,-207.43 664.36,-195.64 672.25,-187.75"/>
<polygon fill="midnightblue" stroke="midnightblue" points="640.51,-214.54 635.92,-224.08 645.46,-219.49 640.51,-214.54"/>
</g>
<!-- Node10&#45;&gt;Node13 -->
<g id="edge12" class="edge">
<title>Node10&#45;&gt;Node13</title>
<path fill="none" stroke="midnightblue" d="M683.81,-227.36C794.35,-216.39 1035.86,-192.41 1131.17,-182.95"/>
<polygon fill="midnightblue" stroke="midnightblue" points="683.46,-223.88 673.85,-228.35 684.15,-230.84 683.46,-223.88"/>
</g>
<!-- Node17 -->
<g id="node17" class="node">
<title>Node17</title>
<g id="a_node17"><a xlink:href="vol_8h.html" target="_top" xlink:title="Volume object.">
<polygon fill="white" stroke="black" points="745.5,-168.5 745.5,-187.5 824.5,-187.5 824.5,-168.5 745.5,-168.5"/>
<text text-anchor="middle" x="785" y="-175.5" font-family="Helvetica,sans-Serif" font-size="10.00">include/vol.h</text>
</a>
</g>
</g>
<!-- Node10&#45;&gt;Node17 -->
<g id="edge17" class="edge">
<title>Node10&#45;&gt;Node17</title>
<path fill="none" stroke="midnightblue" d="M661.61,-221.17C691.36,-211 733.55,-196.59 760.08,-187.52"/>
<polygon fill="midnightblue" stroke="midnightblue" points="660.37,-217.9 652.04,-224.44 662.63,-224.52 660.37,-217.9"/>
</g>
<!-- Node14 -->
<g id="node14" class="node">
<title>Node14</title>
<g id="a_node14"><a xlink:href="cm_8c.html" target="_top" xlink:title=" ">
<polygon fill="white" stroke="black" points="958,-112.5 958,-131.5 1030,-131.5 1030,-112.5 958,-112.5"/>
<text text-anchor="middle" x="994" y="-119.5" font-family="Helvetica,sans-Serif" font-size="10.00">src/P2/cm.c</text>
</a>
</g>
</g>
<!-- Node13&#45;&gt;Node14 -->
<g id="edge13" class="edge">
<title>Node13&#45;&gt;Node14</title>
<path fill="none" stroke="midnightblue" d="M1133.1,-165.44C1099.72,-155.26 1051.9,-140.66 1021.91,-131.52"/>
<polygon fill="midnightblue" stroke="midnightblue" points="1132.37,-168.87 1142.95,-168.44 1134.41,-162.18 1132.37,-168.87"/>
</g>
<!-- Node15 -->
<g id="node15" class="node">
<title>Node15</title>
<g id="a_node15"><a xlink:href="flash_8h.html" target="_top" xlink:title="Flash (might be flash animation, or literal screen flashes).">
<polygon fill="white" stroke="black" points="1265.5,-112.5 1265.5,-131.5 1352.5,-131.5 1352.5,-112.5 1265.5,-112.5"/>
<text text-anchor="middle" x="1309" y="-119.5" font-family="Helvetica,sans-Serif" font-size="10.00">include/flash.h</text>
</a>
</g>
</g>
<!-- Node13&#45;&gt;Node15 -->
<g id="edge14" class="edge">
<title>Node13&#45;&gt;Node15</title>
<path fill="none" stroke="midnightblue" d="M1202.25,-164.77C1228.17,-154.63 1264.36,-140.47 1287.24,-131.52"/>
<polygon fill="midnightblue" stroke="midnightblue" points="1200.9,-161.54 1192.87,-168.44 1203.45,-168.06 1200.9,-161.54"/>
</g>
<!-- Node16 -->
<g id="node16" class="node">
<title>Node16</title>
<g id="a_node16"><a xlink:href="flash_8c.html" target="_top" xlink:title=" ">
<polygon fill="white" stroke="black" points="1269,-56.5 1269,-75.5 1349,-75.5 1349,-56.5 1269,-56.5"/>
<text text-anchor="middle" x="1309" y="-63.5" font-family="Helvetica,sans-Serif" font-size="10.00">src/P2/flash.c</text>
</a>
</g>
</g>
<!-- Node15&#45;&gt;Node16 -->
<g id="edge15" class="edge">
<title>Node15&#45;&gt;Node16</title>
<path fill="none" stroke="midnightblue" d="M1309,-101.8C1309,-92.91 1309,-82.78 1309,-75.75"/>
<polygon fill="midnightblue" stroke="midnightblue" points="1305.5,-102.08 1309,-112.08 1312.5,-102.08 1305.5,-102.08"/>
</g>
<!-- Node18 -->
<g id="node18" class="node">
<title>Node18</title>
<g id="a_node18"><a xlink:href="chkpnt_8h.html" target="_top" xlink:title="Checkpoint system.">
<polygon fill="white" stroke="black" points="450.5,-112.5 450.5,-131.5 547.5,-131.5 547.5,-112.5 450.5,-112.5"/>
<text text-anchor="middle" x="499" y="-119.5" font-family="Helvetica,sans-Serif" font-size="10.00">include/chkpnt.h</text>
</a>
</g>
</g>
<!-- Node17&#45;&gt;Node18 -->
<g id="edge18" class="edge">
<title>Node17&#45;&gt;Node18</title>
<path fill="none" stroke="midnightblue" d="M735.22,-167.6C681.31,-157.42 596.08,-141.33 544.08,-131.51"/>
<polygon fill="midnightblue" stroke="midnightblue" points="734.76,-171.08 745.23,-169.49 736.06,-164.2 734.76,-171.08"/>
</g>
<!-- Node18&#45;&gt;Node6 -->
<g id="edge20" class="edge">
<title>Node18&#45;&gt;Node6</title>
<path fill="none" stroke="midnightblue" d="M474.68,-107.18C457.2,-97.24 434.17,-84.15 419.23,-75.65"/>
<polygon fill="midnightblue" stroke="midnightblue" points="473.31,-110.43 483.74,-112.32 476.77,-104.34 473.31,-110.43"/>
</g>
<!-- Node19 -->
<g id="node19" class="node">
<title>Node19</title>
<g id="a_node19"><a xlink:href="chkpnt_8c.html" target="_top" xlink:title=" ">
<polygon fill="white" stroke="black" points="461,-56.5 461,-75.5 551,-75.5 551,-56.5 461,-56.5"/>
<text text-anchor="middle" x="506" y="-63.5" font-family="Helvetica,sans-Serif" font-size="10.00">src/P2/chkpnt.c</text>
</a>
</g>
</g>
<!-- Node18&#45;&gt;Node19 -->
<g id="edge19" class="edge">
<title>Node18&#45;&gt;Node19</title>
<path fill="none" stroke="midnightblue" d="M501.45,-102.1C502.61,-93.14 503.94,-82.86 504.87,-75.75"/>
<polygon fill="midnightblue" stroke="midnightblue" points="497.97,-101.72 500.16,-112.08 504.91,-102.62 497.97,-101.72"/>
</g>
<!-- Node20 -->
<g id="node20" class="node">
<title>Node20</title>
<g id="a_node20"><a xlink:href="difficulty_8h.html" target="_top" xlink:title="Dynamic difficulty system.">
<polygon fill="white" stroke="black" points="790.5,-56.5 790.5,-75.5 895.5,-75.5 895.5,-56.5 790.5,-56.5"/>
<text text-anchor="middle" x="843" y="-63.5" font-family="Helvetica,sans-Serif" font-size="10.00">include/difficulty.h</text>
</a>
</g>
</g>
<!-- Node18&#45;&gt;Node20 -->
<g id="edge21" class="edge">
<title>Node18&#45;&gt;Node20</title>
<path fill="none" stroke="midnightblue" d="M557.7,-111.79C623.05,-101.53 727.71,-85.1 790.46,-75.25"/>
<polygon fill="midnightblue" stroke="midnightblue" points="556.89,-108.37 547.56,-113.38 557.98,-115.28 556.89,-108.37"/>
</g>
<!-- Node21 -->
<g id="node21" class="node">
<title>Node21</title>
<g id="a_node21"><a xlink:href="difficulty_8c.html" target="_top" xlink:title=" ">
<polygon fill="white" stroke="black" points="794,-0.5 794,-19.5 892,-19.5 892,-0.5 794,-0.5"/>
<text text-anchor="middle" x="843" y="-7.5" font-family="Helvetica,sans-Serif" font-size="10.00">src/P2/difficulty.c</text>
</a>
</g>
</g>
<!-- Node20&#45;&gt;Node21 -->
<g id="edge22" class="edge">
<title>Node20&#45;&gt;Node21</title>
<path fill="none" stroke="midnightblue" d="M843,-45.8C843,-36.91 843,-26.78 843,-19.75"/>
<polygon fill="midnightblue" stroke="midnightblue" points="839.5,-46.08 843,-56.08 846.5,-46.08 839.5,-46.08"/>
</g>
<!-- Node22&#45;&gt;Node7 -->
<g id="edge24" class="edge">
<title>Node22&#45;&gt;Node7</title>
<path fill="none" stroke="midnightblue" d="M814.14,-669.96C853.99,-659.76 912.36,-644.82 948.72,-635.52"/>
<polygon fill="midnightblue" stroke="midnightblue" points="813.25,-666.57 804.43,-672.44 814.99,-673.35 813.25,-666.57"/>
</g>
<!-- Node23 -->
<g id="node23" class="node">
<title>Node23</title>
<g id="a_node23"><a xlink:href="po_8h.html" target="_top" xlink:title="Player object(?).">
<polygon fill="white" stroke="black" points="86,-448.5 86,-467.5 162,-467.5 162,-448.5 86,-448.5"/>
<text text-anchor="middle" x="124" y="-455.5" font-family="Helvetica,sans-Serif" font-size="10.00">include/po.h</text>
</a>
</g>
</g>
<!-- Node22&#45;&gt;Node23 -->
<g id="edge25" class="edge">
<title>Node22&#45;&gt;Node23</title>
<path fill="none" stroke="midnightblue" d="M723.38,-675.03C640.78,-663.61 466.63,-634.8 329,-580 250.29,-548.66 166.18,-489.92 135.79,-467.76"/>
<polygon fill="midnightblue" stroke="midnightblue" points="723.08,-678.52 733.46,-676.4 724.02,-671.59 723.08,-678.52"/>
</g>
<!-- Node30 -->
<g id="node30" class="node">
<title>Node30</title>
<g id="a_node30"><a xlink:href="vec_8h.html" target="_top" xlink:title="Vector math functions.">
<polygon fill="white" stroke="black" points="706.5,-616.5 706.5,-635.5 787.5,-635.5 787.5,-616.5 706.5,-616.5"/>
<text text-anchor="middle" x="747" y="-623.5" font-family="Helvetica,sans-Serif" font-size="10.00">include/vec.h</text>
</a>
</g>
</g>
<!-- Node22&#45;&gt;Node30 -->
<g id="edge32" class="edge">
<title>Node22&#45;&gt;Node30</title>
<path fill="none" stroke="midnightblue" d="M762.86,-662.69C758.82,-653.59 754.12,-643.01 750.89,-635.75"/>
<polygon fill="midnightblue" stroke="midnightblue" points="759.78,-664.37 767.04,-672.08 766.17,-661.52 759.78,-664.37"/>
</g>
<!-- Node24 -->
<g id="node24" class="node">
<title>Node24</title>
<g id="a_node24"><a xlink:href="step_8h.html" target="_top" xlink:title=" ">
<polygon fill="white" stroke="black" points="77.5,-336.5 77.5,-355.5 162.5,-355.5 162.5,-336.5 77.5,-336.5"/>
<text text-anchor="middle" x="120" y="-343.5" font-family="Helvetica,sans-Serif" font-size="10.00">include/step.h</text>
</a>
</g>
</g>
<!-- Node23&#45;&gt;Node24 -->
<g id="edge26" class="edge">
<title>Node23&#45;&gt;Node24</title>
<path fill="none" stroke="midnightblue" d="M123.32,-438.35C122.45,-414.25 120.96,-373.31 120.31,-355.59"/>
<polygon fill="midnightblue" stroke="midnightblue" points="119.82,-438.5 123.69,-448.37 126.82,-438.25 119.82,-438.5"/>
</g>
<!-- Node25 -->
<g id="node25" class="node">
<title>Node25</title>
<g id="a_node25"><a xlink:href="jt_8h.html" target="_top" xlink:title="Sly entity.">
<polygon fill="white" stroke="black" points="87.5,-224.5 87.5,-243.5 158.5,-243.5 158.5,-224.5 87.5,-224.5"/>
<text text-anchor="middle" x="123" y="-231.5" font-family="Helvetica,sans-Serif" font-size="10.00">include/jt.h</text>
</a>
</g>
</g>
<!-- Node24&#45;&gt;Node25 -->
<g id="edge27" class="edge">
<title>Node24&#45;&gt;Node25</title>
<path fill="none" stroke="midnightblue" d="M120.51,-326.35C121.17,-302.25 122.28,-261.31 122.77,-243.59"/>
<polygon fill="midnightblue" stroke="midnightblue" points="117.01,-326.28 120.24,-336.37 124.01,-326.47 117.01,-326.28"/>
</g>
<!-- Node26 -->
<g id="node26" class="node">
<title>Node26</title>
<g id="a_node26"><a xlink:href="jt1_8c.html" target="_top" xlink:title=" ">
<polygon fill="white" stroke="black" points="88,-168.5 88,-187.5 158,-187.5 158,-168.5 88,-168.5"/>
<text text-anchor="middle" x="123" y="-175.5" font-family="Helvetica,sans-Serif" font-size="10.00">src/P2/jt1.c</text>
</a>
</g>
</g>
<!-- Node25&#45;&gt;Node26 -->
<g id="edge28" class="edge">
<title>Node25&#45;&gt;Node26</title>
<path fill="none" stroke="midnightblue" d="M123,-213.8C123,-204.91 123,-194.78 123,-187.75"/>
<polygon fill="midnightblue" stroke="midnightblue" points="119.5,-214.08 123,-224.08 126.5,-214.08 119.5,-214.08"/>
</g>
<!-- Node27 -->
<g id="node27" class="node">
<title>Node27</title>
<g id="a_node27"><a xlink:href="jt2_8c.html" target="_top" xlink:title=" ">
<polygon fill="white" stroke="black" points="0,-168.5 0,-187.5 70,-187.5 70,-168.5 0,-168.5"/>
<text text-anchor="middle" x="35" y="-175.5" font-family="Helvetica,sans-Serif" font-size="10.00">src/P2/jt2.c</text>
</a>
</g>
</g>
<!-- Node25&#45;&gt;Node27 -->
<g id="edge29" class="edge">
<title>Node25&#45;&gt;Node27</title>
<path fill="none" stroke="midnightblue" d="M100.02,-218.9C83.89,-209 62.82,-196.07 49.1,-187.65"/>
<polygon fill="midnightblue" stroke="midnightblue" points="98.51,-222.08 108.86,-224.32 102.17,-216.11 98.51,-222.08"/>
</g>
<!-- Node28 -->
<g id="node28" class="node">
<title>Node28</title>
<g id="a_node28"><a xlink:href="steppower_8h.html" target="_top" xlink:title=" ">
<polygon fill="white" stroke="black" points="215,-168.5 215,-187.5 329,-187.5 329,-168.5 215,-168.5"/>
<text text-anchor="middle" x="272" y="-175.5" font-family="Helvetica,sans-Serif" font-size="10.00">include/steppower.h</text>
</a>
</g>
</g>
<!-- Node25&#45;&gt;Node28 -->
<g id="edge30" class="edge">
<title>Node25&#45;&gt;Node28</title>
<path fill="none" stroke="midnightblue" d="M156.37,-220.91C184.38,-210.75 223.7,-196.51 248.5,-187.52"/>
<polygon fill="midnightblue" stroke="midnightblue" points="154.82,-217.75 146.61,-224.44 157.2,-224.33 154.82,-217.75"/>
</g>
<!-- Node29 -->
<g id="node29" class="node">
<title>Node29</title>
<g id="a_node29"><a xlink:href="steppower_8c.html" target="_top" xlink:title=" ">
<polygon fill="white" stroke="black" points="218.5,-112.5 218.5,-131.5 325.5,-131.5 325.5,-112.5 218.5,-112.5"/>
<text text-anchor="middle" x="272" y="-119.5" font-family="Helvetica,sans-Serif" font-size="10.00">src/P2/steppower.c</text>
</a>
</g>
</g>
<!-- Node28&#45;&gt;Node29 -->
<g id="edge31" class="edge">
<title>Node28&#45;&gt;Node29</title>
<path fill="none" stroke="midnightblue" d="M272,-157.8C272,-148.91 272,-138.78 272,-131.75"/>
<polygon fill="midnightblue" stroke="midnightblue" points="268.5,-158.08 272,-168.08 275.5,-158.08 268.5,-158.08"/>
</g>
<!-- Node30&#45;&gt;Node18 -->
<g id="edge40" class="edge">
<title>Node30&#45;&gt;Node18</title>
<path fill="none" stroke="midnightblue" d="M696.05,-619.81C598.52,-608.46 395,-577.32 395,-515 395,-515 395,-515 395,-233 395,-202.9 394.98,-191.32 414,-168 428.46,-150.27 451.78,-138.63 470.35,-131.64"/>
<polygon fill="midnightblue" stroke="midnightblue" points="695.95,-623.32 706.28,-620.98 696.74,-616.37 695.95,-623.32"/>
</g>
<!-- Node31 -->
<g id="node31" class="node">
<title>Node31</title>
<g id="a_node31"><a xlink:href="util_8c.html" target="_top" xlink:title=" ">
<polygon fill="white" stroke="black" points="730.5,-224.5 730.5,-243.5 803.5,-243.5 803.5,-224.5 730.5,-224.5"/>
<text text-anchor="middle" x="767" y="-231.5" font-family="Helvetica,sans-Serif" font-size="10.00">src/P2/util.c</text>
</a>
</g>
</g>
<!-- Node30&#45;&gt;Node31 -->
<g id="edge33" class="edge">
<title>Node30&#45;&gt;Node31</title>
<path fill="none" stroke="midnightblue" d="M754.86,-606.77C770.78,-567.8 804.7,-473.32 797,-392 791.59,-334.81 775.31,-267.46 769.28,-243.77"/>
<polygon fill="midnightblue" stroke="midnightblue" points="751.53,-605.65 750.9,-616.23 757.99,-608.36 751.53,-605.65"/>
</g>
<!-- Node32 -->
<g id="node32" class="node">
<title>Node32</title>
<g id="a_node32"><a xlink:href="vec_8c.html" target="_top" xlink:title=" ">
<polygon fill="white" stroke="black" points="822,-224.5 822,-243.5 896,-243.5 896,-224.5 822,-224.5"/>
<text text-anchor="middle" x="859" y="-231.5" font-family="Helvetica,sans-Serif" font-size="10.00">src/P2/vec.c</text>
</a>
</g>
</g>
<!-- Node30&#45;&gt;Node32 -->
<g id="edge34" class="edge">
<title>Node30&#45;&gt;Node32</title>
<path fill="none" stroke="midnightblue" d="M762.52,-608.86C769.61,-600.74 777.62,-590.43 783,-580 794.87,-557 792.81,-549.13 799,-524 826.08,-414.04 851.12,-278.55 857.46,-243.56"/>
<polygon fill="midnightblue" stroke="midnightblue" points="759.76,-606.7 755.6,-616.44 764.93,-611.41 759.76,-606.7"/>
</g>
<!-- Node33 -->
<g id="node33" class="node">
<title>Node33</title>
<g id="a_node33"><a xlink:href="bis_8h.html" target="_top" xlink:title="Binary Input Stream.">
<polygon fill="white" stroke="black" points="289,-280.5 289,-299.5 367,-299.5 367,-280.5 289,-280.5"/>
<text text-anchor="middle" x="328" y="-287.5" font-family="Helvetica,sans-Serif" font-size="10.00">include/bis.h</text>
</a>
</g>
</g>
<!-- Node30&#45;&gt;Node33 -->
<g id="edge35" class="edge">
<title>Node30&#45;&gt;Node33</title>
<path fill="none" stroke="midnightblue" d="M696.33,-624.23C608.32,-622 431.73,-613.39 381,-580 353.05,-561.6 343,-548.46 343,-515 343,-515 343,-515 343,-401 343,-362.84 334.03,-317.91 329.96,-299.5"/>
<polygon fill="midnightblue" stroke="midnightblue" points="696.27,-627.73 706.35,-624.46 696.44,-620.73 696.27,-627.73"/>
</g>
<!-- Node35 -->
<g id="node35" class="node">
<title>Node35</title>
<g id="a_node35"><a xlink:href="shd_8h.html" target="_top" xlink:title="Shaders.">
<polygon fill="white" stroke="black" points="583.5,-504.5 583.5,-523.5 664.5,-523.5 664.5,-504.5 583.5,-504.5"/>
<text text-anchor="middle" x="624" y="-511.5" font-family="Helvetica,sans-Serif" font-size="10.00">include/shd.h</text>
</a>
</g>
</g>
<!-- Node30&#45;&gt;Node35 -->
<g id="edge41" class="edge">
<title>Node30&#45;&gt;Node35</title>
<path fill="none" stroke="midnightblue" d="M729.68,-609.51C703.4,-586.01 654.31,-542.11 633.61,-523.59"/>
<polygon fill="midnightblue" stroke="midnightblue" points="727.56,-612.31 737.35,-616.37 732.23,-607.09 727.56,-612.31"/>
</g>
<!-- Node45 -->
<g id="node42" class="node">
<title>Node45</title>
<g id="a_node42"><a xlink:href="surf_8h.html" target="_top" xlink:title="Surface?">
<polygon fill="white" stroke="black" points="583,-560.5 583,-579.5 665,-579.5 665,-560.5 583,-560.5"/>
<text text-anchor="middle" x="624" y="-567.5" font-family="Helvetica,sans-Serif" font-size="10.00">include/surf.h</text>
</a>
</g>
</g>
<!-- Node30&#45;&gt;Node45 -->
<g id="edge51" class="edge">
<title>Node30&#45;&gt;Node45</title>
<path fill="none" stroke="midnightblue" d="M718.23,-612.37C695.19,-602.26 663.52,-588.35 643.4,-579.52"/>
<polygon fill="midnightblue" stroke="midnightblue" points="716.95,-615.63 727.51,-616.44 719.76,-609.22 716.95,-615.63"/>
</g>
<!-- Node46 -->
<g id="node43" class="node">
<title>Node46</title>
<g id="a_node43"><a xlink:href="util_8h.html" target="_top" xlink:title="Utility functions.">
<polygon fill="white" stroke="black" points="996,-280.5 996,-299.5 1076,-299.5 1076,-280.5 996,-280.5"/>
<text text-anchor="middle" x="1036" y="-287.5" font-family="Helvetica,sans-Serif" font-size="10.00">include/util.h</text>
</a>
</g>
</g>
<!-- Node30&#45;&gt;Node46 -->
<g id="edge54" class="edge">
<title>Node30&#45;&gt;Node46</title>
<path fill="none" stroke="midnightblue" d="M797.9,-624.93C872.82,-621.84 1004,-603.77 1004,-515 1004,-515 1004,-515 1004,-457 1004,-395.66 1025.33,-323.83 1033.16,-299.53"/>
<polygon fill="midnightblue" stroke="midnightblue" points="797.6,-621.44 787.72,-625.27 797.83,-628.43 797.6,-621.44"/>
</g>
<!-- Node33&#45;&gt;Node6 -->
<g id="edge37" class="edge">
<title>Node33&#45;&gt;Node6</title>
<path fill="none" stroke="midnightblue" d="M298.06,-275.88C282.16,-268.03 262.88,-257.05 248,-244 202,-203.67 169.65,-158.84 209,-112 228.78,-88.46 314.43,-75.96 365.4,-70.49"/>
<polygon fill="midnightblue" stroke="midnightblue" points="296.92,-279.21 307.46,-280.35 299.93,-272.89 296.92,-279.21"/>
</g>
<!-- Node33&#45;&gt;Node10 -->
<g id="edge39" class="edge">
<title>Node33&#45;&gt;Node10</title>
<path fill="none" stroke="midnightblue" d="M377.17,-280.12C433.48,-269.95 525.03,-253.42 580.28,-243.44"/>
<polygon fill="midnightblue" stroke="midnightblue" points="376.31,-276.72 367.09,-281.94 377.55,-283.61 376.31,-276.72"/>
</g>
<!-- Node33&#45;&gt;Node18 -->
<g id="edge38" class="edge">
<title>Node33&#45;&gt;Node18</title>
<path fill="none" stroke="midnightblue" d="M331.47,-270.24C337.27,-243.96 351.35,-196.25 381,-168 400.76,-149.17 429.21,-138.01 453.23,-131.52"/>
<polygon fill="midnightblue" stroke="midnightblue" points="327.98,-269.87 329.42,-280.37 334.84,-271.26 327.98,-269.87"/>
</g>
<!-- Node34 -->
<g id="node34" class="node">
<title>Node34</title>
<g id="a_node34"><a xlink:href="bis_8c.html" target="_top" xlink:title=" ">
<polygon fill="white" stroke="black" points="257.5,-224.5 257.5,-243.5 328.5,-243.5 328.5,-224.5 257.5,-224.5"/>
<text text-anchor="middle" x="293" y="-231.5" font-family="Helvetica,sans-Serif" font-size="10.00">src/P2/bis.c</text>
</a>
</g>
</g>
<!-- Node33&#45;&gt;Node34 -->
<g id="edge36" class="edge">
<title>Node33&#45;&gt;Node34</title>
<path fill="none" stroke="midnightblue" d="M316.7,-271.57C310.68,-262.27 303.53,-251.25 298.67,-243.75"/>
<polygon fill="midnightblue" stroke="midnightblue" points="313.84,-273.6 322.22,-280.08 319.72,-269.79 313.84,-273.6"/>
</g>
<!-- Node36 -->
<g id="node36" class="node">
<title>Node36</title>
<g id="a_node36"><a xlink:href="screen_8h.html" target="_top" xlink:title="User interface manager.">
<polygon fill="white" stroke="black" points="566,-448.5 566,-467.5 662,-467.5 662,-448.5 566,-448.5"/>
<text text-anchor="middle" x="614" y="-455.5" font-family="Helvetica,sans-Serif" font-size="10.00">include/screen.h</text>
</a>
</g>
</g>
<!-- Node35&#45;&gt;Node36 -->
<g id="edge42" class="edge">
<title>Node35&#45;&gt;Node36</title>
<path fill="none" stroke="midnightblue" d="M620.5,-494.1C618.84,-485.14 616.94,-474.86 615.62,-467.75"/>
<polygon fill="midnightblue" stroke="midnightblue" points="617.09,-494.89 622.35,-504.08 623.97,-493.61 617.09,-494.89"/>
</g>
<!-- Node37 -->
<g id="node37" class="node">
<title>Node37</title>
<g id="a_node37"><a xlink:href="screen_8c.html" target="_top" xlink:title=" ">
<polygon fill="white" stroke="black" points="461.5,-392.5 461.5,-411.5 550.5,-411.5 550.5,-392.5 461.5,-392.5"/>
<text text-anchor="middle" x="506" y="-399.5" font-family="Helvetica,sans-Serif" font-size="10.00">src/P2/screen.c</text>
</a>
</g>
</g>
<!-- Node36&#45;&gt;Node37 -->
<g id="edge43" class="edge">
<title>Node36&#45;&gt;Node37</title>
<path fill="none" stroke="midnightblue" d="M587.45,-443.73C567.45,-433.73 540.61,-420.31 523.31,-411.65"/>
<polygon fill="midnightblue" stroke="midnightblue" points="586.14,-446.98 596.65,-448.32 589.27,-440.72 586.14,-446.98"/>
</g>
<!-- Node38 -->
<g id="node38" class="node">
<title>Node38</title>
<g id="a_node38"><a xlink:href="binoc_8h.html" target="_top" xlink:title="Binoc&#45;u&#45;com.">
<polygon fill="white" stroke="black" points="698,-392.5 698,-411.5 788,-411.5 788,-392.5 698,-392.5"/>
<text text-anchor="middle" x="743" y="-399.5" font-family="Helvetica,sans-Serif" font-size="10.00">include/binoc.h</text>
</a>
</g>
</g>
<!-- Node36&#45;&gt;Node38 -->
<g id="edge44" class="edge">
<title>Node36&#45;&gt;Node38</title>
<path fill="none" stroke="midnightblue" d="M643.85,-444.5C668.04,-434.38 701.46,-420.39 722.66,-411.52"/>
<polygon fill="midnightblue" stroke="midnightblue" points="642.31,-441.35 634.44,-448.44 645.02,-447.81 642.31,-441.35"/>
</g>
<!-- Node43 -->
<g id="node41" class="node">
<title>Node43</title>
<g id="a_node41"><a xlink:href="ui_8h.html" target="_top" xlink:title="User interface.">
<polygon fill="white" stroke="red" points="568.5,-392.5 568.5,-411.5 641.5,-411.5 641.5,-392.5 568.5,-392.5"/>
<text text-anchor="middle" x="605" y="-399.5" font-family="Helvetica,sans-Serif" font-size="10.00">include/ui.h</text>
</a>
</g>
</g>
<!-- Node36&#45;&gt;Node43 -->
<g id="edge50" class="edge">
<title>Node36&#45;&gt;Node43</title>
<path fill="none" stroke="midnightblue" d="M610.85,-438.1C609.36,-429.14 607.64,-418.86 606.46,-411.75"/>
<polygon fill="midnightblue" stroke="midnightblue" points="607.42,-438.79 612.51,-448.08 614.32,-437.64 607.42,-438.79"/>
</g>
<!-- Node38&#45;&gt;Node13 -->
<g id="edge47" class="edge">
<title>Node38&#45;&gt;Node13</title>
<path fill="none" stroke="midnightblue" d="M786.89,-389.99C901.09,-360.92 1200.4,-281.71 1226,-244 1240.7,-222.35 1208.78,-199.57 1187.68,-187.56"/>
<polygon fill="midnightblue" stroke="midnightblue" points="785.9,-386.63 777.07,-392.49 787.63,-393.42 785.9,-386.63"/>
</g>
<!-- Node38&#45;&gt;Node14 -->
<g id="edge46" class="edge">
<title>Node38&#45;&gt;Node14</title>
<path fill="none" stroke="midnightblue" d="M745.04,-382.22C745.82,-374.16 746.62,-364.63 747,-356 747.39,-347.12 748.22,-344.8 747,-336 741.17,-293.91 726.83,-286.09 721,-244 719.78,-235.2 715.76,-231.18 721,-224 751.8,-181.75 783.84,-205.8 833,-188 884.3,-169.43 943.54,-144.62 973.85,-131.69"/>
<polygon fill="midnightblue" stroke="midnightblue" points="741.54,-382.08 743.99,-392.39 748.5,-382.8 741.54,-382.08"/>
</g>
<!-- Node39 -->
<g id="node39" class="node">
<title>Node39</title>
<g id="a_node39"><a xlink:href="binoc_8c.html" target="_top" xlink:title=" ">
<polygon fill="white" stroke="black" points="655.5,-336.5 655.5,-355.5 738.5,-355.5 738.5,-336.5 655.5,-336.5"/>
<text text-anchor="middle" x="697" y="-343.5" font-family="Helvetica,sans-Serif" font-size="10.00">src/P2/binoc.c</text>
</a>
</g>
</g>
<!-- Node38&#45;&gt;Node39 -->
<g id="edge45" class="edge">
<title>Node38&#45;&gt;Node39</title>
<path fill="none" stroke="midnightblue" d="M728.89,-384.43C720.82,-374.97 711.04,-363.48 704.45,-355.75"/>
<polygon fill="midnightblue" stroke="midnightblue" points="726.25,-386.74 735.4,-392.08 731.58,-382.2 726.25,-386.74"/>
</g>
<!-- Node40 -->
<g id="node40" class="node">
<title>Node40</title>
<g id="a_node40"><a xlink:href="prog_8h.html" target="_top" xlink:title=" ">
<polygon fill="white" stroke="red" points="487,-336.5 487,-355.5 573,-355.5 573,-336.5 487,-336.5"/>
<text text-anchor="middle" x="530" y="-343.5" font-family="Helvetica,sans-Serif" font-size="10.00">include/prog.h</text>
</a>
</g>
</g>
<!-- Node38&#45;&gt;Node40 -->
<g id="edge48" class="edge">
<title>Node38&#45;&gt;Node40</title>
<path fill="none" stroke="midnightblue" d="M699.45,-389.96C659.22,-379.76 600.3,-364.82 563.59,-355.52"/>
<polygon fill="midnightblue" stroke="midnightblue" points="698.7,-393.38 709.25,-392.44 700.42,-386.59 698.7,-393.38"/>
</g>
<!-- Node40&#45;&gt;Node33 -->
<g id="edge49" class="edge">
<title>Node40&#45;&gt;Node33</title>
<path fill="none" stroke="midnightblue" d="M488.21,-333.83C450.07,-323.63 394.52,-308.78 359.86,-299.52"/>
<polygon fill="midnightblue" stroke="midnightblue" points="487.43,-337.24 497.99,-336.44 489.24,-330.48 487.43,-337.24"/>
</g>
<!-- Node45&#45;&gt;Node10 -->
<g id="edge53" class="edge">
<title>Node45&#45;&gt;Node10</title>
<path fill="none" stroke="midnightblue" d="M572.68,-561.9C516.1,-550.85 433,-523.62 433,-459 433,-459 433,-459 433,-345 433,-277.63 522.62,-251.02 580.04,-240.89"/>
<polygon fill="midnightblue" stroke="midnightblue" points="572.09,-565.35 582.56,-563.72 573.36,-558.47 572.09,-565.35"/>
</g>
<!-- Node45&#45;&gt;Node35 -->
<g id="edge52" class="edge">
<title>Node45&#45;&gt;Node35</title>
<path fill="none" stroke="midnightblue" d="M624,-549.8C624,-540.91 624,-530.78 624,-523.75"/>
<polygon fill="midnightblue" stroke="midnightblue" points="620.5,-550.08 624,-560.08 627.5,-550.08 620.5,-550.08"/>
</g>
<!-- Node46&#45;&gt;Node10 -->
<g id="edge67" class="edge">
<title>Node46&#45;&gt;Node10</title>
<path fill="none" stroke="midnightblue" d="M985.35,-282.31C905.36,-271.75 750.94,-251.36 673.56,-241.15"/>
<polygon fill="midnightblue" stroke="midnightblue" points="985.29,-285.84 995.66,-283.67 986.21,-278.9 985.29,-285.84"/>
</g>
<!-- Node46&#45;&gt;Node13 -->
<g id="edge58" class="edge">
<title>Node46&#45;&gt;Node13</title>
<path fill="none" stroke="midnightblue" d="M1054.46,-273.71C1070.44,-260.5 1094.19,-240.92 1115,-224 1130.68,-211.25 1148.94,-196.62 1160.23,-187.59"/>
<polygon fill="midnightblue" stroke="midnightblue" points="1051.92,-271.27 1046.45,-280.34 1056.38,-276.66 1051.92,-271.27"/>
</g>
<!-- Node46&#45;&gt;Node14 -->
<g id="edge55" class="edge">
<title>Node46&#45;&gt;Node14</title>
<path fill="none" stroke="midnightblue" d="M1031.17,-269.93C1022.06,-233.92 1002.66,-157.23 996.17,-131.57"/>
<polygon fill="midnightblue" stroke="midnightblue" points="1027.9,-271.24 1033.74,-280.08 1034.68,-269.52 1027.9,-271.24"/>
</g>
<!-- Node46&#45;&gt;Node20 -->
<g id="edge59" class="edge">
<title>Node46&#45;&gt;Node20</title>
<path fill="none" stroke="midnightblue" d="M1043.15,-270.6C1055.46,-235.52 1075.97,-158.42 1039,-112 1021.38,-89.88 947.57,-77.73 895.75,-71.8"/>
<polygon fill="midnightblue" stroke="midnightblue" points="1039.7,-269.83 1039.52,-280.42 1046.27,-272.26 1039.7,-269.83"/>
</g>
<!-- Node46&#45;&gt;Node31 -->
<g id="edge56" class="edge">
<title>Node46&#45;&gt;Node31</title>
<path fill="none" stroke="midnightblue" d="M985.88,-278.94C932.96,-268.32 850.82,-251.83 803.65,-242.36"/>
<polygon fill="midnightblue" stroke="midnightblue" points="985.23,-282.38 995.73,-280.92 986.61,-275.52 985.23,-282.38"/>
</g>
<!-- Node46&#45;&gt;Node32 -->
<g id="edge57" class="edge">
<title>Node46&#45;&gt;Node32</title>
<path fill="none" stroke="midnightblue" d="M998.1,-277.44C964.72,-267.26 916.9,-252.66 886.91,-243.52"/>
<polygon fill="midnightblue" stroke="midnightblue" points="997.37,-280.87 1007.95,-280.44 999.41,-274.18 997.37,-280.87"/>
</g>
<!-- Node47 -->
<g id="node44" class="node">
<title>Node47</title>
<g id="a_node44"><a xlink:href="joy_8h.html" target="_top" xlink:title="Joypad manager.">
<polygon fill="white" stroke="black" points="914.5,-224.5 914.5,-243.5 991.5,-243.5 991.5,-224.5 914.5,-224.5"/>
<text text-anchor="middle" x="953" y="-231.5" font-family="Helvetica,sans-Serif" font-size="10.00">include/joy.h</text>
</a>
</g>
</g>
<!-- Node46&#45;&gt;Node47 -->
<g id="edge60" class="edge">
<title>Node46&#45;&gt;Node47</title>
<path fill="none" stroke="midnightblue" d="M1013.9,-274.62C998.74,-264.76 979.12,-251.99 966.3,-243.65"/>
<polygon fill="midnightblue" stroke="midnightblue" points="1012.37,-277.8 1022.66,-280.32 1016.19,-271.94 1012.37,-277.8"/>
</g>
<!-- Node46&#45;&gt;Node49 -->
<g id="edge63" class="edge">
<title>Node46&#45;&gt;Node49</title>
<path fill="none" stroke="midnightblue" d="M1066.91,-276.64C1092.24,-266.5 1127.43,-252.43 1149.71,-243.52"/>
<polygon fill="midnightblue" stroke="midnightblue" points="1065.38,-273.48 1057.39,-280.44 1067.98,-279.98 1065.38,-273.48"/>
</g>
<!-- Node46&#45;&gt;Node50 -->
<g id="edge65" class="edge">
<title>Node46&#45;&gt;Node50</title>
<path fill="none" stroke="midnightblue" d="M1086.38,-280.76C1147.96,-270.68 1251.62,-253.72 1313.95,-243.52"/>
<polygon fill="midnightblue" stroke="midnightblue" points="1085.44,-277.36 1076.13,-282.43 1086.57,-284.27 1085.44,-277.36"/>
</g>
<!-- Node47&#45;&gt;Node28 -->
<g id="edge62" class="edge">
<title>Node47&#45;&gt;Node28</title>
<path fill="none" stroke="midnightblue" d="M904.18,-224.15C817.01,-214.67 467.82,-191.68 329.1,-182.68"/>
<polygon fill="midnightblue" stroke="midnightblue" points="903.95,-227.65 914.29,-225.35 904.77,-220.7 903.95,-227.65"/>
</g>
<!-- Node48 -->
<g id="node45" class="node">
<title>Node48</title>
<g id="a_node45"><a xlink:href="joy_8c.html" target="_top" xlink:title=" ">
<polygon fill="white" stroke="black" points="917.5,-168.5 917.5,-187.5 988.5,-187.5 988.5,-168.5 917.5,-168.5"/>
<text text-anchor="middle" x="953" y="-175.5" font-family="Helvetica,sans-Serif" font-size="10.00">src/P2/joy.c</text>
</a>
</g>
</g>
<!-- Node47&#45;&gt;Node48 -->
<g id="edge61" class="edge">
<title>Node47&#45;&gt;Node48</title>
<path fill="none" stroke="midnightblue" d="M953,-213.8C953,-204.91 953,-194.78 953,-187.75"/>
<polygon fill="midnightblue" stroke="midnightblue" points="949.5,-214.08 953,-224.08 956.5,-214.08 949.5,-214.08"/>
</g>
<!-- Node49&#45;&gt;Node13 -->
<g id="edge64" class="edge">
<title>Node49&#45;&gt;Node13</title>
<path fill="none" stroke="midnightblue" d="M1171,-213.8C1171,-204.91 1171,-194.78 1171,-187.75"/>
<polygon fill="midnightblue" stroke="midnightblue" points="1167.5,-214.08 1171,-224.08 1174.5,-214.08 1167.5,-214.08"/>
</g>
<!-- Node51 -->
<g id="node48" class="node">
<title>Node51</title>
<g id="a_node48"><a xlink:href="ref_8cpp.html" target="_top" xlink:title=" ">
<polygon fill="white" stroke="black" points="1306.5,-168.5 1306.5,-187.5 1419.5,-187.5 1419.5,-168.5 1306.5,-168.5"/>
<text text-anchor="middle" x="1363" y="-175.5" font-family="Helvetica,sans-Serif" font-size="10.00">src/P2/splice/ref.cpp</text>
</a>
</g>
</g>
<!-- Node50&#45;&gt;Node51 -->
<g id="edge66" class="edge">
<title>Node50&#45;&gt;Node51</title>
<path fill="none" stroke="midnightblue" d="M1364.93,-213.8C1364.44,-204.91 1363.88,-194.78 1363.49,-187.75"/>
<polygon fill="midnightblue" stroke="midnightblue" points="1361.46,-214.29 1365.5,-224.08 1368.44,-213.9 1361.46,-214.29"/>
</g>
<!-- Node52&#45;&gt;Node10 -->
<g id="edge75" class="edge">
<title>Node52&#45;&gt;Node10</title>
<path fill="none" stroke="midnightblue" d="M1050.17,-388.16C1000.2,-364.57 889.13,-313.69 792,-280 748.66,-264.97 697.53,-251.69 663.81,-243.52"/>
<polygon fill="midnightblue" stroke="midnightblue" points="1048.79,-391.38 1059.32,-392.5 1051.79,-385.05 1048.79,-391.38"/>
</g>
<!-- Node53 -->
<g id="node50" class="node">
<title>Node53</title>
<g id="a_node50"><a xlink:href="sm_8h.html" target="_top" xlink:title="State machines.">
<polygon fill="white" stroke="black" points="1036.5,-336.5 1036.5,-355.5 1115.5,-355.5 1115.5,-336.5 1036.5,-336.5"/>
<text text-anchor="middle" x="1076" y="-343.5" font-family="Helvetica,sans-Serif" font-size="10.00">include/sm.h</text>
</a>
</g>
</g>
<!-- Node52&#45;&gt;Node53 -->
<g id="edge71" class="edge">
<title>Node52&#45;&gt;Node53</title>
<path fill="none" stroke="midnightblue" d="M1076.64,-381.8C1076.48,-372.91 1076.29,-362.78 1076.16,-355.75"/>
<polygon fill="midnightblue" stroke="midnightblue" points="1073.15,-382.15 1076.83,-392.08 1080.15,-382.02 1073.15,-382.15"/>
</g>
<!-- Node53&#45;&gt;Node5 -->
<g id="edge72" class="edge">
<title>Node53&#45;&gt;Node5</title>
<path fill="none" stroke="midnightblue" d="M1026.16,-340.88C933.64,-331.98 730.3,-306.47 571,-244 533.62,-229.34 494.6,-201.67 476.06,-187.63"/>
<polygon fill="midnightblue" stroke="midnightblue" points="1026.07,-344.39 1036.35,-341.84 1026.72,-337.42 1026.07,-344.39"/>
</g>
<!-- Node53&#45;&gt;Node15 -->
<g id="edge73" class="edge">
<title>Node53&#45;&gt;Node15</title>
<path fill="none" stroke="midnightblue" d="M1125.78,-338.21C1214.17,-325.01 1392.7,-292.84 1429,-244 1437.13,-233.06 1449.27,-198.21 1428,-168 1410.96,-143.8 1379.15,-132.61 1352.71,-127.43"/>
<polygon fill="midnightblue" stroke="midnightblue" points="1125.1,-334.77 1115.71,-339.69 1126.12,-341.7 1125.1,-334.77"/>
</g>
<!-- Node53&#45;&gt;Node46 -->
<g id="edge74" class="edge">
<title>Node53&#45;&gt;Node46</title>
<path fill="none" stroke="midnightblue" d="M1063.3,-327.86C1056.37,-318.5 1048.09,-307.33 1042.48,-299.75"/>
<polygon fill="midnightblue" stroke="midnightblue" points="1060.63,-330.13 1069.39,-336.08 1066.25,-325.96 1060.63,-330.13"/>
</g>
</g>
</svg>
