<?xml version="1.0" encoding="UTF-8" standalone="no"?>
<!DOCTYPE svg PUBLIC "-//W3C//DTD SVG 1.1//EN"
 "http://www.w3.org/Graphics/SVG/1.1/DTD/svg11.dtd">
<!-- Generated by graphviz version 2.43.0 (0)
 -->
<!-- Title: include/sm.h Pages: 1 -->
<svg width="518pt" height="364pt"
 viewBox="0.00 0.00 517.86 364.00" xmlns="http://www.w3.org/2000/svg" xmlns:xlink="http://www.w3.org/1999/xlink">
<g id="graph0" class="graph" transform="scale(1 1) rotate(0) translate(4 360)">
<title>include/sm.h</title>
<polygon fill="white" stroke="transparent" points="-4,4 -4,-360 513.86,-360 513.86,4 -4,4"/>
<!-- Node1 -->
<g id="node1" class="node">
<title>Node1</title>
<g id="a_node1"><a xlink:title="State machines.">
<polygon fill="#bfbfbf" stroke="black" points="46.5,-336.5 46.5,-355.5 125.5,-355.5 125.5,-336.5 46.5,-336.5"/>
<text text-anchor="middle" x="86" y="-343.5" font-family="Helvetica,sans-Serif" font-size="10.00">include/sm.h</text>
</a>
</g>
</g>
<!-- Node2 -->
<g id="node2" class="node">
<title>Node2</title>
<g id="a_node2"><a xlink:href="common_8h.html" target="_top" xlink:title="Common header file.">
<polygon fill="white" stroke="black" points="203,-56.5 203,-75.5 271,-75.5 271,-56.5 203,-56.5"/>
<text text-anchor="middle" x="237" y="-63.5" font-family="Helvetica,sans-Serif" font-size="10.00">common.h</text>
</a>
</g>
</g>
<!-- Node1&#45;&gt;Node2 -->
<g id="edge1" class="edge">
<title>Node1&#45;&gt;Node2</title>
<path fill="none" stroke="midnightblue" d="M70.03,-336.38C56.69,-328.46 37.96,-315.61 26,-300 7.07,-275.3 0,-266.11 0,-235 0,-235 0,-235 0,-177 0,-92.97 124.09,-72.95 192.69,-68.31"/>
<polygon fill="midnightblue" stroke="midnightblue" points="193.02,-71.79 202.79,-67.71 192.6,-64.81 193.02,-71.79"/>
</g>
<!-- Node7 -->
<g id="node7" class="node">
<title>Node7</title>
<g id="a_node7"><a xlink:href="dl_8h.html" target="_top" xlink:title=" ">
<polygon fill="white" stroke="black" points="448.5,-168.5 448.5,-187.5 483.5,-187.5 483.5,-168.5 448.5,-168.5"/>
<text text-anchor="middle" x="466" y="-175.5" font-family="Helvetica,sans-Serif" font-size="10.00">dl.h</text>
</a>
</g>
</g>
<!-- Node1&#45;&gt;Node7 -->
<g id="edge6" class="edge">
<title>Node1&#45;&gt;Node7</title>
<path fill="none" stroke="midnightblue" d="M105.63,-336.42C168.77,-308.84 366.72,-222.37 439.13,-190.74"/>
<polygon fill="midnightblue" stroke="midnightblue" points="440.72,-193.86 448.49,-186.65 437.92,-187.45 440.72,-193.86"/>
</g>
<!-- Node9 -->
<g id="node9" class="node">
<title>Node9</title>
<g id="a_node9"><a xlink:href="anim_8h.html" target="_top" xlink:title="Animation.">
<polygon fill="white" stroke="black" points="35,-280.5 35,-299.5 85,-299.5 85,-280.5 35,-280.5"/>
<text text-anchor="middle" x="60" y="-287.5" font-family="Helvetica,sans-Serif" font-size="10.00">anim.h</text>
</a>
</g>
</g>
<!-- Node1&#45;&gt;Node9 -->
<g id="edge10" class="edge">
<title>Node1&#45;&gt;Node9</title>
<path fill="none" stroke="midnightblue" d="M81.71,-336.08C78.15,-328.69 72.98,-317.95 68.58,-308.81"/>
<polygon fill="midnightblue" stroke="midnightblue" points="71.71,-307.24 64.21,-299.75 65.4,-310.28 71.71,-307.24"/>
</g>
<!-- Node15 -->
<g id="node15" class="node">
<title>Node15</title>
<g id="a_node15"><a xlink:href="mq_8h.html" target="_top" xlink:title="Message queue(?).">
<polygon fill="white" stroke="black" points="92.5,-168.5 92.5,-187.5 133.5,-187.5 133.5,-168.5 92.5,-168.5"/>
<text text-anchor="middle" x="113" y="-175.5" font-family="Helvetica,sans-Serif" font-size="10.00">mq.h</text>
</a>
</g>
</g>
<!-- Node1&#45;&gt;Node15 -->
<g id="edge26" class="edge">
<title>Node1&#45;&gt;Node15</title>
<path fill="none" stroke="midnightblue" d="M87.59,-336.38C89.24,-327.33 91.88,-312.68 94,-300 100.06,-263.77 106.59,-221.35 110.2,-197.58"/>
<polygon fill="midnightblue" stroke="midnightblue" points="113.69,-197.93 111.72,-187.52 106.77,-196.88 113.69,-197.93"/>
</g>
<!-- Node3 -->
<g id="node3" class="node">
<title>Node3</title>
<g id="a_node3"><a xlink:href="include__asm_8h.html" target="_top" xlink:title=" ">
<polygon fill="white" stroke="black" points="35.5,-0.5 35.5,-19.5 122.5,-19.5 122.5,-0.5 35.5,-0.5"/>
<text text-anchor="middle" x="79" y="-7.5" font-family="Helvetica,sans-Serif" font-size="10.00">include_asm.h</text>
</a>
</g>
</g>
<!-- Node2&#45;&gt;Node3 -->
<g id="edge2" class="edge">
<title>Node2&#45;&gt;Node3</title>
<path fill="none" stroke="midnightblue" d="M211.96,-56.44C185.38,-47.36 143.19,-32.94 113.48,-22.78"/>
<polygon fill="midnightblue" stroke="midnightblue" points="114.51,-19.44 103.92,-19.52 112.25,-26.06 114.51,-19.44"/>
</g>
<!-- Node4 -->
<g id="node4" class="node">
<title>Node4</title>
<g id="a_node4"><a xlink:href="include__rodata_8h.html" target="_top" xlink:title=" ">
<polygon fill="white" stroke="black" points="141,-0.5 141,-19.5 239,-19.5 239,-0.5 141,-0.5"/>
<text text-anchor="middle" x="190" y="-7.5" font-family="Helvetica,sans-Serif" font-size="10.00">include_rodata.h</text>
</a>
</g>
</g>
<!-- Node2&#45;&gt;Node4 -->
<g id="edge3" class="edge">
<title>Node2&#45;&gt;Node4</title>
<path fill="none" stroke="midnightblue" d="M229.24,-56.08C222.46,-48.3 212.46,-36.8 204.24,-27.37"/>
<polygon fill="midnightblue" stroke="midnightblue" points="206.82,-25 197.62,-19.75 201.54,-29.59 206.82,-25"/>
</g>
<!-- Node5 -->
<g id="node5" class="node">
<title>Node5</title>
<g id="a_node5"><a xlink:href="types_8h.html" target="_top" xlink:title="Types used throughout the engine.">
<polygon fill="white" stroke="black" points="257.5,-0.5 257.5,-19.5 310.5,-19.5 310.5,-0.5 257.5,-0.5"/>
<text text-anchor="middle" x="284" y="-7.5" font-family="Helvetica,sans-Serif" font-size="10.00">types.h</text>
</a>
</g>
</g>
<!-- Node2&#45;&gt;Node5 -->
<g id="edge4" class="edge">
<title>Node2&#45;&gt;Node5</title>
<path fill="none" stroke="midnightblue" d="M244.76,-56.08C251.54,-48.3 261.54,-36.8 269.76,-27.37"/>
<polygon fill="midnightblue" stroke="midnightblue" points="272.46,-29.59 276.38,-19.75 267.18,-25 272.46,-29.59"/>
</g>
<!-- Node6 -->
<g id="node6" class="node">
<title>Node6</title>
<g id="a_node6"><a xlink:href="vtables_8h.html" target="_top" xlink:title=" ">
<polygon fill="white" stroke="black" points="329,-0.5 329,-19.5 391,-19.5 391,-0.5 329,-0.5"/>
<text text-anchor="middle" x="360" y="-7.5" font-family="Helvetica,sans-Serif" font-size="10.00">vtables.h</text>
</a>
</g>
</g>
<!-- Node2&#45;&gt;Node6 -->
<g id="edge5" class="edge">
<title>Node2&#45;&gt;Node6</title>
<path fill="none" stroke="midnightblue" d="M256.49,-56.44C276.64,-47.6 308.32,-33.69 331.33,-23.59"/>
<polygon fill="midnightblue" stroke="midnightblue" points="332.85,-26.74 340.6,-19.52 330.04,-20.33 332.85,-26.74"/>
</g>
<!-- Node7&#45;&gt;Node2 -->
<g id="edge7" class="edge">
<title>Node7&#45;&gt;Node2</title>
<path fill="none" stroke="midnightblue" d="M477.77,-168.43C494.23,-155.42 520.47,-130.28 505,-112 476.85,-78.73 349.73,-70.04 281.17,-67.78"/>
<polygon fill="midnightblue" stroke="midnightblue" points="281.19,-64.28 271.09,-67.49 280.98,-71.28 281.19,-64.28"/>
</g>
<!-- Node8 -->
<g id="node8" class="node">
<title>Node8</title>
<g id="a_node8"><a xlink:href="oid_8h.html" target="_top" xlink:title="Object IDs.">
<polygon fill="white" stroke="black" points="454.5,-112.5 454.5,-131.5 495.5,-131.5 495.5,-112.5 454.5,-112.5"/>
<text text-anchor="middle" x="475" y="-119.5" font-family="Helvetica,sans-Serif" font-size="10.00">oid.h</text>
</a>
</g>
</g>
<!-- Node7&#45;&gt;Node8 -->
<g id="edge8" class="edge">
<title>Node7&#45;&gt;Node8</title>
<path fill="none" stroke="midnightblue" d="M467.49,-168.08C468.68,-160.93 470.39,-150.64 471.88,-141.69"/>
<polygon fill="midnightblue" stroke="midnightblue" points="475.35,-142.19 473.54,-131.75 468.45,-141.04 475.35,-142.19"/>
</g>
<!-- Node8&#45;&gt;Node2 -->
<g id="edge9" class="edge">
<title>Node8&#45;&gt;Node2</title>
<path fill="none" stroke="midnightblue" d="M454.4,-114.59C451.26,-113.68 448.05,-112.79 445,-112 388.81,-97.52 323.28,-83.87 281.02,-75.48"/>
<polygon fill="midnightblue" stroke="midnightblue" points="281.55,-72.02 271.06,-73.52 280.19,-78.88 281.55,-72.02"/>
</g>
<!-- Node9&#45;&gt;Node2 -->
<g id="edge11" class="edge">
<title>Node9&#45;&gt;Node2</title>
<path fill="none" stroke="midnightblue" d="M58.42,-280.33C53.82,-252.16 43.37,-162.21 87,-112 113.18,-81.87 158.67,-71.5 192.7,-68.13"/>
<polygon fill="midnightblue" stroke="midnightblue" points="193.18,-71.6 202.86,-67.3 192.61,-64.63 193.18,-71.6"/>
</g>
<!-- Node10 -->
<g id="node10" class="node">
<title>Node10</title>
<g id="a_node10"><a xlink:href="lo_8h.html" target="_top" xlink:title="Level objects.">
<polygon fill="white" stroke="black" points="227.5,-224.5 227.5,-243.5 262.5,-243.5 262.5,-224.5 227.5,-224.5"/>
<text text-anchor="middle" x="245" y="-231.5" font-family="Helvetica,sans-Serif" font-size="10.00">lo.h</text>
</a>
</g>
</g>
<!-- Node9&#45;&gt;Node10 -->
<g id="edge12" class="edge">
<title>Node9&#45;&gt;Node10</title>
<path fill="none" stroke="midnightblue" d="M85.34,-281.6C120.01,-271.48 182.01,-253.39 217.69,-242.97"/>
<polygon fill="midnightblue" stroke="midnightblue" points="218.82,-246.29 227.43,-240.13 216.85,-239.57 218.82,-246.29"/>
</g>
<!-- Node10&#45;&gt;Node2 -->
<g id="edge13" class="edge">
<title>Node10&#45;&gt;Node2</title>
<path fill="none" stroke="midnightblue" d="M243.01,-224.43C241.03,-215.42 238.13,-200.8 237,-188 233.81,-151.85 234.93,-109.4 235.99,-85.6"/>
<polygon fill="midnightblue" stroke="midnightblue" points="239.49,-85.69 236.49,-75.53 232.5,-85.35 239.49,-85.69"/>
</g>
<!-- Node10&#45;&gt;Node7 -->
<g id="edge19" class="edge">
<title>Node10&#45;&gt;Node7</title>
<path fill="none" stroke="midnightblue" d="M262.71,-228.67C301.1,-219.29 392.22,-197.03 438.3,-185.77"/>
<polygon fill="midnightblue" stroke="midnightblue" points="439.32,-189.12 448.2,-183.35 437.66,-182.32 439.32,-189.12"/>
</g>
<!-- Node10&#45;&gt;Node8 -->
<g id="edge14" class="edge">
<title>Node10&#45;&gt;Node8</title>
<path fill="none" stroke="midnightblue" d="M262.63,-225.45C282.88,-216.7 317.04,-201.74 346,-188 382.16,-170.84 423.38,-149.81 449.29,-136.41"/>
<polygon fill="midnightblue" stroke="midnightblue" points="451.16,-139.38 458.43,-131.67 447.94,-133.17 451.16,-139.38"/>
</g>
<!-- Node11 -->
<g id="node11" class="node">
<title>Node11</title>
<g id="a_node11"><a xlink:href="basic_8h.html" target="_top" xlink:title="Basic object.">
<polygon fill="white" stroke="black" points="246.5,-168.5 246.5,-187.5 297.5,-187.5 297.5,-168.5 246.5,-168.5"/>
<text text-anchor="middle" x="272" y="-175.5" font-family="Helvetica,sans-Serif" font-size="10.00">basic.h</text>
</a>
</g>
</g>
<!-- Node10&#45;&gt;Node11 -->
<g id="edge15" class="edge">
<title>Node10&#45;&gt;Node11</title>
<path fill="none" stroke="midnightblue" d="M249.46,-224.08C253.15,-216.69 258.52,-205.95 263.09,-196.81"/>
<polygon fill="midnightblue" stroke="midnightblue" points="266.28,-198.26 267.62,-187.75 260.02,-195.13 266.28,-198.26"/>
</g>
<!-- Node13 -->
<g id="node13" class="node">
<title>Node13</title>
<g id="a_node13"><a xlink:href="sw_8h.html" target="_top" xlink:title="Scene world?">
<polygon fill="white" stroke="black" points="398,-112.5 398,-131.5 436,-131.5 436,-112.5 398,-112.5"/>
<text text-anchor="middle" x="417" y="-119.5" font-family="Helvetica,sans-Serif" font-size="10.00">sw.h</text>
</a>
</g>
</g>
<!-- Node10&#45;&gt;Node13 -->
<g id="edge20" class="edge">
<title>Node10&#45;&gt;Node13</title>
<path fill="none" stroke="midnightblue" d="M258.5,-224.37C288.01,-205.49 358.54,-160.38 394.74,-137.24"/>
<polygon fill="midnightblue" stroke="midnightblue" points="397.03,-139.93 403.57,-131.59 393.26,-134.03 397.03,-139.93"/>
</g>
<!-- Node14 -->
<g id="node14" class="node">
<title>Node14</title>
<g id="a_node14"><a xlink:href="frame_8h.html" target="_top" xlink:title=" ">
<polygon fill="white" stroke="black" points="104,-112.5 104,-131.5 190,-131.5 190,-112.5 104,-112.5"/>
<text text-anchor="middle" x="147" y="-119.5" font-family="Helvetica,sans-Serif" font-size="10.00">splice/frame.h</text>
</a>
</g>
</g>
<!-- Node10&#45;&gt;Node14 -->
<g id="edge22" class="edge">
<title>Node10&#45;&gt;Node14</title>
<path fill="none" stroke="midnightblue" d="M237.09,-224.42C228.8,-215.39 215.41,-200.77 204,-188 189.39,-171.66 172.91,-152.81 161.44,-139.64"/>
<polygon fill="midnightblue" stroke="midnightblue" points="163.89,-137.13 154.69,-131.88 158.61,-141.72 163.89,-137.13"/>
</g>
<!-- Node10&#45;&gt;Node15 -->
<g id="edge24" class="edge">
<title>Node10&#45;&gt;Node15</title>
<path fill="none" stroke="midnightblue" d="M227.47,-225.83C205.96,-217.03 169.12,-201.96 143.05,-191.29"/>
<polygon fill="midnightblue" stroke="midnightblue" points="144.22,-187.99 133.64,-187.45 141.57,-194.47 144.22,-187.99"/>
</g>
<!-- Node11&#45;&gt;Node2 -->
<g id="edge16" class="edge">
<title>Node11&#45;&gt;Node2</title>
<path fill="none" stroke="midnightblue" d="M269.25,-168.37C263.58,-150.54 250.46,-109.3 242.81,-85.27"/>
<polygon fill="midnightblue" stroke="midnightblue" points="246.1,-84.06 239.73,-75.59 239.43,-86.18 246.1,-84.06"/>
</g>
<!-- Node12 -->
<g id="node12" class="node">
<title>Node12</title>
<g id="a_node12"><a xlink:href="sidebag_8h.html" target="_top" xlink:title="Sidebag for splice.">
<polygon fill="white" stroke="black" points="284.5,-112.5 284.5,-131.5 379.5,-131.5 379.5,-112.5 284.5,-112.5"/>
<text text-anchor="middle" x="332" y="-119.5" font-family="Helvetica,sans-Serif" font-size="10.00">splice/sidebag.h</text>
</a>
</g>
</g>
<!-- Node11&#45;&gt;Node12 -->
<g id="edge17" class="edge">
<title>Node11&#45;&gt;Node12</title>
<path fill="none" stroke="midnightblue" d="M281.64,-168.32C290.51,-160.34 303.87,-148.31 314.61,-138.65"/>
<polygon fill="midnightblue" stroke="midnightblue" points="317.09,-141.13 322.18,-131.83 312.41,-135.92 317.09,-141.13"/>
</g>
<!-- Node12&#45;&gt;Node2 -->
<g id="edge18" class="edge">
<title>Node12&#45;&gt;Node2</title>
<path fill="none" stroke="midnightblue" d="M316.74,-112.32C301.78,-103.82 278.75,-90.73 261.27,-80.8"/>
<polygon fill="midnightblue" stroke="midnightblue" points="262.65,-77.55 252.23,-75.65 259.19,-83.64 262.65,-77.55"/>
</g>
<!-- Node13&#45;&gt;Node2 -->
<g id="edge21" class="edge">
<title>Node13&#45;&gt;Node2</title>
<path fill="none" stroke="midnightblue" d="M397.74,-114.74C394.81,-113.81 391.83,-112.87 389,-112 350.84,-100.22 307.11,-87.34 276.38,-78.39"/>
<polygon fill="midnightblue" stroke="midnightblue" points="277.06,-74.94 266.48,-75.51 275.11,-81.66 277.06,-74.94"/>
</g>
<!-- Node14&#45;&gt;Node2 -->
<g id="edge23" class="edge">
<title>Node14&#45;&gt;Node2</title>
<path fill="none" stroke="midnightblue" d="M161.46,-112.32C175.5,-103.9 197.05,-90.97 213.54,-81.07"/>
<polygon fill="midnightblue" stroke="midnightblue" points="215.8,-83.8 222.58,-75.65 212.2,-77.8 215.8,-83.8"/>
</g>
<!-- Node15&#45;&gt;Node2 -->
<g id="edge25" class="edge">
<title>Node15&#45;&gt;Node2</title>
<path fill="none" stroke="midnightblue" d="M106.2,-168.16C96.82,-154.79 82.41,-129.2 95,-112 117.12,-81.78 159.66,-71.35 192.44,-67.99"/>
<polygon fill="midnightblue" stroke="midnightblue" points="193.02,-71.45 202.7,-67.13 192.44,-64.48 193.02,-71.45"/>
</g>
</g>
</svg>
