<?xml version="1.0" encoding="UTF-8" standalone="no"?>
<!DOCTYPE svg PUBLIC "-//W3C//DTD SVG 1.1//EN"
 "http://www.w3.org/Graphics/SVG/1.1/DTD/svg11.dtd">
<!-- Generated by graphviz version 2.43.0 (0)
 -->
<!-- Title: include/sm.h Pages: 1 -->
<svg width="371pt" height="252pt"
 viewBox="0.00 0.00 371.00 252.00" xmlns="http://www.w3.org/2000/svg" xmlns:xlink="http://www.w3.org/1999/xlink">
<g id="graph0" class="graph" transform="scale(1 1) rotate(0) translate(4 248)">
<title>include/sm.h</title>
<polygon fill="white" stroke="transparent" points="-4,4 -4,-248 367,-248 367,4 -4,4"/>
<!-- Node1 -->
<g id="node1" class="node">
<title>Node1</title>
<g id="a_node1"><a xlink:title="State machines.">
<polygon fill="#bfbfbf" stroke="black" points="109,-224.5 109,-243.5 188,-243.5 188,-224.5 109,-224.5"/>
<text text-anchor="middle" x="148.5" y="-231.5" font-family="Helvetica,sans-Serif" font-size="10.00">include/sm.h</text>
</a>
</g>
</g>
<!-- Node2 -->
<g id="node2" class="node">
<title>Node2</title>
<g id="a_node2"><a xlink:href="dl_8h.html" target="_top" xlink:title="Doubly&#45;linked list.">
<polygon fill="white" stroke="black" points="0,-56.5 0,-75.5 35,-75.5 35,-56.5 0,-56.5"/>
<text text-anchor="middle" x="17.5" y="-63.5" font-family="Helvetica,sans-Serif" font-size="10.00">dl.h</text>
</a>
</g>
</g>
<!-- Node1&#45;&gt;Node2 -->
<g id="edge1" class="edge">
<title>Node1&#45;&gt;Node2</title>
<path fill="none" stroke="midnightblue" d="M141.46,-224.08C120.48,-197.49 58.17,-118.54 30.73,-83.76"/>
<polygon fill="midnightblue" stroke="midnightblue" points="33.2,-81.25 24.26,-75.57 27.71,-85.59 33.2,-81.25"/>
</g>
<!-- Node4 -->
<g id="node4" class="node">
<title>Node4</title>
<g id="a_node4"><a xlink:href="anim_8h.html" target="_top" xlink:title="Animation.">
<polygon fill="white" stroke="black" points="123.5,-168.5 123.5,-187.5 173.5,-187.5 173.5,-168.5 123.5,-168.5"/>
<text text-anchor="middle" x="148.5" y="-175.5" font-family="Helvetica,sans-Serif" font-size="10.00">anim.h</text>
</a>
</g>
</g>
<!-- Node1&#45;&gt;Node4 -->
<g id="edge3" class="edge">
<title>Node1&#45;&gt;Node4</title>
<path fill="none" stroke="midnightblue" d="M148.5,-224.08C148.5,-217.01 148.5,-206.86 148.5,-197.99"/>
<polygon fill="midnightblue" stroke="midnightblue" points="152,-197.75 148.5,-187.75 145,-197.75 152,-197.75"/>
</g>
<!-- Node10 -->
<g id="node10" class="node">
<title>Node10</title>
<g id="a_node10"><a xlink:href="mq_8h.html" target="_top" xlink:title="Message queue.">
<polygon fill="white" stroke="black" points="322,-56.5 322,-75.5 363,-75.5 363,-56.5 322,-56.5"/>
<text text-anchor="middle" x="342.5" y="-63.5" font-family="Helvetica,sans-Serif" font-size="10.00">mq.h</text>
</a>
</g>
</g>
<!-- Node1&#45;&gt;Node10 -->
<g id="edge12" class="edge">
<title>Node1&#45;&gt;Node10</title>
<path fill="none" stroke="midnightblue" d="M158.66,-224.31C189.89,-197.58 284.8,-116.38 324.61,-82.3"/>
<polygon fill="midnightblue" stroke="midnightblue" points="327.12,-84.77 332.44,-75.61 322.57,-79.45 327.12,-84.77"/>
</g>
<!-- Node3 -->
<g id="node3" class="node">
<title>Node3</title>
<g id="a_node3"><a xlink:href="oid_8h.html" target="_top" xlink:title="Object IDs.">
<polygon fill="white" stroke="black" points="4,-0.5 4,-19.5 45,-19.5 45,-0.5 4,-0.5"/>
<text text-anchor="middle" x="24.5" y="-7.5" font-family="Helvetica,sans-Serif" font-size="10.00">oid.h</text>
</a>
</g>
</g>
<!-- Node2&#45;&gt;Node3 -->
<g id="edge2" class="edge">
<title>Node2&#45;&gt;Node3</title>
<path fill="none" stroke="midnightblue" d="M18.66,-56.08C19.58,-48.93 20.92,-38.64 22.08,-29.69"/>
<polygon fill="midnightblue" stroke="midnightblue" points="25.55,-30.12 23.37,-19.75 18.61,-29.22 25.55,-30.12"/>
</g>
<!-- Node5 -->
<g id="node5" class="node">
<title>Node5</title>
<g id="a_node5"><a xlink:href="lo_8h.html" target="_top" xlink:title="Level objects.">
<polygon fill="white" stroke="black" points="131,-112.5 131,-131.5 166,-131.5 166,-112.5 131,-112.5"/>
<text text-anchor="middle" x="148.5" y="-119.5" font-family="Helvetica,sans-Serif" font-size="10.00">lo.h</text>
</a>
</g>
</g>
<!-- Node4&#45;&gt;Node5 -->
<g id="edge4" class="edge">
<title>Node4&#45;&gt;Node5</title>
<path fill="none" stroke="midnightblue" d="M148.5,-168.08C148.5,-161.01 148.5,-150.86 148.5,-141.99"/>
<polygon fill="midnightblue" stroke="midnightblue" points="152,-141.75 148.5,-131.75 145,-141.75 152,-141.75"/>
</g>
<!-- Node5&#45;&gt;Node2 -->
<g id="edge8" class="edge">
<title>Node5&#45;&gt;Node2</title>
<path fill="none" stroke="midnightblue" d="M130.83,-113.72C108.66,-104.58 70.42,-88.81 44.55,-78.15"/>
<polygon fill="midnightblue" stroke="midnightblue" points="45.88,-74.92 35.31,-74.34 43.22,-81.39 45.88,-74.92"/>
</g>
<!-- Node5&#45;&gt;Node3 -->
<g id="edge5" class="edge">
<title>Node5&#45;&gt;Node3</title>
<path fill="none" stroke="midnightblue" d="M133.86,-112.46C119.98,-104.03 98.86,-90.36 82.5,-76 65.53,-61.11 48.63,-41.48 37.48,-27.7"/>
<polygon fill="midnightblue" stroke="midnightblue" points="40.01,-25.26 31.05,-19.6 34.53,-29.61 40.01,-25.26"/>
</g>
<!-- Node6 -->
<g id="node6" class="node">
<title>Node6</title>
<g id="a_node6"><a xlink:href="basic_8h.html" target="_top" xlink:title="Basic object.">
<polygon fill="white" stroke="black" points="92,-56.5 92,-75.5 143,-75.5 143,-56.5 92,-56.5"/>
<text text-anchor="middle" x="117.5" y="-63.5" font-family="Helvetica,sans-Serif" font-size="10.00">basic.h</text>
</a>
</g>
</g>
<!-- Node5&#45;&gt;Node6 -->
<g id="edge6" class="edge">
<title>Node5&#45;&gt;Node6</title>
<path fill="none" stroke="midnightblue" d="M143.38,-112.08C139.09,-104.61 132.84,-93.72 127.56,-84.52"/>
<polygon fill="midnightblue" stroke="midnightblue" points="130.54,-82.68 122.52,-75.75 124.47,-86.17 130.54,-82.68"/>
</g>
<!-- Node8 -->
<g id="node8" class="node">
<title>Node8</title>
<g id="a_node8"><a xlink:href="sw_8h.html" target="_top" xlink:title="Scene world?">
<polygon fill="white" stroke="black" points="161.5,-56.5 161.5,-75.5 199.5,-75.5 199.5,-56.5 161.5,-56.5"/>
<text text-anchor="middle" x="180.5" y="-63.5" font-family="Helvetica,sans-Serif" font-size="10.00">sw.h</text>
</a>
</g>
</g>
<!-- Node5&#45;&gt;Node8 -->
<g id="edge9" class="edge">
<title>Node5&#45;&gt;Node8</title>
<path fill="none" stroke="midnightblue" d="M153.78,-112.08C158.21,-104.61 164.66,-93.72 170.12,-84.52"/>
<polygon fill="midnightblue" stroke="midnightblue" points="173.23,-86.14 175.31,-75.75 167.21,-82.57 173.23,-86.14"/>
</g>
<!-- Node9 -->
<g id="node9" class="node">
<title>Node9</title>
<g id="a_node9"><a xlink:href="frame_8h.html" target="_top" xlink:title=" ">
<polygon fill="white" stroke="black" points="217.5,-56.5 217.5,-75.5 303.5,-75.5 303.5,-56.5 217.5,-56.5"/>
<text text-anchor="middle" x="260.5" y="-63.5" font-family="Helvetica,sans-Serif" font-size="10.00">splice/frame.h</text>
</a>
</g>
</g>
<!-- Node5&#45;&gt;Node9 -->
<g id="edge10" class="edge">
<title>Node5&#45;&gt;Node9</title>
<path fill="none" stroke="midnightblue" d="M166.49,-112.32C184.54,-103.62 212.55,-90.12 233.3,-80.11"/>
<polygon fill="midnightblue" stroke="midnightblue" points="235.06,-83.15 242.55,-75.65 232.02,-76.84 235.06,-83.15"/>
</g>
<!-- Node5&#45;&gt;Node10 -->
<g id="edge11" class="edge">
<title>Node5&#45;&gt;Node10</title>
<path fill="none" stroke="midnightblue" d="M166.25,-116.28C194.8,-108.65 252.88,-93 311.99,-76.1"/>
<polygon fill="midnightblue" stroke="midnightblue" points="313.22,-79.38 321.86,-73.26 311.28,-72.66 313.22,-79.38"/>
</g>
<!-- Node7 -->
<g id="node7" class="node">
<title>Node7</title>
<g id="a_node7"><a xlink:href="sidebag_8h.html" target="_top" xlink:title="Sidebag for splice.">
<polygon fill="white" stroke="black" points="70,-0.5 70,-19.5 165,-19.5 165,-0.5 70,-0.5"/>
<text text-anchor="middle" x="117.5" y="-7.5" font-family="Helvetica,sans-Serif" font-size="10.00">splice/sidebag.h</text>
</a>
</g>
</g>
<!-- Node6&#45;&gt;Node7 -->
<g id="edge7" class="edge">
<title>Node6&#45;&gt;Node7</title>
<path fill="none" stroke="midnightblue" d="M117.5,-56.08C117.5,-49.01 117.5,-38.86 117.5,-29.99"/>
<polygon fill="midnightblue" stroke="midnightblue" points="121,-29.75 117.5,-19.75 114,-29.75 121,-29.75"/>
</g>
</g>
</svg>
