<?xml version="1.0" encoding="UTF-8" standalone="no"?>
<!DOCTYPE svg PUBLIC "-//W3C//DTD SVG 1.1//EN"
 "http://www.w3.org/Graphics/SVG/1.1/DTD/svg11.dtd">
<!-- Generated by graphviz version 2.43.0 (0)
 -->
<!-- Title: include/sm.h Pages: 1 -->
<!--zoomable 364 -->
<svg id="main" version="1.1" xmlns="http://www.w3.org/2000/svg" xmlns:xlink="http://www.w3.org/1999/xlink" xml:space="preserve" onload="init(evt)">
<style type="text/css"><![CDATA[
.edge:hover path { stroke: red; }
.edge:hover polygon { stroke: red; fill: red; }
]]></style>
<script type="text/javascript"><![CDATA[
var edges = document.getElementsByTagName('g');
if (edges && edges.length) {
  for (var i=0;i<edges.length;i++) {
    if (edges[i].id.substr(0,4)=='edge') {
      edges[i].setAttribute('class','edge');
    }
  }
}
]]></script>
        <defs>
                <circle id="rim" cx="0" cy="0" r="7"/>
                <circle id="rim2" cx="0" cy="0" r="3.5"/>
                <g id="zoomPlus">
                        <use xlink:href="#rim" fill="#404040">
                                <set attributeName="fill" to="#808080" begin="zoomplus.mouseover" end="zoomplus.mouseout"/>
                        </use>
                        <path d="M-4,0h8M0,-4v8" fill="none" stroke="white" stroke-width="1.5" pointer-events="none"/>
                </g>
                <g id="zoomMin">
                        <use xlink:href="#rim" fill="#404040">
                                <set attributeName="fill" to="#808080" begin="zoomminus.mouseover" end="zoomminus.mouseout"/>
                        </use>
                        <path d="M-4,0h8" fill="none" stroke="white" stroke-width="1.5" pointer-events="none"/>
                </g>
                <g id="dirArrow">
                        <path fill="none" stroke="white" stroke-width="1.5" d="M0,-3.0v7 M-2.5,-0.5L0,-3.0L2.5,-0.5"/>
                </g>
               <g id="resetDef">
                       <use xlink:href="#rim2" fill="#404040">
                               <set attributeName="fill" to="#808080" begin="reset.mouseover" end="reset.mouseout"/>
                       </use>
               </g>
        </defs>

<script type="text/javascript">
var viewWidth = 1623;
var viewHeight = 364;
var sectionId = 'dynsection-1';
</script>
<script xlink:href="svgpan.js"/>
<svg id="graph" class="graph">
<g id="viewport">
<title>include/sm.h</title>
<polygon fill="white" stroke="transparent" points="-4,4 -4,-360 1619,-360 1619,4 -4,4"/>
<!-- Node1 -->
<g id="node1" class="node">
<title>Node1</title>
<g id="a_node1"><a xlink:title="State machines.">
<polygon fill="#bfbfbf" stroke="black" points="548,-336.5 548,-355.5 627,-355.5 627,-336.5 548,-336.5"/>
<text text-anchor="middle" x="587.5" y="-343.5" font-family="Helvetica,sans-Serif" font-size="10.00">include/sm.h</text>
</a>
</g>
</g>
<!-- Node2 -->
<g id="node2" class="node">
<title>Node2</title>
<g id="a_node2"><a xlink:href="coin_8h.html" target="_top" xlink:title="Coins, keys, and other collectibles.">
<polygon fill="white" stroke="black" points="65.5,-168.5 65.5,-187.5 149.5,-187.5 149.5,-168.5 65.5,-168.5"/>
<text text-anchor="middle" x="107.5" y="-175.5" font-family="Helvetica,sans-Serif" font-size="10.00">include/coin.h</text>
</a>
</g>
</g>
<!-- Node1&#45;&gt;Node2 -->
<g id="edge1" class="edge">
<title>Node1&#45;&gt;Node2</title>
<path fill="none" stroke="midnightblue" d="M546.17,-333.7C483.68,-316.29 361.72,-281.02 260.5,-244 211.17,-225.96 154.65,-200.72 126.1,-187.63"/>
<polygon fill="midnightblue" stroke="midnightblue" points="545.46,-337.14 556.04,-336.44 547.34,-330.39 545.46,-337.14"/>
</g>
<!-- Node4 -->
<g id="node4" class="node">
<title>Node4</title>
<g id="a_node4"><a xlink:href="flash_8h.html" target="_top" xlink:title="Flash (might be flash animation, or literal screen flashes).">
<polygon fill="white" stroke="black" points="647,-112.5 647,-131.5 734,-131.5 734,-112.5 647,-112.5"/>
<text text-anchor="middle" x="690.5" y="-119.5" font-family="Helvetica,sans-Serif" font-size="10.00">include/flash.h</text>
</a>
</g>
</g>
<!-- Node1&#45;&gt;Node4 -->
<g id="edge3" class="edge">
<title>Node1&#45;&gt;Node4</title>
<path fill="none" stroke="midnightblue" d="M637.26,-333.76C682.47,-320.62 746.54,-293.99 776.5,-244 802.87,-200.01 736.28,-151.3 705.31,-131.78"/>
<polygon fill="midnightblue" stroke="midnightblue" points="636.05,-330.46 627.35,-336.51 637.92,-337.21 636.05,-330.46"/>
</g>
<!-- Node6 -->
<g id="node6" class="node">
<title>Node6</title>
<g id="a_node6"><a xlink:href="util_8h.html" target="_top" xlink:title="Utility functions.">
<polygon fill="white" stroke="black" points="547.5,-280.5 547.5,-299.5 627.5,-299.5 627.5,-280.5 547.5,-280.5"/>
<text text-anchor="middle" x="587.5" y="-287.5" font-family="Helvetica,sans-Serif" font-size="10.00">include/util.h</text>
</a>
</g>
</g>
<!-- Node1&#45;&gt;Node6 -->
<g id="edge5" class="edge">
<title>Node1&#45;&gt;Node6</title>
<path fill="none" stroke="midnightblue" d="M587.5,-325.8C587.5,-316.91 587.5,-306.78 587.5,-299.75"/>
<polygon fill="midnightblue" stroke="midnightblue" points="584,-326.08 587.5,-336.08 591,-326.08 584,-326.08"/>
</g>
<!-- Node3 -->
<g id="node3" class="node">
<title>Node3</title>
<g id="a_node3"><a xlink:href="coin_8c.html" target="_top" xlink:title=" ">
<polygon fill="white" stroke="black" points="0,-56.5 0,-75.5 77,-75.5 77,-56.5 0,-56.5"/>
<text text-anchor="middle" x="38.5" y="-63.5" font-family="Helvetica,sans-Serif" font-size="10.00">src/P2/coin.c</text>
</a>
</g>
</g>
<!-- Node2&#45;&gt;Node3 -->
<g id="edge2" class="edge">
<title>Node2&#45;&gt;Node3</title>
<path fill="none" stroke="midnightblue" d="M96.61,-159.64C81.62,-135.74 55.2,-93.63 43.89,-75.59"/>
<polygon fill="midnightblue" stroke="midnightblue" points="93.81,-161.76 102.09,-168.37 99.74,-158.04 93.81,-161.76"/>
</g>
<!-- Node5 -->
<g id="node5" class="node">
<title>Node5</title>
<g id="a_node5"><a xlink:href="flash_8c.html" target="_top" xlink:title=" ">
<polygon fill="white" stroke="black" points="650.5,-56.5 650.5,-75.5 730.5,-75.5 730.5,-56.5 650.5,-56.5"/>
<text text-anchor="middle" x="690.5" y="-63.5" font-family="Helvetica,sans-Serif" font-size="10.00">src/P2/flash.c</text>
</a>
</g>
</g>
<!-- Node4&#45;&gt;Node5 -->
<g id="edge4" class="edge">
<title>Node4&#45;&gt;Node5</title>
<path fill="none" stroke="midnightblue" d="M690.5,-101.8C690.5,-92.91 690.5,-82.78 690.5,-75.75"/>
<polygon fill="midnightblue" stroke="midnightblue" points="687,-102.08 690.5,-112.08 694,-102.08 687,-102.08"/>
</g>
<!-- Node7 -->
<g id="node7" class="node">
<title>Node7</title>
<g id="a_node7"><a xlink:href="cm_8c.html" target="_top" xlink:title=" ">
<polygon fill="white" stroke="black" points="474.5,-112.5 474.5,-131.5 546.5,-131.5 546.5,-112.5 474.5,-112.5"/>
<text text-anchor="middle" x="510.5" y="-119.5" font-family="Helvetica,sans-Serif" font-size="10.00">src/P2/cm.c</text>
</a>
</g>
</g>
<!-- Node6&#45;&gt;Node7 -->
<g id="edge6" class="edge">
<title>Node6&#45;&gt;Node7</title>
<path fill="none" stroke="midnightblue" d="M537.05,-287.54C470.07,-284.42 357.22,-274.63 331.5,-244 309.78,-218.13 310.73,-194.64 331.5,-168 348.89,-145.7 427.39,-132.76 474.46,-126.87"/>
<polygon fill="midnightblue" stroke="midnightblue" points="537.24,-291.05 547.38,-287.99 537.54,-284.06 537.24,-291.05"/>
</g>
<!-- Node8 -->
<g id="node8" class="node">
<title>Node8</title>
<g id="a_node8"><a xlink:href="util_8c.html" target="_top" xlink:title=" ">
<polygon fill="white" stroke="black" points="602,-224.5 602,-243.5 675,-243.5 675,-224.5 602,-224.5"/>
<text text-anchor="middle" x="638.5" y="-231.5" font-family="Helvetica,sans-Serif" font-size="10.00">src/P2/util.c</text>
</a>
</g>
</g>
<!-- Node6&#45;&gt;Node8 -->
<g id="edge7" class="edge">
<title>Node6&#45;&gt;Node8</title>
<path fill="none" stroke="midnightblue" d="M602.88,-272.72C611.87,-263.2 622.86,-251.56 630.24,-243.75"/>
<polygon fill="midnightblue" stroke="midnightblue" points="600.24,-270.41 595.92,-280.08 605.33,-275.22 600.24,-270.41"/>
</g>
<!-- Node9 -->
<g id="node9" class="node">
<title>Node9</title>
<g id="a_node9"><a xlink:href="vec_8c.html" target="_top" xlink:title=" ">
<polygon fill="white" stroke="black" points="693.5,-224.5 693.5,-243.5 767.5,-243.5 767.5,-224.5 693.5,-224.5"/>
<text text-anchor="middle" x="730.5" y="-231.5" font-family="Helvetica,sans-Serif" font-size="10.00">src/P2/vec.c</text>
</a>
</g>
</g>
<!-- Node6&#45;&gt;Node9 -->
<g id="edge8" class="edge">
<title>Node6&#45;&gt;Node9</title>
<path fill="none" stroke="midnightblue" d="M619.53,-276.91C646.41,-266.75 684.14,-252.51 707.95,-243.52"/>
<polygon fill="midnightblue" stroke="midnightblue" points="618.28,-273.64 610.16,-280.44 620.75,-280.19 618.28,-273.64"/>
</g>
<!-- Node10 -->
<g id="node10" class="node">
<title>Node10</title>
<g id="a_node10"><a xlink:href="cm_8h.html" target="_top" xlink:title="Game camera.">
<polygon fill="white" stroke="black" points="561,-168.5 561,-187.5 640,-187.5 640,-168.5 561,-168.5"/>
<text text-anchor="middle" x="600.5" y="-175.5" font-family="Helvetica,sans-Serif" font-size="10.00">include/cm.h</text>
</a>
</g>
</g>
<!-- Node6&#45;&gt;Node10 -->
<g id="edge9" class="edge">
<title>Node6&#45;&gt;Node10</title>
<path fill="none" stroke="midnightblue" d="M537.51,-278.2C501.88,-268.03 463.27,-250.38 481.5,-224 491.39,-209.69 534.15,-195.95 565.6,-187.5"/>
<polygon fill="midnightblue" stroke="midnightblue" points="536.86,-281.65 547.43,-280.87 538.68,-274.89 536.86,-281.65"/>
</g>
<!-- Node11 -->
<g id="node11" class="node">
<title>Node11</title>
<g id="a_node11"><a xlink:href="difficulty_8h.html" target="_top" xlink:title="Dynamic difficulty system.">
<polygon fill="white" stroke="black" points="326,-56.5 326,-75.5 431,-75.5 431,-56.5 326,-56.5"/>
<text text-anchor="middle" x="378.5" y="-63.5" font-family="Helvetica,sans-Serif" font-size="10.00">include/difficulty.h</text>
</a>
</g>
</g>
<!-- Node6&#45;&gt;Node11 -->
<g id="edge12" class="edge">
<title>Node6&#45;&gt;Node11</title>
<path fill="none" stroke="midnightblue" d="M537.35,-288.15C466.71,-285.77 343.39,-276.88 315.5,-244 270.56,-191.02 344.02,-103.67 369.96,-75.82"/>
<polygon fill="midnightblue" stroke="midnightblue" points="537.27,-291.65 547.37,-288.45 537.48,-284.65 537.27,-291.65"/>
</g>
<!-- Node13 -->
<g id="node13" class="node">
<title>Node13</title>
<g id="a_node13"><a xlink:href="joy_8h.html" target="_top" xlink:title="Joypad manager.">
<polygon fill="white" stroke="black" points="824,-224.5 824,-243.5 901,-243.5 901,-224.5 824,-224.5"/>
<text text-anchor="middle" x="862.5" y="-231.5" font-family="Helvetica,sans-Serif" font-size="10.00">include/joy.h</text>
</a>
</g>
</g>
<!-- Node6&#45;&gt;Node13 -->
<g id="edge14" class="edge">
<title>Node6&#45;&gt;Node13</title>
<path fill="none" stroke="midnightblue" d="M637.76,-279.13C691.39,-268.6 775.2,-252.14 823.89,-242.58"/>
<polygon fill="midnightblue" stroke="midnightblue" points="636.92,-275.73 627.78,-281.09 638.27,-282.6 636.92,-275.73"/>
</g>
<!-- Node17 -->
<g id="node17" class="node">
<title>Node17</title>
<g id="a_node17"><a xlink:href="sound_8h.html" target="_top" xlink:title="Sound playback.">
<polygon fill="white" stroke="black" points="491,-224.5 491,-243.5 584,-243.5 584,-224.5 491,-224.5"/>
<text text-anchor="middle" x="537.5" y="-231.5" font-family="Helvetica,sans-Serif" font-size="10.00">include/sound.h</text>
</a>
</g>
</g>
<!-- Node6&#45;&gt;Node17 -->
<g id="edge18" class="edge">
<title>Node6&#45;&gt;Node17</title>
<path fill="none" stroke="midnightblue" d="M572.42,-272.72C563.61,-263.2 552.83,-251.56 545.6,-243.75"/>
<polygon fill="midnightblue" stroke="midnightblue" points="569.88,-275.12 579.24,-280.08 575.02,-270.37 569.88,-275.12"/>
</g>
<!-- Node18 -->
<g id="node18" class="node">
<title>Node18</title>
<g id="a_node18"><a xlink:href="ref_8h.html" target="_top" xlink:title=" ">
<polygon fill="white" stroke="black" points="1110.5,-224.5 1110.5,-243.5 1218.5,-243.5 1218.5,-224.5 1110.5,-224.5"/>
<text text-anchor="middle" x="1164.5" y="-231.5" font-family="Helvetica,sans-Serif" font-size="10.00">include/splice/ref.h</text>
</a>
</g>
</g>
<!-- Node6&#45;&gt;Node18 -->
<g id="edge20" class="edge">
<title>Node6&#45;&gt;Node18</title>
<path fill="none" stroke="midnightblue" d="M637.59,-284.31C745.45,-274.22 998.91,-250.5 1110.33,-240.07"/>
<polygon fill="midnightblue" stroke="midnightblue" points="637.25,-280.83 627.62,-285.25 637.9,-287.8 637.25,-280.83"/>
</g>
<!-- Node24 -->
<g id="node24" class="node">
<title>Node24</title>
<g id="a_node24"><a xlink:href="vecmat_8h.html" target="_top" xlink:title=" ">
<polygon fill="white" stroke="black" points="1340.5,-224.5 1340.5,-243.5 1472.5,-243.5 1472.5,-224.5 1340.5,-224.5"/>
<text text-anchor="middle" x="1406.5" y="-231.5" font-family="Helvetica,sans-Serif" font-size="10.00">include/splice/vecmat.h</text>
</a>
</g>
</g>
<!-- Node6&#45;&gt;Node24 -->
<g id="edge26" class="edge">
<title>Node6&#45;&gt;Node24</title>
<path fill="none" stroke="midnightblue" d="M637.68,-285.69C779.09,-276.37 1180.94,-249.87 1340.26,-239.37"/>
<polygon fill="midnightblue" stroke="midnightblue" points="637.3,-282.21 627.56,-286.36 637.77,-289.19 637.3,-282.21"/>
</g>
<!-- Node26 -->
<g id="node26" class="node">
<title>Node26</title>
<g id="a_node26"><a xlink:href="xform_8h.html" target="_top" xlink:title="Transform.">
<polygon fill="white" stroke="black" points="341,-224.5 341,-243.5 434,-243.5 434,-224.5 341,-224.5"/>
<text text-anchor="middle" x="387.5" y="-231.5" font-family="Helvetica,sans-Serif" font-size="10.00">include/xform.h</text>
</a>
</g>
</g>
<!-- Node6&#45;&gt;Node26 -->
<g id="edge30" class="edge">
<title>Node6&#45;&gt;Node26</title>
<path fill="none" stroke="midnightblue" d="M546.13,-277.83C508.36,-267.63 453.36,-252.78 419.04,-243.52"/>
<polygon fill="midnightblue" stroke="midnightblue" points="545.24,-281.22 555.81,-280.44 547.07,-274.46 545.24,-281.22"/>
</g>
<!-- Node10&#45;&gt;Node4 -->
<g id="edge11" class="edge">
<title>Node10&#45;&gt;Node4</title>
<path fill="none" stroke="midnightblue" d="M623.54,-163.18C640.1,-153.24 661.92,-140.15 676.08,-131.65"/>
<polygon fill="midnightblue" stroke="midnightblue" points="621.73,-160.18 614.96,-168.32 625.34,-166.18 621.73,-160.18"/>
</g>
<!-- Node10&#45;&gt;Node7 -->
<g id="edge10" class="edge">
<title>Node10&#45;&gt;Node7</title>
<path fill="none" stroke="midnightblue" d="M577.46,-163.18C560.9,-153.24 539.08,-140.15 524.92,-131.65"/>
<polygon fill="midnightblue" stroke="midnightblue" points="575.66,-166.18 586.04,-168.32 579.27,-160.18 575.66,-166.18"/>
</g>
<!-- Node12 -->
<g id="node12" class="node">
<title>Node12</title>
<g id="a_node12"><a xlink:href="difficulty_8c.html" target="_top" xlink:title=" ">
<polygon fill="white" stroke="black" points="329.5,-0.5 329.5,-19.5 427.5,-19.5 427.5,-0.5 329.5,-0.5"/>
<text text-anchor="middle" x="378.5" y="-7.5" font-family="Helvetica,sans-Serif" font-size="10.00">src/P2/difficulty.c</text>
</a>
</g>
</g>
<!-- Node11&#45;&gt;Node12 -->
<g id="edge13" class="edge">
<title>Node11&#45;&gt;Node12</title>
<path fill="none" stroke="midnightblue" d="M378.5,-45.8C378.5,-36.91 378.5,-26.78 378.5,-19.75"/>
<polygon fill="midnightblue" stroke="midnightblue" points="375,-46.08 378.5,-56.08 382,-46.08 375,-46.08"/>
</g>
<!-- Node14 -->
<g id="node14" class="node">
<title>Node14</title>
<g id="a_node14"><a xlink:href="joy_8c.html" target="_top" xlink:title=" ">
<polygon fill="white" stroke="black" points="824,-168.5 824,-187.5 895,-187.5 895,-168.5 824,-168.5"/>
<text text-anchor="middle" x="859.5" y="-175.5" font-family="Helvetica,sans-Serif" font-size="10.00">src/P2/joy.c</text>
</a>
</g>
</g>
<!-- Node13&#45;&gt;Node14 -->
<g id="edge15" class="edge">
<title>Node13&#45;&gt;Node14</title>
<path fill="none" stroke="midnightblue" d="M861.43,-213.8C860.94,-204.91 860.38,-194.78 859.99,-187.75"/>
<polygon fill="midnightblue" stroke="midnightblue" points="857.96,-214.29 862,-224.08 864.94,-213.9 857.96,-214.29"/>
</g>
<!-- Node15 -->
<g id="node15" class="node">
<title>Node15</title>
<g id="a_node15"><a xlink:href="steppower_8h.html" target="_top" xlink:title=" ">
<polygon fill="white" stroke="black" points="913.5,-168.5 913.5,-187.5 1027.5,-187.5 1027.5,-168.5 913.5,-168.5"/>
<text text-anchor="middle" x="970.5" y="-175.5" font-family="Helvetica,sans-Serif" font-size="10.00">include/steppower.h</text>
</a>
</g>
</g>
<!-- Node13&#45;&gt;Node15 -->
<g id="edge16" class="edge">
<title>Node13&#45;&gt;Node15</title>
<path fill="none" stroke="midnightblue" d="M889.05,-219.73C909.05,-209.73 935.89,-196.31 953.19,-187.65"/>
<polygon fill="midnightblue" stroke="midnightblue" points="887.23,-216.72 879.85,-224.32 890.36,-222.98 887.23,-216.72"/>
</g>
<!-- Node16 -->
<g id="node16" class="node">
<title>Node16</title>
<g id="a_node16"><a xlink:href="steppower_8c.html" target="_top" xlink:title=" ">
<polygon fill="white" stroke="black" points="917,-112.5 917,-131.5 1024,-131.5 1024,-112.5 917,-112.5"/>
<text text-anchor="middle" x="970.5" y="-119.5" font-family="Helvetica,sans-Serif" font-size="10.00">src/P2/steppower.c</text>
</a>
</g>
</g>
<!-- Node15&#45;&gt;Node16 -->
<g id="edge17" class="edge">
<title>Node15&#45;&gt;Node16</title>
<path fill="none" stroke="midnightblue" d="M970.5,-157.8C970.5,-148.91 970.5,-138.78 970.5,-131.75"/>
<polygon fill="midnightblue" stroke="midnightblue" points="967,-158.08 970.5,-168.08 974,-158.08 967,-158.08"/>
</g>
<!-- Node17&#45;&gt;Node10 -->
<g id="edge19" class="edge">
<title>Node17&#45;&gt;Node10</title>
<path fill="none" stroke="midnightblue" d="M555.54,-217.54C566.77,-207.91 580.82,-195.87 590.19,-187.83"/>
<polygon fill="midnightblue" stroke="midnightblue" points="552.94,-215.16 547.62,-224.32 557.49,-220.47 552.94,-215.16"/>
</g>
<!-- Node19 -->
<g id="node19" class="node">
<title>Node19</title>
<g id="a_node19"><a xlink:href="bif_8cpp.html" target="_top" xlink:title=" ">
<polygon fill="white" stroke="black" points="1046,-168.5 1046,-187.5 1159,-187.5 1159,-168.5 1046,-168.5"/>
<text text-anchor="middle" x="1102.5" y="-175.5" font-family="Helvetica,sans-Serif" font-size="10.00">src/P2/splice/bif.cpp</text>
</a>
</g>
</g>
<!-- Node18&#45;&gt;Node19 -->
<g id="edge21" class="edge">
<title>Node18&#45;&gt;Node19</title>
<path fill="none" stroke="midnightblue" d="M1146.75,-217.54C1135.69,-207.91 1121.87,-195.87 1112.64,-187.83"/>
<polygon fill="midnightblue" stroke="midnightblue" points="1144.7,-220.4 1154.54,-224.32 1149.3,-215.12 1144.7,-220.4"/>
</g>
<!-- Node20 -->
<g id="node20" class="node">
<title>Node20</title>
<g id="a_node20"><a xlink:href="ref_8cpp.html" target="_top" xlink:title=" ">
<polygon fill="white" stroke="black" points="1308,-168.5 1308,-187.5 1421,-187.5 1421,-168.5 1308,-168.5"/>
<text text-anchor="middle" x="1364.5" y="-175.5" font-family="Helvetica,sans-Serif" font-size="10.00">src/P2/splice/ref.cpp</text>
</a>
</g>
</g>
<!-- Node18&#45;&gt;Node20 -->
<g id="edge22" class="edge">
<title>Node18&#45;&gt;Node20</title>
<path fill="none" stroke="midnightblue" d="M1205.87,-221.83C1243.64,-211.63 1298.64,-196.78 1332.96,-187.52"/>
<polygon fill="midnightblue" stroke="midnightblue" points="1204.93,-218.46 1196.19,-224.44 1206.76,-225.22 1204.93,-218.46"/>
</g>
<!-- Node21 -->
<g id="node21" class="node">
<title>Node21</title>
<g id="a_node21"><a xlink:href="pair_8h.html" target="_top" xlink:title=" ">
<polygon fill="white" stroke="black" points="1177,-168.5 1177,-187.5 1290,-187.5 1290,-168.5 1177,-168.5"/>
<text text-anchor="middle" x="1233.5" y="-175.5" font-family="Helvetica,sans-Serif" font-size="10.00">include/splice/pair.h</text>
</a>
</g>
</g>
<!-- Node18&#45;&gt;Node21 -->
<g id="edge23" class="edge">
<title>Node18&#45;&gt;Node21</title>
<path fill="none" stroke="midnightblue" d="M1183.54,-218.1C1195.96,-208.38 1211.74,-196.03 1222.21,-187.83"/>
<polygon fill="midnightblue" stroke="midnightblue" points="1181.3,-215.4 1175.59,-224.32 1185.62,-220.92 1181.3,-215.4"/>
</g>
<!-- Node22 -->
<g id="node22" class="node">
<title>Node22</title>
<g id="a_node22"><a xlink:href="pair_8cpp.html" target="_top" xlink:title=" ">
<polygon fill="white" stroke="black" points="1174,-112.5 1174,-131.5 1293,-131.5 1293,-112.5 1174,-112.5"/>
<text text-anchor="middle" x="1233.5" y="-119.5" font-family="Helvetica,sans-Serif" font-size="10.00">src/P2/splice/pair.cpp</text>
</a>
</g>
</g>
<!-- Node21&#45;&gt;Node22 -->
<g id="edge24" class="edge">
<title>Node21&#45;&gt;Node22</title>
<path fill="none" stroke="midnightblue" d="M1233.5,-157.8C1233.5,-148.91 1233.5,-138.78 1233.5,-131.75"/>
<polygon fill="midnightblue" stroke="midnightblue" points="1230,-158.08 1233.5,-168.08 1237,-158.08 1230,-158.08"/>
</g>
<!-- Node23 -->
<g id="node23" class="node">
<title>Node23</title>
<g id="a_node23"><a xlink:href="spliceutils_8cpp.html" target="_top" xlink:title=" ">
<polygon fill="white" stroke="black" points="1342.5,-112.5 1342.5,-131.5 1492.5,-131.5 1492.5,-112.5 1342.5,-112.5"/>
<text text-anchor="middle" x="1417.5" y="-119.5" font-family="Helvetica,sans-Serif" font-size="10.00">src/P2/splice/spliceutils.cpp</text>
</a>
</g>
</g>
<!-- Node21&#45;&gt;Node23 -->
<g id="edge25" class="edge">
<title>Node21&#45;&gt;Node23</title>
<path fill="none" stroke="midnightblue" d="M1272.45,-165.57C1307.16,-155.38 1357.18,-140.7 1388.48,-131.52"/>
<polygon fill="midnightblue" stroke="midnightblue" points="1271.27,-162.27 1262.66,-168.44 1273.24,-168.99 1271.27,-162.27"/>
</g>
<!-- Node24&#45;&gt;Node20 -->
<g id="edge27" class="edge">
<title>Node24&#45;&gt;Node20</title>
<path fill="none" stroke="midnightblue" d="M1393.39,-216.14C1386.07,-206.74 1377.26,-195.4 1371.31,-187.75"/>
<polygon fill="midnightblue" stroke="midnightblue" points="1390.66,-218.34 1399.56,-224.08 1396.19,-214.04 1390.66,-218.34"/>
</g>
<!-- Node24&#45;&gt;Node23 -->
<g id="edge28" class="edge">
<title>Node24&#45;&gt;Node23</title>
<path fill="none" stroke="midnightblue" d="M1418.26,-215.77C1423.06,-207.71 1428.06,-197.75 1430.5,-188 1435.47,-168.13 1427.24,-144.47 1421.77,-131.89"/>
<polygon fill="midnightblue" stroke="midnightblue" points="1415.29,-213.92 1412.87,-224.23 1421.19,-217.68 1415.29,-213.92"/>
</g>
<!-- Node25 -->
<g id="node25" class="node">
<title>Node25</title>
<g id="a_node25"><a xlink:href="vecmat_8cpp.html" target="_top" xlink:title=" ">
<polygon fill="white" stroke="black" points="1478,-168.5 1478,-187.5 1615,-187.5 1615,-168.5 1478,-168.5"/>
<text text-anchor="middle" x="1546.5" y="-175.5" font-family="Helvetica,sans-Serif" font-size="10.00">src/P2/splice/vecmat.cpp</text>
</a>
</g>
</g>
<!-- Node24&#45;&gt;Node25 -->
<g id="edge29" class="edge">
<title>Node24&#45;&gt;Node25</title>
<path fill="none" stroke="midnightblue" d="M1438.2,-220.77C1464.5,-210.63 1501.22,-196.47 1524.42,-187.52"/>
<polygon fill="midnightblue" stroke="midnightblue" points="1436.75,-217.58 1428.68,-224.44 1439.27,-224.11 1436.75,-217.58"/>
</g>
<!-- Node26&#45;&gt;Node2 -->
<g id="edge34" class="edge">
<title>Node26&#45;&gt;Node2</title>
<path fill="none" stroke="midnightblue" d="M333.13,-222.51C279.55,-212.18 198.8,-196.61 149.83,-187.16"/>
<polygon fill="midnightblue" stroke="midnightblue" points="332.65,-225.99 343.13,-224.44 333.98,-219.11 332.65,-225.99"/>
</g>
<!-- Node26&#45;&gt;Node10 -->
<g id="edge33" class="edge">
<title>Node26&#45;&gt;Node10</title>
<path fill="none" stroke="midnightblue" d="M431.05,-221.96C471.28,-211.76 530.2,-196.82 566.91,-187.52"/>
<polygon fill="midnightblue" stroke="midnightblue" points="430.08,-218.59 421.25,-224.44 431.8,-225.38 430.08,-218.59"/>
</g>
<!-- Node27 -->
<g id="node27" class="node">
<title>Node27</title>
<g id="a_node27"><a xlink:href="xform1_8c.html" target="_top" xlink:title=" ">
<polygon fill="white" stroke="black" points="340.5,-168.5 340.5,-187.5 432.5,-187.5 432.5,-168.5 340.5,-168.5"/>
<text text-anchor="middle" x="386.5" y="-175.5" font-family="Helvetica,sans-Serif" font-size="10.00">src/P2/xform1.c</text>
</a>
</g>
</g>
<!-- Node26&#45;&gt;Node27 -->
<g id="edge31" class="edge">
<title>Node26&#45;&gt;Node27</title>
<path fill="none" stroke="midnightblue" d="M387.14,-213.8C386.98,-204.91 386.79,-194.78 386.66,-187.75"/>
<polygon fill="midnightblue" stroke="midnightblue" points="383.65,-214.15 387.33,-224.08 390.65,-214.02 383.65,-214.15"/>
</g>
<!-- Node28 -->
<g id="node28" class="node">
<title>Node28</title>
<g id="a_node28"><a xlink:href="xform2_8c.html" target="_top" xlink:title=" ">
<polygon fill="white" stroke="black" points="450.5,-168.5 450.5,-187.5 542.5,-187.5 542.5,-168.5 450.5,-168.5"/>
<text text-anchor="middle" x="496.5" y="-175.5" font-family="Helvetica,sans-Serif" font-size="10.00">src/P2/xform2.c</text>
</a>
</g>
</g>
<!-- Node26&#45;&gt;Node28 -->
<g id="edge32" class="edge">
<title>Node26&#45;&gt;Node28</title>
<path fill="none" stroke="midnightblue" d="M414.02,-219.86C434.23,-209.85 461.49,-196.35 479.03,-187.65"/>
<polygon fill="midnightblue" stroke="midnightblue" points="412.42,-216.75 405.01,-224.32 415.53,-223.02 412.42,-216.75"/>
</g>
<!-- Node29 -->
<g id="node29" class="node">
<title>Node29</title>
<g id="a_node29"><a xlink:href="vol_8h.html" target="_top" xlink:title="Volume object.">
<polygon fill="white" stroke="black" points="167,-168.5 167,-187.5 246,-187.5 246,-168.5 167,-168.5"/>
<text text-anchor="middle" x="206.5" y="-175.5" font-family="Helvetica,sans-Serif" font-size="10.00">include/vol.h</text>
</a>
</g>
</g>
<!-- Node26&#45;&gt;Node29 -->
<g id="edge35" class="edge">
<title>Node26&#45;&gt;Node29</title>
<path fill="none" stroke="midnightblue" d="M349.18,-221.57C315.04,-211.38 265.84,-196.7 235.05,-187.52"/>
<polygon fill="midnightblue" stroke="midnightblue" points="348.24,-224.94 358.82,-224.44 350.24,-218.23 348.24,-224.94"/>
</g>
<!-- Node30 -->
<g id="node30" class="node">
<title>Node30</title>
<g id="a_node30"><a xlink:href="chkpnt_8h.html" target="_top" xlink:title="Checkpoint system.">
<polygon fill="white" stroke="black" points="149,-112.5 149,-131.5 246,-131.5 246,-112.5 149,-112.5"/>
<text text-anchor="middle" x="197.5" y="-119.5" font-family="Helvetica,sans-Serif" font-size="10.00">include/chkpnt.h</text>
</a>
</g>
</g>
<!-- Node29&#45;&gt;Node30 -->
<g id="edge36" class="edge">
<title>Node29&#45;&gt;Node30</title>
<path fill="none" stroke="midnightblue" d="M203.35,-158.1C201.86,-149.14 200.14,-138.86 198.96,-131.75"/>
<polygon fill="midnightblue" stroke="midnightblue" points="199.92,-158.79 205.01,-168.08 206.82,-157.64 199.92,-158.79"/>
</g>
<!-- Node30&#45;&gt;Node3 -->
<g id="edge38" class="edge">
<title>Node30&#45;&gt;Node3</title>
<path fill="none" stroke="midnightblue" d="M162.67,-109.17C132.73,-99 90.28,-84.59 63.58,-75.52"/>
<polygon fill="midnightblue" stroke="midnightblue" points="161.71,-112.54 172.31,-112.44 163.96,-105.91 161.71,-112.54"/>
</g>
<!-- Node30&#45;&gt;Node11 -->
<g id="edge40" class="edge">
<title>Node30&#45;&gt;Node11</title>
<path fill="none" stroke="midnightblue" d="M235.82,-109.57C269.96,-99.38 319.16,-84.7 349.95,-75.52"/>
<polygon fill="midnightblue" stroke="midnightblue" points="234.76,-106.23 226.18,-112.44 236.76,-112.94 234.76,-106.23"/>
</g>
<!-- Node31 -->
<g id="node31" class="node">
<title>Node31</title>
<g id="a_node31"><a xlink:href="chkpnt_8c.html" target="_top" xlink:title=" ">
<polygon fill="white" stroke="black" points="95.5,-56.5 95.5,-75.5 185.5,-75.5 185.5,-56.5 95.5,-56.5"/>
<text text-anchor="middle" x="140.5" y="-63.5" font-family="Helvetica,sans-Serif" font-size="10.00">src/P2/chkpnt.c</text>
</a>
</g>
</g>
<!-- Node30&#45;&gt;Node31 -->
<g id="edge37" class="edge">
<title>Node30&#45;&gt;Node31</title>
<path fill="none" stroke="midnightblue" d="M180.88,-105.25C170.77,-95.67 158.22,-83.79 149.82,-75.83"/>
<polygon fill="midnightblue" stroke="midnightblue" points="178.68,-107.99 188.34,-112.32 183.49,-102.91 178.68,-107.99"/>
</g>
<!-- Node32 -->
<g id="node32" class="node">
<title>Node32</title>
<g id="a_node32"><a xlink:href="transition_8c.html" target="_top" xlink:title=" ">
<polygon fill="white" stroke="black" points="203.5,-56.5 203.5,-75.5 307.5,-75.5 307.5,-56.5 203.5,-56.5"/>
<text text-anchor="middle" x="255.5" y="-63.5" font-family="Helvetica,sans-Serif" font-size="10.00">src/P2/transition.c</text>
</a>
</g>
</g>
<!-- Node30&#45;&gt;Node32 -->
<g id="edge39" class="edge">
<title>Node30&#45;&gt;Node32</title>
<path fill="none" stroke="midnightblue" d="M214.41,-105.25C224.7,-95.67 237.47,-83.79 246.01,-75.83"/>
<polygon fill="midnightblue" stroke="midnightblue" points="211.75,-102.95 206.82,-112.32 216.52,-108.07 211.75,-102.95"/>
</g>
</g>
</svg>
        <g id="navigator" transform="translate(0 0)" fill="#404254">
                <rect fill="#f2f5e9" fill-opacity="0.5" stroke="#606060" stroke-width=".5" x="0" y="0" width="60" height="60"/>
                <use id="zoomplus" xlink:href="#zoomPlus" x="17" y="9" onmousedown="handleZoom(evt,'in')"/>
                <use id="zoomminus" xlink:href="#zoomMin" x="42" y="9" onmousedown="handleZoom(evt,'out')"/>
                <use id="reset" xlink:href="#resetDef" x="30" y="36" onmousedown="handleReset()"/>
                <g id="arrowUp" xlink:href="#dirArrow" transform="translate(30 24)" onmousedown="handlePan(0,-1)">
                  <use xlink:href="#rim" fill="#404040">
                        <set attributeName="fill" to="#808080" begin="arrowUp.mouseover" end="arrowUp.mouseout"/>
                  </use>
                  <path fill="none" stroke="white" stroke-width="1.5" d="M0,-3.0v7 M-2.5,-0.5L0,-3.0L2.5,-0.5"/>
                </g>
                <g id="arrowRight" xlink:href="#dirArrow" transform="rotate(90) translate(36 -43)" onmousedown="handlePan(1,0)">
                  <use xlink:href="#rim" fill="#404040">
                        <set attributeName="fill" to="#808080" begin="arrowRight.mouseover" end="arrowRight.mouseout"/>
                  </use>
                  <path fill="none" stroke="white" stroke-width="1.5" d="M0,-3.0v7 M-2.5,-0.5L0,-3.0L2.5,-0.5"/>
                </g>
                <g id="arrowDown" xlink:href="#dirArrow" transform="rotate(180) translate(-30 -48)" onmousedown="handlePan(0,1)">
                  <use xlink:href="#rim" fill="#404040">
                        <set attributeName="fill" to="#808080" begin="arrowDown.mouseover" end="arrowDown.mouseout"/>
                  </use>
                  <path fill="none" stroke="white" stroke-width="1.5" d="M0,-3.0v7 M-2.5,-0.5L0,-3.0L2.5,-0.5"/>
                </g>
                <g id="arrowLeft" xlink:href="#dirArrow" transform="rotate(270) translate(-36 17)" onmousedown="handlePan(-1,0)">
                  <use xlink:href="#rim" fill="#404040">
                        <set attributeName="fill" to="#808080" begin="arrowLeft.mouseover" end="arrowLeft.mouseout"/>
                  </use>
                  <path fill="none" stroke="white" stroke-width="1.5" d="M0,-3.0v7 M-2.5,-0.5L0,-3.0L2.5,-0.5"/>
                </g>
        </g>
        <svg viewBox="0 0 15 15" width="100%" height="30px" preserveAspectRatio="xMaxYMin meet">
         <g id="arrow_out" transform="scale(0.3 0.3)">
          <a xlink:href="sm_8h__dep__incl_org.svg" target="_base">
           <rect id="button" ry="5" rx="5" y="6" x="6" height="38" width="38"
                fill="#f2f5e9" fill-opacity="0.5" stroke="#606060" stroke-width="1.0"/>
           <path id="arrow"
             d="M 11.500037,31.436501 C 11.940474,20.09759 22.043105,11.32322 32.158766,21.979434 L 37.068811,17.246167 C 37.068811,17.246167 37.088388,32 37.088388,32 L 22.160133,31.978069 C 22.160133,31.978069 26.997745,27.140456 26.997745,27.140456 C 18.528582,18.264221 13.291696,25.230495 11.500037,31.436501 z"
             style="fill:#404040;"/>
          </a>
         </g>
        </svg>
</svg>
