<?xml version="1.0" encoding="UTF-8" standalone="no"?>
<!DOCTYPE svg PUBLIC "-//W3C//DTD SVG 1.1//EN"
 "http://www.w3.org/Graphics/SVG/1.1/DTD/svg11.dtd">
<!-- Generated by graphviz version 2.43.0 (0)
 -->
<!-- Title: include/sm.h Pages: 1 -->
<svg width="1243pt" height="364pt"
 viewBox="0.00 0.00 1242.74 364.00" xmlns="http://www.w3.org/2000/svg" xmlns:xlink="http://www.w3.org/1999/xlink">
<g id="graph0" class="graph" transform="scale(1 1) rotate(0) translate(4 360)">
<title>include/sm.h</title>
<polygon fill="white" stroke="transparent" points="-4,4 -4,-360 1238.74,-360 1238.74,4 -4,4"/>
<!-- Node1 -->
<g id="node1" class="node">
<title>Node1</title>
<g id="a_node1"><a xlink:title="State machines.">
<polygon fill="#bfbfbf" stroke="black" points="21.19,-336.5 21.19,-355.5 100.19,-355.5 100.19,-336.5 21.19,-336.5"/>
<text text-anchor="middle" x="60.69" y="-343.5" font-family="Helvetica,sans-Serif" font-size="10.00">include/sm.h</text>
</a>
</g>
</g>
<!-- Node2 -->
<g id="node2" class="node">
<title>Node2</title>
<g id="a_node2"><a xlink:href="coin_8h.html" target="_top" xlink:title="Coins, keys, and other collectibles.">
<polygon fill="white" stroke="black" points="18.69,-168.5 18.69,-187.5 102.69,-187.5 102.69,-168.5 18.69,-168.5"/>
<text text-anchor="middle" x="60.69" y="-175.5" font-family="Helvetica,sans-Serif" font-size="10.00">include/coin.h</text>
</a>
</g>
</g>
<!-- Node1&#45;&gt;Node2 -->
<g id="edge1" class="edge">
<title>Node1&#45;&gt;Node2</title>
<path fill="none" stroke="midnightblue" d="M60.69,-325.93C60.69,-289.92 60.69,-213.23 60.69,-187.57"/>
<polygon fill="midnightblue" stroke="midnightblue" points="57.19,-326.08 60.69,-336.08 64.19,-326.08 57.19,-326.08"/>
</g>
<!-- Node4 -->
<g id="node4" class="node">
<title>Node4</title>
<g id="a_node4"><a xlink:href="flash_8h.html" target="_top" xlink:title="Flash (might be flash animation, or literal screen flashes).">
<polygon fill="white" stroke="black" points="32.19,-112.5 32.19,-131.5 119.19,-131.5 119.19,-112.5 32.19,-112.5"/>
<text text-anchor="middle" x="75.69" y="-119.5" font-family="Helvetica,sans-Serif" font-size="10.00">include/flash.h</text>
</a>
</g>
</g>
<!-- Node1&#45;&gt;Node4 -->
<g id="edge3" class="edge">
<title>Node1&#45;&gt;Node4</title>
<path fill="none" stroke="midnightblue" d="M47.69,-328.01C24.46,-295.42 -19.14,-222.55 9.69,-168 18.83,-150.71 37.92,-138.82 53.23,-131.62"/>
<polygon fill="midnightblue" stroke="midnightblue" points="45.14,-330.44 53.88,-336.42 50.77,-326.29 45.14,-330.44"/>
</g>
<!-- Node6 -->
<g id="node6" class="node">
<title>Node6</title>
<g id="a_node6"><a xlink:href="util_8h.html" target="_top" xlink:title="Utility functions.">
<polygon fill="white" stroke="black" points="621.69,-280.5 621.69,-299.5 701.69,-299.5 701.69,-280.5 621.69,-280.5"/>
<text text-anchor="middle" x="661.69" y="-287.5" font-family="Helvetica,sans-Serif" font-size="10.00">include/util.h</text>
</a>
</g>
</g>
<!-- Node1&#45;&gt;Node6 -->
<g id="edge5" class="edge">
<title>Node1&#45;&gt;Node6</title>
<path fill="none" stroke="midnightblue" d="M110.66,-340.51C227.2,-330.04 515.11,-304.17 621.41,-294.62"/>
<polygon fill="midnightblue" stroke="midnightblue" points="110.24,-337.03 100.59,-341.42 110.86,-344.01 110.24,-337.03"/>
</g>
<!-- Node3 -->
<g id="node3" class="node">
<title>Node3</title>
<g id="a_node3"><a xlink:href="coin_8c.html" target="_top" xlink:title=" ">
<polygon fill="white" stroke="black" points="218.19,-56.5 218.19,-75.5 295.19,-75.5 295.19,-56.5 218.19,-56.5"/>
<text text-anchor="middle" x="256.69" y="-63.5" font-family="Helvetica,sans-Serif" font-size="10.00">src/P2/coin.c</text>
</a>
</g>
</g>
<!-- Node2&#45;&gt;Node3 -->
<g id="edge2" class="edge">
<title>Node2&#45;&gt;Node3</title>
<path fill="none" stroke="midnightblue" d="M84.84,-163.45C125.73,-140.5 207.46,-94.63 241.38,-75.59"/>
<polygon fill="midnightblue" stroke="midnightblue" points="83.08,-160.42 76.07,-168.37 86.5,-166.53 83.08,-160.42"/>
</g>
<!-- Node5 -->
<g id="node5" class="node">
<title>Node5</title>
<g id="a_node5"><a xlink:href="flash_8c.html" target="_top" xlink:title=" ">
<polygon fill="white" stroke="black" points="35.69,-56.5 35.69,-75.5 115.69,-75.5 115.69,-56.5 35.69,-56.5"/>
<text text-anchor="middle" x="75.69" y="-63.5" font-family="Helvetica,sans-Serif" font-size="10.00">src/P2/flash.c</text>
</a>
</g>
</g>
<!-- Node4&#45;&gt;Node5 -->
<g id="edge4" class="edge">
<title>Node4&#45;&gt;Node5</title>
<path fill="none" stroke="midnightblue" d="M75.69,-101.8C75.69,-92.91 75.69,-82.78 75.69,-75.75"/>
<polygon fill="midnightblue" stroke="midnightblue" points="72.19,-102.08 75.69,-112.08 79.19,-102.08 72.19,-102.08"/>
</g>
<!-- Node7 -->
<g id="node7" class="node">
<title>Node7</title>
<g id="a_node7"><a xlink:href="cm_8c.html" target="_top" xlink:title=" ">
<polygon fill="white" stroke="black" points="509.69,-112.5 509.69,-131.5 581.69,-131.5 581.69,-112.5 509.69,-112.5"/>
<text text-anchor="middle" x="545.69" y="-119.5" font-family="Helvetica,sans-Serif" font-size="10.00">src/P2/cm.c</text>
</a>
</g>
</g>
<!-- Node6&#45;&gt;Node7 -->
<g id="edge6" class="edge">
<title>Node6&#45;&gt;Node7</title>
<path fill="none" stroke="midnightblue" d="M642.04,-274.01C619.85,-256.02 584.3,-223.76 564.69,-188 554.52,-169.44 549.26,-144.85 547.03,-131.88"/>
<polygon fill="midnightblue" stroke="midnightblue" points="640.09,-276.93 650.1,-280.4 644.44,-271.44 640.09,-276.93"/>
</g>
<!-- Node8 -->
<g id="node8" class="node">
<title>Node8</title>
<g id="a_node8"><a xlink:href="util_8c.html" target="_top" xlink:title=" ">
<polygon fill="white" stroke="black" points="1044.19,-224.5 1044.19,-243.5 1117.19,-243.5 1117.19,-224.5 1044.19,-224.5"/>
<text text-anchor="middle" x="1080.69" y="-231.5" font-family="Helvetica,sans-Serif" font-size="10.00">src/P2/util.c</text>
</a>
</g>
</g>
<!-- Node6&#45;&gt;Node8 -->
<g id="edge7" class="edge">
<title>Node6&#45;&gt;Node8</title>
<path fill="none" stroke="midnightblue" d="M711.96,-284.11C783.76,-276.87 919.7,-262.16 1034.69,-244 1037.75,-243.52 1040.91,-242.98 1044.08,-242.41"/>
<polygon fill="midnightblue" stroke="midnightblue" points="711.44,-280.65 701.84,-285.13 712.14,-287.61 711.44,-280.65"/>
</g>
<!-- Node9 -->
<g id="node9" class="node">
<title>Node9</title>
<g id="a_node9"><a xlink:href="vec_8c.html" target="_top" xlink:title=" ">
<polygon fill="white" stroke="black" points="1135.69,-224.5 1135.69,-243.5 1209.69,-243.5 1209.69,-224.5 1135.69,-224.5"/>
<text text-anchor="middle" x="1172.69" y="-231.5" font-family="Helvetica,sans-Serif" font-size="10.00">src/P2/vec.c</text>
</a>
</g>
</g>
<!-- Node6&#45;&gt;Node9 -->
<g id="edge8" class="edge">
<title>Node6&#45;&gt;Node9</title>
<path fill="none" stroke="midnightblue" d="M712.18,-285.72C797.76,-279.81 976.65,-265.89 1126.69,-244 1129.59,-243.58 1132.58,-243.1 1135.59,-242.58"/>
<polygon fill="midnightblue" stroke="midnightblue" points="711.71,-282.25 701.97,-286.42 712.18,-289.23 711.71,-282.25"/>
</g>
<!-- Node10 -->
<g id="node10" class="node">
<title>Node10</title>
<g id="a_node10"><a xlink:href="cm_8h.html" target="_top" xlink:title="Game camera.">
<polygon fill="white" stroke="black" points="120.19,-168.5 120.19,-187.5 199.19,-187.5 199.19,-168.5 120.19,-168.5"/>
<text text-anchor="middle" x="159.69" y="-175.5" font-family="Helvetica,sans-Serif" font-size="10.00">include/cm.h</text>
</a>
</g>
</g>
<!-- Node6&#45;&gt;Node10 -->
<g id="edge9" class="edge">
<title>Node6&#45;&gt;Node10</title>
<path fill="none" stroke="midnightblue" d="M611.48,-287.02C542.4,-283.3 414.65,-272.83 309.69,-244 258.51,-229.94 202.06,-201.74 175.35,-187.56"/>
<polygon fill="midnightblue" stroke="midnightblue" points="611.48,-290.52 621.65,-287.54 611.84,-283.53 611.48,-290.52"/>
</g>
<!-- Node11 -->
<g id="node11" class="node">
<title>Node11</title>
<g id="a_node11"><a xlink:href="difficulty_8h.html" target="_top" xlink:title="Dynamic difficulty system.">
<polygon fill="white" stroke="black" points="845.19,-56.5 845.19,-75.5 950.19,-75.5 950.19,-56.5 845.19,-56.5"/>
<text text-anchor="middle" x="897.69" y="-63.5" font-family="Helvetica,sans-Serif" font-size="10.00">include/difficulty.h</text>
</a>
</g>
</g>
<!-- Node6&#45;&gt;Node11 -->
<g id="edge12" class="edge">
<title>Node6&#45;&gt;Node11</title>
<path fill="none" stroke="midnightblue" d="M712.01,-288.74C842.63,-287.53 1184.71,-280.84 1218.69,-244 1264.59,-194.24 1202.48,-143.74 1142.69,-112 1081.96,-79.76 1002.16,-70.21 950.4,-67.6"/>
<polygon fill="midnightblue" stroke="midnightblue" points="711.85,-285.24 701.88,-288.82 711.91,-292.24 711.85,-285.24"/>
</g>
<!-- Node13 -->
<g id="node13" class="node">
<title>Node13</title>
<g id="a_node13"><a xlink:href="joy_8h.html" target="_top" xlink:title="Joypad manager.">
<polygon fill="white" stroke="black" points="623.19,-224.5 623.19,-243.5 700.19,-243.5 700.19,-224.5 623.19,-224.5"/>
<text text-anchor="middle" x="661.69" y="-231.5" font-family="Helvetica,sans-Serif" font-size="10.00">include/joy.h</text>
</a>
</g>
</g>
<!-- Node6&#45;&gt;Node13 -->
<g id="edge14" class="edge">
<title>Node6&#45;&gt;Node13</title>
<path fill="none" stroke="midnightblue" d="M661.69,-269.8C661.69,-260.91 661.69,-250.78 661.69,-243.75"/>
<polygon fill="midnightblue" stroke="midnightblue" points="658.19,-270.08 661.69,-280.08 665.19,-270.08 658.19,-270.08"/>
</g>
<!-- Node17 -->
<g id="node17" class="node">
<title>Node17</title>
<g id="a_node17"><a xlink:href="sound_8h.html" target="_top" xlink:title="Sound playback.">
<polygon fill="white" stroke="black" points="121.19,-224.5 121.19,-243.5 214.19,-243.5 214.19,-224.5 121.19,-224.5"/>
<text text-anchor="middle" x="167.69" y="-231.5" font-family="Helvetica,sans-Serif" font-size="10.00">include/sound.h</text>
</a>
</g>
</g>
<!-- Node6&#45;&gt;Node17 -->
<g id="edge18" class="edge">
<title>Node6&#45;&gt;Node17</title>
<path fill="none" stroke="midnightblue" d="M611.67,-283.53C515.86,-273.06 307.73,-250.31 214.5,-240.12"/>
<polygon fill="midnightblue" stroke="midnightblue" points="611.36,-287.02 621.68,-284.63 612.12,-280.06 611.36,-287.02"/>
</g>
<!-- Node18 -->
<g id="node18" class="node">
<title>Node18</title>
<g id="a_node18"><a xlink:href="ref_8h.html" target="_top" xlink:title=" ">
<polygon fill="white" stroke="black" points="767.69,-224.5 767.69,-243.5 875.69,-243.5 875.69,-224.5 767.69,-224.5"/>
<text text-anchor="middle" x="821.69" y="-231.5" font-family="Helvetica,sans-Serif" font-size="10.00">include/splice/ref.h</text>
</a>
</g>
</g>
<!-- Node6&#45;&gt;Node18 -->
<g id="edge20" class="edge">
<title>Node6&#45;&gt;Node18</title>
<path fill="none" stroke="midnightblue" d="M696.74,-277.17C726.86,-267 769.59,-252.59 796.46,-243.52"/>
<polygon fill="midnightblue" stroke="midnightblue" points="695.4,-273.93 687.04,-280.44 697.64,-280.56 695.4,-273.93"/>
</g>
<!-- Node23 -->
<g id="node23" class="node">
<title>Node23</title>
<g id="a_node23"><a xlink:href="vecmat_8h.html" target="_top" xlink:title=" ">
<polygon fill="white" stroke="black" points="893.69,-224.5 893.69,-243.5 1025.69,-243.5 1025.69,-224.5 893.69,-224.5"/>
<text text-anchor="middle" x="959.69" y="-231.5" font-family="Helvetica,sans-Serif" font-size="10.00">include/splice/vecmat.h</text>
</a>
</g>
</g>
<!-- Node6&#45;&gt;Node23 -->
<g id="edge25" class="edge">
<title>Node6&#45;&gt;Node23</title>
<path fill="none" stroke="midnightblue" d="M711.93,-279.9C767.94,-269.75 857.81,-253.46 912.54,-243.54"/>
<polygon fill="midnightblue" stroke="midnightblue" points="711.1,-276.49 701.88,-281.72 712.34,-283.38 711.1,-276.49"/>
</g>
<!-- Node24 -->
<g id="node24" class="node">
<title>Node24</title>
<g id="a_node24"><a xlink:href="xform_8h.html" target="_top" xlink:title="Transform.">
<polygon fill="white" stroke="black" points="319.19,-224.5 319.19,-243.5 412.19,-243.5 412.19,-224.5 319.19,-224.5"/>
<text text-anchor="middle" x="365.69" y="-231.5" font-family="Helvetica,sans-Serif" font-size="10.00">include/xform.h</text>
</a>
</g>
</g>
<!-- Node6&#45;&gt;Node24 -->
<g id="edge28" class="edge">
<title>Node6&#45;&gt;Node24</title>
<path fill="none" stroke="midnightblue" d="M611.48,-279.84C555.88,-269.7 466.94,-253.47 412.67,-243.57"/>
<polygon fill="midnightblue" stroke="midnightblue" points="611,-283.31 621.46,-281.66 612.25,-276.42 611,-283.31"/>
</g>
<!-- Node10&#45;&gt;Node4 -->
<g id="edge11" class="edge">
<title>Node10&#45;&gt;Node4</title>
<path fill="none" stroke="midnightblue" d="M137.76,-162.9C122.36,-153 102.24,-140.07 89.15,-131.65"/>
<polygon fill="midnightblue" stroke="midnightblue" points="135.89,-165.86 146.19,-168.32 139.68,-159.97 135.89,-165.86"/>
</g>
<!-- Node10&#45;&gt;Node7 -->
<g id="edge10" class="edge">
<title>Node10&#45;&gt;Node7</title>
<path fill="none" stroke="midnightblue" d="M209.18,-168.02C339.19,-148.42 374.14,-152.02 499.69,-132 502.91,-131.49 506.24,-130.92 509.57,-130.31"/>
<polygon fill="midnightblue" stroke="midnightblue" points="208.6,-164.56 199.24,-169.53 209.65,-171.48 208.6,-164.56"/>
</g>
<!-- Node12 -->
<g id="node12" class="node">
<title>Node12</title>
<g id="a_node12"><a xlink:href="difficulty_8c.html" target="_top" xlink:title=" ">
<polygon fill="white" stroke="black" points="848.69,-0.5 848.69,-19.5 946.69,-19.5 946.69,-0.5 848.69,-0.5"/>
<text text-anchor="middle" x="897.69" y="-7.5" font-family="Helvetica,sans-Serif" font-size="10.00">src/P2/difficulty.c</text>
</a>
</g>
</g>
<!-- Node11&#45;&gt;Node12 -->
<g id="edge13" class="edge">
<title>Node11&#45;&gt;Node12</title>
<path fill="none" stroke="midnightblue" d="M897.69,-45.8C897.69,-36.91 897.69,-26.78 897.69,-19.75"/>
<polygon fill="midnightblue" stroke="midnightblue" points="894.19,-46.08 897.69,-56.08 901.19,-46.08 894.19,-46.08"/>
</g>
<!-- Node14 -->
<g id="node14" class="node">
<title>Node14</title>
<g id="a_node14"><a xlink:href="joy_8c.html" target="_top" xlink:title=" ">
<polygon fill="white" stroke="black" points="574.19,-168.5 574.19,-187.5 645.19,-187.5 645.19,-168.5 574.19,-168.5"/>
<text text-anchor="middle" x="609.69" y="-175.5" font-family="Helvetica,sans-Serif" font-size="10.00">src/P2/joy.c</text>
</a>
</g>
</g>
<!-- Node13&#45;&gt;Node14 -->
<g id="edge15" class="edge">
<title>Node13&#45;&gt;Node14</title>
<path fill="none" stroke="midnightblue" d="M646.01,-216.72C636.85,-207.2 625.64,-195.56 618.12,-187.75"/>
<polygon fill="midnightblue" stroke="midnightblue" points="643.65,-219.31 653.1,-224.08 648.69,-214.45 643.65,-219.31"/>
</g>
<!-- Node15 -->
<g id="node15" class="node">
<title>Node15</title>
<g id="a_node15"><a xlink:href="steppower_8h.html" target="_top" xlink:title=" ">
<polygon fill="white" stroke="black" points="663.69,-168.5 663.69,-187.5 777.69,-187.5 777.69,-168.5 663.69,-168.5"/>
<text text-anchor="middle" x="720.69" y="-175.5" font-family="Helvetica,sans-Serif" font-size="10.00">include/steppower.h</text>
</a>
</g>
</g>
<!-- Node13&#45;&gt;Node15 -->
<g id="edge16" class="edge">
<title>Node13&#45;&gt;Node15</title>
<path fill="none" stroke="midnightblue" d="M678.59,-217.54C689.11,-207.91 702.26,-195.87 711.04,-187.83"/>
<polygon fill="midnightblue" stroke="midnightblue" points="676.18,-214.99 671.17,-224.32 680.91,-220.15 676.18,-214.99"/>
</g>
<!-- Node16 -->
<g id="node16" class="node">
<title>Node16</title>
<g id="a_node16"><a xlink:href="steppower_8c.html" target="_top" xlink:title=" ">
<polygon fill="white" stroke="black" points="667.19,-112.5 667.19,-131.5 774.19,-131.5 774.19,-112.5 667.19,-112.5"/>
<text text-anchor="middle" x="720.69" y="-119.5" font-family="Helvetica,sans-Serif" font-size="10.00">src/P2/steppower.c</text>
</a>
</g>
</g>
<!-- Node15&#45;&gt;Node16 -->
<g id="edge17" class="edge">
<title>Node15&#45;&gt;Node16</title>
<path fill="none" stroke="midnightblue" d="M720.69,-157.8C720.69,-148.91 720.69,-138.78 720.69,-131.75"/>
<polygon fill="midnightblue" stroke="midnightblue" points="717.19,-158.08 720.69,-168.08 724.19,-158.08 717.19,-158.08"/>
</g>
<!-- Node17&#45;&gt;Node10 -->
<g id="edge19" class="edge">
<title>Node17&#45;&gt;Node10</title>
<path fill="none" stroke="midnightblue" d="M164.89,-214.1C163.56,-205.14 162.04,-194.86 160.99,-187.75"/>
<polygon fill="midnightblue" stroke="midnightblue" points="161.44,-214.7 166.37,-224.08 168.37,-213.68 161.44,-214.7"/>
</g>
<!-- Node19 -->
<g id="node19" class="node">
<title>Node19</title>
<g id="a_node19"><a xlink:href="bif_8cpp.html" target="_top" xlink:title=" ">
<polygon fill="white" stroke="black" points="796.19,-168.5 796.19,-187.5 909.19,-187.5 909.19,-168.5 796.19,-168.5"/>
<text text-anchor="middle" x="852.69" y="-175.5" font-family="Helvetica,sans-Serif" font-size="10.00">src/P2/splice/bif.cpp</text>
</a>
</g>
</g>
<!-- Node18&#45;&gt;Node19 -->
<g id="edge21" class="edge">
<title>Node18&#45;&gt;Node19</title>
<path fill="none" stroke="midnightblue" d="M831.87,-215.27C837.16,-206.05 843.41,-195.17 847.67,-187.75"/>
<polygon fill="midnightblue" stroke="midnightblue" points="828.75,-213.67 826.81,-224.08 834.82,-217.15 828.75,-213.67"/>
</g>
<!-- Node20 -->
<g id="node20" class="node">
<title>Node20</title>
<g id="a_node20"><a xlink:href="ref_8cpp.html" target="_top" xlink:title=" ">
<polygon fill="white" stroke="black" points="1058.19,-168.5 1058.19,-187.5 1171.19,-187.5 1171.19,-168.5 1058.19,-168.5"/>
<text text-anchor="middle" x="1114.69" y="-175.5" font-family="Helvetica,sans-Serif" font-size="10.00">src/P2/splice/ref.cpp</text>
</a>
</g>
</g>
<!-- Node18&#45;&gt;Node20 -->
<g id="edge22" class="edge">
<title>Node18&#45;&gt;Node20</title>
<path fill="none" stroke="midnightblue" d="M878.12,-222.6C933.49,-212.4 1016.92,-197.02 1068.48,-187.52"/>
<polygon fill="midnightblue" stroke="midnightblue" points="877.32,-219.19 868.12,-224.44 878.59,-226.07 877.32,-219.19"/>
</g>
<!-- Node21 -->
<g id="node21" class="node">
<title>Node21</title>
<g id="a_node21"><a xlink:href="pair_8h.html" target="_top" xlink:title=" ">
<polygon fill="white" stroke="black" points="927.19,-168.5 927.19,-187.5 1040.19,-187.5 1040.19,-168.5 927.19,-168.5"/>
<text text-anchor="middle" x="983.69" y="-175.5" font-family="Helvetica,sans-Serif" font-size="10.00">include/splice/pair.h</text>
</a>
</g>
</g>
<!-- Node18&#45;&gt;Node21 -->
<g id="edge23" class="edge">
<title>Node18&#45;&gt;Node21</title>
<path fill="none" stroke="midnightblue" d="M857.17,-221.17C887.68,-211 930.94,-196.59 958.14,-187.52"/>
<polygon fill="midnightblue" stroke="midnightblue" points="855.74,-217.96 847.36,-224.44 857.95,-224.6 855.74,-217.96"/>
</g>
<!-- Node22 -->
<g id="node22" class="node">
<title>Node22</title>
<g id="a_node22"><a xlink:href="spliceutils_8cpp.html" target="_top" xlink:title=" ">
<polygon fill="white" stroke="black" points="983.69,-112.5 983.69,-131.5 1133.69,-131.5 1133.69,-112.5 983.69,-112.5"/>
<text text-anchor="middle" x="1058.69" y="-119.5" font-family="Helvetica,sans-Serif" font-size="10.00">src/P2/splice/spliceutils.cpp</text>
</a>
</g>
</g>
<!-- Node21&#45;&gt;Node22 -->
<g id="edge24" class="edge">
<title>Node21&#45;&gt;Node22</title>
<path fill="none" stroke="midnightblue" d="M1004,-162.38C1017.55,-152.62 1034.93,-140.11 1046.42,-131.83"/>
<polygon fill="midnightblue" stroke="midnightblue" points="1001.81,-159.64 995.74,-168.32 1005.9,-165.32 1001.81,-159.64"/>
</g>
<!-- Node23&#45;&gt;Node20 -->
<g id="edge26" class="edge">
<title>Node23&#45;&gt;Node20</title>
<path fill="none" stroke="midnightblue" d="M994.02,-221.04C1023.19,-210.88 1064.33,-196.55 1090.25,-187.52"/>
<polygon fill="midnightblue" stroke="midnightblue" points="992.54,-217.85 984.25,-224.44 994.85,-224.46 992.54,-217.85"/>
</g>
<!-- Node23&#45;&gt;Node22 -->
<g id="edge27" class="edge">
<title>Node23&#45;&gt;Node22</title>
<path fill="none" stroke="midnightblue" d="M1031.41,-222.98C1092.22,-213.75 1171.1,-199.74 1180.69,-188 1204.53,-158.82 1153.24,-140.98 1110.01,-131.55"/>
<polygon fill="midnightblue" stroke="midnightblue" points="1030.8,-219.53 1021.43,-224.48 1031.84,-226.45 1030.8,-219.53"/>
</g>
<!-- Node24&#45;&gt;Node2 -->
<g id="edge32" class="edge">
<title>Node24&#45;&gt;Node2</title>
<path fill="none" stroke="midnightblue" d="M309.18,-223.09C257.5,-214 178.94,-200.17 110.69,-188 108.09,-187.54 105.4,-187.06 102.7,-186.57"/>
<polygon fill="midnightblue" stroke="midnightblue" points="308.7,-226.55 319.15,-224.84 309.91,-219.66 308.7,-226.55"/>
</g>
<!-- Node24&#45;&gt;Node10 -->
<g id="edge31" class="edge">
<title>Node24&#45;&gt;Node10</title>
<path fill="none" stroke="midnightblue" d="M323.08,-221.83C284.18,-211.63 227.53,-196.78 192.18,-187.52"/>
<polygon fill="midnightblue" stroke="midnightblue" points="322.49,-225.29 333.05,-224.44 324.26,-218.52 322.49,-225.29"/>
</g>
<!-- Node25 -->
<g id="node25" class="node">
<title>Node25</title>
<g id="a_node25"><a xlink:href="xform1_8c.html" target="_top" xlink:title=" ">
<polygon fill="white" stroke="black" points="217.69,-168.5 217.69,-187.5 309.69,-187.5 309.69,-168.5 217.69,-168.5"/>
<text text-anchor="middle" x="263.69" y="-175.5" font-family="Helvetica,sans-Serif" font-size="10.00">src/P2/xform1.c</text>
</a>
</g>
</g>
<!-- Node24&#45;&gt;Node25 -->
<g id="edge29" class="edge">
<title>Node24&#45;&gt;Node25</title>
<path fill="none" stroke="midnightblue" d="M340.36,-219.59C321.5,-209.61 296.31,-196.27 280.04,-187.65"/>
<polygon fill="midnightblue" stroke="midnightblue" points="338.83,-222.74 349.3,-224.32 342.1,-216.55 338.83,-222.74"/>
</g>
<!-- Node26 -->
<g id="node26" class="node">
<title>Node26</title>
<g id="a_node26"><a xlink:href="xform2_8c.html" target="_top" xlink:title=" ">
<polygon fill="white" stroke="black" points="327.69,-168.5 327.69,-187.5 419.69,-187.5 419.69,-168.5 327.69,-168.5"/>
<text text-anchor="middle" x="373.69" y="-175.5" font-family="Helvetica,sans-Serif" font-size="10.00">src/P2/xform2.c</text>
</a>
</g>
</g>
<!-- Node24&#45;&gt;Node26 -->
<g id="edge30" class="edge">
<title>Node24&#45;&gt;Node26</title>
<path fill="none" stroke="midnightblue" d="M368.49,-214.1C369.82,-205.14 371.34,-194.86 372.39,-187.75"/>
<polygon fill="midnightblue" stroke="midnightblue" points="365.02,-213.68 367.01,-224.08 371.94,-214.7 365.02,-213.68"/>
</g>
<!-- Node27 -->
<g id="node27" class="node">
<title>Node27</title>
<g id="a_node27"><a xlink:href="vol_8h.html" target="_top" xlink:title="Volume object.">
<polygon fill="white" stroke="black" points="438.19,-168.5 438.19,-187.5 517.19,-187.5 517.19,-168.5 438.19,-168.5"/>
<text text-anchor="middle" x="477.69" y="-175.5" font-family="Helvetica,sans-Serif" font-size="10.00">include/vol.h</text>
</a>
</g>
</g>
<!-- Node24&#45;&gt;Node27 -->
<g id="edge33" class="edge">
<title>Node24&#45;&gt;Node27</title>
<path fill="none" stroke="midnightblue" d="M392.94,-219.86C413.71,-209.85 441.71,-196.35 459.74,-187.65"/>
<polygon fill="midnightblue" stroke="midnightblue" points="391.17,-216.83 383.69,-224.32 394.21,-223.13 391.17,-216.83"/>
</g>
<!-- Node28 -->
<g id="node28" class="node">
<title>Node28</title>
<g id="a_node28"><a xlink:href="chkpnt_8h.html" target="_top" xlink:title="Checkpoint system.">
<polygon fill="white" stroke="black" points="394.19,-112.5 394.19,-131.5 491.19,-131.5 491.19,-112.5 394.19,-112.5"/>
<text text-anchor="middle" x="442.69" y="-119.5" font-family="Helvetica,sans-Serif" font-size="10.00">include/chkpnt.h</text>
</a>
</g>
</g>
<!-- Node27&#45;&gt;Node28 -->
<g id="edge34" class="edge">
<title>Node27&#45;&gt;Node28</title>
<path fill="none" stroke="midnightblue" d="M466.39,-159.57C460.37,-150.27 453.22,-139.25 448.36,-131.75"/>
<polygon fill="midnightblue" stroke="midnightblue" points="463.54,-161.6 471.91,-168.08 469.41,-157.79 463.54,-161.6"/>
</g>
<!-- Node28&#45;&gt;Node3 -->
<g id="edge36" class="edge">
<title>Node28&#45;&gt;Node3</title>
<path fill="none" stroke="midnightblue" d="M403.31,-109.57C368.23,-99.38 317.67,-84.7 286.03,-75.52"/>
<polygon fill="midnightblue" stroke="midnightblue" points="402.64,-113.02 413.22,-112.44 404.59,-106.29 402.64,-113.02"/>
</g>
<!-- Node28&#45;&gt;Node11 -->
<g id="edge37" class="edge">
<title>Node28&#45;&gt;Node11</title>
<path fill="none" stroke="midnightblue" d="M501.51,-111.94C631.07,-94.71 770.75,-79.87 844.95,-72.28"/>
<polygon fill="midnightblue" stroke="midnightblue" points="500.85,-108.5 491.4,-113.29 501.78,-115.44 500.85,-108.5"/>
</g>
<!-- Node29 -->
<g id="node29" class="node">
<title>Node29</title>
<g id="a_node29"><a xlink:href="chkpnt_8c.html" target="_top" xlink:title=" ">
<polygon fill="white" stroke="black" points="397.69,-56.5 397.69,-75.5 487.69,-75.5 487.69,-56.5 397.69,-56.5"/>
<text text-anchor="middle" x="442.69" y="-63.5" font-family="Helvetica,sans-Serif" font-size="10.00">src/P2/chkpnt.c</text>
</a>
</g>
</g>
<!-- Node28&#45;&gt;Node29 -->
<g id="edge35" class="edge">
<title>Node28&#45;&gt;Node29</title>
<path fill="none" stroke="midnightblue" d="M442.69,-101.8C442.69,-92.91 442.69,-82.78 442.69,-75.75"/>
<polygon fill="midnightblue" stroke="midnightblue" points="439.19,-102.08 442.69,-112.08 446.19,-102.08 439.19,-102.08"/>
</g>
</g>
</svg>
