<?xml version="1.0" encoding="UTF-8" standalone="no"?>
<!DOCTYPE svg PUBLIC "-//W3C//DTD SVG 1.1//EN"
 "http://www.w3.org/Graphics/SVG/1.1/DTD/svg11.dtd">
<!-- Generated by graphviz version 2.43.0 (0)
 -->
<!-- Title: include/sm.h Pages: 1 -->
<svg width="1265pt" height="364pt"
 viewBox="0.00 0.00 1265.19 364.00" xmlns="http://www.w3.org/2000/svg" xmlns:xlink="http://www.w3.org/1999/xlink">
<g id="graph0" class="graph" transform="scale(1 1) rotate(0) translate(4 360)">
<title>include/sm.h</title>
<polygon fill="white" stroke="transparent" points="-4,4 -4,-360 1261.19,-360 1261.19,4 -4,4"/>
<!-- Node1 -->
<g id="node1" class="node">
<title>Node1</title>
<g id="a_node1"><a xlink:title="State machines.">
<polygon fill="#bfbfbf" stroke="black" points="673.5,-336.5 673.5,-355.5 752.5,-355.5 752.5,-336.5 673.5,-336.5"/>
<text text-anchor="middle" x="713" y="-343.5" font-family="Helvetica,sans-Serif" font-size="10.00">include/sm.h</text>
</a>
</g>
</g>
<!-- Node2 -->
<g id="node2" class="node">
<title>Node2</title>
<g id="a_node2"><a xlink:href="coin_8h.html" target="_top" xlink:title="Coins, keys, and other collectibles.">
<polygon fill="white" stroke="black" points="0,-168.5 0,-187.5 84,-187.5 84,-168.5 0,-168.5"/>
<text text-anchor="middle" x="42" y="-175.5" font-family="Helvetica,sans-Serif" font-size="10.00">include/coin.h</text>
</a>
</g>
</g>
<!-- Node1&#45;&gt;Node2 -->
<g id="edge1" class="edge">
<title>Node1&#45;&gt;Node2</title>
<path fill="none" stroke="midnightblue" d="M663.46,-336.01C577.49,-320.03 395.34,-284.54 244,-244 178.88,-226.56 103.64,-200.84 66.02,-187.59"/>
<polygon fill="midnightblue" stroke="midnightblue" points="662.99,-339.48 673.46,-337.86 664.27,-332.6 662.99,-339.48"/>
</g>
<!-- Node4 -->
<g id="node4" class="node">
<title>Node4</title>
<g id="a_node4"><a xlink:href="flash_8h.html" target="_top" xlink:title="Flash (might be flash animation, or literal screen flashes).">
<polygon fill="white" stroke="black" points="951.5,-112.5 951.5,-131.5 1038.5,-131.5 1038.5,-112.5 951.5,-112.5"/>
<text text-anchor="middle" x="995" y="-119.5" font-family="Helvetica,sans-Serif" font-size="10.00">include/flash.h</text>
</a>
</g>
</g>
<!-- Node1&#45;&gt;Node4 -->
<g id="edge3" class="edge">
<title>Node1&#45;&gt;Node4</title>
<path fill="none" stroke="midnightblue" d="M762.76,-343.24C882.34,-337.85 1180.47,-317.21 1241,-244 1262.52,-217.97 1262.63,-193.94 1241,-168 1228.16,-152.6 1105.73,-135.99 1038.58,-127.94"/>
<polygon fill="midnightblue" stroke="midnightblue" points="762.61,-339.74 752.77,-343.67 762.91,-346.73 762.61,-339.74"/>
</g>
<!-- Node6 -->
<g id="node6" class="node">
<title>Node6</title>
<g id="a_node6"><a xlink:href="util_8h.html" target="_top" xlink:title="Utility functions.">
<polygon fill="white" stroke="black" points="673,-280.5 673,-299.5 753,-299.5 753,-280.5 673,-280.5"/>
<text text-anchor="middle" x="713" y="-287.5" font-family="Helvetica,sans-Serif" font-size="10.00">include/util.h</text>
</a>
</g>
</g>
<!-- Node1&#45;&gt;Node6 -->
<g id="edge5" class="edge">
<title>Node1&#45;&gt;Node6</title>
<path fill="none" stroke="midnightblue" d="M713,-325.8C713,-316.91 713,-306.78 713,-299.75"/>
<polygon fill="midnightblue" stroke="midnightblue" points="709.5,-326.08 713,-336.08 716.5,-326.08 709.5,-326.08"/>
</g>
<!-- Node3 -->
<g id="node3" class="node">
<title>Node3</title>
<g id="a_node3"><a xlink:href="coin_8c.html" target="_top" xlink:title=" ">
<polygon fill="white" stroke="black" points="3.5,-56.5 3.5,-75.5 80.5,-75.5 80.5,-56.5 3.5,-56.5"/>
<text text-anchor="middle" x="42" y="-63.5" font-family="Helvetica,sans-Serif" font-size="10.00">src/P2/coin.c</text>
</a>
</g>
</g>
<!-- Node2&#45;&gt;Node3 -->
<g id="edge2" class="edge">
<title>Node2&#45;&gt;Node3</title>
<path fill="none" stroke="midnightblue" d="M42,-158.35C42,-134.25 42,-93.31 42,-75.59"/>
<polygon fill="midnightblue" stroke="midnightblue" points="38.5,-158.37 42,-168.37 45.5,-158.37 38.5,-158.37"/>
</g>
<!-- Node5 -->
<g id="node5" class="node">
<title>Node5</title>
<g id="a_node5"><a xlink:href="flash_8c.html" target="_top" xlink:title=" ">
<polygon fill="white" stroke="black" points="955,-56.5 955,-75.5 1035,-75.5 1035,-56.5 955,-56.5"/>
<text text-anchor="middle" x="995" y="-63.5" font-family="Helvetica,sans-Serif" font-size="10.00">src/P2/flash.c</text>
</a>
</g>
</g>
<!-- Node4&#45;&gt;Node5 -->
<g id="edge4" class="edge">
<title>Node4&#45;&gt;Node5</title>
<path fill="none" stroke="midnightblue" d="M995,-101.8C995,-92.91 995,-82.78 995,-75.75"/>
<polygon fill="midnightblue" stroke="midnightblue" points="991.5,-102.08 995,-112.08 998.5,-102.08 991.5,-102.08"/>
</g>
<!-- Node7 -->
<g id="node7" class="node">
<title>Node7</title>
<g id="a_node7"><a xlink:href="cm_8c.html" target="_top" xlink:title=" ">
<polygon fill="white" stroke="black" points="729,-112.5 729,-131.5 801,-131.5 801,-112.5 729,-112.5"/>
<text text-anchor="middle" x="765" y="-119.5" font-family="Helvetica,sans-Serif" font-size="10.00">src/P2/cm.c</text>
</a>
</g>
</g>
<!-- Node6&#45;&gt;Node7 -->
<g id="edge6" class="edge">
<title>Node6&#45;&gt;Node7</title>
<path fill="none" stroke="midnightblue" d="M718.71,-270.76C721.26,-262.58 724.3,-252.81 727,-244 737.35,-210.26 739.31,-201.63 750,-168 754.04,-155.29 758.98,-140.64 762.05,-131.6"/>
<polygon fill="midnightblue" stroke="midnightblue" points="715.35,-269.79 715.7,-280.38 722.03,-271.88 715.35,-269.79"/>
</g>
<!-- Node8 -->
<g id="node8" class="node">
<title>Node8</title>
<g id="a_node8"><a xlink:href="util_8c.html" target="_top" xlink:title=" ">
<polygon fill="white" stroke="black" points="552.5,-224.5 552.5,-243.5 625.5,-243.5 625.5,-224.5 552.5,-224.5"/>
<text text-anchor="middle" x="589" y="-231.5" font-family="Helvetica,sans-Serif" font-size="10.00">src/P2/util.c</text>
</a>
</g>
</g>
<!-- Node6&#45;&gt;Node8 -->
<g id="edge7" class="edge">
<title>Node6&#45;&gt;Node8</title>
<path fill="none" stroke="midnightblue" d="M683.99,-276.37C660.77,-266.26 628.84,-252.35 608.56,-243.52"/>
<polygon fill="midnightblue" stroke="midnightblue" points="682.79,-279.66 693.35,-280.44 685.58,-273.24 682.79,-279.66"/>
</g>
<!-- Node9 -->
<g id="node9" class="node">
<title>Node9</title>
<g id="a_node9"><a xlink:href="vec_8c.html" target="_top" xlink:title=" ">
<polygon fill="white" stroke="black" points="644,-224.5 644,-243.5 718,-243.5 718,-224.5 644,-224.5"/>
<text text-anchor="middle" x="681" y="-231.5" font-family="Helvetica,sans-Serif" font-size="10.00">src/P2/vec.c</text>
</a>
</g>
</g>
<!-- Node6&#45;&gt;Node9 -->
<g id="edge8" class="edge">
<title>Node6&#45;&gt;Node9</title>
<path fill="none" stroke="midnightblue" d="M702.5,-271.27C697.03,-262.05 690.58,-251.17 686.19,-243.75"/>
<polygon fill="midnightblue" stroke="midnightblue" points="699.61,-273.26 707.72,-280.08 705.63,-269.7 699.61,-273.26"/>
</g>
<!-- Node10 -->
<g id="node10" class="node">
<title>Node10</title>
<g id="a_node10"><a xlink:href="cm_8h.html" target="_top" xlink:title="Game camera.">
<polygon fill="white" stroke="black" points="759.5,-168.5 759.5,-187.5 838.5,-187.5 838.5,-168.5 759.5,-168.5"/>
<text text-anchor="middle" x="799" y="-175.5" font-family="Helvetica,sans-Serif" font-size="10.00">include/cm.h</text>
</a>
</g>
</g>
<!-- Node6&#45;&gt;Node10 -->
<g id="edge9" class="edge">
<title>Node6&#45;&gt;Node10</title>
<path fill="none" stroke="midnightblue" d="M731.04,-273.81C740.29,-265.53 751.39,-254.79 760,-244 774.78,-225.49 788.06,-200.87 794.64,-187.89"/>
<polygon fill="midnightblue" stroke="midnightblue" points="728.73,-271.18 723.49,-280.4 733.33,-276.46 728.73,-271.18"/>
</g>
<!-- Node11 -->
<g id="node11" class="node">
<title>Node11</title>
<g id="a_node11"><a xlink:href="difficulty_8h.html" target="_top" xlink:title="Dynamic difficulty system.">
<polygon fill="white" stroke="black" points="353.5,-56.5 353.5,-75.5 458.5,-75.5 458.5,-56.5 353.5,-56.5"/>
<text text-anchor="middle" x="406" y="-63.5" font-family="Helvetica,sans-Serif" font-size="10.00">include/difficulty.h</text>
</a>
</g>
</g>
<!-- Node6&#45;&gt;Node11 -->
<g id="edge12" class="edge">
<title>Node6&#45;&gt;Node11</title>
<path fill="none" stroke="midnightblue" d="M662.75,-286.93C594.72,-283.08 478.32,-272.42 448,-244 422.77,-220.35 409.97,-107.63 406.8,-75.54"/>
<polygon fill="midnightblue" stroke="midnightblue" points="662.65,-290.43 672.83,-287.47 663.03,-283.44 662.65,-290.43"/>
</g>
<!-- Node13 -->
<g id="node13" class="node">
<title>Node13</title>
<g id="a_node13"><a xlink:href="joy_8h.html" target="_top" xlink:title="Joypad manager.">
<polygon fill="white" stroke="black" points="457.5,-224.5 457.5,-243.5 534.5,-243.5 534.5,-224.5 457.5,-224.5"/>
<text text-anchor="middle" x="496" y="-231.5" font-family="Helvetica,sans-Serif" font-size="10.00">include/joy.h</text>
</a>
</g>
</g>
<!-- Node6&#45;&gt;Node13 -->
<g id="edge14" class="edge">
<title>Node6&#45;&gt;Node13</title>
<path fill="none" stroke="midnightblue" d="M668.89,-278.02C627.9,-267.82 567.7,-252.84 530.22,-243.52"/>
<polygon fill="midnightblue" stroke="midnightblue" points="668.07,-281.43 678.62,-280.44 669.76,-274.63 668.07,-281.43"/>
</g>
<!-- Node17 -->
<g id="node17" class="node">
<title>Node17</title>
<g id="a_node17"><a xlink:href="sound_8h.html" target="_top" xlink:title="Sound playback.">
<polygon fill="white" stroke="black" points="812.5,-224.5 812.5,-243.5 905.5,-243.5 905.5,-224.5 812.5,-224.5"/>
<text text-anchor="middle" x="859" y="-231.5" font-family="Helvetica,sans-Serif" font-size="10.00">include/sound.h</text>
</a>
</g>
</g>
<!-- Node6&#45;&gt;Node17 -->
<g id="edge18" class="edge">
<title>Node6&#45;&gt;Node17</title>
<path fill="none" stroke="midnightblue" d="M745.7,-276.91C773.15,-266.75 811.67,-252.51 835.97,-243.52"/>
<polygon fill="midnightblue" stroke="midnightblue" points="744.3,-273.69 736.13,-280.44 746.73,-280.26 744.3,-273.69"/>
</g>
<!-- Node18 -->
<g id="node18" class="node">
<title>Node18</title>
<g id="a_node18"><a xlink:href="ref_8h.html" target="_top" xlink:title=" ">
<polygon fill="white" stroke="black" points="957,-224.5 957,-243.5 1065,-243.5 1065,-224.5 957,-224.5"/>
<text text-anchor="middle" x="1011" y="-231.5" font-family="Helvetica,sans-Serif" font-size="10.00">include/splice/ref.h</text>
</a>
</g>
</g>
<!-- Node6&#45;&gt;Node18 -->
<g id="edge20" class="edge">
<title>Node6&#45;&gt;Node18</title>
<path fill="none" stroke="midnightblue" d="M763.24,-279.9C819.24,-269.75 909.12,-253.46 963.85,-243.54"/>
<polygon fill="midnightblue" stroke="midnightblue" points="762.41,-276.49 753.19,-281.72 763.65,-283.38 762.41,-276.49"/>
</g>
<!-- Node23 -->
<g id="node23" class="node">
<title>Node23</title>
<g id="a_node23"><a xlink:href="vecmat_8h.html" target="_top" xlink:title=" ">
<polygon fill="white" stroke="black" points="1100,-224.5 1100,-243.5 1232,-243.5 1232,-224.5 1100,-224.5"/>
<text text-anchor="middle" x="1166" y="-231.5" font-family="Helvetica,sans-Serif" font-size="10.00">include/splice/vecmat.h</text>
</a>
</g>
</g>
<!-- Node6&#45;&gt;Node23 -->
<g id="edge25" class="edge">
<title>Node6&#45;&gt;Node23</title>
<path fill="none" stroke="midnightblue" d="M763.29,-283.01C845.44,-273.21 1008.44,-253.78 1099.86,-242.88"/>
<polygon fill="midnightblue" stroke="midnightblue" points="762.72,-279.55 753.2,-284.21 763.54,-286.5 762.72,-279.55"/>
</g>
<!-- Node24 -->
<g id="node24" class="node">
<title>Node24</title>
<g id="a_node24"><a xlink:href="xform_8h.html" target="_top" xlink:title="Transform.">
<polygon fill="white" stroke="black" points="253.5,-224.5 253.5,-243.5 346.5,-243.5 346.5,-224.5 253.5,-224.5"/>
<text text-anchor="middle" x="300" y="-231.5" font-family="Helvetica,sans-Serif" font-size="10.00">include/xform.h</text>
</a>
</g>
</g>
<!-- Node6&#45;&gt;Node24 -->
<g id="edge28" class="edge">
<title>Node6&#45;&gt;Node24</title>
<path fill="none" stroke="midnightblue" d="M662.25,-282.36C581.51,-271.81 424.98,-251.34 346.8,-241.12"/>
<polygon fill="midnightblue" stroke="midnightblue" points="662.28,-285.9 672.65,-283.72 663.19,-278.96 662.28,-285.9"/>
</g>
<!-- Node10&#45;&gt;Node4 -->
<g id="edge11" class="edge">
<title>Node10&#45;&gt;Node4</title>
<path fill="none" stroke="midnightblue" d="M840.02,-165.7C877.01,-155.51 930.6,-140.74 964.09,-131.52"/>
<polygon fill="midnightblue" stroke="midnightblue" points="838.77,-162.41 830.06,-168.44 840.63,-169.16 838.77,-162.41"/>
</g>
<!-- Node10&#45;&gt;Node7 -->
<g id="edge10" class="edge">
<title>Node10&#45;&gt;Node7</title>
<path fill="none" stroke="midnightblue" d="M788.02,-159.57C782.17,-150.27 775.23,-139.25 770.51,-131.75"/>
<polygon fill="midnightblue" stroke="midnightblue" points="785.1,-161.49 793.39,-168.08 791.02,-157.76 785.1,-161.49"/>
</g>
<!-- Node12 -->
<g id="node12" class="node">
<title>Node12</title>
<g id="a_node12"><a xlink:href="difficulty_8c.html" target="_top" xlink:title=" ">
<polygon fill="white" stroke="black" points="357,-0.5 357,-19.5 455,-19.5 455,-0.5 357,-0.5"/>
<text text-anchor="middle" x="406" y="-7.5" font-family="Helvetica,sans-Serif" font-size="10.00">src/P2/difficulty.c</text>
</a>
</g>
</g>
<!-- Node11&#45;&gt;Node12 -->
<g id="edge13" class="edge">
<title>Node11&#45;&gt;Node12</title>
<path fill="none" stroke="midnightblue" d="M406,-45.8C406,-36.91 406,-26.78 406,-19.75"/>
<polygon fill="midnightblue" stroke="midnightblue" points="402.5,-46.08 406,-56.08 409.5,-46.08 402.5,-46.08"/>
</g>
<!-- Node14 -->
<g id="node14" class="node">
<title>Node14</title>
<g id="a_node14"><a xlink:href="joy_8c.html" target="_top" xlink:title=" ">
<polygon fill="white" stroke="black" points="589.5,-168.5 589.5,-187.5 660.5,-187.5 660.5,-168.5 589.5,-168.5"/>
<text text-anchor="middle" x="625" y="-175.5" font-family="Helvetica,sans-Serif" font-size="10.00">src/P2/joy.c</text>
</a>
</g>
</g>
<!-- Node13&#45;&gt;Node14 -->
<g id="edge15" class="edge">
<title>Node13&#45;&gt;Node14</title>
<path fill="none" stroke="midnightblue" d="M525.85,-220.5C550.04,-210.38 583.46,-196.39 604.66,-187.52"/>
<polygon fill="midnightblue" stroke="midnightblue" points="524.31,-217.35 516.44,-224.44 527.02,-223.81 524.31,-217.35"/>
</g>
<!-- Node15 -->
<g id="node15" class="node">
<title>Node15</title>
<g id="a_node15"><a xlink:href="steppower_8h.html" target="_top" xlink:title=" ">
<polygon fill="white" stroke="black" points="457,-168.5 457,-187.5 571,-187.5 571,-168.5 457,-168.5"/>
<text text-anchor="middle" x="514" y="-175.5" font-family="Helvetica,sans-Serif" font-size="10.00">include/steppower.h</text>
</a>
</g>
</g>
<!-- Node13&#45;&gt;Node15 -->
<g id="edge16" class="edge">
<title>Node13&#45;&gt;Node15</title>
<path fill="none" stroke="midnightblue" d="M502.2,-214.4C505.21,-205.36 508.69,-194.94 511.08,-187.75"/>
<polygon fill="midnightblue" stroke="midnightblue" points="498.81,-213.49 498.97,-224.08 505.46,-215.7 498.81,-213.49"/>
</g>
<!-- Node16 -->
<g id="node16" class="node">
<title>Node16</title>
<g id="a_node16"><a xlink:href="steppower_8c.html" target="_top" xlink:title=" ">
<polygon fill="white" stroke="black" points="460.5,-112.5 460.5,-131.5 567.5,-131.5 567.5,-112.5 460.5,-112.5"/>
<text text-anchor="middle" x="514" y="-119.5" font-family="Helvetica,sans-Serif" font-size="10.00">src/P2/steppower.c</text>
</a>
</g>
</g>
<!-- Node15&#45;&gt;Node16 -->
<g id="edge17" class="edge">
<title>Node15&#45;&gt;Node16</title>
<path fill="none" stroke="midnightblue" d="M514,-157.8C514,-148.91 514,-138.78 514,-131.75"/>
<polygon fill="midnightblue" stroke="midnightblue" points="510.5,-158.08 514,-168.08 517.5,-158.08 510.5,-158.08"/>
</g>
<!-- Node17&#45;&gt;Node10 -->
<g id="edge19" class="edge">
<title>Node17&#45;&gt;Node10</title>
<path fill="none" stroke="midnightblue" d="M841.82,-217.54C831.12,-207.91 817.74,-195.87 808.82,-187.83"/>
<polygon fill="midnightblue" stroke="midnightblue" points="839.59,-220.24 849.36,-224.32 844.27,-215.03 839.59,-220.24"/>
</g>
<!-- Node19 -->
<g id="node19" class="node">
<title>Node19</title>
<g id="a_node19"><a xlink:href="bif_8cpp.html" target="_top" xlink:title=" ">
<polygon fill="white" stroke="black" points="856.5,-168.5 856.5,-187.5 969.5,-187.5 969.5,-168.5 856.5,-168.5"/>
<text text-anchor="middle" x="913" y="-175.5" font-family="Helvetica,sans-Serif" font-size="10.00">src/P2/splice/bif.cpp</text>
</a>
</g>
</g>
<!-- Node18&#45;&gt;Node19 -->
<g id="edge21" class="edge">
<title>Node18&#45;&gt;Node19</title>
<path fill="none" stroke="midnightblue" d="M986.41,-219.45C968.32,-209.48 944.27,-196.23 928.71,-187.65"/>
<polygon fill="midnightblue" stroke="midnightblue" points="984.81,-222.56 995.25,-224.32 988.19,-216.43 984.81,-222.56"/>
</g>
<!-- Node20 -->
<g id="node20" class="node">
<title>Node20</title>
<g id="a_node20"><a xlink:href="ref_8cpp.html" target="_top" xlink:title=" ">
<polygon fill="white" stroke="black" points="1118.5,-168.5 1118.5,-187.5 1231.5,-187.5 1231.5,-168.5 1118.5,-168.5"/>
<text text-anchor="middle" x="1175" y="-175.5" font-family="Helvetica,sans-Serif" font-size="10.00">src/P2/splice/ref.cpp</text>
</a>
</g>
</g>
<!-- Node18&#45;&gt;Node20 -->
<g id="edge22" class="edge">
<title>Node18&#45;&gt;Node20</title>
<path fill="none" stroke="midnightblue" d="M1046.52,-221.3C1077.42,-211.13 1121.47,-196.62 1149.14,-187.52"/>
<polygon fill="midnightblue" stroke="midnightblue" points="1045.39,-217.99 1036.99,-224.44 1047.58,-224.64 1045.39,-217.99"/>
</g>
<!-- Node21 -->
<g id="node21" class="node">
<title>Node21</title>
<g id="a_node21"><a xlink:href="pair_8h.html" target="_top" xlink:title=" ">
<polygon fill="white" stroke="black" points="987.5,-168.5 987.5,-187.5 1100.5,-187.5 1100.5,-168.5 987.5,-168.5"/>
<text text-anchor="middle" x="1044" y="-175.5" font-family="Helvetica,sans-Serif" font-size="10.00">include/splice/pair.h</text>
</a>
</g>
</g>
<!-- Node18&#45;&gt;Node21 -->
<g id="edge23" class="edge">
<title>Node18&#45;&gt;Node21</title>
<path fill="none" stroke="midnightblue" d="M1021.83,-215.27C1027.47,-206.05 1034.12,-195.17 1038.65,-187.75"/>
<polygon fill="midnightblue" stroke="midnightblue" points="1018.68,-213.73 1016.45,-224.08 1024.65,-217.38 1018.68,-213.73"/>
</g>
<!-- Node22 -->
<g id="node22" class="node">
<title>Node22</title>
<g id="a_node22"><a xlink:href="spliceutils_8cpp.html" target="_top" xlink:title=" ">
<polygon fill="white" stroke="black" points="1096,-112.5 1096,-131.5 1246,-131.5 1246,-112.5 1096,-112.5"/>
<text text-anchor="middle" x="1171" y="-119.5" font-family="Helvetica,sans-Serif" font-size="10.00">src/P2/splice/spliceutils.cpp</text>
</a>
</g>
</g>
<!-- Node21&#45;&gt;Node22 -->
<g id="edge24" class="edge">
<title>Node21&#45;&gt;Node22</title>
<path fill="none" stroke="midnightblue" d="M1073.39,-164.5C1097.2,-154.38 1130.11,-140.39 1150.97,-131.52"/>
<polygon fill="midnightblue" stroke="midnightblue" points="1071.96,-161.31 1064.12,-168.44 1074.7,-167.75 1071.96,-161.31"/>
</g>
<!-- Node23&#45;&gt;Node20 -->
<g id="edge26" class="edge">
<title>Node23&#45;&gt;Node20</title>
<path fill="none" stroke="midnightblue" d="M1169.15,-214.1C1170.64,-205.14 1172.36,-194.86 1173.54,-187.75"/>
<polygon fill="midnightblue" stroke="midnightblue" points="1165.68,-213.64 1167.49,-224.08 1172.58,-214.79 1165.68,-213.64"/>
</g>
<!-- Node23&#45;&gt;Node22 -->
<g id="edge27" class="edge">
<title>Node23&#45;&gt;Node22</title>
<path fill="none" stroke="midnightblue" d="M1202.71,-220.27C1217.34,-213.18 1232.65,-202.74 1241,-188 1254.97,-163.32 1219.05,-142.61 1193.65,-131.58"/>
<polygon fill="midnightblue" stroke="midnightblue" points="1201,-217.2 1193.28,-224.45 1203.84,-223.6 1201,-217.2"/>
</g>
<!-- Node24&#45;&gt;Node2 -->
<g id="edge32" class="edge">
<title>Node24&#45;&gt;Node2</title>
<path fill="none" stroke="midnightblue" d="M249.1,-222.35C200.34,-212.14 127.71,-196.94 82.69,-187.52"/>
<polygon fill="midnightblue" stroke="midnightblue" points="248.61,-225.82 259.12,-224.44 250.05,-218.97 248.61,-225.82"/>
</g>
<!-- Node24&#45;&gt;Node10 -->
<g id="edge31" class="edge">
<title>Node24&#45;&gt;Node10</title>
<path fill="none" stroke="midnightblue" d="M357.08,-226.82C459.29,-215.76 671.11,-192.84 759.21,-183.31"/>
<polygon fill="midnightblue" stroke="midnightblue" points="356.51,-223.36 346.94,-227.92 357.26,-230.32 356.51,-223.36"/>
</g>
<!-- Node25 -->
<g id="node25" class="node">
<title>Node25</title>
<g id="a_node25"><a xlink:href="xform1_8c.html" target="_top" xlink:title=" ">
<polygon fill="white" stroke="black" points="199,-168.5 199,-187.5 291,-187.5 291,-168.5 199,-168.5"/>
<text text-anchor="middle" x="245" y="-175.5" font-family="Helvetica,sans-Serif" font-size="10.00">src/P2/xform1.c</text>
</a>
</g>
</g>
<!-- Node24&#45;&gt;Node25 -->
<g id="edge29" class="edge">
<title>Node24&#45;&gt;Node25</title>
<path fill="none" stroke="midnightblue" d="M283.71,-217C273.96,-207.43 261.95,-195.64 253.91,-187.75"/>
<polygon fill="midnightblue" stroke="midnightblue" points="281.33,-219.57 290.92,-224.08 286.23,-214.58 281.33,-219.57"/>
</g>
<!-- Node26 -->
<g id="node26" class="node">
<title>Node26</title>
<g id="a_node26"><a xlink:href="xform2_8c.html" target="_top" xlink:title=" ">
<polygon fill="white" stroke="black" points="309,-168.5 309,-187.5 401,-187.5 401,-168.5 309,-168.5"/>
<text text-anchor="middle" x="355" y="-175.5" font-family="Helvetica,sans-Serif" font-size="10.00">src/P2/xform2.c</text>
</a>
</g>
</g>
<!-- Node24&#45;&gt;Node26 -->
<g id="edge30" class="edge">
<title>Node24&#45;&gt;Node26</title>
<path fill="none" stroke="midnightblue" d="M316.29,-217C326.04,-207.43 338.05,-195.64 346.09,-187.75"/>
<polygon fill="midnightblue" stroke="midnightblue" points="313.77,-214.58 309.08,-224.08 318.67,-219.57 313.77,-214.58"/>
</g>
<!-- Node27 -->
<g id="node27" class="node">
<title>Node27</title>
<g id="a_node27"><a xlink:href="vol_8h.html" target="_top" xlink:title="Volume object.">
<polygon fill="white" stroke="black" points="101.5,-168.5 101.5,-187.5 180.5,-187.5 180.5,-168.5 101.5,-168.5"/>
<text text-anchor="middle" x="141" y="-175.5" font-family="Helvetica,sans-Serif" font-size="10.00">include/vol.h</text>
</a>
</g>
</g>
<!-- Node24&#45;&gt;Node27 -->
<g id="edge33" class="edge">
<title>Node24&#45;&gt;Node27</title>
<path fill="none" stroke="midnightblue" d="M265.17,-221.17C235.23,-211 192.78,-196.59 166.08,-187.52"/>
<polygon fill="midnightblue" stroke="midnightblue" points="264.21,-224.54 274.81,-224.44 266.46,-217.91 264.21,-224.54"/>
</g>
<!-- Node28 -->
<g id="node28" class="node">
<title>Node28</title>
<g id="a_node28"><a xlink:href="chkpnt_8h.html" target="_top" xlink:title="Checkpoint system.">
<polygon fill="white" stroke="black" points="102.5,-112.5 102.5,-131.5 199.5,-131.5 199.5,-112.5 102.5,-112.5"/>
<text text-anchor="middle" x="151" y="-119.5" font-family="Helvetica,sans-Serif" font-size="10.00">include/chkpnt.h</text>
</a>
</g>
</g>
<!-- Node27&#45;&gt;Node28 -->
<g id="edge34" class="edge">
<title>Node27&#45;&gt;Node28</title>
<path fill="none" stroke="midnightblue" d="M144.5,-158.1C146.16,-149.14 148.06,-138.86 149.38,-131.75"/>
<polygon fill="midnightblue" stroke="midnightblue" points="141.03,-157.61 142.65,-168.08 147.91,-158.89 141.03,-157.61"/>
</g>
<!-- Node28&#45;&gt;Node3 -->
<g id="edge36" class="edge">
<title>Node28&#45;&gt;Node3</title>
<path fill="none" stroke="midnightblue" d="M124.48,-107.86C104.27,-97.85 77.01,-84.35 59.47,-75.65"/>
<polygon fill="midnightblue" stroke="midnightblue" points="122.97,-111.02 133.49,-112.32 126.08,-104.75 122.97,-111.02"/>
</g>
<!-- Node28&#45;&gt;Node11 -->
<g id="edge38" class="edge">
<title>Node28&#45;&gt;Node11</title>
<path fill="none" stroke="midnightblue" d="M201.31,-110.35C249.5,-100.14 321.28,-84.94 365.78,-75.52"/>
<polygon fill="midnightblue" stroke="midnightblue" points="200.46,-106.95 191.41,-112.44 201.91,-113.8 200.46,-106.95"/>
</g>
<!-- Node29 -->
<g id="node29" class="node">
<title>Node29</title>
<g id="a_node29"><a xlink:href="chkpnt_8c.html" target="_top" xlink:title=" ">
<polygon fill="white" stroke="black" points="221,-56.5 221,-75.5 311,-75.5 311,-56.5 221,-56.5"/>
<text text-anchor="middle" x="266" y="-63.5" font-family="Helvetica,sans-Serif" font-size="10.00">src/P2/chkpnt.c</text>
</a>
</g>
</g>
<!-- Node28&#45;&gt;Node29 -->
<g id="edge35" class="edge">
<title>Node28&#45;&gt;Node29</title>
<path fill="none" stroke="midnightblue" d="M178.48,-108.1C199.97,-98.01 229.22,-84.27 247.86,-75.52"/>
<polygon fill="midnightblue" stroke="midnightblue" points="176.79,-105.02 169.22,-112.44 179.76,-111.36 176.79,-105.02"/>
</g>
<!-- Node30 -->
<g id="node30" class="node">
<title>Node30</title>
<g id="a_node30"><a xlink:href="transition_8c.html" target="_top" xlink:title=" ">
<polygon fill="white" stroke="black" points="99,-56.5 99,-75.5 203,-75.5 203,-56.5 99,-56.5"/>
<text text-anchor="middle" x="151" y="-63.5" font-family="Helvetica,sans-Serif" font-size="10.00">src/P2/transition.c</text>
</a>
</g>
</g>
<!-- Node28&#45;&gt;Node30 -->
<g id="edge37" class="edge">
<title>Node28&#45;&gt;Node30</title>
<path fill="none" stroke="midnightblue" d="M151,-101.8C151,-92.91 151,-82.78 151,-75.75"/>
<polygon fill="midnightblue" stroke="midnightblue" points="147.5,-102.08 151,-112.08 154.5,-102.08 147.5,-102.08"/>
</g>
</g>
</svg>
