<?xml version="1.0" encoding="UTF-8" standalone="no"?>
<!DOCTYPE svg PUBLIC "-//W3C//DTD SVG 1.1//EN"
 "http://www.w3.org/Graphics/SVG/1.1/DTD/svg11.dtd">
<!-- Generated by graphviz version 2.43.0 (0)
 -->
<!-- Title: include/sound.h Pages: 1 -->
<svg width="646pt" height="532pt"
 viewBox="0.00 0.00 646.00 532.00" xmlns="http://www.w3.org/2000/svg" xmlns:xlink="http://www.w3.org/1999/xlink">
<g id="graph0" class="graph" transform="scale(1 1) rotate(0) translate(4 528)">
<title>include/sound.h</title>
<polygon fill="white" stroke="transparent" points="-4,4 -4,-528 642,-528 642,4 -4,4"/>
<!-- Node1 -->
<g id="node1" class="node">
<title>Node1</title>
<g id="a_node1"><a xlink:title="Sound playback.">
<polygon fill="#bfbfbf" stroke="black" points="497.5,-504.5 497.5,-523.5 590.5,-523.5 590.5,-504.5 497.5,-504.5"/>
<text text-anchor="middle" x="544" y="-511.5" font-family="Helvetica,sans-Serif" font-size="10.00">include/sound.h</text>
</a>
</g>
</g>
<!-- Node2 -->
<g id="node2" class="node">
<title>Node2</title>
<g id="a_node2"><a xlink:href="common_8h.html" target="_top" xlink:title="Common header file.">
<polygon fill="white" stroke="black" points="279,-56.5 279,-75.5 347,-75.5 347,-56.5 279,-56.5"/>
<text text-anchor="middle" x="313" y="-63.5" font-family="Helvetica,sans-Serif" font-size="10.00">common.h</text>
</a>
</g>
</g>
<!-- Node1&#45;&gt;Node2 -->
<g id="edge1" class="edge">
<title>Node1&#45;&gt;Node2</title>
<path fill="none" stroke="midnightblue" d="M497.15,-513.42C365.19,-513.36 0,-504.05 0,-403 0,-403 0,-403 0,-177 0,-136.77 27.49,-130.92 63,-112 128.72,-76.98 216.52,-68.58 268.67,-66.92"/>
<polygon fill="midnightblue" stroke="midnightblue" points="269.01,-70.41 278.92,-66.67 268.84,-63.42 269.01,-70.41"/>
</g>
<!-- Node6 -->
<g id="node6" class="node">
<title>Node6</title>
<g id="a_node6"><a xlink:href="util_8h.html" target="_top" xlink:title="Utility functions.">
<polygon fill="white" stroke="black" points="523.5,-448.5 523.5,-467.5 564.5,-467.5 564.5,-448.5 523.5,-448.5"/>
<text text-anchor="middle" x="544" y="-455.5" font-family="Helvetica,sans-Serif" font-size="10.00">util.h</text>
</a>
</g>
</g>
<!-- Node1&#45;&gt;Node6 -->
<g id="edge5" class="edge">
<title>Node1&#45;&gt;Node6</title>
<path fill="none" stroke="midnightblue" d="M544,-504.08C544,-497.01 544,-486.86 544,-477.99"/>
<polygon fill="midnightblue" stroke="midnightblue" points="547.5,-477.75 544,-467.75 540.5,-477.75 547.5,-477.75"/>
</g>
<!-- Node10 -->
<g id="node10" class="node">
<title>Node10</title>
<g id="a_node10"><a xlink:href="alo_8h.html" target="_top" xlink:title=" ">
<polygon fill="white" stroke="black" points="554.5,-280.5 554.5,-299.5 595.5,-299.5 595.5,-280.5 554.5,-280.5"/>
<text text-anchor="middle" x="575" y="-287.5" font-family="Helvetica,sans-Serif" font-size="10.00">alo.h</text>
</a>
</g>
</g>
<!-- Node1&#45;&gt;Node10 -->
<g id="edge37" class="edge">
<title>Node1&#45;&gt;Node10</title>
<path fill="none" stroke="midnightblue" d="M551.64,-504.35C565.64,-487.82 594.91,-450.01 605,-412 608.84,-397.54 608.29,-356.57 602,-336 598.94,-326 593.19,-315.92 587.79,-307.84"/>
<polygon fill="midnightblue" stroke="midnightblue" points="590.64,-305.81 581.99,-299.68 584.93,-309.86 590.64,-305.81"/>
</g>
<!-- Node3 -->
<g id="node3" class="node">
<title>Node3</title>
<g id="a_node3"><a xlink:href="include__asm_8h.html" target="_top" xlink:title=" ">
<polygon fill="white" stroke="black" points="158.5,-0.5 158.5,-19.5 245.5,-19.5 245.5,-0.5 158.5,-0.5"/>
<text text-anchor="middle" x="202" y="-7.5" font-family="Helvetica,sans-Serif" font-size="10.00">include_asm.h</text>
</a>
</g>
</g>
<!-- Node2&#45;&gt;Node3 -->
<g id="edge2" class="edge">
<title>Node2&#45;&gt;Node3</title>
<path fill="none" stroke="midnightblue" d="M295.17,-56.32C277.28,-47.62 249.52,-34.12 228.95,-24.11"/>
<polygon fill="midnightblue" stroke="midnightblue" points="230.31,-20.88 219.79,-19.65 227.25,-27.18 230.31,-20.88"/>
</g>
<!-- Node4 -->
<g id="node4" class="node">
<title>Node4</title>
<g id="a_node4"><a xlink:href="include__rodata_8h.html" target="_top" xlink:title=" ">
<polygon fill="white" stroke="black" points="264,-0.5 264,-19.5 362,-19.5 362,-0.5 264,-0.5"/>
<text text-anchor="middle" x="313" y="-7.5" font-family="Helvetica,sans-Serif" font-size="10.00">include_rodata.h</text>
</a>
</g>
</g>
<!-- Node2&#45;&gt;Node4 -->
<g id="edge3" class="edge">
<title>Node2&#45;&gt;Node4</title>
<path fill="none" stroke="midnightblue" d="M313,-56.08C313,-49.01 313,-38.86 313,-29.99"/>
<polygon fill="midnightblue" stroke="midnightblue" points="316.5,-29.75 313,-19.75 309.5,-29.75 316.5,-29.75"/>
</g>
<!-- Node5 -->
<g id="node5" class="node">
<title>Node5</title>
<g id="a_node5"><a xlink:href="types_8h.html" target="_top" xlink:title="Types used throughout the engine.">
<polygon fill="white" stroke="black" points="380.5,-0.5 380.5,-19.5 433.5,-19.5 433.5,-0.5 380.5,-0.5"/>
<text text-anchor="middle" x="407" y="-7.5" font-family="Helvetica,sans-Serif" font-size="10.00">types.h</text>
</a>
</g>
</g>
<!-- Node2&#45;&gt;Node5 -->
<g id="edge4" class="edge">
<title>Node2&#45;&gt;Node5</title>
<path fill="none" stroke="midnightblue" d="M328.1,-56.32C342.9,-47.82 365.69,-34.73 382.98,-24.8"/>
<polygon fill="midnightblue" stroke="midnightblue" points="385.01,-27.67 391.93,-19.65 381.52,-21.6 385.01,-27.67"/>
</g>
<!-- Node6&#45;&gt;Node2 -->
<g id="edge6" class="edge">
<title>Node6&#45;&gt;Node2</title>
<path fill="none" stroke="midnightblue" d="M559.52,-448.35C586.22,-432.2 638,-394.73 638,-347 638,-347 638,-347 638,-177 638,-139.16 615.9,-130.7 583,-112 545.25,-90.55 423.84,-76.79 357.42,-70.68"/>
<polygon fill="midnightblue" stroke="midnightblue" points="357.53,-67.17 347.26,-69.76 356.9,-74.14 357.53,-67.17"/>
</g>
<!-- Node7 -->
<g id="node7" class="node">
<title>Node7</title>
<g id="a_node7"><a xlink:href="mat_8h.html" target="_top" xlink:title="3x3 and 4x4 matrix types.">
<polygon fill="white" stroke="black" points="490.5,-392.5 490.5,-411.5 535.5,-411.5 535.5,-392.5 490.5,-392.5"/>
<text text-anchor="middle" x="513" y="-399.5" font-family="Helvetica,sans-Serif" font-size="10.00">mat.h</text>
</a>
</g>
</g>
<!-- Node6&#45;&gt;Node7 -->
<g id="edge7" class="edge">
<title>Node6&#45;&gt;Node7</title>
<path fill="none" stroke="midnightblue" d="M538.88,-448.08C534.59,-440.61 528.34,-429.72 523.06,-420.52"/>
<polygon fill="midnightblue" stroke="midnightblue" points="526.04,-418.68 518.02,-411.75 519.97,-422.17 526.04,-418.68"/>
</g>
<!-- Node8 -->
<g id="node8" class="node">
<title>Node8</title>
<g id="a_node8"><a xlink:href="vec_8h.html" target="_top" xlink:title="Vector math functions.">
<polygon fill="white" stroke="black" points="553.5,-392.5 553.5,-411.5 596.5,-411.5 596.5,-392.5 553.5,-392.5"/>
<text text-anchor="middle" x="575" y="-399.5" font-family="Helvetica,sans-Serif" font-size="10.00">vec.h</text>
</a>
</g>
</g>
<!-- Node6&#45;&gt;Node8 -->
<g id="edge8" class="edge">
<title>Node6&#45;&gt;Node8</title>
<path fill="none" stroke="midnightblue" d="M549.12,-448.08C553.41,-440.61 559.66,-429.72 564.94,-420.52"/>
<polygon fill="midnightblue" stroke="midnightblue" points="568.03,-422.17 569.98,-411.75 561.96,-418.68 568.03,-422.17"/>
</g>
<!-- Node19 -->
<g id="node19" class="node">
<title>Node19</title>
<g id="a_node19"><a xlink:href="sm_8h.html" target="_top" xlink:title="State machines.">
<polygon fill="white" stroke="black" points="262.5,-336.5 262.5,-355.5 303.5,-355.5 303.5,-336.5 262.5,-336.5"/>
<text text-anchor="middle" x="283" y="-343.5" font-family="Helvetica,sans-Serif" font-size="10.00">sm.h</text>
</a>
</g>
</g>
<!-- Node6&#45;&gt;Node19 -->
<g id="edge30" class="edge">
<title>Node6&#45;&gt;Node19</title>
<path fill="none" stroke="midnightblue" d="M523.52,-448.37C477.59,-429.01 366.2,-382.06 312.68,-359.51"/>
<polygon fill="midnightblue" stroke="midnightblue" points="313.96,-356.25 303.39,-355.59 311.24,-362.7 313.96,-356.25"/>
</g>
<!-- Node9 -->
<g id="node9" class="node">
<title>Node9</title>
<g id="a_node9"><a xlink:href="so_8h.html" target="_top" xlink:title="Scene objects.">
<polygon fill="white" stroke="black" points="556.5,-336.5 556.5,-355.5 593.5,-355.5 593.5,-336.5 556.5,-336.5"/>
<text text-anchor="middle" x="575" y="-343.5" font-family="Helvetica,sans-Serif" font-size="10.00">so.h</text>
</a>
</g>
</g>
<!-- Node8&#45;&gt;Node9 -->
<g id="edge9" class="edge">
<title>Node8&#45;&gt;Node9</title>
<path fill="none" stroke="midnightblue" d="M575,-392.08C575,-385.01 575,-374.86 575,-365.99"/>
<polygon fill="midnightblue" stroke="midnightblue" points="578.5,-365.75 575,-355.75 571.5,-365.75 578.5,-365.75"/>
</g>
<!-- Node9&#45;&gt;Node10 -->
<g id="edge10" class="edge">
<title>Node9&#45;&gt;Node10</title>
<path fill="none" stroke="midnightblue" d="M575,-336.08C575,-329.01 575,-318.86 575,-309.99"/>
<polygon fill="midnightblue" stroke="midnightblue" points="578.5,-309.75 575,-299.75 571.5,-309.75 578.5,-309.75"/>
</g>
<!-- Node10&#45;&gt;Node2 -->
<g id="edge11" class="edge">
<title>Node10&#45;&gt;Node2</title>
<path fill="none" stroke="midnightblue" d="M577.73,-280.35C586.25,-251.49 608.99,-157.71 561,-112 532.41,-84.77 420.9,-73.57 357.58,-69.33"/>
<polygon fill="midnightblue" stroke="midnightblue" points="357.67,-65.83 347.47,-68.68 357.23,-72.81 357.67,-65.83"/>
</g>
<!-- Node11 -->
<g id="node11" class="node">
<title>Node11</title>
<g id="a_node11"><a xlink:href="lo_8h.html" target="_top" xlink:title="Level objects.">
<polygon fill="white" stroke="black" points="375.5,-224.5 375.5,-243.5 410.5,-243.5 410.5,-224.5 375.5,-224.5"/>
<text text-anchor="middle" x="393" y="-231.5" font-family="Helvetica,sans-Serif" font-size="10.00">lo.h</text>
</a>
</g>
</g>
<!-- Node10&#45;&gt;Node11 -->
<g id="edge12" class="edge">
<title>Node10&#45;&gt;Node11</title>
<path fill="none" stroke="midnightblue" d="M554.48,-282.91C521.73,-273.19 457.62,-254.17 420.79,-243.25"/>
<polygon fill="midnightblue" stroke="midnightblue" points="421.32,-239.75 410.74,-240.26 419.33,-246.46 421.32,-239.75"/>
</g>
<!-- Node15 -->
<g id="node15" class="node">
<title>Node15</title>
<g id="a_node15"><a xlink:href="dl_8h.html" target="_top" xlink:title=" ">
<polygon fill="white" stroke="black" points="530.5,-168.5 530.5,-187.5 565.5,-187.5 565.5,-168.5 530.5,-168.5"/>
<text text-anchor="middle" x="548" y="-175.5" font-family="Helvetica,sans-Serif" font-size="10.00">dl.h</text>
</a>
</g>
</g>
<!-- Node10&#45;&gt;Node15 -->
<g id="edge29" class="edge">
<title>Node10&#45;&gt;Node15</title>
<path fill="none" stroke="midnightblue" d="M572.88,-280.37C568.52,-262.62 558.47,-221.67 552.56,-197.6"/>
<polygon fill="midnightblue" stroke="midnightblue" points="555.89,-196.47 550.11,-187.59 549.09,-198.14 555.89,-196.47"/>
</g>
<!-- Node11&#45;&gt;Node2 -->
<g id="edge13" class="edge">
<title>Node11&#45;&gt;Node2</title>
<path fill="none" stroke="midnightblue" d="M402.24,-224.44C423.49,-203.71 472.01,-149.75 445,-112 425.21,-84.35 387.41,-73.49 357.31,-69.33"/>
<polygon fill="midnightblue" stroke="midnightblue" points="357.37,-65.81 347.03,-68.12 356.55,-72.76 357.37,-65.81"/>
</g>
<!-- Node12 -->
<g id="node12" class="node">
<title>Node12</title>
<g id="a_node12"><a xlink:href="oid_8h.html" target="_top" xlink:title="Object IDs.">
<polygon fill="white" stroke="black" points="492.5,-112.5 492.5,-131.5 533.5,-131.5 533.5,-112.5 492.5,-112.5"/>
<text text-anchor="middle" x="513" y="-119.5" font-family="Helvetica,sans-Serif" font-size="10.00">oid.h</text>
</a>
</g>
</g>
<!-- Node11&#45;&gt;Node12 -->
<g id="edge14" class="edge">
<title>Node11&#45;&gt;Node12</title>
<path fill="none" stroke="midnightblue" d="M410.51,-227.22C429.15,-220.34 458.57,-207.29 478,-188 491.33,-174.76 500.88,-155.36 506.6,-141.21"/>
<polygon fill="midnightblue" stroke="midnightblue" points="509.97,-142.18 510.22,-131.59 503.42,-139.71 509.97,-142.18"/>
</g>
<!-- Node13 -->
<g id="node13" class="node">
<title>Node13</title>
<g id="a_node13"><a xlink:href="basic_8h.html" target="_top" xlink:title="Basic object.">
<polygon fill="white" stroke="black" points="249.5,-168.5 249.5,-187.5 300.5,-187.5 300.5,-168.5 249.5,-168.5"/>
<text text-anchor="middle" x="275" y="-175.5" font-family="Helvetica,sans-Serif" font-size="10.00">basic.h</text>
</a>
</g>
</g>
<!-- Node11&#45;&gt;Node13 -->
<g id="edge16" class="edge">
<title>Node11&#45;&gt;Node13</title>
<path fill="none" stroke="midnightblue" d="M375.33,-224.92C356.29,-216.2 325.71,-202.2 303.3,-191.95"/>
<polygon fill="midnightblue" stroke="midnightblue" points="304.51,-188.66 293.96,-187.68 301.6,-195.02 304.51,-188.66"/>
</g>
<!-- Node11&#45;&gt;Node15 -->
<g id="edge20" class="edge">
<title>Node11&#45;&gt;Node15</title>
<path fill="none" stroke="midnightblue" d="M410.78,-226.81C437.76,-217.41 489.24,-199.47 520.9,-188.44"/>
<polygon fill="midnightblue" stroke="midnightblue" points="522.14,-191.72 530.43,-185.12 519.83,-185.11 522.14,-191.72"/>
</g>
<!-- Node16 -->
<g id="node16" class="node">
<title>Node16</title>
<g id="a_node16"><a xlink:href="sw_8h.html" target="_top" xlink:title="Scene world?">
<polygon fill="white" stroke="black" points="294,-112.5 294,-131.5 332,-131.5 332,-112.5 294,-112.5"/>
<text text-anchor="middle" x="313" y="-119.5" font-family="Helvetica,sans-Serif" font-size="10.00">sw.h</text>
</a>
</g>
</g>
<!-- Node11&#45;&gt;Node16 -->
<g id="edge23" class="edge">
<title>Node11&#45;&gt;Node16</title>
<path fill="none" stroke="midnightblue" d="M386.72,-224.37C373.52,-206.22 342.67,-163.8 325.36,-139.99"/>
<polygon fill="midnightblue" stroke="midnightblue" points="327.96,-137.62 319.25,-131.59 322.3,-141.74 327.96,-137.62"/>
</g>
<!-- Node17 -->
<g id="node17" class="node">
<title>Node17</title>
<g id="a_node17"><a xlink:href="frame_8h.html" target="_top" xlink:title=" ">
<polygon fill="white" stroke="black" points="350,-112.5 350,-131.5 436,-131.5 436,-112.5 350,-112.5"/>
<text text-anchor="middle" x="393" y="-119.5" font-family="Helvetica,sans-Serif" font-size="10.00">splice/frame.h</text>
</a>
</g>
</g>
<!-- Node11&#45;&gt;Node17 -->
<g id="edge25" class="edge">
<title>Node11&#45;&gt;Node17</title>
<path fill="none" stroke="midnightblue" d="M393,-224.37C393,-206.62 393,-165.67 393,-141.6"/>
<polygon fill="midnightblue" stroke="midnightblue" points="396.5,-141.59 393,-131.59 389.5,-141.59 396.5,-141.59"/>
</g>
<!-- Node18 -->
<g id="node18" class="node">
<title>Node18</title>
<g id="a_node18"><a xlink:href="mq_8h.html" target="_top" xlink:title="Message queue(?).">
<polygon fill="white" stroke="black" points="190.5,-168.5 190.5,-187.5 231.5,-187.5 231.5,-168.5 190.5,-168.5"/>
<text text-anchor="middle" x="211" y="-175.5" font-family="Helvetica,sans-Serif" font-size="10.00">mq.h</text>
</a>
</g>
</g>
<!-- Node11&#45;&gt;Node18 -->
<g id="edge27" class="edge">
<title>Node11&#45;&gt;Node18</title>
<path fill="none" stroke="midnightblue" d="M375.07,-227.82C348.09,-220.01 295.21,-204.61 241.3,-188.36"/>
<polygon fill="midnightblue" stroke="midnightblue" points="242.17,-184.97 231.58,-185.43 240.14,-191.67 242.17,-184.97"/>
</g>
<!-- Node12&#45;&gt;Node2 -->
<g id="edge15" class="edge">
<title>Node12&#45;&gt;Node2</title>
<path fill="none" stroke="midnightblue" d="M492.35,-115.42C459.92,-106.67 396.41,-89.52 354.34,-78.16"/>
<polygon fill="midnightblue" stroke="midnightblue" points="355.22,-74.78 344.66,-75.55 353.4,-81.53 355.22,-74.78"/>
</g>
<!-- Node13&#45;&gt;Node2 -->
<g id="edge17" class="edge">
<title>Node13&#45;&gt;Node2</title>
<path fill="none" stroke="midnightblue" d="M275.23,-168.31C275.82,-155.58 277.86,-131.27 285,-112 288.67,-102.09 294.68,-92.02 300.19,-83.93"/>
<polygon fill="midnightblue" stroke="midnightblue" points="303.08,-85.91 306.05,-75.74 297.38,-81.83 303.08,-85.91"/>
</g>
<!-- Node14 -->
<g id="node14" class="node">
<title>Node14</title>
<g id="a_node14"><a xlink:href="sidebag_8h.html" target="_top" xlink:title="Sidebag for splice.">
<polygon fill="white" stroke="black" points="142.5,-112.5 142.5,-131.5 237.5,-131.5 237.5,-112.5 142.5,-112.5"/>
<text text-anchor="middle" x="190" y="-119.5" font-family="Helvetica,sans-Serif" font-size="10.00">splice/sidebag.h</text>
</a>
</g>
</g>
<!-- Node13&#45;&gt;Node14 -->
<g id="edge18" class="edge">
<title>Node13&#45;&gt;Node14</title>
<path fill="none" stroke="midnightblue" d="M261.34,-168.32C248.08,-159.9 227.73,-146.97 212.15,-137.07"/>
<polygon fill="midnightblue" stroke="midnightblue" points="213.94,-134.06 203.62,-131.65 210.19,-139.97 213.94,-134.06"/>
</g>
<!-- Node14&#45;&gt;Node2 -->
<g id="edge19" class="edge">
<title>Node14&#45;&gt;Node2</title>
<path fill="none" stroke="midnightblue" d="M209.49,-112.44C229.64,-103.6 261.32,-89.69 284.33,-79.59"/>
<polygon fill="midnightblue" stroke="midnightblue" points="285.85,-82.74 293.6,-75.52 283.04,-76.33 285.85,-82.74"/>
</g>
<!-- Node15&#45;&gt;Node2 -->
<g id="edge21" class="edge">
<title>Node15&#45;&gt;Node2</title>
<path fill="none" stroke="midnightblue" d="M550.16,-168.14C552.96,-154.28 555.97,-127.48 542,-112 517.86,-85.26 416.76,-73.96 357.27,-69.55"/>
<polygon fill="midnightblue" stroke="midnightblue" points="357.25,-66.04 347.03,-68.82 356.76,-73.02 357.25,-66.04"/>
</g>
<!-- Node15&#45;&gt;Node12 -->
<g id="edge22" class="edge">
<title>Node15&#45;&gt;Node12</title>
<path fill="none" stroke="midnightblue" d="M542.22,-168.08C537.33,-160.53 530.17,-149.49 524.17,-140.23"/>
<polygon fill="midnightblue" stroke="midnightblue" points="527.05,-138.24 518.67,-131.75 521.17,-142.05 527.05,-138.24"/>
</g>
<!-- Node16&#45;&gt;Node2 -->
<g id="edge24" class="edge">
<title>Node16&#45;&gt;Node2</title>
<path fill="none" stroke="midnightblue" d="M313,-112.08C313,-105.01 313,-94.86 313,-85.99"/>
<polygon fill="midnightblue" stroke="midnightblue" points="316.5,-85.75 313,-75.75 309.5,-85.75 316.5,-85.75"/>
</g>
<!-- Node17&#45;&gt;Node2 -->
<g id="edge26" class="edge">
<title>Node17&#45;&gt;Node2</title>
<path fill="none" stroke="midnightblue" d="M380.15,-112.32C367.78,-103.98 348.87,-91.21 334.26,-81.35"/>
<polygon fill="midnightblue" stroke="midnightblue" points="336.07,-78.35 325.82,-75.65 332.15,-84.15 336.07,-78.35"/>
</g>
<!-- Node18&#45;&gt;Node2 -->
<g id="edge28" class="edge">
<title>Node18&#45;&gt;Node2</title>
<path fill="none" stroke="midnightblue" d="M190.27,-170.18C161.01,-159.47 113.26,-137.29 133,-112 149.53,-90.83 220.91,-78.15 268.66,-71.87"/>
<polygon fill="midnightblue" stroke="midnightblue" points="269.28,-75.32 278.76,-70.6 268.4,-68.38 269.28,-75.32"/>
</g>
<!-- Node19&#45;&gt;Node2 -->
<g id="edge31" class="edge">
<title>Node19&#45;&gt;Node2</title>
<path fill="none" stroke="midnightblue" d="M262.11,-345.11C202.86,-344.21 38,-332.91 38,-235 38,-235 38,-235 38,-177 38,-133.56 72.33,-131.8 111,-112 161.37,-86.2 226.23,-75.11 268.68,-70.4"/>
<polygon fill="midnightblue" stroke="midnightblue" points="269.11,-73.87 278.7,-69.36 268.39,-66.91 269.11,-73.87"/>
</g>
<!-- Node19&#45;&gt;Node15 -->
<g id="edge32" class="edge">
<title>Node19&#45;&gt;Node15</title>
<path fill="none" stroke="midnightblue" d="M296.87,-336.31C340.07,-309.25 472.45,-226.32 525.59,-193.04"/>
<polygon fill="midnightblue" stroke="midnightblue" points="527.65,-195.88 534.26,-187.61 523.93,-189.95 527.65,-195.88"/>
</g>
<!-- Node19&#45;&gt;Node18 -->
<g id="edge36" class="edge">
<title>Node19&#45;&gt;Node18</title>
<path fill="none" stroke="midnightblue" d="M281.07,-336.4C278.1,-323.79 271.92,-299.62 264,-280 251.69,-249.53 233.07,-216.12 221.49,-196.38"/>
<polygon fill="midnightblue" stroke="midnightblue" points="224.41,-194.44 216.29,-187.63 218.39,-198.02 224.41,-194.44"/>
</g>
<!-- Node20 -->
<g id="node20" class="node">
<title>Node20</title>
<g id="a_node20"><a xlink:href="anim_8h.html" target="_top" xlink:title="Animation.">
<polygon fill="white" stroke="black" points="205,-280.5 205,-299.5 255,-299.5 255,-280.5 205,-280.5"/>
<text text-anchor="middle" x="230" y="-287.5" font-family="Helvetica,sans-Serif" font-size="10.00">anim.h</text>
</a>
</g>
</g>
<!-- Node19&#45;&gt;Node20 -->
<g id="edge33" class="edge">
<title>Node19&#45;&gt;Node20</title>
<path fill="none" stroke="midnightblue" d="M274.25,-336.08C266.53,-328.22 255.1,-316.57 245.78,-307.08"/>
<polygon fill="midnightblue" stroke="midnightblue" points="248.09,-304.44 238.59,-299.75 243.1,-309.34 248.09,-304.44"/>
</g>
<!-- Node20&#45;&gt;Node2 -->
<g id="edge34" class="edge">
<title>Node20&#45;&gt;Node2</title>
<path fill="none" stroke="midnightblue" d="M217.6,-280.38C180.88,-253.83 78.09,-171.47 125,-112 142.56,-89.74 218.85,-77.26 268.69,-71.35"/>
<polygon fill="midnightblue" stroke="midnightblue" points="269.35,-74.79 278.89,-70.18 268.56,-67.84 269.35,-74.79"/>
</g>
<!-- Node20&#45;&gt;Node11 -->
<g id="edge35" class="edge">
<title>Node20&#45;&gt;Node11</title>
<path fill="none" stroke="midnightblue" d="M255.11,-280.68C284.96,-270.79 334.59,-254.35 365.47,-244.12"/>
<polygon fill="midnightblue" stroke="midnightblue" points="366.77,-247.38 375.16,-240.91 364.57,-240.73 366.77,-247.38"/>
</g>
</g>
</svg>
