<?xml version="1.0" encoding="UTF-8" standalone="no"?>
<!DOCTYPE svg PUBLIC "-//W3C//DTD SVG 1.1//EN"
 "http://www.w3.org/Graphics/SVG/1.1/DTD/svg11.dtd">
<!-- Generated by graphviz version 2.43.0 (0)
 -->
<!-- Title: include/sound.h Pages: 1 -->
<svg width="571pt" height="532pt"
 viewBox="0.00 0.00 570.92 532.00" xmlns="http://www.w3.org/2000/svg" xmlns:xlink="http://www.w3.org/1999/xlink">
<g id="graph0" class="graph" transform="scale(1 1) rotate(0) translate(4 528)">
<title>include/sound.h</title>
<polygon fill="white" stroke="transparent" points="-4,4 -4,-528 566.92,-528 566.92,4 -4,4"/>
<!-- Node1 -->
<g id="node1" class="node">
<title>Node1</title>
<g id="a_node1"><a xlink:title="Sound playback.">
<polygon fill="#bfbfbf" stroke="black" points="353.42,-504.5 353.42,-523.5 446.42,-523.5 446.42,-504.5 353.42,-504.5"/>
<text text-anchor="middle" x="399.92" y="-511.5" font-family="Helvetica,sans-Serif" font-size="10.00">include/sound.h</text>
</a>
</g>
</g>
<!-- Node2 -->
<g id="node2" class="node">
<title>Node2</title>
<g id="a_node2"><a xlink:href="common_8h.html" target="_top" xlink:title="Common header file.">
<polygon fill="white" stroke="black" points="283.92,-56.5 283.92,-75.5 351.92,-75.5 351.92,-56.5 283.92,-56.5"/>
<text text-anchor="middle" x="317.92" y="-63.5" font-family="Helvetica,sans-Serif" font-size="10.00">common.h</text>
</a>
</g>
</g>
<!-- Node1&#45;&gt;Node2 -->
<g id="edge1" class="edge">
<title>Node1&#45;&gt;Node2</title>
<path fill="none" stroke="midnightblue" d="M353.36,-510.01C248.11,-501.97 0.92,-475.39 0.92,-403 0.92,-403 0.92,-403 0.92,-177 0.92,-146.9 -2.75,-131.8 19.92,-112 56.91,-79.68 199.95,-70.56 273.57,-68"/>
<polygon fill="midnightblue" stroke="midnightblue" points="274.03,-71.49 283.91,-67.67 273.8,-64.49 274.03,-71.49"/>
</g>
<!-- Node6 -->
<g id="node6" class="node">
<title>Node6</title>
<g id="a_node6"><a xlink:href="util_8h.html" target="_top" xlink:title="Utility functions.">
<polygon fill="white" stroke="black" points="460.42,-448.5 460.42,-467.5 501.42,-467.5 501.42,-448.5 460.42,-448.5"/>
<text text-anchor="middle" x="480.92" y="-455.5" font-family="Helvetica,sans-Serif" font-size="10.00">util.h</text>
</a>
</g>
</g>
<!-- Node1&#45;&gt;Node6 -->
<g id="edge5" class="edge">
<title>Node1&#45;&gt;Node6</title>
<path fill="none" stroke="midnightblue" d="M412.93,-504.32C425.45,-495.98 444.6,-483.21 459.39,-473.35"/>
<polygon fill="midnightblue" stroke="midnightblue" points="461.56,-476.11 467.93,-467.65 457.67,-470.29 461.56,-476.11"/>
</g>
<!-- Node10 -->
<g id="node10" class="node">
<title>Node10</title>
<g id="a_node10"><a xlink:href="alo_8h.html" target="_top" xlink:title=" ">
<polygon fill="white" stroke="black" points="429.42,-280.5 429.42,-299.5 470.42,-299.5 470.42,-280.5 429.42,-280.5"/>
<text text-anchor="middle" x="449.92" y="-287.5" font-family="Helvetica,sans-Serif" font-size="10.00">alo.h</text>
</a>
</g>
</g>
<!-- Node1&#45;&gt;Node10 -->
<g id="edge30" class="edge">
<title>Node1&#45;&gt;Node10</title>
<path fill="none" stroke="midnightblue" d="M399.81,-504.24C399.74,-477.95 401.43,-397.75 422.92,-336 426.32,-326.23 432.01,-316.27 437.3,-308.22"/>
<polygon fill="midnightblue" stroke="midnightblue" points="440.34,-309.97 443.15,-299.76 434.58,-305.99 440.34,-309.97"/>
</g>
<!-- Node3 -->
<g id="node3" class="node">
<title>Node3</title>
<g id="a_node3"><a xlink:href="include__asm_8h.html" target="_top" xlink:title=" ">
<polygon fill="white" stroke="black" points="163.42,-0.5 163.42,-19.5 250.42,-19.5 250.42,-0.5 163.42,-0.5"/>
<text text-anchor="middle" x="206.92" y="-7.5" font-family="Helvetica,sans-Serif" font-size="10.00">include_asm.h</text>
</a>
</g>
</g>
<!-- Node2&#45;&gt;Node3 -->
<g id="edge2" class="edge">
<title>Node2&#45;&gt;Node3</title>
<path fill="none" stroke="midnightblue" d="M300.08,-56.32C282.2,-47.62 254.44,-34.12 233.87,-24.11"/>
<polygon fill="midnightblue" stroke="midnightblue" points="235.23,-20.88 224.71,-19.65 232.17,-27.18 235.23,-20.88"/>
</g>
<!-- Node4 -->
<g id="node4" class="node">
<title>Node4</title>
<g id="a_node4"><a xlink:href="include__rodata_8h.html" target="_top" xlink:title=" ">
<polygon fill="white" stroke="black" points="268.92,-0.5 268.92,-19.5 366.92,-19.5 366.92,-0.5 268.92,-0.5"/>
<text text-anchor="middle" x="317.92" y="-7.5" font-family="Helvetica,sans-Serif" font-size="10.00">include_rodata.h</text>
</a>
</g>
</g>
<!-- Node2&#45;&gt;Node4 -->
<g id="edge3" class="edge">
<title>Node2&#45;&gt;Node4</title>
<path fill="none" stroke="midnightblue" d="M317.92,-56.08C317.92,-49.01 317.92,-38.86 317.92,-29.99"/>
<polygon fill="midnightblue" stroke="midnightblue" points="321.42,-29.75 317.92,-19.75 314.42,-29.75 321.42,-29.75"/>
</g>
<!-- Node5 -->
<g id="node5" class="node">
<title>Node5</title>
<g id="a_node5"><a xlink:href="types_8h.html" target="_top" xlink:title="Types used throughout the engine.">
<polygon fill="white" stroke="black" points="385.42,-0.5 385.42,-19.5 438.42,-19.5 438.42,-0.5 385.42,-0.5"/>
<text text-anchor="middle" x="411.92" y="-7.5" font-family="Helvetica,sans-Serif" font-size="10.00">types.h</text>
</a>
</g>
</g>
<!-- Node2&#45;&gt;Node5 -->
<g id="edge4" class="edge">
<title>Node2&#45;&gt;Node5</title>
<path fill="none" stroke="midnightblue" d="M333.02,-56.32C347.82,-47.82 370.61,-34.73 387.9,-24.8"/>
<polygon fill="midnightblue" stroke="midnightblue" points="389.92,-27.67 396.85,-19.65 386.44,-21.6 389.92,-27.67"/>
</g>
<!-- Node6&#45;&gt;Node2 -->
<g id="edge6" class="edge">
<title>Node6&#45;&gt;Node2</title>
<path fill="none" stroke="midnightblue" d="M498.94,-448.39C513.14,-440.73 532.4,-428.22 543.92,-412 561.34,-387.46 562.92,-377.1 562.92,-347 562.92,-347 562.92,-347 562.92,-177 562.92,-90.08 432.98,-71.42 362.36,-67.7"/>
<polygon fill="midnightblue" stroke="midnightblue" points="362.13,-64.18 351.98,-67.24 361.82,-71.18 362.13,-64.18"/>
</g>
<!-- Node7 -->
<g id="node7" class="node">
<title>Node7</title>
<g id="a_node7"><a xlink:href="mat_8h.html" target="_top" xlink:title="3x3 and 4x4 matrix types.">
<polygon fill="white" stroke="black" points="489.42,-392.5 489.42,-411.5 534.42,-411.5 534.42,-392.5 489.42,-392.5"/>
<text text-anchor="middle" x="511.92" y="-399.5" font-family="Helvetica,sans-Serif" font-size="10.00">mat.h</text>
</a>
</g>
</g>
<!-- Node6&#45;&gt;Node7 -->
<g id="edge7" class="edge">
<title>Node6&#45;&gt;Node7</title>
<path fill="none" stroke="midnightblue" d="M486.04,-448.08C490.32,-440.61 496.57,-429.72 501.86,-420.52"/>
<polygon fill="midnightblue" stroke="midnightblue" points="504.95,-422.17 506.89,-411.75 498.88,-418.68 504.95,-422.17"/>
</g>
<!-- Node8 -->
<g id="node8" class="node">
<title>Node8</title>
<g id="a_node8"><a xlink:href="vec_8h.html" target="_top" xlink:title="Vector math functions.">
<polygon fill="white" stroke="black" points="428.42,-392.5 428.42,-411.5 471.42,-411.5 471.42,-392.5 428.42,-392.5"/>
<text text-anchor="middle" x="449.92" y="-399.5" font-family="Helvetica,sans-Serif" font-size="10.00">vec.h</text>
</a>
</g>
</g>
<!-- Node6&#45;&gt;Node8 -->
<g id="edge8" class="edge">
<title>Node6&#45;&gt;Node8</title>
<path fill="none" stroke="midnightblue" d="M475.8,-448.08C471.51,-440.61 465.26,-429.72 459.97,-420.52"/>
<polygon fill="midnightblue" stroke="midnightblue" points="462.95,-418.68 454.94,-411.75 456.88,-422.17 462.95,-418.68"/>
</g>
<!-- Node9 -->
<g id="node9" class="node">
<title>Node9</title>
<g id="a_node9"><a xlink:href="so_8h.html" target="_top" xlink:title="Scene objects.">
<polygon fill="white" stroke="black" points="431.42,-336.5 431.42,-355.5 468.42,-355.5 468.42,-336.5 431.42,-336.5"/>
<text text-anchor="middle" x="449.92" y="-343.5" font-family="Helvetica,sans-Serif" font-size="10.00">so.h</text>
</a>
</g>
</g>
<!-- Node8&#45;&gt;Node9 -->
<g id="edge9" class="edge">
<title>Node8&#45;&gt;Node9</title>
<path fill="none" stroke="midnightblue" d="M449.92,-392.08C449.92,-385.01 449.92,-374.86 449.92,-365.99"/>
<polygon fill="midnightblue" stroke="midnightblue" points="453.42,-365.75 449.92,-355.75 446.42,-365.75 453.42,-365.75"/>
</g>
<!-- Node9&#45;&gt;Node10 -->
<g id="edge10" class="edge">
<title>Node9&#45;&gt;Node10</title>
<path fill="none" stroke="midnightblue" d="M449.92,-336.08C449.92,-329.01 449.92,-318.86 449.92,-309.99"/>
<polygon fill="midnightblue" stroke="midnightblue" points="453.42,-309.75 449.92,-299.75 446.42,-309.75 453.42,-309.75"/>
</g>
<!-- Node10&#45;&gt;Node2 -->
<g id="edge11" class="edge">
<title>Node10&#45;&gt;Node2</title>
<path fill="none" stroke="midnightblue" d="M455.98,-280.11C474.3,-252.07 525.35,-164.2 483.92,-112 468.84,-93 406.03,-79.99 362.16,-73.02"/>
<polygon fill="midnightblue" stroke="midnightblue" points="362.42,-69.52 352,-71.46 361.36,-76.44 362.42,-69.52"/>
</g>
<!-- Node11 -->
<g id="node11" class="node">
<title>Node11</title>
<g id="a_node11"><a xlink:href="lo_8h.html" target="_top" xlink:title="Level objects.">
<polygon fill="white" stroke="black" points="321.42,-224.5 321.42,-243.5 356.42,-243.5 356.42,-224.5 321.42,-224.5"/>
<text text-anchor="middle" x="338.92" y="-231.5" font-family="Helvetica,sans-Serif" font-size="10.00">lo.h</text>
</a>
</g>
</g>
<!-- Node10&#45;&gt;Node11 -->
<g id="edge12" class="edge">
<title>Node10&#45;&gt;Node11</title>
<path fill="none" stroke="midnightblue" d="M432.08,-280.32C414.2,-271.62 386.44,-258.12 365.87,-248.11"/>
<polygon fill="midnightblue" stroke="midnightblue" points="367.23,-244.88 356.71,-243.65 364.17,-251.18 367.23,-244.88"/>
</g>
<!-- Node15 -->
<g id="node15" class="node">
<title>Node15</title>
<g id="a_node15"><a xlink:href="dl_8h.html" target="_top" xlink:title=" ">
<polygon fill="white" stroke="black" points="441.42,-168.5 441.42,-187.5 476.42,-187.5 476.42,-168.5 441.42,-168.5"/>
<text text-anchor="middle" x="458.92" y="-175.5" font-family="Helvetica,sans-Serif" font-size="10.00">dl.h</text>
</a>
</g>
</g>
<!-- Node10&#45;&gt;Node15 -->
<g id="edge29" class="edge">
<title>Node10&#45;&gt;Node15</title>
<path fill="none" stroke="midnightblue" d="M450.62,-280.37C452.07,-262.62 455.43,-221.67 457.39,-197.6"/>
<polygon fill="midnightblue" stroke="midnightblue" points="460.89,-197.84 458.21,-187.59 453.91,-197.27 460.89,-197.84"/>
</g>
<!-- Node11&#45;&gt;Node2 -->
<g id="edge13" class="edge">
<title>Node11&#45;&gt;Node2</title>
<path fill="none" stroke="midnightblue" d="M321.2,-225.68C291.42,-212.25 232.38,-180.53 209.92,-132 195.71,-101.32 237.98,-84 273.73,-75.09"/>
<polygon fill="midnightblue" stroke="midnightblue" points="274.64,-78.47 283.59,-72.79 273.06,-71.65 274.64,-78.47"/>
</g>
<!-- Node12 -->
<g id="node12" class="node">
<title>Node12</title>
<g id="a_node12"><a xlink:href="oid_8h.html" target="_top" xlink:title="Object IDs.">
<polygon fill="white" stroke="black" points="417.42,-112.5 417.42,-131.5 458.42,-131.5 458.42,-112.5 417.42,-112.5"/>
<text text-anchor="middle" x="437.92" y="-119.5" font-family="Helvetica,sans-Serif" font-size="10.00">oid.h</text>
</a>
</g>
</g>
<!-- Node11&#45;&gt;Node12 -->
<g id="edge14" class="edge">
<title>Node11&#45;&gt;Node12</title>
<path fill="none" stroke="midnightblue" d="M351.32,-224.2C362.83,-215.69 380.07,-202.05 392.92,-188 406.48,-173.17 419.25,-154.03 427.7,-140.37"/>
<polygon fill="midnightblue" stroke="midnightblue" points="430.86,-141.9 433.04,-131.53 424.87,-138.29 430.86,-141.9"/>
</g>
<!-- Node13 -->
<g id="node13" class="node">
<title>Node13</title>
<g id="a_node13"><a xlink:href="basic_8h.html" target="_top" xlink:title="Basic object.">
<polygon fill="white" stroke="black" points="111.42,-168.5 111.42,-187.5 162.42,-187.5 162.42,-168.5 111.42,-168.5"/>
<text text-anchor="middle" x="136.92" y="-175.5" font-family="Helvetica,sans-Serif" font-size="10.00">basic.h</text>
</a>
</g>
</g>
<!-- Node11&#45;&gt;Node13 -->
<g id="edge16" class="edge">
<title>Node11&#45;&gt;Node13</title>
<path fill="none" stroke="midnightblue" d="M321.34,-228.3C288.29,-219.47 216.26,-200.21 172.64,-188.55"/>
<polygon fill="midnightblue" stroke="midnightblue" points="173.3,-185.1 162.73,-185.9 171.49,-191.87 173.3,-185.1"/>
</g>
<!-- Node11&#45;&gt;Node15 -->
<g id="edge20" class="edge">
<title>Node11&#45;&gt;Node15</title>
<path fill="none" stroke="midnightblue" d="M356.62,-225.03C376.47,-216.1 408.89,-201.51 431.91,-191.15"/>
<polygon fill="midnightblue" stroke="midnightblue" points="433.45,-194.3 441.14,-187 430.58,-187.91 433.45,-194.3"/>
</g>
<!-- Node16 -->
<g id="node16" class="node">
<title>Node16</title>
<g id="a_node16"><a xlink:href="sw_8h.html" target="_top" xlink:title="Scene world?">
<polygon fill="white" stroke="black" points="218.92,-112.5 218.92,-131.5 256.92,-131.5 256.92,-112.5 218.92,-112.5"/>
<text text-anchor="middle" x="237.92" y="-119.5" font-family="Helvetica,sans-Serif" font-size="10.00">sw.h</text>
</a>
</g>
</g>
<!-- Node11&#45;&gt;Node16 -->
<g id="edge23" class="edge">
<title>Node11&#45;&gt;Node16</title>
<path fill="none" stroke="midnightblue" d="M330.99,-224.37C314.1,-205.97 274.34,-162.67 252.65,-139.05"/>
<polygon fill="midnightblue" stroke="midnightblue" points="255.15,-136.59 245.8,-131.59 249.99,-141.32 255.15,-136.59"/>
</g>
<!-- Node17 -->
<g id="node17" class="node">
<title>Node17</title>
<g id="a_node17"><a xlink:href="frame_8h.html" target="_top" xlink:title=" ">
<polygon fill="white" stroke="black" points="274.92,-112.5 274.92,-131.5 360.92,-131.5 360.92,-112.5 274.92,-112.5"/>
<text text-anchor="middle" x="317.92" y="-119.5" font-family="Helvetica,sans-Serif" font-size="10.00">splice/frame.h</text>
</a>
</g>
</g>
<!-- Node11&#45;&gt;Node17 -->
<g id="edge25" class="edge">
<title>Node11&#45;&gt;Node17</title>
<path fill="none" stroke="midnightblue" d="M337.27,-224.37C333.88,-206.62 326.06,-165.67 321.47,-141.6"/>
<polygon fill="midnightblue" stroke="midnightblue" points="324.87,-140.76 319.56,-131.59 317.99,-142.07 324.87,-140.76"/>
</g>
<!-- Node18 -->
<g id="node18" class="node">
<title>Node18</title>
<g id="a_node18"><a xlink:href="mq_8h.html" target="_top" xlink:title="Message queue(?).">
<polygon fill="white" stroke="black" points="343.42,-168.5 343.42,-187.5 384.42,-187.5 384.42,-168.5 343.42,-168.5"/>
<text text-anchor="middle" x="363.92" y="-175.5" font-family="Helvetica,sans-Serif" font-size="10.00">mq.h</text>
</a>
</g>
</g>
<!-- Node11&#45;&gt;Node18 -->
<g id="edge27" class="edge">
<title>Node11&#45;&gt;Node18</title>
<path fill="none" stroke="midnightblue" d="M343.04,-224.08C346.43,-216.77 351.33,-206.18 355.53,-197.1"/>
<polygon fill="midnightblue" stroke="midnightblue" points="358.84,-198.3 359.86,-187.75 352.49,-195.36 358.84,-198.3"/>
</g>
<!-- Node12&#45;&gt;Node2 -->
<g id="edge15" class="edge">
<title>Node12&#45;&gt;Node2</title>
<path fill="none" stroke="midnightblue" d="M418.9,-112.44C399.33,-103.64 368.61,-89.81 346.19,-79.72"/>
<polygon fill="midnightblue" stroke="midnightblue" points="347.4,-76.43 336.84,-75.52 344.52,-82.81 347.4,-76.43"/>
</g>
<!-- Node13&#45;&gt;Node2 -->
<g id="edge17" class="edge">
<title>Node13&#45;&gt;Node2</title>
<path fill="none" stroke="midnightblue" d="M139.9,-168.48C145.19,-154.62 157.51,-127.19 176.92,-112 204.88,-90.11 243.75,-78.74 273.59,-72.91"/>
<polygon fill="midnightblue" stroke="midnightblue" points="274.53,-76.3 283.74,-71.07 273.28,-69.41 274.53,-76.3"/>
</g>
<!-- Node14 -->
<g id="node14" class="node">
<title>Node14</title>
<g id="a_node14"><a xlink:href="sidebag_8h.html" target="_top" xlink:title="Sidebag for splice.">
<polygon fill="white" stroke="black" points="29.42,-112.5 29.42,-131.5 124.42,-131.5 124.42,-112.5 29.42,-112.5"/>
<text text-anchor="middle" x="76.92" y="-119.5" font-family="Helvetica,sans-Serif" font-size="10.00">splice/sidebag.h</text>
</a>
</g>
</g>
<!-- Node13&#45;&gt;Node14 -->
<g id="edge18" class="edge">
<title>Node13&#45;&gt;Node14</title>
<path fill="none" stroke="midnightblue" d="M127.28,-168.32C118.41,-160.34 105.04,-148.31 94.31,-138.65"/>
<polygon fill="midnightblue" stroke="midnightblue" points="96.51,-135.92 86.73,-131.83 91.82,-141.13 96.51,-135.92"/>
</g>
<!-- Node14&#45;&gt;Node2 -->
<g id="edge19" class="edge">
<title>Node14&#45;&gt;Node2</title>
<path fill="none" stroke="midnightblue" d="M115.1,-112.44C158.29,-102.77 228.5,-87.04 273.94,-76.85"/>
<polygon fill="midnightblue" stroke="midnightblue" points="274.81,-80.25 283.8,-74.64 273.28,-73.41 274.81,-80.25"/>
</g>
<!-- Node15&#45;&gt;Node2 -->
<g id="edge21" class="edge">
<title>Node15&#45;&gt;Node2</title>
<path fill="none" stroke="midnightblue" d="M463.62,-168.46C470.31,-155.04 480.43,-128.82 467.92,-112 443.87,-79.68 397.41,-69.7 362.53,-67.02"/>
<polygon fill="midnightblue" stroke="midnightblue" points="362.31,-63.5 352.12,-66.41 361.9,-70.49 362.31,-63.5"/>
</g>
<!-- Node15&#45;&gt;Node12 -->
<g id="edge22" class="edge">
<title>Node15&#45;&gt;Node12</title>
<path fill="none" stroke="midnightblue" d="M455.45,-168.08C452.6,-160.77 448.49,-150.18 444.96,-141.1"/>
<polygon fill="midnightblue" stroke="midnightblue" points="448.21,-139.8 441.32,-131.75 441.68,-142.34 448.21,-139.8"/>
</g>
<!-- Node16&#45;&gt;Node2 -->
<g id="edge24" class="edge">
<title>Node16&#45;&gt;Node2</title>
<path fill="none" stroke="midnightblue" d="M250.77,-112.32C263.13,-103.98 282.05,-91.21 296.65,-81.35"/>
<polygon fill="midnightblue" stroke="midnightblue" points="298.76,-84.15 305.09,-75.65 294.85,-78.35 298.76,-84.15"/>
</g>
<!-- Node17&#45;&gt;Node2 -->
<g id="edge26" class="edge">
<title>Node17&#45;&gt;Node2</title>
<path fill="none" stroke="midnightblue" d="M317.92,-112.08C317.92,-105.01 317.92,-94.86 317.92,-85.99"/>
<polygon fill="midnightblue" stroke="midnightblue" points="321.42,-85.75 317.92,-75.75 314.42,-85.75 321.42,-85.75"/>
</g>
<!-- Node18&#45;&gt;Node2 -->
<g id="edge28" class="edge">
<title>Node18&#45;&gt;Node2</title>
<path fill="none" stroke="midnightblue" d="M367.43,-168.12C371.98,-155.15 378.4,-130.55 369.92,-112 364.14,-99.36 352.86,-88.91 342.29,-81.27"/>
<polygon fill="midnightblue" stroke="midnightblue" points="343.96,-78.18 333.7,-75.53 340.07,-84 343.96,-78.18"/>
</g>
</g>
</svg>
