<?xml version="1.0" encoding="UTF-8" standalone="no"?>
<!DOCTYPE svg PUBLIC "-//W3C//DTD SVG 1.1//EN"
 "http://www.w3.org/Graphics/SVG/1.1/DTD/svg11.dtd">
<!-- Generated by graphviz version 2.43.0 (0)
 -->
<!-- Title: src/P2/splice/spliceutils.cpp Pages: 1 -->
<svg width="602pt" height="412pt"
 viewBox="0.00 0.00 602.27 412.00" xmlns="http://www.w3.org/2000/svg" xmlns:xlink="http://www.w3.org/1999/xlink">
<g id="graph0" class="graph" transform="scale(1 1) rotate(0) translate(4 408)">
<title>src/P2/splice/spliceutils.cpp</title>
<!-- Node1 -->
<g id="Node000001" class="node">
<title>Node1</title>
<g id="a_Node000001"><a xlink:title=" ">
<polygon fill="#999999" stroke="#666666" points="328.5,-404 178.5,-404 178.5,-385 328.5,-385 328.5,-404"/>
<text text-anchor="middle" x="253.5" y="-392" font-family="Helvetica,sans-Serif" font-size="10.00">src/P2/splice/spliceutils.cpp</text>
</a>
</g>
</g>
<!-- Node2 -->
<g id="Node000002" class="node">
<title>Node2</title>
<g id="a_Node000002"><a xlink:href="spliceutils_8h.html" target="_top" xlink:title="Utility functions for the splice scripting engine.">
<polygon fill="white" stroke="#666666" points="107,-349 0,-349 0,-330 107,-330 107,-349"/>
<text text-anchor="middle" x="53.5" y="-337" font-family="Helvetica,sans-Serif" font-size="10.00">splice/spliceutils.h</text>
</a>
</g>
</g>
<!-- Node1&#45;&gt;Node2 -->
<g id="edge1_Node000001_Node000002" class="edge">
<title>Node1&#45;&gt;Node2</title>
<g id="a_edge1_Node000001_Node000002"><a xlink:title=" ">
<path fill="none" stroke="#63b8ff" d="M221.37,-384.98C187.35,-375.97 133.5,-361.7 96,-351.76"/>
<polygon fill="#63b8ff" stroke="#63b8ff" points="96.45,-348.26 85.89,-349.08 94.66,-355.03 96.45,-348.26"/>
</a>
</g>
</g>
<!-- Node3 -->
<g id="Node000003" class="node">
<title>Node3</title>
<g id="a_Node000003"><a xlink:href="frame_8h.html" target="_top" xlink:title=" ">
<polygon fill="white" stroke="#666666" points="178.5,-74 92.5,-74 92.5,-55 178.5,-55 178.5,-74"/>
<text text-anchor="middle" x="135.5" y="-62" font-family="Helvetica,sans-Serif" font-size="10.00">splice/frame.h</text>
</a>
</g>
</g>
<!-- Node1&#45;&gt;Node3 -->
<g id="edge2_Node000001_Node000003" class="edge">
<title>Node1&#45;&gt;Node3</title>
<g id="a_edge2_Node000001_Node000003"><a xlink:title=" ">
<path fill="none" stroke="#63b8ff" d="M231.03,-384.92C196.79,-370.22 135.5,-336.74 135.5,-285.5 135.5,-285.5 135.5,-285.5 135.5,-173.5 135.5,-142.19 135.5,-105.77 135.5,-84.23"/>
<polygon fill="#63b8ff" stroke="#63b8ff" points="139,-84.18 135.5,-74.18 132,-84.18 139,-84.18"/>
</a>
</g>
</g>
<!-- Node4 -->
<g id="Node000004" class="node">
<title>Node4</title>
<g id="a_Node000004"><a xlink:href="gc_8h.html" target="_top" xlink:title=" ">
<polygon fill="white" stroke="#666666" points="382.5,-349 314.5,-349 314.5,-330 382.5,-330 382.5,-349"/>
<text text-anchor="middle" x="348.5" y="-337" font-family="Helvetica,sans-Serif" font-size="10.00">splice/gc.h</text>
</a>
</g>
</g>
<!-- Node1&#45;&gt;Node4 -->
<g id="edge3_Node000001_Node000004" class="edge">
<title>Node1&#45;&gt;Node4</title>
<g id="a_edge3_Node000001_Node000004"><a xlink:title=" ">
<path fill="none" stroke="#63b8ff" d="M268.76,-384.98C283.63,-376.69 306.48,-363.94 323.92,-354.22"/>
<polygon fill="#63b8ff" stroke="#63b8ff" points="325.93,-357.1 332.96,-349.17 322.52,-350.99 325.93,-357.1"/>
</a>
</g>
</g>
<!-- Node5 -->
<g id="Node000005" class="node">
<title>Node5</title>
<g id="a_Node000005"><a xlink:href="pair_8h.html" target="_top" xlink:title=" ">
<polygon fill="white" stroke="#666666" points="258,-349 183,-349 183,-330 258,-330 258,-349"/>
<text text-anchor="middle" x="220.5" y="-337" font-family="Helvetica,sans-Serif" font-size="10.00">splice/pair.h</text>
</a>
</g>
</g>
<!-- Node1&#45;&gt;Node5 -->
<g id="edge4_Node000001_Node000005" class="edge">
<title>Node1&#45;&gt;Node5</title>
<g id="a_edge4_Node000001_Node000005"><a xlink:title=" ">
<path fill="none" stroke="#63b8ff" d="M248.05,-384.75C243.49,-377.42 236.83,-366.73 231.21,-357.7"/>
<polygon fill="#63b8ff" stroke="#63b8ff" points="234.1,-355.73 225.85,-349.09 228.16,-359.43 234.1,-355.73"/>
</a>
</g>
</g>
<!-- Node20 -->
<g id="Node000020" class="node">
<title>Node20</title>
<g id="a_Node000020"><a xlink:href="splotheap_8h.html" target="_top" xlink:title=" ">
<polygon fill="white" stroke="#666666" points="506,-349 401,-349 401,-330 506,-330 506,-349"/>
<text text-anchor="middle" x="453.5" y="-337" font-family="Helvetica,sans-Serif" font-size="10.00">splice/splotheap.h</text>
</a>
</g>
</g>
<!-- Node1&#45;&gt;Node20 -->
<g id="edge25_Node000001_Node000020" class="edge">
<title>Node1&#45;&gt;Node20</title>
<g id="a_edge25_Node000001_Node000020"><a xlink:title=" ">
<path fill="none" stroke="#63b8ff" d="M285.63,-384.98C319.65,-375.97 373.5,-361.7 411,-351.76"/>
<polygon fill="#63b8ff" stroke="#63b8ff" points="412.34,-355.03 421.11,-349.08 410.55,-348.26 412.34,-355.03"/>
</a>
</g>
</g>
<!-- Node21 -->
<g id="Node000021" class="node">
<title>Node21</title>
<g id="a_Node000021"><a xlink:href="vecmat_8h.html" target="_top" xlink:title=" ">
<polygon fill="white" stroke="#666666" points="589.5,-294 495.5,-294 495.5,-275 589.5,-275 589.5,-294"/>
<text text-anchor="middle" x="542.5" y="-282" font-family="Helvetica,sans-Serif" font-size="10.00">splice/vecmat.h</text>
</a>
</g>
</g>
<!-- Node1&#45;&gt;Node21 -->
<g id="edge26_Node000001_Node000021" class="edge">
<title>Node1&#45;&gt;Node21</title>
<g id="a_edge26_Node000001_Node000021"><a xlink:title=" ">
<path fill="none" stroke="#63b8ff" d="M257.92,-384.88C265.58,-370.91 282.7,-343.52 305.5,-330 360.59,-297.34 434.46,-287.83 485,-285.45"/>
<polygon fill="#63b8ff" stroke="#63b8ff" points="485.24,-288.95 495.1,-285.06 484.97,-281.95 485.24,-288.95"/>
</a>
</g>
</g>
<!-- Node6 -->
<g id="Node000006" class="node">
<title>Node6</title>
<g id="a_Node000006"><a xlink:href="ref_8h.html" target="_top" xlink:title=" ">
<polygon fill="white" stroke="#666666" points="327.5,-294 257.5,-294 257.5,-275 327.5,-275 327.5,-294"/>
<text text-anchor="middle" x="292.5" y="-282" font-family="Helvetica,sans-Serif" font-size="10.00">splice/ref.h</text>
</a>
</g>
</g>
<!-- Node5&#45;&gt;Node6 -->
<g id="edge5_Node000005_Node000006" class="edge">
<title>Node5&#45;&gt;Node6</title>
<g id="a_edge5_Node000005_Node000006"><a xlink:title=" ">
<path fill="none" stroke="#63b8ff" d="M232.07,-329.98C242.92,-322 259.38,-309.88 272.38,-300.31"/>
<polygon fill="#63b8ff" stroke="#63b8ff" points="274.74,-302.92 280.72,-294.17 270.59,-297.28 274.74,-302.92"/>
</a>
</g>
</g>
<!-- Node7 -->
<g id="Node000007" class="node">
<title>Node7</title>
<g id="a_Node000007"><a xlink:href="proc_8h.html" target="_top" xlink:title=" ">
<polygon fill="white" stroke="#666666" points="279.5,-239 201.5,-239 201.5,-220 279.5,-220 279.5,-239"/>
<text text-anchor="middle" x="240.5" y="-227" font-family="Helvetica,sans-Serif" font-size="10.00">splice/proc.h</text>
</a>
</g>
</g>
<!-- Node6&#45;&gt;Node7 -->
<g id="edge6_Node000006_Node000007" class="edge">
<title>Node6&#45;&gt;Node7</title>
<g id="a_edge6_Node000006_Node000007"><a xlink:title=" ">
<path fill="none" stroke="#63b8ff" d="M283.91,-274.75C276.34,-267.03 265.12,-255.6 255.99,-246.28"/>
<polygon fill="#63b8ff" stroke="#63b8ff" points="258.43,-243.78 248.93,-239.09 253.43,-248.68 258.43,-243.78"/>
</a>
</g>
</g>
<!-- Node8 -->
<g id="Node000008" class="node">
<title>Node8</title>
<g id="a_Node000008"><a xlink:href="method_8h.html" target="_top" xlink:title=" ">
<polygon fill="white" stroke="#666666" points="393,-239 298,-239 298,-220 393,-220 393,-239"/>
<text text-anchor="middle" x="345.5" y="-227" font-family="Helvetica,sans-Serif" font-size="10.00">splice/method.h</text>
</a>
</g>
</g>
<!-- Node6&#45;&gt;Node8 -->
<g id="edge7_Node000006_Node000008" class="edge">
<title>Node6&#45;&gt;Node8</title>
<g id="a_edge7_Node000006_Node000008"><a xlink:title=" ">
<path fill="none" stroke="#63b8ff" d="M301.25,-274.75C308.97,-267.03 320.4,-255.6 329.72,-246.28"/>
<polygon fill="#63b8ff" stroke="#63b8ff" points="332.31,-248.64 336.91,-239.09 327.36,-243.69 332.31,-248.64"/>
</a>
</g>
</g>
<!-- Node9 -->
<g id="Node000009" class="node">
<title>Node9</title>
<g id="a_Node000009"><a xlink:href="bif_8h.html" target="_top" xlink:title=" ">
<polygon fill="white" stroke="#666666" points="480,-239 411,-239 411,-220 480,-220 480,-239"/>
<text text-anchor="middle" x="445.5" y="-227" font-family="Helvetica,sans-Serif" font-size="10.00">splice/bif.h</text>
</a>
</g>
</g>
<!-- Node6&#45;&gt;Node9 -->
<g id="edge8_Node000006_Node000009" class="edge">
<title>Node6&#45;&gt;Node9</title>
<g id="a_edge8_Node000006_Node000009"><a xlink:title=" ">
<path fill="none" stroke="#63b8ff" d="M317.08,-274.98C342.55,-266.16 382.54,-252.31 411.13,-242.41"/>
<polygon fill="#63b8ff" stroke="#63b8ff" points="412.42,-245.66 420.73,-239.08 410.13,-239.05 412.42,-245.66"/>
</a>
</g>
</g>
<!-- Node10 -->
<g id="Node000010" class="node">
<title>Node10</title>
<g id="a_Node000010"><a xlink:href="basic_8h.html" target="_top" xlink:title="Basic object.">
<polygon fill="white" stroke="#666666" points="248,-74 197,-74 197,-55 248,-55 248,-74"/>
<text text-anchor="middle" x="222.5" y="-62" font-family="Helvetica,sans-Serif" font-size="10.00">basic.h</text>
</a>
</g>
</g>
<!-- Node6&#45;&gt;Node10 -->
<g id="edge9_Node000006_Node000010" class="edge">
<title>Node6&#45;&gt;Node10</title>
<g id="a_edge9_Node000006_Node000010"><a xlink:title=" ">
<path fill="none" stroke="#63b8ff" d="M257.45,-277.87C234.73,-272.2 206.78,-260.99 192.5,-239 160.51,-189.75 193.43,-116.7 211.85,-83.32"/>
<polygon fill="#63b8ff" stroke="#63b8ff" points="215.09,-84.72 217.02,-74.3 209.01,-81.24 215.09,-84.72"/>
</a>
</g>
</g>
<!-- Node12 -->
<g id="Node000012" class="node">
<title>Node12</title>
<g id="a_Node000012"><a xlink:href="util_8h.html" target="_top" xlink:title="Utility functions.">
<polygon fill="white" stroke="#666666" points="539,-239 498,-239 498,-220 539,-220 539,-239"/>
<text text-anchor="middle" x="518.5" y="-227" font-family="Helvetica,sans-Serif" font-size="10.00">util.h</text>
</a>
</g>
</g>
<!-- Node6&#45;&gt;Node12 -->
<g id="edge11_Node000006_Node000012" class="edge">
<title>Node6&#45;&gt;Node12</title>
<g id="a_edge11_Node000006_Node000012"><a xlink:title=" ">
<path fill="none" stroke="#63b8ff" d="M327.53,-276.28C365.04,-268.4 426.51,-255.05 488.07,-239.25"/>
<polygon fill="#63b8ff" stroke="#63b8ff" points="489.14,-242.59 497.95,-236.7 487.39,-235.81 489.14,-242.59"/>
</a>
</g>
</g>
<!-- Node11 -->
<g id="Node000011" class="node">
<title>Node11</title>
<g id="a_Node000011"><a xlink:href="sidebag_8h.html" target="_top" xlink:title="Sidebag for splice.">
<polygon fill="white" stroke="#666666" points="270,-19 175,-19 175,0 270,0 270,-19"/>
<text text-anchor="middle" x="222.5" y="-7" font-family="Helvetica,sans-Serif" font-size="10.00">splice/sidebag.h</text>
</a>
</g>
</g>
<!-- Node10&#45;&gt;Node11 -->
<g id="edge10_Node000010_Node000011" class="edge">
<title>Node10&#45;&gt;Node11</title>
<g id="a_edge10_Node000010_Node000011"><a xlink:title=" ">
<path fill="none" stroke="#63b8ff" d="M222.5,-54.75C222.5,-47.8 222.5,-37.85 222.5,-29.13"/>
<polygon fill="#63b8ff" stroke="#63b8ff" points="226,-29.09 222.5,-19.09 219,-29.09 226,-29.09"/>
</a>
</g>
</g>
<!-- Node13 -->
<g id="Node000013" class="node">
<title>Node13</title>
<g id="a_Node000013"><a xlink:href="vec_8h.html" target="_top" xlink:title="Vector math.">
<polygon fill="white" stroke="#666666" points="582,-129 539,-129 539,-110 582,-110 582,-129"/>
<text text-anchor="middle" x="560.5" y="-117" font-family="Helvetica,sans-Serif" font-size="10.00">vec.h</text>
</a>
</g>
</g>
<!-- Node12&#45;&gt;Node13 -->
<g id="edge12_Node000012_Node000013" class="edge">
<title>Node12&#45;&gt;Node13</title>
<g id="a_edge12_Node000012_Node000013"><a xlink:title=" ">
<path fill="none" stroke="#63b8ff" d="M518.81,-219.96C519.52,-207.45 521.84,-183.63 529.5,-165 533.61,-155 540.27,-145.02 546.36,-137.06"/>
<polygon fill="#63b8ff" stroke="#63b8ff" points="549.29,-139 552.84,-129.02 543.84,-134.61 549.29,-139"/>
</a>
</g>
</g>
<!-- Node14 -->
<g id="Node000014" class="node">
<title>Node14</title>
<g id="a_Node000014"><a xlink:href="mat_8h.html" target="_top" xlink:title="3x3 and 4x4 matrix types.">
<polygon fill="white" stroke="#666666" points="583,-184 538,-184 538,-165 583,-165 583,-184"/>
<text text-anchor="middle" x="560.5" y="-172" font-family="Helvetica,sans-Serif" font-size="10.00">mat.h</text>
</a>
</g>
</g>
<!-- Node12&#45;&gt;Node14 -->
<g id="edge13_Node000012_Node000014" class="edge">
<title>Node12&#45;&gt;Node14</title>
<g id="a_edge13_Node000012_Node000014"><a xlink:title=" ">
<path fill="none" stroke="#63b8ff" d="M525.44,-219.75C531.37,-212.26 540.07,-201.28 547.32,-192.13"/>
<polygon fill="#63b8ff" stroke="#63b8ff" points="550.23,-194.1 553.69,-184.09 544.74,-189.75 550.23,-194.1"/>
</a>
</g>
</g>
<!-- Node15 -->
<g id="Node000015" class="node">
<title>Node15</title>
<g id="a_Node000015"><a xlink:href="sm_8h.html" target="_top" xlink:title="Probabilistic finite state machines.">
<polygon fill="white" stroke="#666666" points="369,-184 328,-184 328,-165 369,-165 369,-184"/>
<text text-anchor="middle" x="348.5" y="-172" font-family="Helvetica,sans-Serif" font-size="10.00">sm.h</text>
</a>
</g>
</g>
<!-- Node12&#45;&gt;Node15 -->
<g id="edge15_Node000012_Node000015" class="edge">
<title>Node12&#45;&gt;Node15</title>
<g id="a_edge15_Node000012_Node000015"><a xlink:title=" ">
<path fill="none" stroke="#63b8ff" d="M497.99,-222.11C468.38,-212.88 413.44,-195.75 379.04,-185.02"/>
<polygon fill="#63b8ff" stroke="#63b8ff" points="379.67,-181.55 369.08,-181.92 377.58,-188.23 379.67,-181.55"/>
</a>
</g>
</g>
<!-- Node14&#45;&gt;Node13 -->
<g id="edge14_Node000014_Node000013" class="edge">
<title>Node14&#45;&gt;Node13</title>
<g id="a_edge14_Node000014_Node000013"><a xlink:title=" ">
<path fill="none" stroke="#63b8ff" d="M560.5,-164.75C560.5,-157.8 560.5,-147.85 560.5,-139.13"/>
<polygon fill="#63b8ff" stroke="#63b8ff" points="564,-139.09 560.5,-129.09 557,-139.09 564,-139.09"/>
</a>
</g>
</g>
<!-- Node16 -->
<g id="Node000016" class="node">
<title>Node16</title>
<g id="a_Node000016"><a xlink:href="dl_8h.html" target="_top" xlink:title="Doubly&#45;linked list.">
<polygon fill="white" stroke="#666666" points="340,-74 305,-74 305,-55 340,-55 340,-74"/>
<text text-anchor="middle" x="322.5" y="-62" font-family="Helvetica,sans-Serif" font-size="10.00">dl.h</text>
</a>
</g>
</g>
<!-- Node15&#45;&gt;Node16 -->
<g id="edge16_Node000015_Node000016" class="edge">
<title>Node15&#45;&gt;Node16</title>
<g id="a_edge16_Node000015_Node000016"><a xlink:title=" ">
<path fill="none" stroke="#63b8ff" d="M346.37,-164.66C342.14,-147.09 332.6,-107.45 326.94,-83.95"/>
<polygon fill="#63b8ff" stroke="#63b8ff" points="330.33,-83.06 324.58,-74.16 323.52,-84.7 330.33,-83.06"/>
</a>
</g>
</g>
<!-- Node18 -->
<g id="Node000018" class="node">
<title>Node18</title>
<g id="a_Node000018"><a xlink:href="mq_8h.html" target="_top" xlink:title="Message queue.">
<polygon fill="white" stroke="#666666" points="399,-74 358,-74 358,-55 399,-55 399,-74"/>
<text text-anchor="middle" x="378.5" y="-62" font-family="Helvetica,sans-Serif" font-size="10.00">mq.h</text>
</a>
</g>
</g>
<!-- Node15&#45;&gt;Node18 -->
<g id="edge18_Node000015_Node000018" class="edge">
<title>Node15&#45;&gt;Node18</title>
<g id="a_edge18_Node000015_Node000018"><a xlink:title=" ">
<path fill="none" stroke="#63b8ff" d="M350.96,-164.66C355.84,-147.09 366.85,-107.45 373.37,-83.95"/>
<polygon fill="#63b8ff" stroke="#63b8ff" points="376.79,-84.73 376.09,-74.16 370.05,-82.86 376.79,-84.73"/>
</a>
</g>
</g>
<!-- Node19 -->
<g id="Node000019" class="node">
<title>Node19</title>
<g id="a_Node000019"><a xlink:href="lo_8h.html" target="_top" xlink:title="Level objects.">
<polygon fill="white" stroke="#666666" points="296,-129 261,-129 261,-110 296,-110 296,-129"/>
<text text-anchor="middle" x="278.5" y="-117" font-family="Helvetica,sans-Serif" font-size="10.00">lo.h</text>
</a>
</g>
</g>
<!-- Node15&#45;&gt;Node19 -->
<g id="edge19_Node000015_Node000019" class="edge">
<title>Node15&#45;&gt;Node19</title>
<g id="a_edge19_Node000015_Node000019"><a xlink:title=" ">
<path fill="none" stroke="#63b8ff" d="M337.25,-164.98C326.7,-157 310.7,-144.88 298.06,-135.31"/>
<polygon fill="#63b8ff" stroke="#63b8ff" points="300.04,-132.42 289.95,-129.17 295.81,-138 300.04,-132.42"/>
</a>
</g>
</g>
<!-- Node17 -->
<g id="Node000017" class="node">
<title>Node17</title>
<g id="a_Node000017"><a xlink:href="oid_8h.html" target="_top" xlink:title="Object IDs.">
<polygon fill="white" stroke="#666666" points="336,-19 295,-19 295,0 336,0 336,-19"/>
<text text-anchor="middle" x="315.5" y="-7" font-family="Helvetica,sans-Serif" font-size="10.00">oid.h</text>
</a>
</g>
</g>
<!-- Node16&#45;&gt;Node17 -->
<g id="edge17_Node000016_Node000017" class="edge">
<title>Node16&#45;&gt;Node17</title>
<g id="a_edge17_Node000016_Node000017"><a xlink:title=" ">
<path fill="none" stroke="#63b8ff" d="M321.34,-54.75C320.43,-47.8 319.11,-37.85 317.96,-29.13"/>
<polygon fill="#63b8ff" stroke="#63b8ff" points="321.41,-28.54 316.63,-19.09 314.47,-29.46 321.41,-28.54"/>
</a>
</g>
</g>
<!-- Node19&#45;&gt;Node3 -->
<g id="edge24_Node000019_Node000003" class="edge">
<title>Node19&#45;&gt;Node3</title>
<g id="a_edge24_Node000019_Node000003"><a xlink:title=" ">
<path fill="none" stroke="#63b8ff" d="M260.97,-112C238.02,-103.5 197.33,-88.42 168.52,-77.74"/>
<polygon fill="#63b8ff" stroke="#63b8ff" points="169.47,-74.36 158.87,-74.16 167.03,-80.92 169.47,-74.36"/>
</a>
</g>
</g>
<!-- Node19&#45;&gt;Node10 -->
<g id="edge23_Node000019_Node000010" class="edge">
<title>Node19&#45;&gt;Node10</title>
<g id="a_edge23_Node000019_Node000010"><a xlink:title=" ">
<path fill="none" stroke="#63b8ff" d="M269.5,-109.98C261.31,-102.23 248.99,-90.58 239.03,-81.14"/>
<polygon fill="#63b8ff" stroke="#63b8ff" points="241.33,-78.5 231.66,-74.17 236.52,-83.59 241.33,-78.5"/>
</a>
</g>
</g>
<!-- Node19&#45;&gt;Node16 -->
<g id="edge20_Node000019_Node000016" class="edge">
<title>Node19&#45;&gt;Node16</title>
<g id="a_edge20_Node000019_Node000016"><a xlink:title=" ">
<path fill="none" stroke="#63b8ff" d="M285.77,-109.75C292.04,-102.18 301.29,-91.05 308.93,-81.84"/>
<polygon fill="#63b8ff" stroke="#63b8ff" points="311.67,-84.02 315.37,-74.09 306.29,-79.55 311.67,-84.02"/>
</a>
</g>
</g>
<!-- Node19&#45;&gt;Node17 -->
<g id="edge22_Node000019_Node000017" class="edge">
<title>Node19&#45;&gt;Node17</title>
<g id="a_edge22_Node000019_Node000017"><a xlink:title=" ">
<path fill="none" stroke="#63b8ff" d="M280.38,-109.74C283.13,-97.36 288.69,-74.14 295.5,-55 298.7,-46.02 302.94,-36.34 306.7,-28.31"/>
<polygon fill="#63b8ff" stroke="#63b8ff" points="309.91,-29.72 311.09,-19.19 303.6,-26.69 309.91,-29.72"/>
</a>
</g>
</g>
<!-- Node19&#45;&gt;Node18 -->
<g id="edge21_Node000019_Node000018" class="edge">
<title>Node19&#45;&gt;Node18</title>
<g id="a_edge21_Node000019_Node000018"><a xlink:title=" ">
<path fill="none" stroke="#63b8ff" d="M294.57,-109.98C310.36,-101.61 334.72,-88.7 353.13,-78.95"/>
<polygon fill="#63b8ff" stroke="#63b8ff" points="354.94,-81.95 362.14,-74.17 351.67,-75.76 354.94,-81.95"/>
</a>
</g>
</g>
<!-- Node21&#45;&gt;Node12 -->
<g id="edge29_Node000021_Node000012" class="edge">
<title>Node21&#45;&gt;Node12</title>
<g id="a_edge29_Node000021_Node000012"><a xlink:title=" ">
<path fill="none" stroke="#63b8ff" d="M538.54,-274.75C535.29,-267.57 530.58,-257.18 526.55,-248.27"/>
<polygon fill="#63b8ff" stroke="#63b8ff" points="529.7,-246.75 522.39,-239.09 523.33,-249.64 529.7,-246.75"/>
</a>
</g>
</g>
<!-- Node21&#45;&gt;Node13 -->
<g id="edge27_Node000021_Node000013" class="edge">
<title>Node21&#45;&gt;Node13</title>
<g id="a_edge27_Node000021_Node000013"><a xlink:title=" ">
<path fill="none" stroke="#63b8ff" d="M548.56,-274.99C559.93,-258.44 584.06,-220.35 592.5,-184 594.41,-175.77 595.09,-173.04 592.5,-165 589.16,-154.62 582.4,-144.62 575.95,-136.74"/>
<polygon fill="#63b8ff" stroke="#63b8ff" points="578.47,-134.31 569.25,-129.1 573.21,-138.92 578.47,-134.31"/>
</a>
</g>
</g>
<!-- Node21&#45;&gt;Node14 -->
<g id="edge28_Node000021_Node000014" class="edge">
<title>Node21&#45;&gt;Node14</title>
<g id="a_edge28_Node000021_Node000014"><a xlink:title=" ">
<path fill="none" stroke="#63b8ff" d="M543.97,-274.66C546.89,-257.17 553.45,-217.8 557.37,-194.27"/>
<polygon fill="#63b8ff" stroke="#63b8ff" points="560.87,-194.6 559.06,-184.16 553.96,-193.45 560.87,-194.6"/>
</a>
</g>
</g>
</g>
</svg>
