<?xml version="1.0" encoding="UTF-8" standalone="no"?>
<!DOCTYPE svg PUBLIC "-//W3C//DTD SVG 1.1//EN"
 "http://www.w3.org/Graphics/SVG/1.1/DTD/svg11.dtd">
<!-- Generated by graphviz version 2.43.0 (0)
 -->
<!-- Title: src/P2/splice/spliceutils.cpp Pages: 1 -->
<svg width="1161pt" height="644pt"
 viewBox="0.00 0.00 1161.00 644.00" xmlns="http://www.w3.org/2000/svg" xmlns:xlink="http://www.w3.org/1999/xlink">
<g id="graph0" class="graph" transform="scale(1 1) rotate(0) translate(4 640)">
<title>src/P2/splice/spliceutils.cpp</title>
<polygon fill="white" stroke="transparent" points="-4,4 -4,-640 1157,-640 1157,4 -4,4"/>
<!-- Node1 -->
<g id="node1" class="node">
<title>Node1</title>
<g id="a_node1"><a xlink:title=" ">
<polygon fill="#bfbfbf" stroke="black" points="882.5,-616.5 882.5,-635.5 1032.5,-635.5 1032.5,-616.5 882.5,-616.5"/>
<text text-anchor="middle" x="957.5" y="-623.5" font-family="Helvetica,sans-Serif" font-size="10.00">src/P2/splice/spliceutils.cpp</text>
</a>
</g>
</g>
<!-- Node2 -->
<g id="node2" class="node">
<title>Node2</title>
<g id="a_node2"><a xlink:href="spliceutils_8h.html" target="_top" xlink:title=" ">
<polygon fill="white" stroke="black" points="0,-224.5 0,-243.5 107,-243.5 107,-224.5 0,-224.5"/>
<text text-anchor="middle" x="53.5" y="-231.5" font-family="Helvetica,sans-Serif" font-size="10.00">splice/spliceutils.h</text>
</a>
</g>
</g>
<!-- Node1&#45;&gt;Node2 -->
<g id="edge1" class="edge">
<title>Node1&#45;&gt;Node2</title>
<path fill="none" stroke="midnightblue" d="M882.3,-623.47C669.01,-618.13 75.5,-596.01 75.5,-515 75.5,-515 75.5,-515 75.5,-345 75.5,-312.33 66.05,-275.24 59.54,-253.55"/>
<polygon fill="midnightblue" stroke="midnightblue" points="62.79,-252.22 56.47,-243.72 56.11,-254.31 62.79,-252.22"/>
</g>
<!-- Node8 -->
<g id="node8" class="node">
<title>Node8</title>
<g id="a_node8"><a xlink:href="frame_8h.html" target="_top" xlink:title=" ">
<polygon fill="white" stroke="black" points="816.5,-168.5 816.5,-187.5 902.5,-187.5 902.5,-168.5 816.5,-168.5"/>
<text text-anchor="middle" x="859.5" y="-175.5" font-family="Helvetica,sans-Serif" font-size="10.00">splice/frame.h</text>
</a>
</g>
</g>
<!-- Node1&#45;&gt;Node8 -->
<g id="edge7" class="edge">
<title>Node1&#45;&gt;Node8</title>
<path fill="none" stroke="midnightblue" d="M960.59,-616.25C970.76,-586.67 1002.5,-487.55 1002.5,-403 1002.5,-403 1002.5,-403 1002.5,-289 1002.5,-236.84 941.99,-205.99 899.69,-190.8"/>
<polygon fill="midnightblue" stroke="midnightblue" points="900.77,-187.47 890.18,-187.54 898.5,-194.09 900.77,-187.47"/>
</g>
<!-- Node9 -->
<g id="node9" class="node">
<title>Node9</title>
<g id="a_node9"><a xlink:href="gc_8h.html" target="_top" xlink:title=" ">
<polygon fill="white" stroke="black" points="1006.5,-504.5 1006.5,-523.5 1074.5,-523.5 1074.5,-504.5 1006.5,-504.5"/>
<text text-anchor="middle" x="1040.5" y="-511.5" font-family="Helvetica,sans-Serif" font-size="10.00">splice/gc.h</text>
</a>
</g>
</g>
<!-- Node1&#45;&gt;Node9 -->
<g id="edge9" class="edge">
<title>Node1&#45;&gt;Node9</title>
<path fill="none" stroke="midnightblue" d="M964.27,-616.42C971.37,-607.4 982.82,-592.78 992.5,-580 1004.75,-563.83 1018.48,-545.19 1028.11,-532.02"/>
<polygon fill="midnightblue" stroke="midnightblue" points="1030.98,-534.02 1034.05,-523.88 1025.33,-529.9 1030.98,-534.02"/>
</g>
<!-- Node10 -->
<g id="node10" class="node">
<title>Node10</title>
<g id="a_node10"><a xlink:href="pair_8h.html" target="_top" xlink:title=" ">
<polygon fill="white" stroke="black" points="299,-560.5 299,-579.5 374,-579.5 374,-560.5 299,-560.5"/>
<text text-anchor="middle" x="336.5" y="-567.5" font-family="Helvetica,sans-Serif" font-size="10.00">splice/pair.h</text>
</a>
</g>
</g>
<!-- Node1&#45;&gt;Node10 -->
<g id="edge11" class="edge">
<title>Node1&#45;&gt;Node10</title>
<path fill="none" stroke="midnightblue" d="M882.28,-618.46C752.9,-607.21 491.8,-584.5 384.35,-575.16"/>
<polygon fill="midnightblue" stroke="midnightblue" points="384.4,-571.65 374.14,-574.27 383.8,-578.63 384.4,-571.65"/>
</g>
<!-- Node29 -->
<g id="node29" class="node">
<title>Node29</title>
<g id="a_node29"><a xlink:href="splotheap_8h.html" target="_top" xlink:title=" ">
<polygon fill="white" stroke="black" points="1048,-560.5 1048,-579.5 1153,-579.5 1153,-560.5 1048,-560.5"/>
<text text-anchor="middle" x="1100.5" y="-567.5" font-family="Helvetica,sans-Serif" font-size="10.00">splice/splotheap.h</text>
</a>
</g>
</g>
<!-- Node1&#45;&gt;Node29 -->
<g id="edge53" class="edge">
<title>Node1&#45;&gt;Node29</title>
<path fill="none" stroke="midnightblue" d="M980.16,-616.44C1003.9,-607.48 1041.41,-593.31 1068.24,-583.18"/>
<polygon fill="midnightblue" stroke="midnightblue" points="1069.83,-586.32 1077.95,-579.52 1067.36,-579.77 1069.83,-586.32"/>
</g>
<!-- Node30 -->
<g id="node30" class="node">
<title>Node30</title>
<g id="a_node30"><a xlink:href="vecmat_8h.html" target="_top" xlink:title=" ">
<polygon fill="white" stroke="black" points="853.5,-504.5 853.5,-523.5 947.5,-523.5 947.5,-504.5 853.5,-504.5"/>
<text text-anchor="middle" x="900.5" y="-511.5" font-family="Helvetica,sans-Serif" font-size="10.00">splice/vecmat.h</text>
</a>
</g>
</g>
<!-- Node1&#45;&gt;Node30 -->
<g id="edge55" class="edge">
<title>Node1&#45;&gt;Node30</title>
<path fill="none" stroke="midnightblue" d="M953.03,-616.37C943.7,-598.38 922.03,-556.55 909.63,-532.63"/>
<polygon fill="midnightblue" stroke="midnightblue" points="912.66,-530.86 904.95,-523.59 906.45,-534.08 912.66,-530.86"/>
</g>
<!-- Node3 -->
<g id="node3" class="node">
<title>Node3</title>
<g id="a_node3"><a xlink:href="common_8h.html" target="_top" xlink:title="Common header file.">
<polygon fill="white" stroke="black" points="530.5,-56.5 530.5,-75.5 598.5,-75.5 598.5,-56.5 530.5,-56.5"/>
<text text-anchor="middle" x="564.5" y="-63.5" font-family="Helvetica,sans-Serif" font-size="10.00">common.h</text>
</a>
</g>
</g>
<!-- Node2&#45;&gt;Node3 -->
<g id="edge2" class="edge">
<title>Node2&#45;&gt;Node3</title>
<path fill="none" stroke="midnightblue" d="M55.43,-224.4C61.07,-201.58 79.78,-139.34 121.5,-112 186.31,-69.54 421.22,-65.98 520.12,-66.44"/>
<polygon fill="midnightblue" stroke="midnightblue" points="520.36,-69.94 530.38,-66.5 520.4,-62.94 520.36,-69.94"/>
</g>
<!-- Node4 -->
<g id="node4" class="node">
<title>Node4</title>
<g id="a_node4"><a xlink:href="include__asm_8h.html" target="_top" xlink:title=" ">
<polygon fill="white" stroke="black" points="363,-0.5 363,-19.5 450,-19.5 450,-0.5 363,-0.5"/>
<text text-anchor="middle" x="406.5" y="-7.5" font-family="Helvetica,sans-Serif" font-size="10.00">include_asm.h</text>
</a>
</g>
</g>
<!-- Node3&#45;&gt;Node4 -->
<g id="edge3" class="edge">
<title>Node3&#45;&gt;Node4</title>
<path fill="none" stroke="midnightblue" d="M539.46,-56.44C512.88,-47.36 470.69,-32.94 440.98,-22.78"/>
<polygon fill="midnightblue" stroke="midnightblue" points="442.01,-19.44 431.42,-19.52 439.75,-26.06 442.01,-19.44"/>
</g>
<!-- Node5 -->
<g id="node5" class="node">
<title>Node5</title>
<g id="a_node5"><a xlink:href="include__rodata_8h.html" target="_top" xlink:title=" ">
<polygon fill="white" stroke="black" points="468.5,-0.5 468.5,-19.5 566.5,-19.5 566.5,-0.5 468.5,-0.5"/>
<text text-anchor="middle" x="517.5" y="-7.5" font-family="Helvetica,sans-Serif" font-size="10.00">include_rodata.h</text>
</a>
</g>
</g>
<!-- Node3&#45;&gt;Node5 -->
<g id="edge4" class="edge">
<title>Node3&#45;&gt;Node5</title>
<path fill="none" stroke="midnightblue" d="M556.74,-56.08C549.96,-48.3 539.96,-36.8 531.74,-27.37"/>
<polygon fill="midnightblue" stroke="midnightblue" points="534.32,-25 525.12,-19.75 529.04,-29.59 534.32,-25"/>
</g>
<!-- Node6 -->
<g id="node6" class="node">
<title>Node6</title>
<g id="a_node6"><a xlink:href="types_8h.html" target="_top" xlink:title="Common types used across the codebase.">
<polygon fill="white" stroke="black" points="585,-0.5 585,-19.5 638,-19.5 638,-0.5 585,-0.5"/>
<text text-anchor="middle" x="611.5" y="-7.5" font-family="Helvetica,sans-Serif" font-size="10.00">types.h</text>
</a>
</g>
</g>
<!-- Node3&#45;&gt;Node6 -->
<g id="edge5" class="edge">
<title>Node3&#45;&gt;Node6</title>
<path fill="none" stroke="midnightblue" d="M572.26,-56.08C579.04,-48.3 589.04,-36.8 597.26,-27.37"/>
<polygon fill="midnightblue" stroke="midnightblue" points="599.96,-29.59 603.88,-19.75 594.68,-25 599.96,-29.59"/>
</g>
<!-- Node7 -->
<g id="node7" class="node">
<title>Node7</title>
<g id="a_node7"><a xlink:href="vtables_8h.html" target="_top" xlink:title="Manually crafted vtables for various structs.">
<polygon fill="white" stroke="black" points="656.5,-0.5 656.5,-19.5 718.5,-19.5 718.5,-0.5 656.5,-0.5"/>
<text text-anchor="middle" x="687.5" y="-7.5" font-family="Helvetica,sans-Serif" font-size="10.00">vtables.h</text>
</a>
</g>
</g>
<!-- Node3&#45;&gt;Node7 -->
<g id="edge6" class="edge">
<title>Node3&#45;&gt;Node7</title>
<path fill="none" stroke="midnightblue" d="M583.99,-56.44C604.14,-47.6 635.82,-33.69 658.83,-23.59"/>
<polygon fill="midnightblue" stroke="midnightblue" points="660.35,-26.74 668.1,-19.52 657.54,-20.33 660.35,-26.74"/>
</g>
<!-- Node8&#45;&gt;Node3 -->
<g id="edge8" class="edge">
<title>Node8&#45;&gt;Node3</title>
<path fill="none" stroke="midnightblue" d="M855.27,-168.17C847.91,-153.86 831.33,-125.81 808.5,-112 775.57,-92.09 669.76,-78.05 608.83,-71.39"/>
<polygon fill="midnightblue" stroke="midnightblue" points="609.05,-67.89 598.73,-70.3 608.3,-74.85 609.05,-67.89"/>
</g>
<!-- Node9&#45;&gt;Node3 -->
<g id="edge10" class="edge">
<title>Node9&#45;&gt;Node3</title>
<path fill="none" stroke="midnightblue" d="M1040.5,-504.44C1040.5,-485.94 1040.5,-440.81 1040.5,-403 1040.5,-403 1040.5,-403 1040.5,-177 1040.5,-88.9 727.08,-71.35 608.89,-67.86"/>
<polygon fill="midnightblue" stroke="midnightblue" points="608.83,-64.36 598.73,-67.58 608.63,-71.36 608.83,-64.36"/>
</g>
<!-- Node10&#45;&gt;Node3 -->
<g id="edge12" class="edge">
<title>Node10&#45;&gt;Node3</title>
<path fill="none" stroke="midnightblue" d="M298.69,-565.29C240.47,-557.27 135.5,-532.59 135.5,-459 135.5,-459 135.5,-459 135.5,-177 135.5,-138.87 157.85,-129.94 191.5,-112 247.51,-82.13 433.96,-71.67 520.13,-68.37"/>
<polygon fill="midnightblue" stroke="midnightblue" points="520.51,-71.86 530.37,-67.99 520.25,-64.86 520.51,-71.86"/>
</g>
<!-- Node11 -->
<g id="node11" class="node">
<title>Node11</title>
<g id="a_node11"><a xlink:href="ref_8h.html" target="_top" xlink:title=" ">
<polygon fill="white" stroke="black" points="301.5,-504.5 301.5,-523.5 371.5,-523.5 371.5,-504.5 301.5,-504.5"/>
<text text-anchor="middle" x="336.5" y="-511.5" font-family="Helvetica,sans-Serif" font-size="10.00">splice/ref.h</text>
</a>
</g>
</g>
<!-- Node10&#45;&gt;Node11 -->
<g id="edge13" class="edge">
<title>Node10&#45;&gt;Node11</title>
<path fill="none" stroke="midnightblue" d="M336.5,-560.08C336.5,-553.01 336.5,-542.86 336.5,-533.99"/>
<polygon fill="midnightblue" stroke="midnightblue" points="340,-533.75 336.5,-523.75 333,-533.75 340,-533.75"/>
</g>
<!-- Node11&#45;&gt;Node3 -->
<g id="edge14" class="edge">
<title>Node11&#45;&gt;Node3</title>
<path fill="none" stroke="midnightblue" d="M301.13,-505.72C253.19,-493.54 173.5,-464.11 173.5,-403 173.5,-403 173.5,-403 173.5,-177 173.5,-138.87 195.97,-130.17 229.5,-112 278.75,-85.31 440.88,-73.4 520.12,-69.07"/>
<polygon fill="midnightblue" stroke="midnightblue" points="520.47,-72.56 530.27,-68.53 520.1,-65.57 520.47,-72.56"/>
</g>
<!-- Node12 -->
<g id="node12" class="node">
<title>Node12</title>
<g id="a_node12"><a xlink:href="proc_8h.html" target="_top" xlink:title=" ">
<polygon fill="white" stroke="black" points="201.5,-392.5 201.5,-411.5 279.5,-411.5 279.5,-392.5 201.5,-392.5"/>
<text text-anchor="middle" x="240.5" y="-399.5" font-family="Helvetica,sans-Serif" font-size="10.00">splice/proc.h</text>
</a>
</g>
</g>
<!-- Node11&#45;&gt;Node12 -->
<g id="edge15" class="edge">
<title>Node11&#45;&gt;Node12</title>
<path fill="none" stroke="midnightblue" d="M326.95,-504.4C317.37,-495.6 302.37,-481.37 290.5,-468 276.68,-452.43 262.33,-433.44 252.57,-420.01"/>
<polygon fill="midnightblue" stroke="midnightblue" points="255.28,-417.79 246.61,-411.72 249.6,-421.88 255.28,-417.79"/>
</g>
<!-- Node13 -->
<g id="node13" class="node">
<title>Node13</title>
<g id="a_node13"><a xlink:href="method_8h.html" target="_top" xlink:title=" ">
<polygon fill="white" stroke="black" points="240,-336.5 240,-355.5 335,-355.5 335,-336.5 240,-336.5"/>
<text text-anchor="middle" x="287.5" y="-343.5" font-family="Helvetica,sans-Serif" font-size="10.00">splice/method.h</text>
</a>
</g>
</g>
<!-- Node11&#45;&gt;Node13 -->
<g id="edge17" class="edge">
<title>Node11&#45;&gt;Node13</title>
<path fill="none" stroke="midnightblue" d="M333.87,-504.08C326.15,-477.95 303.5,-401.21 292.98,-365.58"/>
<polygon fill="midnightblue" stroke="midnightblue" points="296.22,-364.17 290.03,-355.57 289.5,-366.15 296.22,-364.17"/>
</g>
<!-- Node14 -->
<g id="node14" class="node">
<title>Node14</title>
<g id="a_node14"><a xlink:href="bif_8h.html" target="_top" xlink:title=" ">
<polygon fill="white" stroke="black" points="333,-448.5 333,-467.5 402,-467.5 402,-448.5 333,-448.5"/>
<text text-anchor="middle" x="367.5" y="-455.5" font-family="Helvetica,sans-Serif" font-size="10.00">splice/bif.h</text>
</a>
</g>
</g>
<!-- Node11&#45;&gt;Node14 -->
<g id="edge19" class="edge">
<title>Node11&#45;&gt;Node14</title>
<path fill="none" stroke="midnightblue" d="M341.62,-504.08C345.91,-496.61 352.16,-485.72 357.44,-476.52"/>
<polygon fill="midnightblue" stroke="midnightblue" points="360.53,-478.17 362.48,-467.75 354.46,-474.68 360.53,-478.17"/>
</g>
<!-- Node15 -->
<g id="node15" class="node">
<title>Node15</title>
<g id="a_node15"><a xlink:href="basic_8h.html" target="_top" xlink:title="Basic object.">
<polygon fill="white" stroke="black" points="415,-168.5 415,-187.5 466,-187.5 466,-168.5 415,-168.5"/>
<text text-anchor="middle" x="440.5" y="-175.5" font-family="Helvetica,sans-Serif" font-size="10.00">basic.h</text>
</a>
</g>
</g>
<!-- Node11&#45;&gt;Node15 -->
<g id="edge21" class="edge">
<title>Node11&#45;&gt;Node15</title>
<path fill="none" stroke="midnightblue" d="M359.31,-504.35C375.75,-497.02 397.29,-484.97 410.5,-468 429.07,-444.15 430.5,-433.23 430.5,-403 430.5,-403 430.5,-403 430.5,-289 430.5,-256.82 434.8,-219.55 437.76,-197.7"/>
<polygon fill="midnightblue" stroke="midnightblue" points="441.26,-197.92 439.19,-187.53 434.33,-196.95 441.26,-197.92"/>
</g>
<!-- Node17 -->
<g id="node17" class="node">
<title>Node17</title>
<g id="a_node17"><a xlink:href="util_8h.html" target="_top" xlink:title="Utility functions.">
<polygon fill="white" stroke="black" points="775,-448.5 775,-467.5 816,-467.5 816,-448.5 775,-448.5"/>
<text text-anchor="middle" x="795.5" y="-455.5" font-family="Helvetica,sans-Serif" font-size="10.00">util.h</text>
</a>
</g>
</g>
<!-- Node11&#45;&gt;Node17 -->
<g id="edge25" class="edge">
<title>Node11&#45;&gt;Node17</title>
<path fill="none" stroke="midnightblue" d="M371.75,-508.85C458.83,-498.61 682.96,-472.24 764.91,-462.6"/>
<polygon fill="midnightblue" stroke="midnightblue" points="765.32,-466.08 774.84,-461.43 764.5,-459.12 765.32,-466.08"/>
</g>
<!-- Node12&#45;&gt;Node3 -->
<g id="edge16" class="edge">
<title>Node12&#45;&gt;Node3</title>
<path fill="none" stroke="midnightblue" d="M236.59,-392.36C228.67,-374.07 211.5,-329.91 211.5,-291 211.5,-291 211.5,-291 211.5,-177 211.5,-140 231.44,-130.45 263.5,-112 306.33,-87.35 447.27,-74.7 520.08,-69.67"/>
<polygon fill="midnightblue" stroke="midnightblue" points="520.56,-73.15 530.31,-68.98 520.09,-66.16 520.56,-73.15"/>
</g>
<!-- Node13&#45;&gt;Node3 -->
<g id="edge18" class="edge">
<title>Node13&#45;&gt;Node3</title>
<path fill="none" stroke="midnightblue" d="M283.86,-336.34C276.49,-318 260.5,-273.74 260.5,-235 260.5,-235 260.5,-235 260.5,-177 260.5,-146.2 260.71,-131.56 284.5,-112 319.72,-83.04 450.58,-72.43 520.22,-68.77"/>
<polygon fill="midnightblue" stroke="midnightblue" points="520.63,-72.26 530.44,-68.27 520.28,-65.27 520.63,-72.26"/>
</g>
<!-- Node14&#45;&gt;Node3 -->
<g id="edge20" class="edge">
<title>Node14&#45;&gt;Node3</title>
<path fill="none" stroke="midnightblue" d="M366.46,-448.39C360.86,-400.31 336.07,-165.32 379.5,-112 397.04,-90.46 471.27,-77.81 520.2,-71.66"/>
<polygon fill="midnightblue" stroke="midnightblue" points="520.73,-75.12 530.23,-70.44 519.89,-68.17 520.73,-75.12"/>
</g>
<!-- Node15&#45;&gt;Node3 -->
<g id="edge22" class="edge">
<title>Node15&#45;&gt;Node3</title>
<path fill="none" stroke="midnightblue" d="M426.49,-168.46C407.65,-155.92 378.2,-131.85 393.5,-112 408.92,-92 475.17,-79.12 520.53,-72.47"/>
<polygon fill="midnightblue" stroke="midnightblue" points="521.03,-75.93 530.44,-71.06 520.04,-69 521.03,-75.93"/>
</g>
<!-- Node16 -->
<g id="node16" class="node">
<title>Node16</title>
<g id="a_node16"><a xlink:href="sidebag_8h.html" target="_top" xlink:title="Sidebag for splice.">
<polygon fill="white" stroke="black" points="403,-112.5 403,-131.5 498,-131.5 498,-112.5 403,-112.5"/>
<text text-anchor="middle" x="450.5" y="-119.5" font-family="Helvetica,sans-Serif" font-size="10.00">splice/sidebag.h</text>
</a>
</g>
</g>
<!-- Node15&#45;&gt;Node16 -->
<g id="edge23" class="edge">
<title>Node15&#45;&gt;Node16</title>
<path fill="none" stroke="midnightblue" d="M442.15,-168.08C443.48,-160.93 445.38,-150.64 447.04,-141.69"/>
<polygon fill="midnightblue" stroke="midnightblue" points="450.5,-142.22 448.88,-131.75 443.62,-140.95 450.5,-142.22"/>
</g>
<!-- Node16&#45;&gt;Node3 -->
<g id="edge24" class="edge">
<title>Node16&#45;&gt;Node3</title>
<path fill="none" stroke="midnightblue" d="M468.56,-112.44C487.07,-103.68 516.08,-89.94 537.36,-79.86"/>
<polygon fill="midnightblue" stroke="midnightblue" points="538.98,-82.96 546.52,-75.52 535.99,-76.63 538.98,-82.96"/>
</g>
<!-- Node17&#45;&gt;Node3 -->
<g id="edge26" class="edge">
<title>Node17&#45;&gt;Node3</title>
<path fill="none" stroke="midnightblue" d="M794.58,-448.45C792.69,-429.97 788.5,-384.89 788.5,-347 788.5,-347 788.5,-347 788.5,-233 788.5,-177.26 795.6,-150.72 755.5,-112 734.85,-92.06 658.63,-78.87 608.94,-72.19"/>
<polygon fill="midnightblue" stroke="midnightblue" points="609.14,-68.68 598.77,-70.86 608.23,-75.63 609.14,-68.68"/>
</g>
<!-- Node18 -->
<g id="node18" class="node">
<title>Node18</title>
<g id="a_node18"><a xlink:href="mat_8h.html" target="_top" xlink:title="3x3 and 4x4 matrix types.">
<polygon fill="white" stroke="black" points="878,-392.5 878,-411.5 923,-411.5 923,-392.5 878,-392.5"/>
<text text-anchor="middle" x="900.5" y="-399.5" font-family="Helvetica,sans-Serif" font-size="10.00">mat.h</text>
</a>
</g>
</g>
<!-- Node17&#45;&gt;Node18 -->
<g id="edge27" class="edge">
<title>Node17&#45;&gt;Node18</title>
<path fill="none" stroke="midnightblue" d="M812.37,-448.32C829.21,-439.66 855.31,-426.24 874.74,-416.25"/>
<polygon fill="midnightblue" stroke="midnightblue" points="876.38,-419.34 883.67,-411.65 873.18,-413.12 876.38,-419.34"/>
</g>
<!-- Node19 -->
<g id="node19" class="node">
<title>Node19</title>
<g id="a_node19"><a xlink:href="vec_8h.html" target="_top" xlink:title="Vector math.">
<polygon fill="white" stroke="black" points="817,-392.5 817,-411.5 860,-411.5 860,-392.5 817,-392.5"/>
<text text-anchor="middle" x="838.5" y="-399.5" font-family="Helvetica,sans-Serif" font-size="10.00">vec.h</text>
</a>
</g>
</g>
<!-- Node17&#45;&gt;Node19 -->
<g id="edge28" class="edge">
<title>Node17&#45;&gt;Node19</title>
<path fill="none" stroke="midnightblue" d="M802.6,-448.08C808.74,-440.38 817.77,-429.03 825.24,-419.65"/>
<polygon fill="midnightblue" stroke="midnightblue" points="828.04,-421.75 831.53,-411.75 822.56,-417.39 828.04,-421.75"/>
</g>
<!-- Node27 -->
<g id="node27" class="node">
<title>Node27</title>
<g id="a_node27"><a xlink:href="sm_8h.html" target="_top" xlink:title="State machines.">
<polygon fill="white" stroke="black" points="566,-336.5 566,-355.5 607,-355.5 607,-336.5 566,-336.5"/>
<text text-anchor="middle" x="586.5" y="-343.5" font-family="Helvetica,sans-Serif" font-size="10.00">sm.h</text>
</a>
</g>
</g>
<!-- Node17&#45;&gt;Node27 -->
<g id="edge46" class="edge">
<title>Node17&#45;&gt;Node27</title>
<path fill="none" stroke="midnightblue" d="M779.1,-448.37C742.78,-429.25 655.34,-383.23 611.89,-360.36"/>
<polygon fill="midnightblue" stroke="midnightblue" points="613.3,-357.15 602.82,-355.59 610.04,-363.35 613.3,-357.15"/>
</g>
<!-- Node20 -->
<g id="node20" class="node">
<title>Node20</title>
<g id="a_node20"><a xlink:href="so_8h.html" target="_top" xlink:title="Scene objects.">
<polygon fill="white" stroke="black" points="819,-336.5 819,-355.5 856,-355.5 856,-336.5 819,-336.5"/>
<text text-anchor="middle" x="837.5" y="-343.5" font-family="Helvetica,sans-Serif" font-size="10.00">so.h</text>
</a>
</g>
</g>
<!-- Node19&#45;&gt;Node20 -->
<g id="edge29" class="edge">
<title>Node19&#45;&gt;Node20</title>
<path fill="none" stroke="midnightblue" d="M838.33,-392.08C838.2,-385.01 838.02,-374.86 837.85,-365.99"/>
<polygon fill="midnightblue" stroke="midnightblue" points="841.35,-365.68 837.66,-355.75 834.35,-365.81 841.35,-365.68"/>
</g>
<!-- Node21 -->
<g id="node21" class="node">
<title>Node21</title>
<g id="a_node21"><a xlink:href="alo_8h.html" target="_top" xlink:title=" ">
<polygon fill="white" stroke="black" points="817,-280.5 817,-299.5 858,-299.5 858,-280.5 817,-280.5"/>
<text text-anchor="middle" x="837.5" y="-287.5" font-family="Helvetica,sans-Serif" font-size="10.00">alo.h</text>
</a>
</g>
</g>
<!-- Node20&#45;&gt;Node21 -->
<g id="edge30" class="edge">
<title>Node20&#45;&gt;Node21</title>
<path fill="none" stroke="midnightblue" d="M837.5,-336.08C837.5,-329.01 837.5,-318.86 837.5,-309.99"/>
<polygon fill="midnightblue" stroke="midnightblue" points="841,-309.75 837.5,-299.75 834,-309.75 841,-309.75"/>
</g>
<!-- Node21&#45;&gt;Node3 -->
<g id="edge31" class="edge">
<title>Node21&#45;&gt;Node3</title>
<path fill="none" stroke="midnightblue" d="M849.8,-280.45C876.17,-261.02 933.98,-211.82 911.5,-168 892.02,-130.03 872.9,-128.39 833.5,-112 758.54,-80.82 663.33,-71.22 608.62,-68.28"/>
<polygon fill="midnightblue" stroke="midnightblue" points="608.72,-64.78 598.56,-67.79 608.38,-71.77 608.72,-64.78"/>
</g>
<!-- Node22 -->
<g id="node22" class="node">
<title>Node22</title>
<g id="a_node22"><a xlink:href="lo_8h.html" target="_top" xlink:title="Level objects.">
<polygon fill="white" stroke="black" points="641,-224.5 641,-243.5 676,-243.5 676,-224.5 641,-224.5"/>
<text text-anchor="middle" x="658.5" y="-231.5" font-family="Helvetica,sans-Serif" font-size="10.00">lo.h</text>
</a>
</g>
</g>
<!-- Node21&#45;&gt;Node22 -->
<g id="edge32" class="edge">
<title>Node21&#45;&gt;Node22</title>
<path fill="none" stroke="midnightblue" d="M816.97,-282.81C784.7,-273.07 722.11,-254.19 685.99,-243.29"/>
<polygon fill="midnightblue" stroke="midnightblue" points="686.71,-239.86 676.13,-240.32 684.69,-246.56 686.71,-239.86"/>
</g>
<!-- Node24 -->
<g id="node24" class="node">
<title>Node24</title>
<g id="a_node24"><a xlink:href="dl_8h.html" target="_top" xlink:title="Doubly&#45;linked list.">
<polygon fill="white" stroke="black" points="725,-168.5 725,-187.5 760,-187.5 760,-168.5 725,-168.5"/>
<text text-anchor="middle" x="742.5" y="-175.5" font-family="Helvetica,sans-Serif" font-size="10.00">dl.h</text>
</a>
</g>
</g>
<!-- Node21&#45;&gt;Node24 -->
<g id="edge45" class="edge">
<title>Node21&#45;&gt;Node24</title>
<path fill="none" stroke="midnightblue" d="M830.05,-280.37C814.23,-262.05 777.09,-219.05 756.63,-195.36"/>
<polygon fill="midnightblue" stroke="midnightblue" points="759.1,-192.87 749.92,-187.59 753.81,-197.45 759.1,-192.87"/>
</g>
<!-- Node22&#45;&gt;Node3 -->
<g id="edge33" class="edge">
<title>Node22&#45;&gt;Node3</title>
<path fill="none" stroke="midnightblue" d="M659.5,-224.19C661.44,-202.91 663.63,-147.8 639.5,-112 629.82,-97.64 613.89,-87.15 599.19,-79.92"/>
<polygon fill="midnightblue" stroke="midnightblue" points="600.34,-76.6 589.79,-75.64 597.43,-82.97 600.34,-76.6"/>
</g>
<!-- Node22&#45;&gt;Node8 -->
<g id="edge42" class="edge">
<title>Node22&#45;&gt;Node8</title>
<path fill="none" stroke="midnightblue" d="M676.34,-228.21C707.89,-219.73 774.33,-201.88 817.91,-190.17"/>
<polygon fill="midnightblue" stroke="midnightblue" points="818.9,-193.53 827.65,-187.56 817.09,-186.77 818.9,-193.53"/>
</g>
<!-- Node22&#45;&gt;Node15 -->
<g id="edge36" class="edge">
<title>Node22&#45;&gt;Node15</title>
<path fill="none" stroke="midnightblue" d="M640.66,-228.58C604.75,-219.69 523.18,-199.48 476,-187.79"/>
<polygon fill="midnightblue" stroke="midnightblue" points="476.75,-184.37 466.2,-185.37 475.07,-191.17 476.75,-184.37"/>
</g>
<!-- Node23 -->
<g id="node23" class="node">
<title>Node23</title>
<g id="a_node23"><a xlink:href="oid_8h.html" target="_top" xlink:title="Object IDs.">
<polygon fill="white" stroke="black" points="687,-112.5 687,-131.5 728,-131.5 728,-112.5 687,-112.5"/>
<text text-anchor="middle" x="707.5" y="-119.5" font-family="Helvetica,sans-Serif" font-size="10.00">oid.h</text>
</a>
</g>
</g>
<!-- Node22&#45;&gt;Node23 -->
<g id="edge34" class="edge">
<title>Node22&#45;&gt;Node23</title>
<path fill="none" stroke="midnightblue" d="M662.34,-224.37C670.32,-206.46 688.83,-164.92 699.5,-140.95"/>
<polygon fill="midnightblue" stroke="midnightblue" points="702.8,-142.15 703.67,-131.59 696.41,-139.3 702.8,-142.15"/>
</g>
<!-- Node22&#45;&gt;Node24 -->
<g id="edge37" class="edge">
<title>Node22&#45;&gt;Node24</title>
<path fill="none" stroke="midnightblue" d="M672,-224.32C685.1,-215.9 705.21,-202.97 720.61,-193.07"/>
<polygon fill="midnightblue" stroke="midnightblue" points="722.52,-196.01 729.04,-187.65 718.73,-190.12 722.52,-196.01"/>
</g>
<!-- Node25 -->
<g id="node25" class="node">
<title>Node25</title>
<g id="a_node25"><a xlink:href="sw_8h.html" target="_top" xlink:title="Scene world?">
<polygon fill="white" stroke="black" points="592.5,-112.5 592.5,-131.5 630.5,-131.5 630.5,-112.5 592.5,-112.5"/>
<text text-anchor="middle" x="611.5" y="-119.5" font-family="Helvetica,sans-Serif" font-size="10.00">sw.h</text>
</a>
</g>
</g>
<!-- Node22&#45;&gt;Node25 -->
<g id="edge40" class="edge">
<title>Node22&#45;&gt;Node25</title>
<path fill="none" stroke="midnightblue" d="M654.81,-224.37C647.16,-206.46 629.41,-164.92 619.17,-140.95"/>
<polygon fill="midnightblue" stroke="midnightblue" points="622.32,-139.41 615.17,-131.59 615.88,-142.16 622.32,-139.41"/>
</g>
<!-- Node26 -->
<g id="node26" class="node">
<title>Node26</title>
<g id="a_node26"><a xlink:href="mq_8h.html" target="_top" xlink:title="Message queue.">
<polygon fill="white" stroke="black" points="551,-168.5 551,-187.5 592,-187.5 592,-168.5 551,-168.5"/>
<text text-anchor="middle" x="571.5" y="-175.5" font-family="Helvetica,sans-Serif" font-size="10.00">mq.h</text>
</a>
</g>
</g>
<!-- Node22&#45;&gt;Node26 -->
<g id="edge43" class="edge">
<title>Node22&#45;&gt;Node26</title>
<path fill="none" stroke="midnightblue" d="M644.52,-224.32C630.95,-215.9 610.12,-202.97 594.18,-193.07"/>
<polygon fill="midnightblue" stroke="midnightblue" points="595.79,-189.95 585.44,-187.65 592.09,-195.9 595.79,-189.95"/>
</g>
<!-- Node23&#45;&gt;Node3 -->
<g id="edge35" class="edge">
<title>Node23&#45;&gt;Node3</title>
<path fill="none" stroke="midnightblue" d="M686.71,-113.15C663.11,-104.24 624.34,-89.6 596.8,-79.2"/>
<polygon fill="midnightblue" stroke="midnightblue" points="597.8,-75.83 587.21,-75.58 595.33,-82.38 597.8,-75.83"/>
</g>
<!-- Node24&#45;&gt;Node3 -->
<g id="edge38" class="edge">
<title>Node24&#45;&gt;Node3</title>
<path fill="none" stroke="midnightblue" d="M744.54,-168.24C747.19,-154.52 749.99,-127.9 736.5,-112 720.12,-92.69 654.07,-79.64 608.76,-72.77"/>
<polygon fill="midnightblue" stroke="midnightblue" points="609.27,-69.31 598.86,-71.31 608.25,-76.23 609.27,-69.31"/>
</g>
<!-- Node24&#45;&gt;Node23 -->
<g id="edge39" class="edge">
<title>Node24&#45;&gt;Node23</title>
<path fill="none" stroke="midnightblue" d="M736.72,-168.08C731.83,-160.53 724.67,-149.49 718.67,-140.23"/>
<polygon fill="midnightblue" stroke="midnightblue" points="721.55,-138.24 713.17,-131.75 715.67,-142.05 721.55,-138.24"/>
</g>
<!-- Node25&#45;&gt;Node3 -->
<g id="edge41" class="edge">
<title>Node25&#45;&gt;Node3</title>
<path fill="none" stroke="midnightblue" d="M603.74,-112.08C596.96,-104.3 586.96,-92.8 578.74,-83.37"/>
<polygon fill="midnightblue" stroke="midnightblue" points="581.32,-81 572.12,-75.75 576.04,-85.59 581.32,-81"/>
</g>
<!-- Node26&#45;&gt;Node3 -->
<g id="edge44" class="edge">
<title>Node26&#45;&gt;Node3</title>
<path fill="none" stroke="midnightblue" d="M570.95,-168.37C569.82,-150.62 567.22,-109.67 565.68,-85.6"/>
<polygon fill="midnightblue" stroke="midnightblue" points="569.17,-85.35 565.05,-75.59 562.19,-85.79 569.17,-85.35"/>
</g>
<!-- Node27&#45;&gt;Node3 -->
<g id="edge47" class="edge">
<title>Node27&#45;&gt;Node3</title>
<path fill="none" stroke="midnightblue" d="M565.81,-337.05C547.28,-329.32 519.95,-316.36 499.5,-300 429.05,-243.62 400.9,-220.91 385.5,-132 383.98,-123.24 380.03,-119.01 385.5,-112 401.93,-90.93 472.91,-78.21 520.4,-71.91"/>
<polygon fill="midnightblue" stroke="midnightblue" points="520.97,-75.37 530.45,-70.63 520.08,-68.42 520.97,-75.37"/>
</g>
<!-- Node27&#45;&gt;Node24 -->
<g id="edge48" class="edge">
<title>Node27&#45;&gt;Node24</title>
<path fill="none" stroke="midnightblue" d="M595.01,-336.47C612.17,-319.22 652.04,-278.88 684.5,-244 699.71,-227.65 716.67,-208.54 728.3,-195.29"/>
<polygon fill="midnightblue" stroke="midnightblue" points="731.15,-197.35 735.1,-187.52 725.88,-192.74 731.15,-197.35"/>
</g>
<!-- Node27&#45;&gt;Node26 -->
<g id="edge52" class="edge">
<title>Node27&#45;&gt;Node26</title>
<path fill="none" stroke="midnightblue" d="M585.69,-336.08C583.33,-309.95 576.4,-233.21 573.18,-197.58"/>
<polygon fill="midnightblue" stroke="midnightblue" points="576.66,-197.21 572.27,-187.57 569.69,-197.84 576.66,-197.21"/>
</g>
<!-- Node28 -->
<g id="node28" class="node">
<title>Node28</title>
<g id="a_node28"><a xlink:href="anim_8h.html" target="_top" xlink:title="Animation.">
<polygon fill="white" stroke="black" points="508.5,-280.5 508.5,-299.5 558.5,-299.5 558.5,-280.5 508.5,-280.5"/>
<text text-anchor="middle" x="533.5" y="-287.5" font-family="Helvetica,sans-Serif" font-size="10.00">anim.h</text>
</a>
</g>
</g>
<!-- Node27&#45;&gt;Node28 -->
<g id="edge49" class="edge">
<title>Node27&#45;&gt;Node28</title>
<path fill="none" stroke="midnightblue" d="M577.75,-336.08C570.03,-328.22 558.6,-316.57 549.28,-307.08"/>
<polygon fill="midnightblue" stroke="midnightblue" points="551.59,-304.44 542.09,-299.75 546.6,-309.34 551.59,-304.44"/>
</g>
<!-- Node28&#45;&gt;Node3 -->
<g id="edge50" class="edge">
<title>Node28&#45;&gt;Node3</title>
<path fill="none" stroke="midnightblue" d="M533.6,-280.44C533.94,-260.58 535.39,-209.87 541.5,-168 545.77,-138.72 554.05,-105.36 559.43,-85.25"/>
<polygon fill="midnightblue" stroke="midnightblue" points="562.82,-86.13 562.07,-75.56 556.06,-84.29 562.82,-86.13"/>
</g>
<!-- Node28&#45;&gt;Node22 -->
<g id="edge51" class="edge">
<title>Node28&#45;&gt;Node22</title>
<path fill="none" stroke="midnightblue" d="M553.31,-280.44C574.39,-271.34 607.89,-256.86 631.4,-246.71"/>
<polygon fill="midnightblue" stroke="midnightblue" points="633.02,-249.82 640.81,-242.64 630.24,-243.4 633.02,-249.82"/>
</g>
<!-- Node29&#45;&gt;Node3 -->
<g id="edge54" class="edge">
<title>Node29&#45;&gt;Node3</title>
<path fill="none" stroke="midnightblue" d="M1100.76,-560.44C1101.3,-541.94 1102.5,-496.82 1102.5,-459 1102.5,-459 1102.5,-459 1102.5,-177 1102.5,-76.51 737.63,-66.93 608.85,-66.68"/>
<polygon fill="midnightblue" stroke="midnightblue" points="608.56,-63.18 598.56,-66.68 608.56,-70.18 608.56,-63.18"/>
</g>
<!-- Node30&#45;&gt;Node3 -->
<g id="edge56" class="edge">
<title>Node30&#45;&gt;Node3</title>
<path fill="none" stroke="midnightblue" d="M909.94,-504.31C927.75,-486.93 964.5,-445.86 964.5,-403 964.5,-403 964.5,-403 964.5,-289 964.5,-200.14 951.09,-151.53 871.5,-112 826.26,-89.53 682.57,-75.83 608.93,-70.11"/>
<polygon fill="midnightblue" stroke="midnightblue" points="608.83,-66.6 598.6,-69.33 608.3,-73.58 608.83,-66.6"/>
</g>
<!-- Node30&#45;&gt;Node17 -->
<g id="edge59" class="edge">
<title>Node30&#45;&gt;Node17</title>
<path fill="none" stroke="midnightblue" d="M883.63,-504.32C866.79,-495.66 840.69,-482.24 821.26,-472.25"/>
<polygon fill="midnightblue" stroke="midnightblue" points="822.82,-469.12 812.33,-467.65 819.62,-475.34 822.82,-469.12"/>
</g>
<!-- Node30&#45;&gt;Node18 -->
<g id="edge58" class="edge">
<title>Node30&#45;&gt;Node18</title>
<path fill="none" stroke="midnightblue" d="M900.5,-504.37C900.5,-486.62 900.5,-445.67 900.5,-421.6"/>
<polygon fill="midnightblue" stroke="midnightblue" points="904,-421.59 900.5,-411.59 897,-421.59 904,-421.59"/>
</g>
<!-- Node30&#45;&gt;Node19 -->
<g id="edge57" class="edge">
<title>Node30&#45;&gt;Node19</title>
<path fill="none" stroke="midnightblue" d="M895.63,-504.37C885.45,-486.3 861.71,-444.18 848.26,-420.31"/>
<polygon fill="midnightblue" stroke="midnightblue" points="851.3,-418.58 843.34,-411.59 845.2,-422.02 851.3,-418.58"/>
</g>
</g>
</svg>
