<?xml version="1.0" encoding="UTF-8" standalone="no"?>
<!DOCTYPE svg PUBLIC "-//W3C//DTD SVG 1.1//EN"
 "http://www.w3.org/Graphics/SVG/1.1/DTD/svg11.dtd">
<!-- Generated by graphviz version 2.43.0 (0)
 -->
<!-- Title: src/P2/splice/spliceutils.cpp Pages: 1 -->
<svg width="1084pt" height="644pt"
 viewBox="0.00 0.00 1083.50 644.00" xmlns="http://www.w3.org/2000/svg" xmlns:xlink="http://www.w3.org/1999/xlink">
<g id="graph0" class="graph" transform="scale(1 1) rotate(0) translate(4 640)">
<title>src/P2/splice/spliceutils.cpp</title>
<polygon fill="white" stroke="transparent" points="-4,4 -4,-640 1079.5,-640 1079.5,4 -4,4"/>
<!-- Node1 -->
<g id="node1" class="node">
<title>Node1</title>
<g id="a_node1"><a xlink:title=" ">
<polygon fill="#bfbfbf" stroke="black" points="799,-616.5 799,-635.5 949,-635.5 949,-616.5 799,-616.5"/>
<text text-anchor="middle" x="874" y="-623.5" font-family="Helvetica,sans-Serif" font-size="10.00">src/P2/splice/spliceutils.cpp</text>
</a>
</g>
</g>
<!-- Node2 -->
<g id="node2" class="node">
<title>Node2</title>
<g id="a_node2"><a xlink:href="common_8h.html" target="_top" xlink:title="Common header file.">
<polygon fill="white" stroke="black" points="434,-56.5 434,-75.5 502,-75.5 502,-56.5 434,-56.5"/>
<text text-anchor="middle" x="468" y="-63.5" font-family="Helvetica,sans-Serif" font-size="10.00">common.h</text>
</a>
</g>
</g>
<!-- Node1&#45;&gt;Node2 -->
<g id="edge1" class="edge">
<title>Node1&#45;&gt;Node2</title>
<path fill="none" stroke="midnightblue" d="M798.73,-623.38C586.73,-617.82 0,-595.19 0,-515 0,-515 0,-515 0,-177 0,-138.87 22.25,-129.75 56,-112 119,-78.86 330.76,-70.07 423.67,-67.78"/>
<polygon fill="midnightblue" stroke="midnightblue" points="423.95,-71.28 433.87,-67.54 423.79,-64.28 423.95,-71.28"/>
</g>
<!-- Node7 -->
<g id="node7" class="node">
<title>Node7</title>
<g id="a_node7"><a xlink:href="frame_8h.html" target="_top" xlink:title=" ">
<polygon fill="white" stroke="black" points="720,-168.5 720,-187.5 806,-187.5 806,-168.5 720,-168.5"/>
<text text-anchor="middle" x="763" y="-175.5" font-family="Helvetica,sans-Serif" font-size="10.00">splice/frame.h</text>
</a>
</g>
</g>
<!-- Node1&#45;&gt;Node7 -->
<g id="edge6" class="edge">
<title>Node1&#45;&gt;Node7</title>
<path fill="none" stroke="midnightblue" d="M877.64,-616.34C885.01,-598 901,-553.74 901,-515 901,-515 901,-515 901,-289 901,-237.66 841.87,-206.4 801.03,-190.93"/>
<polygon fill="midnightblue" stroke="midnightblue" points="802.19,-187.63 791.59,-187.51 799.8,-194.21 802.19,-187.63"/>
</g>
<!-- Node8 -->
<g id="node8" class="node">
<title>Node8</title>
<g id="a_node8"><a xlink:href="gc_8h.html" target="_top" xlink:title=" ">
<polygon fill="white" stroke="black" points="929,-224.5 929,-243.5 997,-243.5 997,-224.5 929,-224.5"/>
<text text-anchor="middle" x="963" y="-231.5" font-family="Helvetica,sans-Serif" font-size="10.00">splice/gc.h</text>
</a>
</g>
</g>
<!-- Node1&#45;&gt;Node8 -->
<g id="edge8" class="edge">
<title>Node1&#45;&gt;Node8</title>
<path fill="none" stroke="midnightblue" d="M883.74,-616.37C902.1,-599.1 940,-558.21 940,-515 940,-515 940,-515 940,-345 940,-312.12 949.97,-274.86 956.78,-253.24"/>
<polygon fill="midnightblue" stroke="midnightblue" points="960.11,-254.3 959.9,-243.71 953.46,-252.12 960.11,-254.3"/>
</g>
<!-- Node9 -->
<g id="node9" class="node">
<title>Node9</title>
<g id="a_node9"><a xlink:href="pair_8h.html" target="_top" xlink:title=" ">
<polygon fill="white" stroke="black" points="200.5,-560.5 200.5,-579.5 275.5,-579.5 275.5,-560.5 200.5,-560.5"/>
<text text-anchor="middle" x="238" y="-567.5" font-family="Helvetica,sans-Serif" font-size="10.00">splice/pair.h</text>
</a>
</g>
</g>
<!-- Node1&#45;&gt;Node9 -->
<g id="edge10" class="edge">
<title>Node1&#45;&gt;Node9</title>
<path fill="none" stroke="midnightblue" d="M798.86,-618.62C666.55,-607.39 395.63,-584.38 285.82,-575.06"/>
<polygon fill="midnightblue" stroke="midnightblue" points="285.97,-571.56 275.71,-574.2 285.37,-578.53 285.97,-571.56"/>
</g>
<!-- Node28 -->
<g id="node28" class="node">
<title>Node28</title>
<g id="a_node28"><a xlink:href="splotheap_8h.html" target="_top" xlink:title=" ">
<polygon fill="white" stroke="black" points="970.5,-560.5 970.5,-579.5 1075.5,-579.5 1075.5,-560.5 970.5,-560.5"/>
<text text-anchor="middle" x="1023" y="-567.5" font-family="Helvetica,sans-Serif" font-size="10.00">splice/splotheap.h</text>
</a>
</g>
</g>
<!-- Node1&#45;&gt;Node28 -->
<g id="edge52" class="edge">
<title>Node1&#45;&gt;Node28</title>
<path fill="none" stroke="midnightblue" d="M897.61,-616.44C922.46,-607.44 961.77,-593.19 989.75,-583.05"/>
<polygon fill="midnightblue" stroke="midnightblue" points="991.29,-586.21 999.5,-579.52 988.91,-579.63 991.29,-586.21"/>
</g>
<!-- Node29 -->
<g id="node29" class="node">
<title>Node29</title>
<g id="a_node29"><a xlink:href="vecmat_8h.html" target="_top" xlink:title=" ">
<polygon fill="white" stroke="black" points="757,-504.5 757,-523.5 851,-523.5 851,-504.5 757,-504.5"/>
<text text-anchor="middle" x="804" y="-511.5" font-family="Helvetica,sans-Serif" font-size="10.00">splice/vecmat.h</text>
</a>
</g>
</g>
<!-- Node1&#45;&gt;Node29 -->
<g id="edge54" class="edge">
<title>Node1&#45;&gt;Node29</title>
<path fill="none" stroke="midnightblue" d="M868.51,-616.37C857.01,-598.3 830.2,-556.18 815.01,-532.31"/>
<polygon fill="midnightblue" stroke="midnightblue" points="817.79,-530.15 809.47,-523.59 811.88,-533.91 817.79,-530.15"/>
</g>
<!-- Node3 -->
<g id="node3" class="node">
<title>Node3</title>
<g id="a_node3"><a xlink:href="include__asm_8h.html" target="_top" xlink:title=" ">
<polygon fill="white" stroke="black" points="266.5,-0.5 266.5,-19.5 353.5,-19.5 353.5,-0.5 266.5,-0.5"/>
<text text-anchor="middle" x="310" y="-7.5" font-family="Helvetica,sans-Serif" font-size="10.00">include_asm.h</text>
</a>
</g>
</g>
<!-- Node2&#45;&gt;Node3 -->
<g id="edge2" class="edge">
<title>Node2&#45;&gt;Node3</title>
<path fill="none" stroke="midnightblue" d="M442.96,-56.44C416.38,-47.36 374.19,-32.94 344.48,-22.78"/>
<polygon fill="midnightblue" stroke="midnightblue" points="345.51,-19.44 334.92,-19.52 343.25,-26.06 345.51,-19.44"/>
</g>
<!-- Node4 -->
<g id="node4" class="node">
<title>Node4</title>
<g id="a_node4"><a xlink:href="include__rodata_8h.html" target="_top" xlink:title=" ">
<polygon fill="white" stroke="black" points="372,-0.5 372,-19.5 470,-19.5 470,-0.5 372,-0.5"/>
<text text-anchor="middle" x="421" y="-7.5" font-family="Helvetica,sans-Serif" font-size="10.00">include_rodata.h</text>
</a>
</g>
</g>
<!-- Node2&#45;&gt;Node4 -->
<g id="edge3" class="edge">
<title>Node2&#45;&gt;Node4</title>
<path fill="none" stroke="midnightblue" d="M460.24,-56.08C453.46,-48.3 443.46,-36.8 435.24,-27.37"/>
<polygon fill="midnightblue" stroke="midnightblue" points="437.82,-25 428.62,-19.75 432.54,-29.59 437.82,-25"/>
</g>
<!-- Node5 -->
<g id="node5" class="node">
<title>Node5</title>
<g id="a_node5"><a xlink:href="types_8h.html" target="_top" xlink:title="Types used throughout the engine.">
<polygon fill="white" stroke="black" points="488.5,-0.5 488.5,-19.5 541.5,-19.5 541.5,-0.5 488.5,-0.5"/>
<text text-anchor="middle" x="515" y="-7.5" font-family="Helvetica,sans-Serif" font-size="10.00">types.h</text>
</a>
</g>
</g>
<!-- Node2&#45;&gt;Node5 -->
<g id="edge4" class="edge">
<title>Node2&#45;&gt;Node5</title>
<path fill="none" stroke="midnightblue" d="M475.76,-56.08C482.54,-48.3 492.54,-36.8 500.76,-27.37"/>
<polygon fill="midnightblue" stroke="midnightblue" points="503.46,-29.59 507.38,-19.75 498.18,-25 503.46,-29.59"/>
</g>
<!-- Node6 -->
<g id="node6" class="node">
<title>Node6</title>
<g id="a_node6"><a xlink:href="vtables_8h.html" target="_top" xlink:title=" ">
<polygon fill="white" stroke="black" points="560,-0.5 560,-19.5 622,-19.5 622,-0.5 560,-0.5"/>
<text text-anchor="middle" x="591" y="-7.5" font-family="Helvetica,sans-Serif" font-size="10.00">vtables.h</text>
</a>
</g>
</g>
<!-- Node2&#45;&gt;Node6 -->
<g id="edge5" class="edge">
<title>Node2&#45;&gt;Node6</title>
<path fill="none" stroke="midnightblue" d="M487.49,-56.44C507.64,-47.6 539.32,-33.69 562.33,-23.59"/>
<polygon fill="midnightblue" stroke="midnightblue" points="563.85,-26.74 571.6,-19.52 561.04,-20.33 563.85,-26.74"/>
</g>
<!-- Node7&#45;&gt;Node2 -->
<g id="edge7" class="edge">
<title>Node7&#45;&gt;Node2</title>
<path fill="none" stroke="midnightblue" d="M758.77,-168.17C751.41,-153.86 734.83,-125.81 712,-112 679.07,-92.09 573.26,-78.05 512.33,-71.39"/>
<polygon fill="midnightblue" stroke="midnightblue" points="512.55,-67.89 502.23,-70.3 511.8,-74.85 512.55,-67.89"/>
</g>
<!-- Node8&#45;&gt;Node2 -->
<g id="edge9" class="edge">
<title>Node8&#45;&gt;Node2</title>
<path fill="none" stroke="midnightblue" d="M960.43,-224.39C953.11,-201.52 929.79,-139.19 886,-112 824.44,-73.78 606.92,-67.78 512.4,-67.01"/>
<polygon fill="midnightblue" stroke="midnightblue" points="512.32,-63.51 502.3,-66.94 512.28,-70.51 512.32,-63.51"/>
</g>
<!-- Node9&#45;&gt;Node2 -->
<g id="edge11" class="edge">
<title>Node9&#45;&gt;Node2</title>
<path fill="none" stroke="midnightblue" d="M200.38,-565.23C142.45,-557.11 38,-532.31 38,-459 38,-459 38,-459 38,-177 38,-138.87 60.35,-129.94 94,-112 150.22,-82.03 337.49,-71.62 423.77,-68.35"/>
<polygon fill="midnightblue" stroke="midnightblue" points="423.91,-71.84 433.78,-67.98 423.66,-64.85 423.91,-71.84"/>
</g>
<!-- Node10 -->
<g id="node10" class="node">
<title>Node10</title>
<g id="a_node10"><a xlink:href="ref_8h.html" target="_top" xlink:title=" ">
<polygon fill="white" stroke="black" points="203,-504.5 203,-523.5 273,-523.5 273,-504.5 203,-504.5"/>
<text text-anchor="middle" x="238" y="-511.5" font-family="Helvetica,sans-Serif" font-size="10.00">splice/ref.h</text>
</a>
</g>
</g>
<!-- Node9&#45;&gt;Node10 -->
<g id="edge12" class="edge">
<title>Node9&#45;&gt;Node10</title>
<path fill="none" stroke="midnightblue" d="M238,-560.08C238,-553.01 238,-542.86 238,-533.99"/>
<polygon fill="midnightblue" stroke="midnightblue" points="241.5,-533.75 238,-523.75 234.5,-533.75 241.5,-533.75"/>
</g>
<!-- Node10&#45;&gt;Node2 -->
<g id="edge13" class="edge">
<title>Node10&#45;&gt;Node2</title>
<path fill="none" stroke="midnightblue" d="M202.85,-505.65C155.2,-493.39 76,-463.85 76,-403 76,-403 76,-403 76,-177 76,-138.87 98.47,-130.16 132,-112 181.47,-85.21 344.42,-73.34 423.78,-69.04"/>
<polygon fill="midnightblue" stroke="midnightblue" points="424.15,-72.53 433.95,-68.51 423.78,-65.54 424.15,-72.53"/>
</g>
<!-- Node11 -->
<g id="node11" class="node">
<title>Node11</title>
<g id="a_node11"><a xlink:href="proc_8h.html" target="_top" xlink:title=" ">
<polygon fill="white" stroke="black" points="104,-392.5 104,-411.5 182,-411.5 182,-392.5 104,-392.5"/>
<text text-anchor="middle" x="143" y="-399.5" font-family="Helvetica,sans-Serif" font-size="10.00">splice/proc.h</text>
</a>
</g>
</g>
<!-- Node10&#45;&gt;Node11 -->
<g id="edge14" class="edge">
<title>Node10&#45;&gt;Node11</title>
<path fill="none" stroke="midnightblue" d="M228.42,-504.43C218.82,-495.65 203.8,-481.42 192,-468 178.35,-452.48 164.31,-433.48 154.77,-420.04"/>
<polygon fill="midnightblue" stroke="midnightblue" points="157.56,-417.91 148.95,-411.73 151.82,-421.93 157.56,-417.91"/>
</g>
<!-- Node12 -->
<g id="node12" class="node">
<title>Node12</title>
<g id="a_node12"><a xlink:href="method_8h.html" target="_top" xlink:title=" ">
<polygon fill="white" stroke="black" points="142.5,-336.5 142.5,-355.5 237.5,-355.5 237.5,-336.5 142.5,-336.5"/>
<text text-anchor="middle" x="190" y="-343.5" font-family="Helvetica,sans-Serif" font-size="10.00">splice/method.h</text>
</a>
</g>
</g>
<!-- Node10&#45;&gt;Node12 -->
<g id="edge16" class="edge">
<title>Node10&#45;&gt;Node12</title>
<path fill="none" stroke="midnightblue" d="M235.42,-504.08C227.86,-477.95 205.68,-401.21 195.37,-365.58"/>
<polygon fill="midnightblue" stroke="midnightblue" points="198.62,-364.2 192.48,-355.57 191.89,-366.15 198.62,-364.2"/>
</g>
<!-- Node13 -->
<g id="node13" class="node">
<title>Node13</title>
<g id="a_node13"><a xlink:href="bif_8h.html" target="_top" xlink:title=" ">
<polygon fill="white" stroke="black" points="234.5,-448.5 234.5,-467.5 303.5,-467.5 303.5,-448.5 234.5,-448.5"/>
<text text-anchor="middle" x="269" y="-455.5" font-family="Helvetica,sans-Serif" font-size="10.00">splice/bif.h</text>
</a>
</g>
</g>
<!-- Node10&#45;&gt;Node13 -->
<g id="edge18" class="edge">
<title>Node10&#45;&gt;Node13</title>
<path fill="none" stroke="midnightblue" d="M243.12,-504.08C247.41,-496.61 253.66,-485.72 258.94,-476.52"/>
<polygon fill="midnightblue" stroke="midnightblue" points="262.03,-478.17 263.98,-467.75 255.96,-474.68 262.03,-478.17"/>
</g>
<!-- Node14 -->
<g id="node14" class="node">
<title>Node14</title>
<g id="a_node14"><a xlink:href="basic_8h.html" target="_top" xlink:title="Basic object.">
<polygon fill="white" stroke="black" points="317.5,-168.5 317.5,-187.5 368.5,-187.5 368.5,-168.5 317.5,-168.5"/>
<text text-anchor="middle" x="343" y="-175.5" font-family="Helvetica,sans-Serif" font-size="10.00">basic.h</text>
</a>
</g>
</g>
<!-- Node10&#45;&gt;Node14 -->
<g id="edge20" class="edge">
<title>Node10&#45;&gt;Node14</title>
<path fill="none" stroke="midnightblue" d="M260.81,-504.35C277.25,-497.02 298.79,-484.97 312,-468 330.57,-444.15 332,-433.23 332,-403 332,-403 332,-403 332,-289 332,-256.79 336.73,-219.53 339.98,-197.69"/>
<polygon fill="midnightblue" stroke="midnightblue" points="343.49,-197.95 341.56,-187.53 336.57,-196.87 343.49,-197.95"/>
</g>
<!-- Node16 -->
<g id="node16" class="node">
<title>Node16</title>
<g id="a_node16"><a xlink:href="util_8h.html" target="_top" xlink:title="Utility functions.">
<polygon fill="white" stroke="black" points="678.5,-448.5 678.5,-467.5 719.5,-467.5 719.5,-448.5 678.5,-448.5"/>
<text text-anchor="middle" x="699" y="-455.5" font-family="Helvetica,sans-Serif" font-size="10.00">util.h</text>
</a>
</g>
</g>
<!-- Node10&#45;&gt;Node16 -->
<g id="edge24" class="edge">
<title>Node10&#45;&gt;Node16</title>
<path fill="none" stroke="midnightblue" d="M273.03,-508.9C360.19,-498.69 585.73,-472.27 668.21,-462.61"/>
<polygon fill="midnightblue" stroke="midnightblue" points="668.68,-466.08 678.2,-461.44 667.86,-459.12 668.68,-466.08"/>
</g>
<!-- Node11&#45;&gt;Node2 -->
<g id="edge15" class="edge">
<title>Node11&#45;&gt;Node2</title>
<path fill="none" stroke="midnightblue" d="M139.09,-392.36C131.17,-374.07 114,-329.91 114,-291 114,-291 114,-291 114,-177 114,-139.72 134.61,-130.44 167,-112 209.94,-87.55 350.83,-74.81 423.6,-69.71"/>
<polygon fill="midnightblue" stroke="midnightblue" points="424.09,-73.19 433.83,-69.02 423.61,-66.21 424.09,-73.19"/>
</g>
<!-- Node12&#45;&gt;Node2 -->
<g id="edge17" class="edge">
<title>Node12&#45;&gt;Node2</title>
<path fill="none" stroke="midnightblue" d="M186.49,-336.32C179.4,-317.96 164,-273.66 164,-235 164,-235 164,-235 164,-177 164,-146.2 164.21,-131.56 188,-112 223.22,-83.04 354.08,-72.43 423.72,-68.77"/>
<polygon fill="midnightblue" stroke="midnightblue" points="424.13,-72.26 433.94,-68.27 423.78,-65.27 424.13,-72.26"/>
</g>
<!-- Node13&#45;&gt;Node2 -->
<g id="edge19" class="edge">
<title>Node13&#45;&gt;Node2</title>
<path fill="none" stroke="midnightblue" d="M268.02,-448.39C262.72,-400.29 239.41,-165.21 283,-112 300.6,-90.52 374.81,-77.85 423.73,-71.68"/>
<polygon fill="midnightblue" stroke="midnightblue" points="424.25,-75.14 433.75,-70.46 423.4,-68.19 424.25,-75.14"/>
</g>
<!-- Node14&#45;&gt;Node2 -->
<g id="edge21" class="edge">
<title>Node14&#45;&gt;Node2</title>
<path fill="none" stroke="midnightblue" d="M329.23,-168.43C310.72,-155.84 281.81,-131.71 297,-112 312.42,-92 378.67,-79.12 424.03,-72.47"/>
<polygon fill="midnightblue" stroke="midnightblue" points="424.53,-75.93 433.94,-71.06 423.54,-69 424.53,-75.93"/>
</g>
<!-- Node15 -->
<g id="node15" class="node">
<title>Node15</title>
<g id="a_node15"><a xlink:href="sidebag_8h.html" target="_top" xlink:title="Sidebag for splice.">
<polygon fill="white" stroke="black" points="306.5,-112.5 306.5,-131.5 401.5,-131.5 401.5,-112.5 306.5,-112.5"/>
<text text-anchor="middle" x="354" y="-119.5" font-family="Helvetica,sans-Serif" font-size="10.00">splice/sidebag.h</text>
</a>
</g>
</g>
<!-- Node14&#45;&gt;Node15 -->
<g id="edge22" class="edge">
<title>Node14&#45;&gt;Node15</title>
<path fill="none" stroke="midnightblue" d="M344.82,-168.08C346.27,-160.93 348.37,-150.64 350.19,-141.69"/>
<polygon fill="midnightblue" stroke="midnightblue" points="353.65,-142.25 352.22,-131.75 346.79,-140.85 353.65,-142.25"/>
</g>
<!-- Node15&#45;&gt;Node2 -->
<g id="edge23" class="edge">
<title>Node15&#45;&gt;Node2</title>
<path fill="none" stroke="midnightblue" d="M372.06,-112.44C390.57,-103.68 419.58,-89.94 440.86,-79.86"/>
<polygon fill="midnightblue" stroke="midnightblue" points="442.48,-82.96 450.02,-75.52 439.49,-76.63 442.48,-82.96"/>
</g>
<!-- Node16&#45;&gt;Node2 -->
<g id="edge25" class="edge">
<title>Node16&#45;&gt;Node2</title>
<path fill="none" stroke="midnightblue" d="M698.08,-448.45C696.19,-429.97 692,-384.89 692,-347 692,-347 692,-347 692,-233 692,-177.26 699.1,-150.72 659,-112 638.35,-92.06 562.13,-78.87 512.44,-72.19"/>
<polygon fill="midnightblue" stroke="midnightblue" points="512.64,-68.68 502.27,-70.86 511.73,-75.63 512.64,-68.68"/>
</g>
<!-- Node17 -->
<g id="node17" class="node">
<title>Node17</title>
<g id="a_node17"><a xlink:href="mat_8h.html" target="_top" xlink:title="3x3 and 4x4 matrix types.">
<polygon fill="white" stroke="black" points="781.5,-392.5 781.5,-411.5 826.5,-411.5 826.5,-392.5 781.5,-392.5"/>
<text text-anchor="middle" x="804" y="-399.5" font-family="Helvetica,sans-Serif" font-size="10.00">mat.h</text>
</a>
</g>
</g>
<!-- Node16&#45;&gt;Node17 -->
<g id="edge26" class="edge">
<title>Node16&#45;&gt;Node17</title>
<path fill="none" stroke="midnightblue" d="M715.87,-448.32C732.71,-439.66 758.81,-426.24 778.24,-416.25"/>
<polygon fill="midnightblue" stroke="midnightblue" points="779.88,-419.34 787.17,-411.65 776.68,-413.12 779.88,-419.34"/>
</g>
<!-- Node18 -->
<g id="node18" class="node">
<title>Node18</title>
<g id="a_node18"><a xlink:href="vec_8h.html" target="_top" xlink:title="Vector math functions.">
<polygon fill="white" stroke="black" points="720.5,-392.5 720.5,-411.5 763.5,-411.5 763.5,-392.5 720.5,-392.5"/>
<text text-anchor="middle" x="742" y="-399.5" font-family="Helvetica,sans-Serif" font-size="10.00">vec.h</text>
</a>
</g>
</g>
<!-- Node16&#45;&gt;Node18 -->
<g id="edge27" class="edge">
<title>Node16&#45;&gt;Node18</title>
<path fill="none" stroke="midnightblue" d="M706.1,-448.08C712.24,-440.38 721.27,-429.03 728.74,-419.65"/>
<polygon fill="midnightblue" stroke="midnightblue" points="731.54,-421.75 735.03,-411.75 726.06,-417.39 731.54,-421.75"/>
</g>
<!-- Node26 -->
<g id="node26" class="node">
<title>Node26</title>
<g id="a_node26"><a xlink:href="sm_8h.html" target="_top" xlink:title="State machines.">
<polygon fill="white" stroke="black" points="470.5,-336.5 470.5,-355.5 511.5,-355.5 511.5,-336.5 470.5,-336.5"/>
<text text-anchor="middle" x="491" y="-343.5" font-family="Helvetica,sans-Serif" font-size="10.00">sm.h</text>
</a>
</g>
</g>
<!-- Node16&#45;&gt;Node26 -->
<g id="edge45" class="edge">
<title>Node16&#45;&gt;Node26</title>
<path fill="none" stroke="midnightblue" d="M682.68,-448.37C646.53,-429.25 559.51,-383.23 516.26,-360.36"/>
<polygon fill="midnightblue" stroke="midnightblue" points="517.72,-357.17 507.25,-355.59 514.45,-363.36 517.72,-357.17"/>
</g>
<!-- Node19 -->
<g id="node19" class="node">
<title>Node19</title>
<g id="a_node19"><a xlink:href="so_8h.html" target="_top" xlink:title="Scene objects.">
<polygon fill="white" stroke="black" points="722.5,-336.5 722.5,-355.5 759.5,-355.5 759.5,-336.5 722.5,-336.5"/>
<text text-anchor="middle" x="741" y="-343.5" font-family="Helvetica,sans-Serif" font-size="10.00">so.h</text>
</a>
</g>
</g>
<!-- Node18&#45;&gt;Node19 -->
<g id="edge28" class="edge">
<title>Node18&#45;&gt;Node19</title>
<path fill="none" stroke="midnightblue" d="M741.83,-392.08C741.7,-385.01 741.52,-374.86 741.35,-365.99"/>
<polygon fill="midnightblue" stroke="midnightblue" points="744.85,-365.68 741.16,-355.75 737.85,-365.81 744.85,-365.68"/>
</g>
<!-- Node20 -->
<g id="node20" class="node">
<title>Node20</title>
<g id="a_node20"><a xlink:href="alo_8h.html" target="_top" xlink:title=" ">
<polygon fill="white" stroke="black" points="720.5,-280.5 720.5,-299.5 761.5,-299.5 761.5,-280.5 720.5,-280.5"/>
<text text-anchor="middle" x="741" y="-287.5" font-family="Helvetica,sans-Serif" font-size="10.00">alo.h</text>
</a>
</g>
</g>
<!-- Node19&#45;&gt;Node20 -->
<g id="edge29" class="edge">
<title>Node19&#45;&gt;Node20</title>
<path fill="none" stroke="midnightblue" d="M741,-336.08C741,-329.01 741,-318.86 741,-309.99"/>
<polygon fill="midnightblue" stroke="midnightblue" points="744.5,-309.75 741,-299.75 737.5,-309.75 744.5,-309.75"/>
</g>
<!-- Node20&#45;&gt;Node2 -->
<g id="edge30" class="edge">
<title>Node20&#45;&gt;Node2</title>
<path fill="none" stroke="midnightblue" d="M753.3,-280.45C779.67,-261.02 837.48,-211.82 815,-168 795.52,-130.03 776.4,-128.39 737,-112 662.04,-80.82 566.83,-71.22 512.12,-68.28"/>
<polygon fill="midnightblue" stroke="midnightblue" points="512.22,-64.78 502.06,-67.79 511.88,-71.77 512.22,-64.78"/>
</g>
<!-- Node21 -->
<g id="node21" class="node">
<title>Node21</title>
<g id="a_node21"><a xlink:href="lo_8h.html" target="_top" xlink:title="Level objects.">
<polygon fill="white" stroke="black" points="544.5,-224.5 544.5,-243.5 579.5,-243.5 579.5,-224.5 544.5,-224.5"/>
<text text-anchor="middle" x="562" y="-231.5" font-family="Helvetica,sans-Serif" font-size="10.00">lo.h</text>
</a>
</g>
</g>
<!-- Node20&#45;&gt;Node21 -->
<g id="edge31" class="edge">
<title>Node20&#45;&gt;Node21</title>
<path fill="none" stroke="midnightblue" d="M720.47,-282.81C688.2,-273.07 625.61,-254.19 589.49,-243.29"/>
<polygon fill="midnightblue" stroke="midnightblue" points="590.21,-239.86 579.63,-240.32 588.19,-246.56 590.21,-239.86"/>
</g>
<!-- Node23 -->
<g id="node23" class="node">
<title>Node23</title>
<g id="a_node23"><a xlink:href="dl_8h.html" target="_top" xlink:title=" ">
<polygon fill="white" stroke="black" points="628.5,-168.5 628.5,-187.5 663.5,-187.5 663.5,-168.5 628.5,-168.5"/>
<text text-anchor="middle" x="646" y="-175.5" font-family="Helvetica,sans-Serif" font-size="10.00">dl.h</text>
</a>
</g>
</g>
<!-- Node20&#45;&gt;Node23 -->
<g id="edge44" class="edge">
<title>Node20&#45;&gt;Node23</title>
<path fill="none" stroke="midnightblue" d="M733.55,-280.37C717.73,-262.05 680.59,-219.05 660.13,-195.36"/>
<polygon fill="midnightblue" stroke="midnightblue" points="662.6,-192.87 653.42,-187.59 657.31,-197.45 662.6,-192.87"/>
</g>
<!-- Node21&#45;&gt;Node2 -->
<g id="edge32" class="edge">
<title>Node21&#45;&gt;Node2</title>
<path fill="none" stroke="midnightblue" d="M563,-224.19C564.94,-202.91 567.13,-147.8 543,-112 533.32,-97.64 517.39,-87.15 502.69,-79.92"/>
<polygon fill="midnightblue" stroke="midnightblue" points="503.84,-76.6 493.29,-75.64 500.93,-82.97 503.84,-76.6"/>
</g>
<!-- Node21&#45;&gt;Node7 -->
<g id="edge41" class="edge">
<title>Node21&#45;&gt;Node7</title>
<path fill="none" stroke="midnightblue" d="M579.84,-228.21C611.39,-219.73 677.83,-201.88 721.41,-190.17"/>
<polygon fill="midnightblue" stroke="midnightblue" points="722.4,-193.53 731.15,-187.56 720.59,-186.77 722.4,-193.53"/>
</g>
<!-- Node21&#45;&gt;Node14 -->
<g id="edge35" class="edge">
<title>Node21&#45;&gt;Node14</title>
<path fill="none" stroke="midnightblue" d="M544.45,-228.67C508.52,-219.81 425.96,-199.46 378.44,-187.74"/>
<polygon fill="midnightblue" stroke="midnightblue" points="379.12,-184.3 368.57,-185.31 377.45,-191.1 379.12,-184.3"/>
</g>
<!-- Node22 -->
<g id="node22" class="node">
<title>Node22</title>
<g id="a_node22"><a xlink:href="oid_8h.html" target="_top" xlink:title="Object IDs.">
<polygon fill="white" stroke="black" points="590.5,-112.5 590.5,-131.5 631.5,-131.5 631.5,-112.5 590.5,-112.5"/>
<text text-anchor="middle" x="611" y="-119.5" font-family="Helvetica,sans-Serif" font-size="10.00">oid.h</text>
</a>
</g>
</g>
<!-- Node21&#45;&gt;Node22 -->
<g id="edge33" class="edge">
<title>Node21&#45;&gt;Node22</title>
<path fill="none" stroke="midnightblue" d="M565.84,-224.37C573.82,-206.46 592.33,-164.92 603,-140.95"/>
<polygon fill="midnightblue" stroke="midnightblue" points="606.3,-142.15 607.17,-131.59 599.91,-139.3 606.3,-142.15"/>
</g>
<!-- Node21&#45;&gt;Node23 -->
<g id="edge36" class="edge">
<title>Node21&#45;&gt;Node23</title>
<path fill="none" stroke="midnightblue" d="M575.5,-224.32C588.6,-215.9 608.71,-202.97 624.11,-193.07"/>
<polygon fill="midnightblue" stroke="midnightblue" points="626.02,-196.01 632.54,-187.65 622.23,-190.12 626.02,-196.01"/>
</g>
<!-- Node24 -->
<g id="node24" class="node">
<title>Node24</title>
<g id="a_node24"><a xlink:href="sw_8h.html" target="_top" xlink:title="Scene world?">
<polygon fill="white" stroke="black" points="496,-112.5 496,-131.5 534,-131.5 534,-112.5 496,-112.5"/>
<text text-anchor="middle" x="515" y="-119.5" font-family="Helvetica,sans-Serif" font-size="10.00">sw.h</text>
</a>
</g>
</g>
<!-- Node21&#45;&gt;Node24 -->
<g id="edge39" class="edge">
<title>Node21&#45;&gt;Node24</title>
<path fill="none" stroke="midnightblue" d="M558.31,-224.37C550.66,-206.46 532.91,-164.92 522.67,-140.95"/>
<polygon fill="midnightblue" stroke="midnightblue" points="525.82,-139.41 518.67,-131.59 519.38,-142.16 525.82,-139.41"/>
</g>
<!-- Node25 -->
<g id="node25" class="node">
<title>Node25</title>
<g id="a_node25"><a xlink:href="mq_8h.html" target="_top" xlink:title="Message queue(?).">
<polygon fill="white" stroke="black" points="454.5,-168.5 454.5,-187.5 495.5,-187.5 495.5,-168.5 454.5,-168.5"/>
<text text-anchor="middle" x="475" y="-175.5" font-family="Helvetica,sans-Serif" font-size="10.00">mq.h</text>
</a>
</g>
</g>
<!-- Node21&#45;&gt;Node25 -->
<g id="edge42" class="edge">
<title>Node21&#45;&gt;Node25</title>
<path fill="none" stroke="midnightblue" d="M548.02,-224.32C534.45,-215.9 513.62,-202.97 497.68,-193.07"/>
<polygon fill="midnightblue" stroke="midnightblue" points="499.29,-189.95 488.94,-187.65 495.59,-195.9 499.29,-189.95"/>
</g>
<!-- Node22&#45;&gt;Node2 -->
<g id="edge34" class="edge">
<title>Node22&#45;&gt;Node2</title>
<path fill="none" stroke="midnightblue" d="M590.21,-113.15C566.61,-104.24 527.84,-89.6 500.3,-79.2"/>
<polygon fill="midnightblue" stroke="midnightblue" points="501.3,-75.83 490.71,-75.58 498.83,-82.38 501.3,-75.83"/>
</g>
<!-- Node23&#45;&gt;Node2 -->
<g id="edge37" class="edge">
<title>Node23&#45;&gt;Node2</title>
<path fill="none" stroke="midnightblue" d="M648.04,-168.24C650.69,-154.52 653.49,-127.9 640,-112 623.62,-92.69 557.57,-79.64 512.26,-72.77"/>
<polygon fill="midnightblue" stroke="midnightblue" points="512.77,-69.31 502.36,-71.31 511.75,-76.23 512.77,-69.31"/>
</g>
<!-- Node23&#45;&gt;Node22 -->
<g id="edge38" class="edge">
<title>Node23&#45;&gt;Node22</title>
<path fill="none" stroke="midnightblue" d="M640.22,-168.08C635.33,-160.53 628.17,-149.49 622.17,-140.23"/>
<polygon fill="midnightblue" stroke="midnightblue" points="625.05,-138.24 616.67,-131.75 619.17,-142.05 625.05,-138.24"/>
</g>
<!-- Node24&#45;&gt;Node2 -->
<g id="edge40" class="edge">
<title>Node24&#45;&gt;Node2</title>
<path fill="none" stroke="midnightblue" d="M507.24,-112.08C500.46,-104.3 490.46,-92.8 482.24,-83.37"/>
<polygon fill="midnightblue" stroke="midnightblue" points="484.82,-81 475.62,-75.75 479.54,-85.59 484.82,-81"/>
</g>
<!-- Node25&#45;&gt;Node2 -->
<g id="edge43" class="edge">
<title>Node25&#45;&gt;Node2</title>
<path fill="none" stroke="midnightblue" d="M474.45,-168.37C473.32,-150.62 470.72,-109.67 469.18,-85.6"/>
<polygon fill="midnightblue" stroke="midnightblue" points="472.67,-85.35 468.55,-75.59 465.69,-85.79 472.67,-85.35"/>
</g>
<!-- Node26&#45;&gt;Node2 -->
<g id="edge46" class="edge">
<title>Node26&#45;&gt;Node2</title>
<path fill="none" stroke="midnightblue" d="M470.35,-337C451.84,-329.24 424.53,-316.26 404,-300 333.06,-243.83 303.73,-221.28 289,-132 287.55,-123.23 283.53,-119.01 289,-112 305.43,-90.93 376.41,-78.21 423.9,-71.91"/>
<polygon fill="midnightblue" stroke="midnightblue" points="424.47,-75.37 433.95,-70.63 423.58,-68.42 424.47,-75.37"/>
</g>
<!-- Node26&#45;&gt;Node23 -->
<g id="edge47" class="edge">
<title>Node26&#45;&gt;Node23</title>
<path fill="none" stroke="midnightblue" d="M499.41,-336.45C516.37,-319.18 555.79,-278.79 588,-244 603.17,-227.61 620.14,-208.51 631.78,-195.27"/>
<polygon fill="midnightblue" stroke="midnightblue" points="634.63,-197.33 638.59,-187.5 629.36,-192.71 634.63,-197.33"/>
</g>
<!-- Node26&#45;&gt;Node25 -->
<g id="edge51" class="edge">
<title>Node26&#45;&gt;Node25</title>
<path fill="none" stroke="midnightblue" d="M490.14,-336.08C487.62,-309.95 480.23,-233.21 476.79,-197.58"/>
<polygon fill="midnightblue" stroke="midnightblue" points="480.27,-197.19 475.83,-187.57 473.3,-197.86 480.27,-197.19"/>
</g>
<!-- Node27 -->
<g id="node27" class="node">
<title>Node27</title>
<g id="a_node27"><a xlink:href="anim_8h.html" target="_top" xlink:title="Animation.">
<polygon fill="white" stroke="black" points="413,-280.5 413,-299.5 463,-299.5 463,-280.5 413,-280.5"/>
<text text-anchor="middle" x="438" y="-287.5" font-family="Helvetica,sans-Serif" font-size="10.00">anim.h</text>
</a>
</g>
</g>
<!-- Node26&#45;&gt;Node27 -->
<g id="edge48" class="edge">
<title>Node26&#45;&gt;Node27</title>
<path fill="none" stroke="midnightblue" d="M482.25,-336.08C474.53,-328.22 463.1,-316.57 453.78,-307.08"/>
<polygon fill="midnightblue" stroke="midnightblue" points="456.09,-304.44 446.59,-299.75 451.1,-309.34 456.09,-304.44"/>
</g>
<!-- Node27&#45;&gt;Node2 -->
<g id="edge49" class="edge">
<title>Node27&#45;&gt;Node2</title>
<path fill="none" stroke="midnightblue" d="M438.01,-280.44C438.13,-260.59 439.06,-209.88 445,-168 449.15,-138.7 457.47,-105.35 462.88,-85.25"/>
<polygon fill="midnightblue" stroke="midnightblue" points="466.27,-86.13 465.54,-75.56 459.52,-84.27 466.27,-86.13"/>
</g>
<!-- Node27&#45;&gt;Node21 -->
<g id="edge50" class="edge">
<title>Node27&#45;&gt;Node21</title>
<path fill="none" stroke="midnightblue" d="M457.65,-280.44C478.56,-271.34 511.79,-256.86 535.12,-246.71"/>
<polygon fill="midnightblue" stroke="midnightblue" points="536.68,-249.84 544.45,-242.64 533.88,-243.43 536.68,-249.84"/>
</g>
<!-- Node28&#45;&gt;Node2 -->
<g id="edge53" class="edge">
<title>Node28&#45;&gt;Node2</title>
<path fill="none" stroke="midnightblue" d="M1023.26,-560.44C1023.8,-541.94 1025,-496.82 1025,-459 1025,-459 1025,-459 1025,-177 1025,-72.63 643.86,-65.66 512.14,-66.37"/>
<polygon fill="midnightblue" stroke="midnightblue" points="511.98,-62.87 502,-66.44 512.03,-69.87 511.98,-62.87"/>
</g>
<!-- Node29&#45;&gt;Node2 -->
<g id="edge55" class="edge">
<title>Node29&#45;&gt;Node2</title>
<path fill="none" stroke="midnightblue" d="M812.45,-504.44C828.77,-486.96 863,-445.26 863,-403 863,-403 863,-403 863,-289 863,-201.15 853.68,-151.08 775,-112 729.76,-89.53 586.07,-75.83 512.43,-70.11"/>
<polygon fill="midnightblue" stroke="midnightblue" points="512.33,-66.6 502.1,-69.33 511.8,-73.58 512.33,-66.6"/>
</g>
<!-- Node29&#45;&gt;Node16 -->
<g id="edge58" class="edge">
<title>Node29&#45;&gt;Node16</title>
<path fill="none" stroke="midnightblue" d="M787.13,-504.32C770.29,-495.66 744.19,-482.24 724.76,-472.25"/>
<polygon fill="midnightblue" stroke="midnightblue" points="726.32,-469.12 715.83,-467.65 723.12,-475.34 726.32,-469.12"/>
</g>
<!-- Node29&#45;&gt;Node17 -->
<g id="edge57" class="edge">
<title>Node29&#45;&gt;Node17</title>
<path fill="none" stroke="midnightblue" d="M804,-504.37C804,-486.62 804,-445.67 804,-421.6"/>
<polygon fill="midnightblue" stroke="midnightblue" points="807.5,-421.59 804,-411.59 800.5,-421.59 807.5,-421.59"/>
</g>
<!-- Node29&#45;&gt;Node18 -->
<g id="edge56" class="edge">
<title>Node29&#45;&gt;Node18</title>
<path fill="none" stroke="midnightblue" d="M799.13,-504.37C788.95,-486.3 765.21,-444.18 751.76,-420.31"/>
<polygon fill="midnightblue" stroke="midnightblue" points="754.8,-418.58 746.84,-411.59 748.7,-422.02 754.8,-418.58"/>
</g>
</g>
</svg>
