<?xml version="1.0" encoding="UTF-8" standalone="no"?>
<!DOCTYPE svg PUBLIC "-//W3C//DTD SVG 1.1//EN"
 "http://www.w3.org/Graphics/SVG/1.1/DTD/svg11.dtd">
<!-- Generated by graphviz version 2.43.0 (0)
 -->
<!-- Title: src/P2/steppower.c Pages: 1 -->
<svg width="830pt" height="644pt"
 viewBox="0.00 0.00 830.00 644.00" xmlns="http://www.w3.org/2000/svg" xmlns:xlink="http://www.w3.org/1999/xlink">
<g id="graph0" class="graph" transform="scale(1 1) rotate(0) translate(4 640)">
<title>src/P2/steppower.c</title>
<polygon fill="white" stroke="transparent" points="-4,4 -4,-640 826,-640 826,4 -4,4"/>
<!-- Node1 -->
<g id="node1" class="node">
<title>Node1</title>
<g id="a_node1"><a xlink:title=" ">
<polygon fill="#bfbfbf" stroke="black" points="645.5,-616.5 645.5,-635.5 752.5,-635.5 752.5,-616.5 645.5,-616.5"/>
<text text-anchor="middle" x="699" y="-623.5" font-family="Helvetica,sans-Serif" font-size="10.00">src/P2/steppower.c</text>
</a>
</g>
</g>
<!-- Node2 -->
<g id="node2" class="node">
<title>Node2</title>
<g id="a_node2"><a xlink:href="steppower_8h.html" target="_top" xlink:title=" ">
<polygon fill="white" stroke="black" points="628,-560.5 628,-579.5 704,-579.5 704,-560.5 628,-560.5"/>
<text text-anchor="middle" x="666" y="-567.5" font-family="Helvetica,sans-Serif" font-size="10.00">steppower.h</text>
</a>
</g>
</g>
<!-- Node1&#45;&gt;Node2 -->
<g id="edge1" class="edge">
<title>Node1&#45;&gt;Node2</title>
<path fill="none" stroke="midnightblue" d="M693.55,-616.08C688.99,-608.61 682.33,-597.72 676.71,-588.52"/>
<polygon fill="midnightblue" stroke="midnightblue" points="679.55,-586.46 671.35,-579.75 673.58,-590.11 679.55,-586.46"/>
</g>
<!-- Node24 -->
<g id="node24" class="node">
<title>Node24</title>
<g id="a_node24"><a xlink:href="game_8h.html" target="_top" xlink:title="Game state and level management.">
<polygon fill="white" stroke="black" points="744.5,-168.5 744.5,-187.5 797.5,-187.5 797.5,-168.5 744.5,-168.5"/>
<text text-anchor="middle" x="771" y="-175.5" font-family="Helvetica,sans-Serif" font-size="10.00">game.h</text>
</a>
</g>
</g>
<!-- Node1&#45;&gt;Node24 -->
<g id="edge40" class="edge">
<title>Node1&#45;&gt;Node24</title>
<path fill="none" stroke="midnightblue" d="M708.3,-616.28C725.82,-598.85 762,-557.69 762,-515 762,-515 762,-515 762,-289 762,-256.84 765.87,-219.57 768.53,-197.71"/>
<polygon fill="midnightblue" stroke="midnightblue" points="772.04,-197.9 769.82,-187.54 765.09,-197.02 772.04,-197.9"/>
</g>
<!-- Node3 -->
<g id="node3" class="node">
<title>Node3</title>
<g id="a_node3"><a xlink:href="common_8h.html" target="_top" xlink:title="Common header file.">
<polygon fill="white" stroke="black" points="310,-56.5 310,-75.5 378,-75.5 378,-56.5 310,-56.5"/>
<text text-anchor="middle" x="344" y="-63.5" font-family="Helvetica,sans-Serif" font-size="10.00">common.h</text>
</a>
</g>
</g>
<!-- Node2&#45;&gt;Node3 -->
<g id="edge2" class="edge">
<title>Node2&#45;&gt;Node3</title>
<path fill="none" stroke="midnightblue" d="M672.95,-560.48C686.69,-542.75 716,-500.12 716,-459 716,-459 716,-459 716,-177 716,-139.72 695.47,-130.31 663,-112 616.88,-85.99 464.47,-73.84 388.24,-69.27"/>
<polygon fill="midnightblue" stroke="midnightblue" points="388.19,-65.77 378,-68.68 387.78,-72.75 388.19,-65.77"/>
</g>
<!-- Node7 -->
<g id="node7" class="node">
<title>Node7</title>
<g id="a_node7"><a xlink:href="jt_8h.html" target="_top" xlink:title="Sly entity.">
<polygon fill="white" stroke="black" points="50,-504.5 50,-523.5 82,-523.5 82,-504.5 50,-504.5"/>
<text text-anchor="middle" x="66" y="-511.5" font-family="Helvetica,sans-Serif" font-size="10.00">jt.h</text>
</a>
</g>
</g>
<!-- Node2&#45;&gt;Node7 -->
<g id="edge6" class="edge">
<title>Node2&#45;&gt;Node7</title>
<path fill="none" stroke="midnightblue" d="M627.55,-565.54C514.98,-555.41 187.96,-525.98 92.47,-517.38"/>
<polygon fill="midnightblue" stroke="midnightblue" points="92.52,-513.87 82.25,-516.46 91.89,-520.84 92.52,-513.87"/>
</g>
<!-- Node20 -->
<g id="node20" class="node">
<title>Node20</title>
<g id="a_node20"><a xlink:href="joy_8h.html" target="_top" xlink:title="Joypad manager.">
<polygon fill="white" stroke="black" points="509.5,-504.5 509.5,-523.5 548.5,-523.5 548.5,-504.5 509.5,-504.5"/>
<text text-anchor="middle" x="529" y="-511.5" font-family="Helvetica,sans-Serif" font-size="10.00">joy.h</text>
</a>
</g>
</g>
<!-- Node2&#45;&gt;Node20 -->
<g id="edge33" class="edge">
<title>Node2&#45;&gt;Node20</title>
<path fill="none" stroke="midnightblue" d="M644.29,-560.44C621.11,-551.31 584.24,-536.77 558.45,-526.61"/>
<polygon fill="midnightblue" stroke="midnightblue" points="559.41,-523.23 548.83,-522.82 556.85,-529.74 559.41,-523.23"/>
</g>
<!-- Node4 -->
<g id="node4" class="node">
<title>Node4</title>
<g id="a_node4"><a xlink:href="include__asm_8h.html" target="_top" xlink:title=" ">
<polygon fill="white" stroke="black" points="189.5,-0.5 189.5,-19.5 276.5,-19.5 276.5,-0.5 189.5,-0.5"/>
<text text-anchor="middle" x="233" y="-7.5" font-family="Helvetica,sans-Serif" font-size="10.00">include_asm.h</text>
</a>
</g>
</g>
<!-- Node3&#45;&gt;Node4 -->
<g id="edge3" class="edge">
<title>Node3&#45;&gt;Node4</title>
<path fill="none" stroke="midnightblue" d="M326.17,-56.32C308.28,-47.62 280.52,-34.12 259.95,-24.11"/>
<polygon fill="midnightblue" stroke="midnightblue" points="261.31,-20.88 250.79,-19.65 258.25,-27.18 261.31,-20.88"/>
</g>
<!-- Node5 -->
<g id="node5" class="node">
<title>Node5</title>
<g id="a_node5"><a xlink:href="include__rodata_8h.html" target="_top" xlink:title=" ">
<polygon fill="white" stroke="black" points="295,-0.5 295,-19.5 393,-19.5 393,-0.5 295,-0.5"/>
<text text-anchor="middle" x="344" y="-7.5" font-family="Helvetica,sans-Serif" font-size="10.00">include_rodata.h</text>
</a>
</g>
</g>
<!-- Node3&#45;&gt;Node5 -->
<g id="edge4" class="edge">
<title>Node3&#45;&gt;Node5</title>
<path fill="none" stroke="midnightblue" d="M344,-56.08C344,-49.01 344,-38.86 344,-29.99"/>
<polygon fill="midnightblue" stroke="midnightblue" points="347.5,-29.75 344,-19.75 340.5,-29.75 347.5,-29.75"/>
</g>
<!-- Node6 -->
<g id="node6" class="node">
<title>Node6</title>
<g id="a_node6"><a xlink:href="types_8h.html" target="_top" xlink:title="Types used throughout the engine.">
<polygon fill="white" stroke="black" points="411.5,-0.5 411.5,-19.5 464.5,-19.5 464.5,-0.5 411.5,-0.5"/>
<text text-anchor="middle" x="438" y="-7.5" font-family="Helvetica,sans-Serif" font-size="10.00">types.h</text>
</a>
</g>
</g>
<!-- Node3&#45;&gt;Node6 -->
<g id="edge5" class="edge">
<title>Node3&#45;&gt;Node6</title>
<path fill="none" stroke="midnightblue" d="M359.1,-56.32C373.9,-47.82 396.69,-34.73 413.98,-24.8"/>
<polygon fill="midnightblue" stroke="midnightblue" points="416.01,-27.67 422.93,-19.65 412.52,-21.6 416.01,-27.67"/>
</g>
<!-- Node7&#45;&gt;Node3 -->
<g id="edge7" class="edge">
<title>Node7&#45;&gt;Node3</title>
<path fill="none" stroke="midnightblue" d="M56.26,-504.37C37.9,-487.1 0,-446.21 0,-403 0,-403 0,-403 0,-177 0,-140.28 19.3,-130.53 51,-112 92.4,-87.8 228.76,-74.99 299.91,-69.81"/>
<polygon fill="midnightblue" stroke="midnightblue" points="300.19,-73.3 309.92,-69.1 299.7,-66.31 300.19,-73.3"/>
</g>
<!-- Node8 -->
<g id="node8" class="node">
<title>Node8</title>
<g id="a_node8"><a xlink:href="step_8h.html" target="_top" xlink:title=" ">
<polygon fill="white" stroke="black" points="42.5,-448.5 42.5,-467.5 89.5,-467.5 89.5,-448.5 42.5,-448.5"/>
<text text-anchor="middle" x="66" y="-455.5" font-family="Helvetica,sans-Serif" font-size="10.00">step.h</text>
</a>
</g>
</g>
<!-- Node7&#45;&gt;Node8 -->
<g id="edge8" class="edge">
<title>Node7&#45;&gt;Node8</title>
<path fill="none" stroke="midnightblue" d="M66,-504.08C66,-497.01 66,-486.86 66,-477.99"/>
<polygon fill="midnightblue" stroke="midnightblue" points="69.5,-477.75 66,-467.75 62.5,-477.75 69.5,-477.75"/>
</g>
<!-- Node8&#45;&gt;Node3 -->
<g id="edge9" class="edge">
<title>Node8&#45;&gt;Node3</title>
<path fill="none" stroke="midnightblue" d="M62.22,-448.35C54.58,-430.03 38,-385.82 38,-347 38,-347 38,-347 38,-177 38,-142.11 52.68,-130.91 82,-112 117.25,-89.26 234.54,-76.13 299.59,-70.42"/>
<polygon fill="midnightblue" stroke="midnightblue" points="299.89,-73.91 309.56,-69.57 299.3,-66.93 299.89,-73.91"/>
</g>
<!-- Node9 -->
<g id="node9" class="node">
<title>Node9</title>
<g id="a_node9"><a xlink:href="po_8h.html" target="_top" xlink:title="Player object(?).">
<polygon fill="white" stroke="black" points="66,-392.5 66,-411.5 104,-411.5 104,-392.5 66,-392.5"/>
<text text-anchor="middle" x="85" y="-399.5" font-family="Helvetica,sans-Serif" font-size="10.00">po.h</text>
</a>
</g>
</g>
<!-- Node8&#45;&gt;Node9 -->
<g id="edge10" class="edge">
<title>Node8&#45;&gt;Node9</title>
<path fill="none" stroke="midnightblue" d="M69.14,-448.08C71.68,-440.85 75.36,-430.41 78.53,-421.4"/>
<polygon fill="midnightblue" stroke="midnightblue" points="81.9,-422.35 81.92,-411.75 75.3,-420.02 81.9,-422.35"/>
</g>
<!-- Node9&#45;&gt;Node3 -->
<g id="edge11" class="edge">
<title>Node9&#45;&gt;Node3</title>
<path fill="none" stroke="midnightblue" d="M84.08,-392.45C82.19,-373.97 78,-328.89 78,-291 78,-291 78,-291 78,-177 78,-146.2 78.46,-131.85 102,-112 131.26,-87.33 238.07,-75.15 299.57,-70.06"/>
<polygon fill="midnightblue" stroke="midnightblue" points="300.07,-73.53 309.76,-69.25 299.51,-66.55 300.07,-73.53"/>
</g>
<!-- Node10 -->
<g id="node10" class="node">
<title>Node10</title>
<g id="a_node10"><a xlink:href="so_8h.html" target="_top" xlink:title="Scene objects.">
<polygon fill="white" stroke="black" points="410.5,-336.5 410.5,-355.5 447.5,-355.5 447.5,-336.5 410.5,-336.5"/>
<text text-anchor="middle" x="429" y="-343.5" font-family="Helvetica,sans-Serif" font-size="10.00">so.h</text>
</a>
</g>
</g>
<!-- Node9&#45;&gt;Node10 -->
<g id="edge12" class="edge">
<title>Node9&#45;&gt;Node10</title>
<path fill="none" stroke="midnightblue" d="M104.48,-397.94C162.09,-388.9 331.86,-362.25 400.11,-351.54"/>
<polygon fill="midnightblue" stroke="midnightblue" points="400.82,-354.97 410.16,-349.96 399.73,-348.05 400.82,-354.97"/>
</g>
<!-- Node11 -->
<g id="node11" class="node">
<title>Node11</title>
<g id="a_node11"><a xlink:href="alo_8h.html" target="_top" xlink:title=" ">
<polygon fill="white" stroke="black" points="408.5,-280.5 408.5,-299.5 449.5,-299.5 449.5,-280.5 408.5,-280.5"/>
<text text-anchor="middle" x="429" y="-287.5" font-family="Helvetica,sans-Serif" font-size="10.00">alo.h</text>
</a>
</g>
</g>
<!-- Node10&#45;&gt;Node11 -->
<g id="edge13" class="edge">
<title>Node10&#45;&gt;Node11</title>
<path fill="none" stroke="midnightblue" d="M429,-336.08C429,-329.01 429,-318.86 429,-309.99"/>
<polygon fill="midnightblue" stroke="midnightblue" points="432.5,-309.75 429,-299.75 425.5,-309.75 432.5,-309.75"/>
</g>
<!-- Node11&#45;&gt;Node3 -->
<g id="edge14" class="edge">
<title>Node11&#45;&gt;Node3</title>
<path fill="none" stroke="midnightblue" d="M408.39,-288.17C357.84,-284.87 227.83,-268.58 173,-188 155.4,-162.14 191.29,-121.74 203,-112 230.39,-89.21 269.47,-77.91 299.54,-72.33"/>
<polygon fill="midnightblue" stroke="midnightblue" points="300.5,-75.72 309.77,-70.59 299.33,-68.82 300.5,-75.72"/>
</g>
<!-- Node12 -->
<g id="node12" class="node">
<title>Node12</title>
<g id="a_node12"><a xlink:href="lo_8h.html" target="_top" xlink:title="Level objects.">
<polygon fill="white" stroke="black" points="411.5,-224.5 411.5,-243.5 446.5,-243.5 446.5,-224.5 411.5,-224.5"/>
<text text-anchor="middle" x="429" y="-231.5" font-family="Helvetica,sans-Serif" font-size="10.00">lo.h</text>
</a>
</g>
</g>
<!-- Node11&#45;&gt;Node12 -->
<g id="edge15" class="edge">
<title>Node11&#45;&gt;Node12</title>
<path fill="none" stroke="midnightblue" d="M429,-280.08C429,-273.01 429,-262.86 429,-253.99"/>
<polygon fill="midnightblue" stroke="midnightblue" points="432.5,-253.75 429,-243.75 425.5,-253.75 432.5,-253.75"/>
</g>
<!-- Node16 -->
<g id="node16" class="node">
<title>Node16</title>
<g id="a_node16"><a xlink:href="dl_8h.html" target="_top" xlink:title=" ">
<polygon fill="white" stroke="black" points="553.5,-168.5 553.5,-187.5 588.5,-187.5 588.5,-168.5 553.5,-168.5"/>
<text text-anchor="middle" x="571" y="-175.5" font-family="Helvetica,sans-Serif" font-size="10.00">dl.h</text>
</a>
</g>
</g>
<!-- Node11&#45;&gt;Node16 -->
<g id="edge32" class="edge">
<title>Node11&#45;&gt;Node16</title>
<path fill="none" stroke="midnightblue" d="M440.14,-280.37C464.3,-261.65 521.75,-217.15 551.85,-193.83"/>
<polygon fill="midnightblue" stroke="midnightblue" points="554.15,-196.48 559.91,-187.59 549.86,-190.95 554.15,-196.48"/>
</g>
<!-- Node12&#45;&gt;Node3 -->
<g id="edge16" class="edge">
<title>Node12&#45;&gt;Node3</title>
<path fill="none" stroke="midnightblue" d="M411.19,-230.37C385.95,-225.81 339.53,-214.28 310,-188 289.06,-169.37 287.63,-159.23 281,-132 278.9,-123.36 276.93,-119.9 281,-112 288.08,-98.25 301.52,-87.77 314.18,-80.39"/>
<polygon fill="midnightblue" stroke="midnightblue" points="316,-83.39 323.15,-75.57 312.69,-77.22 316,-83.39"/>
</g>
<!-- Node13 -->
<g id="node13" class="node">
<title>Node13</title>
<g id="a_node13"><a xlink:href="oid_8h.html" target="_top" xlink:title="Object IDs.">
<polygon fill="white" stroke="black" points="570.5,-112.5 570.5,-131.5 611.5,-131.5 611.5,-112.5 570.5,-112.5"/>
<text text-anchor="middle" x="591" y="-119.5" font-family="Helvetica,sans-Serif" font-size="10.00">oid.h</text>
</a>
</g>
</g>
<!-- Node12&#45;&gt;Node13 -->
<g id="edge17" class="edge">
<title>Node12&#45;&gt;Node13</title>
<path fill="none" stroke="midnightblue" d="M441.71,-224.37C469.51,-205.49 535.94,-160.38 570.03,-137.24"/>
<polygon fill="midnightblue" stroke="midnightblue" points="572.04,-140.1 578.35,-131.59 568.11,-134.31 572.04,-140.1"/>
</g>
<!-- Node14 -->
<g id="node14" class="node">
<title>Node14</title>
<g id="a_node14"><a xlink:href="basic_8h.html" target="_top" xlink:title="Basic object.">
<polygon fill="white" stroke="black" points="318.5,-168.5 318.5,-187.5 369.5,-187.5 369.5,-168.5 318.5,-168.5"/>
<text text-anchor="middle" x="344" y="-175.5" font-family="Helvetica,sans-Serif" font-size="10.00">basic.h</text>
</a>
</g>
</g>
<!-- Node12&#45;&gt;Node14 -->
<g id="edge19" class="edge">
<title>Node12&#45;&gt;Node14</title>
<path fill="none" stroke="midnightblue" d="M415.34,-224.32C402.08,-215.9 381.73,-202.97 366.15,-193.07"/>
<polygon fill="midnightblue" stroke="midnightblue" points="367.94,-190.06 357.62,-187.65 364.19,-195.97 367.94,-190.06"/>
</g>
<!-- Node12&#45;&gt;Node16 -->
<g id="edge23" class="edge">
<title>Node12&#45;&gt;Node16</title>
<path fill="none" stroke="midnightblue" d="M446.7,-226.27C471.04,-217.01 515.08,-200.27 543.67,-189.39"/>
<polygon fill="midnightblue" stroke="midnightblue" points="544.98,-192.64 553.08,-185.81 542.49,-186.1 544.98,-192.64"/>
</g>
<!-- Node17 -->
<g id="node17" class="node">
<title>Node17</title>
<g id="a_node17"><a xlink:href="sw_8h.html" target="_top" xlink:title="Scene world?">
<polygon fill="white" stroke="black" points="410,-112.5 410,-131.5 448,-131.5 448,-112.5 410,-112.5"/>
<text text-anchor="middle" x="429" y="-119.5" font-family="Helvetica,sans-Serif" font-size="10.00">sw.h</text>
</a>
</g>
</g>
<!-- Node12&#45;&gt;Node17 -->
<g id="edge26" class="edge">
<title>Node12&#45;&gt;Node17</title>
<path fill="none" stroke="midnightblue" d="M429,-224.37C429,-206.62 429,-165.67 429,-141.6"/>
<polygon fill="midnightblue" stroke="midnightblue" points="432.5,-141.59 429,-131.59 425.5,-141.59 432.5,-141.59"/>
</g>
<!-- Node18 -->
<g id="node18" class="node">
<title>Node18</title>
<g id="a_node18"><a xlink:href="frame_8h.html" target="_top" xlink:title=" ">
<polygon fill="white" stroke="black" points="466,-112.5 466,-131.5 552,-131.5 552,-112.5 466,-112.5"/>
<text text-anchor="middle" x="509" y="-119.5" font-family="Helvetica,sans-Serif" font-size="10.00">splice/frame.h</text>
</a>
</g>
</g>
<!-- Node12&#45;&gt;Node18 -->
<g id="edge28" class="edge">
<title>Node12&#45;&gt;Node18</title>
<path fill="none" stroke="midnightblue" d="M435.28,-224.37C448.48,-206.22 479.33,-163.8 496.64,-139.99"/>
<polygon fill="midnightblue" stroke="midnightblue" points="499.7,-141.74 502.75,-131.59 494.04,-137.62 499.7,-141.74"/>
</g>
<!-- Node19 -->
<g id="node19" class="node">
<title>Node19</title>
<g id="a_node19"><a xlink:href="mq_8h.html" target="_top" xlink:title="Message queue(?).">
<polygon fill="white" stroke="black" points="182.5,-168.5 182.5,-187.5 223.5,-187.5 223.5,-168.5 182.5,-168.5"/>
<text text-anchor="middle" x="203" y="-175.5" font-family="Helvetica,sans-Serif" font-size="10.00">mq.h</text>
</a>
</g>
</g>
<!-- Node12&#45;&gt;Node19 -->
<g id="edge30" class="edge">
<title>Node12&#45;&gt;Node19</title>
<path fill="none" stroke="midnightblue" d="M411.33,-228.96C377.59,-221.23 301.68,-203.69 238,-188 236.55,-187.64 235.07,-187.28 233.58,-186.9"/>
<polygon fill="midnightblue" stroke="midnightblue" points="234.26,-183.46 223.71,-184.4 232.54,-190.25 234.26,-183.46"/>
</g>
<!-- Node13&#45;&gt;Node3 -->
<g id="edge18" class="edge">
<title>Node13&#45;&gt;Node3</title>
<path fill="none" stroke="midnightblue" d="M570.41,-114.57C567.27,-113.66 564.06,-112.77 561,-112 501.61,-96.96 432.14,-83.22 388.12,-74.98"/>
<polygon fill="midnightblue" stroke="midnightblue" points="388.51,-71.5 378.04,-73.11 387.23,-78.38 388.51,-71.5"/>
</g>
<!-- Node14&#45;&gt;Node3 -->
<g id="edge20" class="edge">
<title>Node14&#45;&gt;Node3</title>
<path fill="none" stroke="midnightblue" d="M327,-168.46C306.69,-157 276.8,-135.37 288,-112 294.25,-98.95 306.34,-88.49 317.68,-80.95"/>
<polygon fill="midnightblue" stroke="midnightblue" points="319.81,-83.75 326.5,-75.54 316.15,-77.79 319.81,-83.75"/>
</g>
<!-- Node15 -->
<g id="node15" class="node">
<title>Node15</title>
<g id="a_node15"><a xlink:href="sidebag_8h.html" target="_top" xlink:title="Sidebag for splice.">
<polygon fill="white" stroke="black" points="296.5,-112.5 296.5,-131.5 391.5,-131.5 391.5,-112.5 296.5,-112.5"/>
<text text-anchor="middle" x="344" y="-119.5" font-family="Helvetica,sans-Serif" font-size="10.00">splice/sidebag.h</text>
</a>
</g>
</g>
<!-- Node14&#45;&gt;Node15 -->
<g id="edge21" class="edge">
<title>Node14&#45;&gt;Node15</title>
<path fill="none" stroke="midnightblue" d="M344,-168.08C344,-161.01 344,-150.86 344,-141.99"/>
<polygon fill="midnightblue" stroke="midnightblue" points="347.5,-141.75 344,-131.75 340.5,-141.75 347.5,-141.75"/>
</g>
<!-- Node15&#45;&gt;Node3 -->
<g id="edge22" class="edge">
<title>Node15&#45;&gt;Node3</title>
<path fill="none" stroke="midnightblue" d="M344,-112.08C344,-105.01 344,-94.86 344,-85.99"/>
<polygon fill="midnightblue" stroke="midnightblue" points="347.5,-85.75 344,-75.75 340.5,-85.75 347.5,-85.75"/>
</g>
<!-- Node16&#45;&gt;Node3 -->
<g id="edge24" class="edge">
<title>Node16&#45;&gt;Node3</title>
<path fill="none" stroke="midnightblue" d="M585.99,-168.38C606.14,-155.72 637.6,-131.52 621,-112 591.69,-77.54 459.12,-69.4 388.54,-67.52"/>
<polygon fill="midnightblue" stroke="midnightblue" points="388.27,-64.01 378.19,-67.28 388.1,-71.01 388.27,-64.01"/>
</g>
<!-- Node16&#45;&gt;Node13 -->
<g id="edge25" class="edge">
<title>Node16&#45;&gt;Node13</title>
<path fill="none" stroke="midnightblue" d="M574.3,-168.08C576.98,-160.85 580.85,-150.41 584.19,-141.4"/>
<polygon fill="midnightblue" stroke="midnightblue" points="587.57,-142.34 587.76,-131.75 581,-139.91 587.57,-142.34"/>
</g>
<!-- Node17&#45;&gt;Node3 -->
<g id="edge27" class="edge">
<title>Node17&#45;&gt;Node3</title>
<path fill="none" stroke="midnightblue" d="M415.34,-112.32C402.08,-103.9 381.73,-90.97 366.15,-81.07"/>
<polygon fill="midnightblue" stroke="midnightblue" points="367.94,-78.06 357.62,-75.65 364.19,-83.97 367.94,-78.06"/>
</g>
<!-- Node18&#45;&gt;Node3 -->
<g id="edge29" class="edge">
<title>Node18&#45;&gt;Node3</title>
<path fill="none" stroke="midnightblue" d="M482.86,-112.44C454.98,-103.32 410.65,-88.81 379.6,-78.65"/>
<polygon fill="midnightblue" stroke="midnightblue" points="380.62,-75.3 370.02,-75.52 378.44,-81.95 380.62,-75.3"/>
</g>
<!-- Node19&#45;&gt;Node3 -->
<g id="edge31" class="edge">
<title>Node19&#45;&gt;Node3</title>
<path fill="none" stroke="midnightblue" d="M202.21,-168.26C201.47,-154.57 202.12,-127.99 216,-112 237.05,-87.76 271.95,-76.58 300,-71.42"/>
<polygon fill="midnightblue" stroke="midnightblue" points="300.69,-74.85 309.99,-69.78 299.55,-67.95 300.69,-74.85"/>
</g>
<!-- Node20&#45;&gt;Node3 -->
<g id="edge34" class="edge">
<title>Node20&#45;&gt;Node3</title>
<path fill="none" stroke="midnightblue" d="M509.28,-504.41C441.91,-473.73 221.87,-361.93 165,-188 154.27,-155.19 156.48,-136.3 181,-112 212.31,-80.97 262.98,-70.86 299.52,-67.8"/>
<polygon fill="midnightblue" stroke="midnightblue" points="300.16,-71.27 309.9,-67.09 299.68,-64.28 300.16,-71.27"/>
</g>
<!-- Node21 -->
<g id="node21" class="node">
<title>Node21</title>
<g id="a_node21"><a xlink:href="util_8h.html" target="_top" xlink:title="Utility functions.">
<polygon fill="white" stroke="black" points="508.5,-448.5 508.5,-467.5 549.5,-467.5 549.5,-448.5 508.5,-448.5"/>
<text text-anchor="middle" x="529" y="-455.5" font-family="Helvetica,sans-Serif" font-size="10.00">util.h</text>
</a>
</g>
</g>
<!-- Node20&#45;&gt;Node21 -->
<g id="edge35" class="edge">
<title>Node20&#45;&gt;Node21</title>
<path fill="none" stroke="midnightblue" d="M529,-504.08C529,-497.01 529,-486.86 529,-477.99"/>
<polygon fill="midnightblue" stroke="midnightblue" points="532.5,-477.75 529,-467.75 525.5,-477.75 532.5,-477.75"/>
</g>
<!-- Node21&#45;&gt;Node3 -->
<g id="edge36" class="edge">
<title>Node21&#45;&gt;Node3</title>
<path fill="none" stroke="midnightblue" d="M549.72,-452.09C590.66,-441.02 678,-410.02 678,-347 678,-347 678,-347 678,-177 678,-142.84 665.57,-130.72 637,-112 596.85,-85.68 459.59,-73.82 388.1,-69.33"/>
<polygon fill="midnightblue" stroke="midnightblue" points="388.24,-65.83 378.05,-68.72 387.82,-72.82 388.24,-65.83"/>
</g>
<!-- Node22 -->
<g id="node22" class="node">
<title>Node22</title>
<g id="a_node22"><a xlink:href="mat_8h.html" target="_top" xlink:title="3x3 and 4x4 matrix types.">
<polygon fill="white" stroke="black" points="444.5,-392.5 444.5,-411.5 489.5,-411.5 489.5,-392.5 444.5,-392.5"/>
<text text-anchor="middle" x="467" y="-399.5" font-family="Helvetica,sans-Serif" font-size="10.00">mat.h</text>
</a>
</g>
</g>
<!-- Node21&#45;&gt;Node22 -->
<g id="edge37" class="edge">
<title>Node21&#45;&gt;Node22</title>
<path fill="none" stroke="midnightblue" d="M519.04,-448.32C509.87,-440.34 496.06,-428.31 484.97,-418.65"/>
<polygon fill="midnightblue" stroke="midnightblue" points="486.98,-415.76 477.14,-411.83 482.38,-421.04 486.98,-415.76"/>
</g>
<!-- Node23 -->
<g id="node23" class="node">
<title>Node23</title>
<g id="a_node23"><a xlink:href="vec_8h.html" target="_top" xlink:title="Vector math functions.">
<polygon fill="white" stroke="black" points="507.5,-392.5 507.5,-411.5 550.5,-411.5 550.5,-392.5 507.5,-392.5"/>
<text text-anchor="middle" x="529" y="-399.5" font-family="Helvetica,sans-Serif" font-size="10.00">vec.h</text>
</a>
</g>
</g>
<!-- Node21&#45;&gt;Node23 -->
<g id="edge38" class="edge">
<title>Node21&#45;&gt;Node23</title>
<path fill="none" stroke="midnightblue" d="M529,-448.08C529,-441.01 529,-430.86 529,-421.99"/>
<polygon fill="midnightblue" stroke="midnightblue" points="532.5,-421.75 529,-411.75 525.5,-421.75 532.5,-421.75"/>
</g>
<!-- Node23&#45;&gt;Node10 -->
<g id="edge39" class="edge">
<title>Node23&#45;&gt;Node10</title>
<path fill="none" stroke="midnightblue" d="M512.93,-392.32C497.04,-383.74 472.49,-370.49 454.04,-360.52"/>
<polygon fill="midnightblue" stroke="midnightblue" points="455.49,-357.33 445.03,-355.65 452.16,-363.49 455.49,-357.33"/>
</g>
<!-- Node24&#45;&gt;Node3 -->
<g id="edge41" class="edge">
<title>Node24&#45;&gt;Node3</title>
<path fill="none" stroke="midnightblue" d="M768.19,-168.04C763.13,-153.55 751,-125.23 730,-112 673.99,-76.72 477.05,-69.09 388.14,-67.44"/>
<polygon fill="midnightblue" stroke="midnightblue" points="388.16,-63.94 378.1,-67.28 388.04,-70.94 388.16,-63.94"/>
</g>
<!-- Node24&#45;&gt;Node13 -->
<g id="edge42" class="edge">
<title>Node24&#45;&gt;Node13</title>
<path fill="none" stroke="midnightblue" d="M744.44,-169.03C711.65,-159.19 656,-142.5 621.49,-132.15"/>
<polygon fill="midnightblue" stroke="midnightblue" points="622.1,-128.67 611.51,-129.15 620.08,-135.38 622.1,-128.67"/>
</g>
<!-- Node25 -->
<g id="node25" class="node">
<title>Node25</title>
<g id="a_node25"><a xlink:href="cid_8h.html" target="_top" xlink:title="Class ID.">
<polygon fill="white" stroke="black" points="782,-112.5 782,-131.5 822,-131.5 822,-112.5 782,-112.5"/>
<text text-anchor="middle" x="802" y="-119.5" font-family="Helvetica,sans-Serif" font-size="10.00">cid.h</text>
</a>
</g>
</g>
<!-- Node24&#45;&gt;Node25 -->
<g id="edge43" class="edge">
<title>Node24&#45;&gt;Node25</title>
<path fill="none" stroke="midnightblue" d="M776.12,-168.08C780.41,-160.61 786.66,-149.72 791.94,-140.52"/>
<polygon fill="midnightblue" stroke="midnightblue" points="795.03,-142.17 796.98,-131.75 788.96,-138.68 795.03,-142.17"/>
</g>
<!-- Node25&#45;&gt;Node3 -->
<g id="edge44" class="edge">
<title>Node25&#45;&gt;Node3</title>
<path fill="none" stroke="midnightblue" d="M781.98,-115.16C777.41,-113.98 772.56,-112.84 768,-112 630.86,-86.72 465.95,-74.28 388.4,-69.47"/>
<polygon fill="midnightblue" stroke="midnightblue" points="388.25,-65.95 378.05,-68.84 387.82,-72.94 388.25,-65.95"/>
</g>
</g>
</svg>
