<?xml version="1.0" encoding="UTF-8" standalone="no"?>
<!DOCTYPE svg PUBLIC "-//W3C//DTD SVG 1.1//EN"
 "http://www.w3.org/Graphics/SVG/1.1/DTD/svg11.dtd">
<!-- Generated by graphviz version 2.43.0 (0)
 -->
<!-- Title: src/P2/steppower.c Pages: 1 -->
<svg width="1370pt" height="644pt"
 viewBox="0.00 0.00 1369.50 644.00" xmlns="http://www.w3.org/2000/svg" xmlns:xlink="http://www.w3.org/1999/xlink">
<g id="graph0" class="graph" transform="scale(1 1) rotate(0) translate(4 640)">
<title>src/P2/steppower.c</title>
<polygon fill="white" stroke="transparent" points="-4,4 -4,-640 1365.5,-640 1365.5,4 -4,4"/>
<!-- Node1 -->
<g id="node1" class="node">
<title>Node1</title>
<g id="a_node1"><a xlink:title=" ">
<polygon fill="#bfbfbf" stroke="black" points="894.5,-616.5 894.5,-635.5 1001.5,-635.5 1001.5,-616.5 894.5,-616.5"/>
<text text-anchor="middle" x="948" y="-623.5" font-family="Helvetica,sans-Serif" font-size="10.00">src/P2/steppower.c</text>
</a>
</g>
</g>
<!-- Node2 -->
<g id="node2" class="node">
<title>Node2</title>
<g id="a_node2"><a xlink:href="steppower_8h.html" target="_top" xlink:title=" ">
<polygon fill="white" stroke="black" points="700,-560.5 700,-579.5 776,-579.5 776,-560.5 700,-560.5"/>
<text text-anchor="middle" x="738" y="-567.5" font-family="Helvetica,sans-Serif" font-size="10.00">steppower.h</text>
</a>
</g>
</g>
<!-- Node1&#45;&gt;Node2 -->
<g id="edge1" class="edge">
<title>Node1&#45;&gt;Node2</title>
<path fill="none" stroke="midnightblue" d="M914.72,-616.44C878.55,-607.14 820.62,-592.25 781.02,-582.06"/>
<polygon fill="midnightblue" stroke="midnightblue" points="781.68,-578.62 771.12,-579.52 779.93,-585.4 781.68,-578.62"/>
</g>
<!-- Node8 -->
<g id="node8" class="node">
<title>Node8</title>
<g id="a_node8"><a xlink:href="jt_8h.html" target="_top" xlink:title="Sly entity.">
<polygon fill="white" stroke="black" points="844,-504.5 844,-523.5 876,-523.5 876,-504.5 844,-504.5"/>
<text text-anchor="middle" x="860" y="-511.5" font-family="Helvetica,sans-Serif" font-size="10.00">jt.h</text>
</a>
</g>
</g>
<!-- Node1&#45;&gt;Node8 -->
<g id="edge55" class="edge">
<title>Node1&#45;&gt;Node8</title>
<path fill="none" stroke="midnightblue" d="M927.3,-616.35C911.86,-608.88 891.36,-596.65 879,-580 869.03,-566.58 864.28,-548.01 862.02,-534.16"/>
<polygon fill="midnightblue" stroke="midnightblue" points="865.43,-533.3 860.65,-523.85 858.5,-534.22 865.43,-533.3"/>
</g>
<!-- Node28 -->
<g id="node28" class="node">
<title>Node28</title>
<g id="a_node28"><a xlink:href="game_8h.html" target="_top" xlink:title="Game state and level management.">
<polygon fill="white" stroke="black" points="991.5,-168.5 991.5,-187.5 1044.5,-187.5 1044.5,-168.5 991.5,-168.5"/>
<text text-anchor="middle" x="1018" y="-175.5" font-family="Helvetica,sans-Serif" font-size="10.00">game.h</text>
</a>
</g>
</g>
<!-- Node1&#45;&gt;Node28 -->
<g id="edge50" class="edge">
<title>Node1&#45;&gt;Node28</title>
<path fill="none" stroke="midnightblue" d="M952.32,-616.41C961.05,-598.2 980,-554.18 980,-515 980,-515 980,-515 980,-457 980,-411.4 991.44,-401.12 998,-356 1006.33,-298.76 1013.16,-230.68 1016.24,-198.16"/>
<polygon fill="midnightblue" stroke="midnightblue" points="1019.76,-198.15 1017.2,-187.87 1012.79,-197.5 1019.76,-198.15"/>
</g>
<!-- Node30 -->
<g id="node30" class="node">
<title>Node30</title>
<g id="a_node30"><a xlink:href="screen_8h.html" target="_top" xlink:title="GUI elements.">
<polygon fill="white" stroke="black" points="1027,-560.5 1027,-579.5 1085,-579.5 1085,-560.5 1027,-560.5"/>
<text text-anchor="middle" x="1056" y="-567.5" font-family="Helvetica,sans-Serif" font-size="10.00">screen.h</text>
</a>
</g>
</g>
<!-- Node1&#45;&gt;Node30 -->
<g id="edge56" class="edge">
<title>Node1&#45;&gt;Node30</title>
<path fill="none" stroke="midnightblue" d="M965.35,-616.32C982.67,-607.66 1009.52,-594.24 1029.5,-584.25"/>
<polygon fill="midnightblue" stroke="midnightblue" points="1031.31,-587.26 1038.69,-579.65 1028.18,-581 1031.31,-587.26"/>
</g>
<!-- Node36 -->
<g id="node36" class="node">
<title>Node36</title>
<g id="a_node36"><a xlink:href="clock_8h.html" target="_top" xlink:title="Engine clock.">
<polygon fill="white" stroke="black" points="1310.5,-224.5 1310.5,-243.5 1361.5,-243.5 1361.5,-224.5 1310.5,-224.5"/>
<text text-anchor="middle" x="1336" y="-231.5" font-family="Helvetica,sans-Serif" font-size="10.00">clock.h</text>
</a>
</g>
</g>
<!-- Node1&#45;&gt;Node36 -->
<g id="edge72" class="edge">
<title>Node1&#45;&gt;Node36</title>
<path fill="none" stroke="midnightblue" d="M1001.64,-620.72C1106.39,-610.88 1328,-582.14 1328,-515 1328,-515 1328,-515 1328,-345 1328,-312.86 1331.44,-275.58 1333.81,-253.72"/>
<polygon fill="midnightblue" stroke="midnightblue" points="1337.31,-253.87 1334.95,-243.54 1330.36,-253.09 1337.31,-253.87"/>
</g>
<!-- Node37 -->
<g id="node37" class="node">
<title>Node37</title>
<g id="a_node37"><a xlink:href="steprail_8h.html" target="_top" xlink:title="Rail behavior for STEP objects.">
<polygon fill="white" stroke="black" points="888,-560.5 888,-579.5 950,-579.5 950,-560.5 888,-560.5"/>
<text text-anchor="middle" x="919" y="-567.5" font-family="Helvetica,sans-Serif" font-size="10.00">steprail.h</text>
</a>
</g>
</g>
<!-- Node1&#45;&gt;Node37 -->
<g id="edge74" class="edge">
<title>Node1&#45;&gt;Node37</title>
<path fill="none" stroke="midnightblue" d="M943.21,-616.08C939.24,-608.69 933.47,-597.95 928.57,-588.81"/>
<polygon fill="midnightblue" stroke="midnightblue" points="931.51,-586.91 923.7,-579.75 925.35,-590.22 931.51,-586.91"/>
</g>
<!-- Node3 -->
<g id="node3" class="node">
<title>Node3</title>
<g id="a_node3"><a xlink:href="common_8h.html" target="_top" xlink:title="Common header file.">
<polygon fill="white" stroke="black" points="711,-56.5 711,-75.5 779,-75.5 779,-56.5 711,-56.5"/>
<text text-anchor="middle" x="745" y="-63.5" font-family="Helvetica,sans-Serif" font-size="10.00">common.h</text>
</a>
</g>
</g>
<!-- Node2&#45;&gt;Node3 -->
<g id="edge2" class="edge">
<title>Node2&#45;&gt;Node3</title>
<path fill="none" stroke="midnightblue" d="M735.34,-560.26C728.31,-536.65 709.33,-469.46 703,-412 700.84,-392.42 704.43,-342.22 706,-336 710.33,-318.84 717.91,-316.95 723,-300 744.68,-227.76 741.65,-207.23 747,-132 748.1,-116.5 747.44,-98.87 746.59,-85.89"/>
<polygon fill="midnightblue" stroke="midnightblue" points="750.08,-85.55 745.84,-75.84 743.1,-86.08 750.08,-85.55"/>
</g>
<!-- Node2&#45;&gt;Node8 -->
<g id="edge7" class="edge">
<title>Node2&#45;&gt;Node8</title>
<path fill="none" stroke="midnightblue" d="M757.33,-560.44C778.26,-551.18 811.73,-536.37 834.73,-526.19"/>
<polygon fill="midnightblue" stroke="midnightblue" points="836.15,-529.38 843.88,-522.14 833.32,-522.98 836.15,-529.38"/>
</g>
<!-- Node21 -->
<g id="node21" class="node">
<title>Node21</title>
<g id="a_node21"><a xlink:href="joy_8h.html" target="_top" xlink:title="Joypad manager.">
<polygon fill="white" stroke="black" points="224.5,-504.5 224.5,-523.5 263.5,-523.5 263.5,-504.5 224.5,-504.5"/>
<text text-anchor="middle" x="244" y="-511.5" font-family="Helvetica,sans-Serif" font-size="10.00">joy.h</text>
</a>
</g>
</g>
<!-- Node2&#45;&gt;Node21 -->
<g id="edge34" class="edge">
<title>Node2&#45;&gt;Node21</title>
<path fill="none" stroke="midnightblue" d="M699.65,-564.81C604.43,-554.4 358.78,-527.55 273.6,-518.24"/>
<polygon fill="midnightblue" stroke="midnightblue" points="273.9,-514.75 263.58,-517.14 273.14,-521.71 273.9,-514.75"/>
</g>
<!-- Node4 -->
<g id="node4" class="node">
<title>Node4</title>
<g id="a_node4"><a xlink:href="include__asm_8h.html" target="_top" xlink:title=" ">
<polygon fill="white" stroke="black" points="543.5,-0.5 543.5,-19.5 630.5,-19.5 630.5,-0.5 543.5,-0.5"/>
<text text-anchor="middle" x="587" y="-7.5" font-family="Helvetica,sans-Serif" font-size="10.00">include_asm.h</text>
</a>
</g>
</g>
<!-- Node3&#45;&gt;Node4 -->
<g id="edge3" class="edge">
<title>Node3&#45;&gt;Node4</title>
<path fill="none" stroke="midnightblue" d="M719.96,-56.44C693.38,-47.36 651.19,-32.94 621.48,-22.78"/>
<polygon fill="midnightblue" stroke="midnightblue" points="622.51,-19.44 611.92,-19.52 620.25,-26.06 622.51,-19.44"/>
</g>
<!-- Node5 -->
<g id="node5" class="node">
<title>Node5</title>
<g id="a_node5"><a xlink:href="include__rodata_8h.html" target="_top" xlink:title=" ">
<polygon fill="white" stroke="black" points="649,-0.5 649,-19.5 747,-19.5 747,-0.5 649,-0.5"/>
<text text-anchor="middle" x="698" y="-7.5" font-family="Helvetica,sans-Serif" font-size="10.00">include_rodata.h</text>
</a>
</g>
</g>
<!-- Node3&#45;&gt;Node5 -->
<g id="edge4" class="edge">
<title>Node3&#45;&gt;Node5</title>
<path fill="none" stroke="midnightblue" d="M737.24,-56.08C730.46,-48.3 720.46,-36.8 712.24,-27.37"/>
<polygon fill="midnightblue" stroke="midnightblue" points="714.82,-25 705.62,-19.75 709.54,-29.59 714.82,-25"/>
</g>
<!-- Node6 -->
<g id="node6" class="node">
<title>Node6</title>
<g id="a_node6"><a xlink:href="types_8h.html" target="_top" xlink:title="Common types used across the codebase.">
<polygon fill="white" stroke="black" points="765.5,-0.5 765.5,-19.5 818.5,-19.5 818.5,-0.5 765.5,-0.5"/>
<text text-anchor="middle" x="792" y="-7.5" font-family="Helvetica,sans-Serif" font-size="10.00">types.h</text>
</a>
</g>
</g>
<!-- Node3&#45;&gt;Node6 -->
<g id="edge5" class="edge">
<title>Node3&#45;&gt;Node6</title>
<path fill="none" stroke="midnightblue" d="M752.76,-56.08C759.54,-48.3 769.54,-36.8 777.76,-27.37"/>
<polygon fill="midnightblue" stroke="midnightblue" points="780.46,-29.59 784.38,-19.75 775.18,-25 780.46,-29.59"/>
</g>
<!-- Node7 -->
<g id="node7" class="node">
<title>Node7</title>
<g id="a_node7"><a xlink:href="vtables_8h.html" target="_top" xlink:title="Manually crafted vtables for various structs.">
<polygon fill="white" stroke="black" points="837,-0.5 837,-19.5 899,-19.5 899,-0.5 837,-0.5"/>
<text text-anchor="middle" x="868" y="-7.5" font-family="Helvetica,sans-Serif" font-size="10.00">vtables.h</text>
</a>
</g>
</g>
<!-- Node3&#45;&gt;Node7 -->
<g id="edge6" class="edge">
<title>Node3&#45;&gt;Node7</title>
<path fill="none" stroke="midnightblue" d="M764.49,-56.44C784.64,-47.6 816.32,-33.69 839.33,-23.59"/>
<polygon fill="midnightblue" stroke="midnightblue" points="840.85,-26.74 848.6,-19.52 838.04,-20.33 840.85,-26.74"/>
</g>
<!-- Node8&#45;&gt;Node3 -->
<g id="edge8" class="edge">
<title>Node8&#45;&gt;Node3</title>
<path fill="none" stroke="midnightblue" d="M862.43,-504.24C867.34,-485.71 878,-441.12 878,-403 878,-403 878,-403 878,-177 878,-126.73 820.87,-95.1 781.5,-79.27"/>
<polygon fill="midnightblue" stroke="midnightblue" points="782.5,-75.91 771.91,-75.59 779.99,-82.45 782.5,-75.91"/>
</g>
<!-- Node9 -->
<g id="node9" class="node">
<title>Node9</title>
<g id="a_node9"><a xlink:href="step_8h.html" target="_top" xlink:title=" ">
<polygon fill="white" stroke="black" points="802.5,-448.5 802.5,-467.5 849.5,-467.5 849.5,-448.5 802.5,-448.5"/>
<text text-anchor="middle" x="826" y="-455.5" font-family="Helvetica,sans-Serif" font-size="10.00">step.h</text>
</a>
</g>
</g>
<!-- Node8&#45;&gt;Node9 -->
<g id="edge9" class="edge">
<title>Node8&#45;&gt;Node9</title>
<path fill="none" stroke="midnightblue" d="M854.39,-504.08C849.63,-496.53 842.68,-485.49 836.85,-476.23"/>
<polygon fill="midnightblue" stroke="midnightblue" points="839.8,-474.35 831.51,-467.75 833.88,-478.08 839.8,-474.35"/>
</g>
<!-- Node9&#45;&gt;Node3 -->
<g id="edge10" class="edge">
<title>Node9&#45;&gt;Node3</title>
<path fill="none" stroke="midnightblue" d="M827.83,-448.49C831.63,-430.07 840,-385.12 840,-347 840,-347 840,-347 840,-177 840,-133.74 797.39,-99.09 769.25,-80.91"/>
<polygon fill="midnightblue" stroke="midnightblue" points="771.03,-77.9 760.69,-75.6 767.34,-83.85 771.03,-77.9"/>
</g>
<!-- Node10 -->
<g id="node10" class="node">
<title>Node10</title>
<g id="a_node10"><a xlink:href="po_8h.html" target="_top" xlink:title="Player object.">
<polygon fill="white" stroke="black" points="774,-392.5 774,-411.5 812,-411.5 812,-392.5 774,-392.5"/>
<text text-anchor="middle" x="793" y="-399.5" font-family="Helvetica,sans-Serif" font-size="10.00">po.h</text>
</a>
</g>
</g>
<!-- Node9&#45;&gt;Node10 -->
<g id="edge11" class="edge">
<title>Node9&#45;&gt;Node10</title>
<path fill="none" stroke="midnightblue" d="M820.55,-448.08C815.99,-440.61 809.33,-429.72 803.71,-420.52"/>
<polygon fill="midnightblue" stroke="midnightblue" points="806.55,-418.46 798.35,-411.75 800.58,-422.11 806.55,-418.46"/>
</g>
<!-- Node10&#45;&gt;Node3 -->
<g id="edge12" class="edge">
<title>Node10&#45;&gt;Node3</title>
<path fill="none" stroke="midnightblue" d="M794.18,-392.46C796.62,-373.99 802,-328.94 802,-291 802,-291 802,-291 802,-177 802,-140.3 776.68,-103.66 759.79,-83.3"/>
<polygon fill="midnightblue" stroke="midnightblue" points="762.35,-80.9 753.17,-75.62 757.05,-85.48 762.35,-80.9"/>
</g>
<!-- Node11 -->
<g id="node11" class="node">
<title>Node11</title>
<g id="a_node11"><a xlink:href="so_8h.html" target="_top" xlink:title="Scene objects.">
<polygon fill="white" stroke="black" points="715.5,-336.5 715.5,-355.5 752.5,-355.5 752.5,-336.5 715.5,-336.5"/>
<text text-anchor="middle" x="734" y="-343.5" font-family="Helvetica,sans-Serif" font-size="10.00">so.h</text>
</a>
</g>
</g>
<!-- Node10&#45;&gt;Node11 -->
<g id="edge13" class="edge">
<title>Node10&#45;&gt;Node11</title>
<path fill="none" stroke="midnightblue" d="M783.52,-392.32C774.8,-384.34 761.66,-372.31 751.1,-362.65"/>
<polygon fill="midnightblue" stroke="midnightblue" points="753.39,-360 743.65,-355.83 748.67,-365.17 753.39,-360"/>
</g>
<!-- Node12 -->
<g id="node12" class="node">
<title>Node12</title>
<g id="a_node12"><a xlink:href="alo_8h.html" target="_top" xlink:title=" ">
<polygon fill="white" stroke="black" points="673.5,-280.5 673.5,-299.5 714.5,-299.5 714.5,-280.5 673.5,-280.5"/>
<text text-anchor="middle" x="694" y="-287.5" font-family="Helvetica,sans-Serif" font-size="10.00">alo.h</text>
</a>
</g>
</g>
<!-- Node11&#45;&gt;Node12 -->
<g id="edge14" class="edge">
<title>Node11&#45;&gt;Node12</title>
<path fill="none" stroke="midnightblue" d="M727.39,-336.08C721.74,-328.46 713.46,-317.26 706.55,-307.94"/>
<polygon fill="midnightblue" stroke="midnightblue" points="709.25,-305.7 700.48,-299.75 703.62,-309.87 709.25,-305.7"/>
</g>
<!-- Node12&#45;&gt;Node3 -->
<g id="edge15" class="edge">
<title>Node12&#45;&gt;Node3</title>
<path fill="none" stroke="midnightblue" d="M696,-280.3C703.52,-247.56 730.21,-131.38 740.71,-85.67"/>
<polygon fill="midnightblue" stroke="midnightblue" points="744.13,-86.41 742.96,-75.88 737.31,-84.85 744.13,-86.41"/>
</g>
<!-- Node13 -->
<g id="node13" class="node">
<title>Node13</title>
<g id="a_node13"><a xlink:href="lo_8h.html" target="_top" xlink:title="Level objects.">
<polygon fill="white" stroke="black" points="501.5,-224.5 501.5,-243.5 536.5,-243.5 536.5,-224.5 501.5,-224.5"/>
<text text-anchor="middle" x="519" y="-231.5" font-family="Helvetica,sans-Serif" font-size="10.00">lo.h</text>
</a>
</g>
</g>
<!-- Node12&#45;&gt;Node13 -->
<g id="edge16" class="edge">
<title>Node12&#45;&gt;Node13</title>
<path fill="none" stroke="midnightblue" d="M673.24,-282.59C641.59,-272.83 581.28,-254.22 546.19,-243.39"/>
<polygon fill="midnightblue" stroke="midnightblue" points="547.17,-240.03 536.58,-240.42 545.1,-246.72 547.17,-240.03"/>
</g>
<!-- Node17 -->
<g id="node17" class="node">
<title>Node17</title>
<g id="a_node17"><a xlink:href="dl_8h.html" target="_top" xlink:title="Doubly&#45;linked list.">
<polygon fill="white" stroke="black" points="656.5,-168.5 656.5,-187.5 691.5,-187.5 691.5,-168.5 656.5,-168.5"/>
<text text-anchor="middle" x="674" y="-175.5" font-family="Helvetica,sans-Serif" font-size="10.00">dl.h</text>
</a>
</g>
</g>
<!-- Node12&#45;&gt;Node17 -->
<g id="edge33" class="edge">
<title>Node12&#45;&gt;Node17</title>
<path fill="none" stroke="midnightblue" d="M692.43,-280.37C689.2,-262.62 681.76,-221.67 677.38,-197.6"/>
<polygon fill="midnightblue" stroke="midnightblue" points="680.79,-196.8 675.56,-187.59 673.91,-198.06 680.79,-196.8"/>
</g>
<!-- Node13&#45;&gt;Node3 -->
<g id="edge17" class="edge">
<title>Node13&#45;&gt;Node3</title>
<path fill="none" stroke="midnightblue" d="M525.74,-224.26C542.78,-202.64 589.82,-145.98 640,-112 660.84,-97.89 686.82,-86.71 707.72,-79.02"/>
<polygon fill="midnightblue" stroke="midnightblue" points="708.99,-82.29 717.23,-75.64 706.64,-75.7 708.99,-82.29"/>
</g>
<!-- Node14 -->
<g id="node14" class="node">
<title>Node14</title>
<g id="a_node14"><a xlink:href="oid_8h.html" target="_top" xlink:title="Object IDs.">
<polygon fill="white" stroke="black" points="656.5,-112.5 656.5,-131.5 697.5,-131.5 697.5,-112.5 656.5,-112.5"/>
<text text-anchor="middle" x="677" y="-119.5" font-family="Helvetica,sans-Serif" font-size="10.00">oid.h</text>
</a>
</g>
</g>
<!-- Node13&#45;&gt;Node14 -->
<g id="edge18" class="edge">
<title>Node13&#45;&gt;Node14</title>
<path fill="none" stroke="midnightblue" d="M536.64,-225.19C554.34,-217.01 582.06,-203.24 604,-188 625.2,-173.27 646.99,-153.09 661.17,-139.14"/>
<polygon fill="midnightblue" stroke="midnightblue" points="663.98,-141.28 668.59,-131.74 659.04,-136.33 663.98,-141.28"/>
</g>
<!-- Node15 -->
<g id="node15" class="node">
<title>Node15</title>
<g id="a_node15"><a xlink:href="basic_8h.html" target="_top" xlink:title="Basic object.">
<polygon fill="white" stroke="black" points="328.5,-168.5 328.5,-187.5 379.5,-187.5 379.5,-168.5 328.5,-168.5"/>
<text text-anchor="middle" x="354" y="-175.5" font-family="Helvetica,sans-Serif" font-size="10.00">basic.h</text>
</a>
</g>
</g>
<!-- Node13&#45;&gt;Node15 -->
<g id="edge20" class="edge">
<title>Node13&#45;&gt;Node15</title>
<path fill="none" stroke="midnightblue" d="M501.34,-227.22C474.71,-218.5 423.71,-201.82 389.28,-190.54"/>
<polygon fill="midnightblue" stroke="midnightblue" points="390.19,-187.16 379.6,-187.38 388.02,-193.82 390.19,-187.16"/>
</g>
<!-- Node13&#45;&gt;Node17 -->
<g id="edge24" class="edge">
<title>Node13&#45;&gt;Node17</title>
<path fill="none" stroke="midnightblue" d="M536.78,-226.81C563.76,-217.41 615.24,-199.47 646.9,-188.44"/>
<polygon fill="midnightblue" stroke="midnightblue" points="648.14,-191.72 656.43,-185.12 645.83,-185.11 648.14,-191.72"/>
</g>
<!-- Node18 -->
<g id="node18" class="node">
<title>Node18</title>
<g id="a_node18"><a xlink:href="sw_8h.html" target="_top" xlink:title="Scene world?">
<polygon fill="white" stroke="black" points="420,-112.5 420,-131.5 458,-131.5 458,-112.5 420,-112.5"/>
<text text-anchor="middle" x="439" y="-119.5" font-family="Helvetica,sans-Serif" font-size="10.00">sw.h</text>
</a>
</g>
</g>
<!-- Node13&#45;&gt;Node18 -->
<g id="edge27" class="edge">
<title>Node13&#45;&gt;Node18</title>
<path fill="none" stroke="midnightblue" d="M512.72,-224.37C499.52,-206.22 468.67,-163.8 451.36,-139.99"/>
<polygon fill="midnightblue" stroke="midnightblue" points="453.96,-137.62 445.25,-131.59 448.3,-141.74 453.96,-137.62"/>
</g>
<!-- Node19 -->
<g id="node19" class="node">
<title>Node19</title>
<g id="a_node19"><a xlink:href="frame_8h.html" target="_top" xlink:title=" ">
<polygon fill="white" stroke="black" points="476,-112.5 476,-131.5 562,-131.5 562,-112.5 476,-112.5"/>
<text text-anchor="middle" x="519" y="-119.5" font-family="Helvetica,sans-Serif" font-size="10.00">splice/frame.h</text>
</a>
</g>
</g>
<!-- Node13&#45;&gt;Node19 -->
<g id="edge29" class="edge">
<title>Node13&#45;&gt;Node19</title>
<path fill="none" stroke="midnightblue" d="M519,-224.37C519,-206.62 519,-165.67 519,-141.6"/>
<polygon fill="midnightblue" stroke="midnightblue" points="522.5,-141.59 519,-131.59 515.5,-141.59 522.5,-141.59"/>
</g>
<!-- Node20 -->
<g id="node20" class="node">
<title>Node20</title>
<g id="a_node20"><a xlink:href="mq_8h.html" target="_top" xlink:title="Message queue.">
<polygon fill="white" stroke="black" points="200.5,-168.5 200.5,-187.5 241.5,-187.5 241.5,-168.5 200.5,-168.5"/>
<text text-anchor="middle" x="221" y="-175.5" font-family="Helvetica,sans-Serif" font-size="10.00">mq.h</text>
</a>
</g>
</g>
<!-- Node13&#45;&gt;Node20 -->
<g id="edge31" class="edge">
<title>Node13&#45;&gt;Node20</title>
<path fill="none" stroke="midnightblue" d="M501.25,-229.78C452.1,-220.88 313.73,-195.8 251.73,-184.57"/>
<polygon fill="midnightblue" stroke="midnightblue" points="252.23,-181.1 241.77,-182.76 250.98,-187.99 252.23,-181.1"/>
</g>
<!-- Node14&#45;&gt;Node3 -->
<g id="edge19" class="edge">
<title>Node14&#45;&gt;Node3</title>
<path fill="none" stroke="midnightblue" d="M687.93,-112.32C698.17,-104.18 713.72,-91.84 726,-82.09"/>
<polygon fill="midnightblue" stroke="midnightblue" points="728.22,-84.79 733.88,-75.83 723.87,-79.31 728.22,-84.79"/>
</g>
<!-- Node15&#45;&gt;Node3 -->
<g id="edge21" class="edge">
<title>Node15&#45;&gt;Node3</title>
<path fill="none" stroke="midnightblue" d="M336.74,-168.3C314.03,-155.76 278.98,-131.92 297,-112 323.77,-82.41 592.88,-71.39 700.68,-68.15"/>
<polygon fill="midnightblue" stroke="midnightblue" points="701.01,-71.64 710.9,-67.85 700.8,-64.64 701.01,-71.64"/>
</g>
<!-- Node16 -->
<g id="node16" class="node">
<title>Node16</title>
<g id="a_node16"><a xlink:href="sidebag_8h.html" target="_top" xlink:title="Sidebag for splice.">
<polygon fill="white" stroke="black" points="306.5,-112.5 306.5,-131.5 401.5,-131.5 401.5,-112.5 306.5,-112.5"/>
<text text-anchor="middle" x="354" y="-119.5" font-family="Helvetica,sans-Serif" font-size="10.00">splice/sidebag.h</text>
</a>
</g>
</g>
<!-- Node15&#45;&gt;Node16 -->
<g id="edge22" class="edge">
<title>Node15&#45;&gt;Node16</title>
<path fill="none" stroke="midnightblue" d="M354,-168.08C354,-161.01 354,-150.86 354,-141.99"/>
<polygon fill="midnightblue" stroke="midnightblue" points="357.5,-141.75 354,-131.75 350.5,-141.75 357.5,-141.75"/>
</g>
<!-- Node16&#45;&gt;Node3 -->
<g id="edge23" class="edge">
<title>Node16&#45;&gt;Node3</title>
<path fill="none" stroke="midnightblue" d="M401.57,-113.41C404.76,-112.92 407.93,-112.45 411,-112 514.65,-96.84 636.68,-80.87 700.69,-72.65"/>
<polygon fill="midnightblue" stroke="midnightblue" points="701.35,-76.09 710.83,-71.34 700.46,-69.15 701.35,-76.09"/>
</g>
<!-- Node17&#45;&gt;Node3 -->
<g id="edge25" class="edge">
<title>Node17&#45;&gt;Node3</title>
<path fill="none" stroke="midnightblue" d="M665.13,-168.11C653.3,-155.13 635.13,-130.52 647,-112 658.98,-93.31 680.9,-82.28 700.97,-75.82"/>
<polygon fill="midnightblue" stroke="midnightblue" points="702,-79.17 710.62,-73.01 700.04,-72.45 702,-79.17"/>
</g>
<!-- Node17&#45;&gt;Node14 -->
<g id="edge26" class="edge">
<title>Node17&#45;&gt;Node14</title>
<path fill="none" stroke="midnightblue" d="M674.5,-168.08C674.89,-161.01 675.45,-150.86 675.95,-141.99"/>
<polygon fill="midnightblue" stroke="midnightblue" points="679.45,-141.93 676.51,-131.75 672.46,-141.54 679.45,-141.93"/>
</g>
<!-- Node18&#45;&gt;Node3 -->
<g id="edge28" class="edge">
<title>Node18&#45;&gt;Node3</title>
<path fill="none" stroke="midnightblue" d="M458.17,-114.42C461.11,-113.53 464.12,-112.69 467,-112 548.51,-92.42 645.53,-78.88 700.73,-72.08"/>
<polygon fill="midnightblue" stroke="midnightblue" points="701.36,-75.53 710.87,-70.84 700.52,-68.58 701.36,-75.53"/>
</g>
<!-- Node19&#45;&gt;Node3 -->
<g id="edge30" class="edge">
<title>Node19&#45;&gt;Node3</title>
<path fill="none" stroke="midnightblue" d="M554.81,-112.44C594.45,-102.97 658.36,-87.7 701.01,-77.51"/>
<polygon fill="midnightblue" stroke="midnightblue" points="701.92,-80.89 710.84,-75.16 700.3,-74.08 701.92,-80.89"/>
</g>
<!-- Node20&#45;&gt;Node3 -->
<g id="edge32" class="edge">
<title>Node20&#45;&gt;Node3</title>
<path fill="none" stroke="midnightblue" d="M218.59,-168.43C215.26,-154.49 211.19,-126.96 226,-112 259.09,-78.59 580.95,-69.76 700.55,-67.63"/>
<polygon fill="midnightblue" stroke="midnightblue" points="700.87,-71.12 710.81,-67.45 700.75,-64.13 700.87,-71.12"/>
</g>
<!-- Node21&#45;&gt;Node3 -->
<g id="edge35" class="edge">
<title>Node21&#45;&gt;Node3</title>
<path fill="none" stroke="midnightblue" d="M247.51,-504.32C254.6,-485.96 270,-441.66 270,-403 270,-403 270,-403 270,-233 270,-178.56 249.42,-149.37 289,-112 318.56,-84.09 591.73,-72.06 700.56,-68.34"/>
<polygon fill="midnightblue" stroke="midnightblue" points="700.99,-71.83 710.87,-68 700.76,-64.84 700.99,-71.83"/>
</g>
<!-- Node22 -->
<g id="node22" class="node">
<title>Node22</title>
<g id="a_node22"><a xlink:href="rumble_8h.html" target="_top" xlink:title="Joypad rumble.">
<polygon fill="white" stroke="black" points="0,-224.5 0,-243.5 60,-243.5 60,-224.5 0,-224.5"/>
<text text-anchor="middle" x="30" y="-231.5" font-family="Helvetica,sans-Serif" font-size="10.00">rumble.h</text>
</a>
</g>
</g>
<!-- Node21&#45;&gt;Node22 -->
<g id="edge36" class="edge">
<title>Node21&#45;&gt;Node22</title>
<path fill="none" stroke="midnightblue" d="M224.44,-511.61C173.38,-506.81 40,-486.29 40,-403 40,-403 40,-403 40,-345 40,-312.82 35.7,-275.55 32.74,-253.7"/>
<polygon fill="midnightblue" stroke="midnightblue" points="36.17,-252.95 31.31,-243.53 29.24,-253.92 36.17,-252.95"/>
</g>
<!-- Node23 -->
<g id="node23" class="node">
<title>Node23</title>
<g id="a_node23"><a xlink:href="util_8h.html" target="_top" xlink:title="Utility functions.">
<polygon fill="white" stroke="black" points="198.5,-448.5 198.5,-467.5 239.5,-467.5 239.5,-448.5 198.5,-448.5"/>
<text text-anchor="middle" x="219" y="-455.5" font-family="Helvetica,sans-Serif" font-size="10.00">util.h</text>
</a>
</g>
</g>
<!-- Node21&#45;&gt;Node23 -->
<g id="edge38" class="edge">
<title>Node21&#45;&gt;Node23</title>
<path fill="none" stroke="midnightblue" d="M239.87,-504.08C236.49,-496.77 231.58,-486.18 227.38,-477.1"/>
<polygon fill="midnightblue" stroke="midnightblue" points="230.43,-475.36 223.05,-467.75 224.08,-478.3 230.43,-475.36"/>
</g>
<!-- Node22&#45;&gt;Node3 -->
<g id="edge37" class="edge">
<title>Node22&#45;&gt;Node3</title>
<path fill="none" stroke="midnightblue" d="M30.15,-224.45C31.07,-201.75 37.01,-139.8 74,-112 123.91,-74.49 558.86,-68.25 700.57,-67.21"/>
<polygon fill="midnightblue" stroke="midnightblue" points="700.67,-70.71 710.65,-67.14 700.63,-63.71 700.67,-70.71"/>
</g>
<!-- Node23&#45;&gt;Node3 -->
<g id="edge39" class="edge">
<title>Node23&#45;&gt;Node3</title>
<path fill="none" stroke="midnightblue" d="M198.24,-450.4C161.3,-437.21 88,-403.87 88,-347 88,-347 88,-347 88,-177 88,-137.98 111.94,-129.13 147,-112 196.35,-87.89 570.72,-72.95 700.7,-68.45"/>
<polygon fill="midnightblue" stroke="midnightblue" points="700.84,-71.94 710.71,-68.1 700.6,-64.95 700.84,-71.94"/>
</g>
<!-- Node24 -->
<g id="node24" class="node">
<title>Node24</title>
<g id="a_node24"><a xlink:href="mat_8h.html" target="_top" xlink:title="3x3 and 4x4 matrix types.">
<polygon fill="white" stroke="black" points="196.5,-392.5 196.5,-411.5 241.5,-411.5 241.5,-392.5 196.5,-392.5"/>
<text text-anchor="middle" x="219" y="-399.5" font-family="Helvetica,sans-Serif" font-size="10.00">mat.h</text>
</a>
</g>
</g>
<!-- Node23&#45;&gt;Node24 -->
<g id="edge40" class="edge">
<title>Node23&#45;&gt;Node24</title>
<path fill="none" stroke="midnightblue" d="M219,-448.08C219,-441.01 219,-430.86 219,-421.99"/>
<polygon fill="midnightblue" stroke="midnightblue" points="222.5,-421.75 219,-411.75 215.5,-421.75 222.5,-421.75"/>
</g>
<!-- Node25 -->
<g id="node25" class="node">
<title>Node25</title>
<g id="a_node25"><a xlink:href="vec_8h.html" target="_top" xlink:title="Vector math.">
<polygon fill="white" stroke="black" points="712.5,-392.5 712.5,-411.5 755.5,-411.5 755.5,-392.5 712.5,-392.5"/>
<text text-anchor="middle" x="734" y="-399.5" font-family="Helvetica,sans-Serif" font-size="10.00">vec.h</text>
</a>
</g>
</g>
<!-- Node23&#45;&gt;Node25 -->
<g id="edge41" class="edge">
<title>Node23&#45;&gt;Node25</title>
<path fill="none" stroke="midnightblue" d="M239.51,-454.85C318.85,-446.53 606.03,-416.42 702.3,-406.32"/>
<polygon fill="midnightblue" stroke="midnightblue" points="702.72,-409.8 712.3,-405.28 701.99,-402.84 702.72,-409.8"/>
</g>
<!-- Node26 -->
<g id="node26" class="node">
<title>Node26</title>
<g id="a_node26"><a xlink:href="sm_8h.html" target="_top" xlink:title="State machines.">
<polygon fill="white" stroke="black" points="158.5,-336.5 158.5,-355.5 199.5,-355.5 199.5,-336.5 158.5,-336.5"/>
<text text-anchor="middle" x="179" y="-343.5" font-family="Helvetica,sans-Serif" font-size="10.00">sm.h</text>
</a>
</g>
</g>
<!-- Node23&#45;&gt;Node26 -->
<g id="edge43" class="edge">
<title>Node23&#45;&gt;Node26</title>
<path fill="none" stroke="midnightblue" d="M210.93,-448.47C203.39,-439.95 192.48,-426.12 187,-412 181.27,-397.24 179.41,-379.31 178.9,-366.03"/>
<polygon fill="midnightblue" stroke="midnightblue" points="182.39,-365.68 178.74,-355.74 175.4,-365.79 182.39,-365.68"/>
</g>
<!-- Node25&#45;&gt;Node11 -->
<g id="edge42" class="edge">
<title>Node25&#45;&gt;Node11</title>
<path fill="none" stroke="midnightblue" d="M734,-392.08C734,-385.01 734,-374.86 734,-365.99"/>
<polygon fill="midnightblue" stroke="midnightblue" points="737.5,-365.75 734,-355.75 730.5,-365.75 737.5,-365.75"/>
</g>
<!-- Node26&#45;&gt;Node3 -->
<g id="edge44" class="edge">
<title>Node26&#45;&gt;Node3</title>
<path fill="none" stroke="midnightblue" d="M170.92,-336.34C163.27,-327.72 151.95,-313.82 145,-300 131.48,-273.11 126,-265.1 126,-235 126,-235 126,-235 126,-177 126,-136.14 153.92,-129.15 191,-112 281.35,-70.21 585.88,-66.55 700.7,-66.7"/>
<polygon fill="midnightblue" stroke="midnightblue" points="700.87,-70.21 710.88,-66.73 700.89,-63.21 700.87,-70.21"/>
</g>
<!-- Node26&#45;&gt;Node17 -->
<g id="edge45" class="edge">
<title>Node26&#45;&gt;Node17</title>
<path fill="none" stroke="midnightblue" d="M199.69,-340.8C256.19,-329 417.38,-293.21 545,-244 583.18,-229.28 625.09,-206.92 650.47,-192.64"/>
<polygon fill="midnightblue" stroke="midnightblue" points="652.38,-195.58 659.34,-187.59 648.92,-189.49 652.38,-195.58"/>
</g>
<!-- Node26&#45;&gt;Node20 -->
<g id="edge49" class="edge">
<title>Node26&#45;&gt;Node20</title>
<path fill="none" stroke="midnightblue" d="M188.07,-336.32C196.21,-327.89 207.67,-314.31 213,-300 225.81,-265.6 224.88,-221.92 222.99,-197.56"/>
<polygon fill="midnightblue" stroke="midnightblue" points="226.47,-197.2 222.06,-187.56 219.5,-197.84 226.47,-197.2"/>
</g>
<!-- Node27 -->
<g id="node27" class="node">
<title>Node27</title>
<g id="a_node27"><a xlink:href="anim_8h.html" target="_top" xlink:title="Animation.">
<polygon fill="white" stroke="black" points="154,-280.5 154,-299.5 204,-299.5 204,-280.5 154,-280.5"/>
<text text-anchor="middle" x="179" y="-287.5" font-family="Helvetica,sans-Serif" font-size="10.00">anim.h</text>
</a>
</g>
</g>
<!-- Node26&#45;&gt;Node27 -->
<g id="edge46" class="edge">
<title>Node26&#45;&gt;Node27</title>
<path fill="none" stroke="midnightblue" d="M179,-336.08C179,-329.01 179,-318.86 179,-309.99"/>
<polygon fill="midnightblue" stroke="midnightblue" points="182.5,-309.75 179,-299.75 175.5,-309.75 182.5,-309.75"/>
</g>
<!-- Node27&#45;&gt;Node3 -->
<g id="edge47" class="edge">
<title>Node27&#45;&gt;Node3</title>
<path fill="none" stroke="midnightblue" d="M177.26,-280.34C171.86,-250.63 158.8,-152.39 213,-112 251.73,-83.14 580.03,-71.44 700.72,-68.09"/>
<polygon fill="midnightblue" stroke="midnightblue" points="700.83,-71.59 710.73,-67.82 700.64,-64.6 700.83,-71.59"/>
</g>
<!-- Node27&#45;&gt;Node13 -->
<g id="edge48" class="edge">
<title>Node27&#45;&gt;Node13</title>
<path fill="none" stroke="midnightblue" d="M204,-285.03C266.03,-275.18 426.65,-249.67 491.37,-239.39"/>
<polygon fill="midnightblue" stroke="midnightblue" points="491.92,-242.84 501.25,-237.82 490.83,-235.93 491.92,-242.84"/>
</g>
<!-- Node28&#45;&gt;Node3 -->
<g id="edge51" class="edge">
<title>Node28&#45;&gt;Node3</title>
<path fill="none" stroke="midnightblue" d="M1013.87,-168.22C1006.69,-153.97 990.48,-126 968,-112 912.99,-77.73 836.88,-68.91 789.32,-66.99"/>
<polygon fill="midnightblue" stroke="midnightblue" points="789.15,-63.48 779.04,-66.66 788.93,-70.47 789.15,-63.48"/>
</g>
<!-- Node28&#45;&gt;Node14 -->
<g id="edge52" class="edge">
<title>Node28&#45;&gt;Node14</title>
<path fill="none" stroke="midnightblue" d="M991.24,-172.76C928.93,-162.89 774.38,-138.42 708.05,-127.92"/>
<polygon fill="midnightblue" stroke="midnightblue" points="708.25,-124.41 697.83,-126.3 707.16,-131.32 708.25,-124.41"/>
</g>
<!-- Node29 -->
<g id="node29" class="node">
<title>Node29</title>
<g id="a_node29"><a xlink:href="cid_8h.html" target="_top" xlink:title="Class IDs.">
<polygon fill="white" stroke="black" points="1020,-112.5 1020,-131.5 1060,-131.5 1060,-112.5 1020,-112.5"/>
<text text-anchor="middle" x="1040" y="-119.5" font-family="Helvetica,sans-Serif" font-size="10.00">cid.h</text>
</a>
</g>
</g>
<!-- Node28&#45;&gt;Node29 -->
<g id="edge53" class="edge">
<title>Node28&#45;&gt;Node29</title>
<path fill="none" stroke="midnightblue" d="M1021.63,-168.08C1024.61,-160.77 1028.93,-150.18 1032.62,-141.1"/>
<polygon fill="midnightblue" stroke="midnightblue" points="1035.9,-142.33 1036.43,-131.75 1029.42,-139.69 1035.9,-142.33"/>
</g>
<!-- Node29&#45;&gt;Node3 -->
<g id="edge54" class="edge">
<title>Node29&#45;&gt;Node3</title>
<path fill="none" stroke="midnightblue" d="M1019.94,-115.38C1015.37,-114.18 1010.53,-112.99 1006,-112 930.4,-95.51 841.41,-81.25 789.3,-73.42"/>
<polygon fill="midnightblue" stroke="midnightblue" points="789.8,-69.96 779.39,-71.94 788.76,-76.88 789.8,-69.96"/>
</g>
<!-- Node30&#45;&gt;Node3 -->
<g id="edge57" class="edge">
<title>Node30&#45;&gt;Node3</title>
<path fill="none" stroke="midnightblue" d="M1085.08,-567.95C1146.12,-564.05 1282,-545.62 1282,-459 1282,-459 1282,-459 1282,-177 1282,-76.8 918.65,-67.02 789.71,-66.7"/>
<polygon fill="midnightblue" stroke="midnightblue" points="789.41,-63.2 779.41,-66.69 789.41,-70.2 789.41,-63.2"/>
</g>
<!-- Node30&#45;&gt;Node28 -->
<g id="edge60" class="edge">
<title>Node30&#45;&gt;Node28</title>
<path fill="none" stroke="midnightblue" d="M1056,-560.44C1056,-541.94 1056,-496.81 1056,-459 1056,-459 1056,-459 1056,-289 1056,-254.81 1039.4,-217.76 1028.14,-196.57"/>
<polygon fill="midnightblue" stroke="midnightblue" points="1031.18,-194.83 1023.28,-187.77 1025.05,-198.22 1031.18,-194.83"/>
</g>
<!-- Node31 -->
<g id="node31" class="node">
<title>Node31</title>
<g id="a_node31"><a xlink:href="font_8h.html" target="_top" xlink:title="Font system.">
<polygon fill="white" stroke="black" points="944.5,-336.5 944.5,-355.5 989.5,-355.5 989.5,-336.5 944.5,-336.5"/>
<text text-anchor="middle" x="967" y="-343.5" font-family="Helvetica,sans-Serif" font-size="10.00">font.h</text>
</a>
</g>
</g>
<!-- Node30&#45;&gt;Node31 -->
<g id="edge58" class="edge">
<title>Node30&#45;&gt;Node31</title>
<path fill="none" stroke="midnightblue" d="M1052.51,-560.3C1039.36,-527.49 992.61,-410.88 974.37,-365.38"/>
<polygon fill="midnightblue" stroke="midnightblue" points="977.53,-363.86 970.56,-355.88 971.03,-366.47 977.53,-363.86"/>
</g>
<!-- Node32 -->
<g id="node32" class="node">
<title>Node32</title>
<g id="a_node32"><a xlink:href="shd_8h.html" target="_top" xlink:title="Shaders.">
<polygon fill="white" stroke="black" points="1103.5,-504.5 1103.5,-523.5 1146.5,-523.5 1146.5,-504.5 1103.5,-504.5"/>
<text text-anchor="middle" x="1125" y="-511.5" font-family="Helvetica,sans-Serif" font-size="10.00">shd.h</text>
</a>
</g>
</g>
<!-- Node30&#45;&gt;Node32 -->
<g id="edge61" class="edge">
<title>Node30&#45;&gt;Node32</title>
<path fill="none" stroke="midnightblue" d="M1067.09,-560.32C1077.49,-552.18 1093.26,-539.84 1105.72,-530.09"/>
<polygon fill="midnightblue" stroke="midnightblue" points="1107.99,-532.75 1113.71,-523.83 1103.68,-527.24 1107.99,-532.75"/>
</g>
<!-- Node31&#45;&gt;Node3 -->
<g id="edge59" class="edge">
<title>Node31&#45;&gt;Node3</title>
<path fill="none" stroke="midnightblue" d="M965.3,-336.48C961.78,-318.06 954,-273.08 954,-235 954,-235 954,-235 954,-177 954,-146.2 952.99,-132.49 930,-112 891.21,-77.44 830.31,-68.35 789.08,-66.49"/>
<polygon fill="midnightblue" stroke="midnightblue" points="789.15,-62.99 779.04,-66.16 788.92,-69.99 789.15,-62.99"/>
</g>
<!-- Node32&#45;&gt;Node3 -->
<g id="edge62" class="edge">
<title>Node32&#45;&gt;Node3</title>
<path fill="none" stroke="midnightblue" d="M1120.82,-504.39C1112.36,-486.16 1094,-442.09 1094,-403 1094,-403 1094,-403 1094,-177 1094,-146.05 1093.25,-131.24 1069,-112 1026.59,-78.34 867.59,-69.86 789.22,-67.72"/>
<polygon fill="midnightblue" stroke="midnightblue" points="789.26,-64.22 779.17,-67.47 789.08,-71.22 789.26,-64.22"/>
</g>
<!-- Node32&#45;&gt;Node25 -->
<g id="edge71" class="edge">
<title>Node32&#45;&gt;Node25</title>
<path fill="none" stroke="midnightblue" d="M1103.33,-511.99C1038.54,-508.67 847.44,-496.64 793,-468 772.22,-457.07 755.09,-435.76 744.74,-420.52"/>
<polygon fill="midnightblue" stroke="midnightblue" points="747.57,-418.45 739.19,-411.96 741.69,-422.26 747.57,-418.45"/>
</g>
<!-- Node33 -->
<g id="node33" class="node">
<title>Node33</title>
<g id="a_node33"><a xlink:href="geom_8h.html" target="_top" xlink:title="Geometry.">
<polygon fill="white" stroke="black" points="1160.5,-392.5 1160.5,-411.5 1213.5,-411.5 1213.5,-392.5 1160.5,-392.5"/>
<text text-anchor="middle" x="1187" y="-399.5" font-family="Helvetica,sans-Serif" font-size="10.00">geom.h</text>
</a>
</g>
</g>
<!-- Node32&#45;&gt;Node33 -->
<g id="edge63" class="edge">
<title>Node32&#45;&gt;Node33</title>
<path fill="none" stroke="midnightblue" d="M1138.76,-504.42C1150.33,-496.45 1166.33,-483.49 1175,-468 1182.97,-453.76 1185.79,-435.29 1186.72,-421.68"/>
<polygon fill="midnightblue" stroke="midnightblue" points="1190.22,-421.72 1187.13,-411.59 1183.23,-421.44 1190.22,-421.72"/>
</g>
<!-- Node34 -->
<g id="node34" class="node">
<title>Node34</title>
<g id="a_node34"><a xlink:href="surf_8h.html" target="_top" xlink:title="Surfaces?">
<polygon fill="white" stroke="black" points="1122,-448.5 1122,-467.5 1166,-467.5 1166,-448.5 1122,-448.5"/>
<text text-anchor="middle" x="1144" y="-455.5" font-family="Helvetica,sans-Serif" font-size="10.00">surf.h</text>
</a>
</g>
</g>
<!-- Node32&#45;&gt;Node34 -->
<g id="edge65" class="edge">
<title>Node32&#45;&gt;Node34</title>
<path fill="none" stroke="midnightblue" d="M1128.14,-504.08C1130.68,-496.85 1134.36,-486.41 1137.53,-477.4"/>
<polygon fill="midnightblue" stroke="midnightblue" points="1140.9,-478.35 1140.92,-467.75 1134.3,-476.02 1140.9,-478.35"/>
</g>
<!-- Node35 -->
<g id="node35" class="node">
<title>Node35</title>
<g id="a_node35"><a xlink:href="sce_2gs_8h.html" target="_top" xlink:title="Graphics synthesizer.">
<polygon fill="white" stroke="black" points="1198,-280.5 1198,-299.5 1254,-299.5 1254,-280.5 1198,-280.5"/>
<text text-anchor="middle" x="1226" y="-287.5" font-family="Helvetica,sans-Serif" font-size="10.00">sce/gs.h</text>
</a>
</g>
</g>
<!-- Node32&#45;&gt;Node35 -->
<g id="edge69" class="edge">
<title>Node32&#45;&gt;Node35</title>
<path fill="none" stroke="midnightblue" d="M1143.02,-504.37C1157.9,-496.53 1178.81,-483.8 1193,-468 1211.73,-447.15 1214.92,-439.12 1222,-412 1231.17,-376.87 1229.79,-334.06 1227.92,-309.93"/>
<polygon fill="midnightblue" stroke="midnightblue" points="1231.38,-309.34 1227,-299.7 1224.41,-309.97 1231.38,-309.34"/>
</g>
<!-- Node33&#45;&gt;Node3 -->
<g id="edge64" class="edge">
<title>Node33&#45;&gt;Node3</title>
<path fill="none" stroke="midnightblue" d="M1184.71,-392.23C1180.07,-373.69 1170,-329.07 1170,-291 1170,-291 1170,-291 1170,-177 1170,-146.2 1170.24,-130.99 1146,-112 1091.43,-69.26 881.65,-65.71 789.19,-66.3"/>
<polygon fill="midnightblue" stroke="midnightblue" points="789.01,-62.8 779.04,-66.38 789.07,-69.8 789.01,-62.8"/>
</g>
<!-- Node34&#45;&gt;Node3 -->
<g id="edge66" class="edge">
<title>Node34&#45;&gt;Node3</title>
<path fill="none" stroke="midnightblue" d="M1142.43,-448.48C1139.18,-430.04 1132,-385.04 1132,-347 1132,-347 1132,-347 1132,-177 1132,-146.2 1132.13,-131.13 1108,-112 1059.57,-73.61 874.96,-67.58 789.23,-66.9"/>
<polygon fill="midnightblue" stroke="midnightblue" points="789.06,-63.4 779.04,-66.84 789.01,-70.4 789.06,-63.4"/>
</g>
<!-- Node34&#45;&gt;Node25 -->
<g id="edge67" class="edge">
<title>Node34&#45;&gt;Node25</title>
<path fill="none" stroke="midnightblue" d="M1121.58,-455.63C1064.04,-451.84 906.39,-439.75 765.67,-411.79"/>
<polygon fill="midnightblue" stroke="midnightblue" points="766.06,-408.3 755.57,-409.75 764.68,-415.16 766.06,-408.3"/>
</g>
<!-- Node34&#45;&gt;Node33 -->
<g id="edge68" class="edge">
<title>Node34&#45;&gt;Node33</title>
<path fill="none" stroke="midnightblue" d="M1151.1,-448.08C1157.24,-440.38 1166.27,-429.03 1173.74,-419.65"/>
<polygon fill="midnightblue" stroke="midnightblue" points="1176.54,-421.75 1180.03,-411.75 1171.06,-417.39 1176.54,-421.75"/>
</g>
<!-- Node35&#45;&gt;Node3 -->
<g id="edge70" class="edge">
<title>Node35&#45;&gt;Node3</title>
<path fill="none" stroke="midnightblue" d="M1227.04,-280.28C1229.98,-251.19 1235.05,-156.77 1184,-112 1154.7,-86.3 894.64,-73.03 789.16,-68.66"/>
<polygon fill="midnightblue" stroke="midnightblue" points="789.28,-65.16 779.15,-68.25 789,-72.16 789.28,-65.16"/>
</g>
<!-- Node36&#45;&gt;Node3 -->
<g id="edge73" class="edge">
<title>Node36&#45;&gt;Node3</title>
<path fill="none" stroke="midnightblue" d="M1336.12,-224.18C1335.89,-201.36 1331.82,-140.18 1296,-112 1256.55,-80.97 913.77,-70.61 789.64,-67.85"/>
<polygon fill="midnightblue" stroke="midnightblue" points="789.43,-64.35 779.35,-67.63 789.28,-71.35 789.43,-64.35"/>
</g>
<!-- Node37&#45;&gt;Node3 -->
<g id="edge75" class="edge">
<title>Node37&#45;&gt;Node3</title>
<path fill="none" stroke="midnightblue" d="M918.61,-560.44C917.79,-541.94 916,-496.83 916,-459 916,-459 916,-459 916,-177 916,-116.6 839.62,-87.8 788.95,-75.34"/>
<polygon fill="midnightblue" stroke="midnightblue" points="789.73,-71.93 779.19,-73.06 788.14,-78.75 789.73,-71.93"/>
</g>
<!-- Node37&#45;&gt;Node8 -->
<g id="edge76" class="edge">
<title>Node37&#45;&gt;Node8</title>
<path fill="none" stroke="midnightblue" d="M909.52,-560.32C900.8,-552.34 887.66,-540.31 877.1,-530.65"/>
<polygon fill="midnightblue" stroke="midnightblue" points="879.39,-528 869.65,-523.83 874.67,-533.17 879.39,-528"/>
</g>
</g>
</svg>
