<?xml version="1.0" encoding="UTF-8" standalone="no"?>
<!DOCTYPE svg PUBLIC "-//W3C//DTD SVG 1.1//EN"
 "http://www.w3.org/Graphics/SVG/1.1/DTD/svg11.dtd">
<!-- Generated by graphviz version 2.43.0 (0)
 -->
<!-- Title: src/P2/steppower.c Pages: 1 -->
<svg width="1273pt" height="644pt"
 viewBox="0.00 0.00 1272.50 644.00" xmlns="http://www.w3.org/2000/svg" xmlns:xlink="http://www.w3.org/1999/xlink">
<g id="graph0" class="graph" transform="scale(1 1) rotate(0) translate(4 640)">
<title>src/P2/steppower.c</title>
<polygon fill="white" stroke="transparent" points="-4,4 -4,-640 1268.5,-640 1268.5,4 -4,4"/>
<!-- Node1 -->
<g id="node1" class="node">
<title>Node1</title>
<g id="a_node1"><a xlink:title=" ">
<polygon fill="#bfbfbf" stroke="black" points="894.5,-616.5 894.5,-635.5 1001.5,-635.5 1001.5,-616.5 894.5,-616.5"/>
<text text-anchor="middle" x="948" y="-623.5" font-family="Helvetica,sans-Serif" font-size="10.00">src/P2/steppower.c</text>
</a>
</g>
</g>
<!-- Node2 -->
<g id="node2" class="node">
<title>Node2</title>
<g id="a_node2"><a xlink:href="steppower_8h.html" target="_top" xlink:title=" ">
<polygon fill="white" stroke="black" points="619,-560.5 619,-579.5 695,-579.5 695,-560.5 619,-560.5"/>
<text text-anchor="middle" x="657" y="-567.5" font-family="Helvetica,sans-Serif" font-size="10.00">steppower.h</text>
</a>
</g>
</g>
<!-- Node1&#45;&gt;Node2 -->
<g id="edge1" class="edge">
<title>Node1&#45;&gt;Node2</title>
<path fill="none" stroke="midnightblue" d="M901.89,-616.44C848.14,-606.47 759.73,-590.06 705.13,-579.93"/>
<polygon fill="midnightblue" stroke="midnightblue" points="705.48,-576.44 695.01,-578.05 704.21,-583.32 705.48,-576.44"/>
</g>
<!-- Node8 -->
<g id="node8" class="node">
<title>Node8</title>
<g id="a_node8"><a xlink:href="jt_8h.html" target="_top" xlink:title="Sly entity.">
<polygon fill="white" stroke="black" points="760,-504.5 760,-523.5 792,-523.5 792,-504.5 760,-504.5"/>
<text text-anchor="middle" x="776" y="-511.5" font-family="Helvetica,sans-Serif" font-size="10.00">jt.h</text>
</a>
</g>
</g>
<!-- Node1&#45;&gt;Node8 -->
<g id="edge53" class="edge">
<title>Node1&#45;&gt;Node8</title>
<path fill="none" stroke="midnightblue" d="M894.37,-621.92C861.6,-617.27 821.11,-606.16 795,-580 782.94,-567.92 778.45,-548.63 776.82,-534.2"/>
<polygon fill="midnightblue" stroke="midnightblue" points="780.28,-533.61 776.04,-523.9 773.3,-534.14 780.28,-533.61"/>
</g>
<!-- Node27 -->
<g id="node27" class="node">
<title>Node27</title>
<g id="a_node27"><a xlink:href="game_8h.html" target="_top" xlink:title="Game state and level management.">
<polygon fill="white" stroke="black" points="956.5,-168.5 956.5,-187.5 1009.5,-187.5 1009.5,-168.5 956.5,-168.5"/>
<text text-anchor="middle" x="983" y="-175.5" font-family="Helvetica,sans-Serif" font-size="10.00">game.h</text>
</a>
</g>
</g>
<!-- Node1&#45;&gt;Node27 -->
<g id="edge48" class="edge">
<title>Node1&#45;&gt;Node27</title>
<path fill="none" stroke="midnightblue" d="M966.46,-616.39C996.83,-600.81 1054,-564.86 1054,-515 1054,-515 1054,-515 1054,-345 1054,-286.45 1016.2,-224.97 995.76,-196"/>
<polygon fill="midnightblue" stroke="midnightblue" points="998.51,-193.83 989.81,-187.79 992.84,-197.94 998.51,-193.83"/>
</g>
<!-- Node29 -->
<g id="node29" class="node">
<title>Node29</title>
<g id="a_node29"><a xlink:href="screen_8h.html" target="_top" xlink:title="User interface manager.">
<polygon fill="white" stroke="black" points="1082,-560.5 1082,-579.5 1140,-579.5 1140,-560.5 1082,-560.5"/>
<text text-anchor="middle" x="1111" y="-567.5" font-family="Helvetica,sans-Serif" font-size="10.00">screen.h</text>
</a>
</g>
</g>
<!-- Node1&#45;&gt;Node29 -->
<g id="edge54" class="edge">
<title>Node1&#45;&gt;Node29</title>
<path fill="none" stroke="midnightblue" d="M973.83,-616.44C1001.25,-607.36 1044.78,-592.94 1075.43,-582.78"/>
<polygon fill="midnightblue" stroke="midnightblue" points="1076.9,-585.98 1085.29,-579.52 1074.7,-579.34 1076.9,-585.98"/>
</g>
<!-- Node35 -->
<g id="node35" class="node">
<title>Node35</title>
<g id="a_node35"><a xlink:href="clock_8h.html" target="_top" xlink:title="Engine clock.">
<polygon fill="white" stroke="black" points="1213.5,-224.5 1213.5,-243.5 1264.5,-243.5 1264.5,-224.5 1213.5,-224.5"/>
<text text-anchor="middle" x="1239" y="-231.5" font-family="Helvetica,sans-Serif" font-size="10.00">clock.h</text>
</a>
</g>
</g>
<!-- Node1&#45;&gt;Node35 -->
<g id="edge70" class="edge">
<title>Node1&#45;&gt;Node35</title>
<path fill="none" stroke="midnightblue" d="M1000.04,-616.47C1084.24,-601.17 1241,-565.87 1241,-515 1241,-515 1241,-515 1241,-345 1241,-312.94 1240.14,-275.64 1239.55,-253.75"/>
<polygon fill="midnightblue" stroke="midnightblue" points="1243.04,-253.45 1239.26,-243.56 1236.04,-253.65 1243.04,-253.45"/>
</g>
<!-- Node36 -->
<g id="node36" class="node">
<title>Node36</title>
<g id="a_node36"><a xlink:href="steprail_8h.html" target="_top" xlink:title="Rail behavior for STEP objects.">
<polygon fill="white" stroke="black" points="804,-560.5 804,-579.5 866,-579.5 866,-560.5 804,-560.5"/>
<text text-anchor="middle" x="835" y="-567.5" font-family="Helvetica,sans-Serif" font-size="10.00">steprail.h</text>
</a>
</g>
</g>
<!-- Node1&#45;&gt;Node36 -->
<g id="edge72" class="edge">
<title>Node1&#45;&gt;Node36</title>
<path fill="none" stroke="midnightblue" d="M930.09,-616.44C911.75,-607.68 882.99,-593.94 861.91,-583.86"/>
<polygon fill="midnightblue" stroke="midnightblue" points="863.35,-580.67 852.82,-579.52 860.33,-586.99 863.35,-580.67"/>
</g>
<!-- Node3 -->
<g id="node3" class="node">
<title>Node3</title>
<g id="a_node3"><a xlink:href="common_8h.html" target="_top" xlink:title="Common header file.">
<polygon fill="white" stroke="black" points="642,-56.5 642,-75.5 710,-75.5 710,-56.5 642,-56.5"/>
<text text-anchor="middle" x="676" y="-63.5" font-family="Helvetica,sans-Serif" font-size="10.00">common.h</text>
</a>
</g>
</g>
<!-- Node2&#45;&gt;Node3 -->
<g id="edge2" class="edge">
<title>Node2&#45;&gt;Node3</title>
<path fill="none" stroke="midnightblue" d="M653.81,-560.31C645.37,-536.82 622.61,-469.91 615,-412 598.55,-286.89 635.41,-255.35 662,-132 665.35,-116.46 669.14,-98.84 671.94,-85.87"/>
<polygon fill="midnightblue" stroke="midnightblue" points="675.42,-86.34 674.1,-75.83 668.57,-84.87 675.42,-86.34"/>
</g>
<!-- Node2&#45;&gt;Node8 -->
<g id="edge7" class="edge">
<title>Node2&#45;&gt;Node8</title>
<path fill="none" stroke="midnightblue" d="M675.86,-560.44C696.07,-551.27 728.26,-536.66 750.67,-526.5"/>
<polygon fill="midnightblue" stroke="midnightblue" points="752.24,-529.62 759.9,-522.3 749.35,-523.25 752.24,-529.62"/>
</g>
<!-- Node21 -->
<g id="node21" class="node">
<title>Node21</title>
<g id="a_node21"><a xlink:href="joy_8h.html" target="_top" xlink:title="Joypad manager.">
<polygon fill="white" stroke="black" points="252.5,-504.5 252.5,-523.5 291.5,-523.5 291.5,-504.5 252.5,-504.5"/>
<text text-anchor="middle" x="272" y="-511.5" font-family="Helvetica,sans-Serif" font-size="10.00">joy.h</text>
</a>
</g>
</g>
<!-- Node2&#45;&gt;Node21 -->
<g id="edge34" class="edge">
<title>Node2&#45;&gt;Node21</title>
<path fill="none" stroke="midnightblue" d="M618.68,-563.62C541.95,-552.86 370.91,-528.87 301.81,-519.18"/>
<polygon fill="midnightblue" stroke="midnightblue" points="302.01,-515.68 291.63,-517.75 301.04,-522.61 302.01,-515.68"/>
</g>
<!-- Node4 -->
<g id="node4" class="node">
<title>Node4</title>
<g id="a_node4"><a xlink:href="include__asm_8h.html" target="_top" xlink:title=" ">
<polygon fill="white" stroke="black" points="474.5,-0.5 474.5,-19.5 561.5,-19.5 561.5,-0.5 474.5,-0.5"/>
<text text-anchor="middle" x="518" y="-7.5" font-family="Helvetica,sans-Serif" font-size="10.00">include_asm.h</text>
</a>
</g>
</g>
<!-- Node3&#45;&gt;Node4 -->
<g id="edge3" class="edge">
<title>Node3&#45;&gt;Node4</title>
<path fill="none" stroke="midnightblue" d="M650.96,-56.44C624.38,-47.36 582.19,-32.94 552.48,-22.78"/>
<polygon fill="midnightblue" stroke="midnightblue" points="553.51,-19.44 542.92,-19.52 551.25,-26.06 553.51,-19.44"/>
</g>
<!-- Node5 -->
<g id="node5" class="node">
<title>Node5</title>
<g id="a_node5"><a xlink:href="include__rodata_8h.html" target="_top" xlink:title=" ">
<polygon fill="white" stroke="black" points="580,-0.5 580,-19.5 678,-19.5 678,-0.5 580,-0.5"/>
<text text-anchor="middle" x="629" y="-7.5" font-family="Helvetica,sans-Serif" font-size="10.00">include_rodata.h</text>
</a>
</g>
</g>
<!-- Node3&#45;&gt;Node5 -->
<g id="edge4" class="edge">
<title>Node3&#45;&gt;Node5</title>
<path fill="none" stroke="midnightblue" d="M668.24,-56.08C661.46,-48.3 651.46,-36.8 643.24,-27.37"/>
<polygon fill="midnightblue" stroke="midnightblue" points="645.82,-25 636.62,-19.75 640.54,-29.59 645.82,-25"/>
</g>
<!-- Node6 -->
<g id="node6" class="node">
<title>Node6</title>
<g id="a_node6"><a xlink:href="types_8h.html" target="_top" xlink:title="Types used throughout the engine.">
<polygon fill="white" stroke="black" points="696.5,-0.5 696.5,-19.5 749.5,-19.5 749.5,-0.5 696.5,-0.5"/>
<text text-anchor="middle" x="723" y="-7.5" font-family="Helvetica,sans-Serif" font-size="10.00">types.h</text>
</a>
</g>
</g>
<!-- Node3&#45;&gt;Node6 -->
<g id="edge5" class="edge">
<title>Node3&#45;&gt;Node6</title>
<path fill="none" stroke="midnightblue" d="M683.76,-56.08C690.54,-48.3 700.54,-36.8 708.76,-27.37"/>
<polygon fill="midnightblue" stroke="midnightblue" points="711.46,-29.59 715.38,-19.75 706.18,-25 711.46,-29.59"/>
</g>
<!-- Node7 -->
<g id="node7" class="node">
<title>Node7</title>
<g id="a_node7"><a xlink:href="vtables_8h.html" target="_top" xlink:title=" ">
<polygon fill="white" stroke="black" points="768,-0.5 768,-19.5 830,-19.5 830,-0.5 768,-0.5"/>
<text text-anchor="middle" x="799" y="-7.5" font-family="Helvetica,sans-Serif" font-size="10.00">vtables.h</text>
</a>
</g>
</g>
<!-- Node3&#45;&gt;Node7 -->
<g id="edge6" class="edge">
<title>Node3&#45;&gt;Node7</title>
<path fill="none" stroke="midnightblue" d="M695.49,-56.44C715.64,-47.6 747.32,-33.69 770.33,-23.59"/>
<polygon fill="midnightblue" stroke="midnightblue" points="771.85,-26.74 779.6,-19.52 769.04,-20.33 771.85,-26.74"/>
</g>
<!-- Node8&#45;&gt;Node3 -->
<g id="edge8" class="edge">
<title>Node8&#45;&gt;Node3</title>
<path fill="none" stroke="midnightblue" d="M777.83,-504.49C781.63,-486.07 790,-441.12 790,-403 790,-403 790,-403 790,-177 790,-130.11 739.45,-96.89 705.67,-79.93"/>
<polygon fill="midnightblue" stroke="midnightblue" points="707.17,-76.77 696.64,-75.58 704.13,-83.07 707.17,-76.77"/>
</g>
<!-- Node9 -->
<g id="node9" class="node">
<title>Node9</title>
<g id="a_node9"><a xlink:href="step_8h.html" target="_top" xlink:title=" ">
<polygon fill="white" stroke="black" points="714.5,-448.5 714.5,-467.5 761.5,-467.5 761.5,-448.5 714.5,-448.5"/>
<text text-anchor="middle" x="738" y="-455.5" font-family="Helvetica,sans-Serif" font-size="10.00">step.h</text>
</a>
</g>
</g>
<!-- Node8&#45;&gt;Node9 -->
<g id="edge9" class="edge">
<title>Node8&#45;&gt;Node9</title>
<path fill="none" stroke="midnightblue" d="M769.73,-504.08C764.36,-496.46 756.48,-485.26 749.92,-475.94"/>
<polygon fill="midnightblue" stroke="midnightblue" points="752.78,-473.91 744.16,-467.75 747.05,-477.94 752.78,-473.91"/>
</g>
<!-- Node9&#45;&gt;Node3 -->
<g id="edge10" class="edge">
<title>Node9&#45;&gt;Node3</title>
<path fill="none" stroke="midnightblue" d="M739.83,-448.49C743.63,-430.07 752,-385.12 752,-347 752,-347 752,-347 752,-177 752,-137.28 718.04,-101.5 695.52,-82.15"/>
<polygon fill="midnightblue" stroke="midnightblue" points="697.48,-79.24 687.54,-75.57 693.02,-84.63 697.48,-79.24"/>
</g>
<!-- Node10 -->
<g id="node10" class="node">
<title>Node10</title>
<g id="a_node10"><a xlink:href="po_8h.html" target="_top" xlink:title="Player object(?).">
<polygon fill="white" stroke="black" points="686,-392.5 686,-411.5 724,-411.5 724,-392.5 686,-392.5"/>
<text text-anchor="middle" x="705" y="-399.5" font-family="Helvetica,sans-Serif" font-size="10.00">po.h</text>
</a>
</g>
</g>
<!-- Node9&#45;&gt;Node10 -->
<g id="edge11" class="edge">
<title>Node9&#45;&gt;Node10</title>
<path fill="none" stroke="midnightblue" d="M732.55,-448.08C727.99,-440.61 721.33,-429.72 715.71,-420.52"/>
<polygon fill="midnightblue" stroke="midnightblue" points="718.55,-418.46 710.35,-411.75 712.58,-422.11 718.55,-418.46"/>
</g>
<!-- Node10&#45;&gt;Node3 -->
<g id="edge12" class="edge">
<title>Node10&#45;&gt;Node3</title>
<path fill="none" stroke="midnightblue" d="M706.18,-392.46C708.62,-373.99 714,-328.94 714,-291 714,-291 714,-291 714,-177 714,-142.81 697.4,-105.76 686.14,-84.57"/>
<polygon fill="midnightblue" stroke="midnightblue" points="689.18,-82.83 681.28,-75.77 683.05,-86.22 689.18,-82.83"/>
</g>
<!-- Node11 -->
<g id="node11" class="node">
<title>Node11</title>
<g id="a_node11"><a xlink:href="so_8h.html" target="_top" xlink:title="Scene objects.">
<polygon fill="white" stroke="black" points="627.5,-336.5 627.5,-355.5 664.5,-355.5 664.5,-336.5 627.5,-336.5"/>
<text text-anchor="middle" x="646" y="-343.5" font-family="Helvetica,sans-Serif" font-size="10.00">so.h</text>
</a>
</g>
</g>
<!-- Node10&#45;&gt;Node11 -->
<g id="edge13" class="edge">
<title>Node10&#45;&gt;Node11</title>
<path fill="none" stroke="midnightblue" d="M695.52,-392.32C686.8,-384.34 673.66,-372.31 663.1,-362.65"/>
<polygon fill="midnightblue" stroke="midnightblue" points="665.39,-360 655.65,-355.83 660.67,-365.17 665.39,-360"/>
</g>
<!-- Node12 -->
<g id="node12" class="node">
<title>Node12</title>
<g id="a_node12"><a xlink:href="alo_8h.html" target="_top" xlink:title=" ">
<polygon fill="white" stroke="black" points="558.5,-280.5 558.5,-299.5 599.5,-299.5 599.5,-280.5 558.5,-280.5"/>
<text text-anchor="middle" x="579" y="-287.5" font-family="Helvetica,sans-Serif" font-size="10.00">alo.h</text>
</a>
</g>
</g>
<!-- Node11&#45;&gt;Node12 -->
<g id="edge14" class="edge">
<title>Node11&#45;&gt;Node12</title>
<path fill="none" stroke="midnightblue" d="M635.24,-336.32C625.23,-328.26 610.11,-316.08 598.07,-306.37"/>
<polygon fill="midnightblue" stroke="midnightblue" points="599.94,-303.38 589.96,-299.83 595.55,-308.83 599.94,-303.38"/>
</g>
<!-- Node12&#45;&gt;Node3 -->
<g id="edge15" class="edge">
<title>Node12&#45;&gt;Node3</title>
<path fill="none" stroke="midnightblue" d="M582.8,-280.3C597.17,-247.42 648.3,-130.39 668.1,-85.09"/>
<polygon fill="midnightblue" stroke="midnightblue" points="671.32,-86.45 672.12,-75.88 664.91,-83.65 671.32,-86.45"/>
</g>
<!-- Node13 -->
<g id="node13" class="node">
<title>Node13</title>
<g id="a_node13"><a xlink:href="lo_8h.html" target="_top" xlink:title="Level objects.">
<polygon fill="white" stroke="black" points="215.5,-224.5 215.5,-243.5 250.5,-243.5 250.5,-224.5 215.5,-224.5"/>
<text text-anchor="middle" x="233" y="-231.5" font-family="Helvetica,sans-Serif" font-size="10.00">lo.h</text>
</a>
</g>
</g>
<!-- Node12&#45;&gt;Node13 -->
<g id="edge16" class="edge">
<title>Node12&#45;&gt;Node13</title>
<path fill="none" stroke="midnightblue" d="M558.39,-285.78C499.13,-276.54 328.22,-249.86 260.81,-239.34"/>
<polygon fill="midnightblue" stroke="midnightblue" points="260.97,-235.82 250.55,-237.74 259.89,-242.74 260.97,-235.82"/>
</g>
<!-- Node17 -->
<g id="node17" class="node">
<title>Node17</title>
<g id="a_node17"><a xlink:href="dl_8h.html" target="_top" xlink:title=" ">
<polygon fill="white" stroke="black" points="533.5,-168.5 533.5,-187.5 568.5,-187.5 568.5,-168.5 533.5,-168.5"/>
<text text-anchor="middle" x="551" y="-175.5" font-family="Helvetica,sans-Serif" font-size="10.00">dl.h</text>
</a>
</g>
</g>
<!-- Node12&#45;&gt;Node17 -->
<g id="edge33" class="edge">
<title>Node12&#45;&gt;Node17</title>
<path fill="none" stroke="midnightblue" d="M576.8,-280.37C572.28,-262.62 561.86,-221.67 555.73,-197.6"/>
<polygon fill="midnightblue" stroke="midnightblue" points="559.05,-196.42 553.19,-187.59 552.26,-198.15 559.05,-196.42"/>
</g>
<!-- Node13&#45;&gt;Node3 -->
<g id="edge17" class="edge">
<title>Node13&#45;&gt;Node3</title>
<path fill="none" stroke="midnightblue" d="M239.52,-224.44C257.38,-201.7 309.71,-139.65 369,-112 414.78,-90.65 558.22,-76.43 631.68,-70.35"/>
<polygon fill="midnightblue" stroke="midnightblue" points="632.31,-73.82 642,-69.52 631.74,-66.84 632.31,-73.82"/>
</g>
<!-- Node14 -->
<g id="node14" class="node">
<title>Node14</title>
<g id="a_node14"><a xlink:href="oid_8h.html" target="_top" xlink:title="Object IDs.">
<polygon fill="white" stroke="black" points="530.5,-112.5 530.5,-131.5 571.5,-131.5 571.5,-112.5 530.5,-112.5"/>
<text text-anchor="middle" x="551" y="-119.5" font-family="Helvetica,sans-Serif" font-size="10.00">oid.h</text>
</a>
</g>
</g>
<!-- Node13&#45;&gt;Node14 -->
<g id="edge18" class="edge">
<title>Node13&#45;&gt;Node14</title>
<path fill="none" stroke="midnightblue" d="M250.53,-227.76C255.21,-226.44 260.28,-225.1 265,-224 350.84,-204.05 378.87,-222.43 460,-188 488.57,-175.87 516.94,-153.55 534.22,-138.49"/>
<polygon fill="midnightblue" stroke="midnightblue" points="536.63,-141.03 541.77,-131.76 531.97,-135.8 536.63,-141.03"/>
</g>
<!-- Node15 -->
<g id="node15" class="node">
<title>Node15</title>
<g id="a_node15"><a xlink:href="basic_8h.html" target="_top" xlink:title="Basic object.">
<polygon fill="white" stroke="black" points="400.5,-168.5 400.5,-187.5 451.5,-187.5 451.5,-168.5 400.5,-168.5"/>
<text text-anchor="middle" x="426" y="-175.5" font-family="Helvetica,sans-Serif" font-size="10.00">basic.h</text>
</a>
</g>
</g>
<!-- Node13&#45;&gt;Node15 -->
<g id="edge20" class="edge">
<title>Node13&#45;&gt;Node15</title>
<path fill="none" stroke="midnightblue" d="M250.6,-228.04C255.28,-226.73 260.33,-225.31 265,-224 308.12,-211.91 357.75,-198.05 390.38,-188.94"/>
<polygon fill="midnightblue" stroke="midnightblue" points="391.65,-192.22 400.34,-186.16 389.77,-185.47 391.65,-192.22"/>
</g>
<!-- Node13&#45;&gt;Node17 -->
<g id="edge24" class="edge">
<title>Node13&#45;&gt;Node17</title>
<path fill="none" stroke="midnightblue" d="M250.51,-227.65C255.18,-226.33 260.26,-225.01 265,-224 371.33,-201.23 399.92,-206.9 507,-188 512.33,-187.06 518.01,-185.97 523.46,-184.87"/>
<polygon fill="midnightblue" stroke="midnightblue" points="524.39,-188.25 533.48,-182.81 522.98,-181.4 524.39,-188.25"/>
</g>
<!-- Node18 -->
<g id="node18" class="node">
<title>Node18</title>
<g id="a_node18"><a xlink:href="sw_8h.html" target="_top" xlink:title="Scene world?">
<polygon fill="white" stroke="black" points="180,-112.5 180,-131.5 218,-131.5 218,-112.5 180,-112.5"/>
<text text-anchor="middle" x="199" y="-119.5" font-family="Helvetica,sans-Serif" font-size="10.00">sw.h</text>
</a>
</g>
</g>
<!-- Node13&#45;&gt;Node18 -->
<g id="edge27" class="edge">
<title>Node13&#45;&gt;Node18</title>
<path fill="none" stroke="midnightblue" d="M230.33,-224.37C224.82,-206.54 212.07,-165.3 204.65,-141.27"/>
<polygon fill="midnightblue" stroke="midnightblue" points="207.95,-140.11 201.66,-131.59 201.26,-142.18 207.95,-140.11"/>
</g>
<!-- Node19 -->
<g id="node19" class="node">
<title>Node19</title>
<g id="a_node19"><a xlink:href="frame_8h.html" target="_top" xlink:title=" ">
<polygon fill="white" stroke="black" points="236,-112.5 236,-131.5 322,-131.5 322,-112.5 236,-112.5"/>
<text text-anchor="middle" x="279" y="-119.5" font-family="Helvetica,sans-Serif" font-size="10.00">splice/frame.h</text>
</a>
</g>
</g>
<!-- Node13&#45;&gt;Node19 -->
<g id="edge29" class="edge">
<title>Node13&#45;&gt;Node19</title>
<path fill="none" stroke="midnightblue" d="M236.61,-224.37C244.1,-206.46 261.47,-164.92 271.49,-140.95"/>
<polygon fill="midnightblue" stroke="midnightblue" points="274.78,-142.17 275.41,-131.59 268.32,-139.47 274.78,-142.17"/>
</g>
<!-- Node20 -->
<g id="node20" class="node">
<title>Node20</title>
<g id="a_node20"><a xlink:href="mq_8h.html" target="_top" xlink:title="Message queue(?).">
<polygon fill="white" stroke="black" points="107.5,-168.5 107.5,-187.5 148.5,-187.5 148.5,-168.5 107.5,-168.5"/>
<text text-anchor="middle" x="128" y="-175.5" font-family="Helvetica,sans-Serif" font-size="10.00">mq.h</text>
</a>
</g>
</g>
<!-- Node13&#45;&gt;Node20 -->
<g id="edge31" class="edge">
<title>Node13&#45;&gt;Node20</title>
<path fill="none" stroke="midnightblue" d="M216.13,-224.32C199.29,-215.66 173.19,-202.24 153.76,-192.25"/>
<polygon fill="midnightblue" stroke="midnightblue" points="155.32,-189.12 144.83,-187.65 152.12,-195.34 155.32,-189.12"/>
</g>
<!-- Node14&#45;&gt;Node3 -->
<g id="edge19" class="edge">
<title>Node14&#45;&gt;Node3</title>
<path fill="none" stroke="midnightblue" d="M570.81,-112.44C591.29,-103.6 623.48,-89.69 646.86,-79.59"/>
<polygon fill="midnightblue" stroke="midnightblue" points="648.49,-82.7 656.29,-75.52 645.72,-76.27 648.49,-82.7"/>
</g>
<!-- Node15&#45;&gt;Node3 -->
<g id="edge21" class="edge">
<title>Node15&#45;&gt;Node3</title>
<path fill="none" stroke="midnightblue" d="M436.15,-168.42C452.85,-154.7 487.57,-127.79 521,-112 556.78,-95.1 600.25,-83.15 632.04,-75.83"/>
<polygon fill="midnightblue" stroke="midnightblue" points="632.93,-79.22 641.93,-73.62 631.4,-72.39 632.93,-79.22"/>
</g>
<!-- Node16 -->
<g id="node16" class="node">
<title>Node16</title>
<g id="a_node16"><a xlink:href="sidebag_8h.html" target="_top" xlink:title="Sidebag for splice.">
<polygon fill="white" stroke="black" points="378.5,-112.5 378.5,-131.5 473.5,-131.5 473.5,-112.5 378.5,-112.5"/>
<text text-anchor="middle" x="426" y="-119.5" font-family="Helvetica,sans-Serif" font-size="10.00">splice/sidebag.h</text>
</a>
</g>
</g>
<!-- Node15&#45;&gt;Node16 -->
<g id="edge22" class="edge">
<title>Node15&#45;&gt;Node16</title>
<path fill="none" stroke="midnightblue" d="M426,-168.08C426,-161.01 426,-150.86 426,-141.99"/>
<polygon fill="midnightblue" stroke="midnightblue" points="429.5,-141.75 426,-131.75 422.5,-141.75 429.5,-141.75"/>
</g>
<!-- Node16&#45;&gt;Node3 -->
<g id="edge23" class="edge">
<title>Node16&#45;&gt;Node3</title>
<path fill="none" stroke="midnightblue" d="M465.61,-112.44C510.89,-102.66 584.81,-86.7 631.89,-76.53"/>
<polygon fill="midnightblue" stroke="midnightblue" points="632.76,-79.92 641.79,-74.39 631.28,-73.08 632.76,-79.92"/>
</g>
<!-- Node17&#45;&gt;Node3 -->
<g id="edge25" class="edge">
<title>Node17&#45;&gt;Node3</title>
<path fill="none" stroke="midnightblue" d="M560.88,-168.12C574.87,-155.57 601.3,-131.93 624,-112 635.36,-102.03 648.19,-90.92 658.27,-82.23"/>
<polygon fill="midnightblue" stroke="midnightblue" points="660.7,-84.76 665.99,-75.59 656.13,-79.46 660.7,-84.76"/>
</g>
<!-- Node17&#45;&gt;Node14 -->
<g id="edge26" class="edge">
<title>Node17&#45;&gt;Node14</title>
<path fill="none" stroke="midnightblue" d="M551,-168.08C551,-161.01 551,-150.86 551,-141.99"/>
<polygon fill="midnightblue" stroke="midnightblue" points="554.5,-141.75 551,-131.75 547.5,-141.75 554.5,-141.75"/>
</g>
<!-- Node18&#45;&gt;Node3 -->
<g id="edge28" class="edge">
<title>Node18&#45;&gt;Node3</title>
<path fill="none" stroke="midnightblue" d="M218.14,-114.26C221.08,-113.4 224.1,-112.6 227,-112 373.06,-81.56 550.3,-71.51 631.49,-68.35"/>
<polygon fill="midnightblue" stroke="midnightblue" points="631.97,-71.84 641.83,-67.97 631.71,-64.84 631.97,-71.84"/>
</g>
<!-- Node19&#45;&gt;Node3 -->
<g id="edge30" class="edge">
<title>Node19&#45;&gt;Node3</title>
<path fill="none" stroke="midnightblue" d="M322.24,-114.06C326.88,-113.35 331.54,-112.65 336,-112 441.78,-96.65 566.38,-80.7 631.4,-72.54"/>
<polygon fill="midnightblue" stroke="midnightblue" points="632.21,-75.97 641.7,-71.25 631.34,-69.02 632.21,-75.97"/>
</g>
<!-- Node20&#45;&gt;Node3 -->
<g id="edge32" class="edge">
<title>Node20&#45;&gt;Node3</title>
<path fill="none" stroke="midnightblue" d="M126.35,-168.33C124.23,-154.24 122.47,-126.49 138,-112 173.79,-78.6 509.45,-69.75 631.72,-67.62"/>
<polygon fill="midnightblue" stroke="midnightblue" points="631.92,-71.12 641.86,-67.45 631.8,-64.12 631.92,-71.12"/>
</g>
<!-- Node21&#45;&gt;Node3 -->
<g id="edge35" class="edge">
<title>Node21&#45;&gt;Node3</title>
<path fill="none" stroke="midnightblue" d="M272,-504.44C272,-485.94 272,-440.81 272,-403 272,-403 272,-403 272,-345 272,-291.38 228.88,-292.5 206,-244 180.1,-189.11 130.03,-156.78 171,-112 201.82,-78.31 514.42,-69.67 631.79,-67.61"/>
<polygon fill="midnightblue" stroke="midnightblue" points="631.93,-71.1 641.87,-67.44 631.81,-64.11 631.93,-71.1"/>
</g>
<!-- Node22 -->
<g id="node22" class="node">
<title>Node22</title>
<g id="a_node22"><a xlink:href="util_8h.html" target="_top" xlink:title="Utility functions.">
<polygon fill="white" stroke="black" points="181.5,-448.5 181.5,-467.5 222.5,-467.5 222.5,-448.5 181.5,-448.5"/>
<text text-anchor="middle" x="202" y="-455.5" font-family="Helvetica,sans-Serif" font-size="10.00">util.h</text>
</a>
</g>
</g>
<!-- Node21&#45;&gt;Node22 -->
<g id="edge36" class="edge">
<title>Node21&#45;&gt;Node22</title>
<path fill="none" stroke="midnightblue" d="M260.75,-504.32C250.2,-496.18 234.2,-483.84 221.56,-474.09"/>
<polygon fill="midnightblue" stroke="midnightblue" points="223.51,-471.17 213.45,-467.83 219.23,-476.71 223.51,-471.17"/>
</g>
<!-- Node22&#45;&gt;Node3 -->
<g id="edge37" class="edge">
<title>Node22&#45;&gt;Node3</title>
<path fill="none" stroke="midnightblue" d="M181.14,-455.39C129.53,-450.15 0,-428.86 0,-347 0,-347 0,-347 0,-177 0,-138.58 22.6,-129.12 57,-112 108.07,-86.59 498.21,-72.43 631.52,-68.29"/>
<polygon fill="midnightblue" stroke="midnightblue" points="631.88,-71.78 641.77,-67.98 631.67,-64.78 631.88,-71.78"/>
</g>
<!-- Node23 -->
<g id="node23" class="node">
<title>Node23</title>
<g id="a_node23"><a xlink:href="mat_8h.html" target="_top" xlink:title="3x3 and 4x4 matrix types.">
<polygon fill="white" stroke="black" points="128.5,-392.5 128.5,-411.5 173.5,-411.5 173.5,-392.5 128.5,-392.5"/>
<text text-anchor="middle" x="151" y="-399.5" font-family="Helvetica,sans-Serif" font-size="10.00">mat.h</text>
</a>
</g>
</g>
<!-- Node22&#45;&gt;Node23 -->
<g id="edge38" class="edge">
<title>Node22&#45;&gt;Node23</title>
<path fill="none" stroke="midnightblue" d="M193.58,-448.08C186.15,-440.22 175.15,-428.57 166.19,-419.08"/>
<polygon fill="midnightblue" stroke="midnightblue" points="168.68,-416.62 159.26,-411.75 163.59,-421.42 168.68,-416.62"/>
</g>
<!-- Node24 -->
<g id="node24" class="node">
<title>Node24</title>
<g id="a_node24"><a xlink:href="vec_8h.html" target="_top" xlink:title="Vector math functions.">
<polygon fill="white" stroke="black" points="624.5,-392.5 624.5,-411.5 667.5,-411.5 667.5,-392.5 624.5,-392.5"/>
<text text-anchor="middle" x="646" y="-399.5" font-family="Helvetica,sans-Serif" font-size="10.00">vec.h</text>
</a>
</g>
</g>
<!-- Node22&#45;&gt;Node24 -->
<g id="edge39" class="edge">
<title>Node22&#45;&gt;Node24</title>
<path fill="none" stroke="midnightblue" d="M222.52,-454.5C293.43,-445.88 528.37,-417.31 614.23,-406.86"/>
<polygon fill="midnightblue" stroke="midnightblue" points="614.9,-410.31 624.4,-405.63 614.05,-403.36 614.9,-410.31"/>
</g>
<!-- Node25 -->
<g id="node25" class="node">
<title>Node25</title>
<g id="a_node25"><a xlink:href="sm_8h.html" target="_top" xlink:title="State machines.">
<polygon fill="white" stroke="black" points="160.5,-336.5 160.5,-355.5 201.5,-355.5 201.5,-336.5 160.5,-336.5"/>
<text text-anchor="middle" x="181" y="-343.5" font-family="Helvetica,sans-Serif" font-size="10.00">sm.h</text>
</a>
</g>
</g>
<!-- Node22&#45;&gt;Node25 -->
<g id="edge41" class="edge">
<title>Node22&#45;&gt;Node25</title>
<path fill="none" stroke="midnightblue" d="M200.35,-448.37C196.96,-430.62 189.15,-389.67 184.55,-365.6"/>
<polygon fill="midnightblue" stroke="midnightblue" points="187.95,-364.76 182.64,-355.59 181.08,-366.07 187.95,-364.76"/>
</g>
<!-- Node24&#45;&gt;Node11 -->
<g id="edge40" class="edge">
<title>Node24&#45;&gt;Node11</title>
<path fill="none" stroke="midnightblue" d="M646,-392.08C646,-385.01 646,-374.86 646,-365.99"/>
<polygon fill="midnightblue" stroke="midnightblue" points="649.5,-365.75 646,-355.75 642.5,-365.75 649.5,-365.75"/>
</g>
<!-- Node25&#45;&gt;Node3 -->
<g id="edge42" class="edge">
<title>Node25&#45;&gt;Node3</title>
<path fill="none" stroke="midnightblue" d="M160.21,-339.55C120.55,-327.77 38,-295.92 38,-235 38,-235 38,-235 38,-177 38,-137.38 63.28,-129.14 99,-112 192.98,-66.9 513.65,-65.34 631.82,-66.38"/>
<polygon fill="midnightblue" stroke="midnightblue" points="631.92,-69.88 641.95,-66.48 631.98,-62.88 631.92,-69.88"/>
</g>
<!-- Node25&#45;&gt;Node17 -->
<g id="edge43" class="edge">
<title>Node25&#45;&gt;Node17</title>
<path fill="none" stroke="midnightblue" d="M200.11,-336.42C261.31,-308.97 452.57,-223.16 523.86,-191.18"/>
<polygon fill="midnightblue" stroke="midnightblue" points="525.4,-194.32 533.09,-187.03 522.54,-187.93 525.4,-194.32"/>
</g>
<!-- Node25&#45;&gt;Node20 -->
<g id="edge47" class="edge">
<title>Node25&#45;&gt;Node20</title>
<path fill="none" stroke="midnightblue" d="M172.22,-336.2C164.29,-327.7 152.97,-314.06 147,-300 132.51,-265.87 128.95,-222.09 128.14,-197.65"/>
<polygon fill="midnightblue" stroke="midnightblue" points="131.64,-197.53 127.94,-187.6 124.64,-197.67 131.64,-197.53"/>
</g>
<!-- Node26 -->
<g id="node26" class="node">
<title>Node26</title>
<g id="a_node26"><a xlink:href="anim_8h.html" target="_top" xlink:title="Animation.">
<polygon fill="white" stroke="black" points="156,-280.5 156,-299.5 206,-299.5 206,-280.5 156,-280.5"/>
<text text-anchor="middle" x="181" y="-287.5" font-family="Helvetica,sans-Serif" font-size="10.00">anim.h</text>
</a>
</g>
</g>
<!-- Node25&#45;&gt;Node26 -->
<g id="edge44" class="edge">
<title>Node25&#45;&gt;Node26</title>
<path fill="none" stroke="midnightblue" d="M181,-336.08C181,-329.01 181,-318.86 181,-309.99"/>
<polygon fill="midnightblue" stroke="midnightblue" points="184.5,-309.75 181,-299.75 177.5,-309.75 184.5,-309.75"/>
</g>
<!-- Node26&#45;&gt;Node3 -->
<g id="edge45" class="edge">
<title>Node26&#45;&gt;Node3</title>
<path fill="none" stroke="midnightblue" d="M170.19,-280.42C151.22,-264.57 112.54,-228.6 98,-188 85.96,-154.39 94.71,-132.41 124,-112 165.25,-83.25 507.56,-71.44 631.46,-68.08"/>
<polygon fill="midnightblue" stroke="midnightblue" points="631.82,-71.57 641.72,-67.81 631.63,-64.58 631.82,-71.57"/>
</g>
<!-- Node26&#45;&gt;Node13 -->
<g id="edge46" class="edge">
<title>Node26&#45;&gt;Node13</title>
<path fill="none" stroke="midnightblue" d="M189.59,-280.08C197.16,-272.22 208.38,-260.57 217.51,-251.08"/>
<polygon fill="midnightblue" stroke="midnightblue" points="220.16,-253.38 224.57,-243.75 215.12,-248.53 220.16,-253.38"/>
</g>
<!-- Node27&#45;&gt;Node3 -->
<g id="edge49" class="edge">
<title>Node27&#45;&gt;Node3</title>
<path fill="none" stroke="midnightblue" d="M976.97,-168.18C966.68,-153.88 944.27,-125.83 918,-112 854.81,-78.73 771,-69.72 720.41,-67.48"/>
<polygon fill="midnightblue" stroke="midnightblue" points="720.26,-63.97 710.14,-67.09 720,-70.96 720.26,-63.97"/>
</g>
<!-- Node27&#45;&gt;Node14 -->
<g id="edge50" class="edge">
<title>Node27&#45;&gt;Node14</title>
<path fill="none" stroke="midnightblue" d="M956.3,-173.66C880.25,-164.16 662.74,-136.97 581.82,-126.85"/>
<polygon fill="midnightblue" stroke="midnightblue" points="582.13,-123.36 571.77,-125.6 581.26,-130.31 582.13,-123.36"/>
</g>
<!-- Node28 -->
<g id="node28" class="node">
<title>Node28</title>
<g id="a_node28"><a xlink:href="cid_8h.html" target="_top" xlink:title="Class ID.">
<polygon fill="white" stroke="black" points="970,-112.5 970,-131.5 1010,-131.5 1010,-112.5 970,-112.5"/>
<text text-anchor="middle" x="990" y="-119.5" font-family="Helvetica,sans-Serif" font-size="10.00">cid.h</text>
</a>
</g>
</g>
<!-- Node27&#45;&gt;Node28 -->
<g id="edge51" class="edge">
<title>Node27&#45;&gt;Node28</title>
<path fill="none" stroke="midnightblue" d="M984.16,-168.08C985.08,-160.93 986.42,-150.64 987.58,-141.69"/>
<polygon fill="midnightblue" stroke="midnightblue" points="991.05,-142.12 988.87,-131.75 984.11,-141.22 991.05,-142.12"/>
</g>
<!-- Node28&#45;&gt;Node3 -->
<g id="edge52" class="edge">
<title>Node28&#45;&gt;Node3</title>
<path fill="none" stroke="midnightblue" d="M969.94,-115.34C965.38,-114.15 960.54,-112.96 956,-112 873.42,-94.48 775.87,-80.24 720.43,-72.75"/>
<polygon fill="midnightblue" stroke="midnightblue" points="720.63,-69.25 710.25,-71.39 719.7,-76.18 720.63,-69.25"/>
</g>
<!-- Node29&#45;&gt;Node3 -->
<g id="edge55" class="edge">
<title>Node29&#45;&gt;Node3</title>
<path fill="none" stroke="midnightblue" d="M1114.78,-560.35C1122.42,-542.03 1139,-497.82 1139,-459 1139,-459 1139,-459 1139,-177 1139,-131.87 1102.47,-129.8 1061,-112 1000.61,-86.07 808.27,-73.51 720.47,-69.02"/>
<polygon fill="midnightblue" stroke="midnightblue" points="720.46,-65.51 710.3,-68.51 720.11,-72.5 720.46,-65.51"/>
</g>
<!-- Node29&#45;&gt;Node27 -->
<g id="edge58" class="edge">
<title>Node29&#45;&gt;Node27</title>
<path fill="none" stroke="midnightblue" d="M1109.69,-560.47C1106.98,-542.01 1101,-496.97 1101,-459 1101,-459 1101,-459 1101,-289 1101,-241.51 1049.23,-208.67 1014.28,-191.91"/>
<polygon fill="midnightblue" stroke="midnightblue" points="1015.47,-188.61 1004.92,-187.61 1012.54,-194.97 1015.47,-188.61"/>
</g>
<!-- Node30 -->
<g id="node30" class="node">
<title>Node30</title>
<g id="a_node30"><a xlink:href="font_8h.html" target="_top" xlink:title="Font system.">
<polygon fill="white" stroke="black" points="1167.5,-336.5 1167.5,-355.5 1212.5,-355.5 1212.5,-336.5 1167.5,-336.5"/>
<text text-anchor="middle" x="1190" y="-343.5" font-family="Helvetica,sans-Serif" font-size="10.00">font.h</text>
</a>
</g>
</g>
<!-- Node29&#45;&gt;Node30 -->
<g id="edge56" class="edge">
<title>Node29&#45;&gt;Node30</title>
<path fill="none" stroke="midnightblue" d="M1122.08,-560.22C1131.76,-551.93 1145.42,-538.61 1153,-524 1180.41,-471.15 1187.52,-399.47 1189.36,-365.86"/>
<polygon fill="midnightblue" stroke="midnightblue" points="1192.86,-365.8 1189.81,-355.65 1185.87,-365.49 1192.86,-365.8"/>
</g>
<!-- Node31 -->
<g id="node31" class="node">
<title>Node31</title>
<g id="a_node31"><a xlink:href="shd_8h.html" target="_top" xlink:title="Shaders.">
<polygon fill="white" stroke="black" points="935.5,-504.5 935.5,-523.5 978.5,-523.5 978.5,-504.5 935.5,-504.5"/>
<text text-anchor="middle" x="957" y="-511.5" font-family="Helvetica,sans-Serif" font-size="10.00">shd.h</text>
</a>
</g>
</g>
<!-- Node29&#45;&gt;Node31 -->
<g id="edge59" class="edge">
<title>Node29&#45;&gt;Node31</title>
<path fill="none" stroke="midnightblue" d="M1086.6,-560.44C1060.04,-551.13 1017.51,-536.22 988.46,-526.03"/>
<polygon fill="midnightblue" stroke="midnightblue" points="989.39,-522.65 978.8,-522.64 987.08,-529.26 989.39,-522.65"/>
</g>
<!-- Node30&#45;&gt;Node3 -->
<g id="edge57" class="edge">
<title>Node30&#45;&gt;Node3</title>
<path fill="none" stroke="midnightblue" d="M1188.95,-336.46C1186.79,-317.98 1182,-272.91 1182,-235 1182,-235 1182,-235 1182,-177 1182,-145.37 1178.7,-130.45 1153,-112 1118.31,-87.09 832.28,-73.19 720.51,-68.66"/>
<polygon fill="midnightblue" stroke="midnightblue" points="720.39,-65.15 710.26,-68.25 720.11,-72.15 720.39,-65.15"/>
</g>
<!-- Node31&#45;&gt;Node3 -->
<g id="edge60" class="edge">
<title>Node31&#45;&gt;Node3</title>
<path fill="none" stroke="midnightblue" d="M965.45,-504.44C981.77,-486.96 1016,-445.26 1016,-403 1016,-403 1016,-403 1016,-345 1016,-240.94 1111.97,-186.19 1039,-112 1016.97,-89.6 812.12,-74.94 720.24,-69.44"/>
<polygon fill="midnightblue" stroke="midnightblue" points="720.32,-65.94 710.13,-68.85 719.91,-72.93 720.32,-65.94"/>
</g>
<!-- Node31&#45;&gt;Node24 -->
<g id="edge69" class="edge">
<title>Node31&#45;&gt;Node24</title>
<path fill="none" stroke="midnightblue" d="M935.22,-513.68C889.54,-514.18 781.61,-510.38 705,-468 684.46,-456.64 667.28,-435.42 656.85,-420.31"/>
<polygon fill="midnightblue" stroke="midnightblue" points="659.69,-418.26 651.26,-411.84 653.84,-422.12 659.69,-418.26"/>
</g>
<!-- Node32 -->
<g id="node32" class="node">
<title>Node32</title>
<g id="a_node32"><a xlink:href="geom_8h.html" target="_top" xlink:title="Geometry.">
<polygon fill="white" stroke="black" points="894.5,-392.5 894.5,-411.5 947.5,-411.5 947.5,-392.5 894.5,-392.5"/>
<text text-anchor="middle" x="921" y="-399.5" font-family="Helvetica,sans-Serif" font-size="10.00">geom.h</text>
</a>
</g>
</g>
<!-- Node31&#45;&gt;Node32 -->
<g id="edge61" class="edge">
<title>Node31&#45;&gt;Node32</title>
<path fill="none" stroke="midnightblue" d="M954.18,-504.37C948.34,-486.54 934.84,-445.3 926.98,-421.27"/>
<polygon fill="midnightblue" stroke="midnightblue" points="930.25,-420.01 923.81,-411.59 923.6,-422.18 930.25,-420.01"/>
</g>
<!-- Node33 -->
<g id="node33" class="node">
<title>Node33</title>
<g id="a_node33"><a xlink:href="surf_8h.html" target="_top" xlink:title="Surface?">
<polygon fill="white" stroke="black" points="859,-448.5 859,-467.5 903,-467.5 903,-448.5 859,-448.5"/>
<text text-anchor="middle" x="881" y="-455.5" font-family="Helvetica,sans-Serif" font-size="10.00">surf.h</text>
</a>
</g>
</g>
<!-- Node31&#45;&gt;Node33 -->
<g id="edge63" class="edge">
<title>Node31&#45;&gt;Node33</title>
<path fill="none" stroke="midnightblue" d="M944.79,-504.32C933.22,-496.11 915.62,-483.6 901.84,-473.81"/>
<polygon fill="midnightblue" stroke="midnightblue" points="903.61,-470.77 893.43,-467.83 899.56,-476.48 903.61,-470.77"/>
</g>
<!-- Node34 -->
<g id="node34" class="node">
<title>Node34</title>
<g id="a_node34"><a xlink:href="sce_2gs_8h.html" target="_top" xlink:title="Graphics Synthesizer.">
<polygon fill="white" stroke="black" points="932,-280.5 932,-299.5 988,-299.5 988,-280.5 932,-280.5"/>
<text text-anchor="middle" x="960" y="-287.5" font-family="Helvetica,sans-Serif" font-size="10.00">sce/gs.h</text>
</a>
</g>
</g>
<!-- Node31&#45;&gt;Node34 -->
<g id="edge67" class="edge">
<title>Node31&#45;&gt;Node34</title>
<path fill="none" stroke="midnightblue" d="M957.12,-504.3C957.56,-471.63 959.12,-355.87 959.74,-309.96"/>
<polygon fill="midnightblue" stroke="midnightblue" points="963.24,-309.93 959.88,-299.88 956.25,-309.84 963.24,-309.93"/>
</g>
<!-- Node32&#45;&gt;Node3 -->
<g id="edge62" class="edge">
<title>Node32&#45;&gt;Node3</title>
<path fill="none" stroke="midnightblue" d="M918.71,-392.23C914.07,-373.69 904,-329.07 904,-291 904,-291 904,-291 904,-177 904,-146.2 903.21,-132.24 880,-112 856.55,-91.55 772.91,-78.3 720.29,-71.78"/>
<polygon fill="midnightblue" stroke="midnightblue" points="720.55,-68.29 710.2,-70.57 719.71,-75.24 720.55,-68.29"/>
</g>
<!-- Node33&#45;&gt;Node3 -->
<g id="edge64" class="edge">
<title>Node33&#45;&gt;Node3</title>
<path fill="none" stroke="midnightblue" d="M879.04,-448.5C874.97,-430.09 866,-385.16 866,-347 866,-347 866,-347 866,-177 866,-146.2 864.72,-132.79 842,-112 808.77,-81.6 757.08,-71.4 720.21,-68.15"/>
<polygon fill="midnightblue" stroke="midnightblue" points="720.47,-64.66 710.23,-67.41 719.95,-71.64 720.47,-64.66"/>
</g>
<!-- Node33&#45;&gt;Node24 -->
<g id="edge65" class="edge">
<title>Node33&#45;&gt;Node24</title>
<path fill="none" stroke="midnightblue" d="M858.85,-452.61C822.89,-445.38 749.39,-430.15 677.33,-411.95"/>
<polygon fill="midnightblue" stroke="midnightblue" points="678.19,-408.55 667.63,-409.48 676.46,-415.34 678.19,-408.55"/>
</g>
<!-- Node33&#45;&gt;Node32 -->
<g id="edge66" class="edge">
<title>Node33&#45;&gt;Node32</title>
<path fill="none" stroke="midnightblue" d="M887.61,-448.08C893.26,-440.46 901.54,-429.26 908.45,-419.94"/>
<polygon fill="midnightblue" stroke="midnightblue" points="911.38,-421.87 914.52,-411.75 905.75,-417.7 911.38,-421.87"/>
</g>
<!-- Node34&#45;&gt;Node3 -->
<g id="edge68" class="edge">
<title>Node34&#45;&gt;Node3</title>
<path fill="none" stroke="midnightblue" d="M967.93,-280.48C992.77,-252.78 1064.72,-164.11 1019,-112 999.59,-89.88 808.78,-75.25 720.45,-69.61"/>
<polygon fill="midnightblue" stroke="midnightblue" points="720.41,-66.1 710.21,-68.97 719.97,-73.09 720.41,-66.1"/>
</g>
<!-- Node35&#45;&gt;Node3 -->
<g id="edge71" class="edge">
<title>Node35&#45;&gt;Node3</title>
<path fill="none" stroke="midnightblue" d="M1238.89,-224.5C1238.09,-201.91 1232.52,-140.22 1196,-112 1158.76,-83.23 839.56,-71.52 720.52,-68.13"/>
<polygon fill="midnightblue" stroke="midnightblue" points="720.39,-64.62 710.3,-67.84 720.2,-71.62 720.39,-64.62"/>
</g>
<!-- Node36&#45;&gt;Node3 -->
<g id="edge73" class="edge">
<title>Node36&#45;&gt;Node3</title>
<path fill="none" stroke="midnightblue" d="M834.08,-560.45C832.19,-541.97 828,-496.89 828,-459 828,-459 828,-459 828,-177 828,-123.13 764.58,-92.96 719.67,-78.34"/>
<polygon fill="midnightblue" stroke="midnightblue" points="720.7,-75 710.11,-75.38 718.62,-81.69 720.7,-75"/>
</g>
<!-- Node36&#45;&gt;Node8 -->
<g id="edge74" class="edge">
<title>Node36&#45;&gt;Node8</title>
<path fill="none" stroke="midnightblue" d="M825.52,-560.32C816.8,-552.34 803.66,-540.31 793.1,-530.65"/>
<polygon fill="midnightblue" stroke="midnightblue" points="795.39,-528 785.65,-523.83 790.67,-533.17 795.39,-528"/>
</g>
</g>
</svg>
