<?xml version="1.0" encoding="UTF-8" standalone="no"?>
<!DOCTYPE svg PUBLIC "-//W3C//DTD SVG 1.1//EN"
 "http://www.w3.org/Graphics/SVG/1.1/DTD/svg11.dtd">
<!-- Generated by graphviz version 2.43.0 (0)
 -->
<!-- Title: include/steppower.h Pages: 1 -->
<svg width="731pt" height="588pt"
 viewBox="0.00 0.00 731.00 588.00" xmlns="http://www.w3.org/2000/svg" xmlns:xlink="http://www.w3.org/1999/xlink">
<g id="graph0" class="graph" transform="scale(1 1) rotate(0) translate(4 584)">
<title>include/steppower.h</title>
<polygon fill="white" stroke="transparent" points="-4,4 -4,-584 727,-584 727,4 -4,4"/>
<!-- Node1 -->
<g id="node1" class="node">
<title>Node1</title>
<g id="a_node1"><a xlink:title=" ">
<polygon fill="#bfbfbf" stroke="black" points="49,-560.5 49,-579.5 163,-579.5 163,-560.5 49,-560.5"/>
<text text-anchor="middle" x="106" y="-567.5" font-family="Helvetica,sans-Serif" font-size="10.00">include/steppower.h</text>
</a>
</g>
</g>
<!-- Node2 -->
<g id="node2" class="node">
<title>Node2</title>
<g id="a_node2"><a xlink:href="common_8h.html" target="_top" xlink:title="Common header file.">
<polygon fill="white" stroke="black" points="368,-56.5 368,-75.5 436,-75.5 436,-56.5 368,-56.5"/>
<text text-anchor="middle" x="402" y="-63.5" font-family="Helvetica,sans-Serif" font-size="10.00">common.h</text>
</a>
</g>
</g>
<!-- Node1&#45;&gt;Node2 -->
<g id="edge1" class="edge">
<title>Node1&#45;&gt;Node2</title>
<path fill="none" stroke="midnightblue" d="M87.54,-560.39C57.17,-544.81 0,-508.86 0,-459 0,-459 0,-459 0,-177 0,-139.16 21.77,-130.1 55,-112 106.25,-84.09 276.01,-72.73 357.54,-68.79"/>
<polygon fill="midnightblue" stroke="midnightblue" points="358.14,-72.27 367.97,-68.31 357.82,-65.28 358.14,-72.27"/>
</g>
<!-- Node6 -->
<g id="node6" class="node">
<title>Node6</title>
<g id="a_node6"><a xlink:href="jt_8h.html" target="_top" xlink:title="Sly entity.">
<polygon fill="white" stroke="black" points="90,-504.5 90,-523.5 122,-523.5 122,-504.5 90,-504.5"/>
<text text-anchor="middle" x="106" y="-511.5" font-family="Helvetica,sans-Serif" font-size="10.00">jt.h</text>
</a>
</g>
</g>
<!-- Node1&#45;&gt;Node6 -->
<g id="edge5" class="edge">
<title>Node1&#45;&gt;Node6</title>
<path fill="none" stroke="midnightblue" d="M106,-560.08C106,-553.01 106,-542.86 106,-533.99"/>
<polygon fill="midnightblue" stroke="midnightblue" points="109.5,-533.75 106,-523.75 102.5,-533.75 109.5,-533.75"/>
</g>
<!-- Node19 -->
<g id="node19" class="node">
<title>Node19</title>
<g id="a_node19"><a xlink:href="joy_8h.html" target="_top" xlink:title="Joypad manager.">
<polygon fill="white" stroke="black" points="614.5,-504.5 614.5,-523.5 653.5,-523.5 653.5,-504.5 614.5,-504.5"/>
<text text-anchor="middle" x="634" y="-511.5" font-family="Helvetica,sans-Serif" font-size="10.00">joy.h</text>
</a>
</g>
</g>
<!-- Node1&#45;&gt;Node19 -->
<g id="edge32" class="edge">
<title>Node1&#45;&gt;Node19</title>
<path fill="none" stroke="midnightblue" d="M163.01,-563.17C274.89,-551.73 519.67,-526.69 604.42,-518.02"/>
<polygon fill="midnightblue" stroke="midnightblue" points="604.8,-521.5 614.4,-517 604.09,-514.54 604.8,-521.5"/>
</g>
<!-- Node3 -->
<g id="node3" class="node">
<title>Node3</title>
<g id="a_node3"><a xlink:href="include__asm_8h.html" target="_top" xlink:title=" ">
<polygon fill="white" stroke="black" points="247.5,-0.5 247.5,-19.5 334.5,-19.5 334.5,-0.5 247.5,-0.5"/>
<text text-anchor="middle" x="291" y="-7.5" font-family="Helvetica,sans-Serif" font-size="10.00">include_asm.h</text>
</a>
</g>
</g>
<!-- Node2&#45;&gt;Node3 -->
<g id="edge2" class="edge">
<title>Node2&#45;&gt;Node3</title>
<path fill="none" stroke="midnightblue" d="M384.17,-56.32C366.28,-47.62 338.52,-34.12 317.95,-24.11"/>
<polygon fill="midnightblue" stroke="midnightblue" points="319.31,-20.88 308.79,-19.65 316.25,-27.18 319.31,-20.88"/>
</g>
<!-- Node4 -->
<g id="node4" class="node">
<title>Node4</title>
<g id="a_node4"><a xlink:href="include__rodata_8h.html" target="_top" xlink:title=" ">
<polygon fill="white" stroke="black" points="353,-0.5 353,-19.5 451,-19.5 451,-0.5 353,-0.5"/>
<text text-anchor="middle" x="402" y="-7.5" font-family="Helvetica,sans-Serif" font-size="10.00">include_rodata.h</text>
</a>
</g>
</g>
<!-- Node2&#45;&gt;Node4 -->
<g id="edge3" class="edge">
<title>Node2&#45;&gt;Node4</title>
<path fill="none" stroke="midnightblue" d="M402,-56.08C402,-49.01 402,-38.86 402,-29.99"/>
<polygon fill="midnightblue" stroke="midnightblue" points="405.5,-29.75 402,-19.75 398.5,-29.75 405.5,-29.75"/>
</g>
<!-- Node5 -->
<g id="node5" class="node">
<title>Node5</title>
<g id="a_node5"><a xlink:href="types_8h.html" target="_top" xlink:title="Types used throughout the engine.">
<polygon fill="white" stroke="black" points="469.5,-0.5 469.5,-19.5 522.5,-19.5 522.5,-0.5 469.5,-0.5"/>
<text text-anchor="middle" x="496" y="-7.5" font-family="Helvetica,sans-Serif" font-size="10.00">types.h</text>
</a>
</g>
</g>
<!-- Node2&#45;&gt;Node5 -->
<g id="edge4" class="edge">
<title>Node2&#45;&gt;Node5</title>
<path fill="none" stroke="midnightblue" d="M417.1,-56.32C431.9,-47.82 454.69,-34.73 471.98,-24.8"/>
<polygon fill="midnightblue" stroke="midnightblue" points="474.01,-27.67 480.93,-19.65 470.52,-21.6 474.01,-27.67"/>
</g>
<!-- Node6&#45;&gt;Node2 -->
<g id="edge6" class="edge">
<title>Node6&#45;&gt;Node2</title>
<path fill="none" stroke="midnightblue" d="M107.27,-504.39C108.58,-495.34 110.62,-480.69 112,-468 116.29,-428.54 115.18,-141.27 142,-112 170.35,-81.06 291.27,-71.36 357.76,-68.34"/>
<polygon fill="midnightblue" stroke="midnightblue" points="358.09,-71.83 367.94,-67.91 357.8,-64.84 358.09,-71.83"/>
</g>
<!-- Node7 -->
<g id="node7" class="node">
<title>Node7</title>
<g id="a_node7"><a xlink:href="step_8h.html" target="_top" xlink:title=" ">
<polygon fill="white" stroke="black" points="56.5,-448.5 56.5,-467.5 103.5,-467.5 103.5,-448.5 56.5,-448.5"/>
<text text-anchor="middle" x="80" y="-455.5" font-family="Helvetica,sans-Serif" font-size="10.00">step.h</text>
</a>
</g>
</g>
<!-- Node6&#45;&gt;Node7 -->
<g id="edge7" class="edge">
<title>Node6&#45;&gt;Node7</title>
<path fill="none" stroke="midnightblue" d="M101.71,-504.08C98.15,-496.69 92.98,-485.95 88.58,-476.81"/>
<polygon fill="midnightblue" stroke="midnightblue" points="91.71,-475.24 84.21,-467.75 85.4,-478.28 91.71,-475.24"/>
</g>
<!-- Node7&#45;&gt;Node2 -->
<g id="edge8" class="edge">
<title>Node7&#45;&gt;Node2</title>
<path fill="none" stroke="midnightblue" d="M74.16,-448.31C62.62,-430.26 38,-387.07 38,-347 38,-347 38,-347 38,-177 38,-140.55 56.53,-130.39 88,-112 132.9,-85.77 282.46,-73.75 357.81,-69.25"/>
<polygon fill="midnightblue" stroke="midnightblue" points="358.15,-72.73 367.93,-68.66 357.74,-65.75 358.15,-72.73"/>
</g>
<!-- Node8 -->
<g id="node8" class="node">
<title>Node8</title>
<g id="a_node8"><a xlink:href="po_8h.html" target="_top" xlink:title="Player object(?).">
<polygon fill="white" stroke="black" points="66,-392.5 66,-411.5 104,-411.5 104,-392.5 66,-392.5"/>
<text text-anchor="middle" x="85" y="-399.5" font-family="Helvetica,sans-Serif" font-size="10.00">po.h</text>
</a>
</g>
</g>
<!-- Node7&#45;&gt;Node8 -->
<g id="edge9" class="edge">
<title>Node7&#45;&gt;Node8</title>
<path fill="none" stroke="midnightblue" d="M80.83,-448.08C81.48,-441.01 82.42,-430.86 83.24,-421.99"/>
<polygon fill="midnightblue" stroke="midnightblue" points="86.75,-422.03 84.19,-411.75 79.78,-421.39 86.75,-422.03"/>
</g>
<!-- Node8&#45;&gt;Node2 -->
<g id="edge10" class="edge">
<title>Node8&#45;&gt;Node2</title>
<path fill="none" stroke="midnightblue" d="M85,-392.44C85,-373.94 85,-328.81 85,-291 85,-291 85,-291 85,-177 85,-146.2 85.15,-131.48 109,-112 146.28,-81.56 285.51,-71.58 357.8,-68.41"/>
<polygon fill="midnightblue" stroke="midnightblue" points="358.11,-71.9 367.96,-67.99 357.82,-64.91 358.11,-71.9"/>
</g>
<!-- Node9 -->
<g id="node9" class="node">
<title>Node9</title>
<g id="a_node9"><a xlink:href="so_8h.html" target="_top" xlink:title="Scene objects.">
<polygon fill="white" stroke="black" points="553.5,-336.5 553.5,-355.5 590.5,-355.5 590.5,-336.5 553.5,-336.5"/>
<text text-anchor="middle" x="572" y="-343.5" font-family="Helvetica,sans-Serif" font-size="10.00">so.h</text>
</a>
</g>
</g>
<!-- Node8&#45;&gt;Node9 -->
<g id="edge11" class="edge">
<title>Node8&#45;&gt;Node9</title>
<path fill="none" stroke="midnightblue" d="M104.09,-398.88C179.04,-390.57 453.41,-360.15 543.28,-350.18"/>
<polygon fill="midnightblue" stroke="midnightblue" points="543.75,-353.65 553.3,-349.07 542.98,-346.7 543.75,-353.65"/>
</g>
<!-- Node10 -->
<g id="node10" class="node">
<title>Node10</title>
<g id="a_node10"><a xlink:href="alo_8h.html" target="_top" xlink:title=" ">
<polygon fill="white" stroke="black" points="562.5,-280.5 562.5,-299.5 603.5,-299.5 603.5,-280.5 562.5,-280.5"/>
<text text-anchor="middle" x="583" y="-287.5" font-family="Helvetica,sans-Serif" font-size="10.00">alo.h</text>
</a>
</g>
</g>
<!-- Node9&#45;&gt;Node10 -->
<g id="edge12" class="edge">
<title>Node9&#45;&gt;Node10</title>
<path fill="none" stroke="midnightblue" d="M573.82,-336.08C575.27,-328.93 577.37,-318.64 579.19,-309.69"/>
<polygon fill="midnightblue" stroke="midnightblue" points="582.65,-310.25 581.22,-299.75 575.79,-308.85 582.65,-310.25"/>
</g>
<!-- Node10&#45;&gt;Node2 -->
<g id="edge13" class="edge">
<title>Node10&#45;&gt;Node2</title>
<path fill="none" stroke="midnightblue" d="M588.37,-280.44C605.58,-251.86 655.49,-158.87 608,-112 585.53,-89.82 499.81,-77.1 446.28,-71.16"/>
<polygon fill="midnightblue" stroke="midnightblue" points="446.35,-67.65 436.03,-70.06 445.6,-74.61 446.35,-67.65"/>
</g>
<!-- Node11 -->
<g id="node11" class="node">
<title>Node11</title>
<g id="a_node11"><a xlink:href="lo_8h.html" target="_top" xlink:title="Level objects.">
<polygon fill="white" stroke="black" points="469.5,-224.5 469.5,-243.5 504.5,-243.5 504.5,-224.5 469.5,-224.5"/>
<text text-anchor="middle" x="487" y="-231.5" font-family="Helvetica,sans-Serif" font-size="10.00">lo.h</text>
</a>
</g>
</g>
<!-- Node10&#45;&gt;Node11 -->
<g id="edge14" class="edge">
<title>Node10&#45;&gt;Node11</title>
<path fill="none" stroke="midnightblue" d="M567.58,-280.32C552.46,-271.82 529.18,-258.73 511.53,-248.8"/>
<polygon fill="midnightblue" stroke="midnightblue" points="512.82,-245.51 502.39,-243.65 509.39,-251.61 512.82,-245.51"/>
</g>
<!-- Node15 -->
<g id="node15" class="node">
<title>Node15</title>
<g id="a_node15"><a xlink:href="dl_8h.html" target="_top" xlink:title=" ">
<polygon fill="white" stroke="black" points="577.5,-168.5 577.5,-187.5 612.5,-187.5 612.5,-168.5 577.5,-168.5"/>
<text text-anchor="middle" x="595" y="-175.5" font-family="Helvetica,sans-Serif" font-size="10.00">dl.h</text>
</a>
</g>
</g>
<!-- Node10&#45;&gt;Node15 -->
<g id="edge31" class="edge">
<title>Node10&#45;&gt;Node15</title>
<path fill="none" stroke="midnightblue" d="M583.94,-280.37C585.88,-262.62 590.35,-221.67 592.97,-197.6"/>
<polygon fill="midnightblue" stroke="midnightblue" points="596.46,-197.91 594.06,-187.59 589.5,-197.15 596.46,-197.91"/>
</g>
<!-- Node11&#45;&gt;Node2 -->
<g id="edge15" class="edge">
<title>Node11&#45;&gt;Node2</title>
<path fill="none" stroke="midnightblue" d="M488.69,-224.26C492.33,-202.66 498.59,-146.03 472,-112 461.45,-98.5 445.64,-87.84 431.72,-80.3"/>
<polygon fill="midnightblue" stroke="midnightblue" points="432.97,-77.01 422.47,-75.58 429.79,-83.24 432.97,-77.01"/>
</g>
<!-- Node12 -->
<g id="node12" class="node">
<title>Node12</title>
<g id="a_node12"><a xlink:href="oid_8h.html" target="_top" xlink:title="Object IDs.">
<polygon fill="white" stroke="black" points="539.5,-112.5 539.5,-131.5 580.5,-131.5 580.5,-112.5 539.5,-112.5"/>
<text text-anchor="middle" x="560" y="-119.5" font-family="Helvetica,sans-Serif" font-size="10.00">oid.h</text>
</a>
</g>
</g>
<!-- Node11&#45;&gt;Node12 -->
<g id="edge16" class="edge">
<title>Node11&#45;&gt;Node12</title>
<path fill="none" stroke="midnightblue" d="M495.14,-224.47C503.25,-215.72 515.79,-201.53 525,-188 535.34,-172.8 545.08,-154.23 551.65,-140.83"/>
<polygon fill="midnightblue" stroke="midnightblue" points="554.84,-142.27 556.01,-131.74 548.53,-139.25 554.84,-142.27"/>
</g>
<!-- Node13 -->
<g id="node13" class="node">
<title>Node13</title>
<g id="a_node13"><a xlink:href="basic_8h.html" target="_top" xlink:title="Basic object.">
<polygon fill="white" stroke="black" points="249.5,-168.5 249.5,-187.5 300.5,-187.5 300.5,-168.5 249.5,-168.5"/>
<text text-anchor="middle" x="275" y="-175.5" font-family="Helvetica,sans-Serif" font-size="10.00">basic.h</text>
</a>
</g>
</g>
<!-- Node11&#45;&gt;Node13 -->
<g id="edge18" class="edge">
<title>Node11&#45;&gt;Node13</title>
<path fill="none" stroke="midnightblue" d="M469.29,-228.49C434.41,-219.6 356.24,-199.69 310.39,-188.01"/>
<polygon fill="midnightblue" stroke="midnightblue" points="311.13,-184.59 300.57,-185.51 309.4,-191.37 311.13,-184.59"/>
</g>
<!-- Node11&#45;&gt;Node15 -->
<g id="edge22" class="edge">
<title>Node11&#45;&gt;Node15</title>
<path fill="none" stroke="midnightblue" d="M504.35,-224.32C521.67,-215.66 548.52,-202.24 568.5,-192.25"/>
<polygon fill="midnightblue" stroke="midnightblue" points="570.31,-195.26 577.69,-187.65 567.18,-189 570.31,-195.26"/>
</g>
<!-- Node16 -->
<g id="node16" class="node">
<title>Node16</title>
<g id="a_node16"><a xlink:href="sw_8h.html" target="_top" xlink:title="Scene world?">
<polygon fill="white" stroke="black" points="303,-112.5 303,-131.5 341,-131.5 341,-112.5 303,-112.5"/>
<text text-anchor="middle" x="322" y="-119.5" font-family="Helvetica,sans-Serif" font-size="10.00">sw.h</text>
</a>
</g>
</g>
<!-- Node11&#45;&gt;Node16 -->
<g id="edge25" class="edge">
<title>Node11&#45;&gt;Node16</title>
<path fill="none" stroke="midnightblue" d="M473.02,-224.37C458.62,-215.43 435.59,-200.97 416,-188 390.29,-170.98 361.16,-150.67 342.23,-137.34"/>
<polygon fill="midnightblue" stroke="midnightblue" points="344.25,-134.48 334.06,-131.57 340.21,-140.2 344.25,-134.48"/>
</g>
<!-- Node17 -->
<g id="node17" class="node">
<title>Node17</title>
<g id="a_node17"><a xlink:href="frame_8h.html" target="_top" xlink:title=" ">
<polygon fill="white" stroke="black" points="359,-112.5 359,-131.5 445,-131.5 445,-112.5 359,-112.5"/>
<text text-anchor="middle" x="402" y="-119.5" font-family="Helvetica,sans-Serif" font-size="10.00">splice/frame.h</text>
</a>
</g>
</g>
<!-- Node11&#45;&gt;Node17 -->
<g id="edge27" class="edge">
<title>Node11&#45;&gt;Node17</title>
<path fill="none" stroke="midnightblue" d="M473.3,-224.42C461.17,-216.26 443.63,-203.02 432,-188 421.07,-173.89 412.97,-155.15 407.95,-141.42"/>
<polygon fill="midnightblue" stroke="midnightblue" points="411.16,-139.99 404.6,-131.67 404.54,-142.26 411.16,-139.99"/>
</g>
<!-- Node18 -->
<g id="node18" class="node">
<title>Node18</title>
<g id="a_node18"><a xlink:href="mq_8h.html" target="_top" xlink:title="Message queue(?).">
<polygon fill="white" stroke="black" points="441.5,-168.5 441.5,-187.5 482.5,-187.5 482.5,-168.5 441.5,-168.5"/>
<text text-anchor="middle" x="462" y="-175.5" font-family="Helvetica,sans-Serif" font-size="10.00">mq.h</text>
</a>
</g>
</g>
<!-- Node11&#45;&gt;Node18 -->
<g id="edge29" class="edge">
<title>Node11&#45;&gt;Node18</title>
<path fill="none" stroke="midnightblue" d="M482.87,-224.08C479.49,-216.77 474.58,-206.18 470.38,-197.1"/>
<polygon fill="midnightblue" stroke="midnightblue" points="473.43,-195.36 466.05,-187.75 467.08,-198.3 473.43,-195.36"/>
</g>
<!-- Node12&#45;&gt;Node2 -->
<g id="edge17" class="edge">
<title>Node12&#45;&gt;Node2</title>
<path fill="none" stroke="midnightblue" d="M539.34,-113.94C513.3,-105.04 468.15,-89.61 436.76,-78.88"/>
<polygon fill="midnightblue" stroke="midnightblue" points="437.69,-75.5 427.09,-75.58 435.42,-82.12 437.69,-75.5"/>
</g>
<!-- Node13&#45;&gt;Node2 -->
<g id="edge19" class="edge">
<title>Node13&#45;&gt;Node2</title>
<path fill="none" stroke="midnightblue" d="M275.24,-168.29C276.07,-154.65 279.57,-128.12 294,-112 310.57,-93.5 335.95,-82.4 357.94,-75.86"/>
<polygon fill="midnightblue" stroke="midnightblue" points="359.05,-79.19 367.76,-73.17 357.19,-72.44 359.05,-79.19"/>
</g>
<!-- Node14 -->
<g id="node14" class="node">
<title>Node14</title>
<g id="a_node14"><a xlink:href="sidebag_8h.html" target="_top" xlink:title="Sidebag for splice.">
<polygon fill="white" stroke="black" points="151.5,-112.5 151.5,-131.5 246.5,-131.5 246.5,-112.5 151.5,-112.5"/>
<text text-anchor="middle" x="199" y="-119.5" font-family="Helvetica,sans-Serif" font-size="10.00">splice/sidebag.h</text>
</a>
</g>
</g>
<!-- Node13&#45;&gt;Node14 -->
<g id="edge20" class="edge">
<title>Node13&#45;&gt;Node14</title>
<path fill="none" stroke="midnightblue" d="M262.79,-168.32C251.22,-160.11 233.62,-147.6 219.84,-137.81"/>
<polygon fill="midnightblue" stroke="midnightblue" points="221.61,-134.77 211.43,-131.83 217.56,-140.48 221.61,-134.77"/>
</g>
<!-- Node14&#45;&gt;Node2 -->
<g id="edge21" class="edge">
<title>Node14&#45;&gt;Node2</title>
<path fill="none" stroke="midnightblue" d="M231.17,-112.44C266.06,-103.16 321.89,-88.31 360.17,-78.13"/>
<polygon fill="midnightblue" stroke="midnightblue" points="361.22,-81.47 369.98,-75.52 359.42,-74.7 361.22,-81.47"/>
</g>
<!-- Node15&#45;&gt;Node2 -->
<g id="edge23" class="edge">
<title>Node15&#45;&gt;Node2</title>
<path fill="none" stroke="midnightblue" d="M597.08,-168.21C599.77,-154.45 602.64,-127.77 589,-112 570.59,-90.72 495.39,-77.96 446.14,-71.72"/>
<polygon fill="midnightblue" stroke="midnightblue" points="446.41,-68.23 436.06,-70.49 445.56,-75.18 446.41,-68.23"/>
</g>
<!-- Node15&#45;&gt;Node12 -->
<g id="edge24" class="edge">
<title>Node15&#45;&gt;Node12</title>
<path fill="none" stroke="midnightblue" d="M589.22,-168.08C584.33,-160.53 577.17,-149.49 571.17,-140.23"/>
<polygon fill="midnightblue" stroke="midnightblue" points="574.05,-138.24 565.67,-131.75 568.17,-142.05 574.05,-138.24"/>
</g>
<!-- Node16&#45;&gt;Node2 -->
<g id="edge26" class="edge">
<title>Node16&#45;&gt;Node2</title>
<path fill="none" stroke="midnightblue" d="M334.85,-112.32C347.22,-103.98 366.13,-91.21 380.74,-81.35"/>
<polygon fill="midnightblue" stroke="midnightblue" points="382.85,-84.15 389.18,-75.65 378.93,-78.35 382.85,-84.15"/>
</g>
<!-- Node17&#45;&gt;Node2 -->
<g id="edge28" class="edge">
<title>Node17&#45;&gt;Node2</title>
<path fill="none" stroke="midnightblue" d="M402,-112.08C402,-105.01 402,-94.86 402,-85.99"/>
<polygon fill="midnightblue" stroke="midnightblue" points="405.5,-85.75 402,-75.75 398.5,-85.75 405.5,-85.75"/>
</g>
<!-- Node18&#45;&gt;Node2 -->
<g id="edge30" class="edge">
<title>Node18&#45;&gt;Node2</title>
<path fill="none" stroke="midnightblue" d="M462.82,-168.42C463.67,-155.41 463.74,-130.26 454,-112 447.42,-99.66 435.96,-89.18 425.48,-81.46"/>
<polygon fill="midnightblue" stroke="midnightblue" points="427.25,-78.42 417.03,-75.63 423.27,-84.19 427.25,-78.42"/>
</g>
<!-- Node19&#45;&gt;Node2 -->
<g id="edge33" class="edge">
<title>Node19&#45;&gt;Node2</title>
<path fill="none" stroke="midnightblue" d="M648.3,-504.4C673.46,-488.06 723,-449.92 723,-403 723,-403 723,-403 723,-177 723,-136.77 695.56,-130.82 660,-112 591.62,-75.8 500.16,-67.84 446.51,-66.58"/>
<polygon fill="midnightblue" stroke="midnightblue" points="446.36,-63.07 436.3,-66.41 446.24,-70.07 446.36,-63.07"/>
</g>
<!-- Node20 -->
<g id="node20" class="node">
<title>Node20</title>
<g id="a_node20"><a xlink:href="util_8h.html" target="_top" xlink:title="Utility functions.">
<polygon fill="white" stroke="black" points="613.5,-448.5 613.5,-467.5 654.5,-467.5 654.5,-448.5 613.5,-448.5"/>
<text text-anchor="middle" x="634" y="-455.5" font-family="Helvetica,sans-Serif" font-size="10.00">util.h</text>
</a>
</g>
</g>
<!-- Node19&#45;&gt;Node20 -->
<g id="edge34" class="edge">
<title>Node19&#45;&gt;Node20</title>
<path fill="none" stroke="midnightblue" d="M634,-504.08C634,-497.01 634,-486.86 634,-477.99"/>
<polygon fill="midnightblue" stroke="midnightblue" points="637.5,-477.75 634,-467.75 630.5,-477.75 637.5,-477.75"/>
</g>
<!-- Node20&#45;&gt;Node2 -->
<g id="edge35" class="edge">
<title>Node20&#45;&gt;Node2</title>
<path fill="none" stroke="midnightblue" d="M641.31,-448.23C655.41,-430.39 685,-388.05 685,-347 685,-347 685,-347 685,-177 685,-138.87 661.95,-131.2 629,-112 571.92,-78.74 494.51,-69.64 446.44,-67.39"/>
<polygon fill="midnightblue" stroke="midnightblue" points="446.48,-63.88 436.35,-66.99 446.21,-70.88 446.48,-63.88"/>
</g>
<!-- Node21 -->
<g id="node21" class="node">
<title>Node21</title>
<g id="a_node21"><a xlink:href="mat_8h.html" target="_top" xlink:title="3x3 and 4x4 matrix types.">
<polygon fill="white" stroke="black" points="611.5,-392.5 611.5,-411.5 656.5,-411.5 656.5,-392.5 611.5,-392.5"/>
<text text-anchor="middle" x="634" y="-399.5" font-family="Helvetica,sans-Serif" font-size="10.00">mat.h</text>
</a>
</g>
</g>
<!-- Node20&#45;&gt;Node21 -->
<g id="edge36" class="edge">
<title>Node20&#45;&gt;Node21</title>
<path fill="none" stroke="midnightblue" d="M634,-448.08C634,-441.01 634,-430.86 634,-421.99"/>
<polygon fill="midnightblue" stroke="midnightblue" points="637.5,-421.75 634,-411.75 630.5,-421.75 637.5,-421.75"/>
</g>
<!-- Node22 -->
<g id="node22" class="node">
<title>Node22</title>
<g id="a_node22"><a xlink:href="vec_8h.html" target="_top" xlink:title="Vector math functions.">
<polygon fill="white" stroke="black" points="550.5,-392.5 550.5,-411.5 593.5,-411.5 593.5,-392.5 550.5,-392.5"/>
<text text-anchor="middle" x="572" y="-399.5" font-family="Helvetica,sans-Serif" font-size="10.00">vec.h</text>
</a>
</g>
</g>
<!-- Node20&#45;&gt;Node22 -->
<g id="edge37" class="edge">
<title>Node20&#45;&gt;Node22</title>
<path fill="none" stroke="midnightblue" d="M624.04,-448.32C614.87,-440.34 601.06,-428.31 589.97,-418.65"/>
<polygon fill="midnightblue" stroke="midnightblue" points="591.98,-415.76 582.14,-411.83 587.38,-421.04 591.98,-415.76"/>
</g>
<!-- Node22&#45;&gt;Node9 -->
<g id="edge38" class="edge">
<title>Node22&#45;&gt;Node9</title>
<path fill="none" stroke="midnightblue" d="M572,-392.08C572,-385.01 572,-374.86 572,-365.99"/>
<polygon fill="midnightblue" stroke="midnightblue" points="575.5,-365.75 572,-355.75 568.5,-365.75 575.5,-365.75"/>
</g>
</g>
</svg>
