<?xml version="1.0" encoding="UTF-8" standalone="no"?>
<!DOCTYPE svg PUBLIC "-//W3C//DTD SVG 1.1//EN"
 "http://www.w3.org/Graphics/SVG/1.1/DTD/svg11.dtd">
<!-- Generated by graphviz version 2.43.0 (0)
 -->
<!-- Title: include/steppower.h Pages: 1 -->
<svg width="380pt" height="476pt"
 viewBox="0.00 0.00 379.50 476.00" xmlns="http://www.w3.org/2000/svg" xmlns:xlink="http://www.w3.org/1999/xlink">
<g id="graph0" class="graph" transform="scale(1 1) rotate(0) translate(4 472)">
<title>include/steppower.h</title>
<polygon fill="white" stroke="transparent" points="-4,4 -4,-472 375.5,-472 375.5,4 -4,4"/>
<!-- Node1 -->
<g id="node1" class="node">
<title>Node1</title>
<g id="a_node1"><a xlink:title=" ">
<polygon fill="#bfbfbf" stroke="black" points="28,-448.5 28,-467.5 142,-467.5 142,-448.5 28,-448.5"/>
<text text-anchor="middle" x="85" y="-455.5" font-family="Helvetica,sans-Serif" font-size="10.00">include/steppower.h</text>
</a>
</g>
</g>
<!-- Node2 -->
<g id="node2" class="node">
<title>Node2</title>
<g id="a_node2"><a xlink:href="jt_8h.html" target="_top" xlink:title="Sly entity.">
<polygon fill="white" stroke="black" points="42,-392.5 42,-411.5 74,-411.5 74,-392.5 42,-392.5"/>
<text text-anchor="middle" x="58" y="-399.5" font-family="Helvetica,sans-Serif" font-size="10.00">jt.h</text>
</a>
</g>
</g>
<!-- Node1&#45;&gt;Node2 -->
<g id="edge1" class="edge">
<title>Node1&#45;&gt;Node2</title>
<path fill="none" stroke="midnightblue" d="M80.54,-448.08C76.85,-440.69 71.48,-429.95 66.91,-420.81"/>
<polygon fill="midnightblue" stroke="midnightblue" points="69.98,-419.13 62.38,-411.75 63.72,-422.26 69.98,-419.13"/>
</g>
<!-- Node15 -->
<g id="node15" class="node">
<title>Node15</title>
<g id="a_node15"><a xlink:href="joy_8h.html" target="_top" xlink:title="Joypad manager.">
<polygon fill="white" stroke="black" points="96.5,-392.5 96.5,-411.5 135.5,-411.5 135.5,-392.5 96.5,-392.5"/>
<text text-anchor="middle" x="116" y="-399.5" font-family="Helvetica,sans-Serif" font-size="10.00">joy.h</text>
</a>
</g>
</g>
<!-- Node1&#45;&gt;Node15 -->
<g id="edge16" class="edge">
<title>Node1&#45;&gt;Node15</title>
<path fill="none" stroke="midnightblue" d="M90.12,-448.08C94.41,-440.61 100.66,-429.72 105.94,-420.52"/>
<polygon fill="midnightblue" stroke="midnightblue" points="109.03,-422.17 110.98,-411.75 102.96,-418.68 109.03,-422.17"/>
</g>
<!-- Node3 -->
<g id="node3" class="node">
<title>Node3</title>
<g id="a_node3"><a xlink:href="step_8h.html" target="_top" xlink:title=" ">
<polygon fill="white" stroke="black" points="18.5,-336.5 18.5,-355.5 65.5,-355.5 65.5,-336.5 18.5,-336.5"/>
<text text-anchor="middle" x="42" y="-343.5" font-family="Helvetica,sans-Serif" font-size="10.00">step.h</text>
</a>
</g>
</g>
<!-- Node2&#45;&gt;Node3 -->
<g id="edge2" class="edge">
<title>Node2&#45;&gt;Node3</title>
<path fill="none" stroke="midnightblue" d="M55.36,-392.08C53.21,-384.85 50.12,-374.41 47.45,-365.4"/>
<polygon fill="midnightblue" stroke="midnightblue" points="50.79,-364.34 44.59,-355.75 44.08,-366.33 50.79,-364.34"/>
</g>
<!-- Node4 -->
<g id="node4" class="node">
<title>Node4</title>
<g id="a_node4"><a xlink:href="po_8h.html" target="_top" xlink:title="Player object.">
<polygon fill="white" stroke="black" points="0,-280.5 0,-299.5 38,-299.5 38,-280.5 0,-280.5"/>
<text text-anchor="middle" x="19" y="-287.5" font-family="Helvetica,sans-Serif" font-size="10.00">po.h</text>
</a>
</g>
</g>
<!-- Node3&#45;&gt;Node4 -->
<g id="edge3" class="edge">
<title>Node3&#45;&gt;Node4</title>
<path fill="none" stroke="midnightblue" d="M38.2,-336.08C35.09,-328.77 30.58,-318.18 26.71,-309.1"/>
<polygon fill="midnightblue" stroke="midnightblue" points="29.87,-307.58 22.73,-299.75 23.43,-310.32 29.87,-307.58"/>
</g>
<!-- Node5 -->
<g id="node5" class="node">
<title>Node5</title>
<g id="a_node5"><a xlink:href="so_8h.html" target="_top" xlink:title="Scene objects.">
<polygon fill="white" stroke="black" points="7.5,-224.5 7.5,-243.5 44.5,-243.5 44.5,-224.5 7.5,-224.5"/>
<text text-anchor="middle" x="26" y="-231.5" font-family="Helvetica,sans-Serif" font-size="10.00">so.h</text>
</a>
</g>
</g>
<!-- Node4&#45;&gt;Node5 -->
<g id="edge4" class="edge">
<title>Node4&#45;&gt;Node5</title>
<path fill="none" stroke="midnightblue" d="M20.16,-280.08C21.08,-272.93 22.42,-262.64 23.58,-253.69"/>
<polygon fill="midnightblue" stroke="midnightblue" points="27.05,-254.12 24.87,-243.75 20.11,-253.22 27.05,-254.12"/>
</g>
<!-- Node6 -->
<g id="node6" class="node">
<title>Node6</title>
<g id="a_node6"><a xlink:href="alo_8h.html" target="_top" xlink:title=" ">
<polygon fill="white" stroke="black" points="5.5,-168.5 5.5,-187.5 46.5,-187.5 46.5,-168.5 5.5,-168.5"/>
<text text-anchor="middle" x="26" y="-175.5" font-family="Helvetica,sans-Serif" font-size="10.00">alo.h</text>
</a>
</g>
</g>
<!-- Node5&#45;&gt;Node6 -->
<g id="edge5" class="edge">
<title>Node5&#45;&gt;Node6</title>
<path fill="none" stroke="midnightblue" d="M26,-224.08C26,-217.01 26,-206.86 26,-197.99"/>
<polygon fill="midnightblue" stroke="midnightblue" points="29.5,-197.75 26,-187.75 22.5,-197.75 29.5,-197.75"/>
</g>
<!-- Node7 -->
<g id="node7" class="node">
<title>Node7</title>
<g id="a_node7"><a xlink:href="lo_8h.html" target="_top" xlink:title="Level objects.">
<polygon fill="white" stroke="black" points="109.5,-112.5 109.5,-131.5 144.5,-131.5 144.5,-112.5 109.5,-112.5"/>
<text text-anchor="middle" x="127" y="-119.5" font-family="Helvetica,sans-Serif" font-size="10.00">lo.h</text>
</a>
</g>
</g>
<!-- Node6&#45;&gt;Node7 -->
<g id="edge6" class="edge">
<title>Node6&#45;&gt;Node7</title>
<path fill="none" stroke="midnightblue" d="M42.23,-168.32C58.35,-159.7 83.3,-146.36 101.96,-136.39"/>
<polygon fill="midnightblue" stroke="midnightblue" points="103.64,-139.46 110.81,-131.65 100.34,-133.28 103.64,-139.46"/>
</g>
<!-- Node11 -->
<g id="node11" class="node">
<title>Node11</title>
<g id="a_node11"><a xlink:href="dl_8h.html" target="_top" xlink:title="Doubly&#45;linked list.">
<polygon fill="white" stroke="black" points="8.5,-56.5 8.5,-75.5 43.5,-75.5 43.5,-56.5 8.5,-56.5"/>
<text text-anchor="middle" x="26" y="-63.5" font-family="Helvetica,sans-Serif" font-size="10.00">dl.h</text>
</a>
</g>
</g>
<!-- Node6&#45;&gt;Node11 -->
<g id="edge15" class="edge">
<title>Node6&#45;&gt;Node11</title>
<path fill="none" stroke="midnightblue" d="M26,-168.37C26,-150.62 26,-109.67 26,-85.6"/>
<polygon fill="midnightblue" stroke="midnightblue" points="29.5,-85.59 26,-75.59 22.5,-85.59 29.5,-85.59"/>
</g>
<!-- Node8 -->
<g id="node8" class="node">
<title>Node8</title>
<g id="a_node8"><a xlink:href="oid_8h.html" target="_top" xlink:title="Object IDs.">
<polygon fill="white" stroke="black" points="12.5,-0.5 12.5,-19.5 53.5,-19.5 53.5,-0.5 12.5,-0.5"/>
<text text-anchor="middle" x="33" y="-7.5" font-family="Helvetica,sans-Serif" font-size="10.00">oid.h</text>
</a>
</g>
</g>
<!-- Node7&#45;&gt;Node8 -->
<g id="edge7" class="edge">
<title>Node7&#45;&gt;Node8</title>
<path fill="none" stroke="midnightblue" d="M119.62,-112.37C103.97,-94.05 67.22,-51.05 46.98,-27.36"/>
<polygon fill="midnightblue" stroke="midnightblue" points="49.5,-24.92 40.34,-19.59 44.18,-29.47 49.5,-24.92"/>
</g>
<!-- Node9 -->
<g id="node9" class="node">
<title>Node9</title>
<g id="a_node9"><a xlink:href="basic_8h.html" target="_top" xlink:title="Basic object.">
<polygon fill="white" stroke="black" points="100.5,-56.5 100.5,-75.5 151.5,-75.5 151.5,-56.5 100.5,-56.5"/>
<text text-anchor="middle" x="126" y="-63.5" font-family="Helvetica,sans-Serif" font-size="10.00">basic.h</text>
</a>
</g>
</g>
<!-- Node7&#45;&gt;Node9 -->
<g id="edge8" class="edge">
<title>Node7&#45;&gt;Node9</title>
<path fill="none" stroke="midnightblue" d="M126.83,-112.08C126.7,-105.01 126.52,-94.86 126.35,-85.99"/>
<polygon fill="midnightblue" stroke="midnightblue" points="129.85,-85.68 126.16,-75.75 122.85,-85.81 129.85,-85.68"/>
</g>
<!-- Node7&#45;&gt;Node11 -->
<g id="edge10" class="edge">
<title>Node7&#45;&gt;Node11</title>
<path fill="none" stroke="midnightblue" d="M110.77,-112.32C94.65,-103.7 69.7,-90.36 51.04,-80.39"/>
<polygon fill="midnightblue" stroke="midnightblue" points="52.66,-77.28 42.19,-75.65 49.36,-83.46 52.66,-77.28"/>
</g>
<!-- Node12 -->
<g id="node12" class="node">
<title>Node12</title>
<g id="a_node12"><a xlink:href="sw_8h.html" target="_top" xlink:title="Scene world?">
<polygon fill="white" stroke="black" points="170,-56.5 170,-75.5 208,-75.5 208,-56.5 170,-56.5"/>
<text text-anchor="middle" x="189" y="-63.5" font-family="Helvetica,sans-Serif" font-size="10.00">sw.h</text>
</a>
</g>
</g>
<!-- Node7&#45;&gt;Node12 -->
<g id="edge12" class="edge">
<title>Node7&#45;&gt;Node12</title>
<path fill="none" stroke="midnightblue" d="M136.96,-112.32C146.13,-104.34 159.94,-92.31 171.03,-82.65"/>
<polygon fill="midnightblue" stroke="midnightblue" points="173.62,-85.04 178.86,-75.83 169.02,-79.76 173.62,-85.04"/>
</g>
<!-- Node13 -->
<g id="node13" class="node">
<title>Node13</title>
<g id="a_node13"><a xlink:href="frame_8h.html" target="_top" xlink:title=" ">
<polygon fill="white" stroke="black" points="226,-56.5 226,-75.5 312,-75.5 312,-56.5 226,-56.5"/>
<text text-anchor="middle" x="269" y="-63.5" font-family="Helvetica,sans-Serif" font-size="10.00">splice/frame.h</text>
</a>
</g>
</g>
<!-- Node7&#45;&gt;Node13 -->
<g id="edge13" class="edge">
<title>Node7&#45;&gt;Node13</title>
<path fill="none" stroke="midnightblue" d="M144.7,-114.27C167.71,-105.52 208.32,-90.07 236.85,-79.23"/>
<polygon fill="midnightblue" stroke="midnightblue" points="238.28,-82.43 246.39,-75.6 235.79,-75.88 238.28,-82.43"/>
</g>
<!-- Node14 -->
<g id="node14" class="node">
<title>Node14</title>
<g id="a_node14"><a xlink:href="mq_8h.html" target="_top" xlink:title="Message queue.">
<polygon fill="white" stroke="black" points="330.5,-56.5 330.5,-75.5 371.5,-75.5 371.5,-56.5 330.5,-56.5"/>
<text text-anchor="middle" x="351" y="-63.5" font-family="Helvetica,sans-Serif" font-size="10.00">mq.h</text>
</a>
</g>
</g>
<!-- Node7&#45;&gt;Node14 -->
<g id="edge14" class="edge">
<title>Node7&#45;&gt;Node14</title>
<path fill="none" stroke="midnightblue" d="M144.75,-117.28C177.45,-110.34 249.63,-94.63 320.42,-76.02"/>
<polygon fill="midnightblue" stroke="midnightblue" points="321.62,-79.32 330.39,-73.37 319.83,-72.55 321.62,-79.32"/>
</g>
<!-- Node10 -->
<g id="node10" class="node">
<title>Node10</title>
<g id="a_node10"><a xlink:href="sidebag_8h.html" target="_top" xlink:title="Sidebag for splice.">
<polygon fill="white" stroke="black" points="78.5,-0.5 78.5,-19.5 173.5,-19.5 173.5,-0.5 78.5,-0.5"/>
<text text-anchor="middle" x="126" y="-7.5" font-family="Helvetica,sans-Serif" font-size="10.00">splice/sidebag.h</text>
</a>
</g>
</g>
<!-- Node9&#45;&gt;Node10 -->
<g id="edge9" class="edge">
<title>Node9&#45;&gt;Node10</title>
<path fill="none" stroke="midnightblue" d="M126,-56.08C126,-49.01 126,-38.86 126,-29.99"/>
<polygon fill="midnightblue" stroke="midnightblue" points="129.5,-29.75 126,-19.75 122.5,-29.75 129.5,-29.75"/>
</g>
<!-- Node11&#45;&gt;Node8 -->
<g id="edge11" class="edge">
<title>Node11&#45;&gt;Node8</title>
<path fill="none" stroke="midnightblue" d="M27.16,-56.08C28.08,-48.93 29.42,-38.64 30.58,-29.69"/>
<polygon fill="midnightblue" stroke="midnightblue" points="34.05,-30.12 31.87,-19.75 27.11,-29.22 34.05,-30.12"/>
</g>
<!-- Node16 -->
<g id="node16" class="node">
<title>Node16</title>
<g id="a_node16"><a xlink:href="rumble_8h.html" target="_top" xlink:title="Joypad rumble.">
<polygon fill="white" stroke="black" points="155,-336.5 155,-355.5 215,-355.5 215,-336.5 155,-336.5"/>
<text text-anchor="middle" x="185" y="-343.5" font-family="Helvetica,sans-Serif" font-size="10.00">rumble.h</text>
</a>
</g>
</g>
<!-- Node15&#45;&gt;Node16 -->
<g id="edge17" class="edge">
<title>Node15&#45;&gt;Node16</title>
<path fill="none" stroke="midnightblue" d="M127.09,-392.32C137.49,-384.18 153.26,-371.84 165.72,-362.09"/>
<polygon fill="midnightblue" stroke="midnightblue" points="167.99,-364.75 173.71,-355.83 163.68,-359.24 167.99,-364.75"/>
</g>
<!-- Node17 -->
<g id="node17" class="node">
<title>Node17</title>
<g id="a_node17"><a xlink:href="util_8h.html" target="_top" xlink:title="Utility functions.">
<polygon fill="white" stroke="black" points="95.5,-336.5 95.5,-355.5 136.5,-355.5 136.5,-336.5 95.5,-336.5"/>
<text text-anchor="middle" x="116" y="-343.5" font-family="Helvetica,sans-Serif" font-size="10.00">util.h</text>
</a>
</g>
</g>
<!-- Node15&#45;&gt;Node17 -->
<g id="edge18" class="edge">
<title>Node15&#45;&gt;Node17</title>
<path fill="none" stroke="midnightblue" d="M116,-392.08C116,-385.01 116,-374.86 116,-365.99"/>
<polygon fill="midnightblue" stroke="midnightblue" points="119.5,-365.75 116,-355.75 112.5,-365.75 119.5,-365.75"/>
</g>
<!-- Node18 -->
<g id="node18" class="node">
<title>Node18</title>
<g id="a_node18"><a xlink:href="mat_8h.html" target="_top" xlink:title="3x3 and 4x4 matrix types.">
<polygon fill="white" stroke="black" points="156.5,-280.5 156.5,-299.5 201.5,-299.5 201.5,-280.5 156.5,-280.5"/>
<text text-anchor="middle" x="179" y="-287.5" font-family="Helvetica,sans-Serif" font-size="10.00">mat.h</text>
</a>
</g>
</g>
<!-- Node17&#45;&gt;Node18 -->
<g id="edge19" class="edge">
<title>Node17&#45;&gt;Node18</title>
<path fill="none" stroke="midnightblue" d="M126.12,-336.32C135.53,-328.26 149.74,-316.08 161.07,-306.37"/>
<polygon fill="midnightblue" stroke="midnightblue" points="163.38,-309 168.69,-299.83 158.82,-303.68 163.38,-309"/>
</g>
<!-- Node19 -->
<g id="node19" class="node">
<title>Node19</title>
<g id="a_node19"><a xlink:href="vec_8h.html" target="_top" xlink:title="Vector math.">
<polygon fill="white" stroke="black" points="56.5,-280.5 56.5,-299.5 99.5,-299.5 99.5,-280.5 56.5,-280.5"/>
<text text-anchor="middle" x="78" y="-287.5" font-family="Helvetica,sans-Serif" font-size="10.00">vec.h</text>
</a>
</g>
</g>
<!-- Node17&#45;&gt;Node19 -->
<g id="edge20" class="edge">
<title>Node17&#45;&gt;Node19</title>
<path fill="none" stroke="midnightblue" d="M109.73,-336.08C104.36,-328.46 96.48,-317.26 89.92,-307.94"/>
<polygon fill="midnightblue" stroke="midnightblue" points="92.78,-305.91 84.16,-299.75 87.05,-309.94 92.78,-305.91"/>
</g>
<!-- Node20 -->
<g id="node20" class="node">
<title>Node20</title>
<g id="a_node20"><a xlink:href="sm_8h.html" target="_top" xlink:title="State machines.">
<polygon fill="white" stroke="black" points="107.5,-224.5 107.5,-243.5 148.5,-243.5 148.5,-224.5 107.5,-224.5"/>
<text text-anchor="middle" x="128" y="-231.5" font-family="Helvetica,sans-Serif" font-size="10.00">sm.h</text>
</a>
</g>
</g>
<!-- Node17&#45;&gt;Node20 -->
<g id="edge22" class="edge">
<title>Node17&#45;&gt;Node20</title>
<path fill="none" stroke="midnightblue" d="M116.94,-336.37C118.88,-318.62 123.35,-277.67 125.97,-253.6"/>
<polygon fill="midnightblue" stroke="midnightblue" points="129.46,-253.91 127.06,-243.59 122.5,-253.15 129.46,-253.91"/>
</g>
<!-- Node19&#45;&gt;Node5 -->
<g id="edge21" class="edge">
<title>Node19&#45;&gt;Node5</title>
<path fill="none" stroke="midnightblue" d="M69.41,-280.08C61.84,-272.22 50.62,-260.57 41.49,-251.08"/>
<polygon fill="midnightblue" stroke="midnightblue" points="43.88,-248.53 34.43,-243.75 38.84,-253.38 43.88,-248.53"/>
</g>
<!-- Node20&#45;&gt;Node11 -->
<g id="edge23" class="edge">
<title>Node20&#45;&gt;Node11</title>
<path fill="none" stroke="midnightblue" d="M120.86,-224.29C113.72,-215.41 102.58,-201.11 94,-188 70.79,-152.54 47.38,-108.69 34.99,-84.72"/>
<polygon fill="midnightblue" stroke="midnightblue" points="38.07,-83.05 30.39,-75.74 31.84,-86.24 38.07,-83.05"/>
</g>
<!-- Node20&#45;&gt;Node14 -->
<g id="edge26" class="edge">
<title>Node20&#45;&gt;Node14</title>
<path fill="none" stroke="midnightblue" d="M139.68,-224.31C175.8,-197.42 286.05,-115.35 331.3,-81.67"/>
<polygon fill="midnightblue" stroke="midnightblue" points="333.51,-84.38 339.44,-75.61 329.33,-78.77 333.51,-84.38"/>
</g>
<!-- Node21 -->
<g id="node21" class="node">
<title>Node21</title>
<g id="a_node21"><a xlink:href="anim_8h.html" target="_top" xlink:title="Animation.">
<polygon fill="white" stroke="black" points="103,-168.5 103,-187.5 153,-187.5 153,-168.5 103,-168.5"/>
<text text-anchor="middle" x="128" y="-175.5" font-family="Helvetica,sans-Serif" font-size="10.00">anim.h</text>
</a>
</g>
</g>
<!-- Node20&#45;&gt;Node21 -->
<g id="edge24" class="edge">
<title>Node20&#45;&gt;Node21</title>
<path fill="none" stroke="midnightblue" d="M128,-224.08C128,-217.01 128,-206.86 128,-197.99"/>
<polygon fill="midnightblue" stroke="midnightblue" points="131.5,-197.75 128,-187.75 124.5,-197.75 131.5,-197.75"/>
</g>
<!-- Node21&#45;&gt;Node7 -->
<g id="edge25" class="edge">
<title>Node21&#45;&gt;Node7</title>
<path fill="none" stroke="midnightblue" d="M127.83,-168.08C127.7,-161.01 127.52,-150.86 127.35,-141.99"/>
<polygon fill="midnightblue" stroke="midnightblue" points="130.85,-141.68 127.16,-131.75 123.85,-141.81 130.85,-141.68"/>
</g>
</g>
</svg>
