<?xml version="1.0" encoding="UTF-8" standalone="no"?>
<!DOCTYPE svg PUBLIC "-//W3C//DTD SVG 1.1//EN"
 "http://www.w3.org/Graphics/SVG/1.1/DTD/svg11.dtd">
<!-- Generated by graphviz version 2.43.0 (0)
 -->
<!-- Title: include/steppower.h Pages: 1 -->
<!--zoomable 588 -->
<svg id="main" version="1.1" xmlns="http://www.w3.org/2000/svg" xmlns:xlink="http://www.w3.org/1999/xlink" xml:space="preserve" onload="init(evt)">
<style type="text/css"><![CDATA[
.edge:hover path { stroke: red; }
.edge:hover polygon { stroke: red; fill: red; }
]]></style>
<script type="text/javascript"><![CDATA[
var edges = document.getElementsByTagName('g');
if (edges && edges.length) {
  for (var i=0;i<edges.length;i++) {
    if (edges[i].id.substr(0,4)=='edge') {
      edges[i].setAttribute('class','edge');
    }
  }
}
]]></script>
        <defs>
                <circle id="rim" cx="0" cy="0" r="7"/>
                <circle id="rim2" cx="0" cy="0" r="3.5"/>
                <g id="zoomPlus">
                        <use xlink:href="#rim" fill="#404040">
                                <set attributeName="fill" to="#808080" begin="zoomplus.mouseover" end="zoomplus.mouseout"/>
                        </use>
                        <path d="M-4,0h8M0,-4v8" fill="none" stroke="white" stroke-width="1.5" pointer-events="none"/>
                </g>
                <g id="zoomMin">
                        <use xlink:href="#rim" fill="#404040">
                                <set attributeName="fill" to="#808080" begin="zoomminus.mouseover" end="zoomminus.mouseout"/>
                        </use>
                        <path d="M-4,0h8" fill="none" stroke="white" stroke-width="1.5" pointer-events="none"/>
                </g>
                <g id="dirArrow">
                        <path fill="none" stroke="white" stroke-width="1.5" d="M0,-3.0v7 M-2.5,-0.5L0,-3.0L2.5,-0.5"/>
                </g>
               <g id="resetDef">
                       <use xlink:href="#rim2" fill="#404040">
                               <set attributeName="fill" to="#808080" begin="reset.mouseover" end="reset.mouseout"/>
                       </use>
               </g>
        </defs>

<script type="text/javascript">
var viewWidth = 899;
var viewHeight = 588;
var sectionId = 'dynsection-0';
</script>
<script xlink:href="svgpan.js"/>
<svg id="graph" class="graph">
<g id="viewport">
<title>include/steppower.h</title>
<polygon fill="white" stroke="transparent" points="-4,4 -4,-584 895,-584 895,4 -4,4"/>
<!-- Node1 -->
<g id="node1" class="node">
<title>Node1</title>
<g id="a_node1"><a xlink:title=" ">
<polygon fill="#bfbfbf" stroke="black" points="10,-560.5 10,-579.5 124,-579.5 124,-560.5 10,-560.5"/>
<text text-anchor="middle" x="67" y="-567.5" font-family="Helvetica,sans-Serif" font-size="10.00">include/steppower.h</text>
</a>
</g>
</g>
<!-- Node2 -->
<g id="node2" class="node">
<title>Node2</title>
<g id="a_node2"><a xlink:href="common_8h.html" target="_top" xlink:title="Common header file.">
<polygon fill="white" stroke="black" points="372,-56.5 372,-75.5 440,-75.5 440,-56.5 372,-56.5"/>
<text text-anchor="middle" x="406" y="-63.5" font-family="Helvetica,sans-Serif" font-size="10.00">common.h</text>
</a>
</g>
</g>
<!-- Node1&#45;&gt;Node2 -->
<g id="edge1" class="edge">
<title>Node1&#45;&gt;Node2</title>
<path fill="none" stroke="midnightblue" d="M57.11,-560.4C38.48,-543.18 0,-502.38 0,-459 0,-459 0,-459 0,-177 0,-138.28 23.76,-130.06 58,-112 109.76,-84.7 279.83,-73.03 361.48,-68.91"/>
<polygon fill="midnightblue" stroke="midnightblue" points="362.11,-72.38 371.93,-68.4 361.77,-65.39 362.11,-72.38"/>
</g>
<!-- Node7 -->
<g id="node7" class="node">
<title>Node7</title>
<g id="a_node7"><a xlink:href="jt_8h.html" target="_top" xlink:title="Sly entity.">
<polygon fill="white" stroke="black" points="51,-504.5 51,-523.5 83,-523.5 83,-504.5 51,-504.5"/>
<text text-anchor="middle" x="67" y="-511.5" font-family="Helvetica,sans-Serif" font-size="10.00">jt.h</text>
</a>
</g>
</g>
<!-- Node1&#45;&gt;Node7 -->
<g id="edge6" class="edge">
<title>Node1&#45;&gt;Node7</title>
<path fill="none" stroke="midnightblue" d="M67,-560.08C67,-553.01 67,-542.86 67,-533.99"/>
<polygon fill="midnightblue" stroke="midnightblue" points="70.5,-533.75 67,-523.75 63.5,-533.75 70.5,-533.75"/>
</g>
<!-- Node20 -->
<g id="node20" class="node">
<title>Node20</title>
<g id="a_node20"><a xlink:href="joy_8h.html" target="_top" xlink:title="Joypad manager.">
<polygon fill="white" stroke="black" points="732.5,-504.5 732.5,-523.5 771.5,-523.5 771.5,-504.5 732.5,-504.5"/>
<text text-anchor="middle" x="752" y="-511.5" font-family="Helvetica,sans-Serif" font-size="10.00">joy.h</text>
</a>
</g>
</g>
<!-- Node1&#45;&gt;Node20 -->
<g id="edge33" class="edge">
<title>Node1&#45;&gt;Node20</title>
<path fill="none" stroke="midnightblue" d="M124.22,-564.49C263.67,-553.5 617.25,-525.62 722.2,-517.35"/>
<polygon fill="midnightblue" stroke="midnightblue" points="722.69,-520.82 732.38,-516.55 722.14,-513.84 722.69,-520.82"/>
</g>
<!-- Node3 -->
<g id="node3" class="node">
<title>Node3</title>
<g id="a_node3"><a xlink:href="include__asm_8h.html" target="_top" xlink:title=" ">
<polygon fill="white" stroke="black" points="204.5,-0.5 204.5,-19.5 291.5,-19.5 291.5,-0.5 204.5,-0.5"/>
<text text-anchor="middle" x="248" y="-7.5" font-family="Helvetica,sans-Serif" font-size="10.00">include_asm.h</text>
</a>
</g>
</g>
<!-- Node2&#45;&gt;Node3 -->
<g id="edge2" class="edge">
<title>Node2&#45;&gt;Node3</title>
<path fill="none" stroke="midnightblue" d="M380.96,-56.44C354.38,-47.36 312.19,-32.94 282.48,-22.78"/>
<polygon fill="midnightblue" stroke="midnightblue" points="283.51,-19.44 272.92,-19.52 281.25,-26.06 283.51,-19.44"/>
</g>
<!-- Node4 -->
<g id="node4" class="node">
<title>Node4</title>
<g id="a_node4"><a xlink:href="include__rodata_8h.html" target="_top" xlink:title=" ">
<polygon fill="white" stroke="black" points="310,-0.5 310,-19.5 408,-19.5 408,-0.5 310,-0.5"/>
<text text-anchor="middle" x="359" y="-7.5" font-family="Helvetica,sans-Serif" font-size="10.00">include_rodata.h</text>
</a>
</g>
</g>
<!-- Node2&#45;&gt;Node4 -->
<g id="edge3" class="edge">
<title>Node2&#45;&gt;Node4</title>
<path fill="none" stroke="midnightblue" d="M398.24,-56.08C391.46,-48.3 381.46,-36.8 373.24,-27.37"/>
<polygon fill="midnightblue" stroke="midnightblue" points="375.82,-25 366.62,-19.75 370.54,-29.59 375.82,-25"/>
</g>
<!-- Node5 -->
<g id="node5" class="node">
<title>Node5</title>
<g id="a_node5"><a xlink:href="types_8h.html" target="_top" xlink:title="Common types used across the codebase.">
<polygon fill="white" stroke="black" points="426.5,-0.5 426.5,-19.5 479.5,-19.5 479.5,-0.5 426.5,-0.5"/>
<text text-anchor="middle" x="453" y="-7.5" font-family="Helvetica,sans-Serif" font-size="10.00">types.h</text>
</a>
</g>
</g>
<!-- Node2&#45;&gt;Node5 -->
<g id="edge4" class="edge">
<title>Node2&#45;&gt;Node5</title>
<path fill="none" stroke="midnightblue" d="M413.76,-56.08C420.54,-48.3 430.54,-36.8 438.76,-27.37"/>
<polygon fill="midnightblue" stroke="midnightblue" points="441.46,-29.59 445.38,-19.75 436.18,-25 441.46,-29.59"/>
</g>
<!-- Node6 -->
<g id="node6" class="node">
<title>Node6</title>
<g id="a_node6"><a xlink:href="vtables_8h.html" target="_top" xlink:title="Manually crafted vtables for various structs.">
<polygon fill="white" stroke="black" points="498,-0.5 498,-19.5 560,-19.5 560,-0.5 498,-0.5"/>
<text text-anchor="middle" x="529" y="-7.5" font-family="Helvetica,sans-Serif" font-size="10.00">vtables.h</text>
</a>
</g>
</g>
<!-- Node2&#45;&gt;Node6 -->
<g id="edge5" class="edge">
<title>Node2&#45;&gt;Node6</title>
<path fill="none" stroke="midnightblue" d="M425.49,-56.44C445.64,-47.6 477.32,-33.69 500.33,-23.59"/>
<polygon fill="midnightblue" stroke="midnightblue" points="501.85,-26.74 509.6,-19.52 499.04,-20.33 501.85,-26.74"/>
</g>
<!-- Node7&#45;&gt;Node2 -->
<g id="edge7" class="edge">
<title>Node7&#45;&gt;Node2</title>
<path fill="none" stroke="midnightblue" d="M63.09,-504.36C55.17,-486.07 38,-441.91 38,-403 38,-403 38,-403 38,-177 38,-137.68 63.22,-130.34 98,-112 142.88,-88.34 287.62,-75.18 361.58,-69.84"/>
<polygon fill="midnightblue" stroke="midnightblue" points="362.24,-73.31 371.96,-69.11 361.74,-66.32 362.24,-73.31"/>
</g>
<!-- Node8 -->
<g id="node8" class="node">
<title>Node8</title>
<g id="a_node8"><a xlink:href="step_8h.html" target="_top" xlink:title=" ">
<polygon fill="white" stroke="black" points="66.5,-448.5 66.5,-467.5 113.5,-467.5 113.5,-448.5 66.5,-448.5"/>
<text text-anchor="middle" x="90" y="-455.5" font-family="Helvetica,sans-Serif" font-size="10.00">step.h</text>
</a>
</g>
</g>
<!-- Node7&#45;&gt;Node8 -->
<g id="edge8" class="edge">
<title>Node7&#45;&gt;Node8</title>
<path fill="none" stroke="midnightblue" d="M70.8,-504.08C73.91,-496.77 78.42,-486.18 82.29,-477.1"/>
<polygon fill="midnightblue" stroke="midnightblue" points="85.57,-478.32 86.27,-467.75 79.13,-475.58 85.57,-478.32"/>
</g>
<!-- Node8&#45;&gt;Node2 -->
<g id="edge9" class="edge">
<title>Node8&#45;&gt;Node2</title>
<path fill="none" stroke="midnightblue" d="M88.17,-448.49C84.37,-430.07 76,-385.12 76,-347 76,-347 76,-347 76,-177 76,-136.77 103.39,-130.72 139,-112 210.53,-74.39 306.4,-67 361.66,-66.2"/>
<polygon fill="midnightblue" stroke="midnightblue" points="361.85,-69.7 371.82,-66.13 361.8,-62.7 361.85,-69.7"/>
</g>
<!-- Node9 -->
<g id="node9" class="node">
<title>Node9</title>
<g id="a_node9"><a xlink:href="po_8h.html" target="_top" xlink:title="Player object.">
<polygon fill="white" stroke="black" points="104,-392.5 104,-411.5 142,-411.5 142,-392.5 104,-392.5"/>
<text text-anchor="middle" x="123" y="-399.5" font-family="Helvetica,sans-Serif" font-size="10.00">po.h</text>
</a>
</g>
</g>
<!-- Node8&#45;&gt;Node9 -->
<g id="edge10" class="edge">
<title>Node8&#45;&gt;Node9</title>
<path fill="none" stroke="midnightblue" d="M95.45,-448.08C100.01,-440.61 106.67,-429.72 112.29,-420.52"/>
<polygon fill="midnightblue" stroke="midnightblue" points="115.42,-422.11 117.65,-411.75 109.45,-418.46 115.42,-422.11"/>
</g>
<!-- Node9&#45;&gt;Node2 -->
<g id="edge11" class="edge">
<title>Node9&#45;&gt;Node2</title>
<path fill="none" stroke="midnightblue" d="M121.82,-392.46C119.38,-373.99 114,-328.94 114,-291 114,-291 114,-291 114,-177 114,-133.56 148.17,-131.48 187,-112 243.16,-83.82 315.87,-73.28 361.74,-69.35"/>
<polygon fill="midnightblue" stroke="midnightblue" points="362.26,-72.82 371.95,-68.54 361.71,-65.84 362.26,-72.82"/>
</g>
<!-- Node10 -->
<g id="node10" class="node">
<title>Node10</title>
<g id="a_node10"><a xlink:href="so_8h.html" target="_top" xlink:title="Scene objects.">
<polygon fill="white" stroke="black" points="227.5,-336.5 227.5,-355.5 264.5,-355.5 264.5,-336.5 227.5,-336.5"/>
<text text-anchor="middle" x="246" y="-343.5" font-family="Helvetica,sans-Serif" font-size="10.00">so.h</text>
</a>
</g>
</g>
<!-- Node9&#45;&gt;Node10 -->
<g id="edge12" class="edge">
<title>Node9&#45;&gt;Node10</title>
<path fill="none" stroke="midnightblue" d="M142.22,-392.56C162.56,-383.63 194.85,-369.46 218.01,-359.29"/>
<polygon fill="midnightblue" stroke="midnightblue" points="219.57,-362.43 227.32,-355.2 216.76,-356.02 219.57,-362.43"/>
</g>
<!-- Node11 -->
<g id="node11" class="node">
<title>Node11</title>
<g id="a_node11"><a xlink:href="alo_8h.html" target="_top" xlink:title=" ">
<polygon fill="white" stroke="black" points="225.5,-280.5 225.5,-299.5 266.5,-299.5 266.5,-280.5 225.5,-280.5"/>
<text text-anchor="middle" x="246" y="-287.5" font-family="Helvetica,sans-Serif" font-size="10.00">alo.h</text>
</a>
</g>
</g>
<!-- Node10&#45;&gt;Node11 -->
<g id="edge13" class="edge">
<title>Node10&#45;&gt;Node11</title>
<path fill="none" stroke="midnightblue" d="M246,-336.08C246,-329.01 246,-318.86 246,-309.99"/>
<polygon fill="midnightblue" stroke="midnightblue" points="249.5,-309.75 246,-299.75 242.5,-309.75 249.5,-309.75"/>
</g>
<!-- Node11&#45;&gt;Node2 -->
<g id="edge14" class="edge">
<title>Node11&#45;&gt;Node2</title>
<path fill="none" stroke="midnightblue" d="M239.04,-280.15C217.93,-252.21 158.67,-164.63 201,-112 220.79,-87.39 307.76,-75.48 361.86,-70.35"/>
<polygon fill="midnightblue" stroke="midnightblue" points="362.25,-73.83 371.89,-69.44 361.61,-66.86 362.25,-73.83"/>
</g>
<!-- Node12 -->
<g id="node12" class="node">
<title>Node12</title>
<g id="a_node12"><a xlink:href="lo_8h.html" target="_top" xlink:title="Level objects.">
<polygon fill="white" stroke="black" points="431.5,-224.5 431.5,-243.5 466.5,-243.5 466.5,-224.5 431.5,-224.5"/>
<text text-anchor="middle" x="449" y="-231.5" font-family="Helvetica,sans-Serif" font-size="10.00">lo.h</text>
</a>
</g>
</g>
<!-- Node11&#45;&gt;Node12 -->
<g id="edge15" class="edge">
<title>Node11&#45;&gt;Node12</title>
<path fill="none" stroke="midnightblue" d="M266.58,-283.53C303.3,-273.76 380.12,-253.32 421.38,-242.35"/>
<polygon fill="midnightblue" stroke="midnightblue" points="422.53,-245.66 431.3,-239.71 420.74,-238.9 422.53,-245.66"/>
</g>
<!-- Node16 -->
<g id="node16" class="node">
<title>Node16</title>
<g id="a_node16"><a xlink:href="dl_8h.html" target="_top" xlink:title="Doubly&#45;linked list.">
<polygon fill="white" stroke="black" points="228.5,-168.5 228.5,-187.5 263.5,-187.5 263.5,-168.5 228.5,-168.5"/>
<text text-anchor="middle" x="246" y="-175.5" font-family="Helvetica,sans-Serif" font-size="10.00">dl.h</text>
</a>
</g>
</g>
<!-- Node11&#45;&gt;Node16 -->
<g id="edge32" class="edge">
<title>Node11&#45;&gt;Node16</title>
<path fill="none" stroke="midnightblue" d="M246,-280.37C246,-262.62 246,-221.67 246,-197.6"/>
<polygon fill="midnightblue" stroke="midnightblue" points="249.5,-197.59 246,-187.59 242.5,-197.59 249.5,-197.59"/>
</g>
<!-- Node12&#45;&gt;Node2 -->
<g id="edge16" class="edge">
<title>Node12&#45;&gt;Node2</title>
<path fill="none" stroke="midnightblue" d="M466.63,-226.75C510.86,-210.12 620.24,-162.61 581,-112 565.09,-91.49 496.63,-78.69 450.2,-72.21"/>
<polygon fill="midnightblue" stroke="midnightblue" points="450.45,-68.71 440.07,-70.84 449.52,-75.65 450.45,-68.71"/>
</g>
<!-- Node13 -->
<g id="node13" class="node">
<title>Node13</title>
<g id="a_node13"><a xlink:href="oid_8h.html" target="_top" xlink:title="Object IDs.">
<polygon fill="white" stroke="black" points="218.5,-112.5 218.5,-131.5 259.5,-131.5 259.5,-112.5 218.5,-112.5"/>
<text text-anchor="middle" x="239" y="-119.5" font-family="Helvetica,sans-Serif" font-size="10.00">oid.h</text>
</a>
</g>
</g>
<!-- Node12&#45;&gt;Node13 -->
<g id="edge17" class="edge">
<title>Node12&#45;&gt;Node13</title>
<path fill="none" stroke="midnightblue" d="M431.28,-227.98C407.29,-220.83 363.51,-206.5 329,-188 302.38,-173.73 274.63,-152.58 257.11,-138.31"/>
<polygon fill="midnightblue" stroke="midnightblue" points="258.87,-135.23 248.94,-131.56 254.41,-140.63 258.87,-135.23"/>
</g>
<!-- Node14 -->
<g id="node14" class="node">
<title>Node14</title>
<g id="a_node14"><a xlink:href="basic_8h.html" target="_top" xlink:title="Basic object.">
<polygon fill="white" stroke="black" points="338.5,-168.5 338.5,-187.5 389.5,-187.5 389.5,-168.5 338.5,-168.5"/>
<text text-anchor="middle" x="364" y="-175.5" font-family="Helvetica,sans-Serif" font-size="10.00">basic.h</text>
</a>
</g>
</g>
<!-- Node12&#45;&gt;Node14 -->
<g id="edge19" class="edge">
<title>Node12&#45;&gt;Node14</title>
<path fill="none" stroke="midnightblue" d="M435.34,-224.32C422.08,-215.9 401.73,-202.97 386.15,-193.07"/>
<polygon fill="midnightblue" stroke="midnightblue" points="387.94,-190.06 377.62,-187.65 384.19,-195.97 387.94,-190.06"/>
</g>
<!-- Node12&#45;&gt;Node16 -->
<g id="edge23" class="edge">
<title>Node12&#45;&gt;Node16</title>
<path fill="none" stroke="midnightblue" d="M431.34,-228.3C395.95,-218.89 316.1,-197.65 273.69,-186.37"/>
<polygon fill="midnightblue" stroke="midnightblue" points="274.33,-182.91 263.76,-183.73 272.53,-189.68 274.33,-182.91"/>
</g>
<!-- Node17 -->
<g id="node17" class="node">
<title>Node17</title>
<g id="a_node17"><a xlink:href="sw_8h.html" target="_top" xlink:title="Scene world?">
<polygon fill="white" stroke="black" points="430,-112.5 430,-131.5 468,-131.5 468,-112.5 430,-112.5"/>
<text text-anchor="middle" x="449" y="-119.5" font-family="Helvetica,sans-Serif" font-size="10.00">sw.h</text>
</a>
</g>
</g>
<!-- Node12&#45;&gt;Node17 -->
<g id="edge26" class="edge">
<title>Node12&#45;&gt;Node17</title>
<path fill="none" stroke="midnightblue" d="M449,-224.37C449,-206.62 449,-165.67 449,-141.6"/>
<polygon fill="midnightblue" stroke="midnightblue" points="452.5,-141.59 449,-131.59 445.5,-141.59 452.5,-141.59"/>
</g>
<!-- Node18 -->
<g id="node18" class="node">
<title>Node18</title>
<g id="a_node18"><a xlink:href="frame_8h.html" target="_top" xlink:title=" ">
<polygon fill="white" stroke="black" points="486,-112.5 486,-131.5 572,-131.5 572,-112.5 486,-112.5"/>
<text text-anchor="middle" x="529" y="-119.5" font-family="Helvetica,sans-Serif" font-size="10.00">splice/frame.h</text>
</a>
</g>
</g>
<!-- Node12&#45;&gt;Node18 -->
<g id="edge28" class="edge">
<title>Node12&#45;&gt;Node18</title>
<path fill="none" stroke="midnightblue" d="M455.28,-224.37C468.48,-206.22 499.33,-163.8 516.64,-139.99"/>
<polygon fill="midnightblue" stroke="midnightblue" points="519.7,-141.74 522.75,-131.59 514.04,-137.62 519.7,-141.74"/>
</g>
<!-- Node19 -->
<g id="node19" class="node">
<title>Node19</title>
<g id="a_node19"><a xlink:href="mq_8h.html" target="_top" xlink:title="Message queue.">
<polygon fill="white" stroke="black" points="606.5,-168.5 606.5,-187.5 647.5,-187.5 647.5,-168.5 606.5,-168.5"/>
<text text-anchor="middle" x="627" y="-175.5" font-family="Helvetica,sans-Serif" font-size="10.00">mq.h</text>
</a>
</g>
</g>
<!-- Node12&#45;&gt;Node19 -->
<g id="edge30" class="edge">
<title>Node12&#45;&gt;Node19</title>
<path fill="none" stroke="midnightblue" d="M466.72,-227.62C497.02,-218.43 559.14,-199.59 596.52,-188.25"/>
<polygon fill="midnightblue" stroke="midnightblue" points="597.81,-191.51 606.36,-185.26 595.78,-184.82 597.81,-191.51"/>
</g>
<!-- Node13&#45;&gt;Node2 -->
<g id="edge18" class="edge">
<title>Node13&#45;&gt;Node2</title>
<path fill="none" stroke="midnightblue" d="M259.81,-114.27C287.31,-105.38 336.18,-89.58 369.79,-78.71"/>
<polygon fill="midnightblue" stroke="midnightblue" points="371.25,-81.91 379.69,-75.51 369.1,-75.25 371.25,-81.91"/>
</g>
<!-- Node14&#45;&gt;Node2 -->
<g id="edge20" class="edge">
<title>Node14&#45;&gt;Node2</title>
<path fill="none" stroke="midnightblue" d="M346.59,-168.43C325,-156.6 292.7,-134.21 307,-112 319.21,-93.04 341.58,-81.97 361.97,-75.57"/>
<polygon fill="midnightblue" stroke="midnightblue" points="363.11,-78.88 371.77,-72.78 361.19,-72.15 363.11,-78.88"/>
</g>
<!-- Node15 -->
<g id="node15" class="node">
<title>Node15</title>
<g id="a_node15"><a xlink:href="sidebag_8h.html" target="_top" xlink:title="Sidebag for splice.">
<polygon fill="white" stroke="black" points="316.5,-112.5 316.5,-131.5 411.5,-131.5 411.5,-112.5 316.5,-112.5"/>
<text text-anchor="middle" x="364" y="-119.5" font-family="Helvetica,sans-Serif" font-size="10.00">splice/sidebag.h</text>
</a>
</g>
</g>
<!-- Node14&#45;&gt;Node15 -->
<g id="edge21" class="edge">
<title>Node14&#45;&gt;Node15</title>
<path fill="none" stroke="midnightblue" d="M364,-168.08C364,-161.01 364,-150.86 364,-141.99"/>
<polygon fill="midnightblue" stroke="midnightblue" points="367.5,-141.75 364,-131.75 360.5,-141.75 367.5,-141.75"/>
</g>
<!-- Node15&#45;&gt;Node2 -->
<g id="edge22" class="edge">
<title>Node15&#45;&gt;Node2</title>
<path fill="none" stroke="midnightblue" d="M370.94,-112.08C376.93,-104.38 385.75,-93.03 393.05,-83.65"/>
<polygon fill="midnightblue" stroke="midnightblue" points="395.82,-85.79 399.19,-75.75 390.29,-81.5 395.82,-85.79"/>
</g>
<!-- Node16&#45;&gt;Node2 -->
<g id="edge24" class="edge">
<title>Node16&#45;&gt;Node2</title>
<path fill="none" stroke="midnightblue" d="M234.82,-168.48C219.18,-155.54 194.27,-130.48 209,-112 227.76,-88.47 309.85,-76.27 361.97,-70.78"/>
<polygon fill="midnightblue" stroke="midnightblue" points="362.36,-74.26 371.96,-69.77 361.66,-67.29 362.36,-74.26"/>
</g>
<!-- Node16&#45;&gt;Node13 -->
<g id="edge25" class="edge">
<title>Node16&#45;&gt;Node13</title>
<path fill="none" stroke="midnightblue" d="M244.84,-168.08C243.92,-160.93 242.58,-150.64 241.42,-141.69"/>
<polygon fill="midnightblue" stroke="midnightblue" points="244.89,-141.22 240.13,-131.75 237.95,-142.12 244.89,-141.22"/>
</g>
<!-- Node17&#45;&gt;Node2 -->
<g id="edge27" class="edge">
<title>Node17&#45;&gt;Node2</title>
<path fill="none" stroke="midnightblue" d="M441.9,-112.08C435.76,-104.38 426.73,-93.03 419.26,-83.65"/>
<polygon fill="midnightblue" stroke="midnightblue" points="421.94,-81.39 412.97,-75.75 416.46,-85.75 421.94,-81.39"/>
</g>
<!-- Node18&#45;&gt;Node2 -->
<g id="edge29" class="edge">
<title>Node18&#45;&gt;Node2</title>
<path fill="none" stroke="midnightblue" d="M509.51,-112.44C489.36,-103.6 457.68,-89.69 434.67,-79.59"/>
<polygon fill="midnightblue" stroke="midnightblue" points="435.96,-76.33 425.4,-75.52 433.15,-82.74 435.96,-76.33"/>
</g>
<!-- Node19&#45;&gt;Node2 -->
<g id="edge31" class="edge">
<title>Node19&#45;&gt;Node2</title>
<path fill="none" stroke="midnightblue" d="M627.98,-168.5C629.07,-154.66 629.02,-127.25 614,-112 591.54,-89.18 504.14,-76.63 450.04,-70.91"/>
<polygon fill="midnightblue" stroke="midnightblue" points="450.32,-67.42 440.02,-69.89 449.61,-74.38 450.32,-67.42"/>
</g>
<!-- Node20&#45;&gt;Node2 -->
<g id="edge34" class="edge">
<title>Node20&#45;&gt;Node2</title>
<path fill="none" stroke="midnightblue" d="M759.31,-504.23C773.41,-486.39 803,-444.05 803,-403 803,-403 803,-403 803,-177 803,-130.84 764.35,-130.35 722,-112 631.39,-72.74 513.82,-66.33 450.72,-66.06"/>
<polygon fill="midnightblue" stroke="midnightblue" points="450.33,-62.57 440.33,-66.07 450.33,-69.57 450.33,-62.57"/>
</g>
<!-- Node21 -->
<g id="node21" class="node">
<title>Node21</title>
<g id="a_node21"><a xlink:href="rumble_8h.html" target="_top" xlink:title="Joypad rumble.">
<polygon fill="white" stroke="black" points="831,-224.5 831,-243.5 891,-243.5 891,-224.5 831,-224.5"/>
<text text-anchor="middle" x="861" y="-231.5" font-family="Helvetica,sans-Serif" font-size="10.00">rumble.h</text>
</a>
</g>
</g>
<!-- Node20&#45;&gt;Node21 -->
<g id="edge35" class="edge">
<title>Node20&#45;&gt;Node21</title>
<path fill="none" stroke="midnightblue" d="M768.79,-504.32C797.04,-488.37 851,-451.56 851,-403 851,-403 851,-403 851,-345 851,-312.82 855.3,-275.55 858.26,-253.7"/>
<polygon fill="midnightblue" stroke="midnightblue" points="861.76,-253.92 859.69,-243.53 854.83,-252.95 861.76,-253.92"/>
</g>
<!-- Node22 -->
<g id="node22" class="node">
<title>Node22</title>
<g id="a_node22"><a xlink:href="util_8h.html" target="_top" xlink:title="Utility functions.">
<polygon fill="white" stroke="black" points="680.5,-448.5 680.5,-467.5 721.5,-467.5 721.5,-448.5 680.5,-448.5"/>
<text text-anchor="middle" x="701" y="-455.5" font-family="Helvetica,sans-Serif" font-size="10.00">util.h</text>
</a>
</g>
</g>
<!-- Node20&#45;&gt;Node22 -->
<g id="edge37" class="edge">
<title>Node20&#45;&gt;Node22</title>
<path fill="none" stroke="midnightblue" d="M743.58,-504.08C736.15,-496.22 725.15,-484.57 716.19,-475.08"/>
<polygon fill="midnightblue" stroke="midnightblue" points="718.68,-472.62 709.26,-467.75 713.59,-477.42 718.68,-472.62"/>
</g>
<!-- Node21&#45;&gt;Node2 -->
<g id="edge36" class="edge">
<title>Node21&#45;&gt;Node2</title>
<path fill="none" stroke="midnightblue" d="M860.77,-224.21C859.64,-201.46 853.22,-140.43 817,-112 788.58,-89.69 550.56,-74.63 450.27,-69.22"/>
<polygon fill="midnightblue" stroke="midnightblue" points="450.33,-65.72 440.16,-68.69 449.96,-72.71 450.33,-65.72"/>
</g>
<!-- Node22&#45;&gt;Node2 -->
<g id="edge38" class="edge">
<title>Node22&#45;&gt;Node2</title>
<path fill="none" stroke="midnightblue" d="M703.6,-448.14C713.99,-412.4 752,-278.7 752,-235 752,-235 752,-235 752,-177 752,-136.46 724.04,-130.57 688,-112 647.34,-91.05 518.78,-76.92 450.16,-70.67"/>
<polygon fill="midnightblue" stroke="midnightblue" points="450.36,-67.17 440.09,-69.76 449.74,-74.14 450.36,-67.17"/>
</g>
<!-- Node23 -->
<g id="node23" class="node">
<title>Node23</title>
<g id="a_node23"><a xlink:href="mat_8h.html" target="_top" xlink:title="3x3 and 4x4 matrix types.">
<polygon fill="white" stroke="black" points="729.5,-392.5 729.5,-411.5 774.5,-411.5 774.5,-392.5 729.5,-392.5"/>
<text text-anchor="middle" x="752" y="-399.5" font-family="Helvetica,sans-Serif" font-size="10.00">mat.h</text>
</a>
</g>
</g>
<!-- Node22&#45;&gt;Node23 -->
<g id="edge39" class="edge">
<title>Node22&#45;&gt;Node23</title>
<path fill="none" stroke="midnightblue" d="M709.42,-448.08C716.85,-440.22 727.85,-428.57 736.81,-419.08"/>
<polygon fill="midnightblue" stroke="midnightblue" points="739.41,-421.42 743.74,-411.75 734.32,-416.62 739.41,-421.42"/>
</g>
<!-- Node24 -->
<g id="node24" class="node">
<title>Node24</title>
<g id="a_node24"><a xlink:href="vec_8h.html" target="_top" xlink:title="Vector math.">
<polygon fill="white" stroke="black" points="417.5,-392.5 417.5,-411.5 460.5,-411.5 460.5,-392.5 417.5,-392.5"/>
<text text-anchor="middle" x="439" y="-399.5" font-family="Helvetica,sans-Serif" font-size="10.00">vec.h</text>
</a>
</g>
</g>
<!-- Node22&#45;&gt;Node24 -->
<g id="edge40" class="edge">
<title>Node22&#45;&gt;Node24</title>
<path fill="none" stroke="midnightblue" d="M680.44,-452.76C634.86,-443.37 525.08,-420.74 470.67,-409.53"/>
<polygon fill="midnightblue" stroke="midnightblue" points="471.06,-406.03 460.56,-407.44 469.65,-412.89 471.06,-406.03"/>
</g>
<!-- Node25 -->
<g id="node25" class="node">
<title>Node25</title>
<g id="a_node25"><a xlink:href="sm_8h.html" target="_top" xlink:title="State machines.">
<polygon fill="white" stroke="black" points="642.5,-336.5 642.5,-355.5 683.5,-355.5 683.5,-336.5 642.5,-336.5"/>
<text text-anchor="middle" x="663" y="-343.5" font-family="Helvetica,sans-Serif" font-size="10.00">sm.h</text>
</a>
</g>
</g>
<!-- Node22&#45;&gt;Node25 -->
<g id="edge42" class="edge">
<title>Node22&#45;&gt;Node25</title>
<path fill="none" stroke="midnightblue" d="M698.02,-448.37C691.86,-430.54 677.61,-389.3 669.31,-365.27"/>
<polygon fill="midnightblue" stroke="midnightblue" points="672.54,-363.9 665.97,-355.59 665.93,-366.19 672.54,-363.9"/>
</g>
<!-- Node24&#45;&gt;Node10 -->
<g id="edge41" class="edge">
<title>Node24&#45;&gt;Node10</title>
<path fill="none" stroke="midnightblue" d="M417.24,-394.91C382.12,-385.09 313,-365.75 274.17,-354.88"/>
<polygon fill="midnightblue" stroke="midnightblue" points="275.11,-351.51 264.54,-352.19 273.22,-358.25 275.11,-351.51"/>
</g>
<!-- Node25&#45;&gt;Node2 -->
<g id="edge43" class="edge">
<title>Node25&#45;&gt;Node2</title>
<path fill="none" stroke="midnightblue" d="M670.31,-336.23C684.41,-318.39 714,-276.05 714,-235 714,-235 714,-235 714,-177 714,-138.28 689.79,-130.91 656,-112 591.01,-75.63 502.98,-67.66 450.59,-66.45"/>
<polygon fill="midnightblue" stroke="midnightblue" points="450.34,-62.95 440.28,-66.29 450.23,-69.95 450.34,-62.95"/>
</g>
<!-- Node25&#45;&gt;Node16 -->
<g id="edge44" class="edge">
<title>Node25&#45;&gt;Node16</title>
<path fill="none" stroke="midnightblue" d="M642.32,-336.77C573.43,-309.35 351.69,-221.08 273.56,-189.97"/>
<polygon fill="midnightblue" stroke="midnightblue" points="274.52,-186.59 263.93,-186.14 271.93,-193.09 274.52,-186.59"/>
</g>
<!-- Node25&#45;&gt;Node19 -->
<g id="edge48" class="edge">
<title>Node25&#45;&gt;Node19</title>
<path fill="none" stroke="midnightblue" d="M662.73,-336.09C662.23,-323.5 660.82,-299.81 657,-280 651.3,-250.45 640.54,-217.16 633.57,-197.15"/>
<polygon fill="midnightblue" stroke="midnightblue" points="636.79,-195.76 630.15,-187.5 630.19,-198.1 636.79,-195.76"/>
</g>
<!-- Node26 -->
<g id="node26" class="node">
<title>Node26</title>
<g id="a_node26"><a xlink:href="anim_8h.html" target="_top" xlink:title="Animation.">
<polygon fill="white" stroke="black" points="598,-280.5 598,-299.5 648,-299.5 648,-280.5 598,-280.5"/>
<text text-anchor="middle" x="623" y="-287.5" font-family="Helvetica,sans-Serif" font-size="10.00">anim.h</text>
</a>
</g>
</g>
<!-- Node25&#45;&gt;Node26 -->
<g id="edge45" class="edge">
<title>Node25&#45;&gt;Node26</title>
<path fill="none" stroke="midnightblue" d="M656.39,-336.08C650.74,-328.46 642.46,-317.26 635.55,-307.94"/>
<polygon fill="midnightblue" stroke="midnightblue" points="638.25,-305.7 629.48,-299.75 632.62,-309.87 638.25,-305.7"/>
</g>
<!-- Node26&#45;&gt;Node2 -->
<g id="edge46" class="edge">
<title>Node26&#45;&gt;Node2</title>
<path fill="none" stroke="midnightblue" d="M627.67,-280.1C642.52,-250.43 684.81,-154.42 634,-112 606.61,-89.13 508.22,-76.38 450.02,-70.68"/>
<polygon fill="midnightblue" stroke="midnightblue" points="450.29,-67.19 440,-69.73 449.63,-74.16 450.29,-67.19"/>
</g>
<!-- Node26&#45;&gt;Node12 -->
<g id="edge47" class="edge">
<title>Node26&#45;&gt;Node12</title>
<path fill="none" stroke="midnightblue" d="M597.7,-281.15C565.41,-271.13 509.76,-253.86 476.47,-243.52"/>
<polygon fill="midnightblue" stroke="midnightblue" points="477.49,-240.18 466.9,-240.56 475.42,-246.86 477.49,-240.18"/>
</g>
</g>
</svg>
        <g id="navigator" transform="translate(0 0)" fill="#404254">
                <rect fill="#f2f5e9" fill-opacity="0.5" stroke="#606060" stroke-width=".5" x="0" y="0" width="60" height="60"/>
                <use id="zoomplus" xlink:href="#zoomPlus" x="17" y="9" onmousedown="handleZoom(evt,'in')"/>
                <use id="zoomminus" xlink:href="#zoomMin" x="42" y="9" onmousedown="handleZoom(evt,'out')"/>
                <use id="reset" xlink:href="#resetDef" x="30" y="36" onmousedown="handleReset()"/>
                <g id="arrowUp" xlink:href="#dirArrow" transform="translate(30 24)" onmousedown="handlePan(0,-1)">
                  <use xlink:href="#rim" fill="#404040">
                        <set attributeName="fill" to="#808080" begin="arrowUp.mouseover" end="arrowUp.mouseout"/>
                  </use>
                  <path fill="none" stroke="white" stroke-width="1.5" d="M0,-3.0v7 M-2.5,-0.5L0,-3.0L2.5,-0.5"/>
                </g>
                <g id="arrowRight" xlink:href="#dirArrow" transform="rotate(90) translate(36 -43)" onmousedown="handlePan(1,0)">
                  <use xlink:href="#rim" fill="#404040">
                        <set attributeName="fill" to="#808080" begin="arrowRight.mouseover" end="arrowRight.mouseout"/>
                  </use>
                  <path fill="none" stroke="white" stroke-width="1.5" d="M0,-3.0v7 M-2.5,-0.5L0,-3.0L2.5,-0.5"/>
                </g>
                <g id="arrowDown" xlink:href="#dirArrow" transform="rotate(180) translate(-30 -48)" onmousedown="handlePan(0,1)">
                  <use xlink:href="#rim" fill="#404040">
                        <set attributeName="fill" to="#808080" begin="arrowDown.mouseover" end="arrowDown.mouseout"/>
                  </use>
                  <path fill="none" stroke="white" stroke-width="1.5" d="M0,-3.0v7 M-2.5,-0.5L0,-3.0L2.5,-0.5"/>
                </g>
                <g id="arrowLeft" xlink:href="#dirArrow" transform="rotate(270) translate(-36 17)" onmousedown="handlePan(-1,0)">
                  <use xlink:href="#rim" fill="#404040">
                        <set attributeName="fill" to="#808080" begin="arrowLeft.mouseover" end="arrowLeft.mouseout"/>
                  </use>
                  <path fill="none" stroke="white" stroke-width="1.5" d="M0,-3.0v7 M-2.5,-0.5L0,-3.0L2.5,-0.5"/>
                </g>
        </g>
        <svg viewBox="0 0 15 15" width="100%" height="30px" preserveAspectRatio="xMaxYMin meet">
         <g id="arrow_out" transform="scale(0.3 0.3)">
          <a xlink:href="steppower_8h__incl_org.svg" target="_base">
           <rect id="button" ry="5" rx="5" y="6" x="6" height="38" width="38"
                fill="#f2f5e9" fill-opacity="0.5" stroke="#606060" stroke-width="1.0"/>
           <path id="arrow"
             d="M 11.500037,31.436501 C 11.940474,20.09759 22.043105,11.32322 32.158766,21.979434 L 37.068811,17.246167 C 37.068811,17.246167 37.088388,32 37.088388,32 L 22.160133,31.978069 C 22.160133,31.978069 26.997745,27.140456 26.997745,27.140456 C 18.528582,18.264221 13.291696,25.230495 11.500037,31.436501 z"
             style="fill:#404040;"/>
          </a>
         </g>
        </svg>
</svg>
