<?xml version="1.0" encoding="UTF-8" standalone="no"?>
<!DOCTYPE svg PUBLIC "-//W3C//DTD SVG 1.1//EN"
 "http://www.w3.org/Graphics/SVG/1.1/DTD/svg11.dtd">
<!-- Generated by graphviz version 2.43.0 (0)
 -->
<!-- Title: EXPLO Pages: 1 -->
<svg width="56pt" height="308pt"
 viewBox="0.00 0.00 56.00 308.00" xmlns="http://www.w3.org/2000/svg" xmlns:xlink="http://www.w3.org/1999/xlink">
<g id="graph0" class="graph" transform="scale(1 1) rotate(0) translate(4 304)">
<title>EXPLO</title>
<polygon fill="white" stroke="transparent" points="-4,4 -4,-304 52,-304 52,4 -4,4"/>
<!-- Node1 -->
<g id="node1" class="node">
<title>Node1</title>
<g id="a_node1"><a xlink:title=" ">
<polygon fill="#bfbfbf" stroke="black" points="0,-56.5 0,-75.5 48,-75.5 48,-56.5 0,-56.5"/>
<text text-anchor="middle" x="24" y="-63.5" font-family="Helvetica,sans-Serif" font-size="10.00">EXPLO</text>
</a>
</g>
</g>
<!-- Node6 -->
<g id="node6" class="node">
<title>Node6</title>
<g id="a_node6"><a xlink:href="structEXPLS.html" target="_top" xlink:title=" ">
<polygon fill="white" stroke="black" points="0.5,-0.5 0.5,-19.5 47.5,-19.5 47.5,-0.5 0.5,-0.5"/>
<text text-anchor="middle" x="24" y="-7.5" font-family="Helvetica,sans-Serif" font-size="10.00">EXPLS</text>
</a>
</g>
</g>
<!-- Node1&#45;&gt;Node6 -->
<g id="edge5" class="edge">
<title>Node1&#45;&gt;Node6</title>
<path fill="none" stroke="midnightblue" d="M24,-45.8C24,-36.91 24,-26.78 24,-19.75"/>
<polygon fill="midnightblue" stroke="midnightblue" points="20.5,-46.08 24,-56.08 27.5,-46.08 20.5,-46.08"/>
</g>
<!-- Node2 -->
<g id="node2" class="node">
<title>Node2</title>
<g id="a_node2"><a xlink:href="structEXPL.html" target="_top" xlink:title=" ">
<polygon fill="white" stroke="black" points="3.5,-112.5 3.5,-131.5 44.5,-131.5 44.5,-112.5 3.5,-112.5"/>
<text text-anchor="middle" x="24" y="-119.5" font-family="Helvetica,sans-Serif" font-size="10.00">EXPL</text>
</a>
</g>
</g>
<!-- Node2&#45;&gt;Node1 -->
<g id="edge1" class="edge">
<title>Node2&#45;&gt;Node1</title>
<path fill="none" stroke="midnightblue" d="M24,-101.8C24,-92.91 24,-82.78 24,-75.75"/>
<polygon fill="midnightblue" stroke="midnightblue" points="20.5,-102.08 24,-112.08 27.5,-102.08 20.5,-102.08"/>
</g>
<!-- Node3 -->
<g id="node3" class="node">
<title>Node3</title>
<g id="a_node3"><a xlink:href="structXFM.html" target="_top" xlink:title="Transform.">
<polygon fill="white" stroke="black" points="5,-168.5 5,-187.5 43,-187.5 43,-168.5 5,-168.5"/>
<text text-anchor="middle" x="24" y="-175.5" font-family="Helvetica,sans-Serif" font-size="10.00">XFM</text>
</a>
</g>
</g>
<!-- Node3&#45;&gt;Node2 -->
<g id="edge2" class="edge">
<title>Node3&#45;&gt;Node2</title>
<path fill="none" stroke="midnightblue" d="M24,-157.8C24,-148.91 24,-138.78 24,-131.75"/>
<polygon fill="midnightblue" stroke="midnightblue" points="20.5,-158.08 24,-168.08 27.5,-158.08 20.5,-158.08"/>
</g>
<!-- Node4 -->
<g id="node4" class="node">
<title>Node4</title>
<g id="a_node4"><a xlink:href="structLO.html" target="_top" xlink:title="&quot;LO&quot;">
<polygon fill="white" stroke="black" points="9.5,-224.5 9.5,-243.5 38.5,-243.5 38.5,-224.5 9.5,-224.5"/>
<text text-anchor="middle" x="24" y="-231.5" font-family="Helvetica,sans-Serif" font-size="10.00">LO</text>
</a>
</g>
</g>
<!-- Node4&#45;&gt;Node3 -->
<g id="edge3" class="edge">
<title>Node4&#45;&gt;Node3</title>
<path fill="none" stroke="midnightblue" d="M24,-213.8C24,-204.91 24,-194.78 24,-187.75"/>
<polygon fill="midnightblue" stroke="midnightblue" points="20.5,-214.08 24,-224.08 27.5,-214.08 20.5,-214.08"/>
</g>
<!-- Node5 -->
<g id="node5" class="node">
<title>Node5</title>
<g id="a_node5"><a xlink:href="structBASIC.html" target="_top" xlink:title="Basic object.">
<polygon fill="white" stroke="black" points="1,-280.5 1,-299.5 47,-299.5 47,-280.5 1,-280.5"/>
<text text-anchor="middle" x="24" y="-287.5" font-family="Helvetica,sans-Serif" font-size="10.00">BASIC</text>
</a>
</g>
</g>
<!-- Node5&#45;&gt;Node4 -->
<g id="edge4" class="edge">
<title>Node5&#45;&gt;Node4</title>
<path fill="none" stroke="midnightblue" d="M24,-269.8C24,-260.91 24,-250.78 24,-243.75"/>
<polygon fill="midnightblue" stroke="midnightblue" points="20.5,-270.08 24,-280.08 27.5,-270.08 20.5,-270.08"/>
</g>
</g>
</svg>
