<?xml version="1.0" encoding="UTF-8" standalone="no"?>
<!DOCTYPE svg PUBLIC "-//W3C//DTD SVG 1.1//EN"
 "http://www.w3.org/Graphics/SVG/1.1/DTD/svg11.dtd">
<!-- Generated by graphviz version 2.43.0 (0)
 -->
<!-- Title: PROXY Pages: 1 -->
<svg width="58pt" height="192pt"
 viewBox="0.00 0.00 58.00 192.00" xmlns="http://www.w3.org/2000/svg" xmlns:xlink="http://www.w3.org/1999/xlink">
<g id="graph0" class="graph" transform="scale(1 1) rotate(0) translate(4 188)">
<title>PROXY</title>
<!-- Node1 -->
<g id="Node000001" class="node">
<title>Node1</title>
<g id="a_Node000001"><a xlink:title="Unknown.">
<polygon fill="#999999" stroke="#666666" points="50,-19 0,-19 0,0 50,0 50,-19"/>
<text text-anchor="middle" x="25" y="-7" font-family="Helvetica,sans-Serif" font-size="10.00">PROXY</text>
</a>
</g>
</g>
<!-- Node2 -->
<g id="Node000002" class="node">
<title>Node2</title>
<g id="a_Node000002"><a xlink:href="structALO.html" target="_top" xlink:title=" ">
<polygon fill="white" stroke="#666666" points="43,-74 7,-74 7,-55 43,-55 43,-74"/>
<text text-anchor="middle" x="25" y="-62" font-family="Helvetica,sans-Serif" font-size="10.00">ALO</text>
</a>
</g>
</g>
<!-- Node2&#45;&gt;Node1 -->
<g id="edge1_Node000001_Node000002" class="edge">
<title>Node2&#45;&gt;Node1</title>
<g id="a_edge1_Node000001_Node000002"><a xlink:title=" ">
<path fill="none" stroke="#63b8ff" d="M25,-44.66C25,-35.93 25,-25.99 25,-19.09"/>
<polygon fill="#63b8ff" stroke="#63b8ff" points="21.5,-44.75 25,-54.75 28.5,-44.75 21.5,-44.75"/>
</a>
</g>
</g>
<!-- Node3 -->
<g id="Node000003" class="node">
<title>Node3</title>
<g id="a_Node000003"><a xlink:href="structLO.html" target="_top" xlink:title="Live Object, base class for all objects that exist in the world.">
<polygon fill="white" stroke="#666666" points="39.5,-129 10.5,-129 10.5,-110 39.5,-110 39.5,-129"/>
<text text-anchor="middle" x="25" y="-117" font-family="Helvetica,sans-Serif" font-size="10.00">LO</text>
</a>
</g>
</g>
<!-- Node3&#45;&gt;Node2 -->
<g id="edge2_Node000002_Node000003" class="edge">
<title>Node3&#45;&gt;Node2</title>
<g id="a_edge2_Node000002_Node000003"><a xlink:title=" ">
<path fill="none" stroke="#63b8ff" d="M25,-99.66C25,-90.93 25,-80.99 25,-74.09"/>
<polygon fill="#63b8ff" stroke="#63b8ff" points="21.5,-99.75 25,-109.75 28.5,-99.75 21.5,-99.75"/>
</a>
</g>
</g>
<!-- Node4 -->
<g id="Node000004" class="node">
<title>Node4</title>
<g id="a_Node000004"><a xlink:href="structBASIC.html" target="_top" xlink:title="Base object for most other kinds of objects.">
<polygon fill="white" stroke="#666666" points="48,-184 2,-184 2,-165 48,-165 48,-184"/>
<text text-anchor="middle" x="25" y="-172" font-family="Helvetica,sans-Serif" font-size="10.00">BASIC</text>
</a>
</g>
</g>
<!-- Node4&#45;&gt;Node3 -->
<g id="edge3_Node000003_Node000004" class="edge">
<title>Node4&#45;&gt;Node3</title>
<g id="a_edge3_Node000003_Node000004"><a xlink:title=" ">
<path fill="none" stroke="#63b8ff" d="M25,-154.66C25,-145.93 25,-135.99 25,-129.09"/>
<polygon fill="#63b8ff" stroke="#63b8ff" points="21.5,-154.75 25,-164.75 28.5,-154.75 21.5,-154.75"/>
</a>
</g>
</g>
</g>
</svg>
