<?xml version="1.0" encoding="UTF-8" standalone="no"?>
<!DOCTYPE svg PUBLIC "-//W3C//DTD SVG 1.1//EN"
 "http://www.w3.org/Graphics/SVG/1.1/DTD/svg11.dtd">
<!-- Generated by graphviz version 2.43.0 (0)
 -->
<!-- Title: XFM Pages: 1 -->
<svg width="277pt" height="308pt"
 viewBox="0.00 0.00 276.50 308.00" xmlns="http://www.w3.org/2000/svg" xmlns:xlink="http://www.w3.org/1999/xlink">
<g id="graph0" class="graph" transform="scale(1 1) rotate(0) translate(4 304)">
<title>XFM</title>
<polygon fill="white" stroke="transparent" points="-4,4 -4,-304 272.5,-304 272.5,4 -4,4"/>
<!-- Node1 -->
<g id="node1" class="node">
<title>Node1</title>
<g id="a_node1"><a xlink:title="Transform.">
<polygon fill="#bfbfbf" stroke="black" points="136,-168.5 136,-187.5 174,-187.5 174,-168.5 136,-168.5"/>
<text text-anchor="middle" x="155" y="-175.5" font-family="Helvetica,sans-Serif" font-size="10.00">XFM</text>
</a>
</g>
</g>
<!-- Node4 -->
<g id="node4" class="node">
<title>Node4</title>
<g id="a_node4"><a xlink:href="structEXPL.html" target="_top" xlink:title=" ">
<polygon fill="white" stroke="black" points="36.5,-112.5 36.5,-131.5 77.5,-131.5 77.5,-112.5 36.5,-112.5"/>
<text text-anchor="middle" x="57" y="-119.5" font-family="Helvetica,sans-Serif" font-size="10.00">EXPL</text>
</a>
</g>
</g>
<!-- Node1&#45;&gt;Node4 -->
<g id="edge3" class="edge">
<title>Node1&#45;&gt;Node4</title>
<path fill="none" stroke="midnightblue" d="M130.41,-163.45C112.32,-153.48 88.27,-140.23 72.71,-131.65"/>
<polygon fill="midnightblue" stroke="midnightblue" points="128.81,-166.56 139.25,-168.32 132.19,-160.43 128.81,-166.56"/>
</g>
<!-- Node8 -->
<g id="node8" class="node">
<title>Node8</title>
<g id="a_node8"><a xlink:href="structTARGET.html" target="_top" xlink:title="Target.">
<polygon fill="white" stroke="black" points="95.5,-112.5 95.5,-131.5 150.5,-131.5 150.5,-112.5 95.5,-112.5"/>
<text text-anchor="middle" x="123" y="-119.5" font-family="Helvetica,sans-Serif" font-size="10.00">TARGET</text>
</a>
</g>
</g>
<!-- Node1&#45;&gt;Node8 -->
<g id="edge7" class="edge">
<title>Node1&#45;&gt;Node8</title>
<path fill="none" stroke="midnightblue" d="M144.5,-159.27C139.03,-150.05 132.58,-139.17 128.19,-131.75"/>
<polygon fill="midnightblue" stroke="midnightblue" points="141.61,-161.26 149.72,-168.08 147.63,-157.7 141.61,-161.26"/>
</g>
<!-- Node9 -->
<g id="node9" class="node">
<title>Node9</title>
<g id="a_node9"><a xlink:href="structVOL.html" target="_top" xlink:title=" ">
<polygon fill="white" stroke="black" points="169,-112.5 169,-131.5 205,-131.5 205,-112.5 169,-112.5"/>
<text text-anchor="middle" x="187" y="-119.5" font-family="Helvetica,sans-Serif" font-size="10.00">VOL</text>
</a>
</g>
</g>
<!-- Node1&#45;&gt;Node9 -->
<g id="edge8" class="edge">
<title>Node1&#45;&gt;Node9</title>
<path fill="none" stroke="midnightblue" d="M165.5,-159.27C170.97,-150.05 177.42,-139.17 181.81,-131.75"/>
<polygon fill="midnightblue" stroke="midnightblue" points="162.37,-157.7 160.28,-168.08 168.39,-161.26 162.37,-157.7"/>
</g>
<!-- Node10 -->
<g id="node10" class="node">
<title>Node10</title>
<g id="a_node10"><a xlink:href="structWARP.html" target="_top" xlink:title="Warp.">
<polygon fill="white" stroke="black" points="223.5,-112.5 223.5,-131.5 268.5,-131.5 268.5,-112.5 223.5,-112.5"/>
<text text-anchor="middle" x="246" y="-119.5" font-family="Helvetica,sans-Serif" font-size="10.00">WARP</text>
</a>
</g>
</g>
<!-- Node1&#45;&gt;Node10 -->
<g id="edge9" class="edge">
<title>Node1&#45;&gt;Node10</title>
<path fill="none" stroke="midnightblue" d="M178.29,-163.18C195.04,-153.24 217.1,-140.15 231.42,-131.65"/>
<polygon fill="midnightblue" stroke="midnightblue" points="176.43,-160.21 169.62,-168.32 180.01,-166.23 176.43,-160.21"/>
</g>
<!-- Node2 -->
<g id="node2" class="node">
<title>Node2</title>
<g id="a_node2"><a xlink:href="structLO.html" target="_top" xlink:title="&quot;LO&quot;">
<polygon fill="white" stroke="black" points="140.5,-224.5 140.5,-243.5 169.5,-243.5 169.5,-224.5 140.5,-224.5"/>
<text text-anchor="middle" x="155" y="-231.5" font-family="Helvetica,sans-Serif" font-size="10.00">LO</text>
</a>
</g>
</g>
<!-- Node2&#45;&gt;Node1 -->
<g id="edge1" class="edge">
<title>Node2&#45;&gt;Node1</title>
<path fill="none" stroke="midnightblue" d="M155,-213.8C155,-204.91 155,-194.78 155,-187.75"/>
<polygon fill="midnightblue" stroke="midnightblue" points="151.5,-214.08 155,-224.08 158.5,-214.08 151.5,-214.08"/>
</g>
<!-- Node3 -->
<g id="node3" class="node">
<title>Node3</title>
<g id="a_node3"><a xlink:href="structBASIC.html" target="_top" xlink:title="Basic object.">
<polygon fill="white" stroke="black" points="132,-280.5 132,-299.5 178,-299.5 178,-280.5 132,-280.5"/>
<text text-anchor="middle" x="155" y="-287.5" font-family="Helvetica,sans-Serif" font-size="10.00">BASIC</text>
</a>
</g>
</g>
<!-- Node3&#45;&gt;Node2 -->
<g id="edge2" class="edge">
<title>Node3&#45;&gt;Node2</title>
<path fill="none" stroke="midnightblue" d="M155,-269.8C155,-260.91 155,-250.78 155,-243.75"/>
<polygon fill="midnightblue" stroke="midnightblue" points="151.5,-270.08 155,-280.08 158.5,-270.08 151.5,-270.08"/>
</g>
<!-- Node5 -->
<g id="node5" class="node">
<title>Node5</title>
<g id="a_node5"><a xlink:href="structEXPLG.html" target="_top" xlink:title=" ">
<polygon fill="white" stroke="black" points="0,-56.5 0,-75.5 48,-75.5 48,-56.5 0,-56.5"/>
<text text-anchor="middle" x="24" y="-63.5" font-family="Helvetica,sans-Serif" font-size="10.00">EXPLG</text>
</a>
</g>
</g>
<!-- Node4&#45;&gt;Node5 -->
<g id="edge4" class="edge">
<title>Node4&#45;&gt;Node5</title>
<path fill="none" stroke="midnightblue" d="M46.17,-103.27C40.53,-94.05 33.88,-83.17 29.35,-75.75"/>
<polygon fill="midnightblue" stroke="midnightblue" points="43.35,-105.38 51.55,-112.08 49.32,-101.73 43.35,-105.38"/>
</g>
<!-- Node6 -->
<g id="node6" class="node">
<title>Node6</title>
<g id="a_node6"><a xlink:href="structEXPLO.html" target="_top" xlink:title=" ">
<polygon fill="white" stroke="black" points="66,-56.5 66,-75.5 114,-75.5 114,-56.5 66,-56.5"/>
<text text-anchor="middle" x="90" y="-63.5" font-family="Helvetica,sans-Serif" font-size="10.00">EXPLO</text>
</a>
</g>
</g>
<!-- Node4&#45;&gt;Node6 -->
<g id="edge5" class="edge">
<title>Node4&#45;&gt;Node6</title>
<path fill="none" stroke="midnightblue" d="M67.83,-103.27C73.47,-94.05 80.12,-83.17 84.65,-75.75"/>
<polygon fill="midnightblue" stroke="midnightblue" points="64.68,-101.73 62.45,-112.08 70.65,-105.38 64.68,-101.73"/>
</g>
<!-- Node7 -->
<g id="node7" class="node">
<title>Node7</title>
<g id="a_node7"><a xlink:href="structEXPLS.html" target="_top" xlink:title=" ">
<polygon fill="white" stroke="black" points="66.5,-0.5 66.5,-19.5 113.5,-19.5 113.5,-0.5 66.5,-0.5"/>
<text text-anchor="middle" x="90" y="-7.5" font-family="Helvetica,sans-Serif" font-size="10.00">EXPLS</text>
</a>
</g>
</g>
<!-- Node6&#45;&gt;Node7 -->
<g id="edge6" class="edge">
<title>Node6&#45;&gt;Node7</title>
<path fill="none" stroke="midnightblue" d="M90,-45.8C90,-36.91 90,-26.78 90,-19.75"/>
<polygon fill="midnightblue" stroke="midnightblue" points="86.5,-46.08 90,-56.08 93.5,-46.08 86.5,-46.08"/>
</g>
</g>
</svg>
