<?xml version="1.0" encoding="UTF-8" standalone="no"?>
<!DOCTYPE svg PUBLIC "-//W3C//DTD SVG 1.1//EN"
 "http://www.w3.org/Graphics/SVG/1.1/DTD/svg11.dtd">
<!-- Generated by graphviz version 2.43.0 (0)
 -->
<!-- Title: BASIC Pages: 1 -->
<!--zoomable 1368 -->

<svg id="main" version="1.1" xmlns="http://www.w3.org/2000/svg" xmlns:xlink="http://www.w3.org/1999/xlink" xml:space="preserve" onload="init(evt)">
<style type="text/css"><![CDATA[
.node, .edge {opacity: 0.7;}
.node.selected, .edge.selected {opacity: 1;}
.edge:hover path { stroke: red; }
.edge:hover polygon { stroke: red; fill: red; }
]]></style>

<defs>
  <circle id="rim" cx="0" cy="0" r="7"/>
  <circle id="rim2" cx="0" cy="0" r="3.5"/>
  <g id="zoomPlus">
    <use xlink:href="#rim" fill="#404040"><set attributeName="fill" to="#808080" begin="zoomplus.mouseover" end="zoomplus.mouseout"/></use>
    <path d="M-4,0h8M0,-4v8" fill="none" stroke="white" stroke-width="1.5" pointer-events="none"/>
  </g>
  <g id="zoomMin">
    <use xlink:href="#rim" fill="#404040"><set attributeName="fill" to="#808080" begin="zoomminus.mouseover" end="zoomminus.mouseout"/></use>
    <path d="M-4,0h8" fill="none" stroke="white" stroke-width="1.5" pointer-events="none"/>
  </g>
  <g id="arrowUp" transform="translate(30 24)">
    <use xlink:href="#rim"/>
    <path pointer-events="none" fill="none" stroke="white" stroke-width="1.5" d="M0,-3.0v7 M-2.5,-0.5L0,-3.0L2.5,-0.5"/>
  </g>
  <g id="arrowRight" transform="rotate(90) translate(36 -43)">
    <use xlink:href="#rim"/>
    <path pointer-events="none" fill="none" stroke="white" stroke-width="1.5" d="M0,-3.0v7 M-2.5,-0.5L0,-3.0L2.5,-0.5"/>
  </g>
  <g id="arrowDown" transform="rotate(180) translate(-30 -48)">
    <use xlink:href="#rim"/>
    <path pointer-events="none" fill="none" stroke="white" stroke-width="1.5" d="M0,-3.0v7 M-2.5,-0.5L0,-3.0L2.5,-0.5"/>
  </g>
  <g id="arrowLeft" transform="rotate(270) translate(-36 17)">
    <use xlink:href="#rim"/>
    <path pointer-events="none" fill="none" stroke="white" stroke-width="1.5" d="M0,-3.0v7 M-2.5,-0.5L0,-3.0L2.5,-0.5"/>
  </g>
  <g id="resetDef">
    <use xlink:href="#rim2" fill="#404040"><set attributeName="fill" to="#808080" begin="reset.mouseover" end="reset.mouseout"/></use>
  </g>
</defs>
<script type="application/ecmascript">
var viewWidth = 342;
var viewHeight = 1368;
var sectionId = 'dynsection-0';
</script>
<script type="application/ecmascript" xlink:href="svg.min.js"/>
<svg id="graph" class="graph">
<g id="viewport">
<title>BASIC</title>
<!-- Node1 -->
<g id="Node000001" class="node">
<title>Node1</title>
<g id="a_Node000001"><a xlink:title="Base object for most other kinds of objects.">
<polygon fill="#999999" stroke="#666666" points="46,-333 0,-333 0,-314 46,-314 46,-333"/>
<text text-anchor="middle" x="23" y="-321" font-family="Helvetica,sans-Serif" font-size="10.00">BASIC</text>
</a>
</g>
</g>
<!-- Node2 -->
<g id="Node000002" class="node">
<title>Node2</title>
<g id="a_Node000002"><a xlink:href="structASEGA.html" target="_top" xlink:title=" ">
<polygon fill="white" stroke="#666666" points="132,-370 82,-370 82,-351 132,-351 132,-370"/>
<text text-anchor="middle" x="107" y="-358" font-family="Helvetica,sans-Serif" font-size="10.00">ASEGA</text>
</a>
</g>
</g>
<!-- Node1&#45;&gt;Node2 -->
<g id="edge1_Node000001_Node000002" class="edge">
<title>Node1&#45;&gt;Node2</title>
<g id="a_edge1_Node000001_Node000002"><a xlink:title=" ">
<path fill="none" stroke="#63b8ff" d="M54.4,-337.22C64.46,-341.76 75.44,-346.71 84.67,-350.88"/>
<polygon fill="#63b8ff" stroke="#63b8ff" points="55.67,-333.95 45.12,-333.03 52.79,-340.33 55.67,-333.95"/>
</a>
</g>
</g>
<!-- Node3 -->
<g id="Node000003" class="node">
<title>Node3</title>
<g id="a_Node000003"><a xlink:href="structLO.html" target="_top" xlink:title="Live Object, base class for all objects that exist in the world.">
<polygon fill="white" stroke="#666666" points="121.5,-333 92.5,-333 92.5,-314 121.5,-314 121.5,-333"/>
<text text-anchor="middle" x="107" y="-321" font-family="Helvetica,sans-Serif" font-size="10.00">LO</text>
</a>
</g>
</g>
<!-- Node1&#45;&gt;Node3 -->
<g id="edge2_Node000001_Node000003" class="edge">
<title>Node1&#45;&gt;Node3</title>
<g id="a_edge2_Node000001_Node000003"><a xlink:title=" ">
<path fill="none" stroke="#63b8ff" d="M56.46,-323.5C68.86,-323.5 82.35,-323.5 92.11,-323.5"/>
<polygon fill="#63b8ff" stroke="#63b8ff" points="56.41,-320 46.41,-323.5 56.41,-327 56.41,-320"/>
</a>
</g>
</g>
<!-- Node123 -->
<g id="Node000123" class="node">
<title>Node123</title>
<g id="a_Node000123"><a xlink:href="structSMA.html" target="_top" xlink:title=" ">
<polygon fill="white" stroke="#666666" points="126,-296 88,-296 88,-277 126,-277 126,-296"/>
<text text-anchor="middle" x="107" y="-284" font-family="Helvetica,sans-Serif" font-size="10.00">SMA</text>
</a>
</g>
</g>
<!-- Node1&#45;&gt;Node123 -->
<g id="edge48_Node000001_Node000123" class="edge">
<title>Node1&#45;&gt;Node123</title>
<g id="a_edge48_Node000001_Node000123"><a xlink:title=" ">
<path fill="none" stroke="#63b8ff" d="M54.55,-309.72C65.71,-304.68 77.98,-299.14 87.74,-294.74"/>
<polygon fill="#63b8ff" stroke="#63b8ff" points="52.79,-306.67 45.12,-313.97 55.67,-313.05 52.79,-306.67"/>
</a>
</g>
</g>
<!-- Node4 -->
<g id="Node000004" class="node">
<title>Node4</title>
<g id="a_Node000004"><a xlink:href="structALO.html" target="_top" xlink:title=" ">
<polygon fill="white" stroke="#666666" points="217,-953 181,-953 181,-934 217,-934 217,-953"/>
<text text-anchor="middle" x="199" y="-941" font-family="Helvetica,sans-Serif" font-size="10.00">ALO</text>
</a>
</g>
</g>
<!-- Node3&#45;&gt;Node4 -->
<g id="edge3_Node000003_Node000004" class="edge">
<title>Node3&#45;&gt;Node4</title>
<g id="a_edge3_Node000003_Node000004"><a xlink:title=" ">
<path fill="none" stroke="#63b8ff" d="M128.97,-338.14C130.12,-339.51 131.15,-340.97 132,-342.5 146.99,-369.6 190.43,-857.5 197.13,-933.56"/>
<polygon fill="#63b8ff" stroke="#63b8ff" points="131.24,-335.47 121.51,-331.26 126.49,-340.61 131.24,-335.47"/>
</a>
</g>
</g>
<!-- Node90 -->
<g id="Node000090" class="node">
<title>Node90</title>
<g id="a_Node000090"><a xlink:href="structASEG.html" target="_top" xlink:title=" ">
<polygon fill="white" stroke="#666666" points="220.5,-611 177.5,-611 177.5,-592 220.5,-592 220.5,-611"/>
<text text-anchor="middle" x="199" y="-599" font-family="Helvetica,sans-Serif" font-size="10.00">ASEG</text>
</a>
</g>
</g>
<!-- Node3&#45;&gt;Node90 -->
<g id="edge26_Node000003_Node000090" class="edge">
<title>Node3&#45;&gt;Node90</title>
<g id="a_edge26_Node000003_Node000090"><a xlink:title=" ">
<path fill="none" stroke="#63b8ff" d="M129.29,-338.63C130.3,-339.86 131.22,-341.15 132,-342.5 186.25,-436.23 107.81,-493.47 168,-583.5 170.36,-587.03 173.68,-589.98 177.24,-592.4"/>
<polygon fill="#63b8ff" stroke="#63b8ff" points="131.36,-335.78 121.66,-331.5 126.58,-340.89 131.36,-335.78"/>
</a>
</g>
</g>
<!-- Node92 -->
<g id="Node000092" class="node">
<title>Node92</title>
<g id="a_Node000092"><a xlink:href="structCM.html" target="_top" xlink:title=" ">
<polygon fill="white" stroke="#666666" points="215,-574 183,-574 183,-555 215,-555 215,-574"/>
<text text-anchor="middle" x="199" y="-562" font-family="Helvetica,sans-Serif" font-size="10.00">CM</text>
</a>
</g>
</g>
<!-- Node3&#45;&gt;Node92 -->
<g id="edge28_Node000003_Node000092" class="edge">
<title>Node3&#45;&gt;Node92</title>
<g id="a_edge28_Node000003_Node000092"><a xlink:title=" ">
<path fill="none" stroke="#63b8ff" d="M129.24,-338.66C130.27,-339.88 131.2,-341.16 132,-342.5 179.17,-421.57 115.82,-470.64 168,-546.5 171.65,-551.8 177.42,-555.8 182.93,-558.67"/>
<polygon fill="#63b8ff" stroke="#63b8ff" points="131.3,-335.79 121.59,-331.54 126.53,-340.91 131.3,-335.79"/>
</a>
</g>
</g>
<!-- Node93 -->
<g id="Node000093" class="node">
<title>Node93</title>
<g id="a_Node000093"><a xlink:href="structFRZG.html" target="_top" xlink:title=" ">
<polygon fill="white" stroke="#666666" points="221,-537 177,-537 177,-518 221,-518 221,-537"/>
<text text-anchor="middle" x="199" y="-525" font-family="Helvetica,sans-Serif" font-size="10.00">FRZG</text>
</a>
</g>
</g>
<!-- Node3&#45;&gt;Node93 -->
<g id="edge29_Node000003_Node000093" class="edge">
<title>Node3&#45;&gt;Node93</title>
<g id="a_edge29_Node000003_Node000093"><a xlink:title=" ">
<path fill="none" stroke="#63b8ff" d="M129.25,-338.77C130.26,-339.96 131.19,-341.2 132,-342.5 172.12,-406.96 123.8,-447.76 168,-509.5 170.33,-512.76 173.46,-515.53 176.81,-517.86"/>
<polygon fill="#63b8ff" stroke="#63b8ff" points="131.45,-336.04 121.75,-331.79 126.69,-341.16 131.45,-336.04"/>
</a>
</g>
</g>
<!-- Node94 -->
<g id="Node000094" class="node">
<title>Node94</title>
<g id="a_Node000094"><a xlink:href="structJSG.html" target="_top" xlink:title=" ">
<polygon fill="white" stroke="#666666" points="215.5,-500 182.5,-500 182.5,-481 215.5,-481 215.5,-500"/>
<text text-anchor="middle" x="199" y="-488" font-family="Helvetica,sans-Serif" font-size="10.00">JSG</text>
</a>
</g>
</g>
<!-- Node3&#45;&gt;Node94 -->
<g id="edge30_Node000003_Node000094" class="edge">
<title>Node3&#45;&gt;Node94</title>
<g id="a_edge30_Node000003_Node000094"><a xlink:title=" ">
<path fill="none" stroke="#63b8ff" d="M129.16,-338.82C130.2,-340 131.16,-341.23 132,-342.5 165.14,-392.46 131.71,-424.78 168,-472.5 171.68,-477.33 177.06,-481.14 182.25,-483.98"/>
<polygon fill="#63b8ff" stroke="#63b8ff" points="131.34,-336.07 121.6,-331.89 126.6,-341.23 131.34,-336.07"/>
</a>
</g>
</g>
<!-- Node95 -->
<g id="Node000095" class="node">
<title>Node95</title>
<g id="a_Node000095"><a xlink:href="structKEYHOLE.html" target="_top" xlink:title="Spot where keys are inserted into locks?">
<polygon fill="white" stroke="#666666" points="230,-463 168,-463 168,-444 230,-444 230,-463"/>
<text text-anchor="middle" x="199" y="-451" font-family="Helvetica,sans-Serif" font-size="10.00">KEYHOLE</text>
</a>
</g>
</g>
<!-- Node3&#45;&gt;Node95 -->
<g id="edge31_Node000003_Node000095" class="edge">
<title>Node3&#45;&gt;Node95</title>
<g id="a_edge31_Node000003_Node000095"><a xlink:title=" ">
<path fill="none" stroke="#63b8ff" d="M129.46,-339.41C130.37,-340.41 131.22,-341.44 132,-342.5 158.3,-378.18 139.45,-401.6 168,-435.5 170.74,-438.75 174.22,-441.57 177.84,-443.95"/>
<polygon fill="#63b8ff" stroke="#63b8ff" points="131.59,-336.62 121.86,-332.44 126.87,-341.78 131.59,-336.62"/>
</a>
</g>
</g>
<!-- Node96 -->
<g id="Node000096" class="node">
<title>Node96</title>
<g id="a_Node000096"><a xlink:href="structPIPE.html" target="_top" xlink:title="Pipe that JT can climb on.">
<polygon fill="white" stroke="#666666" points="218,-426 180,-426 180,-407 218,-407 218,-426"/>
<text text-anchor="middle" x="199" y="-414" font-family="Helvetica,sans-Serif" font-size="10.00">PIPE</text>
</a>
</g>
</g>
<!-- Node3&#45;&gt;Node96 -->
<g id="edge32_Node000003_Node000096" class="edge">
<title>Node3&#45;&gt;Node96</title>
<g id="a_edge32_Node000003_Node000096"><a xlink:title=" ">
<path fill="none" stroke="#63b8ff" d="M129.65,-340.05C130.46,-340.85 131.25,-341.67 132,-342.5 151.87,-364.42 146.76,-377.9 168,-398.5 171.49,-401.88 175.73,-404.91 179.9,-407.47"/>
<polygon fill="#63b8ff" stroke="#63b8ff" points="131.71,-337.2 121.88,-333.23 127.09,-342.46 131.71,-337.2"/>
</a>
</g>
</g>
<!-- Node97 -->
<g id="Node000097" class="node">
<title>Node97</title>
<g id="a_Node000097"><a xlink:href="structPNT.html" target="_top" xlink:title=" ">
<polygon fill="#fff0f0" stroke="red" points="217,-389 181,-389 181,-370 217,-370 217,-389"/>
<text text-anchor="middle" x="199" y="-377" font-family="Helvetica,sans-Serif" font-size="10.00">PNT</text>
</a>
</g>
</g>
<!-- Node3&#45;&gt;Node97 -->
<g id="edge33_Node000003_Node000097" class="edge">
<title>Node3&#45;&gt;Node97</title>
<g id="a_edge33_Node000003_Node000097"><a xlink:title=" ">
<path fill="none" stroke="#63b8ff" d="M130.5,-337.93C141.73,-345.08 155.54,-353.82 168,-361.5 172.45,-364.24 177.29,-367.17 181.76,-369.86"/>
<polygon fill="#63b8ff" stroke="#63b8ff" points="132.07,-334.78 121.76,-332.35 128.31,-340.68 132.07,-334.78"/>
</a>
</g>
</g>
<!-- Node103 -->
<g id="Node000103" class="node">
<title>Node103</title>
<g id="a_Node000103"><a xlink:href="structRATHOLE.html" target="_top" xlink:title="Hole where rats come from/go to.">
<polygon fill="white" stroke="#666666" points="230,-352 168,-352 168,-333 230,-333 230,-352"/>
<text text-anchor="middle" x="199" y="-340" font-family="Helvetica,sans-Serif" font-size="10.00">RATHOLE</text>
</a>
</g>
</g>
<!-- Node3&#45;&gt;Node103 -->
<g id="edge38_Node000003_Node000103" class="edge">
<title>Node3&#45;&gt;Node103</title>
<g id="a_edge38_Node000003_Node000103"><a xlink:title=" ">
<path fill="none" stroke="#63b8ff" d="M131.48,-328.46C142.57,-330.8 155.94,-333.62 167.77,-336.12"/>
<polygon fill="#63b8ff" stroke="#63b8ff" points="132.18,-325.03 121.67,-326.39 130.73,-331.88 132.18,-325.03"/>
</a>
</g>
</g>
<!-- Node104 -->
<g id="Node000104" class="node">
<title>Node104</title>
<g id="a_Node000104"><a xlink:href="structRCHM.html" target="_top" xlink:title=" ">
<polygon fill="white" stroke="#666666" points="222.5,-315 175.5,-315 175.5,-296 222.5,-296 222.5,-315"/>
<text text-anchor="middle" x="199" y="-303" font-family="Helvetica,sans-Serif" font-size="10.00">RCHM</text>
</a>
</g>
</g>
<!-- Node3&#45;&gt;Node104 -->
<g id="edge39_Node000003_Node000104" class="edge">
<title>Node3&#45;&gt;Node104</title>
<g id="a_edge39_Node000003_Node000104"><a xlink:title=" ">
<path fill="none" stroke="#63b8ff" d="M131.67,-318.77C145.21,-316.06 162.09,-312.68 175.44,-310.01"/>
<polygon fill="#63b8ff" stroke="#63b8ff" points="130.79,-315.37 121.67,-320.77 132.16,-322.24 130.79,-315.37"/>
</a>
</g>
</g>
<!-- Node105 -->
<g id="Node000105" class="node">
<title>Node105</title>
<g id="a_Node000105"><a xlink:href="structRWM.html" target="_top" xlink:title=" ">
<polygon fill="white" stroke="#666666" points="220,-278 178,-278 178,-259 220,-259 220,-278"/>
<text text-anchor="middle" x="199" y="-266" font-family="Helvetica,sans-Serif" font-size="10.00">RWM</text>
</a>
</g>
</g>
<!-- Node3&#45;&gt;Node105 -->
<g id="edge40_Node000003_Node000105" class="edge">
<title>Node3&#45;&gt;Node105</title>
<g id="a_edge40_Node000003_Node000105"><a xlink:title=" ">
<path fill="none" stroke="#63b8ff" d="M130.54,-309.51C141.78,-302.56 155.58,-294.05 168,-286.5 172.46,-283.79 177.31,-280.86 181.79,-278.18"/>
<polygon fill="#63b8ff" stroke="#63b8ff" points="128.45,-306.69 121.79,-314.93 132.14,-312.64 128.45,-306.69"/>
</a>
</g>
</g>
<!-- Node106 -->
<g id="Node000106" class="node">
<title>Node106</title>
<g id="a_Node000106"><a xlink:href="structSGG.html" target="_top" xlink:title="Stepguard (?).">
<polygon fill="white" stroke="#666666" points="218,-241 180,-241 180,-222 218,-222 218,-241"/>
<text text-anchor="middle" x="199" y="-229" font-family="Helvetica,sans-Serif" font-size="10.00">SGG</text>
</a>
</g>
</g>
<!-- Node3&#45;&gt;Node106 -->
<g id="edge41_Node000003_Node000106" class="edge">
<title>Node3&#45;&gt;Node106</title>
<g id="a_edge41_Node000003_Node000106"><a xlink:title=" ">
<path fill="none" stroke="#63b8ff" d="M129.64,-306.95C130.46,-306.14 131.25,-305.32 132,-304.5 151.71,-282.93 146.94,-269.75 168,-249.5 171.5,-246.13 175.75,-243.11 179.92,-240.55"/>
<polygon fill="#63b8ff" stroke="#63b8ff" points="127.08,-304.53 121.87,-313.76 131.69,-309.8 127.08,-304.53"/>
</a>
</g>
</g>
<!-- Node107 -->
<g id="Node000107" class="node">
<title>Node107</title>
<g id="a_Node000107"><a xlink:href="structSHAPE.html" target="_top" xlink:title="Unknown.">
<polygon fill="#fff0f0" stroke="red" points="223.5,-204 174.5,-204 174.5,-185 223.5,-185 223.5,-204"/>
<text text-anchor="middle" x="199" y="-192" font-family="Helvetica,sans-Serif" font-size="10.00">SHAPE</text>
</a>
</g>
</g>
<!-- Node3&#45;&gt;Node107 -->
<g id="edge42_Node000003_Node000107" class="edge">
<title>Node3&#45;&gt;Node107</title>
<g id="a_edge42_Node000003_Node000107"><a xlink:title=" ">
<path fill="none" stroke="#63b8ff" d="M129.46,-307.59C130.36,-306.59 131.22,-305.56 132,-304.5 158.12,-269.21 139.66,-246.03 168,-212.5 170.74,-209.25 174.23,-206.44 177.85,-204.06"/>
<polygon fill="#63b8ff" stroke="#63b8ff" points="126.86,-305.22 121.85,-314.55 131.59,-310.38 126.86,-305.22"/>
</a>
</g>
</g>
<!-- Node110 -->
<g id="Node000110" class="node">
<title>Node110</title>
<g id="a_Node000110"><a xlink:href="structSM.html" target="_top" xlink:title=" ">
<polygon fill="white" stroke="#666666" points="215,-167 183,-167 183,-148 215,-148 215,-167"/>
<text text-anchor="middle" x="199" y="-155" font-family="Helvetica,sans-Serif" font-size="10.00">SM</text>
</a>
</g>
</g>
<!-- Node3&#45;&gt;Node110 -->
<g id="edge43_Node000003_Node000110" class="edge">
<title>Node3&#45;&gt;Node110</title>
<g id="a_edge43_Node000003_Node000110"><a xlink:title=" ">
<path fill="none" stroke="#63b8ff" d="M129.16,-308.17C130.2,-307 131.15,-305.77 132,-304.5 164.95,-254.93 131.92,-222.84 168,-175.5 171.83,-170.48 177.5,-166.56 182.88,-163.69"/>
<polygon fill="#63b8ff" stroke="#63b8ff" points="126.6,-305.77 121.6,-315.11 131.33,-310.93 126.6,-305.77"/>
</a>
</g>
</g>
<!-- Node111 -->
<g id="Node000111" class="node">
<title>Node111</title>
<g id="a_Node000111"><a xlink:href="structSW.html" target="_top" xlink:title=" ">
<polygon fill="white" stroke="#666666" points="215,-130 183,-130 183,-111 215,-111 215,-130"/>
<text text-anchor="middle" x="199" y="-118" font-family="Helvetica,sans-Serif" font-size="10.00">SW</text>
</a>
</g>
</g>
<!-- Node3&#45;&gt;Node111 -->
<g id="edge44_Node000003_Node000111" class="edge">
<title>Node3&#45;&gt;Node111</title>
<g id="a_edge44_Node000003_Node000111"><a xlink:title=" ">
<path fill="none" stroke="#63b8ff" d="M129.25,-308.23C130.26,-307.04 131.19,-305.8 132,-304.5 171.93,-240.43 124.02,-199.86 168,-138.5 171.68,-133.37 177.32,-129.43 182.72,-126.57"/>
<polygon fill="#63b8ff" stroke="#63b8ff" points="126.69,-305.83 121.74,-315.21 131.45,-310.96 126.69,-305.83"/>
</a>
</g>
</g>
<!-- Node112 -->
<g id="Node000112" class="node">
<title>Node112</title>
<g id="a_Node000112"><a xlink:href="structVISMAP.html" target="_top" xlink:title="Visibility map.">
<polygon fill="white" stroke="#666666" points="226,-93 172,-93 172,-74 226,-74 226,-93"/>
<text text-anchor="middle" x="199" y="-81" font-family="Helvetica,sans-Serif" font-size="10.00">VISMAP</text>
</a>
</g>
</g>
<!-- Node3&#45;&gt;Node112 -->
<g id="edge45_Node000003_Node000112" class="edge">
<title>Node3&#45;&gt;Node112</title>
<g id="a_edge45_Node000003_Node000112"><a xlink:title=" ">
<path fill="none" stroke="#63b8ff" d="M129.24,-308.34C130.27,-307.12 131.2,-305.84 132,-304.5 178.98,-225.83 116.04,-176.97 168,-101.5 170.27,-98.2 173.37,-95.4 176.71,-93.07"/>
<polygon fill="#63b8ff" stroke="#63b8ff" points="126.53,-306.08 121.59,-315.46 131.3,-311.21 126.53,-306.08"/>
</a>
</g>
</g>
<!-- Node113 -->
<g id="Node000113" class="node">
<title>Node113</title>
<g id="a_Node000113"><a xlink:href="structWR.html" target="_top" xlink:title=" ">
<polygon fill="white" stroke="#666666" points="215.5,-56 182.5,-56 182.5,-37 215.5,-37 215.5,-56"/>
<text text-anchor="middle" x="199" y="-44" font-family="Helvetica,sans-Serif" font-size="10.00">WR</text>
</a>
</g>
</g>
<!-- Node3&#45;&gt;Node113 -->
<g id="edge46_Node000003_Node000113" class="edge">
<title>Node3&#45;&gt;Node113</title>
<g id="a_edge46_Node000003_Node000113"><a xlink:title=" ">
<path fill="none" stroke="#63b8ff" d="M129.28,-308.37C130.3,-307.14 131.22,-305.85 132,-304.5 186.06,-211.17 108.02,-154.15 168,-64.5 171.44,-59.35 176.91,-55.45 182.23,-52.61"/>
<polygon fill="#63b8ff" stroke="#63b8ff" points="126.58,-306.11 121.66,-315.5 131.36,-311.22 126.58,-306.11"/>
</a>
</g>
</g>
<!-- Node114 -->
<g id="Node000114" class="node">
<title>Node114</title>
<g id="a_Node000114"><a xlink:href="structXFM.html" target="_top" xlink:title=" ">
<polygon fill="#fff0f0" stroke="red" points="218,-19 180,-19 180,0 218,0 218,-19"/>
<text text-anchor="middle" x="199" y="-7" font-family="Helvetica,sans-Serif" font-size="10.00">XFM</text>
</a>
</g>
</g>
<!-- Node3&#45;&gt;Node114 -->
<g id="edge47_Node000003_Node000114" class="edge">
<title>Node3&#45;&gt;Node114</title>
<g id="a_edge47_Node000003_Node000114"><a xlink:title=" ">
<path fill="none" stroke="#63b8ff" d="M129.32,-308.39C130.32,-307.16 131.23,-305.86 132,-304.5 193.17,-196.47 99.98,-131.36 168,-27.5 170.93,-23.03 175.39,-19.5 179.98,-16.8"/>
<polygon fill="#63b8ff" stroke="#63b8ff" points="126.61,-306.13 121.71,-315.53 131.4,-311.23 126.61,-306.13"/>
</a>
</g>
</g>
<!-- Node5 -->
<g id="Node000005" class="node">
<title>Node5</title>
<g id="a_Node000005"><a xlink:href="structCAMERA.html" target="_top" xlink:title="Game camera instance.">
<polygon fill="white" stroke="#666666" points="329.5,-1360 270.5,-1360 270.5,-1341 329.5,-1341 329.5,-1360"/>
<text text-anchor="middle" x="300" y="-1348" font-family="Helvetica,sans-Serif" font-size="10.00">CAMERA</text>
</a>
</g>
</g>
<!-- Node4&#45;&gt;Node5 -->
<g id="edge4_Node000004_Node000005" class="edge">
<title>Node4&#45;&gt;Node5</title>
<g id="a_edge4_Node000004_Node000005"><a xlink:title=" ">
<path fill="none" stroke="#63b8ff" d="M201.1,-963.23C205.36,-1033.69 222.75,-1271.89 266,-1332.5 268.35,-1335.79 271.5,-1338.55 274.92,-1340.83"/>
<polygon fill="#63b8ff" stroke="#63b8ff" points="204.58,-962.86 200.51,-953.09 197.6,-963.27 204.58,-962.86"/>
</a>
</g>
</g>
<!-- Node6 -->
<g id="Node000006" class="node">
<title>Node6</title>
<g id="a_Node000006"><a xlink:href="structCHKPNT.html" target="_top" xlink:title=" ">
<polygon fill="white" stroke="#666666" points="328.5,-1323 271.5,-1323 271.5,-1304 328.5,-1304 328.5,-1323"/>
<text text-anchor="middle" x="300" y="-1311" font-family="Helvetica,sans-Serif" font-size="10.00">CHKPNT</text>
</a>
</g>
</g>
<!-- Node4&#45;&gt;Node6 -->
<g id="edge5_Node000004_Node000006" class="edge">
<title>Node4&#45;&gt;Node6</title>
<g id="a_edge5_Node000004_Node000006"><a xlink:title=" ">
<path fill="none" stroke="#63b8ff" d="M201.51,-963.45C206.85,-1029.73 226.69,-1241.41 266,-1295.5 268.38,-1298.77 271.54,-1301.52 274.97,-1303.8"/>
<polygon fill="#63b8ff" stroke="#63b8ff" points="204.97,-962.85 200.7,-953.15 197.99,-963.4 204.97,-962.85"/>
</a>
</g>
</g>
<!-- Node7 -->
<g id="Node000007" class="node">
<title>Node7</title>
<g id="a_Node000007"><a xlink:href="structCRBRAIN.html" target="_top" xlink:title="Unknown.">
<polygon fill="white" stroke="#666666" points="330.5,-1286 269.5,-1286 269.5,-1267 330.5,-1267 330.5,-1286"/>
<text text-anchor="middle" x="300" y="-1274" font-family="Helvetica,sans-Serif" font-size="10.00">CRBRAIN</text>
</a>
</g>
</g>
<!-- Node4&#45;&gt;Node7 -->
<g id="edge6_Node000004_Node000007" class="edge">
<title>Node4&#45;&gt;Node7</title>
<g id="a_edge6_Node000004_Node000007"><a xlink:title=" ">
<path fill="none" stroke="#63b8ff" d="M201.98,-963.32C208.43,-1024.76 230.55,-1210.78 266,-1258.5 268.49,-1261.85 271.8,-1264.65 275.36,-1266.97"/>
<polygon fill="#63b8ff" stroke="#63b8ff" points="205.43,-962.65 200.92,-953.06 198.46,-963.37 205.43,-962.65"/>
</a>
</g>
</g>
<!-- Node8 -->
<g id="Node000008" class="node">
<title>Node8</title>
<g id="a_Node000008"><a xlink:href="structDIALOG.html" target="_top" xlink:title="Dialog line in a cutscene.">
<polygon fill="white" stroke="#666666" points="327,-1249 273,-1249 273,-1230 327,-1230 327,-1249"/>
<text text-anchor="middle" x="300" y="-1237" font-family="Helvetica,sans-Serif" font-size="10.00">DIALOG</text>
</a>
</g>
</g>
<!-- Node4&#45;&gt;Node8 -->
<g id="edge7_Node000004_Node000008" class="edge">
<title>Node4&#45;&gt;Node8</title>
<g id="a_edge7_Node000004_Node000008"><a xlink:title=" ">
<path fill="none" stroke="#63b8ff" d="M199.46,-963.2C199.13,-1012.13 204.53,-1141.03 266,-1221.5 268.54,-1224.82 271.87,-1227.6 275.43,-1229.91"/>
<polygon fill="#63b8ff" stroke="#63b8ff" points="202.96,-963.1 199.63,-953.04 195.96,-962.98 202.96,-963.1"/>
</a>
</g>
</g>
<!-- Node9 -->
<g id="Node000009" class="node">
<title>Node9</title>
<g id="a_Node000009"><a xlink:href="structDPRIZE.html" target="_top" xlink:title=" ">
<polygon fill="#fff0f0" stroke="red" points="326.5,-1212 273.5,-1212 273.5,-1193 326.5,-1193 326.5,-1212"/>
<text text-anchor="middle" x="300" y="-1200" font-family="Helvetica,sans-Serif" font-size="10.00">DPRIZE</text>
</a>
</g>
</g>
<!-- Node4&#45;&gt;Node9 -->
<g id="edge8_Node000004_Node000009" class="edge">
<title>Node4&#45;&gt;Node9</title>
<g id="a_edge8_Node000004_Node000009"><a xlink:title=" ">
<path fill="none" stroke="#63b8ff" d="M200.37,-963.54C202.2,-1008.05 212.27,-1116.59 266,-1184.5 268.59,-1187.78 271.95,-1190.54 275.53,-1192.84"/>
<polygon fill="#63b8ff" stroke="#63b8ff" points="203.87,-963.32 200.06,-953.44 196.87,-963.54 203.87,-963.32"/>
</a>
</g>
</g>
<!-- Node13 -->
<g id="Node000013" class="node">
<title>Node13</title>
<g id="a_Node000013"><a xlink:href="structEMITTER.html" target="_top" xlink:title="Particle emitter.">
<polygon fill="white" stroke="#666666" points="329.5,-1175 270.5,-1175 270.5,-1156 329.5,-1156 329.5,-1175"/>
<text text-anchor="middle" x="300" y="-1163" font-family="Helvetica,sans-Serif" font-size="10.00">EMITTER</text>
</a>
</g>
</g>
<!-- Node4&#45;&gt;Node13 -->
<g id="edge9_Node000004_Node000013" class="edge">
<title>Node4&#45;&gt;Node13</title>
<g id="a_edge9_Node000004_Node000013"><a xlink:title=" ">
<path fill="none" stroke="#63b8ff" d="M201.58,-963.35C205.66,-1002.71 219.73,-1091.68 266,-1147.5 268.75,-1150.82 272.27,-1153.62 275.99,-1155.95"/>
<polygon fill="#63b8ff" stroke="#63b8ff" points="205.05,-962.85 200.64,-953.22 198.08,-963.5 205.05,-962.85"/>
</a>
</g>
</g>
<!-- Node14 -->
<g id="Node000014" class="node">
<title>Node14</title>
<g id="a_Node000014"><a xlink:href="structEXIT.html" target="_top" xlink:title="Exit to another worldlevel.">
<polygon fill="white" stroke="#666666" points="319,-1138 281,-1138 281,-1119 319,-1119 319,-1138"/>
<text text-anchor="middle" x="300" y="-1126" font-family="Helvetica,sans-Serif" font-size="10.00">EXIT</text>
</a>
</g>
</g>
<!-- Node4&#45;&gt;Node14 -->
<g id="edge10_Node000004_Node000014" class="edge">
<title>Node4&#45;&gt;Node14</title>
<g id="a_edge10_Node000004_Node000014"><a xlink:title=" ">
<path fill="none" stroke="#63b8ff" d="M203.3,-963.42C209.83,-997.28 227.23,-1066.64 266,-1110.5 270.06,-1115.1 275.59,-1118.74 280.96,-1121.52"/>
<polygon fill="#63b8ff" stroke="#63b8ff" points="206.71,-962.6 201.49,-953.38 199.82,-963.85 206.71,-962.6"/>
</a>
</g>
</g>
<!-- Node15 -->
<g id="Node000015" class="node">
<title>Node15</title>
<g id="a_Node000015"><a xlink:href="structFLASH.html" target="_top" xlink:title=" ">
<polygon fill="white" stroke="#666666" points="324.5,-1101 275.5,-1101 275.5,-1082 324.5,-1082 324.5,-1101"/>
<text text-anchor="middle" x="300" y="-1089" font-family="Helvetica,sans-Serif" font-size="10.00">FLASH</text>
</a>
</g>
</g>
<!-- Node4&#45;&gt;Node15 -->
<g id="edge11_Node000004_Node000015" class="edge">
<title>Node4&#45;&gt;Node15</title>
<g id="a_edge11_Node000004_Node000015"><a xlink:title=" ">
<path fill="none" stroke="#63b8ff" d="M205.72,-962.79C214.7,-990.27 234.4,-1040.95 266,-1073.5 269.18,-1076.78 273.09,-1079.61 277.09,-1081.99"/>
<polygon fill="#63b8ff" stroke="#63b8ff" points="209.04,-961.67 202.71,-953.17 202.36,-963.76 209.04,-961.67"/>
</a>
</g>
</g>
<!-- Node16 -->
<g id="Node000016" class="node">
<title>Node16</title>
<g id="a_Node000016"><a xlink:href="structJLOC.html" target="_top" xlink:title=" ">
<polygon fill="white" stroke="#666666" points="319.5,-1064 280.5,-1064 280.5,-1045 319.5,-1045 319.5,-1064"/>
<text text-anchor="middle" x="300" y="-1052" font-family="Helvetica,sans-Serif" font-size="10.00">JLOC</text>
</a>
</g>
</g>
<!-- Node4&#45;&gt;Node16 -->
<g id="edge12_Node000004_Node000016" class="edge">
<title>Node4&#45;&gt;Node16</title>
<g id="a_edge12_Node000004_Node000016"><a xlink:title=" ">
<path fill="none" stroke="#63b8ff" d="M209.66,-961.86C221.01,-982.1 241.45,-1014.69 266,-1036.5 270.2,-1040.23 275.3,-1043.48 280.22,-1046.16"/>
<polygon fill="#63b8ff" stroke="#63b8ff" points="212.69,-960.12 204.83,-953.01 206.55,-963.47 212.69,-960.12"/>
</a>
</g>
</g>
<!-- Node17 -->
<g id="Node000017" class="node">
<title>Node17</title>
<g id="a_Node000017"><a xlink:href="structLIGHT.html" target="_top" xlink:title="Light.">
<polygon fill="white" stroke="#666666" points="323,-1027 277,-1027 277,-1008 323,-1008 323,-1027"/>
<text text-anchor="middle" x="300" y="-1015" font-family="Helvetica,sans-Serif" font-size="10.00">LIGHT</text>
</a>
</g>
</g>
<!-- Node4&#45;&gt;Node17 -->
<g id="edge13_Node000004_Node000017" class="edge">
<title>Node4&#45;&gt;Node17</title>
<g id="a_edge13_Node000004_Node000017"><a xlink:title=" ">
<path fill="none" stroke="#63b8ff" d="M217.84,-960.38C230.68,-972.09 248.72,-987.64 266,-999.5 270.3,-1002.45 275.14,-1005.32 279.76,-1007.86"/>
<polygon fill="#63b8ff" stroke="#63b8ff" points="219.93,-957.54 210.21,-953.32 215.17,-962.68 219.93,-957.54"/>
</a>
</g>
</g>
<!-- Node18 -->
<g id="Node000018" class="node">
<title>Node18</title>
<g id="a_Node000018"><a xlink:href="structLIKH.html" target="_top" xlink:title=" ">
<polygon fill="white" stroke="#666666" points="319.5,-990 280.5,-990 280.5,-971 319.5,-971 319.5,-990"/>
<text text-anchor="middle" x="300" y="-978" font-family="Helvetica,sans-Serif" font-size="10.00">LIKH</text>
</a>
</g>
</g>
<!-- Node4&#45;&gt;Node18 -->
<g id="edge14_Node000004_Node000018" class="edge">
<title>Node4&#45;&gt;Node18</title>
<g id="a_edge14_Node000004_Node000018"><a xlink:title=" ">
<path fill="none" stroke="#63b8ff" d="M226.61,-953.45C243.56,-959.78 265.11,-967.83 280.27,-973.5"/>
<polygon fill="#63b8ff" stroke="#63b8ff" points="227.84,-950.17 217.24,-949.94 225.39,-956.72 227.84,-950.17"/>
</a>
</g>
</g>
<!-- Node19 -->
<g id="Node000019" class="node">
<title>Node19</title>
<g id="a_Node000019"><a xlink:href="structLOCK.html" target="_top" xlink:title="Treasure key lock.">
<polygon fill="white" stroke="#666666" points="321.5,-953 278.5,-953 278.5,-934 321.5,-934 321.5,-953"/>
<text text-anchor="middle" x="300" y="-941" font-family="Helvetica,sans-Serif" font-size="10.00">LOCK</text>
</a>
</g>
</g>
<!-- Node4&#45;&gt;Node19 -->
<g id="edge15_Node000004_Node000019" class="edge">
<title>Node4&#45;&gt;Node19</title>
<g id="a_edge15_Node000004_Node000019"><a xlink:title=" ">
<path fill="none" stroke="#63b8ff" d="M227.61,-943.5C243.63,-943.5 263.48,-943.5 278.18,-943.5"/>
<polygon fill="#63b8ff" stroke="#63b8ff" points="227.24,-940 217.24,-943.5 227.24,-947 227.24,-940"/>
</a>
</g>
</g>
<!-- Node20 -->
<g id="Node000020" class="node">
<title>Node20</title>
<g id="a_Node000020"><a xlink:href="structLOCKG.html" target="_top" xlink:title=" ">
<polygon fill="white" stroke="#666666" points="325,-916 275,-916 275,-897 325,-897 325,-916"/>
<text text-anchor="middle" x="300" y="-904" font-family="Helvetica,sans-Serif" font-size="10.00">LOCKG</text>
</a>
</g>
</g>
<!-- Node4&#45;&gt;Node20 -->
<g id="edge16_Node000004_Node000020" class="edge">
<title>Node4&#45;&gt;Node20</title>
<g id="a_edge16_Node000004_Node000020"><a xlink:title=" ">
<path fill="none" stroke="#63b8ff" d="M226.96,-933.42C241.94,-927.83 260.42,-920.92 274.91,-915.5"/>
<polygon fill="#63b8ff" stroke="#63b8ff" points="225.39,-930.28 217.24,-937.06 227.84,-936.83 225.39,-930.28"/>
</a>
</g>
</g>
<!-- Node21 -->
<g id="Node000021" class="node">
<title>Node21</title>
<g id="a_Node000021"><a xlink:href="structPROXY.html" target="_top" xlink:title="Unknown.">
<polygon fill="white" stroke="#666666" points="325,-879 275,-879 275,-860 325,-860 325,-879"/>
<text text-anchor="middle" x="300" y="-867" font-family="Helvetica,sans-Serif" font-size="10.00">PROXY</text>
</a>
</g>
</g>
<!-- Node4&#45;&gt;Node21 -->
<g id="edge17_Node000004_Node000021" class="edge">
<title>Node4&#45;&gt;Node21</title>
<g id="a_edge17_Node000004_Node000021"><a xlink:title=" ">
<path fill="none" stroke="#63b8ff" d="M217.97,-927.07C230.88,-915.65 248.93,-900.39 266,-888.5 270.77,-885.17 276.16,-881.89 281.18,-879.01"/>
<polygon fill="#63b8ff" stroke="#63b8ff" points="215.41,-924.67 210.3,-933.96 220.08,-929.89 215.41,-924.67"/>
</a>
</g>
</g>
<!-- Node22 -->
<g id="Node000022" class="node">
<title>Node22</title>
<g id="a_Node000022"><a xlink:href="structPUFFB.html" target="_top" xlink:title=" ">
<polygon fill="white" stroke="#666666" points="324.5,-842 275.5,-842 275.5,-823 324.5,-823 324.5,-842"/>
<text text-anchor="middle" x="300" y="-830" font-family="Helvetica,sans-Serif" font-size="10.00">PUFFB</text>
</a>
</g>
</g>
<!-- Node4&#45;&gt;Node22 -->
<g id="edge18_Node000004_Node000022" class="edge">
<title>Node4&#45;&gt;Node22</title>
<g id="a_edge18_Node000004_Node000022"><a xlink:title=" ">
<path fill="none" stroke="#63b8ff" d="M209.97,-925.14C221.48,-905.19 241.95,-873.26 266,-851.5 269.92,-847.95 274.62,-844.77 279.21,-842.06"/>
<polygon fill="#63b8ff" stroke="#63b8ff" points="206.91,-923.44 205.06,-933.87 213.02,-926.87 206.91,-923.44"/>
</a>
</g>
</g>
<!-- Node23 -->
<g id="Node000023" class="node">
<title>Node23</title>
<g id="a_Node000023"><a xlink:href="structPUFFC.html" target="_top" xlink:title=" ">
<polygon fill="white" stroke="#666666" points="324.5,-805 275.5,-805 275.5,-786 324.5,-786 324.5,-805"/>
<text text-anchor="middle" x="300" y="-793" font-family="Helvetica,sans-Serif" font-size="10.00">PUFFC</text>
</a>
</g>
</g>
<!-- Node4&#45;&gt;Node23 -->
<g id="edge19_Node000004_Node000023" class="edge">
<title>Node4&#45;&gt;Node23</title>
<g id="a_edge19_Node000004_Node000023"><a xlink:title=" ">
<path fill="none" stroke="#63b8ff" d="M205.99,-924.1C215.19,-896.87 235.06,-847.01 266,-814.5 269.46,-810.86 273.78,-807.71 278.14,-805.07"/>
<polygon fill="#63b8ff" stroke="#63b8ff" points="202.54,-923.37 202.79,-933.96 209.2,-925.53 202.54,-923.37"/>
</a>
</g>
</g>
<!-- Node24 -->
<g id="Node000024" class="node">
<title>Node24</title>
<g id="a_Node000024"><a xlink:href="structROB.html" target="_top" xlink:title="Unknown.">
<polygon fill="white" stroke="#666666" points="319,-768 281,-768 281,-749 319,-749 319,-768"/>
<text text-anchor="middle" x="300" y="-756" font-family="Helvetica,sans-Serif" font-size="10.00">ROB</text>
</a>
</g>
</g>
<!-- Node4&#45;&gt;Node24 -->
<g id="edge20_Node000004_Node000024" class="edge">
<title>Node4&#45;&gt;Node24</title>
<g id="a_edge20_Node000004_Node000024"><a xlink:title=" ">
<path fill="none" stroke="#63b8ff" d="M203.44,-923.8C210.18,-890.28 227.89,-821.53 266,-777.5 270.07,-772.8 275.6,-768.99 280.97,-766.05"/>
<polygon fill="#63b8ff" stroke="#63b8ff" points="199.99,-923.25 201.57,-933.72 206.86,-924.55 199.99,-923.25"/>
</a>
</g>
</g>
<!-- Node25 -->
<g id="Node000025" class="node">
<title>Node25</title>
<g id="a_Node000025"><a xlink:href="structSO.html" target="_top" xlink:title=" ">
<polygon fill="#fff0f0" stroke="red" points="315,-731 285,-731 285,-712 315,-712 315,-731"/>
<text text-anchor="middle" x="300" y="-719" font-family="Helvetica,sans-Serif" font-size="10.00">SO</text>
</a>
</g>
</g>
<!-- Node4&#45;&gt;Node25 -->
<g id="edge21_Node000004_Node000025" class="edge">
<title>Node4&#45;&gt;Node25</title>
<g id="a_edge21_Node000004_Node000025"><a xlink:title=" ">
<path fill="none" stroke="#63b8ff" d="M201.72,-923.84C206.05,-884.83 220.54,-796.56 266,-740.5 270.91,-734.44 278.31,-729.93 284.85,-726.83"/>
<polygon fill="#63b8ff" stroke="#63b8ff" points="198.23,-923.58 200.71,-933.87 205.19,-924.27 198.23,-923.58"/>
</a>
</g>
</g>
<!-- Node86 -->
<g id="Node000086" class="node">
<title>Node86</title>
<g id="a_Node000086"><a xlink:href="structSPEAKER.html" target="_top" xlink:title="Sound speaker.">
<polygon fill="white" stroke="#666666" points="330.5,-694 269.5,-694 269.5,-675 330.5,-675 330.5,-694"/>
<text text-anchor="middle" x="300" y="-682" font-family="Helvetica,sans-Serif" font-size="10.00">SPEAKER</text>
</a>
</g>
</g>
<!-- Node4&#45;&gt;Node86 -->
<g id="edge22_Node000004_Node000086" class="edge">
<title>Node4&#45;&gt;Node86</title>
<g id="a_edge22_Node000004_Node000086"><a xlink:title=" ">
<path fill="none" stroke="#63b8ff" d="M200.51,-923.64C202.62,-879.49 213.22,-771.73 266,-703.5 268.91,-699.74 272.8,-696.58 276.88,-694"/>
<polygon fill="#63b8ff" stroke="#63b8ff" points="197.02,-923.53 200.13,-933.65 204.01,-923.79 197.02,-923.53"/>
</a>
</g>
</g>
<!-- Node87 -->
<g id="Node000087" class="node">
<title>Node87</title>
<g id="a_Node000087"><a xlink:href="structTN.html" target="_top" xlink:title=" ">
<polygon fill="white" stroke="#666666" points="315,-657 285,-657 285,-638 315,-638 315,-657"/>
<text text-anchor="middle" x="300" y="-645" font-family="Helvetica,sans-Serif" font-size="10.00">TN</text>
</a>
</g>
</g>
<!-- Node4&#45;&gt;Node87 -->
<g id="edge23_Node000004_Node000087" class="edge">
<title>Node4&#45;&gt;Node87</title>
<g id="a_edge23_Node000004_Node000087"><a xlink:title=" ">
<path fill="none" stroke="#63b8ff" d="M199.6,-923.63C199.6,-874.82 205.78,-747.19 266,-666.5 270.74,-660.14 278.29,-655.57 284.97,-652.51"/>
<polygon fill="#63b8ff" stroke="#63b8ff" points="196.1,-923.81 199.69,-933.78 203.1,-923.75 196.1,-923.81"/>
</a>
</g>
</g>
<!-- Node88 -->
<g id="Node000088" class="node">
<title>Node88</title>
<g id="a_Node000088"><a xlink:href="structWAYPOINT.html" target="_top" xlink:title=" ">
<polygon fill="white" stroke="#666666" points="334,-620 266,-620 266,-601 334,-601 334,-620"/>
<text text-anchor="middle" x="300" y="-608" font-family="Helvetica,sans-Serif" font-size="10.00">WAYPOINT</text>
</a>
</g>
</g>
<!-- Node4&#45;&gt;Node88 -->
<g id="edge24_Node000004_Node000088" class="edge">
<title>Node4&#45;&gt;Node88</title>
<g id="a_edge24_Node000004_Node000088"><a xlink:title=" ">
<path fill="none" stroke="#63b8ff" d="M202.03,-923.78C208.65,-862.63 231.19,-677.47 266,-629.5 268.72,-625.75 272.42,-622.64 276.36,-620.08"/>
<polygon fill="#63b8ff" stroke="#63b8ff" points="198.52,-923.67 200.95,-933.99 205.48,-924.41 198.52,-923.67"/>
</a>
</g>
</g>
<!-- Node89 -->
<g id="Node000089" class="node">
<title>Node89</title>
<g id="a_Node000089"><a xlink:href="structWM.html" target="_top" xlink:title=" ">
<polygon fill="white" stroke="#666666" points="317.5,-583 282.5,-583 282.5,-564 317.5,-564 317.5,-583"/>
<text text-anchor="middle" x="300" y="-571" font-family="Helvetica,sans-Serif" font-size="10.00">WM</text>
</a>
</g>
</g>
<!-- Node4&#45;&gt;Node89 -->
<g id="edge25_Node000004_Node000089" class="edge">
<title>Node4&#45;&gt;Node89</title>
<g id="a_edge25_Node000004_Node000089"><a xlink:title=" ">
<path fill="none" stroke="#63b8ff" d="M201.56,-923.64C207.08,-857.65 227.41,-646.88 266,-592.5 270.06,-586.79 276.41,-582.55 282.46,-579.54"/>
<polygon fill="#63b8ff" stroke="#63b8ff" points="198.05,-923.64 200.73,-933.89 205.03,-924.21 198.05,-923.64"/>
</a>
</g>
</g>
<!-- Node91 -->
<g id="Node000091" class="node">
<title>Node91</title>
<g id="a_Node000091"><a xlink:href="structASEGBL.html" target="_top" xlink:title="Animation segment blend(?).">
<polygon fill="white" stroke="#666666" points="327.5,-546 272.5,-546 272.5,-527 327.5,-527 327.5,-546"/>
<text text-anchor="middle" x="300" y="-534" font-family="Helvetica,sans-Serif" font-size="10.00">ASEGBL</text>
</a>
</g>
</g>
<!-- Node90&#45;&gt;Node91 -->
<g id="edge27_Node000090_Node000091" class="edge">
<title>Node90&#45;&gt;Node91</title>
<g id="a_edge27_Node000090_Node000091"><a xlink:title=" ">
<path fill="none" stroke="#63b8ff" d="M225.52,-586.48C227.05,-585.49 228.55,-584.49 230,-583.5 246.72,-572.04 249.18,-566.81 266,-555.5 270.83,-552.25 276.24,-549 281.26,-546.12"/>
<polygon fill="#63b8ff" stroke="#63b8ff" points="223.37,-583.69 216.73,-591.95 227.07,-589.64 223.37,-583.69"/>
</a>
</g>
</g>
<!-- Node98 -->
<g id="Node000098" class="node">
<title>Node98</title>
<g id="a_Node000098"><a xlink:href="structJMT.html" target="_top" xlink:title=" ">
<polygon fill="white" stroke="#666666" points="317.5,-444 282.5,-444 282.5,-425 317.5,-425 317.5,-444"/>
<text text-anchor="middle" x="300" y="-432" font-family="Helvetica,sans-Serif" font-size="10.00">JMT</text>
</a>
</g>
</g>
<!-- Node97&#45;&gt;Node98 -->
<g id="edge34_Node000097_Node000098" class="edge">
<title>Node97&#45;&gt;Node98</title>
<g id="a_edge34_Node000097_Node000098"><a xlink:title=" ">
<path fill="none" stroke="#63b8ff" d="M225.81,-394.06C237.98,-400.9 252.72,-409.15 266,-416.5 271.25,-419.41 276.99,-422.55 282.19,-425.38"/>
<polygon fill="#63b8ff" stroke="#63b8ff" points="227.49,-390.99 217.06,-389.14 224.06,-397.09 227.49,-390.99"/>
</a>
</g>
</g>
<!-- Node99 -->
<g id="Node000099" class="node">
<title>Node99</title>
<g id="a_Node000099"><a xlink:href="structPNTS.html" target="_top" xlink:title=" ">
<polygon fill="white" stroke="#666666" points="321,-407 279,-407 279,-388 321,-388 321,-407"/>
<text text-anchor="middle" x="300" y="-395" font-family="Helvetica,sans-Serif" font-size="10.00">PNTS</text>
</a>
</g>
</g>
<!-- Node97&#45;&gt;Node99 -->
<g id="edge35_Node000097_Node000099" class="edge">
<title>Node97&#45;&gt;Node99</title>
<g id="a_edge35_Node000097_Node000099"><a xlink:title=" ">
<path fill="none" stroke="#63b8ff" d="M227.29,-384.46C243.62,-387.43 264.02,-391.14 278.88,-393.84"/>
<polygon fill="#63b8ff" stroke="#63b8ff" points="227.71,-380.98 217.24,-382.64 226.46,-387.87 227.71,-380.98"/>
</a>
</g>
</g>
<!-- Node100 -->
<g id="Node000100" class="node">
<title>Node100</title>
<g id="a_Node000100"><a xlink:href="structPNTSV.html" target="_top" xlink:title=" ">
<polygon fill="white" stroke="#666666" points="324.5,-370 275.5,-370 275.5,-351 324.5,-351 324.5,-370"/>
<text text-anchor="middle" x="300" y="-358" font-family="Helvetica,sans-Serif" font-size="10.00">PNTSV</text>
</a>
</g>
</g>
<!-- Node97&#45;&gt;Node100 -->
<g id="edge36_Node000097_Node000100" class="edge">
<title>Node97&#45;&gt;Node100</title>
<g id="a_edge36_Node000097_Node000100"><a xlink:title=" ">
<path fill="none" stroke="#63b8ff" d="M227.47,-374.23C242.48,-371.35 260.9,-367.81 275.28,-365.05"/>
<polygon fill="#63b8ff" stroke="#63b8ff" points="226.41,-370.87 217.24,-376.19 227.72,-377.74 226.41,-370.87"/>
</a>
</g>
</g>
<!-- Node101 -->
<g id="Node000101" class="node">
<title>Node101</title>
<g id="a_Node000101"><a xlink:href="structPNTVEC.html" target="_top" xlink:title=" ">
<polygon fill="white" stroke="#666666" points="328,-333 272,-333 272,-314 328,-314 328,-333"/>
<text text-anchor="middle" x="300" y="-321" font-family="Helvetica,sans-Serif" font-size="10.00">PNTVEC</text>
</a>
</g>
</g>
<!-- Node97&#45;&gt;Node101 -->
<g id="edge37_Node000097_Node000101" class="edge">
<title>Node97&#45;&gt;Node101</title>
<g id="a_edge37_Node000097_Node000101"><a xlink:title=" ">
<path fill="none" stroke="#63b8ff" d="M226.44,-364.55C244.05,-354.58 266.68,-341.78 281.95,-333.14"/>
<polygon fill="#63b8ff" stroke="#63b8ff" points="224.23,-361.78 217.24,-369.75 227.67,-367.87 224.23,-361.78"/>
</a>
</g>
</g>
</g>
</svg>

<g id="navigator" transform="translate(0 0)" fill="#404254">
  <rect fill="#f2f5e9" fill-opacity="0.5" stroke="#606060" stroke-width=".5" x="0" y="0" width="60" height="60"/>
  <use id="zoomplus" xlink:href="#zoomPlus" x="17" y="9" onmousedown="handleZoom(evt,'in')"/>
  <use id="zoomminus" xlink:href="#zoomMin" x="42" y="9" onmousedown="handleZoom(evt,'out')"/>
  <use id="reset" xlink:href="#resetDef" x="30" y="36" onmousedown="handleReset()"/>
   <use id="arrowup" xlink:href="#arrowUp" x="0" y="0" onmousedown="handlePan(0,-1)"/>
  <use id="arrowright" xlink:href="#arrowRight" x="0" y="0" onmousedown="handlePan(1,0)"/>
  <use id="arrowdown" xlink:href="#arrowDown" x="0" y="0" onmousedown="handlePan(0,1)"/>
  <use id="arrowleft" xlink:href="#arrowLeft" x="0" y="0" onmousedown="handlePan(-1,0)"/>
</g>
<svg viewBox="0 0 15 15" width="100%" height="30px" preserveAspectRatio="xMaxYMin meet">
 <g id="arrow_out" transform="scale(0.3 0.3)">
  <a xlink:href="structBASIC__inherit__graph_org.svg" target="_base">
   <rect id="button" ry="5" rx="5" y="6" x="6" height="38" width="38"
        fill="#f2f5e9" fill-opacity="0.5" stroke="#606060" stroke-width="1.0"/>
   <path id="arrow"
     d="M 11.500037,31.436501 C 11.940474,20.09759 22.043105,11.32322 32.158766,21.979434 L 37.068811,17.246167 C 37.068811,17.246167 37.088388,32 37.088388,32 L 22.160133,31.978069 C 22.160133,31.978069 26.997745,27.140456 26.997745,27.140456 C 18.528582,18.264221 13.291696,25.230495 11.500037,31.436501 z"
     style="fill:#404040;"/>
  </a>
 </g>
</svg>

<style type='text/css'>
<![CDATA[
[data-mouse-over-selected='false'] { opacity: 0.7; }
[data-mouse-over-selected='true']  { opacity: 1.0; }
]]>
</style>
<script type="application/ecmascript"><![CDATA[
document.addEventListener('DOMContentLoaded', (event) => {
  highlightEdges();
  highlightAdjacentNodes();
});
]]></script>
</svg>
