<?xml version="1.0" encoding="UTF-8" standalone="no"?>
<!DOCTYPE svg PUBLIC "-//W3C//DTD SVG 1.1//EN"
 "http://www.w3.org/Graphics/SVG/1.1/DTD/svg11.dtd">
<!-- Generated by graphviz version 2.43.0 (0)
 -->
<!-- Title: LANDING Pages: 1 -->
<svg width="70pt" height="192pt"
 viewBox="0.00 0.00 70.00 192.00" xmlns="http://www.w3.org/2000/svg" xmlns:xlink="http://www.w3.org/1999/xlink">
<g id="graph0" class="graph" transform="scale(1 1) rotate(0) translate(4 188)">
<title>LANDING</title>
<!-- Node1 -->
<g id="Node000001" class="node">
<title>Node1</title>
<g id="a_Node000001"><a xlink:title="Unknown.">
<polygon fill="#999999" stroke="#666666" points="62,-19 0,-19 0,0 62,0 62,-19"/>
<text text-anchor="middle" x="31" y="-7" font-family="Helvetica,sans-Serif" font-size="10.00">LANDING</text>
</a>
</g>
</g>
<!-- Node2 -->
<g id="Node000002" class="node">
<title>Node2</title>
<g id="a_Node000002"><a xlink:href="structSHAPE.html" target="_top" xlink:title="Unknown.">
<polygon fill="white" stroke="#666666" points="55.5,-74 6.5,-74 6.5,-55 55.5,-55 55.5,-74"/>
<text text-anchor="middle" x="31" y="-62" font-family="Helvetica,sans-Serif" font-size="10.00">SHAPE</text>
</a>
</g>
</g>
<!-- Node2&#45;&gt;Node1 -->
<g id="edge1_Node000001_Node000002" class="edge">
<title>Node2&#45;&gt;Node1</title>
<g id="a_edge1_Node000001_Node000002"><a xlink:title=" ">
<path fill="none" stroke="#63b8ff" d="M31,-44.66C31,-35.93 31,-25.99 31,-19.09"/>
<polygon fill="#63b8ff" stroke="#63b8ff" points="27.5,-44.75 31,-54.75 34.5,-44.75 27.5,-44.75"/>
</a>
</g>
</g>
<!-- Node3 -->
<g id="Node000003" class="node">
<title>Node3</title>
<g id="a_Node000003"><a xlink:href="structLO.html" target="_top" xlink:title="Live Object, base class for all objects that exist in the world.">
<polygon fill="white" stroke="#666666" points="45.5,-129 16.5,-129 16.5,-110 45.5,-110 45.5,-129"/>
<text text-anchor="middle" x="31" y="-117" font-family="Helvetica,sans-Serif" font-size="10.00">LO</text>
</a>
</g>
</g>
<!-- Node3&#45;&gt;Node2 -->
<g id="edge2_Node000002_Node000003" class="edge">
<title>Node3&#45;&gt;Node2</title>
<g id="a_edge2_Node000002_Node000003"><a xlink:title=" ">
<path fill="none" stroke="#63b8ff" d="M31,-99.66C31,-90.93 31,-80.99 31,-74.09"/>
<polygon fill="#63b8ff" stroke="#63b8ff" points="27.5,-99.75 31,-109.75 34.5,-99.75 27.5,-99.75"/>
</a>
</g>
</g>
<!-- Node4 -->
<g id="Node000004" class="node">
<title>Node4</title>
<g id="a_Node000004"><a xlink:href="structBASIC.html" target="_top" xlink:title="Base object for most other kinds of objects.">
<polygon fill="white" stroke="#666666" points="54,-184 8,-184 8,-165 54,-165 54,-184"/>
<text text-anchor="middle" x="31" y="-172" font-family="Helvetica,sans-Serif" font-size="10.00">BASIC</text>
</a>
</g>
</g>
<!-- Node4&#45;&gt;Node3 -->
<g id="edge3_Node000003_Node000004" class="edge">
<title>Node4&#45;&gt;Node3</title>
<g id="a_edge3_Node000003_Node000004"><a xlink:title=" ">
<path fill="none" stroke="#63b8ff" d="M31,-154.66C31,-145.93 31,-135.99 31,-129.09"/>
<polygon fill="#63b8ff" stroke="#63b8ff" points="27.5,-154.75 31,-164.75 34.5,-154.75 27.5,-154.75"/>
</a>
</g>
</g>
</g>
</svg>
