<?xml version="1.0" encoding="UTF-8" standalone="no"?>
<!DOCTYPE svg PUBLIC "-//W3C//DTD SVG 1.1//EN"
 "http://www.w3.org/Graphics/SVG/1.1/DTD/svg11.dtd">
<!-- Generated by graphviz version 2.43.0 (0)
 -->
<!-- Title: SO Pages: 1 -->
<svg width="54pt" height="364pt"
 viewBox="0.00 0.00 54.00 364.00" xmlns="http://www.w3.org/2000/svg" xmlns:xlink="http://www.w3.org/1999/xlink">
<g id="graph0" class="graph" transform="scale(1 1) rotate(0) translate(4 360)">
<title>SO</title>
<polygon fill="white" stroke="transparent" points="-4,4 -4,-360 50,-360 50,4 -4,4"/>
<!-- Node1 -->
<g id="node1" class="node">
<title>Node1</title>
<g id="a_node1"><a xlink:title="Scene object.">
<polygon fill="#bfbfbf" stroke="black" points="8,-168.5 8,-187.5 38,-187.5 38,-168.5 8,-168.5"/>
<text text-anchor="middle" x="23" y="-175.5" font-family="Helvetica,sans-Serif" font-size="10.00">SO</text>
</a>
</g>
</g>
<!-- Node5 -->
<g id="node5" class="node">
<title>Node5</title>
<g id="a_node5"><a xlink:href="structPO.html" target="_top" xlink:title="TBD.">
<polygon fill="white" stroke="black" points="8,-112.5 8,-131.5 38,-131.5 38,-112.5 8,-112.5"/>
<text text-anchor="middle" x="23" y="-119.5" font-family="Helvetica,sans-Serif" font-size="10.00">PO</text>
</a>
</g>
</g>
<!-- Node1&#45;&gt;Node5 -->
<g id="edge4" class="edge">
<title>Node1&#45;&gt;Node5</title>
<path fill="none" stroke="midnightblue" d="M23,-157.8C23,-148.91 23,-138.78 23,-131.75"/>
<polygon fill="midnightblue" stroke="midnightblue" points="19.5,-158.08 23,-168.08 26.5,-158.08 19.5,-158.08"/>
</g>
<!-- Node2 -->
<g id="node2" class="node">
<title>Node2</title>
<g id="a_node2"><a xlink:href="structALO.html" target="_top" xlink:title="&quot;Lightweight&quot;">
<polygon fill="white" stroke="black" points="5,-224.5 5,-243.5 41,-243.5 41,-224.5 5,-224.5"/>
<text text-anchor="middle" x="23" y="-231.5" font-family="Helvetica,sans-Serif" font-size="10.00">ALO</text>
</a>
</g>
</g>
<!-- Node2&#45;&gt;Node1 -->
<g id="edge1" class="edge">
<title>Node2&#45;&gt;Node1</title>
<path fill="none" stroke="midnightblue" d="M23,-213.8C23,-204.91 23,-194.78 23,-187.75"/>
<polygon fill="midnightblue" stroke="midnightblue" points="19.5,-214.08 23,-224.08 26.5,-214.08 19.5,-214.08"/>
</g>
<!-- Node3 -->
<g id="node3" class="node">
<title>Node3</title>
<g id="a_node3"><a xlink:href="structLO.html" target="_top" xlink:title="&quot;LO&quot;">
<polygon fill="white" stroke="black" points="8.5,-280.5 8.5,-299.5 37.5,-299.5 37.5,-280.5 8.5,-280.5"/>
<text text-anchor="middle" x="23" y="-287.5" font-family="Helvetica,sans-Serif" font-size="10.00">LO</text>
</a>
</g>
</g>
<!-- Node3&#45;&gt;Node2 -->
<g id="edge2" class="edge">
<title>Node3&#45;&gt;Node2</title>
<path fill="none" stroke="midnightblue" d="M23,-269.8C23,-260.91 23,-250.78 23,-243.75"/>
<polygon fill="midnightblue" stroke="midnightblue" points="19.5,-270.08 23,-280.08 26.5,-270.08 19.5,-270.08"/>
</g>
<!-- Node4 -->
<g id="node4" class="node">
<title>Node4</title>
<g id="a_node4"><a xlink:href="structBASIC.html" target="_top" xlink:title="Basic object.">
<polygon fill="white" stroke="black" points="0,-336.5 0,-355.5 46,-355.5 46,-336.5 0,-336.5"/>
<text text-anchor="middle" x="23" y="-343.5" font-family="Helvetica,sans-Serif" font-size="10.00">BASIC</text>
</a>
</g>
</g>
<!-- Node4&#45;&gt;Node3 -->
<g id="edge3" class="edge">
<title>Node4&#45;&gt;Node3</title>
<path fill="none" stroke="midnightblue" d="M23,-325.8C23,-316.91 23,-306.78 23,-299.75"/>
<polygon fill="midnightblue" stroke="midnightblue" points="19.5,-326.08 23,-336.08 26.5,-326.08 19.5,-326.08"/>
</g>
<!-- Node6 -->
<g id="node6" class="node">
<title>Node6</title>
<g id="a_node6"><a xlink:href="structSTEP.html" target="_top" xlink:title="TBD.">
<polygon fill="white" stroke="black" points="2.5,-56.5 2.5,-75.5 43.5,-75.5 43.5,-56.5 2.5,-56.5"/>
<text text-anchor="middle" x="23" y="-63.5" font-family="Helvetica,sans-Serif" font-size="10.00">STEP</text>
</a>
</g>
</g>
<!-- Node5&#45;&gt;Node6 -->
<g id="edge5" class="edge">
<title>Node5&#45;&gt;Node6</title>
<path fill="none" stroke="midnightblue" d="M23,-101.8C23,-92.91 23,-82.78 23,-75.75"/>
<polygon fill="midnightblue" stroke="midnightblue" points="19.5,-102.08 23,-112.08 26.5,-102.08 19.5,-102.08"/>
</g>
<!-- Node7 -->
<g id="node7" class="node">
<title>Node7</title>
<g id="a_node7"><a xlink:href="structJT.html" target="_top" xlink:title="Sly entity.">
<polygon fill="white" stroke="black" points="8.5,-0.5 8.5,-19.5 37.5,-19.5 37.5,-0.5 8.5,-0.5"/>
<text text-anchor="middle" x="23" y="-7.5" font-family="Helvetica,sans-Serif" font-size="10.00">JT</text>
</a>
</g>
</g>
<!-- Node6&#45;&gt;Node7 -->
<g id="edge6" class="edge">
<title>Node6&#45;&gt;Node7</title>
<path fill="none" stroke="midnightblue" d="M23,-45.8C23,-36.91 23,-26.78 23,-19.75"/>
<polygon fill="midnightblue" stroke="midnightblue" points="19.5,-46.08 23,-56.08 26.5,-46.08 19.5,-46.08"/>
</g>
</g>
</svg>
