<?xml version="1.0" encoding="UTF-8" standalone="no"?>
<!DOCTYPE svg PUBLIC "-//W3C//DTD SVG 1.1//EN"
 "http://www.w3.org/Graphics/SVG/1.1/DTD/svg11.dtd">
<!-- Generated by graphviz version 2.43.0 (0)
 -->
<!-- Title: STEPGUARD Pages: 1 -->
<svg width="562pt" height="467pt"
 viewBox="0.00 0.00 562.00 467.00" xmlns="http://www.w3.org/2000/svg" xmlns:xlink="http://www.w3.org/1999/xlink">
<g id="graph0" class="graph" transform="scale(1 1) rotate(0) translate(4 463)">
<title>STEPGUARD</title>
<!-- Node1 -->
<g id="Node000001" class="node">
<title>Node1</title>
<g id="a_Node000001"><a xlink:title=" ">
<polygon fill="#999999" stroke="#666666" points="313.5,-129 236.5,-129 236.5,-110 313.5,-110 313.5,-129"/>
<text text-anchor="middle" x="275" y="-117" font-family="Helvetica,sans-Serif" font-size="10.00">STEPGUARD</text>
</a>
</g>
</g>
<!-- Node8 -->
<g id="Node000008" class="node">
<title>Node8</title>
<g id="a_Node000008"><a xlink:href="structCRFOD.html" target="_top" xlink:title="Unknown.">
<polygon fill="white" stroke="#666666" points="54.5,-74 3.5,-74 3.5,-55 54.5,-55 54.5,-74"/>
<text text-anchor="middle" x="29" y="-62" font-family="Helvetica,sans-Serif" font-size="10.00">CRFOD</text>
</a>
</g>
</g>
<!-- Node1&#45;&gt;Node8 -->
<g id="edge7_Node000001_Node000008" class="edge">
<title>Node1&#45;&gt;Node8</title>
<g id="a_edge7_Node000001_Node000008"><a xlink:title=" ">
<path fill="none" stroke="#63b8ff" d="M226.55,-108.72C183.72,-99.97 119.6,-86.61 64,-74 60.95,-73.31 57.76,-72.56 54.59,-71.81"/>
<polygon fill="#63b8ff" stroke="#63b8ff" points="225.92,-112.16 236.42,-110.73 227.32,-105.3 225.92,-112.16"/>
</a>
</g>
</g>
<!-- Node10 -->
<g id="Node000010" class="node">
<title>Node10</title>
<g id="a_Node000010"><a xlink:href="structCRFODB.html" target="_top" xlink:title="Unknown.">
<polygon fill="white" stroke="#666666" points="131,-74 73,-74 73,-55 131,-55 131,-74"/>
<text text-anchor="middle" x="102" y="-62" font-family="Helvetica,sans-Serif" font-size="10.00">CRFODB</text>
</a>
</g>
</g>
<!-- Node1&#45;&gt;Node10 -->
<g id="edge9_Node000001_Node000010" class="edge">
<title>Node1&#45;&gt;Node10</title>
<g id="a_edge9_Node000001_Node000010"><a xlink:title=" ">
<path fill="none" stroke="#63b8ff" d="M237.23,-106.93C204.91,-97.03 159.14,-83.01 130.01,-74.08"/>
<polygon fill="#63b8ff" stroke="#63b8ff" points="236.62,-110.4 247.2,-109.98 238.67,-103.71 236.62,-110.4"/>
</a>
</g>
</g>
<!-- Node11 -->
<g id="Node000011" class="node">
<title>Node11</title>
<g id="a_Node000011"><a xlink:href="structGOMER.html" target="_top" xlink:title="Unknown, related to bosses.">
<polygon fill="white" stroke="#666666" points="202.5,-74 149.5,-74 149.5,-55 202.5,-55 202.5,-74"/>
<text text-anchor="middle" x="176" y="-62" font-family="Helvetica,sans-Serif" font-size="10.00">GOMER</text>
</a>
</g>
</g>
<!-- Node1&#45;&gt;Node11 -->
<g id="edge10_Node000001_Node000011" class="edge">
<title>Node1&#45;&gt;Node11</title>
<g id="a_edge10_Node000001_Node000011"><a xlink:title=" ">
<path fill="none" stroke="#63b8ff" d="M250.22,-105.23C232.06,-95.51 207.94,-82.6 192.2,-74.17"/>
<polygon fill="#63b8ff" stroke="#63b8ff" points="248.63,-108.35 259.09,-109.98 251.93,-102.18 248.63,-108.35"/>
</a>
</g>
</g>
<!-- Node13 -->
<g id="Node000013" class="node">
<title>Node13</title>
<g id="a_Node000013"><a xlink:href="structMBG.html" target="_top" xlink:title=" ">
<polygon fill="white" stroke="#666666" points="261,-74 221,-74 221,-55 261,-55 261,-74"/>
<text text-anchor="middle" x="241" y="-62" font-family="Helvetica,sans-Serif" font-size="10.00">MBG</text>
</a>
</g>
</g>
<!-- Node1&#45;&gt;Node13 -->
<g id="edge12_Node000001_Node000013" class="edge">
<title>Node1&#45;&gt;Node13</title>
<g id="a_edge12_Node000001_Node000013"><a xlink:title=" ">
<path fill="none" stroke="#63b8ff" d="M263.84,-101.1C258.03,-92.04 251.18,-81.37 246.51,-74.09"/>
<polygon fill="#63b8ff" stroke="#63b8ff" points="261.04,-103.22 269.39,-109.75 266.93,-99.44 261.04,-103.22"/>
</a>
</g>
</g>
<!-- Node14 -->
<g id="Node000014" class="node">
<title>Node14</title>
<g id="a_Node000014"><a xlink:href="structMURRAY.html" target="_top" xlink:title="Used for Murray in Murray&#39;s Big Gamble and King of the Hill.">
<polygon fill="white" stroke="#666666" points="338.5,-74 279.5,-74 279.5,-55 338.5,-55 338.5,-74"/>
<text text-anchor="middle" x="309" y="-62" font-family="Helvetica,sans-Serif" font-size="10.00">MURRAY</text>
</a>
</g>
</g>
<!-- Node1&#45;&gt;Node14 -->
<g id="edge13_Node000001_Node000014" class="edge">
<title>Node1&#45;&gt;Node14</title>
<g id="a_edge13_Node000001_Node000014"><a xlink:title=" ">
<path fill="none" stroke="#63b8ff" d="M286.16,-101.1C291.97,-92.04 298.82,-81.37 303.49,-74.09"/>
<polygon fill="#63b8ff" stroke="#63b8ff" points="283.07,-99.44 280.61,-109.75 288.96,-103.22 283.07,-99.44"/>
</a>
</g>
</g>
<!-- Node15 -->
<g id="Node000015" class="node">
<title>Node15</title>
<g id="a_Node000015"><a xlink:href="structSBG.html" target="_top" xlink:title=" ">
<polygon fill="white" stroke="#666666" points="393.5,-74 356.5,-74 356.5,-55 393.5,-55 393.5,-74"/>
<text text-anchor="middle" x="375" y="-62" font-family="Helvetica,sans-Serif" font-size="10.00">SBG</text>
</a>
</g>
</g>
<!-- Node1&#45;&gt;Node15 -->
<g id="edge14_Node000001_Node000015" class="edge">
<title>Node1&#45;&gt;Node15</title>
<g id="a_edge14_Node000001_Node000015"><a xlink:title=" ">
<path fill="none" stroke="#63b8ff" d="M300.03,-105.23C318.37,-95.51 342.74,-82.6 358.64,-74.17"/>
<polygon fill="#63b8ff" stroke="#63b8ff" points="298.26,-102.21 291.07,-109.98 301.54,-108.39 298.26,-102.21"/>
</a>
</g>
</g>
<!-- Node16 -->
<g id="Node000016" class="node">
<title>Node16</title>
<g id="a_Node000016"><a xlink:href="structSMARTGUARD.html" target="_top" xlink:title=" ">
<polygon fill="white" stroke="#666666" points="498,-74 412,-74 412,-55 498,-55 498,-74"/>
<text text-anchor="middle" x="455" y="-62" font-family="Helvetica,sans-Serif" font-size="10.00">SMARTGUARD</text>
</a>
</g>
</g>
<!-- Node1&#45;&gt;Node16 -->
<g id="edge15_Node000001_Node000016" class="edge">
<title>Node1&#45;&gt;Node16</title>
<g id="a_edge15_Node000001_Node000016"><a xlink:title=" ">
<path fill="none" stroke="#63b8ff" d="M313.87,-107.06C347.51,-97.15 395.42,-83.04 425.85,-74.08"/>
<polygon fill="#63b8ff" stroke="#63b8ff" points="312.52,-103.8 303.92,-109.98 314.5,-110.52 312.52,-103.8"/>
</a>
</g>
</g>
<!-- Node17 -->
<g id="Node000017" class="node">
<title>Node17</title>
<g id="a_Node000017"><a xlink:href="structVBG.html" target="_top" xlink:title=" ">
<polygon fill="white" stroke="#666666" points="554,-74 516,-74 516,-55 554,-55 554,-74"/>
<text text-anchor="middle" x="535" y="-62" font-family="Helvetica,sans-Serif" font-size="10.00">VBG</text>
</a>
</g>
</g>
<!-- Node1&#45;&gt;Node17 -->
<g id="edge16_Node000001_Node000017" class="edge">
<title>Node1&#45;&gt;Node17</title>
<g id="a_edge16_Node000001_Node000017"><a xlink:title=" ">
<path fill="none" stroke="#63b8ff" d="M323.8,-110.68C370.98,-102.75 444.31,-89.48 507,-74 509.86,-73.29 512.86,-72.47 515.79,-71.62"/>
<polygon fill="#63b8ff" stroke="#63b8ff" points="323.15,-107.24 313.86,-112.33 324.3,-114.14 323.15,-107.24"/>
</a>
</g>
</g>
<!-- Node2 -->
<g id="Node000002" class="node">
<title>Node2</title>
<g id="a_Node000002"><a xlink:href="structSTEP.html" target="_top" xlink:title="STEP_FIGURE.">
<polygon fill="white" stroke="#666666" points="295.5,-184 254.5,-184 254.5,-165 295.5,-165 295.5,-184"/>
<text text-anchor="middle" x="275" y="-172" font-family="Helvetica,sans-Serif" font-size="10.00">STEP</text>
</a>
</g>
</g>
<!-- Node2&#45;&gt;Node1 -->
<g id="edge1_Node000001_Node000002" class="edge">
<title>Node2&#45;&gt;Node1</title>
<g id="a_edge1_Node000001_Node000002"><a xlink:title=" ">
<path fill="none" stroke="#63b8ff" d="M275,-154.66C275,-145.93 275,-135.99 275,-129.09"/>
<polygon fill="#63b8ff" stroke="#63b8ff" points="271.5,-154.75 275,-164.75 278.5,-154.75 271.5,-154.75"/>
</a>
</g>
</g>
<!-- Node3 -->
<g id="Node000003" class="node">
<title>Node3</title>
<g id="a_Node000003"><a xlink:href="structPO.html" target="_top" xlink:title="Used for playable objects (e.g. JT).">
<polygon fill="white" stroke="#666666" points="290,-239 260,-239 260,-220 290,-220 290,-239"/>
<text text-anchor="middle" x="275" y="-227" font-family="Helvetica,sans-Serif" font-size="10.00">PO</text>
</a>
</g>
</g>
<!-- Node3&#45;&gt;Node2 -->
<g id="edge2_Node000002_Node000003" class="edge">
<title>Node3&#45;&gt;Node2</title>
<g id="a_edge2_Node000002_Node000003"><a xlink:title=" ">
<path fill="none" stroke="#63b8ff" d="M275,-209.66C275,-200.93 275,-190.99 275,-184.09"/>
<polygon fill="#63b8ff" stroke="#63b8ff" points="271.5,-209.75 275,-219.75 278.5,-209.75 271.5,-209.75"/>
</a>
</g>
</g>
<!-- Node4 -->
<g id="Node000004" class="node">
<title>Node4</title>
<g id="a_Node000004"><a xlink:href="structSO.html" target="_top" xlink:title=" ">
<polygon fill="white" stroke="#666666" points="290,-294 260,-294 260,-275 290,-275 290,-294"/>
<text text-anchor="middle" x="275" y="-282" font-family="Helvetica,sans-Serif" font-size="10.00">SO</text>
</a>
</g>
</g>
<!-- Node4&#45;&gt;Node3 -->
<g id="edge3_Node000003_Node000004" class="edge">
<title>Node4&#45;&gt;Node3</title>
<g id="a_edge3_Node000003_Node000004"><a xlink:title=" ">
<path fill="none" stroke="#63b8ff" d="M275,-264.66C275,-255.93 275,-245.99 275,-239.09"/>
<polygon fill="#63b8ff" stroke="#63b8ff" points="271.5,-264.75 275,-274.75 278.5,-264.75 271.5,-264.75"/>
</a>
</g>
</g>
<!-- Node5 -->
<g id="Node000005" class="node">
<title>Node5</title>
<g id="a_Node000005"><a xlink:href="structALO.html" target="_top" xlink:title=" ">
<polygon fill="white" stroke="#666666" points="293,-349 257,-349 257,-330 293,-330 293,-349"/>
<text text-anchor="middle" x="275" y="-337" font-family="Helvetica,sans-Serif" font-size="10.00">ALO</text>
</a>
</g>
</g>
<!-- Node5&#45;&gt;Node4 -->
<g id="edge4_Node000004_Node000005" class="edge">
<title>Node5&#45;&gt;Node4</title>
<g id="a_edge4_Node000004_Node000005"><a xlink:title=" ">
<path fill="none" stroke="#63b8ff" d="M275,-319.66C275,-310.93 275,-300.99 275,-294.09"/>
<polygon fill="#63b8ff" stroke="#63b8ff" points="271.5,-319.75 275,-329.75 278.5,-319.75 271.5,-319.75"/>
</a>
</g>
</g>
<!-- Node6 -->
<g id="Node000006" class="node">
<title>Node6</title>
<g id="a_Node000006"><a xlink:href="structLO.html" target="_top" xlink:title="Live Object, base class for all objects that exist in the world.">
<polygon fill="white" stroke="#666666" points="289.5,-404 260.5,-404 260.5,-385 289.5,-385 289.5,-404"/>
<text text-anchor="middle" x="275" y="-392" font-family="Helvetica,sans-Serif" font-size="10.00">LO</text>
</a>
</g>
</g>
<!-- Node6&#45;&gt;Node5 -->
<g id="edge5_Node000005_Node000006" class="edge">
<title>Node6&#45;&gt;Node5</title>
<g id="a_edge5_Node000005_Node000006"><a xlink:title=" ">
<path fill="none" stroke="#63b8ff" d="M275,-374.66C275,-365.93 275,-355.99 275,-349.09"/>
<polygon fill="#63b8ff" stroke="#63b8ff" points="271.5,-374.75 275,-384.75 278.5,-374.75 271.5,-374.75"/>
</a>
</g>
</g>
<!-- Node7 -->
<g id="Node000007" class="node">
<title>Node7</title>
<g id="a_Node000007"><a xlink:href="structBASIC.html" target="_top" xlink:title="Base object for most other kinds of objects.">
<polygon fill="white" stroke="#666666" points="298,-459 252,-459 252,-440 298,-440 298,-459"/>
<text text-anchor="middle" x="275" y="-447" font-family="Helvetica,sans-Serif" font-size="10.00">BASIC</text>
</a>
</g>
</g>
<!-- Node7&#45;&gt;Node6 -->
<g id="edge6_Node000006_Node000007" class="edge">
<title>Node7&#45;&gt;Node6</title>
<g id="a_edge6_Node000006_Node000007"><a xlink:title=" ">
<path fill="none" stroke="#63b8ff" d="M275,-429.66C275,-420.93 275,-410.99 275,-404.09"/>
<polygon fill="#63b8ff" stroke="#63b8ff" points="271.5,-429.75 275,-439.75 278.5,-429.75 271.5,-429.75"/>
</a>
</g>
</g>
<!-- Node9 -->
<g id="Node000009" class="node">
<title>Node9</title>
<g id="a_Node000009"><a xlink:href="structCRFODK.html" target="_top" xlink:title="Unknown.">
<polygon fill="white" stroke="#666666" points="58,-19 0,-19 0,0 58,0 58,-19"/>
<text text-anchor="middle" x="29" y="-7" font-family="Helvetica,sans-Serif" font-size="10.00">CRFODK</text>
</a>
</g>
</g>
<!-- Node8&#45;&gt;Node9 -->
<g id="edge8_Node000008_Node000009" class="edge">
<title>Node8&#45;&gt;Node9</title>
<g id="a_edge8_Node000008_Node000009"><a xlink:title=" ">
<path fill="none" stroke="#63b8ff" d="M29,-44.66C29,-35.93 29,-25.99 29,-19.09"/>
<polygon fill="#63b8ff" stroke="#63b8ff" points="25.5,-44.75 29,-54.75 32.5,-44.75 25.5,-44.75"/>
</a>
</g>
</g>
<!-- Node12 -->
<g id="Node000012" class="node">
<title>Node12</title>
<g id="a_Node000012"><a xlink:href="structUBG.html" target="_top" xlink:title=" ">
<polygon fill="white" stroke="#666666" points="195,-19 157,-19 157,0 195,0 195,-19"/>
<text text-anchor="middle" x="176" y="-7" font-family="Helvetica,sans-Serif" font-size="10.00">UBG</text>
</a>
</g>
</g>
<!-- Node11&#45;&gt;Node12 -->
<g id="edge11_Node000011_Node000012" class="edge">
<title>Node11&#45;&gt;Node12</title>
<g id="a_edge11_Node000011_Node000012"><a xlink:title=" ">
<path fill="none" stroke="#63b8ff" d="M176,-44.66C176,-35.93 176,-25.99 176,-19.09"/>
<polygon fill="#63b8ff" stroke="#63b8ff" points="172.5,-44.75 176,-54.75 179.5,-44.75 172.5,-44.75"/>
</a>
</g>
</g>
</g>
</svg>
