<?xml version="1.0" encoding="UTF-8" standalone="no"?>
<!DOCTYPE svg PUBLIC "-//W3C//DTD SVG 1.1//EN"
 "http://www.w3.org/Graphics/SVG/1.1/DTD/svg11.dtd">
<!-- Generated by graphviz version 2.43.0 (0)
 -->
<!-- Title: SAA Pages: 1 -->
<svg width="605pt" height="82pt"
 viewBox="0.00 0.00 604.50 82.00" xmlns="http://www.w3.org/2000/svg" xmlns:xlink="http://www.w3.org/1999/xlink">
<g id="graph0" class="graph" transform="scale(1 1) rotate(0) translate(4 78)">
<title>SAA</title>
<!-- Node1 -->
<g id="Node000001" class="node">
<title>Node1</title>
<g id="a_Node000001"><a xlink:title="Shader Animation Animator.">
<polygon fill="#999999" stroke="#666666" points="308.5,-74 271.5,-74 271.5,-55 308.5,-55 308.5,-74"/>
<text text-anchor="middle" x="290" y="-62" font-family="Helvetica,sans-Serif" font-size="10.00">SAA</text>
</a>
</g>
</g>
<!-- Node2 -->
<g id="Node000002" class="node">
<title>Node2</title>
<g id="a_Node000002"><a xlink:href="structCIRCLER.html" target="_top" xlink:title="Circular shader animation.">
<polygon fill="white" stroke="#666666" points="58,-19 0,-19 0,0 58,0 58,-19"/>
<text text-anchor="middle" x="29" y="-7" font-family="Helvetica,sans-Serif" font-size="10.00">CIRCLER</text>
</a>
</g>
</g>
<!-- Node1&#45;&gt;Node2 -->
<g id="edge1_Node000001_Node000002" class="edge">
<title>Node1&#45;&gt;Node2</title>
<g id="a_edge1_Node000001_Node000002"><a xlink:title=" ">
<path fill="none" stroke="#63b8ff" d="M261.58,-58.05C219.15,-49.86 136.79,-33.77 67,-19 64.09,-18.38 61.06,-17.73 58.03,-17.07"/>
<polygon fill="#63b8ff" stroke="#63b8ff" points="260.99,-61.5 271.47,-59.95 262.31,-54.62 260.99,-61.5"/>
</a>
</g>
</g>
<!-- Node3 -->
<g id="Node000003" class="node">
<title>Node3</title>
<g id="a_Node000003"><a xlink:href="structEYES.html" target="_top" xlink:title="Eyes.">
<polygon fill="white" stroke="#666666" points="117.5,-19 76.5,-19 76.5,0 117.5,0 117.5,-19"/>
<text text-anchor="middle" x="97" y="-7" font-family="Helvetica,sans-Serif" font-size="10.00">EYES</text>
</a>
</g>
</g>
<!-- Node1&#45;&gt;Node3 -->
<g id="edge2_Node000001_Node000003" class="edge">
<title>Node1&#45;&gt;Node3</title>
<g id="a_edge2_Node000001_Node000003"><a xlink:title=" ">
<path fill="none" stroke="#63b8ff" d="M261.67,-55.85C229.14,-47.05 174.18,-32.12 127,-19 123.98,-18.16 120.78,-17.26 117.65,-16.38"/>
<polygon fill="#63b8ff" stroke="#63b8ff" points="260.84,-59.25 271.41,-58.49 262.67,-52.5 260.84,-59.25"/>
</a>
</g>
</g>
<!-- Node4 -->
<g id="Node000004" class="node">
<title>Node4</title>
<g id="a_Node000004"><a xlink:href="structHOLOGRAM.html" target="_top" xlink:title="Hologram shader animation.">
<polygon fill="white" stroke="#666666" points="210,-19 136,-19 136,0 210,0 210,-19"/>
<text text-anchor="middle" x="173" y="-7" font-family="Helvetica,sans-Serif" font-size="10.00">HOLOGRAM</text>
</a>
</g>
</g>
<!-- Node1&#45;&gt;Node4 -->
<g id="edge3_Node000001_Node000004" class="edge">
<title>Node1&#45;&gt;Node4</title>
<g id="a_edge3_Node000001_Node000004"><a xlink:title=" ">
<path fill="none" stroke="#63b8ff" d="M262.1,-50.86C240.38,-41.02 210.84,-27.64 191.84,-19.03"/>
<polygon fill="#63b8ff" stroke="#63b8ff" points="260.91,-54.16 271.46,-55.1 263.8,-47.79 260.91,-54.16"/>
</a>
</g>
</g>
<!-- Node5 -->
<g id="Node000005" class="node">
<title>Node5</title>
<g id="a_Node000005"><a xlink:href="structLOOKER.html" target="_top" xlink:title="Looker shader animation.">
<polygon fill="white" stroke="#666666" points="284,-19 228,-19 228,0 284,0 284,-19"/>
<text text-anchor="middle" x="256" y="-7" font-family="Helvetica,sans-Serif" font-size="10.00">LOOKER</text>
</a>
</g>
</g>
<!-- Node1&#45;&gt;Node5 -->
<g id="edge4_Node000001_Node000005" class="edge">
<title>Node1&#45;&gt;Node5</title>
<g id="a_edge4_Node000001_Node000005"><a xlink:title=" ">
<path fill="none" stroke="#63b8ff" d="M278.84,-46.1C273.03,-37.04 266.18,-26.37 261.51,-19.09"/>
<polygon fill="#63b8ff" stroke="#63b8ff" points="276.04,-48.22 284.39,-54.75 281.93,-44.44 276.04,-48.22"/>
</a>
</g>
</g>
<!-- Node6 -->
<g id="Node000006" class="node">
<title>Node6</title>
<g id="a_Node000006"><a xlink:href="structLOOP.html" target="_top" xlink:title="Loop shader animation.">
<polygon fill="white" stroke="#666666" points="345.5,-19 302.5,-19 302.5,0 345.5,0 345.5,-19"/>
<text text-anchor="middle" x="324" y="-7" font-family="Helvetica,sans-Serif" font-size="10.00">LOOP</text>
</a>
</g>
</g>
<!-- Node1&#45;&gt;Node6 -->
<g id="edge5_Node000001_Node000006" class="edge">
<title>Node1&#45;&gt;Node6</title>
<g id="a_edge5_Node000001_Node000006"><a xlink:title=" ">
<path fill="none" stroke="#63b8ff" d="M301.16,-46.1C306.97,-37.04 313.82,-26.37 318.49,-19.09"/>
<polygon fill="#63b8ff" stroke="#63b8ff" points="298.07,-44.44 295.61,-54.75 303.96,-48.22 298.07,-44.44"/>
</a>
</g>
</g>
<!-- Node7 -->
<g id="Node000007" class="node">
<title>Node7</title>
<g id="a_Node000007"><a xlink:href="structPINGPONG.html" target="_top" xlink:title="Ping&#45;pong shader animation.">
<polygon fill="white" stroke="#666666" points="432.5,-19 363.5,-19 363.5,0 432.5,0 432.5,-19"/>
<text text-anchor="middle" x="398" y="-7" font-family="Helvetica,sans-Serif" font-size="10.00">PINGPONG</text>
</a>
</g>
</g>
<!-- Node1&#45;&gt;Node7 -->
<g id="edge6_Node000001_Node000007" class="edge">
<title>Node1&#45;&gt;Node7</title>
<g id="a_edge6_Node000001_Node000007"><a xlink:title=" ">
<path fill="none" stroke="#63b8ff" d="M316.49,-50.5C336.36,-40.75 363,-27.68 380.33,-19.17"/>
<polygon fill="#63b8ff" stroke="#63b8ff" points="314.79,-47.44 307.35,-54.98 317.87,-53.72 314.79,-47.44"/>
</a>
</g>
</g>
<!-- Node8 -->
<g id="Node000008" class="node">
<title>Node8</title>
<g id="a_Node000008"><a xlink:href="structSCROLLER.html" target="_top" xlink:title="UV Scrolling shader animation.">
<polygon fill="white" stroke="#666666" points="517.5,-19 450.5,-19 450.5,0 517.5,0 517.5,-19"/>
<text text-anchor="middle" x="484" y="-7" font-family="Helvetica,sans-Serif" font-size="10.00">SCROLLER</text>
</a>
</g>
</g>
<!-- Node1&#45;&gt;Node8 -->
<g id="edge7_Node000001_Node000008" class="edge">
<title>Node1&#45;&gt;Node8</title>
<g id="a_edge7_Node000001_Node000008"><a xlink:title=" ">
<path fill="none" stroke="#63b8ff" d="M318.42,-55.74C354.25,-45.95 415.63,-29.18 452.75,-19.04"/>
<polygon fill="#63b8ff" stroke="#63b8ff" points="317.33,-52.41 308.6,-58.42 319.17,-59.16 317.33,-52.41"/>
</a>
</g>
</g>
<!-- Node9 -->
<g id="Node000009" class="node">
<title>Node9</title>
<g id="a_Node000009"><a xlink:href="structSHUFFLE.html" target="_top" xlink:title="Suffle shader animation.">
<polygon fill="white" stroke="#666666" points="596.5,-19 535.5,-19 535.5,0 596.5,0 596.5,-19"/>
<text text-anchor="middle" x="566" y="-7" font-family="Helvetica,sans-Serif" font-size="10.00">SHUFFLE</text>
</a>
</g>
</g>
<!-- Node1&#45;&gt;Node9 -->
<g id="edge8_Node000001_Node000009" class="edge">
<title>Node1&#45;&gt;Node9</title>
<g id="a_edge8_Node000001_Node000009"><a xlink:title=" ">
<path fill="none" stroke="#63b8ff" d="M318.62,-58.4C363.22,-50.4 451.98,-34.21 527,-19 529.72,-18.45 532.54,-17.86 535.36,-17.27"/>
<polygon fill="#63b8ff" stroke="#63b8ff" points="318,-54.96 308.78,-60.17 319.24,-61.85 318,-54.96"/>
</a>
</g>
</g>
</g>
</svg>
