<?xml version="1.0" encoding="UTF-8" standalone="no"?>
<!DOCTYPE svg PUBLIC "-//W3C//DTD SVG 1.1//EN"
 "http://www.w3.org/Graphics/SVG/1.1/DTD/svg11.dtd">
<!-- Generated by graphviz version 2.43.0 (0)
 -->
<!-- Title: SMARTGUARD Pages: 1 -->
<svg width="94pt" height="412pt"
 viewBox="0.00 0.00 94.00 412.00" xmlns="http://www.w3.org/2000/svg" xmlns:xlink="http://www.w3.org/1999/xlink">

<svg id="main" version="1.1" xmlns="http://www.w3.org/2000/svg" xmlns:xlink="http://www.w3.org/1999/xlink" xml:space="preserve" onload="init(evt)">
<style type="text/css"><![CDATA[
.node, .edge {opacity: 0.7;}
.node.selected, .edge.selected {opacity: 1;}
.edge:hover path { stroke: red; }
.edge:hover polygon { stroke: red; fill: red; }
]]></style>
<script type="application/ecmascript" xlink:href="svg.min.js"/>
<svg id="graph" class="graph">
<g id="graph0" class="graph" transform="scale(1 1) rotate(0) translate(4 408)">
<title>SMARTGUARD</title>
<!-- Node1 -->
<g id="Node000001" class="node">
<title>Node1</title>
<g id="a_Node000001"><a xlink:title=" ">
<polygon fill="#999999" stroke="#666666" points="86,-19 0,-19 0,0 86,0 86,-19"/>
<text text-anchor="middle" x="43" y="-7" font-family="Helvetica,sans-Serif" font-size="10.00">SMARTGUARD</text>
</a>
</g>
</g>
<!-- Node2 -->
<g id="Node000002" class="node">
<title>Node2</title>
<g id="a_Node000002"><a xlink:href="structSTEPGUARD.html" target="_top" xlink:title=" ">
<polygon fill="white" stroke="#666666" points="81.5,-74 4.5,-74 4.5,-55 81.5,-55 81.5,-74"/>
<text text-anchor="middle" x="43" y="-62" font-family="Helvetica,sans-Serif" font-size="10.00">STEPGUARD</text>
</a>
</g>
</g>
<!-- Node2&#45;&gt;Node1 -->
<g id="edge1_Node000001_Node000002" class="edge">
<title>Node2&#45;&gt;Node1</title>
<g id="a_edge1_Node000001_Node000002"><a xlink:title=" ">
<path fill="none" stroke="#63b8ff" d="M43,-44.66C43,-35.93 43,-25.99 43,-19.09"/>
<polygon fill="#63b8ff" stroke="#63b8ff" points="39.5,-44.75 43,-54.75 46.5,-44.75 39.5,-44.75"/>
</a>
</g>
</g>
<!-- Node3 -->
<g id="Node000003" class="node">
<title>Node3</title>
<g id="a_Node000003"><a xlink:href="structSTEP.html" target="_top" xlink:title="STEP_FIGURE.">
<polygon fill="white" stroke="#666666" points="63.5,-129 22.5,-129 22.5,-110 63.5,-110 63.5,-129"/>
<text text-anchor="middle" x="43" y="-117" font-family="Helvetica,sans-Serif" font-size="10.00">STEP</text>
</a>
</g>
</g>
<!-- Node3&#45;&gt;Node2 -->
<g id="edge2_Node000002_Node000003" class="edge">
<title>Node3&#45;&gt;Node2</title>
<g id="a_edge2_Node000002_Node000003"><a xlink:title=" ">
<path fill="none" stroke="#63b8ff" d="M43,-99.66C43,-90.93 43,-80.99 43,-74.09"/>
<polygon fill="#63b8ff" stroke="#63b8ff" points="39.5,-99.75 43,-109.75 46.5,-99.75 39.5,-99.75"/>
</a>
</g>
</g>
<!-- Node4 -->
<g id="Node000004" class="node">
<title>Node4</title>
<g id="a_Node000004"><a xlink:href="structPO.html" target="_top" xlink:title="Used for playable objects (e.g. JT).">
<polygon fill="white" stroke="#666666" points="58,-184 28,-184 28,-165 58,-165 58,-184"/>
<text text-anchor="middle" x="43" y="-172" font-family="Helvetica,sans-Serif" font-size="10.00">PO</text>
</a>
</g>
</g>
<!-- Node4&#45;&gt;Node3 -->
<g id="edge3_Node000003_Node000004" class="edge">
<title>Node4&#45;&gt;Node3</title>
<g id="a_edge3_Node000003_Node000004"><a xlink:title=" ">
<path fill="none" stroke="#63b8ff" d="M43,-154.66C43,-145.93 43,-135.99 43,-129.09"/>
<polygon fill="#63b8ff" stroke="#63b8ff" points="39.5,-154.75 43,-164.75 46.5,-154.75 39.5,-154.75"/>
</a>
</g>
</g>
<!-- Node5 -->
<g id="Node000005" class="node">
<title>Node5</title>
<g id="a_Node000005"><a xlink:href="structSO.html" target="_top" xlink:title=" ">
<polygon fill="white" stroke="#666666" points="58,-239 28,-239 28,-220 58,-220 58,-239"/>
<text text-anchor="middle" x="43" y="-227" font-family="Helvetica,sans-Serif" font-size="10.00">SO</text>
</a>
</g>
</g>
<!-- Node5&#45;&gt;Node4 -->
<g id="edge4_Node000004_Node000005" class="edge">
<title>Node5&#45;&gt;Node4</title>
<g id="a_edge4_Node000004_Node000005"><a xlink:title=" ">
<path fill="none" stroke="#63b8ff" d="M43,-209.66C43,-200.93 43,-190.99 43,-184.09"/>
<polygon fill="#63b8ff" stroke="#63b8ff" points="39.5,-209.75 43,-219.75 46.5,-209.75 39.5,-209.75"/>
</a>
</g>
</g>
<!-- Node6 -->
<g id="Node000006" class="node">
<title>Node6</title>
<g id="a_Node000006"><a xlink:href="structALO.html" target="_top" xlink:title=" ">
<polygon fill="white" stroke="#666666" points="61,-294 25,-294 25,-275 61,-275 61,-294"/>
<text text-anchor="middle" x="43" y="-282" font-family="Helvetica,sans-Serif" font-size="10.00">ALO</text>
</a>
</g>
</g>
<!-- Node6&#45;&gt;Node5 -->
<g id="edge5_Node000005_Node000006" class="edge">
<title>Node6&#45;&gt;Node5</title>
<g id="a_edge5_Node000005_Node000006"><a xlink:title=" ">
<path fill="none" stroke="#63b8ff" d="M43,-264.66C43,-255.93 43,-245.99 43,-239.09"/>
<polygon fill="#63b8ff" stroke="#63b8ff" points="39.5,-264.75 43,-274.75 46.5,-264.75 39.5,-264.75"/>
</a>
</g>
</g>
<!-- Node7 -->
<g id="Node000007" class="node">
<title>Node7</title>
<g id="a_Node000007"><a xlink:href="structLO.html" target="_top" xlink:title="Live Object, base class for all objects that exist in the world.">
<polygon fill="white" stroke="#666666" points="57.5,-349 28.5,-349 28.5,-330 57.5,-330 57.5,-349"/>
<text text-anchor="middle" x="43" y="-337" font-family="Helvetica,sans-Serif" font-size="10.00">LO</text>
</a>
</g>
</g>
<!-- Node7&#45;&gt;Node6 -->
<g id="edge6_Node000006_Node000007" class="edge">
<title>Node7&#45;&gt;Node6</title>
<g id="a_edge6_Node000006_Node000007"><a xlink:title=" ">
<path fill="none" stroke="#63b8ff" d="M43,-319.66C43,-310.93 43,-300.99 43,-294.09"/>
<polygon fill="#63b8ff" stroke="#63b8ff" points="39.5,-319.75 43,-329.75 46.5,-319.75 39.5,-319.75"/>
</a>
</g>
</g>
<!-- Node8 -->
<g id="Node000008" class="node">
<title>Node8</title>
<g id="a_Node000008"><a xlink:href="structBASIC.html" target="_top" xlink:title="Base object for most other kinds of objects.">
<polygon fill="white" stroke="#666666" points="66,-404 20,-404 20,-385 66,-385 66,-404"/>
<text text-anchor="middle" x="43" y="-392" font-family="Helvetica,sans-Serif" font-size="10.00">BASIC</text>
</a>
</g>
</g>
<!-- Node8&#45;&gt;Node7 -->
<g id="edge7_Node000007_Node000008" class="edge">
<title>Node8&#45;&gt;Node7</title>
<g id="a_edge7_Node000007_Node000008"><a xlink:title=" ">
<path fill="none" stroke="#63b8ff" d="M43,-374.66C43,-365.93 43,-355.99 43,-349.09"/>
<polygon fill="#63b8ff" stroke="#63b8ff" points="39.5,-374.75 43,-384.75 46.5,-374.75 39.5,-374.75"/>
</a>
</g>
</g>
</g>
</svg>
</svg>

<style type='text/css'>
<![CDATA[
[data-mouse-over-selected='false'] { opacity: 0.7; }
[data-mouse-over-selected='true']  { opacity: 1.0; }
]]>
</style>
<script type="application/ecmascript"><![CDATA[
document.addEventListener('DOMContentLoaded', (event) => {
  highlightEdges();
  highlightAdjacentNodes();
});
]]></script>
</svg>
