<?xml version="1.0" encoding="UTF-8" standalone="no"?>
<!DOCTYPE svg PUBLIC "-//W3C//DTD SVG 1.1//EN"
 "http://www.w3.org/Graphics/SVG/1.1/DTD/svg11.dtd">
<!-- Generated by graphviz version 2.43.0 (0)
 -->
<!-- Title: FLASH Pages: 1 -->
<svg width="57pt" height="196pt"
 viewBox="0.00 0.00 57.00 196.00" xmlns="http://www.w3.org/2000/svg" xmlns:xlink="http://www.w3.org/1999/xlink">
<g id="graph0" class="graph" transform="scale(1 1) rotate(0) translate(4 192)">
<title>FLASH</title>
<polygon fill="white" stroke="transparent" points="-4,4 -4,-192 53,-192 53,4 -4,4"/>
<!-- Node1 -->
<g id="node1" class="node">
<title>Node1</title>
<g id="a_node1"><a xlink:title="Flash.">
<polygon fill="#bfbfbf" stroke="black" points="0,-0.5 0,-19.5 49,-19.5 49,-0.5 0,-0.5"/>
<text text-anchor="middle" x="24.5" y="-7.5" font-family="Helvetica,sans-Serif" font-size="10.00">FLASH</text>
</a>
</g>
</g>
<!-- Node2 -->
<g id="node2" class="node">
<title>Node2</title>
<g id="a_node2"><a xlink:href="structALO.html" target="_top" xlink:title="&quot;Lightweight&quot;">
<polygon fill="white" stroke="black" points="6.5,-56.5 6.5,-75.5 42.5,-75.5 42.5,-56.5 6.5,-56.5"/>
<text text-anchor="middle" x="24.5" y="-63.5" font-family="Helvetica,sans-Serif" font-size="10.00">ALO</text>
</a>
</g>
</g>
<!-- Node2&#45;&gt;Node1 -->
<g id="edge1" class="edge">
<title>Node2&#45;&gt;Node1</title>
<path fill="none" stroke="midnightblue" d="M24.5,-45.8C24.5,-36.91 24.5,-26.78 24.5,-19.75"/>
<polygon fill="midnightblue" stroke="midnightblue" points="21,-46.08 24.5,-56.08 28,-46.08 21,-46.08"/>
</g>
<!-- Node3 -->
<g id="node3" class="node">
<title>Node3</title>
<g id="a_node3"><a xlink:href="structLO.html" target="_top" xlink:title="&quot;LO&quot;">
<polygon fill="white" stroke="black" points="10,-112.5 10,-131.5 39,-131.5 39,-112.5 10,-112.5"/>
<text text-anchor="middle" x="24.5" y="-119.5" font-family="Helvetica,sans-Serif" font-size="10.00">LO</text>
</a>
</g>
</g>
<!-- Node3&#45;&gt;Node2 -->
<g id="edge2" class="edge">
<title>Node3&#45;&gt;Node2</title>
<path fill="none" stroke="midnightblue" d="M24.5,-101.8C24.5,-92.91 24.5,-82.78 24.5,-75.75"/>
<polygon fill="midnightblue" stroke="midnightblue" points="21,-102.08 24.5,-112.08 28,-102.08 21,-102.08"/>
</g>
<!-- Node4 -->
<g id="node4" class="node">
<title>Node4</title>
<g id="a_node4"><a xlink:href="structBASIC.html" target="_top" xlink:title="Basic object.">
<polygon fill="white" stroke="black" points="1.5,-168.5 1.5,-187.5 47.5,-187.5 47.5,-168.5 1.5,-168.5"/>
<text text-anchor="middle" x="24.5" y="-175.5" font-family="Helvetica,sans-Serif" font-size="10.00">BASIC</text>
</a>
</g>
</g>
<!-- Node4&#45;&gt;Node3 -->
<g id="edge3" class="edge">
<title>Node4&#45;&gt;Node3</title>
<path fill="none" stroke="midnightblue" d="M24.5,-157.8C24.5,-148.91 24.5,-138.78 24.5,-131.75"/>
<polygon fill="midnightblue" stroke="midnightblue" points="21,-158.08 24.5,-168.08 28,-158.08 21,-158.08"/>
</g>
</g>
</svg>
