<?xml version="1.0" encoding="UTF-8" standalone="no"?>
<!DOCTYPE svg PUBLIC "-//W3C//DTD SVG 1.1//EN"
 "http://www.w3.org/Graphics/SVG/1.1/DTD/svg11.dtd">
<!-- Generated by graphviz version 2.43.0 (0)
 -->
<!-- Title: ASEG Pages: 1 -->
<svg width="63pt" height="196pt"
 viewBox="0.00 0.00 63.00 196.00" xmlns="http://www.w3.org/2000/svg" xmlns:xlink="http://www.w3.org/1999/xlink">
<g id="graph0" class="graph" transform="scale(1 1) rotate(0) translate(4 192)">
<title>ASEG</title>
<polygon fill="white" stroke="transparent" points="-4,4 -4,-192 59,-192 59,4 -4,4"/>
<!-- Node1 -->
<g id="node1" class="node">
<title>Node1</title>
<g id="a_node1"><a xlink:title="Animation segment.">
<polygon fill="#bfbfbf" stroke="black" points="6,-56.5 6,-75.5 49,-75.5 49,-56.5 6,-56.5"/>
<text text-anchor="middle" x="27.5" y="-63.5" font-family="Helvetica,sans-Serif" font-size="10.00">ASEG</text>
</a>
</g>
</g>
<!-- Node4 -->
<g id="node4" class="node">
<title>Node4</title>
<g id="a_node4"><a xlink:href="structASEGBL.html" target="_top" xlink:title="Animation segment blend.">
<polygon fill="white" stroke="black" points="0,-0.5 0,-19.5 55,-19.5 55,-0.5 0,-0.5"/>
<text text-anchor="middle" x="27.5" y="-7.5" font-family="Helvetica,sans-Serif" font-size="10.00">ASEGBL</text>
</a>
</g>
</g>
<!-- Node1&#45;&gt;Node4 -->
<g id="edge3" class="edge">
<title>Node1&#45;&gt;Node4</title>
<path fill="none" stroke="midnightblue" d="M27.5,-45.8C27.5,-36.91 27.5,-26.78 27.5,-19.75"/>
<polygon fill="midnightblue" stroke="midnightblue" points="24,-46.08 27.5,-56.08 31,-46.08 24,-46.08"/>
</g>
<!-- Node2 -->
<g id="node2" class="node">
<title>Node2</title>
<g id="a_node2"><a xlink:href="structLO.html" target="_top" xlink:title="&quot;LO&quot;">
<polygon fill="white" stroke="black" points="13,-112.5 13,-131.5 42,-131.5 42,-112.5 13,-112.5"/>
<text text-anchor="middle" x="27.5" y="-119.5" font-family="Helvetica,sans-Serif" font-size="10.00">LO</text>
</a>
</g>
</g>
<!-- Node2&#45;&gt;Node1 -->
<g id="edge1" class="edge">
<title>Node2&#45;&gt;Node1</title>
<path fill="none" stroke="midnightblue" d="M27.5,-101.8C27.5,-92.91 27.5,-82.78 27.5,-75.75"/>
<polygon fill="midnightblue" stroke="midnightblue" points="24,-102.08 27.5,-112.08 31,-102.08 24,-102.08"/>
</g>
<!-- Node3 -->
<g id="node3" class="node">
<title>Node3</title>
<g id="a_node3"><a xlink:href="structBASIC.html" target="_top" xlink:title="Basic object.">
<polygon fill="white" stroke="black" points="4.5,-168.5 4.5,-187.5 50.5,-187.5 50.5,-168.5 4.5,-168.5"/>
<text text-anchor="middle" x="27.5" y="-175.5" font-family="Helvetica,sans-Serif" font-size="10.00">BASIC</text>
</a>
</g>
</g>
<!-- Node3&#45;&gt;Node2 -->
<g id="edge2" class="edge">
<title>Node3&#45;&gt;Node2</title>
<path fill="none" stroke="midnightblue" d="M27.5,-157.8C27.5,-148.91 27.5,-138.78 27.5,-131.75"/>
<polygon fill="midnightblue" stroke="midnightblue" points="24,-158.08 27.5,-168.08 31,-158.08 24,-158.08"/>
</g>
</g>
</svg>
