<?xml version="1.0" encoding="UTF-8" standalone="no"?>
<!DOCTYPE svg PUBLIC "-//W3C//DTD SVG 1.1//EN"
 "http://www.w3.org/Graphics/SVG/1.1/DTD/svg11.dtd">
<!-- Generated by graphviz version 2.43.0 (0)
 -->
<!-- Title: JT Pages: 1 -->
<svg width="54pt" height="357pt"
 viewBox="0.00 0.00 54.00 357.00" xmlns="http://www.w3.org/2000/svg" xmlns:xlink="http://www.w3.org/1999/xlink">

<svg id="main" version="1.1" xmlns="http://www.w3.org/2000/svg" xmlns:xlink="http://www.w3.org/1999/xlink" xml:space="preserve" onload="init(evt)">
<style type="text/css"><![CDATA[
.node, .edge {opacity: 0.7;}
.node.selected, .edge.selected {opacity: 1;}
.edge:hover path { stroke: red; }
.edge:hover polygon { stroke: red; fill: red; }
]]></style>
<script type="application/ecmascript" xlink:href="svg.min.js"/>
<svg id="graph" class="graph">
<g id="graph0" class="graph" transform="scale(1 1) rotate(0) translate(4 353)">
<title>JT</title>
<!-- Node1 -->
<g id="Node000001" class="node">
<title>Node1</title>
<g id="a_Node000001"><a xlink:title="Jewel thief (AKA Sly Cooper).">
<polygon fill="#999999" stroke="#666666" points="37.5,-19 8.5,-19 8.5,0 37.5,0 37.5,-19"/>
<text text-anchor="middle" x="23" y="-7" font-family="Helvetica,sans-Serif" font-size="10.00">JT</text>
</a>
</g>
</g>
<!-- Node2 -->
<g id="Node000002" class="node">
<title>Node2</title>
<g id="a_Node000002"><a xlink:href="structSTEP.html" target="_top" xlink:title="STEP_FIGURE.">
<polygon fill="white" stroke="#666666" points="43.5,-74 2.5,-74 2.5,-55 43.5,-55 43.5,-74"/>
<text text-anchor="middle" x="23" y="-62" font-family="Helvetica,sans-Serif" font-size="10.00">STEP</text>
</a>
</g>
</g>
<!-- Node2&#45;&gt;Node1 -->
<g id="edge1_Node000001_Node000002" class="edge">
<title>Node2&#45;&gt;Node1</title>
<g id="a_edge1_Node000001_Node000002"><a xlink:title=" ">
<path fill="none" stroke="#63b8ff" d="M23,-44.66C23,-35.93 23,-25.99 23,-19.09"/>
<polygon fill="#63b8ff" stroke="#63b8ff" points="19.5,-44.75 23,-54.75 26.5,-44.75 19.5,-44.75"/>
</a>
</g>
</g>
<!-- Node3 -->
<g id="Node000003" class="node">
<title>Node3</title>
<g id="a_Node000003"><a xlink:href="structPO.html" target="_top" xlink:title="Used for playable objects (e.g. JT).">
<polygon fill="white" stroke="#666666" points="38,-129 8,-129 8,-110 38,-110 38,-129"/>
<text text-anchor="middle" x="23" y="-117" font-family="Helvetica,sans-Serif" font-size="10.00">PO</text>
</a>
</g>
</g>
<!-- Node3&#45;&gt;Node2 -->
<g id="edge2_Node000002_Node000003" class="edge">
<title>Node3&#45;&gt;Node2</title>
<g id="a_edge2_Node000002_Node000003"><a xlink:title=" ">
<path fill="none" stroke="#63b8ff" d="M23,-99.66C23,-90.93 23,-80.99 23,-74.09"/>
<polygon fill="#63b8ff" stroke="#63b8ff" points="19.5,-99.75 23,-109.75 26.5,-99.75 19.5,-99.75"/>
</a>
</g>
</g>
<!-- Node4 -->
<g id="Node000004" class="node">
<title>Node4</title>
<g id="a_Node000004"><a xlink:href="structSO.html" target="_top" xlink:title=" ">
<polygon fill="white" stroke="#666666" points="38,-184 8,-184 8,-165 38,-165 38,-184"/>
<text text-anchor="middle" x="23" y="-172" font-family="Helvetica,sans-Serif" font-size="10.00">SO</text>
</a>
</g>
</g>
<!-- Node4&#45;&gt;Node3 -->
<g id="edge3_Node000003_Node000004" class="edge">
<title>Node4&#45;&gt;Node3</title>
<g id="a_edge3_Node000003_Node000004"><a xlink:title=" ">
<path fill="none" stroke="#63b8ff" d="M23,-154.66C23,-145.93 23,-135.99 23,-129.09"/>
<polygon fill="#63b8ff" stroke="#63b8ff" points="19.5,-154.75 23,-164.75 26.5,-154.75 19.5,-154.75"/>
</a>
</g>
</g>
<!-- Node5 -->
<g id="Node000005" class="node">
<title>Node5</title>
<g id="a_Node000005"><a xlink:href="structALO.html" target="_top" xlink:title=" ">
<polygon fill="white" stroke="#666666" points="41,-239 5,-239 5,-220 41,-220 41,-239"/>
<text text-anchor="middle" x="23" y="-227" font-family="Helvetica,sans-Serif" font-size="10.00">ALO</text>
</a>
</g>
</g>
<!-- Node5&#45;&gt;Node4 -->
<g id="edge4_Node000004_Node000005" class="edge">
<title>Node5&#45;&gt;Node4</title>
<g id="a_edge4_Node000004_Node000005"><a xlink:title=" ">
<path fill="none" stroke="#63b8ff" d="M23,-209.66C23,-200.93 23,-190.99 23,-184.09"/>
<polygon fill="#63b8ff" stroke="#63b8ff" points="19.5,-209.75 23,-219.75 26.5,-209.75 19.5,-209.75"/>
</a>
</g>
</g>
<!-- Node6 -->
<g id="Node000006" class="node">
<title>Node6</title>
<g id="a_Node000006"><a xlink:href="structLO.html" target="_top" xlink:title="Live Object, base class for all objects that exist in the world.">
<polygon fill="white" stroke="#666666" points="37.5,-294 8.5,-294 8.5,-275 37.5,-275 37.5,-294"/>
<text text-anchor="middle" x="23" y="-282" font-family="Helvetica,sans-Serif" font-size="10.00">LO</text>
</a>
</g>
</g>
<!-- Node6&#45;&gt;Node5 -->
<g id="edge5_Node000005_Node000006" class="edge">
<title>Node6&#45;&gt;Node5</title>
<g id="a_edge5_Node000005_Node000006"><a xlink:title=" ">
<path fill="none" stroke="#63b8ff" d="M23,-264.66C23,-255.93 23,-245.99 23,-239.09"/>
<polygon fill="#63b8ff" stroke="#63b8ff" points="19.5,-264.75 23,-274.75 26.5,-264.75 19.5,-264.75"/>
</a>
</g>
</g>
<!-- Node7 -->
<g id="Node000007" class="node">
<title>Node7</title>
<g id="a_Node000007"><a xlink:href="structBASIC.html" target="_top" xlink:title="Base object for most other kinds of objects.">
<polygon fill="white" stroke="#666666" points="46,-349 0,-349 0,-330 46,-330 46,-349"/>
<text text-anchor="middle" x="23" y="-337" font-family="Helvetica,sans-Serif" font-size="10.00">BASIC</text>
</a>
</g>
</g>
<!-- Node7&#45;&gt;Node6 -->
<g id="edge6_Node000006_Node000007" class="edge">
<title>Node7&#45;&gt;Node6</title>
<g id="a_edge6_Node000006_Node000007"><a xlink:title=" ">
<path fill="none" stroke="#63b8ff" d="M23,-319.66C23,-310.93 23,-300.99 23,-294.09"/>
<polygon fill="#63b8ff" stroke="#63b8ff" points="19.5,-319.75 23,-329.75 26.5,-319.75 19.5,-319.75"/>
</a>
</g>
</g>
</g>
</svg>
</svg>

<style type='text/css'>
<![CDATA[
[data-mouse-over-selected='false'] { opacity: 0.7; }
[data-mouse-over-selected='true']  { opacity: 1.0; }
]]>
</style>
<script type="application/ecmascript"><![CDATA[
document.addEventListener('DOMContentLoaded', (event) => {
  highlightEdges();
  highlightAdjacentNodes();
});
]]></script>
</svg>
