<?xml version="1.0" encoding="UTF-8" standalone="no"?>
<!DOCTYPE svg PUBLIC "-//W3C//DTD SVG 1.1//EN"
 "http://www.w3.org/Graphics/SVG/1.1/DTD/svg11.dtd">
<!-- Generated by graphviz version 2.43.0 (0)
 -->
<!-- Title: FRAGILE Pages: 1 -->
<svg width="66pt" height="302pt"
 viewBox="0.00 0.00 66.00 302.00" xmlns="http://www.w3.org/2000/svg" xmlns:xlink="http://www.w3.org/1999/xlink">
<g id="graph0" class="graph" transform="scale(1 1) rotate(0) translate(4 298)">
<title>FRAGILE</title>
<!-- Node1 -->
<g id="Node000001" class="node">
<title>Node1</title>
<g id="a_Node000001"><a xlink:title="Unknown.">
<polygon fill="#999999" stroke="#666666" points="58,-19 0,-19 0,0 58,0 58,-19"/>
<text text-anchor="middle" x="29" y="-7" font-family="Helvetica,sans-Serif" font-size="10.00">FRAGILE</text>
</a>
</g>
</g>
<!-- Node2 -->
<g id="Node000002" class="node">
<title>Node2</title>
<g id="a_Node000002"><a xlink:href="structBRK.html" target="_top" xlink:title=" ">
<polygon fill="white" stroke="#666666" points="47.5,-74 10.5,-74 10.5,-55 47.5,-55 47.5,-74"/>
<text text-anchor="middle" x="29" y="-62" font-family="Helvetica,sans-Serif" font-size="10.00">BRK</text>
</a>
</g>
</g>
<!-- Node2&#45;&gt;Node1 -->
<g id="edge1_Node000001_Node000002" class="edge">
<title>Node2&#45;&gt;Node1</title>
<g id="a_edge1_Node000001_Node000002"><a xlink:title=" ">
<path fill="none" stroke="#63b8ff" d="M29,-44.66C29,-35.93 29,-25.99 29,-19.09"/>
<polygon fill="#63b8ff" stroke="#63b8ff" points="25.5,-44.75 29,-54.75 32.5,-44.75 25.5,-44.75"/>
</a>
</g>
</g>
<!-- Node3 -->
<g id="Node000003" class="node">
<title>Node3</title>
<g id="a_Node000003"><a xlink:href="structSO.html" target="_top" xlink:title=" ">
<polygon fill="white" stroke="#666666" points="44,-129 14,-129 14,-110 44,-110 44,-129"/>
<text text-anchor="middle" x="29" y="-117" font-family="Helvetica,sans-Serif" font-size="10.00">SO</text>
</a>
</g>
</g>
<!-- Node3&#45;&gt;Node2 -->
<g id="edge2_Node000002_Node000003" class="edge">
<title>Node3&#45;&gt;Node2</title>
<g id="a_edge2_Node000002_Node000003"><a xlink:title=" ">
<path fill="none" stroke="#63b8ff" d="M29,-99.66C29,-90.93 29,-80.99 29,-74.09"/>
<polygon fill="#63b8ff" stroke="#63b8ff" points="25.5,-99.75 29,-109.75 32.5,-99.75 25.5,-99.75"/>
</a>
</g>
</g>
<!-- Node4 -->
<g id="Node000004" class="node">
<title>Node4</title>
<g id="a_Node000004"><a xlink:href="structALO.html" target="_top" xlink:title=" ">
<polygon fill="white" stroke="#666666" points="47,-184 11,-184 11,-165 47,-165 47,-184"/>
<text text-anchor="middle" x="29" y="-172" font-family="Helvetica,sans-Serif" font-size="10.00">ALO</text>
</a>
</g>
</g>
<!-- Node4&#45;&gt;Node3 -->
<g id="edge3_Node000003_Node000004" class="edge">
<title>Node4&#45;&gt;Node3</title>
<g id="a_edge3_Node000003_Node000004"><a xlink:title=" ">
<path fill="none" stroke="#63b8ff" d="M29,-154.66C29,-145.93 29,-135.99 29,-129.09"/>
<polygon fill="#63b8ff" stroke="#63b8ff" points="25.5,-154.75 29,-164.75 32.5,-154.75 25.5,-154.75"/>
</a>
</g>
</g>
<!-- Node5 -->
<g id="Node000005" class="node">
<title>Node5</title>
<g id="a_Node000005"><a xlink:href="structLO.html" target="_top" xlink:title="Live Object, base class for all objects that exist in the world.">
<polygon fill="white" stroke="#666666" points="43.5,-239 14.5,-239 14.5,-220 43.5,-220 43.5,-239"/>
<text text-anchor="middle" x="29" y="-227" font-family="Helvetica,sans-Serif" font-size="10.00">LO</text>
</a>
</g>
</g>
<!-- Node5&#45;&gt;Node4 -->
<g id="edge4_Node000004_Node000005" class="edge">
<title>Node5&#45;&gt;Node4</title>
<g id="a_edge4_Node000004_Node000005"><a xlink:title=" ">
<path fill="none" stroke="#63b8ff" d="M29,-209.66C29,-200.93 29,-190.99 29,-184.09"/>
<polygon fill="#63b8ff" stroke="#63b8ff" points="25.5,-209.75 29,-219.75 32.5,-209.75 25.5,-209.75"/>
</a>
</g>
</g>
<!-- Node6 -->
<g id="Node000006" class="node">
<title>Node6</title>
<g id="a_Node000006"><a xlink:href="structBASIC.html" target="_top" xlink:title="Base object for most other kinds of objects.">
<polygon fill="white" stroke="#666666" points="52,-294 6,-294 6,-275 52,-275 52,-294"/>
<text text-anchor="middle" x="29" y="-282" font-family="Helvetica,sans-Serif" font-size="10.00">BASIC</text>
</a>
</g>
</g>
<!-- Node6&#45;&gt;Node5 -->
<g id="edge5_Node000005_Node000006" class="edge">
<title>Node6&#45;&gt;Node5</title>
<g id="a_edge5_Node000005_Node000006"><a xlink:title=" ">
<path fill="none" stroke="#63b8ff" d="M29,-264.66C29,-255.93 29,-245.99 29,-239.09"/>
<polygon fill="#63b8ff" stroke="#63b8ff" points="25.5,-264.75 29,-274.75 32.5,-264.75 25.5,-264.75"/>
</a>
</g>
</g>
</g>
</svg>
