<?xml version="1.0" encoding="UTF-8" standalone="no"?>
<!DOCTYPE svg PUBLIC "-//W3C//DTD SVG 1.1//EN"
 "http://www.w3.org/Graphics/SVG/1.1/DTD/svg11.dtd">
<!-- Generated by graphviz version 2.43.0 (0)
 -->
<!-- Title: BLOT Pages: 1 -->
<svg width="869pt" height="137pt"
 viewBox="0.00 0.00 868.50 137.00" xmlns="http://www.w3.org/2000/svg" xmlns:xlink="http://www.w3.org/1999/xlink">
<g id="graph0" class="graph" transform="scale(1 1) rotate(0) translate(4 133)">
<title>BLOT</title>
<!-- Node1 -->
<g id="Node000001" class="node">
<title>Node1</title>
<g id="a_Node000001"><a xlink:title=" ">
<polygon fill="#999999" stroke="#666666" points="508,-129 466,-129 466,-110 508,-110 508,-129"/>
<text text-anchor="middle" x="487" y="-117" font-family="Helvetica,sans-Serif" font-size="10.00">BLOT</text>
</a>
</g>
</g>
<!-- Node2 -->
<g id="Node000002" class="node">
<title>Node2</title>
<g id="a_Node000002"><a xlink:href="structATTRACT.html" target="_top" xlink:title=" ">
<polygon fill="white" stroke="#666666" points="141.5,-74 80.5,-74 80.5,-55 141.5,-55 141.5,-74"/>
<text text-anchor="middle" x="111" y="-62" font-family="Helvetica,sans-Serif" font-size="10.00">ATTRACT</text>
</a>
</g>
</g>
<!-- Node1&#45;&gt;Node2 -->
<g id="edge1_Node000001_Node000002" class="edge">
<title>Node1&#45;&gt;Node2</title>
<g id="a_edge1_Node000001_Node000002"><a xlink:title=" ">
<path fill="none" stroke="#63b8ff" d="M455.42,-115.15C395.73,-108.63 262.37,-93.18 151,-74 147.92,-73.47 144.72,-72.87 141.53,-72.24"/>
<polygon fill="#63b8ff" stroke="#63b8ff" points="455.37,-118.66 465.68,-116.26 456.12,-111.7 455.37,-118.66"/>
</a>
</g>
</g>
<!-- Node3 -->
<g id="Node000003" class="node">
<title>Node3</title>
<g id="a_Node000003"><a xlink:href="structBINOC.html" target="_top" xlink:title=" ">
<polygon fill="white" stroke="#666666" points="208,-74 160,-74 160,-55 208,-55 208,-74"/>
<text text-anchor="middle" x="184" y="-62" font-family="Helvetica,sans-Serif" font-size="10.00">BINOC</text>
</a>
</g>
</g>
<!-- Node1&#45;&gt;Node3 -->
<g id="edge2_Node000001_Node000003" class="edge">
<title>Node1&#45;&gt;Node3</title>
<g id="a_edge2_Node000001_Node000003"><a xlink:title=" ">
<path fill="none" stroke="#63b8ff" d="M455.94,-114.3C405.54,-107.27 302.93,-92.11 217,-74 214.11,-73.39 211.08,-72.69 208.09,-71.97"/>
<polygon fill="#63b8ff" stroke="#63b8ff" points="455.49,-117.77 465.88,-115.67 456.45,-110.83 455.49,-117.77"/>
</a>
</g>
</g>
<!-- Node4 -->
<g id="Node000004" class="node">
<title>Node4</title>
<g id="a_Node000004"><a xlink:href="structCTR.html" target="_top" xlink:title=" ">
<polygon fill="white" stroke="#666666" points="262,-74 226,-74 226,-55 262,-55 262,-74"/>
<text text-anchor="middle" x="244" y="-62" font-family="Helvetica,sans-Serif" font-size="10.00">CTR</text>
</a>
</g>
</g>
<!-- Node1&#45;&gt;Node4 -->
<g id="edge3_Node000001_Node000004" class="edge">
<title>Node1&#45;&gt;Node4</title>
<g id="a_edge3_Node000001_Node000004"><a xlink:title=" ">
<path fill="none" stroke="#63b8ff" d="M456.07,-113.15C413.93,-105.63 336.25,-90.95 271,-74 268.15,-73.26 265.15,-72.4 262.23,-71.51"/>
<polygon fill="#63b8ff" stroke="#63b8ff" points="455.53,-116.61 465.99,-114.91 456.75,-109.72 455.53,-116.61"/>
</a>
</g>
</g>
<!-- Node11 -->
<g id="Node000011" class="node">
<title>Node11</title>
<g id="a_Node000011"><a xlink:href="structLETTERBOX.html" target="_top" xlink:title=" ">
<polygon fill="white" stroke="#666666" points="354,-74 280,-74 280,-55 354,-55 354,-74"/>
<text text-anchor="middle" x="317" y="-62" font-family="Helvetica,sans-Serif" font-size="10.00">LETTERBOX</text>
</a>
</g>
</g>
<!-- Node1&#45;&gt;Node11 -->
<g id="edge10_Node000001_Node000011" class="edge">
<title>Node1&#45;&gt;Node11</title>
<g id="a_edge10_Node000001_Node000011"><a xlink:title=" ">
<path fill="none" stroke="#63b8ff" d="M456.11,-108.87C424.21,-98.93 374.91,-83.55 344.37,-74.03"/>
<polygon fill="#63b8ff" stroke="#63b8ff" points="455.22,-112.26 465.81,-111.89 457.31,-105.58 455.22,-112.26"/>
</a>
</g>
</g>
<!-- Node12 -->
<g id="Node000012" class="node">
<title>Node12</title>
<g id="a_Node000012"><a xlink:href="structLGNR.html" target="_top" xlink:title="Light gun something (?).">
<polygon fill="white" stroke="#666666" points="416,-74 372,-74 372,-55 416,-55 416,-74"/>
<text text-anchor="middle" x="394" y="-62" font-family="Helvetica,sans-Serif" font-size="10.00">LGNR</text>
</a>
</g>
</g>
<!-- Node1&#45;&gt;Node12 -->
<g id="edge11_Node000001_Node000012" class="edge">
<title>Node1&#45;&gt;Node12</title>
<g id="a_edge11_Node000001_Node000012"><a xlink:title=" ">
<path fill="none" stroke="#63b8ff" d="M463.25,-104.97C446.25,-95.28 423.87,-82.52 409.21,-74.17"/>
<polygon fill="#63b8ff" stroke="#63b8ff" points="461.64,-108.07 472.06,-109.98 465.1,-101.99 461.64,-108.07"/>
</a>
</g>
</g>
<!-- Node13 -->
<g id="Node000013" class="node">
<title>Node13</title>
<g id="a_Node000013"><a xlink:href="structLOGO.html" target="_top" xlink:title=" ">
<polygon fill="white" stroke="#666666" points="478,-74 434,-74 434,-55 478,-55 478,-74"/>
<text text-anchor="middle" x="456" y="-62" font-family="Helvetica,sans-Serif" font-size="10.00">LOGO</text>
</a>
</g>
</g>
<!-- Node1&#45;&gt;Node13 -->
<g id="edge12_Node000001_Node000013" class="edge">
<title>Node1&#45;&gt;Node13</title>
<g id="a_edge12_Node000001_Node000013"><a xlink:title=" ">
<path fill="none" stroke="#63b8ff" d="M476.82,-101.1C471.53,-92.04 465.28,-81.37 461.02,-74.09"/>
<polygon fill="#63b8ff" stroke="#63b8ff" points="473.81,-102.88 481.88,-109.75 479.85,-99.35 473.81,-102.88"/>
</a>
</g>
</g>
<!-- Node14 -->
<g id="Node000014" class="node">
<title>Node14</title>
<g id="a_Node000014"><a xlink:href="structNOTE.html" target="_top" xlink:title=" ">
<polygon fill="white" stroke="#666666" points="540,-74 496,-74 496,-55 540,-55 540,-74"/>
<text text-anchor="middle" x="518" y="-62" font-family="Helvetica,sans-Serif" font-size="10.00">NOTE</text>
</a>
</g>
</g>
<!-- Node1&#45;&gt;Node14 -->
<g id="edge13_Node000001_Node000014" class="edge">
<title>Node1&#45;&gt;Node14</title>
<g id="a_edge13_Node000001_Node000014"><a xlink:title=" ">
<path fill="none" stroke="#63b8ff" d="M497.18,-101.1C502.47,-92.04 508.72,-81.37 512.98,-74.09"/>
<polygon fill="#63b8ff" stroke="#63b8ff" points="494.15,-99.35 492.12,-109.75 500.19,-102.88 494.15,-99.35"/>
</a>
</g>
</g>
<!-- Node15 -->
<g id="Node000015" class="node">
<title>Node15</title>
<g id="a_Node000015"><a xlink:href="structPROMPT.html" target="_top" xlink:title="Prompt.">
<polygon fill="white" stroke="#666666" points="616,-74 558,-74 558,-55 616,-55 616,-74"/>
<text text-anchor="middle" x="587" y="-62" font-family="Helvetica,sans-Serif" font-size="10.00">PROMPT</text>
</a>
</g>
</g>
<!-- Node1&#45;&gt;Node15 -->
<g id="edge14_Node000001_Node000015" class="edge">
<title>Node1&#45;&gt;Node15</title>
<g id="a_edge14_Node000001_Node000015"><a xlink:title=" ">
<path fill="none" stroke="#63b8ff" d="M512.03,-105.23C530.37,-95.51 554.74,-82.6 570.64,-74.17"/>
<polygon fill="#63b8ff" stroke="#63b8ff" points="510.26,-102.21 503.07,-109.98 513.54,-108.39 510.26,-102.21"/>
</a>
</g>
</g>
<!-- Node16 -->
<g id="Node000016" class="node">
<title>Node16</title>
<g id="a_Node000016"><a xlink:href="structTIMER.html" target="_top" xlink:title=" ">
<polygon fill="white" stroke="#666666" points="681.5,-74 634.5,-74 634.5,-55 681.5,-55 681.5,-74"/>
<text text-anchor="middle" x="658" y="-62" font-family="Helvetica,sans-Serif" font-size="10.00">TIMER</text>
</a>
</g>
</g>
<!-- Node1&#45;&gt;Node16 -->
<g id="edge15_Node000001_Node000016" class="edge">
<title>Node1&#45;&gt;Node16</title>
<g id="a_edge15_Node000001_Node000016"><a xlink:title=" ">
<path fill="none" stroke="#63b8ff" d="M518.06,-108.87C551.59,-98.48 604.24,-82.16 634.5,-72.78"/>
<polygon fill="#63b8ff" stroke="#63b8ff" points="516.83,-105.59 508.31,-111.89 518.9,-112.28 516.83,-105.59"/>
</a>
</g>
</g>
<!-- Node17 -->
<g id="Node000017" class="node">
<title>Node17</title>
<g id="a_Node000017"><a xlink:href="structTITLE.html" target="_top" xlink:title=" ">
<polygon fill="white" stroke="#666666" points="742.5,-74 699.5,-74 699.5,-55 742.5,-55 742.5,-74"/>
<text text-anchor="middle" x="721" y="-62" font-family="Helvetica,sans-Serif" font-size="10.00">TITLE</text>
</a>
</g>
</g>
<!-- Node1&#45;&gt;Node17 -->
<g id="edge16_Node000001_Node000017" class="edge">
<title>Node1&#45;&gt;Node17</title>
<g id="a_edge16_Node000001_Node000017"><a xlink:title=" ">
<path fill="none" stroke="#63b8ff" d="M518.22,-112.31C558.36,-104.21 630.15,-89.24 691,-74 693.73,-73.32 696.59,-72.56 699.41,-71.79"/>
<polygon fill="#63b8ff" stroke="#63b8ff" points="517.36,-108.91 508.24,-114.31 518.74,-115.78 517.36,-108.91"/>
</a>
</g>
</g>
<!-- Node18 -->
<g id="Node000018" class="node">
<title>Node18</title>
<g id="a_Node000018"><a xlink:href="structTOTALS.html" target="_top" xlink:title=" ">
<polygon fill="white" stroke="#666666" points="813.5,-74 760.5,-74 760.5,-55 813.5,-55 813.5,-74"/>
<text text-anchor="middle" x="787" y="-62" font-family="Helvetica,sans-Serif" font-size="10.00">TOTALS</text>
</a>
</g>
</g>
<!-- Node1&#45;&gt;Node18 -->
<g id="edge17_Node000001_Node000018" class="edge">
<title>Node1&#45;&gt;Node18</title>
<g id="a_edge17_Node000001_Node000018"><a xlink:title=" ">
<path fill="none" stroke="#63b8ff" d="M518.14,-114.01C567.8,-106.69 667.91,-91.25 752,-74 754.7,-73.45 757.5,-72.83 760.29,-72.2"/>
<polygon fill="#63b8ff" stroke="#63b8ff" points="517.44,-110.58 508.05,-115.49 518.45,-117.5 517.44,-110.58"/>
</a>
</g>
</g>
<!-- Node19 -->
<g id="Node000019" class="node">
<title>Node19</title>
<g id="a_Node000019"><a xlink:href="structTV.html" target="_top" xlink:title="Unknown.">
<polygon fill="white" stroke="#666666" points="860.5,-74 831.5,-74 831.5,-55 860.5,-55 860.5,-74"/>
<text text-anchor="middle" x="846" y="-62" font-family="Helvetica,sans-Serif" font-size="10.00">TV</text>
</a>
</g>
</g>
<!-- Node1&#45;&gt;Node19 -->
<g id="edge18_Node000001_Node000019" class="edge">
<title>Node1&#45;&gt;Node19</title>
<g id="a_edge18_Node000001_Node000019"><a xlink:title=" ">
<path fill="none" stroke="#63b8ff" d="M518.45,-116.67C578.44,-112.68 713.04,-101.24 823,-74 825.64,-73.34 828.4,-72.49 831.06,-71.57"/>
<polygon fill="#63b8ff" stroke="#63b8ff" points="517.9,-113.2 508.14,-117.33 518.35,-120.19 517.9,-113.2"/>
</a>
</g>
</g>
<!-- Node5 -->
<g id="Node000005" class="node">
<title>Node5</title>
<g id="a_Node000005"><a xlink:href="structCLUECTR.html" target="_top" xlink:title=" ">
<polygon fill="white" stroke="#666666" points="62,-19 0,-19 0,0 62,0 62,-19"/>
<text text-anchor="middle" x="31" y="-7" font-family="Helvetica,sans-Serif" font-size="10.00">CLUECTR</text>
</a>
</g>
</g>
<!-- Node4&#45;&gt;Node5 -->
<g id="edge4_Node000004_Node000005" class="edge">
<title>Node4&#45;&gt;Node5</title>
<g id="a_edge4_Node000004_Node000005"><a xlink:title=" ">
<path fill="none" stroke="#63b8ff" d="M215.81,-54.82C156.27,-38.52 97.23,-25 62.11,-17.24"/>
<polygon fill="#63b8ff" stroke="#63b8ff" points="215.18,-58.27 225.75,-57.56 217.05,-51.53 215.18,-58.27"/>
</a>
</g>
</g>
<!-- Node6 -->
<g id="Node000006" class="node">
<title>Node6</title>
<g id="a_Node000006"><a xlink:href="structCOINCTR.html" target="_top" xlink:title=" ">
<polygon fill="white" stroke="#666666" points="141.5,-19 80.5,-19 80.5,0 141.5,0 141.5,-19"/>
<text text-anchor="middle" x="111" y="-7" font-family="Helvetica,sans-Serif" font-size="10.00">COINCTR</text>
</a>
</g>
</g>
<!-- Node4&#45;&gt;Node6 -->
<g id="edge5_Node000004_Node000006" class="edge">
<title>Node4&#45;&gt;Node6</title>
<g id="a_edge5_Node000004_Node000006"><a xlink:title=" ">
<path fill="none" stroke="#63b8ff" d="M216.19,-52.42C191.28,-42.49 155.28,-28.14 132.51,-19.07"/>
<polygon fill="#63b8ff" stroke="#63b8ff" points="215.2,-55.79 225.79,-56.24 217.79,-49.29 215.2,-55.79"/>
</a>
</g>
</g>
<!-- Node7 -->
<g id="Node000007" class="node">
<title>Node7</title>
<g id="a_Node000007"><a xlink:href="structCRUSHERCTR.html" target="_top" xlink:title=" ">
<polygon fill="white" stroke="#666666" points="242.5,-19 159.5,-19 159.5,0 242.5,0 242.5,-19"/>
<text text-anchor="middle" x="201" y="-7" font-family="Helvetica,sans-Serif" font-size="10.00">CRUSHERCTR</text>
</a>
</g>
</g>
<!-- Node4&#45;&gt;Node7 -->
<g id="edge6_Node000004_Node000007" class="edge">
<title>Node4&#45;&gt;Node7</title>
<g id="a_edge6_Node000004_Node000007"><a xlink:title=" ">
<path fill="none" stroke="#63b8ff" d="M230.58,-46.96C223.09,-37.72 214.06,-26.6 207.97,-19.09"/>
<polygon fill="#63b8ff" stroke="#63b8ff" points="227.88,-49.19 236.9,-54.75 233.32,-44.78 227.88,-49.19"/>
</a>
</g>
</g>
<!-- Node8 -->
<g id="Node000008" class="node">
<title>Node8</title>
<g id="a_Node000008"><a xlink:href="structKEYCTR.html" target="_top" xlink:title=" ">
<polygon fill="white" stroke="#666666" points="315,-19 261,-19 261,0 315,0 315,-19"/>
<text text-anchor="middle" x="288" y="-7" font-family="Helvetica,sans-Serif" font-size="10.00">KEYCTR</text>
</a>
</g>
</g>
<!-- Node4&#45;&gt;Node8 -->
<g id="edge7_Node000004_Node000008" class="edge">
<title>Node4&#45;&gt;Node8</title>
<g id="a_edge7_Node000004_Node000008"><a xlink:title=" ">
<path fill="none" stroke="#63b8ff" d="M257.73,-46.96C265.4,-37.72 274.63,-26.6 280.87,-19.09"/>
<polygon fill="#63b8ff" stroke="#63b8ff" points="254.96,-44.82 251.27,-54.75 260.35,-49.29 254.96,-44.82"/>
</a>
</g>
</g>
<!-- Node9 -->
<g id="Node000009" class="node">
<title>Node9</title>
<g id="a_Node000009"><a xlink:href="structLIFECTR.html" target="_top" xlink:title=" ">
<polygon fill="white" stroke="#666666" points="389,-19 333,-19 333,0 389,0 389,-19"/>
<text text-anchor="middle" x="361" y="-7" font-family="Helvetica,sans-Serif" font-size="10.00">LIFECTR</text>
</a>
</g>
</g>
<!-- Node4&#45;&gt;Node9 -->
<g id="edge8_Node000004_Node000009" class="edge">
<title>Node4&#45;&gt;Node9</title>
<g id="a_edge8_Node000004_Node000009"><a xlink:title=" ">
<path fill="none" stroke="#63b8ff" d="M271.36,-51.11C293.06,-41.28 322.82,-27.8 341.98,-19.11"/>
<polygon fill="#63b8ff" stroke="#63b8ff" points="269.69,-48.02 262.02,-55.33 272.58,-54.4 269.69,-48.02"/>
</a>
</g>
</g>
<!-- Node10 -->
<g id="Node000010" class="node">
<title>Node10</title>
<g id="a_Node000010"><a xlink:href="structTRUNKCTR.html" target="_top" xlink:title=" ">
<polygon fill="white" stroke="#666666" points="477,-19 407,-19 407,0 477,0 477,-19"/>
<text text-anchor="middle" x="442" y="-7" font-family="Helvetica,sans-Serif" font-size="10.00">TRUNKCTR</text>
</a>
</g>
</g>
<!-- Node4&#45;&gt;Node10 -->
<g id="edge9_Node000004_Node000010" class="edge">
<title>Node4&#45;&gt;Node10</title>
<g id="a_edge9_Node000004_Node000010"><a xlink:title=" ">
<path fill="none" stroke="#63b8ff" d="M272.02,-54.81C324.21,-39.92 374.52,-27.12 407.14,-19.02"/>
<polygon fill="#63b8ff" stroke="#63b8ff" points="270.91,-51.49 262.26,-57.61 272.84,-58.22 270.91,-51.49"/>
</a>
</g>
</g>
</g>
</svg>
