<?xml version="1.0" encoding="UTF-8" standalone="no"?>
<!DOCTYPE svg PUBLIC "-//W3C//DTD SVG 1.1//EN"
 "http://www.w3.org/Graphics/SVG/1.1/DTD/svg11.dtd">
<!-- Generated by graphviz version 2.43.0 (0)
 -->
<!-- Title: ACR Pages: 1 -->
<svg width="182pt" height="82pt"
 viewBox="0.00 0.00 182.00 82.00" xmlns="http://www.w3.org/2000/svg" xmlns:xlink="http://www.w3.org/1999/xlink">
<g id="graph0" class="graph" transform="scale(1 1) rotate(0) translate(4 78)">
<title>ACR</title>
<!-- Node1 -->
<g id="Node000001" class="node">
<title>Node1</title>
<g id="a_Node000001"><a xlink:title="Unknown.">
<polygon fill="#999999" stroke="#666666" points="105.5,-74 68.5,-74 68.5,-55 105.5,-55 105.5,-74"/>
<text text-anchor="middle" x="87" y="-62" font-family="Helvetica,sans-Serif" font-size="10.00">ACR</text>
</a>
</g>
</g>
<!-- Node2 -->
<g id="Node000002" class="node">
<title>Node2</title>
<g id="a_Node000002"><a xlink:href="structACRB.html" target="_top" xlink:title="Unknown.">
<polygon fill="white" stroke="#666666" points="44,-19 0,-19 0,0 44,0 44,-19"/>
<text text-anchor="middle" x="22" y="-7" font-family="Helvetica,sans-Serif" font-size="10.00">ACRB</text>
</a>
</g>
</g>
<!-- Node1&#45;&gt;Node2 -->
<g id="edge1_Node000001_Node000002" class="edge">
<title>Node1&#45;&gt;Node2</title>
<g id="a_edge1_Node000001_Node000002"><a xlink:title=" ">
<path fill="none" stroke="#63b8ff" d="M68.73,-48.6C57.08,-39.11 42.4,-27.13 32.63,-19.17"/>
<polygon fill="#63b8ff" stroke="#63b8ff" points="66.59,-51.38 76.56,-54.98 71.02,-45.95 66.59,-51.38"/>
</a>
</g>
</g>
<!-- Node3 -->
<g id="Node000003" class="node">
<title>Node3</title>
<g id="a_Node000003"><a xlink:href="structACRBL.html" target="_top" xlink:title="Unknown.">
<polygon fill="white" stroke="#666666" points="111.5,-19 62.5,-19 62.5,0 111.5,0 111.5,-19"/>
<text text-anchor="middle" x="87" y="-7" font-family="Helvetica,sans-Serif" font-size="10.00">ACRBL</text>
</a>
</g>
</g>
<!-- Node1&#45;&gt;Node3 -->
<g id="edge2_Node000001_Node000003" class="edge">
<title>Node1&#45;&gt;Node3</title>
<g id="a_edge2_Node000001_Node000003"><a xlink:title=" ">
<path fill="none" stroke="#63b8ff" d="M87,-44.66C87,-35.93 87,-25.99 87,-19.09"/>
<polygon fill="#63b8ff" stroke="#63b8ff" points="83.5,-44.75 87,-54.75 90.5,-44.75 83.5,-44.75"/>
</a>
</g>
</g>
<!-- Node4 -->
<g id="Node000004" class="node">
<title>Node4</title>
<g id="a_Node000004"><a xlink:href="structACRC.html" target="_top" xlink:title="Unknown.">
<polygon fill="white" stroke="#666666" points="174,-19 130,-19 130,0 174,0 174,-19"/>
<text text-anchor="middle" x="152" y="-7" font-family="Helvetica,sans-Serif" font-size="10.00">ACRC</text>
</a>
</g>
</g>
<!-- Node1&#45;&gt;Node4 -->
<g id="edge3_Node000001_Node000004" class="edge">
<title>Node1&#45;&gt;Node4</title>
<g id="a_edge3_Node000001_Node000004"><a xlink:title=" ">
<path fill="none" stroke="#63b8ff" d="M105.27,-48.6C116.92,-39.11 131.6,-27.13 141.37,-19.17"/>
<polygon fill="#63b8ff" stroke="#63b8ff" points="102.98,-45.95 97.44,-54.98 107.41,-51.38 102.98,-45.95"/>
</a>
</g>
</g>
</g>
</svg>
