<?xml version="1.0" encoding="UTF-8" standalone="no"?>
<!DOCTYPE svg PUBLIC "-//W3C//DTD SVG 1.1//EN"
 "http://www.w3.org/Graphics/SVG/1.1/DTD/svg11.dtd">
<!-- Generated by graphviz version 2.43.0 (0)
 -->
<!-- Title: PO Pages: 1 -->
<svg width="562pt" height="467pt"
 viewBox="0.00 0.00 562.00 467.00" xmlns="http://www.w3.org/2000/svg" xmlns:xlink="http://www.w3.org/1999/xlink">
<g id="graph0" class="graph" transform="scale(1 1) rotate(0) translate(4 463)">
<title>PO</title>
<!-- Node1 -->
<g id="Node000001" class="node">
<title>Node1</title>
<g id="a_Node000001"><a xlink:title="Used for playable objects (e.g. JT).">
<polygon fill="#999999" stroke="#666666" points="290,-239 260,-239 260,-220 290,-220 290,-239"/>
<text text-anchor="middle" x="275" y="-227" font-family="Helvetica,sans-Serif" font-size="10.00">PO</text>
</a>
</g>
</g>
<!-- Node6 -->
<g id="Node000006" class="node">
<title>Node6</title>
<g id="a_Node000006"><a xlink:href="structPUFFER.html" target="_top" xlink:title="Piranha fish used in Piranha Lake.">
<polygon fill="white" stroke="#666666" points="179.5,-184 124.5,-184 124.5,-165 179.5,-165 179.5,-184"/>
<text text-anchor="middle" x="152" y="-172" font-family="Helvetica,sans-Serif" font-size="10.00">PUFFER</text>
</a>
</g>
</g>
<!-- Node1&#45;&gt;Node6 -->
<g id="edge5_Node000001_Node000006" class="edge">
<title>Node1&#45;&gt;Node6</title>
<g id="a_edge5_Node000001_Node000006"><a xlink:title=" ">
<path fill="none" stroke="#63b8ff" d="M250.51,-217.95C227.52,-208.04 193.55,-193.4 172.1,-184.16"/>
<polygon fill="#63b8ff" stroke="#63b8ff" points="249.35,-221.26 259.92,-222 252.12,-214.83 249.35,-221.26"/>
</a>
</g>
</g>
<!-- Node7 -->
<g id="Node000007" class="node">
<title>Node7</title>
<g id="a_Node000007"><a xlink:href="structROV.html" target="_top" xlink:title="Unknown.">
<polygon fill="white" stroke="#666666" points="236,-184 198,-184 198,-165 236,-165 236,-184"/>
<text text-anchor="middle" x="217" y="-172" font-family="Helvetica,sans-Serif" font-size="10.00">ROV</text>
</a>
</g>
</g>
<!-- Node1&#45;&gt;Node7 -->
<g id="edge6_Node000001_Node000007" class="edge">
<title>Node1&#45;&gt;Node7</title>
<g id="a_edge6_Node000001_Node000007"><a xlink:title=" ">
<path fill="none" stroke="#63b8ff" d="M258.09,-213.04C247.8,-203.64 235.03,-191.98 226.49,-184.17"/>
<polygon fill="#63b8ff" stroke="#63b8ff" points="255.94,-215.82 265.68,-219.98 260.66,-210.66 255.94,-215.82"/>
</a>
</g>
</g>
<!-- Node8 -->
<g id="Node000008" class="node">
<title>Node8</title>
<g id="a_Node000008"><a xlink:href="structSTEP.html" target="_top" xlink:title="STEP_FIGURE.">
<polygon fill="white" stroke="#666666" points="295.5,-184 254.5,-184 254.5,-165 295.5,-165 295.5,-184"/>
<text text-anchor="middle" x="275" y="-172" font-family="Helvetica,sans-Serif" font-size="10.00">STEP</text>
</a>
</g>
</g>
<!-- Node1&#45;&gt;Node8 -->
<g id="edge7_Node000001_Node000008" class="edge">
<title>Node1&#45;&gt;Node8</title>
<g id="a_edge7_Node000001_Node000008"><a xlink:title=" ">
<path fill="none" stroke="#63b8ff" d="M275,-209.66C275,-200.93 275,-190.99 275,-184.09"/>
<polygon fill="#63b8ff" stroke="#63b8ff" points="271.5,-209.75 275,-219.75 278.5,-209.75 271.5,-209.75"/>
</a>
</g>
</g>
<!-- Node22 -->
<g id="Node000022" class="node">
<title>Node22</title>
<g id="a_Node000022"><a xlink:href="structTURRET.html" target="_top" xlink:title="Stationary turret (maybe the one used in the murray levels).">
<polygon fill="white" stroke="#666666" points="370,-184 314,-184 314,-165 370,-165 370,-184"/>
<text text-anchor="middle" x="342" y="-172" font-family="Helvetica,sans-Serif" font-size="10.00">TURRET</text>
</a>
</g>
</g>
<!-- Node1&#45;&gt;Node22 -->
<g id="edge21_Node000001_Node000022" class="edge">
<title>Node1&#45;&gt;Node22</title>
<g id="a_edge21_Node000001_Node000022"><a xlink:title=" ">
<path fill="none" stroke="#63b8ff" d="M293.83,-213.6C305.84,-204.11 320.97,-192.13 331.04,-184.17"/>
<polygon fill="#63b8ff" stroke="#63b8ff" points="291.44,-211.04 285.76,-219.98 295.78,-216.53 291.44,-211.04"/>
</a>
</g>
</g>
<!-- Node23 -->
<g id="Node000023" class="node">
<title>Node23</title>
<g id="a_Node000023"><a xlink:href="structVAULT.html" target="_top" xlink:title="Vault used for unlocking thief moves in levels.">
<polygon fill="white" stroke="#666666" points="435.5,-184 388.5,-184 388.5,-165 435.5,-165 435.5,-184"/>
<text text-anchor="middle" x="412" y="-172" font-family="Helvetica,sans-Serif" font-size="10.00">VAULT</text>
</a>
</g>
</g>
<!-- Node1&#45;&gt;Node23 -->
<g id="edge22_Node000001_Node000023" class="edge">
<title>Node1&#45;&gt;Node23</title>
<g id="a_edge22_Node000001_Node000023"><a xlink:title=" ">
<path fill="none" stroke="#63b8ff" d="M299.6,-218.98C325.31,-209.04 365.27,-193.58 389.97,-184.02"/>
<polygon fill="#63b8ff" stroke="#63b8ff" points="298.25,-215.75 290.18,-222.63 300.77,-222.28 298.25,-215.75"/>
</a>
</g>
</g>
<!-- Node2 -->
<g id="Node000002" class="node">
<title>Node2</title>
<g id="a_Node000002"><a xlink:href="structSO.html" target="_top" xlink:title=" ">
<polygon fill="white" stroke="#666666" points="290,-294 260,-294 260,-275 290,-275 290,-294"/>
<text text-anchor="middle" x="275" y="-282" font-family="Helvetica,sans-Serif" font-size="10.00">SO</text>
</a>
</g>
</g>
<!-- Node2&#45;&gt;Node1 -->
<g id="edge1_Node000001_Node000002" class="edge">
<title>Node2&#45;&gt;Node1</title>
<g id="a_edge1_Node000001_Node000002"><a xlink:title=" ">
<path fill="none" stroke="#63b8ff" d="M275,-264.66C275,-255.93 275,-245.99 275,-239.09"/>
<polygon fill="#63b8ff" stroke="#63b8ff" points="271.5,-264.75 275,-274.75 278.5,-264.75 271.5,-264.75"/>
</a>
</g>
</g>
<!-- Node3 -->
<g id="Node000003" class="node">
<title>Node3</title>
<g id="a_Node000003"><a xlink:href="structALO.html" target="_top" xlink:title=" ">
<polygon fill="white" stroke="#666666" points="293,-349 257,-349 257,-330 293,-330 293,-349"/>
<text text-anchor="middle" x="275" y="-337" font-family="Helvetica,sans-Serif" font-size="10.00">ALO</text>
</a>
</g>
</g>
<!-- Node3&#45;&gt;Node2 -->
<g id="edge2_Node000002_Node000003" class="edge">
<title>Node3&#45;&gt;Node2</title>
<g id="a_edge2_Node000002_Node000003"><a xlink:title=" ">
<path fill="none" stroke="#63b8ff" d="M275,-319.66C275,-310.93 275,-300.99 275,-294.09"/>
<polygon fill="#63b8ff" stroke="#63b8ff" points="271.5,-319.75 275,-329.75 278.5,-319.75 271.5,-319.75"/>
</a>
</g>
</g>
<!-- Node4 -->
<g id="Node000004" class="node">
<title>Node4</title>
<g id="a_Node000004"><a xlink:href="structLO.html" target="_top" xlink:title="Live Object, base class for all objects that exist in the world.">
<polygon fill="white" stroke="#666666" points="289.5,-404 260.5,-404 260.5,-385 289.5,-385 289.5,-404"/>
<text text-anchor="middle" x="275" y="-392" font-family="Helvetica,sans-Serif" font-size="10.00">LO</text>
</a>
</g>
</g>
<!-- Node4&#45;&gt;Node3 -->
<g id="edge3_Node000003_Node000004" class="edge">
<title>Node4&#45;&gt;Node3</title>
<g id="a_edge3_Node000003_Node000004"><a xlink:title=" ">
<path fill="none" stroke="#63b8ff" d="M275,-374.66C275,-365.93 275,-355.99 275,-349.09"/>
<polygon fill="#63b8ff" stroke="#63b8ff" points="271.5,-374.75 275,-384.75 278.5,-374.75 271.5,-374.75"/>
</a>
</g>
</g>
<!-- Node5 -->
<g id="Node000005" class="node">
<title>Node5</title>
<g id="a_Node000005"><a xlink:href="structBASIC.html" target="_top" xlink:title="Base object for most other kinds of objects.">
<polygon fill="white" stroke="#666666" points="298,-459 252,-459 252,-440 298,-440 298,-459"/>
<text text-anchor="middle" x="275" y="-447" font-family="Helvetica,sans-Serif" font-size="10.00">BASIC</text>
</a>
</g>
</g>
<!-- Node5&#45;&gt;Node4 -->
<g id="edge4_Node000004_Node000005" class="edge">
<title>Node5&#45;&gt;Node4</title>
<g id="a_edge4_Node000004_Node000005"><a xlink:title=" ">
<path fill="none" stroke="#63b8ff" d="M275,-429.66C275,-420.93 275,-410.99 275,-404.09"/>
<polygon fill="#63b8ff" stroke="#63b8ff" points="271.5,-429.75 275,-439.75 278.5,-429.75 271.5,-429.75"/>
</a>
</g>
</g>
<!-- Node9 -->
<g id="Node000009" class="node">
<title>Node9</title>
<g id="a_Node000009"><a xlink:href="structJT.html" target="_top" xlink:title="Jewel thief (AKA Sly Cooper).">
<polygon fill="white" stroke="#666666" points="218.5,-129 189.5,-129 189.5,-110 218.5,-110 218.5,-129"/>
<text text-anchor="middle" x="204" y="-117" font-family="Helvetica,sans-Serif" font-size="10.00">JT</text>
</a>
</g>
</g>
<!-- Node8&#45;&gt;Node9 -->
<g id="edge8_Node000008_Node000009" class="edge">
<title>Node8&#45;&gt;Node9</title>
<g id="a_edge8_Node000008_Node000009"><a xlink:title=" ">
<path fill="none" stroke="#63b8ff" d="M255.41,-158.88C242.63,-149.34 226.39,-137.21 215.61,-129.17"/>
<polygon fill="#63b8ff" stroke="#63b8ff" points="253.49,-161.81 263.59,-164.98 257.67,-156.2 253.49,-161.81"/>
</a>
</g>
</g>
<!-- Node10 -->
<g id="Node000010" class="node">
<title>Node10</title>
<g id="a_Node000010"><a xlink:href="structSTEPGUARD.html" target="_top" xlink:title=" ">
<polygon fill="white" stroke="#666666" points="313.5,-129 236.5,-129 236.5,-110 313.5,-110 313.5,-129"/>
<text text-anchor="middle" x="275" y="-117" font-family="Helvetica,sans-Serif" font-size="10.00">STEPGUARD</text>
</a>
</g>
</g>
<!-- Node8&#45;&gt;Node10 -->
<g id="edge9_Node000008_Node000010" class="edge">
<title>Node8&#45;&gt;Node10</title>
<g id="a_edge9_Node000008_Node000010"><a xlink:title=" ">
<path fill="none" stroke="#63b8ff" d="M275,-154.66C275,-145.93 275,-135.99 275,-129.09"/>
<polygon fill="#63b8ff" stroke="#63b8ff" points="271.5,-154.75 275,-164.75 278.5,-154.75 271.5,-154.75"/>
</a>
</g>
</g>
<!-- Node21 -->
<g id="Node000021" class="node">
<title>Node21</title>
<g id="a_Node000021"><a xlink:href="structTANK.html" target="_top" xlink:title=" ">
<polygon fill="white" stroke="#666666" points="374.5,-129 331.5,-129 331.5,-110 374.5,-110 374.5,-129"/>
<text text-anchor="middle" x="353" y="-117" font-family="Helvetica,sans-Serif" font-size="10.00">TANK</text>
</a>
</g>
</g>
<!-- Node8&#45;&gt;Node21 -->
<g id="edge20_Node000008_Node000021" class="edge">
<title>Node8&#45;&gt;Node21</title>
<g id="a_edge20_Node000008_Node000021"><a xlink:title=" ">
<path fill="none" stroke="#63b8ff" d="M296.12,-159.15C310.21,-149.57 328.29,-137.29 340.24,-129.17"/>
<polygon fill="#63b8ff" stroke="#63b8ff" points="293.84,-156.47 287.53,-164.98 297.77,-162.26 293.84,-156.47"/>
</a>
</g>
</g>
<!-- Node11 -->
<g id="Node000011" class="node">
<title>Node11</title>
<g id="a_Node000011"><a xlink:href="structCRFOD.html" target="_top" xlink:title="Unknown.">
<polygon fill="white" stroke="#666666" points="54.5,-74 3.5,-74 3.5,-55 54.5,-55 54.5,-74"/>
<text text-anchor="middle" x="29" y="-62" font-family="Helvetica,sans-Serif" font-size="10.00">CRFOD</text>
</a>
</g>
</g>
<!-- Node10&#45;&gt;Node11 -->
<g id="edge10_Node000010_Node000011" class="edge">
<title>Node10&#45;&gt;Node11</title>
<g id="a_edge10_Node000010_Node000011"><a xlink:title=" ">
<path fill="none" stroke="#63b8ff" d="M226.55,-108.72C183.72,-99.97 119.6,-86.61 64,-74 60.95,-73.31 57.76,-72.56 54.59,-71.81"/>
<polygon fill="#63b8ff" stroke="#63b8ff" points="225.92,-112.16 236.42,-110.73 227.32,-105.3 225.92,-112.16"/>
</a>
</g>
</g>
<!-- Node13 -->
<g id="Node000013" class="node">
<title>Node13</title>
<g id="a_Node000013"><a xlink:href="structCRFODB.html" target="_top" xlink:title="Unknown.">
<polygon fill="white" stroke="#666666" points="131,-74 73,-74 73,-55 131,-55 131,-74"/>
<text text-anchor="middle" x="102" y="-62" font-family="Helvetica,sans-Serif" font-size="10.00">CRFODB</text>
</a>
</g>
</g>
<!-- Node10&#45;&gt;Node13 -->
<g id="edge12_Node000010_Node000013" class="edge">
<title>Node10&#45;&gt;Node13</title>
<g id="a_edge12_Node000010_Node000013"><a xlink:title=" ">
<path fill="none" stroke="#63b8ff" d="M237.23,-106.93C204.91,-97.03 159.14,-83.01 130.01,-74.08"/>
<polygon fill="#63b8ff" stroke="#63b8ff" points="236.62,-110.4 247.2,-109.98 238.67,-103.71 236.62,-110.4"/>
</a>
</g>
</g>
<!-- Node14 -->
<g id="Node000014" class="node">
<title>Node14</title>
<g id="a_Node000014"><a xlink:href="structGOMER.html" target="_top" xlink:title="Unknown, related to bosses.">
<polygon fill="white" stroke="#666666" points="202.5,-74 149.5,-74 149.5,-55 202.5,-55 202.5,-74"/>
<text text-anchor="middle" x="176" y="-62" font-family="Helvetica,sans-Serif" font-size="10.00">GOMER</text>
</a>
</g>
</g>
<!-- Node10&#45;&gt;Node14 -->
<g id="edge13_Node000010_Node000014" class="edge">
<title>Node10&#45;&gt;Node14</title>
<g id="a_edge13_Node000010_Node000014"><a xlink:title=" ">
<path fill="none" stroke="#63b8ff" d="M250.22,-105.23C232.06,-95.51 207.94,-82.6 192.2,-74.17"/>
<polygon fill="#63b8ff" stroke="#63b8ff" points="248.63,-108.35 259.09,-109.98 251.93,-102.18 248.63,-108.35"/>
</a>
</g>
</g>
<!-- Node16 -->
<g id="Node000016" class="node">
<title>Node16</title>
<g id="a_Node000016"><a xlink:href="structMBG.html" target="_top" xlink:title=" ">
<polygon fill="white" stroke="#666666" points="261,-74 221,-74 221,-55 261,-55 261,-74"/>
<text text-anchor="middle" x="241" y="-62" font-family="Helvetica,sans-Serif" font-size="10.00">MBG</text>
</a>
</g>
</g>
<!-- Node10&#45;&gt;Node16 -->
<g id="edge15_Node000010_Node000016" class="edge">
<title>Node10&#45;&gt;Node16</title>
<g id="a_edge15_Node000010_Node000016"><a xlink:title=" ">
<path fill="none" stroke="#63b8ff" d="M263.84,-101.1C258.03,-92.04 251.18,-81.37 246.51,-74.09"/>
<polygon fill="#63b8ff" stroke="#63b8ff" points="261.04,-103.22 269.39,-109.75 266.93,-99.44 261.04,-103.22"/>
</a>
</g>
</g>
<!-- Node17 -->
<g id="Node000017" class="node">
<title>Node17</title>
<g id="a_Node000017"><a xlink:href="structMURRAY.html" target="_top" xlink:title="Used for Murray in Murray&#39;s Big Gamble and King of the Hill.">
<polygon fill="white" stroke="#666666" points="338.5,-74 279.5,-74 279.5,-55 338.5,-55 338.5,-74"/>
<text text-anchor="middle" x="309" y="-62" font-family="Helvetica,sans-Serif" font-size="10.00">MURRAY</text>
</a>
</g>
</g>
<!-- Node10&#45;&gt;Node17 -->
<g id="edge16_Node000010_Node000017" class="edge">
<title>Node10&#45;&gt;Node17</title>
<g id="a_edge16_Node000010_Node000017"><a xlink:title=" ">
<path fill="none" stroke="#63b8ff" d="M286.16,-101.1C291.97,-92.04 298.82,-81.37 303.49,-74.09"/>
<polygon fill="#63b8ff" stroke="#63b8ff" points="283.07,-99.44 280.61,-109.75 288.96,-103.22 283.07,-99.44"/>
</a>
</g>
</g>
<!-- Node18 -->
<g id="Node000018" class="node">
<title>Node18</title>
<g id="a_Node000018"><a xlink:href="structSBG.html" target="_top" xlink:title=" ">
<polygon fill="white" stroke="#666666" points="393.5,-74 356.5,-74 356.5,-55 393.5,-55 393.5,-74"/>
<text text-anchor="middle" x="375" y="-62" font-family="Helvetica,sans-Serif" font-size="10.00">SBG</text>
</a>
</g>
</g>
<!-- Node10&#45;&gt;Node18 -->
<g id="edge17_Node000010_Node000018" class="edge">
<title>Node10&#45;&gt;Node18</title>
<g id="a_edge17_Node000010_Node000018"><a xlink:title=" ">
<path fill="none" stroke="#63b8ff" d="M300.03,-105.23C318.37,-95.51 342.74,-82.6 358.64,-74.17"/>
<polygon fill="#63b8ff" stroke="#63b8ff" points="298.26,-102.21 291.07,-109.98 301.54,-108.39 298.26,-102.21"/>
</a>
</g>
</g>
<!-- Node19 -->
<g id="Node000019" class="node">
<title>Node19</title>
<g id="a_Node000019"><a xlink:href="structSMARTGUARD.html" target="_top" xlink:title=" ">
<polygon fill="white" stroke="#666666" points="498,-74 412,-74 412,-55 498,-55 498,-74"/>
<text text-anchor="middle" x="455" y="-62" font-family="Helvetica,sans-Serif" font-size="10.00">SMARTGUARD</text>
</a>
</g>
</g>
<!-- Node10&#45;&gt;Node19 -->
<g id="edge18_Node000010_Node000019" class="edge">
<title>Node10&#45;&gt;Node19</title>
<g id="a_edge18_Node000010_Node000019"><a xlink:title=" ">
<path fill="none" stroke="#63b8ff" d="M313.87,-107.06C347.51,-97.15 395.42,-83.04 425.85,-74.08"/>
<polygon fill="#63b8ff" stroke="#63b8ff" points="312.52,-103.8 303.92,-109.98 314.5,-110.52 312.52,-103.8"/>
</a>
</g>
</g>
<!-- Node20 -->
<g id="Node000020" class="node">
<title>Node20</title>
<g id="a_Node000020"><a xlink:href="structVBG.html" target="_top" xlink:title=" ">
<polygon fill="white" stroke="#666666" points="554,-74 516,-74 516,-55 554,-55 554,-74"/>
<text text-anchor="middle" x="535" y="-62" font-family="Helvetica,sans-Serif" font-size="10.00">VBG</text>
</a>
</g>
</g>
<!-- Node10&#45;&gt;Node20 -->
<g id="edge19_Node000010_Node000020" class="edge">
<title>Node10&#45;&gt;Node20</title>
<g id="a_edge19_Node000010_Node000020"><a xlink:title=" ">
<path fill="none" stroke="#63b8ff" d="M323.98,-109.39C386.72,-97.68 489.51,-78.32 507,-74 509.86,-73.29 512.86,-72.47 515.79,-71.62"/>
<polygon fill="#63b8ff" stroke="#63b8ff" points="323.08,-106 313.89,-111.27 324.36,-112.88 323.08,-106"/>
</a>
</g>
</g>
<!-- Node12 -->
<g id="Node000012" class="node">
<title>Node12</title>
<g id="a_Node000012"><a xlink:href="structCRFODK.html" target="_top" xlink:title="Unknown.">
<polygon fill="white" stroke="#666666" points="58,-19 0,-19 0,0 58,0 58,-19"/>
<text text-anchor="middle" x="29" y="-7" font-family="Helvetica,sans-Serif" font-size="10.00">CRFODK</text>
</a>
</g>
</g>
<!-- Node11&#45;&gt;Node12 -->
<g id="edge11_Node000011_Node000012" class="edge">
<title>Node11&#45;&gt;Node12</title>
<g id="a_edge11_Node000011_Node000012"><a xlink:title=" ">
<path fill="none" stroke="#63b8ff" d="M29,-44.66C29,-35.93 29,-25.99 29,-19.09"/>
<polygon fill="#63b8ff" stroke="#63b8ff" points="25.5,-44.75 29,-54.75 32.5,-44.75 25.5,-44.75"/>
</a>
</g>
</g>
<!-- Node15 -->
<g id="Node000015" class="node">
<title>Node15</title>
<g id="a_Node000015"><a xlink:href="structUBG.html" target="_top" xlink:title=" ">
<polygon fill="white" stroke="#666666" points="195,-19 157,-19 157,0 195,0 195,-19"/>
<text text-anchor="middle" x="176" y="-7" font-family="Helvetica,sans-Serif" font-size="10.00">UBG</text>
</a>
</g>
</g>
<!-- Node14&#45;&gt;Node15 -->
<g id="edge14_Node000014_Node000015" class="edge">
<title>Node14&#45;&gt;Node15</title>
<g id="a_edge14_Node000014_Node000015"><a xlink:title=" ">
<path fill="none" stroke="#63b8ff" d="M176,-44.66C176,-35.93 176,-25.99 176,-19.09"/>
<polygon fill="#63b8ff" stroke="#63b8ff" points="172.5,-44.75 176,-54.75 179.5,-44.75 172.5,-44.75"/>
</a>
</g>
</g>
</g>
</svg>
