<?xml version="1.0" encoding="UTF-8" standalone="no"?>
<!DOCTYPE svg PUBLIC "-//W3C//DTD SVG 1.1//EN"
 "http://www.w3.org/Graphics/SVG/1.1/DTD/svg11.dtd">
<!-- Generated by graphviz version 2.43.0 (0)
 -->
<!-- Title: MISSILE Pages: 1 -->
<svg width="326pt" height="357pt"
 viewBox="0.00 0.00 326.00 357.00" xmlns="http://www.w3.org/2000/svg" xmlns:xlink="http://www.w3.org/1999/xlink">
<g id="graph0" class="graph" transform="scale(1 1) rotate(0) translate(4 353)">
<title>MISSILE</title>
<!-- Node1 -->
<g id="Node000001" class="node">
<title>Node1</title>
<g id="a_Node000001"><a xlink:title="Missile (maybe the ones fired by smartguards?).">
<polygon fill="#999999" stroke="#666666" points="194,-74 139,-74 139,-55 194,-55 194,-74"/>
<text text-anchor="middle" x="166.5" y="-62" font-family="Helvetica,sans-Serif" font-size="10.00">MISSILE</text>
</a>
</g>
</g>
<!-- Node7 -->
<g id="Node000007" class="node">
<title>Node7</title>
<g id="a_Node000007"><a xlink:href="structACCMISS.html" target="_top" xlink:title=" ">
<polygon fill="white" stroke="#666666" points="61,-19 0,-19 0,0 61,0 61,-19"/>
<text text-anchor="middle" x="30.5" y="-7" font-family="Helvetica,sans-Serif" font-size="10.00">ACCMISS</text>
</a>
</g>
</g>
<!-- Node1&#45;&gt;Node7 -->
<g id="edge6_Node000001_Node000007" class="edge">
<title>Node1&#45;&gt;Node7</title>
<g id="a_edge6_Node000001_Node000007"><a xlink:title=" ">
<path fill="none" stroke="#63b8ff" d="M135.17,-51.29C109.96,-41.47 75.17,-27.91 52.75,-19.17"/>
<polygon fill="#63b8ff" stroke="#63b8ff" points="134.06,-54.61 144.65,-54.98 136.6,-48.09 134.06,-54.61"/>
</a>
</g>
</g>
<!-- Node8 -->
<g id="Node000008" class="node">
<title>Node8</title>
<g id="a_Node000008"><a xlink:href="structGROUNDMISS.html" target="_top" xlink:title=" ">
<polygon fill="white" stroke="#666666" points="164,-19 79,-19 79,0 164,0 164,-19"/>
<text text-anchor="middle" x="121.5" y="-7" font-family="Helvetica,sans-Serif" font-size="10.00">GROUNDMISS</text>
</a>
</g>
</g>
<!-- Node1&#45;&gt;Node8 -->
<g id="edge7_Node000001_Node000008" class="edge">
<title>Node1&#45;&gt;Node8</title>
<g id="a_edge7_Node000001_Node000008"><a xlink:title=" ">
<path fill="none" stroke="#63b8ff" d="M152.45,-46.96C144.61,-37.72 135.17,-26.6 128.79,-19.09"/>
<polygon fill="#63b8ff" stroke="#63b8ff" points="149.93,-49.39 159.07,-54.75 155.26,-44.86 149.93,-49.39"/>
</a>
</g>
</g>
<!-- Node9 -->
<g id="Node000009" class="node">
<title>Node9</title>
<g id="a_Node000009"><a xlink:href="structSPLMISS.html" target="_top" xlink:title=" ">
<polygon fill="white" stroke="#666666" points="240.5,-19 182.5,-19 182.5,0 240.5,0 240.5,-19"/>
<text text-anchor="middle" x="211.5" y="-7" font-family="Helvetica,sans-Serif" font-size="10.00">SPLMISS</text>
</a>
</g>
</g>
<!-- Node1&#45;&gt;Node9 -->
<g id="edge8_Node000001_Node000009" class="edge">
<title>Node1&#45;&gt;Node9</title>
<g id="a_edge8_Node000001_Node000009"><a xlink:title=" ">
<path fill="none" stroke="#63b8ff" d="M180.55,-46.96C188.39,-37.72 197.83,-26.6 204.21,-19.09"/>
<polygon fill="#63b8ff" stroke="#63b8ff" points="177.74,-44.86 173.93,-54.75 183.07,-49.39 177.74,-44.86"/>
</a>
</g>
</g>
<!-- Node10 -->
<g id="Node000010" class="node">
<title>Node10</title>
<g id="a_Node000010"><a xlink:href="structTARMISS.html" target="_top" xlink:title=" ">
<polygon fill="white" stroke="#666666" points="318,-19 259,-19 259,0 318,0 318,-19"/>
<text text-anchor="middle" x="288.5" y="-7" font-family="Helvetica,sans-Serif" font-size="10.00">TARMISS</text>
</a>
</g>
</g>
<!-- Node1&#45;&gt;Node10 -->
<g id="edge9_Node000001_Node000010" class="edge">
<title>Node1&#45;&gt;Node10</title>
<g id="a_edge9_Node000001_Node000010"><a xlink:title=" ">
<path fill="none" stroke="#63b8ff" d="M195.51,-50.9C218.04,-41.11 248.7,-27.79 268.54,-19.17"/>
<polygon fill="#63b8ff" stroke="#63b8ff" points="193.88,-47.79 186.1,-54.98 196.67,-54.21 193.88,-47.79"/>
</a>
</g>
</g>
<!-- Node2 -->
<g id="Node000002" class="node">
<title>Node2</title>
<g id="a_Node000002"><a xlink:href="structBOMB.html" target="_top" xlink:title="Bomb (?).">
<polygon fill="white" stroke="#666666" points="190,-129 143,-129 143,-110 190,-110 190,-129"/>
<text text-anchor="middle" x="166.5" y="-117" font-family="Helvetica,sans-Serif" font-size="10.00">BOMB</text>
</a>
</g>
</g>
<!-- Node2&#45;&gt;Node1 -->
<g id="edge1_Node000001_Node000002" class="edge">
<title>Node2&#45;&gt;Node1</title>
<g id="a_edge1_Node000001_Node000002"><a xlink:title=" ">
<path fill="none" stroke="#63b8ff" d="M166.5,-99.66C166.5,-90.93 166.5,-80.99 166.5,-74.09"/>
<polygon fill="#63b8ff" stroke="#63b8ff" points="163,-99.75 166.5,-109.75 170,-99.75 163,-99.75"/>
</a>
</g>
</g>
<!-- Node3 -->
<g id="Node000003" class="node">
<title>Node3</title>
<g id="a_Node000003"><a xlink:href="structSO.html" target="_top" xlink:title=" ">
<polygon fill="white" stroke="#666666" points="181.5,-184 151.5,-184 151.5,-165 181.5,-165 181.5,-184"/>
<text text-anchor="middle" x="166.5" y="-172" font-family="Helvetica,sans-Serif" font-size="10.00">SO</text>
</a>
</g>
</g>
<!-- Node3&#45;&gt;Node2 -->
<g id="edge2_Node000002_Node000003" class="edge">
<title>Node3&#45;&gt;Node2</title>
<g id="a_edge2_Node000002_Node000003"><a xlink:title=" ">
<path fill="none" stroke="#63b8ff" d="M166.5,-154.66C166.5,-145.93 166.5,-135.99 166.5,-129.09"/>
<polygon fill="#63b8ff" stroke="#63b8ff" points="163,-154.75 166.5,-164.75 170,-154.75 163,-154.75"/>
</a>
</g>
</g>
<!-- Node4 -->
<g id="Node000004" class="node">
<title>Node4</title>
<g id="a_Node000004"><a xlink:href="structALO.html" target="_top" xlink:title=" ">
<polygon fill="white" stroke="#666666" points="184.5,-239 148.5,-239 148.5,-220 184.5,-220 184.5,-239"/>
<text text-anchor="middle" x="166.5" y="-227" font-family="Helvetica,sans-Serif" font-size="10.00">ALO</text>
</a>
</g>
</g>
<!-- Node4&#45;&gt;Node3 -->
<g id="edge3_Node000003_Node000004" class="edge">
<title>Node4&#45;&gt;Node3</title>
<g id="a_edge3_Node000003_Node000004"><a xlink:title=" ">
<path fill="none" stroke="#63b8ff" d="M166.5,-209.66C166.5,-200.93 166.5,-190.99 166.5,-184.09"/>
<polygon fill="#63b8ff" stroke="#63b8ff" points="163,-209.75 166.5,-219.75 170,-209.75 163,-209.75"/>
</a>
</g>
</g>
<!-- Node5 -->
<g id="Node000005" class="node">
<title>Node5</title>
<g id="a_Node000005"><a xlink:href="structLO.html" target="_top" xlink:title="Live Object, base class for all objects that exist in the world.">
<polygon fill="white" stroke="#666666" points="181,-294 152,-294 152,-275 181,-275 181,-294"/>
<text text-anchor="middle" x="166.5" y="-282" font-family="Helvetica,sans-Serif" font-size="10.00">LO</text>
</a>
</g>
</g>
<!-- Node5&#45;&gt;Node4 -->
<g id="edge4_Node000004_Node000005" class="edge">
<title>Node5&#45;&gt;Node4</title>
<g id="a_edge4_Node000004_Node000005"><a xlink:title=" ">
<path fill="none" stroke="#63b8ff" d="M166.5,-264.66C166.5,-255.93 166.5,-245.99 166.5,-239.09"/>
<polygon fill="#63b8ff" stroke="#63b8ff" points="163,-264.75 166.5,-274.75 170,-264.75 163,-264.75"/>
</a>
</g>
</g>
<!-- Node6 -->
<g id="Node000006" class="node">
<title>Node6</title>
<g id="a_Node000006"><a xlink:href="structBASIC.html" target="_top" xlink:title="Base object for most other kinds of objects.">
<polygon fill="white" stroke="#666666" points="189.5,-349 143.5,-349 143.5,-330 189.5,-330 189.5,-349"/>
<text text-anchor="middle" x="166.5" y="-337" font-family="Helvetica,sans-Serif" font-size="10.00">BASIC</text>
</a>
</g>
</g>
<!-- Node6&#45;&gt;Node5 -->
<g id="edge5_Node000005_Node000006" class="edge">
<title>Node6&#45;&gt;Node5</title>
<g id="a_edge5_Node000005_Node000006"><a xlink:title=" ">
<path fill="none" stroke="#63b8ff" d="M166.5,-319.66C166.5,-310.93 166.5,-300.99 166.5,-294.09"/>
<polygon fill="#63b8ff" stroke="#63b8ff" points="163,-319.75 166.5,-329.75 170,-319.75 163,-319.75"/>
</a>
</g>
</g>
</g>
</svg>
