<?xml version="1.0" encoding="UTF-8" standalone="no"?>
<!DOCTYPE svg PUBLIC "-//W3C//DTD SVG 1.1//EN"
 "http://www.w3.org/Graphics/SVG/1.1/DTD/svg11.dtd">
<!-- Generated by graphviz version 2.43.0 (0)
 -->
<!-- Title: ALO Pages: 1 -->
<!--zoomable 1026 -->

<svg id="main" version="1.1" xmlns="http://www.w3.org/2000/svg" xmlns:xlink="http://www.w3.org/1999/xlink" xml:space="preserve" onload="init(evt)">
<style type="text/css"><![CDATA[
.node, .edge {opacity: 0.7;}
.node.selected, .edge.selected {opacity: 1;}
.edge:hover path { stroke: red; }
.edge:hover polygon { stroke: red; fill: red; }
]]></style>

<defs>
  <circle id="rim" cx="0" cy="0" r="7"/>
  <circle id="rim2" cx="0" cy="0" r="3.5"/>
  <g id="zoomPlus">
    <use xlink:href="#rim" fill="#404040"><set attributeName="fill" to="#808080" begin="zoomplus.mouseover" end="zoomplus.mouseout"/></use>
    <path d="M-4,0h8M0,-4v8" fill="none" stroke="white" stroke-width="1.5" pointer-events="none"/>
  </g>
  <g id="zoomMin">
    <use xlink:href="#rim" fill="#404040"><set attributeName="fill" to="#808080" begin="zoomminus.mouseover" end="zoomminus.mouseout"/></use>
    <path d="M-4,0h8" fill="none" stroke="white" stroke-width="1.5" pointer-events="none"/>
  </g>
  <g id="arrowUp" transform="translate(30 24)">
    <use xlink:href="#rim"/>
    <path pointer-events="none" fill="none" stroke="white" stroke-width="1.5" d="M0,-3.0v7 M-2.5,-0.5L0,-3.0L2.5,-0.5"/>
  </g>
  <g id="arrowRight" transform="rotate(90) translate(36 -43)">
    <use xlink:href="#rim"/>
    <path pointer-events="none" fill="none" stroke="white" stroke-width="1.5" d="M0,-3.0v7 M-2.5,-0.5L0,-3.0L2.5,-0.5"/>
  </g>
  <g id="arrowDown" transform="rotate(180) translate(-30 -48)">
    <use xlink:href="#rim"/>
    <path pointer-events="none" fill="none" stroke="white" stroke-width="1.5" d="M0,-3.0v7 M-2.5,-0.5L0,-3.0L2.5,-0.5"/>
  </g>
  <g id="arrowLeft" transform="rotate(270) translate(-36 17)">
    <use xlink:href="#rim"/>
    <path pointer-events="none" fill="none" stroke="white" stroke-width="1.5" d="M0,-3.0v7 M-2.5,-0.5L0,-3.0L2.5,-0.5"/>
  </g>
  <g id="resetDef">
    <use xlink:href="#rim2" fill="#404040"><set attributeName="fill" to="#808080" begin="reset.mouseover" end="reset.mouseout"/></use>
  </g>
</defs>
<script type="application/ecmascript">
var viewWidth = 390;
var viewHeight = 1026;
var sectionId = 'dynsection-0';
</script>
<script type="application/ecmascript" xlink:href="svg.min.js"/>
<svg id="graph" class="graph">
<g id="viewport">
<title>ALO</title>
<!-- Node1 -->
<g id="Node000001" class="node">
<title>Node1</title>
<g id="a_Node000001"><a xlink:title=" ">
<polygon fill="#999999" stroke="#666666" points="183,-629 147,-629 147,-610 183,-610 183,-629"/>
<text text-anchor="middle" x="165" y="-617" font-family="Helvetica,sans-Serif" font-size="10.00">ALO</text>
</a>
</g>
</g>
<!-- Node4 -->
<g id="Node000004" class="node">
<title>Node4</title>
<g id="a_Node000004"><a xlink:href="structCAMERA.html" target="_top" xlink:title="Game camera instance.">
<polygon fill="white" stroke="#666666" points="282.5,-1018 223.5,-1018 223.5,-999 282.5,-999 282.5,-1018"/>
<text text-anchor="middle" x="253" y="-1006" font-family="Helvetica,sans-Serif" font-size="10.00">CAMERA</text>
</a>
</g>
</g>
<!-- Node1&#45;&gt;Node4 -->
<g id="edge3_Node000001_Node000004" class="edge">
<title>Node1&#45;&gt;Node4</title>
<g id="a_edge3_Node000001_Node000004"><a xlink:title=" ">
<path fill="none" stroke="#63b8ff" d="M166.54,-639.61C168.75,-708.33 178.94,-932.77 219,-990.5 221.31,-993.82 224.43,-996.59 227.84,-998.88"/>
<polygon fill="#63b8ff" stroke="#63b8ff" points="170.03,-639.2 166.24,-629.31 163.04,-639.41 170.03,-639.2"/>
</a>
</g>
</g>
<!-- Node5 -->
<g id="Node000005" class="node">
<title>Node5</title>
<g id="a_Node000005"><a xlink:href="structCHKPNT.html" target="_top" xlink:title=" ">
<polygon fill="white" stroke="#666666" points="281.5,-981 224.5,-981 224.5,-962 281.5,-962 281.5,-981"/>
<text text-anchor="middle" x="253" y="-969" font-family="Helvetica,sans-Serif" font-size="10.00">CHKPNT</text>
</a>
</g>
</g>
<!-- Node1&#45;&gt;Node5 -->
<g id="edge4_Node000001_Node000005" class="edge">
<title>Node1&#45;&gt;Node5</title>
<g id="a_edge4_Node000001_Node000005"><a xlink:title=" ">
<path fill="none" stroke="#63b8ff" d="M166.9,-639.65C170.12,-703.82 182.84,-902.24 219,-953.5 221.33,-956.81 224.47,-959.57 227.89,-961.85"/>
<polygon fill="#63b8ff" stroke="#63b8ff" points="170.38,-639.11 166.41,-629.29 163.39,-639.45 170.38,-639.11"/>
</a>
</g>
</g>
<!-- Node6 -->
<g id="Node000006" class="node">
<title>Node6</title>
<g id="a_Node000006"><a xlink:href="structCRBRAIN.html" target="_top" xlink:title="Unknown.">
<polygon fill="white" stroke="#666666" points="283.5,-944 222.5,-944 222.5,-925 283.5,-925 283.5,-944"/>
<text text-anchor="middle" x="253" y="-932" font-family="Helvetica,sans-Serif" font-size="10.00">CRBRAIN</text>
</a>
</g>
</g>
<!-- Node1&#45;&gt;Node6 -->
<g id="edge5_Node000001_Node000006" class="edge">
<title>Node1&#45;&gt;Node6</title>
<g id="a_edge5_Node000001_Node000006"><a xlink:title=" ">
<path fill="none" stroke="#63b8ff" d="M167.32,-639.31C171.59,-698.31 186.65,-871.57 219,-916.5 221.36,-919.78 224.52,-922.53 227.94,-924.81"/>
<polygon fill="#63b8ff" stroke="#63b8ff" points="170.8,-638.83 166.61,-629.1 163.81,-639.32 170.8,-638.83"/>
</a>
</g>
</g>
<!-- Node7 -->
<g id="Node000007" class="node">
<title>Node7</title>
<g id="a_Node000007"><a xlink:href="structDIALOG.html" target="_top" xlink:title="Dialog line in a cutscene.">
<polygon fill="white" stroke="#666666" points="280,-907 226,-907 226,-888 280,-888 280,-907"/>
<text text-anchor="middle" x="253" y="-895" font-family="Helvetica,sans-Serif" font-size="10.00">DIALOG</text>
</a>
</g>
</g>
<!-- Node1&#45;&gt;Node7 -->
<g id="edge6_Node000001_Node000007" class="edge">
<title>Node1&#45;&gt;Node7</title>
<g id="a_edge6_Node000001_Node000007"><a xlink:title=" ">
<path fill="none" stroke="#63b8ff" d="M167.87,-639.26C173.3,-693.09 190.5,-840.92 219,-879.5 221.48,-882.86 224.79,-885.66 228.34,-887.98"/>
<polygon fill="#63b8ff" stroke="#63b8ff" points="171.33,-638.62 166.87,-629.01 164.36,-639.3 171.33,-638.62"/>
</a>
</g>
</g>
<!-- Node8 -->
<g id="Node000008" class="node">
<title>Node8</title>
<g id="a_Node000008"><a xlink:href="structDPRIZE.html" target="_top" xlink:title=" ">
<polygon fill="white" stroke="#666666" points="279.5,-870 226.5,-870 226.5,-851 279.5,-851 279.5,-870"/>
<text text-anchor="middle" x="253" y="-858" font-family="Helvetica,sans-Serif" font-size="10.00">DPRIZE</text>
</a>
</g>
</g>
<!-- Node1&#45;&gt;Node8 -->
<g id="edge7_Node000001_Node000008" class="edge">
<title>Node1&#45;&gt;Node8</title>
<g id="a_edge7_Node000001_Node000008"><a xlink:title=" ">
<path fill="none" stroke="#63b8ff" d="M165.56,-639.37C165.65,-681.29 171.3,-780.07 219,-842.5 221.54,-845.82 224.87,-848.6 228.44,-850.91"/>
<polygon fill="#63b8ff" stroke="#63b8ff" points="169.07,-639.16 165.66,-629.13 162.07,-639.1 169.07,-639.16"/>
</a>
</g>
</g>
<!-- Node12 -->
<g id="Node000012" class="node">
<title>Node12</title>
<g id="a_Node000012"><a xlink:href="structEMITTER.html" target="_top" xlink:title="Particle emitter.">
<polygon fill="white" stroke="#666666" points="282.5,-833 223.5,-833 223.5,-814 282.5,-814 282.5,-833"/>
<text text-anchor="middle" x="253" y="-821" font-family="Helvetica,sans-Serif" font-size="10.00">EMITTER</text>
</a>
</g>
</g>
<!-- Node1&#45;&gt;Node12 -->
<g id="edge11_Node000001_Node000012" class="edge">
<title>Node1&#45;&gt;Node12</title>
<g id="a_edge11_Node000001_Node000012"><a xlink:title=" ">
<path fill="none" stroke="#63b8ff" d="M166.76,-639.53C169.13,-676.28 178.89,-755.33 219,-805.5 221.61,-808.76 224.98,-811.52 228.56,-813.82"/>
<polygon fill="#63b8ff" stroke="#63b8ff" points="170.23,-638.97 166.22,-629.17 163.24,-639.34 170.23,-638.97"/>
</a>
</g>
</g>
<!-- Node13 -->
<g id="Node000013" class="node">
<title>Node13</title>
<g id="a_Node000013"><a xlink:href="structEXIT.html" target="_top" xlink:title="Exit to another worldlevel.">
<polygon fill="white" stroke="#666666" points="272,-796 234,-796 234,-777 272,-777 272,-796"/>
<text text-anchor="middle" x="253" y="-784" font-family="Helvetica,sans-Serif" font-size="10.00">EXIT</text>
</a>
</g>
</g>
<!-- Node1&#45;&gt;Node13 -->
<g id="edge12_Node000001_Node000013" class="edge">
<title>Node1&#45;&gt;Node13</title>
<g id="a_edge12_Node000001_Node000013"><a xlink:title=" ">
<path fill="none" stroke="#63b8ff" d="M168.47,-639.34C173.23,-670.21 186.28,-730.17 219,-768.5 222.98,-773.17 228.49,-776.83 233.87,-779.6"/>
<polygon fill="#63b8ff" stroke="#63b8ff" points="171.88,-638.45 167.03,-629.04 164.95,-639.42 171.88,-638.45"/>
</a>
</g>
</g>
<!-- Node14 -->
<g id="Node000014" class="node">
<title>Node14</title>
<g id="a_Node000014"><a xlink:href="structFLASH.html" target="_top" xlink:title=" ">
<polygon fill="white" stroke="#666666" points="277.5,-759 228.5,-759 228.5,-740 277.5,-740 277.5,-759"/>
<text text-anchor="middle" x="253" y="-747" font-family="Helvetica,sans-Serif" font-size="10.00">FLASH</text>
</a>
</g>
</g>
<!-- Node1&#45;&gt;Node14 -->
<g id="edge13_Node000001_Node000014" class="edge">
<title>Node1&#45;&gt;Node14</title>
<g id="a_edge13_Node000001_Node000014"><a xlink:title=" ">
<path fill="none" stroke="#63b8ff" d="M171.1,-638.83C178.3,-663.01 193.51,-704.51 219,-731.5 222.05,-734.73 225.8,-737.51 229.68,-739.86"/>
<polygon fill="#63b8ff" stroke="#63b8ff" points="174.42,-637.73 168.34,-629.06 167.69,-639.63 174.42,-637.73"/>
</a>
</g>
</g>
<!-- Node15 -->
<g id="Node000015" class="node">
<title>Node15</title>
<g id="a_Node000015"><a xlink:href="structJLOC.html" target="_top" xlink:title=" ">
<polygon fill="white" stroke="#666666" points="272.5,-722 233.5,-722 233.5,-703 272.5,-703 272.5,-722"/>
<text text-anchor="middle" x="253" y="-710" font-family="Helvetica,sans-Serif" font-size="10.00">JLOC</text>
</a>
</g>
</g>
<!-- Node1&#45;&gt;Node15 -->
<g id="edge14_Node000001_Node000015" class="edge">
<title>Node1&#45;&gt;Node15</title>
<g id="a_edge14_Node000001_Node000015"><a xlink:title=" ">
<path fill="none" stroke="#63b8ff" d="M176.1,-638.48C185.53,-654.85 200.86,-678.34 219,-694.5 223.19,-698.23 228.29,-701.49 233.22,-704.17"/>
<polygon fill="#63b8ff" stroke="#63b8ff" points="178.94,-636.37 171.02,-629.33 172.82,-639.77 178.94,-636.37"/>
</a>
</g>
</g>
<!-- Node16 -->
<g id="Node000016" class="node">
<title>Node16</title>
<g id="a_Node000016"><a xlink:href="structLIGHT.html" target="_top" xlink:title="Light.">
<polygon fill="white" stroke="#666666" points="276,-685 230,-685 230,-666 276,-666 276,-685"/>
<text text-anchor="middle" x="253" y="-673" font-family="Helvetica,sans-Serif" font-size="10.00">LIGHT</text>
</a>
</g>
</g>
<!-- Node1&#45;&gt;Node16 -->
<g id="edge15_Node000001_Node000016" class="edge">
<title>Node1&#45;&gt;Node16</title>
<g id="a_edge15_Node000001_Node000016"><a xlink:title=" ">
<path fill="none" stroke="#63b8ff" d="M186.53,-635.11C196.19,-642.23 207.99,-650.59 219,-657.5 223.64,-660.42 228.79,-663.36 233.61,-665.99"/>
<polygon fill="#63b8ff" stroke="#63b8ff" points="188.45,-632.18 178.34,-629 184.26,-637.79 188.45,-632.18"/>
</a>
</g>
</g>
<!-- Node17 -->
<g id="Node000017" class="node">
<title>Node17</title>
<g id="a_Node000017"><a xlink:href="structLIKH.html" target="_top" xlink:title=" ">
<polygon fill="white" stroke="#666666" points="272.5,-648 233.5,-648 233.5,-629 272.5,-629 272.5,-648"/>
<text text-anchor="middle" x="253" y="-636" font-family="Helvetica,sans-Serif" font-size="10.00">LIKH</text>
</a>
</g>
</g>
<!-- Node1&#45;&gt;Node17 -->
<g id="edge16_Node000001_Node000017" class="edge">
<title>Node1&#45;&gt;Node17</title>
<g id="a_edge16_Node000001_Node000017"><a xlink:title=" ">
<path fill="none" stroke="#63b8ff" d="M193.3,-625.53C206.39,-628.42 221.72,-631.81 233.43,-634.4"/>
<polygon fill="#63b8ff" stroke="#63b8ff" points="193.92,-622.08 183.4,-623.34 192.41,-628.92 193.92,-622.08"/>
</a>
</g>
</g>
<!-- Node18 -->
<g id="Node000018" class="node">
<title>Node18</title>
<g id="a_Node000018"><a xlink:href="structLOCK.html" target="_top" xlink:title="Treasure key lock.">
<polygon fill="white" stroke="#666666" points="274.5,-611 231.5,-611 231.5,-592 274.5,-592 274.5,-611"/>
<text text-anchor="middle" x="253" y="-599" font-family="Helvetica,sans-Serif" font-size="10.00">LOCK</text>
</a>
</g>
</g>
<!-- Node1&#45;&gt;Node18 -->
<g id="edge17_Node000001_Node000018" class="edge">
<title>Node1&#45;&gt;Node18</title>
<g id="a_edge17_Node000001_Node000018"><a xlink:title=" ">
<path fill="none" stroke="#63b8ff" d="M193.55,-613.73C205.79,-611.17 219.96,-608.21 231.29,-605.84"/>
<polygon fill="#63b8ff" stroke="#63b8ff" points="192.47,-610.38 183.4,-615.86 193.91,-617.23 192.47,-610.38"/>
</a>
</g>
</g>
<!-- Node19 -->
<g id="Node000019" class="node">
<title>Node19</title>
<g id="a_Node000019"><a xlink:href="structLOCKG.html" target="_top" xlink:title=" ">
<polygon fill="white" stroke="#666666" points="278,-574 228,-574 228,-555 278,-555 278,-574"/>
<text text-anchor="middle" x="253" y="-562" font-family="Helvetica,sans-Serif" font-size="10.00">LOCKG</text>
</a>
</g>
</g>
<!-- Node1&#45;&gt;Node19 -->
<g id="edge18_Node000001_Node000019" class="edge">
<title>Node1&#45;&gt;Node19</title>
<g id="a_edge18_Node000001_Node000019"><a xlink:title=" ">
<path fill="none" stroke="#63b8ff" d="M186.97,-604.07C196.56,-597.21 208.19,-589.19 219,-582.5 223.66,-579.61 228.82,-576.68 233.64,-574.05"/>
<polygon fill="#63b8ff" stroke="#63b8ff" points="184.86,-601.27 178.8,-609.97 188.96,-606.95 184.86,-601.27"/>
</a>
</g>
</g>
<!-- Node20 -->
<g id="Node000020" class="node">
<title>Node20</title>
<g id="a_Node000020"><a xlink:href="structPROXY.html" target="_top" xlink:title="Unknown.">
<polygon fill="white" stroke="#666666" points="278,-537 228,-537 228,-518 278,-518 278,-537"/>
<text text-anchor="middle" x="253" y="-525" font-family="Helvetica,sans-Serif" font-size="10.00">PROXY</text>
</a>
</g>
</g>
<!-- Node1&#45;&gt;Node20 -->
<g id="edge19_Node000001_Node000020" class="edge">
<title>Node1&#45;&gt;Node20</title>
<g id="a_edge19_Node000001_Node000020"><a xlink:title=" ">
<path fill="none" stroke="#63b8ff" d="M176.16,-600.78C185.62,-584.63 200.97,-561.46 219,-545.5 222.62,-542.3 226.9,-539.45 231.16,-537.01"/>
<polygon fill="#63b8ff" stroke="#63b8ff" points="172.93,-599.38 171.05,-609.8 179.02,-602.83 172.93,-599.38"/>
</a>
</g>
</g>
<!-- Node21 -->
<g id="Node000021" class="node">
<title>Node21</title>
<g id="a_Node000021"><a xlink:href="structPUFFB.html" target="_top" xlink:title=" ">
<polygon fill="white" stroke="#666666" points="277.5,-500 228.5,-500 228.5,-481 277.5,-481 277.5,-500"/>
<text text-anchor="middle" x="253" y="-488" font-family="Helvetica,sans-Serif" font-size="10.00">PUFFB</text>
</a>
</g>
</g>
<!-- Node1&#45;&gt;Node21 -->
<g id="edge20_Node000001_Node000021" class="edge">
<title>Node1&#45;&gt;Node21</title>
<g id="a_edge20_Node000001_Node000021"><a xlink:title=" ">
<path fill="none" stroke="#63b8ff" d="M171.25,-599.98C178.55,-575.96 193.78,-535.12 219,-508.5 222.05,-505.28 225.81,-502.5 229.69,-500.15"/>
<polygon fill="#63b8ff" stroke="#63b8ff" points="167.85,-599.14 168.45,-609.72 174.58,-601.07 167.85,-599.14"/>
</a>
</g>
</g>
<!-- Node22 -->
<g id="Node000022" class="node">
<title>Node22</title>
<g id="a_Node000022"><a xlink:href="structPUFFC.html" target="_top" xlink:title=" ">
<polygon fill="white" stroke="#666666" points="277.5,-463 228.5,-463 228.5,-444 277.5,-444 277.5,-463"/>
<text text-anchor="middle" x="253" y="-451" font-family="Helvetica,sans-Serif" font-size="10.00">PUFFC</text>
</a>
</g>
</g>
<!-- Node1&#45;&gt;Node22 -->
<g id="edge21_Node000001_Node000022" class="edge">
<title>Node1&#45;&gt;Node22</title>
<g id="a_edge21_Node000001_Node000022"><a xlink:title=" ">
<path fill="none" stroke="#63b8ff" d="M168.51,-599.75C173.33,-569.08 186.45,-509.55 219,-471.5 221.8,-468.23 225.35,-465.45 229.08,-463.12"/>
<polygon fill="#63b8ff" stroke="#63b8ff" points="165.05,-599.26 167.09,-609.66 171.98,-600.26 165.05,-599.26"/>
</a>
</g>
</g>
<!-- Node23 -->
<g id="Node000023" class="node">
<title>Node23</title>
<g id="a_Node000023"><a xlink:href="structROB.html" target="_top" xlink:title="Unknown.">
<polygon fill="white" stroke="#666666" points="272,-426 234,-426 234,-407 272,-407 272,-426"/>
<text text-anchor="middle" x="253" y="-414" font-family="Helvetica,sans-Serif" font-size="10.00">ROB</text>
</a>
</g>
</g>
<!-- Node1&#45;&gt;Node23 -->
<g id="edge22_Node000001_Node000023" class="edge">
<title>Node1&#45;&gt;Node23</title>
<g id="a_edge22_Node000001_Node000023"><a xlink:title=" ">
<path fill="none" stroke="#63b8ff" d="M166.79,-599.58C169.21,-563.02 179.05,-484.39 219,-434.5 222.83,-429.71 228.3,-426.01 233.69,-423.25"/>
<polygon fill="#63b8ff" stroke="#63b8ff" points="163.28,-599.71 166.24,-609.88 170.27,-600.09 163.28,-599.71"/>
</a>
</g>
</g>
<!-- Node24 -->
<g id="Node000024" class="node">
<title>Node24</title>
<g id="a_Node000024"><a xlink:href="structSO.html" target="_top" xlink:title=" ">
<polygon fill="#fff0f0" stroke="red" points="268,-389 238,-389 238,-370 268,-370 268,-389"/>
<text text-anchor="middle" x="253" y="-377" font-family="Helvetica,sans-Serif" font-size="10.00">SO</text>
</a>
</g>
</g>
<!-- Node1&#45;&gt;Node24 -->
<g id="edge23_Node000001_Node000024" class="edge">
<title>Node1&#45;&gt;Node24</title>
<g id="a_edge23_Node000001_Node000024"><a xlink:title=" ">
<path fill="none" stroke="#63b8ff" d="M165.59,-599.72C165.73,-557.98 171.47,-459.64 219,-397.5 223.76,-391.28 231.31,-386.94 237.98,-384.08"/>
<polygon fill="#63b8ff" stroke="#63b8ff" points="162.09,-599.94 165.67,-609.91 169.09,-599.89 162.09,-599.94"/>
</a>
</g>
</g>
<!-- Node85 -->
<g id="Node000085" class="node">
<title>Node85</title>
<g id="a_Node000085"><a xlink:href="structSPEAKER.html" target="_top" xlink:title="Sound speaker.">
<polygon fill="white" stroke="#666666" points="283.5,-352 222.5,-352 222.5,-333 283.5,-333 283.5,-352"/>
<text text-anchor="middle" x="253" y="-340" font-family="Helvetica,sans-Serif" font-size="10.00">SPEAKER</text>
</a>
</g>
</g>
<!-- Node1&#45;&gt;Node85 -->
<g id="edge45_Node000001_Node000085" class="edge">
<title>Node1&#45;&gt;Node85</title>
<g id="a_edge45_Node000001_Node000085"><a xlink:title=" ">
<path fill="none" stroke="#63b8ff" d="M167.88,-599.79C173.34,-546.14 190.6,-398.92 219,-360.5 221.48,-357.14 224.79,-354.34 228.35,-352.02"/>
<polygon fill="#63b8ff" stroke="#63b8ff" points="164.4,-599.45 166.9,-609.75 171.37,-600.14 164.4,-599.45"/>
</a>
</g>
</g>
<!-- Node86 -->
<g id="Node000086" class="node">
<title>Node86</title>
<g id="a_Node000086"><a xlink:href="structTN.html" target="_top" xlink:title=" ">
<polygon fill="white" stroke="#666666" points="268,-315 238,-315 238,-296 268,-296 268,-315"/>
<text text-anchor="middle" x="253" y="-303" font-family="Helvetica,sans-Serif" font-size="10.00">TN</text>
</a>
</g>
</g>
<!-- Node1&#45;&gt;Node86 -->
<g id="edge46_Node000001_Node000086" class="edge">
<title>Node1&#45;&gt;Node86</title>
<g id="a_edge46_Node000001_Node000086"><a xlink:title=" ">
<path fill="none" stroke="#63b8ff" d="M167.33,-599.76C171.62,-540.96 186.74,-368.27 219,-323.5 223.58,-317.15 231.11,-312.79 237.83,-309.96"/>
<polygon fill="#63b8ff" stroke="#63b8ff" points="163.82,-599.71 166.61,-609.93 170.81,-600.2 163.82,-599.71"/>
</a>
</g>
</g>
<!-- Node87 -->
<g id="Node000087" class="node">
<title>Node87</title>
<g id="a_Node000087"><a xlink:href="structWAYPOINT.html" target="_top" xlink:title=" ">
<polygon fill="white" stroke="#666666" points="287,-278 219,-278 219,-259 287,-259 287,-278"/>
<text text-anchor="middle" x="253" y="-266" font-family="Helvetica,sans-Serif" font-size="10.00">WAYPOINT</text>
</a>
</g>
</g>
<!-- Node1&#45;&gt;Node87 -->
<g id="edge47_Node000001_Node000087" class="edge">
<title>Node1&#45;&gt;Node87</title>
<g id="a_edge47_Node000001_Node000087"><a xlink:title=" ">
<path fill="none" stroke="#63b8ff" d="M166.91,-599.41C170.15,-535.43 182.93,-337.6 219,-286.5 221.33,-283.19 224.47,-280.43 227.89,-278.15"/>
<polygon fill="#63b8ff" stroke="#63b8ff" points="163.4,-599.58 166.41,-609.74 170.39,-599.92 163.4,-599.58"/>
</a>
</g>
</g>
<!-- Node88 -->
<g id="Node000088" class="node">
<title>Node88</title>
<g id="a_Node000088"><a xlink:href="structWM.html" target="_top" xlink:title=" ">
<polygon fill="white" stroke="#666666" points="270.5,-241 235.5,-241 235.5,-222 270.5,-222 270.5,-241"/>
<text text-anchor="middle" x="253" y="-229" font-family="Helvetica,sans-Serif" font-size="10.00">WM</text>
</a>
</g>
</g>
<!-- Node1&#45;&gt;Node88 -->
<g id="edge48_Node000001_Node000088" class="edge">
<title>Node1&#45;&gt;Node88</title>
<g id="a_edge48_Node000001_Node000088"><a xlink:title=" ">
<path fill="none" stroke="#63b8ff" d="M166.55,-599.44C168.78,-530.91 179.03,-307.07 219,-249.5 222.95,-243.82 229.28,-239.75 235.35,-236.94"/>
<polygon fill="#63b8ff" stroke="#63b8ff" points="163.04,-599.62 166.24,-609.72 170.04,-599.83 163.04,-599.62"/>
</a>
</g>
</g>
<!-- Node2 -->
<g id="Node000002" class="node">
<title>Node2</title>
<g id="a_Node000002"><a xlink:href="structLO.html" target="_top" xlink:title="Live Object, base class for all objects that exist in the world.">
<polygon fill="white" stroke="#666666" points="111,-629 82,-629 82,-610 111,-610 111,-629"/>
<text text-anchor="middle" x="96.5" y="-617" font-family="Helvetica,sans-Serif" font-size="10.00">LO</text>
</a>
</g>
</g>
<!-- Node2&#45;&gt;Node1 -->
<g id="edge1_Node000001_Node000002" class="edge">
<title>Node2&#45;&gt;Node1</title>
<g id="a_edge1_Node000001_Node000002"><a xlink:title=" ">
<path fill="none" stroke="#63b8ff" d="M121.34,-619.5C129.8,-619.5 139.15,-619.5 146.93,-619.5"/>
<polygon fill="#63b8ff" stroke="#63b8ff" points="121.28,-616 111.28,-619.5 121.28,-623 121.28,-616"/>
</a>
</g>
</g>
<!-- Node3 -->
<g id="Node000003" class="node">
<title>Node3</title>
<g id="a_Node000003"><a xlink:href="structBASIC.html" target="_top" xlink:title="Base object for most other kinds of objects.">
<polygon fill="white" stroke="#666666" points="46,-629 0,-629 0,-610 46,-610 46,-629"/>
<text text-anchor="middle" x="23" y="-617" font-family="Helvetica,sans-Serif" font-size="10.00">BASIC</text>
</a>
</g>
</g>
<!-- Node3&#45;&gt;Node2 -->
<g id="edge2_Node000002_Node000003" class="edge">
<title>Node3&#45;&gt;Node2</title>
<g id="a_edge2_Node000002_Node000003"><a xlink:title=" ">
<path fill="none" stroke="#63b8ff" d="M56.45,-619.5C65.38,-619.5 74.59,-619.5 81.82,-619.5"/>
<polygon fill="#63b8ff" stroke="#63b8ff" points="56.23,-616 46.23,-619.5 56.23,-623 56.23,-616"/>
</a>
</g>
</g>
<!-- Node9 -->
<g id="Node000009" class="node">
<title>Node9</title>
<g id="a_Node000009"><a xlink:href="structCHARM.html" target="_top" xlink:title="Lucky charm worn by Sly and Murray.">
<polygon fill="white" stroke="#666666" points="379,-907 326,-907 326,-888 379,-888 379,-907"/>
<text text-anchor="middle" x="352.5" y="-895" font-family="Helvetica,sans-Serif" font-size="10.00">CHARM</text>
</a>
</g>
</g>
<!-- Node8&#45;&gt;Node9 -->
<g id="edge8_Node000008_Node000009" class="edge">
<title>Node8&#45;&gt;Node9</title>
<g id="a_edge8_Node000008_Node000009"><a xlink:title=" ">
<path fill="none" stroke="#63b8ff" d="M288.67,-873.66C301.03,-878.35 314.71,-883.54 326.14,-887.88"/>
<polygon fill="#63b8ff" stroke="#63b8ff" points="289.7,-870.3 279.11,-870.03 287.22,-876.85 289.7,-870.3"/>
</a>
</g>
</g>
<!-- Node10 -->
<g id="Node000010" class="node">
<title>Node10</title>
<g id="a_Node000010"><a xlink:href="structCOIN.html" target="_top" xlink:title="Treasure coin.">
<polygon fill="white" stroke="#666666" points="373,-870 332,-870 332,-851 373,-851 373,-870"/>
<text text-anchor="middle" x="352.5" y="-858" font-family="Helvetica,sans-Serif" font-size="10.00">COIN</text>
</a>
</g>
</g>
<!-- Node8&#45;&gt;Node10 -->
<g id="edge9_Node000008_Node000010" class="edge">
<title>Node8&#45;&gt;Node10</title>
<g id="a_edge9_Node000008_Node000010"><a xlink:title=" ">
<path fill="none" stroke="#63b8ff" d="M289.64,-860.5C303.92,-860.5 319.8,-860.5 331.91,-860.5"/>
<polygon fill="#63b8ff" stroke="#63b8ff" points="289.62,-857 279.62,-860.5 289.62,-864 289.62,-857"/>
</a>
</g>
</g>
<!-- Node11 -->
<g id="Node000011" class="node">
<title>Node11</title>
<g id="a_Node000011"><a xlink:href="structKEY.html" target="_top" xlink:title="Treasure key.">
<polygon fill="white" stroke="#666666" points="370,-833 335,-833 335,-814 370,-814 370,-833"/>
<text text-anchor="middle" x="352.5" y="-821" font-family="Helvetica,sans-Serif" font-size="10.00">KEY</text>
</a>
</g>
</g>
<!-- Node8&#45;&gt;Node11 -->
<g id="edge10_Node000008_Node000011" class="edge">
<title>Node8&#45;&gt;Node11</title>
<g id="a_edge10_Node000008_Node000011"><a xlink:title=" ">
<path fill="none" stroke="#63b8ff" d="M288.54,-847.39C304.23,-841.44 322.08,-834.66 334.75,-829.85"/>
<polygon fill="#63b8ff" stroke="#63b8ff" points="287.22,-844.15 279.11,-850.97 289.7,-850.7 287.22,-844.15"/>
</a>
</g>
</g>
<!-- Node25 -->
<g id="Node000025" class="node">
<title>Node25</title>
<g id="a_Node000025"><a xlink:href="structALARM.html" target="_top" xlink:title="Alarm object that controls some sensors.">
<polygon fill="white" stroke="#666666" points="378.5,-759 326.5,-759 326.5,-740 378.5,-740 378.5,-759"/>
<text text-anchor="middle" x="352.5" y="-747" font-family="Helvetica,sans-Serif" font-size="10.00">ALARM</text>
</a>
</g>
</g>
<!-- Node24&#45;&gt;Node25 -->
<g id="edge24_Node000024_Node000025" class="edge">
<title>Node24&#45;&gt;Node25</title>
<g id="a_edge24_Node000024_Node000025"><a xlink:title=" ">
<path fill="none" stroke="#63b8ff" d="M277.16,-388.33C280.98,-390.76 284.51,-393.78 287,-397.5 369.99,-521.61 244.02,-604.8 323,-731.5 325.04,-734.78 327.93,-737.56 331.08,-739.89"/>
<polygon fill="#63b8ff" stroke="#63b8ff" points="278.52,-385.1 268.02,-383.69 275.35,-391.34 278.52,-385.1"/>
</a>
</g>
</g>
<!-- Node26 -->
<g id="Node000026" class="node">
<title>Node26</title>
<g id="a_Node000026"><a xlink:href="structBARRIER.html" target="_top" xlink:title="Barrier.">
<polygon fill="white" stroke="#666666" points="382,-722 323,-722 323,-703 382,-703 382,-722"/>
<text text-anchor="middle" x="352.5" y="-710" font-family="Helvetica,sans-Serif" font-size="10.00">BARRIER</text>
</a>
</g>
</g>
<!-- Node24&#45;&gt;Node26 -->
<g id="edge25_Node000024_Node000026" class="edge">
<title>Node24&#45;&gt;Node26</title>
<g id="a_edge25_Node000024_Node000026"><a xlink:title=" ">
<path fill="none" stroke="#63b8ff" d="M277.3,-388.48C281.06,-390.88 284.53,-393.85 287,-397.5 361.64,-507.54 251.91,-582.13 323,-694.5 325.06,-697.76 327.96,-700.54 331.12,-702.87"/>
<polygon fill="#63b8ff" stroke="#63b8ff" points="278.82,-385.32 268.32,-383.86 275.61,-391.54 278.82,-385.32"/>
</a>
</g>
</g>
<!-- Node27 -->
<g id="Node000027" class="node">
<title>Node27</title>
<g id="a_Node000027"><a xlink:href="structBOMB.html" target="_top" xlink:title="Bomb (?).">
<polygon fill="#fff0f0" stroke="red" points="376,-685 329,-685 329,-666 376,-666 376,-685"/>
<text text-anchor="middle" x="352.5" y="-673" font-family="Helvetica,sans-Serif" font-size="10.00">BOMB</text>
</a>
</g>
</g>
<!-- Node24&#45;&gt;Node27 -->
<g id="edge26_Node000024_Node000027" class="edge">
<title>Node24&#45;&gt;Node27</title>
<g id="a_edge26_Node000024_Node000027"><a xlink:title=" ">
<path fill="none" stroke="#63b8ff" d="M277.25,-388.51C281.02,-390.91 284.5,-393.88 287,-397.5 353.3,-493.48 259.8,-559.45 323,-657.5 325.09,-660.75 328,-663.52 331.16,-665.84"/>
<polygon fill="#63b8ff" stroke="#63b8ff" points="278.77,-385.35 268.28,-383.89 275.56,-391.58 278.77,-385.35"/>
</a>
</g>
</g>
<!-- Node33 -->
<g id="Node000033" class="node">
<title>Node33</title>
<g id="a_Node000033"><a xlink:href="structBRK.html" target="_top" xlink:title=" ">
<polygon fill="#fff0f0" stroke="red" points="371,-648 334,-648 334,-629 371,-629 371,-648"/>
<text text-anchor="middle" x="352.5" y="-636" font-family="Helvetica,sans-Serif" font-size="10.00">BRK</text>
</a>
</g>
</g>
<!-- Node24&#45;&gt;Node33 -->
<g id="edge27_Node000024_Node000033" class="edge">
<title>Node24&#45;&gt;Node33</title>
<g id="a_edge27_Node000024_Node000033"><a xlink:title=" ">
<path fill="none" stroke="#63b8ff" d="M277.19,-388.56C280.96,-390.95 284.46,-393.9 287,-397.5 344.98,-479.46 267.67,-536.73 323,-620.5 325.71,-624.6 329.71,-627.95 333.86,-630.6"/>
<polygon fill="#63b8ff" stroke="#63b8ff" points="278.71,-385.4 268.22,-383.93 275.5,-391.62 278.71,-385.4"/>
</a>
</g>
</g>
<!-- Node39 -->
<g id="Node000039" class="node">
<title>Node39</title>
<g id="a_Node000039"><a xlink:href="structBRKP.html" target="_top" xlink:title="BREAKABLE_PIECE.">
<polygon fill="white" stroke="#666666" points="374,-611 331,-611 331,-592 374,-592 374,-611"/>
<text text-anchor="middle" x="352.5" y="-599" font-family="Helvetica,sans-Serif" font-size="10.00">BRKP</text>
</a>
</g>
</g>
<!-- Node24&#45;&gt;Node39 -->
<g id="edge28_Node000024_Node000039" class="edge">
<title>Node24&#45;&gt;Node39</title>
<g id="a_edge28_Node000024_Node000039"><a xlink:title=" ">
<path fill="none" stroke="#63b8ff" d="M277.1,-388.62C280.87,-391.01 284.4,-393.95 287,-397.5 336.47,-465.09 276.57,-512.78 323,-582.5 325.44,-586.16 328.85,-589.3 332.47,-591.9"/>
<polygon fill="#63b8ff" stroke="#63b8ff" points="278.62,-385.47 268.13,-383.99 275.41,-391.69 278.62,-385.47"/>
</a>
</g>
</g>
<!-- Node40 -->
<g id="Node000040" class="node">
<title>Node40</title>
<g id="a_Node000040"><a xlink:href="structBUTTON.html" target="_top" xlink:title="Button.">
<polygon fill="white" stroke="#666666" points="381.5,-574 323.5,-574 323.5,-555 381.5,-555 381.5,-574"/>
<text text-anchor="middle" x="352.5" y="-562" font-family="Helvetica,sans-Serif" font-size="10.00">BUTTON</text>
</a>
</g>
</g>
<!-- Node24&#45;&gt;Node40 -->
<g id="edge29_Node000024_Node000040" class="edge">
<title>Node24&#45;&gt;Node40</title>
<g id="a_edge29_Node000024_Node000040"><a xlink:title=" ">
<path fill="none" stroke="#63b8ff" d="M276.96,-388.72C280.75,-391.1 284.32,-394.01 287,-397.5 328.24,-451.18 284.18,-490.04 323,-545.5 325.52,-549.11 328.97,-552.21 332.59,-554.81"/>
<polygon fill="#63b8ff" stroke="#63b8ff" points="278.49,-385.58 268.01,-384.08 275.28,-391.79 278.49,-385.58"/>
</a>
</g>
</g>
<!-- Node41 -->
<g id="Node000041" class="node">
<title>Node41</title>
<g id="a_Node000041"><a xlink:href="structCNVO.html" target="_top" xlink:title=" ">
<polygon fill="white" stroke="#666666" points="375,-537 330,-537 330,-518 375,-518 375,-537"/>
<text text-anchor="middle" x="352.5" y="-525" font-family="Helvetica,sans-Serif" font-size="10.00">CNVO</text>
</a>
</g>
</g>
<!-- Node24&#45;&gt;Node41 -->
<g id="edge30_Node000024_Node000041" class="edge">
<title>Node24&#45;&gt;Node41</title>
<g id="a_edge30_Node000024_Node000041"><a xlink:title=" ">
<path fill="none" stroke="#63b8ff" d="M277.25,-389.21C280.88,-391.51 284.31,-394.26 287,-397.5 320.11,-437.42 291.69,-467.16 323,-508.5 325.73,-512.1 329.35,-515.24 333.09,-517.87"/>
<polygon fill="#63b8ff" stroke="#63b8ff" points="278.62,-385.97 268.14,-384.39 275.35,-392.16 278.62,-385.97"/>
</a>
</g>
</g>
<!-- Node42 -->
<g id="Node000042" class="node">
<title>Node42</title>
<g id="a_Node000042"><a xlink:href="structDART.html" target="_top" xlink:title="Projectile for dartguns.">
<polygon fill="white" stroke="#666666" points="374,-500 331,-500 331,-481 374,-481 374,-500"/>
<text text-anchor="middle" x="352.5" y="-488" font-family="Helvetica,sans-Serif" font-size="10.00">DART</text>
</a>
</g>
</g>
<!-- Node24&#45;&gt;Node42 -->
<g id="edge31_Node000024_Node000042" class="edge">
<title>Node24&#45;&gt;Node42</title>
<g id="a_edge31_Node000024_Node000042"><a xlink:title=" ">
<path fill="none" stroke="#63b8ff" d="M277.07,-389.65C280.67,-391.89 284.14,-394.51 287,-397.5 312.25,-423.96 298.94,-443.95 323,-471.5 326.13,-475.08 330.09,-478.28 334.05,-480.99"/>
<polygon fill="#63b8ff" stroke="#63b8ff" points="278.59,-386.49 268.12,-384.85 275.28,-392.66 278.59,-386.49"/>
</a>
</g>
</g>
<!-- Node43 -->
<g id="Node000043" class="node">
<title>Node43</title>
<g id="a_Node000043"><a xlink:href="structFLY.html" target="_top" xlink:title="Flying animal.">
<polygon fill="white" stroke="#666666" points="369,-463 336,-463 336,-444 369,-444 369,-463"/>
<text text-anchor="middle" x="352.5" y="-451" font-family="Helvetica,sans-Serif" font-size="10.00">FLY</text>
</a>
</g>
</g>
<!-- Node24&#45;&gt;Node43 -->
<g id="edge32_Node000024_Node000043" class="edge">
<title>Node24&#45;&gt;Node43</title>
<g id="a_edge32_Node000024_Node000043"><a xlink:title=" ">
<path fill="none" stroke="#63b8ff" d="M277.01,-390.89C280.47,-392.92 283.91,-395.15 287,-397.5 305.28,-411.37 305.36,-419.83 323,-434.5 327.02,-437.85 331.65,-441.14 335.99,-444.01"/>
<polygon fill="#63b8ff" stroke="#63b8ff" points="278.5,-387.71 268.05,-385.98 275.15,-393.85 278.5,-387.71"/>
</a>
</g>
</g>
<!-- Node44 -->
<g id="Node000044" class="node">
<title>Node44</title>
<g id="a_Node000044"><a xlink:href="structIKH.html" target="_top" xlink:title=" ">
<polygon fill="white" stroke="#666666" points="369.5,-426 335.5,-426 335.5,-407 369.5,-407 369.5,-426"/>
<text text-anchor="middle" x="352.5" y="-414" font-family="Helvetica,sans-Serif" font-size="10.00">IKH</text>
</a>
</g>
</g>
<!-- Node24&#45;&gt;Node44 -->
<g id="edge33_Node000024_Node000044" class="edge">
<title>Node24&#45;&gt;Node44</title>
<g id="a_edge33_Node000024_Node000044"><a xlink:title=" ">
<path fill="none" stroke="#63b8ff" d="M277.86,-388.55C295.75,-395.34 319.76,-404.46 335.43,-410.4"/>
<polygon fill="#63b8ff" stroke="#63b8ff" points="278.98,-385.24 268.39,-384.96 276.49,-391.78 278.98,-385.24"/>
</a>
</g>
</g>
<!-- Node45 -->
<g id="Node000045" class="node">
<title>Node45</title>
<g id="a_Node000045"><a xlink:href="structJLO.html" target="_top" xlink:title="Unknown.">
<polygon fill="white" stroke="#666666" points="368.5,-389 336.5,-389 336.5,-370 368.5,-370 368.5,-389"/>
<text text-anchor="middle" x="352.5" y="-377" font-family="Helvetica,sans-Serif" font-size="10.00">JLO</text>
</a>
</g>
</g>
<!-- Node24&#45;&gt;Node45 -->
<g id="edge34_Node000024_Node000045" class="edge">
<title>Node24&#45;&gt;Node45</title>
<g id="a_edge34_Node000024_Node000045"><a xlink:title=" ">
<path fill="none" stroke="#63b8ff" d="M278.55,-379.5C296.75,-379.5 320.98,-379.5 336.41,-379.5"/>
<polygon fill="#63b8ff" stroke="#63b8ff" points="278.39,-376 268.39,-379.5 278.39,-383 278.39,-376"/>
</a>
</g>
</g>
<!-- Node46 -->
<g id="Node000046" class="node">
<title>Node46</title>
<g id="a_Node000046"><a xlink:href="structMRKV.html" target="_top" xlink:title="Unknown.">
<polygon fill="white" stroke="#666666" points="375.5,-352 329.5,-352 329.5,-333 375.5,-333 375.5,-352"/>
<text text-anchor="middle" x="352.5" y="-340" font-family="Helvetica,sans-Serif" font-size="10.00">MRKV</text>
</a>
</g>
</g>
<!-- Node24&#45;&gt;Node46 -->
<g id="edge35_Node000024_Node000046" class="edge">
<title>Node24&#45;&gt;Node46</title>
<g id="a_edge35_Node000024_Node000046"><a xlink:title=" ">
<path fill="none" stroke="#63b8ff" d="M277.95,-370.41C293.69,-364.44 314.13,-356.68 329.47,-350.86"/>
<polygon fill="#63b8ff" stroke="#63b8ff" points="276.49,-367.22 268.39,-374.04 278.98,-373.76 276.49,-367.22"/>
</a>
</g>
</g>
<!-- Node47 -->
<g id="Node000047" class="node">
<title>Node47</title>
<g id="a_Node000047"><a xlink:href="structPO.html" target="_top" xlink:title="Used for playable objects (e.g. JT).">
<polygon fill="#fff0f0" stroke="red" points="367.5,-315 337.5,-315 337.5,-296 367.5,-296 367.5,-315"/>
<text text-anchor="middle" x="352.5" y="-303" font-family="Helvetica,sans-Serif" font-size="10.00">PO</text>
</a>
</g>
</g>
<!-- Node24&#45;&gt;Node47 -->
<g id="edge36_Node000024_Node000047" class="edge">
<title>Node24&#45;&gt;Node47</title>
<g id="a_edge36_Node000024_Node000047"><a xlink:title=" ">
<path fill="none" stroke="#63b8ff" d="M276.99,-367.37C280.45,-365.23 283.89,-362.91 287,-360.5 305.11,-346.42 305.18,-337.95 323,-323.5 327.46,-319.89 332.68,-316.4 337.42,-313.48"/>
<polygon fill="#63b8ff" stroke="#63b8ff" points="274.94,-364.51 268.03,-372.54 278.44,-370.57 274.94,-364.51"/>
</a>
</g>
</g>
<!-- Node66 -->
<g id="Node000066" class="node">
<title>Node66</title>
<g id="a_Node000066"><a xlink:href="structPUFFT.html" target="_top" xlink:title=" ">
<polygon fill="white" stroke="#666666" points="376,-278 329,-278 329,-259 376,-259 376,-278"/>
<text text-anchor="middle" x="352.5" y="-266" font-family="Helvetica,sans-Serif" font-size="10.00">PUFFT</text>
</a>
</g>
</g>
<!-- Node24&#45;&gt;Node66 -->
<g id="edge37_Node000024_Node000066" class="edge">
<title>Node24&#45;&gt;Node66</title>
<g id="a_edge37_Node000024_Node000066"><a xlink:title=" ">
<path fill="none" stroke="#63b8ff" d="M277.07,-368.63C280.67,-366.28 284.14,-363.57 287,-360.5 311.95,-333.75 298.61,-313.75 323,-286.5 325.81,-283.36 329.29,-280.56 332.85,-278.16"/>
<polygon fill="#63b8ff" stroke="#63b8ff" points="275.09,-365.72 268.12,-373.7 278.55,-371.81 275.09,-365.72"/>
</a>
</g>
</g>
<!-- Node67 -->
<g id="Node000067" class="node">
<title>Node67</title>
<g id="a_Node000067"><a xlink:href="structRAT.html" target="_top" xlink:title="Rat animal.">
<polygon fill="white" stroke="#666666" points="370,-241 335,-241 335,-222 370,-222 370,-241"/>
<text text-anchor="middle" x="352.5" y="-229" font-family="Helvetica,sans-Serif" font-size="10.00">RAT</text>
</a>
</g>
</g>
<!-- Node24&#45;&gt;Node67 -->
<g id="edge38_Node000024_Node000067" class="edge">
<title>Node24&#45;&gt;Node67</title>
<g id="a_edge38_Node000024_Node000067"><a xlink:title=" ">
<path fill="none" stroke="#63b8ff" d="M276.95,-369.28C280.69,-366.83 284.24,-363.91 287,-360.5 319.65,-320.21 291.18,-290.45 323,-249.5 326.16,-245.43 330.51,-242.04 334.87,-239.33"/>
<polygon fill="#63b8ff" stroke="#63b8ff" points="275.19,-366.25 268.15,-374.17 278.59,-372.37 275.19,-366.25"/>
</a>
</g>
</g>
<!-- Node68 -->
<g id="Node000068" class="node">
<title>Node68</title>
<g id="a_Node000068"><a xlink:href="structRIPG.html" target="_top" xlink:title="(?) group?">
<polygon fill="white" stroke="#666666" points="372.5,-204 332.5,-204 332.5,-185 372.5,-185 372.5,-204"/>
<text text-anchor="middle" x="352.5" y="-192" font-family="Helvetica,sans-Serif" font-size="10.00">RIPG</text>
</a>
</g>
</g>
<!-- Node24&#45;&gt;Node68 -->
<g id="edge39_Node000024_Node000068" class="edge">
<title>Node24&#45;&gt;Node68</title>
<g id="a_edge39_Node000024_Node000068"><a xlink:title=" ">
<path fill="none" stroke="#63b8ff" d="M276.97,-369.57C280.76,-367.08 284.32,-364.07 287,-360.5 327.62,-306.34 283.5,-267.48 323,-212.5 325.46,-209.08 328.79,-206.16 332.31,-203.73"/>
<polygon fill="#63b8ff" stroke="#63b8ff" points="275.1,-366.61 268.01,-374.48 278.47,-372.75 275.1,-366.61"/>
</a>
</g>
</g>
<!-- Node69 -->
<g id="Node000069" class="node">
<title>Node69</title>
<g id="a_Node000069"><a xlink:href="structROC.html" target="_top" xlink:title="Unknown.">
<polygon fill="white" stroke="#666666" points="371.5,-167 333.5,-167 333.5,-148 371.5,-148 371.5,-167"/>
<text text-anchor="middle" x="352.5" y="-155" font-family="Helvetica,sans-Serif" font-size="10.00">ROC</text>
</a>
</g>
</g>
<!-- Node24&#45;&gt;Node69 -->
<g id="edge40_Node000024_Node000069" class="edge">
<title>Node24&#45;&gt;Node69</title>
<g id="a_edge40_Node000024_Node000069"><a xlink:title=" ">
<path fill="none" stroke="#63b8ff" d="M277.11,-369.67C280.89,-367.17 284.41,-364.13 287,-360.5 335.69,-292.34 275.71,-244.64 323,-175.5 325.64,-171.64 329.42,-168.43 333.36,-165.85"/>
<polygon fill="#63b8ff" stroke="#63b8ff" points="275.24,-366.71 268.14,-374.58 278.59,-372.85 275.24,-366.71"/>
</a>
</g>
</g>
<!-- Node70 -->
<g id="Node000070" class="node">
<title>Node70</title>
<g id="a_Node000070"><a xlink:href="structROH.html" target="_top" xlink:title="Unknown.">
<polygon fill="white" stroke="#666666" points="371.5,-130 333.5,-130 333.5,-111 371.5,-111 371.5,-130"/>
<text text-anchor="middle" x="352.5" y="-118" font-family="Helvetica,sans-Serif" font-size="10.00">ROH</text>
</a>
</g>
</g>
<!-- Node24&#45;&gt;Node70 -->
<g id="edge41_Node000024_Node000070" class="edge">
<title>Node24&#45;&gt;Node70</title>
<g id="a_edge41_Node000024_Node000070"><a xlink:title=" ">
<path fill="none" stroke="#63b8ff" d="M277.2,-369.74C280.97,-367.23 284.46,-364.17 287,-360.5 343.82,-278.26 267.88,-221.88 323,-138.5 325.58,-134.59 329.33,-131.37 333.27,-128.79"/>
<polygon fill="#63b8ff" stroke="#63b8ff" points="275.33,-366.77 268.23,-374.64 278.68,-372.92 275.33,-366.77"/>
</a>
</g>
</g>
<!-- Node71 -->
<g id="Node000071" class="node">
<title>Node71</title>
<g id="a_Node000071"><a xlink:href="structROP.html" target="_top" xlink:title="Unknown.">
<polygon fill="white" stroke="#666666" points="371,-93 334,-93 334,-74 371,-74 371,-93"/>
<text text-anchor="middle" x="352.5" y="-81" font-family="Helvetica,sans-Serif" font-size="10.00">ROP</text>
</a>
</g>
</g>
<!-- Node24&#45;&gt;Node71 -->
<g id="edge42_Node000024_Node000071" class="edge">
<title>Node24&#45;&gt;Node71</title>
<g id="a_edge42_Node000024_Node000071"><a xlink:title=" ">
<path fill="none" stroke="#63b8ff" d="M277.27,-369.78C281.03,-367.27 284.51,-364.2 287,-360.5 351.97,-264.14 260.01,-199.17 323,-101.5 325.66,-97.37 329.65,-94.01 333.8,-91.36"/>
<polygon fill="#63b8ff" stroke="#63b8ff" points="275.39,-366.82 268.29,-374.68 278.75,-372.97 275.39,-366.82"/>
</a>
</g>
</g>
<!-- Node72 -->
<g id="Node000072" class="node">
<title>Node72</title>
<g id="a_Node000072"><a xlink:href="structROST.html" target="_top" xlink:title="Unknown.">
<polygon fill="white" stroke="#666666" points="374,-56 331,-56 331,-37 374,-37 374,-56"/>
<text text-anchor="middle" x="352.5" y="-44" font-family="Helvetica,sans-Serif" font-size="10.00">ROST</text>
</a>
</g>
</g>
<!-- Node24&#45;&gt;Node72 -->
<g id="edge43_Node000024_Node000072" class="edge">
<title>Node24&#45;&gt;Node72</title>
<g id="a_edge43_Node000024_Node000072"><a xlink:title=" ">
<path fill="none" stroke="#63b8ff" d="M277.13,-369.94C280.96,-367.4 284.5,-364.28 287,-360.5 360.15,-249.99 252.13,-176.48 323,-64.5 325.07,-61.24 327.96,-58.46 331.12,-56.13"/>
<polygon fill="#63b8ff" stroke="#63b8ff" points="275.15,-367.04 268,-374.86 278.46,-373.2 275.15,-367.04"/>
</a>
</g>
</g>
<!-- Node73 -->
<g id="Node000073" class="node">
<title>Node73</title>
<g id="a_Node000073"><a xlink:href="structSENSOR.html" target="_top" xlink:title=" ">
<polygon fill="#fff0f0" stroke="red" points="380.5,-19 324.5,-19 324.5,0 380.5,0 380.5,-19"/>
<text text-anchor="middle" x="352.5" y="-7" font-family="Helvetica,sans-Serif" font-size="10.00">SENSOR</text>
</a>
</g>
</g>
<!-- Node24&#45;&gt;Node73 -->
<g id="edge44_Node000024_Node000073" class="edge">
<title>Node24&#45;&gt;Node73</title>
<g id="a_edge44_Node000024_Node000073"><a xlink:title=" ">
<path fill="none" stroke="#63b8ff" d="M277.17,-369.97C281,-367.43 284.52,-364.3 287,-360.5 368.34,-235.82 244.23,-153.81 323,-27.5 325.04,-24.22 327.93,-21.44 331.08,-19.11"/>
<polygon fill="#63b8ff" stroke="#63b8ff" points="275.19,-367.07 268.04,-374.88 278.5,-373.23 275.19,-367.07"/>
</a>
</g>
</g>
</g>
</svg>

<g id="navigator" transform="translate(0 0)" fill="#404254">
  <rect fill="#f2f5e9" fill-opacity="0.5" stroke="#606060" stroke-width=".5" x="0" y="0" width="60" height="60"/>
  <use id="zoomplus" xlink:href="#zoomPlus" x="17" y="9" onmousedown="handleZoom(evt,'in')"/>
  <use id="zoomminus" xlink:href="#zoomMin" x="42" y="9" onmousedown="handleZoom(evt,'out')"/>
  <use id="reset" xlink:href="#resetDef" x="30" y="36" onmousedown="handleReset()"/>
   <use id="arrowup" xlink:href="#arrowUp" x="0" y="0" onmousedown="handlePan(0,-1)"/>
  <use id="arrowright" xlink:href="#arrowRight" x="0" y="0" onmousedown="handlePan(1,0)"/>
  <use id="arrowdown" xlink:href="#arrowDown" x="0" y="0" onmousedown="handlePan(0,1)"/>
  <use id="arrowleft" xlink:href="#arrowLeft" x="0" y="0" onmousedown="handlePan(-1,0)"/>
</g>
<svg viewBox="0 0 15 15" width="100%" height="30px" preserveAspectRatio="xMaxYMin meet">
 <g id="arrow_out" transform="scale(0.3 0.3)">
  <a xlink:href="structALO__inherit__graph_org.svg" target="_base">
   <rect id="button" ry="5" rx="5" y="6" x="6" height="38" width="38"
        fill="#f2f5e9" fill-opacity="0.5" stroke="#606060" stroke-width="1.0"/>
   <path id="arrow"
     d="M 11.500037,31.436501 C 11.940474,20.09759 22.043105,11.32322 32.158766,21.979434 L 37.068811,17.246167 C 37.068811,17.246167 37.088388,32 37.088388,32 L 22.160133,31.978069 C 22.160133,31.978069 26.997745,27.140456 26.997745,27.140456 C 18.528582,18.264221 13.291696,25.230495 11.500037,31.436501 z"
     style="fill:#404040;"/>
  </a>
 </g>
</svg>

<style type='text/css'>
<![CDATA[
[data-mouse-over-selected='false'] { opacity: 0.7; }
[data-mouse-over-selected='true']  { opacity: 1.0; }
]]>
</style>
<script type="application/ecmascript"><![CDATA[
document.addEventListener('DOMContentLoaded', (event) => {
  highlightEdges();
  highlightAdjacentNodes();
});
]]></script>
</svg>
