<?xml version="1.0" encoding="UTF-8" standalone="no"?>
<!DOCTYPE svg PUBLIC "-//W3C//DTD SVG 1.1//EN"
 "http://www.w3.org/Graphics/SVG/1.1/DTD/svg11.dtd">
<!-- Generated by graphviz version 2.43.0 (0)
 -->
<!-- Title: RAY Pages: 1 -->
<svg width="56pt" height="137pt"
 viewBox="0.00 0.00 56.00 137.00" xmlns="http://www.w3.org/2000/svg" xmlns:xlink="http://www.w3.org/1999/xlink">
<g id="graph0" class="graph" transform="scale(1 1) rotate(0) translate(4 133)">
<title>RAY</title>
<!-- Node1 -->
<g id="Node000001" class="node">
<title>Node1</title>
<g id="a_Node000001"><a xlink:title="Unknown.">
<polygon fill="#999999" stroke="#666666" points="41.5,-19 6.5,-19 6.5,0 41.5,0 41.5,-19"/>
<text text-anchor="middle" x="24" y="-7" font-family="Helvetica,sans-Serif" font-size="10.00">RAY</text>
</a>
</g>
</g>
<!-- Node2 -->
<g id="Node000002" class="node">
<title>Node2</title>
<g id="a_Node000002"><a xlink:href="structSPARK.html" target="_top" xlink:title="Unknown.">
<polygon fill="white" stroke="#666666" points="48,-74 0,-74 0,-55 48,-55 48,-74"/>
<text text-anchor="middle" x="24" y="-62" font-family="Helvetica,sans-Serif" font-size="10.00">SPARK</text>
</a>
</g>
</g>
<!-- Node2&#45;&gt;Node1 -->
<g id="edge1_Node000001_Node000002" class="edge">
<title>Node2&#45;&gt;Node1</title>
<g id="a_edge1_Node000001_Node000002"><a xlink:title=" ">
<path fill="none" stroke="#63b8ff" d="M24,-44.66C24,-35.93 24,-25.99 24,-19.09"/>
<polygon fill="#63b8ff" stroke="#63b8ff" points="20.5,-44.75 24,-54.75 27.5,-44.75 20.5,-44.75"/>
</a>
</g>
</g>
<!-- Node3 -->
<g id="Node000003" class="node">
<title>Node3</title>
<g id="a_Node000003"><a xlink:href="structRIP.html" target="_top" xlink:title="Unknown.">
<polygon fill="white" stroke="#666666" points="40,-129 8,-129 8,-110 40,-110 40,-129"/>
<text text-anchor="middle" x="24" y="-117" font-family="Helvetica,sans-Serif" font-size="10.00">RIP</text>
</a>
</g>
</g>
<!-- Node3&#45;&gt;Node2 -->
<g id="edge2_Node000002_Node000003" class="edge">
<title>Node3&#45;&gt;Node2</title>
<g id="a_edge2_Node000002_Node000003"><a xlink:title=" ">
<path fill="none" stroke="#63b8ff" d="M24,-99.66C24,-90.93 24,-80.99 24,-74.09"/>
<polygon fill="#63b8ff" stroke="#63b8ff" points="20.5,-99.75 24,-109.75 27.5,-99.75 20.5,-99.75"/>
</a>
</g>
</g>
</g>
</svg>
