<?xml version="1.0" encoding="UTF-8" standalone="no"?>
<!DOCTYPE svg PUBLIC "-//W3C//DTD SVG 1.1//EN"
 "http://www.w3.org/Graphics/SVG/1.1/DTD/svg11.dtd">
<!-- Generated by graphviz version 2.43.0 (0)
 -->
<!-- Title: LO Pages: 1 -->
<svg width="321pt" height="1377pt"
 viewBox="0.00 0.00 321.00 1377.00" xmlns="http://www.w3.org/2000/svg" xmlns:xlink="http://www.w3.org/1999/xlink">
<g id="graph0" class="graph" transform="scale(1 1) rotate(0) translate(4 1373)">
<title>LO</title>
<!-- Node1 -->
<g id="Node000001" class="node">
<title>Node1</title>
<g id="a_Node000001"><a xlink:title="Live Object, base class for all objects that exist in the world.">
<polygon fill="#999999" stroke="#666666" points="111,-333 82,-333 82,-314 111,-314 111,-333"/>
<text text-anchor="middle" x="96.5" y="-321" font-family="Helvetica,sans-Serif" font-size="10.00">LO</text>
</a>
</g>
</g>
<!-- Node3 -->
<g id="Node000003" class="node">
<title>Node3</title>
<g id="a_Node000003"><a xlink:href="structALO.html" target="_top" xlink:title=" ">
<polygon fill="white" stroke="#666666" points="196,-962 160,-962 160,-943 196,-943 196,-962"/>
<text text-anchor="middle" x="178" y="-950" font-family="Helvetica,sans-Serif" font-size="10.00">ALO</text>
</a>
</g>
</g>
<!-- Node1&#45;&gt;Node3 -->
<g id="edge2_Node000001_Node000003" class="edge">
<title>Node1&#45;&gt;Node3</title>
<g id="a_edge2_Node000001_Node000003"><a xlink:title=" ">
<path fill="none" stroke="#63b8ff" d="M99.98,-343.1C112.3,-440.63 166.79,-871.74 175.75,-942.62"/>
<polygon fill="#63b8ff" stroke="#63b8ff" points="103.44,-342.61 98.72,-333.13 96.5,-343.49 103.44,-342.61"/>
</a>
</g>
</g>
<!-- Node89 -->
<g id="Node000089" class="node">
<title>Node89</title>
<g id="a_Node000089"><a xlink:href="structASEG.html" target="_top" xlink:title=" ">
<polygon fill="white" stroke="#666666" points="199.5,-611 156.5,-611 156.5,-592 199.5,-592 199.5,-611"/>
<text text-anchor="middle" x="178" y="-599" font-family="Helvetica,sans-Serif" font-size="10.00">ASEG</text>
</a>
</g>
</g>
<!-- Node1&#45;&gt;Node89 -->
<g id="edge25_Node000001_Node000089" class="edge">
<title>Node1&#45;&gt;Node89</title>
<g id="a_edge25_Node000001_Node000089"><a xlink:title=" ">
<path fill="none" stroke="#63b8ff" d="M99.2,-343.55C104.1,-397.51 119.69,-544.36 147,-583.5 149.43,-586.99 152.78,-589.91 156.36,-592.32"/>
<polygon fill="#63b8ff" stroke="#63b8ff" points="102.66,-342.91 98.29,-333.25 95.69,-343.52 102.66,-342.91"/>
</a>
</g>
</g>
<!-- Node91 -->
<g id="Node000091" class="node">
<title>Node91</title>
<g id="a_Node000091"><a xlink:href="structCM.html" target="_top" xlink:title=" ">
<polygon fill="white" stroke="#666666" points="194,-574 162,-574 162,-555 194,-555 194,-574"/>
<text text-anchor="middle" x="178" y="-562" font-family="Helvetica,sans-Serif" font-size="10.00">CM</text>
</a>
</g>
</g>
<!-- Node1&#45;&gt;Node91 -->
<g id="edge27_Node000001_Node000091" class="edge">
<title>Node1&#45;&gt;Node91</title>
<g id="a_edge27_Node000001_Node000091"><a xlink:title=" ">
<path fill="none" stroke="#63b8ff" d="M96.9,-343.2C96.61,-384.79 101.23,-482.98 147,-546.5 150.69,-551.62 156.34,-555.56 161.74,-558.42"/>
<polygon fill="#63b8ff" stroke="#63b8ff" points="100.4,-343.1 97.08,-333.04 93.4,-342.98 100.4,-343.1"/>
</a>
</g>
</g>
<!-- Node92 -->
<g id="Node000092" class="node">
<title>Node92</title>
<g id="a_Node000092"><a xlink:href="structFRZG.html" target="_top" xlink:title=" ">
<polygon fill="white" stroke="#666666" points="200,-537 156,-537 156,-518 200,-518 200,-537"/>
<text text-anchor="middle" x="178" y="-525" font-family="Helvetica,sans-Serif" font-size="10.00">FRZG</text>
</a>
</g>
</g>
<!-- Node1&#45;&gt;Node92 -->
<g id="edge28_Node000001_Node000092" class="edge">
<title>Node1&#45;&gt;Node92</title>
<g id="a_edge28_Node000001_Node000092"><a xlink:title=" ">
<path fill="none" stroke="#63b8ff" d="M98.02,-343.35C99.93,-379.82 108.56,-458.43 147,-509.5 149.48,-512.8 152.76,-515.62 156.24,-517.97"/>
<polygon fill="#63b8ff" stroke="#63b8ff" points="101.51,-342.93 97.61,-333.08 94.51,-343.21 101.51,-342.93"/>
</a>
</g>
</g>
<!-- Node93 -->
<g id="Node000093" class="node">
<title>Node93</title>
<g id="a_Node000093"><a xlink:href="structJSG.html" target="_top" xlink:title=" ">
<polygon fill="white" stroke="#666666" points="194.5,-500 161.5,-500 161.5,-481 194.5,-481 194.5,-500"/>
<text text-anchor="middle" x="178" y="-488" font-family="Helvetica,sans-Serif" font-size="10.00">JSG</text>
</a>
</g>
</g>
<!-- Node1&#45;&gt;Node93 -->
<g id="edge29_Node000001_Node000093" class="edge">
<title>Node1&#45;&gt;Node93</title>
<g id="a_edge29_Node000001_Node000093"><a xlink:title=" ">
<path fill="none" stroke="#63b8ff" d="M99.69,-343.61C103.96,-374.38 115.86,-433.65 147,-472.5 150.8,-477.24 156.21,-481.02 161.39,-483.87"/>
<polygon fill="#63b8ff" stroke="#63b8ff" points="103.12,-342.81 98.41,-333.32 96.17,-343.67 103.12,-342.81"/>
</a>
</g>
</g>
<!-- Node94 -->
<g id="Node000094" class="node">
<title>Node94</title>
<g id="a_Node000094"><a xlink:href="structKEYHOLE.html" target="_top" xlink:title="Spot where keys are inserted into locks?">
<polygon fill="white" stroke="#666666" points="209,-463 147,-463 147,-444 209,-444 209,-463"/>
<text text-anchor="middle" x="178" y="-451" font-family="Helvetica,sans-Serif" font-size="10.00">KEYHOLE</text>
</a>
</g>
</g>
<!-- Node1&#45;&gt;Node94 -->
<g id="edge30_Node000001_Node000094" class="edge">
<title>Node1&#45;&gt;Node94</title>
<g id="a_edge30_Node000001_Node000094"><a xlink:title=" ">
<path fill="none" stroke="#63b8ff" d="M102.21,-343.03C108.82,-367.09 122.84,-408.14 147,-435.5 149.81,-438.69 153.33,-441.48 156.96,-443.85"/>
<polygon fill="#63b8ff" stroke="#63b8ff" points="105.58,-342.08 99.68,-333.28 98.8,-343.84 105.58,-342.08"/>
</a>
</g>
</g>
<!-- Node95 -->
<g id="Node000095" class="node">
<title>Node95</title>
<g id="a_Node000095"><a xlink:href="structPIPE.html" target="_top" xlink:title="Pipe that JT can climb on.">
<polygon fill="white" stroke="#666666" points="197,-426 159,-426 159,-407 197,-407 197,-426"/>
<text text-anchor="middle" x="178" y="-414" font-family="Helvetica,sans-Serif" font-size="10.00">PIPE</text>
</a>
</g>
</g>
<!-- Node1&#45;&gt;Node95 -->
<g id="edge31_Node000001_Node000095" class="edge">
<title>Node1&#45;&gt;Node95</title>
<g id="a_edge31_Node000001_Node000095"><a xlink:title=" ">
<path fill="none" stroke="#63b8ff" d="M106.83,-342.33C115.57,-358.62 129.83,-382.06 147,-398.5 150.51,-401.86 154.75,-404.88 158.93,-407.44"/>
<polygon fill="#63b8ff" stroke="#63b8ff" points="109.83,-340.52 102.12,-333.25 103.61,-343.74 109.83,-340.52"/>
</a>
</g>
</g>
<!-- Node96 -->
<g id="Node000096" class="node">
<title>Node96</title>
<g id="a_Node000096"><a xlink:href="structPNT.html" target="_top" xlink:title=" ">
<polygon fill="white" stroke="#666666" points="196,-389 160,-389 160,-370 196,-370 196,-389"/>
<text text-anchor="middle" x="178" y="-377" font-family="Helvetica,sans-Serif" font-size="10.00">PNT</text>
</a>
</g>
</g>
<!-- Node1&#45;&gt;Node96 -->
<g id="edge32_Node000001_Node000096" class="edge">
<title>Node1&#45;&gt;Node96</title>
<g id="a_edge32_Node000001_Node000096"><a xlink:title=" ">
<path fill="none" stroke="#63b8ff" d="M117.31,-339.53C126.21,-346.52 136.95,-354.66 147,-361.5 151.22,-364.37 155.9,-367.3 160.28,-369.93"/>
<polygon fill="#63b8ff" stroke="#63b8ff" points="119.43,-336.75 109.42,-333.27 115.07,-342.23 119.43,-336.75"/>
</a>
</g>
</g>
<!-- Node102 -->
<g id="Node000102" class="node">
<title>Node102</title>
<g id="a_Node000102"><a xlink:href="structRATHOLE.html" target="_top" xlink:title="Hole where rats come from/go to.">
<polygon fill="white" stroke="#666666" points="209,-352 147,-352 147,-333 209,-333 209,-352"/>
<text text-anchor="middle" x="178" y="-340" font-family="Helvetica,sans-Serif" font-size="10.00">RATHOLE</text>
</a>
</g>
</g>
<!-- Node1&#45;&gt;Node102 -->
<g id="edge38_Node000001_Node000102" class="edge">
<title>Node1&#45;&gt;Node102</title>
<g id="a_edge38_Node000001_Node000102"><a xlink:title=" ">
<path fill="none" stroke="#63b8ff" d="M121.19,-329.16C129.24,-331.09 138.35,-333.26 146.85,-335.29"/>
<polygon fill="#63b8ff" stroke="#63b8ff" points="121.89,-325.73 111.35,-326.81 120.26,-332.54 121.89,-325.73"/>
</a>
</g>
</g>
<!-- Node103 -->
<g id="Node000103" class="node">
<title>Node103</title>
<g id="a_Node000103"><a xlink:href="structRCHM.html" target="_top" xlink:title=" ">
<polygon fill="white" stroke="#666666" points="201.5,-315 154.5,-315 154.5,-296 201.5,-296 201.5,-315"/>
<text text-anchor="middle" x="178" y="-303" font-family="Helvetica,sans-Serif" font-size="10.00">RCHM</text>
</a>
</g>
</g>
<!-- Node1&#45;&gt;Node103 -->
<g id="edge39_Node000001_Node000103" class="edge">
<title>Node1&#45;&gt;Node103</title>
<g id="a_edge39_Node000001_Node000103"><a xlink:title=" ">
<path fill="none" stroke="#63b8ff" d="M121.1,-318.16C131.6,-315.78 143.9,-312.99 154.29,-310.64"/>
<polygon fill="#63b8ff" stroke="#63b8ff" points="120.33,-314.74 111.35,-320.36 121.87,-321.57 120.33,-314.74"/>
</a>
</g>
</g>
<!-- Node104 -->
<g id="Node000104" class="node">
<title>Node104</title>
<g id="a_Node000104"><a xlink:href="structRWM.html" target="_top" xlink:title=" ">
<polygon fill="white" stroke="#666666" points="199,-278 157,-278 157,-259 199,-259 199,-278"/>
<text text-anchor="middle" x="178" y="-266" font-family="Helvetica,sans-Serif" font-size="10.00">RWM</text>
</a>
</g>
</g>
<!-- Node1&#45;&gt;Node104 -->
<g id="edge40_Node000001_Node000104" class="edge">
<title>Node1&#45;&gt;Node104</title>
<g id="a_edge40_Node000001_Node000104"><a xlink:title=" ">
<path fill="none" stroke="#63b8ff" d="M117.99,-307.45C126.78,-300.76 137.25,-293.05 147,-286.5 151.24,-283.66 155.92,-280.74 160.31,-278.11"/>
<polygon fill="#63b8ff" stroke="#63b8ff" points="115.65,-304.84 109.86,-313.71 119.92,-310.39 115.65,-304.84"/>
</a>
</g>
</g>
<!-- Node105 -->
<g id="Node000105" class="node">
<title>Node105</title>
<g id="a_Node000105"><a xlink:href="structSGG.html" target="_top" xlink:title="Stepguard (?).">
<polygon fill="white" stroke="#666666" points="197,-241 159,-241 159,-222 197,-222 197,-241"/>
<text text-anchor="middle" x="178" y="-229" font-family="Helvetica,sans-Serif" font-size="10.00">SGG</text>
</a>
</g>
</g>
<!-- Node1&#45;&gt;Node105 -->
<g id="edge41_Node000001_Node000105" class="edge">
<title>Node1&#45;&gt;Node105</title>
<g id="a_edge41_Node000001_Node000105"><a xlink:title=" ">
<path fill="none" stroke="#63b8ff" d="M106.88,-304.92C115.65,-288.86 129.94,-265.74 147,-249.5 150.52,-246.15 154.77,-243.14 158.95,-240.57"/>
<polygon fill="#63b8ff" stroke="#63b8ff" points="103.72,-303.41 102.16,-313.89 109.92,-306.67 103.72,-303.41"/>
</a>
</g>
</g>
<!-- Node106 -->
<g id="Node000106" class="node">
<title>Node106</title>
<g id="a_Node000106"><a xlink:href="structSHAPE.html" target="_top" xlink:title="Unknown.">
<polygon fill="#fff0f0" stroke="red" points="202.5,-204 153.5,-204 153.5,-185 202.5,-185 202.5,-204"/>
<text text-anchor="middle" x="178" y="-192" font-family="Helvetica,sans-Serif" font-size="10.00">SHAPE</text>
</a>
</g>
</g>
<!-- Node1&#45;&gt;Node106 -->
<g id="edge42_Node000001_Node000106" class="edge">
<title>Node1&#45;&gt;Node106</title>
<g id="a_edge42_Node000001_Node000106"><a xlink:title=" ">
<path fill="none" stroke="#63b8ff" d="M102.34,-303.82C109.04,-279.93 123.09,-239.5 147,-212.5 149.82,-209.32 153.34,-206.53 156.97,-204.16"/>
<polygon fill="#63b8ff" stroke="#63b8ff" points="98.88,-303.24 99.71,-313.8 105.64,-305.03 98.88,-303.24"/>
</a>
</g>
</g>
<!-- Node109 -->
<g id="Node000109" class="node">
<title>Node109</title>
<g id="a_Node000109"><a xlink:href="structSM.html" target="_top" xlink:title=" ">
<polygon fill="white" stroke="#666666" points="194,-167 162,-167 162,-148 194,-148 194,-167"/>
<text text-anchor="middle" x="178" y="-155" font-family="Helvetica,sans-Serif" font-size="10.00">SM</text>
</a>
</g>
</g>
<!-- Node1&#45;&gt;Node109 -->
<g id="edge44_Node000001_Node000109" class="edge">
<title>Node1&#45;&gt;Node109</title>
<g id="a_edge44_Node000001_Node000109"><a xlink:title=" ">
<path fill="none" stroke="#63b8ff" d="M99.73,-303.52C104.04,-272.96 116.01,-214.09 147,-175.5 150.88,-170.67 156.43,-166.83 161.7,-163.96"/>
<polygon fill="#63b8ff" stroke="#63b8ff" points="96.22,-303.39 98.43,-313.75 103.16,-304.27 96.22,-303.39"/>
</a>
</g>
</g>
<!-- Node110 -->
<g id="Node000110" class="node">
<title>Node110</title>
<g id="a_Node000110"><a xlink:href="structSW.html" target="_top" xlink:title=" ">
<polygon fill="white" stroke="#666666" points="194,-130 162,-130 162,-111 194,-111 194,-130"/>
<text text-anchor="middle" x="178" y="-118" font-family="Helvetica,sans-Serif" font-size="10.00">SW</text>
</a>
</g>
</g>
<!-- Node1&#45;&gt;Node110 -->
<g id="edge45_Node000001_Node000110" class="edge">
<title>Node1&#45;&gt;Node110</title>
<g id="a_edge45_Node000001_Node000110"><a xlink:title=" ">
<path fill="none" stroke="#63b8ff" d="M98.05,-303.75C100.01,-267.48 108.72,-189.29 147,-138.5 150.8,-133.46 156.47,-129.54 161.85,-126.67"/>
<polygon fill="#63b8ff" stroke="#63b8ff" points="94.54,-303.83 97.62,-313.97 101.54,-304.13 94.54,-303.83"/>
</a>
</g>
</g>
<!-- Node111 -->
<g id="Node000111" class="node">
<title>Node111</title>
<g id="a_Node000111"><a xlink:href="structVISMAP.html" target="_top" xlink:title="Visibility map.">
<polygon fill="white" stroke="#666666" points="205,-93 151,-93 151,-74 205,-74 205,-93"/>
<text text-anchor="middle" x="178" y="-81" font-family="Helvetica,sans-Serif" font-size="10.00">VISMAP</text>
</a>
</g>
</g>
<!-- Node1&#45;&gt;Node111 -->
<g id="edge46_Node000001_Node000111" class="edge">
<title>Node1&#45;&gt;Node111</title>
<g id="a_edge46_Node000001_Node000111"><a xlink:title=" ">
<path fill="none" stroke="#63b8ff" d="M96.92,-303.31C96.73,-261.57 101.6,-164.44 147,-101.5 149.35,-98.25 152.48,-95.48 155.83,-93.15"/>
<polygon fill="#63b8ff" stroke="#63b8ff" points="93.43,-303.59 97.08,-313.54 100.43,-303.49 93.43,-303.59"/>
</a>
</g>
</g>
<!-- Node112 -->
<g id="Node000112" class="node">
<title>Node112</title>
<g id="a_Node000112"><a xlink:href="structWR.html" target="_top" xlink:title=" ">
<polygon fill="white" stroke="#666666" points="194.5,-56 161.5,-56 161.5,-37 194.5,-37 194.5,-56"/>
<text text-anchor="middle" x="178" y="-44" font-family="Helvetica,sans-Serif" font-size="10.00">WR</text>
</a>
</g>
</g>
<!-- Node1&#45;&gt;Node112 -->
<g id="edge47_Node000001_Node000112" class="edge">
<title>Node1&#45;&gt;Node112</title>
<g id="a_edge47_Node000001_Node000112"><a xlink:title=" ">
<path fill="none" stroke="#63b8ff" d="M99.21,-303.53C104.14,-249.77 119.77,-103.49 147,-64.5 150.55,-59.42 156.03,-55.53 161.34,-52.69"/>
<polygon fill="#63b8ff" stroke="#63b8ff" points="95.7,-303.51 98.3,-313.78 102.67,-304.13 95.7,-303.51"/>
</a>
</g>
</g>
<!-- Node113 -->
<g id="Node000113" class="node">
<title>Node113</title>
<g id="a_Node000113"><a xlink:href="structXFM.html" target="_top" xlink:title=" ">
<polygon fill="#fff0f0" stroke="red" points="197,-19 159,-19 159,0 197,0 197,-19"/>
<text text-anchor="middle" x="178" y="-7" font-family="Helvetica,sans-Serif" font-size="10.00">XFM</text>
</a>
</g>
</g>
<!-- Node1&#45;&gt;Node113 -->
<g id="edge48_Node000001_Node000113" class="edge">
<title>Node1&#45;&gt;Node113</title>
<g id="a_edge48_Node000001_Node000113"><a xlink:title=" ">
<path fill="none" stroke="#63b8ff" d="M98.66,-303.83C102.44,-245.22 115.99,-73.02 147,-27.5 149.94,-23.18 154.29,-19.74 158.77,-17.06"/>
<polygon fill="#63b8ff" stroke="#63b8ff" points="95.16,-303.77 98.03,-313.96 102.14,-304.2 95.16,-303.77"/>
</a>
</g>
</g>
<!-- Node2 -->
<g id="Node000002" class="node">
<title>Node2</title>
<g id="a_Node000002"><a xlink:href="structBASIC.html" target="_top" xlink:title="Base object for most other kinds of objects.">
<polygon fill="white" stroke="#666666" points="46,-333 0,-333 0,-314 46,-314 46,-333"/>
<text text-anchor="middle" x="23" y="-321" font-family="Helvetica,sans-Serif" font-size="10.00">BASIC</text>
</a>
</g>
</g>
<!-- Node2&#45;&gt;Node1 -->
<g id="edge1_Node000001_Node000002" class="edge">
<title>Node2&#45;&gt;Node1</title>
<g id="a_edge1_Node000001_Node000002"><a xlink:title=" ">
<path fill="none" stroke="#63b8ff" d="M56.45,-323.5C65.38,-323.5 74.59,-323.5 81.82,-323.5"/>
<polygon fill="#63b8ff" stroke="#63b8ff" points="56.23,-320 46.23,-323.5 56.23,-327 56.23,-320"/>
</a>
</g>
</g>
<!-- Node4 -->
<g id="Node000004" class="node">
<title>Node4</title>
<g id="a_Node000004"><a xlink:href="structCAMERA.html" target="_top" xlink:title="Game camera instance.">
<polygon fill="white" stroke="#666666" points="308.5,-1369 249.5,-1369 249.5,-1350 308.5,-1350 308.5,-1369"/>
<text text-anchor="middle" x="279" y="-1357" font-family="Helvetica,sans-Serif" font-size="10.00">CAMERA</text>
</a>
</g>
</g>
<!-- Node3&#45;&gt;Node4 -->
<g id="edge3_Node000003_Node000004" class="edge">
<title>Node3&#45;&gt;Node4</title>
<g id="a_edge3_Node000003_Node000004"><a xlink:title=" ">
<path fill="none" stroke="#63b8ff" d="M180.1,-972.23C184.36,-1042.69 201.75,-1280.89 245,-1341.5 247.35,-1344.79 250.5,-1347.55 253.92,-1349.83"/>
<polygon fill="#63b8ff" stroke="#63b8ff" points="183.58,-971.86 179.51,-962.09 176.6,-972.27 183.58,-971.86"/>
</a>
</g>
</g>
<!-- Node5 -->
<g id="Node000005" class="node">
<title>Node5</title>
<g id="a_Node000005"><a xlink:href="structCHKPNT.html" target="_top" xlink:title=" ">
<polygon fill="white" stroke="#666666" points="307.5,-1332 250.5,-1332 250.5,-1313 307.5,-1313 307.5,-1332"/>
<text text-anchor="middle" x="279" y="-1320" font-family="Helvetica,sans-Serif" font-size="10.00">CHKPNT</text>
</a>
</g>
</g>
<!-- Node3&#45;&gt;Node5 -->
<g id="edge4_Node000003_Node000005" class="edge">
<title>Node3&#45;&gt;Node5</title>
<g id="a_edge4_Node000003_Node000005"><a xlink:title=" ">
<path fill="none" stroke="#63b8ff" d="M180.51,-972.45C185.85,-1038.73 205.69,-1250.41 245,-1304.5 247.38,-1307.77 250.54,-1310.52 253.97,-1312.8"/>
<polygon fill="#63b8ff" stroke="#63b8ff" points="183.97,-971.85 179.7,-962.15 176.99,-972.4 183.97,-971.85"/>
</a>
</g>
</g>
<!-- Node6 -->
<g id="Node000006" class="node">
<title>Node6</title>
<g id="a_Node000006"><a xlink:href="structCRBRAIN.html" target="_top" xlink:title="Unknown.">
<polygon fill="white" stroke="#666666" points="309.5,-1295 248.5,-1295 248.5,-1276 309.5,-1276 309.5,-1295"/>
<text text-anchor="middle" x="279" y="-1283" font-family="Helvetica,sans-Serif" font-size="10.00">CRBRAIN</text>
</a>
</g>
</g>
<!-- Node3&#45;&gt;Node6 -->
<g id="edge5_Node000003_Node000006" class="edge">
<title>Node3&#45;&gt;Node6</title>
<g id="a_edge5_Node000003_Node000006"><a xlink:title=" ">
<path fill="none" stroke="#63b8ff" d="M180.98,-972.32C187.43,-1033.76 209.55,-1219.78 245,-1267.5 247.49,-1270.85 250.8,-1273.65 254.36,-1275.97"/>
<polygon fill="#63b8ff" stroke="#63b8ff" points="184.43,-971.65 179.92,-962.06 177.46,-972.37 184.43,-971.65"/>
</a>
</g>
</g>
<!-- Node7 -->
<g id="Node000007" class="node">
<title>Node7</title>
<g id="a_Node000007"><a xlink:href="structDIALOG.html" target="_top" xlink:title="Dialog line in a cutscene.">
<polygon fill="white" stroke="#666666" points="306,-1258 252,-1258 252,-1239 306,-1239 306,-1258"/>
<text text-anchor="middle" x="279" y="-1246" font-family="Helvetica,sans-Serif" font-size="10.00">DIALOG</text>
</a>
</g>
</g>
<!-- Node3&#45;&gt;Node7 -->
<g id="edge6_Node000003_Node000007" class="edge">
<title>Node3&#45;&gt;Node7</title>
<g id="a_edge6_Node000003_Node000007"><a xlink:title=" ">
<path fill="none" stroke="#63b8ff" d="M178.46,-972.2C178.13,-1021.13 183.53,-1150.03 245,-1230.5 247.54,-1233.82 250.87,-1236.6 254.43,-1238.91"/>
<polygon fill="#63b8ff" stroke="#63b8ff" points="181.96,-972.1 178.63,-962.04 174.96,-971.98 181.96,-972.1"/>
</a>
</g>
</g>
<!-- Node8 -->
<g id="Node000008" class="node">
<title>Node8</title>
<g id="a_Node000008"><a xlink:href="structDPRIZE.html" target="_top" xlink:title=" ">
<polygon fill="#fff0f0" stroke="red" points="305.5,-1221 252.5,-1221 252.5,-1202 305.5,-1202 305.5,-1221"/>
<text text-anchor="middle" x="279" y="-1209" font-family="Helvetica,sans-Serif" font-size="10.00">DPRIZE</text>
</a>
</g>
</g>
<!-- Node3&#45;&gt;Node8 -->
<g id="edge7_Node000003_Node000008" class="edge">
<title>Node3&#45;&gt;Node8</title>
<g id="a_edge7_Node000003_Node000008"><a xlink:title=" ">
<path fill="none" stroke="#63b8ff" d="M179.37,-972.54C181.2,-1017.05 191.27,-1125.59 245,-1193.5 247.59,-1196.78 250.95,-1199.54 254.53,-1201.84"/>
<polygon fill="#63b8ff" stroke="#63b8ff" points="182.87,-972.32 179.06,-962.44 175.87,-972.54 182.87,-972.32"/>
</a>
</g>
</g>
<!-- Node12 -->
<g id="Node000012" class="node">
<title>Node12</title>
<g id="a_Node000012"><a xlink:href="structEMITTER.html" target="_top" xlink:title="Particle emitter.">
<polygon fill="white" stroke="#666666" points="308.5,-1184 249.5,-1184 249.5,-1165 308.5,-1165 308.5,-1184"/>
<text text-anchor="middle" x="279" y="-1172" font-family="Helvetica,sans-Serif" font-size="10.00">EMITTER</text>
</a>
</g>
</g>
<!-- Node3&#45;&gt;Node12 -->
<g id="edge8_Node000003_Node000012" class="edge">
<title>Node3&#45;&gt;Node12</title>
<g id="a_edge8_Node000003_Node000012"><a xlink:title=" ">
<path fill="none" stroke="#63b8ff" d="M180.58,-972.35C184.66,-1011.71 198.73,-1100.68 245,-1156.5 247.75,-1159.82 251.27,-1162.62 254.99,-1164.95"/>
<polygon fill="#63b8ff" stroke="#63b8ff" points="184.05,-971.85 179.64,-962.22 177.08,-972.5 184.05,-971.85"/>
</a>
</g>
</g>
<!-- Node13 -->
<g id="Node000013" class="node">
<title>Node13</title>
<g id="a_Node000013"><a xlink:href="structEXIT.html" target="_top" xlink:title="Exit to another worldlevel.">
<polygon fill="white" stroke="#666666" points="298,-1147 260,-1147 260,-1128 298,-1128 298,-1147"/>
<text text-anchor="middle" x="279" y="-1135" font-family="Helvetica,sans-Serif" font-size="10.00">EXIT</text>
</a>
</g>
</g>
<!-- Node3&#45;&gt;Node13 -->
<g id="edge9_Node000003_Node000013" class="edge">
<title>Node3&#45;&gt;Node13</title>
<g id="a_edge9_Node000003_Node000013"><a xlink:title=" ">
<path fill="none" stroke="#63b8ff" d="M182.3,-972.42C188.83,-1006.28 206.23,-1075.64 245,-1119.5 249.06,-1124.1 254.59,-1127.74 259.96,-1130.52"/>
<polygon fill="#63b8ff" stroke="#63b8ff" points="185.71,-971.6 180.49,-962.38 178.82,-972.85 185.71,-971.6"/>
</a>
</g>
</g>
<!-- Node14 -->
<g id="Node000014" class="node">
<title>Node14</title>
<g id="a_Node000014"><a xlink:href="structFLASH.html" target="_top" xlink:title=" ">
<polygon fill="white" stroke="#666666" points="303.5,-1110 254.5,-1110 254.5,-1091 303.5,-1091 303.5,-1110"/>
<text text-anchor="middle" x="279" y="-1098" font-family="Helvetica,sans-Serif" font-size="10.00">FLASH</text>
</a>
</g>
</g>
<!-- Node3&#45;&gt;Node14 -->
<g id="edge10_Node000003_Node000014" class="edge">
<title>Node3&#45;&gt;Node14</title>
<g id="a_edge10_Node000003_Node000014"><a xlink:title=" ">
<path fill="none" stroke="#63b8ff" d="M184.72,-971.79C193.7,-999.27 213.4,-1049.95 245,-1082.5 248.18,-1085.78 252.09,-1088.61 256.09,-1090.99"/>
<polygon fill="#63b8ff" stroke="#63b8ff" points="188.04,-970.67 181.71,-962.17 181.36,-972.76 188.04,-970.67"/>
</a>
</g>
</g>
<!-- Node15 -->
<g id="Node000015" class="node">
<title>Node15</title>
<g id="a_Node000015"><a xlink:href="structJLOC.html" target="_top" xlink:title=" ">
<polygon fill="white" stroke="#666666" points="298.5,-1073 259.5,-1073 259.5,-1054 298.5,-1054 298.5,-1073"/>
<text text-anchor="middle" x="279" y="-1061" font-family="Helvetica,sans-Serif" font-size="10.00">JLOC</text>
</a>
</g>
</g>
<!-- Node3&#45;&gt;Node15 -->
<g id="edge11_Node000003_Node000015" class="edge">
<title>Node3&#45;&gt;Node15</title>
<g id="a_edge11_Node000003_Node000015"><a xlink:title=" ">
<path fill="none" stroke="#63b8ff" d="M188.66,-970.86C200.01,-991.1 220.45,-1023.69 245,-1045.5 249.2,-1049.23 254.3,-1052.48 259.22,-1055.16"/>
<polygon fill="#63b8ff" stroke="#63b8ff" points="191.69,-969.12 183.83,-962.01 185.55,-972.47 191.69,-969.12"/>
</a>
</g>
</g>
<!-- Node16 -->
<g id="Node000016" class="node">
<title>Node16</title>
<g id="a_Node000016"><a xlink:href="structLIGHT.html" target="_top" xlink:title="Light.">
<polygon fill="white" stroke="#666666" points="302,-1036 256,-1036 256,-1017 302,-1017 302,-1036"/>
<text text-anchor="middle" x="279" y="-1024" font-family="Helvetica,sans-Serif" font-size="10.00">LIGHT</text>
</a>
</g>
</g>
<!-- Node3&#45;&gt;Node16 -->
<g id="edge12_Node000003_Node000016" class="edge">
<title>Node3&#45;&gt;Node16</title>
<g id="a_edge12_Node000003_Node000016"><a xlink:title=" ">
<path fill="none" stroke="#63b8ff" d="M196.84,-969.38C209.68,-981.09 227.72,-996.64 245,-1008.5 249.3,-1011.45 254.14,-1014.32 258.76,-1016.86"/>
<polygon fill="#63b8ff" stroke="#63b8ff" points="198.93,-966.54 189.21,-962.32 194.17,-971.68 198.93,-966.54"/>
</a>
</g>
</g>
<!-- Node17 -->
<g id="Node000017" class="node">
<title>Node17</title>
<g id="a_Node000017"><a xlink:href="structLIKH.html" target="_top" xlink:title=" ">
<polygon fill="white" stroke="#666666" points="298.5,-999 259.5,-999 259.5,-980 298.5,-980 298.5,-999"/>
<text text-anchor="middle" x="279" y="-987" font-family="Helvetica,sans-Serif" font-size="10.00">LIKH</text>
</a>
</g>
</g>
<!-- Node3&#45;&gt;Node17 -->
<g id="edge13_Node000003_Node000017" class="edge">
<title>Node3&#45;&gt;Node17</title>
<g id="a_edge13_Node000003_Node000017"><a xlink:title=" ">
<path fill="none" stroke="#63b8ff" d="M205.61,-962.45C222.56,-968.78 244.11,-976.83 259.27,-982.5"/>
<polygon fill="#63b8ff" stroke="#63b8ff" points="206.84,-959.17 196.24,-958.94 204.39,-965.72 206.84,-959.17"/>
</a>
</g>
</g>
<!-- Node18 -->
<g id="Node000018" class="node">
<title>Node18</title>
<g id="a_Node000018"><a xlink:href="structLOCK.html" target="_top" xlink:title="Treasure key lock.">
<polygon fill="white" stroke="#666666" points="300.5,-962 257.5,-962 257.5,-943 300.5,-943 300.5,-962"/>
<text text-anchor="middle" x="279" y="-950" font-family="Helvetica,sans-Serif" font-size="10.00">LOCK</text>
</a>
</g>
</g>
<!-- Node3&#45;&gt;Node18 -->
<g id="edge14_Node000003_Node000018" class="edge">
<title>Node3&#45;&gt;Node18</title>
<g id="a_edge14_Node000003_Node000018"><a xlink:title=" ">
<path fill="none" stroke="#63b8ff" d="M206.61,-952.5C222.63,-952.5 242.48,-952.5 257.18,-952.5"/>
<polygon fill="#63b8ff" stroke="#63b8ff" points="206.24,-949 196.24,-952.5 206.24,-956 206.24,-949"/>
</a>
</g>
</g>
<!-- Node19 -->
<g id="Node000019" class="node">
<title>Node19</title>
<g id="a_Node000019"><a xlink:href="structLOCKG.html" target="_top" xlink:title=" ">
<polygon fill="white" stroke="#666666" points="304,-925 254,-925 254,-906 304,-906 304,-925"/>
<text text-anchor="middle" x="279" y="-913" font-family="Helvetica,sans-Serif" font-size="10.00">LOCKG</text>
</a>
</g>
</g>
<!-- Node3&#45;&gt;Node19 -->
<g id="edge15_Node000003_Node000019" class="edge">
<title>Node3&#45;&gt;Node19</title>
<g id="a_edge15_Node000003_Node000019"><a xlink:title=" ">
<path fill="none" stroke="#63b8ff" d="M205.96,-942.42C220.94,-936.83 239.42,-929.92 253.91,-924.5"/>
<polygon fill="#63b8ff" stroke="#63b8ff" points="204.39,-939.28 196.24,-946.06 206.84,-945.83 204.39,-939.28"/>
</a>
</g>
</g>
<!-- Node20 -->
<g id="Node000020" class="node">
<title>Node20</title>
<g id="a_Node000020"><a xlink:href="structPROXY.html" target="_top" xlink:title="Unknown.">
<polygon fill="white" stroke="#666666" points="304,-888 254,-888 254,-869 304,-869 304,-888"/>
<text text-anchor="middle" x="279" y="-876" font-family="Helvetica,sans-Serif" font-size="10.00">PROXY</text>
</a>
</g>
</g>
<!-- Node3&#45;&gt;Node20 -->
<g id="edge16_Node000003_Node000020" class="edge">
<title>Node3&#45;&gt;Node20</title>
<g id="a_edge16_Node000003_Node000020"><a xlink:title=" ">
<path fill="none" stroke="#63b8ff" d="M196.97,-936.07C209.88,-924.65 227.93,-909.39 245,-897.5 249.77,-894.17 255.16,-890.89 260.18,-888.01"/>
<polygon fill="#63b8ff" stroke="#63b8ff" points="194.41,-933.67 189.3,-942.96 199.08,-938.89 194.41,-933.67"/>
</a>
</g>
</g>
<!-- Node21 -->
<g id="Node000021" class="node">
<title>Node21</title>
<g id="a_Node000021"><a xlink:href="structPUFFB.html" target="_top" xlink:title=" ">
<polygon fill="white" stroke="#666666" points="303.5,-851 254.5,-851 254.5,-832 303.5,-832 303.5,-851"/>
<text text-anchor="middle" x="279" y="-839" font-family="Helvetica,sans-Serif" font-size="10.00">PUFFB</text>
</a>
</g>
</g>
<!-- Node3&#45;&gt;Node21 -->
<g id="edge17_Node000003_Node000021" class="edge">
<title>Node3&#45;&gt;Node21</title>
<g id="a_edge17_Node000003_Node000021"><a xlink:title=" ">
<path fill="none" stroke="#63b8ff" d="M188.97,-934.14C200.48,-914.19 220.95,-882.26 245,-860.5 248.92,-856.95 253.62,-853.77 258.21,-851.06"/>
<polygon fill="#63b8ff" stroke="#63b8ff" points="185.91,-932.44 184.06,-942.87 192.02,-935.87 185.91,-932.44"/>
</a>
</g>
</g>
<!-- Node22 -->
<g id="Node000022" class="node">
<title>Node22</title>
<g id="a_Node000022"><a xlink:href="structPUFFC.html" target="_top" xlink:title=" ">
<polygon fill="white" stroke="#666666" points="303.5,-814 254.5,-814 254.5,-795 303.5,-795 303.5,-814"/>
<text text-anchor="middle" x="279" y="-802" font-family="Helvetica,sans-Serif" font-size="10.00">PUFFC</text>
</a>
</g>
</g>
<!-- Node3&#45;&gt;Node22 -->
<g id="edge18_Node000003_Node000022" class="edge">
<title>Node3&#45;&gt;Node22</title>
<g id="a_edge18_Node000003_Node000022"><a xlink:title=" ">
<path fill="none" stroke="#63b8ff" d="M184.99,-933.1C194.19,-905.87 214.06,-856.01 245,-823.5 248.46,-819.86 252.78,-816.71 257.14,-814.07"/>
<polygon fill="#63b8ff" stroke="#63b8ff" points="181.54,-932.37 181.79,-942.96 188.2,-934.53 181.54,-932.37"/>
</a>
</g>
</g>
<!-- Node23 -->
<g id="Node000023" class="node">
<title>Node23</title>
<g id="a_Node000023"><a xlink:href="structROB.html" target="_top" xlink:title="Unknown.">
<polygon fill="white" stroke="#666666" points="298,-777 260,-777 260,-758 298,-758 298,-777"/>
<text text-anchor="middle" x="279" y="-765" font-family="Helvetica,sans-Serif" font-size="10.00">ROB</text>
</a>
</g>
</g>
<!-- Node3&#45;&gt;Node23 -->
<g id="edge19_Node000003_Node000023" class="edge">
<title>Node3&#45;&gt;Node23</title>
<g id="a_edge19_Node000003_Node000023"><a xlink:title=" ">
<path fill="none" stroke="#63b8ff" d="M182.44,-932.8C189.18,-899.28 206.89,-830.53 245,-786.5 249.07,-781.8 254.6,-777.99 259.97,-775.05"/>
<polygon fill="#63b8ff" stroke="#63b8ff" points="178.99,-932.25 180.57,-942.72 185.86,-933.55 178.99,-932.25"/>
</a>
</g>
</g>
<!-- Node24 -->
<g id="Node000024" class="node">
<title>Node24</title>
<g id="a_Node000024"><a xlink:href="structSO.html" target="_top" xlink:title=" ">
<polygon fill="#fff0f0" stroke="red" points="294,-740 264,-740 264,-721 294,-721 294,-740"/>
<text text-anchor="middle" x="279" y="-728" font-family="Helvetica,sans-Serif" font-size="10.00">SO</text>
</a>
</g>
</g>
<!-- Node3&#45;&gt;Node24 -->
<g id="edge20_Node000003_Node000024" class="edge">
<title>Node3&#45;&gt;Node24</title>
<g id="a_edge20_Node000003_Node000024"><a xlink:title=" ">
<path fill="none" stroke="#63b8ff" d="M180.72,-932.84C185.05,-893.83 199.54,-805.56 245,-749.5 249.91,-743.44 257.31,-738.93 263.85,-735.83"/>
<polygon fill="#63b8ff" stroke="#63b8ff" points="177.23,-932.58 179.71,-942.87 184.19,-933.27 177.23,-932.58"/>
</a>
</g>
</g>
<!-- Node85 -->
<g id="Node000085" class="node">
<title>Node85</title>
<g id="a_Node000085"><a xlink:href="structSPEAKER.html" target="_top" xlink:title="Sound speaker.">
<polygon fill="white" stroke="#666666" points="309.5,-703 248.5,-703 248.5,-684 309.5,-684 309.5,-703"/>
<text text-anchor="middle" x="279" y="-691" font-family="Helvetica,sans-Serif" font-size="10.00">SPEAKER</text>
</a>
</g>
</g>
<!-- Node3&#45;&gt;Node85 -->
<g id="edge21_Node000003_Node000085" class="edge">
<title>Node3&#45;&gt;Node85</title>
<g id="a_edge21_Node000003_Node000085"><a xlink:title=" ">
<path fill="none" stroke="#63b8ff" d="M179.51,-932.64C181.62,-888.49 192.22,-780.73 245,-712.5 247.91,-708.74 251.8,-705.58 255.88,-703"/>
<polygon fill="#63b8ff" stroke="#63b8ff" points="176.02,-932.53 179.13,-942.65 183.01,-932.79 176.02,-932.53"/>
</a>
</g>
</g>
<!-- Node86 -->
<g id="Node000086" class="node">
<title>Node86</title>
<g id="a_Node000086"><a xlink:href="structTN.html" target="_top" xlink:title=" ">
<polygon fill="white" stroke="#666666" points="294,-666 264,-666 264,-647 294,-647 294,-666"/>
<text text-anchor="middle" x="279" y="-654" font-family="Helvetica,sans-Serif" font-size="10.00">TN</text>
</a>
</g>
</g>
<!-- Node3&#45;&gt;Node86 -->
<g id="edge22_Node000003_Node000086" class="edge">
<title>Node3&#45;&gt;Node86</title>
<g id="a_edge22_Node000003_Node000086"><a xlink:title=" ">
<path fill="none" stroke="#63b8ff" d="M178.6,-932.63C178.6,-883.82 184.78,-756.19 245,-675.5 249.74,-669.14 257.29,-664.57 263.97,-661.51"/>
<polygon fill="#63b8ff" stroke="#63b8ff" points="175.1,-932.81 178.69,-942.78 182.1,-932.75 175.1,-932.81"/>
</a>
</g>
</g>
<!-- Node87 -->
<g id="Node000087" class="node">
<title>Node87</title>
<g id="a_Node000087"><a xlink:href="structWAYPOINT.html" target="_top" xlink:title=" ">
<polygon fill="white" stroke="#666666" points="313,-629 245,-629 245,-610 313,-610 313,-629"/>
<text text-anchor="middle" x="279" y="-617" font-family="Helvetica,sans-Serif" font-size="10.00">WAYPOINT</text>
</a>
</g>
</g>
<!-- Node3&#45;&gt;Node87 -->
<g id="edge23_Node000003_Node000087" class="edge">
<title>Node3&#45;&gt;Node87</title>
<g id="a_edge23_Node000003_Node000087"><a xlink:title=" ">
<path fill="none" stroke="#63b8ff" d="M181.03,-932.78C187.65,-871.63 210.19,-686.47 245,-638.5 247.72,-634.75 251.42,-631.64 255.36,-629.08"/>
<polygon fill="#63b8ff" stroke="#63b8ff" points="177.52,-932.67 179.95,-942.99 184.48,-933.41 177.52,-932.67"/>
</a>
</g>
</g>
<!-- Node88 -->
<g id="Node000088" class="node">
<title>Node88</title>
<g id="a_Node000088"><a xlink:href="structWM.html" target="_top" xlink:title=" ">
<polygon fill="white" stroke="#666666" points="296.5,-592 261.5,-592 261.5,-573 296.5,-573 296.5,-592"/>
<text text-anchor="middle" x="279" y="-580" font-family="Helvetica,sans-Serif" font-size="10.00">WM</text>
</a>
</g>
</g>
<!-- Node3&#45;&gt;Node88 -->
<g id="edge24_Node000003_Node000088" class="edge">
<title>Node3&#45;&gt;Node88</title>
<g id="a_edge24_Node000003_Node000088"><a xlink:title=" ">
<path fill="none" stroke="#63b8ff" d="M180.56,-932.64C186.08,-866.65 206.41,-655.88 245,-601.5 249.06,-595.79 255.41,-591.55 261.46,-588.54"/>
<polygon fill="#63b8ff" stroke="#63b8ff" points="177.05,-932.64 179.73,-942.89 184.03,-933.21 177.05,-932.64"/>
</a>
</g>
</g>
<!-- Node90 -->
<g id="Node000090" class="node">
<title>Node90</title>
<g id="a_Node000090"><a xlink:href="structASEGBL.html" target="_top" xlink:title="Animation segment blend(?).">
<polygon fill="white" stroke="#666666" points="306.5,-555 251.5,-555 251.5,-536 306.5,-536 306.5,-555"/>
<text text-anchor="middle" x="279" y="-543" font-family="Helvetica,sans-Serif" font-size="10.00">ASEGBL</text>
</a>
</g>
</g>
<!-- Node89&#45;&gt;Node90 -->
<g id="edge26_Node000089_Node000090" class="edge">
<title>Node89&#45;&gt;Node90</title>
<g id="a_edge26_Node000089_Node000090"><a xlink:title=" ">
<path fill="none" stroke="#63b8ff" d="M205.44,-586.55C223.05,-576.58 245.68,-563.78 260.95,-555.14"/>
<polygon fill="#63b8ff" stroke="#63b8ff" points="203.23,-583.78 196.24,-591.75 206.67,-589.87 203.23,-583.78"/>
</a>
</g>
</g>
<!-- Node97 -->
<g id="Node000097" class="node">
<title>Node97</title>
<g id="a_Node000097"><a xlink:href="structJMT.html" target="_top" xlink:title=" ">
<polygon fill="white" stroke="#666666" points="296.5,-463 261.5,-463 261.5,-444 296.5,-444 296.5,-463"/>
<text text-anchor="middle" x="279" y="-451" font-family="Helvetica,sans-Serif" font-size="10.00">JMT</text>
</a>
</g>
</g>
<!-- Node96&#45;&gt;Node97 -->
<g id="edge33_Node000096_Node000097" class="edge">
<title>Node96&#45;&gt;Node97</title>
<g id="a_edge33_Node000096_Node000097"><a xlink:title=" ">
<path fill="none" stroke="#63b8ff" d="M204.15,-394.8C205.83,-396.01 207.46,-397.25 209,-398.5 226.81,-412.96 226.72,-421.63 245,-435.5 249.99,-439.29 255.88,-442.77 261.29,-445.63"/>
<polygon fill="#63b8ff" stroke="#63b8ff" points="205.92,-391.77 195.67,-389.09 202.01,-397.58 205.92,-391.77"/>
</a>
</g>
</g>
<!-- Node98 -->
<g id="Node000098" class="node">
<title>Node98</title>
<g id="a_Node000098"><a xlink:href="structPNTS.html" target="_top" xlink:title=" ">
<polygon fill="white" stroke="#666666" points="300,-426 258,-426 258,-407 300,-407 300,-426"/>
<text text-anchor="middle" x="279" y="-414" font-family="Helvetica,sans-Serif" font-size="10.00">PNTS</text>
</a>
</g>
</g>
<!-- Node96&#45;&gt;Node98 -->
<g id="edge34_Node000096_Node000098" class="edge">
<title>Node96&#45;&gt;Node98</title>
<g id="a_edge34_Node000096_Node000098"><a xlink:title=" ">
<path fill="none" stroke="#63b8ff" d="M205.82,-389.53C222.23,-395.66 242.88,-403.37 257.88,-408.98"/>
<polygon fill="#63b8ff" stroke="#63b8ff" points="206.84,-386.17 196.24,-385.94 204.39,-392.72 206.84,-386.17"/>
</a>
</g>
</g>
<!-- Node99 -->
<g id="Node000099" class="node">
<title>Node99</title>
<g id="a_Node000099"><a xlink:href="structPNTSV.html" target="_top" xlink:title=" ">
<polygon fill="white" stroke="#666666" points="303.5,-389 254.5,-389 254.5,-370 303.5,-370 303.5,-389"/>
<text text-anchor="middle" x="279" y="-377" font-family="Helvetica,sans-Serif" font-size="10.00">PNTSV</text>
</a>
</g>
</g>
<!-- Node96&#45;&gt;Node99 -->
<g id="edge35_Node000096_Node000099" class="edge">
<title>Node96&#45;&gt;Node99</title>
<g id="a_edge35_Node000096_Node000099"><a xlink:title=" ">
<path fill="none" stroke="#63b8ff" d="M206.47,-379.5C221.48,-379.5 239.9,-379.5 254.28,-379.5"/>
<polygon fill="#63b8ff" stroke="#63b8ff" points="206.24,-376 196.24,-379.5 206.24,-383 206.24,-376"/>
</a>
</g>
</g>
<!-- Node100 -->
<g id="Node000100" class="node">
<title>Node100</title>
<g id="a_Node000100"><a xlink:href="structPNTVEC.html" target="_top" xlink:title=" ">
<polygon fill="white" stroke="#666666" points="307,-352 251,-352 251,-333 307,-333 307,-352"/>
<text text-anchor="middle" x="279" y="-340" font-family="Helvetica,sans-Serif" font-size="10.00">PNTVEC</text>
</a>
</g>
</g>
<!-- Node96&#45;&gt;Node100 -->
<g id="edge36_Node000096_Node000100" class="edge">
<title>Node96&#45;&gt;Node100</title>
<g id="a_edge36_Node000096_Node000100"><a xlink:title=" ">
<path fill="none" stroke="#63b8ff" d="M205.67,-369.53C220.19,-364.1 238.06,-357.43 252.41,-352.06"/>
<polygon fill="#63b8ff" stroke="#63b8ff" points="204.39,-366.28 196.24,-373.06 206.84,-372.83 204.39,-366.28"/>
</a>
</g>
</g>
<!-- Node101 -->
<g id="Node000101" class="node">
<title>Node101</title>
<g id="a_Node000101"><a xlink:href="structSPIRE.html" target="_top" xlink:title="Spire point that JT can balance on.">
<polygon fill="white" stroke="#666666" points="301,-315 257,-315 257,-296 301,-296 301,-315"/>
<text text-anchor="middle" x="279" y="-303" font-family="Helvetica,sans-Serif" font-size="10.00">SPIRE</text>
</a>
</g>
</g>
<!-- Node96&#45;&gt;Node101 -->
<g id="edge37_Node000096_Node000101" class="edge">
<title>Node96&#45;&gt;Node101</title>
<g id="a_edge37_Node000096_Node000101"><a xlink:title=" ">
<path fill="none" stroke="#63b8ff" d="M204.69,-364.71C206.18,-363.66 207.63,-362.59 209,-361.5 226.99,-347.26 226.89,-338.58 245,-324.5 249.38,-321.09 254.44,-317.87 259.26,-315.09"/>
<polygon fill="#63b8ff" stroke="#63b8ff" points="202.5,-361.96 196.01,-370.33 206.31,-367.83 202.5,-361.96"/>
</a>
</g>
</g>
<!-- Node107 -->
<g id="Node000107" class="node">
<title>Node107</title>
<g id="a_Node000107"><a xlink:href="structLANDING.html" target="_top" xlink:title="Unknown.">
<polygon fill="white" stroke="#666666" points="310,-204 248,-204 248,-185 310,-185 310,-204"/>
<text text-anchor="middle" x="279" y="-192" font-family="Helvetica,sans-Serif" font-size="10.00">LANDING</text>
</a>
</g>
</g>
<!-- Node106&#45;&gt;Node107 -->
<g id="edge43_Node000106_Node000107" class="edge">
<title>Node106&#45;&gt;Node107</title>
<g id="a_edge43_Node000106_Node000107"><a xlink:title=" ">
<path fill="none" stroke="#63b8ff" d="M213.06,-194.5C224.32,-194.5 236.77,-194.5 247.72,-194.5"/>
<polygon fill="#63b8ff" stroke="#63b8ff" points="212.71,-191 202.71,-194.5 212.71,-198 212.71,-191"/>
</a>
</g>
</g>
</g>
</svg>
