<?xml version="1.0" encoding="UTF-8" standalone="no"?>
<!DOCTYPE svg PUBLIC "-//W3C//DTD SVG 1.1//EN"
 "http://www.w3.org/Graphics/SVG/1.1/DTD/svg11.dtd">
<!-- Generated by graphviz version 2.43.0 (0)
 -->
<!-- Title: include/surf.h Pages: 1 -->
<!--zoomable 588 -->
<svg id="main" version="1.1" xmlns="http://www.w3.org/2000/svg" xmlns:xlink="http://www.w3.org/1999/xlink" xml:space="preserve" onload="init(evt)">
<style type="text/css"><![CDATA[
.edge:hover path { stroke: red; }
.edge:hover polygon { stroke: red; fill: red; }
]]></style>
<script type="text/javascript"><![CDATA[
var edges = document.getElementsByTagName('g');
if (edges && edges.length) {
  for (var i=0;i<edges.length;i++) {
    if (edges[i].id.substr(0,4)=='edge') {
      edges[i].setAttribute('class','edge');
    }
  }
}
]]></script>
        <defs>
                <circle id="rim" cx="0" cy="0" r="7"/>
                <circle id="rim2" cx="0" cy="0" r="3.5"/>
                <g id="zoomPlus">
                        <use xlink:href="#rim" fill="#404040">
                                <set attributeName="fill" to="#808080" begin="zoomplus.mouseover" end="zoomplus.mouseout"/>
                        </use>
                        <path d="M-4,0h8M0,-4v8" fill="none" stroke="white" stroke-width="1.5" pointer-events="none"/>
                </g>
                <g id="zoomMin">
                        <use xlink:href="#rim" fill="#404040">
                                <set attributeName="fill" to="#808080" begin="zoomminus.mouseover" end="zoomminus.mouseout"/>
                        </use>
                        <path d="M-4,0h8" fill="none" stroke="white" stroke-width="1.5" pointer-events="none"/>
                </g>
                <g id="dirArrow">
                        <path fill="none" stroke="white" stroke-width="1.5" d="M0,-3.0v7 M-2.5,-0.5L0,-3.0L2.5,-0.5"/>
                </g>
               <g id="resetDef">
                       <use xlink:href="#rim2" fill="#404040">
                               <set attributeName="fill" to="#808080" begin="reset.mouseover" end="reset.mouseout"/>
                       </use>
               </g>
        </defs>

<script type="text/javascript">
var viewWidth = 790;
var viewHeight = 588;
var sectionId = 'dynsection-1';
</script>
<script xlink:href="svgpan.js"/>
<svg id="graph" class="graph">
<g id="viewport">
<title>include/surf.h</title>
<polygon fill="white" stroke="transparent" points="-4,4 -4,-584 785.53,-584 785.53,4 -4,4"/>
<!-- Node1 -->
<g id="node1" class="node">
<title>Node1</title>
<g id="a_node1"><a xlink:title="Surfaces?">
<polygon fill="#bfbfbf" stroke="black" points="466.5,-560.5 466.5,-579.5 548.5,-579.5 548.5,-560.5 466.5,-560.5"/>
<text text-anchor="middle" x="507.5" y="-567.5" font-family="Helvetica,sans-Serif" font-size="10.00">include/surf.h</text>
</a>
</g>
</g>
<!-- Node2 -->
<g id="node2" class="node">
<title>Node2</title>
<g id="a_node2"><a xlink:href="shd_8h.html" target="_top" xlink:title="Shaders.">
<polygon fill="white" stroke="black" points="430,-504.5 430,-523.5 511,-523.5 511,-504.5 430,-504.5"/>
<text text-anchor="middle" x="470.5" y="-511.5" font-family="Helvetica,sans-Serif" font-size="10.00">include/shd.h</text>
</a>
</g>
</g>
<!-- Node1&#45;&gt;Node2 -->
<g id="edge1" class="edge">
<title>Node1&#45;&gt;Node2</title>
<path fill="none" stroke="midnightblue" d="M495.55,-551.57C489.19,-542.27 481.63,-531.25 476.5,-523.75"/>
<polygon fill="midnightblue" stroke="midnightblue" points="492.85,-553.81 501.39,-560.08 498.63,-549.86 492.85,-553.81"/>
</g>
<!-- Node24 -->
<g id="node24" class="node">
<title>Node24</title>
<g id="a_node24"><a xlink:href="xform_8h.html" target="_top" xlink:title="Transform.">
<polygon fill="white" stroke="black" points="488,-224.5 488,-243.5 581,-243.5 581,-224.5 488,-224.5"/>
<text text-anchor="middle" x="534.5" y="-231.5" font-family="Helvetica,sans-Serif" font-size="10.00">include/xform.h</text>
</a>
</g>
</g>
<!-- Node1&#45;&gt;Node24 -->
<g id="edge35" class="edge">
<title>Node1&#45;&gt;Node24</title>
<path fill="none" stroke="midnightblue" d="M517.36,-551.43C528.32,-530.21 544.5,-493.11 544.5,-459 544.5,-459 544.5,-459 544.5,-345 544.5,-307.03 538.52,-261.99 535.81,-243.53"/>
<polygon fill="midnightblue" stroke="midnightblue" points="514.14,-550.02 512.49,-560.49 520.31,-553.34 514.14,-550.02"/>
</g>
<!-- Node3 -->
<g id="node3" class="node">
<title>Node3</title>
<g id="a_node3"><a xlink:href="dmas_8h.html" target="_top" xlink:title="Direct memory access.">
<polygon fill="white" stroke="black" points="425,-448.5 425,-467.5 516,-467.5 516,-448.5 425,-448.5"/>
<text text-anchor="middle" x="470.5" y="-455.5" font-family="Helvetica,sans-Serif" font-size="10.00">include/dmas.h</text>
</a>
</g>
</g>
<!-- Node2&#45;&gt;Node3 -->
<g id="edge2" class="edge">
<title>Node2&#45;&gt;Node3</title>
<path fill="none" stroke="midnightblue" d="M470.5,-493.8C470.5,-484.91 470.5,-474.78 470.5,-467.75"/>
<polygon fill="midnightblue" stroke="midnightblue" points="467,-494.08 470.5,-504.08 474,-494.08 467,-494.08"/>
</g>
<!-- Node5 -->
<g id="node5" class="node">
<title>Node5</title>
<g id="a_node5"><a xlink:href="screen_8h.html" target="_top" xlink:title="GUI elements.">
<polygon fill="white" stroke="black" points="229.5,-448.5 229.5,-467.5 325.5,-467.5 325.5,-448.5 229.5,-448.5"/>
<text text-anchor="middle" x="277.5" y="-455.5" font-family="Helvetica,sans-Serif" font-size="10.00">include/screen.h</text>
</a>
</g>
</g>
<!-- Node2&#45;&gt;Node5 -->
<g id="edge4" class="edge">
<title>Node2&#45;&gt;Node5</title>
<path fill="none" stroke="midnightblue" d="M430.11,-501.7C393.68,-491.51 340.91,-476.74 307.94,-467.52"/>
<polygon fill="midnightblue" stroke="midnightblue" points="429.35,-505.12 439.92,-504.44 431.23,-498.38 429.35,-505.12"/>
</g>
<!-- Node4 -->
<g id="node4" class="node">
<title>Node4</title>
<g id="a_node4"><a xlink:href="dmas_8c.html" target="_top" xlink:title=" ">
<polygon fill="white" stroke="black" points="432.5,-392.5 432.5,-411.5 516.5,-411.5 516.5,-392.5 432.5,-392.5"/>
<text text-anchor="middle" x="474.5" y="-399.5" font-family="Helvetica,sans-Serif" font-size="10.00">src/P2/dmas.c</text>
</a>
</g>
</g>
<!-- Node3&#45;&gt;Node4 -->
<g id="edge3" class="edge">
<title>Node3&#45;&gt;Node4</title>
<path fill="none" stroke="midnightblue" d="M471.9,-438.1C472.56,-429.14 473.33,-418.86 473.85,-411.75"/>
<polygon fill="midnightblue" stroke="midnightblue" points="468.41,-437.85 471.16,-448.08 475.39,-438.37 468.41,-437.85"/>
</g>
<!-- Node6 -->
<g id="node6" class="node">
<title>Node6</title>
<g id="a_node6"><a xlink:href="screen_8c.html" target="_top" xlink:title=" ">
<polygon fill="white" stroke="black" points="0,-392.5 0,-411.5 89,-411.5 89,-392.5 0,-392.5"/>
<text text-anchor="middle" x="44.5" y="-399.5" font-family="Helvetica,sans-Serif" font-size="10.00">src/P2/screen.c</text>
</a>
</g>
</g>
<!-- Node5&#45;&gt;Node6 -->
<g id="edge5" class="edge">
<title>Node5&#45;&gt;Node6</title>
<path fill="none" stroke="midnightblue" d="M230.7,-446.15C186.67,-435.95 121.65,-420.88 81.25,-411.52"/>
<polygon fill="midnightblue" stroke="midnightblue" points="230.05,-449.6 240.58,-448.44 231.63,-442.78 230.05,-449.6"/>
</g>
<!-- Node7 -->
<g id="node7" class="node">
<title>Node7</title>
<g id="a_node7"><a xlink:href="steppower_8c.html" target="_top" xlink:title=" ">
<polygon fill="white" stroke="black" points="107,-392.5 107,-411.5 214,-411.5 214,-392.5 107,-392.5"/>
<text text-anchor="middle" x="160.5" y="-399.5" font-family="Helvetica,sans-Serif" font-size="10.00">src/P2/steppower.c</text>
</a>
</g>
</g>
<!-- Node5&#45;&gt;Node7 -->
<g id="edge6" class="edge">
<title>Node5&#45;&gt;Node7</title>
<path fill="none" stroke="midnightblue" d="M249.84,-444.23C227.95,-434.13 198,-420.31 178.95,-411.52"/>
<polygon fill="midnightblue" stroke="midnightblue" points="248.41,-447.43 258.96,-448.44 251.35,-441.08 248.41,-447.43"/>
</g>
<!-- Node8 -->
<g id="node8" class="node">
<title>Node8</title>
<g id="a_node8"><a xlink:href="binoc_8h.html" target="_top" xlink:title="Binoc&#45;u&#45;com.">
<polygon fill="white" stroke="black" points="232.5,-392.5 232.5,-411.5 322.5,-411.5 322.5,-392.5 232.5,-392.5"/>
<text text-anchor="middle" x="277.5" y="-399.5" font-family="Helvetica,sans-Serif" font-size="10.00">include/binoc.h</text>
</a>
</g>
</g>
<!-- Node5&#45;&gt;Node8 -->
<g id="edge7" class="edge">
<title>Node5&#45;&gt;Node8</title>
<path fill="none" stroke="midnightblue" d="M277.5,-437.8C277.5,-428.91 277.5,-418.78 277.5,-411.75"/>
<polygon fill="midnightblue" stroke="midnightblue" points="274,-438.08 277.5,-448.08 281,-438.08 274,-438.08"/>
</g>
<!-- Node29 -->
<g id="node29" class="node">
<title>Node29</title>
<g id="a_node29"><a xlink:href="ui_8h.html" target="_top" xlink:title="User interface.">
<polygon fill="white" stroke="black" points="341,-392.5 341,-411.5 414,-411.5 414,-392.5 341,-392.5"/>
<text text-anchor="middle" x="377.5" y="-399.5" font-family="Helvetica,sans-Serif" font-size="10.00">include/ui.h</text>
</a>
</g>
</g>
<!-- Node5&#45;&gt;Node29 -->
<g id="edge33" class="edge">
<title>Node5&#45;&gt;Node29</title>
<path fill="none" stroke="midnightblue" d="M302.59,-443.45C321.05,-433.48 345.6,-420.23 361.47,-411.65"/>
<polygon fill="midnightblue" stroke="midnightblue" points="300.7,-440.49 293.57,-448.32 304.03,-446.65 300.7,-440.49"/>
</g>
<!-- Node9 -->
<g id="node9" class="node">
<title>Node9</title>
<g id="a_node9"><a xlink:href="binoc_8c.html" target="_top" xlink:title=" ">
<polygon fill="white" stroke="black" points="344,-336.5 344,-355.5 427,-355.5 427,-336.5 344,-336.5"/>
<text text-anchor="middle" x="385.5" y="-343.5" font-family="Helvetica,sans-Serif" font-size="10.00">src/P2/binoc.c</text>
</a>
</g>
</g>
<!-- Node8&#45;&gt;Node9 -->
<g id="edge8" class="edge">
<title>Node8&#45;&gt;Node9</title>
<path fill="none" stroke="midnightblue" d="M304.05,-387.73C324.05,-377.73 350.89,-364.31 368.19,-355.65"/>
<polygon fill="midnightblue" stroke="midnightblue" points="302.23,-384.72 294.85,-392.32 305.36,-390.98 302.23,-384.72"/>
</g>
<!-- Node10 -->
<g id="node10" class="node">
<title>Node10</title>
<g id="a_node10"><a xlink:href="cm_8c.html" target="_top" xlink:title=" ">
<polygon fill="white" stroke="black" points="117.5,-112.5 117.5,-131.5 189.5,-131.5 189.5,-112.5 117.5,-112.5"/>
<text text-anchor="middle" x="153.5" y="-119.5" font-family="Helvetica,sans-Serif" font-size="10.00">src/P2/cm.c</text>
</a>
</g>
</g>
<!-- Node8&#45;&gt;Node10 -->
<g id="edge9" class="edge">
<title>Node8&#45;&gt;Node10</title>
<path fill="none" stroke="midnightblue" d="M248.19,-387.85C215.01,-370.72 165.5,-337.39 165.5,-291 165.5,-291 165.5,-291 165.5,-233 165.5,-194.96 158.32,-149.96 155.07,-131.52"/>
<polygon fill="midnightblue" stroke="midnightblue" points="246.96,-391.14 257.48,-392.44 250.07,-384.87 246.96,-391.14"/>
</g>
<!-- Node11 -->
<g id="node11" class="node">
<title>Node11</title>
<g id="a_node11"><a xlink:href="cm_8h.html" target="_top" xlink:title="Game camera.">
<polygon fill="white" stroke="black" points="203,-168.5 203,-187.5 282,-187.5 282,-168.5 203,-168.5"/>
<text text-anchor="middle" x="242.5" y="-175.5" font-family="Helvetica,sans-Serif" font-size="10.00">include/cm.h</text>
</a>
</g>
</g>
<!-- Node8&#45;&gt;Node11 -->
<g id="edge10" class="edge">
<title>Node8&#45;&gt;Node11</title>
<path fill="none" stroke="midnightblue" d="M255.33,-386.16C245.78,-378.42 235.65,-368.05 230.5,-356 204.86,-295.95 229.92,-213.97 239.29,-187.57"/>
<polygon fill="midnightblue" stroke="midnightblue" points="253.33,-389.04 263.42,-392.26 257.54,-383.45 253.33,-389.04"/>
</g>
<!-- Node14 -->
<g id="node14" class="node">
<title>Node14</title>
<g id="a_node14"><a xlink:href="prog_8h.html" target="_top" xlink:title=" ">
<polygon fill="white" stroke="black" points="239.5,-336.5 239.5,-355.5 325.5,-355.5 325.5,-336.5 239.5,-336.5"/>
<text text-anchor="middle" x="282.5" y="-343.5" font-family="Helvetica,sans-Serif" font-size="10.00">include/prog.h</text>
</a>
</g>
</g>
<!-- Node8&#45;&gt;Node14 -->
<g id="edge14" class="edge">
<title>Node8&#45;&gt;Node14</title>
<path fill="none" stroke="midnightblue" d="M279.25,-382.1C280.08,-373.14 281.03,-362.86 281.69,-355.75"/>
<polygon fill="midnightblue" stroke="midnightblue" points="275.76,-381.8 278.33,-392.08 282.73,-382.45 275.76,-381.8"/>
</g>
<!-- Node11&#45;&gt;Node10 -->
<g id="edge11" class="edge">
<title>Node11&#45;&gt;Node10</title>
<path fill="none" stroke="midnightblue" d="M219.26,-162.9C202.94,-153 181.63,-140.07 167.76,-131.65"/>
<polygon fill="midnightblue" stroke="midnightblue" points="217.84,-166.13 228.2,-168.32 221.47,-160.14 217.84,-166.13"/>
</g>
<!-- Node12 -->
<g id="node12" class="node">
<title>Node12</title>
<g id="a_node12"><a xlink:href="flash_8h.html" target="_top" xlink:title="Flash (might be flash animation, or literal screen flashes).">
<polygon fill="white" stroke="black" points="208,-112.5 208,-131.5 295,-131.5 295,-112.5 208,-112.5"/>
<text text-anchor="middle" x="251.5" y="-119.5" font-family="Helvetica,sans-Serif" font-size="10.00">include/flash.h</text>
</a>
</g>
</g>
<!-- Node11&#45;&gt;Node12 -->
<g id="edge12" class="edge">
<title>Node11&#45;&gt;Node12</title>
<path fill="none" stroke="midnightblue" d="M245.65,-158.1C247.14,-149.14 248.86,-138.86 250.04,-131.75"/>
<polygon fill="midnightblue" stroke="midnightblue" points="242.18,-157.64 243.99,-168.08 249.08,-158.79 242.18,-157.64"/>
</g>
<!-- Node13 -->
<g id="node13" class="node">
<title>Node13</title>
<g id="a_node13"><a xlink:href="flash_8c.html" target="_top" xlink:title=" ">
<polygon fill="white" stroke="black" points="199.5,-56.5 199.5,-75.5 279.5,-75.5 279.5,-56.5 199.5,-56.5"/>
<text text-anchor="middle" x="239.5" y="-63.5" font-family="Helvetica,sans-Serif" font-size="10.00">src/P2/flash.c</text>
</a>
</g>
</g>
<!-- Node12&#45;&gt;Node13 -->
<g id="edge13" class="edge">
<title>Node12&#45;&gt;Node13</title>
<path fill="none" stroke="midnightblue" d="M247.3,-102.1C245.31,-93.14 243.02,-82.86 241.44,-75.75"/>
<polygon fill="midnightblue" stroke="midnightblue" points="243.93,-103.08 249.52,-112.08 250.77,-101.56 243.93,-103.08"/>
</g>
<!-- Node15 -->
<g id="node15" class="node">
<title>Node15</title>
<g id="a_node15"><a xlink:href="prog_8c.html" target="_top" xlink:title=" ">
<polygon fill="white" stroke="black" points="243,-280.5 243,-299.5 322,-299.5 322,-280.5 243,-280.5"/>
<text text-anchor="middle" x="282.5" y="-287.5" font-family="Helvetica,sans-Serif" font-size="10.00">src/P2/prog.c</text>
</a>
</g>
</g>
<!-- Node14&#45;&gt;Node15 -->
<g id="edge15" class="edge">
<title>Node14&#45;&gt;Node15</title>
<path fill="none" stroke="midnightblue" d="M282.5,-325.8C282.5,-316.91 282.5,-306.78 282.5,-299.75"/>
<polygon fill="midnightblue" stroke="midnightblue" points="279,-326.08 282.5,-336.08 286,-326.08 279,-326.08"/>
</g>
<!-- Node16 -->
<g id="node16" class="node">
<title>Node16</title>
<g id="a_node16"><a xlink:href="bis_8h.html" target="_top" xlink:title="Binary Input Stream.">
<polygon fill="white" stroke="black" points="359.5,-280.5 359.5,-299.5 437.5,-299.5 437.5,-280.5 359.5,-280.5"/>
<text text-anchor="middle" x="398.5" y="-287.5" font-family="Helvetica,sans-Serif" font-size="10.00">include/bis.h</text>
</a>
</g>
</g>
<!-- Node14&#45;&gt;Node16 -->
<g id="edge16" class="edge">
<title>Node14&#45;&gt;Node16</title>
<path fill="none" stroke="midnightblue" d="M310.22,-332.1C331.89,-322.01 361.4,-308.27 380.21,-299.52"/>
<polygon fill="midnightblue" stroke="midnightblue" points="308.47,-329.05 300.88,-336.44 311.42,-335.4 308.47,-329.05"/>
</g>
<!-- Node17 -->
<g id="node17" class="node">
<title>Node17</title>
<g id="a_node17"><a xlink:href="bis_8c.html" target="_top" xlink:title=" ">
<polygon fill="white" stroke="black" points="299,-224.5 299,-243.5 370,-243.5 370,-224.5 299,-224.5"/>
<text text-anchor="middle" x="334.5" y="-231.5" font-family="Helvetica,sans-Serif" font-size="10.00">src/P2/bis.c</text>
</a>
</g>
</g>
<!-- Node16&#45;&gt;Node17 -->
<g id="edge17" class="edge">
<title>Node16&#45;&gt;Node17</title>
<path fill="none" stroke="midnightblue" d="M380.51,-273.82C369.04,-264.15 354.59,-251.95 344.97,-243.83"/>
<polygon fill="midnightblue" stroke="midnightblue" points="378.32,-276.55 388.22,-280.32 382.83,-271.2 378.32,-276.55"/>
</g>
<!-- Node18 -->
<g id="node18" class="node">
<title>Node18</title>
<g id="a_node18"><a xlink:href="coin_8c.html" target="_top" xlink:title=" ">
<polygon fill="white" stroke="black" points="652,-56.5 652,-75.5 729,-75.5 729,-56.5 652,-56.5"/>
<text text-anchor="middle" x="690.5" y="-63.5" font-family="Helvetica,sans-Serif" font-size="10.00">src/P2/coin.c</text>
</a>
</g>
</g>
<!-- Node16&#45;&gt;Node18 -->
<g id="edge18" class="edge">
<title>Node16&#45;&gt;Node18</title>
<path fill="none" stroke="midnightblue" d="M447.71,-283.26C540.32,-271.31 734.71,-240.44 773.5,-188 803.95,-146.84 735.42,-95.72 704.56,-75.66"/>
<polygon fill="midnightblue" stroke="midnightblue" points="447.22,-279.79 437.74,-284.52 448.1,-286.73 447.22,-279.79"/>
</g>
<!-- Node19 -->
<g id="node19" class="node">
<title>Node19</title>
<g id="a_node19"><a xlink:href="chkpnt_8h.html" target="_top" xlink:title="Checkpoint system.">
<polygon fill="white" stroke="black" points="418,-112.5 418,-131.5 515,-131.5 515,-112.5 418,-112.5"/>
<text text-anchor="middle" x="466.5" y="-119.5" font-family="Helvetica,sans-Serif" font-size="10.00">include/chkpnt.h</text>
</a>
</g>
</g>
<!-- Node16&#45;&gt;Node19 -->
<g id="edge19" class="edge">
<title>Node16&#45;&gt;Node19</title>
<path fill="none" stroke="midnightblue" d="M397.97,-270.3C398.03,-245.47 400.92,-200.91 418.5,-168 426.68,-152.69 442.07,-139.69 453.22,-131.66"/>
<polygon fill="midnightblue" stroke="midnightblue" points="394.47,-270.54 398.1,-280.49 401.47,-270.45 394.47,-270.54"/>
</g>
<!-- Node16&#45;&gt;Node24 -->
<g id="edge25" class="edge">
<title>Node16&#45;&gt;Node24</title>
<path fill="none" stroke="midnightblue" d="M429.63,-276.64C455.16,-266.5 490.61,-252.43 513.05,-243.52"/>
<polygon fill="midnightblue" stroke="midnightblue" points="428.05,-273.5 420.05,-280.44 430.64,-280.01 428.05,-273.5"/>
</g>
<!-- Node19&#45;&gt;Node18 -->
<g id="edge21" class="edge">
<title>Node19&#45;&gt;Node18</title>
<path fill="none" stroke="midnightblue" d="M511.76,-110.09C554.08,-99.89 616.41,-84.86 655.17,-75.52"/>
<polygon fill="midnightblue" stroke="midnightblue" points="510.89,-106.7 501.99,-112.44 512.54,-113.5 510.89,-106.7"/>
</g>
<!-- Node20 -->
<g id="node20" class="node">
<title>Node20</title>
<g id="a_node20"><a xlink:href="chkpnt_8c.html" target="_top" xlink:title=" ">
<polygon fill="white" stroke="black" points="421.5,-56.5 421.5,-75.5 511.5,-75.5 511.5,-56.5 421.5,-56.5"/>
<text text-anchor="middle" x="466.5" y="-63.5" font-family="Helvetica,sans-Serif" font-size="10.00">src/P2/chkpnt.c</text>
</a>
</g>
</g>
<!-- Node19&#45;&gt;Node20 -->
<g id="edge20" class="edge">
<title>Node19&#45;&gt;Node20</title>
<path fill="none" stroke="midnightblue" d="M466.5,-101.8C466.5,-92.91 466.5,-82.78 466.5,-75.75"/>
<polygon fill="midnightblue" stroke="midnightblue" points="463,-102.08 466.5,-112.08 470,-102.08 463,-102.08"/>
</g>
<!-- Node21 -->
<g id="node21" class="node">
<title>Node21</title>
<g id="a_node21"><a xlink:href="transition_8c.html" target="_top" xlink:title=" ">
<polygon fill="white" stroke="black" points="529.5,-56.5 529.5,-75.5 633.5,-75.5 633.5,-56.5 529.5,-56.5"/>
<text text-anchor="middle" x="581.5" y="-63.5" font-family="Helvetica,sans-Serif" font-size="10.00">src/P2/transition.c</text>
</a>
</g>
</g>
<!-- Node19&#45;&gt;Node21 -->
<g id="edge22" class="edge">
<title>Node19&#45;&gt;Node21</title>
<path fill="none" stroke="midnightblue" d="M493.98,-108.1C515.47,-98.01 544.72,-84.27 563.36,-75.52"/>
<polygon fill="midnightblue" stroke="midnightblue" points="492.29,-105.02 484.72,-112.44 495.26,-111.36 492.29,-105.02"/>
</g>
<!-- Node22 -->
<g id="node22" class="node">
<title>Node22</title>
<g id="a_node22"><a xlink:href="difficulty_8h.html" target="_top" xlink:title="Dynamic difficulty system.">
<polygon fill="white" stroke="black" points="298,-56.5 298,-75.5 403,-75.5 403,-56.5 298,-56.5"/>
<text text-anchor="middle" x="350.5" y="-63.5" font-family="Helvetica,sans-Serif" font-size="10.00">include/difficulty.h</text>
</a>
</g>
</g>
<!-- Node19&#45;&gt;Node22 -->
<g id="edge23" class="edge">
<title>Node19&#45;&gt;Node22</title>
<path fill="none" stroke="midnightblue" d="M438.78,-108.1C417.11,-98.01 387.6,-84.27 368.79,-75.52"/>
<polygon fill="midnightblue" stroke="midnightblue" points="437.58,-111.4 448.12,-112.44 440.53,-105.05 437.58,-111.4"/>
</g>
<!-- Node23 -->
<g id="node23" class="node">
<title>Node23</title>
<g id="a_node23"><a xlink:href="difficulty_8c.html" target="_top" xlink:title=" ">
<polygon fill="white" stroke="black" points="301.5,-0.5 301.5,-19.5 399.5,-19.5 399.5,-0.5 301.5,-0.5"/>
<text text-anchor="middle" x="350.5" y="-7.5" font-family="Helvetica,sans-Serif" font-size="10.00">src/P2/difficulty.c</text>
</a>
</g>
</g>
<!-- Node22&#45;&gt;Node23 -->
<g id="edge24" class="edge">
<title>Node22&#45;&gt;Node23</title>
<path fill="none" stroke="midnightblue" d="M350.5,-45.8C350.5,-36.91 350.5,-26.78 350.5,-19.75"/>
<polygon fill="midnightblue" stroke="midnightblue" points="347,-46.08 350.5,-56.08 354,-46.08 347,-46.08"/>
</g>
<!-- Node24&#45;&gt;Node11 -->
<g id="edge28" class="edge">
<title>Node24&#45;&gt;Node11</title>
<path fill="none" stroke="midnightblue" d="M478.23,-222.59C420.8,-211.97 333.12,-195.76 282.45,-186.39"/>
<polygon fill="midnightblue" stroke="midnightblue" points="477.76,-226.07 488.23,-224.44 479.03,-219.18 477.76,-226.07"/>
</g>
<!-- Node25 -->
<g id="node25" class="node">
<title>Node25</title>
<g id="a_node25"><a xlink:href="xform1_8c.html" target="_top" xlink:title=" ">
<polygon fill="white" stroke="black" points="562.5,-168.5 562.5,-187.5 654.5,-187.5 654.5,-168.5 562.5,-168.5"/>
<text text-anchor="middle" x="608.5" y="-175.5" font-family="Helvetica,sans-Serif" font-size="10.00">src/P2/xform1.c</text>
</a>
</g>
</g>
<!-- Node24&#45;&gt;Node25 -->
<g id="edge26" class="edge">
<title>Node24&#45;&gt;Node25</title>
<path fill="none" stroke="midnightblue" d="M554.53,-218.38C567.91,-208.62 585.06,-196.11 596.39,-187.83"/>
<polygon fill="midnightblue" stroke="midnightblue" points="552.4,-215.6 546.39,-224.32 556.53,-221.26 552.4,-215.6"/>
</g>
<!-- Node26 -->
<g id="node26" class="node">
<title>Node26</title>
<g id="a_node26"><a xlink:href="xform2_8c.html" target="_top" xlink:title=" ">
<polygon fill="white" stroke="black" points="672.5,-168.5 672.5,-187.5 764.5,-187.5 764.5,-168.5 672.5,-168.5"/>
<text text-anchor="middle" x="718.5" y="-175.5" font-family="Helvetica,sans-Serif" font-size="10.00">src/P2/xform2.c</text>
</a>
</g>
</g>
<!-- Node24&#45;&gt;Node26 -->
<g id="edge27" class="edge">
<title>Node24&#45;&gt;Node26</title>
<path fill="none" stroke="midnightblue" d="M573.45,-221.57C608.16,-211.38 658.18,-196.7 689.48,-187.52"/>
<polygon fill="midnightblue" stroke="midnightblue" points="572.27,-218.27 563.66,-224.44 574.24,-224.99 572.27,-218.27"/>
</g>
<!-- Node27 -->
<g id="node27" class="node">
<title>Node27</title>
<g id="a_node27"><a xlink:href="coin_8h.html" target="_top" xlink:title="Coins, keys, and other collectibles.">
<polygon fill="white" stroke="black" points="591.5,-112.5 591.5,-131.5 675.5,-131.5 675.5,-112.5 591.5,-112.5"/>
<text text-anchor="middle" x="633.5" y="-119.5" font-family="Helvetica,sans-Serif" font-size="10.00">include/coin.h</text>
</a>
</g>
</g>
<!-- Node24&#45;&gt;Node27 -->
<g id="edge29" class="edge">
<title>Node24&#45;&gt;Node27</title>
<path fill="none" stroke="midnightblue" d="M536.13,-214.52C538.2,-200.48 542.88,-181.36 553.5,-168 567.38,-150.53 590,-138.71 607.66,-131.59"/>
<polygon fill="midnightblue" stroke="midnightblue" points="532.65,-214.15 534.97,-224.49 539.6,-214.96 532.65,-214.15"/>
</g>
<!-- Node28 -->
<g id="node28" class="node">
<title>Node28</title>
<g id="a_node28"><a xlink:href="vol_8h.html" target="_top" xlink:title="Volume object.">
<polygon fill="white" stroke="black" points="427,-168.5 427,-187.5 506,-187.5 506,-168.5 427,-168.5"/>
<text text-anchor="middle" x="466.5" y="-175.5" font-family="Helvetica,sans-Serif" font-size="10.00">include/vol.h</text>
</a>
</g>
</g>
<!-- Node24&#45;&gt;Node28 -->
<g id="edge31" class="edge">
<title>Node24&#45;&gt;Node28</title>
<path fill="none" stroke="midnightblue" d="M515.74,-218.1C503.5,-208.38 487.94,-196.03 477.62,-187.83"/>
<polygon fill="midnightblue" stroke="midnightblue" points="513.57,-220.85 523.57,-224.32 517.92,-215.36 513.57,-220.85"/>
</g>
<!-- Node27&#45;&gt;Node18 -->
<g id="edge30" class="edge">
<title>Node27&#45;&gt;Node18</title>
<path fill="none" stroke="midnightblue" d="M650.12,-105.25C660.23,-95.67 672.78,-83.79 681.18,-75.83"/>
<polygon fill="midnightblue" stroke="midnightblue" points="647.51,-102.91 642.66,-112.32 652.32,-107.99 647.51,-102.91"/>
</g>
<!-- Node28&#45;&gt;Node19 -->
<g id="edge32" class="edge">
<title>Node28&#45;&gt;Node19</title>
<path fill="none" stroke="midnightblue" d="M466.5,-157.8C466.5,-148.91 466.5,-138.78 466.5,-131.75"/>
<polygon fill="midnightblue" stroke="midnightblue" points="463,-158.08 466.5,-168.08 470,-158.08 463,-158.08"/>
</g>
<!-- Node30 -->
<g id="node30" class="node">
<title>Node30</title>
<g id="a_node30"><a xlink:href="ui_8c.html" target="_top" xlink:title=" ">
<polygon fill="white" stroke="black" points="445.5,-336.5 445.5,-355.5 511.5,-355.5 511.5,-336.5 445.5,-336.5"/>
<text text-anchor="middle" x="478.5" y="-343.5" font-family="Helvetica,sans-Serif" font-size="10.00">src/P2/ui.c</text>
</a>
</g>
</g>
<!-- Node29&#45;&gt;Node30 -->
<g id="edge34" class="edge">
<title>Node29&#45;&gt;Node30</title>
<path fill="none" stroke="midnightblue" d="M402.58,-387.59C421.26,-377.61 446.2,-364.27 462.31,-355.65"/>
<polygon fill="midnightblue" stroke="midnightblue" points="400.9,-384.52 393.73,-392.32 404.2,-390.7 400.9,-384.52"/>
</g>
</g>
</svg>
        <g id="navigator" transform="translate(0 0)" fill="#404254">
                <rect fill="#f2f5e9" fill-opacity="0.5" stroke="#606060" stroke-width=".5" x="0" y="0" width="60" height="60"/>
                <use id="zoomplus" xlink:href="#zoomPlus" x="17" y="9" onmousedown="handleZoom(evt,'in')"/>
                <use id="zoomminus" xlink:href="#zoomMin" x="42" y="9" onmousedown="handleZoom(evt,'out')"/>
                <use id="reset" xlink:href="#resetDef" x="30" y="36" onmousedown="handleReset()"/>
                <g id="arrowUp" xlink:href="#dirArrow" transform="translate(30 24)" onmousedown="handlePan(0,-1)">
                  <use xlink:href="#rim" fill="#404040">
                        <set attributeName="fill" to="#808080" begin="arrowUp.mouseover" end="arrowUp.mouseout"/>
                  </use>
                  <path fill="none" stroke="white" stroke-width="1.5" d="M0,-3.0v7 M-2.5,-0.5L0,-3.0L2.5,-0.5"/>
                </g>
                <g id="arrowRight" xlink:href="#dirArrow" transform="rotate(90) translate(36 -43)" onmousedown="handlePan(1,0)">
                  <use xlink:href="#rim" fill="#404040">
                        <set attributeName="fill" to="#808080" begin="arrowRight.mouseover" end="arrowRight.mouseout"/>
                  </use>
                  <path fill="none" stroke="white" stroke-width="1.5" d="M0,-3.0v7 M-2.5,-0.5L0,-3.0L2.5,-0.5"/>
                </g>
                <g id="arrowDown" xlink:href="#dirArrow" transform="rotate(180) translate(-30 -48)" onmousedown="handlePan(0,1)">
                  <use xlink:href="#rim" fill="#404040">
                        <set attributeName="fill" to="#808080" begin="arrowDown.mouseover" end="arrowDown.mouseout"/>
                  </use>
                  <path fill="none" stroke="white" stroke-width="1.5" d="M0,-3.0v7 M-2.5,-0.5L0,-3.0L2.5,-0.5"/>
                </g>
                <g id="arrowLeft" xlink:href="#dirArrow" transform="rotate(270) translate(-36 17)" onmousedown="handlePan(-1,0)">
                  <use xlink:href="#rim" fill="#404040">
                        <set attributeName="fill" to="#808080" begin="arrowLeft.mouseover" end="arrowLeft.mouseout"/>
                  </use>
                  <path fill="none" stroke="white" stroke-width="1.5" d="M0,-3.0v7 M-2.5,-0.5L0,-3.0L2.5,-0.5"/>
                </g>
        </g>
        <svg viewBox="0 0 15 15" width="100%" height="30px" preserveAspectRatio="xMaxYMin meet">
         <g id="arrow_out" transform="scale(0.3 0.3)">
          <a xlink:href="surf_8h__dep__incl_org.svg" target="_base">
           <rect id="button" ry="5" rx="5" y="6" x="6" height="38" width="38"
                fill="#f2f5e9" fill-opacity="0.5" stroke="#606060" stroke-width="1.0"/>
           <path id="arrow"
             d="M 11.500037,31.436501 C 11.940474,20.09759 22.043105,11.32322 32.158766,21.979434 L 37.068811,17.246167 C 37.068811,17.246167 37.088388,32 37.088388,32 L 22.160133,31.978069 C 22.160133,31.978069 26.997745,27.140456 26.997745,27.140456 C 18.528582,18.264221 13.291696,25.230495 11.500037,31.436501 z"
             style="fill:#404040;"/>
          </a>
         </g>
        </svg>
</svg>
