<?xml version="1.0" encoding="UTF-8" standalone="no"?>
<!DOCTYPE svg PUBLIC "-//W3C//DTD SVG 1.1//EN"
 "http://www.w3.org/Graphics/SVG/1.1/DTD/svg11.dtd">
<!-- Generated by graphviz version 2.43.0 (0)
 -->
<!-- Title: include/surf.h Pages: 1 -->
<svg width="677pt" height="588pt"
 viewBox="0.00 0.00 676.50 588.00" xmlns="http://www.w3.org/2000/svg" xmlns:xlink="http://www.w3.org/1999/xlink">
<g id="graph0" class="graph" transform="scale(1 1) rotate(0) translate(4 584)">
<title>include/surf.h</title>
<polygon fill="white" stroke="transparent" points="-4,4 -4,-584 672.5,-584 672.5,4 -4,4"/>
<!-- Node1 -->
<g id="node1" class="node">
<title>Node1</title>
<g id="a_node1"><a xlink:title="Surface?">
<polygon fill="#bfbfbf" stroke="black" points="333.5,-560.5 333.5,-579.5 415.5,-579.5 415.5,-560.5 333.5,-560.5"/>
<text text-anchor="middle" x="374.5" y="-567.5" font-family="Helvetica,sans-Serif" font-size="10.00">include/surf.h</text>
</a>
</g>
</g>
<!-- Node2 -->
<g id="node2" class="node">
<title>Node2</title>
<g id="a_node2"><a xlink:href="shd_8h.html" target="_top" xlink:title="Shaders.">
<polygon fill="white" stroke="black" points="300,-504.5 300,-523.5 381,-523.5 381,-504.5 300,-504.5"/>
<text text-anchor="middle" x="340.5" y="-511.5" font-family="Helvetica,sans-Serif" font-size="10.00">include/shd.h</text>
</a>
</g>
</g>
<!-- Node1&#45;&gt;Node2 -->
<g id="edge1" class="edge">
<title>Node1&#45;&gt;Node2</title>
<path fill="none" stroke="midnightblue" d="M363.52,-551.57C357.67,-542.27 350.73,-531.25 346.01,-523.75"/>
<polygon fill="midnightblue" stroke="midnightblue" points="360.6,-553.49 368.89,-560.08 366.52,-549.76 360.6,-553.49"/>
</g>
<!-- Node21 -->
<g id="node21" class="node">
<title>Node21</title>
<g id="a_node21"><a xlink:href="xform_8h.html" target="_top" xlink:title="Transform.">
<polygon fill="white" stroke="black" points="357,-224.5 357,-243.5 450,-243.5 450,-224.5 357,-224.5"/>
<text text-anchor="middle" x="403.5" y="-231.5" font-family="Helvetica,sans-Serif" font-size="10.00">include/xform.h</text>
</a>
</g>
</g>
<!-- Node1&#45;&gt;Node21 -->
<g id="edge32" class="edge">
<title>Node1&#45;&gt;Node21</title>
<path fill="none" stroke="midnightblue" d="M409.54,-556.75C448.04,-540.79 504.5,-508.88 504.5,-459 504.5,-459 504.5,-459 504.5,-345 504.5,-314.9 504.35,-303.47 485.5,-280 471.37,-262.4 448.41,-250.65 430.37,-243.58"/>
<polygon fill="midnightblue" stroke="midnightblue" points="408.19,-553.52 400.18,-560.47 410.77,-560.03 408.19,-553.52"/>
</g>
<!-- Node3 -->
<g id="node3" class="node">
<title>Node3</title>
<g id="a_node3"><a xlink:href="screen_8h.html" target="_top" xlink:title="User interface manager.">
<polygon fill="white" stroke="black" points="141.5,-448.5 141.5,-467.5 237.5,-467.5 237.5,-448.5 141.5,-448.5"/>
<text text-anchor="middle" x="189.5" y="-455.5" font-family="Helvetica,sans-Serif" font-size="10.00">include/screen.h</text>
</a>
</g>
</g>
<!-- Node2&#45;&gt;Node3 -->
<g id="edge2" class="edge">
<title>Node2&#45;&gt;Node3</title>
<path fill="none" stroke="midnightblue" d="M307.05,-501.04C278.64,-490.88 238.56,-476.55 213.31,-467.52"/>
<polygon fill="midnightblue" stroke="midnightblue" points="305.98,-504.37 316.57,-504.44 308.34,-497.78 305.98,-504.37"/>
</g>
<!-- Node4 -->
<g id="node4" class="node">
<title>Node4</title>
<g id="a_node4"><a xlink:href="screen_8c.html" target="_top" xlink:title=" ">
<polygon fill="white" stroke="black" points="91,-392.5 91,-411.5 180,-411.5 180,-392.5 91,-392.5"/>
<text text-anchor="middle" x="135.5" y="-399.5" font-family="Helvetica,sans-Serif" font-size="10.00">src/P2/screen.c</text>
</a>
</g>
</g>
<!-- Node3&#45;&gt;Node4 -->
<g id="edge3" class="edge">
<title>Node3&#45;&gt;Node4</title>
<path fill="none" stroke="midnightblue" d="M173.5,-441C163.93,-431.43 152.14,-419.64 144.25,-411.75"/>
<polygon fill="midnightblue" stroke="midnightblue" points="171.04,-443.49 180.58,-448.08 175.99,-438.54 171.04,-443.49"/>
</g>
<!-- Node5 -->
<g id="node5" class="node">
<title>Node5</title>
<g id="a_node5"><a xlink:href="binoc_8h.html" target="_top" xlink:title="Binoc&#45;u&#45;com.">
<polygon fill="white" stroke="black" points="198.5,-392.5 198.5,-411.5 288.5,-411.5 288.5,-392.5 198.5,-392.5"/>
<text text-anchor="middle" x="243.5" y="-399.5" font-family="Helvetica,sans-Serif" font-size="10.00">include/binoc.h</text>
</a>
</g>
</g>
<!-- Node3&#45;&gt;Node5 -->
<g id="edge4" class="edge">
<title>Node3&#45;&gt;Node5</title>
<path fill="none" stroke="midnightblue" d="M205.5,-441C215.07,-431.43 226.86,-419.64 234.75,-411.75"/>
<polygon fill="midnightblue" stroke="midnightblue" points="203.01,-438.54 198.42,-448.08 207.96,-443.49 203.01,-438.54"/>
</g>
<!-- Node26 -->
<g id="node26" class="node">
<title>Node26</title>
<g id="a_node26"><a xlink:href="ui_8h.html" target="_top" xlink:title="User interface.">
<polygon fill="white" stroke="black" points="0,-392.5 0,-411.5 73,-411.5 73,-392.5 0,-392.5"/>
<text text-anchor="middle" x="36.5" y="-399.5" font-family="Helvetica,sans-Serif" font-size="10.00">include/ui.h</text>
</a>
</g>
</g>
<!-- Node3&#45;&gt;Node26 -->
<g id="edge30" class="edge">
<title>Node3&#45;&gt;Node26</title>
<path fill="none" stroke="midnightblue" d="M155.61,-445.04C126.82,-434.88 86.21,-420.55 60.63,-411.52"/>
<polygon fill="midnightblue" stroke="midnightblue" points="154.66,-448.42 165.26,-448.44 156.99,-441.81 154.66,-448.42"/>
</g>
<!-- Node6 -->
<g id="node6" class="node">
<title>Node6</title>
<g id="a_node6"><a xlink:href="binoc_8c.html" target="_top" xlink:title=" ">
<polygon fill="white" stroke="black" points="305,-336.5 305,-355.5 388,-355.5 388,-336.5 305,-336.5"/>
<text text-anchor="middle" x="346.5" y="-343.5" font-family="Helvetica,sans-Serif" font-size="10.00">src/P2/binoc.c</text>
</a>
</g>
</g>
<!-- Node5&#45;&gt;Node6 -->
<g id="edge5" class="edge">
<title>Node5&#45;&gt;Node6</title>
<path fill="none" stroke="midnightblue" d="M269.08,-387.59C288.12,-377.61 313.56,-364.27 329.99,-355.65"/>
<polygon fill="midnightblue" stroke="midnightblue" points="267.28,-384.58 260.05,-392.32 270.53,-390.78 267.28,-384.58"/>
</g>
<!-- Node7 -->
<g id="node7" class="node">
<title>Node7</title>
<g id="a_node7"><a xlink:href="cm_8c.html" target="_top" xlink:title=" ">
<polygon fill="white" stroke="black" points="33.5,-112.5 33.5,-131.5 105.5,-131.5 105.5,-112.5 33.5,-112.5"/>
<text text-anchor="middle" x="69.5" y="-119.5" font-family="Helvetica,sans-Serif" font-size="10.00">src/P2/cm.c</text>
</a>
</g>
</g>
<!-- Node5&#45;&gt;Node7 -->
<g id="edge6" class="edge">
<title>Node5&#45;&gt;Node7</title>
<path fill="none" stroke="midnightblue" d="M203.31,-389.2C161.01,-374.01 100.5,-343.16 100.5,-291 100.5,-291 100.5,-291 100.5,-233 100.5,-193.91 82.14,-149.84 73.68,-131.61"/>
<polygon fill="midnightblue" stroke="midnightblue" points="202.23,-392.53 212.82,-392.46 204.5,-385.91 202.23,-392.53"/>
</g>
<!-- Node8 -->
<g id="node8" class="node">
<title>Node8</title>
<g id="a_node8"><a xlink:href="cm_8h.html" target="_top" xlink:title="Game camera.">
<polygon fill="white" stroke="black" points="130,-168.5 130,-187.5 209,-187.5 209,-168.5 130,-168.5"/>
<text text-anchor="middle" x="169.5" y="-175.5" font-family="Helvetica,sans-Serif" font-size="10.00">include/cm.h</text>
</a>
</g>
</g>
<!-- Node5&#45;&gt;Node8 -->
<g id="edge7" class="edge">
<title>Node5&#45;&gt;Node8</title>
<path fill="none" stroke="midnightblue" d="M220.03,-386.54C209.54,-378.81 198.09,-368.34 191.5,-356 160.57,-298.09 165.78,-214.71 168.49,-187.76"/>
<polygon fill="midnightblue" stroke="midnightblue" points="218.26,-389.57 228.48,-392.37 222.23,-383.81 218.26,-389.57"/>
</g>
<!-- Node11 -->
<g id="node11" class="node">
<title>Node11</title>
<g id="a_node11"><a xlink:href="prog_8h.html" target="_top" xlink:title=" ">
<polygon fill="white" stroke="black" points="200.5,-336.5 200.5,-355.5 286.5,-355.5 286.5,-336.5 200.5,-336.5"/>
<text text-anchor="middle" x="243.5" y="-343.5" font-family="Helvetica,sans-Serif" font-size="10.00">include/prog.h</text>
</a>
</g>
</g>
<!-- Node5&#45;&gt;Node11 -->
<g id="edge11" class="edge">
<title>Node5&#45;&gt;Node11</title>
<path fill="none" stroke="midnightblue" d="M243.5,-381.8C243.5,-372.91 243.5,-362.78 243.5,-355.75"/>
<polygon fill="midnightblue" stroke="midnightblue" points="240,-382.08 243.5,-392.08 247,-382.08 240,-382.08"/>
</g>
<!-- Node8&#45;&gt;Node7 -->
<g id="edge8" class="edge">
<title>Node8&#45;&gt;Node7</title>
<path fill="none" stroke="midnightblue" d="M144.41,-163.45C125.95,-153.48 101.4,-140.23 85.53,-131.65"/>
<polygon fill="midnightblue" stroke="midnightblue" points="142.97,-166.65 153.43,-168.32 146.3,-160.49 142.97,-166.65"/>
</g>
<!-- Node9 -->
<g id="node9" class="node">
<title>Node9</title>
<g id="a_node9"><a xlink:href="flash_8h.html" target="_top" xlink:title="Flash (might be flash animation, or literal screen flashes).">
<polygon fill="white" stroke="black" points="124,-112.5 124,-131.5 211,-131.5 211,-112.5 124,-112.5"/>
<text text-anchor="middle" x="167.5" y="-119.5" font-family="Helvetica,sans-Serif" font-size="10.00">include/flash.h</text>
</a>
</g>
</g>
<!-- Node8&#45;&gt;Node9 -->
<g id="edge9" class="edge">
<title>Node8&#45;&gt;Node9</title>
<path fill="none" stroke="midnightblue" d="M168.79,-157.8C168.46,-148.91 168.08,-138.78 167.82,-131.75"/>
<polygon fill="midnightblue" stroke="midnightblue" points="165.3,-158.22 169.17,-168.08 172.3,-157.96 165.3,-158.22"/>
</g>
<!-- Node10 -->
<g id="node10" class="node">
<title>Node10</title>
<g id="a_node10"><a xlink:href="flash_8c.html" target="_top" xlink:title=" ">
<polygon fill="white" stroke="black" points="127.5,-56.5 127.5,-75.5 207.5,-75.5 207.5,-56.5 127.5,-56.5"/>
<text text-anchor="middle" x="167.5" y="-63.5" font-family="Helvetica,sans-Serif" font-size="10.00">src/P2/flash.c</text>
</a>
</g>
</g>
<!-- Node9&#45;&gt;Node10 -->
<g id="edge10" class="edge">
<title>Node9&#45;&gt;Node10</title>
<path fill="none" stroke="midnightblue" d="M167.5,-101.8C167.5,-92.91 167.5,-82.78 167.5,-75.75"/>
<polygon fill="midnightblue" stroke="midnightblue" points="164,-102.08 167.5,-112.08 171,-102.08 164,-102.08"/>
</g>
<!-- Node12 -->
<g id="node12" class="node">
<title>Node12</title>
<g id="a_node12"><a xlink:href="main_8c.html" target="_top" xlink:title=" ">
<polygon fill="white" stroke="black" points="296.5,-280.5 296.5,-299.5 378.5,-299.5 378.5,-280.5 296.5,-280.5"/>
<text text-anchor="middle" x="337.5" y="-287.5" font-family="Helvetica,sans-Serif" font-size="10.00">src/P2/main.c</text>
</a>
</g>
</g>
<!-- Node11&#45;&gt;Node12 -->
<g id="edge12" class="edge">
<title>Node11&#45;&gt;Node12</title>
<path fill="none" stroke="midnightblue" d="M267.56,-331.18C284.86,-321.24 307.65,-308.15 322.43,-299.65"/>
<polygon fill="midnightblue" stroke="midnightblue" points="265.53,-328.31 258.6,-336.32 269.02,-334.38 265.53,-328.31"/>
</g>
<!-- Node13 -->
<g id="node13" class="node">
<title>Node13</title>
<g id="a_node13"><a xlink:href="prog_8c.html" target="_top" xlink:title=" ">
<polygon fill="white" stroke="black" points="397,-280.5 397,-299.5 476,-299.5 476,-280.5 397,-280.5"/>
<text text-anchor="middle" x="436.5" y="-287.5" font-family="Helvetica,sans-Serif" font-size="10.00">src/P2/prog.c</text>
</a>
</g>
</g>
<!-- Node11&#45;&gt;Node13 -->
<g id="edge13" class="edge">
<title>Node11&#45;&gt;Node13</title>
<path fill="none" stroke="midnightblue" d="M283.89,-333.7C320.32,-323.51 373.09,-308.74 406.06,-299.52"/>
<polygon fill="midnightblue" stroke="midnightblue" points="282.77,-330.38 274.08,-336.44 284.65,-337.12 282.77,-330.38"/>
</g>
<!-- Node14 -->
<g id="node14" class="node">
<title>Node14</title>
<g id="a_node14"><a xlink:href="bis_8h.html" target="_top" xlink:title="Binary Input Stream.">
<polygon fill="white" stroke="black" points="200.5,-280.5 200.5,-299.5 278.5,-299.5 278.5,-280.5 200.5,-280.5"/>
<text text-anchor="middle" x="239.5" y="-287.5" font-family="Helvetica,sans-Serif" font-size="10.00">include/bis.h</text>
</a>
</g>
</g>
<!-- Node11&#45;&gt;Node14 -->
<g id="edge14" class="edge">
<title>Node11&#45;&gt;Node14</title>
<path fill="none" stroke="midnightblue" d="M242.1,-326.1C241.44,-317.14 240.67,-306.86 240.15,-299.75"/>
<polygon fill="midnightblue" stroke="midnightblue" points="238.61,-326.37 242.84,-336.08 245.59,-325.85 238.61,-326.37"/>
</g>
<!-- Node15 -->
<g id="node15" class="node">
<title>Node15</title>
<g id="a_node15"><a xlink:href="bis_8c.html" target="_top" xlink:title=" ">
<polygon fill="white" stroke="black" points="268,-224.5 268,-243.5 339,-243.5 339,-224.5 268,-224.5"/>
<text text-anchor="middle" x="303.5" y="-231.5" font-family="Helvetica,sans-Serif" font-size="10.00">src/P2/bis.c</text>
</a>
</g>
</g>
<!-- Node14&#45;&gt;Node15 -->
<g id="edge15" class="edge">
<title>Node14&#45;&gt;Node15</title>
<path fill="none" stroke="midnightblue" d="M257.49,-273.82C268.96,-264.15 283.41,-251.95 293.03,-243.83"/>
<polygon fill="midnightblue" stroke="midnightblue" points="255.17,-271.2 249.78,-280.32 259.68,-276.55 255.17,-271.2"/>
</g>
<!-- Node16 -->
<g id="node16" class="node">
<title>Node16</title>
<g id="a_node16"><a xlink:href="coin_8c.html" target="_top" xlink:title=" ">
<polygon fill="white" stroke="black" points="271,-56.5 271,-75.5 348,-75.5 348,-56.5 271,-56.5"/>
<text text-anchor="middle" x="309.5" y="-63.5" font-family="Helvetica,sans-Serif" font-size="10.00">src/P2/coin.c</text>
</a>
</g>
</g>
<!-- Node14&#45;&gt;Node16 -->
<g id="edge16" class="edge">
<title>Node14&#45;&gt;Node16</title>
<path fill="none" stroke="midnightblue" d="M237.24,-269.98C234.11,-236.12 231.57,-164.06 258.5,-112 266.64,-96.27 282.75,-83.52 294.7,-75.66"/>
<polygon fill="midnightblue" stroke="midnightblue" points="233.8,-270.69 238.32,-280.27 240.76,-269.96 233.8,-270.69"/>
</g>
<!-- Node17 -->
<g id="node17" class="node">
<title>Node17</title>
<g id="a_node17"><a xlink:href="chkpnt_8h.html" target="_top" xlink:title="Checkpoint system.">
<polygon fill="white" stroke="black" points="517,-112.5 517,-131.5 614,-131.5 614,-112.5 517,-112.5"/>
<text text-anchor="middle" x="565.5" y="-119.5" font-family="Helvetica,sans-Serif" font-size="10.00">include/chkpnt.h</text>
</a>
</g>
</g>
<!-- Node14&#45;&gt;Node17 -->
<g id="edge17" class="edge">
<title>Node14&#45;&gt;Node17</title>
<path fill="none" stroke="midnightblue" d="M288.77,-279.31C348.51,-267.51 443.27,-248.57 459.5,-244 530.01,-224.16 572.42,-247.95 614.5,-188 628.95,-167.41 599.62,-144.03 580.4,-131.69"/>
<polygon fill="midnightblue" stroke="midnightblue" points="287.91,-275.92 278.78,-281.29 289.27,-282.78 287.91,-275.92"/>
</g>
<!-- Node14&#45;&gt;Node21 -->
<g id="edge22" class="edge">
<title>Node14&#45;&gt;Node21</title>
<path fill="none" stroke="midnightblue" d="M275.02,-277.3C305.92,-267.13 349.97,-252.62 377.64,-243.52"/>
<polygon fill="midnightblue" stroke="midnightblue" points="273.89,-273.99 265.49,-280.44 276.08,-280.64 273.89,-273.99"/>
</g>
<!-- Node17&#45;&gt;Node16 -->
<g id="edge19" class="edge">
<title>Node17&#45;&gt;Node16</title>
<path fill="none" stroke="midnightblue" d="M514.87,-110.32C465.88,-99.99 392.69,-84.55 348.2,-75.16"/>
<polygon fill="midnightblue" stroke="midnightblue" points="514.43,-113.8 524.94,-112.44 515.87,-106.95 514.43,-113.8"/>
</g>
<!-- Node18 -->
<g id="node18" class="node">
<title>Node18</title>
<g id="a_node18"><a xlink:href="chkpnt_8c.html" target="_top" xlink:title=" ">
<polygon fill="white" stroke="black" points="578.5,-56.5 578.5,-75.5 668.5,-75.5 668.5,-56.5 578.5,-56.5"/>
<text text-anchor="middle" x="623.5" y="-63.5" font-family="Helvetica,sans-Serif" font-size="10.00">src/P2/chkpnt.c</text>
</a>
</g>
</g>
<!-- Node17&#45;&gt;Node18 -->
<g id="edge18" class="edge">
<title>Node17&#45;&gt;Node18</title>
<path fill="none" stroke="midnightblue" d="M582.41,-105.25C592.7,-95.67 605.47,-83.79 614.01,-75.83"/>
<polygon fill="midnightblue" stroke="midnightblue" points="579.75,-102.95 574.82,-112.32 584.52,-108.07 579.75,-102.95"/>
</g>
<!-- Node19 -->
<g id="node19" class="node">
<title>Node19</title>
<g id="a_node19"><a xlink:href="difficulty_8h.html" target="_top" xlink:title="Dynamic difficulty system.">
<polygon fill="white" stroke="black" points="455,-56.5 455,-75.5 560,-75.5 560,-56.5 455,-56.5"/>
<text text-anchor="middle" x="507.5" y="-63.5" font-family="Helvetica,sans-Serif" font-size="10.00">include/difficulty.h</text>
</a>
</g>
</g>
<!-- Node17&#45;&gt;Node19 -->
<g id="edge20" class="edge">
<title>Node17&#45;&gt;Node19</title>
<path fill="none" stroke="midnightblue" d="M548.59,-105.25C538.3,-95.67 525.53,-83.79 516.99,-75.83"/>
<polygon fill="midnightblue" stroke="midnightblue" points="546.48,-108.07 556.18,-112.32 551.25,-102.95 546.48,-108.07"/>
</g>
<!-- Node20 -->
<g id="node20" class="node">
<title>Node20</title>
<g id="a_node20"><a xlink:href="difficulty_8c.html" target="_top" xlink:title=" ">
<polygon fill="white" stroke="black" points="458.5,-0.5 458.5,-19.5 556.5,-19.5 556.5,-0.5 458.5,-0.5"/>
<text text-anchor="middle" x="507.5" y="-7.5" font-family="Helvetica,sans-Serif" font-size="10.00">src/P2/difficulty.c</text>
</a>
</g>
</g>
<!-- Node19&#45;&gt;Node20 -->
<g id="edge21" class="edge">
<title>Node19&#45;&gt;Node20</title>
<path fill="none" stroke="midnightblue" d="M507.5,-45.8C507.5,-36.91 507.5,-26.78 507.5,-19.75"/>
<polygon fill="midnightblue" stroke="midnightblue" points="504,-46.08 507.5,-56.08 511,-46.08 504,-46.08"/>
</g>
<!-- Node21&#45;&gt;Node8 -->
<g id="edge25" class="edge">
<title>Node21&#45;&gt;Node8</title>
<path fill="none" stroke="midnightblue" d="M356.5,-222.15C312.28,-211.95 246.98,-196.88 206.4,-187.52"/>
<polygon fill="midnightblue" stroke="midnightblue" points="355.89,-225.61 366.42,-224.44 357.47,-218.78 355.89,-225.61"/>
</g>
<!-- Node22 -->
<g id="node22" class="node">
<title>Node22</title>
<g id="a_node22"><a xlink:href="xform1_8c.html" target="_top" xlink:title=" ">
<polygon fill="white" stroke="black" points="305.5,-168.5 305.5,-187.5 397.5,-187.5 397.5,-168.5 305.5,-168.5"/>
<text text-anchor="middle" x="351.5" y="-175.5" font-family="Helvetica,sans-Serif" font-size="10.00">src/P2/xform1.c</text>
</a>
</g>
</g>
<!-- Node21&#45;&gt;Node22 -->
<g id="edge23" class="edge">
<title>Node21&#45;&gt;Node22</title>
<path fill="none" stroke="midnightblue" d="M387.82,-216.72C378.66,-207.2 367.45,-195.56 359.93,-187.75"/>
<polygon fill="midnightblue" stroke="midnightblue" points="385.46,-219.31 394.91,-224.08 390.5,-214.45 385.46,-219.31"/>
</g>
<!-- Node23 -->
<g id="node23" class="node">
<title>Node23</title>
<g id="a_node23"><a xlink:href="xform2_8c.html" target="_top" xlink:title=" ">
<polygon fill="white" stroke="black" points="415.5,-168.5 415.5,-187.5 507.5,-187.5 507.5,-168.5 415.5,-168.5"/>
<text text-anchor="middle" x="461.5" y="-175.5" font-family="Helvetica,sans-Serif" font-size="10.00">src/P2/xform2.c</text>
</a>
</g>
</g>
<!-- Node21&#45;&gt;Node23 -->
<g id="edge24" class="edge">
<title>Node21&#45;&gt;Node23</title>
<path fill="none" stroke="midnightblue" d="M420.41,-217.25C430.7,-207.67 443.47,-195.79 452.01,-187.83"/>
<polygon fill="midnightblue" stroke="midnightblue" points="417.75,-214.95 412.82,-224.32 422.52,-220.07 417.75,-214.95"/>
</g>
<!-- Node24 -->
<g id="node24" class="node">
<title>Node24</title>
<g id="a_node24"><a xlink:href="coin_8h.html" target="_top" xlink:title="Coins, keys, and other collectibles.">
<polygon fill="white" stroke="black" points="267.5,-112.5 267.5,-131.5 351.5,-131.5 351.5,-112.5 267.5,-112.5"/>
<text text-anchor="middle" x="309.5" y="-119.5" font-family="Helvetica,sans-Serif" font-size="10.00">include/coin.h</text>
</a>
</g>
</g>
<!-- Node21&#45;&gt;Node24 -->
<g id="edge26" class="edge">
<title>Node21&#45;&gt;Node24</title>
<path fill="none" stroke="midnightblue" d="M347.12,-222.62C327.74,-216.06 308.04,-205.38 296.5,-188 284.91,-170.55 296.37,-145.06 303.96,-131.78"/>
<polygon fill="midnightblue" stroke="midnightblue" points="346.29,-226.02 356.87,-225.6 348.33,-219.33 346.29,-226.02"/>
</g>
<!-- Node25 -->
<g id="node25" class="node">
<title>Node25</title>
<g id="a_node25"><a xlink:href="vol_8h.html" target="_top" xlink:title="Volume object.">
<polygon fill="white" stroke="black" points="526,-168.5 526,-187.5 605,-187.5 605,-168.5 526,-168.5"/>
<text text-anchor="middle" x="565.5" y="-175.5" font-family="Helvetica,sans-Serif" font-size="10.00">include/vol.h</text>
</a>
</g>
</g>
<!-- Node21&#45;&gt;Node25 -->
<g id="edge28" class="edge">
<title>Node21&#45;&gt;Node25</title>
<path fill="none" stroke="midnightblue" d="M438.98,-221.17C469.49,-211 512.74,-196.59 539.95,-187.52"/>
<polygon fill="midnightblue" stroke="midnightblue" points="437.55,-217.96 429.17,-224.44 439.76,-224.6 437.55,-217.96"/>
</g>
<!-- Node24&#45;&gt;Node16 -->
<g id="edge27" class="edge">
<title>Node24&#45;&gt;Node16</title>
<path fill="none" stroke="midnightblue" d="M309.5,-101.8C309.5,-92.91 309.5,-82.78 309.5,-75.75"/>
<polygon fill="midnightblue" stroke="midnightblue" points="306,-102.08 309.5,-112.08 313,-102.08 306,-102.08"/>
</g>
<!-- Node25&#45;&gt;Node17 -->
<g id="edge29" class="edge">
<title>Node25&#45;&gt;Node17</title>
<path fill="none" stroke="midnightblue" d="M565.5,-157.8C565.5,-148.91 565.5,-138.78 565.5,-131.75"/>
<polygon fill="midnightblue" stroke="midnightblue" points="562,-158.08 565.5,-168.08 569,-158.08 562,-158.08"/>
</g>
<!-- Node27 -->
<g id="node27" class="node">
<title>Node27</title>
<g id="a_node27"><a xlink:href="ui_8c.html" target="_top" xlink:title=" ">
<polygon fill="white" stroke="black" points="3.5,-336.5 3.5,-355.5 69.5,-355.5 69.5,-336.5 3.5,-336.5"/>
<text text-anchor="middle" x="36.5" y="-343.5" font-family="Helvetica,sans-Serif" font-size="10.00">src/P2/ui.c</text>
</a>
</g>
</g>
<!-- Node26&#45;&gt;Node27 -->
<g id="edge31" class="edge">
<title>Node26&#45;&gt;Node27</title>
<path fill="none" stroke="midnightblue" d="M36.5,-381.8C36.5,-372.91 36.5,-362.78 36.5,-355.75"/>
<polygon fill="midnightblue" stroke="midnightblue" points="33,-382.08 36.5,-392.08 40,-382.08 33,-382.08"/>
</g>
</g>
</svg>
