<?xml version="1.0" encoding="UTF-8" standalone="no"?>
<!DOCTYPE svg PUBLIC "-//W3C//DTD SVG 1.1//EN"
 "http://www.w3.org/Graphics/SVG/1.1/DTD/svg11.dtd">
<!-- Generated by graphviz version 2.43.0 (0)
 -->
<!-- Title: include/surf.h Pages: 1 -->
<svg width="638pt" height="588pt"
 viewBox="0.00 0.00 638.15 588.00" xmlns="http://www.w3.org/2000/svg" xmlns:xlink="http://www.w3.org/1999/xlink">
<g id="graph0" class="graph" transform="scale(1 1) rotate(0) translate(4 584)">
<title>include/surf.h</title>
<polygon fill="white" stroke="transparent" points="-4,4 -4,-584 634.15,-584 634.15,4 -4,4"/>
<!-- Node1 -->
<g id="node1" class="node">
<title>Node1</title>
<g id="a_node1"><a xlink:title="Surface?">
<polygon fill="#bfbfbf" stroke="black" points="400.5,-560.5 400.5,-579.5 482.5,-579.5 482.5,-560.5 400.5,-560.5"/>
<text text-anchor="middle" x="441.5" y="-567.5" font-family="Helvetica,sans-Serif" font-size="10.00">include/surf.h</text>
</a>
</g>
</g>
<!-- Node2 -->
<g id="node2" class="node">
<title>Node2</title>
<g id="a_node2"><a xlink:href="shd_8h.html" target="_top" xlink:title="Shaders.">
<polygon fill="white" stroke="black" points="367,-504.5 367,-523.5 448,-523.5 448,-504.5 367,-504.5"/>
<text text-anchor="middle" x="407.5" y="-511.5" font-family="Helvetica,sans-Serif" font-size="10.00">include/shd.h</text>
</a>
</g>
</g>
<!-- Node1&#45;&gt;Node2 -->
<g id="edge1" class="edge">
<title>Node1&#45;&gt;Node2</title>
<path fill="none" stroke="midnightblue" d="M430.52,-551.57C424.67,-542.27 417.73,-531.25 413.01,-523.75"/>
<polygon fill="midnightblue" stroke="midnightblue" points="427.6,-553.49 435.89,-560.08 433.52,-549.76 427.6,-553.49"/>
</g>
<!-- Node23 -->
<g id="node23" class="node">
<title>Node23</title>
<g id="a_node23"><a xlink:href="xform_8h.html" target="_top" xlink:title="Transform.">
<polygon fill="white" stroke="black" points="365,-224.5 365,-243.5 458,-243.5 458,-224.5 365,-224.5"/>
<text text-anchor="middle" x="411.5" y="-231.5" font-family="Helvetica,sans-Serif" font-size="10.00">include/xform.h</text>
</a>
</g>
</g>
<!-- Node1&#45;&gt;Node23 -->
<g id="edge34" class="edge">
<title>Node1&#45;&gt;Node23</title>
<path fill="none" stroke="midnightblue" d="M465.75,-555.09C493.89,-536.91 536.5,-502.26 536.5,-459 536.5,-459 536.5,-459 536.5,-345 536.5,-313.54 530.43,-302.55 508.5,-280 491.03,-262.04 465.01,-250.5 444.31,-243.62"/>
<polygon fill="midnightblue" stroke="midnightblue" points="463.84,-552.15 457.19,-560.4 467.53,-558.1 463.84,-552.15"/>
</g>
<!-- Node3 -->
<g id="node3" class="node">
<title>Node3</title>
<g id="a_node3"><a xlink:href="screen_8h.html" target="_top" xlink:title="User interface manager.">
<polygon fill="white" stroke="black" points="298.5,-448.5 298.5,-467.5 394.5,-467.5 394.5,-448.5 298.5,-448.5"/>
<text text-anchor="middle" x="346.5" y="-455.5" font-family="Helvetica,sans-Serif" font-size="10.00">include/screen.h</text>
</a>
</g>
</g>
<!-- Node2&#45;&gt;Node3 -->
<g id="edge2" class="edge">
<title>Node2&#45;&gt;Node3</title>
<path fill="none" stroke="midnightblue" d="M390.03,-497.54C379.16,-487.91 365.56,-475.87 356.48,-467.83"/>
<polygon fill="midnightblue" stroke="midnightblue" points="387.89,-500.32 397.7,-504.32 392.53,-495.07 387.89,-500.32"/>
</g>
<!-- Node4 -->
<g id="node4" class="node">
<title>Node4</title>
<g id="a_node4"><a xlink:href="screen_8c.html" target="_top" xlink:title=" ">
<polygon fill="white" stroke="black" points="203,-392.5 203,-411.5 292,-411.5 292,-392.5 203,-392.5"/>
<text text-anchor="middle" x="247.5" y="-399.5" font-family="Helvetica,sans-Serif" font-size="10.00">src/P2/screen.c</text>
</a>
</g>
</g>
<!-- Node3&#45;&gt;Node4 -->
<g id="edge3" class="edge">
<title>Node3&#45;&gt;Node4</title>
<path fill="none" stroke="midnightblue" d="M321.66,-443.45C303.39,-433.48 279.08,-420.23 263.37,-411.65"/>
<polygon fill="midnightblue" stroke="midnightblue" points="320.14,-446.61 330.59,-448.32 323.49,-440.46 320.14,-446.61"/>
</g>
<!-- Node5 -->
<g id="node5" class="node">
<title>Node5</title>
<g id="a_node5"><a xlink:href="steppower_8c.html" target="_top" xlink:title=" ">
<polygon fill="white" stroke="black" points="401,-392.5 401,-411.5 508,-411.5 508,-392.5 401,-392.5"/>
<text text-anchor="middle" x="454.5" y="-399.5" font-family="Helvetica,sans-Serif" font-size="10.00">src/P2/steppower.c</text>
</a>
</g>
</g>
<!-- Node3&#45;&gt;Node5 -->
<g id="edge4" class="edge">
<title>Node3&#45;&gt;Node5</title>
<path fill="none" stroke="midnightblue" d="M373.05,-443.73C393.05,-433.73 419.89,-420.31 437.19,-411.65"/>
<polygon fill="midnightblue" stroke="midnightblue" points="371.23,-440.72 363.85,-448.32 374.36,-446.98 371.23,-440.72"/>
</g>
<!-- Node6 -->
<g id="node6" class="node">
<title>Node6</title>
<g id="a_node6"><a xlink:href="binoc_8h.html" target="_top" xlink:title="Binoc&#45;u&#45;com.">
<polygon fill="white" stroke="black" points="94.5,-392.5 94.5,-411.5 184.5,-411.5 184.5,-392.5 94.5,-392.5"/>
<text text-anchor="middle" x="139.5" y="-399.5" font-family="Helvetica,sans-Serif" font-size="10.00">include/binoc.h</text>
</a>
</g>
</g>
<!-- Node3&#45;&gt;Node6 -->
<g id="edge5" class="edge">
<title>Node3&#45;&gt;Node6</title>
<path fill="none" stroke="midnightblue" d="M303.68,-445.83C264.59,-435.63 207.67,-420.78 172.15,-411.52"/>
<polygon fill="midnightblue" stroke="midnightblue" points="303.14,-449.31 313.7,-448.44 304.91,-442.53 303.14,-449.31"/>
</g>
<!-- Node28 -->
<g id="node28" class="node">
<title>Node28</title>
<g id="a_node28"><a xlink:href="ui_8h.html" target="_top" xlink:title="User interface.">
<polygon fill="white" stroke="black" points="310,-392.5 310,-411.5 383,-411.5 383,-392.5 310,-392.5"/>
<text text-anchor="middle" x="346.5" y="-399.5" font-family="Helvetica,sans-Serif" font-size="10.00">include/ui.h</text>
</a>
</g>
</g>
<!-- Node3&#45;&gt;Node28 -->
<g id="edge32" class="edge">
<title>Node3&#45;&gt;Node28</title>
<path fill="none" stroke="midnightblue" d="M346.5,-437.8C346.5,-428.91 346.5,-418.78 346.5,-411.75"/>
<polygon fill="midnightblue" stroke="midnightblue" points="343,-438.08 346.5,-448.08 350,-438.08 343,-438.08"/>
</g>
<!-- Node7 -->
<g id="node7" class="node">
<title>Node7</title>
<g id="a_node7"><a xlink:href="binoc_8c.html" target="_top" xlink:title=" ">
<polygon fill="white" stroke="black" points="0,-336.5 0,-355.5 83,-355.5 83,-336.5 0,-336.5"/>
<text text-anchor="middle" x="41.5" y="-343.5" font-family="Helvetica,sans-Serif" font-size="10.00">src/P2/binoc.c</text>
</a>
</g>
</g>
<!-- Node6&#45;&gt;Node7 -->
<g id="edge6" class="edge">
<title>Node6&#45;&gt;Node7</title>
<path fill="none" stroke="midnightblue" d="M114.91,-387.45C96.82,-377.48 72.77,-364.23 57.21,-355.65"/>
<polygon fill="midnightblue" stroke="midnightblue" points="113.31,-390.56 123.75,-392.32 116.69,-384.43 113.31,-390.56"/>
</g>
<!-- Node8 -->
<g id="node8" class="node">
<title>Node8</title>
<g id="a_node8"><a xlink:href="cm_8c.html" target="_top" xlink:title=" ">
<polygon fill="white" stroke="black" points="58.5,-112.5 58.5,-131.5 130.5,-131.5 130.5,-112.5 58.5,-112.5"/>
<text text-anchor="middle" x="94.5" y="-119.5" font-family="Helvetica,sans-Serif" font-size="10.00">src/P2/cm.c</text>
</a>
</g>
</g>
<!-- Node6&#45;&gt;Node8 -->
<g id="edge7" class="edge">
<title>Node6&#45;&gt;Node8</title>
<path fill="none" stroke="midnightblue" d="M131.93,-382.88C123.63,-361.37 111.5,-324.21 111.5,-291 111.5,-291 111.5,-291 111.5,-233 111.5,-194.93 101.43,-150.31 96.79,-131.77"/>
<polygon fill="midnightblue" stroke="midnightblue" points="128.75,-384.37 135.72,-392.35 135.25,-381.77 128.75,-384.37"/>
</g>
<!-- Node9 -->
<g id="node9" class="node">
<title>Node9</title>
<g id="a_node9"><a xlink:href="cm_8h.html" target="_top" xlink:title="Game camera.">
<polygon fill="white" stroke="black" points="140,-168.5 140,-187.5 219,-187.5 219,-168.5 140,-168.5"/>
<text text-anchor="middle" x="179.5" y="-175.5" font-family="Helvetica,sans-Serif" font-size="10.00">include/cm.h</text>
</a>
</g>
</g>
<!-- Node6&#45;&gt;Node9 -->
<g id="edge8" class="edge">
<title>Node6&#45;&gt;Node9</title>
<path fill="none" stroke="midnightblue" d="M142.87,-382.3C151.1,-336.64 171.96,-220.85 177.9,-187.88"/>
<polygon fill="midnightblue" stroke="midnightblue" points="139.4,-381.84 141.07,-392.3 146.29,-383.08 139.4,-381.84"/>
</g>
<!-- Node12 -->
<g id="node12" class="node">
<title>Node12</title>
<g id="a_node12"><a xlink:href="prog_8h.html" target="_top" xlink:title=" ">
<polygon fill="white" stroke="black" points="219.5,-336.5 219.5,-355.5 305.5,-355.5 305.5,-336.5 219.5,-336.5"/>
<text text-anchor="middle" x="262.5" y="-343.5" font-family="Helvetica,sans-Serif" font-size="10.00">include/prog.h</text>
</a>
</g>
</g>
<!-- Node6&#45;&gt;Node12 -->
<g id="edge12" class="edge">
<title>Node6&#45;&gt;Node12</title>
<path fill="none" stroke="midnightblue" d="M168.27,-388.37C191.31,-378.26 222.98,-364.35 243.1,-355.52"/>
<polygon fill="midnightblue" stroke="midnightblue" points="166.74,-385.22 158.99,-392.44 169.55,-391.63 166.74,-385.22"/>
</g>
<!-- Node9&#45;&gt;Node8 -->
<g id="edge9" class="edge">
<title>Node9&#45;&gt;Node8</title>
<path fill="none" stroke="midnightblue" d="M157.31,-162.9C141.72,-153 121.37,-140.07 108.12,-131.65"/>
<polygon fill="midnightblue" stroke="midnightblue" points="155.53,-165.92 165.84,-168.32 159.28,-160.01 155.53,-165.92"/>
</g>
<!-- Node10 -->
<g id="node10" class="node">
<title>Node10</title>
<g id="a_node10"><a xlink:href="flash_8h.html" target="_top" xlink:title="Flash (might be flash animation, or literal screen flashes).">
<polygon fill="white" stroke="black" points="149,-112.5 149,-131.5 236,-131.5 236,-112.5 149,-112.5"/>
<text text-anchor="middle" x="192.5" y="-119.5" font-family="Helvetica,sans-Serif" font-size="10.00">include/flash.h</text>
</a>
</g>
</g>
<!-- Node9&#45;&gt;Node10 -->
<g id="edge10" class="edge">
<title>Node9&#45;&gt;Node10</title>
<path fill="none" stroke="midnightblue" d="M184.05,-158.1C186.21,-149.14 188.68,-138.86 190.39,-131.75"/>
<polygon fill="midnightblue" stroke="midnightblue" points="180.58,-157.54 181.65,-168.08 187.39,-159.18 180.58,-157.54"/>
</g>
<!-- Node11 -->
<g id="node11" class="node">
<title>Node11</title>
<g id="a_node11"><a xlink:href="flash_8c.html" target="_top" xlink:title=" ">
<polygon fill="white" stroke="black" points="57.5,-56.5 57.5,-75.5 137.5,-75.5 137.5,-56.5 57.5,-56.5"/>
<text text-anchor="middle" x="97.5" y="-63.5" font-family="Helvetica,sans-Serif" font-size="10.00">src/P2/flash.c</text>
</a>
</g>
</g>
<!-- Node10&#45;&gt;Node11 -->
<g id="edge11" class="edge">
<title>Node10&#45;&gt;Node11</title>
<path fill="none" stroke="midnightblue" d="M168.18,-107.18C150.7,-97.24 127.67,-84.15 112.73,-75.65"/>
<polygon fill="midnightblue" stroke="midnightblue" points="166.81,-110.43 177.24,-112.32 170.27,-104.34 166.81,-110.43"/>
</g>
<!-- Node13 -->
<g id="node13" class="node">
<title>Node13</title>
<g id="a_node13"><a xlink:href="main_8c.html" target="_top" xlink:title=" ">
<polygon fill="white" stroke="black" points="319.5,-280.5 319.5,-299.5 401.5,-299.5 401.5,-280.5 319.5,-280.5"/>
<text text-anchor="middle" x="360.5" y="-287.5" font-family="Helvetica,sans-Serif" font-size="10.00">src/P2/main.c</text>
</a>
</g>
</g>
<!-- Node12&#45;&gt;Node13 -->
<g id="edge13" class="edge">
<title>Node12&#45;&gt;Node13</title>
<path fill="none" stroke="midnightblue" d="M287.09,-331.45C305.18,-321.48 329.23,-308.23 344.79,-299.65"/>
<polygon fill="midnightblue" stroke="midnightblue" points="285.31,-328.43 278.25,-336.32 288.69,-334.56 285.31,-328.43"/>
</g>
<!-- Node14 -->
<g id="node14" class="node">
<title>Node14</title>
<g id="a_node14"><a xlink:href="prog_8c.html" target="_top" xlink:title=" ">
<polygon fill="white" stroke="black" points="420,-280.5 420,-299.5 499,-299.5 499,-280.5 420,-280.5"/>
<text text-anchor="middle" x="459.5" y="-287.5" font-family="Helvetica,sans-Serif" font-size="10.00">src/P2/prog.c</text>
</a>
</g>
</g>
<!-- Node12&#45;&gt;Node14 -->
<g id="edge14" class="edge">
<title>Node12&#45;&gt;Node14</title>
<path fill="none" stroke="midnightblue" d="M303.73,-333.7C340.91,-323.51 394.77,-308.74 428.43,-299.52"/>
<polygon fill="midnightblue" stroke="midnightblue" points="302.43,-330.42 293.72,-336.44 304.28,-337.18 302.43,-330.42"/>
</g>
<!-- Node15 -->
<g id="node15" class="node">
<title>Node15</title>
<g id="a_node15"><a xlink:href="bis_8h.html" target="_top" xlink:title="Binary Input Stream.">
<polygon fill="white" stroke="black" points="223.5,-280.5 223.5,-299.5 301.5,-299.5 301.5,-280.5 223.5,-280.5"/>
<text text-anchor="middle" x="262.5" y="-287.5" font-family="Helvetica,sans-Serif" font-size="10.00">include/bis.h</text>
</a>
</g>
</g>
<!-- Node12&#45;&gt;Node15 -->
<g id="edge15" class="edge">
<title>Node12&#45;&gt;Node15</title>
<path fill="none" stroke="midnightblue" d="M262.5,-325.8C262.5,-316.91 262.5,-306.78 262.5,-299.75"/>
<polygon fill="midnightblue" stroke="midnightblue" points="259,-326.08 262.5,-336.08 266,-326.08 259,-326.08"/>
</g>
<!-- Node16 -->
<g id="node16" class="node">
<title>Node16</title>
<g id="a_node16"><a xlink:href="bis_8c.html" target="_top" xlink:title=" ">
<polygon fill="white" stroke="black" points="276,-224.5 276,-243.5 347,-243.5 347,-224.5 276,-224.5"/>
<text text-anchor="middle" x="311.5" y="-231.5" font-family="Helvetica,sans-Serif" font-size="10.00">src/P2/bis.c</text>
</a>
</g>
</g>
<!-- Node15&#45;&gt;Node16 -->
<g id="edge16" class="edge">
<title>Node15&#45;&gt;Node16</title>
<path fill="none" stroke="midnightblue" d="M277.53,-272.43C286.12,-262.97 296.54,-251.48 303.56,-243.75"/>
<polygon fill="midnightblue" stroke="midnightblue" points="274.72,-270.33 270.59,-280.08 279.9,-275.03 274.72,-270.33"/>
</g>
<!-- Node17 -->
<g id="node17" class="node">
<title>Node17</title>
<g id="a_node17"><a xlink:href="coin_8c.html" target="_top" xlink:title=" ">
<polygon fill="white" stroke="black" points="509,-56.5 509,-75.5 586,-75.5 586,-56.5 509,-56.5"/>
<text text-anchor="middle" x="547.5" y="-63.5" font-family="Helvetica,sans-Serif" font-size="10.00">src/P2/coin.c</text>
</a>
</g>
</g>
<!-- Node15&#45;&gt;Node17 -->
<g id="edge17" class="edge">
<title>Node15&#45;&gt;Node17</title>
<path fill="none" stroke="midnightblue" d="M311.72,-278.97C362.68,-268.44 438.79,-252.3 467.5,-244 537.87,-223.66 580.42,-247.95 622.5,-188 651.04,-147.34 588.53,-95.94 560.35,-75.73"/>
<polygon fill="midnightblue" stroke="midnightblue" points="310.97,-275.55 301.88,-280.99 312.38,-282.41 310.97,-275.55"/>
</g>
<!-- Node18 -->
<g id="node18" class="node">
<title>Node18</title>
<g id="a_node18"><a xlink:href="chkpnt_8h.html" target="_top" xlink:title="Checkpoint system.">
<polygon fill="white" stroke="black" points="267,-112.5 267,-131.5 364,-131.5 364,-112.5 267,-112.5"/>
<text text-anchor="middle" x="315.5" y="-119.5" font-family="Helvetica,sans-Serif" font-size="10.00">include/chkpnt.h</text>
</a>
</g>
</g>
<!-- Node15&#45;&gt;Node18 -->
<g id="edge18" class="edge">
<title>Node15&#45;&gt;Node18</title>
<path fill="none" stroke="midnightblue" d="M259.05,-270.11C255.45,-245.4 252.23,-201.33 267.5,-168 274.63,-152.42 289.89,-139.65 301.3,-131.74"/>
<polygon fill="midnightblue" stroke="midnightblue" points="255.64,-270.97 260.71,-280.27 262.55,-269.84 255.64,-270.97"/>
</g>
<!-- Node15&#45;&gt;Node23 -->
<g id="edge24" class="edge">
<title>Node15&#45;&gt;Node23</title>
<path fill="none" stroke="midnightblue" d="M295.87,-276.91C323.88,-266.75 363.2,-252.51 388,-243.52"/>
<polygon fill="midnightblue" stroke="midnightblue" points="294.32,-273.75 286.11,-280.44 296.7,-280.33 294.32,-273.75"/>
</g>
<!-- Node18&#45;&gt;Node17 -->
<g id="edge20" class="edge">
<title>Node18&#45;&gt;Node17</title>
<path fill="none" stroke="midnightblue" d="M362.1,-110.15C405.94,-99.95 470.68,-84.88 510.91,-75.52"/>
<polygon fill="midnightblue" stroke="midnightblue" points="361.21,-106.77 352.26,-112.44 362.79,-113.59 361.21,-106.77"/>
</g>
<!-- Node19 -->
<g id="node19" class="node">
<title>Node19</title>
<g id="a_node19"><a xlink:href="chkpnt_8c.html" target="_top" xlink:title=" ">
<polygon fill="white" stroke="black" points="155.5,-56.5 155.5,-75.5 245.5,-75.5 245.5,-56.5 155.5,-56.5"/>
<text text-anchor="middle" x="200.5" y="-63.5" font-family="Helvetica,sans-Serif" font-size="10.00">src/P2/chkpnt.c</text>
</a>
</g>
</g>
<!-- Node18&#45;&gt;Node19 -->
<g id="edge19" class="edge">
<title>Node18&#45;&gt;Node19</title>
<path fill="none" stroke="midnightblue" d="M288.02,-108.1C266.53,-98.01 237.28,-84.27 218.64,-75.52"/>
<polygon fill="midnightblue" stroke="midnightblue" points="286.74,-111.36 297.28,-112.44 289.71,-105.02 286.74,-111.36"/>
</g>
<!-- Node20 -->
<g id="node20" class="node">
<title>Node20</title>
<g id="a_node20"><a xlink:href="transition_8c.html" target="_top" xlink:title=" ">
<polygon fill="white" stroke="black" points="263.5,-56.5 263.5,-75.5 367.5,-75.5 367.5,-56.5 263.5,-56.5"/>
<text text-anchor="middle" x="315.5" y="-63.5" font-family="Helvetica,sans-Serif" font-size="10.00">src/P2/transition.c</text>
</a>
</g>
</g>
<!-- Node18&#45;&gt;Node20 -->
<g id="edge21" class="edge">
<title>Node18&#45;&gt;Node20</title>
<path fill="none" stroke="midnightblue" d="M315.5,-101.8C315.5,-92.91 315.5,-82.78 315.5,-75.75"/>
<polygon fill="midnightblue" stroke="midnightblue" points="312,-102.08 315.5,-112.08 319,-102.08 312,-102.08"/>
</g>
<!-- Node21 -->
<g id="node21" class="node">
<title>Node21</title>
<g id="a_node21"><a xlink:href="difficulty_8h.html" target="_top" xlink:title="Dynamic difficulty system.">
<polygon fill="white" stroke="black" points="386,-56.5 386,-75.5 491,-75.5 491,-56.5 386,-56.5"/>
<text text-anchor="middle" x="438.5" y="-63.5" font-family="Helvetica,sans-Serif" font-size="10.00">include/difficulty.h</text>
</a>
</g>
</g>
<!-- Node18&#45;&gt;Node21 -->
<g id="edge22" class="edge">
<title>Node18&#45;&gt;Node21</title>
<path fill="none" stroke="midnightblue" d="M344.27,-108.37C367.31,-98.26 398.98,-84.35 419.1,-75.52"/>
<polygon fill="midnightblue" stroke="midnightblue" points="342.74,-105.22 334.99,-112.44 345.55,-111.63 342.74,-105.22"/>
</g>
<!-- Node22 -->
<g id="node22" class="node">
<title>Node22</title>
<g id="a_node22"><a xlink:href="difficulty_8c.html" target="_top" xlink:title=" ">
<polygon fill="white" stroke="black" points="389.5,-0.5 389.5,-19.5 487.5,-19.5 487.5,-0.5 389.5,-0.5"/>
<text text-anchor="middle" x="438.5" y="-7.5" font-family="Helvetica,sans-Serif" font-size="10.00">src/P2/difficulty.c</text>
</a>
</g>
</g>
<!-- Node21&#45;&gt;Node22 -->
<g id="edge23" class="edge">
<title>Node21&#45;&gt;Node22</title>
<path fill="none" stroke="midnightblue" d="M438.5,-45.8C438.5,-36.91 438.5,-26.78 438.5,-19.75"/>
<polygon fill="midnightblue" stroke="midnightblue" points="435,-46.08 438.5,-56.08 442,-46.08 435,-46.08"/>
</g>
<!-- Node23&#45;&gt;Node9 -->
<g id="edge27" class="edge">
<title>Node23&#45;&gt;Node9</title>
<path fill="none" stroke="midnightblue" d="M364.9,-222.15C321.06,-211.95 256.32,-196.88 216.09,-187.52"/>
<polygon fill="midnightblue" stroke="midnightblue" points="364.21,-225.59 374.74,-224.44 365.79,-218.77 364.21,-225.59"/>
</g>
<!-- Node24 -->
<g id="node24" class="node">
<title>Node24</title>
<g id="a_node24"><a xlink:href="xform1_8c.html" target="_top" xlink:title=" ">
<polygon fill="white" stroke="black" points="411.5,-168.5 411.5,-187.5 503.5,-187.5 503.5,-168.5 411.5,-168.5"/>
<text text-anchor="middle" x="457.5" y="-175.5" font-family="Helvetica,sans-Serif" font-size="10.00">src/P2/xform1.c</text>
</a>
</g>
</g>
<!-- Node23&#45;&gt;Node24 -->
<g id="edge25" class="edge">
<title>Node23&#45;&gt;Node24</title>
<path fill="none" stroke="midnightblue" d="M425.61,-216.43C433.68,-206.97 443.46,-195.48 450.05,-187.75"/>
<polygon fill="midnightblue" stroke="midnightblue" points="422.92,-214.2 419.1,-224.08 428.25,-218.74 422.92,-214.2"/>
</g>
<!-- Node25 -->
<g id="node25" class="node">
<title>Node25</title>
<g id="a_node25"><a xlink:href="xform2_8c.html" target="_top" xlink:title=" ">
<polygon fill="white" stroke="black" points="521.5,-168.5 521.5,-187.5 613.5,-187.5 613.5,-168.5 521.5,-168.5"/>
<text text-anchor="middle" x="567.5" y="-175.5" font-family="Helvetica,sans-Serif" font-size="10.00">src/P2/xform2.c</text>
</a>
</g>
</g>
<!-- Node23&#45;&gt;Node25 -->
<g id="edge26" class="edge">
<title>Node23&#45;&gt;Node25</title>
<path fill="none" stroke="midnightblue" d="M445.67,-221.17C475.04,-211 516.7,-196.59 542.9,-187.52"/>
<polygon fill="midnightblue" stroke="midnightblue" points="444.52,-217.86 436.22,-224.44 446.81,-224.48 444.52,-217.86"/>
</g>
<!-- Node26 -->
<g id="node26" class="node">
<title>Node26</title>
<g id="a_node26"><a xlink:href="coin_8h.html" target="_top" xlink:title="Coins, keys, and other collectibles.">
<polygon fill="white" stroke="black" points="444.5,-112.5 444.5,-131.5 528.5,-131.5 528.5,-112.5 444.5,-112.5"/>
<text text-anchor="middle" x="486.5" y="-119.5" font-family="Helvetica,sans-Serif" font-size="10.00">include/coin.h</text>
</a>
</g>
</g>
<!-- Node23&#45;&gt;Node26 -->
<g id="edge28" class="edge">
<title>Node23&#45;&gt;Node26</title>
<path fill="none" stroke="midnightblue" d="M403.11,-214.94C398.03,-201.15 394.01,-182.18 402.5,-168 413.55,-149.55 435.04,-138.23 453.51,-131.56"/>
<polygon fill="midnightblue" stroke="midnightblue" points="399.93,-216.42 407.01,-224.31 406.4,-213.73 399.93,-216.42"/>
</g>
<!-- Node27 -->
<g id="node27" class="node">
<title>Node27</title>
<g id="a_node27"><a xlink:href="vol_8h.html" target="_top" xlink:title="Volume object.">
<polygon fill="white" stroke="black" points="276,-168.5 276,-187.5 355,-187.5 355,-168.5 276,-168.5"/>
<text text-anchor="middle" x="315.5" y="-175.5" font-family="Helvetica,sans-Serif" font-size="10.00">include/vol.h</text>
</a>
</g>
</g>
<!-- Node23&#45;&gt;Node27 -->
<g id="edge30" class="edge">
<title>Node23&#45;&gt;Node27</title>
<path fill="none" stroke="midnightblue" d="M386.93,-219.18C369.26,-209.24 345.99,-196.15 330.89,-187.65"/>
<polygon fill="midnightblue" stroke="midnightblue" points="385.64,-222.47 396.08,-224.32 389.08,-216.37 385.64,-222.47"/>
</g>
<!-- Node26&#45;&gt;Node17 -->
<g id="edge29" class="edge">
<title>Node26&#45;&gt;Node17</title>
<path fill="none" stroke="midnightblue" d="M503.97,-105.54C514.84,-95.91 528.44,-83.87 537.52,-75.83"/>
<polygon fill="midnightblue" stroke="midnightblue" points="501.47,-103.07 496.3,-112.32 506.11,-108.32 501.47,-103.07"/>
</g>
<!-- Node27&#45;&gt;Node18 -->
<g id="edge31" class="edge">
<title>Node27&#45;&gt;Node18</title>
<path fill="none" stroke="midnightblue" d="M315.5,-157.8C315.5,-148.91 315.5,-138.78 315.5,-131.75"/>
<polygon fill="midnightblue" stroke="midnightblue" points="312,-158.08 315.5,-168.08 319,-158.08 312,-158.08"/>
</g>
<!-- Node29 -->
<g id="node29" class="node">
<title>Node29</title>
<g id="a_node29"><a xlink:href="ui_8c.html" target="_top" xlink:title=" ">
<polygon fill="white" stroke="black" points="323.5,-336.5 323.5,-355.5 389.5,-355.5 389.5,-336.5 323.5,-336.5"/>
<text text-anchor="middle" x="356.5" y="-343.5" font-family="Helvetica,sans-Serif" font-size="10.00">src/P2/ui.c</text>
</a>
</g>
</g>
<!-- Node28&#45;&gt;Node29 -->
<g id="edge33" class="edge">
<title>Node28&#45;&gt;Node29</title>
<path fill="none" stroke="midnightblue" d="M350,-382.1C351.66,-373.14 353.56,-362.86 354.88,-355.75"/>
<polygon fill="midnightblue" stroke="midnightblue" points="346.53,-381.61 348.15,-392.08 353.41,-382.89 346.53,-381.61"/>
</g>
</g>
</svg>
