<?xml version="1.0" encoding="UTF-8" standalone="no"?>
<!DOCTYPE svg PUBLIC "-//W3C//DTD SVG 1.1//EN"
 "http://www.w3.org/Graphics/SVG/1.1/DTD/svg11.dtd">
<!-- Generated by graphviz version 2.43.0 (0)
 -->
<!-- Title: include/sw.h Pages: 1 -->
<svg width="1201pt" height="588pt"
 viewBox="0.00 0.00 1201.47 588.00" xmlns="http://www.w3.org/2000/svg" xmlns:xlink="http://www.w3.org/1999/xlink">
<g id="graph0" class="graph" transform="scale(1 1) rotate(0) translate(4 584)">
<title>include/sw.h</title>
<polygon fill="white" stroke="transparent" points="-4,4 -4,-584 1197.47,-584 1197.47,4 -4,4"/>
<!-- Node1 -->
<g id="node1" class="node">
<title>Node1</title>
<g id="a_node1"><a xlink:title="Scene world?">
<polygon fill="#bfbfbf" stroke="black" points="71.5,-560.5 71.5,-579.5 148.5,-579.5 148.5,-560.5 71.5,-560.5"/>
<text text-anchor="middle" x="110" y="-567.5" font-family="Helvetica,sans-Serif" font-size="10.00">include/sw.h</text>
</a>
</g>
</g>
<!-- Node2 -->
<g id="node2" class="node">
<title>Node2</title>
<g id="a_node2"><a xlink:href="difficulty_8h.html" target="_top" xlink:title="Dynamic difficulty system.">
<polygon fill="white" stroke="black" points="417.5,-56.5 417.5,-75.5 522.5,-75.5 522.5,-56.5 417.5,-56.5"/>
<text text-anchor="middle" x="470" y="-63.5" font-family="Helvetica,sans-Serif" font-size="10.00">include/difficulty.h</text>
</a>
</g>
</g>
<!-- Node1&#45;&gt;Node2 -->
<g id="edge1" class="edge">
<title>Node1&#45;&gt;Node2</title>
<path fill="none" stroke="midnightblue" d="M110,-550.25C110,-528.36 110,-491.05 110,-459 110,-459 110,-459 110,-177 110,-146.5 108.45,-131.38 132,-112 174.46,-77.07 333.25,-69.14 417.2,-67.42"/>
<polygon fill="midnightblue" stroke="midnightblue" points="106.5,-550.44 110,-560.44 113.5,-550.44 106.5,-550.44"/>
</g>
<!-- Node4 -->
<g id="node4" class="node">
<title>Node4</title>
<g id="a_node4"><a xlink:href="find_8h.html" target="_top" xlink:title="Find objects in the SW.">
<polygon fill="white" stroke="black" points="0,-392.5 0,-411.5 82,-411.5 82,-392.5 0,-392.5"/>
<text text-anchor="middle" x="41" y="-399.5" font-family="Helvetica,sans-Serif" font-size="10.00">include/find.h</text>
</a>
</g>
</g>
<!-- Node1&#45;&gt;Node4 -->
<g id="edge3" class="edge">
<title>Node1&#45;&gt;Node4</title>
<path fill="none" stroke="midnightblue" d="M102.27,-550.39C87.38,-514.59 55.27,-437.34 44.56,-411.57"/>
<polygon fill="midnightblue" stroke="midnightblue" points="99.22,-552.18 106.29,-560.08 105.68,-549.5 99.22,-552.18"/>
</g>
<!-- Node6 -->
<g id="node6" class="node">
<title>Node6</title>
<g id="a_node6"><a xlink:href="lo_8h.html" target="_top" xlink:title="Level objects.">
<polygon fill="white" stroke="black" points="917.5,-504.5 917.5,-523.5 990.5,-523.5 990.5,-504.5 917.5,-504.5"/>
<text text-anchor="middle" x="954" y="-511.5" font-family="Helvetica,sans-Serif" font-size="10.00">include/lo.h</text>
</a>
</g>
</g>
<!-- Node1&#45;&gt;Node6 -->
<g id="edge5" class="edge">
<title>Node1&#45;&gt;Node6</title>
<path fill="none" stroke="midnightblue" d="M158.8,-565.88C312.13,-556.07 782.09,-526 917.27,-517.35"/>
<polygon fill="midnightblue" stroke="midnightblue" points="158.49,-562.39 148.74,-566.52 158.94,-569.38 158.49,-562.39"/>
</g>
<!-- Node3 -->
<g id="node3" class="node">
<title>Node3</title>
<g id="a_node3"><a xlink:href="difficulty_8c.html" target="_top" xlink:title=" ">
<polygon fill="white" stroke="black" points="421,-0.5 421,-19.5 519,-19.5 519,-0.5 421,-0.5"/>
<text text-anchor="middle" x="470" y="-7.5" font-family="Helvetica,sans-Serif" font-size="10.00">src/P2/difficulty.c</text>
</a>
</g>
</g>
<!-- Node2&#45;&gt;Node3 -->
<g id="edge2" class="edge">
<title>Node2&#45;&gt;Node3</title>
<path fill="none" stroke="midnightblue" d="M470,-45.8C470,-36.91 470,-26.78 470,-19.75"/>
<polygon fill="midnightblue" stroke="midnightblue" points="466.5,-46.08 470,-56.08 473.5,-46.08 466.5,-46.08"/>
</g>
<!-- Node5 -->
<g id="node5" class="node">
<title>Node5</title>
<g id="a_node5"><a xlink:href="find_8c.html" target="_top" xlink:title=" ">
<polygon fill="white" stroke="black" points="3.5,-336.5 3.5,-355.5 78.5,-355.5 78.5,-336.5 3.5,-336.5"/>
<text text-anchor="middle" x="41" y="-343.5" font-family="Helvetica,sans-Serif" font-size="10.00">src/P2/find.c</text>
</a>
</g>
</g>
<!-- Node4&#45;&gt;Node5 -->
<g id="edge4" class="edge">
<title>Node4&#45;&gt;Node5</title>
<path fill="none" stroke="midnightblue" d="M41,-381.8C41,-372.91 41,-362.78 41,-355.75"/>
<polygon fill="midnightblue" stroke="midnightblue" points="37.5,-382.08 41,-392.08 44.5,-382.08 37.5,-382.08"/>
</g>
<!-- Node7 -->
<g id="node7" class="node">
<title>Node7</title>
<g id="a_node7"><a xlink:href="alo_8h.html" target="_top" xlink:title=" ">
<polygon fill="white" stroke="black" points="858.5,-448.5 858.5,-467.5 937.5,-467.5 937.5,-448.5 858.5,-448.5"/>
<text text-anchor="middle" x="898" y="-455.5" font-family="Helvetica,sans-Serif" font-size="10.00">include/alo.h</text>
</a>
</g>
</g>
<!-- Node6&#45;&gt;Node7 -->
<g id="edge6" class="edge">
<title>Node6&#45;&gt;Node7</title>
<path fill="none" stroke="midnightblue" d="M937.67,-497.25C927.74,-487.67 915.41,-475.79 907.16,-467.83"/>
<polygon fill="midnightblue" stroke="midnightblue" points="935.37,-499.9 945,-504.32 940.23,-494.86 935.37,-499.9"/>
</g>
<!-- Node14 -->
<g id="node14" class="node">
<title>Node14</title>
<g id="a_node14"><a xlink:href="cm_8h.html" target="_top" xlink:title="Game camera.">
<polygon fill="white" stroke="black" points="999.5,-168.5 999.5,-187.5 1078.5,-187.5 1078.5,-168.5 999.5,-168.5"/>
<text text-anchor="middle" x="1039" y="-175.5" font-family="Helvetica,sans-Serif" font-size="10.00">include/cm.h</text>
</a>
</g>
</g>
<!-- Node6&#45;&gt;Node14 -->
<g id="edge61" class="edge">
<title>Node6&#45;&gt;Node14</title>
<path fill="none" stroke="midnightblue" d="M968.79,-496.7C985.68,-476.34 1011,-439.7 1011,-403 1011,-403 1011,-403 1011,-289 1011,-250.18 1027.58,-205.97 1035.22,-187.65"/>
<polygon fill="midnightblue" stroke="midnightblue" points="966.05,-494.52 962.17,-504.38 971.35,-499.1 966.05,-494.52"/>
</g>
<!-- Node41 -->
<g id="node41" class="node">
<title>Node41</title>
<g id="a_node41"><a xlink:href="anim_8h.html" target="_top" xlink:title="Animation.">
<polygon fill="white" stroke="black" points="1077.5,-280.5 1077.5,-299.5 1166.5,-299.5 1166.5,-280.5 1077.5,-280.5"/>
<text text-anchor="middle" x="1122" y="-287.5" font-family="Helvetica,sans-Serif" font-size="10.00">include/anim.h</text>
</a>
</g>
</g>
<!-- Node6&#45;&gt;Node41 -->
<g id="edge56" class="edge">
<title>Node6&#45;&gt;Node41</title>
<path fill="none" stroke="midnightblue" d="M980.56,-499.62C994.75,-491.67 1011.93,-480.66 1025,-468 1078.85,-415.81 1110.45,-327.19 1119.37,-299.52"/>
<polygon fill="midnightblue" stroke="midnightblue" points="978.87,-496.56 971.75,-504.4 982.21,-502.71 978.87,-496.56"/>
</g>
<!-- Node7&#45;&gt;Node4 -->
<g id="edge9" class="edge">
<title>Node7&#45;&gt;Node4</title>
<path fill="none" stroke="midnightblue" d="M848.24,-453.86C693.77,-444.13 224.28,-414.55 82.18,-405.6"/>
<polygon fill="midnightblue" stroke="midnightblue" points="848.18,-457.37 858.38,-454.5 848.62,-450.38 848.18,-457.37"/>
</g>
<!-- Node8 -->
<g id="node8" class="node">
<title>Node8</title>
<g id="a_node8"><a xlink:href="coin_8h.html" target="_top" xlink:title="Coins, keys, and other collectibles.">
<polygon fill="white" stroke="black" points="1096,-168.5 1096,-187.5 1180,-187.5 1180,-168.5 1096,-168.5"/>
<text text-anchor="middle" x="1138" y="-175.5" font-family="Helvetica,sans-Serif" font-size="10.00">include/coin.h</text>
</a>
</g>
</g>
<!-- Node7&#45;&gt;Node8 -->
<g id="edge7" class="edge">
<title>Node7&#45;&gt;Node8</title>
<path fill="none" stroke="midnightblue" d="M942.04,-445.35C986.61,-430.58 1049,-400.37 1049,-347 1049,-347 1049,-347 1049,-289 1049,-242.08 1098.54,-203.94 1123.7,-187.6"/>
<polygon fill="midnightblue" stroke="midnightblue" points="940.74,-442.09 932.26,-448.44 942.85,-448.76 940.74,-442.09"/>
</g>
<!-- Node10 -->
<g id="node10" class="node">
<title>Node10</title>
<g id="a_node10"><a xlink:href="proxy_8h.html" target="_top" xlink:title=" ">
<polygon fill="white" stroke="black" points="780,-392.5 780,-411.5 870,-411.5 870,-392.5 780,-392.5"/>
<text text-anchor="middle" x="825" y="-399.5" font-family="Helvetica,sans-Serif" font-size="10.00">include/proxy.h</text>
</a>
</g>
</g>
<!-- Node7&#45;&gt;Node10 -->
<g id="edge10" class="edge">
<title>Node7&#45;&gt;Node10</title>
<path fill="none" stroke="midnightblue" d="M877.86,-442.1C864.72,-432.38 848.02,-420.03 836.94,-411.83"/>
<polygon fill="midnightblue" stroke="midnightblue" points="876.15,-445.19 886.27,-448.32 880.31,-439.56 876.15,-445.19"/>
</g>
<!-- Node11 -->
<g id="node11" class="node">
<title>Node11</title>
<g id="a_node11"><a xlink:href="xform_8h.html" target="_top" xlink:title="Transform.">
<polygon fill="white" stroke="black" points="778.5,-224.5 778.5,-243.5 871.5,-243.5 871.5,-224.5 778.5,-224.5"/>
<text text-anchor="middle" x="825" y="-231.5" font-family="Helvetica,sans-Serif" font-size="10.00">include/xform.h</text>
</a>
</g>
</g>
<!-- Node7&#45;&gt;Node11 -->
<g id="edge55" class="edge">
<title>Node7&#45;&gt;Node11</title>
<path fill="none" stroke="midnightblue" d="M892.83,-438.46C889.13,-425.41 883.95,-407.58 879,-392 860.92,-335.14 836.77,-267.58 828.19,-243.8"/>
<polygon fill="midnightblue" stroke="midnightblue" points="889.47,-439.45 895.55,-448.13 896.21,-437.55 889.47,-439.45"/>
</g>
<!-- Node21 -->
<g id="node21" class="node">
<title>Node21</title>
<g id="a_node21"><a xlink:href="so_8h.html" target="_top" xlink:title="Scene objects.">
<polygon fill="white" stroke="black" points="548.5,-392.5 548.5,-411.5 623.5,-411.5 623.5,-392.5 548.5,-392.5"/>
<text text-anchor="middle" x="586" y="-399.5" font-family="Helvetica,sans-Serif" font-size="10.00">include/so.h</text>
</a>
</g>
</g>
<!-- Node7&#45;&gt;Node21 -->
<g id="edge23" class="edge">
<title>Node7&#45;&gt;Node21</title>
<path fill="none" stroke="midnightblue" d="M848.48,-448.43C786.02,-437.62 680.02,-419.27 623.73,-409.53"/>
<polygon fill="midnightblue" stroke="midnightblue" points="848.03,-451.9 858.48,-450.16 849.23,-445.01 848.03,-451.9"/>
</g>
<!-- Node40 -->
<g id="node40" class="node">
<title>Node40</title>
<g id="a_node40"><a xlink:href="sound_8h.html" target="_top" xlink:title="Sound playback.">
<polygon fill="white" stroke="black" points="889.5,-224.5 889.5,-243.5 982.5,-243.5 982.5,-224.5 889.5,-224.5"/>
<text text-anchor="middle" x="936" y="-231.5" font-family="Helvetica,sans-Serif" font-size="10.00">include/sound.h</text>
</a>
</g>
</g>
<!-- Node7&#45;&gt;Node40 -->
<g id="edge54" class="edge">
<title>Node7&#45;&gt;Node40</title>
<path fill="none" stroke="midnightblue" d="M904.38,-438.93C907.06,-430.79 910.01,-421 912,-412 926.16,-348.12 933.28,-269.3 935.35,-243.56"/>
<polygon fill="midnightblue" stroke="midnightblue" points="901.03,-437.89 901.12,-448.49 907.66,-440.15 901.03,-437.89"/>
</g>
<!-- Node9 -->
<g id="node9" class="node">
<title>Node9</title>
<g id="a_node9"><a xlink:href="coin_8c.html" target="_top" xlink:title=" ">
<polygon fill="white" stroke="black" points="1100.5,-112.5 1100.5,-131.5 1177.5,-131.5 1177.5,-112.5 1100.5,-112.5"/>
<text text-anchor="middle" x="1139" y="-119.5" font-family="Helvetica,sans-Serif" font-size="10.00">src/P2/coin.c</text>
</a>
</g>
</g>
<!-- Node8&#45;&gt;Node9 -->
<g id="edge8" class="edge">
<title>Node8&#45;&gt;Node9</title>
<path fill="none" stroke="midnightblue" d="M1138.36,-157.8C1138.52,-148.91 1138.71,-138.78 1138.84,-131.75"/>
<polygon fill="midnightblue" stroke="midnightblue" points="1134.85,-158.02 1138.17,-168.08 1141.85,-158.15 1134.85,-158.02"/>
</g>
<!-- Node10&#45;&gt;Node11 -->
<g id="edge11" class="edge">
<title>Node10&#45;&gt;Node11</title>
<path fill="none" stroke="midnightblue" d="M825,-381.93C825,-345.92 825,-269.23 825,-243.57"/>
<polygon fill="midnightblue" stroke="midnightblue" points="821.5,-382.08 825,-392.08 828.5,-382.08 821.5,-382.08"/>
</g>
<!-- Node11&#45;&gt;Node8 -->
<g id="edge18" class="edge">
<title>Node11&#45;&gt;Node8</title>
<path fill="none" stroke="midnightblue" d="M881.51,-223.48C934.79,-214.46 1016.85,-200.49 1088,-188 1090.61,-187.54 1093.29,-187.07 1095.99,-186.59"/>
<polygon fill="midnightblue" stroke="midnightblue" points="880.86,-220.04 871.58,-225.16 882.02,-226.94 880.86,-220.04"/>
</g>
<!-- Node12 -->
<g id="node12" class="node">
<title>Node12</title>
<g id="a_node12"><a xlink:href="xform1_8c.html" target="_top" xlink:title=" ">
<polygon fill="white" stroke="black" points="889,-168.5 889,-187.5 981,-187.5 981,-168.5 889,-168.5"/>
<text text-anchor="middle" x="935" y="-175.5" font-family="Helvetica,sans-Serif" font-size="10.00">src/P2/xform1.c</text>
</a>
</g>
</g>
<!-- Node11&#45;&gt;Node12 -->
<g id="edge12" class="edge">
<title>Node11&#45;&gt;Node12</title>
<path fill="none" stroke="midnightblue" d="M851.76,-219.86C872.16,-209.85 899.67,-196.35 917.37,-187.65"/>
<polygon fill="midnightblue" stroke="midnightblue" points="850.11,-216.78 842.67,-224.32 853.19,-223.06 850.11,-216.78"/>
</g>
<!-- Node13 -->
<g id="node13" class="node">
<title>Node13</title>
<g id="a_node13"><a xlink:href="xform2_8c.html" target="_top" xlink:title=" ">
<polygon fill="white" stroke="black" points="779,-168.5 779,-187.5 871,-187.5 871,-168.5 779,-168.5"/>
<text text-anchor="middle" x="825" y="-175.5" font-family="Helvetica,sans-Serif" font-size="10.00">src/P2/xform2.c</text>
</a>
</g>
</g>
<!-- Node11&#45;&gt;Node13 -->
<g id="edge13" class="edge">
<title>Node11&#45;&gt;Node13</title>
<path fill="none" stroke="midnightblue" d="M825,-213.8C825,-204.91 825,-194.78 825,-187.75"/>
<polygon fill="midnightblue" stroke="midnightblue" points="821.5,-214.08 825,-224.08 828.5,-214.08 821.5,-214.08"/>
</g>
<!-- Node11&#45;&gt;Node14 -->
<g id="edge14" class="edge">
<title>Node11&#45;&gt;Node14</title>
<path fill="none" stroke="midnightblue" d="M868.76,-221.96C909.17,-211.76 968.37,-196.82 1005.25,-187.52"/>
<polygon fill="midnightblue" stroke="midnightblue" points="867.75,-218.6 858.91,-224.44 869.46,-225.39 867.75,-218.6"/>
</g>
<!-- Node18 -->
<g id="node18" class="node">
<title>Node18</title>
<g id="a_node18"><a xlink:href="vol_8h.html" target="_top" xlink:title="Volume object.">
<polygon fill="white" stroke="black" points="529.5,-168.5 529.5,-187.5 608.5,-187.5 608.5,-168.5 529.5,-168.5"/>
<text text-anchor="middle" x="569" y="-175.5" font-family="Helvetica,sans-Serif" font-size="10.00">include/vol.h</text>
</a>
</g>
</g>
<!-- Node11&#45;&gt;Node18 -->
<g id="edge19" class="edge">
<title>Node11&#45;&gt;Node18</title>
<path fill="none" stroke="midnightblue" d="M774.43,-222.33C725.75,-212.06 653.12,-196.74 608.53,-187.34"/>
<polygon fill="midnightblue" stroke="midnightblue" points="773.93,-225.8 784.44,-224.44 775.37,-218.95 773.93,-225.8"/>
</g>
<!-- Node15 -->
<g id="node15" class="node">
<title>Node15</title>
<g id="a_node15"><a xlink:href="cm_8c.html" target="_top" xlink:title=" ">
<polygon fill="white" stroke="black" points="905,-112.5 905,-131.5 977,-131.5 977,-112.5 905,-112.5"/>
<text text-anchor="middle" x="941" y="-119.5" font-family="Helvetica,sans-Serif" font-size="10.00">src/P2/cm.c</text>
</a>
</g>
</g>
<!-- Node14&#45;&gt;Node15 -->
<g id="edge15" class="edge">
<title>Node14&#45;&gt;Node15</title>
<path fill="none" stroke="midnightblue" d="M1014.41,-163.45C996.32,-153.48 972.27,-140.23 956.71,-131.65"/>
<polygon fill="midnightblue" stroke="midnightblue" points="1012.81,-166.56 1023.25,-168.32 1016.19,-160.43 1012.81,-166.56"/>
</g>
<!-- Node16 -->
<g id="node16" class="node">
<title>Node16</title>
<g id="a_node16"><a xlink:href="flash_8h.html" target="_top" xlink:title="Flash (might be flash animation, or literal screen flashes).">
<polygon fill="white" stroke="black" points="995.5,-112.5 995.5,-131.5 1082.5,-131.5 1082.5,-112.5 995.5,-112.5"/>
<text text-anchor="middle" x="1039" y="-119.5" font-family="Helvetica,sans-Serif" font-size="10.00">include/flash.h</text>
</a>
</g>
</g>
<!-- Node14&#45;&gt;Node16 -->
<g id="edge16" class="edge">
<title>Node14&#45;&gt;Node16</title>
<path fill="none" stroke="midnightblue" d="M1039,-157.8C1039,-148.91 1039,-138.78 1039,-131.75"/>
<polygon fill="midnightblue" stroke="midnightblue" points="1035.5,-158.08 1039,-168.08 1042.5,-158.08 1035.5,-158.08"/>
</g>
<!-- Node17 -->
<g id="node17" class="node">
<title>Node17</title>
<g id="a_node17"><a xlink:href="flash_8c.html" target="_top" xlink:title=" ">
<polygon fill="white" stroke="black" points="999,-56.5 999,-75.5 1079,-75.5 1079,-56.5 999,-56.5"/>
<text text-anchor="middle" x="1039" y="-63.5" font-family="Helvetica,sans-Serif" font-size="10.00">src/P2/flash.c</text>
</a>
</g>
</g>
<!-- Node16&#45;&gt;Node17 -->
<g id="edge17" class="edge">
<title>Node16&#45;&gt;Node17</title>
<path fill="none" stroke="midnightblue" d="M1039,-101.8C1039,-92.91 1039,-82.78 1039,-75.75"/>
<polygon fill="midnightblue" stroke="midnightblue" points="1035.5,-102.08 1039,-112.08 1042.5,-102.08 1035.5,-102.08"/>
</g>
<!-- Node19 -->
<g id="node19" class="node">
<title>Node19</title>
<g id="a_node19"><a xlink:href="chkpnt_8h.html" target="_top" xlink:title="Checkpoint system.">
<polygon fill="white" stroke="black" points="518.5,-112.5 518.5,-131.5 615.5,-131.5 615.5,-112.5 518.5,-112.5"/>
<text text-anchor="middle" x="567" y="-119.5" font-family="Helvetica,sans-Serif" font-size="10.00">include/chkpnt.h</text>
</a>
</g>
</g>
<!-- Node18&#45;&gt;Node19 -->
<g id="edge20" class="edge">
<title>Node18&#45;&gt;Node19</title>
<path fill="none" stroke="midnightblue" d="M568.29,-157.8C567.96,-148.91 567.58,-138.78 567.32,-131.75"/>
<polygon fill="midnightblue" stroke="midnightblue" points="564.8,-158.22 568.67,-168.08 571.8,-157.96 564.8,-158.22"/>
</g>
<!-- Node19&#45;&gt;Node2 -->
<g id="edge22" class="edge">
<title>Node19&#45;&gt;Node2</title>
<path fill="none" stroke="midnightblue" d="M542.66,-107.45C524.76,-97.48 500.95,-84.23 485.55,-75.65"/>
<polygon fill="midnightblue" stroke="midnightblue" points="540.98,-110.52 551.42,-112.32 544.38,-104.4 540.98,-110.52"/>
</g>
<!-- Node20 -->
<g id="node20" class="node">
<title>Node20</title>
<g id="a_node20"><a xlink:href="chkpnt_8c.html" target="_top" xlink:title=" ">
<polygon fill="white" stroke="black" points="541,-56.5 541,-75.5 631,-75.5 631,-56.5 541,-56.5"/>
<text text-anchor="middle" x="586" y="-63.5" font-family="Helvetica,sans-Serif" font-size="10.00">src/P2/chkpnt.c</text>
</a>
</g>
</g>
<!-- Node19&#45;&gt;Node20 -->
<g id="edge21" class="edge">
<title>Node19&#45;&gt;Node20</title>
<path fill="none" stroke="midnightblue" d="M573.55,-102.4C576.72,-93.36 580.39,-82.94 582.92,-75.75"/>
<polygon fill="midnightblue" stroke="midnightblue" points="570.15,-101.49 570.14,-112.08 576.76,-103.81 570.15,-101.49"/>
</g>
<!-- Node22 -->
<g id="node22" class="node">
<title>Node22</title>
<g id="a_node22"><a xlink:href="po_8h.html" target="_top" xlink:title="Player object(?).">
<polygon fill="white" stroke="black" points="301,-336.5 301,-355.5 377,-355.5 377,-336.5 301,-336.5"/>
<text text-anchor="middle" x="339" y="-343.5" font-family="Helvetica,sans-Serif" font-size="10.00">include/po.h</text>
</a>
</g>
</g>
<!-- Node21&#45;&gt;Node22 -->
<g id="edge24" class="edge">
<title>Node21&#45;&gt;Node22</title>
<path fill="none" stroke="midnightblue" d="M538.56,-390.63C491.64,-380.37 420.72,-364.87 377.27,-355.37"/>
<polygon fill="midnightblue" stroke="midnightblue" points="537.97,-394.08 548.49,-392.8 539.46,-387.24 537.97,-394.08"/>
</g>
<!-- Node27 -->
<g id="node27" class="node">
<title>Node27</title>
<g id="a_node27"><a xlink:href="vec_8h.html" target="_top" xlink:title="Vector math functions.">
<polygon fill="white" stroke="black" points="545.5,-336.5 545.5,-355.5 626.5,-355.5 626.5,-336.5 545.5,-336.5"/>
<text text-anchor="middle" x="586" y="-343.5" font-family="Helvetica,sans-Serif" font-size="10.00">include/vec.h</text>
</a>
</g>
</g>
<!-- Node21&#45;&gt;Node27 -->
<g id="edge29" class="edge">
<title>Node21&#45;&gt;Node27</title>
<path fill="none" stroke="midnightblue" d="M586,-381.8C586,-372.91 586,-362.78 586,-355.75"/>
<polygon fill="midnightblue" stroke="midnightblue" points="582.5,-382.08 586,-392.08 589.5,-382.08 582.5,-382.08"/>
</g>
<!-- Node23 -->
<g id="node23" class="node">
<title>Node23</title>
<g id="a_node23"><a xlink:href="step_8h.html" target="_top" xlink:title=" ">
<polygon fill="white" stroke="black" points="145.5,-280.5 145.5,-299.5 230.5,-299.5 230.5,-280.5 145.5,-280.5"/>
<text text-anchor="middle" x="188" y="-287.5" font-family="Helvetica,sans-Serif" font-size="10.00">include/step.h</text>
</a>
</g>
</g>
<!-- Node22&#45;&gt;Node23 -->
<g id="edge25" class="edge">
<title>Node22&#45;&gt;Node23</title>
<path fill="none" stroke="midnightblue" d="M305.55,-333.04C277.14,-322.88 237.06,-308.55 211.81,-299.52"/>
<polygon fill="midnightblue" stroke="midnightblue" points="304.48,-336.37 315.07,-336.44 306.84,-329.78 304.48,-336.37"/>
</g>
<!-- Node24 -->
<g id="node24" class="node">
<title>Node24</title>
<g id="a_node24"><a xlink:href="jt_8h.html" target="_top" xlink:title="Sly entity.">
<polygon fill="white" stroke="black" points="155.5,-224.5 155.5,-243.5 226.5,-243.5 226.5,-224.5 155.5,-224.5"/>
<text text-anchor="middle" x="191" y="-231.5" font-family="Helvetica,sans-Serif" font-size="10.00">include/jt.h</text>
</a>
</g>
</g>
<!-- Node23&#45;&gt;Node24 -->
<g id="edge26" class="edge">
<title>Node23&#45;&gt;Node24</title>
<path fill="none" stroke="midnightblue" d="M189.07,-269.8C189.56,-260.91 190.12,-250.78 190.51,-243.75"/>
<polygon fill="midnightblue" stroke="midnightblue" points="185.56,-269.9 188.5,-280.08 192.54,-270.29 185.56,-269.9"/>
</g>
<!-- Node25 -->
<g id="node25" class="node">
<title>Node25</title>
<g id="a_node25"><a xlink:href="steppower_8h.html" target="_top" xlink:title=" ">
<polygon fill="white" stroke="black" points="138,-168.5 138,-187.5 252,-187.5 252,-168.5 138,-168.5"/>
<text text-anchor="middle" x="195" y="-175.5" font-family="Helvetica,sans-Serif" font-size="10.00">include/steppower.h</text>
</a>
</g>
</g>
<!-- Node24&#45;&gt;Node25 -->
<g id="edge27" class="edge">
<title>Node24&#45;&gt;Node25</title>
<path fill="none" stroke="midnightblue" d="M192.4,-214.1C193.06,-205.14 193.83,-194.86 194.35,-187.75"/>
<polygon fill="midnightblue" stroke="midnightblue" points="188.91,-213.85 191.66,-224.08 195.89,-214.37 188.91,-213.85"/>
</g>
<!-- Node26 -->
<g id="node26" class="node">
<title>Node26</title>
<g id="a_node26"><a xlink:href="steppower_8c.html" target="_top" xlink:title=" ">
<polygon fill="white" stroke="black" points="141.5,-112.5 141.5,-131.5 248.5,-131.5 248.5,-112.5 141.5,-112.5"/>
<text text-anchor="middle" x="195" y="-119.5" font-family="Helvetica,sans-Serif" font-size="10.00">src/P2/steppower.c</text>
</a>
</g>
</g>
<!-- Node25&#45;&gt;Node26 -->
<g id="edge28" class="edge">
<title>Node25&#45;&gt;Node26</title>
<path fill="none" stroke="midnightblue" d="M195,-157.8C195,-148.91 195,-138.78 195,-131.75"/>
<polygon fill="midnightblue" stroke="midnightblue" points="191.5,-158.08 195,-168.08 198.5,-158.08 191.5,-158.08"/>
</g>
<!-- Node27&#45;&gt;Node19 -->
<g id="edge34" class="edge">
<title>Node27&#45;&gt;Node19</title>
<path fill="none" stroke="midnightblue" d="M535.43,-336.41C455.32,-321.59 305.48,-288.47 278,-244 221.81,-153.08 422.15,-130.45 518.32,-124.84"/>
<polygon fill="midnightblue" stroke="midnightblue" points="534.84,-339.86 545.31,-338.21 536.1,-332.98 534.84,-339.86"/>
</g>
<!-- Node28 -->
<g id="node28" class="node">
<title>Node28</title>
<g id="a_node28"><a xlink:href="bis_8h.html" target="_top" xlink:title="Binary Input Stream.">
<polygon fill="white" stroke="black" points="399,-280.5 399,-299.5 477,-299.5 477,-280.5 399,-280.5"/>
<text text-anchor="middle" x="438" y="-287.5" font-family="Helvetica,sans-Serif" font-size="10.00">include/bis.h</text>
</a>
</g>
</g>
<!-- Node27&#45;&gt;Node28 -->
<g id="edge30" class="edge">
<title>Node27&#45;&gt;Node28</title>
<path fill="none" stroke="midnightblue" d="M552.85,-332.91C525.03,-322.75 485.98,-308.51 461.34,-299.52"/>
<polygon fill="midnightblue" stroke="midnightblue" points="551.96,-336.3 562.55,-336.44 554.35,-329.73 551.96,-336.3"/>
</g>
<!-- Node30 -->
<g id="node30" class="node">
<title>Node30</title>
<g id="a_node30"><a xlink:href="shd_8h.html" target="_top" xlink:title="Shaders.">
<polygon fill="white" stroke="black" points="679.5,-224.5 679.5,-243.5 760.5,-243.5 760.5,-224.5 679.5,-224.5"/>
<text text-anchor="middle" x="720" y="-231.5" font-family="Helvetica,sans-Serif" font-size="10.00">include/shd.h</text>
</a>
</g>
</g>
<!-- Node27&#45;&gt;Node30 -->
<g id="edge35" class="edge">
<title>Node27&#45;&gt;Node30</title>
<path fill="none" stroke="midnightblue" d="M604.5,-329.82C633.04,-306.39 686.88,-262.19 709.53,-243.59"/>
<polygon fill="midnightblue" stroke="midnightblue" points="602.02,-327.32 596.51,-336.37 606.46,-332.73 602.02,-327.32"/>
</g>
<!-- Node35 -->
<g id="node35" class="node">
<title>Node35</title>
<g id="a_node35"><a xlink:href="surf_8h.html" target="_top" xlink:title="Surface?">
<polygon fill="white" stroke="black" points="682,-280.5 682,-299.5 764,-299.5 764,-280.5 682,-280.5"/>
<text text-anchor="middle" x="723" y="-287.5" font-family="Helvetica,sans-Serif" font-size="10.00">include/surf.h</text>
</a>
</g>
</g>
<!-- Node27&#45;&gt;Node35 -->
<g id="edge41" class="edge">
<title>Node27&#45;&gt;Node35</title>
<path fill="none" stroke="midnightblue" d="M617.02,-332.77C642.76,-322.63 678.69,-308.47 701.39,-299.52"/>
<polygon fill="midnightblue" stroke="midnightblue" points="615.73,-329.52 607.71,-336.44 618.29,-336.03 615.73,-329.52"/>
</g>
<!-- Node36 -->
<g id="node36" class="node">
<title>Node36</title>
<g id="a_node36"><a xlink:href="util_8h.html" target="_top" xlink:title="Utility functions.">
<polygon fill="white" stroke="black" points="546,-280.5 546,-299.5 626,-299.5 626,-280.5 546,-280.5"/>
<text text-anchor="middle" x="586" y="-287.5" font-family="Helvetica,sans-Serif" font-size="10.00">include/util.h</text>
</a>
</g>
</g>
<!-- Node27&#45;&gt;Node36 -->
<g id="edge44" class="edge">
<title>Node27&#45;&gt;Node36</title>
<path fill="none" stroke="midnightblue" d="M586,-325.8C586,-316.91 586,-306.78 586,-299.75"/>
<polygon fill="midnightblue" stroke="midnightblue" points="582.5,-326.08 586,-336.08 589.5,-326.08 582.5,-326.08"/>
</g>
<!-- Node28&#45;&gt;Node11 -->
<g id="edge33" class="edge">
<title>Node28&#45;&gt;Node11</title>
<path fill="none" stroke="midnightblue" d="M487.33,-282.67C552.06,-274.28 669.15,-258.81 769,-244 772.02,-243.55 775.13,-243.08 778.26,-242.6"/>
<polygon fill="midnightblue" stroke="midnightblue" points="486.49,-279.25 477.02,-284.01 487.39,-286.19 486.49,-279.25"/>
</g>
<!-- Node28&#45;&gt;Node19 -->
<g id="edge32" class="edge">
<title>Node28&#45;&gt;Node19</title>
<path fill="none" stroke="midnightblue" d="M422.54,-272.77C400.9,-248.04 366.88,-200.39 392,-168 407.38,-148.17 471.89,-135.55 518.12,-128.87"/>
<polygon fill="midnightblue" stroke="midnightblue" points="419.99,-275.17 429.31,-280.22 425.18,-270.47 419.99,-275.17"/>
</g>
<!-- Node29 -->
<g id="node29" class="node">
<title>Node29</title>
<g id="a_node29"><a xlink:href="bis_8c.html" target="_top" xlink:title=" ">
<polygon fill="white" stroke="black" points="287.5,-224.5 287.5,-243.5 358.5,-243.5 358.5,-224.5 287.5,-224.5"/>
<text text-anchor="middle" x="323" y="-231.5" font-family="Helvetica,sans-Serif" font-size="10.00">src/P2/bis.c</text>
</a>
</g>
</g>
<!-- Node28&#45;&gt;Node29 -->
<g id="edge31" class="edge">
<title>Node28&#45;&gt;Node29</title>
<path fill="none" stroke="midnightblue" d="M410.52,-276.1C389.03,-266.01 359.78,-252.27 341.14,-243.52"/>
<polygon fill="midnightblue" stroke="midnightblue" points="409.24,-279.36 419.78,-280.44 412.21,-273.02 409.24,-279.36"/>
</g>
<!-- Node30&#45;&gt;Node16 -->
<g id="edge36" class="edge">
<title>Node30&#45;&gt;Node16</title>
<path fill="none" stroke="midnightblue" d="M728.77,-215.22C737.19,-200.12 751.37,-179.17 770,-168 853.47,-117.95 890.02,-148.15 986,-132 989.04,-131.49 992.17,-130.96 995.33,-130.43"/>
<polygon fill="midnightblue" stroke="midnightblue" points="725.63,-213.65 724.08,-224.13 731.83,-216.91 725.63,-213.65"/>
</g>
<!-- Node31 -->
<g id="node31" class="node">
<title>Node31</title>
<g id="a_node31"><a xlink:href="screen_8h.html" target="_top" xlink:title="User interface manager.">
<polygon fill="white" stroke="black" points="627,-168.5 627,-187.5 723,-187.5 723,-168.5 627,-168.5"/>
<text text-anchor="middle" x="675" y="-175.5" font-family="Helvetica,sans-Serif" font-size="10.00">include/screen.h</text>
</a>
</g>
</g>
<!-- Node30&#45;&gt;Node31 -->
<g id="edge37" class="edge">
<title>Node30&#45;&gt;Node31</title>
<path fill="none" stroke="midnightblue" d="M705.95,-216.14C698.11,-206.74 688.67,-195.4 682.29,-187.75"/>
<polygon fill="midnightblue" stroke="midnightblue" points="703.48,-218.64 712.57,-224.08 708.86,-214.16 703.48,-218.64"/>
</g>
<!-- Node32 -->
<g id="node32" class="node">
<title>Node32</title>
<g id="a_node32"><a xlink:href="screen_8c.html" target="_top" xlink:title=" ">
<polygon fill="white" stroke="black" points="633.5,-112.5 633.5,-131.5 722.5,-131.5 722.5,-112.5 633.5,-112.5"/>
<text text-anchor="middle" x="678" y="-119.5" font-family="Helvetica,sans-Serif" font-size="10.00">src/P2/screen.c</text>
</a>
</g>
</g>
<!-- Node31&#45;&gt;Node32 -->
<g id="edge38" class="edge">
<title>Node31&#45;&gt;Node32</title>
<path fill="none" stroke="midnightblue" d="M676.07,-157.8C676.56,-148.91 677.12,-138.78 677.51,-131.75"/>
<polygon fill="midnightblue" stroke="midnightblue" points="672.56,-157.9 675.5,-168.08 679.54,-158.29 672.56,-157.9"/>
</g>
<!-- Node33 -->
<g id="node33" class="node">
<title>Node33</title>
<g id="a_node33"><a xlink:href="ui_8h.html" target="_top" xlink:title="User interface.">
<polygon fill="white" stroke="black" points="740.5,-112.5 740.5,-131.5 813.5,-131.5 813.5,-112.5 740.5,-112.5"/>
<text text-anchor="middle" x="777" y="-119.5" font-family="Helvetica,sans-Serif" font-size="10.00">include/ui.h</text>
</a>
</g>
</g>
<!-- Node31&#45;&gt;Node33 -->
<g id="edge39" class="edge">
<title>Node31&#45;&gt;Node33</title>
<path fill="none" stroke="midnightblue" d="M700.33,-163.59C719.19,-153.61 744.38,-140.27 760.65,-131.65"/>
<polygon fill="midnightblue" stroke="midnightblue" points="698.59,-160.55 691.39,-168.32 701.86,-166.74 698.59,-160.55"/>
</g>
<!-- Node34 -->
<g id="node34" class="node">
<title>Node34</title>
<g id="a_node34"><a xlink:href="ui_8c.html" target="_top" xlink:title=" ">
<polygon fill="white" stroke="black" points="744,-56.5 744,-75.5 810,-75.5 810,-56.5 744,-56.5"/>
<text text-anchor="middle" x="777" y="-63.5" font-family="Helvetica,sans-Serif" font-size="10.00">src/P2/ui.c</text>
</a>
</g>
</g>
<!-- Node33&#45;&gt;Node34 -->
<g id="edge40" class="edge">
<title>Node33&#45;&gt;Node34</title>
<path fill="none" stroke="midnightblue" d="M777,-101.8C777,-92.91 777,-82.78 777,-75.75"/>
<polygon fill="midnightblue" stroke="midnightblue" points="773.5,-102.08 777,-112.08 780.5,-102.08 773.5,-102.08"/>
</g>
<!-- Node35&#45;&gt;Node11 -->
<g id="edge43" class="edge">
<title>Node35&#45;&gt;Node11</title>
<path fill="none" stroke="midnightblue" d="M748.33,-275.59C767.19,-265.61 792.38,-252.27 808.65,-243.65"/>
<polygon fill="midnightblue" stroke="midnightblue" points="746.59,-272.55 739.39,-280.32 749.86,-278.74 746.59,-272.55"/>
</g>
<!-- Node35&#45;&gt;Node30 -->
<g id="edge42" class="edge">
<title>Node35&#45;&gt;Node30</title>
<path fill="none" stroke="midnightblue" d="M721.93,-269.8C721.44,-260.91 720.88,-250.78 720.49,-243.75"/>
<polygon fill="midnightblue" stroke="midnightblue" points="718.46,-270.29 722.5,-280.08 725.44,-269.9 718.46,-270.29"/>
</g>
<!-- Node36&#45;&gt;Node2 -->
<g id="edge47" class="edge">
<title>Node36&#45;&gt;Node2</title>
<path fill="none" stroke="midnightblue" d="M567,-273.73C557.89,-265.65 547.38,-255.11 540,-244 501.23,-185.65 478.67,-102.56 472.06,-75.72"/>
<polygon fill="midnightblue" stroke="midnightblue" points="564.96,-276.59 574.84,-280.41 569.5,-271.26 564.96,-276.59"/>
</g>
<!-- Node36&#45;&gt;Node11 -->
<g id="edge53" class="edge">
<title>Node36&#45;&gt;Node11</title>
<path fill="none" stroke="midnightblue" d="M633.72,-278.22C678.89,-268.01 745.77,-252.9 787.31,-243.52"/>
<polygon fill="midnightblue" stroke="midnightblue" points="632.85,-274.83 623.87,-280.44 634.4,-281.65 632.85,-274.83"/>
</g>
<!-- Node36&#45;&gt;Node14 -->
<g id="edge46" class="edge">
<title>Node36&#45;&gt;Node14</title>
<path fill="none" stroke="midnightblue" d="M601.02,-273.14C616.65,-257.73 642.64,-235.09 670,-224 802.63,-170.21 848.42,-208.94 990,-188 993.08,-187.54 996.26,-187.04 999.46,-186.51"/>
<polygon fill="midnightblue" stroke="midnightblue" points="598.35,-270.85 593.83,-280.44 603.34,-275.77 598.35,-270.85"/>
</g>
<!-- Node37 -->
<g id="node37" class="node">
<title>Node37</title>
<g id="a_node37"><a xlink:href="util_8c.html" target="_top" xlink:title=" ">
<polygon fill="white" stroke="black" points="549.5,-224.5 549.5,-243.5 622.5,-243.5 622.5,-224.5 549.5,-224.5"/>
<text text-anchor="middle" x="586" y="-231.5" font-family="Helvetica,sans-Serif" font-size="10.00">src/P2/util.c</text>
</a>
</g>
</g>
<!-- Node36&#45;&gt;Node37 -->
<g id="edge45" class="edge">
<title>Node36&#45;&gt;Node37</title>
<path fill="none" stroke="midnightblue" d="M586,-269.8C586,-260.91 586,-250.78 586,-243.75"/>
<polygon fill="midnightblue" stroke="midnightblue" points="582.5,-270.08 586,-280.08 589.5,-270.08 582.5,-270.08"/>
</g>
<!-- Node38 -->
<g id="node38" class="node">
<title>Node38</title>
<g id="a_node38"><a xlink:href="joy_8h.html" target="_top" xlink:title="Joypad manager.">
<polygon fill="white" stroke="black" points="415.5,-224.5 415.5,-243.5 492.5,-243.5 492.5,-224.5 415.5,-224.5"/>
<text text-anchor="middle" x="454" y="-231.5" font-family="Helvetica,sans-Serif" font-size="10.00">include/joy.h</text>
</a>
</g>
</g>
<!-- Node36&#45;&gt;Node38 -->
<g id="edge48" class="edge">
<title>Node36&#45;&gt;Node38</title>
<path fill="none" stroke="midnightblue" d="M555.78,-276.64C531.01,-266.5 496.6,-252.43 474.82,-243.52"/>
<polygon fill="midnightblue" stroke="midnightblue" points="554.5,-279.9 565.08,-280.44 557.15,-273.42 554.5,-279.9"/>
</g>
<!-- Node36&#45;&gt;Node40 -->
<g id="edge51" class="edge">
<title>Node36&#45;&gt;Node40</title>
<path fill="none" stroke="midnightblue" d="M636.54,-281.38C695.12,-272.52 794.58,-257.4 880,-244 883.02,-243.53 886.12,-243.04 889.25,-242.54"/>
<polygon fill="midnightblue" stroke="midnightblue" points="635.8,-277.95 626.44,-282.91 636.85,-284.87 635.8,-277.95"/>
</g>
<!-- Node38&#45;&gt;Node25 -->
<g id="edge50" class="edge">
<title>Node38&#45;&gt;Node25</title>
<path fill="none" stroke="midnightblue" d="M405.21,-222.83C356.4,-212.65 282.13,-197.17 236.18,-187.59"/>
<polygon fill="midnightblue" stroke="midnightblue" points="404.72,-226.3 415.23,-224.92 406.15,-219.45 404.72,-226.3"/>
</g>
<!-- Node39 -->
<g id="node39" class="node">
<title>Node39</title>
<g id="a_node39"><a xlink:href="joy_8c.html" target="_top" xlink:title=" ">
<polygon fill="white" stroke="black" points="401.5,-168.5 401.5,-187.5 472.5,-187.5 472.5,-168.5 401.5,-168.5"/>
<text text-anchor="middle" x="437" y="-175.5" font-family="Helvetica,sans-Serif" font-size="10.00">src/P2/joy.c</text>
</a>
</g>
</g>
<!-- Node38&#45;&gt;Node39 -->
<g id="edge49" class="edge">
<title>Node38&#45;&gt;Node39</title>
<path fill="none" stroke="midnightblue" d="M448.14,-214.4C445.3,-205.36 442.02,-194.94 439.75,-187.75"/>
<polygon fill="midnightblue" stroke="midnightblue" points="444.85,-215.6 451.19,-224.08 451.53,-213.49 444.85,-215.6"/>
</g>
<!-- Node40&#45;&gt;Node14 -->
<g id="edge52" class="edge">
<title>Node40&#45;&gt;Node14</title>
<path fill="none" stroke="midnightblue" d="M961.58,-219.59C980.62,-209.61 1006.06,-196.27 1022.49,-187.65"/>
<polygon fill="midnightblue" stroke="midnightblue" points="959.78,-216.58 952.55,-224.32 963.03,-222.78 959.78,-216.58"/>
</g>
<!-- Node41&#45;&gt;Node11 -->
<g id="edge60" class="edge">
<title>Node41&#45;&gt;Node11</title>
<path fill="none" stroke="midnightblue" d="M1067.09,-279.02C1010.92,-268.8 924.58,-253.11 871.62,-243.48"/>
<polygon fill="midnightblue" stroke="midnightblue" points="1066.75,-282.51 1077.21,-280.86 1068,-275.62 1066.75,-282.51"/>
</g>
<!-- Node42 -->
<g id="node42" class="node">
<title>Node42</title>
<g id="a_node42"><a xlink:href="sm_8h.html" target="_top" xlink:title="State machines.">
<polygon fill="white" stroke="black" points="1098.5,-224.5 1098.5,-243.5 1177.5,-243.5 1177.5,-224.5 1098.5,-224.5"/>
<text text-anchor="middle" x="1138" y="-231.5" font-family="Helvetica,sans-Serif" font-size="10.00">include/sm.h</text>
</a>
</g>
</g>
<!-- Node41&#45;&gt;Node42 -->
<g id="edge57" class="edge">
<title>Node41&#45;&gt;Node42</title>
<path fill="none" stroke="midnightblue" d="M1127.51,-270.4C1130.19,-261.36 1133.28,-250.94 1135.41,-243.75"/>
<polygon fill="midnightblue" stroke="midnightblue" points="1124.13,-269.5 1124.64,-280.08 1130.84,-271.49 1124.13,-269.5"/>
</g>
<!-- Node42&#45;&gt;Node8 -->
<g id="edge58" class="edge">
<title>Node42&#45;&gt;Node8</title>
<path fill="none" stroke="midnightblue" d="M1138,-213.8C1138,-204.91 1138,-194.78 1138,-187.75"/>
<polygon fill="midnightblue" stroke="midnightblue" points="1134.5,-214.08 1138,-224.08 1141.5,-214.08 1134.5,-214.08"/>
</g>
<!-- Node42&#45;&gt;Node16 -->
<g id="edge59" class="edge">
<title>Node42&#45;&gt;Node16</title>
<path fill="none" stroke="midnightblue" d="M1161.67,-219.02C1180.71,-205.96 1202.29,-185.86 1189,-168 1176.22,-150.82 1122.39,-137.75 1082.85,-130.23"/>
<polygon fill="midnightblue" stroke="midnightblue" points="1159.71,-216.11 1153.23,-224.49 1163.52,-221.99 1159.71,-216.11"/>
</g>
</g>
</svg>
