<?xml version="1.0" encoding="UTF-8" standalone="no"?>
<!DOCTYPE svg PUBLIC "-//W3C//DTD SVG 1.1//EN"
 "http://www.w3.org/Graphics/SVG/1.1/DTD/svg11.dtd">
<!-- Generated by graphviz version 2.43.0 (0)
 -->
<!-- Title: include/target.h Pages: 1 -->
<svg width="1136pt" height="632pt"
 viewBox="0.00 0.00 1136.00 632.00" xmlns="http://www.w3.org/2000/svg" xmlns:xlink="http://www.w3.org/1999/xlink">
<g id="graph0" class="graph" transform="scale(1 1) rotate(0) translate(4 628)">
<title>include/target.h</title>
<!-- Node1 -->
<g id="Node000001" class="node">
<title>Node1</title>
<g id="a_Node000001"><a xlink:title=" ">
<polygon fill="#999999" stroke="#666666" points="330.5,-624 237.5,-624 237.5,-605 330.5,-605 330.5,-624"/>
<text text-anchor="middle" x="284" y="-612" font-family="Helvetica,sans-Serif" font-size="10.00">include/target.h</text>
</a>
</g>
</g>
<!-- Node2 -->
<g id="Node000002" class="node">
<title>Node2</title>
<g id="a_Node000002"><a xlink:href="xform_8h.html" target="_top" xlink:title="Transform.">
<polygon fill="white" stroke="#666666" points="567.5,-569 512.5,-569 512.5,-550 567.5,-550 567.5,-569"/>
<text text-anchor="middle" x="540" y="-557" font-family="Helvetica,sans-Serif" font-size="10.00">xform.h</text>
</a>
</g>
</g>
<!-- Node1&#45;&gt;Node2 -->
<g id="edge1_Node000001_Node000002" class="edge">
<title>Node1&#45;&gt;Node2</title>
<g id="a_edge1_Node000001_Node000002"><a xlink:title=" ">
<path fill="none" stroke="#63b8ff" d="M325.13,-604.98C374.11,-594.84 455.23,-578.05 502.54,-568.26"/>
<polygon fill="#63b8ff" stroke="#63b8ff" points="503.3,-571.67 512.38,-566.22 501.88,-564.82 503.3,-571.67"/>
</a>
</g>
</g>
<!-- Node9 -->
<g id="Node000009" class="node">
<title>Node9</title>
<g id="a_Node000009"><a xlink:href="dl_8h.html" target="_top" xlink:title="Doubly&#45;linked list.">
<polygon fill="white" stroke="#666666" points="343.5,-74 308.5,-74 308.5,-55 343.5,-55 343.5,-74"/>
<text text-anchor="middle" x="326" y="-62" font-family="Helvetica,sans-Serif" font-size="10.00">dl.h</text>
</a>
</g>
</g>
<!-- Node1&#45;&gt;Node9 -->
<g id="edge79_Node000001_Node000009" class="edge">
<title>Node1&#45;&gt;Node9</title>
<g id="a_edge79_Node000001_Node000009"><a xlink:title=" ">
<path fill="none" stroke="#63b8ff" d="M237.31,-611.22C171.67,-605.22 60,-583.54 60,-505.5 60,-505.5 60,-505.5 60,-393.5 60,-247.04 116.81,-205.33 228,-110 248.72,-92.23 277.71,-80.25 298.78,-73.24"/>
<polygon fill="#63b8ff" stroke="#63b8ff" points="299.94,-76.54 308.42,-70.19 297.83,-69.87 299.94,-76.54"/>
</a>
</g>
</g>
<!-- Node3 -->
<g id="Node000003" class="node">
<title>Node3</title>
<g id="a_Node000003"><a xlink:href="vec_8h.html" target="_top" xlink:title="Vector math.">
<polygon fill="white" stroke="#666666" points="959.5,-19 916.5,-19 916.5,0 959.5,0 959.5,-19"/>
<text text-anchor="middle" x="938" y="-7" font-family="Helvetica,sans-Serif" font-size="10.00">vec.h</text>
</a>
</g>
</g>
<!-- Node2&#45;&gt;Node3 -->
<g id="edge2_Node000002_Node000003" class="edge">
<title>Node2&#45;&gt;Node3</title>
<g id="a_edge2_Node000002_Node000003"><a xlink:title=" ">
<path fill="none" stroke="#63b8ff" d="M567.57,-558.85C638.59,-559.11 833.07,-555.62 988,-514 1053.98,-496.28 1128,-518.82 1128,-450.5 1128,-450.5 1128,-450.5 1128,-118.5 1128,-46.65 1024.03,-22 969.91,-14.04"/>
<polygon fill="#63b8ff" stroke="#63b8ff" points="970.18,-10.54 959.8,-12.66 969.23,-17.48 970.18,-10.54"/>
</a>
</g>
</g>
<!-- Node4 -->
<g id="Node000004" class="node">
<title>Node4</title>
<g id="a_Node000004"><a xlink:href="mat_8h.html" target="_top" xlink:title="3x3 and 4x4 matrix types.">
<polygon fill="white" stroke="#666666" points="909.5,-184 864.5,-184 864.5,-165 909.5,-165 909.5,-184"/>
<text text-anchor="middle" x="887" y="-172" font-family="Helvetica,sans-Serif" font-size="10.00">mat.h</text>
</a>
</g>
</g>
<!-- Node2&#45;&gt;Node4 -->
<g id="edge3_Node000002_Node000004" class="edge">
<title>Node2&#45;&gt;Node4</title>
<g id="a_edge3_Node000002_Node000004"><a xlink:title=" ">
<path fill="none" stroke="#63b8ff" d="M567.67,-557.23C660.05,-552.24 952,-530.18 952,-450.5 952,-450.5 952,-450.5 952,-393.5 952,-316.58 914.37,-230.51 896.38,-193.74"/>
<polygon fill="#63b8ff" stroke="#63b8ff" points="899.28,-191.73 891.67,-184.35 893.02,-194.86 899.28,-191.73"/>
</a>
</g>
</g>
<!-- Node5 -->
<g id="Node000005" class="node">
<title>Node5</title>
<g id="a_Node000005"><a xlink:href="alo_8h.html" target="_top" xlink:title=" ">
<polygon fill="white" stroke="#666666" points="624.5,-349 583.5,-349 583.5,-330 624.5,-330 624.5,-349"/>
<text text-anchor="middle" x="604" y="-337" font-family="Helvetica,sans-Serif" font-size="10.00">alo.h</text>
</a>
</g>
</g>
<!-- Node2&#45;&gt;Node5 -->
<g id="edge5_Node000002_Node000005" class="edge">
<title>Node2&#45;&gt;Node5</title>
<g id="a_edge5_Node000002_Node000005"><a xlink:title=" ">
<path fill="none" stroke="#63b8ff" d="M541.34,-549.75C544.47,-529.95 552.95,-480.29 565,-440 573.75,-410.77 587.35,-378.04 595.96,-358.36"/>
<polygon fill="#63b8ff" stroke="#63b8ff" points="599.21,-359.67 600.06,-349.11 592.81,-356.84 599.21,-359.67"/>
</a>
</g>
</g>
<!-- Node7 -->
<g id="Node000007" class="node">
<title>Node7</title>
<g id="a_Node000007"><a xlink:href="util_8h.html" target="_top" xlink:title="Utility functions.">
<polygon fill="white" stroke="#666666" points="712.5,-239 671.5,-239 671.5,-220 712.5,-220 712.5,-239"/>
<text text-anchor="middle" x="692" y="-227" font-family="Helvetica,sans-Serif" font-size="10.00">util.h</text>
</a>
</g>
</g>
<!-- Node2&#45;&gt;Node7 -->
<g id="edge25_Node000002_Node000007" class="edge">
<title>Node2&#45;&gt;Node7</title>
<g id="a_edge25_Node000002_Node000007"><a xlink:title=" ">
<path fill="none" stroke="#63b8ff" d="M567.63,-555.57C620.32,-548.3 730,-524.3 730,-450.5 730,-450.5 730,-450.5 730,-393.5 730,-340.83 747.11,-324.46 729,-275 725.01,-264.1 717.09,-253.98 709.6,-246.15"/>
<polygon fill="#63b8ff" stroke="#63b8ff" points="712.01,-243.62 702.41,-239.14 707.12,-248.63 712.01,-243.62"/>
</a>
</g>
</g>
<!-- Node2&#45;&gt;Node9 -->
<g id="edge26_Node000002_Node000009" class="edge">
<title>Node2&#45;&gt;Node9</title>
<g id="a_edge26_Node000002_Node000009"><a xlink:title=" ">
<path fill="none" stroke="#63b8ff" d="M512.33,-557.54C452.82,-553.83 318,-536.01 318,-450.5 318,-450.5 318,-450.5 318,-338.5 318,-243.18 322.93,-129.21 325.05,-84.67"/>
<polygon fill="#63b8ff" stroke="#63b8ff" points="328.56,-84.61 325.55,-74.45 321.57,-84.27 328.56,-84.61"/>
</a>
</g>
</g>
<!-- Node10 -->
<g id="Node000010" class="node">
<title>Node10</title>
<g id="a_Node000010"><a xlink:href="oid_8h.html" target="_top" xlink:title="Object IDs.">
<polygon fill="white" stroke="#666666" points="153.5,-19 112.5,-19 112.5,0 153.5,0 153.5,-19"/>
<text text-anchor="middle" x="133" y="-7" font-family="Helvetica,sans-Serif" font-size="10.00">oid.h</text>
</a>
</g>
</g>
<!-- Node2&#45;&gt;Node10 -->
<g id="edge33_Node000002_Node000010" class="edge">
<title>Node2&#45;&gt;Node10</title>
<g id="a_edge33_Node000002_Node000010"><a xlink:title=" ">
<path fill="none" stroke="#63b8ff" d="M512.48,-558.92C402.44,-559.87 0,-556.15 0,-450.5 0,-450.5 0,-450.5 0,-118.5 0,-65.96 63.31,-34.51 102.57,-20.06"/>
<polygon fill="#63b8ff" stroke="#63b8ff" points="103.94,-23.28 112.22,-16.67 101.62,-16.68 103.94,-23.28"/>
</a>
</g>
</g>
<!-- Node16 -->
<g id="Node000016" class="node">
<title>Node16</title>
<g id="a_Node000016"><a xlink:href="geom_8h.html" target="_top" xlink:title="Geometry.">
<polygon fill="white" stroke="#666666" points="1019.5,-294 966.5,-294 966.5,-275 1019.5,-275 1019.5,-294"/>
<text text-anchor="middle" x="993" y="-282" font-family="Helvetica,sans-Serif" font-size="10.00">geom.h</text>
</a>
</g>
</g>
<!-- Node2&#45;&gt;Node16 -->
<g id="edge27_Node000002_Node000016" class="edge">
<title>Node2&#45;&gt;Node16</title>
<g id="a_edge27_Node000002_Node000016"><a xlink:title=" ">
<path fill="none" stroke="#63b8ff" d="M567.78,-557.28C657.33,-553.1 934.46,-538.32 966,-514 989.89,-495.58 990,-480.67 990,-450.5 990,-450.5 990,-450.5 990,-393.5 990,-362.18 991.28,-325.77 992.16,-304.23"/>
<polygon fill="#63b8ff" stroke="#63b8ff" points="995.66,-304.32 992.6,-294.18 988.67,-304.02 995.66,-304.32"/>
</a>
</g>
</g>
<!-- Node17 -->
<g id="Node000017" class="node">
<title>Node17</title>
<g id="a_Node000017"><a xlink:href="game_8h.html" target="_top" xlink:title="Game state and level management.">
<polygon fill="white" stroke="#666666" points="254.5,-184 201.5,-184 201.5,-165 254.5,-165 254.5,-184"/>
<text text-anchor="middle" x="228" y="-172" font-family="Helvetica,sans-Serif" font-size="10.00">game.h</text>
</a>
</g>
</g>
<!-- Node2&#45;&gt;Node17 -->
<g id="edge30_Node000002_Node000017" class="edge">
<title>Node2&#45;&gt;Node17</title>
<g id="a_edge30_Node000002_Node000017"><a xlink:title=" ">
<path fill="none" stroke="#63b8ff" d="M512.41,-556.8C423.76,-550.58 152,-525.4 152,-450.5 152,-450.5 152,-450.5 152,-283.5 152,-244.47 185.61,-209.58 208.13,-190.6"/>
<polygon fill="#63b8ff" stroke="#63b8ff" points="210.56,-193.14 216.12,-184.12 206.15,-187.7 210.56,-193.14"/>
</a>
</g>
</g>
<!-- Node19 -->
<g id="Node000019" class="node">
<title>Node19</title>
<g id="a_Node000019"><a xlink:href="wipe_8h.html" target="_top" xlink:title="Screen wipes.">
<polygon fill="white" stroke="#666666" points="284.5,-349 235.5,-349 235.5,-330 284.5,-330 284.5,-349"/>
<text text-anchor="middle" x="260" y="-337" font-family="Helvetica,sans-Serif" font-size="10.00">wipe.h</text>
</a>
</g>
</g>
<!-- Node2&#45;&gt;Node19 -->
<g id="edge34_Node000002_Node000019" class="edge">
<title>Node2&#45;&gt;Node19</title>
<g id="a_edge34_Node000002_Node000019"><a xlink:title=" ">
<path fill="none" stroke="#63b8ff" d="M512.09,-556.92C456.3,-553.2 333.77,-541.98 304,-514 260.27,-472.9 257.48,-395.09 258.74,-359.33"/>
<polygon fill="#63b8ff" stroke="#63b8ff" points="262.24,-359.46 259.25,-349.3 255.25,-359.11 262.24,-359.46"/>
</a>
</g>
</g>
<!-- Node24 -->
<g id="Node000024" class="node">
<title>Node24</title>
<g id="a_Node000024"><a xlink:href="bis_8h.html" target="_top" xlink:title="Binary Input Stream.">
<polygon fill="white" stroke="#666666" points="831,-404 791,-404 791,-385 831,-385 831,-404"/>
<text text-anchor="middle" x="811" y="-392" font-family="Helvetica,sans-Serif" font-size="10.00">bis.h</text>
</a>
</g>
</g>
<!-- Node2&#45;&gt;Node24 -->
<g id="edge43_Node000002_Node000024" class="edge">
<title>Node2&#45;&gt;Node24</title>
<g id="a_edge43_Node000002_Node000024"><a xlink:title=" ">
<path fill="none" stroke="#63b8ff" d="M567.63,-559.31C609.75,-559.16 690.76,-553.27 744,-514 778.12,-488.84 797.32,-440.76 805.76,-414.23"/>
<polygon fill="#63b8ff" stroke="#63b8ff" points="809.21,-414.89 808.72,-404.31 802.5,-412.89 809.21,-414.89"/>
</a>
</g>
</g>
<!-- Node38 -->
<g id="Node000038" class="node">
<title>Node38</title>
<g id="a_Node000038"><a xlink:href="proxy_8h.html" target="_top" xlink:title=" ">
<polygon fill="white" stroke="#666666" points="626,-459 574,-459 574,-440 626,-440 626,-459"/>
<text text-anchor="middle" x="600" y="-447" font-family="Helvetica,sans-Serif" font-size="10.00">proxy.h</text>
</a>
</g>
</g>
<!-- Node2&#45;&gt;Node38 -->
<g id="edge67_Node000002_Node000038" class="edge">
<title>Node2&#45;&gt;Node38</title>
<g id="a_edge67_Node000002_Node000038"><a xlink:title=" ">
<path fill="none" stroke="#63b8ff" d="M544.91,-549.66C554.8,-531.85 577.3,-491.37 590.27,-468.01"/>
<polygon fill="#63b8ff" stroke="#63b8ff" points="593.39,-469.6 595.19,-459.16 587.27,-466.2 593.39,-469.6"/>
</a>
</g>
</g>
<!-- Node39 -->
<g id="Node000039" class="node">
<title>Node39</title>
<g id="a_Node000039"><a xlink:href="rs_8h.html" target="_top" xlink:title=" ">
<polygon fill="white" stroke="#666666" points="123.5,-459 88.5,-459 88.5,-440 123.5,-440 123.5,-459"/>
<text text-anchor="middle" x="106" y="-447" font-family="Helvetica,sans-Serif" font-size="10.00">rs.h</text>
</a>
</g>
</g>
<!-- Node2&#45;&gt;Node39 -->
<g id="edge71_Node000002_Node000039" class="edge">
<title>Node2&#45;&gt;Node39</title>
<g id="a_edge71_Node000002_Node000039"><a xlink:title=" ">
<path fill="none" stroke="#63b8ff" d="M512.46,-558.78C431.93,-559.08 198.77,-556.21 138,-514 122.97,-503.56 114.62,-483.92 110.25,-469.24"/>
<polygon fill="#63b8ff" stroke="#63b8ff" points="113.54,-468 107.64,-459.21 106.77,-469.77 113.54,-468"/>
</a>
</g>
</g>
<!-- Node40 -->
<g id="Node000040" class="node">
<title>Node40</title>
<g id="a_Node000040"><a xlink:href="pnt_8h.html" target="_top" xlink:title="Points.">
<polygon fill="white" stroke="#666666" points="658.5,-514 617.5,-514 617.5,-495 658.5,-495 658.5,-514"/>
<text text-anchor="middle" x="638" y="-502" font-family="Helvetica,sans-Serif" font-size="10.00">pnt.h</text>
</a>
</g>
</g>
<!-- Node2&#45;&gt;Node40 -->
<g id="edge73_Node000002_Node000040" class="edge">
<title>Node2&#45;&gt;Node40</title>
<g id="a_edge73_Node000002_Node000040"><a xlink:title=" ">
<path fill="none" stroke="#63b8ff" d="M555.75,-549.98C571.23,-541.61 595.09,-528.7 613.14,-518.95"/>
<polygon fill="#63b8ff" stroke="#63b8ff" points="614.84,-522.01 621.97,-514.17 611.51,-515.85 614.84,-522.01"/>
</a>
</g>
</g>
<!-- Node4&#45;&gt;Node3 -->
<g id="edge4_Node000004_Node000003" class="edge">
<title>Node4&#45;&gt;Node3</title>
<g id="a_edge4_Node000004_Node000003"><a xlink:title=" ">
<path fill="none" stroke="#63b8ff" d="M889.69,-164.87C895.78,-145.32 911.11,-96.13 924,-55 926.7,-46.39 929.7,-36.85 932.23,-28.82"/>
<polygon fill="#63b8ff" stroke="#63b8ff" points="935.64,-29.62 935.31,-19.03 928.97,-27.52 935.64,-29.62"/>
</a>
</g>
</g>
<!-- Node5&#45;&gt;Node3 -->
<g id="edge21_Node000005_Node000003" class="edge">
<title>Node5&#45;&gt;Node3</title>
<g id="a_edge21_Node000005_Node000003"><a xlink:title=" ">
<path fill="none" stroke="#63b8ff" d="M624.57,-332.77C655.47,-323.91 712.08,-306.57 729,-294 781.45,-255.05 891.94,-83.62 927.05,-27.99"/>
<polygon fill="#63b8ff" stroke="#63b8ff" points="930.17,-29.61 932.53,-19.28 924.24,-25.88 930.17,-29.61"/>
</a>
</g>
</g>
<!-- Node5&#45;&gt;Node4 -->
<g id="edge22_Node000005_Node000004" class="edge">
<title>Node5&#45;&gt;Node4</title>
<g id="a_edge22_Node000005_Node000004"><a xlink:title=" ">
<path fill="none" stroke="#63b8ff" d="M624.58,-333.29C664.57,-323.09 749.92,-300.86 762,-294 786.85,-279.88 844.27,-220.79 871.78,-191.75"/>
<polygon fill="#63b8ff" stroke="#63b8ff" points="874.67,-193.78 878.99,-184.1 869.58,-188.98 874.67,-193.78"/>
</a>
</g>
</g>
<!-- Node6 -->
<g id="Node000006" class="node">
<title>Node6</title>
<g id="a_Node000006"><a xlink:href="sound_8h.html" target="_top" xlink:title="Sound playback.">
<polygon fill="white" stroke="#666666" points="719.5,-294 664.5,-294 664.5,-275 719.5,-275 719.5,-294"/>
<text text-anchor="middle" x="692" y="-282" font-family="Helvetica,sans-Serif" font-size="10.00">sound.h</text>
</a>
</g>
</g>
<!-- Node5&#45;&gt;Node6 -->
<g id="edge6_Node000005_Node000006" class="edge">
<title>Node5&#45;&gt;Node6</title>
<g id="a_edge6_Node000005_Node000006"><a xlink:title=" ">
<path fill="none" stroke="#63b8ff" d="M618.14,-329.98C631.79,-321.77 652.69,-309.18 668.78,-299.49"/>
<polygon fill="#63b8ff" stroke="#63b8ff" points="670.84,-302.33 677.6,-294.17 667.23,-296.33 670.84,-302.33"/>
</a>
</g>
</g>
<!-- Node5&#45;&gt;Node9 -->
<g id="edge24_Node000005_Node000009" class="edge">
<title>Node5&#45;&gt;Node9</title>
<g id="a_edge24_Node000005_Node000009"><a xlink:title=" ">
<path fill="none" stroke="#63b8ff" d="M596.03,-329.95C567.39,-299.31 466.64,-192.47 378,-110 367.13,-99.88 354.47,-89.04 344.37,-80.58"/>
<polygon fill="#63b8ff" stroke="#63b8ff" points="346.51,-77.81 336.58,-74.12 342.04,-83.2 346.51,-77.81"/>
</a>
</g>
</g>
<!-- Node12 -->
<g id="Node000012" class="node">
<title>Node12</title>
<g id="a_Node000012"><a xlink:href="lo_8h.html" target="_top" xlink:title="Level objects.">
<polygon fill="white" stroke="#666666" points="537.5,-129 502.5,-129 502.5,-110 537.5,-110 537.5,-129"/>
<text text-anchor="middle" x="520" y="-117" font-family="Helvetica,sans-Serif" font-size="10.00">lo.h</text>
</a>
</g>
</g>
<!-- Node5&#45;&gt;Node12 -->
<g id="edge23_Node000005_Node000012" class="edge">
<title>Node5&#45;&gt;Node12</title>
<g id="a_edge23_Node000005_Node000012"><a xlink:title=" ">
<path fill="none" stroke="#63b8ff" d="M600,-329.72C596,-320.81 589.77,-306.57 585,-294 563.56,-237.5 565,-220.89 542,-165 538.31,-156.03 533.61,-146.35 529.51,-138.32"/>
<polygon fill="#63b8ff" stroke="#63b8ff" points="532.48,-136.44 524.75,-129.2 526.27,-139.68 532.48,-136.44"/>
</a>
</g>
</g>
<!-- Node6&#45;&gt;Node7 -->
<g id="edge7_Node000006_Node000007" class="edge">
<title>Node6&#45;&gt;Node7</title>
<g id="a_edge7_Node000006_Node000007"><a xlink:title=" ">
<path fill="none" stroke="#63b8ff" d="M692,-274.75C692,-267.8 692,-257.85 692,-249.13"/>
<polygon fill="#63b8ff" stroke="#63b8ff" points="695.5,-249.09 692,-239.09 688.5,-249.09 695.5,-249.09"/>
</a>
</g>
</g>
<!-- Node7&#45;&gt;Node3 -->
<g id="edge8_Node000007_Node000003" class="edge">
<title>Node7&#45;&gt;Node3</title>
<g id="a_edge8_Node000007_Node000003"><a xlink:title=" ">
<path fill="none" stroke="#63b8ff" d="M704.03,-219.98C726.01,-203.98 773.31,-167.58 805,-129 829.14,-99.61 820.21,-80.98 848,-55 864.73,-39.36 887.99,-28.05 906.68,-20.75"/>
<polygon fill="#63b8ff" stroke="#63b8ff" points="908.09,-23.96 916.24,-17.2 905.65,-17.4 908.09,-23.96"/>
</a>
</g>
</g>
<!-- Node7&#45;&gt;Node4 -->
<g id="edge9_Node000007_Node000004" class="edge">
<title>Node7&#45;&gt;Node4</title>
<g id="a_edge9_Node000007_Node000004"><a xlink:title=" ">
<path fill="none" stroke="#63b8ff" d="M712.87,-222.83C746.85,-213.59 814.39,-195.23 854.64,-184.3"/>
<polygon fill="#63b8ff" stroke="#63b8ff" points="855.76,-187.62 864.49,-181.62 853.92,-180.86 855.76,-187.62"/>
</a>
</g>
</g>
<!-- Node8 -->
<g id="Node000008" class="node">
<title>Node8</title>
<g id="a_Node000008"><a xlink:href="sm_8h.html" target="_top" xlink:title="Probabilistic finite state machines.">
<polygon fill="white" stroke="#666666" points="635.5,-184 594.5,-184 594.5,-165 635.5,-165 635.5,-184"/>
<text text-anchor="middle" x="615" y="-172" font-family="Helvetica,sans-Serif" font-size="10.00">sm.h</text>
</a>
</g>
</g>
<!-- Node7&#45;&gt;Node8 -->
<g id="edge10_Node000007_Node000008" class="edge">
<title>Node7&#45;&gt;Node8</title>
<g id="a_edge10_Node000007_Node000008"><a xlink:title=" ">
<path fill="none" stroke="#63b8ff" d="M679.63,-219.98C667.91,-211.92 650.08,-199.65 636.11,-190.03"/>
<polygon fill="#63b8ff" stroke="#63b8ff" points="637.82,-186.96 627.6,-184.17 633.85,-192.72 637.82,-186.96"/>
</a>
</g>
</g>
<!-- Node8&#45;&gt;Node9 -->
<g id="edge11_Node000008_Node000009" class="edge">
<title>Node8&#45;&gt;Node9</title>
<g id="a_edge11_Node000008_Node000009"><a xlink:title=" ">
<path fill="none" stroke="#63b8ff" d="M594.12,-166.36C569.7,-157.89 528.13,-143.15 493,-129 473.62,-121.19 469.4,-117.76 450,-110 417.15,-96.87 378.72,-83.36 353.45,-74.72"/>
<polygon fill="#63b8ff" stroke="#63b8ff" points="354.4,-71.35 343.81,-71.44 352.15,-77.97 354.4,-71.35"/>
</a>
</g>
</g>
<!-- Node11 -->
<g id="Node000011" class="node">
<title>Node11</title>
<g id="a_Node000011"><a xlink:href="mq_8h.html" target="_top" xlink:title="Message queue.">
<polygon fill="white" stroke="#666666" points="615.5,-74 574.5,-74 574.5,-55 615.5,-55 615.5,-74"/>
<text text-anchor="middle" x="595" y="-62" font-family="Helvetica,sans-Serif" font-size="10.00">mq.h</text>
</a>
</g>
</g>
<!-- Node8&#45;&gt;Node11 -->
<g id="edge13_Node000008_Node000011" class="edge">
<title>Node8&#45;&gt;Node11</title>
<g id="a_edge13_Node000008_Node000011"><a xlink:title=" ">
<path fill="none" stroke="#63b8ff" d="M613.36,-164.66C610.12,-147.17 602.83,-107.8 598.48,-84.27"/>
<polygon fill="#63b8ff" stroke="#63b8ff" points="601.87,-83.35 596.6,-74.16 594.98,-84.63 601.87,-83.35"/>
</a>
</g>
</g>
<!-- Node8&#45;&gt;Node12 -->
<g id="edge14_Node000008_Node000012" class="edge">
<title>Node8&#45;&gt;Node12</title>
<g id="a_edge14_Node000008_Node000012"><a xlink:title=" ">
<path fill="none" stroke="#63b8ff" d="M599.74,-164.98C584.87,-156.69 562.02,-143.94 544.58,-134.22"/>
<polygon fill="#63b8ff" stroke="#63b8ff" points="545.98,-130.99 535.54,-129.17 542.57,-137.1 545.98,-130.99"/>
</a>
</g>
</g>
<!-- Node9&#45;&gt;Node10 -->
<g id="edge12_Node000009_Node000010" class="edge">
<title>Node9&#45;&gt;Node10</title>
<g id="a_edge12_Node000009_Node000010"><a xlink:title=" ">
<path fill="none" stroke="#63b8ff" d="M308.19,-58.61C275.15,-49.54 204.05,-30.01 163.32,-18.82"/>
<polygon fill="#63b8ff" stroke="#63b8ff" points="164.22,-15.45 153.65,-16.17 162.37,-22.2 164.22,-15.45"/>
</a>
</g>
</g>
<!-- Node12&#45;&gt;Node9 -->
<g id="edge15_Node000012_Node000009" class="edge">
<title>Node12&#45;&gt;Node9</title>
<g id="a_edge15_Node000012_Node000009"><a xlink:title=" ">
<path fill="none" stroke="#63b8ff" d="M502.44,-113.7C468.55,-104.44 393.89,-84.05 353.41,-72.99"/>
<polygon fill="#63b8ff" stroke="#63b8ff" points="354.23,-69.58 343.66,-70.32 352.38,-76.34 354.23,-69.58"/>
</a>
</g>
</g>
<!-- Node12&#45;&gt;Node10 -->
<g id="edge17_Node000012_Node000010" class="edge">
<title>Node12&#45;&gt;Node10</title>
<g id="a_edge17_Node000012_Node000010"><a xlink:title=" ">
<path fill="none" stroke="#63b8ff" d="M502.22,-113.12C477.11,-105.35 429.96,-90.14 391,-74 373.19,-66.62 370.26,-61.19 352,-55 286.8,-32.89 206.75,-20.05 163.78,-14.25"/>
<polygon fill="#63b8ff" stroke="#63b8ff" points="164.05,-10.76 153.68,-12.93 163.14,-17.7 164.05,-10.76"/>
</a>
</g>
</g>
<!-- Node12&#45;&gt;Node11 -->
<g id="edge16_Node000012_Node000011" class="edge">
<title>Node12&#45;&gt;Node11</title>
<g id="a_edge16_Node000012_Node000011"><a xlink:title=" ">
<path fill="none" stroke="#63b8ff" d="M532.05,-109.98C543.46,-101.92 560.83,-89.65 574.43,-80.03"/>
<polygon fill="#63b8ff" stroke="#63b8ff" points="576.58,-82.8 582.73,-74.17 572.54,-77.08 576.58,-82.8"/>
</a>
</g>
</g>
<!-- Node13 -->
<g id="Node000013" class="node">
<title>Node13</title>
<g id="a_Node000013"><a xlink:href="basic_8h.html" target="_top" xlink:title="Basic object.">
<polygon fill="white" stroke="#666666" points="451.5,-74 400.5,-74 400.5,-55 451.5,-55 451.5,-74"/>
<text text-anchor="middle" x="426" y="-62" font-family="Helvetica,sans-Serif" font-size="10.00">basic.h</text>
</a>
</g>
</g>
<!-- Node12&#45;&gt;Node13 -->
<g id="edge18_Node000012_Node000013" class="edge">
<title>Node12&#45;&gt;Node13</title>
<g id="a_edge18_Node000012_Node000013"><a xlink:title=" ">
<path fill="none" stroke="#63b8ff" d="M504.9,-109.98C490.18,-101.69 467.58,-88.94 450.33,-79.22"/>
<polygon fill="#63b8ff" stroke="#63b8ff" points="451.81,-76.03 441.38,-74.17 448.37,-82.13 451.81,-76.03"/>
</a>
</g>
</g>
<!-- Node15 -->
<g id="Node000015" class="node">
<title>Node15</title>
<g id="a_Node000015"><a xlink:href="frame_8h.html" target="_top" xlink:title=" ">
<polygon fill="white" stroke="#666666" points="556,-74 470,-74 470,-55 556,-55 556,-74"/>
<text text-anchor="middle" x="513" y="-62" font-family="Helvetica,sans-Serif" font-size="10.00">splice/frame.h</text>
</a>
</g>
</g>
<!-- Node12&#45;&gt;Node15 -->
<g id="edge20_Node000012_Node000015" class="edge">
<title>Node12&#45;&gt;Node15</title>
<g id="a_edge20_Node000012_Node000015"><a xlink:title=" ">
<path fill="none" stroke="#63b8ff" d="M518.84,-109.75C517.93,-102.8 516.61,-92.85 515.46,-84.13"/>
<polygon fill="#63b8ff" stroke="#63b8ff" points="518.91,-83.54 514.13,-74.09 511.97,-84.46 518.91,-83.54"/>
</a>
</g>
</g>
<!-- Node14 -->
<g id="Node000014" class="node">
<title>Node14</title>
<g id="a_Node000014"><a xlink:href="sidebag_8h.html" target="_top" xlink:title="Sidebag for splice.">
<polygon fill="white" stroke="#666666" points="473.5,-19 378.5,-19 378.5,0 473.5,0 473.5,-19"/>
<text text-anchor="middle" x="426" y="-7" font-family="Helvetica,sans-Serif" font-size="10.00">splice/sidebag.h</text>
</a>
</g>
</g>
<!-- Node13&#45;&gt;Node14 -->
<g id="edge19_Node000013_Node000014" class="edge">
<title>Node13&#45;&gt;Node14</title>
<g id="a_edge19_Node000013_Node000014"><a xlink:title=" ">
<path fill="none" stroke="#63b8ff" d="M426,-54.75C426,-47.8 426,-37.85 426,-29.13"/>
<polygon fill="#63b8ff" stroke="#63b8ff" points="429.5,-29.09 426,-19.09 422.5,-29.09 429.5,-29.09"/>
</a>
</g>
</g>
<!-- Node16&#45;&gt;Node3 -->
<g id="edge28_Node000016_Node000003" class="edge">
<title>Node16&#45;&gt;Node3</title>
<g id="a_edge28_Node000016_Node000003"><a xlink:title=" ">
<path fill="none" stroke="#63b8ff" d="M995.83,-274.93C1001.56,-256.8 1014,-213.13 1014,-175.5 1014,-175.5 1014,-175.5 1014,-118.5 1014,-79.47 980.39,-44.58 957.87,-25.6"/>
<polygon fill="#63b8ff" stroke="#63b8ff" points="959.85,-22.7 949.88,-19.12 955.44,-28.14 959.85,-22.7"/>
</a>
</g>
</g>
<!-- Node16&#45;&gt;Node4 -->
<g id="edge29_Node000016_Node000004" class="edge">
<title>Node16&#45;&gt;Node4</title>
<g id="a_edge29_Node000016_Node000004"><a xlink:title=" ">
<path fill="none" stroke="#63b8ff" d="M984.33,-274.66C966.46,-256.46 925.32,-214.55 902.67,-191.47"/>
<polygon fill="#63b8ff" stroke="#63b8ff" points="905,-188.84 895.5,-184.16 900,-193.75 905,-188.84"/>
</a>
</g>
</g>
<!-- Node17&#45;&gt;Node10 -->
<g id="edge31_Node000017_Node000010" class="edge">
<title>Node17&#45;&gt;Node10</title>
<g id="a_edge31_Node000017_Node000010"><a xlink:title=" ">
<path fill="none" stroke="#63b8ff" d="M222.89,-164.74C207.88,-138.98 163.68,-63.13 143.39,-28.33"/>
<polygon fill="#63b8ff" stroke="#63b8ff" points="146.19,-26.18 138.13,-19.31 140.14,-29.71 146.19,-26.18"/>
</a>
</g>
</g>
<!-- Node18 -->
<g id="Node000018" class="node">
<title>Node18</title>
<g id="a_Node000018"><a xlink:href="cid_8h.html" target="_top" xlink:title="Class IDs.">
<polygon fill="white" stroke="#666666" points="277,-129 237,-129 237,-110 277,-110 277,-129"/>
<text text-anchor="middle" x="257" y="-117" font-family="Helvetica,sans-Serif" font-size="10.00">cid.h</text>
</a>
</g>
</g>
<!-- Node17&#45;&gt;Node18 -->
<g id="edge32_Node000017_Node000018" class="edge">
<title>Node17&#45;&gt;Node18</title>
<g id="a_edge32_Node000017_Node000018"><a xlink:title=" ">
<path fill="none" stroke="#63b8ff" d="M232.79,-164.75C236.76,-157.49 242.53,-146.95 247.43,-137.98"/>
<polygon fill="#63b8ff" stroke="#63b8ff" points="250.57,-139.54 252.3,-129.09 244.43,-136.18 250.57,-139.54"/>
</a>
</g>
</g>
<!-- Node19&#45;&gt;Node10 -->
<g id="edge39_Node000019_Node000010" class="edge">
<title>Node19&#45;&gt;Node10</title>
<g id="a_edge39_Node000019_Node000010"><a xlink:title=" ">
<path fill="none" stroke="#63b8ff" d="M235.18,-329.91C184.96,-310.78 76,-259.57 76,-175.5 76,-175.5 76,-175.5 76,-118.5 76,-82.51 101.06,-46.76 117.95,-26.76"/>
<polygon fill="#63b8ff" stroke="#63b8ff" points="120.62,-29.02 124.59,-19.2 115.36,-24.4 120.62,-29.02"/>
</a>
</g>
</g>
<!-- Node20 -->
<g id="Node000020" class="node">
<title>Node20</title>
<g id="a_Node000020"><a xlink:href="transition_8h.html" target="_top" xlink:title="Level transitions.">
<polygon fill="white" stroke="#666666" points="290,-294 218,-294 218,-275 290,-275 290,-294"/>
<text text-anchor="middle" x="254" y="-282" font-family="Helvetica,sans-Serif" font-size="10.00">transition.h</text>
</a>
</g>
</g>
<!-- Node19&#45;&gt;Node20 -->
<g id="edge35_Node000019_Node000020" class="edge">
<title>Node19&#45;&gt;Node20</title>
<g id="a_edge35_Node000019_Node000020"><a xlink:title=" ">
<path fill="none" stroke="#63b8ff" d="M259.01,-329.75C258.22,-322.8 257.1,-312.85 256.11,-304.13"/>
<polygon fill="#63b8ff" stroke="#63b8ff" points="259.58,-303.63 254.97,-294.09 252.62,-304.42 259.58,-303.63"/>
</a>
</g>
</g>
<!-- Node22 -->
<g id="Node000022" class="node">
<title>Node22</title>
<g id="a_Node000022"><a xlink:href="joy_8h.html" target="_top" xlink:title="Joypad manager.">
<polygon fill="white" stroke="#666666" points="461.5,-294 422.5,-294 422.5,-275 461.5,-275 461.5,-294"/>
<text text-anchor="middle" x="442" y="-282" font-family="Helvetica,sans-Serif" font-size="10.00">joy.h</text>
</a>
</g>
</g>
<!-- Node19&#45;&gt;Node22 -->
<g id="edge40_Node000019_Node000022" class="edge">
<title>Node19&#45;&gt;Node22</title>
<g id="a_edge40_Node000019_Node000022"><a xlink:title=" ">
<path fill="none" stroke="#63b8ff" d="M284.55,-331.35C317.75,-321.68 376.91,-304.45 412.49,-294.09"/>
<polygon fill="#63b8ff" stroke="#63b8ff" points="413.67,-297.39 422.3,-291.24 411.72,-290.67 413.67,-297.39"/>
</a>
</g>
</g>
<!-- Node20&#45;&gt;Node10 -->
<g id="edge36_Node000020_Node000010" class="edge">
<title>Node20&#45;&gt;Node10</title>
<g id="a_edge36_Node000020_Node000010"><a xlink:title=" ">
<path fill="none" stroke="#63b8ff" d="M247.64,-274.84C235.52,-258.03 208.82,-219.5 192,-184 166.29,-129.73 146.42,-61.17 137.75,-28.9"/>
<polygon fill="#63b8ff" stroke="#63b8ff" points="141.1,-27.85 135.16,-19.07 134.33,-29.64 141.1,-27.85"/>
</a>
</g>
</g>
<!-- Node20&#45;&gt;Node17 -->
<g id="edge38_Node000020_Node000017" class="edge">
<title>Node20&#45;&gt;Node17</title>
<g id="a_edge38_Node000020_Node000017"><a xlink:title=" ">
<path fill="none" stroke="#63b8ff" d="M251.87,-274.66C247.64,-257.09 238.1,-217.45 232.44,-193.95"/>
<polygon fill="#63b8ff" stroke="#63b8ff" points="235.83,-193.06 230.08,-184.16 229.02,-194.7 235.83,-193.06"/>
</a>
</g>
</g>
<!-- Node21 -->
<g id="Node000021" class="node">
<title>Node21</title>
<g id="a_Node000021"><a xlink:href="cat_8h.html" target="_top" xlink:title="WAL catalog.">
<polygon fill="white" stroke="#666666" points="297.5,-239 256.5,-239 256.5,-220 297.5,-220 297.5,-239"/>
<text text-anchor="middle" x="277" y="-227" font-family="Helvetica,sans-Serif" font-size="10.00">cat.h</text>
</a>
</g>
</g>
<!-- Node20&#45;&gt;Node21 -->
<g id="edge37_Node000020_Node000021" class="edge">
<title>Node20&#45;&gt;Node21</title>
<g id="a_edge37_Node000020_Node000021"><a xlink:title=" ">
<path fill="none" stroke="#63b8ff" d="M257.8,-274.75C260.91,-267.57 265.42,-257.18 269.29,-248.27"/>
<polygon fill="#63b8ff" stroke="#63b8ff" points="272.5,-249.66 273.27,-239.09 266.08,-246.87 272.5,-249.66"/>
</a>
</g>
</g>
<!-- Node22&#45;&gt;Node7 -->
<g id="edge42_Node000022_Node000007" class="edge">
<title>Node22&#45;&gt;Node7</title>
<g id="a_edge42_Node000022_Node000007"><a xlink:title=" ">
<path fill="none" stroke="#63b8ff" d="M461.73,-279.95C500.22,-272.93 587.97,-256.41 661,-239 661.21,-238.95 661.42,-238.9 661.63,-238.85"/>
<polygon fill="#63b8ff" stroke="#63b8ff" points="662.55,-242.23 671.37,-236.36 660.82,-235.44 662.55,-242.23"/>
</a>
</g>
</g>
<!-- Node23 -->
<g id="Node000023" class="node">
<title>Node23</title>
<g id="a_Node000023"><a xlink:href="rumble_8h.html" target="_top" xlink:title="Joypad rumble.">
<polygon fill="white" stroke="#666666" points="462,-239 402,-239 402,-220 462,-220 462,-239"/>
<text text-anchor="middle" x="432" y="-227" font-family="Helvetica,sans-Serif" font-size="10.00">rumble.h</text>
</a>
</g>
</g>
<!-- Node22&#45;&gt;Node23 -->
<g id="edge41_Node000022_Node000023" class="edge">
<title>Node22&#45;&gt;Node23</title>
<g id="a_edge41_Node000022_Node000023"><a xlink:title=" ">
<path fill="none" stroke="#63b8ff" d="M440.35,-274.75C439.04,-267.8 437.16,-257.85 435.52,-249.13"/>
<polygon fill="#63b8ff" stroke="#63b8ff" points="438.91,-248.27 433.62,-239.09 432.04,-249.56 438.91,-248.27"/>
</a>
</g>
</g>
<!-- Node24&#45;&gt;Node3 -->
<g id="edge60_Node000024_Node000003" class="edge">
<title>Node24&#45;&gt;Node3</title>
<g id="a_edge60_Node000024_Node000003"><a xlink:title=" ">
<path fill="none" stroke="#63b8ff" d="M820.97,-384.62C850.9,-356.92 938,-268.36 938,-175.5 938,-175.5 938,-175.5 938,-118.5 938,-87.19 938,-50.77 938,-29.23"/>
<polygon fill="#63b8ff" stroke="#63b8ff" points="941.5,-29.18 938,-19.18 934.5,-29.18 941.5,-29.18"/>
</a>
</g>
</g>
<!-- Node24&#45;&gt;Node4 -->
<g id="edge61_Node000024_Node000004" class="edge">
<title>Node24&#45;&gt;Node4</title>
<g id="a_edge61_Node000024_Node000004"><a xlink:title=" ">
<path fill="none" stroke="#63b8ff" d="M813.98,-384.95C825.19,-352.81 864.96,-238.72 880.61,-193.83"/>
<polygon fill="#63b8ff" stroke="#63b8ff" points="883.97,-194.82 883.96,-184.22 877.36,-192.51 883.97,-194.82"/>
</a>
</g>
</g>
<!-- Node24&#45;&gt;Node16 -->
<g id="edge62_Node000024_Node000016" class="edge">
<title>Node24&#45;&gt;Node16</title>
<g id="a_edge62_Node000024_Node000016"><a xlink:title=" ">
<path fill="none" stroke="#63b8ff" d="M826.54,-384.98C842.55,-376.15 868.17,-361.87 890,-349 918.09,-332.44 949.98,-312.61 970.74,-299.57"/>
<polygon fill="#63b8ff" stroke="#63b8ff" points="972.84,-302.39 979.44,-294.1 969.11,-296.46 972.84,-302.39"/>
</a>
</g>
</g>
<!-- Node24&#45;&gt;Node21 -->
<g id="edge63_Node000024_Node000021" class="edge">
<title>Node24&#45;&gt;Node21</title>
<g id="a_edge63_Node000024_Node000021"><a xlink:title=" ">
<path fill="none" stroke="#63b8ff" d="M790.9,-390.69C749.9,-384.74 653.84,-369.71 575,-349 501.46,-329.69 483.55,-322.35 413,-294 374.02,-278.34 330.21,-257.22 303.1,-243.73"/>
<polygon fill="#63b8ff" stroke="#63b8ff" points="304.42,-240.48 293.91,-239.13 301.29,-246.74 304.42,-240.48"/>
</a>
</g>
</g>
<!-- Node25 -->
<g id="Node000025" class="node">
<title>Node25</title>
<g id="a_Node000025"><a xlink:href="prog_8h.html" target="_top" xlink:title="Progress bar.">
<polygon fill="white" stroke="#666666" points="697.5,-349 650.5,-349 650.5,-330 697.5,-330 697.5,-349"/>
<text text-anchor="middle" x="674" y="-337" font-family="Helvetica,sans-Serif" font-size="10.00">prog.h</text>
</a>
</g>
</g>
<!-- Node24&#45;&gt;Node25 -->
<g id="edge44_Node000024_Node000025" class="edge">
<title>Node24&#45;&gt;Node25</title>
<g id="a_edge44_Node000024_Node000025"><a xlink:title=" ">
<path fill="none" stroke="#63b8ff" d="M790.79,-385.68C768.35,-377 731.84,-362.88 705.61,-352.73"/>
<polygon fill="#63b8ff" stroke="#63b8ff" points="706.71,-349.4 696.12,-349.06 704.18,-355.93 706.71,-349.4"/>
</a>
</g>
</g>
<!-- Node36 -->
<g id="Node000036" class="node">
<title>Node36</title>
<g id="a_Node000036"><a xlink:href="clock_8h.html" target="_top" xlink:title="Engine clock.">
<polygon fill="white" stroke="#666666" points="809.5,-349 758.5,-349 758.5,-330 809.5,-330 809.5,-349"/>
<text text-anchor="middle" x="784" y="-337" font-family="Helvetica,sans-Serif" font-size="10.00">clock.h</text>
</a>
</g>
</g>
<!-- Node24&#45;&gt;Node36 -->
<g id="edge59_Node000024_Node000036" class="edge">
<title>Node24&#45;&gt;Node36</title>
<g id="a_edge59_Node000024_Node000036"><a xlink:title=" ">
<path fill="none" stroke="#63b8ff" d="M806.54,-384.75C802.88,-377.57 797.59,-367.18 793.05,-358.27"/>
<polygon fill="#63b8ff" stroke="#63b8ff" points="796.03,-356.41 788.38,-349.09 789.8,-359.59 796.03,-356.41"/>
</a>
</g>
</g>
<!-- Node37 -->
<g id="Node000037" class="node">
<title>Node37</title>
<g id="a_Node000037"><a xlink:href="bsp_8h.html" target="_top" xlink:title="Binary Space Partitioning.">
<polygon fill="white" stroke="#666666" points="1061.5,-349 1018.5,-349 1018.5,-330 1061.5,-330 1061.5,-349"/>
<text text-anchor="middle" x="1040" y="-337" font-family="Helvetica,sans-Serif" font-size="10.00">bsp.h</text>
</a>
</g>
</g>
<!-- Node24&#45;&gt;Node37 -->
<g id="edge64_Node000024_Node000037" class="edge">
<title>Node24&#45;&gt;Node37</title>
<g id="a_edge64_Node000024_Node000037"><a xlink:title=" ">
<path fill="none" stroke="#63b8ff" d="M831.32,-388.8C871.4,-379.52 960.87,-358.81 1008.6,-347.77"/>
<polygon fill="#63b8ff" stroke="#63b8ff" points="1009.44,-351.17 1018.39,-345.5 1007.86,-344.35 1009.44,-351.17"/>
</a>
</g>
</g>
<!-- Node26 -->
<g id="Node000026" class="node">
<title>Node26</title>
<g id="a_Node000026"><a xlink:href="binoc_8h.html" target="_top" xlink:title="Binoc&#45;u&#45;com.">
<polygon fill="white" stroke="#666666" points="646,-294 594,-294 594,-275 646,-275 646,-294"/>
<text text-anchor="middle" x="620" y="-282" font-family="Helvetica,sans-Serif" font-size="10.00">binoc.h</text>
</a>
</g>
</g>
<!-- Node25&#45;&gt;Node26 -->
<g id="edge45_Node000025_Node000026" class="edge">
<title>Node25&#45;&gt;Node26</title>
<g id="a_edge45_Node000025_Node000026"><a xlink:title=" ">
<path fill="none" stroke="#63b8ff" d="M665.08,-329.75C657.22,-322.03 645.57,-310.6 636.08,-301.28"/>
<polygon fill="#63b8ff" stroke="#63b8ff" points="638.34,-298.6 628.75,-294.09 633.44,-303.59 638.34,-298.6"/>
</a>
</g>
</g>
<!-- Node26&#45;&gt;Node7 -->
<g id="edge58_Node000026_Node000007" class="edge">
<title>Node26&#45;&gt;Node7</title>
<g id="a_edge58_Node000026_Node000007"><a xlink:title=" ">
<path fill="none" stroke="#63b8ff" d="M631.57,-274.98C642.42,-267 658.88,-254.88 671.88,-245.31"/>
<polygon fill="#63b8ff" stroke="#63b8ff" points="674.24,-247.92 680.22,-239.17 670.09,-242.28 674.24,-247.92"/>
</a>
</g>
</g>
<!-- Node27 -->
<g id="Node000027" class="node">
<title>Node27</title>
<g id="a_Node000027"><a xlink:href="screen_8h.html" target="_top" xlink:title="GUI elements.">
<polygon fill="white" stroke="#666666" points="652,-239 594,-239 594,-220 652,-220 652,-239"/>
<text text-anchor="middle" x="623" y="-227" font-family="Helvetica,sans-Serif" font-size="10.00">screen.h</text>
</a>
</g>
</g>
<!-- Node26&#45;&gt;Node27 -->
<g id="edge46_Node000026_Node000027" class="edge">
<title>Node26&#45;&gt;Node27</title>
<g id="a_edge46_Node000026_Node000027"><a xlink:title=" ">
<path fill="none" stroke="#63b8ff" d="M620.5,-274.75C620.89,-267.8 621.45,-257.85 621.95,-249.13"/>
<polygon fill="#63b8ff" stroke="#63b8ff" points="625.44,-249.27 622.51,-239.09 618.45,-248.88 625.44,-249.27"/>
</a>
</g>
</g>
<!-- Node27&#45;&gt;Node17 -->
<g id="edge57_Node000027_Node000017" class="edge">
<title>Node27&#45;&gt;Node17</title>
<g id="a_edge57_Node000027_Node000017"><a xlink:title=" ">
<path fill="none" stroke="#63b8ff" d="M593.95,-224.6C523.42,-215.14 343.18,-190.95 265.05,-180.47"/>
<polygon fill="#63b8ff" stroke="#63b8ff" points="265.1,-176.95 254.72,-179.09 264.17,-183.88 265.1,-176.95"/>
</a>
</g>
</g>
<!-- Node28 -->
<g id="Node000028" class="node">
<title>Node28</title>
<g id="a_Node000028"><a xlink:href="font_8h.html" target="_top" xlink:title="Font system.">
<polygon fill="white" stroke="#666666" points="698.5,-184 653.5,-184 653.5,-165 698.5,-165 698.5,-184"/>
<text text-anchor="middle" x="676" y="-172" font-family="Helvetica,sans-Serif" font-size="10.00">font.h</text>
</a>
</g>
</g>
<!-- Node27&#45;&gt;Node28 -->
<g id="edge47_Node000027_Node000028" class="edge">
<title>Node27&#45;&gt;Node28</title>
<g id="a_edge47_Node000027_Node000028"><a xlink:title=" ">
<path fill="none" stroke="#63b8ff" d="M631.75,-219.75C639.47,-212.03 650.9,-200.6 660.22,-191.28"/>
<polygon fill="#63b8ff" stroke="#63b8ff" points="662.81,-193.64 667.41,-184.09 657.86,-188.69 662.81,-193.64"/>
</a>
</g>
</g>
<!-- Node29 -->
<g id="Node000029" class="node">
<title>Node29</title>
<g id="a_Node000029"><a xlink:href="gifs_8h.html" target="_top" xlink:title=" ">
<polygon fill="white" stroke="#666666" points="676,-129 632,-129 632,-110 676,-110 676,-129"/>
<text text-anchor="middle" x="654" y="-117" font-family="Helvetica,sans-Serif" font-size="10.00">gifs.h</text>
</a>
</g>
</g>
<!-- Node28&#45;&gt;Node29 -->
<g id="edge48_Node000028_Node000029" class="edge">
<title>Node28&#45;&gt;Node29</title>
<g id="a_edge48_Node000028_Node000029"><a xlink:title=" ">
<path fill="none" stroke="#63b8ff" d="M672.37,-164.75C669.42,-157.65 665.17,-147.4 661.49,-138.56"/>
<polygon fill="#63b8ff" stroke="#63b8ff" points="664.63,-136.98 657.57,-129.09 658.17,-139.67 664.63,-136.98"/>
</a>
</g>
</g>
<!-- Node30 -->
<g id="Node000030" class="node">
<title>Node30</title>
<g id="a_Node000030"><a xlink:href="dmas_8h.html" target="_top" xlink:title="Direct memory access.">
<polygon fill="white" stroke="#666666" points="686.5,-74 633.5,-74 633.5,-55 686.5,-55 686.5,-74"/>
<text text-anchor="middle" x="660" y="-62" font-family="Helvetica,sans-Serif" font-size="10.00">dmas.h</text>
</a>
</g>
</g>
<!-- Node28&#45;&gt;Node30 -->
<g id="edge53_Node000028_Node000030" class="edge">
<title>Node28&#45;&gt;Node30</title>
<g id="a_edge53_Node000028_Node000030"><a xlink:title=" ">
<path fill="none" stroke="#63b8ff" d="M659.42,-164.87C646.83,-157.3 630.46,-145.01 623,-129 615.14,-112.14 628.23,-93.9 640.95,-81.31"/>
<polygon fill="#63b8ff" stroke="#63b8ff" points="643.63,-83.6 648.64,-74.26 638.9,-78.44 643.63,-83.6"/>
</a>
</g>
</g>
<!-- Node33 -->
<g id="Node000033" class="node">
<title>Node33</title>
<g id="a_Node000033"><a xlink:href="eestruct_8h.html" target="_top" xlink:title="Graphics synthesizer.">
<polygon fill="white" stroke="#666666" points="795.5,-129 694.5,-129 694.5,-110 795.5,-110 795.5,-129"/>
<text text-anchor="middle" x="745" y="-117" font-family="Helvetica,sans-Serif" font-size="10.00">sdk/ee/eestruct.h</text>
</a>
</g>
</g>
<!-- Node28&#45;&gt;Node33 -->
<g id="edge54_Node000028_Node000033" class="edge">
<title>Node28&#45;&gt;Node33</title>
<g id="a_edge54_Node000028_Node000033"><a xlink:title=" ">
<path fill="none" stroke="#63b8ff" d="M687.09,-164.98C697.49,-157 713.26,-144.88 725.72,-135.31"/>
<polygon fill="#63b8ff" stroke="#63b8ff" points="727.91,-138.04 733.71,-129.17 723.65,-132.49 727.91,-138.04"/>
</a>
</g>
</g>
<!-- Node29&#45;&gt;Node30 -->
<g id="edge49_Node000029_Node000030" class="edge">
<title>Node29&#45;&gt;Node30</title>
<g id="a_edge49_Node000029_Node000030"><a xlink:title=" ">
<path fill="none" stroke="#63b8ff" d="M654.99,-109.75C655.78,-102.8 656.9,-92.85 657.89,-84.13"/>
<polygon fill="#63b8ff" stroke="#63b8ff" points="661.38,-84.42 659.03,-74.09 654.42,-83.63 661.38,-84.42"/>
</a>
</g>
</g>
<!-- Node30&#45;&gt;Node3 -->
<g id="edge52_Node000030_Node000003" class="edge">
<title>Node30&#45;&gt;Node3</title>
<g id="a_edge52_Node000030_Node000003"><a xlink:title=" ">
<path fill="none" stroke="#63b8ff" d="M686.66,-58.42C738.24,-48.58 851.46,-27 906.59,-16.49"/>
<polygon fill="#63b8ff" stroke="#63b8ff" points="907.33,-19.91 916.5,-14.6 906.02,-13.03 907.33,-19.91"/>
</a>
</g>
</g>
<!-- Node31 -->
<g id="Node000031" class="node">
<title>Node31</title>
<g id="a_Node000031"><a xlink:href="libdma_8h.html" target="_top" xlink:title="Direct memory access library.">
<polygon fill="white" stroke="#666666" points="699.5,-19 620.5,-19 620.5,0 699.5,0 699.5,-19"/>
<text text-anchor="middle" x="660" y="-7" font-family="Helvetica,sans-Serif" font-size="10.00">sce/libdma.h</text>
</a>
</g>
</g>
<!-- Node30&#45;&gt;Node31 -->
<g id="edge50_Node000030_Node000031" class="edge">
<title>Node30&#45;&gt;Node31</title>
<g id="a_edge50_Node000030_Node000031"><a xlink:title=" ">
<path fill="none" stroke="#63b8ff" d="M660,-54.75C660,-47.8 660,-37.85 660,-29.13"/>
<polygon fill="#63b8ff" stroke="#63b8ff" points="663.5,-29.09 660,-19.09 656.5,-29.09 663.5,-29.09"/>
</a>
</g>
</g>
<!-- Node32 -->
<g id="Node000032" class="node">
<title>Node32</title>
<g id="a_Node000032"><a xlink:href="eekernel_8h.html" target="_top" xlink:title=" ">
<polygon fill="white" stroke="#666666" points="602.5,-19 499.5,-19 499.5,0 602.5,0 602.5,-19"/>
<text text-anchor="middle" x="551" y="-7" font-family="Helvetica,sans-Serif" font-size="10.00">sdk/ee/eekernel.h</text>
</a>
</g>
</g>
<!-- Node30&#45;&gt;Node32 -->
<g id="edge51_Node000030_Node000032" class="edge">
<title>Node30&#45;&gt;Node32</title>
<g id="a_edge51_Node000030_Node000032"><a xlink:title=" ">
<path fill="none" stroke="#63b8ff" d="M642.49,-54.98C625.03,-46.5 597.99,-33.35 577.83,-23.54"/>
<polygon fill="#63b8ff" stroke="#63b8ff" points="579.36,-20.4 568.83,-19.17 576.29,-26.69 579.36,-20.4"/>
</a>
</g>
</g>
<!-- Node34 -->
<g id="Node000034" class="node">
<title>Node34</title>
<g id="a_Node000034"><a xlink:href="types_8h.html" target="_top" xlink:title="Common types used across the codebase.">
<polygon fill="white" stroke="#666666" points="771.5,-74 718.5,-74 718.5,-55 771.5,-55 771.5,-74"/>
<text text-anchor="middle" x="745" y="-62" font-family="Helvetica,sans-Serif" font-size="10.00">types.h</text>
</a>
</g>
</g>
<!-- Node33&#45;&gt;Node34 -->
<g id="edge55_Node000033_Node000034" class="edge">
<title>Node33&#45;&gt;Node34</title>
<g id="a_edge55_Node000033_Node000034"><a xlink:title=" ">
<path fill="none" stroke="#63b8ff" d="M745,-109.75C745,-102.8 745,-92.85 745,-84.13"/>
<polygon fill="#63b8ff" stroke="#63b8ff" points="748.5,-84.09 745,-74.09 741.5,-84.09 748.5,-84.09"/>
</a>
</g>
</g>
<!-- Node35 -->
<g id="Node000035" class="node">
<title>Node35</title>
<g id="a_Node000035"><a xlink:title=" ">
<polygon fill="#e0e0e0" stroke="#999999" points="773,-19 717,-19 717,0 773,0 773,-19"/>
<text text-anchor="middle" x="745" y="-7" font-family="Helvetica,sans-Serif" font-size="10.00">stddef.h</text>
</a>
</g>
</g>
<!-- Node34&#45;&gt;Node35 -->
<g id="edge56_Node000034_Node000035" class="edge">
<title>Node34&#45;&gt;Node35</title>
<g id="a_edge56_Node000034_Node000035"><a xlink:title=" ">
<path fill="none" stroke="#63b8ff" d="M745,-54.75C745,-47.8 745,-37.85 745,-29.13"/>
<polygon fill="#63b8ff" stroke="#63b8ff" points="748.5,-29.09 745,-19.09 741.5,-29.09 748.5,-29.09"/>
</a>
</g>
</g>
<!-- Node37&#45;&gt;Node3 -->
<g id="edge66_Node000037_Node000003" class="edge">
<title>Node37&#45;&gt;Node3</title>
<g id="a_edge66_Node000037_Node000003"><a xlink:title=" ">
<path fill="none" stroke="#63b8ff" d="M1041.62,-329.86C1044.89,-311.59 1052,-267.66 1052,-230.5 1052,-230.5 1052,-230.5 1052,-118.5 1052,-72.47 1002.42,-40.18 968.65,-23.53"/>
<polygon fill="#63b8ff" stroke="#63b8ff" points="969.71,-20.16 959.18,-19.05 966.72,-26.49 969.71,-20.16"/>
</a>
</g>
</g>
<!-- Node37&#45;&gt;Node16 -->
<g id="edge65_Node000037_Node000016" class="edge">
<title>Node37&#45;&gt;Node16</title>
<g id="a_edge65_Node000037_Node000016"><a xlink:title=" ">
<path fill="none" stroke="#63b8ff" d="M1032.24,-329.75C1025.53,-322.18 1015.66,-311.05 1007.49,-301.84"/>
<polygon fill="#63b8ff" stroke="#63b8ff" points="1009.87,-299.25 1000.62,-294.09 1004.63,-303.89 1009.87,-299.25"/>
</a>
</g>
</g>
<!-- Node38&#45;&gt;Node5 -->
<g id="edge68_Node000038_Node000005" class="edge">
<title>Node38&#45;&gt;Node5</title>
<g id="a_edge68_Node000038_Node000005"><a xlink:title=" ">
<path fill="none" stroke="#63b8ff" d="M600.33,-439.66C600.98,-422.17 602.43,-382.8 603.3,-359.27"/>
<polygon fill="#63b8ff" stroke="#63b8ff" points="606.81,-359.28 603.68,-349.16 599.81,-359.02 606.81,-359.28"/>
</a>
</g>
</g>
<!-- Node38&#45;&gt;Node9 -->
<g id="edge70_Node000038_Node000009" class="edge">
<title>Node38&#45;&gt;Node9</title>
<g id="a_edge70_Node000038_Node000009"><a xlink:title=" ">
<path fill="none" stroke="#63b8ff" d="M584.91,-439.85C549.91,-419.08 462.45,-362.96 413,-294 400.07,-275.96 350.19,-134.88 332.37,-83.84"/>
<polygon fill="#63b8ff" stroke="#63b8ff" points="335.59,-82.44 329,-74.15 328.98,-84.74 335.59,-82.44"/>
</a>
</g>
</g>
<!-- Node38&#45;&gt;Node24 -->
<g id="edge69_Node000038_Node000024" class="edge">
<title>Node38&#45;&gt;Node24</title>
<g id="a_edge69_Node000038_Node000024"><a xlink:title=" ">
<path fill="none" stroke="#63b8ff" d="M626.3,-441.89C665.71,-431.99 739.88,-413.36 781.23,-402.98"/>
<polygon fill="#63b8ff" stroke="#63b8ff" points="782.15,-406.36 790.99,-400.53 780.44,-399.57 782.15,-406.36"/>
</a>
</g>
</g>
<!-- Node39&#45;&gt;Node10 -->
<g id="edge72_Node000039_Node000010" class="edge">
<title>Node39&#45;&gt;Node10</title>
<g id="a_edge72_Node000039_Node000010"><a xlink:title=" ">
<path fill="none" stroke="#63b8ff" d="M102.15,-439.74C87.76,-406.21 38,-282.47 38,-175.5 38,-175.5 38,-175.5 38,-118.5 38,-75.91 80.16,-42.14 108.31,-24.33"/>
<polygon fill="#63b8ff" stroke="#63b8ff" points="110.16,-27.31 116.88,-19.12 106.52,-21.32 110.16,-27.31"/>
</a>
</g>
</g>
<!-- Node40&#45;&gt;Node3 -->
<g id="edge75_Node000040_Node000003" class="edge">
<title>Node40&#45;&gt;Node3</title>
<g id="a_edge75_Node000040_Node000003"><a xlink:title=" ">
<path fill="none" stroke="#63b8ff" d="M658.6,-503.25C747.02,-501.01 1090,-479.78 1090,-285.5 1090,-285.5 1090,-285.5 1090,-118.5 1090,-59.94 1014.09,-30.21 969.56,-17.81"/>
<polygon fill="#63b8ff" stroke="#63b8ff" points="970.34,-14.39 959.78,-15.22 968.55,-21.16 970.34,-14.39"/>
</a>
</g>
</g>
<!-- Node40&#45;&gt;Node5 -->
<g id="edge77_Node000040_Node000005" class="edge">
<title>Node40&#45;&gt;Node5</title>
<g id="a_edge77_Node000040_Node000005"><a xlink:title=" ">
<path fill="none" stroke="#63b8ff" d="M638.28,-494.8C638.53,-482.49 638.41,-459.35 635,-440 629.85,-410.83 618.62,-378.29 611.18,-358.61"/>
<polygon fill="#63b8ff" stroke="#63b8ff" points="614.37,-357.16 607.5,-349.1 607.84,-359.69 614.37,-357.16"/>
</a>
</g>
</g>
<!-- Node40&#45;&gt;Node12 -->
<g id="edge78_Node000040_Node000012" class="edge">
<title>Node40&#45;&gt;Node12</title>
<g id="a_edge78_Node000040_Node000012"><a xlink:title=" ">
<path fill="none" stroke="#63b8ff" d="M620.73,-494.95C581.69,-474.28 490,-417.52 490,-340.5 490,-340.5 490,-340.5 490,-228.5 490,-195.87 502.87,-159.65 511.75,-138.55"/>
<polygon fill="#63b8ff" stroke="#63b8ff" points="515.02,-139.8 515.83,-129.23 508.61,-136.99 515.02,-139.8"/>
</a>
</g>
</g>
<!-- Node40&#45;&gt;Node24 -->
<g id="edge76_Node000040_Node000024" class="edge">
<title>Node40&#45;&gt;Node24</title>
<g id="a_edge76_Node000040_Node000024"><a xlink:title=" ">
<path fill="none" stroke="#63b8ff" d="M651.86,-494.84C681.6,-476.28 751.75,-432.49 788.17,-409.75"/>
<polygon fill="#63b8ff" stroke="#63b8ff" points="790.44,-412.46 797.07,-404.2 786.73,-406.52 790.44,-412.46"/>
</a>
</g>
</g>
<!-- Node40&#45;&gt;Node38 -->
<g id="edge74_Node000040_Node000038" class="edge">
<title>Node40&#45;&gt;Node38</title>
<g id="a_edge74_Node000040_Node000038"><a xlink:title=" ">
<path fill="none" stroke="#63b8ff" d="M631.73,-494.75C626.41,-487.34 618.64,-476.5 612.12,-467.41"/>
<polygon fill="#63b8ff" stroke="#63b8ff" points="614.83,-465.18 606.16,-459.09 609.14,-469.26 614.83,-465.18"/>
</a>
</g>
</g>
</g>
</svg>
