<?xml version="1.0" encoding="UTF-8" standalone="no"?>
<!DOCTYPE svg PUBLIC "-//W3C//DTD SVG 1.1//EN"
 "http://www.w3.org/Graphics/SVG/1.1/DTD/svg11.dtd">
<!-- Generated by graphviz version 2.43.0 (0)
 -->
<!-- Title: src/P2/thread.c Pages: 1 -->
<svg width="364pt" height="196pt"
 viewBox="0.00 0.00 363.50 196.00" xmlns="http://www.w3.org/2000/svg" xmlns:xlink="http://www.w3.org/1999/xlink">
<g id="graph0" class="graph" transform="scale(1 1) rotate(0) translate(4 192)">
<title>src/P2/thread.c</title>
<polygon fill="white" stroke="transparent" points="-4,4 -4,-192 359.5,-192 359.5,4 -4,4"/>
<!-- Node1 -->
<g id="node1" class="node">
<title>Node1</title>
<g id="a_node1"><a xlink:title=" ">
<polygon fill="#bfbfbf" stroke="black" points="157,-168.5 157,-187.5 246,-187.5 246,-168.5 157,-168.5"/>
<text text-anchor="middle" x="201.5" y="-175.5" font-family="Helvetica,sans-Serif" font-size="10.00">src/P2/thread.c</text>
</a>
</g>
</g>
<!-- Node2 -->
<g id="node2" class="node">
<title>Node2</title>
<g id="a_node2"><a xlink:href="kernel_8h.html" target="_top" xlink:title="Control for semaphores and threads.">
<polygon fill="white" stroke="black" points="20,-112.5 20,-131.5 95,-131.5 95,-112.5 20,-112.5"/>
<text text-anchor="middle" x="57.5" y="-119.5" font-family="Helvetica,sans-Serif" font-size="10.00">sce/kernel.h</text>
</a>
</g>
</g>
<!-- Node1&#45;&gt;Node2 -->
<g id="edge1" class="edge">
<title>Node1&#45;&gt;Node2</title>
<path fill="none" stroke="midnightblue" d="M178.68,-168.44C154.67,-159.44 116.67,-145.19 89.63,-135.05"/>
<polygon fill="midnightblue" stroke="midnightblue" points="90.8,-131.75 80.21,-131.52 88.34,-138.3 90.8,-131.75"/>
</g>
<!-- Node8 -->
<g id="node8" class="node">
<title>Node8</title>
<g id="a_node8"><a xlink:href="memset_8h.html" target="_top" xlink:title="Memset.">
<polygon fill="white" stroke="black" points="113.5,-112.5 113.5,-131.5 199.5,-131.5 199.5,-112.5 113.5,-112.5"/>
<text text-anchor="middle" x="156.5" y="-119.5" font-family="Helvetica,sans-Serif" font-size="10.00">sce/memset.h</text>
</a>
</g>
</g>
<!-- Node1&#45;&gt;Node8 -->
<g id="edge7" class="edge">
<title>Node1&#45;&gt;Node8</title>
<path fill="none" stroke="midnightblue" d="M194.07,-168.08C187.65,-160.38 178.19,-149.03 170.38,-139.65"/>
<polygon fill="midnightblue" stroke="midnightblue" points="172.88,-137.19 163.79,-131.75 167.51,-141.67 172.88,-137.19"/>
</g>
<!-- Node9 -->
<g id="node9" class="node">
<title>Node9</title>
<g id="a_node9"><a xlink:href="thread_8h.html" target="_top" xlink:title="Semaphore, thread, and critical section utilities.">
<polygon fill="white" stroke="black" points="218,-112.5 218,-131.5 275,-131.5 275,-112.5 218,-112.5"/>
<text text-anchor="middle" x="246.5" y="-119.5" font-family="Helvetica,sans-Serif" font-size="10.00">thread.h</text>
</a>
</g>
</g>
<!-- Node1&#45;&gt;Node9 -->
<g id="edge9" class="edge">
<title>Node1&#45;&gt;Node9</title>
<path fill="none" stroke="midnightblue" d="M208.93,-168.08C215.35,-160.38 224.81,-149.03 232.62,-139.65"/>
<polygon fill="midnightblue" stroke="midnightblue" points="235.49,-141.67 239.21,-131.75 230.12,-137.19 235.49,-141.67"/>
</g>
<!-- Node10 -->
<g id="node10" class="node">
<title>Node10</title>
<g id="a_node10"><a xlink:href="frm_8h.html" target="_top" xlink:title="Frame manager.">
<polygon fill="white" stroke="black" points="293,-112.5 293,-131.5 336,-131.5 336,-112.5 293,-112.5"/>
<text text-anchor="middle" x="314.5" y="-119.5" font-family="Helvetica,sans-Serif" font-size="10.00">frm.h</text>
</a>
</g>
</g>
<!-- Node1&#45;&gt;Node10 -->
<g id="edge11" class="edge">
<title>Node1&#45;&gt;Node10</title>
<path fill="none" stroke="midnightblue" d="M219.41,-168.44C237.75,-159.68 266.51,-145.94 287.59,-135.86"/>
<polygon fill="midnightblue" stroke="midnightblue" points="289.17,-138.99 296.68,-131.52 286.15,-132.67 289.17,-138.99"/>
</g>
<!-- Node3 -->
<g id="node3" class="node">
<title>Node3</title>
<g id="a_node3"><a xlink:href="common_8h.html" target="_top" xlink:title="Common header file.">
<polygon fill="white" stroke="black" points="167.5,-56.5 167.5,-75.5 235.5,-75.5 235.5,-56.5 167.5,-56.5"/>
<text text-anchor="middle" x="201.5" y="-63.5" font-family="Helvetica,sans-Serif" font-size="10.00">common.h</text>
</a>
</g>
</g>
<!-- Node2&#45;&gt;Node3 -->
<g id="edge2" class="edge">
<title>Node2&#45;&gt;Node3</title>
<path fill="none" stroke="midnightblue" d="M80.32,-112.44C104.33,-103.44 142.33,-89.19 169.37,-79.05"/>
<polygon fill="midnightblue" stroke="midnightblue" points="170.66,-82.3 178.79,-75.52 168.2,-75.75 170.66,-82.3"/>
</g>
<!-- Node4 -->
<g id="node4" class="node">
<title>Node4</title>
<g id="a_node4"><a xlink:href="include__asm_8h.html" target="_top" xlink:title=" ">
<polygon fill="white" stroke="black" points="0,-0.5 0,-19.5 87,-19.5 87,-0.5 0,-0.5"/>
<text text-anchor="middle" x="43.5" y="-7.5" font-family="Helvetica,sans-Serif" font-size="10.00">include_asm.h</text>
</a>
</g>
</g>
<!-- Node3&#45;&gt;Node4 -->
<g id="edge3" class="edge">
<title>Node3&#45;&gt;Node4</title>
<path fill="none" stroke="midnightblue" d="M176.46,-56.44C149.88,-47.36 107.69,-32.94 77.98,-22.78"/>
<polygon fill="midnightblue" stroke="midnightblue" points="79.01,-19.44 68.42,-19.52 76.75,-26.06 79.01,-19.44"/>
</g>
<!-- Node5 -->
<g id="node5" class="node">
<title>Node5</title>
<g id="a_node5"><a xlink:href="include__rodata_8h.html" target="_top" xlink:title=" ">
<polygon fill="white" stroke="black" points="105.5,-0.5 105.5,-19.5 203.5,-19.5 203.5,-0.5 105.5,-0.5"/>
<text text-anchor="middle" x="154.5" y="-7.5" font-family="Helvetica,sans-Serif" font-size="10.00">include_rodata.h</text>
</a>
</g>
</g>
<!-- Node3&#45;&gt;Node5 -->
<g id="edge4" class="edge">
<title>Node3&#45;&gt;Node5</title>
<path fill="none" stroke="midnightblue" d="M193.74,-56.08C186.96,-48.3 176.96,-36.8 168.74,-27.37"/>
<polygon fill="midnightblue" stroke="midnightblue" points="171.32,-25 162.12,-19.75 166.04,-29.59 171.32,-25"/>
</g>
<!-- Node6 -->
<g id="node6" class="node">
<title>Node6</title>
<g id="a_node6"><a xlink:href="types_8h.html" target="_top" xlink:title="Common types used across the codebase.">
<polygon fill="white" stroke="black" points="222,-0.5 222,-19.5 275,-19.5 275,-0.5 222,-0.5"/>
<text text-anchor="middle" x="248.5" y="-7.5" font-family="Helvetica,sans-Serif" font-size="10.00">types.h</text>
</a>
</g>
</g>
<!-- Node3&#45;&gt;Node6 -->
<g id="edge5" class="edge">
<title>Node3&#45;&gt;Node6</title>
<path fill="none" stroke="midnightblue" d="M209.26,-56.08C216.04,-48.3 226.04,-36.8 234.26,-27.37"/>
<polygon fill="midnightblue" stroke="midnightblue" points="236.96,-29.59 240.88,-19.75 231.68,-25 236.96,-29.59"/>
</g>
<!-- Node7 -->
<g id="node7" class="node">
<title>Node7</title>
<g id="a_node7"><a xlink:href="vtables_8h.html" target="_top" xlink:title="Manually crafted vtables for various structs.">
<polygon fill="white" stroke="black" points="293.5,-0.5 293.5,-19.5 355.5,-19.5 355.5,-0.5 293.5,-0.5"/>
<text text-anchor="middle" x="324.5" y="-7.5" font-family="Helvetica,sans-Serif" font-size="10.00">vtables.h</text>
</a>
</g>
</g>
<!-- Node3&#45;&gt;Node7 -->
<g id="edge6" class="edge">
<title>Node3&#45;&gt;Node7</title>
<path fill="none" stroke="midnightblue" d="M220.99,-56.44C241.14,-47.6 272.82,-33.69 295.83,-23.59"/>
<polygon fill="midnightblue" stroke="midnightblue" points="297.35,-26.74 305.1,-19.52 294.54,-20.33 297.35,-26.74"/>
</g>
<!-- Node8&#45;&gt;Node3 -->
<g id="edge8" class="edge">
<title>Node8&#45;&gt;Node3</title>
<path fill="none" stroke="midnightblue" d="M163.93,-112.08C170.35,-104.38 179.81,-93.03 187.62,-83.65"/>
<polygon fill="midnightblue" stroke="midnightblue" points="190.49,-85.67 194.21,-75.75 185.12,-81.19 190.49,-85.67"/>
</g>
<!-- Node9&#45;&gt;Node3 -->
<g id="edge10" class="edge">
<title>Node9&#45;&gt;Node3</title>
<path fill="none" stroke="midnightblue" d="M239.07,-112.08C232.65,-104.38 223.19,-93.03 215.38,-83.65"/>
<polygon fill="midnightblue" stroke="midnightblue" points="217.88,-81.19 208.79,-75.75 212.51,-85.67 217.88,-81.19"/>
</g>
<!-- Node10&#45;&gt;Node3 -->
<g id="edge12" class="edge">
<title>Node10&#45;&gt;Node3</title>
<path fill="none" stroke="midnightblue" d="M296.59,-112.44C278.25,-103.68 249.49,-89.94 228.41,-79.86"/>
<polygon fill="midnightblue" stroke="midnightblue" points="229.85,-76.67 219.32,-75.52 226.83,-82.99 229.85,-76.67"/>
</g>
</g>
</svg>
