<?xml version="1.0" encoding="UTF-8" standalone="no"?>
<!DOCTYPE svg PUBLIC "-//W3C//DTD SVG 1.1//EN"
 "http://www.w3.org/Graphics/SVG/1.1/DTD/svg11.dtd">
<!-- Generated by graphviz version 2.43.0 (0)
 -->
<!-- Title: src/P2/thread.c Pages: 1 -->
<svg width="352pt" height="140pt"
 viewBox="0.00 0.00 352.00 140.00" xmlns="http://www.w3.org/2000/svg" xmlns:xlink="http://www.w3.org/1999/xlink">
<g id="graph0" class="graph" transform="scale(1 1) rotate(0) translate(4 136)">
<title>src/P2/thread.c</title>
<polygon fill="white" stroke="transparent" points="-4,4 -4,-136 348,-136 348,4 -4,4"/>
<!-- Node1 -->
<g id="node1" class="node">
<title>Node1</title>
<g id="a_node1"><a xlink:title=" ">
<polygon fill="#bfbfbf" stroke="black" points="165,-112.5 165,-131.5 254,-131.5 254,-112.5 165,-112.5"/>
<text text-anchor="middle" x="209.5" y="-119.5" font-family="Helvetica,sans-Serif" font-size="10.00">src/P2/thread.c</text>
</a>
</g>
</g>
<!-- Node2 -->
<g id="node2" class="node">
<title>Node2</title>
<g id="a_node2"><a xlink:href="eekernel_8h.html" target="_top" xlink:title=" ">
<polygon fill="white" stroke="black" points="0,-56.5 0,-75.5 103,-75.5 103,-56.5 0,-56.5"/>
<text text-anchor="middle" x="51.5" y="-63.5" font-family="Helvetica,sans-Serif" font-size="10.00">sdk/ee/eekernel.h</text>
</a>
</g>
</g>
<!-- Node1&#45;&gt;Node2 -->
<g id="edge1" class="edge">
<title>Node1&#45;&gt;Node2</title>
<path fill="none" stroke="midnightblue" d="M184.46,-112.44C157.88,-103.36 115.69,-88.94 85.98,-78.78"/>
<polygon fill="midnightblue" stroke="midnightblue" points="87.01,-75.44 76.42,-75.52 84.75,-82.06 87.01,-75.44"/>
</g>
<!-- Node3 -->
<g id="node3" class="node">
<title>Node3</title>
<g id="a_node3"><a xlink:href="memset_8h.html" target="_top" xlink:title="Memset.">
<polygon fill="white" stroke="black" points="121.5,-56.5 121.5,-75.5 207.5,-75.5 207.5,-56.5 121.5,-56.5"/>
<text text-anchor="middle" x="164.5" y="-63.5" font-family="Helvetica,sans-Serif" font-size="10.00">sce/memset.h</text>
</a>
</g>
</g>
<!-- Node1&#45;&gt;Node3 -->
<g id="edge2" class="edge">
<title>Node1&#45;&gt;Node3</title>
<path fill="none" stroke="midnightblue" d="M202.07,-112.08C195.65,-104.38 186.19,-93.03 178.38,-83.65"/>
<polygon fill="midnightblue" stroke="midnightblue" points="180.88,-81.19 171.79,-75.75 175.51,-85.67 180.88,-81.19"/>
</g>
<!-- Node5 -->
<g id="node5" class="node">
<title>Node5</title>
<g id="a_node5"><a xlink:href="thread_8h.html" target="_top" xlink:title="Semaphore, thread, and critical section utilities.">
<polygon fill="white" stroke="black" points="226,-56.5 226,-75.5 283,-75.5 283,-56.5 226,-56.5"/>
<text text-anchor="middle" x="254.5" y="-63.5" font-family="Helvetica,sans-Serif" font-size="10.00">thread.h</text>
</a>
</g>
</g>
<!-- Node1&#45;&gt;Node5 -->
<g id="edge4" class="edge">
<title>Node1&#45;&gt;Node5</title>
<path fill="none" stroke="midnightblue" d="M216.93,-112.08C223.35,-104.38 232.81,-93.03 240.62,-83.65"/>
<polygon fill="midnightblue" stroke="midnightblue" points="243.49,-85.67 247.21,-75.75 238.12,-81.19 243.49,-85.67"/>
</g>
<!-- Node6 -->
<g id="node6" class="node">
<title>Node6</title>
<g id="a_node6"><a xlink:href="frm_8h.html" target="_top" xlink:title="Frame manager.">
<polygon fill="white" stroke="black" points="301,-56.5 301,-75.5 344,-75.5 344,-56.5 301,-56.5"/>
<text text-anchor="middle" x="322.5" y="-63.5" font-family="Helvetica,sans-Serif" font-size="10.00">frm.h</text>
</a>
</g>
</g>
<!-- Node1&#45;&gt;Node6 -->
<g id="edge5" class="edge">
<title>Node1&#45;&gt;Node6</title>
<path fill="none" stroke="midnightblue" d="M227.41,-112.44C245.75,-103.68 274.51,-89.94 295.59,-79.86"/>
<polygon fill="midnightblue" stroke="midnightblue" points="297.17,-82.99 304.68,-75.52 294.15,-76.67 297.17,-82.99"/>
</g>
<!-- Node4 -->
<g id="node4" class="node">
<title>Node4</title>
<g id="a_node4"><a xlink:title=" ">
<polygon fill="white" stroke="#bfbfbf" points="136.5,-0.5 136.5,-19.5 192.5,-19.5 192.5,-0.5 136.5,-0.5"/>
<text text-anchor="middle" x="164.5" y="-7.5" font-family="Helvetica,sans-Serif" font-size="10.00">stddef.h</text>
</a>
</g>
</g>
<!-- Node3&#45;&gt;Node4 -->
<g id="edge3" class="edge">
<title>Node3&#45;&gt;Node4</title>
<path fill="none" stroke="midnightblue" d="M164.5,-56.08C164.5,-49.01 164.5,-38.86 164.5,-29.99"/>
<polygon fill="midnightblue" stroke="midnightblue" points="168,-29.75 164.5,-19.75 161,-29.75 168,-29.75"/>
</g>
</g>
</svg>
