<?xml version="1.0" encoding="UTF-8" standalone="no"?>
<!DOCTYPE svg PUBLIC "-//W3C//DTD SVG 1.1//EN"
 "http://www.w3.org/Graphics/SVG/1.1/DTD/svg11.dtd">
<!-- Generated by graphviz version 2.43.0 (0)
 -->
<!-- Title: include/turret.h Pages: 1 -->
<svg width="208pt" height="137pt"
 viewBox="0.00 0.00 208.00 137.00" xmlns="http://www.w3.org/2000/svg" xmlns:xlink="http://www.w3.org/1999/xlink">
<g id="graph0" class="graph" transform="scale(1 1) rotate(0) translate(4 133)">
<title>include/turret.h</title>
<!-- Node1 -->
<g id="Node000001" class="node">
<title>Node1</title>
<g id="a_Node000001"><a xlink:title="Stationary turret from Murray levels(?).">
<polygon fill="#999999" stroke="#666666" points="148.5,-129 57.5,-129 57.5,-110 148.5,-110 148.5,-129"/>
<text text-anchor="middle" x="103" y="-117" font-family="Helvetica,sans-Serif" font-size="10.00">include/turret.h</text>
</a>
</g>
</g>
<!-- Node2 -->
<g id="Node000002" class="node">
<title>Node2</title>
<g id="a_Node000002"><a xlink:href="murray_8h.html" target="_top" xlink:title="&quot;The Murray&quot;.">
<polygon fill="white" stroke="#666666" points="98,-74 0,-74 0,-55 98,-55 98,-74"/>
<text text-anchor="middle" x="49" y="-62" font-family="Helvetica,sans-Serif" font-size="10.00">include/murray.h</text>
</a>
</g>
</g>
<!-- Node1&#45;&gt;Node2 -->
<g id="edge1_Node000001_Node000002" class="edge">
<title>Node1&#45;&gt;Node2</title>
<g id="a_edge1_Node000001_Node000002"><a xlink:title=" ">
<path fill="none" stroke="#63b8ff" d="M86.72,-102.52C77.2,-93.18 65.56,-81.75 57.75,-74.09"/>
<polygon fill="#63b8ff" stroke="#63b8ff" points="84.49,-105.24 94.08,-109.75 89.4,-100.25 84.49,-105.24"/>
</a>
</g>
</g>
<!-- Node4 -->
<g id="Node000004" class="node">
<title>Node4</title>
<g id="a_Node000004"><a xlink:href="turret_8c.html" target="_top" xlink:title=" ">
<polygon fill="white" stroke="#666666" points="200,-74 116,-74 116,-55 200,-55 200,-74"/>
<text text-anchor="middle" x="158" y="-62" font-family="Helvetica,sans-Serif" font-size="10.00">src/P2/turret.c</text>
</a>
</g>
</g>
<!-- Node1&#45;&gt;Node4 -->
<g id="edge3_Node000001_Node000004" class="edge">
<title>Node1&#45;&gt;Node4</title>
<g id="a_edge3_Node000001_Node000004"><a xlink:title=" ">
<path fill="none" stroke="#63b8ff" d="M119.29,-102.8C129.04,-93.41 141.05,-81.83 149.09,-74.09"/>
<polygon fill="#63b8ff" stroke="#63b8ff" points="116.85,-100.29 112.08,-109.75 121.71,-105.33 116.85,-100.29"/>
</a>
</g>
</g>
<!-- Node3 -->
<g id="Node000003" class="node">
<title>Node3</title>
<g id="a_Node000003"><a xlink:href="murray_8c.html" target="_top" xlink:title=" ">
<polygon fill="white" stroke="#666666" points="94.5,-19 3.5,-19 3.5,0 94.5,0 94.5,-19"/>
<text text-anchor="middle" x="49" y="-7" font-family="Helvetica,sans-Serif" font-size="10.00">src/P2/murray.c</text>
</a>
</g>
</g>
<!-- Node2&#45;&gt;Node3 -->
<g id="edge2_Node000002_Node000003" class="edge">
<title>Node2&#45;&gt;Node3</title>
<g id="a_edge2_Node000002_Node000003"><a xlink:title=" ">
<path fill="none" stroke="#63b8ff" d="M49,-44.66C49,-35.93 49,-25.99 49,-19.09"/>
<polygon fill="#63b8ff" stroke="#63b8ff" points="45.5,-44.75 49,-54.75 52.5,-44.75 45.5,-44.75"/>
</a>
</g>
</g>
</g>
</svg>
