<?xml version="1.0" encoding="UTF-8" standalone="no"?>
<!DOCTYPE svg PUBLIC "-//W3C//DTD SVG 1.1//EN"
 "http://www.w3.org/Graphics/SVG/1.1/DTD/svg11.dtd">
<!-- Generated by graphviz version 2.43.0 (0)
 -->
<!-- Title: src/P2/util.c Pages: 1 -->
<svg width="477pt" height="302pt"
 viewBox="0.00 0.00 477.00 302.00" xmlns="http://www.w3.org/2000/svg" xmlns:xlink="http://www.w3.org/1999/xlink">
<g id="graph0" class="graph" transform="scale(1 1) rotate(0) translate(4 298)">
<title>src/P2/util.c</title>
<!-- Node1 -->
<g id="Node000001" class="node">
<title>Node1</title>
<g id="a_Node000001"><a xlink:title=" ">
<polygon fill="#999999" stroke="#666666" points="190,-294 117,-294 117,-275 190,-275 190,-294"/>
<text text-anchor="middle" x="153.5" y="-282" font-family="Helvetica,sans-Serif" font-size="10.00">src/P2/util.c</text>
</a>
</g>
</g>
<!-- Node2 -->
<g id="Node000002" class="node">
<title>Node2</title>
<g id="a_Node000002"><a xlink:href="math_8h.html" target="_top" xlink:title="Library math functions.">
<polygon fill="white" stroke="#666666" points="71,-239 0,-239 0,-220 71,-220 71,-239"/>
<text text-anchor="middle" x="35.5" y="-227" font-family="Helvetica,sans-Serif" font-size="10.00">gcc/math.h</text>
</a>
</g>
</g>
<!-- Node1&#45;&gt;Node2 -->
<g id="edge1_Node000001_Node000002" class="edge">
<title>Node1&#45;&gt;Node2</title>
<g id="a_edge1_Node000001_Node000002"><a xlink:title=" ">
<path fill="none" stroke="#63b8ff" d="M134.54,-274.98C115.47,-266.42 85.84,-253.11 63.95,-243.28"/>
<polygon fill="#63b8ff" stroke="#63b8ff" points="65.36,-240.07 54.8,-239.17 62.49,-246.46 65.36,-240.07"/>
</a>
</g>
</g>
<!-- Node3 -->
<g id="Node000003" class="node">
<title>Node3</title>
<g id="a_Node000003"><a xlink:href="rand_8h.html" target="_top" xlink:title="Random number generation.">
<polygon fill="white" stroke="#666666" points="156,-239 89,-239 89,-220 156,-220 156,-239"/>
<text text-anchor="middle" x="122.5" y="-227" font-family="Helvetica,sans-Serif" font-size="10.00">sce/rand.h</text>
</a>
</g>
</g>
<!-- Node1&#45;&gt;Node3 -->
<g id="edge2_Node000001_Node000003" class="edge">
<title>Node1&#45;&gt;Node3</title>
<g id="a_edge2_Node000001_Node000003"><a xlink:title=" ">
<path fill="none" stroke="#63b8ff" d="M148.38,-274.75C144.14,-267.49 137.97,-256.95 132.72,-247.98"/>
<polygon fill="#63b8ff" stroke="#63b8ff" points="135.59,-245.95 127.52,-239.09 129.55,-249.49 135.59,-245.95"/>
</a>
</g>
</g>
<!-- Node4 -->
<g id="Node000004" class="node">
<title>Node4</title>
<g id="a_Node000004"><a xlink:href="util_8h.html" target="_top" xlink:title="Utility functions.">
<polygon fill="white" stroke="#666666" points="274,-239 233,-239 233,-220 274,-220 274,-239"/>
<text text-anchor="middle" x="253.5" y="-227" font-family="Helvetica,sans-Serif" font-size="10.00">util.h</text>
</a>
</g>
</g>
<!-- Node1&#45;&gt;Node4 -->
<g id="edge3_Node000001_Node000004" class="edge">
<title>Node1&#45;&gt;Node4</title>
<g id="a_edge3_Node000001_Node000004"><a xlink:title=" ">
<path fill="none" stroke="#63b8ff" d="M169.57,-274.98C185.36,-266.61 209.72,-253.7 228.13,-243.95"/>
<polygon fill="#63b8ff" stroke="#63b8ff" points="229.94,-246.95 237.14,-239.17 226.67,-240.76 229.94,-246.95"/>
</a>
</g>
</g>
<!-- Node5 -->
<g id="Node000005" class="node">
<title>Node5</title>
<g id="a_Node000005"><a xlink:href="vec_8h.html" target="_top" xlink:title="Vector math.">
<polygon fill="white" stroke="#666666" points="244,-129 201,-129 201,-110 244,-110 244,-129"/>
<text text-anchor="middle" x="222.5" y="-117" font-family="Helvetica,sans-Serif" font-size="10.00">vec.h</text>
</a>
</g>
</g>
<!-- Node1&#45;&gt;Node5 -->
<g id="edge18_Node000001_Node000005" class="edge">
<title>Node1&#45;&gt;Node5</title>
<g id="a_edge18_Node000001_Node000005"><a xlink:title=" ">
<path fill="none" stroke="#63b8ff" d="M157.21,-274.74C168.07,-249.09 199.94,-173.78 214.76,-138.78"/>
<polygon fill="#63b8ff" stroke="#63b8ff" points="218.1,-139.88 218.77,-129.31 211.65,-137.15 218.1,-139.88"/>
</a>
</g>
</g>
<!-- Node4&#45;&gt;Node5 -->
<g id="edge4_Node000004_Node000005" class="edge">
<title>Node4&#45;&gt;Node5</title>
<g id="a_edge4_Node000004_Node000005"><a xlink:title=" ">
<path fill="none" stroke="#63b8ff" d="M250.96,-219.66C245.92,-202.09 234.54,-162.45 227.8,-138.95"/>
<polygon fill="#63b8ff" stroke="#63b8ff" points="231.11,-137.8 224.99,-129.16 224.38,-139.74 231.11,-137.8"/>
</a>
</g>
</g>
<!-- Node6 -->
<g id="Node000006" class="node">
<title>Node6</title>
<g id="a_Node000006"><a xlink:href="mat_8h.html" target="_top" xlink:title="3x3 and 4x4 matrix types.">
<polygon fill="white" stroke="#666666" points="296,-184 251,-184 251,-165 296,-165 296,-184"/>
<text text-anchor="middle" x="273.5" y="-172" font-family="Helvetica,sans-Serif" font-size="10.00">mat.h</text>
</a>
</g>
</g>
<!-- Node4&#45;&gt;Node6 -->
<g id="edge5_Node000004_Node000006" class="edge">
<title>Node4&#45;&gt;Node6</title>
<g id="a_edge5_Node000004_Node000006"><a xlink:title=" ">
<path fill="none" stroke="#63b8ff" d="M256.8,-219.75C259.48,-212.65 263.35,-202.4 266.69,-193.56"/>
<polygon fill="#63b8ff" stroke="#63b8ff" points="270,-194.68 270.26,-184.09 263.45,-192.21 270,-194.68"/>
</a>
</g>
</g>
<!-- Node7 -->
<g id="Node000007" class="node">
<title>Node7</title>
<g id="a_Node000007"><a xlink:href="sm_8h.html" target="_top" xlink:title="Probabilistic finite state machines.">
<polygon fill="white" stroke="#666666" points="355,-184 314,-184 314,-165 355,-165 355,-184"/>
<text text-anchor="middle" x="334.5" y="-172" font-family="Helvetica,sans-Serif" font-size="10.00">sm.h</text>
</a>
</g>
</g>
<!-- Node4&#45;&gt;Node7 -->
<g id="edge7_Node000004_Node000007" class="edge">
<title>Node4&#45;&gt;Node7</title>
<g id="a_edge7_Node000004_Node000007"><a xlink:title=" ">
<path fill="none" stroke="#63b8ff" d="M266.51,-219.98C278.96,-211.84 297.96,-199.41 312.71,-189.76"/>
<polygon fill="#63b8ff" stroke="#63b8ff" points="314.8,-192.57 321.25,-184.17 310.96,-186.72 314.8,-192.57"/>
</a>
</g>
</g>
<!-- Node6&#45;&gt;Node5 -->
<g id="edge6_Node000006_Node000005" class="edge">
<title>Node6&#45;&gt;Node5</title>
<g id="a_edge6_Node000006_Node000005"><a xlink:title=" ">
<path fill="none" stroke="#63b8ff" d="M265.08,-164.75C257.73,-157.11 246.87,-145.82 237.96,-136.56"/>
<polygon fill="#63b8ff" stroke="#63b8ff" points="240.22,-133.87 230.76,-129.09 235.18,-138.72 240.22,-133.87"/>
</a>
</g>
</g>
<!-- Node8 -->
<g id="Node000008" class="node">
<title>Node8</title>
<g id="a_Node000008"><a xlink:href="dl_8h.html" target="_top" xlink:title="Doubly&#45;linked list.">
<polygon fill="white" stroke="#666666" points="469,-74 434,-74 434,-55 469,-55 469,-74"/>
<text text-anchor="middle" x="451.5" y="-62" font-family="Helvetica,sans-Serif" font-size="10.00">dl.h</text>
</a>
</g>
</g>
<!-- Node7&#45;&gt;Node8 -->
<g id="edge8_Node000007_Node000008" class="edge">
<title>Node7&#45;&gt;Node8</title>
<g id="a_edge8_Node000007_Node000008"><a xlink:title=" ">
<path fill="none" stroke="#63b8ff" d="M344.07,-164.66C363.88,-146.38 409.6,-104.18 434.53,-81.17"/>
<polygon fill="#63b8ff" stroke="#63b8ff" points="437.15,-83.51 442.12,-74.16 432.4,-78.37 437.15,-83.51"/>
</a>
</g>
</g>
<!-- Node10 -->
<g id="Node000010" class="node">
<title>Node10</title>
<g id="a_Node000010"><a xlink:href="mq_8h.html" target="_top" xlink:title="Message queue.">
<polygon fill="white" stroke="#666666" points="204,-74 163,-74 163,-55 204,-55 204,-74"/>
<text text-anchor="middle" x="183.5" y="-62" font-family="Helvetica,sans-Serif" font-size="10.00">mq.h</text>
</a>
</g>
</g>
<!-- Node7&#45;&gt;Node10 -->
<g id="edge10_Node000007_Node000010" class="edge">
<title>Node7&#45;&gt;Node10</title>
<g id="a_edge10_Node000007_Node000010"><a xlink:title=" ">
<path fill="none" stroke="#63b8ff" d="M324.27,-164.94C309.14,-152.42 279.76,-128.57 253.5,-110 238.31,-99.26 220.63,-88.03 206.83,-79.53"/>
<polygon fill="#63b8ff" stroke="#63b8ff" points="208.34,-76.35 197.98,-74.13 204.69,-82.33 208.34,-76.35"/>
</a>
</g>
</g>
<!-- Node11 -->
<g id="Node000011" class="node">
<title>Node11</title>
<g id="a_Node000011"><a xlink:href="lo_8h.html" target="_top" xlink:title="Level objects.">
<polygon fill="white" stroke="#666666" points="352,-129 317,-129 317,-110 352,-110 352,-129"/>
<text text-anchor="middle" x="334.5" y="-117" font-family="Helvetica,sans-Serif" font-size="10.00">lo.h</text>
</a>
</g>
</g>
<!-- Node7&#45;&gt;Node11 -->
<g id="edge11_Node000007_Node000011" class="edge">
<title>Node7&#45;&gt;Node11</title>
<g id="a_edge11_Node000007_Node000011"><a xlink:title=" ">
<path fill="none" stroke="#63b8ff" d="M334.5,-164.75C334.5,-157.8 334.5,-147.85 334.5,-139.13"/>
<polygon fill="#63b8ff" stroke="#63b8ff" points="338,-139.09 334.5,-129.09 331,-139.09 338,-139.09"/>
</a>
</g>
</g>
<!-- Node9 -->
<g id="Node000009" class="node">
<title>Node9</title>
<g id="a_Node000009"><a xlink:href="oid_8h.html" target="_top" xlink:title="Object IDs.">
<polygon fill="white" stroke="#666666" points="449,-19 408,-19 408,0 449,0 449,-19"/>
<text text-anchor="middle" x="428.5" y="-7" font-family="Helvetica,sans-Serif" font-size="10.00">oid.h</text>
</a>
</g>
</g>
<!-- Node8&#45;&gt;Node9 -->
<g id="edge9_Node000008_Node000009" class="edge">
<title>Node8&#45;&gt;Node9</title>
<g id="a_edge9_Node000008_Node000009"><a xlink:title=" ">
<path fill="none" stroke="#63b8ff" d="M447.7,-54.75C444.59,-47.57 440.08,-37.18 436.21,-28.27"/>
<polygon fill="#63b8ff" stroke="#63b8ff" points="439.42,-26.87 432.23,-19.09 433,-29.66 439.42,-26.87"/>
</a>
</g>
</g>
<!-- Node11&#45;&gt;Node8 -->
<g id="edge12_Node000011_Node000008" class="edge">
<title>Node11&#45;&gt;Node8</title>
<g id="a_edge12_Node000011_Node000008"><a xlink:title=" ">
<path fill="none" stroke="#63b8ff" d="M352.02,-110.57C371.23,-101.86 402.3,-87.79 424.6,-77.68"/>
<polygon fill="#63b8ff" stroke="#63b8ff" points="426.2,-80.8 433.86,-73.49 423.31,-74.43 426.2,-80.8"/>
</a>
</g>
</g>
<!-- Node11&#45;&gt;Node9 -->
<g id="edge14_Node000011_Node000009" class="edge">
<title>Node11&#45;&gt;Node9</title>
<g id="a_edge14_Node000011_Node000009"><a xlink:title=" ">
<path fill="none" stroke="#63b8ff" d="M346.49,-109.79C357.6,-101.38 374.23,-87.89 386.5,-74 399.05,-59.79 410.72,-41.57 418.56,-28.29"/>
<polygon fill="#63b8ff" stroke="#63b8ff" points="421.81,-29.67 423.76,-19.25 415.74,-26.18 421.81,-29.67"/>
</a>
</g>
</g>
<!-- Node11&#45;&gt;Node10 -->
<g id="edge13_Node000011_Node000010" class="edge">
<title>Node11&#45;&gt;Node10</title>
<g id="a_edge13_Node000011_Node000010"><a xlink:title=" ">
<path fill="none" stroke="#63b8ff" d="M316.88,-112.32C291.72,-103.48 245.12,-87.13 214.21,-76.28"/>
<polygon fill="#63b8ff" stroke="#63b8ff" points="214.98,-72.84 204.38,-72.83 212.66,-79.44 214.98,-72.84"/>
</a>
</g>
</g>
<!-- Node12 -->
<g id="Node000012" class="node">
<title>Node12</title>
<g id="a_Node000012"><a xlink:href="basic_8h.html" target="_top" xlink:title="Basic object.">
<polygon fill="white" stroke="#666666" points="273,-74 222,-74 222,-55 273,-55 273,-74"/>
<text text-anchor="middle" x="247.5" y="-62" font-family="Helvetica,sans-Serif" font-size="10.00">basic.h</text>
</a>
</g>
</g>
<!-- Node11&#45;&gt;Node12 -->
<g id="edge15_Node000011_Node000012" class="edge">
<title>Node11&#45;&gt;Node12</title>
<g id="a_edge15_Node000011_Node000012"><a xlink:title=" ">
<path fill="none" stroke="#63b8ff" d="M320.52,-109.98C307.03,-101.77 286.37,-89.18 270.46,-79.49"/>
<polygon fill="#63b8ff" stroke="#63b8ff" points="272.09,-76.38 261.73,-74.17 268.45,-82.36 272.09,-76.38"/>
</a>
</g>
</g>
<!-- Node14 -->
<g id="Node000014" class="node">
<title>Node14</title>
<g id="a_Node000014"><a xlink:href="frame_8h.html" target="_top" xlink:title=" ">
<polygon fill="white" stroke="#666666" points="377.5,-74 291.5,-74 291.5,-55 377.5,-55 377.5,-74"/>
<text text-anchor="middle" x="334.5" y="-62" font-family="Helvetica,sans-Serif" font-size="10.00">splice/frame.h</text>
</a>
</g>
</g>
<!-- Node11&#45;&gt;Node14 -->
<g id="edge17_Node000011_Node000014" class="edge">
<title>Node11&#45;&gt;Node14</title>
<g id="a_edge17_Node000011_Node000014"><a xlink:title=" ">
<path fill="none" stroke="#63b8ff" d="M334.5,-109.75C334.5,-102.8 334.5,-92.85 334.5,-84.13"/>
<polygon fill="#63b8ff" stroke="#63b8ff" points="338,-84.09 334.5,-74.09 331,-84.09 338,-84.09"/>
</a>
</g>
</g>
<!-- Node13 -->
<g id="Node000013" class="node">
<title>Node13</title>
<g id="a_Node000013"><a xlink:href="sidebag_8h.html" target="_top" xlink:title="Sidebag for splice.">
<polygon fill="white" stroke="#666666" points="295,-19 200,-19 200,0 295,0 295,-19"/>
<text text-anchor="middle" x="247.5" y="-7" font-family="Helvetica,sans-Serif" font-size="10.00">splice/sidebag.h</text>
</a>
</g>
</g>
<!-- Node12&#45;&gt;Node13 -->
<g id="edge16_Node000012_Node000013" class="edge">
<title>Node12&#45;&gt;Node13</title>
<g id="a_edge16_Node000012_Node000013"><a xlink:title=" ">
<path fill="none" stroke="#63b8ff" d="M247.5,-54.75C247.5,-47.8 247.5,-37.85 247.5,-29.13"/>
<polygon fill="#63b8ff" stroke="#63b8ff" points="251,-29.09 247.5,-19.09 244,-29.09 251,-29.09"/>
</a>
</g>
</g>
</g>
</svg>
