<?xml version="1.0" encoding="UTF-8" standalone="no"?>
<!DOCTYPE svg PUBLIC "-//W3C//DTD SVG 1.1//EN"
 "http://www.w3.org/Graphics/SVG/1.1/DTD/svg11.dtd">
<!-- Generated by graphviz version 2.43.0 (0)
 -->
<!-- Title: src/P2/util.c Pages: 1 -->
<svg width="704pt" height="532pt"
 viewBox="0.00 0.00 703.50 532.00" xmlns="http://www.w3.org/2000/svg" xmlns:xlink="http://www.w3.org/1999/xlink">
<g id="graph0" class="graph" transform="scale(1 1) rotate(0) translate(4 528)">
<title>src/P2/util.c</title>
<polygon fill="white" stroke="transparent" points="-4,4 -4,-528 699.5,-528 699.5,4 -4,4"/>
<!-- Node1 -->
<g id="node1" class="node">
<title>Node1</title>
<g id="a_node1"><a xlink:title=" ">
<polygon fill="#bfbfbf" stroke="black" points="316.5,-504.5 316.5,-523.5 389.5,-523.5 389.5,-504.5 316.5,-504.5"/>
<text text-anchor="middle" x="353" y="-511.5" font-family="Helvetica,sans-Serif" font-size="10.00">src/P2/util.c</text>
</a>
</g>
</g>
<!-- Node2 -->
<g id="node2" class="node">
<title>Node2</title>
<g id="a_node2"><a xlink:href="util_8h.html" target="_top" xlink:title="Utility functions.">
<polygon fill="white" stroke="black" points="187.5,-448.5 187.5,-467.5 228.5,-467.5 228.5,-448.5 187.5,-448.5"/>
<text text-anchor="middle" x="208" y="-455.5" font-family="Helvetica,sans-Serif" font-size="10.00">util.h</text>
</a>
</g>
</g>
<!-- Node1&#45;&gt;Node2 -->
<g id="edge1" class="edge">
<title>Node1&#45;&gt;Node2</title>
<path fill="none" stroke="midnightblue" d="M330.02,-504.44C305.13,-495.17 265.32,-480.35 237.98,-470.17"/>
<polygon fill="midnightblue" stroke="midnightblue" points="239.12,-466.85 228.52,-466.64 236.67,-473.41 239.12,-466.85"/>
</g>
<!-- Node9 -->
<g id="node9" class="node">
<title>Node9</title>
<g id="a_node9"><a xlink:href="vec_8h.html" target="_top" xlink:title="Vector math functions.">
<polygon fill="white" stroke="black" points="300.5,-392.5 300.5,-411.5 343.5,-411.5 343.5,-392.5 300.5,-392.5"/>
<text text-anchor="middle" x="322" y="-399.5" font-family="Helvetica,sans-Serif" font-size="10.00">vec.h</text>
</a>
</g>
</g>
<!-- Node1&#45;&gt;Node9 -->
<g id="edge37" class="edge">
<title>Node1&#45;&gt;Node9</title>
<path fill="none" stroke="midnightblue" d="M350.57,-504.37C345.54,-486.54 333.92,-445.3 327.15,-421.27"/>
<polygon fill="midnightblue" stroke="midnightblue" points="330.5,-420.27 324.42,-411.59 323.77,-422.17 330.5,-420.27"/>
</g>
<!-- Node22 -->
<g id="node22" class="node">
<title>Node22</title>
<g id="a_node22"><a xlink:href="rand_8h.html" target="_top" xlink:title="Random number generator.">
<polygon fill="white" stroke="black" points="628.5,-224.5 628.5,-243.5 695.5,-243.5 695.5,-224.5 628.5,-224.5"/>
<text text-anchor="middle" x="662" y="-231.5" font-family="Helvetica,sans-Serif" font-size="10.00">sce/rand.h</text>
</a>
</g>
</g>
<!-- Node1&#45;&gt;Node22 -->
<g id="edge38" class="edge">
<title>Node1&#45;&gt;Node22</title>
<path fill="none" stroke="midnightblue" d="M355.56,-504.25C360.75,-485.74 372,-441.18 372,-403 372,-403 372,-403 372,-345 372,-292.91 537.64,-256.73 618.55,-242.16"/>
<polygon fill="midnightblue" stroke="midnightblue" points="619.21,-245.6 628.45,-240.41 617.99,-238.7 619.21,-245.6"/>
</g>
<!-- Node23 -->
<g id="node23" class="node">
<title>Node23</title>
<g id="a_node23"><a xlink:href="math_8h.html" target="_top" xlink:title="Library math functions.">
<polygon fill="white" stroke="black" points="400.5,-448.5 400.5,-467.5 471.5,-467.5 471.5,-448.5 400.5,-448.5"/>
<text text-anchor="middle" x="436" y="-455.5" font-family="Helvetica,sans-Serif" font-size="10.00">sce/math.h</text>
</a>
</g>
</g>
<!-- Node1&#45;&gt;Node23 -->
<g id="edge40" class="edge">
<title>Node1&#45;&gt;Node23</title>
<path fill="none" stroke="midnightblue" d="M366.34,-504.32C379.16,-495.98 398.78,-483.21 413.94,-473.35"/>
<polygon fill="midnightblue" stroke="midnightblue" points="416.22,-476.04 422.7,-467.65 412.41,-470.17 416.22,-476.04"/>
</g>
<!-- Node3 -->
<g id="node3" class="node">
<title>Node3</title>
<g id="a_node3"><a xlink:href="common_8h.html" target="_top" xlink:title="Common header file.">
<polygon fill="white" stroke="black" points="254,-56.5 254,-75.5 322,-75.5 322,-56.5 254,-56.5"/>
<text text-anchor="middle" x="288" y="-63.5" font-family="Helvetica,sans-Serif" font-size="10.00">common.h</text>
</a>
</g>
</g>
<!-- Node2&#45;&gt;Node3 -->
<g id="edge2" class="edge">
<title>Node2&#45;&gt;Node3</title>
<path fill="none" stroke="midnightblue" d="M187.3,-455.68C134.68,-451.1 0,-431.15 0,-347 0,-347 0,-347 0,-177 0,-140 20.31,-131.09 52,-112 111.54,-76.13 193.57,-67.89 243.58,-66.51"/>
<polygon fill="midnightblue" stroke="midnightblue" points="243.81,-70.01 253.74,-66.31 243.68,-63.01 243.81,-70.01"/>
</g>
<!-- Node8 -->
<g id="node8" class="node">
<title>Node8</title>
<g id="a_node8"><a xlink:href="mat_8h.html" target="_top" xlink:title="3x3 and 4x4 matrix types.">
<polygon fill="white" stroke="black" points="134.5,-392.5 134.5,-411.5 179.5,-411.5 179.5,-392.5 134.5,-392.5"/>
<text text-anchor="middle" x="157" y="-399.5" font-family="Helvetica,sans-Serif" font-size="10.00">mat.h</text>
</a>
</g>
</g>
<!-- Node2&#45;&gt;Node8 -->
<g id="edge7" class="edge">
<title>Node2&#45;&gt;Node8</title>
<path fill="none" stroke="midnightblue" d="M199.58,-448.08C192.15,-440.22 181.15,-428.57 172.19,-419.08"/>
<polygon fill="midnightblue" stroke="midnightblue" points="174.68,-416.62 165.26,-411.75 169.59,-421.42 174.68,-416.62"/>
</g>
<!-- Node2&#45;&gt;Node9 -->
<g id="edge8" class="edge">
<title>Node2&#45;&gt;Node9</title>
<path fill="none" stroke="midnightblue" d="M226.06,-448.44C244.57,-439.68 273.58,-425.94 294.86,-415.86"/>
<polygon fill="midnightblue" stroke="midnightblue" points="296.48,-418.96 304.02,-411.52 293.49,-412.63 296.48,-418.96"/>
</g>
<!-- Node20 -->
<g id="node20" class="node">
<title>Node20</title>
<g id="a_node20"><a xlink:href="sm_8h.html" target="_top" xlink:title="State machines.">
<polygon fill="white" stroke="black" points="123.5,-336.5 123.5,-355.5 164.5,-355.5 164.5,-336.5 123.5,-336.5"/>
<text text-anchor="middle" x="144" y="-343.5" font-family="Helvetica,sans-Serif" font-size="10.00">sm.h</text>
</a>
</g>
</g>
<!-- Node2&#45;&gt;Node20 -->
<g id="edge30" class="edge">
<title>Node2&#45;&gt;Node20</title>
<path fill="none" stroke="midnightblue" d="M206.71,-448.48C204.46,-435.53 198.98,-410.47 188,-392 181.33,-380.78 171.31,-370.24 162.51,-362.18"/>
<polygon fill="midnightblue" stroke="midnightblue" points="164.74,-359.48 154.91,-355.53 160.13,-364.75 164.74,-359.48"/>
</g>
<!-- Node4 -->
<g id="node4" class="node">
<title>Node4</title>
<g id="a_node4"><a xlink:href="include__asm_8h.html" target="_top" xlink:title=" ">
<polygon fill="white" stroke="black" points="86.5,-0.5 86.5,-19.5 173.5,-19.5 173.5,-0.5 86.5,-0.5"/>
<text text-anchor="middle" x="130" y="-7.5" font-family="Helvetica,sans-Serif" font-size="10.00">include_asm.h</text>
</a>
</g>
</g>
<!-- Node3&#45;&gt;Node4 -->
<g id="edge3" class="edge">
<title>Node3&#45;&gt;Node4</title>
<path fill="none" stroke="midnightblue" d="M262.96,-56.44C236.38,-47.36 194.19,-32.94 164.48,-22.78"/>
<polygon fill="midnightblue" stroke="midnightblue" points="165.51,-19.44 154.92,-19.52 163.25,-26.06 165.51,-19.44"/>
</g>
<!-- Node5 -->
<g id="node5" class="node">
<title>Node5</title>
<g id="a_node5"><a xlink:href="include__rodata_8h.html" target="_top" xlink:title=" ">
<polygon fill="white" stroke="black" points="192,-0.5 192,-19.5 290,-19.5 290,-0.5 192,-0.5"/>
<text text-anchor="middle" x="241" y="-7.5" font-family="Helvetica,sans-Serif" font-size="10.00">include_rodata.h</text>
</a>
</g>
</g>
<!-- Node3&#45;&gt;Node5 -->
<g id="edge4" class="edge">
<title>Node3&#45;&gt;Node5</title>
<path fill="none" stroke="midnightblue" d="M280.24,-56.08C273.46,-48.3 263.46,-36.8 255.24,-27.37"/>
<polygon fill="midnightblue" stroke="midnightblue" points="257.82,-25 248.62,-19.75 252.54,-29.59 257.82,-25"/>
</g>
<!-- Node6 -->
<g id="node6" class="node">
<title>Node6</title>
<g id="a_node6"><a xlink:href="types_8h.html" target="_top" xlink:title="Types used throughout the engine.">
<polygon fill="white" stroke="black" points="308.5,-0.5 308.5,-19.5 361.5,-19.5 361.5,-0.5 308.5,-0.5"/>
<text text-anchor="middle" x="335" y="-7.5" font-family="Helvetica,sans-Serif" font-size="10.00">types.h</text>
</a>
</g>
</g>
<!-- Node3&#45;&gt;Node6 -->
<g id="edge5" class="edge">
<title>Node3&#45;&gt;Node6</title>
<path fill="none" stroke="midnightblue" d="M295.76,-56.08C302.54,-48.3 312.54,-36.8 320.76,-27.37"/>
<polygon fill="midnightblue" stroke="midnightblue" points="323.46,-29.59 327.38,-19.75 318.18,-25 323.46,-29.59"/>
</g>
<!-- Node7 -->
<g id="node7" class="node">
<title>Node7</title>
<g id="a_node7"><a xlink:href="vtables_8h.html" target="_top" xlink:title=" ">
<polygon fill="white" stroke="black" points="380,-0.5 380,-19.5 442,-19.5 442,-0.5 380,-0.5"/>
<text text-anchor="middle" x="411" y="-7.5" font-family="Helvetica,sans-Serif" font-size="10.00">vtables.h</text>
</a>
</g>
</g>
<!-- Node3&#45;&gt;Node7 -->
<g id="edge6" class="edge">
<title>Node3&#45;&gt;Node7</title>
<path fill="none" stroke="midnightblue" d="M307.49,-56.44C327.64,-47.6 359.32,-33.69 382.33,-23.59"/>
<polygon fill="midnightblue" stroke="midnightblue" points="383.85,-26.74 391.6,-19.52 381.04,-20.33 383.85,-26.74"/>
</g>
<!-- Node10 -->
<g id="node10" class="node">
<title>Node10</title>
<g id="a_node10"><a xlink:href="so_8h.html" target="_top" xlink:title="Scene objects.">
<polygon fill="white" stroke="black" points="304.5,-336.5 304.5,-355.5 341.5,-355.5 341.5,-336.5 304.5,-336.5"/>
<text text-anchor="middle" x="323" y="-343.5" font-family="Helvetica,sans-Serif" font-size="10.00">so.h</text>
</a>
</g>
</g>
<!-- Node9&#45;&gt;Node10 -->
<g id="edge9" class="edge">
<title>Node9&#45;&gt;Node10</title>
<path fill="none" stroke="midnightblue" d="M322.17,-392.08C322.3,-385.01 322.48,-374.86 322.65,-365.99"/>
<polygon fill="midnightblue" stroke="midnightblue" points="326.15,-365.81 322.84,-355.75 319.15,-365.68 326.15,-365.81"/>
</g>
<!-- Node11 -->
<g id="node11" class="node">
<title>Node11</title>
<g id="a_node11"><a xlink:href="alo_8h.html" target="_top" xlink:title=" ">
<polygon fill="white" stroke="black" points="302.5,-280.5 302.5,-299.5 343.5,-299.5 343.5,-280.5 302.5,-280.5"/>
<text text-anchor="middle" x="323" y="-287.5" font-family="Helvetica,sans-Serif" font-size="10.00">alo.h</text>
</a>
</g>
</g>
<!-- Node10&#45;&gt;Node11 -->
<g id="edge10" class="edge">
<title>Node10&#45;&gt;Node11</title>
<path fill="none" stroke="midnightblue" d="M323,-336.08C323,-329.01 323,-318.86 323,-309.99"/>
<polygon fill="midnightblue" stroke="midnightblue" points="326.5,-309.75 323,-299.75 319.5,-309.75 326.5,-309.75"/>
</g>
<!-- Node11&#45;&gt;Node3 -->
<g id="edge11" class="edge">
<title>Node11&#45;&gt;Node3</title>
<path fill="none" stroke="midnightblue" d="M343.81,-283.58C413.7,-264.44 631.75,-196.6 560,-112 531.32,-78.19 401.73,-69.75 332.28,-67.66"/>
<polygon fill="midnightblue" stroke="midnightblue" points="332.17,-64.16 322.08,-67.39 331.99,-71.16 332.17,-64.16"/>
</g>
<!-- Node12 -->
<g id="node12" class="node">
<title>Node12</title>
<g id="a_node12"><a xlink:href="lo_8h.html" target="_top" xlink:title="Level objects.">
<polygon fill="white" stroke="black" points="210.5,-224.5 210.5,-243.5 245.5,-243.5 245.5,-224.5 210.5,-224.5"/>
<text text-anchor="middle" x="228" y="-231.5" font-family="Helvetica,sans-Serif" font-size="10.00">lo.h</text>
</a>
</g>
</g>
<!-- Node11&#45;&gt;Node12 -->
<g id="edge12" class="edge">
<title>Node11&#45;&gt;Node12</title>
<path fill="none" stroke="midnightblue" d="M307.74,-280.32C292.78,-271.82 269.75,-258.73 252.27,-248.8"/>
<polygon fill="midnightblue" stroke="midnightblue" points="253.65,-245.55 243.23,-243.65 250.19,-251.64 253.65,-245.55"/>
</g>
<!-- Node16 -->
<g id="node16" class="node">
<title>Node16</title>
<g id="a_node16"><a xlink:href="dl_8h.html" target="_top" xlink:title=" ">
<polygon fill="white" stroke="black" points="118.5,-168.5 118.5,-187.5 153.5,-187.5 153.5,-168.5 118.5,-168.5"/>
<text text-anchor="middle" x="136" y="-175.5" font-family="Helvetica,sans-Serif" font-size="10.00">dl.h</text>
</a>
</g>
</g>
<!-- Node11&#45;&gt;Node16 -->
<g id="edge29" class="edge">
<title>Node11&#45;&gt;Node16</title>
<path fill="none" stroke="midnightblue" d="M302.34,-284.29C277.03,-277.9 233.51,-264.81 201,-244 180.52,-230.89 161.39,-210.36 149.26,-195.88"/>
<polygon fill="midnightblue" stroke="midnightblue" points="151.69,-193.32 142.66,-187.78 146.26,-197.74 151.69,-193.32"/>
</g>
<!-- Node12&#45;&gt;Node3 -->
<g id="edge13" class="edge">
<title>Node12&#45;&gt;Node3</title>
<path fill="none" stroke="midnightblue" d="M225.88,-224.49C221.21,-203.88 211.92,-150.15 231,-112 237.6,-98.79 250.1,-88.25 261.71,-80.7"/>
<polygon fill="midnightblue" stroke="midnightblue" points="263.55,-83.67 270.31,-75.51 259.94,-77.68 263.55,-83.67"/>
</g>
<!-- Node13 -->
<g id="node13" class="node">
<title>Node13</title>
<g id="a_node13"><a xlink:href="oid_8h.html" target="_top" xlink:title="Object IDs.">
<polygon fill="white" stroke="black" points="142.5,-112.5 142.5,-131.5 183.5,-131.5 183.5,-112.5 142.5,-112.5"/>
<text text-anchor="middle" x="163" y="-119.5" font-family="Helvetica,sans-Serif" font-size="10.00">oid.h</text>
</a>
</g>
</g>
<!-- Node12&#45;&gt;Node13 -->
<g id="edge14" class="edge">
<title>Node12&#45;&gt;Node13</title>
<path fill="none" stroke="midnightblue" d="M222.9,-224.37C212.22,-206.3 187.33,-164.18 173.23,-140.31"/>
<polygon fill="midnightblue" stroke="midnightblue" points="176.18,-138.42 168.08,-131.59 170.15,-141.98 176.18,-138.42"/>
</g>
<!-- Node14 -->
<g id="node14" class="node">
<title>Node14</title>
<g id="a_node14"><a xlink:href="basic_8h.html" target="_top" xlink:title="Basic object.">
<polygon fill="white" stroke="black" points="251.5,-168.5 251.5,-187.5 302.5,-187.5 302.5,-168.5 251.5,-168.5"/>
<text text-anchor="middle" x="277" y="-175.5" font-family="Helvetica,sans-Serif" font-size="10.00">basic.h</text>
</a>
</g>
</g>
<!-- Node12&#45;&gt;Node14 -->
<g id="edge16" class="edge">
<title>Node12&#45;&gt;Node14</title>
<path fill="none" stroke="midnightblue" d="M236.09,-224.08C243.16,-216.3 253.59,-204.8 262.15,-195.37"/>
<polygon fill="midnightblue" stroke="midnightblue" points="264.93,-197.51 269.06,-187.75 259.75,-192.8 264.93,-197.51"/>
</g>
<!-- Node12&#45;&gt;Node16 -->
<g id="edge20" class="edge">
<title>Node12&#45;&gt;Node16</title>
<path fill="none" stroke="midnightblue" d="M213.22,-224.32C198.73,-215.82 176.43,-202.73 159.51,-192.8"/>
<polygon fill="midnightblue" stroke="midnightblue" points="161.14,-189.7 150.74,-187.65 157.6,-195.74 161.14,-189.7"/>
</g>
<!-- Node17 -->
<g id="node17" class="node">
<title>Node17</title>
<g id="a_node17"><a xlink:href="sw_8h.html" target="_top" xlink:title="Scene world?">
<polygon fill="white" stroke="black" points="392,-112.5 392,-131.5 430,-131.5 430,-112.5 392,-112.5"/>
<text text-anchor="middle" x="411" y="-119.5" font-family="Helvetica,sans-Serif" font-size="10.00">sw.h</text>
</a>
</g>
</g>
<!-- Node12&#45;&gt;Node17 -->
<g id="edge23" class="edge">
<title>Node12&#45;&gt;Node17</title>
<path fill="none" stroke="midnightblue" d="M244.75,-224.42C261.67,-215.63 288.46,-201.41 311,-188 338.93,-171.39 370.21,-150.71 390.22,-137.2"/>
<polygon fill="midnightblue" stroke="midnightblue" points="392.26,-140.04 398.57,-131.53 388.33,-134.25 392.26,-140.04"/>
</g>
<!-- Node18 -->
<g id="node18" class="node">
<title>Node18</title>
<g id="a_node18"><a xlink:href="frame_8h.html" target="_top" xlink:title=" ">
<polygon fill="white" stroke="black" points="448,-112.5 448,-131.5 534,-131.5 534,-112.5 448,-112.5"/>
<text text-anchor="middle" x="491" y="-119.5" font-family="Helvetica,sans-Serif" font-size="10.00">splice/frame.h</text>
</a>
</g>
</g>
<!-- Node12&#45;&gt;Node18 -->
<g id="edge25" class="edge">
<title>Node12&#45;&gt;Node18</title>
<path fill="none" stroke="midnightblue" d="M245.68,-226.15C267.98,-217.46 307.46,-201.94 341,-188 363.92,-178.47 425.52,-151.63 462.26,-135.58"/>
<polygon fill="midnightblue" stroke="midnightblue" points="463.71,-138.76 471.47,-131.55 460.9,-132.35 463.71,-138.76"/>
</g>
<!-- Node19 -->
<g id="node19" class="node">
<title>Node19</title>
<g id="a_node19"><a xlink:href="mq_8h.html" target="_top" xlink:title="Message queue(?).">
<polygon fill="white" stroke="black" points="397.5,-168.5 397.5,-187.5 438.5,-187.5 438.5,-168.5 397.5,-168.5"/>
<text text-anchor="middle" x="418" y="-175.5" font-family="Helvetica,sans-Serif" font-size="10.00">mq.h</text>
</a>
</g>
</g>
<!-- Node12&#45;&gt;Node19 -->
<g id="edge27" class="edge">
<title>Node12&#45;&gt;Node19</title>
<path fill="none" stroke="midnightblue" d="M245.53,-228.02C277.9,-218.82 347.39,-199.07 387.59,-187.64"/>
<polygon fill="midnightblue" stroke="midnightblue" points="388.71,-190.96 397.37,-184.86 386.8,-184.23 388.71,-190.96"/>
</g>
<!-- Node13&#45;&gt;Node3 -->
<g id="edge15" class="edge">
<title>Node13&#45;&gt;Node3</title>
<path fill="none" stroke="midnightblue" d="M182.81,-112.44C203.29,-103.6 235.48,-89.69 258.86,-79.59"/>
<polygon fill="midnightblue" stroke="midnightblue" points="260.49,-82.7 268.29,-75.52 257.72,-76.27 260.49,-82.7"/>
</g>
<!-- Node14&#45;&gt;Node3 -->
<g id="edge17" class="edge">
<title>Node14&#45;&gt;Node3</title>
<path fill="none" stroke="midnightblue" d="M299.79,-168.47C315.33,-161.32 334.71,-149.44 344,-132 354.57,-112.17 333.23,-93.13 313.92,-80.84"/>
<polygon fill="midnightblue" stroke="midnightblue" points="315.69,-77.83 305.31,-75.69 312.09,-83.83 315.69,-77.83"/>
</g>
<!-- Node15 -->
<g id="node15" class="node">
<title>Node15</title>
<g id="a_node15"><a xlink:href="sidebag_8h.html" target="_top" xlink:title="Sidebag for splice.">
<polygon fill="white" stroke="black" points="240.5,-112.5 240.5,-131.5 335.5,-131.5 335.5,-112.5 240.5,-112.5"/>
<text text-anchor="middle" x="288" y="-119.5" font-family="Helvetica,sans-Serif" font-size="10.00">splice/sidebag.h</text>
</a>
</g>
</g>
<!-- Node14&#45;&gt;Node15 -->
<g id="edge18" class="edge">
<title>Node14&#45;&gt;Node15</title>
<path fill="none" stroke="midnightblue" d="M278.82,-168.08C280.27,-160.93 282.37,-150.64 284.19,-141.69"/>
<polygon fill="midnightblue" stroke="midnightblue" points="287.65,-142.25 286.22,-131.75 280.79,-140.85 287.65,-142.25"/>
</g>
<!-- Node15&#45;&gt;Node3 -->
<g id="edge19" class="edge">
<title>Node15&#45;&gt;Node3</title>
<path fill="none" stroke="midnightblue" d="M288,-112.08C288,-105.01 288,-94.86 288,-85.99"/>
<polygon fill="midnightblue" stroke="midnightblue" points="291.5,-85.75 288,-75.75 284.5,-85.75 291.5,-85.75"/>
</g>
<!-- Node16&#45;&gt;Node3 -->
<g id="edge21" class="edge">
<title>Node16&#45;&gt;Node3</title>
<path fill="none" stroke="midnightblue" d="M132.46,-168.41C127.53,-154.93 120.52,-128.62 133,-112 146.38,-94.18 202.95,-81.14 243.88,-73.81"/>
<polygon fill="midnightblue" stroke="midnightblue" points="244.66,-77.23 253.92,-72.07 243.47,-70.33 244.66,-77.23"/>
</g>
<!-- Node16&#45;&gt;Node13 -->
<g id="edge22" class="edge">
<title>Node16&#45;&gt;Node13</title>
<path fill="none" stroke="midnightblue" d="M140.46,-168.08C144.15,-160.69 149.52,-149.95 154.09,-140.81"/>
<polygon fill="midnightblue" stroke="midnightblue" points="157.28,-142.26 158.62,-131.75 151.02,-139.13 157.28,-142.26"/>
</g>
<!-- Node17&#45;&gt;Node3 -->
<g id="edge24" class="edge">
<title>Node17&#45;&gt;Node3</title>
<path fill="none" stroke="midnightblue" d="M391.78,-112.56C371.68,-103.74 339.9,-89.79 316.8,-79.64"/>
<polygon fill="midnightblue" stroke="midnightblue" points="318.05,-76.37 307.49,-75.56 315.24,-82.78 318.05,-76.37"/>
</g>
<!-- Node18&#45;&gt;Node3 -->
<g id="edge26" class="edge">
<title>Node18&#45;&gt;Node3</title>
<path fill="none" stroke="midnightblue" d="M458.83,-112.44C423.94,-103.16 368.11,-88.31 329.83,-78.13"/>
<polygon fill="midnightblue" stroke="midnightblue" points="330.58,-74.7 320.02,-75.52 328.78,-81.47 330.58,-74.7"/>
</g>
<!-- Node19&#45;&gt;Node3 -->
<g id="edge28" class="edge">
<title>Node19&#45;&gt;Node3</title>
<path fill="none" stroke="midnightblue" d="M438.81,-174.27C481.86,-167.79 574.21,-149.2 543,-112 516.6,-80.54 397.97,-71.06 332.23,-68.22"/>
<polygon fill="midnightblue" stroke="midnightblue" points="332.28,-64.72 322.15,-67.81 332,-71.71 332.28,-64.72"/>
</g>
<!-- Node20&#45;&gt;Node3 -->
<g id="edge31" class="edge">
<title>Node20&#45;&gt;Node3</title>
<path fill="none" stroke="midnightblue" d="M123.4,-339.5C103.59,-333.18 74.19,-320.87 57,-300 37.87,-276.77 38,-265.1 38,-235 38,-235 38,-235 38,-177 38,-88.19 171.81,-70.45 243.64,-67.33"/>
<polygon fill="midnightblue" stroke="midnightblue" points="243.89,-70.82 253.76,-66.96 243.64,-63.82 243.89,-70.82"/>
</g>
<!-- Node20&#45;&gt;Node16 -->
<g id="edge32" class="edge">
<title>Node20&#45;&gt;Node16</title>
<path fill="none" stroke="midnightblue" d="M143.57,-336.08C142.31,-309.95 138.61,-233.21 136.9,-197.58"/>
<polygon fill="midnightblue" stroke="midnightblue" points="140.39,-197.39 136.41,-187.57 133.4,-197.73 140.39,-197.39"/>
</g>
<!-- Node20&#45;&gt;Node19 -->
<g id="edge36" class="edge">
<title>Node20&#45;&gt;Node19</title>
<path fill="none" stroke="midnightblue" d="M158.35,-336.31C203.1,-309.19 340.45,-225.98 395.16,-192.83"/>
<polygon fill="midnightblue" stroke="midnightblue" points="397.06,-195.78 403.8,-187.61 393.43,-189.79 397.06,-195.78"/>
</g>
<!-- Node21 -->
<g id="node21" class="node">
<title>Node21</title>
<g id="a_node21"><a xlink:href="anim_8h.html" target="_top" xlink:title="Animation.">
<polygon fill="white" stroke="black" points="66,-280.5 66,-299.5 116,-299.5 116,-280.5 66,-280.5"/>
<text text-anchor="middle" x="91" y="-287.5" font-family="Helvetica,sans-Serif" font-size="10.00">anim.h</text>
</a>
</g>
</g>
<!-- Node20&#45;&gt;Node21 -->
<g id="edge33" class="edge">
<title>Node20&#45;&gt;Node21</title>
<path fill="none" stroke="midnightblue" d="M135.25,-336.08C127.53,-328.22 116.1,-316.57 106.78,-307.08"/>
<polygon fill="midnightblue" stroke="midnightblue" points="109.09,-304.44 99.59,-299.75 104.1,-309.34 109.09,-304.44"/>
</g>
<!-- Node21&#45;&gt;Node3 -->
<g id="edge34" class="edge">
<title>Node21&#45;&gt;Node3</title>
<path fill="none" stroke="midnightblue" d="M89.53,-280.13C85.3,-251.36 76.25,-159.75 123,-112 154.52,-79.81 206.64,-69.97 243.87,-67.29"/>
<polygon fill="midnightblue" stroke="midnightblue" points="244.16,-70.78 253.94,-66.72 243.76,-63.79 244.16,-70.78"/>
</g>
<!-- Node21&#45;&gt;Node12 -->
<g id="edge35" class="edge">
<title>Node21&#45;&gt;Node12</title>
<path fill="none" stroke="midnightblue" d="M112.71,-280.44C136.55,-271.04 174.89,-255.93 200.74,-245.74"/>
<polygon fill="midnightblue" stroke="midnightblue" points="202.29,-248.89 210.31,-241.97 199.73,-242.38 202.29,-248.89"/>
</g>
<!-- Node22&#45;&gt;Node3 -->
<g id="edge39" class="edge">
<title>Node22&#45;&gt;Node3</title>
<path fill="none" stroke="midnightblue" d="M661.41,-224.24C659.39,-201.57 650.63,-140.73 614,-112 571.09,-78.34 410.85,-69.86 332.16,-67.72"/>
<polygon fill="midnightblue" stroke="midnightblue" points="332.16,-64.22 322.08,-67.47 331.99,-71.22 332.16,-64.22"/>
</g>
</g>
</svg>
