<?xml version="1.0" encoding="UTF-8" standalone="no"?>
<!DOCTYPE svg PUBLIC "-//W3C//DTD SVG 1.1//EN"
 "http://www.w3.org/Graphics/SVG/1.1/DTD/svg11.dtd">
<!-- Generated by graphviz version 2.43.0 (0)
 -->
<!-- Title: include/util.h Pages: 1 -->
<!--zoomable 476 -->
<svg id="main" version="1.1" xmlns="http://www.w3.org/2000/svg" xmlns:xlink="http://www.w3.org/1999/xlink" xml:space="preserve" onload="init(evt)">
<style type="text/css"><![CDATA[
.edge:hover path { stroke: red; }
.edge:hover polygon { stroke: red; fill: red; }
]]></style>
<script type="text/javascript"><![CDATA[
var edges = document.getElementsByTagName('g');
if (edges && edges.length) {
  for (var i=0;i<edges.length;i++) {
    if (edges[i].id.substr(0,4)=='edge') {
      edges[i].setAttribute('class','edge');
    }
  }
}
]]></script>
        <defs>
                <circle id="rim" cx="0" cy="0" r="7"/>
                <circle id="rim2" cx="0" cy="0" r="3.5"/>
                <g id="zoomPlus">
                        <use xlink:href="#rim" fill="#404040">
                                <set attributeName="fill" to="#808080" begin="zoomplus.mouseover" end="zoomplus.mouseout"/>
                        </use>
                        <path d="M-4,0h8M0,-4v8" fill="none" stroke="white" stroke-width="1.5" pointer-events="none"/>
                </g>
                <g id="zoomMin">
                        <use xlink:href="#rim" fill="#404040">
                                <set attributeName="fill" to="#808080" begin="zoomminus.mouseover" end="zoomminus.mouseout"/>
                        </use>
                        <path d="M-4,0h8" fill="none" stroke="white" stroke-width="1.5" pointer-events="none"/>
                </g>
                <g id="dirArrow">
                        <path fill="none" stroke="white" stroke-width="1.5" d="M0,-3.0v7 M-2.5,-0.5L0,-3.0L2.5,-0.5"/>
                </g>
               <g id="resetDef">
                       <use xlink:href="#rim2" fill="#404040">
                               <set attributeName="fill" to="#808080" begin="reset.mouseover" end="reset.mouseout"/>
                       </use>
               </g>
        </defs>

<script type="text/javascript">
var viewWidth = 613;
var viewHeight = 476;
var sectionId = 'dynsection-0';
</script>
<script xlink:href="svgpan.js"/>
<svg id="graph" class="graph">
<g id="viewport">
<title>include/util.h</title>
<polygon fill="white" stroke="transparent" points="-4,4 -4,-472 609,-472 609,4 -4,4"/>
<!-- Node1 -->
<g id="node1" class="node">
<title>Node1</title>
<g id="a_node1"><a xlink:title="Utility functions.">
<polygon fill="#bfbfbf" stroke="black" points="42,-448.5 42,-467.5 122,-467.5 122,-448.5 42,-448.5"/>
<text text-anchor="middle" x="82" y="-455.5" font-family="Helvetica,sans-Serif" font-size="10.00">include/util.h</text>
</a>
</g>
</g>
<!-- Node2 -->
<g id="node2" class="node">
<title>Node2</title>
<g id="a_node2"><a xlink:href="common_8h.html" target="_top" xlink:title="Common header file.">
<polygon fill="white" stroke="black" points="254,-56.5 254,-75.5 322,-75.5 322,-56.5 254,-56.5"/>
<text text-anchor="middle" x="288" y="-63.5" font-family="Helvetica,sans-Serif" font-size="10.00">common.h</text>
</a>
</g>
</g>
<!-- Node1&#45;&gt;Node2 -->
<g id="edge1" class="edge">
<title>Node1&#45;&gt;Node2</title>
<path fill="none" stroke="midnightblue" d="M63.97,-448.39C49.77,-440.73 30.52,-428.22 19,-412 1.57,-387.46 0,-377.1 0,-347 0,-347 0,-347 0,-177 0,-135.51 30.31,-131.36 67,-112 123.34,-82.27 197.33,-72.15 243.78,-68.73"/>
<polygon fill="midnightblue" stroke="midnightblue" points="244.08,-72.22 253.83,-68.06 243.62,-65.23 244.08,-72.22"/>
</g>
<!-- Node6 -->
<g id="node6" class="node">
<title>Node6</title>
<g id="a_node6"><a xlink:href="mat_8h.html" target="_top" xlink:title="3x3 and 4x4 matrix types.">
<polygon fill="white" stroke="black" points="28.5,-392.5 28.5,-411.5 73.5,-411.5 73.5,-392.5 28.5,-392.5"/>
<text text-anchor="middle" x="51" y="-399.5" font-family="Helvetica,sans-Serif" font-size="10.00">mat.h</text>
</a>
</g>
</g>
<!-- Node1&#45;&gt;Node6 -->
<g id="edge5" class="edge">
<title>Node1&#45;&gt;Node6</title>
<path fill="none" stroke="midnightblue" d="M76.88,-448.08C72.59,-440.61 66.34,-429.72 61.06,-420.52"/>
<polygon fill="midnightblue" stroke="midnightblue" points="64.04,-418.68 56.02,-411.75 57.97,-422.17 64.04,-418.68"/>
</g>
<!-- Node7 -->
<g id="node7" class="node">
<title>Node7</title>
<g id="a_node7"><a xlink:href="vec_8h.html" target="_top" xlink:title="Vector math functions.">
<polygon fill="white" stroke="black" points="91.5,-392.5 91.5,-411.5 134.5,-411.5 134.5,-392.5 91.5,-392.5"/>
<text text-anchor="middle" x="113" y="-399.5" font-family="Helvetica,sans-Serif" font-size="10.00">vec.h</text>
</a>
</g>
</g>
<!-- Node1&#45;&gt;Node7 -->
<g id="edge6" class="edge">
<title>Node1&#45;&gt;Node7</title>
<path fill="none" stroke="midnightblue" d="M87.12,-448.08C91.41,-440.61 97.66,-429.72 102.94,-420.52"/>
<polygon fill="midnightblue" stroke="midnightblue" points="106.03,-422.17 107.98,-411.75 99.96,-418.68 106.03,-422.17"/>
</g>
<!-- Node18 -->
<g id="node18" class="node">
<title>Node18</title>
<g id="a_node18"><a xlink:href="sm_8h.html" target="_top" xlink:title="State machines.">
<polygon fill="white" stroke="black" points="264.5,-336.5 264.5,-355.5 305.5,-355.5 305.5,-336.5 264.5,-336.5"/>
<text text-anchor="middle" x="285" y="-343.5" font-family="Helvetica,sans-Serif" font-size="10.00">sm.h</text>
</a>
</g>
</g>
<!-- Node1&#45;&gt;Node18 -->
<g id="edge28" class="edge">
<title>Node1&#45;&gt;Node18</title>
<path fill="none" stroke="midnightblue" d="M97.93,-448.37C133.21,-429.25 218.14,-383.23 260.34,-360.36"/>
<polygon fill="midnightblue" stroke="midnightblue" points="262.02,-363.43 269.14,-355.59 258.69,-357.28 262.02,-363.43"/>
</g>
<!-- Node3 -->
<g id="node3" class="node">
<title>Node3</title>
<g id="a_node3"><a xlink:href="include__asm_8h.html" target="_top" xlink:title=" ">
<polygon fill="white" stroke="black" points="133.5,-0.5 133.5,-19.5 220.5,-19.5 220.5,-0.5 133.5,-0.5"/>
<text text-anchor="middle" x="177" y="-7.5" font-family="Helvetica,sans-Serif" font-size="10.00">include_asm.h</text>
</a>
</g>
</g>
<!-- Node2&#45;&gt;Node3 -->
<g id="edge2" class="edge">
<title>Node2&#45;&gt;Node3</title>
<path fill="none" stroke="midnightblue" d="M270.17,-56.32C252.28,-47.62 224.52,-34.12 203.95,-24.11"/>
<polygon fill="midnightblue" stroke="midnightblue" points="205.31,-20.88 194.79,-19.65 202.25,-27.18 205.31,-20.88"/>
</g>
<!-- Node4 -->
<g id="node4" class="node">
<title>Node4</title>
<g id="a_node4"><a xlink:href="include__rodata_8h.html" target="_top" xlink:title=" ">
<polygon fill="white" stroke="black" points="239,-0.5 239,-19.5 337,-19.5 337,-0.5 239,-0.5"/>
<text text-anchor="middle" x="288" y="-7.5" font-family="Helvetica,sans-Serif" font-size="10.00">include_rodata.h</text>
</a>
</g>
</g>
<!-- Node2&#45;&gt;Node4 -->
<g id="edge3" class="edge">
<title>Node2&#45;&gt;Node4</title>
<path fill="none" stroke="midnightblue" d="M288,-56.08C288,-49.01 288,-38.86 288,-29.99"/>
<polygon fill="midnightblue" stroke="midnightblue" points="291.5,-29.75 288,-19.75 284.5,-29.75 291.5,-29.75"/>
</g>
<!-- Node5 -->
<g id="node5" class="node">
<title>Node5</title>
<g id="a_node5"><a xlink:href="types_8h.html" target="_top" xlink:title="Types used throughout the engine.">
<polygon fill="white" stroke="black" points="355.5,-0.5 355.5,-19.5 408.5,-19.5 408.5,-0.5 355.5,-0.5"/>
<text text-anchor="middle" x="382" y="-7.5" font-family="Helvetica,sans-Serif" font-size="10.00">types.h</text>
</a>
</g>
</g>
<!-- Node2&#45;&gt;Node5 -->
<g id="edge4" class="edge">
<title>Node2&#45;&gt;Node5</title>
<path fill="none" stroke="midnightblue" d="M303.1,-56.32C317.9,-47.82 340.69,-34.73 357.98,-24.8"/>
<polygon fill="midnightblue" stroke="midnightblue" points="360.01,-27.67 366.93,-19.65 356.52,-21.6 360.01,-27.67"/>
</g>
<!-- Node8 -->
<g id="node8" class="node">
<title>Node8</title>
<g id="a_node8"><a xlink:href="so_8h.html" target="_top" xlink:title="Scene objects.">
<polygon fill="white" stroke="black" points="92.5,-336.5 92.5,-355.5 129.5,-355.5 129.5,-336.5 92.5,-336.5"/>
<text text-anchor="middle" x="111" y="-343.5" font-family="Helvetica,sans-Serif" font-size="10.00">so.h</text>
</a>
</g>
</g>
<!-- Node7&#45;&gt;Node8 -->
<g id="edge7" class="edge">
<title>Node7&#45;&gt;Node8</title>
<path fill="none" stroke="midnightblue" d="M112.67,-392.08C112.41,-385.01 112.03,-374.86 111.7,-365.99"/>
<polygon fill="midnightblue" stroke="midnightblue" points="115.19,-365.61 111.32,-355.75 108.2,-365.87 115.19,-365.61"/>
</g>
<!-- Node9 -->
<g id="node9" class="node">
<title>Node9</title>
<g id="a_node9"><a xlink:href="alo_8h.html" target="_top" xlink:title=" ">
<polygon fill="white" stroke="black" points="89.5,-280.5 89.5,-299.5 130.5,-299.5 130.5,-280.5 89.5,-280.5"/>
<text text-anchor="middle" x="110" y="-287.5" font-family="Helvetica,sans-Serif" font-size="10.00">alo.h</text>
</a>
</g>
</g>
<!-- Node8&#45;&gt;Node9 -->
<g id="edge8" class="edge">
<title>Node8&#45;&gt;Node9</title>
<path fill="none" stroke="midnightblue" d="M110.83,-336.08C110.7,-329.01 110.52,-318.86 110.35,-309.99"/>
<polygon fill="midnightblue" stroke="midnightblue" points="113.85,-309.68 110.16,-299.75 106.85,-309.81 113.85,-309.68"/>
</g>
<!-- Node9&#45;&gt;Node2 -->
<g id="edge9" class="edge">
<title>Node9&#45;&gt;Node2</title>
<path fill="none" stroke="midnightblue" d="M104.5,-280.39C86.88,-251.63 35.74,-158.15 84,-112 106.55,-90.44 190.91,-77.53 243.83,-71.39"/>
<polygon fill="midnightblue" stroke="midnightblue" points="244.42,-74.84 253.97,-70.25 243.64,-67.89 244.42,-74.84"/>
</g>
<!-- Node10 -->
<g id="node10" class="node">
<title>Node10</title>
<g id="a_node10"><a xlink:href="lo_8h.html" target="_top" xlink:title="Level objects.">
<polygon fill="white" stroke="black" points="249.5,-224.5 249.5,-243.5 284.5,-243.5 284.5,-224.5 249.5,-224.5"/>
<text text-anchor="middle" x="267" y="-231.5" font-family="Helvetica,sans-Serif" font-size="10.00">lo.h</text>
</a>
</g>
</g>
<!-- Node9&#45;&gt;Node10 -->
<g id="edge10" class="edge">
<title>Node9&#45;&gt;Node10</title>
<path fill="none" stroke="midnightblue" d="M130.53,-281.94C158.45,-272.33 208.5,-255.12 239.61,-244.42"/>
<polygon fill="midnightblue" stroke="midnightblue" points="241.06,-247.62 249.38,-241.06 238.78,-241 241.06,-247.62"/>
</g>
<!-- Node14 -->
<g id="node14" class="node">
<title>Node14</title>
<g id="a_node14"><a xlink:href="dl_8h.html" target="_top" xlink:title=" ">
<polygon fill="white" stroke="black" points="78.5,-168.5 78.5,-187.5 113.5,-187.5 113.5,-168.5 78.5,-168.5"/>
<text text-anchor="middle" x="96" y="-175.5" font-family="Helvetica,sans-Serif" font-size="10.00">dl.h</text>
</a>
</g>
</g>
<!-- Node9&#45;&gt;Node14 -->
<g id="edge27" class="edge">
<title>Node9&#45;&gt;Node14</title>
<path fill="none" stroke="midnightblue" d="M108.9,-280.37C106.64,-262.62 101.43,-221.67 98.37,-197.6"/>
<polygon fill="midnightblue" stroke="midnightblue" points="101.83,-197.07 97.09,-187.59 94.88,-197.95 101.83,-197.07"/>
</g>
<!-- Node10&#45;&gt;Node2 -->
<g id="edge11" class="edge">
<title>Node10&#45;&gt;Node2</title>
<path fill="none" stroke="midnightblue" d="M254.7,-224.42C227.71,-204.52 167.72,-153.72 194,-112 205.09,-94.4 225.17,-83.53 243.94,-76.9"/>
<polygon fill="midnightblue" stroke="midnightblue" points="245.13,-80.2 253.58,-73.81 242.99,-73.53 245.13,-80.2"/>
</g>
<!-- Node11 -->
<g id="node11" class="node">
<title>Node11</title>
<g id="a_node11"><a xlink:href="oid_8h.html" target="_top" xlink:title="Object IDs.">
<polygon fill="white" stroke="black" points="104.5,-112.5 104.5,-131.5 145.5,-131.5 145.5,-112.5 104.5,-112.5"/>
<text text-anchor="middle" x="125" y="-119.5" font-family="Helvetica,sans-Serif" font-size="10.00">oid.h</text>
</a>
</g>
</g>
<!-- Node10&#45;&gt;Node11 -->
<g id="edge12" class="edge">
<title>Node10&#45;&gt;Node11</title>
<path fill="none" stroke="midnightblue" d="M249.2,-228.52C227.54,-222.35 190.82,-209.49 166,-188 151.07,-175.07 139.69,-155.35 132.75,-141.03"/>
<polygon fill="midnightblue" stroke="midnightblue" points="135.84,-139.36 128.5,-131.72 129.48,-142.27 135.84,-139.36"/>
</g>
<!-- Node12 -->
<g id="node12" class="node">
<title>Node12</title>
<g id="a_node12"><a xlink:href="basic_8h.html" target="_top" xlink:title="Basic object.">
<polygon fill="white" stroke="black" points="241.5,-168.5 241.5,-187.5 292.5,-187.5 292.5,-168.5 241.5,-168.5"/>
<text text-anchor="middle" x="267" y="-175.5" font-family="Helvetica,sans-Serif" font-size="10.00">basic.h</text>
</a>
</g>
</g>
<!-- Node10&#45;&gt;Node12 -->
<g id="edge14" class="edge">
<title>Node10&#45;&gt;Node12</title>
<path fill="none" stroke="midnightblue" d="M267,-224.08C267,-217.01 267,-206.86 267,-197.99"/>
<polygon fill="midnightblue" stroke="midnightblue" points="270.5,-197.75 267,-187.75 263.5,-197.75 270.5,-197.75"/>
</g>
<!-- Node10&#45;&gt;Node14 -->
<g id="edge18" class="edge">
<title>Node10&#45;&gt;Node14</title>
<path fill="none" stroke="midnightblue" d="M249.34,-227.42C219.44,-217.98 158.64,-198.78 123.25,-187.6"/>
<polygon fill="midnightblue" stroke="midnightblue" points="124.15,-184.22 113.56,-184.55 122.04,-190.89 124.15,-184.22"/>
</g>
<!-- Node15 -->
<g id="node15" class="node">
<title>Node15</title>
<g id="a_node15"><a xlink:href="sw_8h.html" target="_top" xlink:title="Scene world?">
<polygon fill="white" stroke="black" points="354,-112.5 354,-131.5 392,-131.5 392,-112.5 354,-112.5"/>
<text text-anchor="middle" x="373" y="-119.5" font-family="Helvetica,sans-Serif" font-size="10.00">sw.h</text>
</a>
</g>
</g>
<!-- Node10&#45;&gt;Node15 -->
<g id="edge21" class="edge">
<title>Node10&#45;&gt;Node15</title>
<path fill="none" stroke="midnightblue" d="M275.32,-224.37C293.04,-205.97 334.77,-162.67 357.53,-139.05"/>
<polygon fill="midnightblue" stroke="midnightblue" points="360.3,-141.22 364.72,-131.59 355.26,-136.36 360.3,-141.22"/>
</g>
<!-- Node16 -->
<g id="node16" class="node">
<title>Node16</title>
<g id="a_node16"><a xlink:href="frame_8h.html" target="_top" xlink:title=" ">
<polygon fill="white" stroke="black" points="410,-112.5 410,-131.5 496,-131.5 496,-112.5 410,-112.5"/>
<text text-anchor="middle" x="453" y="-119.5" font-family="Helvetica,sans-Serif" font-size="10.00">splice/frame.h</text>
</a>
</g>
</g>
<!-- Node10&#45;&gt;Node16 -->
<g id="edge23" class="edge">
<title>Node10&#45;&gt;Node16</title>
<path fill="none" stroke="midnightblue" d="M281.6,-224.37C313.65,-205.41 390.44,-160 429.42,-136.94"/>
<polygon fill="midnightblue" stroke="midnightblue" points="431.65,-139.69 438.47,-131.59 428.08,-133.67 431.65,-139.69"/>
</g>
<!-- Node17 -->
<g id="node17" class="node">
<title>Node17</title>
<g id="a_node17"><a xlink:href="mq_8h.html" target="_top" xlink:title="Message queue(?).">
<polygon fill="white" stroke="black" points="535.5,-168.5 535.5,-187.5 576.5,-187.5 576.5,-168.5 535.5,-168.5"/>
<text text-anchor="middle" x="556" y="-175.5" font-family="Helvetica,sans-Serif" font-size="10.00">mq.h</text>
</a>
</g>
</g>
<!-- Node10&#45;&gt;Node17 -->
<g id="edge25" class="edge">
<title>Node10&#45;&gt;Node17</title>
<path fill="none" stroke="midnightblue" d="M284.64,-229.7C332.39,-220.78 464.6,-196.08 525.08,-184.78"/>
<polygon fill="midnightblue" stroke="midnightblue" points="525.98,-188.17 535.16,-182.89 524.69,-181.29 525.98,-188.17"/>
</g>
<!-- Node11&#45;&gt;Node2 -->
<g id="edge13" class="edge">
<title>Node11&#45;&gt;Node2</title>
<path fill="none" stroke="midnightblue" d="M145.64,-114.16C172.51,-105.26 219.86,-89.57 252.53,-78.75"/>
<polygon fill="midnightblue" stroke="midnightblue" points="253.77,-82.03 262.16,-75.56 251.56,-75.38 253.77,-82.03"/>
</g>
<!-- Node12&#45;&gt;Node2 -->
<g id="edge15" class="edge">
<title>Node12&#45;&gt;Node2</title>
<path fill="none" stroke="midnightblue" d="M278.27,-168.43C287.97,-160.27 301.28,-147.05 307,-132 312.99,-116.24 306.31,-97.73 299.27,-84.51"/>
<polygon fill="midnightblue" stroke="midnightblue" points="302.09,-82.41 294.02,-75.55 296.06,-85.95 302.09,-82.41"/>
</g>
<!-- Node13 -->
<g id="node13" class="node">
<title>Node13</title>
<g id="a_node13"><a xlink:href="sidebag_8h.html" target="_top" xlink:title="Sidebag for splice.">
<polygon fill="white" stroke="black" points="202.5,-112.5 202.5,-131.5 297.5,-131.5 297.5,-112.5 202.5,-112.5"/>
<text text-anchor="middle" x="250" y="-119.5" font-family="Helvetica,sans-Serif" font-size="10.00">splice/sidebag.h</text>
</a>
</g>
</g>
<!-- Node12&#45;&gt;Node13 -->
<g id="edge16" class="edge">
<title>Node12&#45;&gt;Node13</title>
<path fill="none" stroke="midnightblue" d="M264.19,-168.08C261.92,-160.85 258.63,-150.41 255.79,-141.4"/>
<polygon fill="midnightblue" stroke="midnightblue" points="259.1,-140.24 252.75,-131.75 252.42,-142.34 259.1,-140.24"/>
</g>
<!-- Node13&#45;&gt;Node2 -->
<g id="edge17" class="edge">
<title>Node13&#45;&gt;Node2</title>
<path fill="none" stroke="midnightblue" d="M256.27,-112.08C261.64,-104.46 269.52,-93.26 276.08,-83.94"/>
<polygon fill="midnightblue" stroke="midnightblue" points="278.95,-85.94 281.84,-75.75 273.22,-81.91 278.95,-85.94"/>
</g>
<!-- Node14&#45;&gt;Node2 -->
<g id="edge19" class="edge">
<title>Node14&#45;&gt;Node2</title>
<path fill="none" stroke="midnightblue" d="M92.74,-168.33C88.25,-154.73 82.09,-128.27 95,-112 113.21,-89.06 192.58,-76.73 243.69,-71.04"/>
<polygon fill="midnightblue" stroke="midnightblue" points="244.25,-74.5 253.82,-69.96 243.51,-67.54 244.25,-74.5"/>
</g>
<!-- Node14&#45;&gt;Node11 -->
<g id="edge20" class="edge">
<title>Node14&#45;&gt;Node11</title>
<path fill="none" stroke="midnightblue" d="M100.79,-168.08C104.76,-160.69 110.53,-149.95 115.43,-140.81"/>
<polygon fill="midnightblue" stroke="midnightblue" points="118.65,-142.22 120.3,-131.75 112.49,-138.91 118.65,-142.22"/>
</g>
<!-- Node15&#45;&gt;Node2 -->
<g id="edge22" class="edge">
<title>Node15&#45;&gt;Node2</title>
<path fill="none" stroke="midnightblue" d="M359.34,-112.32C346.08,-103.9 325.73,-90.97 310.15,-81.07"/>
<polygon fill="midnightblue" stroke="midnightblue" points="311.94,-78.06 301.62,-75.65 308.19,-83.97 311.94,-78.06"/>
</g>
<!-- Node16&#45;&gt;Node2 -->
<g id="edge24" class="edge">
<title>Node16&#45;&gt;Node2</title>
<path fill="none" stroke="midnightblue" d="M426.86,-112.44C398.98,-103.32 354.65,-88.81 323.6,-78.65"/>
<polygon fill="midnightblue" stroke="midnightblue" points="324.62,-75.3 314.02,-75.52 322.44,-81.95 324.62,-75.3"/>
</g>
<!-- Node17&#45;&gt;Node2 -->
<g id="edge26" class="edge">
<title>Node17&#45;&gt;Node2</title>
<path fill="none" stroke="midnightblue" d="M556.31,-168.37C556.3,-154.34 554.09,-126.68 538,-112 508.52,-85.12 395.84,-73.76 332.28,-69.4"/>
<polygon fill="midnightblue" stroke="midnightblue" points="332.36,-65.9 322.15,-68.74 331.9,-72.89 332.36,-65.9"/>
</g>
<!-- Node18&#45;&gt;Node2 -->
<g id="edge29" class="edge">
<title>Node18&#45;&gt;Node2</title>
<path fill="none" stroke="midnightblue" d="M305.5,-342.49C376.13,-333.3 605,-298.59 605,-235 605,-235 605,-235 605,-177 605,-141.35 588.3,-130.78 558,-112 521.1,-89.12 399.32,-75.98 332.63,-70.33"/>
<polygon fill="midnightblue" stroke="midnightblue" points="332.67,-66.82 322.42,-69.48 332.1,-73.8 332.67,-66.82"/>
</g>
<!-- Node18&#45;&gt;Node14 -->
<g id="edge30" class="edge">
<title>Node18&#45;&gt;Node14</title>
<path fill="none" stroke="midnightblue" d="M275.1,-336.31C244.74,-309.64 152.6,-228.72 113.67,-194.52"/>
<polygon fill="midnightblue" stroke="midnightblue" points="115.62,-191.57 105.8,-187.61 111,-196.83 115.62,-191.57"/>
</g>
<!-- Node18&#45;&gt;Node17 -->
<g id="edge34" class="edge">
<title>Node18&#45;&gt;Node17</title>
<path fill="none" stroke="midnightblue" d="M305.82,-340.96C350.31,-331.4 455.87,-303.54 521,-244 534.87,-231.32 544.33,-211.84 549.89,-197.51"/>
<polygon fill="midnightblue" stroke="midnightblue" points="553.31,-198.35 553.38,-187.76 546.72,-195.99 553.31,-198.35"/>
</g>
<!-- Node19 -->
<g id="node19" class="node">
<title>Node19</title>
<g id="a_node19"><a xlink:href="anim_8h.html" target="_top" xlink:title="Animation.">
<polygon fill="white" stroke="black" points="260,-280.5 260,-299.5 310,-299.5 310,-280.5 260,-280.5"/>
<text text-anchor="middle" x="285" y="-287.5" font-family="Helvetica,sans-Serif" font-size="10.00">anim.h</text>
</a>
</g>
</g>
<!-- Node18&#45;&gt;Node19 -->
<g id="edge31" class="edge">
<title>Node18&#45;&gt;Node19</title>
<path fill="none" stroke="midnightblue" d="M285,-336.08C285,-329.01 285,-318.86 285,-309.99"/>
<polygon fill="midnightblue" stroke="midnightblue" points="288.5,-309.75 285,-299.75 281.5,-309.75 288.5,-309.75"/>
</g>
<!-- Node19&#45;&gt;Node2 -->
<g id="edge32" class="edge">
<title>Node19&#45;&gt;Node2</title>
<path fill="none" stroke="midnightblue" d="M310.05,-281.64C380.31,-259.8 569.98,-191.84 505,-112 483.68,-85.8 389.53,-74.37 332.48,-69.78"/>
<polygon fill="midnightblue" stroke="midnightblue" points="332.53,-66.27 322.29,-69 331.99,-73.25 332.53,-66.27"/>
</g>
<!-- Node19&#45;&gt;Node10 -->
<g id="edge33" class="edge">
<title>Node19&#45;&gt;Node10</title>
<path fill="none" stroke="midnightblue" d="M282.03,-280.08C279.62,-272.85 276.14,-262.41 273.13,-253.4"/>
<polygon fill="midnightblue" stroke="midnightblue" points="276.4,-252.13 269.92,-243.75 269.76,-254.34 276.4,-252.13"/>
</g>
</g>
</svg>
        <g id="navigator" transform="translate(0 0)" fill="#404254">
                <rect fill="#f2f5e9" fill-opacity="0.5" stroke="#606060" stroke-width=".5" x="0" y="0" width="60" height="60"/>
                <use id="zoomplus" xlink:href="#zoomPlus" x="17" y="9" onmousedown="handleZoom(evt,'in')"/>
                <use id="zoomminus" xlink:href="#zoomMin" x="42" y="9" onmousedown="handleZoom(evt,'out')"/>
                <use id="reset" xlink:href="#resetDef" x="30" y="36" onmousedown="handleReset()"/>
                <g id="arrowUp" xlink:href="#dirArrow" transform="translate(30 24)" onmousedown="handlePan(0,-1)">
                  <use xlink:href="#rim" fill="#404040">
                        <set attributeName="fill" to="#808080" begin="arrowUp.mouseover" end="arrowUp.mouseout"/>
                  </use>
                  <path fill="none" stroke="white" stroke-width="1.5" d="M0,-3.0v7 M-2.5,-0.5L0,-3.0L2.5,-0.5"/>
                </g>
                <g id="arrowRight" xlink:href="#dirArrow" transform="rotate(90) translate(36 -43)" onmousedown="handlePan(1,0)">
                  <use xlink:href="#rim" fill="#404040">
                        <set attributeName="fill" to="#808080" begin="arrowRight.mouseover" end="arrowRight.mouseout"/>
                  </use>
                  <path fill="none" stroke="white" stroke-width="1.5" d="M0,-3.0v7 M-2.5,-0.5L0,-3.0L2.5,-0.5"/>
                </g>
                <g id="arrowDown" xlink:href="#dirArrow" transform="rotate(180) translate(-30 -48)" onmousedown="handlePan(0,1)">
                  <use xlink:href="#rim" fill="#404040">
                        <set attributeName="fill" to="#808080" begin="arrowDown.mouseover" end="arrowDown.mouseout"/>
                  </use>
                  <path fill="none" stroke="white" stroke-width="1.5" d="M0,-3.0v7 M-2.5,-0.5L0,-3.0L2.5,-0.5"/>
                </g>
                <g id="arrowLeft" xlink:href="#dirArrow" transform="rotate(270) translate(-36 17)" onmousedown="handlePan(-1,0)">
                  <use xlink:href="#rim" fill="#404040">
                        <set attributeName="fill" to="#808080" begin="arrowLeft.mouseover" end="arrowLeft.mouseout"/>
                  </use>
                  <path fill="none" stroke="white" stroke-width="1.5" d="M0,-3.0v7 M-2.5,-0.5L0,-3.0L2.5,-0.5"/>
                </g>
        </g>
        <svg viewBox="0 0 15 15" width="100%" height="30px" preserveAspectRatio="xMaxYMin meet">
         <g id="arrow_out" transform="scale(0.3 0.3)">
          <a xlink:href="util_8h__incl_org.svg" target="_base">
           <rect id="button" ry="5" rx="5" y="6" x="6" height="38" width="38"
                fill="#f2f5e9" fill-opacity="0.5" stroke="#606060" stroke-width="1.0"/>
           <path id="arrow"
             d="M 11.500037,31.436501 C 11.940474,20.09759 22.043105,11.32322 32.158766,21.979434 L 37.068811,17.246167 C 37.068811,17.246167 37.088388,32 37.088388,32 L 22.160133,31.978069 C 22.160133,31.978069 26.997745,27.140456 26.997745,27.140456 C 18.528582,18.264221 13.291696,25.230495 11.500037,31.436501 z"
             style="fill:#404040;"/>
          </a>
         </g>
        </svg>
</svg>
