<?xml version="1.0" encoding="UTF-8" standalone="no"?>
<!DOCTYPE svg PUBLIC "-//W3C//DTD SVG 1.1//EN"
 "http://www.w3.org/Graphics/SVG/1.1/DTD/svg11.dtd">
<!-- Generated by graphviz version 2.43.0 (0)
 -->
<!-- Title: src/P2/util.c Pages: 1 -->
<!--zoomable 532 -->
<svg id="main" version="1.1" xmlns="http://www.w3.org/2000/svg" xmlns:xlink="http://www.w3.org/1999/xlink" xml:space="preserve" onload="init(evt)">
<style type="text/css"><![CDATA[
.edge:hover path { stroke: red; }
.edge:hover polygon { stroke: red; fill: red; }
]]></style>
<script type="text/javascript"><![CDATA[
var edges = document.getElementsByTagName('g');
if (edges && edges.length) {
  for (var i=0;i<edges.length;i++) {
    if (edges[i].id.substr(0,4)=='edge') {
      edges[i].setAttribute('class','edge');
    }
  }
}
]]></script>
        <defs>
                <circle id="rim" cx="0" cy="0" r="7"/>
                <circle id="rim2" cx="0" cy="0" r="3.5"/>
                <g id="zoomPlus">
                        <use xlink:href="#rim" fill="#404040">
                                <set attributeName="fill" to="#808080" begin="zoomplus.mouseover" end="zoomplus.mouseout"/>
                        </use>
                        <path d="M-4,0h8M0,-4v8" fill="none" stroke="white" stroke-width="1.5" pointer-events="none"/>
                </g>
                <g id="zoomMin">
                        <use xlink:href="#rim" fill="#404040">
                                <set attributeName="fill" to="#808080" begin="zoomminus.mouseover" end="zoomminus.mouseout"/>
                        </use>
                        <path d="M-4,0h8" fill="none" stroke="white" stroke-width="1.5" pointer-events="none"/>
                </g>
                <g id="dirArrow">
                        <path fill="none" stroke="white" stroke-width="1.5" d="M0,-3.0v7 M-2.5,-0.5L0,-3.0L2.5,-0.5"/>
                </g>
               <g id="resetDef">
                       <use xlink:href="#rim2" fill="#404040">
                               <set attributeName="fill" to="#808080" begin="reset.mouseover" end="reset.mouseout"/>
                       </use>
               </g>
        </defs>

<script type="text/javascript">
var viewWidth = 637;
var viewHeight = 532;
var sectionId = 'dynsection-0';
</script>
<script xlink:href="svgpan.js"/>
<svg id="graph" class="graph">
<g id="viewport">
<title>src/P2/util.c</title>
<polygon fill="white" stroke="transparent" points="-4,4 -4,-528 633,-528 633,4 -4,4"/>
<!-- Node1 -->
<g id="node1" class="node">
<title>Node1</title>
<g id="a_node1"><a xlink:title=" ">
<polygon fill="#bfbfbf" stroke="black" points="493,-504.5 493,-523.5 566,-523.5 566,-504.5 493,-504.5"/>
<text text-anchor="middle" x="529.5" y="-511.5" font-family="Helvetica,sans-Serif" font-size="10.00">src/P2/util.c</text>
</a>
</g>
</g>
<!-- Node2 -->
<g id="node2" class="node">
<title>Node2</title>
<g id="a_node2"><a xlink:href="util_8h.html" target="_top" xlink:title="Utility functions.">
<polygon fill="white" stroke="black" points="485,-448.5 485,-467.5 526,-467.5 526,-448.5 485,-448.5"/>
<text text-anchor="middle" x="505.5" y="-455.5" font-family="Helvetica,sans-Serif" font-size="10.00">util.h</text>
</a>
</g>
</g>
<!-- Node1&#45;&gt;Node2 -->
<g id="edge1" class="edge">
<title>Node1&#45;&gt;Node2</title>
<path fill="none" stroke="midnightblue" d="M525.54,-504.08C522.29,-496.77 517.58,-486.18 513.55,-477.1"/>
<polygon fill="midnightblue" stroke="midnightblue" points="516.65,-475.47 509.39,-467.75 510.25,-478.31 516.65,-475.47"/>
</g>
<!-- Node19 -->
<g id="node19" class="node">
<title>Node19</title>
<g id="a_node19"><a xlink:href="rand_8h.html" target="_top" xlink:title="Random number generator.">
<polygon fill="white" stroke="black" points="562,-336.5 562,-355.5 629,-355.5 629,-336.5 562,-336.5"/>
<text text-anchor="middle" x="595.5" y="-343.5" font-family="Helvetica,sans-Serif" font-size="10.00">sce/rand.h</text>
</a>
</g>
</g>
<!-- Node1&#45;&gt;Node19 -->
<g id="edge29" class="edge">
<title>Node1&#45;&gt;Node19</title>
<path fill="none" stroke="midnightblue" d="M533.05,-504.08C543.48,-477.83 574.21,-400.55 588.3,-365.12"/>
<polygon fill="midnightblue" stroke="midnightblue" points="591.65,-366.15 592.09,-355.57 585.15,-363.57 591.65,-366.15"/>
</g>
<!-- Node3 -->
<g id="node3" class="node">
<title>Node3</title>
<g id="a_node3"><a xlink:href="common_8h.html" target="_top" xlink:title="Common header file.">
<polygon fill="white" stroke="black" points="325.5,-56.5 325.5,-75.5 393.5,-75.5 393.5,-56.5 325.5,-56.5"/>
<text text-anchor="middle" x="359.5" y="-63.5" font-family="Helvetica,sans-Serif" font-size="10.00">common.h</text>
</a>
</g>
</g>
<!-- Node2&#45;&gt;Node3 -->
<g id="edge2" class="edge">
<title>Node2&#45;&gt;Node3</title>
<path fill="none" stroke="midnightblue" d="M509.28,-448.35C516.92,-430.03 533.5,-385.82 533.5,-347 533.5,-347 533.5,-347 533.5,-177 533.5,-115.69 455.35,-87.15 403.8,-75"/>
<polygon fill="midnightblue" stroke="midnightblue" points="404.4,-71.54 393.88,-72.78 402.87,-78.37 404.4,-71.54"/>
</g>
<!-- Node7 -->
<g id="node7" class="node">
<title>Node7</title>
<g id="a_node7"><a xlink:href="mat_8h.html" target="_top" xlink:title="3x3 and 4x4 matrix types.">
<polygon fill="white" stroke="black" points="399,-392.5 399,-411.5 444,-411.5 444,-392.5 399,-392.5"/>
<text text-anchor="middle" x="421.5" y="-399.5" font-family="Helvetica,sans-Serif" font-size="10.00">mat.h</text>
</a>
</g>
</g>
<!-- Node2&#45;&gt;Node7 -->
<g id="edge6" class="edge">
<title>Node2&#45;&gt;Node7</title>
<path fill="none" stroke="midnightblue" d="M492,-448.32C478.9,-439.9 458.79,-426.97 443.39,-417.07"/>
<polygon fill="midnightblue" stroke="midnightblue" points="445.27,-414.12 434.96,-411.65 441.48,-420.01 445.27,-414.12"/>
</g>
<!-- Node8 -->
<g id="node8" class="node">
<title>Node8</title>
<g id="a_node8"><a xlink:href="vec_8h.html" target="_top" xlink:title="Vector math functions.">
<polygon fill="white" stroke="black" points="462,-392.5 462,-411.5 505,-411.5 505,-392.5 462,-392.5"/>
<text text-anchor="middle" x="483.5" y="-399.5" font-family="Helvetica,sans-Serif" font-size="10.00">vec.h</text>
</a>
</g>
</g>
<!-- Node2&#45;&gt;Node8 -->
<g id="edge7" class="edge">
<title>Node2&#45;&gt;Node8</title>
<path fill="none" stroke="midnightblue" d="M501.87,-448.08C498.89,-440.77 494.57,-430.18 490.88,-421.1"/>
<polygon fill="midnightblue" stroke="midnightblue" points="494.08,-419.69 487.07,-411.75 487.6,-422.33 494.08,-419.69"/>
</g>
<!-- Node4 -->
<g id="node4" class="node">
<title>Node4</title>
<g id="a_node4"><a xlink:href="include__asm_8h.html" target="_top" xlink:title=" ">
<polygon fill="white" stroke="black" points="205,-0.5 205,-19.5 292,-19.5 292,-0.5 205,-0.5"/>
<text text-anchor="middle" x="248.5" y="-7.5" font-family="Helvetica,sans-Serif" font-size="10.00">include_asm.h</text>
</a>
</g>
</g>
<!-- Node3&#45;&gt;Node4 -->
<g id="edge3" class="edge">
<title>Node3&#45;&gt;Node4</title>
<path fill="none" stroke="midnightblue" d="M341.67,-56.32C323.78,-47.62 296.02,-34.12 275.45,-24.11"/>
<polygon fill="midnightblue" stroke="midnightblue" points="276.81,-20.88 266.29,-19.65 273.75,-27.18 276.81,-20.88"/>
</g>
<!-- Node5 -->
<g id="node5" class="node">
<title>Node5</title>
<g id="a_node5"><a xlink:href="include__rodata_8h.html" target="_top" xlink:title=" ">
<polygon fill="white" stroke="black" points="310.5,-0.5 310.5,-19.5 408.5,-19.5 408.5,-0.5 310.5,-0.5"/>
<text text-anchor="middle" x="359.5" y="-7.5" font-family="Helvetica,sans-Serif" font-size="10.00">include_rodata.h</text>
</a>
</g>
</g>
<!-- Node3&#45;&gt;Node5 -->
<g id="edge4" class="edge">
<title>Node3&#45;&gt;Node5</title>
<path fill="none" stroke="midnightblue" d="M359.5,-56.08C359.5,-49.01 359.5,-38.86 359.5,-29.99"/>
<polygon fill="midnightblue" stroke="midnightblue" points="363,-29.75 359.5,-19.75 356,-29.75 363,-29.75"/>
</g>
<!-- Node6 -->
<g id="node6" class="node">
<title>Node6</title>
<g id="a_node6"><a xlink:href="types_8h.html" target="_top" xlink:title="Types used throughout the engine.">
<polygon fill="white" stroke="black" points="427,-0.5 427,-19.5 480,-19.5 480,-0.5 427,-0.5"/>
<text text-anchor="middle" x="453.5" y="-7.5" font-family="Helvetica,sans-Serif" font-size="10.00">types.h</text>
</a>
</g>
</g>
<!-- Node3&#45;&gt;Node6 -->
<g id="edge5" class="edge">
<title>Node3&#45;&gt;Node6</title>
<path fill="none" stroke="midnightblue" d="M374.6,-56.32C389.4,-47.82 412.19,-34.73 429.48,-24.8"/>
<polygon fill="midnightblue" stroke="midnightblue" points="431.51,-27.67 438.43,-19.65 428.02,-21.6 431.51,-27.67"/>
</g>
<!-- Node9 -->
<g id="node9" class="node">
<title>Node9</title>
<g id="a_node9"><a xlink:href="so_8h.html" target="_top" xlink:title="Scene objects.">
<polygon fill="white" stroke="black" points="457,-336.5 457,-355.5 494,-355.5 494,-336.5 457,-336.5"/>
<text text-anchor="middle" x="475.5" y="-343.5" font-family="Helvetica,sans-Serif" font-size="10.00">so.h</text>
</a>
</g>
</g>
<!-- Node8&#45;&gt;Node9 -->
<g id="edge8" class="edge">
<title>Node8&#45;&gt;Node9</title>
<path fill="none" stroke="midnightblue" d="M482.18,-392.08C481.12,-384.93 479.59,-374.64 478.27,-365.69"/>
<polygon fill="midnightblue" stroke="midnightblue" points="481.72,-365.13 476.8,-355.75 474.8,-366.16 481.72,-365.13"/>
</g>
<!-- Node10 -->
<g id="node10" class="node">
<title>Node10</title>
<g id="a_node10"><a xlink:href="alo_8h.html" target="_top" xlink:title=" ">
<polygon fill="white" stroke="black" points="442,-280.5 442,-299.5 483,-299.5 483,-280.5 442,-280.5"/>
<text text-anchor="middle" x="462.5" y="-287.5" font-family="Helvetica,sans-Serif" font-size="10.00">alo.h</text>
</a>
</g>
</g>
<!-- Node9&#45;&gt;Node10 -->
<g id="edge9" class="edge">
<title>Node9&#45;&gt;Node10</title>
<path fill="none" stroke="midnightblue" d="M473.35,-336.08C471.63,-328.93 469.15,-318.64 467,-309.69"/>
<polygon fill="midnightblue" stroke="midnightblue" points="470.35,-308.65 464.61,-299.75 463.54,-310.29 470.35,-308.65"/>
</g>
<!-- Node10&#45;&gt;Node3 -->
<g id="edge10" class="edge">
<title>Node10&#45;&gt;Node3</title>
<path fill="none" stroke="midnightblue" d="M465.55,-280.28C474.86,-251.98 499.67,-161.66 456.5,-112 442.71,-96.13 422.13,-85.5 403.48,-78.57"/>
<polygon fill="midnightblue" stroke="midnightblue" points="404.54,-75.23 393.94,-75.28 402.25,-81.85 404.54,-75.23"/>
</g>
<!-- Node11 -->
<g id="node11" class="node">
<title>Node11</title>
<g id="a_node11"><a xlink:href="lo_8h.html" target="_top" xlink:title="Level objects.">
<polygon fill="white" stroke="black" points="290,-224.5 290,-243.5 325,-243.5 325,-224.5 290,-224.5"/>
<text text-anchor="middle" x="307.5" y="-231.5" font-family="Helvetica,sans-Serif" font-size="10.00">lo.h</text>
</a>
</g>
</g>
<!-- Node10&#45;&gt;Node11 -->
<g id="edge11" class="edge">
<title>Node10&#45;&gt;Node11</title>
<path fill="none" stroke="midnightblue" d="M441.92,-281.83C414.39,-272.24 365.53,-255.22 334.91,-244.55"/>
<polygon fill="midnightblue" stroke="midnightblue" points="335.88,-241.18 325.28,-241.2 333.57,-247.79 335.88,-241.18"/>
</g>
<!-- Node15 -->
<g id="node15" class="node">
<title>Node15</title>
<g id="a_node15"><a xlink:href="dl_8h.html" target="_top" xlink:title=" ">
<polygon fill="white" stroke="black" points="430,-168.5 430,-187.5 465,-187.5 465,-168.5 430,-168.5"/>
<text text-anchor="middle" x="447.5" y="-175.5" font-family="Helvetica,sans-Serif" font-size="10.00">dl.h</text>
</a>
</g>
</g>
<!-- Node10&#45;&gt;Node15 -->
<g id="edge28" class="edge">
<title>Node10&#45;&gt;Node15</title>
<path fill="none" stroke="midnightblue" d="M461.32,-280.37C458.9,-262.62 453.32,-221.67 450.04,-197.6"/>
<polygon fill="midnightblue" stroke="midnightblue" points="453.49,-197.03 448.67,-187.59 446.55,-197.97 453.49,-197.03"/>
</g>
<!-- Node11&#45;&gt;Node3 -->
<g id="edge12" class="edge">
<title>Node11&#45;&gt;Node3</title>
<path fill="none" stroke="midnightblue" d="M289.82,-226.37C246.64,-209.21 142.11,-161.23 180.5,-112 196.93,-90.93 267.91,-78.21 315.4,-71.91"/>
<polygon fill="midnightblue" stroke="midnightblue" points="315.97,-75.37 325.45,-70.63 315.08,-68.42 315.97,-75.37"/>
</g>
<!-- Node12 -->
<g id="node12" class="node">
<title>Node12</title>
<g id="a_node12"><a xlink:href="oid_8h.html" target="_top" xlink:title="Object IDs.">
<polygon fill="white" stroke="black" points="388,-112.5 388,-131.5 429,-131.5 429,-112.5 388,-112.5"/>
<text text-anchor="middle" x="408.5" y="-119.5" font-family="Helvetica,sans-Serif" font-size="10.00">oid.h</text>
</a>
</g>
</g>
<!-- Node11&#45;&gt;Node12 -->
<g id="edge13" class="edge">
<title>Node11&#45;&gt;Node12</title>
<path fill="none" stroke="midnightblue" d="M322.59,-224.45C336.04,-216.32 355.66,-203.1 369.5,-188 382.39,-173.93 393.2,-154.94 400.14,-141.12"/>
<polygon fill="midnightblue" stroke="midnightblue" points="403.47,-142.25 404.66,-131.73 397.17,-139.22 403.47,-142.25"/>
</g>
<!-- Node13 -->
<g id="node13" class="node">
<title>Node13</title>
<g id="a_node13"><a xlink:href="basic_8h.html" target="_top" xlink:title="Basic object.">
<polygon fill="white" stroke="black" points="82,-168.5 82,-187.5 133,-187.5 133,-168.5 82,-168.5"/>
<text text-anchor="middle" x="107.5" y="-175.5" font-family="Helvetica,sans-Serif" font-size="10.00">basic.h</text>
</a>
</g>
</g>
<!-- Node11&#45;&gt;Node13 -->
<g id="edge15" class="edge">
<title>Node11&#45;&gt;Node13</title>
<path fill="none" stroke="midnightblue" d="M289.75,-228.21C256.92,-219.34 186.12,-200.23 143.07,-188.6"/>
<polygon fill="midnightblue" stroke="midnightblue" points="143.85,-185.19 133.28,-185.96 142.03,-191.95 143.85,-185.19"/>
</g>
<!-- Node11&#45;&gt;Node15 -->
<g id="edge19" class="edge">
<title>Node11&#45;&gt;Node15</title>
<path fill="none" stroke="midnightblue" d="M325.23,-226.16C349.22,-216.91 392.22,-200.32 420.3,-189.49"/>
<polygon fill="midnightblue" stroke="midnightblue" points="421.84,-192.65 429.91,-185.78 419.32,-186.12 421.84,-192.65"/>
</g>
<!-- Node16 -->
<g id="node16" class="node">
<title>Node16</title>
<g id="a_node16"><a xlink:href="sw_8h.html" target="_top" xlink:title="Scene world?">
<polygon fill="white" stroke="black" points="189.5,-112.5 189.5,-131.5 227.5,-131.5 227.5,-112.5 189.5,-112.5"/>
<text text-anchor="middle" x="208.5" y="-119.5" font-family="Helvetica,sans-Serif" font-size="10.00">sw.h</text>
</a>
</g>
</g>
<!-- Node11&#45;&gt;Node16 -->
<g id="edge22" class="edge">
<title>Node11&#45;&gt;Node16</title>
<path fill="none" stroke="midnightblue" d="M299.73,-224.37C283.18,-205.97 244.2,-162.67 222.95,-139.05"/>
<polygon fill="midnightblue" stroke="midnightblue" points="225.52,-136.68 216.23,-131.59 220.32,-141.37 225.52,-136.68"/>
</g>
<!-- Node17 -->
<g id="node17" class="node">
<title>Node17</title>
<g id="a_node17"><a xlink:href="frame_8h.html" target="_top" xlink:title=" ">
<polygon fill="white" stroke="black" points="245.5,-112.5 245.5,-131.5 331.5,-131.5 331.5,-112.5 245.5,-112.5"/>
<text text-anchor="middle" x="288.5" y="-119.5" font-family="Helvetica,sans-Serif" font-size="10.00">splice/frame.h</text>
</a>
</g>
</g>
<!-- Node11&#45;&gt;Node17 -->
<g id="edge24" class="edge">
<title>Node11&#45;&gt;Node17</title>
<path fill="none" stroke="midnightblue" d="M306.01,-224.37C302.94,-206.62 295.87,-165.67 291.71,-141.6"/>
<polygon fill="midnightblue" stroke="midnightblue" points="295.14,-140.85 289.98,-131.59 288.24,-142.04 295.14,-140.85"/>
</g>
<!-- Node18 -->
<g id="node18" class="node">
<title>Node18</title>
<g id="a_node18"><a xlink:href="mq_8h.html" target="_top" xlink:title="Message queue(?).">
<polygon fill="white" stroke="black" points="320,-168.5 320,-187.5 361,-187.5 361,-168.5 320,-168.5"/>
<text text-anchor="middle" x="340.5" y="-175.5" font-family="Helvetica,sans-Serif" font-size="10.00">mq.h</text>
</a>
</g>
</g>
<!-- Node11&#45;&gt;Node18 -->
<g id="edge26" class="edge">
<title>Node11&#45;&gt;Node18</title>
<path fill="none" stroke="midnightblue" d="M312.95,-224.08C317.51,-216.61 324.17,-205.72 329.79,-196.52"/>
<polygon fill="midnightblue" stroke="midnightblue" points="332.92,-198.11 335.15,-187.75 326.95,-194.46 332.92,-198.11"/>
</g>
<!-- Node12&#45;&gt;Node3 -->
<g id="edge14" class="edge">
<title>Node12&#45;&gt;Node3</title>
<path fill="none" stroke="midnightblue" d="M400.41,-112.08C393.34,-104.3 382.91,-92.8 374.35,-83.37"/>
<polygon fill="midnightblue" stroke="midnightblue" points="376.75,-80.8 367.44,-75.75 371.57,-85.51 376.75,-80.8"/>
</g>
<!-- Node13&#45;&gt;Node3 -->
<g id="edge16" class="edge">
<title>Node13&#45;&gt;Node3</title>
<path fill="none" stroke="midnightblue" d="M110.32,-168.26C115.37,-154.08 127.36,-126.2 147.5,-112 197.42,-76.8 269.29,-68.15 315.19,-66.53"/>
<polygon fill="midnightblue" stroke="midnightblue" points="315.51,-70.02 325.42,-66.27 315.34,-63.02 315.51,-70.02"/>
</g>
<!-- Node14 -->
<g id="node14" class="node">
<title>Node14</title>
<g id="a_node14"><a xlink:href="sidebag_8h.html" target="_top" xlink:title="Sidebag for splice.">
<polygon fill="white" stroke="black" points="0,-112.5 0,-131.5 95,-131.5 95,-112.5 0,-112.5"/>
<text text-anchor="middle" x="47.5" y="-119.5" font-family="Helvetica,sans-Serif" font-size="10.00">splice/sidebag.h</text>
</a>
</g>
</g>
<!-- Node13&#45;&gt;Node14 -->
<g id="edge17" class="edge">
<title>Node13&#45;&gt;Node14</title>
<path fill="none" stroke="midnightblue" d="M97.86,-168.32C88.99,-160.34 75.63,-148.31 64.89,-138.65"/>
<polygon fill="midnightblue" stroke="midnightblue" points="67.09,-135.92 57.32,-131.83 62.41,-141.13 67.09,-135.92"/>
</g>
<!-- Node14&#45;&gt;Node3 -->
<g id="edge18" class="edge">
<title>Node14&#45;&gt;Node3</title>
<path fill="none" stroke="midnightblue" d="M95.23,-112.74C155.13,-102.37 257.07,-84.73 315.28,-74.65"/>
<polygon fill="midnightblue" stroke="midnightblue" points="316.02,-78.08 325.27,-72.92 314.82,-71.18 316.02,-78.08"/>
</g>
<!-- Node15&#45;&gt;Node3 -->
<g id="edge20" class="edge">
<title>Node15&#45;&gt;Node3</title>
<path fill="none" stroke="midnightblue" d="M448.42,-168.15C449.34,-154.77 449.23,-129.15 437.5,-112 427.41,-97.26 410.79,-86.71 395.47,-79.55"/>
<polygon fill="midnightblue" stroke="midnightblue" points="396.74,-76.28 386.17,-75.52 393.96,-82.71 396.74,-76.28"/>
</g>
<!-- Node15&#45;&gt;Node12 -->
<g id="edge21" class="edge">
<title>Node15&#45;&gt;Node12</title>
<path fill="none" stroke="midnightblue" d="M441.06,-168.08C435.55,-160.46 427.47,-149.26 420.74,-139.94"/>
<polygon fill="midnightblue" stroke="midnightblue" points="423.51,-137.81 414.82,-131.75 417.84,-141.91 423.51,-137.81"/>
</g>
<!-- Node16&#45;&gt;Node3 -->
<g id="edge23" class="edge">
<title>Node16&#45;&gt;Node3</title>
<path fill="none" stroke="midnightblue" d="M227.62,-114.16C252.29,-105.34 295.62,-89.84 325.85,-79.03"/>
<polygon fill="midnightblue" stroke="midnightblue" points="327.32,-82.22 335.56,-75.56 324.97,-75.63 327.32,-82.22"/>
</g>
<!-- Node17&#45;&gt;Node3 -->
<g id="edge25" class="edge">
<title>Node17&#45;&gt;Node3</title>
<path fill="none" stroke="midnightblue" d="M299.91,-112.32C310.61,-104.18 326.84,-91.84 339.66,-82.09"/>
<polygon fill="midnightblue" stroke="midnightblue" points="342.04,-84.67 347.89,-75.83 337.81,-79.1 342.04,-84.67"/>
</g>
<!-- Node18&#45;&gt;Node3 -->
<g id="edge27" class="edge">
<title>Node18&#45;&gt;Node3</title>
<path fill="none" stroke="midnightblue" d="M341.99,-168.37C345.06,-150.62 352.13,-109.67 356.29,-85.6"/>
<polygon fill="midnightblue" stroke="midnightblue" points="359.76,-86.04 358.02,-75.59 352.86,-84.85 359.76,-86.04"/>
</g>
<!-- Node19&#45;&gt;Node3 -->
<g id="edge30" class="edge">
<title>Node19&#45;&gt;Node3</title>
<path fill="none" stroke="midnightblue" d="M593.93,-336.48C590.68,-318.04 583.5,-273.04 583.5,-235 583.5,-235 583.5,-235 583.5,-177 583.5,-143.98 573.79,-131.98 547.5,-112 505.63,-80.17 444.57,-70.45 403.5,-67.69"/>
<polygon fill="midnightblue" stroke="midnightblue" points="403.7,-64.2 393.52,-67.13 403.31,-71.19 403.7,-64.2"/>
</g>
</g>
</svg>
        <g id="navigator" transform="translate(0 0)" fill="#404254">
                <rect fill="#f2f5e9" fill-opacity="0.5" stroke="#606060" stroke-width=".5" x="0" y="0" width="60" height="60"/>
                <use id="zoomplus" xlink:href="#zoomPlus" x="17" y="9" onmousedown="handleZoom(evt,'in')"/>
                <use id="zoomminus" xlink:href="#zoomMin" x="42" y="9" onmousedown="handleZoom(evt,'out')"/>
                <use id="reset" xlink:href="#resetDef" x="30" y="36" onmousedown="handleReset()"/>
                <g id="arrowUp" xlink:href="#dirArrow" transform="translate(30 24)" onmousedown="handlePan(0,-1)">
                  <use xlink:href="#rim" fill="#404040">
                        <set attributeName="fill" to="#808080" begin="arrowUp.mouseover" end="arrowUp.mouseout"/>
                  </use>
                  <path fill="none" stroke="white" stroke-width="1.5" d="M0,-3.0v7 M-2.5,-0.5L0,-3.0L2.5,-0.5"/>
                </g>
                <g id="arrowRight" xlink:href="#dirArrow" transform="rotate(90) translate(36 -43)" onmousedown="handlePan(1,0)">
                  <use xlink:href="#rim" fill="#404040">
                        <set attributeName="fill" to="#808080" begin="arrowRight.mouseover" end="arrowRight.mouseout"/>
                  </use>
                  <path fill="none" stroke="white" stroke-width="1.5" d="M0,-3.0v7 M-2.5,-0.5L0,-3.0L2.5,-0.5"/>
                </g>
                <g id="arrowDown" xlink:href="#dirArrow" transform="rotate(180) translate(-30 -48)" onmousedown="handlePan(0,1)">
                  <use xlink:href="#rim" fill="#404040">
                        <set attributeName="fill" to="#808080" begin="arrowDown.mouseover" end="arrowDown.mouseout"/>
                  </use>
                  <path fill="none" stroke="white" stroke-width="1.5" d="M0,-3.0v7 M-2.5,-0.5L0,-3.0L2.5,-0.5"/>
                </g>
                <g id="arrowLeft" xlink:href="#dirArrow" transform="rotate(270) translate(-36 17)" onmousedown="handlePan(-1,0)">
                  <use xlink:href="#rim" fill="#404040">
                        <set attributeName="fill" to="#808080" begin="arrowLeft.mouseover" end="arrowLeft.mouseout"/>
                  </use>
                  <path fill="none" stroke="white" stroke-width="1.5" d="M0,-3.0v7 M-2.5,-0.5L0,-3.0L2.5,-0.5"/>
                </g>
        </g>
        <svg viewBox="0 0 15 15" width="100%" height="30px" preserveAspectRatio="xMaxYMin meet">
         <g id="arrow_out" transform="scale(0.3 0.3)">
          <a xlink:href="util_8c__incl_org.svg" target="_base">
           <rect id="button" ry="5" rx="5" y="6" x="6" height="38" width="38"
                fill="#f2f5e9" fill-opacity="0.5" stroke="#606060" stroke-width="1.0"/>
           <path id="arrow"
             d="M 11.500037,31.436501 C 11.940474,20.09759 22.043105,11.32322 32.158766,21.979434 L 37.068811,17.246167 C 37.068811,17.246167 37.088388,32 37.088388,32 L 22.160133,31.978069 C 22.160133,31.978069 26.997745,27.140456 26.997745,27.140456 C 18.528582,18.264221 13.291696,25.230495 11.500037,31.436501 z"
             style="fill:#404040;"/>
          </a>
         </g>
        </svg>
</svg>
