<?xml version="1.0" encoding="UTF-8" standalone="no"?>
<!DOCTYPE svg PUBLIC "-//W3C//DTD SVG 1.1//EN"
 "http://www.w3.org/Graphics/SVG/1.1/DTD/svg11.dtd">
<!-- Generated by graphviz version 2.43.0 (0)
 -->
<!-- Title: include/util.h Pages: 1 -->
<svg width="1193pt" height="308pt"
 viewBox="0.00 0.00 1192.56 308.00" xmlns="http://www.w3.org/2000/svg" xmlns:xlink="http://www.w3.org/1999/xlink">
<g id="graph0" class="graph" transform="scale(1 1) rotate(0) translate(4 304)">
<title>include/util.h</title>
<polygon fill="white" stroke="transparent" points="-4,4 -4,-304 1188.56,-304 1188.56,4 -4,4"/>
<!-- Node1 -->
<g id="node1" class="node">
<title>Node1</title>
<g id="a_node1"><a xlink:title="Utility functions.">
<polygon fill="#bfbfbf" stroke="black" points="471,-280.5 471,-299.5 551,-299.5 551,-280.5 471,-280.5"/>
<text text-anchor="middle" x="511" y="-287.5" font-family="Helvetica,sans-Serif" font-size="10.00">include/util.h</text>
</a>
</g>
</g>
<!-- Node2 -->
<g id="node2" class="node">
<title>Node2</title>
<g id="a_node2"><a xlink:href="cm_8c.html" target="_top" xlink:title=" ">
<polygon fill="white" stroke="black" points="0,-112.5 0,-131.5 72,-131.5 72,-112.5 0,-112.5"/>
<text text-anchor="middle" x="36" y="-119.5" font-family="Helvetica,sans-Serif" font-size="10.00">src/P2/cm.c</text>
</a>
</g>
</g>
<!-- Node1&#45;&gt;Node2 -->
<g id="edge1" class="edge">
<title>Node1&#45;&gt;Node2</title>
<path fill="none" stroke="midnightblue" d="M460.49,-289.99C387.66,-289.85 249.96,-283.66 141,-244 98.14,-228.4 82.2,-224.61 55,-188 42.24,-170.82 38.02,-145.22 36.65,-131.85"/>
<polygon fill="midnightblue" stroke="midnightblue" points="460.75,-293.49 470.75,-289.97 460.74,-286.49 460.75,-293.49"/>
</g>
<!-- Node3 -->
<g id="node3" class="node">
<title>Node3</title>
<g id="a_node3"><a xlink:href="util_8c.html" target="_top" xlink:title=" ">
<polygon fill="white" stroke="black" points="507.5,-224.5 507.5,-243.5 580.5,-243.5 580.5,-224.5 507.5,-224.5"/>
<text text-anchor="middle" x="544" y="-231.5" font-family="Helvetica,sans-Serif" font-size="10.00">src/P2/util.c</text>
</a>
</g>
</g>
<!-- Node1&#45;&gt;Node3 -->
<g id="edge2" class="edge">
<title>Node1&#45;&gt;Node3</title>
<path fill="none" stroke="midnightblue" d="M521.83,-271.27C527.47,-262.05 534.12,-251.17 538.65,-243.75"/>
<polygon fill="midnightblue" stroke="midnightblue" points="518.68,-269.73 516.45,-280.08 524.65,-273.38 518.68,-269.73"/>
</g>
<!-- Node4 -->
<g id="node4" class="node">
<title>Node4</title>
<g id="a_node4"><a xlink:href="vec_8c.html" target="_top" xlink:title=" ">
<polygon fill="white" stroke="black" points="599,-224.5 599,-243.5 673,-243.5 673,-224.5 599,-224.5"/>
<text text-anchor="middle" x="636" y="-231.5" font-family="Helvetica,sans-Serif" font-size="10.00">src/P2/vec.c</text>
</a>
</g>
</g>
<!-- Node1&#45;&gt;Node4 -->
<g id="edge3" class="edge">
<title>Node1&#45;&gt;Node4</title>
<path fill="none" stroke="midnightblue" d="M540.24,-276.37C563.65,-266.26 595.84,-252.35 616.29,-243.52"/>
<polygon fill="midnightblue" stroke="midnightblue" points="538.6,-273.26 530.81,-280.44 541.37,-279.69 538.6,-273.26"/>
</g>
<!-- Node5 -->
<g id="node5" class="node">
<title>Node5</title>
<g id="a_node5"><a xlink:href="cm_8h.html" target="_top" xlink:title="Game camera.">
<polygon fill="white" stroke="black" points="64.5,-168.5 64.5,-187.5 143.5,-187.5 143.5,-168.5 64.5,-168.5"/>
<text text-anchor="middle" x="104" y="-175.5" font-family="Helvetica,sans-Serif" font-size="10.00">include/cm.h</text>
</a>
</g>
</g>
<!-- Node1&#45;&gt;Node5 -->
<g id="edge4" class="edge">
<title>Node1&#45;&gt;Node5</title>
<path fill="none" stroke="midnightblue" d="M460.68,-286.15C379.06,-280.89 221.92,-267.95 172,-244 144.32,-230.72 120.62,-201.89 109.99,-187.51"/>
<polygon fill="midnightblue" stroke="midnightblue" points="460.52,-289.65 470.72,-286.78 460.96,-282.66 460.52,-289.65"/>
</g>
<!-- Node8 -->
<g id="node8" class="node">
<title>Node8</title>
<g id="a_node8"><a xlink:href="difficulty_8h.html" target="_top" xlink:title="Dynamic difficulty system.">
<polygon fill="white" stroke="black" points="508.5,-56.5 508.5,-75.5 613.5,-75.5 613.5,-56.5 508.5,-56.5"/>
<text text-anchor="middle" x="561" y="-63.5" font-family="Helvetica,sans-Serif" font-size="10.00">include/difficulty.h</text>
</a>
</g>
</g>
<!-- Node1&#45;&gt;Node8 -->
<g id="edge8" class="edge">
<title>Node1&#45;&gt;Node8</title>
<path fill="none" stroke="midnightblue" d="M503.44,-270.54C499.06,-257.54 494.96,-239.71 498,-224 503.96,-193.14 543.98,-104.17 556.95,-75.8"/>
<polygon fill="midnightblue" stroke="midnightblue" points="500.26,-272.03 507.03,-280.18 506.82,-269.58 500.26,-272.03"/>
</g>
<!-- Node10 -->
<g id="node10" class="node">
<title>Node10</title>
<g id="a_node10"><a xlink:href="joy_8h.html" target="_top" xlink:title="Joypad manager.">
<polygon fill="white" stroke="black" points="691.5,-224.5 691.5,-243.5 768.5,-243.5 768.5,-224.5 691.5,-224.5"/>
<text text-anchor="middle" x="730" y="-231.5" font-family="Helvetica,sans-Serif" font-size="10.00">include/joy.h</text>
</a>
</g>
</g>
<!-- Node1&#45;&gt;Node10 -->
<g id="edge10" class="edge">
<title>Node1&#45;&gt;Node10</title>
<path fill="none" stroke="midnightblue" d="M555.51,-278.02C596.88,-267.82 657.64,-252.84 695.46,-243.52"/>
<polygon fill="midnightblue" stroke="midnightblue" points="554.57,-274.65 545.7,-280.44 556.25,-281.45 554.57,-274.65"/>
</g>
<!-- Node14 -->
<g id="node14" class="node">
<title>Node14</title>
<g id="a_node14"><a xlink:href="sound_8h.html" target="_top" xlink:title="Sound playback.">
<polygon fill="white" stroke="black" points="181.5,-224.5 181.5,-243.5 274.5,-243.5 274.5,-224.5 181.5,-224.5"/>
<text text-anchor="middle" x="228" y="-231.5" font-family="Helvetica,sans-Serif" font-size="10.00">include/sound.h</text>
</a>
</g>
</g>
<!-- Node1&#45;&gt;Node14 -->
<g id="edge14" class="edge">
<title>Node1&#45;&gt;Node14</title>
<path fill="none" stroke="midnightblue" d="M460.84,-279.43C407.51,-269.25 323.95,-253.31 272.78,-243.54"/>
<polygon fill="midnightblue" stroke="midnightblue" points="460.27,-282.88 470.75,-281.32 461.59,-276.01 460.27,-282.88"/>
</g>
<!-- Node15 -->
<g id="node15" class="node">
<title>Node15</title>
<g id="a_node15"><a xlink:href="ref_8h.html" target="_top" xlink:title=" ">
<polygon fill="white" stroke="black" points="861,-224.5 861,-243.5 969,-243.5 969,-224.5 861,-224.5"/>
<text text-anchor="middle" x="915" y="-231.5" font-family="Helvetica,sans-Serif" font-size="10.00">include/splice/ref.h</text>
</a>
</g>
</g>
<!-- Node1&#45;&gt;Node15 -->
<g id="edge16" class="edge">
<title>Node1&#45;&gt;Node15</title>
<path fill="none" stroke="midnightblue" d="M561.54,-282.24C638,-272.03 782.46,-252.72 860.95,-242.22"/>
<polygon fill="midnightblue" stroke="midnightblue" points="560.66,-278.83 551.21,-283.62 561.59,-285.77 560.66,-278.83"/>
</g>
<!-- Node20 -->
<g id="node20" class="node">
<title>Node20</title>
<g id="a_node20"><a xlink:href="vecmat_8h.html" target="_top" xlink:title=" ">
<polygon fill="white" stroke="black" points="1049,-224.5 1049,-243.5 1181,-243.5 1181,-224.5 1049,-224.5"/>
<text text-anchor="middle" x="1115" y="-231.5" font-family="Helvetica,sans-Serif" font-size="10.00">include/splice/vecmat.h</text>
</a>
</g>
</g>
<!-- Node1&#45;&gt;Node20 -->
<g id="edge21" class="edge">
<title>Node1&#45;&gt;Node20</title>
<path fill="none" stroke="midnightblue" d="M561.14,-284.52C669.8,-274.8 926.99,-251.81 1048.81,-240.92"/>
<polygon fill="midnightblue" stroke="midnightblue" points="560.75,-281.04 551.1,-285.42 561.37,-288.01 560.75,-281.04"/>
</g>
<!-- Node21 -->
<g id="node21" class="node">
<title>Node21</title>
<g id="a_node21"><a xlink:href="xform_8h.html" target="_top" xlink:title="Transform.">
<polygon fill="white" stroke="black" points="335.5,-224.5 335.5,-243.5 428.5,-243.5 428.5,-224.5 335.5,-224.5"/>
<text text-anchor="middle" x="382" y="-231.5" font-family="Helvetica,sans-Serif" font-size="10.00">include/xform.h</text>
</a>
</g>
</g>
<!-- Node1&#45;&gt;Node21 -->
<g id="edge24" class="edge">
<title>Node1&#45;&gt;Node21</title>
<path fill="none" stroke="midnightblue" d="M481.15,-276.5C456.96,-266.38 423.54,-252.39 402.34,-243.52"/>
<polygon fill="midnightblue" stroke="midnightblue" points="479.98,-279.81 490.56,-280.44 482.69,-273.35 479.98,-279.81"/>
</g>
<!-- Node5&#45;&gt;Node2 -->
<g id="edge5" class="edge">
<title>Node5&#45;&gt;Node2</title>
<path fill="none" stroke="midnightblue" d="M85.24,-162.1C73,-152.38 57.44,-140.03 47.12,-131.83"/>
<polygon fill="midnightblue" stroke="midnightblue" points="83.07,-164.85 93.07,-168.32 87.42,-159.36 83.07,-164.85"/>
</g>
<!-- Node6 -->
<g id="node6" class="node">
<title>Node6</title>
<g id="a_node6"><a xlink:href="flash_8h.html" target="_top" xlink:title="Flash (might be flash animation, or literal screen flashes).">
<polygon fill="white" stroke="black" points="90.5,-112.5 90.5,-131.5 177.5,-131.5 177.5,-112.5 90.5,-112.5"/>
<text text-anchor="middle" x="134" y="-119.5" font-family="Helvetica,sans-Serif" font-size="10.00">include/flash.h</text>
</a>
</g>
</g>
<!-- Node5&#45;&gt;Node6 -->
<g id="edge6" class="edge">
<title>Node5&#45;&gt;Node6</title>
<path fill="none" stroke="midnightblue" d="M113.85,-159.27C118.97,-150.05 125.02,-139.17 129.14,-131.75"/>
<polygon fill="midnightblue" stroke="midnightblue" points="110.75,-157.64 108.95,-168.08 116.87,-161.04 110.75,-157.64"/>
</g>
<!-- Node7 -->
<g id="node7" class="node">
<title>Node7</title>
<g id="a_node7"><a xlink:href="flash_8c.html" target="_top" xlink:title=" ">
<polygon fill="white" stroke="black" points="94,-56.5 94,-75.5 174,-75.5 174,-56.5 94,-56.5"/>
<text text-anchor="middle" x="134" y="-63.5" font-family="Helvetica,sans-Serif" font-size="10.00">src/P2/flash.c</text>
</a>
</g>
</g>
<!-- Node6&#45;&gt;Node7 -->
<g id="edge7" class="edge">
<title>Node6&#45;&gt;Node7</title>
<path fill="none" stroke="midnightblue" d="M134,-101.8C134,-92.91 134,-82.78 134,-75.75"/>
<polygon fill="midnightblue" stroke="midnightblue" points="130.5,-102.08 134,-112.08 137.5,-102.08 130.5,-102.08"/>
</g>
<!-- Node9 -->
<g id="node9" class="node">
<title>Node9</title>
<g id="a_node9"><a xlink:href="difficulty_8c.html" target="_top" xlink:title=" ">
<polygon fill="white" stroke="black" points="512,-0.5 512,-19.5 610,-19.5 610,-0.5 512,-0.5"/>
<text text-anchor="middle" x="561" y="-7.5" font-family="Helvetica,sans-Serif" font-size="10.00">src/P2/difficulty.c</text>
</a>
</g>
</g>
<!-- Node8&#45;&gt;Node9 -->
<g id="edge9" class="edge">
<title>Node8&#45;&gt;Node9</title>
<path fill="none" stroke="midnightblue" d="M561,-45.8C561,-36.91 561,-26.78 561,-19.75"/>
<polygon fill="midnightblue" stroke="midnightblue" points="557.5,-46.08 561,-56.08 564.5,-46.08 557.5,-46.08"/>
</g>
<!-- Node11 -->
<g id="node11" class="node">
<title>Node11</title>
<g id="a_node11"><a xlink:href="joy_8c.html" target="_top" xlink:title=" ">
<polygon fill="white" stroke="black" points="574.5,-168.5 574.5,-187.5 645.5,-187.5 645.5,-168.5 574.5,-168.5"/>
<text text-anchor="middle" x="610" y="-175.5" font-family="Helvetica,sans-Serif" font-size="10.00">src/P2/joy.c</text>
</a>
</g>
</g>
<!-- Node10&#45;&gt;Node11 -->
<g id="edge11" class="edge">
<title>Node10&#45;&gt;Node11</title>
<path fill="none" stroke="midnightblue" d="M701.63,-220.23C679.18,-210.13 648.46,-196.31 628.93,-187.52"/>
<polygon fill="midnightblue" stroke="midnightblue" points="700.43,-223.53 710.99,-224.44 703.3,-217.15 700.43,-223.53"/>
</g>
<!-- Node12 -->
<g id="node12" class="node">
<title>Node12</title>
<g id="a_node12"><a xlink:href="steppower_8h.html" target="_top" xlink:title=" ">
<polygon fill="white" stroke="black" points="664,-168.5 664,-187.5 778,-187.5 778,-168.5 664,-168.5"/>
<text text-anchor="middle" x="721" y="-175.5" font-family="Helvetica,sans-Serif" font-size="10.00">include/steppower.h</text>
</a>
</g>
</g>
<!-- Node10&#45;&gt;Node12 -->
<g id="edge12" class="edge">
<title>Node10&#45;&gt;Node12</title>
<path fill="none" stroke="midnightblue" d="M726.85,-214.1C725.36,-205.14 723.64,-194.86 722.46,-187.75"/>
<polygon fill="midnightblue" stroke="midnightblue" points="723.42,-214.79 728.51,-224.08 730.32,-213.64 723.42,-214.79"/>
</g>
<!-- Node13 -->
<g id="node13" class="node">
<title>Node13</title>
<g id="a_node13"><a xlink:href="steppower_8c.html" target="_top" xlink:title=" ">
<polygon fill="white" stroke="black" points="667.5,-112.5 667.5,-131.5 774.5,-131.5 774.5,-112.5 667.5,-112.5"/>
<text text-anchor="middle" x="721" y="-119.5" font-family="Helvetica,sans-Serif" font-size="10.00">src/P2/steppower.c</text>
</a>
</g>
</g>
<!-- Node12&#45;&gt;Node13 -->
<g id="edge13" class="edge">
<title>Node12&#45;&gt;Node13</title>
<path fill="none" stroke="midnightblue" d="M721,-157.8C721,-148.91 721,-138.78 721,-131.75"/>
<polygon fill="midnightblue" stroke="midnightblue" points="717.5,-158.08 721,-168.08 724.5,-158.08 717.5,-158.08"/>
</g>
<!-- Node14&#45;&gt;Node5 -->
<g id="edge15" class="edge">
<title>Node14&#45;&gt;Node5</title>
<path fill="none" stroke="midnightblue" d="M198.99,-220.37C175.77,-210.26 143.84,-196.35 123.56,-187.52"/>
<polygon fill="midnightblue" stroke="midnightblue" points="197.79,-223.66 208.35,-224.44 200.58,-217.24 197.79,-223.66"/>
</g>
<!-- Node16 -->
<g id="node16" class="node">
<title>Node16</title>
<g id="a_node16"><a xlink:href="bif_8cpp.html" target="_top" xlink:title=" ">
<polygon fill="white" stroke="black" points="796.5,-168.5 796.5,-187.5 909.5,-187.5 909.5,-168.5 796.5,-168.5"/>
<text text-anchor="middle" x="853" y="-175.5" font-family="Helvetica,sans-Serif" font-size="10.00">src/P2/splice/bif.cpp</text>
</a>
</g>
</g>
<!-- Node15&#45;&gt;Node16 -->
<g id="edge17" class="edge">
<title>Node15&#45;&gt;Node16</title>
<path fill="none" stroke="midnightblue" d="M897.25,-217.54C886.19,-207.91 872.37,-195.87 863.14,-187.83"/>
<polygon fill="midnightblue" stroke="midnightblue" points="895.2,-220.4 905.04,-224.32 899.8,-215.12 895.2,-220.4"/>
</g>
<!-- Node17 -->
<g id="node17" class="node">
<title>Node17</title>
<g id="a_node17"><a xlink:href="ref_8cpp.html" target="_top" xlink:title=" ">
<polygon fill="white" stroke="black" points="1058.5,-168.5 1058.5,-187.5 1171.5,-187.5 1171.5,-168.5 1058.5,-168.5"/>
<text text-anchor="middle" x="1115" y="-175.5" font-family="Helvetica,sans-Serif" font-size="10.00">src/P2/splice/ref.cpp</text>
</a>
</g>
</g>
<!-- Node15&#45;&gt;Node17 -->
<g id="edge18" class="edge">
<title>Node15&#45;&gt;Node17</title>
<path fill="none" stroke="midnightblue" d="M956.37,-221.83C994.14,-211.63 1049.14,-196.78 1083.46,-187.52"/>
<polygon fill="midnightblue" stroke="midnightblue" points="955.43,-218.46 946.69,-224.44 957.26,-225.22 955.43,-218.46"/>
</g>
<!-- Node18 -->
<g id="node18" class="node">
<title>Node18</title>
<g id="a_node18"><a xlink:href="pair_8h.html" target="_top" xlink:title=" ">
<polygon fill="white" stroke="black" points="927.5,-168.5 927.5,-187.5 1040.5,-187.5 1040.5,-168.5 927.5,-168.5"/>
<text text-anchor="middle" x="984" y="-175.5" font-family="Helvetica,sans-Serif" font-size="10.00">include/splice/pair.h</text>
</a>
</g>
</g>
<!-- Node15&#45;&gt;Node18 -->
<g id="edge19" class="edge">
<title>Node15&#45;&gt;Node18</title>
<path fill="none" stroke="midnightblue" d="M934.04,-218.1C946.46,-208.38 962.24,-196.03 972.71,-187.83"/>
<polygon fill="midnightblue" stroke="midnightblue" points="931.8,-215.4 926.09,-224.32 936.12,-220.92 931.8,-215.4"/>
</g>
<!-- Node19 -->
<g id="node19" class="node">
<title>Node19</title>
<g id="a_node19"><a xlink:href="spliceutils_8cpp.html" target="_top" xlink:title=" ">
<polygon fill="white" stroke="black" points="1017,-112.5 1017,-131.5 1167,-131.5 1167,-112.5 1017,-112.5"/>
<text text-anchor="middle" x="1092" y="-119.5" font-family="Helvetica,sans-Serif" font-size="10.00">src/P2/splice/spliceutils.cpp</text>
</a>
</g>
</g>
<!-- Node18&#45;&gt;Node19 -->
<g id="edge20" class="edge">
<title>Node18&#45;&gt;Node19</title>
<path fill="none" stroke="midnightblue" d="M1010.55,-163.73C1030.55,-153.73 1057.39,-140.31 1074.69,-131.65"/>
<polygon fill="midnightblue" stroke="midnightblue" points="1008.73,-160.72 1001.35,-168.32 1011.86,-166.98 1008.73,-160.72"/>
</g>
<!-- Node20&#45;&gt;Node17 -->
<g id="edge22" class="edge">
<title>Node20&#45;&gt;Node17</title>
<path fill="none" stroke="midnightblue" d="M1115,-213.8C1115,-204.91 1115,-194.78 1115,-187.75"/>
<polygon fill="midnightblue" stroke="midnightblue" points="1111.5,-214.08 1115,-224.08 1118.5,-214.08 1111.5,-214.08"/>
</g>
<!-- Node20&#45;&gt;Node19 -->
<g id="edge23" class="edge">
<title>Node20&#45;&gt;Node19</title>
<path fill="none" stroke="midnightblue" d="M1145.14,-219.86C1168.12,-207.85 1193.81,-188.83 1181,-168 1169.57,-149.42 1147.83,-138.23 1128.7,-131.65"/>
<polygon fill="midnightblue" stroke="midnightblue" points="1143.33,-216.85 1135.91,-224.41 1146.43,-223.12 1143.33,-216.85"/>
</g>
<!-- Node21&#45;&gt;Node5 -->
<g id="edge27" class="edge">
<title>Node21&#45;&gt;Node5</title>
<path fill="none" stroke="midnightblue" d="M327.87,-222.48C273.84,-211.99 192.11,-196.12 143.79,-186.73"/>
<polygon fill="midnightblue" stroke="midnightblue" points="327.47,-225.97 337.95,-224.44 328.8,-219.1 327.47,-225.97"/>
</g>
<!-- Node22 -->
<g id="node22" class="node">
<title>Node22</title>
<g id="a_node22"><a xlink:href="xform1_8c.html" target="_top" xlink:title=" ">
<polygon fill="white" stroke="black" points="162,-168.5 162,-187.5 254,-187.5 254,-168.5 162,-168.5"/>
<text text-anchor="middle" x="208" y="-175.5" font-family="Helvetica,sans-Serif" font-size="10.00">src/P2/xform1.c</text>
</a>
</g>
</g>
<!-- Node21&#45;&gt;Node22 -->
<g id="edge25" class="edge">
<title>Node21&#45;&gt;Node22</title>
<path fill="none" stroke="midnightblue" d="M344.74,-221.44C311.93,-211.26 264.92,-196.66 235.44,-187.52"/>
<polygon fill="midnightblue" stroke="midnightblue" points="343.84,-224.82 354.43,-224.44 345.92,-218.14 343.84,-224.82"/>
</g>
<!-- Node23 -->
<g id="node23" class="node">
<title>Node23</title>
<g id="a_node23"><a xlink:href="xform2_8c.html" target="_top" xlink:title=" ">
<polygon fill="white" stroke="black" points="272,-168.5 272,-187.5 364,-187.5 364,-168.5 272,-168.5"/>
<text text-anchor="middle" x="318" y="-175.5" font-family="Helvetica,sans-Serif" font-size="10.00">src/P2/xform2.c</text>
</a>
</g>
</g>
<!-- Node21&#45;&gt;Node23 -->
<g id="edge26" class="edge">
<title>Node21&#45;&gt;Node23</title>
<path fill="none" stroke="midnightblue" d="M364.01,-217.82C352.54,-208.15 338.09,-195.95 328.47,-187.83"/>
<polygon fill="midnightblue" stroke="midnightblue" points="361.82,-220.55 371.72,-224.32 366.33,-215.2 361.82,-220.55"/>
</g>
<!-- Node24 -->
<g id="node24" class="node">
<title>Node24</title>
<g id="a_node24"><a xlink:href="coin_8h.html" target="_top" xlink:title="Coins, keys, and other collectibles.">
<polygon fill="white" stroke="black" points="301,-112.5 301,-131.5 385,-131.5 385,-112.5 301,-112.5"/>
<text text-anchor="middle" x="343" y="-119.5" font-family="Helvetica,sans-Serif" font-size="10.00">include/coin.h</text>
</a>
</g>
</g>
<!-- Node21&#45;&gt;Node24 -->
<g id="edge28" class="edge">
<title>Node21&#45;&gt;Node24</title>
<path fill="none" stroke="midnightblue" d="M381.6,-214.02C380.8,-200.75 378.63,-182.83 373,-168 367.74,-154.13 357.54,-140.24 350.51,-131.64"/>
<polygon fill="midnightblue" stroke="midnightblue" points="378.12,-214.43 382.02,-224.28 385.11,-214.15 378.12,-214.43"/>
</g>
<!-- Node26 -->
<g id="node26" class="node">
<title>Node26</title>
<g id="a_node26"><a xlink:href="vol_8h.html" target="_top" xlink:title="Volume object.">
<polygon fill="white" stroke="black" points="420.5,-168.5 420.5,-187.5 499.5,-187.5 499.5,-168.5 420.5,-168.5"/>
<text text-anchor="middle" x="460" y="-175.5" font-family="Helvetica,sans-Serif" font-size="10.00">include/vol.h</text>
</a>
</g>
</g>
<!-- Node21&#45;&gt;Node26 -->
<g id="edge30" class="edge">
<title>Node21&#45;&gt;Node26</title>
<path fill="none" stroke="midnightblue" d="M402.77,-218.62C417.02,-208.76 435.46,-195.99 447.5,-187.65"/>
<polygon fill="midnightblue" stroke="midnightblue" points="400.76,-215.75 394.53,-224.32 404.75,-221.51 400.76,-215.75"/>
</g>
<!-- Node25 -->
<g id="node25" class="node">
<title>Node25</title>
<g id="a_node25"><a xlink:href="coin_8c.html" target="_top" xlink:title=" ">
<polygon fill="white" stroke="black" points="304.5,-56.5 304.5,-75.5 381.5,-75.5 381.5,-56.5 304.5,-56.5"/>
<text text-anchor="middle" x="343" y="-63.5" font-family="Helvetica,sans-Serif" font-size="10.00">src/P2/coin.c</text>
</a>
</g>
</g>
<!-- Node24&#45;&gt;Node25 -->
<g id="edge29" class="edge">
<title>Node24&#45;&gt;Node25</title>
<path fill="none" stroke="midnightblue" d="M343,-101.8C343,-92.91 343,-82.78 343,-75.75"/>
<polygon fill="midnightblue" stroke="midnightblue" points="339.5,-102.08 343,-112.08 346.5,-102.08 339.5,-102.08"/>
</g>
<!-- Node27 -->
<g id="node27" class="node">
<title>Node27</title>
<g id="a_node27"><a xlink:href="chkpnt_8h.html" target="_top" xlink:title="Checkpoint system.">
<polygon fill="white" stroke="black" points="402.5,-112.5 402.5,-131.5 499.5,-131.5 499.5,-112.5 402.5,-112.5"/>
<text text-anchor="middle" x="451" y="-119.5" font-family="Helvetica,sans-Serif" font-size="10.00">include/chkpnt.h</text>
</a>
</g>
</g>
<!-- Node26&#45;&gt;Node27 -->
<g id="edge31" class="edge">
<title>Node26&#45;&gt;Node27</title>
<path fill="none" stroke="midnightblue" d="M456.85,-158.1C455.36,-149.14 453.64,-138.86 452.46,-131.75"/>
<polygon fill="midnightblue" stroke="midnightblue" points="453.42,-158.79 458.51,-168.08 460.32,-157.64 453.42,-158.79"/>
</g>
<!-- Node27&#45;&gt;Node8 -->
<g id="edge34" class="edge">
<title>Node27&#45;&gt;Node8</title>
<path fill="none" stroke="midnightblue" d="M477.76,-107.86C498.16,-97.85 525.67,-84.35 543.37,-75.65"/>
<polygon fill="midnightblue" stroke="midnightblue" points="476.11,-104.78 468.67,-112.32 479.19,-111.06 476.11,-104.78"/>
</g>
<!-- Node27&#45;&gt;Node25 -->
<g id="edge33" class="edge">
<title>Node27&#45;&gt;Node25</title>
<path fill="none" stroke="midnightblue" d="M424.45,-107.73C404.45,-97.73 377.61,-84.31 360.31,-75.65"/>
<polygon fill="midnightblue" stroke="midnightblue" points="423.14,-110.98 433.65,-112.32 426.27,-104.72 423.14,-110.98"/>
</g>
<!-- Node28 -->
<g id="node28" class="node">
<title>Node28</title>
<g id="a_node28"><a xlink:href="chkpnt_8c.html" target="_top" xlink:title=" ">
<polygon fill="white" stroke="black" points="400,-56.5 400,-75.5 490,-75.5 490,-56.5 400,-56.5"/>
<text text-anchor="middle" x="445" y="-63.5" font-family="Helvetica,sans-Serif" font-size="10.00">src/P2/chkpnt.c</text>
</a>
</g>
</g>
<!-- Node27&#45;&gt;Node28 -->
<g id="edge32" class="edge">
<title>Node27&#45;&gt;Node28</title>
<path fill="none" stroke="midnightblue" d="M448.9,-102.1C447.9,-93.14 446.76,-82.86 445.97,-75.75"/>
<polygon fill="midnightblue" stroke="midnightblue" points="445.43,-102.53 450.01,-112.08 452.38,-101.76 445.43,-102.53"/>
</g>
</g>
</svg>
