<?xml version="1.0" encoding="UTF-8" standalone="no"?>
<!DOCTYPE svg PUBLIC "-//W3C//DTD SVG 1.1//EN"
 "http://www.w3.org/Graphics/SVG/1.1/DTD/svg11.dtd">
<!-- Generated by graphviz version 2.43.0 (0)
 -->
<!-- Title: include/vec.h Pages: 1 -->
<svg width="1195pt" height="644pt"
 viewBox="0.00 0.00 1195.12 644.00" xmlns="http://www.w3.org/2000/svg" xmlns:xlink="http://www.w3.org/1999/xlink">
<g id="graph0" class="graph" transform="scale(1 1) rotate(0) translate(4 640)">
<title>include/vec.h</title>
<polygon fill="white" stroke="transparent" points="-4,4 -4,-640 1191.12,-640 1191.12,4 -4,4"/>
<!-- Node1 -->
<g id="node1" class="node">
<title>Node1</title>
<g id="a_node1"><a xlink:title="Vector math functions.">
<polygon fill="#bfbfbf" stroke="black" points="285.5,-616.5 285.5,-635.5 366.5,-635.5 366.5,-616.5 285.5,-616.5"/>
<text text-anchor="middle" x="326" y="-623.5" font-family="Helvetica,sans-Serif" font-size="10.00">include/vec.h</text>
</a>
</g>
</g>
<!-- Node2 -->
<g id="node2" class="node">
<title>Node2</title>
<g id="a_node2"><a xlink:href="util_8c.html" target="_top" xlink:title=" ">
<polygon fill="white" stroke="black" points="308.5,-504.5 308.5,-523.5 381.5,-523.5 381.5,-504.5 308.5,-504.5"/>
<text text-anchor="middle" x="345" y="-511.5" font-family="Helvetica,sans-Serif" font-size="10.00">src/P2/util.c</text>
</a>
</g>
</g>
<!-- Node1&#45;&gt;Node2 -->
<g id="edge1" class="edge">
<title>Node1&#45;&gt;Node2</title>
<path fill="none" stroke="midnightblue" d="M329.22,-606.35C333.38,-582.25 340.46,-541.31 343.52,-523.59"/>
<polygon fill="midnightblue" stroke="midnightblue" points="325.74,-605.92 327.49,-616.37 332.64,-607.11 325.74,-605.92"/>
</g>
<!-- Node3 -->
<g id="node3" class="node">
<title>Node3</title>
<g id="a_node3"><a xlink:href="vec_8c.html" target="_top" xlink:title=" ">
<polygon fill="white" stroke="black" points="400,-504.5 400,-523.5 474,-523.5 474,-504.5 400,-504.5"/>
<text text-anchor="middle" x="437" y="-511.5" font-family="Helvetica,sans-Serif" font-size="10.00">src/P2/vec.c</text>
</a>
</g>
</g>
<!-- Node1&#45;&gt;Node3 -->
<g id="edge2" class="edge">
<title>Node1&#45;&gt;Node3</title>
<path fill="none" stroke="midnightblue" d="M341.94,-609.21C365.73,-585.63 409.72,-542.03 428.33,-523.59"/>
<polygon fill="midnightblue" stroke="midnightblue" points="339.35,-606.84 334.71,-616.37 344.28,-611.82 339.35,-606.84"/>
</g>
<!-- Node4 -->
<g id="node4" class="node">
<title>Node4</title>
<g id="a_node4"><a xlink:href="bis_8h.html" target="_top" xlink:title="Binary Input Stream.">
<polygon fill="white" stroke="black" points="50,-280.5 50,-299.5 128,-299.5 128,-280.5 50,-280.5"/>
<text text-anchor="middle" x="89" y="-287.5" font-family="Helvetica,sans-Serif" font-size="10.00">include/bis.h</text>
</a>
</g>
</g>
<!-- Node1&#45;&gt;Node4 -->
<g id="edge3" class="edge">
<title>Node1&#45;&gt;Node4</title>
<path fill="none" stroke="midnightblue" d="M274.92,-623.2C205.25,-617.7 89,-596.33 89,-515 89,-515 89,-515 89,-401 89,-363.19 89,-318.06 89,-299.56"/>
<polygon fill="midnightblue" stroke="midnightblue" points="275.04,-626.71 285.26,-623.92 275.53,-619.73 275.04,-626.71"/>
</g>
<!-- Node7 -->
<g id="node7" class="node">
<title>Node7</title>
<g id="a_node7"><a xlink:href="chkpnt_8h.html" target="_top" xlink:title="Checkpoint system.">
<polygon fill="white" stroke="black" points="151.5,-112.5 151.5,-131.5 248.5,-131.5 248.5,-112.5 151.5,-112.5"/>
<text text-anchor="middle" x="200" y="-119.5" font-family="Helvetica,sans-Serif" font-size="10.00">include/chkpnt.h</text>
</a>
</g>
</g>
<!-- Node1&#45;&gt;Node7 -->
<g id="edge22" class="edge">
<title>Node1&#45;&gt;Node7</title>
<path fill="none" stroke="midnightblue" d="M275.2,-618.58C183.56,-605.58 0,-572.37 0,-515 0,-515 0,-515 0,-233 0,-164.15 92.13,-138.09 151.33,-128.45"/>
<polygon fill="midnightblue" stroke="midnightblue" points="274.98,-622.09 285.37,-620 275.95,-615.15 274.98,-622.09"/>
</g>
<!-- Node20 -->
<g id="node20" class="node">
<title>Node20</title>
<g id="a_node20"><a xlink:href="shd_8h.html" target="_top" xlink:title="Shaders.">
<polygon fill="white" stroke="black" points="209.5,-504.5 209.5,-523.5 290.5,-523.5 290.5,-504.5 209.5,-504.5"/>
<text text-anchor="middle" x="250" y="-511.5" font-family="Helvetica,sans-Serif" font-size="10.00">include/shd.h</text>
</a>
</g>
</g>
<!-- Node1&#45;&gt;Node20 -->
<g id="edge23" class="edge">
<title>Node1&#45;&gt;Node20</title>
<path fill="none" stroke="midnightblue" d="M316.7,-607.23C309.44,-593.87 298.82,-575.31 288,-560 278.56,-546.64 266.08,-532.4 258.04,-523.6"/>
<polygon fill="midnightblue" stroke="midnightblue" points="313.74,-609.12 321.53,-616.3 319.91,-605.83 313.74,-609.12"/>
</g>
<!-- Node31 -->
<g id="node31" class="node">
<title>Node31</title>
<g id="a_node31"><a xlink:href="vecmat_8h.html" target="_top" xlink:title=" ">
<polygon fill="white" stroke="black" points="1021,-504.5 1021,-523.5 1153,-523.5 1153,-504.5 1021,-504.5"/>
<text text-anchor="middle" x="1087" y="-511.5" font-family="Helvetica,sans-Serif" font-size="10.00">include/splice/vecmat.h</text>
</a>
</g>
</g>
<!-- Node1&#45;&gt;Node31 -->
<g id="edge37" class="edge">
<title>Node1&#45;&gt;Node31</title>
<path fill="none" stroke="midnightblue" d="M376.96,-619.19C446.62,-611.12 575.44,-595.72 685,-580 812.54,-561.7 962.23,-536.51 1037.89,-523.52"/>
<polygon fill="midnightblue" stroke="midnightblue" points="376.24,-615.75 366.71,-620.38 377.05,-622.7 376.24,-615.75"/>
</g>
<!-- Node34 -->
<g id="node34" class="node">
<title>Node34</title>
<g id="a_node34"><a xlink:href="surf_8h.html" target="_top" xlink:title="Surface?">
<polygon fill="white" stroke="black" points="197,-560.5 197,-579.5 279,-579.5 279,-560.5 197,-560.5"/>
<text text-anchor="middle" x="238" y="-567.5" font-family="Helvetica,sans-Serif" font-size="10.00">include/surf.h</text>
</a>
</g>
</g>
<!-- Node1&#45;&gt;Node34 -->
<g id="edge40" class="edge">
<title>Node1&#45;&gt;Node34</title>
<path fill="none" stroke="midnightblue" d="M303.02,-610.9C286.89,-601 265.82,-588.07 252.1,-579.65"/>
<polygon fill="midnightblue" stroke="midnightblue" points="301.51,-614.08 311.86,-616.32 305.17,-608.11 301.51,-614.08"/>
</g>
<!-- Node35 -->
<g id="node35" class="node">
<title>Node35</title>
<g id="a_node35"><a xlink:href="util_8h.html" target="_top" xlink:title="Utility functions.">
<polygon fill="white" stroke="black" points="596,-560.5 596,-579.5 676,-579.5 676,-560.5 596,-560.5"/>
<text text-anchor="middle" x="636" y="-567.5" font-family="Helvetica,sans-Serif" font-size="10.00">include/util.h</text>
</a>
</g>
</g>
<!-- Node1&#45;&gt;Node35 -->
<g id="edge43" class="edge">
<title>Node1&#45;&gt;Node35</title>
<path fill="none" stroke="midnightblue" d="M376.74,-616.16C438.04,-605.48 539.9,-587.74 595.95,-577.98"/>
<polygon fill="midnightblue" stroke="midnightblue" points="375.78,-612.78 366.53,-617.94 376.98,-619.67 375.78,-612.78"/>
</g>
<!-- Node5 -->
<g id="node5" class="node">
<title>Node5</title>
<g id="a_node5"><a xlink:href="bis_8c.html" target="_top" xlink:title=" ">
<polygon fill="white" stroke="black" points="66.5,-224.5 66.5,-243.5 137.5,-243.5 137.5,-224.5 66.5,-224.5"/>
<text text-anchor="middle" x="102" y="-231.5" font-family="Helvetica,sans-Serif" font-size="10.00">src/P2/bis.c</text>
</a>
</g>
</g>
<!-- Node4&#45;&gt;Node5 -->
<g id="edge4" class="edge">
<title>Node4&#45;&gt;Node5</title>
<path fill="none" stroke="midnightblue" d="M93.55,-270.1C95.71,-261.14 98.18,-250.86 99.89,-243.75"/>
<polygon fill="midnightblue" stroke="midnightblue" points="90.08,-269.54 91.15,-280.08 96.89,-271.18 90.08,-269.54"/>
</g>
<!-- Node6 -->
<g id="node6" class="node">
<title>Node6</title>
<g id="a_node6"><a xlink:href="coin_8c.html" target="_top" xlink:title=" ">
<polygon fill="white" stroke="black" points="110.5,-56.5 110.5,-75.5 187.5,-75.5 187.5,-56.5 110.5,-56.5"/>
<text text-anchor="middle" x="149" y="-63.5" font-family="Helvetica,sans-Serif" font-size="10.00">src/P2/coin.c</text>
</a>
</g>
</g>
<!-- Node4&#45;&gt;Node6 -->
<g id="edge5" class="edge">
<title>Node4&#45;&gt;Node6</title>
<path fill="none" stroke="midnightblue" d="M73.55,-272.55C67.1,-264.57 60.34,-254.46 57,-244 54.3,-235.53 54.67,-232.58 57,-224 73.96,-161.5 122.75,-98.42 141.52,-75.77"/>
<polygon fill="midnightblue" stroke="midnightblue" points="71.06,-275.02 80.25,-280.29 76.35,-270.44 71.06,-275.02"/>
</g>
<!-- Node4&#45;&gt;Node7 -->
<g id="edge6" class="edge">
<title>Node4&#45;&gt;Node7</title>
<path fill="none" stroke="midnightblue" d="M112.32,-274.49C123.62,-266.56 136.72,-255.94 146,-244 160.76,-225.03 187.41,-156.38 196.7,-131.82"/>
<polygon fill="midnightblue" stroke="midnightblue" points="110.1,-271.76 103.75,-280.24 114.01,-277.58 110.1,-271.76"/>
</g>
<!-- Node11 -->
<g id="node11" class="node">
<title>Node11</title>
<g id="a_node11"><a xlink:href="xform_8h.html" target="_top" xlink:title="Transform.">
<polygon fill="white" stroke="black" points="328.5,-224.5 328.5,-243.5 421.5,-243.5 421.5,-224.5 328.5,-224.5"/>
<text text-anchor="middle" x="375" y="-231.5" font-family="Helvetica,sans-Serif" font-size="10.00">include/xform.h</text>
</a>
</g>
</g>
<!-- Node4&#45;&gt;Node11 -->
<g id="edge11" class="edge">
<title>Node4&#45;&gt;Node11</title>
<path fill="none" stroke="midnightblue" d="M138.16,-279.72C191.96,-269.56 277.49,-253.41 329.71,-243.55"/>
<polygon fill="midnightblue" stroke="midnightblue" points="137.34,-276.31 128.17,-281.6 138.64,-283.19 137.34,-276.31"/>
</g>
<!-- Node7&#45;&gt;Node6 -->
<g id="edge8" class="edge">
<title>Node7&#45;&gt;Node6</title>
<path fill="none" stroke="midnightblue" d="M184.62,-104.72C175.63,-95.2 164.64,-83.56 157.26,-75.75"/>
<polygon fill="midnightblue" stroke="midnightblue" points="182.17,-107.22 191.58,-112.08 187.26,-102.41 182.17,-107.22"/>
</g>
<!-- Node8 -->
<g id="node8" class="node">
<title>Node8</title>
<g id="a_node8"><a xlink:href="chkpnt_8c.html" target="_top" xlink:title=" ">
<polygon fill="white" stroke="black" points="206,-56.5 206,-75.5 296,-75.5 296,-56.5 206,-56.5"/>
<text text-anchor="middle" x="251" y="-63.5" font-family="Helvetica,sans-Serif" font-size="10.00">src/P2/chkpnt.c</text>
</a>
</g>
</g>
<!-- Node7&#45;&gt;Node8 -->
<g id="edge7" class="edge">
<title>Node7&#45;&gt;Node8</title>
<path fill="none" stroke="midnightblue" d="M215.38,-104.72C224.37,-95.2 235.36,-83.56 242.74,-75.75"/>
<polygon fill="midnightblue" stroke="midnightblue" points="212.74,-102.41 208.42,-112.08 217.83,-107.22 212.74,-102.41"/>
</g>
<!-- Node9 -->
<g id="node9" class="node">
<title>Node9</title>
<g id="a_node9"><a xlink:href="difficulty_8h.html" target="_top" xlink:title="Dynamic difficulty system.">
<polygon fill="white" stroke="black" points="430.5,-56.5 430.5,-75.5 535.5,-75.5 535.5,-56.5 430.5,-56.5"/>
<text text-anchor="middle" x="483" y="-63.5" font-family="Helvetica,sans-Serif" font-size="10.00">include/difficulty.h</text>
</a>
</g>
</g>
<!-- Node7&#45;&gt;Node9 -->
<g id="edge9" class="edge">
<title>Node7&#45;&gt;Node9</title>
<path fill="none" stroke="midnightblue" d="M254.83,-110.54C308.32,-100.33 388.67,-85 438.37,-75.52"/>
<polygon fill="midnightblue" stroke="midnightblue" points="254.01,-107.13 244.84,-112.44 255.32,-114.01 254.01,-107.13"/>
</g>
<!-- Node10 -->
<g id="node10" class="node">
<title>Node10</title>
<g id="a_node10"><a xlink:href="difficulty_8c.html" target="_top" xlink:title=" ">
<polygon fill="white" stroke="black" points="434,-0.5 434,-19.5 532,-19.5 532,-0.5 434,-0.5"/>
<text text-anchor="middle" x="483" y="-7.5" font-family="Helvetica,sans-Serif" font-size="10.00">src/P2/difficulty.c</text>
</a>
</g>
</g>
<!-- Node9&#45;&gt;Node10 -->
<g id="edge10" class="edge">
<title>Node9&#45;&gt;Node10</title>
<path fill="none" stroke="midnightblue" d="M483,-45.8C483,-36.91 483,-26.78 483,-19.75"/>
<polygon fill="midnightblue" stroke="midnightblue" points="479.5,-46.08 483,-56.08 486.5,-46.08 479.5,-46.08"/>
</g>
<!-- Node12 -->
<g id="node12" class="node">
<title>Node12</title>
<g id="a_node12"><a xlink:href="xform1_8c.html" target="_top" xlink:title=" ">
<polygon fill="white" stroke="black" points="292,-168.5 292,-187.5 384,-187.5 384,-168.5 292,-168.5"/>
<text text-anchor="middle" x="338" y="-175.5" font-family="Helvetica,sans-Serif" font-size="10.00">src/P2/xform1.c</text>
</a>
</g>
</g>
<!-- Node11&#45;&gt;Node12 -->
<g id="edge12" class="edge">
<title>Node11&#45;&gt;Node12</title>
<path fill="none" stroke="midnightblue" d="M363.05,-215.57C356.69,-206.27 349.13,-195.25 344,-187.75"/>
<polygon fill="midnightblue" stroke="midnightblue" points="360.35,-217.81 368.89,-224.08 366.13,-213.86 360.35,-217.81"/>
</g>
<!-- Node13 -->
<g id="node13" class="node">
<title>Node13</title>
<g id="a_node13"><a xlink:href="xform2_8c.html" target="_top" xlink:title=" ">
<polygon fill="white" stroke="black" points="440,-168.5 440,-187.5 532,-187.5 532,-168.5 440,-168.5"/>
<text text-anchor="middle" x="486" y="-175.5" font-family="Helvetica,sans-Serif" font-size="10.00">src/P2/xform2.c</text>
</a>
</g>
</g>
<!-- Node11&#45;&gt;Node13 -->
<g id="edge13" class="edge">
<title>Node11&#45;&gt;Node13</title>
<path fill="none" stroke="midnightblue" d="M402.01,-219.86C422.59,-209.85 450.34,-196.35 468.21,-187.65"/>
<polygon fill="midnightblue" stroke="midnightblue" points="400.3,-216.8 392.83,-224.32 403.36,-223.1 400.3,-216.8"/>
</g>
<!-- Node14 -->
<g id="node14" class="node">
<title>Node14</title>
<g id="a_node14"><a xlink:href="cm_8h.html" target="_top" xlink:title="Game camera.">
<polygon fill="white" stroke="black" points="706.5,-168.5 706.5,-187.5 785.5,-187.5 785.5,-168.5 706.5,-168.5"/>
<text text-anchor="middle" x="746" y="-175.5" font-family="Helvetica,sans-Serif" font-size="10.00">include/cm.h</text>
</a>
</g>
</g>
<!-- Node11&#45;&gt;Node14 -->
<g id="edge14" class="edge">
<title>Node11&#45;&gt;Node14</title>
<path fill="none" stroke="midnightblue" d="M431.94,-224.71C507.89,-213.66 640.41,-194.37 706.36,-184.77"/>
<polygon fill="midnightblue" stroke="midnightblue" points="431,-221.31 421.61,-226.22 432.01,-228.24 431,-221.31"/>
</g>
<!-- Node18 -->
<g id="node18" class="node">
<title>Node18</title>
<g id="a_node18"><a xlink:href="coin_8h.html" target="_top" xlink:title="Coins, keys, and other collectibles.">
<polygon fill="white" stroke="black" points="319,-112.5 319,-131.5 403,-131.5 403,-112.5 319,-112.5"/>
<text text-anchor="middle" x="361" y="-119.5" font-family="Helvetica,sans-Serif" font-size="10.00">include/coin.h</text>
</a>
</g>
</g>
<!-- Node11&#45;&gt;Node18 -->
<g id="edge18" class="edge">
<title>Node11&#45;&gt;Node18</title>
<path fill="none" stroke="midnightblue" d="M385.56,-215.19C391.98,-202.07 398.05,-183.82 393,-168 388.45,-153.75 377.56,-140.16 369.75,-131.71"/>
<polygon fill="midnightblue" stroke="midnightblue" points="382.42,-213.64 380.76,-224.1 388.58,-216.96 382.42,-213.64"/>
</g>
<!-- Node19 -->
<g id="node19" class="node">
<title>Node19</title>
<g id="a_node19"><a xlink:href="vol_8h.html" target="_top" xlink:title="Volume object.">
<polygon fill="white" stroke="black" points="194.5,-168.5 194.5,-187.5 273.5,-187.5 273.5,-168.5 194.5,-168.5"/>
<text text-anchor="middle" x="234" y="-175.5" font-family="Helvetica,sans-Serif" font-size="10.00">include/vol.h</text>
</a>
</g>
</g>
<!-- Node11&#45;&gt;Node19 -->
<g id="edge20" class="edge">
<title>Node11&#45;&gt;Node19</title>
<path fill="none" stroke="midnightblue" d="M343.07,-220.77C316.59,-210.63 279.61,-196.47 256.24,-187.52"/>
<polygon fill="midnightblue" stroke="midnightblue" points="342.07,-224.14 352.66,-224.44 344.57,-217.6 342.07,-224.14"/>
</g>
<!-- Node15 -->
<g id="node15" class="node">
<title>Node15</title>
<g id="a_node15"><a xlink:href="cm_8c.html" target="_top" xlink:title=" ">
<polygon fill="white" stroke="black" points="632,-112.5 632,-131.5 704,-131.5 704,-112.5 632,-112.5"/>
<text text-anchor="middle" x="668" y="-119.5" font-family="Helvetica,sans-Serif" font-size="10.00">src/P2/cm.c</text>
</a>
</g>
</g>
<!-- Node14&#45;&gt;Node15 -->
<g id="edge15" class="edge">
<title>Node14&#45;&gt;Node15</title>
<path fill="none" stroke="midnightblue" d="M725.23,-162.62C710.98,-152.76 692.54,-139.99 680.5,-131.65"/>
<polygon fill="midnightblue" stroke="midnightblue" points="723.25,-165.51 733.47,-168.32 727.24,-159.75 723.25,-165.51"/>
</g>
<!-- Node16 -->
<g id="node16" class="node">
<title>Node16</title>
<g id="a_node16"><a xlink:href="flash_8h.html" target="_top" xlink:title="Flash (might be flash animation, or literal screen flashes).">
<polygon fill="white" stroke="black" points="722.5,-112.5 722.5,-131.5 809.5,-131.5 809.5,-112.5 722.5,-112.5"/>
<text text-anchor="middle" x="766" y="-119.5" font-family="Helvetica,sans-Serif" font-size="10.00">include/flash.h</text>
</a>
</g>
</g>
<!-- Node14&#45;&gt;Node16 -->
<g id="edge16" class="edge">
<title>Node14&#45;&gt;Node16</title>
<path fill="none" stroke="midnightblue" d="M752.78,-158.69C756.15,-149.59 760.07,-139.01 762.76,-131.75"/>
<polygon fill="midnightblue" stroke="midnightblue" points="749.49,-157.49 749.3,-168.08 756.06,-159.92 749.49,-157.49"/>
</g>
<!-- Node17 -->
<g id="node17" class="node">
<title>Node17</title>
<g id="a_node17"><a xlink:href="flash_8c.html" target="_top" xlink:title=" ">
<polygon fill="white" stroke="black" points="726,-56.5 726,-75.5 806,-75.5 806,-56.5 726,-56.5"/>
<text text-anchor="middle" x="766" y="-63.5" font-family="Helvetica,sans-Serif" font-size="10.00">src/P2/flash.c</text>
</a>
</g>
</g>
<!-- Node16&#45;&gt;Node17 -->
<g id="edge17" class="edge">
<title>Node16&#45;&gt;Node17</title>
<path fill="none" stroke="midnightblue" d="M766,-101.8C766,-92.91 766,-82.78 766,-75.75"/>
<polygon fill="midnightblue" stroke="midnightblue" points="762.5,-102.08 766,-112.08 769.5,-102.08 762.5,-102.08"/>
</g>
<!-- Node18&#45;&gt;Node6 -->
<g id="edge19" class="edge">
<title>Node18&#45;&gt;Node6</title>
<path fill="none" stroke="midnightblue" d="M317.65,-109.96C277.61,-99.76 218.97,-84.82 182.43,-75.52"/>
<polygon fill="midnightblue" stroke="midnightblue" points="316.85,-113.37 327.41,-112.44 318.58,-106.58 316.85,-113.37"/>
</g>
<!-- Node19&#45;&gt;Node7 -->
<g id="edge21" class="edge">
<title>Node19&#45;&gt;Node7</title>
<path fill="none" stroke="midnightblue" d="M223.02,-159.57C217.17,-150.27 210.23,-139.25 205.51,-131.75"/>
<polygon fill="midnightblue" stroke="midnightblue" points="220.1,-161.49 228.39,-168.08 226.02,-157.76 220.1,-161.49"/>
</g>
<!-- Node21 -->
<g id="node21" class="node">
<title>Node21</title>
<g id="a_node21"><a xlink:href="screen_8h.html" target="_top" xlink:title="User interface manager.">
<polygon fill="white" stroke="black" points="243,-448.5 243,-467.5 339,-467.5 339,-448.5 243,-448.5"/>
<text text-anchor="middle" x="291" y="-455.5" font-family="Helvetica,sans-Serif" font-size="10.00">include/screen.h</text>
</a>
</g>
</g>
<!-- Node20&#45;&gt;Node21 -->
<g id="edge24" class="edge">
<title>Node20&#45;&gt;Node21</title>
<path fill="none" stroke="midnightblue" d="M263.02,-495.86C270.12,-486.5 278.6,-475.33 284.36,-467.75"/>
<polygon fill="midnightblue" stroke="midnightblue" points="260.03,-494 256.77,-504.08 265.61,-498.24 260.03,-494"/>
</g>
<!-- Node22 -->
<g id="node22" class="node">
<title>Node22</title>
<g id="a_node22"><a xlink:href="screen_8c.html" target="_top" xlink:title=" ">
<polygon fill="white" stroke="black" points="246.5,-392.5 246.5,-411.5 335.5,-411.5 335.5,-392.5 246.5,-392.5"/>
<text text-anchor="middle" x="291" y="-399.5" font-family="Helvetica,sans-Serif" font-size="10.00">src/P2/screen.c</text>
</a>
</g>
</g>
<!-- Node21&#45;&gt;Node22 -->
<g id="edge25" class="edge">
<title>Node21&#45;&gt;Node22</title>
<path fill="none" stroke="midnightblue" d="M291,-437.8C291,-428.91 291,-418.78 291,-411.75"/>
<polygon fill="midnightblue" stroke="midnightblue" points="287.5,-438.08 291,-448.08 294.5,-438.08 287.5,-438.08"/>
</g>
<!-- Node23 -->
<g id="node23" class="node">
<title>Node23</title>
<g id="a_node23"><a xlink:href="steppower_8c.html" target="_top" xlink:title=" ">
<polygon fill="white" stroke="black" points="462.5,-392.5 462.5,-411.5 569.5,-411.5 569.5,-392.5 462.5,-392.5"/>
<text text-anchor="middle" x="516" y="-399.5" font-family="Helvetica,sans-Serif" font-size="10.00">src/P2/steppower.c</text>
</a>
</g>
</g>
<!-- Node21&#45;&gt;Node23 -->
<g id="edge26" class="edge">
<title>Node21&#45;&gt;Node23</title>
<path fill="none" stroke="midnightblue" d="M336.47,-446.09C378.97,-435.89 441.58,-420.86 480.51,-411.52"/>
<polygon fill="midnightblue" stroke="midnightblue" points="335.56,-442.71 326.65,-448.44 337.19,-449.51 335.56,-442.71"/>
</g>
<!-- Node24 -->
<g id="node24" class="node">
<title>Node24</title>
<g id="a_node24"><a xlink:href="binoc_8h.html" target="_top" xlink:title="Binoc&#45;u&#45;com.">
<polygon fill="white" stroke="black" points="354,-392.5 354,-411.5 444,-411.5 444,-392.5 354,-392.5"/>
<text text-anchor="middle" x="399" y="-399.5" font-family="Helvetica,sans-Serif" font-size="10.00">include/binoc.h</text>
</a>
</g>
</g>
<!-- Node21&#45;&gt;Node24 -->
<g id="edge27" class="edge">
<title>Node21&#45;&gt;Node24</title>
<path fill="none" stroke="midnightblue" d="M317.55,-443.73C337.55,-433.73 364.39,-420.31 381.69,-411.65"/>
<polygon fill="midnightblue" stroke="midnightblue" points="315.73,-440.72 308.35,-448.32 318.86,-446.98 315.73,-440.72"/>
</g>
<!-- Node29 -->
<g id="node29" class="node">
<title>Node29</title>
<g id="a_node29"><a xlink:href="ui_8h.html" target="_top" xlink:title="User interface.">
<polygon fill="white" stroke="black" points="155.5,-392.5 155.5,-411.5 228.5,-411.5 228.5,-392.5 155.5,-392.5"/>
<text text-anchor="middle" x="192" y="-399.5" font-family="Helvetica,sans-Serif" font-size="10.00">include/ui.h</text>
</a>
</g>
</g>
<!-- Node21&#45;&gt;Node29 -->
<g id="edge35" class="edge">
<title>Node21&#45;&gt;Node29</title>
<path fill="none" stroke="midnightblue" d="M266.16,-443.45C247.89,-433.48 223.58,-420.23 207.87,-411.65"/>
<polygon fill="midnightblue" stroke="midnightblue" points="264.64,-446.61 275.09,-448.32 267.99,-440.46 264.64,-446.61"/>
</g>
<!-- Node24&#45;&gt;Node14 -->
<g id="edge30" class="edge">
<title>Node24&#45;&gt;Node14</title>
<path fill="none" stroke="midnightblue" d="M453.96,-390.48C497.38,-381.51 553.9,-368.17 574,-356 641.57,-315.09 636.32,-279.02 693,-224 706.86,-210.55 724.1,-196.33 735.08,-187.56"/>
<polygon fill="midnightblue" stroke="midnightblue" points="453.18,-387.07 444.08,-392.49 454.57,-393.93 453.18,-387.07"/>
</g>
<!-- Node24&#45;&gt;Node15 -->
<g id="edge29" class="edge">
<title>Node24&#45;&gt;Node15</title>
<path fill="none" stroke="midnightblue" d="M448.2,-389.58C495.54,-375.32 560,-345.83 560,-291 560,-291 560,-291 560,-233 560,-182.69 618.25,-146.95 649.19,-131.51"/>
<polygon fill="midnightblue" stroke="midnightblue" points="447.03,-386.27 438.39,-392.39 448.96,-393 447.03,-386.27"/>
</g>
<!-- Node25 -->
<g id="node25" class="node">
<title>Node25</title>
<g id="a_node25"><a xlink:href="binoc_8c.html" target="_top" xlink:title=" ">
<polygon fill="white" stroke="black" points="357.5,-336.5 357.5,-355.5 440.5,-355.5 440.5,-336.5 357.5,-336.5"/>
<text text-anchor="middle" x="399" y="-343.5" font-family="Helvetica,sans-Serif" font-size="10.00">src/P2/binoc.c</text>
</a>
</g>
</g>
<!-- Node24&#45;&gt;Node25 -->
<g id="edge28" class="edge">
<title>Node24&#45;&gt;Node25</title>
<path fill="none" stroke="midnightblue" d="M399,-381.8C399,-372.91 399,-362.78 399,-355.75"/>
<polygon fill="midnightblue" stroke="midnightblue" points="395.5,-382.08 399,-392.08 402.5,-382.08 395.5,-382.08"/>
</g>
<!-- Node26 -->
<g id="node26" class="node">
<title>Node26</title>
<g id="a_node26"><a xlink:href="prog_8h.html" target="_top" xlink:title=" ">
<polygon fill="white" stroke="black" points="248,-336.5 248,-355.5 334,-355.5 334,-336.5 248,-336.5"/>
<text text-anchor="middle" x="291" y="-343.5" font-family="Helvetica,sans-Serif" font-size="10.00">include/prog.h</text>
</a>
</g>
</g>
<!-- Node24&#45;&gt;Node26 -->
<g id="edge31" class="edge">
<title>Node24&#45;&gt;Node26</title>
<path fill="none" stroke="midnightblue" d="M372.45,-387.73C352.45,-377.73 325.61,-364.31 308.31,-355.65"/>
<polygon fill="midnightblue" stroke="midnightblue" points="371.14,-390.98 381.65,-392.32 374.27,-384.72 371.14,-390.98"/>
</g>
<!-- Node26&#45;&gt;Node4 -->
<g id="edge34" class="edge">
<title>Node26&#45;&gt;Node4</title>
<path fill="none" stroke="midnightblue" d="M249.21,-333.83C211.07,-323.63 155.52,-308.78 120.86,-299.52"/>
<polygon fill="midnightblue" stroke="midnightblue" points="248.43,-337.24 258.99,-336.44 250.24,-330.48 248.43,-337.24"/>
</g>
<!-- Node27 -->
<g id="node27" class="node">
<title>Node27</title>
<g id="a_node27"><a xlink:href="main_8c.html" target="_top" xlink:title=" ">
<polygon fill="white" stroke="black" points="316,-280.5 316,-299.5 398,-299.5 398,-280.5 316,-280.5"/>
<text text-anchor="middle" x="357" y="-287.5" font-family="Helvetica,sans-Serif" font-size="10.00">src/P2/main.c</text>
</a>
</g>
</g>
<!-- Node26&#45;&gt;Node27 -->
<g id="edge32" class="edge">
<title>Node26&#45;&gt;Node27</title>
<path fill="none" stroke="midnightblue" d="M309.55,-329.82C321.38,-320.15 336.29,-307.95 346.2,-299.83"/>
<polygon fill="midnightblue" stroke="midnightblue" points="307.13,-327.28 301.6,-336.32 311.56,-332.7 307.13,-327.28"/>
</g>
<!-- Node28 -->
<g id="node28" class="node">
<title>Node28</title>
<g id="a_node28"><a xlink:href="prog_8c.html" target="_top" xlink:title=" ">
<polygon fill="white" stroke="black" points="218.5,-280.5 218.5,-299.5 297.5,-299.5 297.5,-280.5 218.5,-280.5"/>
<text text-anchor="middle" x="258" y="-287.5" font-family="Helvetica,sans-Serif" font-size="10.00">src/P2/prog.c</text>
</a>
</g>
</g>
<!-- Node26&#45;&gt;Node28 -->
<g id="edge33" class="edge">
<title>Node26&#45;&gt;Node28</title>
<path fill="none" stroke="midnightblue" d="M280.17,-327.27C274.53,-318.05 267.88,-307.17 263.35,-299.75"/>
<polygon fill="midnightblue" stroke="midnightblue" points="277.35,-329.38 285.55,-336.08 283.32,-325.73 277.35,-329.38"/>
</g>
<!-- Node30 -->
<g id="node30" class="node">
<title>Node30</title>
<g id="a_node30"><a xlink:href="ui_8c.html" target="_top" xlink:title=" ">
<polygon fill="white" stroke="black" points="159,-336.5 159,-355.5 225,-355.5 225,-336.5 159,-336.5"/>
<text text-anchor="middle" x="192" y="-343.5" font-family="Helvetica,sans-Serif" font-size="10.00">src/P2/ui.c</text>
</a>
</g>
</g>
<!-- Node29&#45;&gt;Node30 -->
<g id="edge36" class="edge">
<title>Node29&#45;&gt;Node30</title>
<path fill="none" stroke="midnightblue" d="M192,-381.8C192,-372.91 192,-362.78 192,-355.75"/>
<polygon fill="midnightblue" stroke="midnightblue" points="188.5,-382.08 192,-392.08 195.5,-382.08 188.5,-382.08"/>
</g>
<!-- Node32 -->
<g id="node32" class="node">
<title>Node32</title>
<g id="a_node32"><a xlink:href="ref_8cpp.html" target="_top" xlink:title=" ">
<polygon fill="white" stroke="black" points="1061.5,-448.5 1061.5,-467.5 1174.5,-467.5 1174.5,-448.5 1061.5,-448.5"/>
<text text-anchor="middle" x="1118" y="-455.5" font-family="Helvetica,sans-Serif" font-size="10.00">src/P2/splice/ref.cpp</text>
</a>
</g>
</g>
<!-- Node31&#45;&gt;Node32 -->
<g id="edge38" class="edge">
<title>Node31&#45;&gt;Node32</title>
<path fill="none" stroke="midnightblue" d="M1097.18,-495.27C1102.47,-486.05 1108.72,-475.17 1112.98,-467.75"/>
<polygon fill="midnightblue" stroke="midnightblue" points="1094.06,-493.67 1092.12,-504.08 1100.13,-497.15 1094.06,-493.67"/>
</g>
<!-- Node33 -->
<g id="node33" class="node">
<title>Node33</title>
<g id="a_node33"><a xlink:href="spliceutils_8cpp.html" target="_top" xlink:title=" ">
<polygon fill="white" stroke="black" points="1020,-392.5 1020,-411.5 1170,-411.5 1170,-392.5 1020,-392.5"/>
<text text-anchor="middle" x="1095" y="-399.5" font-family="Helvetica,sans-Serif" font-size="10.00">src/P2/splice/spliceutils.cpp</text>
</a>
</g>
</g>
<!-- Node31&#45;&gt;Node33 -->
<g id="edge39" class="edge">
<title>Node31&#45;&gt;Node33</title>
<path fill="none" stroke="midnightblue" d="M1138.02,-501.13C1155.32,-494.4 1172.84,-483.99 1183,-468 1199.91,-441.39 1157.89,-421.96 1126.25,-411.59"/>
<polygon fill="midnightblue" stroke="midnightblue" points="1136.73,-497.87 1128.47,-504.5 1139.07,-504.47 1136.73,-497.87"/>
</g>
<!-- Node34&#45;&gt;Node11 -->
<g id="edge42" class="edge">
<title>Node34&#45;&gt;Node11</title>
<path fill="none" stroke="midnightblue" d="M222.79,-552.67C188.85,-514.13 112.73,-414.87 150,-336 181.46,-269.41 272.22,-246.71 328.39,-238.98"/>
<polygon fill="midnightblue" stroke="midnightblue" points="220.41,-555.25 229.7,-560.33 225.61,-550.56 220.41,-555.25"/>
</g>
<!-- Node34&#45;&gt;Node20 -->
<g id="edge41" class="edge">
<title>Node34&#45;&gt;Node20</title>
<path fill="none" stroke="midnightblue" d="M242.2,-550.1C244.19,-541.14 246.48,-530.86 248.06,-523.75"/>
<polygon fill="midnightblue" stroke="midnightblue" points="238.73,-549.56 239.98,-560.08 245.57,-551.08 238.73,-549.56"/>
</g>
<!-- Node35&#45;&gt;Node2 -->
<g id="edge45" class="edge">
<title>Node35&#45;&gt;Node2</title>
<path fill="none" stroke="midnightblue" d="M585.52,-559.9C535.96,-550.93 458.24,-536.75 391,-524 387.96,-523.42 384.81,-522.82 381.65,-522.21"/>
<polygon fill="midnightblue" stroke="midnightblue" points="585.19,-563.4 595.65,-561.74 586.44,-556.51 585.19,-563.4"/>
</g>
<!-- Node35&#45;&gt;Node3 -->
<g id="edge46" class="edge">
<title>Node35&#45;&gt;Node3</title>
<path fill="none" stroke="midnightblue" d="M594.35,-557.7C556.79,-547.51 502.39,-532.74 468.38,-523.52"/>
<polygon fill="midnightblue" stroke="midnightblue" points="593.9,-561.2 604.47,-560.44 595.73,-554.45 593.9,-561.2"/>
</g>
<!-- Node35&#45;&gt;Node9 -->
<g id="edge48" class="edge">
<title>Node35&#45;&gt;Node9</title>
<path fill="none" stroke="midnightblue" d="M632.77,-550.32C623.59,-496.58 598,-342.17 598,-291 598,-291 598,-291 598,-177 598,-125.47 536.97,-90.64 503.83,-75.53"/>
<polygon fill="midnightblue" stroke="midnightblue" points="629.37,-551.18 634.51,-560.44 636.27,-549.99 629.37,-551.18"/>
</g>
<!-- Node35&#45;&gt;Node11 -->
<g id="edge61" class="edge">
<title>Node35&#45;&gt;Node11</title>
<path fill="none" stroke="midnightblue" d="M630.33,-550.72C616.67,-506.85 582.75,-398.73 578,-392 526.49,-319.02 431.14,-264.05 392.22,-243.65"/>
<polygon fill="midnightblue" stroke="midnightblue" points="627.02,-551.88 633.33,-560.39 633.71,-549.8 627.02,-551.88"/>
</g>
<!-- Node35&#45;&gt;Node14 -->
<g id="edge47" class="edge">
<title>Node35&#45;&gt;Node14</title>
<path fill="none" stroke="midnightblue" d="M672.77,-556.5C689.6,-549.23 708.71,-538.57 722,-524 740.13,-504.12 736.44,-493.51 745,-468 780.48,-362.22 853.08,-324.2 804,-224 795.81,-207.29 778.1,-195 764.39,-187.53"/>
<polygon fill="midnightblue" stroke="midnightblue" points="671.13,-553.39 663.18,-560.39 673.76,-559.87 671.13,-553.39"/>
</g>
<!-- Node35&#45;&gt;Node15 -->
<g id="edge44" class="edge">
<title>Node35&#45;&gt;Node15</title>
<path fill="none" stroke="midnightblue" d="M646.14,-551.43C657.4,-530.24 674,-493.19 674,-459 674,-459 674,-459 674,-233 674,-195.13 670.41,-150.04 668.78,-131.55"/>
<polygon fill="midnightblue" stroke="midnightblue" points="643.05,-549.78 641.28,-560.23 649.18,-553.17 643.05,-549.78"/>
</g>
<!-- Node35&#45;&gt;Node31 -->
<g id="edge60" class="edge">
<title>Node35&#45;&gt;Node31</title>
<path fill="none" stroke="midnightblue" d="M686.05,-563.01C767.72,-553.23 929.66,-533.84 1020.76,-522.93"/>
<polygon fill="midnightblue" stroke="midnightblue" points="685.54,-559.54 676.02,-564.21 686.37,-566.49 685.54,-559.54"/>
</g>
<!-- Node36 -->
<g id="node36" class="node">
<title>Node36</title>
<g id="a_node36"><a xlink:href="joy_8h.html" target="_top" xlink:title="Joypad manager.">
<polygon fill="white" stroke="black" points="492.5,-504.5 492.5,-523.5 569.5,-523.5 569.5,-504.5 492.5,-504.5"/>
<text text-anchor="middle" x="531" y="-511.5" font-family="Helvetica,sans-Serif" font-size="10.00">include/joy.h</text>
</a>
</g>
</g>
<!-- Node35&#45;&gt;Node36 -->
<g id="edge49" class="edge">
<title>Node35&#45;&gt;Node36</title>
<path fill="none" stroke="midnightblue" d="M610.19,-555.73C590.75,-545.73 564.65,-532.31 547.83,-523.65"/>
<polygon fill="midnightblue" stroke="midnightblue" points="608.64,-558.86 619.13,-560.32 611.84,-552.64 608.64,-558.86"/>
</g>
<!-- Node39 -->
<g id="node39" class="node">
<title>Node39</title>
<g id="a_node39"><a xlink:href="sound_8h.html" target="_top" xlink:title="Sound playback.">
<polygon fill="white" stroke="black" points="702.5,-224.5 702.5,-243.5 795.5,-243.5 795.5,-224.5 702.5,-224.5"/>
<text text-anchor="middle" x="749" y="-231.5" font-family="Helvetica,sans-Serif" font-size="10.00">include/sound.h</text>
</a>
</g>
</g>
<!-- Node35&#45;&gt;Node39 -->
<g id="edge53" class="edge">
<title>Node35&#45;&gt;Node39</title>
<path fill="none" stroke="midnightblue" d="M660.25,-555.09C688.39,-536.91 731,-502.26 731,-459 731,-459 731,-459 731,-345 731,-306.88 741.66,-262.29 746.57,-243.76"/>
<polygon fill="midnightblue" stroke="midnightblue" points="658.34,-552.15 651.69,-560.4 662.03,-558.1 658.34,-552.15"/>
</g>
<!-- Node40 -->
<g id="node40" class="node">
<title>Node40</title>
<g id="a_node40"><a xlink:href="ref_8h.html" target="_top" xlink:title=" ">
<polygon fill="white" stroke="black" points="864,-504.5 864,-523.5 972,-523.5 972,-504.5 864,-504.5"/>
<text text-anchor="middle" x="918" y="-511.5" font-family="Helvetica,sans-Serif" font-size="10.00">include/splice/ref.h</text>
</a>
</g>
</g>
<!-- Node35&#45;&gt;Node40 -->
<g id="edge55" class="edge">
<title>Node35&#45;&gt;Node40</title>
<path fill="none" stroke="midnightblue" d="M685.99,-559.43C739.13,-549.25 822.38,-533.31 873.38,-523.54"/>
<polygon fill="midnightblue" stroke="midnightblue" points="685.27,-556 676.1,-561.32 686.58,-562.88 685.27,-556"/>
</g>
<!-- Node37 -->
<g id="node37" class="node">
<title>Node37</title>
<g id="a_node37"><a xlink:href="joy_8c.html" target="_top" xlink:title=" ">
<polygon fill="white" stroke="black" points="366.5,-448.5 366.5,-467.5 437.5,-467.5 437.5,-448.5 366.5,-448.5"/>
<text text-anchor="middle" x="402" y="-455.5" font-family="Helvetica,sans-Serif" font-size="10.00">src/P2/joy.c</text>
</a>
</g>
</g>
<!-- Node36&#45;&gt;Node37 -->
<g id="edge50" class="edge">
<title>Node36&#45;&gt;Node37</title>
<path fill="none" stroke="midnightblue" d="M501.15,-500.5C476.96,-490.38 443.54,-476.39 422.34,-467.52"/>
<polygon fill="midnightblue" stroke="midnightblue" points="499.98,-503.81 510.56,-504.44 502.69,-497.35 499.98,-503.81"/>
</g>
<!-- Node38 -->
<g id="node38" class="node">
<title>Node38</title>
<g id="a_node38"><a xlink:href="steppower_8h.html" target="_top" xlink:title=" ">
<polygon fill="white" stroke="black" points="456,-448.5 456,-467.5 570,-467.5 570,-448.5 456,-448.5"/>
<text text-anchor="middle" x="513" y="-455.5" font-family="Helvetica,sans-Serif" font-size="10.00">include/steppower.h</text>
</a>
</g>
</g>
<!-- Node36&#45;&gt;Node38 -->
<g id="edge51" class="edge">
<title>Node36&#45;&gt;Node38</title>
<path fill="none" stroke="midnightblue" d="M524.8,-494.4C521.79,-485.36 518.31,-474.94 515.92,-467.75"/>
<polygon fill="midnightblue" stroke="midnightblue" points="521.54,-495.7 528.03,-504.08 528.19,-493.49 521.54,-495.7"/>
</g>
<!-- Node38&#45;&gt;Node23 -->
<g id="edge52" class="edge">
<title>Node38&#45;&gt;Node23</title>
<path fill="none" stroke="midnightblue" d="M514.07,-437.8C514.56,-428.91 515.12,-418.78 515.51,-411.75"/>
<polygon fill="midnightblue" stroke="midnightblue" points="510.56,-437.9 513.5,-448.08 517.54,-438.29 510.56,-437.9"/>
</g>
<!-- Node39&#45;&gt;Node14 -->
<g id="edge54" class="edge">
<title>Node39&#45;&gt;Node14</title>
<path fill="none" stroke="midnightblue" d="M747.93,-213.8C747.44,-204.91 746.88,-194.78 746.49,-187.75"/>
<polygon fill="midnightblue" stroke="midnightblue" points="744.46,-214.29 748.5,-224.08 751.44,-213.9 744.46,-214.29"/>
</g>
<!-- Node40&#45;&gt;Node32 -->
<g id="edge57" class="edge">
<title>Node40&#45;&gt;Node32</title>
<path fill="none" stroke="midnightblue" d="M959.37,-501.83C997.14,-491.63 1052.14,-476.78 1086.46,-467.52"/>
<polygon fill="midnightblue" stroke="midnightblue" points="958.43,-498.46 949.69,-504.44 960.26,-505.22 958.43,-498.46"/>
</g>
<!-- Node41 -->
<g id="node41" class="node">
<title>Node41</title>
<g id="a_node41"><a xlink:href="bif_8cpp.html" target="_top" xlink:title=" ">
<polygon fill="white" stroke="black" points="799.5,-448.5 799.5,-467.5 912.5,-467.5 912.5,-448.5 799.5,-448.5"/>
<text text-anchor="middle" x="856" y="-455.5" font-family="Helvetica,sans-Serif" font-size="10.00">src/P2/splice/bif.cpp</text>
</a>
</g>
</g>
<!-- Node40&#45;&gt;Node41 -->
<g id="edge56" class="edge">
<title>Node40&#45;&gt;Node41</title>
<path fill="none" stroke="midnightblue" d="M900.25,-497.54C889.19,-487.91 875.37,-475.87 866.14,-467.83"/>
<polygon fill="midnightblue" stroke="midnightblue" points="898.2,-500.4 908.04,-504.32 902.8,-495.12 898.2,-500.4"/>
</g>
<!-- Node42 -->
<g id="node42" class="node">
<title>Node42</title>
<g id="a_node42"><a xlink:href="pair_8h.html" target="_top" xlink:title=" ">
<polygon fill="white" stroke="black" points="930.5,-448.5 930.5,-467.5 1043.5,-467.5 1043.5,-448.5 930.5,-448.5"/>
<text text-anchor="middle" x="987" y="-455.5" font-family="Helvetica,sans-Serif" font-size="10.00">include/splice/pair.h</text>
</a>
</g>
</g>
<!-- Node40&#45;&gt;Node42 -->
<g id="edge58" class="edge">
<title>Node40&#45;&gt;Node42</title>
<path fill="none" stroke="midnightblue" d="M937.04,-498.1C949.46,-488.38 965.24,-476.03 975.71,-467.83"/>
<polygon fill="midnightblue" stroke="midnightblue" points="934.8,-495.4 929.09,-504.32 939.12,-500.92 934.8,-495.4"/>
</g>
<!-- Node42&#45;&gt;Node33 -->
<g id="edge59" class="edge">
<title>Node42&#45;&gt;Node33</title>
<path fill="none" stroke="midnightblue" d="M1013.55,-443.73C1033.55,-433.73 1060.39,-420.31 1077.69,-411.65"/>
<polygon fill="midnightblue" stroke="midnightblue" points="1011.73,-440.72 1004.35,-448.32 1014.86,-446.98 1011.73,-440.72"/>
</g>
</g>
</svg>
