<?xml version="1.0" encoding="UTF-8" standalone="no"?>
<!DOCTYPE svg PUBLIC "-//W3C//DTD SVG 1.1//EN"
 "http://www.w3.org/Graphics/SVG/1.1/DTD/svg11.dtd">
<!-- Generated by graphviz version 2.43.0 (0)
 -->
<!-- Title: include/vec.h Pages: 1 -->
<svg width="1474pt" height="644pt"
 viewBox="0.00 0.00 1474.39 644.00" xmlns="http://www.w3.org/2000/svg" xmlns:xlink="http://www.w3.org/1999/xlink">
<g id="graph0" class="graph" transform="scale(1 1) rotate(0) translate(4 640)">
<title>include/vec.h</title>
<polygon fill="white" stroke="transparent" points="-4,4 -4,-640 1470.39,-640 1470.39,4 -4,4"/>
<!-- Node1 -->
<g id="node1" class="node">
<title>Node1</title>
<g id="a_node1"><a xlink:title="Vector math.">
<polygon fill="#bfbfbf" stroke="black" points="429.5,-616.5 429.5,-635.5 510.5,-635.5 510.5,-616.5 429.5,-616.5"/>
<text text-anchor="middle" x="470" y="-623.5" font-family="Helvetica,sans-Serif" font-size="10.00">include/vec.h</text>
</a>
</g>
</g>
<!-- Node2 -->
<g id="node2" class="node">
<title>Node2</title>
<g id="a_node2"><a xlink:href="util_8c.html" target="_top" xlink:title=" ">
<polygon fill="white" stroke="black" points="452.5,-504.5 452.5,-523.5 525.5,-523.5 525.5,-504.5 452.5,-504.5"/>
<text text-anchor="middle" x="489" y="-511.5" font-family="Helvetica,sans-Serif" font-size="10.00">src/P2/util.c</text>
</a>
</g>
</g>
<!-- Node1&#45;&gt;Node2 -->
<g id="edge1" class="edge">
<title>Node1&#45;&gt;Node2</title>
<path fill="none" stroke="midnightblue" d="M473.22,-606.35C477.38,-582.25 484.46,-541.31 487.52,-523.59"/>
<polygon fill="midnightblue" stroke="midnightblue" points="469.74,-605.92 471.49,-616.37 476.64,-607.11 469.74,-605.92"/>
</g>
<!-- Node3 -->
<g id="node3" class="node">
<title>Node3</title>
<g id="a_node3"><a xlink:href="vec_8c.html" target="_top" xlink:title=" ">
<polygon fill="white" stroke="black" points="544,-504.5 544,-523.5 618,-523.5 618,-504.5 544,-504.5"/>
<text text-anchor="middle" x="581" y="-511.5" font-family="Helvetica,sans-Serif" font-size="10.00">src/P2/vec.c</text>
</a>
</g>
</g>
<!-- Node1&#45;&gt;Node3 -->
<g id="edge2" class="edge">
<title>Node1&#45;&gt;Node3</title>
<path fill="none" stroke="midnightblue" d="M485.94,-609.21C509.73,-585.63 553.72,-542.03 572.33,-523.59"/>
<polygon fill="midnightblue" stroke="midnightblue" points="483.35,-606.84 478.71,-616.37 488.28,-611.82 483.35,-606.84"/>
</g>
<!-- Node4 -->
<g id="node4" class="node">
<title>Node4</title>
<g id="a_node4"><a xlink:href="bis_8h.html" target="_top" xlink:title="Binary Input Stream.">
<polygon fill="white" stroke="black" points="107,-280.5 107,-299.5 185,-299.5 185,-280.5 107,-280.5"/>
<text text-anchor="middle" x="146" y="-287.5" font-family="Helvetica,sans-Serif" font-size="10.00">include/bis.h</text>
</a>
</g>
</g>
<!-- Node1&#45;&gt;Node4 -->
<g id="edge3" class="edge">
<title>Node1&#45;&gt;Node4</title>
<path fill="none" stroke="midnightblue" d="M419.24,-619.24C324.67,-607.07 131,-574.86 131,-515 131,-515 131,-515 131,-401 131,-362.84 139.97,-317.91 144.04,-299.5"/>
<polygon fill="midnightblue" stroke="midnightblue" points="419.09,-622.74 429.45,-620.52 419.96,-615.8 419.09,-622.74"/>
</g>
<!-- Node7 -->
<g id="node7" class="node">
<title>Node7</title>
<g id="a_node7"><a xlink:href="chkpnt_8h.html" target="_top" xlink:title="Checkpoint system.">
<polygon fill="white" stroke="black" points="111.5,-112.5 111.5,-131.5 208.5,-131.5 208.5,-112.5 111.5,-112.5"/>
<text text-anchor="middle" x="160" y="-119.5" font-family="Helvetica,sans-Serif" font-size="10.00">include/chkpnt.h</text>
</a>
</g>
</g>
<!-- Node1&#45;&gt;Node7 -->
<g id="edge23" class="edge">
<title>Node1&#45;&gt;Node7</title>
<path fill="none" stroke="midnightblue" d="M419.13,-621.39C313.26,-612.48 79,-584.87 79,-515 79,-515 79,-515 79,-233 79,-187.46 124.56,-148.36 147.34,-131.65"/>
<polygon fill="midnightblue" stroke="midnightblue" points="419.01,-624.89 429.26,-622.22 419.58,-617.92 419.01,-624.89"/>
</g>
<!-- Node21 -->
<g id="node21" class="node">
<title>Node21</title>
<g id="a_node21"><a xlink:href="shd_8h.html" target="_top" xlink:title="Shaders.">
<polygon fill="white" stroke="black" points="347.5,-504.5 347.5,-523.5 428.5,-523.5 428.5,-504.5 347.5,-504.5"/>
<text text-anchor="middle" x="388" y="-511.5" font-family="Helvetica,sans-Serif" font-size="10.00">include/shd.h</text>
</a>
</g>
</g>
<!-- Node1&#45;&gt;Node21 -->
<g id="edge24" class="edge">
<title>Node1&#45;&gt;Node21</title>
<path fill="none" stroke="midnightblue" d="M461.02,-607C453.93,-593.52 443.37,-574.91 432,-560 421.53,-546.27 407.22,-532.35 397.8,-523.7"/>
<polygon fill="midnightblue" stroke="midnightblue" points="458.04,-608.86 465.71,-616.16 464.27,-605.67 458.04,-608.86"/>
</g>
<!-- Node33 -->
<g id="node33" class="node">
<title>Node33</title>
<g id="a_node33"><a xlink:href="vecmat_8h.html" target="_top" xlink:title=" ">
<polygon fill="white" stroke="black" points="1175,-504.5 1175,-523.5 1307,-523.5 1307,-504.5 1175,-504.5"/>
<text text-anchor="middle" x="1241" y="-511.5" font-family="Helvetica,sans-Serif" font-size="10.00">include/splice/vecmat.h</text>
</a>
</g>
</g>
<!-- Node1&#45;&gt;Node33 -->
<g id="edge39" class="edge">
<title>Node1&#45;&gt;Node33</title>
<path fill="none" stroke="midnightblue" d="M520.95,-619.13C590.6,-610.99 719.41,-595.51 829,-580 959.49,-561.53 1112.68,-536.47 1190.34,-523.52"/>
<polygon fill="midnightblue" stroke="midnightblue" points="520.23,-615.69 510.7,-620.32 521.04,-622.64 520.23,-615.69"/>
</g>
<!-- Node37 -->
<g id="node37" class="node">
<title>Node37</title>
<g id="a_node37"><a xlink:href="surf_8h.html" target="_top" xlink:title="Surfaces?">
<polygon fill="white" stroke="black" points="341,-560.5 341,-579.5 423,-579.5 423,-560.5 341,-560.5"/>
<text text-anchor="middle" x="382" y="-567.5" font-family="Helvetica,sans-Serif" font-size="10.00">include/surf.h</text>
</a>
</g>
</g>
<!-- Node1&#45;&gt;Node37 -->
<g id="edge43" class="edge">
<title>Node1&#45;&gt;Node37</title>
<path fill="none" stroke="midnightblue" d="M447.02,-610.9C430.89,-601 409.82,-588.07 396.1,-579.65"/>
<polygon fill="midnightblue" stroke="midnightblue" points="445.51,-614.08 455.86,-616.32 449.17,-608.11 445.51,-614.08"/>
</g>
<!-- Node38 -->
<g id="node38" class="node">
<title>Node38</title>
<g id="a_node38"><a xlink:href="util_8h.html" target="_top" xlink:title="Utility functions.">
<polygon fill="white" stroke="black" points="740,-560.5 740,-579.5 820,-579.5 820,-560.5 740,-560.5"/>
<text text-anchor="middle" x="780" y="-567.5" font-family="Helvetica,sans-Serif" font-size="10.00">include/util.h</text>
</a>
</g>
</g>
<!-- Node1&#45;&gt;Node38 -->
<g id="edge46" class="edge">
<title>Node1&#45;&gt;Node38</title>
<path fill="none" stroke="midnightblue" d="M520.74,-616.16C582.04,-605.48 683.9,-587.74 739.95,-577.98"/>
<polygon fill="midnightblue" stroke="midnightblue" points="519.78,-612.78 510.53,-617.94 520.98,-619.67 519.78,-612.78"/>
</g>
<!-- Node5 -->
<g id="node5" class="node">
<title>Node5</title>
<g id="a_node5"><a xlink:href="bis_8c.html" target="_top" xlink:title=" ">
<polygon fill="white" stroke="black" points="145.5,-224.5 145.5,-243.5 216.5,-243.5 216.5,-224.5 145.5,-224.5"/>
<text text-anchor="middle" x="181" y="-231.5" font-family="Helvetica,sans-Serif" font-size="10.00">src/P2/bis.c</text>
</a>
</g>
</g>
<!-- Node4&#45;&gt;Node5 -->
<g id="edge4" class="edge">
<title>Node4&#45;&gt;Node5</title>
<path fill="none" stroke="midnightblue" d="M157.3,-271.57C163.32,-262.27 170.47,-251.25 175.33,-243.75"/>
<polygon fill="midnightblue" stroke="midnightblue" points="154.28,-269.79 151.78,-280.08 160.16,-273.6 154.28,-269.79"/>
</g>
<!-- Node6 -->
<g id="node6" class="node">
<title>Node6</title>
<g id="a_node6"><a xlink:href="coin_8c.html" target="_top" xlink:title=" ">
<polygon fill="white" stroke="black" points="230.5,-56.5 230.5,-75.5 307.5,-75.5 307.5,-56.5 230.5,-56.5"/>
<text text-anchor="middle" x="269" y="-63.5" font-family="Helvetica,sans-Serif" font-size="10.00">src/P2/coin.c</text>
</a>
</g>
</g>
<!-- Node4&#45;&gt;Node6 -->
<g id="edge5" class="edge">
<title>Node4&#45;&gt;Node6</title>
<path fill="none" stroke="midnightblue" d="M181.48,-276.27C196.95,-269.04 214.03,-258.48 225,-244 265.73,-190.24 269.14,-103.41 269.14,-75.75"/>
<polygon fill="midnightblue" stroke="midnightblue" points="179.89,-273.15 172.12,-280.35 182.68,-279.56 179.89,-273.15"/>
</g>
<!-- Node4&#45;&gt;Node7 -->
<g id="edge6" class="edge">
<title>Node4&#45;&gt;Node7</title>
<path fill="none" stroke="midnightblue" d="M140.79,-270.46C134.88,-246.46 127.13,-203.48 136,-168 139.39,-154.43 147.74,-140.47 153.63,-131.77"/>
<polygon fill="midnightblue" stroke="midnightblue" points="137.46,-271.56 143.39,-280.34 144.23,-269.77 137.46,-271.56"/>
</g>
<!-- Node12 -->
<g id="node12" class="node">
<title>Node12</title>
<g id="a_node12"><a xlink:href="xform_8h.html" target="_top" xlink:title="Transform.">
<polygon fill="white" stroke="black" points="300.5,-224.5 300.5,-243.5 393.5,-243.5 393.5,-224.5 300.5,-224.5"/>
<text text-anchor="middle" x="347" y="-231.5" font-family="Helvetica,sans-Serif" font-size="10.00">include/xform.h</text>
</a>
</g>
</g>
<!-- Node4&#45;&gt;Node12 -->
<g id="edge12" class="edge">
<title>Node4&#45;&gt;Node12</title>
<path fill="none" stroke="midnightblue" d="M187.58,-277.83C225.53,-267.63 280.81,-252.78 315.3,-243.52"/>
<polygon fill="midnightblue" stroke="midnightblue" points="186.6,-274.47 177.85,-280.44 188.41,-281.23 186.6,-274.47"/>
</g>
<!-- Node7&#45;&gt;Node6 -->
<g id="edge8" class="edge">
<title>Node7&#45;&gt;Node6</title>
<path fill="none" stroke="midnightblue" d="M186.52,-107.86C206.73,-97.85 233.99,-84.35 251.53,-75.65"/>
<polygon fill="midnightblue" stroke="midnightblue" points="184.92,-104.75 177.51,-112.32 188.03,-111.02 184.92,-104.75"/>
</g>
<!-- Node8 -->
<g id="node8" class="node">
<title>Node8</title>
<g id="a_node8"><a xlink:href="chkpnt_8c.html" target="_top" xlink:title=" ">
<polygon fill="white" stroke="black" points="0,-56.5 0,-75.5 90,-75.5 90,-56.5 0,-56.5"/>
<text text-anchor="middle" x="45" y="-63.5" font-family="Helvetica,sans-Serif" font-size="10.00">src/P2/chkpnt.c</text>
</a>
</g>
</g>
<!-- Node7&#45;&gt;Node8 -->
<g id="edge7" class="edge">
<title>Node7&#45;&gt;Node8</title>
<path fill="none" stroke="midnightblue" d="M132.52,-108.1C111.03,-98.01 81.78,-84.27 63.14,-75.52"/>
<polygon fill="midnightblue" stroke="midnightblue" points="131.24,-111.36 141.78,-112.44 134.21,-105.02 131.24,-111.36"/>
</g>
<!-- Node9 -->
<g id="node9" class="node">
<title>Node9</title>
<g id="a_node9"><a xlink:href="transition_8c.html" target="_top" xlink:title=" ">
<polygon fill="white" stroke="black" points="108,-56.5 108,-75.5 212,-75.5 212,-56.5 108,-56.5"/>
<text text-anchor="middle" x="160" y="-63.5" font-family="Helvetica,sans-Serif" font-size="10.00">src/P2/transition.c</text>
</a>
</g>
</g>
<!-- Node7&#45;&gt;Node9 -->
<g id="edge9" class="edge">
<title>Node7&#45;&gt;Node9</title>
<path fill="none" stroke="midnightblue" d="M160,-101.8C160,-92.91 160,-82.78 160,-75.75"/>
<polygon fill="midnightblue" stroke="midnightblue" points="156.5,-102.08 160,-112.08 163.5,-102.08 156.5,-102.08"/>
</g>
<!-- Node10 -->
<g id="node10" class="node">
<title>Node10</title>
<g id="a_node10"><a xlink:href="difficulty_8h.html" target="_top" xlink:title="Dynamic difficulty system.">
<polygon fill="white" stroke="black" points="503.5,-56.5 503.5,-75.5 608.5,-75.5 608.5,-56.5 503.5,-56.5"/>
<text text-anchor="middle" x="556" y="-63.5" font-family="Helvetica,sans-Serif" font-size="10.00">include/difficulty.h</text>
</a>
</g>
</g>
<!-- Node7&#45;&gt;Node10 -->
<g id="edge10" class="edge">
<title>Node7&#45;&gt;Node10</title>
<path fill="none" stroke="midnightblue" d="M218.56,-113.01C295.47,-102.53 429.37,-84.27 503.26,-74.19"/>
<polygon fill="midnightblue" stroke="midnightblue" points="217.99,-109.56 208.56,-114.38 218.94,-116.5 217.99,-109.56"/>
</g>
<!-- Node11 -->
<g id="node11" class="node">
<title>Node11</title>
<g id="a_node11"><a xlink:href="difficulty_8c.html" target="_top" xlink:title=" ">
<polygon fill="white" stroke="black" points="507,-0.5 507,-19.5 605,-19.5 605,-0.5 507,-0.5"/>
<text text-anchor="middle" x="556" y="-7.5" font-family="Helvetica,sans-Serif" font-size="10.00">src/P2/difficulty.c</text>
</a>
</g>
</g>
<!-- Node10&#45;&gt;Node11 -->
<g id="edge11" class="edge">
<title>Node10&#45;&gt;Node11</title>
<path fill="none" stroke="midnightblue" d="M556,-45.8C556,-36.91 556,-26.78 556,-19.75"/>
<polygon fill="midnightblue" stroke="midnightblue" points="552.5,-46.08 556,-56.08 559.5,-46.08 552.5,-46.08"/>
</g>
<!-- Node13 -->
<g id="node13" class="node">
<title>Node13</title>
<g id="a_node13"><a xlink:href="xform1_8c.html" target="_top" xlink:title=" ">
<polygon fill="white" stroke="black" points="335,-168.5 335,-187.5 427,-187.5 427,-168.5 335,-168.5"/>
<text text-anchor="middle" x="381" y="-175.5" font-family="Helvetica,sans-Serif" font-size="10.00">src/P2/xform1.c</text>
</a>
</g>
</g>
<!-- Node12&#45;&gt;Node13 -->
<g id="edge13" class="edge">
<title>Node12&#45;&gt;Node13</title>
<path fill="none" stroke="midnightblue" d="M357.98,-215.57C363.83,-206.27 370.77,-195.25 375.49,-187.75"/>
<polygon fill="midnightblue" stroke="midnightblue" points="354.98,-213.76 352.61,-224.08 360.9,-217.49 354.98,-213.76"/>
</g>
<!-- Node14 -->
<g id="node14" class="node">
<title>Node14</title>
<g id="a_node14"><a xlink:href="xform2_8c.html" target="_top" xlink:title=" ">
<polygon fill="white" stroke="black" points="445,-168.5 445,-187.5 537,-187.5 537,-168.5 445,-168.5"/>
<text text-anchor="middle" x="491" y="-175.5" font-family="Helvetica,sans-Serif" font-size="10.00">src/P2/xform2.c</text>
</a>
</g>
</g>
<!-- Node12&#45;&gt;Node14 -->
<g id="edge14" class="edge">
<title>Node12&#45;&gt;Node14</title>
<path fill="none" stroke="midnightblue" d="M379.25,-220.91C406.32,-210.75 444.32,-196.51 468.29,-187.52"/>
<polygon fill="midnightblue" stroke="midnightblue" points="377.95,-217.66 369.82,-224.44 380.41,-224.21 377.95,-217.66"/>
</g>
<!-- Node15 -->
<g id="node15" class="node">
<title>Node15</title>
<g id="a_node15"><a xlink:href="cm_8h.html" target="_top" xlink:title="Game camera.">
<polygon fill="white" stroke="black" points="727.5,-168.5 727.5,-187.5 806.5,-187.5 806.5,-168.5 727.5,-168.5"/>
<text text-anchor="middle" x="767" y="-175.5" font-family="Helvetica,sans-Serif" font-size="10.00">include/cm.h</text>
</a>
</g>
</g>
<!-- Node12&#45;&gt;Node15 -->
<g id="edge15" class="edge">
<title>Node12&#45;&gt;Node15</title>
<path fill="none" stroke="midnightblue" d="M403.7,-225.71C490.09,-214.6 652.53,-193.72 727.38,-184.09"/>
<polygon fill="midnightblue" stroke="midnightblue" points="403.02,-222.27 393.55,-227.01 403.92,-229.21 403.02,-222.27"/>
</g>
<!-- Node19 -->
<g id="node19" class="node">
<title>Node19</title>
<g id="a_node19"><a xlink:href="coin_8h.html" target="_top" xlink:title="Coins, keys, and other collectibles.">
<polygon fill="white" stroke="black" points="281,-112.5 281,-131.5 365,-131.5 365,-112.5 281,-112.5"/>
<text text-anchor="middle" x="323" y="-119.5" font-family="Helvetica,sans-Serif" font-size="10.00">include/coin.h</text>
</a>
</g>
</g>
<!-- Node12&#45;&gt;Node19 -->
<g id="edge19" class="edge">
<title>Node12&#45;&gt;Node19</title>
<path fill="none" stroke="midnightblue" d="M336.93,-215.58C332.75,-207.47 328.34,-197.52 326,-188 321.14,-168.26 321.63,-144.14 322.35,-131.56"/>
<polygon fill="midnightblue" stroke="midnightblue" points="333.88,-217.31 341.75,-224.41 340.03,-213.96 333.88,-217.31"/>
</g>
<!-- Node20 -->
<g id="node20" class="node">
<title>Node20</title>
<g id="a_node20"><a xlink:href="vol_8h.html" target="_top" xlink:title="Volume object.">
<polygon fill="white" stroke="black" points="145.5,-168.5 145.5,-187.5 224.5,-187.5 224.5,-168.5 145.5,-168.5"/>
<text text-anchor="middle" x="185" y="-175.5" font-family="Helvetica,sans-Serif" font-size="10.00">include/vol.h</text>
</a>
</g>
</g>
<!-- Node12&#45;&gt;Node20 -->
<g id="edge21" class="edge">
<title>Node12&#45;&gt;Node20</title>
<path fill="none" stroke="midnightblue" d="M311.52,-221.17C281.01,-211 237.76,-196.59 210.55,-187.52"/>
<polygon fill="midnightblue" stroke="midnightblue" points="310.74,-224.6 321.33,-224.44 312.95,-217.96 310.74,-224.6"/>
</g>
<!-- Node16 -->
<g id="node16" class="node">
<title>Node16</title>
<g id="a_node16"><a xlink:href="cm_8c.html" target="_top" xlink:title=" ">
<polygon fill="white" stroke="black" points="641,-112.5 641,-131.5 713,-131.5 713,-112.5 641,-112.5"/>
<text text-anchor="middle" x="677" y="-119.5" font-family="Helvetica,sans-Serif" font-size="10.00">src/P2/cm.c</text>
</a>
</g>
</g>
<!-- Node15&#45;&gt;Node16 -->
<g id="edge16" class="edge">
<title>Node15&#45;&gt;Node16</title>
<path fill="none" stroke="midnightblue" d="M743.96,-163.18C727.4,-153.24 705.58,-140.15 691.42,-131.65"/>
<polygon fill="midnightblue" stroke="midnightblue" points="742.16,-166.18 752.54,-168.32 745.77,-160.18 742.16,-166.18"/>
</g>
<!-- Node17 -->
<g id="node17" class="node">
<title>Node17</title>
<g id="a_node17"><a xlink:href="flash_8h.html" target="_top" xlink:title="Flash (might be flash animation, or literal screen flashes).">
<polygon fill="white" stroke="black" points="731.5,-112.5 731.5,-131.5 818.5,-131.5 818.5,-112.5 731.5,-112.5"/>
<text text-anchor="middle" x="775" y="-119.5" font-family="Helvetica,sans-Serif" font-size="10.00">include/flash.h</text>
</a>
</g>
</g>
<!-- Node15&#45;&gt;Node17 -->
<g id="edge17" class="edge">
<title>Node15&#45;&gt;Node17</title>
<path fill="none" stroke="midnightblue" d="M769.8,-158.1C771.13,-149.14 772.65,-138.86 773.7,-131.75"/>
<polygon fill="midnightblue" stroke="midnightblue" points="766.32,-157.68 768.32,-168.08 773.25,-158.7 766.32,-157.68"/>
</g>
<!-- Node18 -->
<g id="node18" class="node">
<title>Node18</title>
<g id="a_node18"><a xlink:href="flash_8c.html" target="_top" xlink:title=" ">
<polygon fill="white" stroke="black" points="735,-56.5 735,-75.5 815,-75.5 815,-56.5 735,-56.5"/>
<text text-anchor="middle" x="775" y="-63.5" font-family="Helvetica,sans-Serif" font-size="10.00">src/P2/flash.c</text>
</a>
</g>
</g>
<!-- Node17&#45;&gt;Node18 -->
<g id="edge18" class="edge">
<title>Node17&#45;&gt;Node18</title>
<path fill="none" stroke="midnightblue" d="M775,-101.8C775,-92.91 775,-82.78 775,-75.75"/>
<polygon fill="midnightblue" stroke="midnightblue" points="771.5,-102.08 775,-112.08 778.5,-102.08 771.5,-102.08"/>
</g>
<!-- Node19&#45;&gt;Node6 -->
<g id="edge20" class="edge">
<title>Node19&#45;&gt;Node6</title>
<path fill="none" stroke="midnightblue" d="M307,-105C297.43,-95.43 285.64,-83.64 277.75,-75.75"/>
<polygon fill="midnightblue" stroke="midnightblue" points="304.54,-107.49 314.08,-112.08 309.49,-102.54 304.54,-107.49"/>
</g>
<!-- Node20&#45;&gt;Node7 -->
<g id="edge22" class="edge">
<title>Node20&#45;&gt;Node7</title>
<path fill="none" stroke="midnightblue" d="M176.66,-158.98C172.42,-149.82 167.45,-139.09 164.05,-131.75"/>
<polygon fill="midnightblue" stroke="midnightblue" points="173.49,-160.48 180.87,-168.08 179.85,-157.54 173.49,-160.48"/>
</g>
<!-- Node22 -->
<g id="node22" class="node">
<title>Node22</title>
<g id="a_node22"><a xlink:href="dmas_8h.html" target="_top" xlink:title="Direct memory access.">
<polygon fill="white" stroke="black" points="400.5,-448.5 400.5,-467.5 491.5,-467.5 491.5,-448.5 400.5,-448.5"/>
<text text-anchor="middle" x="446" y="-455.5" font-family="Helvetica,sans-Serif" font-size="10.00">include/dmas.h</text>
</a>
</g>
</g>
<!-- Node21&#45;&gt;Node22 -->
<g id="edge25" class="edge">
<title>Node21&#45;&gt;Node22</title>
<path fill="none" stroke="midnightblue" d="M404.91,-497.25C415.2,-487.67 427.97,-475.79 436.51,-467.83"/>
<polygon fill="midnightblue" stroke="midnightblue" points="402.25,-494.95 397.32,-504.32 407.02,-500.07 402.25,-494.95"/>
</g>
<!-- Node24 -->
<g id="node24" class="node">
<title>Node24</title>
<g id="a_node24"><a xlink:href="screen_8h.html" target="_top" xlink:title="GUI elements.">
<polygon fill="white" stroke="black" points="286,-448.5 286,-467.5 382,-467.5 382,-448.5 286,-448.5"/>
<text text-anchor="middle" x="334" y="-455.5" font-family="Helvetica,sans-Serif" font-size="10.00">include/screen.h</text>
</a>
</g>
</g>
<!-- Node21&#45;&gt;Node24 -->
<g id="edge27" class="edge">
<title>Node21&#45;&gt;Node24</title>
<path fill="none" stroke="midnightblue" d="M372,-497C362.43,-487.43 350.64,-475.64 342.75,-467.75"/>
<polygon fill="midnightblue" stroke="midnightblue" points="369.54,-499.49 379.08,-504.08 374.49,-494.54 369.54,-499.49"/>
</g>
<!-- Node23 -->
<g id="node23" class="node">
<title>Node23</title>
<g id="a_node23"><a xlink:href="dmas_8c.html" target="_top" xlink:title=" ">
<polygon fill="white" stroke="black" points="630,-392.5 630,-411.5 714,-411.5 714,-392.5 630,-392.5"/>
<text text-anchor="middle" x="672" y="-399.5" font-family="Helvetica,sans-Serif" font-size="10.00">src/P2/dmas.c</text>
</a>
</g>
</g>
<!-- Node22&#45;&gt;Node23 -->
<g id="edge26" class="edge">
<title>Node22&#45;&gt;Node23</title>
<path fill="none" stroke="midnightblue" d="M491.67,-446.09C534.36,-435.89 597.25,-420.86 636.36,-411.52"/>
<polygon fill="midnightblue" stroke="midnightblue" points="490.72,-442.72 481.81,-448.44 492.35,-449.52 490.72,-442.72"/>
</g>
<!-- Node25 -->
<g id="node25" class="node">
<title>Node25</title>
<g id="a_node25"><a xlink:href="screen_8c.html" target="_top" xlink:title=" ">
<polygon fill="white" stroke="black" points="288.5,-392.5 288.5,-411.5 377.5,-411.5 377.5,-392.5 288.5,-392.5"/>
<text text-anchor="middle" x="333" y="-399.5" font-family="Helvetica,sans-Serif" font-size="10.00">src/P2/screen.c</text>
</a>
</g>
</g>
<!-- Node24&#45;&gt;Node25 -->
<g id="edge28" class="edge">
<title>Node24&#45;&gt;Node25</title>
<path fill="none" stroke="midnightblue" d="M333.64,-437.8C333.48,-428.91 333.29,-418.78 333.16,-411.75"/>
<polygon fill="midnightblue" stroke="midnightblue" points="330.15,-438.15 333.83,-448.08 337.15,-438.02 330.15,-438.15"/>
</g>
<!-- Node26 -->
<g id="node26" class="node">
<title>Node26</title>
<g id="a_node26"><a xlink:href="steppower_8c.html" target="_top" xlink:title=" ">
<polygon fill="white" stroke="black" points="504.5,-392.5 504.5,-411.5 611.5,-411.5 611.5,-392.5 504.5,-392.5"/>
<text text-anchor="middle" x="558" y="-399.5" font-family="Helvetica,sans-Serif" font-size="10.00">src/P2/steppower.c</text>
</a>
</g>
</g>
<!-- Node24&#45;&gt;Node26 -->
<g id="edge29" class="edge">
<title>Node24&#45;&gt;Node26</title>
<path fill="none" stroke="midnightblue" d="M379.26,-446.09C421.58,-435.89 483.91,-420.86 522.67,-411.52"/>
<polygon fill="midnightblue" stroke="midnightblue" points="378.39,-442.7 369.49,-448.44 380.04,-449.5 378.39,-442.7"/>
</g>
<!-- Node27 -->
<g id="node27" class="node">
<title>Node27</title>
<g id="a_node27"><a xlink:href="binoc_8h.html" target="_top" xlink:title="Binoc&#45;u&#45;com.">
<polygon fill="white" stroke="black" points="396,-392.5 396,-411.5 486,-411.5 486,-392.5 396,-392.5"/>
<text text-anchor="middle" x="441" y="-399.5" font-family="Helvetica,sans-Serif" font-size="10.00">include/binoc.h</text>
</a>
</g>
</g>
<!-- Node24&#45;&gt;Node27 -->
<g id="edge30" class="edge">
<title>Node24&#45;&gt;Node27</title>
<path fill="none" stroke="midnightblue" d="M360.3,-443.73C380.11,-433.73 406.71,-420.31 423.85,-411.65"/>
<polygon fill="midnightblue" stroke="midnightblue" points="358.54,-440.69 351.19,-448.32 361.7,-446.94 358.54,-440.69"/>
</g>
<!-- Node31 -->
<g id="node31" class="node">
<title>Node31</title>
<g id="a_node31"><a xlink:href="ui_8h.html" target="_top" xlink:title="User interface.">
<polygon fill="white" stroke="black" points="197.5,-392.5 197.5,-411.5 270.5,-411.5 270.5,-392.5 197.5,-392.5"/>
<text text-anchor="middle" x="234" y="-399.5" font-family="Helvetica,sans-Serif" font-size="10.00">include/ui.h</text>
</a>
</g>
</g>
<!-- Node24&#45;&gt;Node31 -->
<g id="edge37" class="edge">
<title>Node24&#45;&gt;Node31</title>
<path fill="none" stroke="midnightblue" d="M308.91,-443.45C290.45,-433.48 265.9,-420.23 250.03,-411.65"/>
<polygon fill="midnightblue" stroke="midnightblue" points="307.47,-446.65 317.93,-448.32 310.8,-440.49 307.47,-446.65"/>
</g>
<!-- Node27&#45;&gt;Node15 -->
<g id="edge33" class="edge">
<title>Node27&#45;&gt;Node15</title>
<path fill="none" stroke="midnightblue" d="M496.25,-390.9C552.04,-380.36 631.72,-364.23 644,-356 710.82,-311.18 752.16,-216.8 763.69,-187.72"/>
<polygon fill="midnightblue" stroke="midnightblue" points="495.31,-387.51 486.13,-392.8 496.6,-394.39 495.31,-387.51"/>
</g>
<!-- Node27&#45;&gt;Node16 -->
<g id="edge32" class="edge">
<title>Node27&#45;&gt;Node16</title>
<path fill="none" stroke="midnightblue" d="M475.32,-388.87C529.8,-368.56 630,-326.38 630,-291 630,-291 630,-291 630,-233 630,-192.3 657.55,-149.44 670.46,-131.59"/>
<polygon fill="midnightblue" stroke="midnightblue" points="473.89,-385.67 465.71,-392.41 476.3,-392.24 473.89,-385.67"/>
</g>
<!-- Node28 -->
<g id="node28" class="node">
<title>Node28</title>
<g id="a_node28"><a xlink:href="binoc_8c.html" target="_top" xlink:title=" ">
<polygon fill="white" stroke="black" points="296.5,-336.5 296.5,-355.5 379.5,-355.5 379.5,-336.5 296.5,-336.5"/>
<text text-anchor="middle" x="338" y="-343.5" font-family="Helvetica,sans-Serif" font-size="10.00">src/P2/binoc.c</text>
</a>
</g>
</g>
<!-- Node27&#45;&gt;Node28 -->
<g id="edge31" class="edge">
<title>Node27&#45;&gt;Node28</title>
<path fill="none" stroke="midnightblue" d="M415.42,-387.59C396.38,-377.61 370.94,-364.27 354.51,-355.65"/>
<polygon fill="midnightblue" stroke="midnightblue" points="413.97,-390.78 424.45,-392.32 417.22,-384.58 413.97,-390.78"/>
</g>
<!-- Node29 -->
<g id="node29" class="node">
<title>Node29</title>
<g id="a_node29"><a xlink:href="prog_8h.html" target="_top" xlink:title=" ">
<polygon fill="white" stroke="black" points="398,-336.5 398,-355.5 484,-355.5 484,-336.5 398,-336.5"/>
<text text-anchor="middle" x="441" y="-343.5" font-family="Helvetica,sans-Serif" font-size="10.00">include/prog.h</text>
</a>
</g>
</g>
<!-- Node27&#45;&gt;Node29 -->
<g id="edge34" class="edge">
<title>Node27&#45;&gt;Node29</title>
<path fill="none" stroke="midnightblue" d="M441,-381.8C441,-372.91 441,-362.78 441,-355.75"/>
<polygon fill="midnightblue" stroke="midnightblue" points="437.5,-382.08 441,-392.08 444.5,-382.08 437.5,-382.08"/>
</g>
<!-- Node29&#45;&gt;Node4 -->
<g id="edge36" class="edge">
<title>Node29&#45;&gt;Node4</title>
<path fill="none" stroke="midnightblue" d="M387.66,-335.24C329.28,-324.55 237.1,-307.68 185.08,-298.15"/>
<polygon fill="midnightblue" stroke="midnightblue" points="387.32,-338.73 397.79,-337.09 388.58,-331.85 387.32,-338.73"/>
</g>
<!-- Node30 -->
<g id="node30" class="node">
<title>Node30</title>
<g id="a_node30"><a xlink:href="prog_8c.html" target="_top" xlink:title=" ">
<polygon fill="white" stroke="black" points="401.5,-280.5 401.5,-299.5 480.5,-299.5 480.5,-280.5 401.5,-280.5"/>
<text text-anchor="middle" x="441" y="-287.5" font-family="Helvetica,sans-Serif" font-size="10.00">src/P2/prog.c</text>
</a>
</g>
</g>
<!-- Node29&#45;&gt;Node30 -->
<g id="edge35" class="edge">
<title>Node29&#45;&gt;Node30</title>
<path fill="none" stroke="midnightblue" d="M441,-325.8C441,-316.91 441,-306.78 441,-299.75"/>
<polygon fill="midnightblue" stroke="midnightblue" points="437.5,-326.08 441,-336.08 444.5,-326.08 437.5,-326.08"/>
</g>
<!-- Node32 -->
<g id="node32" class="node">
<title>Node32</title>
<g id="a_node32"><a xlink:href="ui_8c.html" target="_top" xlink:title=" ">
<polygon fill="white" stroke="black" points="201,-336.5 201,-355.5 267,-355.5 267,-336.5 201,-336.5"/>
<text text-anchor="middle" x="234" y="-343.5" font-family="Helvetica,sans-Serif" font-size="10.00">src/P2/ui.c</text>
</a>
</g>
</g>
<!-- Node31&#45;&gt;Node32 -->
<g id="edge38" class="edge">
<title>Node31&#45;&gt;Node32</title>
<path fill="none" stroke="midnightblue" d="M234,-381.8C234,-372.91 234,-362.78 234,-355.75"/>
<polygon fill="midnightblue" stroke="midnightblue" points="230.5,-382.08 234,-392.08 237.5,-382.08 230.5,-382.08"/>
</g>
<!-- Node34 -->
<g id="node34" class="node">
<title>Node34</title>
<g id="a_node34"><a xlink:href="ref_8cpp.html" target="_top" xlink:title=" ">
<polygon fill="white" stroke="black" points="1184.5,-448.5 1184.5,-467.5 1297.5,-467.5 1297.5,-448.5 1184.5,-448.5"/>
<text text-anchor="middle" x="1241" y="-455.5" font-family="Helvetica,sans-Serif" font-size="10.00">src/P2/splice/ref.cpp</text>
</a>
</g>
</g>
<!-- Node33&#45;&gt;Node34 -->
<g id="edge40" class="edge">
<title>Node33&#45;&gt;Node34</title>
<path fill="none" stroke="midnightblue" d="M1241,-493.8C1241,-484.91 1241,-474.78 1241,-467.75"/>
<polygon fill="midnightblue" stroke="midnightblue" points="1237.5,-494.08 1241,-504.08 1244.5,-494.08 1237.5,-494.08"/>
</g>
<!-- Node35 -->
<g id="node35" class="node">
<title>Node35</title>
<g id="a_node35"><a xlink:href="spliceutils_8cpp.html" target="_top" xlink:title=" ">
<polygon fill="white" stroke="black" points="1297,-392.5 1297,-411.5 1447,-411.5 1447,-392.5 1297,-392.5"/>
<text text-anchor="middle" x="1372" y="-399.5" font-family="Helvetica,sans-Serif" font-size="10.00">src/P2/splice/spliceutils.cpp</text>
</a>
</g>
</g>
<!-- Node33&#45;&gt;Node35 -->
<g id="edge41" class="edge">
<title>Node33&#45;&gt;Node35</title>
<path fill="none" stroke="midnightblue" d="M1317.19,-507.51C1373.32,-501.69 1442.92,-490.15 1461,-468 1481.57,-442.8 1435.57,-422.41 1402.35,-411.55"/>
<polygon fill="midnightblue" stroke="midnightblue" points="1316.84,-504.03 1307.23,-508.5 1317.53,-510.99 1316.84,-504.03"/>
</g>
<!-- Node36 -->
<g id="node36" class="node">
<title>Node36</title>
<g id="a_node36"><a xlink:href="vecmat_8cpp.html" target="_top" xlink:title=" ">
<polygon fill="white" stroke="black" points="1315.5,-448.5 1315.5,-467.5 1452.5,-467.5 1452.5,-448.5 1315.5,-448.5"/>
<text text-anchor="middle" x="1384" y="-455.5" font-family="Helvetica,sans-Serif" font-size="10.00">src/P2/splice/vecmat.cpp</text>
</a>
</g>
</g>
<!-- Node33&#45;&gt;Node36 -->
<g id="edge42" class="edge">
<title>Node33&#45;&gt;Node36</title>
<path fill="none" stroke="midnightblue" d="M1273.03,-500.91C1299.91,-490.75 1337.64,-476.51 1361.45,-467.52"/>
<polygon fill="midnightblue" stroke="midnightblue" points="1271.78,-497.64 1263.66,-504.44 1274.25,-504.19 1271.78,-497.64"/>
</g>
<!-- Node37&#45;&gt;Node12 -->
<g id="edge45" class="edge">
<title>Node37&#45;&gt;Node12</title>
<path fill="none" stroke="midnightblue" d="M353.08,-555.97C307.96,-533.83 222.42,-484.13 188,-412 181.29,-397.93 179.12,-357.87 192,-336 221.1,-286.6 284.97,-256.99 320.98,-243.58"/>
<polygon fill="midnightblue" stroke="midnightblue" points="351.8,-559.24 362.33,-560.4 354.82,-552.92 351.8,-559.24"/>
</g>
<!-- Node37&#45;&gt;Node21 -->
<g id="edge44" class="edge">
<title>Node37&#45;&gt;Node21</title>
<path fill="none" stroke="midnightblue" d="M384.1,-550.1C385.1,-541.14 386.24,-530.86 387.03,-523.75"/>
<polygon fill="midnightblue" stroke="midnightblue" points="380.62,-549.76 382.99,-560.08 387.57,-550.53 380.62,-549.76"/>
</g>
<!-- Node38&#45;&gt;Node2 -->
<g id="edge48" class="edge">
<title>Node38&#45;&gt;Node2</title>
<path fill="none" stroke="midnightblue" d="M729.52,-559.9C679.96,-550.93 602.24,-536.75 535,-524 531.96,-523.42 528.81,-522.82 525.65,-522.21"/>
<polygon fill="midnightblue" stroke="midnightblue" points="729.19,-563.4 739.65,-561.74 730.44,-556.51 729.19,-563.4"/>
</g>
<!-- Node38&#45;&gt;Node3 -->
<g id="edge49" class="edge">
<title>Node38&#45;&gt;Node3</title>
<path fill="none" stroke="midnightblue" d="M738.35,-557.7C700.79,-547.51 646.39,-532.74 612.38,-523.52"/>
<polygon fill="midnightblue" stroke="midnightblue" points="737.9,-561.2 748.47,-560.44 739.73,-554.45 737.9,-561.2"/>
</g>
<!-- Node38&#45;&gt;Node10 -->
<g id="edge51" class="edge">
<title>Node38&#45;&gt;Node10</title>
<path fill="none" stroke="midnightblue" d="M809.67,-556.07C843.45,-539.11 894,-505.89 894,-459 894,-459 894,-459 894,-177 894,-135.51 864.04,-130.69 827,-112 757.07,-76.7 665.31,-68.18 608.53,-66.6"/>
<polygon fill="midnightblue" stroke="midnightblue" points="808.13,-552.93 800.64,-560.42 811.17,-559.23 808.13,-552.93"/>
</g>
<!-- Node38&#45;&gt;Node12 -->
<g id="edge65" class="edge">
<title>Node38&#45;&gt;Node12</title>
<path fill="none" stroke="midnightblue" d="M774.27,-550.55C760.35,-505.84 725.71,-395.1 723,-392 635.39,-291.71 473.31,-254.02 393.66,-241.09"/>
<polygon fill="midnightblue" stroke="midnightblue" points="770.95,-551.66 777.26,-560.17 777.63,-549.58 770.95,-551.66"/>
</g>
<!-- Node38&#45;&gt;Node15 -->
<g id="edge50" class="edge">
<title>Node38&#45;&gt;Node15</title>
<path fill="none" stroke="midnightblue" d="M799.52,-553.85C822.04,-534.5 856,-498.72 856,-459 856,-459 856,-459 856,-289 856,-242.08 806.46,-203.94 781.3,-187.6"/>
<polygon fill="midnightblue" stroke="midnightblue" points="797.02,-551.37 791.54,-560.43 801.48,-556.76 797.02,-551.37"/>
</g>
<!-- Node38&#45;&gt;Node16 -->
<g id="edge47" class="edge">
<title>Node38&#45;&gt;Node16</title>
<path fill="none" stroke="midnightblue" d="M777.43,-550.35C774.02,-526.5 767.56,-483.99 760,-448 746.39,-383.17 691.42,-176.9 679.35,-131.78"/>
<polygon fill="midnightblue" stroke="midnightblue" points="773.99,-551.03 778.84,-560.44 780.92,-550.05 773.99,-551.03"/>
</g>
<!-- Node38&#45;&gt;Node33 -->
<g id="edge64" class="edge">
<title>Node38&#45;&gt;Node33</title>
<path fill="none" stroke="midnightblue" d="M830.11,-563.13C913.63,-553.35 1081.35,-533.7 1174.61,-522.78"/>
<polygon fill="midnightblue" stroke="midnightblue" points="829.63,-559.66 820.1,-564.3 830.44,-566.62 829.63,-559.66"/>
</g>
<!-- Node39 -->
<g id="node39" class="node">
<title>Node39</title>
<g id="a_node39"><a xlink:href="joy_8h.html" target="_top" xlink:title="Joypad manager.">
<polygon fill="white" stroke="black" points="636.5,-504.5 636.5,-523.5 713.5,-523.5 713.5,-504.5 636.5,-504.5"/>
<text text-anchor="middle" x="675" y="-511.5" font-family="Helvetica,sans-Serif" font-size="10.00">include/joy.h</text>
</a>
</g>
</g>
<!-- Node38&#45;&gt;Node39 -->
<g id="edge52" class="edge">
<title>Node38&#45;&gt;Node39</title>
<path fill="none" stroke="midnightblue" d="M754.19,-555.73C734.75,-545.73 708.65,-532.31 691.83,-523.65"/>
<polygon fill="midnightblue" stroke="midnightblue" points="752.64,-558.86 763.13,-560.32 755.84,-552.64 752.64,-558.86"/>
</g>
<!-- Node42 -->
<g id="node42" class="node">
<title>Node42</title>
<g id="a_node42"><a xlink:href="sound_8h.html" target="_top" xlink:title="Sound playback.">
<polygon fill="white" stroke="black" points="734.5,-280.5 734.5,-299.5 827.5,-299.5 827.5,-280.5 734.5,-280.5"/>
<text text-anchor="middle" x="781" y="-287.5" font-family="Helvetica,sans-Serif" font-size="10.00">include/sound.h</text>
</a>
</g>
</g>
<!-- Node38&#45;&gt;Node42 -->
<g id="edge56" class="edge">
<title>Node38&#45;&gt;Node42</title>
<path fill="none" stroke="midnightblue" d="M790.14,-551.43C801.4,-530.24 818,-493.19 818,-459 818,-459 818,-459 818,-401 818,-361.31 796.09,-317.56 785.99,-299.51"/>
<polygon fill="midnightblue" stroke="midnightblue" points="787.05,-549.78 785.28,-560.23 793.18,-553.17 787.05,-549.78"/>
</g>
<!-- Node43 -->
<g id="node43" class="node">
<title>Node43</title>
<g id="a_node43"><a xlink:href="ref_8h.html" target="_top" xlink:title=" ">
<polygon fill="white" stroke="black" points="987,-504.5 987,-523.5 1095,-523.5 1095,-504.5 987,-504.5"/>
<text text-anchor="middle" x="1041" y="-511.5" font-family="Helvetica,sans-Serif" font-size="10.00">include/splice/ref.h</text>
</a>
</g>
</g>
<!-- Node38&#45;&gt;Node43 -->
<g id="edge58" class="edge">
<title>Node38&#45;&gt;Node43</title>
<path fill="none" stroke="midnightblue" d="M830.03,-558.65C879.37,-548.44 953.89,-533.02 999.88,-523.51"/>
<polygon fill="midnightblue" stroke="midnightblue" points="829.29,-555.23 820.21,-560.68 830.71,-562.08 829.29,-555.23"/>
</g>
<!-- Node40 -->
<g id="node40" class="node">
<title>Node40</title>
<g id="a_node40"><a xlink:href="joy_8c.html" target="_top" xlink:title=" ">
<polygon fill="white" stroke="black" points="642.5,-448.5 642.5,-467.5 713.5,-467.5 713.5,-448.5 642.5,-448.5"/>
<text text-anchor="middle" x="678" y="-455.5" font-family="Helvetica,sans-Serif" font-size="10.00">src/P2/joy.c</text>
</a>
</g>
</g>
<!-- Node39&#45;&gt;Node40 -->
<g id="edge53" class="edge">
<title>Node39&#45;&gt;Node40</title>
<path fill="none" stroke="midnightblue" d="M676.07,-493.8C676.56,-484.91 677.12,-474.78 677.51,-467.75"/>
<polygon fill="midnightblue" stroke="midnightblue" points="672.56,-493.9 675.5,-504.08 679.54,-494.29 672.56,-493.9"/>
</g>
<!-- Node41 -->
<g id="node41" class="node">
<title>Node41</title>
<g id="a_node41"><a xlink:href="steppower_8h.html" target="_top" xlink:title=" ">
<polygon fill="white" stroke="black" points="510,-448.5 510,-467.5 624,-467.5 624,-448.5 510,-448.5"/>
<text text-anchor="middle" x="567" y="-455.5" font-family="Helvetica,sans-Serif" font-size="10.00">include/steppower.h</text>
</a>
</g>
</g>
<!-- Node39&#45;&gt;Node41 -->
<g id="edge54" class="edge">
<title>Node39&#45;&gt;Node41</title>
<path fill="none" stroke="midnightblue" d="M648.45,-499.73C628.45,-489.73 601.61,-476.31 584.31,-467.65"/>
<polygon fill="midnightblue" stroke="midnightblue" points="647.14,-502.98 657.65,-504.32 650.27,-496.72 647.14,-502.98"/>
</g>
<!-- Node41&#45;&gt;Node26 -->
<g id="edge55" class="edge">
<title>Node41&#45;&gt;Node26</title>
<path fill="none" stroke="midnightblue" d="M563.85,-438.1C562.36,-429.14 560.64,-418.86 559.46,-411.75"/>
<polygon fill="midnightblue" stroke="midnightblue" points="560.42,-438.79 565.51,-448.08 567.32,-437.64 560.42,-438.79"/>
</g>
<!-- Node42&#45;&gt;Node15 -->
<g id="edge57" class="edge">
<title>Node42&#45;&gt;Node15</title>
<path fill="none" stroke="midnightblue" d="M778.63,-270.35C775.56,-246.25 770.35,-205.31 768.09,-187.59"/>
<polygon fill="midnightblue" stroke="midnightblue" points="775.17,-270.89 779.9,-280.37 782.11,-270.01 775.17,-270.89"/>
</g>
<!-- Node43&#45;&gt;Node34 -->
<g id="edge60" class="edge">
<title>Node43&#45;&gt;Node34</title>
<path fill="none" stroke="midnightblue" d="M1082.37,-501.83C1120.14,-491.63 1175.14,-476.78 1209.46,-467.52"/>
<polygon fill="midnightblue" stroke="midnightblue" points="1081.43,-498.46 1072.69,-504.44 1083.26,-505.22 1081.43,-498.46"/>
</g>
<!-- Node44 -->
<g id="node44" class="node">
<title>Node44</title>
<g id="a_node44"><a xlink:href="bif_8cpp.html" target="_top" xlink:title=" ">
<polygon fill="white" stroke="black" points="922.5,-448.5 922.5,-467.5 1035.5,-467.5 1035.5,-448.5 922.5,-448.5"/>
<text text-anchor="middle" x="979" y="-455.5" font-family="Helvetica,sans-Serif" font-size="10.00">src/P2/splice/bif.cpp</text>
</a>
</g>
</g>
<!-- Node43&#45;&gt;Node44 -->
<g id="edge59" class="edge">
<title>Node43&#45;&gt;Node44</title>
<path fill="none" stroke="midnightblue" d="M1023.25,-497.54C1012.19,-487.91 998.37,-475.87 989.14,-467.83"/>
<polygon fill="midnightblue" stroke="midnightblue" points="1021.2,-500.4 1031.04,-504.32 1025.8,-495.12 1021.2,-500.4"/>
</g>
<!-- Node45 -->
<g id="node45" class="node">
<title>Node45</title>
<g id="a_node45"><a xlink:href="pair_8h.html" target="_top" xlink:title=" ">
<polygon fill="white" stroke="black" points="1053.5,-448.5 1053.5,-467.5 1166.5,-467.5 1166.5,-448.5 1053.5,-448.5"/>
<text text-anchor="middle" x="1110" y="-455.5" font-family="Helvetica,sans-Serif" font-size="10.00">include/splice/pair.h</text>
</a>
</g>
</g>
<!-- Node43&#45;&gt;Node45 -->
<g id="edge61" class="edge">
<title>Node43&#45;&gt;Node45</title>
<path fill="none" stroke="midnightblue" d="M1060.04,-498.1C1072.46,-488.38 1088.24,-476.03 1098.71,-467.83"/>
<polygon fill="midnightblue" stroke="midnightblue" points="1057.8,-495.4 1052.09,-504.32 1062.12,-500.92 1057.8,-495.4"/>
</g>
<!-- Node45&#45;&gt;Node35 -->
<g id="edge63" class="edge">
<title>Node45&#45;&gt;Node35</title>
<path fill="none" stroke="midnightblue" d="M1161.38,-446.41C1210.9,-436.2 1284.86,-420.96 1330.68,-411.52"/>
<polygon fill="midnightblue" stroke="midnightblue" points="1160.6,-443 1151.51,-448.44 1162.02,-449.85 1160.6,-443"/>
</g>
<!-- Node46 -->
<g id="node46" class="node">
<title>Node46</title>
<g id="a_node46"><a xlink:href="pair_8cpp.html" target="_top" xlink:title=" ">
<polygon fill="white" stroke="black" points="1050.5,-392.5 1050.5,-411.5 1169.5,-411.5 1169.5,-392.5 1050.5,-392.5"/>
<text text-anchor="middle" x="1110" y="-399.5" font-family="Helvetica,sans-Serif" font-size="10.00">src/P2/splice/pair.cpp</text>
</a>
</g>
</g>
<!-- Node45&#45;&gt;Node46 -->
<g id="edge62" class="edge">
<title>Node45&#45;&gt;Node46</title>
<path fill="none" stroke="midnightblue" d="M1110,-437.8C1110,-428.91 1110,-418.78 1110,-411.75"/>
<polygon fill="midnightblue" stroke="midnightblue" points="1106.5,-438.08 1110,-448.08 1113.5,-438.08 1106.5,-438.08"/>
</g>
</g>
</svg>
