<?xml version="1.0" encoding="UTF-8" standalone="no"?>
<!DOCTYPE svg PUBLIC "-//W3C//DTD SVG 1.1//EN"
 "http://www.w3.org/Graphics/SVG/1.1/DTD/svg11.dtd">
<!-- Generated by graphviz version 2.43.0 (0)
 -->
<!-- Title: include/vec.h Pages: 1 -->
<!--zoomable 644 -->
<svg id="main" version="1.1" xmlns="http://www.w3.org/2000/svg" xmlns:xlink="http://www.w3.org/1999/xlink" xml:space="preserve" onload="init(evt)">
<style type="text/css"><![CDATA[
.edge:hover path { stroke: red; }
.edge:hover polygon { stroke: red; fill: red; }
]]></style>
<script type="text/javascript"><![CDATA[
var edges = document.getElementsByTagName('g');
if (edges && edges.length) {
  for (var i=0;i<edges.length;i++) {
    if (edges[i].id.substr(0,4)=='edge') {
      edges[i].setAttribute('class','edge');
    }
  }
}
]]></script>
        <defs>
                <circle id="rim" cx="0" cy="0" r="7"/>
                <circle id="rim2" cx="0" cy="0" r="3.5"/>
                <g id="zoomPlus">
                        <use xlink:href="#rim" fill="#404040">
                                <set attributeName="fill" to="#808080" begin="zoomplus.mouseover" end="zoomplus.mouseout"/>
                        </use>
                        <path d="M-4,0h8M0,-4v8" fill="none" stroke="white" stroke-width="1.5" pointer-events="none"/>
                </g>
                <g id="zoomMin">
                        <use xlink:href="#rim" fill="#404040">
                                <set attributeName="fill" to="#808080" begin="zoomminus.mouseover" end="zoomminus.mouseout"/>
                        </use>
                        <path d="M-4,0h8" fill="none" stroke="white" stroke-width="1.5" pointer-events="none"/>
                </g>
                <g id="dirArrow">
                        <path fill="none" stroke="white" stroke-width="1.5" d="M0,-3.0v7 M-2.5,-0.5L0,-3.0L2.5,-0.5"/>
                </g>
               <g id="resetDef">
                       <use xlink:href="#rim2" fill="#404040">
                               <set attributeName="fill" to="#808080" begin="reset.mouseover" end="reset.mouseout"/>
                       </use>
               </g>
        </defs>

<script type="text/javascript">
var viewWidth = 1239;
var viewHeight = 644;
var sectionId = 'dynsection-1';
</script>
<script xlink:href="svgpan.js"/>
<svg id="graph" class="graph">
<g id="viewport">
<title>include/vec.h</title>
<polygon fill="white" stroke="transparent" points="-4,4 -4,-640 1234.5,-640 1234.5,4 -4,4"/>
<!-- Node1 -->
<g id="node1" class="node">
<title>Node1</title>
<g id="a_node1"><a xlink:title="Vector math functions.">
<polygon fill="#bfbfbf" stroke="black" points="408.5,-616.5 408.5,-635.5 489.5,-635.5 489.5,-616.5 408.5,-616.5"/>
<text text-anchor="middle" x="449" y="-623.5" font-family="Helvetica,sans-Serif" font-size="10.00">include/vec.h</text>
</a>
</g>
</g>
<!-- Node2 -->
<g id="node2" class="node">
<title>Node2</title>
<g id="a_node2"><a xlink:href="util_8c.html" target="_top" xlink:title=" ">
<polygon fill="white" stroke="black" points="485.5,-224.5 485.5,-243.5 558.5,-243.5 558.5,-224.5 485.5,-224.5"/>
<text text-anchor="middle" x="522" y="-231.5" font-family="Helvetica,sans-Serif" font-size="10.00">src/P2/util.c</text>
</a>
</g>
</g>
<!-- Node1&#45;&gt;Node2 -->
<g id="edge1" class="edge">
<title>Node1&#45;&gt;Node2</title>
<path fill="none" stroke="midnightblue" d="M484.04,-612.75C522.54,-596.79 579,-564.88 579,-515 579,-515 579,-515 579,-345 579,-303.06 545.93,-261.19 530.17,-243.62"/>
<polygon fill="midnightblue" stroke="midnightblue" points="482.69,-609.52 474.68,-616.47 485.27,-616.03 482.69,-609.52"/>
</g>
<!-- Node3 -->
<g id="node3" class="node">
<title>Node3</title>
<g id="a_node3"><a xlink:href="vec_8c.html" target="_top" xlink:title=" ">
<polygon fill="white" stroke="black" points="577,-224.5 577,-243.5 651,-243.5 651,-224.5 577,-224.5"/>
<text text-anchor="middle" x="614" y="-231.5" font-family="Helvetica,sans-Serif" font-size="10.00">src/P2/vec.c</text>
</a>
</g>
</g>
<!-- Node1&#45;&gt;Node3 -->
<g id="edge2" class="edge">
<title>Node1&#45;&gt;Node3</title>
<path fill="none" stroke="midnightblue" d="M499.6,-614.44C549.07,-600.81 617,-571.75 617,-515 617,-515 617,-515 617,-345 617,-307.17 615.21,-262.06 614.39,-243.56"/>
<polygon fill="midnightblue" stroke="midnightblue" points="498.45,-611.12 489.67,-617.04 500.23,-617.89 498.45,-611.12"/>
</g>
<!-- Node4 -->
<g id="node4" class="node">
<title>Node4</title>
<g id="a_node4"><a xlink:href="bis_8h.html" target="_top" xlink:title="Binary Input Stream.">
<polygon fill="white" stroke="black" points="69,-280.5 69,-299.5 147,-299.5 147,-280.5 69,-280.5"/>
<text text-anchor="middle" x="108" y="-287.5" font-family="Helvetica,sans-Serif" font-size="10.00">include/bis.h</text>
</a>
</g>
</g>
<!-- Node1&#45;&gt;Node4 -->
<g id="edge3" class="edge">
<title>Node1&#45;&gt;Node4</title>
<path fill="none" stroke="midnightblue" d="M398.2,-618.58C306.56,-605.58 123,-572.37 123,-515 123,-515 123,-515 123,-401 123,-362.84 114.03,-317.91 109.96,-299.5"/>
<polygon fill="midnightblue" stroke="midnightblue" points="397.98,-622.09 408.37,-620 398.95,-615.15 397.98,-622.09"/>
</g>
<!-- Node7 -->
<g id="node7" class="node">
<title>Node7</title>
<g id="a_node7"><a xlink:href="chkpnt_8h.html" target="_top" xlink:title="Checkpoint system.">
<polygon fill="white" stroke="black" points="131.5,-112.5 131.5,-131.5 228.5,-131.5 228.5,-112.5 131.5,-112.5"/>
<text text-anchor="middle" x="180" y="-119.5" font-family="Helvetica,sans-Serif" font-size="10.00">include/chkpnt.h</text>
</a>
</g>
</g>
<!-- Node1&#45;&gt;Node7 -->
<g id="edge22" class="edge">
<title>Node1&#45;&gt;Node7</title>
<path fill="none" stroke="midnightblue" d="M398.18,-623.23C280.64,-617.77 0,-596.22 0,-515 0,-515 0,-515 0,-289 0,-204.62 108.22,-151.29 156.84,-131.59"/>
<polygon fill="midnightblue" stroke="midnightblue" points="398.22,-626.74 408.36,-623.69 398.53,-619.75 398.22,-626.74"/>
</g>
<!-- Node20 -->
<g id="node20" class="node">
<title>Node20</title>
<g id="a_node20"><a xlink:href="shd_8h.html" target="_top" xlink:title="Shaders.">
<polygon fill="white" stroke="black" points="374.5,-504.5 374.5,-523.5 455.5,-523.5 455.5,-504.5 374.5,-504.5"/>
<text text-anchor="middle" x="415" y="-511.5" font-family="Helvetica,sans-Serif" font-size="10.00">include/shd.h</text>
</a>
</g>
</g>
<!-- Node1&#45;&gt;Node20 -->
<g id="edge23" class="edge">
<title>Node1&#45;&gt;Node20</title>
<path fill="none" stroke="midnightblue" d="M443.78,-606.47C440.06,-593.44 434.88,-575.6 430,-560 426.02,-547.27 421.07,-532.63 417.97,-523.6"/>
<polygon fill="midnightblue" stroke="midnightblue" points="440.43,-607.47 446.52,-616.14 447.16,-605.56 440.43,-607.47"/>
</g>
<!-- Node30 -->
<g id="node30" class="node">
<title>Node30</title>
<g id="a_node30"><a xlink:href="surf_8h.html" target="_top" xlink:title="Surface?">
<polygon fill="white" stroke="black" points="339,-560.5 339,-579.5 421,-579.5 421,-560.5 339,-560.5"/>
<text text-anchor="middle" x="380" y="-567.5" font-family="Helvetica,sans-Serif" font-size="10.00">include/surf.h</text>
</a>
</g>
</g>
<!-- Node1&#45;&gt;Node30 -->
<g id="edge36" class="edge">
<title>Node1&#45;&gt;Node30</title>
<path fill="none" stroke="midnightblue" d="M429.96,-610.1C417.54,-600.38 401.76,-588.03 391.29,-579.83"/>
<polygon fill="midnightblue" stroke="midnightblue" points="427.88,-612.92 437.91,-616.32 432.2,-607.4 427.88,-612.92"/>
</g>
<!-- Node31 -->
<g id="node31" class="node">
<title>Node31</title>
<g id="a_node31"><a xlink:href="util_8h.html" target="_top" xlink:title="Utility functions.">
<polygon fill="white" stroke="black" points="662,-280.5 662,-299.5 742,-299.5 742,-280.5 662,-280.5"/>
<text text-anchor="middle" x="702" y="-287.5" font-family="Helvetica,sans-Serif" font-size="10.00">include/util.h</text>
</a>
</g>
</g>
<!-- Node1&#45;&gt;Node31 -->
<g id="edge39" class="edge">
<title>Node1&#45;&gt;Node31</title>
<path fill="none" stroke="midnightblue" d="M500.08,-623.2C569.75,-617.7 686,-596.33 686,-515 686,-515 686,-515 686,-401 686,-362.98 695.47,-318.34 699.84,-299.78"/>
<polygon fill="midnightblue" stroke="midnightblue" points="499.47,-619.73 489.74,-623.92 499.96,-626.71 499.47,-619.73"/>
</g>
<!-- Node5 -->
<g id="node5" class="node">
<title>Node5</title>
<g id="a_node5"><a xlink:href="bis_8c.html" target="_top" xlink:title=" ">
<polygon fill="white" stroke="black" points="104.5,-224.5 104.5,-243.5 175.5,-243.5 175.5,-224.5 104.5,-224.5"/>
<text text-anchor="middle" x="140" y="-231.5" font-family="Helvetica,sans-Serif" font-size="10.00">src/P2/bis.c</text>
</a>
</g>
</g>
<!-- Node4&#45;&gt;Node5 -->
<g id="edge4" class="edge">
<title>Node4&#45;&gt;Node5</title>
<path fill="none" stroke="midnightblue" d="M118.5,-271.27C123.97,-262.05 130.42,-251.17 134.81,-243.75"/>
<polygon fill="midnightblue" stroke="midnightblue" points="115.37,-269.7 113.28,-280.08 121.39,-273.26 115.37,-269.7"/>
</g>
<!-- Node6 -->
<g id="node6" class="node">
<title>Node6</title>
<g id="a_node6"><a xlink:href="coin_8c.html" target="_top" xlink:title=" ">
<polygon fill="white" stroke="black" points="33.5,-56.5 33.5,-75.5 110.5,-75.5 110.5,-56.5 33.5,-56.5"/>
<text text-anchor="middle" x="72" y="-63.5" font-family="Helvetica,sans-Serif" font-size="10.00">src/P2/coin.c</text>
</a>
</g>
</g>
<!-- Node4&#45;&gt;Node6 -->
<g id="edge5" class="edge">
<title>Node4&#45;&gt;Node6</title>
<path fill="none" stroke="midnightblue" d="M94.99,-272.38C74.47,-245 35.44,-187.84 21,-132 18.77,-123.39 17.34,-120.1 21,-112 28.19,-96.07 44.11,-83.52 56.27,-75.76"/>
<polygon fill="midnightblue" stroke="midnightblue" points="92.33,-274.66 101.18,-280.48 97.89,-270.41 92.33,-274.66"/>
</g>
<!-- Node4&#45;&gt;Node7 -->
<g id="edge6" class="edge">
<title>Node4&#45;&gt;Node7</title>
<path fill="none" stroke="midnightblue" d="M99.71,-271.11C94.73,-257.92 90.2,-239.62 95,-224 107.72,-182.6 147.99,-147.28 168.2,-131.63"/>
<polygon fill="midnightblue" stroke="midnightblue" points="96.53,-272.59 103.63,-280.45 102.99,-269.88 96.53,-272.59"/>
</g>
<!-- Node11 -->
<g id="node11" class="node">
<title>Node11</title>
<g id="a_node11"><a xlink:href="xform_8h.html" target="_top" xlink:title="Transform.">
<polygon fill="white" stroke="black" points="216.5,-224.5 216.5,-243.5 309.5,-243.5 309.5,-224.5 216.5,-224.5"/>
<text text-anchor="middle" x="263" y="-231.5" font-family="Helvetica,sans-Serif" font-size="10.00">include/xform.h</text>
</a>
</g>
</g>
<!-- Node4&#45;&gt;Node11 -->
<g id="edge11" class="edge">
<title>Node4&#45;&gt;Node11</title>
<path fill="none" stroke="midnightblue" d="M142.33,-277.04C171.5,-266.88 212.64,-252.55 238.55,-243.52"/>
<polygon fill="midnightblue" stroke="midnightblue" points="140.85,-273.85 132.56,-280.44 143.16,-280.46 140.85,-273.85"/>
</g>
<!-- Node7&#45;&gt;Node6 -->
<g id="edge8" class="edge">
<title>Node7&#45;&gt;Node6</title>
<path fill="none" stroke="midnightblue" d="M153.45,-107.73C133.45,-97.73 106.61,-84.31 89.31,-75.65"/>
<polygon fill="midnightblue" stroke="midnightblue" points="152.14,-110.98 162.65,-112.32 155.27,-104.72 152.14,-110.98"/>
</g>
<!-- Node8 -->
<g id="node8" class="node">
<title>Node8</title>
<g id="a_node8"><a xlink:href="chkpnt_8c.html" target="_top" xlink:title=" ">
<polygon fill="white" stroke="black" points="135,-56.5 135,-75.5 225,-75.5 225,-56.5 135,-56.5"/>
<text text-anchor="middle" x="180" y="-63.5" font-family="Helvetica,sans-Serif" font-size="10.00">src/P2/chkpnt.c</text>
</a>
</g>
</g>
<!-- Node7&#45;&gt;Node8 -->
<g id="edge7" class="edge">
<title>Node7&#45;&gt;Node8</title>
<path fill="none" stroke="midnightblue" d="M180,-101.8C180,-92.91 180,-82.78 180,-75.75"/>
<polygon fill="midnightblue" stroke="midnightblue" points="176.5,-102.08 180,-112.08 183.5,-102.08 176.5,-102.08"/>
</g>
<!-- Node9 -->
<g id="node9" class="node">
<title>Node9</title>
<g id="a_node9"><a xlink:href="difficulty_8h.html" target="_top" xlink:title="Dynamic difficulty system.">
<polygon fill="white" stroke="black" points="444.5,-56.5 444.5,-75.5 549.5,-75.5 549.5,-56.5 444.5,-56.5"/>
<text text-anchor="middle" x="497" y="-63.5" font-family="Helvetica,sans-Serif" font-size="10.00">include/difficulty.h</text>
</a>
</g>
</g>
<!-- Node7&#45;&gt;Node9 -->
<g id="edge9" class="edge">
<title>Node7&#45;&gt;Node9</title>
<path fill="none" stroke="midnightblue" d="M238.9,-110.97C298.8,-100.76 390.61,-85.12 447.06,-75.51"/>
<polygon fill="midnightblue" stroke="midnightblue" points="238.11,-107.55 228.84,-112.68 239.28,-114.45 238.11,-107.55"/>
</g>
<!-- Node10 -->
<g id="node10" class="node">
<title>Node10</title>
<g id="a_node10"><a xlink:href="difficulty_8c.html" target="_top" xlink:title=" ">
<polygon fill="white" stroke="black" points="448,-0.5 448,-19.5 546,-19.5 546,-0.5 448,-0.5"/>
<text text-anchor="middle" x="497" y="-7.5" font-family="Helvetica,sans-Serif" font-size="10.00">src/P2/difficulty.c</text>
</a>
</g>
</g>
<!-- Node9&#45;&gt;Node10 -->
<g id="edge10" class="edge">
<title>Node9&#45;&gt;Node10</title>
<path fill="none" stroke="midnightblue" d="M497,-45.8C497,-36.91 497,-26.78 497,-19.75"/>
<polygon fill="midnightblue" stroke="midnightblue" points="493.5,-46.08 497,-56.08 500.5,-46.08 493.5,-46.08"/>
</g>
<!-- Node12 -->
<g id="node12" class="node">
<title>Node12</title>
<g id="a_node12"><a xlink:href="xform1_8c.html" target="_top" xlink:title=" ">
<polygon fill="white" stroke="black" points="240,-168.5 240,-187.5 332,-187.5 332,-168.5 240,-168.5"/>
<text text-anchor="middle" x="286" y="-175.5" font-family="Helvetica,sans-Serif" font-size="10.00">src/P2/xform1.c</text>
</a>
</g>
</g>
<!-- Node11&#45;&gt;Node12 -->
<g id="edge12" class="edge">
<title>Node11&#45;&gt;Node12</title>
<path fill="none" stroke="midnightblue" d="M270.8,-214.69C274.68,-205.59 279.18,-195.01 282.27,-187.75"/>
<polygon fill="midnightblue" stroke="midnightblue" points="267.5,-213.51 266.8,-224.08 273.94,-216.25 267.5,-213.51"/>
</g>
<!-- Node13 -->
<g id="node13" class="node">
<title>Node13</title>
<g id="a_node13"><a xlink:href="xform2_8c.html" target="_top" xlink:title=" ">
<polygon fill="white" stroke="black" points="350,-168.5 350,-187.5 442,-187.5 442,-168.5 350,-168.5"/>
<text text-anchor="middle" x="396" y="-175.5" font-family="Helvetica,sans-Serif" font-size="10.00">src/P2/xform2.c</text>
</a>
</g>
</g>
<!-- Node11&#45;&gt;Node13 -->
<g id="edge13" class="edge">
<title>Node11&#45;&gt;Node13</title>
<path fill="none" stroke="midnightblue" d="M293.45,-220.64C318.41,-210.5 353.08,-196.43 375.02,-187.52"/>
<polygon fill="midnightblue" stroke="midnightblue" points="292.02,-217.44 284.07,-224.44 294.66,-223.92 292.02,-217.44"/>
</g>
<!-- Node14 -->
<g id="node14" class="node">
<title>Node14</title>
<g id="a_node14"><a xlink:href="cm_8h.html" target="_top" xlink:title="Game camera.">
<polygon fill="white" stroke="black" points="707.5,-168.5 707.5,-187.5 786.5,-187.5 786.5,-168.5 707.5,-168.5"/>
<text text-anchor="middle" x="747" y="-175.5" font-family="Helvetica,sans-Serif" font-size="10.00">include/cm.h</text>
</a>
</g>
</g>
<!-- Node11&#45;&gt;Node14 -->
<g id="edge14" class="edge">
<title>Node11&#45;&gt;Node14</title>
<path fill="none" stroke="midnightblue" d="M320,-226.64C419.33,-215.56 621.74,-192.97 707.35,-183.42"/>
<polygon fill="midnightblue" stroke="midnightblue" points="319.4,-223.19 309.85,-227.77 320.17,-230.14 319.4,-223.19"/>
</g>
<!-- Node18 -->
<g id="node18" class="node">
<title>Node18</title>
<g id="a_node18"><a xlink:href="coin_8h.html" target="_top" xlink:title="Coins, keys, and other collectibles.">
<polygon fill="white" stroke="black" points="30,-112.5 30,-131.5 114,-131.5 114,-112.5 30,-112.5"/>
<text text-anchor="middle" x="72" y="-119.5" font-family="Helvetica,sans-Serif" font-size="10.00">include/coin.h</text>
</a>
</g>
</g>
<!-- Node11&#45;&gt;Node18 -->
<g id="edge18" class="edge">
<title>Node11&#45;&gt;Node18</title>
<path fill="none" stroke="midnightblue" d="M213.15,-221.84C187.81,-214.7 157.33,-203.77 133,-188 109.11,-172.51 88.05,-145.71 78.09,-131.86"/>
<polygon fill="midnightblue" stroke="midnightblue" points="212.37,-225.26 222.94,-224.48 214.19,-218.5 212.37,-225.26"/>
</g>
<!-- Node19 -->
<g id="node19" class="node">
<title>Node19</title>
<g id="a_node19"><a xlink:href="vol_8h.html" target="_top" xlink:title="Volume object.">
<polygon fill="white" stroke="black" points="142.5,-168.5 142.5,-187.5 221.5,-187.5 221.5,-168.5 142.5,-168.5"/>
<text text-anchor="middle" x="182" y="-175.5" font-family="Helvetica,sans-Serif" font-size="10.00">include/vol.h</text>
</a>
</g>
</g>
<!-- Node11&#45;&gt;Node19 -->
<g id="edge20" class="edge">
<title>Node11&#45;&gt;Node19</title>
<path fill="none" stroke="midnightblue" d="M241.43,-218.62C226.64,-208.76 207.49,-195.99 194.98,-187.65"/>
<polygon fill="midnightblue" stroke="midnightblue" points="239.72,-221.69 249.99,-224.32 243.61,-215.86 239.72,-221.69"/>
</g>
<!-- Node15 -->
<g id="node15" class="node">
<title>Node15</title>
<g id="a_node15"><a xlink:href="cm_8c.html" target="_top" xlink:title=" ">
<polygon fill="white" stroke="black" points="628,-112.5 628,-131.5 700,-131.5 700,-112.5 628,-112.5"/>
<text text-anchor="middle" x="664" y="-119.5" font-family="Helvetica,sans-Serif" font-size="10.00">src/P2/cm.c</text>
</a>
</g>
</g>
<!-- Node14&#45;&gt;Node15 -->
<g id="edge15" class="edge">
<title>Node14&#45;&gt;Node15</title>
<path fill="none" stroke="midnightblue" d="M724.9,-162.62C709.74,-152.76 690.12,-139.99 677.3,-131.65"/>
<polygon fill="midnightblue" stroke="midnightblue" points="723.37,-165.8 733.66,-168.32 727.19,-159.94 723.37,-165.8"/>
</g>
<!-- Node16 -->
<g id="node16" class="node">
<title>Node16</title>
<g id="a_node16"><a xlink:href="flash_8h.html" target="_top" xlink:title="Flash (might be flash animation, or literal screen flashes).">
<polygon fill="white" stroke="black" points="718.5,-112.5 718.5,-131.5 805.5,-131.5 805.5,-112.5 718.5,-112.5"/>
<text text-anchor="middle" x="762" y="-119.5" font-family="Helvetica,sans-Serif" font-size="10.00">include/flash.h</text>
</a>
</g>
</g>
<!-- Node14&#45;&gt;Node16 -->
<g id="edge16" class="edge">
<title>Node14&#45;&gt;Node16</title>
<path fill="none" stroke="midnightblue" d="M752.17,-158.4C754.68,-149.36 757.57,-138.94 759.57,-131.75"/>
<polygon fill="midnightblue" stroke="midnightblue" points="748.78,-157.51 749.48,-168.08 755.53,-159.38 748.78,-157.51"/>
</g>
<!-- Node17 -->
<g id="node17" class="node">
<title>Node17</title>
<g id="a_node17"><a xlink:href="flash_8c.html" target="_top" xlink:title=" ">
<polygon fill="white" stroke="black" points="722,-56.5 722,-75.5 802,-75.5 802,-56.5 722,-56.5"/>
<text text-anchor="middle" x="762" y="-63.5" font-family="Helvetica,sans-Serif" font-size="10.00">src/P2/flash.c</text>
</a>
</g>
</g>
<!-- Node16&#45;&gt;Node17 -->
<g id="edge17" class="edge">
<title>Node16&#45;&gt;Node17</title>
<path fill="none" stroke="midnightblue" d="M762,-101.8C762,-92.91 762,-82.78 762,-75.75"/>
<polygon fill="midnightblue" stroke="midnightblue" points="758.5,-102.08 762,-112.08 765.5,-102.08 758.5,-102.08"/>
</g>
<!-- Node18&#45;&gt;Node6 -->
<g id="edge19" class="edge">
<title>Node18&#45;&gt;Node6</title>
<path fill="none" stroke="midnightblue" d="M72,-101.8C72,-92.91 72,-82.78 72,-75.75"/>
<polygon fill="midnightblue" stroke="midnightblue" points="68.5,-102.08 72,-112.08 75.5,-102.08 68.5,-102.08"/>
</g>
<!-- Node19&#45;&gt;Node7 -->
<g id="edge21" class="edge">
<title>Node19&#45;&gt;Node7</title>
<path fill="none" stroke="midnightblue" d="M181.29,-157.8C180.96,-148.91 180.58,-138.78 180.32,-131.75"/>
<polygon fill="midnightblue" stroke="midnightblue" points="177.8,-158.22 181.67,-168.08 184.8,-157.96 177.8,-158.22"/>
</g>
<!-- Node21 -->
<g id="node21" class="node">
<title>Node21</title>
<g id="a_node21"><a xlink:href="screen_8h.html" target="_top" xlink:title="User interface manager.">
<polygon fill="white" stroke="black" points="367,-448.5 367,-467.5 463,-467.5 463,-448.5 367,-448.5"/>
<text text-anchor="middle" x="415" y="-455.5" font-family="Helvetica,sans-Serif" font-size="10.00">include/screen.h</text>
</a>
</g>
</g>
<!-- Node20&#45;&gt;Node21 -->
<g id="edge24" class="edge">
<title>Node20&#45;&gt;Node21</title>
<path fill="none" stroke="midnightblue" d="M415,-493.8C415,-484.91 415,-474.78 415,-467.75"/>
<polygon fill="midnightblue" stroke="midnightblue" points="411.5,-494.08 415,-504.08 418.5,-494.08 411.5,-494.08"/>
</g>
<!-- Node22 -->
<g id="node22" class="node">
<title>Node22</title>
<g id="a_node22"><a xlink:href="screen_8c.html" target="_top" xlink:title=" ">
<polygon fill="white" stroke="black" points="370.5,-392.5 370.5,-411.5 459.5,-411.5 459.5,-392.5 370.5,-392.5"/>
<text text-anchor="middle" x="415" y="-399.5" font-family="Helvetica,sans-Serif" font-size="10.00">src/P2/screen.c</text>
</a>
</g>
</g>
<!-- Node21&#45;&gt;Node22 -->
<g id="edge25" class="edge">
<title>Node21&#45;&gt;Node22</title>
<path fill="none" stroke="midnightblue" d="M415,-437.8C415,-428.91 415,-418.78 415,-411.75"/>
<polygon fill="midnightblue" stroke="midnightblue" points="411.5,-438.08 415,-448.08 418.5,-438.08 411.5,-438.08"/>
</g>
<!-- Node23 -->
<g id="node23" class="node">
<title>Node23</title>
<g id="a_node23"><a xlink:href="binoc_8h.html" target="_top" xlink:title="Binoc&#45;u&#45;com.">
<polygon fill="white" stroke="black" points="262,-392.5 262,-411.5 352,-411.5 352,-392.5 262,-392.5"/>
<text text-anchor="middle" x="307" y="-399.5" font-family="Helvetica,sans-Serif" font-size="10.00">include/binoc.h</text>
</a>
</g>
</g>
<!-- Node21&#45;&gt;Node23 -->
<g id="edge26" class="edge">
<title>Node21&#45;&gt;Node23</title>
<path fill="none" stroke="midnightblue" d="M388.45,-443.73C368.45,-433.73 341.61,-420.31 324.31,-411.65"/>
<polygon fill="midnightblue" stroke="midnightblue" points="387.14,-446.98 397.65,-448.32 390.27,-440.72 387.14,-446.98"/>
</g>
<!-- Node28 -->
<g id="node28" class="node">
<title>Node28</title>
<g id="a_node28"><a xlink:href="ui_8h.html" target="_top" xlink:title="User interface.">
<polygon fill="white" stroke="black" points="477.5,-392.5 477.5,-411.5 550.5,-411.5 550.5,-392.5 477.5,-392.5"/>
<text text-anchor="middle" x="514" y="-399.5" font-family="Helvetica,sans-Serif" font-size="10.00">include/ui.h</text>
</a>
</g>
</g>
<!-- Node21&#45;&gt;Node28 -->
<g id="edge34" class="edge">
<title>Node21&#45;&gt;Node28</title>
<path fill="none" stroke="midnightblue" d="M439.84,-443.45C458.11,-433.48 482.42,-420.23 498.13,-411.65"/>
<polygon fill="midnightblue" stroke="midnightblue" points="438.01,-440.46 430.91,-448.32 441.36,-446.61 438.01,-440.46"/>
</g>
<!-- Node23&#45;&gt;Node14 -->
<g id="edge29" class="edge">
<title>Node23&#45;&gt;Node14</title>
<path fill="none" stroke="midnightblue" d="M352.99,-389.85C385.42,-381.14 425.12,-368.44 437,-356 479.25,-311.76 430.17,-264.52 476,-224 509.67,-194.22 640.69,-183.9 707.44,-180.53"/>
<polygon fill="midnightblue" stroke="midnightblue" points="351.98,-386.5 343.2,-392.43 353.76,-393.27 351.98,-386.5"/>
</g>
<!-- Node23&#45;&gt;Node15 -->
<g id="edge28" class="edge">
<title>Node23&#45;&gt;Node15</title>
<path fill="none" stroke="midnightblue" d="M270.29,-388.27C255.66,-381.18 240.35,-370.74 232,-356 224.61,-342.95 216.29,-304.39 234,-280 240.38,-271.22 549.12,-163.05 639.43,-131.55"/>
<polygon fill="midnightblue" stroke="midnightblue" points="269.16,-391.6 279.72,-392.45 272,-385.2 269.16,-391.6"/>
</g>
<!-- Node24 -->
<g id="node24" class="node">
<title>Node24</title>
<g id="a_node24"><a xlink:href="binoc_8c.html" target="_top" xlink:title=" ">
<polygon fill="white" stroke="black" points="345.5,-336.5 345.5,-355.5 428.5,-355.5 428.5,-336.5 345.5,-336.5"/>
<text text-anchor="middle" x="387" y="-343.5" font-family="Helvetica,sans-Serif" font-size="10.00">src/P2/binoc.c</text>
</a>
</g>
</g>
<!-- Node23&#45;&gt;Node24 -->
<g id="edge27" class="edge">
<title>Node23&#45;&gt;Node24</title>
<path fill="none" stroke="midnightblue" d="M328.3,-386.62C342.92,-376.76 361.83,-363.99 374.18,-355.65"/>
<polygon fill="midnightblue" stroke="midnightblue" points="326.18,-383.83 319.85,-392.32 330.1,-389.63 326.18,-383.83"/>
</g>
<!-- Node25 -->
<g id="node25" class="node">
<title>Node25</title>
<g id="a_node25"><a xlink:href="prog_8h.html" target="_top" xlink:title=" ">
<polygon fill="white" stroke="black" points="241,-336.5 241,-355.5 327,-355.5 327,-336.5 241,-336.5"/>
<text text-anchor="middle" x="284" y="-343.5" font-family="Helvetica,sans-Serif" font-size="10.00">include/prog.h</text>
</a>
</g>
</g>
<!-- Node23&#45;&gt;Node25 -->
<g id="edge30" class="edge">
<title>Node23&#45;&gt;Node25</title>
<path fill="none" stroke="midnightblue" d="M299.2,-382.69C295.32,-373.59 290.82,-363.01 287.73,-355.75"/>
<polygon fill="midnightblue" stroke="midnightblue" points="296.06,-384.25 303.2,-392.08 302.5,-381.51 296.06,-384.25"/>
</g>
<!-- Node25&#45;&gt;Node4 -->
<g id="edge33" class="edge">
<title>Node25&#45;&gt;Node4</title>
<path fill="none" stroke="midnightblue" d="M246.31,-333.44C213.13,-323.26 165.57,-308.66 135.76,-299.52"/>
<polygon fill="midnightblue" stroke="midnightblue" points="245.53,-336.86 256.11,-336.44 247.58,-330.16 245.53,-336.86"/>
</g>
<!-- Node26 -->
<g id="node26" class="node">
<title>Node26</title>
<g id="a_node26"><a xlink:href="main_8c.html" target="_top" xlink:title=" ">
<polygon fill="white" stroke="black" points="243,-280.5 243,-299.5 325,-299.5 325,-280.5 243,-280.5"/>
<text text-anchor="middle" x="284" y="-287.5" font-family="Helvetica,sans-Serif" font-size="10.00">src/P2/main.c</text>
</a>
</g>
</g>
<!-- Node25&#45;&gt;Node26 -->
<g id="edge31" class="edge">
<title>Node25&#45;&gt;Node26</title>
<path fill="none" stroke="midnightblue" d="M284,-325.8C284,-316.91 284,-306.78 284,-299.75"/>
<polygon fill="midnightblue" stroke="midnightblue" points="280.5,-326.08 284,-336.08 287.5,-326.08 280.5,-326.08"/>
</g>
<!-- Node27 -->
<g id="node27" class="node">
<title>Node27</title>
<g id="a_node27"><a xlink:href="prog_8c.html" target="_top" xlink:title=" ">
<polygon fill="white" stroke="black" points="343.5,-280.5 343.5,-299.5 422.5,-299.5 422.5,-280.5 343.5,-280.5"/>
<text text-anchor="middle" x="383" y="-287.5" font-family="Helvetica,sans-Serif" font-size="10.00">src/P2/prog.c</text>
</a>
</g>
</g>
<!-- Node25&#45;&gt;Node27 -->
<g id="edge32" class="edge">
<title>Node25&#45;&gt;Node27</title>
<path fill="none" stroke="midnightblue" d="M308.84,-331.45C327.11,-321.48 351.42,-308.23 367.13,-299.65"/>
<polygon fill="midnightblue" stroke="midnightblue" points="307.01,-328.46 299.91,-336.32 310.36,-334.61 307.01,-328.46"/>
</g>
<!-- Node29 -->
<g id="node29" class="node">
<title>Node29</title>
<g id="a_node29"><a xlink:href="ui_8c.html" target="_top" xlink:title=" ">
<polygon fill="white" stroke="black" points="485,-336.5 485,-355.5 551,-355.5 551,-336.5 485,-336.5"/>
<text text-anchor="middle" x="518" y="-343.5" font-family="Helvetica,sans-Serif" font-size="10.00">src/P2/ui.c</text>
</a>
</g>
</g>
<!-- Node28&#45;&gt;Node29 -->
<g id="edge35" class="edge">
<title>Node28&#45;&gt;Node29</title>
<path fill="none" stroke="midnightblue" d="M515.4,-382.1C516.06,-373.14 516.83,-362.86 517.35,-355.75"/>
<polygon fill="midnightblue" stroke="midnightblue" points="511.91,-381.85 514.66,-392.08 518.89,-382.37 511.91,-381.85"/>
</g>
<!-- Node30&#45;&gt;Node11 -->
<g id="edge38" class="edge">
<title>Node30&#45;&gt;Node11</title>
<path fill="none" stroke="midnightblue" d="M328.32,-563.69C267.59,-554.26 175,-528.49 175,-459 175,-459 175,-459 175,-345 175,-298.29 223.99,-260.05 248.86,-243.64"/>
<polygon fill="midnightblue" stroke="midnightblue" points="328.12,-567.2 338.52,-565.17 329.12,-560.27 328.12,-567.2"/>
</g>
<!-- Node30&#45;&gt;Node20 -->
<g id="edge37" class="edge">
<title>Node30&#45;&gt;Node20</title>
<path fill="none" stroke="midnightblue" d="M391.3,-551.57C397.32,-542.27 404.47,-531.25 409.33,-523.75"/>
<polygon fill="midnightblue" stroke="midnightblue" points="388.28,-549.79 385.78,-560.08 394.16,-553.6 388.28,-549.79"/>
</g>
<!-- Node31&#45;&gt;Node2 -->
<g id="edge41" class="edge">
<title>Node31&#45;&gt;Node2</title>
<path fill="none" stroke="midnightblue" d="M663.89,-277.57C629.94,-267.38 581.01,-252.7 550.39,-243.52"/>
<polygon fill="midnightblue" stroke="midnightblue" points="662.89,-280.92 673.48,-280.44 664.91,-274.22 662.89,-280.92"/>
</g>
<!-- Node31&#45;&gt;Node3 -->
<g id="edge42" class="edge">
<title>Node31&#45;&gt;Node3</title>
<path fill="none" stroke="midnightblue" d="M679.02,-274.9C662.89,-265 641.82,-252.07 628.1,-243.65"/>
<polygon fill="midnightblue" stroke="midnightblue" points="677.51,-278.08 687.86,-280.32 681.17,-272.11 677.51,-278.08"/>
</g>
<!-- Node31&#45;&gt;Node9 -->
<g id="edge44" class="edge">
<title>Node31&#45;&gt;Node9</title>
<path fill="none" stroke="midnightblue" d="M752.56,-287.91C785.5,-284.23 826.25,-273.46 848,-244 874.33,-208.34 922.18,-204.58 815,-112 776.28,-78.56 629.68,-69.94 549.75,-67.74"/>
<polygon fill="midnightblue" stroke="midnightblue" points="751.82,-284.46 742.18,-288.86 752.46,-291.43 751.82,-284.46"/>
</g>
<!-- Node31&#45;&gt;Node11 -->
<g id="edge53" class="edge">
<title>Node31&#45;&gt;Node11</title>
<path fill="none" stroke="midnightblue" d="M651.88,-282.84C566.26,-272.3 393.01,-250.99 309.75,-240.75"/>
<polygon fill="midnightblue" stroke="midnightblue" points="651.53,-286.32 661.88,-284.06 652.38,-279.37 651.53,-286.32"/>
</g>
<!-- Node31&#45;&gt;Node14 -->
<g id="edge43" class="edge">
<title>Node31&#45;&gt;Node14</title>
<path fill="none" stroke="midnightblue" d="M709.36,-271C719.18,-247 736.17,-205.47 743.49,-187.59"/>
<polygon fill="midnightblue" stroke="midnightblue" points="706.08,-269.79 705.53,-280.37 712.56,-272.44 706.08,-269.79"/>
</g>
<!-- Node31&#45;&gt;Node15 -->
<g id="edge40" class="edge">
<title>Node31&#45;&gt;Node15</title>
<path fill="none" stroke="midnightblue" d="M697.63,-269.93C689.39,-233.92 671.84,-157.23 665.96,-131.57"/>
<polygon fill="midnightblue" stroke="midnightblue" points="694.31,-271.11 699.96,-280.08 701.14,-269.55 694.31,-271.11"/>
</g>
<!-- Node32 -->
<g id="node32" class="node">
<title>Node32</title>
<g id="a_node32"><a xlink:href="joy_8h.html" target="_top" xlink:title="Joypad manager.">
<polygon fill="white" stroke="black" points="895.5,-224.5 895.5,-243.5 972.5,-243.5 972.5,-224.5 895.5,-224.5"/>
<text text-anchor="middle" x="934" y="-231.5" font-family="Helvetica,sans-Serif" font-size="10.00">include/joy.h</text>
</a>
</g>
</g>
<!-- Node31&#45;&gt;Node32 -->
<g id="edge45" class="edge">
<title>Node31&#45;&gt;Node32</title>
<path fill="none" stroke="midnightblue" d="M748.6,-278.15C792.44,-267.95 857.18,-252.88 897.41,-243.52"/>
<polygon fill="midnightblue" stroke="midnightblue" points="747.71,-274.77 738.76,-280.44 749.29,-281.59 747.71,-274.77"/>
</g>
<!-- Node36 -->
<g id="node36" class="node">
<title>Node36</title>
<g id="a_node36"><a xlink:href="sound_8h.html" target="_top" xlink:title="Sound playback.">
<polygon fill="white" stroke="black" points="745.5,-224.5 745.5,-243.5 838.5,-243.5 838.5,-224.5 745.5,-224.5"/>
<text text-anchor="middle" x="792" y="-231.5" font-family="Helvetica,sans-Serif" font-size="10.00">include/sound.h</text>
</a>
</g>
</g>
<!-- Node31&#45;&gt;Node36 -->
<g id="edge49" class="edge">
<title>Node31&#45;&gt;Node36</title>
<path fill="none" stroke="midnightblue" d="M725.04,-275.18C741.6,-265.24 763.42,-252.15 777.58,-243.65"/>
<polygon fill="midnightblue" stroke="midnightblue" points="723.23,-272.18 716.46,-280.32 726.84,-278.18 723.23,-272.18"/>
</g>
<!-- Node37 -->
<g id="node37" class="node">
<title>Node37</title>
<g id="a_node37"><a xlink:href="ref_8h.html" target="_top" xlink:title=" ">
<polygon fill="white" stroke="black" points="1055,-224.5 1055,-243.5 1163,-243.5 1163,-224.5 1055,-224.5"/>
<text text-anchor="middle" x="1109" y="-231.5" font-family="Helvetica,sans-Serif" font-size="10.00">include/splice/ref.h</text>
</a>
</g>
</g>
<!-- Node31&#45;&gt;Node37 -->
<g id="edge51" class="edge">
<title>Node31&#45;&gt;Node37</title>
<path fill="none" stroke="midnightblue" d="M752.06,-282.36C828.93,-272.16 975.45,-252.72 1054.76,-242.2"/>
<polygon fill="midnightblue" stroke="midnightblue" points="751.59,-278.89 742.14,-283.67 752.51,-285.83 751.59,-278.89"/>
</g>
<!-- Node33 -->
<g id="node33" class="node">
<title>Node33</title>
<g id="a_node33"><a xlink:href="joy_8c.html" target="_top" xlink:title=" ">
<polygon fill="white" stroke="black" points="895.5,-168.5 895.5,-187.5 966.5,-187.5 966.5,-168.5 895.5,-168.5"/>
<text text-anchor="middle" x="931" y="-175.5" font-family="Helvetica,sans-Serif" font-size="10.00">src/P2/joy.c</text>
</a>
</g>
</g>
<!-- Node32&#45;&gt;Node33 -->
<g id="edge46" class="edge">
<title>Node32&#45;&gt;Node33</title>
<path fill="none" stroke="midnightblue" d="M932.93,-213.8C932.44,-204.91 931.88,-194.78 931.49,-187.75"/>
<polygon fill="midnightblue" stroke="midnightblue" points="929.46,-214.29 933.5,-224.08 936.44,-213.9 929.46,-214.29"/>
</g>
<!-- Node34 -->
<g id="node34" class="node">
<title>Node34</title>
<g id="a_node34"><a xlink:href="steppower_8h.html" target="_top" xlink:title=" ">
<polygon fill="white" stroke="black" points="985,-168.5 985,-187.5 1099,-187.5 1099,-168.5 985,-168.5"/>
<text text-anchor="middle" x="1042" y="-175.5" font-family="Helvetica,sans-Serif" font-size="10.00">include/steppower.h</text>
</a>
</g>
</g>
<!-- Node32&#45;&gt;Node34 -->
<g id="edge47" class="edge">
<title>Node32&#45;&gt;Node34</title>
<path fill="none" stroke="midnightblue" d="M960.55,-219.73C980.55,-209.73 1007.39,-196.31 1024.69,-187.65"/>
<polygon fill="midnightblue" stroke="midnightblue" points="958.73,-216.72 951.35,-224.32 961.86,-222.98 958.73,-216.72"/>
</g>
<!-- Node35 -->
<g id="node35" class="node">
<title>Node35</title>
<g id="a_node35"><a xlink:href="steppower_8c.html" target="_top" xlink:title=" ">
<polygon fill="white" stroke="black" points="988.5,-112.5 988.5,-131.5 1095.5,-131.5 1095.5,-112.5 988.5,-112.5"/>
<text text-anchor="middle" x="1042" y="-119.5" font-family="Helvetica,sans-Serif" font-size="10.00">src/P2/steppower.c</text>
</a>
</g>
</g>
<!-- Node34&#45;&gt;Node35 -->
<g id="edge48" class="edge">
<title>Node34&#45;&gt;Node35</title>
<path fill="none" stroke="midnightblue" d="M1042,-157.8C1042,-148.91 1042,-138.78 1042,-131.75"/>
<polygon fill="midnightblue" stroke="midnightblue" points="1038.5,-158.08 1042,-168.08 1045.5,-158.08 1038.5,-158.08"/>
</g>
<!-- Node36&#45;&gt;Node14 -->
<g id="edge50" class="edge">
<title>Node36&#45;&gt;Node14</title>
<path fill="none" stroke="midnightblue" d="M777.95,-216.14C770.11,-206.74 760.67,-195.4 754.29,-187.75"/>
<polygon fill="midnightblue" stroke="midnightblue" points="775.48,-218.64 784.57,-224.08 780.86,-214.16 775.48,-218.64"/>
</g>
<!-- Node38 -->
<g id="node38" class="node">
<title>Node38</title>
<g id="a_node38"><a xlink:href="ref_8cpp.html" target="_top" xlink:title=" ">
<polygon fill="white" stroke="black" points="1117.5,-168.5 1117.5,-187.5 1230.5,-187.5 1230.5,-168.5 1117.5,-168.5"/>
<text text-anchor="middle" x="1174" y="-175.5" font-family="Helvetica,sans-Serif" font-size="10.00">src/P2/splice/ref.cpp</text>
</a>
</g>
</g>
<!-- Node37&#45;&gt;Node38 -->
<g id="edge52" class="edge">
<title>Node37&#45;&gt;Node38</title>
<path fill="none" stroke="midnightblue" d="M1127.27,-217.82C1138.92,-208.15 1153.6,-195.95 1163.37,-187.83"/>
<polygon fill="midnightblue" stroke="midnightblue" points="1124.9,-215.24 1119.44,-224.32 1129.37,-220.63 1124.9,-215.24"/>
</g>
</g>
</svg>
        <g id="navigator" transform="translate(0 0)" fill="#404254">
                <rect fill="#f2f5e9" fill-opacity="0.5" stroke="#606060" stroke-width=".5" x="0" y="0" width="60" height="60"/>
                <use id="zoomplus" xlink:href="#zoomPlus" x="17" y="9" onmousedown="handleZoom(evt,'in')"/>
                <use id="zoomminus" xlink:href="#zoomMin" x="42" y="9" onmousedown="handleZoom(evt,'out')"/>
                <use id="reset" xlink:href="#resetDef" x="30" y="36" onmousedown="handleReset()"/>
                <g id="arrowUp" xlink:href="#dirArrow" transform="translate(30 24)" onmousedown="handlePan(0,-1)">
                  <use xlink:href="#rim" fill="#404040">
                        <set attributeName="fill" to="#808080" begin="arrowUp.mouseover" end="arrowUp.mouseout"/>
                  </use>
                  <path fill="none" stroke="white" stroke-width="1.5" d="M0,-3.0v7 M-2.5,-0.5L0,-3.0L2.5,-0.5"/>
                </g>
                <g id="arrowRight" xlink:href="#dirArrow" transform="rotate(90) translate(36 -43)" onmousedown="handlePan(1,0)">
                  <use xlink:href="#rim" fill="#404040">
                        <set attributeName="fill" to="#808080" begin="arrowRight.mouseover" end="arrowRight.mouseout"/>
                  </use>
                  <path fill="none" stroke="white" stroke-width="1.5" d="M0,-3.0v7 M-2.5,-0.5L0,-3.0L2.5,-0.5"/>
                </g>
                <g id="arrowDown" xlink:href="#dirArrow" transform="rotate(180) translate(-30 -48)" onmousedown="handlePan(0,1)">
                  <use xlink:href="#rim" fill="#404040">
                        <set attributeName="fill" to="#808080" begin="arrowDown.mouseover" end="arrowDown.mouseout"/>
                  </use>
                  <path fill="none" stroke="white" stroke-width="1.5" d="M0,-3.0v7 M-2.5,-0.5L0,-3.0L2.5,-0.5"/>
                </g>
                <g id="arrowLeft" xlink:href="#dirArrow" transform="rotate(270) translate(-36 17)" onmousedown="handlePan(-1,0)">
                  <use xlink:href="#rim" fill="#404040">
                        <set attributeName="fill" to="#808080" begin="arrowLeft.mouseover" end="arrowLeft.mouseout"/>
                  </use>
                  <path fill="none" stroke="white" stroke-width="1.5" d="M0,-3.0v7 M-2.5,-0.5L0,-3.0L2.5,-0.5"/>
                </g>
        </g>
        <svg viewBox="0 0 15 15" width="100%" height="30px" preserveAspectRatio="xMaxYMin meet">
         <g id="arrow_out" transform="scale(0.3 0.3)">
          <a xlink:href="vec_8h__dep__incl_org.svg" target="_base">
           <rect id="button" ry="5" rx="5" y="6" x="6" height="38" width="38"
                fill="#f2f5e9" fill-opacity="0.5" stroke="#606060" stroke-width="1.0"/>
           <path id="arrow"
             d="M 11.500037,31.436501 C 11.940474,20.09759 22.043105,11.32322 32.158766,21.979434 L 37.068811,17.246167 C 37.068811,17.246167 37.088388,32 37.088388,32 L 22.160133,31.978069 C 22.160133,31.978069 26.997745,27.140456 26.997745,27.140456 C 18.528582,18.264221 13.291696,25.230495 11.500037,31.436501 z"
             style="fill:#404040;"/>
          </a>
         </g>
        </svg>
</svg>
