<?xml version="1.0" encoding="UTF-8" standalone="no"?>
<!DOCTYPE svg PUBLIC "-//W3C//DTD SVG 1.1//EN"
 "http://www.w3.org/Graphics/SVG/1.1/DTD/svg11.dtd">
<!-- Generated by graphviz version 2.43.0 (0)
 -->
<!-- Title: src/P2/vec.c Pages: 1 -->
<!--zoomable 532 -->
<svg id="main" version="1.1" xmlns="http://www.w3.org/2000/svg" xmlns:xlink="http://www.w3.org/1999/xlink" xml:space="preserve" onload="init(evt)">
<style type="text/css"><![CDATA[
.edge:hover path { stroke: red; }
.edge:hover polygon { stroke: red; fill: red; }
]]></style>
<script type="text/javascript"><![CDATA[
var edges = document.getElementsByTagName('g');
if (edges && edges.length) {
  for (var i=0;i<edges.length;i++) {
    if (edges[i].id.substr(0,4)=='edge') {
      edges[i].setAttribute('class','edge');
    }
  }
}
]]></script>
        <defs>
                <circle id="rim" cx="0" cy="0" r="7"/>
                <circle id="rim2" cx="0" cy="0" r="3.5"/>
                <g id="zoomPlus">
                        <use xlink:href="#rim" fill="#404040">
                                <set attributeName="fill" to="#808080" begin="zoomplus.mouseover" end="zoomplus.mouseout"/>
                        </use>
                        <path d="M-4,0h8M0,-4v8" fill="none" stroke="white" stroke-width="1.5" pointer-events="none"/>
                </g>
                <g id="zoomMin">
                        <use xlink:href="#rim" fill="#404040">
                                <set attributeName="fill" to="#808080" begin="zoomminus.mouseover" end="zoomminus.mouseout"/>
                        </use>
                        <path d="M-4,0h8" fill="none" stroke="white" stroke-width="1.5" pointer-events="none"/>
                </g>
                <g id="dirArrow">
                        <path fill="none" stroke="white" stroke-width="1.5" d="M0,-3.0v7 M-2.5,-0.5L0,-3.0L2.5,-0.5"/>
                </g>
               <g id="resetDef">
                       <use xlink:href="#rim2" fill="#404040">
                               <set attributeName="fill" to="#808080" begin="reset.mouseover" end="reset.mouseout"/>
                       </use>
               </g>
        </defs>

<script type="text/javascript">
var viewWidth = 653;
var viewHeight = 532;
var sectionId = 'dynsection-0';
</script>
<script xlink:href="svgpan.js"/>
<svg id="graph" class="graph">
<g id="viewport">
<title>src/P2/vec.c</title>
<polygon fill="white" stroke="transparent" points="-4,4 -4,-528 648.61,-528 648.61,4 -4,4"/>
<!-- Node1 -->
<g id="node1" class="node">
<title>Node1</title>
<g id="a_node1"><a xlink:title=" ">
<polygon fill="#bfbfbf" stroke="black" points="447.11,-504.5 447.11,-523.5 521.11,-523.5 521.11,-504.5 447.11,-504.5"/>
<text text-anchor="middle" x="484.11" y="-511.5" font-family="Helvetica,sans-Serif" font-size="10.00">src/P2/vec.c</text>
</a>
</g>
</g>
<!-- Node2 -->
<g id="node2" class="node">
<title>Node2</title>
<g id="a_node2"><a xlink:href="vec_8h.html" target="_top" xlink:title="Vector math functions.">
<polygon fill="white" stroke="black" points="437.61,-392.5 437.61,-411.5 480.61,-411.5 480.61,-392.5 437.61,-392.5"/>
<text text-anchor="middle" x="459.11" y="-399.5" font-family="Helvetica,sans-Serif" font-size="10.00">vec.h</text>
</a>
</g>
</g>
<!-- Node1&#45;&gt;Node2 -->
<g id="edge1" class="edge">
<title>Node1&#45;&gt;Node2</title>
<path fill="none" stroke="midnightblue" d="M482.15,-504.37C478.11,-486.62 468.8,-445.67 463.33,-421.6"/>
<polygon fill="midnightblue" stroke="midnightblue" points="466.69,-420.57 461.06,-411.59 459.86,-422.12 466.69,-420.57"/>
</g>
<!-- Node17 -->
<g id="node17" class="node">
<title>Node17</title>
<g id="a_node17"><a xlink:href="util_8h.html" target="_top" xlink:title="Utility functions.">
<polygon fill="white" stroke="black" points="488.61,-448.5 488.61,-467.5 529.61,-467.5 529.61,-448.5 488.61,-448.5"/>
<text text-anchor="middle" x="509.11" y="-455.5" font-family="Helvetica,sans-Serif" font-size="10.00">util.h</text>
</a>
</g>
</g>
<!-- Node1&#45;&gt;Node17 -->
<g id="edge26" class="edge">
<title>Node1&#45;&gt;Node17</title>
<path fill="none" stroke="midnightblue" d="M488.24,-504.08C491.62,-496.77 496.52,-486.18 500.73,-477.1"/>
<polygon fill="midnightblue" stroke="midnightblue" points="504.03,-478.3 505.06,-467.75 497.68,-475.36 504.03,-478.3"/>
</g>
<!-- Node3 -->
<g id="node3" class="node">
<title>Node3</title>
<g id="a_node3"><a xlink:href="so_8h.html" target="_top" xlink:title="Scene objects.">
<polygon fill="white" stroke="black" points="273.61,-336.5 273.61,-355.5 310.61,-355.5 310.61,-336.5 273.61,-336.5"/>
<text text-anchor="middle" x="292.11" y="-343.5" font-family="Helvetica,sans-Serif" font-size="10.00">so.h</text>
</a>
</g>
</g>
<!-- Node2&#45;&gt;Node3 -->
<g id="edge2" class="edge">
<title>Node2&#45;&gt;Node3</title>
<path fill="none" stroke="midnightblue" d="M437.27,-393.94C407.31,-384.25 353.4,-366.82 320.38,-356.14"/>
<polygon fill="midnightblue" stroke="midnightblue" points="321.45,-352.81 310.85,-353.06 319.29,-359.47 321.45,-352.81"/>
</g>
<!-- Node4 -->
<g id="node4" class="node">
<title>Node4</title>
<g id="a_node4"><a xlink:href="alo_8h.html" target="_top" xlink:title=" ">
<polygon fill="white" stroke="black" points="30.61,-280.5 30.61,-299.5 71.61,-299.5 71.61,-280.5 30.61,-280.5"/>
<text text-anchor="middle" x="51.11" y="-287.5" font-family="Helvetica,sans-Serif" font-size="10.00">alo.h</text>
</a>
</g>
</g>
<!-- Node3&#45;&gt;Node4 -->
<g id="edge3" class="edge">
<title>Node3&#45;&gt;Node4</title>
<path fill="none" stroke="midnightblue" d="M273.6,-340.85C232.33,-331.61 132.46,-309.23 81.75,-297.87"/>
<polygon fill="midnightblue" stroke="midnightblue" points="82.24,-294.39 71.71,-295.62 80.7,-301.22 82.24,-294.39"/>
</g>
<!-- Node5 -->
<g id="node5" class="node">
<title>Node5</title>
<g id="a_node5"><a xlink:href="common_8h.html" target="_top" xlink:title="Common header file.">
<polygon fill="white" stroke="black" points="248.11,-56.5 248.11,-75.5 316.11,-75.5 316.11,-56.5 248.11,-56.5"/>
<text text-anchor="middle" x="282.11" y="-63.5" font-family="Helvetica,sans-Serif" font-size="10.00">common.h</text>
</a>
</g>
</g>
<!-- Node4&#45;&gt;Node5 -->
<g id="edge4" class="edge">
<title>Node4&#45;&gt;Node5</title>
<path fill="none" stroke="midnightblue" d="M45.07,-280.24C26.28,-251.81 -27.27,-161.15 18.11,-112 47.07,-80.63 170.37,-71.11 237.73,-68.23"/>
<polygon fill="midnightblue" stroke="midnightblue" points="238.19,-71.72 248.04,-67.83 237.91,-64.72 238.19,-71.72"/>
</g>
<!-- Node9 -->
<g id="node9" class="node">
<title>Node9</title>
<g id="a_node9"><a xlink:href="lo_8h.html" target="_top" xlink:title="Level objects.">
<polygon fill="white" stroke="black" points="199.61,-224.5 199.61,-243.5 234.61,-243.5 234.61,-224.5 199.61,-224.5"/>
<text text-anchor="middle" x="217.11" y="-231.5" font-family="Helvetica,sans-Serif" font-size="10.00">lo.h</text>
</a>
</g>
</g>
<!-- Node4&#45;&gt;Node9 -->
<g id="edge8" class="edge">
<title>Node4&#45;&gt;Node9</title>
<path fill="none" stroke="midnightblue" d="M71.8,-282.27C101.57,-272.58 156.55,-254.7 189.68,-243.92"/>
<polygon fill="midnightblue" stroke="midnightblue" points="190.78,-247.24 199.21,-240.82 188.62,-240.59 190.78,-247.24"/>
</g>
<!-- Node13 -->
<g id="node13" class="node">
<title>Node13</title>
<g id="a_node13"><a xlink:href="dl_8h.html" target="_top" xlink:title=" ">
<polygon fill="white" stroke="black" points="22.61,-168.5 22.61,-187.5 57.61,-187.5 57.61,-168.5 22.61,-168.5"/>
<text text-anchor="middle" x="40.11" y="-175.5" font-family="Helvetica,sans-Serif" font-size="10.00">dl.h</text>
</a>
</g>
</g>
<!-- Node4&#45;&gt;Node13 -->
<g id="edge25" class="edge">
<title>Node4&#45;&gt;Node13</title>
<path fill="none" stroke="midnightblue" d="M50.24,-280.37C48.47,-262.62 44.37,-221.67 41.97,-197.6"/>
<polygon fill="midnightblue" stroke="midnightblue" points="45.44,-197.19 40.97,-187.59 38.48,-197.89 45.44,-197.19"/>
</g>
<!-- Node6 -->
<g id="node6" class="node">
<title>Node6</title>
<g id="a_node6"><a xlink:href="include__asm_8h.html" target="_top" xlink:title=" ">
<polygon fill="white" stroke="black" points="127.61,-0.5 127.61,-19.5 214.61,-19.5 214.61,-0.5 127.61,-0.5"/>
<text text-anchor="middle" x="171.11" y="-7.5" font-family="Helvetica,sans-Serif" font-size="10.00">include_asm.h</text>
</a>
</g>
</g>
<!-- Node5&#45;&gt;Node6 -->
<g id="edge5" class="edge">
<title>Node5&#45;&gt;Node6</title>
<path fill="none" stroke="midnightblue" d="M264.27,-56.32C246.39,-47.62 218.63,-34.12 198.06,-24.11"/>
<polygon fill="midnightblue" stroke="midnightblue" points="199.42,-20.88 188.9,-19.65 196.36,-27.18 199.42,-20.88"/>
</g>
<!-- Node7 -->
<g id="node7" class="node">
<title>Node7</title>
<g id="a_node7"><a xlink:href="include__rodata_8h.html" target="_top" xlink:title=" ">
<polygon fill="white" stroke="black" points="233.11,-0.5 233.11,-19.5 331.11,-19.5 331.11,-0.5 233.11,-0.5"/>
<text text-anchor="middle" x="282.11" y="-7.5" font-family="Helvetica,sans-Serif" font-size="10.00">include_rodata.h</text>
</a>
</g>
</g>
<!-- Node5&#45;&gt;Node7 -->
<g id="edge6" class="edge">
<title>Node5&#45;&gt;Node7</title>
<path fill="none" stroke="midnightblue" d="M282.11,-56.08C282.11,-49.01 282.11,-38.86 282.11,-29.99"/>
<polygon fill="midnightblue" stroke="midnightblue" points="285.61,-29.75 282.11,-19.75 278.61,-29.75 285.61,-29.75"/>
</g>
<!-- Node8 -->
<g id="node8" class="node">
<title>Node8</title>
<g id="a_node8"><a xlink:href="types_8h.html" target="_top" xlink:title="Types used throughout the engine.">
<polygon fill="white" stroke="black" points="349.61,-0.5 349.61,-19.5 402.61,-19.5 402.61,-0.5 349.61,-0.5"/>
<text text-anchor="middle" x="376.11" y="-7.5" font-family="Helvetica,sans-Serif" font-size="10.00">types.h</text>
</a>
</g>
</g>
<!-- Node5&#45;&gt;Node8 -->
<g id="edge7" class="edge">
<title>Node5&#45;&gt;Node8</title>
<path fill="none" stroke="midnightblue" d="M297.21,-56.32C312.01,-47.82 334.8,-34.73 352.09,-24.8"/>
<polygon fill="midnightblue" stroke="midnightblue" points="354.11,-27.67 361.04,-19.65 350.63,-21.6 354.11,-27.67"/>
</g>
<!-- Node9&#45;&gt;Node5 -->
<g id="edge9" class="edge">
<title>Node9&#45;&gt;Node5</title>
<path fill="none" stroke="midnightblue" d="M201.91,-224.49C168.56,-204.73 94.34,-154.22 126.11,-112 139.58,-94.09 196.51,-81.07 237.71,-73.77"/>
<polygon fill="midnightblue" stroke="midnightblue" points="238.54,-77.18 247.81,-72.04 237.36,-70.28 238.54,-77.18"/>
</g>
<!-- Node10 -->
<g id="node10" class="node">
<title>Node10</title>
<g id="a_node10"><a xlink:href="oid_8h.html" target="_top" xlink:title="Object IDs.">
<polygon fill="white" stroke="black" points="37.61,-112.5 37.61,-131.5 78.61,-131.5 78.61,-112.5 37.61,-112.5"/>
<text text-anchor="middle" x="58.11" y="-119.5" font-family="Helvetica,sans-Serif" font-size="10.00">oid.h</text>
</a>
</g>
</g>
<!-- Node9&#45;&gt;Node10 -->
<g id="edge10" class="edge">
<title>Node9&#45;&gt;Node10</title>
<path fill="none" stroke="midnightblue" d="M199.43,-228.5C177.01,-222.18 137.92,-209.02 110.11,-188 92.7,-174.85 77.75,-154.61 68.4,-140.21"/>
<polygon fill="midnightblue" stroke="midnightblue" points="71.37,-138.35 63.1,-131.73 65.43,-142.06 71.37,-138.35"/>
</g>
<!-- Node11 -->
<g id="node11" class="node">
<title>Node11</title>
<g id="a_node11"><a xlink:href="basic_8h.html" target="_top" xlink:title="Basic object.">
<polygon fill="white" stroke="black" points="191.61,-168.5 191.61,-187.5 242.61,-187.5 242.61,-168.5 191.61,-168.5"/>
<text text-anchor="middle" x="217.11" y="-175.5" font-family="Helvetica,sans-Serif" font-size="10.00">basic.h</text>
</a>
</g>
</g>
<!-- Node9&#45;&gt;Node11 -->
<g id="edge12" class="edge">
<title>Node9&#45;&gt;Node11</title>
<path fill="none" stroke="midnightblue" d="M217.11,-224.08C217.11,-217.01 217.11,-206.86 217.11,-197.99"/>
<polygon fill="midnightblue" stroke="midnightblue" points="220.61,-197.75 217.11,-187.75 213.61,-197.75 220.61,-197.75"/>
</g>
<!-- Node9&#45;&gt;Node13 -->
<g id="edge16" class="edge">
<title>Node9&#45;&gt;Node13</title>
<path fill="none" stroke="midnightblue" d="M199.49,-227.62C168.48,-218.16 103.95,-198.48 67.23,-187.27"/>
<polygon fill="midnightblue" stroke="midnightblue" points="68.24,-183.92 57.65,-184.35 66.2,-190.62 68.24,-183.92"/>
</g>
<!-- Node14 -->
<g id="node14" class="node">
<title>Node14</title>
<g id="a_node14"><a xlink:href="sw_8h.html" target="_top" xlink:title="Scene world?">
<polygon fill="white" stroke="black" points="287.11,-112.5 287.11,-131.5 325.11,-131.5 325.11,-112.5 287.11,-112.5"/>
<text text-anchor="middle" x="306.11" y="-119.5" font-family="Helvetica,sans-Serif" font-size="10.00">sw.h</text>
</a>
</g>
</g>
<!-- Node9&#45;&gt;Node14 -->
<g id="edge19" class="edge">
<title>Node9&#45;&gt;Node14</title>
<path fill="none" stroke="midnightblue" d="M224.09,-224.37C238.84,-206.14 273.4,-163.43 292.62,-139.68"/>
<polygon fill="midnightblue" stroke="midnightblue" points="295.59,-141.57 299.16,-131.59 290.14,-137.16 295.59,-141.57"/>
</g>
<!-- Node15 -->
<g id="node15" class="node">
<title>Node15</title>
<g id="a_node15"><a xlink:href="frame_8h.html" target="_top" xlink:title=" ">
<polygon fill="white" stroke="black" points="343.11,-112.5 343.11,-131.5 429.11,-131.5 429.11,-112.5 343.11,-112.5"/>
<text text-anchor="middle" x="386.11" y="-119.5" font-family="Helvetica,sans-Serif" font-size="10.00">splice/frame.h</text>
</a>
</g>
</g>
<!-- Node9&#45;&gt;Node15 -->
<g id="edge21" class="edge">
<title>Node9&#45;&gt;Node15</title>
<path fill="none" stroke="midnightblue" d="M230.37,-224.37C259.37,-205.49 328.67,-160.38 364.23,-137.24"/>
<polygon fill="midnightblue" stroke="midnightblue" points="366.44,-139.98 372.91,-131.59 362.62,-134.11 366.44,-139.98"/>
</g>
<!-- Node16 -->
<g id="node16" class="node">
<title>Node16</title>
<g id="a_node16"><a xlink:href="mq_8h.html" target="_top" xlink:title="Message queue(?).">
<polygon fill="white" stroke="black" points="463.61,-168.5 463.61,-187.5 504.61,-187.5 504.61,-168.5 463.61,-168.5"/>
<text text-anchor="middle" x="484.11" y="-175.5" font-family="Helvetica,sans-Serif" font-size="10.00">mq.h</text>
</a>
</g>
</g>
<!-- Node9&#45;&gt;Node16 -->
<g id="edge23" class="edge">
<title>Node9&#45;&gt;Node16</title>
<path fill="none" stroke="midnightblue" d="M234.63,-229.46C279.09,-220.46 396.8,-196.66 453.17,-185.26"/>
<polygon fill="midnightblue" stroke="midnightblue" points="454.16,-188.63 463.27,-183.21 452.77,-181.77 454.16,-188.63"/>
</g>
<!-- Node10&#45;&gt;Node5 -->
<g id="edge11" class="edge">
<title>Node10&#45;&gt;Node5</title>
<path fill="none" stroke="midnightblue" d="M78.82,-115.61C83.51,-114.4 88.48,-113.15 93.11,-112 142.7,-99.72 199.77,-86.22 238.11,-77.24"/>
<polygon fill="midnightblue" stroke="midnightblue" points="238.98,-80.63 247.92,-74.95 237.38,-73.82 238.98,-80.63"/>
</g>
<!-- Node11&#45;&gt;Node5 -->
<g id="edge13" class="edge">
<title>Node11&#45;&gt;Node5</title>
<path fill="none" stroke="midnightblue" d="M222.21,-168.37C232.89,-150.3 257.78,-108.18 271.88,-84.31"/>
<polygon fill="midnightblue" stroke="midnightblue" points="274.96,-85.98 277.03,-75.59 268.93,-82.42 274.96,-85.98"/>
</g>
<!-- Node12 -->
<g id="node12" class="node">
<title>Node12</title>
<g id="a_node12"><a xlink:href="sidebag_8h.html" target="_top" xlink:title="Sidebag for splice.">
<polygon fill="white" stroke="black" points="135.61,-112.5 135.61,-131.5 230.61,-131.5 230.61,-112.5 135.61,-112.5"/>
<text text-anchor="middle" x="183.11" y="-119.5" font-family="Helvetica,sans-Serif" font-size="10.00">splice/sidebag.h</text>
</a>
</g>
</g>
<!-- Node11&#45;&gt;Node12 -->
<g id="edge14" class="edge">
<title>Node11&#45;&gt;Node12</title>
<path fill="none" stroke="midnightblue" d="M211.49,-168.08C206.74,-160.53 199.79,-149.49 193.96,-140.23"/>
<polygon fill="midnightblue" stroke="midnightblue" points="196.91,-138.35 188.62,-131.75 190.98,-142.08 196.91,-138.35"/>
</g>
<!-- Node12&#45;&gt;Node5 -->
<g id="edge15" class="edge">
<title>Node12&#45;&gt;Node5</title>
<path fill="none" stroke="midnightblue" d="M199.01,-112.32C214.74,-103.74 239.05,-90.49 257.32,-80.52"/>
<polygon fill="midnightblue" stroke="midnightblue" points="259.14,-83.52 266.24,-75.65 255.79,-77.37 259.14,-83.52"/>
</g>
<!-- Node13&#45;&gt;Node5 -->
<g id="edge17" class="edge">
<title>Node13&#45;&gt;Node5</title>
<path fill="none" stroke="midnightblue" d="M34.57,-168.31C26.68,-154.68 14.54,-128.18 28.11,-112 54.39,-80.65 172.56,-71.13 238.05,-68.24"/>
<polygon fill="midnightblue" stroke="midnightblue" points="238.24,-71.74 248.09,-67.84 237.95,-64.74 238.24,-71.74"/>
</g>
<!-- Node13&#45;&gt;Node10 -->
<g id="edge18" class="edge">
<title>Node13&#45;&gt;Node10</title>
<path fill="none" stroke="midnightblue" d="M43.08,-168.08C45.49,-160.85 48.97,-150.41 51.97,-141.4"/>
<polygon fill="midnightblue" stroke="midnightblue" points="55.35,-142.34 55.19,-131.75 48.71,-140.13 55.35,-142.34"/>
</g>
<!-- Node14&#45;&gt;Node5 -->
<g id="edge20" class="edge">
<title>Node14&#45;&gt;Node5</title>
<path fill="none" stroke="midnightblue" d="M302.14,-112.08C298.89,-104.77 294.19,-94.18 290.15,-85.1"/>
<polygon fill="midnightblue" stroke="midnightblue" points="293.26,-83.47 286,-75.75 286.86,-86.31 293.26,-83.47"/>
</g>
<!-- Node15&#45;&gt;Node5 -->
<g id="edge22" class="edge">
<title>Node15&#45;&gt;Node5</title>
<path fill="none" stroke="midnightblue" d="M369.4,-112.32C352.79,-103.7 327.1,-90.36 307.89,-80.39"/>
<polygon fill="midnightblue" stroke="midnightblue" points="309.26,-77.16 298.77,-75.65 306.04,-83.37 309.26,-77.16"/>
</g>
<!-- Node16&#45;&gt;Node5 -->
<g id="edge24" class="edge">
<title>Node16&#45;&gt;Node5</title>
<path fill="none" stroke="midnightblue" d="M485.09,-168.08C486.09,-154.15 485.81,-127.24 471.11,-112 451.38,-91.54 375.73,-78.52 326.33,-72.01"/>
<polygon fill="midnightblue" stroke="midnightblue" points="326.58,-68.51 316.21,-70.72 325.69,-75.45 326.58,-68.51"/>
</g>
<!-- Node17&#45;&gt;Node2 -->
<g id="edge29" class="edge">
<title>Node17&#45;&gt;Node2</title>
<path fill="none" stroke="midnightblue" d="M500.85,-448.08C493.64,-440.3 483,-428.8 474.26,-419.37"/>
<polygon fill="midnightblue" stroke="midnightblue" points="476.57,-416.71 467.21,-411.75 471.44,-421.47 476.57,-416.71"/>
</g>
<!-- Node17&#45;&gt;Node5 -->
<g id="edge27" class="edge">
<title>Node17&#45;&gt;Node5</title>
<path fill="none" stroke="midnightblue" d="M518.26,-448.25C535.5,-430.77 571.11,-389.53 571.11,-347 571.11,-347 571.11,-347 571.11,-177 571.11,-141.09 553.54,-131.07 523.11,-112 490.97,-91.87 386.81,-77.96 326.46,-71.36"/>
<polygon fill="midnightblue" stroke="midnightblue" points="326.76,-67.88 316.45,-70.29 326.02,-74.84 326.76,-67.88"/>
</g>
<!-- Node18 -->
<g id="node18" class="node">
<title>Node18</title>
<g id="a_node18"><a xlink:href="mat_8h.html" target="_top" xlink:title="3x3 and 4x4 matrix types.">
<polygon fill="white" stroke="black" points="599.61,-392.5 599.61,-411.5 644.61,-411.5 644.61,-392.5 599.61,-392.5"/>
<text text-anchor="middle" x="622.11" y="-399.5" font-family="Helvetica,sans-Serif" font-size="10.00">mat.h</text>
</a>
</g>
</g>
<!-- Node17&#45;&gt;Node18 -->
<g id="edge28" class="edge">
<title>Node17&#45;&gt;Node18</title>
<path fill="none" stroke="midnightblue" d="M527.01,-448.44C545.36,-439.68 574.11,-425.94 595.2,-415.86"/>
<polygon fill="midnightblue" stroke="midnightblue" points="596.77,-418.99 604.29,-411.52 593.75,-412.67 596.77,-418.99"/>
</g>
<!-- Node19 -->
<g id="node19" class="node">
<title>Node19</title>
<g id="a_node19"><a xlink:href="sm_8h.html" target="_top" xlink:title="State machines.">
<polygon fill="white" stroke="black" points="465.61,-336.5 465.61,-355.5 506.61,-355.5 506.61,-336.5 465.61,-336.5"/>
<text text-anchor="middle" x="486.11" y="-343.5" font-family="Helvetica,sans-Serif" font-size="10.00">sm.h</text>
</a>
</g>
</g>
<!-- Node17&#45;&gt;Node19 -->
<g id="edge30" class="edge">
<title>Node17&#45;&gt;Node19</title>
<path fill="none" stroke="midnightblue" d="M507.3,-448.37C503.59,-430.62 495.03,-389.67 490,-365.6"/>
<polygon fill="midnightblue" stroke="midnightblue" points="493.38,-364.66 487.9,-355.59 486.52,-366.1 493.38,-364.66"/>
</g>
<!-- Node19&#45;&gt;Node5 -->
<g id="edge31" class="edge">
<title>Node19&#45;&gt;Node5</title>
<path fill="none" stroke="midnightblue" d="M492.64,-336.41C505.56,-318.56 533.11,-275.7 533.11,-235 533.11,-235 533.11,-235 533.11,-177 533.11,-87.78 398.42,-70.25 326.37,-67.25"/>
<polygon fill="midnightblue" stroke="midnightblue" points="326.33,-63.75 316.22,-66.91 326.09,-70.74 326.33,-63.75"/>
</g>
<!-- Node19&#45;&gt;Node13 -->
<g id="edge32" class="edge">
<title>Node19&#45;&gt;Node13</title>
<path fill="none" stroke="midnightblue" d="M465.45,-338.58C416.94,-323.37 292.16,-283.45 190.11,-244 146.58,-227.18 97.09,-205.15 67.25,-191.55"/>
<polygon fill="midnightblue" stroke="midnightblue" points="68.47,-188.25 57.92,-187.27 65.56,-194.62 68.47,-188.25"/>
</g>
<!-- Node19&#45;&gt;Node16 -->
<g id="edge36" class="edge">
<title>Node19&#45;&gt;Node16</title>
<path fill="none" stroke="midnightblue" d="M486,-336.08C485.68,-309.95 484.76,-233.21 484.33,-197.58"/>
<polygon fill="midnightblue" stroke="midnightblue" points="487.83,-197.53 484.21,-187.57 480.83,-197.61 487.83,-197.53"/>
</g>
<!-- Node20 -->
<g id="node20" class="node">
<title>Node20</title>
<g id="a_node20"><a xlink:href="anim_8h.html" target="_top" xlink:title="Animation.">
<polygon fill="white" stroke="black" points="408.11,-280.5 408.11,-299.5 458.11,-299.5 458.11,-280.5 408.11,-280.5"/>
<text text-anchor="middle" x="433.11" y="-287.5" font-family="Helvetica,sans-Serif" font-size="10.00">anim.h</text>
</a>
</g>
</g>
<!-- Node19&#45;&gt;Node20 -->
<g id="edge33" class="edge">
<title>Node19&#45;&gt;Node20</title>
<path fill="none" stroke="midnightblue" d="M477.35,-336.08C469.64,-328.22 458.2,-316.57 448.89,-307.08"/>
<polygon fill="midnightblue" stroke="midnightblue" points="451.2,-304.44 441.7,-299.75 446.2,-309.34 451.2,-304.44"/>
</g>
<!-- Node20&#45;&gt;Node5 -->
<g id="edge34" class="edge">
<title>Node20&#45;&gt;Node5</title>
<path fill="none" stroke="midnightblue" d="M434.74,-280.23C440.46,-248.3 458.25,-138.78 438.11,-112 424.63,-94.09 367.7,-81.07 326.5,-73.77"/>
<polygon fill="midnightblue" stroke="midnightblue" points="326.85,-70.28 316.4,-72.04 325.67,-77.18 326.85,-70.28"/>
</g>
<!-- Node20&#45;&gt;Node9 -->
<g id="edge35" class="edge">
<title>Node20&#45;&gt;Node9</title>
<path fill="none" stroke="midnightblue" d="M407.91,-282.7C367.07,-272.49 286.78,-252.42 244.55,-241.86"/>
<polygon fill="midnightblue" stroke="midnightblue" points="245.23,-238.42 234.68,-239.39 243.54,-245.22 245.23,-238.42"/>
</g>
</g>
</svg>
        <g id="navigator" transform="translate(0 0)" fill="#404254">
                <rect fill="#f2f5e9" fill-opacity="0.5" stroke="#606060" stroke-width=".5" x="0" y="0" width="60" height="60"/>
                <use id="zoomplus" xlink:href="#zoomPlus" x="17" y="9" onmousedown="handleZoom(evt,'in')"/>
                <use id="zoomminus" xlink:href="#zoomMin" x="42" y="9" onmousedown="handleZoom(evt,'out')"/>
                <use id="reset" xlink:href="#resetDef" x="30" y="36" onmousedown="handleReset()"/>
                <g id="arrowUp" xlink:href="#dirArrow" transform="translate(30 24)" onmousedown="handlePan(0,-1)">
                  <use xlink:href="#rim" fill="#404040">
                        <set attributeName="fill" to="#808080" begin="arrowUp.mouseover" end="arrowUp.mouseout"/>
                  </use>
                  <path fill="none" stroke="white" stroke-width="1.5" d="M0,-3.0v7 M-2.5,-0.5L0,-3.0L2.5,-0.5"/>
                </g>
                <g id="arrowRight" xlink:href="#dirArrow" transform="rotate(90) translate(36 -43)" onmousedown="handlePan(1,0)">
                  <use xlink:href="#rim" fill="#404040">
                        <set attributeName="fill" to="#808080" begin="arrowRight.mouseover" end="arrowRight.mouseout"/>
                  </use>
                  <path fill="none" stroke="white" stroke-width="1.5" d="M0,-3.0v7 M-2.5,-0.5L0,-3.0L2.5,-0.5"/>
                </g>
                <g id="arrowDown" xlink:href="#dirArrow" transform="rotate(180) translate(-30 -48)" onmousedown="handlePan(0,1)">
                  <use xlink:href="#rim" fill="#404040">
                        <set attributeName="fill" to="#808080" begin="arrowDown.mouseover" end="arrowDown.mouseout"/>
                  </use>
                  <path fill="none" stroke="white" stroke-width="1.5" d="M0,-3.0v7 M-2.5,-0.5L0,-3.0L2.5,-0.5"/>
                </g>
                <g id="arrowLeft" xlink:href="#dirArrow" transform="rotate(270) translate(-36 17)" onmousedown="handlePan(-1,0)">
                  <use xlink:href="#rim" fill="#404040">
                        <set attributeName="fill" to="#808080" begin="arrowLeft.mouseover" end="arrowLeft.mouseout"/>
                  </use>
                  <path fill="none" stroke="white" stroke-width="1.5" d="M0,-3.0v7 M-2.5,-0.5L0,-3.0L2.5,-0.5"/>
                </g>
        </g>
        <svg viewBox="0 0 15 15" width="100%" height="30px" preserveAspectRatio="xMaxYMin meet">
         <g id="arrow_out" transform="scale(0.3 0.3)">
          <a xlink:href="vec_8c__incl_org.svg" target="_base">
           <rect id="button" ry="5" rx="5" y="6" x="6" height="38" width="38"
                fill="#f2f5e9" fill-opacity="0.5" stroke="#606060" stroke-width="1.0"/>
           <path id="arrow"
             d="M 11.500037,31.436501 C 11.940474,20.09759 22.043105,11.32322 32.158766,21.979434 L 37.068811,17.246167 C 37.068811,17.246167 37.088388,32 37.088388,32 L 22.160133,31.978069 C 22.160133,31.978069 26.997745,27.140456 26.997745,27.140456 C 18.528582,18.264221 13.291696,25.230495 11.500037,31.436501 z"
             style="fill:#404040;"/>
          </a>
         </g>
        </svg>
</svg>
