<?xml version="1.0" encoding="UTF-8" standalone="no"?>
<!DOCTYPE svg PUBLIC "-//W3C//DTD SVG 1.1//EN"
 "http://www.w3.org/Graphics/SVG/1.1/DTD/svg11.dtd">
<!-- Generated by graphviz version 2.43.0 (0)
 -->
<!-- Title: src/P2/splice/vecmat.cpp Pages: 1 -->
<svg width="464pt" height="357pt"
 viewBox="0.00 0.00 463.50 357.00" xmlns="http://www.w3.org/2000/svg" xmlns:xlink="http://www.w3.org/1999/xlink">
<g id="graph0" class="graph" transform="scale(1 1) rotate(0) translate(4 353)">
<title>src/P2/splice/vecmat.cpp</title>
<!-- Node1 -->
<g id="Node000001" class="node">
<title>Node1</title>
<g id="a_Node000001"><a xlink:title=" ">
<polygon fill="#999999" stroke="#666666" points="320.5,-349 183.5,-349 183.5,-330 320.5,-330 320.5,-349"/>
<text text-anchor="middle" x="252" y="-337" font-family="Helvetica,sans-Serif" font-size="10.00">src/P2/splice/vecmat.cpp</text>
</a>
</g>
</g>
<!-- Node2 -->
<g id="Node000002" class="node">
<title>Node2</title>
<g id="a_Node000002"><a xlink:href="vecmat_8h.html" target="_top" xlink:title=" ">
<polygon fill="white" stroke="#666666" points="94,-294 0,-294 0,-275 94,-275 94,-294"/>
<text text-anchor="middle" x="47" y="-282" font-family="Helvetica,sans-Serif" font-size="10.00">splice/vecmat.h</text>
</a>
</g>
</g>
<!-- Node1&#45;&gt;Node2 -->
<g id="edge1_Node000001_Node000002" class="edge">
<title>Node1&#45;&gt;Node2</title>
<g id="a_edge1_Node000001_Node000002"><a xlink:title=" ">
<path fill="none" stroke="#63b8ff" d="M219.06,-329.98C184.05,-320.93 128.53,-306.58 90.07,-296.64"/>
<polygon fill="#63b8ff" stroke="#63b8ff" points="90.75,-293.2 80.19,-294.08 89,-299.97 90.75,-293.2"/>
</a>
</g>
</g>
<!-- Node14 -->
<g id="Node000014" class="node">
<title>Node14</title>
<g id="a_Node000014"><a xlink:href="memset_8h.html" target="_top" xlink:title="Memset.">
<polygon fill="white" stroke="#666666" points="200,-294 114,-294 114,-275 200,-275 200,-294"/>
<text text-anchor="middle" x="157" y="-282" font-family="Helvetica,sans-Serif" font-size="10.00">sce/memset.h</text>
</a>
</g>
</g>
<!-- Node1&#45;&gt;Node14 -->
<g id="edge19_Node000001_Node000014" class="edge">
<title>Node1&#45;&gt;Node14</title>
<g id="a_edge19_Node000001_Node000014"><a xlink:title=" ">
<path fill="none" stroke="#63b8ff" d="M236.74,-329.98C221.87,-321.69 199.02,-308.94 181.58,-299.22"/>
<polygon fill="#63b8ff" stroke="#63b8ff" points="182.98,-295.99 172.54,-294.17 179.57,-302.1 182.98,-295.99"/>
</a>
</g>
</g>
<!-- Node16 -->
<g id="Node000016" class="node">
<title>Node16</title>
<g id="a_Node000016"><a xlink:href="gc_8h.html" target="_top" xlink:title=" ">
<polygon fill="white" stroke="#666666" points="286,-294 218,-294 218,-275 286,-275 286,-294"/>
<text text-anchor="middle" x="252" y="-282" font-family="Helvetica,sans-Serif" font-size="10.00">splice/gc.h</text>
</a>
</g>
</g>
<!-- Node1&#45;&gt;Node16 -->
<g id="edge21_Node000001_Node000016" class="edge">
<title>Node1&#45;&gt;Node16</title>
<g id="a_edge21_Node000001_Node000016"><a xlink:title=" ">
<path fill="none" stroke="#63b8ff" d="M252,-329.75C252,-322.8 252,-312.85 252,-304.13"/>
<polygon fill="#63b8ff" stroke="#63b8ff" points="255.5,-304.09 252,-294.09 248.5,-304.09 255.5,-304.09"/>
</a>
</g>
</g>
<!-- Node17 -->
<g id="Node000017" class="node">
<title>Node17</title>
<g id="a_Node000017"><a xlink:href="slotheap_8h.html" target="_top" xlink:title="Fixed&#45;size memory pool allocator using a linked list of free slots.">
<polygon fill="white" stroke="#666666" points="372,-294 304,-294 304,-275 372,-275 372,-294"/>
<text text-anchor="middle" x="338" y="-282" font-family="Helvetica,sans-Serif" font-size="10.00">slotheap.h</text>
</a>
</g>
</g>
<!-- Node1&#45;&gt;Node17 -->
<g id="edge22_Node000001_Node000017" class="edge">
<title>Node1&#45;&gt;Node17</title>
<g id="a_edge22_Node000001_Node000017"><a xlink:title=" ">
<path fill="none" stroke="#63b8ff" d="M265.82,-329.98C279.15,-321.77 299.58,-309.18 315.31,-299.49"/>
<polygon fill="#63b8ff" stroke="#63b8ff" points="317.25,-302.4 323.93,-294.17 313.58,-296.44 317.25,-302.4"/>
</a>
</g>
</g>
<!-- Node18 -->
<g id="Node000018" class="node">
<title>Node18</title>
<g id="a_Node000018"><a xlink:href="memory_8h.html" target="_top" xlink:title=" ">
<polygon fill="white" stroke="#666666" points="455.5,-294 390.5,-294 390.5,-275 455.5,-275 455.5,-294"/>
<text text-anchor="middle" x="423" y="-282" font-family="Helvetica,sans-Serif" font-size="10.00">memory.h</text>
</a>
</g>
</g>
<!-- Node1&#45;&gt;Node18 -->
<g id="edge23_Node000001_Node000018" class="edge">
<title>Node1&#45;&gt;Node18</title>
<g id="a_edge23_Node000001_Node000018"><a xlink:title=" ">
<path fill="none" stroke="#63b8ff" d="M279.47,-329.98C308.18,-321.09 353.42,-307.07 385.42,-297.15"/>
<polygon fill="#63b8ff" stroke="#63b8ff" points="386.8,-300.39 395.31,-294.08 384.72,-293.7 386.8,-300.39"/>
</a>
</g>
</g>
<!-- Node3 -->
<g id="Node000003" class="node">
<title>Node3</title>
<g id="a_Node000003"><a xlink:href="vec_8h.html" target="_top" xlink:title="Vector math.">
<polygon fill="white" stroke="#666666" points="64.5,-129 21.5,-129 21.5,-110 64.5,-110 64.5,-129"/>
<text text-anchor="middle" x="43" y="-117" font-family="Helvetica,sans-Serif" font-size="10.00">vec.h</text>
</a>
</g>
</g>
<!-- Node2&#45;&gt;Node3 -->
<g id="edge2_Node000002_Node000003" class="edge">
<title>Node2&#45;&gt;Node3</title>
<g id="a_edge2_Node000002_Node000003"><a xlink:title=" ">
<path fill="none" stroke="#63b8ff" d="M40.69,-274.85C27.2,-255.23 -2.19,-205.93 11,-165 14.34,-154.62 21.1,-144.62 27.55,-136.74"/>
<polygon fill="#63b8ff" stroke="#63b8ff" points="30.29,-138.92 34.25,-129.1 25.03,-134.31 30.29,-138.92"/>
</a>
</g>
</g>
<!-- Node4 -->
<g id="Node000004" class="node">
<title>Node4</title>
<g id="a_Node000004"><a xlink:href="mat_8h.html" target="_top" xlink:title="3x3 and 4x4 matrix types.">
<polygon fill="white" stroke="#666666" points="65.5,-184 20.5,-184 20.5,-165 65.5,-165 65.5,-184"/>
<text text-anchor="middle" x="43" y="-172" font-family="Helvetica,sans-Serif" font-size="10.00">mat.h</text>
</a>
</g>
</g>
<!-- Node2&#45;&gt;Node4 -->
<g id="edge3_Node000002_Node000004" class="edge">
<title>Node2&#45;&gt;Node4</title>
<g id="a_edge3_Node000002_Node000004"><a xlink:title=" ">
<path fill="none" stroke="#63b8ff" d="M46.67,-274.66C46.02,-257.17 44.57,-217.8 43.7,-194.27"/>
<polygon fill="#63b8ff" stroke="#63b8ff" points="47.19,-194.02 43.32,-184.16 40.19,-194.28 47.19,-194.02"/>
</a>
</g>
</g>
<!-- Node5 -->
<g id="Node000005" class="node">
<title>Node5</title>
<g id="a_Node000005"><a xlink:href="util_8h.html" target="_top" xlink:title="Utility functions.">
<polygon fill="white" stroke="#666666" points="112.5,-239 71.5,-239 71.5,-220 112.5,-220 112.5,-239"/>
<text text-anchor="middle" x="92" y="-227" font-family="Helvetica,sans-Serif" font-size="10.00">util.h</text>
</a>
</g>
</g>
<!-- Node2&#45;&gt;Node5 -->
<g id="edge5_Node000002_Node000005" class="edge">
<title>Node2&#45;&gt;Node5</title>
<g id="a_edge5_Node000002_Node000005"><a xlink:title=" ">
<path fill="none" stroke="#63b8ff" d="M54.43,-274.75C60.85,-267.18 70.31,-256.05 78.12,-246.84"/>
<polygon fill="#63b8ff" stroke="#63b8ff" points="80.9,-248.98 84.71,-239.09 75.57,-244.45 80.9,-248.98"/>
</a>
</g>
</g>
<!-- Node4&#45;&gt;Node3 -->
<g id="edge4_Node000004_Node000003" class="edge">
<title>Node4&#45;&gt;Node3</title>
<g id="a_edge4_Node000004_Node000003"><a xlink:title=" ">
<path fill="none" stroke="#63b8ff" d="M43,-164.75C43,-157.8 43,-147.85 43,-139.13"/>
<polygon fill="#63b8ff" stroke="#63b8ff" points="46.5,-139.09 43,-129.09 39.5,-139.09 46.5,-139.09"/>
</a>
</g>
</g>
<!-- Node5&#45;&gt;Node3 -->
<g id="edge6_Node000005_Node000003" class="edge">
<title>Node5&#45;&gt;Node3</title>
<g id="a_edge6_Node000005_Node000003"><a xlink:title=" ">
<path fill="none" stroke="#63b8ff" d="M90.52,-219.96C88.14,-207.46 82.83,-183.64 74,-165 69.37,-155.23 62.66,-145.28 56.67,-137.26"/>
<polygon fill="#63b8ff" stroke="#63b8ff" points="59.26,-134.9 50.35,-129.16 53.74,-139.2 59.26,-134.9"/>
</a>
</g>
</g>
<!-- Node5&#45;&gt;Node4 -->
<g id="edge7_Node000005_Node000004" class="edge">
<title>Node5&#45;&gt;Node4</title>
<g id="a_edge7_Node000005_Node000004"><a xlink:title=" ">
<path fill="none" stroke="#63b8ff" d="M83.91,-219.75C76.84,-212.11 66.41,-200.82 57.85,-191.56"/>
<polygon fill="#63b8ff" stroke="#63b8ff" points="60.3,-189.06 50.94,-184.09 55.16,-193.81 60.3,-189.06"/>
</a>
</g>
</g>
<!-- Node6 -->
<g id="Node000006" class="node">
<title>Node6</title>
<g id="a_Node000006"><a xlink:href="sm_8h.html" target="_top" xlink:title="Probabilistic finite state machines.">
<polygon fill="white" stroke="#666666" points="163.5,-184 122.5,-184 122.5,-165 163.5,-165 163.5,-184"/>
<text text-anchor="middle" x="143" y="-172" font-family="Helvetica,sans-Serif" font-size="10.00">sm.h</text>
</a>
</g>
</g>
<!-- Node5&#45;&gt;Node6 -->
<g id="edge8_Node000005_Node000006" class="edge">
<title>Node5&#45;&gt;Node6</title>
<g id="a_edge8_Node000005_Node000006"><a xlink:title=" ">
<path fill="none" stroke="#63b8ff" d="M100.42,-219.75C107.77,-212.11 118.63,-200.82 127.54,-191.56"/>
<polygon fill="#63b8ff" stroke="#63b8ff" points="130.32,-193.72 134.74,-184.09 125.28,-188.87 130.32,-193.72"/>
</a>
</g>
</g>
<!-- Node7 -->
<g id="Node000007" class="node">
<title>Node7</title>
<g id="a_Node000007"><a xlink:href="dl_8h.html" target="_top" xlink:title="Doubly&#45;linked list.">
<polygon fill="white" stroke="#666666" points="60.5,-74 25.5,-74 25.5,-55 60.5,-55 60.5,-74"/>
<text text-anchor="middle" x="43" y="-62" font-family="Helvetica,sans-Serif" font-size="10.00">dl.h</text>
</a>
</g>
</g>
<!-- Node6&#45;&gt;Node7 -->
<g id="edge9_Node000006_Node000007" class="edge">
<title>Node6&#45;&gt;Node7</title>
<g id="a_edge9_Node000006_Node000007"><a xlink:title=" ">
<path fill="none" stroke="#63b8ff" d="M134.82,-164.66C118.03,-146.54 79.49,-104.91 58.07,-81.77"/>
<polygon fill="#63b8ff" stroke="#63b8ff" points="60.38,-79.12 51.02,-74.16 55.24,-83.87 60.38,-79.12"/>
</a>
</g>
</g>
<!-- Node9 -->
<g id="Node000009" class="node">
<title>Node9</title>
<g id="a_Node000009"><a xlink:href="mq_8h.html" target="_top" xlink:title="Message queue.">
<polygon fill="white" stroke="#666666" points="332.5,-74 291.5,-74 291.5,-55 332.5,-55 332.5,-74"/>
<text text-anchor="middle" x="312" y="-62" font-family="Helvetica,sans-Serif" font-size="10.00">mq.h</text>
</a>
</g>
</g>
<!-- Node6&#45;&gt;Node9 -->
<g id="edge11_Node000006_Node000009" class="edge">
<title>Node6&#45;&gt;Node9</title>
<g id="a_edge11_Node000006_Node000009"><a xlink:title=" ">
<path fill="none" stroke="#63b8ff" d="M156.54,-164.84C185.59,-146.28 254.12,-102.49 289.7,-79.75"/>
<polygon fill="#63b8ff" stroke="#63b8ff" points="291.85,-82.53 298.39,-74.2 288.08,-76.63 291.85,-82.53"/>
</a>
</g>
</g>
<!-- Node10 -->
<g id="Node000010" class="node">
<title>Node10</title>
<g id="a_Node000010"><a xlink:href="lo_8h.html" target="_top" xlink:title="Level objects.">
<polygon fill="white" stroke="#666666" points="160.5,-129 125.5,-129 125.5,-110 160.5,-110 160.5,-129"/>
<text text-anchor="middle" x="143" y="-117" font-family="Helvetica,sans-Serif" font-size="10.00">lo.h</text>
</a>
</g>
</g>
<!-- Node6&#45;&gt;Node10 -->
<g id="edge12_Node000006_Node000010" class="edge">
<title>Node6&#45;&gt;Node10</title>
<g id="a_edge12_Node000006_Node000010"><a xlink:title=" ">
<path fill="none" stroke="#63b8ff" d="M143,-164.75C143,-157.8 143,-147.85 143,-139.13"/>
<polygon fill="#63b8ff" stroke="#63b8ff" points="146.5,-139.09 143,-129.09 139.5,-139.09 146.5,-139.09"/>
</a>
</g>
</g>
<!-- Node8 -->
<g id="Node000008" class="node">
<title>Node8</title>
<g id="a_Node000008"><a xlink:href="oid_8h.html" target="_top" xlink:title="Object IDs.">
<polygon fill="white" stroke="#666666" points="70.5,-19 29.5,-19 29.5,0 70.5,0 70.5,-19"/>
<text text-anchor="middle" x="50" y="-7" font-family="Helvetica,sans-Serif" font-size="10.00">oid.h</text>
</a>
</g>
</g>
<!-- Node7&#45;&gt;Node8 -->
<g id="edge10_Node000007_Node000008" class="edge">
<title>Node7&#45;&gt;Node8</title>
<g id="a_edge10_Node000007_Node000008"><a xlink:title=" ">
<path fill="none" stroke="#63b8ff" d="M44.16,-54.75C45.07,-47.8 46.39,-37.85 47.54,-29.13"/>
<polygon fill="#63b8ff" stroke="#63b8ff" points="51.03,-29.46 48.87,-19.09 44.09,-28.54 51.03,-29.46"/>
</a>
</g>
</g>
<!-- Node10&#45;&gt;Node7 -->
<g id="edge13_Node000010_Node000007" class="edge">
<title>Node10&#45;&gt;Node7</title>
<g id="a_edge13_Node000010_Node000007"><a xlink:title=" ">
<path fill="none" stroke="#63b8ff" d="M126.93,-109.98C111.14,-101.61 86.78,-88.7 68.37,-78.95"/>
<polygon fill="#63b8ff" stroke="#63b8ff" points="69.83,-75.76 59.36,-74.17 66.56,-81.95 69.83,-75.76"/>
</a>
</g>
</g>
<!-- Node10&#45;&gt;Node8 -->
<g id="edge15_Node000010_Node000008" class="edge">
<title>Node10&#45;&gt;Node8</title>
<g id="a_edge15_Node000010_Node000008"><a xlink:title=" ">
<path fill="none" stroke="#63b8ff" d="M135.39,-109.66C119.78,-91.54 83.94,-49.91 64.01,-26.77"/>
<polygon fill="#63b8ff" stroke="#63b8ff" points="66.63,-24.45 57.46,-19.16 61.33,-29.02 66.63,-24.45"/>
</a>
</g>
</g>
<!-- Node10&#45;&gt;Node9 -->
<g id="edge14_Node000010_Node000009" class="edge">
<title>Node10&#45;&gt;Node9</title>
<g id="a_edge14_Node000010_Node000009"><a xlink:title=" ">
<path fill="none" stroke="#63b8ff" d="M160.77,-112.93C189.46,-103.93 246.34,-86.09 281.58,-75.04"/>
<polygon fill="#63b8ff" stroke="#63b8ff" points="282.84,-78.31 291.33,-71.98 280.74,-71.63 282.84,-78.31"/>
</a>
</g>
</g>
<!-- Node11 -->
<g id="Node000011" class="node">
<title>Node11</title>
<g id="a_Node000011"><a xlink:href="basic_8h.html" target="_top" xlink:title="Basic object.">
<polygon fill="white" stroke="#666666" points="168.5,-74 117.5,-74 117.5,-55 168.5,-55 168.5,-74"/>
<text text-anchor="middle" x="143" y="-62" font-family="Helvetica,sans-Serif" font-size="10.00">basic.h</text>
</a>
</g>
</g>
<!-- Node10&#45;&gt;Node11 -->
<g id="edge16_Node000010_Node000011" class="edge">
<title>Node10&#45;&gt;Node11</title>
<g id="a_edge16_Node000010_Node000011"><a xlink:title=" ">
<path fill="none" stroke="#63b8ff" d="M143,-109.75C143,-102.8 143,-92.85 143,-84.13"/>
<polygon fill="#63b8ff" stroke="#63b8ff" points="146.5,-84.09 143,-74.09 139.5,-84.09 146.5,-84.09"/>
</a>
</g>
</g>
<!-- Node13 -->
<g id="Node000013" class="node">
<title>Node13</title>
<g id="a_Node000013"><a xlink:href="frame_8h.html" target="_top" xlink:title=" ">
<polygon fill="white" stroke="#666666" points="273,-74 187,-74 187,-55 273,-55 273,-74"/>
<text text-anchor="middle" x="230" y="-62" font-family="Helvetica,sans-Serif" font-size="10.00">splice/frame.h</text>
</a>
</g>
</g>
<!-- Node10&#45;&gt;Node13 -->
<g id="edge18_Node000010_Node000013" class="edge">
<title>Node10&#45;&gt;Node13</title>
<g id="a_edge18_Node000010_Node000013"><a xlink:title=" ">
<path fill="none" stroke="#63b8ff" d="M156.98,-109.98C170.47,-101.77 191.13,-89.18 207.04,-79.49"/>
<polygon fill="#63b8ff" stroke="#63b8ff" points="209.05,-82.36 215.77,-74.17 205.41,-76.38 209.05,-82.36"/>
</a>
</g>
</g>
<!-- Node12 -->
<g id="Node000012" class="node">
<title>Node12</title>
<g id="a_Node000012"><a xlink:href="sidebag_8h.html" target="_top" xlink:title="Sidebag for splice.">
<polygon fill="white" stroke="#666666" points="190.5,-19 95.5,-19 95.5,0 190.5,0 190.5,-19"/>
<text text-anchor="middle" x="143" y="-7" font-family="Helvetica,sans-Serif" font-size="10.00">splice/sidebag.h</text>
</a>
</g>
</g>
<!-- Node11&#45;&gt;Node12 -->
<g id="edge17_Node000011_Node000012" class="edge">
<title>Node11&#45;&gt;Node12</title>
<g id="a_edge17_Node000011_Node000012"><a xlink:title=" ">
<path fill="none" stroke="#63b8ff" d="M143,-54.75C143,-47.8 143,-37.85 143,-29.13"/>
<polygon fill="#63b8ff" stroke="#63b8ff" points="146.5,-29.09 143,-19.09 139.5,-29.09 146.5,-29.09"/>
</a>
</g>
</g>
<!-- Node15 -->
<g id="Node000015" class="node">
<title>Node15</title>
<g id="a_Node000015"><a xlink:title=" ">
<polygon fill="#e0e0e0" stroke="#999999" points="187,-239 131,-239 131,-220 187,-220 187,-239"/>
<text text-anchor="middle" x="159" y="-227" font-family="Helvetica,sans-Serif" font-size="10.00">stddef.h</text>
</a>
</g>
</g>
<!-- Node14&#45;&gt;Node15 -->
<g id="edge20_Node000014_Node000015" class="edge">
<title>Node14&#45;&gt;Node15</title>
<g id="a_edge20_Node000014_Node000015"><a xlink:title=" ">
<path fill="none" stroke="#63b8ff" d="M157.33,-274.75C157.59,-267.8 157.97,-257.85 158.3,-249.13"/>
<polygon fill="#63b8ff" stroke="#63b8ff" points="161.8,-249.21 158.68,-239.09 154.8,-248.95 161.8,-249.21"/>
</a>
</g>
</g>
</g>
</svg>
