<?xml version="1.0" encoding="UTF-8" standalone="no"?>
<!DOCTYPE svg PUBLIC "-//W3C//DTD SVG 1.1//EN"
 "http://www.w3.org/Graphics/SVG/1.1/DTD/svg11.dtd">
<!-- Generated by graphviz version 2.43.0 (0)
 -->
<!-- Title: include/vis.h Pages: 1 -->
<!--zoomable 467 -->

<svg id="main" version="1.1" xmlns="http://www.w3.org/2000/svg" xmlns:xlink="http://www.w3.org/1999/xlink" xml:space="preserve" onload="init(evt)">
<style type="text/css"><![CDATA[
.node, .edge {opacity: 0.7;}
.node.selected, .edge.selected {opacity: 1;}
.edge:hover path { stroke: red; }
.edge:hover polygon { stroke: red; fill: red; }
]]></style>

<defs>
  <circle id="rim" cx="0" cy="0" r="7"/>
  <circle id="rim2" cx="0" cy="0" r="3.5"/>
  <g id="zoomPlus">
    <use xlink:href="#rim" fill="#404040"><set attributeName="fill" to="#808080" begin="zoomplus.mouseover" end="zoomplus.mouseout"/></use>
    <path d="M-4,0h8M0,-4v8" fill="none" stroke="white" stroke-width="1.5" pointer-events="none"/>
  </g>
  <g id="zoomMin">
    <use xlink:href="#rim" fill="#404040"><set attributeName="fill" to="#808080" begin="zoomminus.mouseover" end="zoomminus.mouseout"/></use>
    <path d="M-4,0h8" fill="none" stroke="white" stroke-width="1.5" pointer-events="none"/>
  </g>
  <g id="arrowUp" transform="translate(30 24)">
    <use xlink:href="#rim"/>
    <path pointer-events="none" fill="none" stroke="white" stroke-width="1.5" d="M0,-3.0v7 M-2.5,-0.5L0,-3.0L2.5,-0.5"/>
  </g>
  <g id="arrowRight" transform="rotate(90) translate(36 -43)">
    <use xlink:href="#rim"/>
    <path pointer-events="none" fill="none" stroke="white" stroke-width="1.5" d="M0,-3.0v7 M-2.5,-0.5L0,-3.0L2.5,-0.5"/>
  </g>
  <g id="arrowDown" transform="rotate(180) translate(-30 -48)">
    <use xlink:href="#rim"/>
    <path pointer-events="none" fill="none" stroke="white" stroke-width="1.5" d="M0,-3.0v7 M-2.5,-0.5L0,-3.0L2.5,-0.5"/>
  </g>
  <g id="arrowLeft" transform="rotate(270) translate(-36 17)">
    <use xlink:href="#rim"/>
    <path pointer-events="none" fill="none" stroke="white" stroke-width="1.5" d="M0,-3.0v7 M-2.5,-0.5L0,-3.0L2.5,-0.5"/>
  </g>
  <g id="resetDef">
    <use xlink:href="#rim2" fill="#404040"><set attributeName="fill" to="#808080" begin="reset.mouseover" end="reset.mouseout"/></use>
  </g>
</defs>
<script type="application/ecmascript">
var viewWidth = 937;
var viewHeight = 467;
var sectionId = 'dynsection-0';
</script>
<script type="application/ecmascript" xlink:href="svg.min.js"/>
<svg id="graph" class="graph">
<g id="viewport">
<title>include/vis.h</title>
<!-- Node1 -->
<g id="Node000001" class="node">
<title>Node1</title>
<g id="a_Node000001"><a xlink:title="Visibility map.">
<polygon fill="#999999" stroke="#666666" points="679.5,-459 601.5,-459 601.5,-440 679.5,-440 679.5,-459"/>
<text text-anchor="middle" x="640.5" y="-447" font-family="Helvetica,sans-Serif" font-size="10.00">include/vis.h</text>
</a>
</g>
</g>
<!-- Node2 -->
<g id="Node000002" class="node">
<title>Node2</title>
<g id="a_Node000002"><a xlink:href="bsp_8h.html" target="_top" xlink:title="Binary Space Partitioning.">
<polygon fill="white" stroke="#666666" points="929,-349 886,-349 886,-330 929,-330 929,-349"/>
<text text-anchor="middle" x="907.5" y="-337" font-family="Helvetica,sans-Serif" font-size="10.00">bsp.h</text>
</a>
</g>
</g>
<!-- Node1&#45;&gt;Node2 -->
<g id="edge1_Node000001_Node000002" class="edge">
<title>Node1&#45;&gt;Node2</title>
<g id="a_edge1_Node000001_Node000002"><a xlink:title=" ">
<path fill="none" stroke="#63b8ff" d="M674.51,-439.95C704.29,-432.02 748.46,-419.17 785.5,-404 821.2,-389.38 860.43,-367.92 884.51,-354.08"/>
<polygon fill="#63b8ff" stroke="#63b8ff" points="886.37,-357.05 893.26,-349 882.85,-351 886.37,-357.05"/>
</a>
</g>
</g>
<!-- Node4 -->
<g id="Node000004" class="node">
<title>Node4</title>
<g id="a_Node000004"><a xlink:href="vec_8h.html" target="_top" xlink:title="Vector math.">
<polygon fill="white" stroke="#666666" points="800,-19 757,-19 757,0 800,0 800,-19"/>
<text text-anchor="middle" x="778.5" y="-7" font-family="Helvetica,sans-Serif" font-size="10.00">vec.h</text>
</a>
</g>
</g>
<!-- Node1&#45;&gt;Node4 -->
<g id="edge44_Node000001_Node000004" class="edge">
<title>Node1&#45;&gt;Node4</title>
<g id="a_edge44_Node000001_Node000004"><a xlink:title=" ">
<path fill="none" stroke="#63b8ff" d="M631.6,-439.93C606,-414.19 536.03,-335.67 568.5,-275 582.11,-249.57 601.99,-259.28 622.5,-239 640.51,-221.19 734.73,-77.63 767.36,-27.61"/>
<polygon fill="#63b8ff" stroke="#63b8ff" points="770.34,-29.46 772.87,-19.17 764.47,-25.63 770.34,-29.46"/>
</a>
</g>
</g>
<!-- Node6 -->
<g id="Node000006" class="node">
<title>Node6</title>
<g id="a_Node000006"><a xlink:href="bis_8h.html" target="_top" xlink:title="Binary Input Stream.">
<polygon fill="white" stroke="#666666" points="776.5,-404 736.5,-404 736.5,-385 776.5,-385 776.5,-404"/>
<text text-anchor="middle" x="756.5" y="-392" font-family="Helvetica,sans-Serif" font-size="10.00">bis.h</text>
</a>
</g>
</g>
<!-- Node1&#45;&gt;Node6 -->
<g id="edge7_Node000001_Node000006" class="edge">
<title>Node1&#45;&gt;Node6</title>
<g id="a_edge7_Node000001_Node000006"><a xlink:title=" ">
<path fill="none" stroke="#63b8ff" d="M659.14,-439.98C677.8,-431.46 706.75,-418.23 728.24,-408.41"/>
<polygon fill="#63b8ff" stroke="#63b8ff" points="729.88,-411.51 737.52,-404.17 726.97,-405.14 729.88,-411.51"/>
</a>
</g>
</g>
<!-- Node25 -->
<g id="Node000025" class="node">
<title>Node25</title>
<g id="a_Node000025"><a xlink:href="lo_8h.html" target="_top" xlink:title="Level objects.">
<polygon fill="white" stroke="#666666" points="241,-129 206,-129 206,-110 241,-110 241,-129"/>
<text text-anchor="middle" x="223.5" y="-117" font-family="Helvetica,sans-Serif" font-size="10.00">lo.h</text>
</a>
</g>
</g>
<!-- Node1&#45;&gt;Node25 -->
<g id="edge45_Node000001_Node000025" class="edge">
<title>Node1&#45;&gt;Node25</title>
<g id="a_edge45_Node000001_Node000025"><a xlink:title=" ">
<path fill="none" stroke="#63b8ff" d="M601.38,-446.48C499.26,-440.14 232.5,-416.34 232.5,-340.5 232.5,-340.5 232.5,-340.5 232.5,-228.5 232.5,-197.08 228.67,-160.7 226.01,-139.2"/>
<polygon fill="#63b8ff" stroke="#63b8ff" points="229.46,-138.63 224.71,-129.16 222.52,-139.52 229.46,-138.63"/>
</a>
</g>
</g>
<!-- Node3 -->
<g id="Node000003" class="node">
<title>Node3</title>
<g id="a_Node000003"><a xlink:href="geom_8h.html" target="_top" xlink:title="Geometry.">
<polygon fill="white" stroke="#666666" points="832,-294 779,-294 779,-275 832,-275 832,-294"/>
<text text-anchor="middle" x="805.5" y="-282" font-family="Helvetica,sans-Serif" font-size="10.00">geom.h</text>
</a>
</g>
</g>
<!-- Node2&#45;&gt;Node3 -->
<g id="edge2_Node000002_Node000003" class="edge">
<title>Node2&#45;&gt;Node3</title>
<g id="a_edge2_Node000002_Node000003"><a xlink:title=" ">
<path fill="none" stroke="#63b8ff" d="M891.11,-329.98C874.93,-321.57 849.93,-308.59 831.12,-298.81"/>
<polygon fill="#63b8ff" stroke="#63b8ff" points="832.67,-295.68 822.19,-294.17 829.45,-301.89 832.67,-295.68"/>
</a>
</g>
</g>
<!-- Node2&#45;&gt;Node4 -->
<g id="edge6_Node000002_Node000004" class="edge">
<title>Node2&#45;&gt;Node4</title>
<g id="a_edge6_Node000002_Node000004"><a xlink:title=" ">
<path fill="none" stroke="#63b8ff" d="M906.69,-329.83C905.05,-311.51 901.5,-267.49 901.5,-230.5 901.5,-230.5 901.5,-230.5 901.5,-118.5 901.5,-87.83 895.84,-77.03 874.5,-55 856.93,-36.86 830.54,-25.36 809.87,-18.61"/>
<polygon fill="#63b8ff" stroke="#63b8ff" points="810.83,-15.25 800.25,-15.67 808.79,-21.94 810.83,-15.25"/>
</a>
</g>
</g>
<!-- Node3&#45;&gt;Node4 -->
<g id="edge3_Node000003_Node000004" class="edge">
<title>Node3&#45;&gt;Node4</title>
<g id="a_edge3_Node000003_Node000004"><a xlink:title=" ">
<path fill="none" stroke="#63b8ff" d="M807.79,-274.89C812.43,-256.69 822.5,-212.89 822.5,-175.5 822.5,-175.5 822.5,-175.5 822.5,-118.5 822.5,-84.42 803.47,-48.46 790.44,-27.83"/>
<polygon fill="#63b8ff" stroke="#63b8ff" points="793.22,-25.68 784.8,-19.25 787.37,-29.53 793.22,-25.68"/>
</a>
</g>
</g>
<!-- Node5 -->
<g id="Node000005" class="node">
<title>Node5</title>
<g id="a_Node000005"><a xlink:href="mat_8h.html" target="_top" xlink:title="3x3 and 4x4 matrix types.">
<polygon fill="white" stroke="#666666" points="793,-184 748,-184 748,-165 793,-165 793,-184"/>
<text text-anchor="middle" x="770.5" y="-172" font-family="Helvetica,sans-Serif" font-size="10.00">mat.h</text>
</a>
</g>
</g>
<!-- Node3&#45;&gt;Node5 -->
<g id="edge4_Node000003_Node000005" class="edge">
<title>Node3&#45;&gt;Node5</title>
<g id="a_edge4_Node000003_Node000005"><a xlink:title=" ">
<path fill="none" stroke="#63b8ff" d="M802.64,-274.66C796.94,-257.09 784.09,-217.45 776.48,-193.95"/>
<polygon fill="#63b8ff" stroke="#63b8ff" points="779.72,-192.59 773.31,-184.16 773.06,-194.75 779.72,-192.59"/>
</a>
</g>
</g>
<!-- Node5&#45;&gt;Node4 -->
<g id="edge5_Node000005_Node000004" class="edge">
<title>Node5&#45;&gt;Node4</title>
<g id="a_edge5_Node000005_Node000004"><a xlink:title=" ">
<path fill="none" stroke="#63b8ff" d="M770.93,-164.74C772.18,-139.31 775.82,-65.08 777.56,-29.69"/>
<polygon fill="#63b8ff" stroke="#63b8ff" points="781.07,-29.47 778.07,-19.31 774.08,-29.12 781.07,-29.47"/>
</a>
</g>
</g>
<!-- Node6&#45;&gt;Node2 -->
<g id="edge43_Node000006_Node000002" class="edge">
<title>Node6&#45;&gt;Node2</title>
<g id="a_edge43_Node000006_Node000002"><a xlink:title=" ">
<path fill="none" stroke="#63b8ff" d="M776.55,-386.46C802.07,-377.51 846.41,-361.94 876.35,-351.43"/>
<polygon fill="#63b8ff" stroke="#63b8ff" points="877.62,-354.7 885.9,-348.08 875.3,-348.09 877.62,-354.7"/>
</a>
</g>
</g>
<!-- Node6&#45;&gt;Node3 -->
<g id="edge41_Node000006_Node000003" class="edge">
<title>Node6&#45;&gt;Node3</title>
<g id="a_edge41_Node000006_Node000003"><a xlink:title=" ">
<path fill="none" stroke="#63b8ff" d="M766.95,-384.76C776.04,-376.52 788.79,-363.33 795.5,-349 802.09,-334.93 804.47,-317.38 805.27,-304.3"/>
<polygon fill="#63b8ff" stroke="#63b8ff" points="808.77,-304.28 805.63,-294.16 801.78,-304.02 808.77,-304.28"/>
</a>
</g>
</g>
<!-- Node6&#45;&gt;Node4 -->
<g id="edge39_Node000006_Node000004" class="edge">
<title>Node6&#45;&gt;Node4</title>
<g id="a_edge39_Node000006_Node000004"><a xlink:title=" ">
<path fill="none" stroke="#63b8ff" d="M770.27,-384.95C782.51,-376.83 800.29,-363.72 812.5,-349 848.77,-305.26 860.5,-287.32 860.5,-230.5 860.5,-230.5 860.5,-230.5 860.5,-118.5 860.5,-78.45 824.29,-43.94 800,-25.29"/>
<polygon fill="#63b8ff" stroke="#63b8ff" points="801.8,-22.27 791.67,-19.16 797.65,-27.91 801.8,-22.27"/>
</a>
</g>
</g>
<!-- Node6&#45;&gt;Node5 -->
<g id="edge40_Node000006_Node000005" class="edge">
<title>Node6&#45;&gt;Node5</title>
<g id="a_edge40_Node000006_Node000005"><a xlink:title=" ">
<path fill="none" stroke="#63b8ff" d="M757.87,-384.99C759.26,-376.06 761.36,-361.58 762.5,-349 767.57,-292.83 769.5,-226.13 770.18,-194.26"/>
<polygon fill="#63b8ff" stroke="#63b8ff" points="773.68,-194.25 770.37,-184.18 766.68,-194.11 773.68,-194.25"/>
</a>
</g>
</g>
<!-- Node7 -->
<g id="Node000007" class="node">
<title>Node7</title>
<g id="a_Node000007"><a xlink:href="prog_8h.html" target="_top" xlink:title="Progress bar.">
<polygon fill="white" stroke="#666666" points="625,-349 578,-349 578,-330 625,-330 625,-349"/>
<text text-anchor="middle" x="601.5" y="-337" font-family="Helvetica,sans-Serif" font-size="10.00">prog.h</text>
</a>
</g>
</g>
<!-- Node6&#45;&gt;Node7 -->
<g id="edge8_Node000006_Node000007" class="edge">
<title>Node6&#45;&gt;Node7</title>
<g id="a_edge8_Node000006_Node000007"><a xlink:title=" ">
<path fill="none" stroke="#63b8ff" d="M736.24,-386.57C710.39,-377.73 665.37,-362.34 634.53,-351.8"/>
<polygon fill="#63b8ff" stroke="#63b8ff" points="635.66,-348.48 625.06,-348.56 633.39,-355.1 635.66,-348.48"/>
</a>
</g>
</g>
<!-- Node29 -->
<g id="Node000029" class="node">
<title>Node29</title>
<g id="a_Node000029"><a xlink:href="clock_8h.html" target="_top" xlink:title="Engine clock.">
<polygon fill="white" stroke="#666666" points="694,-349 643,-349 643,-330 694,-330 694,-349"/>
<text text-anchor="middle" x="668.5" y="-337" font-family="Helvetica,sans-Serif" font-size="10.00">clock.h</text>
</a>
</g>
</g>
<!-- Node6&#45;&gt;Node29 -->
<g id="edge38_Node000006_Node000029" class="edge">
<title>Node6&#45;&gt;Node29</title>
<g id="a_edge38_Node000006_Node000029"><a xlink:title=" ">
<path fill="none" stroke="#63b8ff" d="M742.36,-384.98C728.71,-376.77 707.81,-364.18 691.72,-354.49"/>
<polygon fill="#63b8ff" stroke="#63b8ff" points="693.27,-351.33 682.9,-349.17 689.66,-357.33 693.27,-351.33"/>
</a>
</g>
</g>
<!-- Node30 -->
<g id="Node000030" class="node">
<title>Node30</title>
<g id="a_Node000030"><a xlink:href="cat_8h.html" target="_top" xlink:title="WAL catalog.">
<polygon fill="white" stroke="#666666" points="753,-349 712,-349 712,-330 753,-330 753,-349"/>
<text text-anchor="middle" x="732.5" y="-337" font-family="Helvetica,sans-Serif" font-size="10.00">cat.h</text>
</a>
</g>
</g>
<!-- Node6&#45;&gt;Node30 -->
<g id="edge42_Node000006_Node000030" class="edge">
<title>Node6&#45;&gt;Node30</title>
<g id="a_edge42_Node000006_Node000030"><a xlink:title=" ">
<path fill="none" stroke="#63b8ff" d="M752.54,-384.75C749.29,-377.57 744.58,-367.18 740.55,-358.27"/>
<polygon fill="#63b8ff" stroke="#63b8ff" points="743.7,-356.75 736.39,-349.09 737.33,-359.64 743.7,-356.75"/>
</a>
</g>
</g>
<!-- Node8 -->
<g id="Node000008" class="node">
<title>Node8</title>
<g id="a_Node000008"><a xlink:href="binoc_8h.html" target="_top" xlink:title="Binoc&#45;u&#45;com.">
<polygon fill="white" stroke="#666666" points="629.5,-294 577.5,-294 577.5,-275 629.5,-275 629.5,-294"/>
<text text-anchor="middle" x="603.5" y="-282" font-family="Helvetica,sans-Serif" font-size="10.00">binoc.h</text>
</a>
</g>
</g>
<!-- Node7&#45;&gt;Node8 -->
<g id="edge9_Node000007_Node000008" class="edge">
<title>Node7&#45;&gt;Node8</title>
<g id="a_edge9_Node000007_Node000008"><a xlink:title=" ">
<path fill="none" stroke="#63b8ff" d="M601.83,-329.75C602.09,-322.8 602.47,-312.85 602.8,-304.13"/>
<polygon fill="#63b8ff" stroke="#63b8ff" points="606.3,-304.21 603.18,-294.09 599.3,-303.95 606.3,-304.21"/>
</a>
</g>
</g>
<!-- Node9 -->
<g id="Node000009" class="node">
<title>Node9</title>
<g id="a_Node000009"><a xlink:href="screen_8h.html" target="_top" xlink:title="GUI elements.">
<polygon fill="white" stroke="#666666" points="613.5,-239 555.5,-239 555.5,-220 613.5,-220 613.5,-239"/>
<text text-anchor="middle" x="584.5" y="-227" font-family="Helvetica,sans-Serif" font-size="10.00">screen.h</text>
</a>
</g>
</g>
<!-- Node8&#45;&gt;Node9 -->
<g id="edge10_Node000008_Node000009" class="edge">
<title>Node8&#45;&gt;Node9</title>
<g id="a_edge10_Node000008_Node000009"><a xlink:title=" ">
<path fill="none" stroke="#63b8ff" d="M600.36,-274.75C597.82,-267.65 594.14,-257.4 590.97,-248.56"/>
<polygon fill="#63b8ff" stroke="#63b8ff" points="594.25,-247.32 587.58,-239.09 587.66,-249.68 594.25,-247.32"/>
</a>
</g>
</g>
<!-- Node21 -->
<g id="Node000021" class="node">
<title>Node21</title>
<g id="a_Node000021"><a xlink:href="util_8h.html" target="_top" xlink:title="Utility functions.">
<polygon fill="white" stroke="#666666" points="717,-239 676,-239 676,-220 717,-220 717,-239"/>
<text text-anchor="middle" x="696.5" y="-227" font-family="Helvetica,sans-Serif" font-size="10.00">util.h</text>
</a>
</g>
</g>
<!-- Node8&#45;&gt;Node21 -->
<g id="edge24_Node000008_Node000021" class="edge">
<title>Node8&#45;&gt;Node21</title>
<g id="a_edge24_Node000008_Node000021"><a xlink:title=" ">
<path fill="none" stroke="#63b8ff" d="M618.44,-274.98C633,-266.69 655.37,-253.94 672.43,-244.22"/>
<polygon fill="#63b8ff" stroke="#63b8ff" points="674.33,-247.16 681.29,-239.17 670.86,-241.08 674.33,-247.16"/>
</a>
</g>
</g>
<!-- Node10 -->
<g id="Node000010" class="node">
<title>Node10</title>
<g id="a_Node000010"><a xlink:href="font_8h.html" target="_top" xlink:title="Font system.">
<polygon fill="white" stroke="#666666" points="607,-184 562,-184 562,-165 607,-165 607,-184"/>
<text text-anchor="middle" x="584.5" y="-172" font-family="Helvetica,sans-Serif" font-size="10.00">font.h</text>
</a>
</g>
</g>
<!-- Node9&#45;&gt;Node10 -->
<g id="edge11_Node000009_Node000010" class="edge">
<title>Node9&#45;&gt;Node10</title>
<g id="a_edge11_Node000009_Node000010"><a xlink:title=" ">
<path fill="none" stroke="#63b8ff" d="M584.5,-219.75C584.5,-212.8 584.5,-202.85 584.5,-194.13"/>
<polygon fill="#63b8ff" stroke="#63b8ff" points="588,-194.09 584.5,-184.09 581,-194.09 588,-194.09"/>
</a>
</g>
</g>
<!-- Node18 -->
<g id="Node000018" class="node">
<title>Node18</title>
<g id="a_Node000018"><a xlink:href="game_8h.html" target="_top" xlink:title="Game state and level management.">
<polygon fill="white" stroke="#666666" points="431,-184 378,-184 378,-165 431,-165 431,-184"/>
<text text-anchor="middle" x="404.5" y="-172" font-family="Helvetica,sans-Serif" font-size="10.00">game.h</text>
</a>
</g>
</g>
<!-- Node9&#45;&gt;Node18 -->
<g id="edge21_Node000009_Node000018" class="edge">
<title>Node9&#45;&gt;Node18</title>
<g id="a_edge21_Node000009_Node000018"><a xlink:title=" ">
<path fill="none" stroke="#63b8ff" d="M555.58,-219.98C524.42,-210.81 474.76,-196.19 440.95,-186.23"/>
<polygon fill="#63b8ff" stroke="#63b8ff" points="441.58,-182.77 431,-183.3 439.61,-189.49 441.58,-182.77"/>
</a>
</g>
</g>
<!-- Node11 -->
<g id="Node000011" class="node">
<title>Node11</title>
<g id="a_Node000011"><a xlink:href="gifs_8h.html" target="_top" xlink:title=" ">
<polygon fill="white" stroke="#666666" points="606.5,-129 562.5,-129 562.5,-110 606.5,-110 606.5,-129"/>
<text text-anchor="middle" x="584.5" y="-117" font-family="Helvetica,sans-Serif" font-size="10.00">gifs.h</text>
</a>
</g>
</g>
<!-- Node10&#45;&gt;Node11 -->
<g id="edge12_Node000010_Node000011" class="edge">
<title>Node10&#45;&gt;Node11</title>
<g id="a_edge12_Node000010_Node000011"><a xlink:title=" ">
<path fill="none" stroke="#63b8ff" d="M584.5,-164.75C584.5,-157.8 584.5,-147.85 584.5,-139.13"/>
<polygon fill="#63b8ff" stroke="#63b8ff" points="588,-139.09 584.5,-129.09 581,-139.09 588,-139.09"/>
</a>
</g>
</g>
<!-- Node12 -->
<g id="Node000012" class="node">
<title>Node12</title>
<g id="a_Node000012"><a xlink:href="dmas_8h.html" target="_top" xlink:title="Direct memory access.">
<polygon fill="white" stroke="#666666" points="644,-74 591,-74 591,-55 644,-55 644,-74"/>
<text text-anchor="middle" x="617.5" y="-62" font-family="Helvetica,sans-Serif" font-size="10.00">dmas.h</text>
</a>
</g>
</g>
<!-- Node10&#45;&gt;Node12 -->
<g id="edge17_Node000010_Node000012" class="edge">
<title>Node10&#45;&gt;Node12</title>
<g id="a_edge17_Node000010_Node000012"><a xlink:title=" ">
<path fill="none" stroke="#63b8ff" d="M592.88,-164.82C600.38,-156.42 610.88,-142.94 615.5,-129 620.28,-114.59 620.49,-97.31 619.67,-84.42"/>
<polygon fill="#63b8ff" stroke="#63b8ff" points="623.16,-84.05 618.78,-74.4 616.18,-84.68 623.16,-84.05"/>
</a>
</g>
</g>
<!-- Node15 -->
<g id="Node000015" class="node">
<title>Node15</title>
<g id="a_Node000015"><a xlink:href="eestruct_8h.html" target="_top" xlink:title="Graphics synthesizer.">
<polygon fill="white" stroke="#666666" points="544,-129 443,-129 443,-110 544,-110 544,-129"/>
<text text-anchor="middle" x="493.5" y="-117" font-family="Helvetica,sans-Serif" font-size="10.00">sdk/ee/eestruct.h</text>
</a>
</g>
</g>
<!-- Node10&#45;&gt;Node15 -->
<g id="edge18_Node000010_Node000015" class="edge">
<title>Node10&#45;&gt;Node15</title>
<g id="a_edge18_Node000010_Node000015"><a xlink:title=" ">
<path fill="none" stroke="#63b8ff" d="M569.88,-164.98C555.64,-156.69 533.75,-143.94 517.05,-134.22"/>
<polygon fill="#63b8ff" stroke="#63b8ff" points="518.79,-131.18 508.39,-129.17 515.27,-137.23 518.79,-131.18"/>
</a>
</g>
</g>
<!-- Node11&#45;&gt;Node12 -->
<g id="edge13_Node000011_Node000012" class="edge">
<title>Node11&#45;&gt;Node12</title>
<g id="a_edge13_Node000011_Node000012"><a xlink:title=" ">
<path fill="none" stroke="#63b8ff" d="M589.95,-109.75C594.51,-102.42 601.17,-91.73 606.79,-82.7"/>
<polygon fill="#63b8ff" stroke="#63b8ff" points="609.84,-84.43 612.15,-74.09 603.9,-80.73 609.84,-84.43"/>
</a>
</g>
</g>
<!-- Node12&#45;&gt;Node4 -->
<g id="edge16_Node000012_Node000004" class="edge">
<title>Node12&#45;&gt;Node4</title>
<g id="a_edge16_Node000012_Node000004"><a xlink:title=" ">
<path fill="none" stroke="#63b8ff" d="M643.37,-54.98C671.64,-45.68 716.93,-30.77 747.19,-20.81"/>
<polygon fill="#63b8ff" stroke="#63b8ff" points="748.42,-24.09 756.83,-17.63 746.23,-17.44 748.42,-24.09"/>
</a>
</g>
</g>
<!-- Node13 -->
<g id="Node000013" class="node">
<title>Node13</title>
<g id="a_Node000013"><a xlink:href="libdma_8h.html" target="_top" xlink:title="Direct memory access library.">
<polygon fill="white" stroke="#666666" points="618,-19 539,-19 539,0 618,0 618,-19"/>
<text text-anchor="middle" x="578.5" y="-7" font-family="Helvetica,sans-Serif" font-size="10.00">sce/libdma.h</text>
</a>
</g>
</g>
<!-- Node12&#45;&gt;Node13 -->
<g id="edge14_Node000012_Node000013" class="edge">
<title>Node12&#45;&gt;Node13</title>
<g id="a_edge14_Node000012_Node000013"><a xlink:title=" ">
<path fill="none" stroke="#63b8ff" d="M611.06,-54.75C605.61,-47.34 597.64,-36.5 590.94,-27.41"/>
<polygon fill="#63b8ff" stroke="#63b8ff" points="593.57,-25.07 584.82,-19.09 587.93,-29.22 593.57,-25.07"/>
</a>
</g>
</g>
<!-- Node14 -->
<g id="Node000014" class="node">
<title>Node14</title>
<g id="a_Node000014"><a xlink:href="eekernel_8h.html" target="_top" xlink:title=" ">
<polygon fill="white" stroke="#666666" points="739,-19 636,-19 636,0 739,0 739,-19"/>
<text text-anchor="middle" x="687.5" y="-7" font-family="Helvetica,sans-Serif" font-size="10.00">sdk/ee/eekernel.h</text>
</a>
</g>
</g>
<!-- Node12&#45;&gt;Node14 -->
<g id="edge15_Node000012_Node000014" class="edge">
<title>Node12&#45;&gt;Node14</title>
<g id="a_edge15_Node000012_Node000014"><a xlink:title=" ">
<path fill="none" stroke="#63b8ff" d="M628.75,-54.98C639.3,-47 655.3,-34.88 667.94,-25.31"/>
<polygon fill="#63b8ff" stroke="#63b8ff" points="670.19,-28 676.05,-19.17 665.96,-22.42 670.19,-28"/>
</a>
</g>
</g>
<!-- Node16 -->
<g id="Node000016" class="node">
<title>Node16</title>
<g id="a_Node000016"><a xlink:href="types_8h.html" target="_top" xlink:title="Common types used across the codebase.">
<polygon fill="white" stroke="#666666" points="519,-74 466,-74 466,-55 519,-55 519,-74"/>
<text text-anchor="middle" x="492.5" y="-62" font-family="Helvetica,sans-Serif" font-size="10.00">types.h</text>
</a>
</g>
</g>
<!-- Node15&#45;&gt;Node16 -->
<g id="edge19_Node000015_Node000016" class="edge">
<title>Node15&#45;&gt;Node16</title>
<g id="a_edge19_Node000015_Node000016"><a xlink:title=" ">
<path fill="none" stroke="#63b8ff" d="M493.33,-109.75C493.2,-102.8 493.02,-92.85 492.85,-84.13"/>
<polygon fill="#63b8ff" stroke="#63b8ff" points="496.35,-84.02 492.66,-74.09 489.35,-84.15 496.35,-84.02"/>
</a>
</g>
</g>
<!-- Node17 -->
<g id="Node000017" class="node">
<title>Node17</title>
<g id="a_Node000017"><a xlink:title=" ">
<polygon fill="#e0e0e0" stroke="#999999" points="520.5,-19 464.5,-19 464.5,0 520.5,0 520.5,-19"/>
<text text-anchor="middle" x="492.5" y="-7" font-family="Helvetica,sans-Serif" font-size="10.00">stddef.h</text>
</a>
</g>
</g>
<!-- Node16&#45;&gt;Node17 -->
<g id="edge20_Node000016_Node000017" class="edge">
<title>Node16&#45;&gt;Node17</title>
<g id="a_edge20_Node000016_Node000017"><a xlink:title=" ">
<path fill="none" stroke="#63b8ff" d="M492.5,-54.75C492.5,-47.8 492.5,-37.85 492.5,-29.13"/>
<polygon fill="#63b8ff" stroke="#63b8ff" points="496,-29.09 492.5,-19.09 489,-29.09 496,-29.09"/>
</a>
</g>
</g>
<!-- Node19 -->
<g id="Node000019" class="node">
<title>Node19</title>
<g id="a_Node000019"><a xlink:href="oid_8h.html" target="_top" xlink:title="Object IDs.">
<polygon fill="white" stroke="#666666" points="272,-19 231,-19 231,0 272,0 272,-19"/>
<text text-anchor="middle" x="251.5" y="-7" font-family="Helvetica,sans-Serif" font-size="10.00">oid.h</text>
</a>
</g>
</g>
<!-- Node18&#45;&gt;Node19 -->
<g id="edge22_Node000018_Node000019" class="edge">
<title>Node18&#45;&gt;Node19</title>
<g id="a_edge22_Node000018_Node000019"><a xlink:title=" ">
<path fill="none" stroke="#63b8ff" d="M398.48,-164.79C392.43,-155.92 382.98,-141.72 375.5,-129 356.66,-96.95 362.82,-81.25 336.5,-55 321.08,-39.62 299.23,-28.34 281.54,-20.98"/>
<polygon fill="#63b8ff" stroke="#63b8ff" points="282.8,-17.72 272.22,-17.3 280.23,-24.23 282.8,-17.72"/>
</a>
</g>
</g>
<!-- Node20 -->
<g id="Node000020" class="node">
<title>Node20</title>
<g id="a_Node000020"><a xlink:href="cid_8h.html" target="_top" xlink:title="Class IDs.">
<polygon fill="white" stroke="#666666" points="424.5,-129 384.5,-129 384.5,-110 424.5,-110 424.5,-129"/>
<text text-anchor="middle" x="404.5" y="-117" font-family="Helvetica,sans-Serif" font-size="10.00">cid.h</text>
</a>
</g>
</g>
<!-- Node18&#45;&gt;Node20 -->
<g id="edge23_Node000018_Node000020" class="edge">
<title>Node18&#45;&gt;Node20</title>
<g id="a_edge23_Node000018_Node000020"><a xlink:title=" ">
<path fill="none" stroke="#63b8ff" d="M404.5,-164.75C404.5,-157.8 404.5,-147.85 404.5,-139.13"/>
<polygon fill="#63b8ff" stroke="#63b8ff" points="408,-139.09 404.5,-129.09 401,-139.09 408,-139.09"/>
</a>
</g>
</g>
<!-- Node21&#45;&gt;Node4 -->
<g id="edge25_Node000021_Node000004" class="edge">
<title>Node21&#45;&gt;Node4</title>
<g id="a_edge25_Node000021_Node000004"><a xlink:title=" ">
<path fill="none" stroke="#63b8ff" d="M699.71,-219.95C711.81,-187.81 754.72,-73.72 771.61,-28.83"/>
<polygon fill="#63b8ff" stroke="#63b8ff" points="774.97,-29.82 775.22,-19.22 768.42,-27.35 774.97,-29.82"/>
</a>
</g>
</g>
<!-- Node21&#45;&gt;Node5 -->
<g id="edge26_Node000021_Node000005" class="edge">
<title>Node21&#45;&gt;Node5</title>
<g id="a_edge26_Node000021_Node000005"><a xlink:title=" ">
<path fill="none" stroke="#63b8ff" d="M708.39,-219.98C719.65,-211.92 736.79,-199.65 750.21,-190.03"/>
<polygon fill="#63b8ff" stroke="#63b8ff" points="752.3,-192.84 758.39,-184.17 748.23,-187.15 752.3,-192.84"/>
</a>
</g>
</g>
<!-- Node22 -->
<g id="Node000022" class="node">
<title>Node22</title>
<g id="a_Node000022"><a xlink:href="sm_8h.html" target="_top" xlink:title="Probabilistic finite state machines.">
<polygon fill="white" stroke="#666666" points="319,-184 278,-184 278,-165 319,-165 319,-184"/>
<text text-anchor="middle" x="298.5" y="-172" font-family="Helvetica,sans-Serif" font-size="10.00">sm.h</text>
</a>
</g>
</g>
<!-- Node21&#45;&gt;Node22 -->
<g id="edge27_Node000021_Node000022" class="edge">
<title>Node21&#45;&gt;Node22</title>
<g id="a_edge27_Node000021_Node000022"><a xlink:title=" ">
<path fill="none" stroke="#63b8ff" d="M675.94,-225.76C610.57,-217.06 407.23,-189.98 329.31,-179.6"/>
<polygon fill="#63b8ff" stroke="#63b8ff" points="329.55,-176.1 319.18,-178.25 328.63,-183.04 329.55,-176.1"/>
</a>
</g>
</g>
<!-- Node23 -->
<g id="Node000023" class="node">
<title>Node23</title>
<g id="a_Node000023"><a xlink:href="dl_8h.html" target="_top" xlink:title="Doubly&#45;linked list.">
<polygon fill="white" stroke="#666666" points="269,-74 234,-74 234,-55 269,-55 269,-74"/>
<text text-anchor="middle" x="251.5" y="-62" font-family="Helvetica,sans-Serif" font-size="10.00">dl.h</text>
</a>
</g>
</g>
<!-- Node22&#45;&gt;Node23 -->
<g id="edge28_Node000022_Node000023" class="edge">
<title>Node22&#45;&gt;Node23</title>
<g id="a_edge28_Node000022_Node000023"><a xlink:title=" ">
<path fill="none" stroke="#63b8ff" d="M294.65,-164.66C286.97,-147.01 269.6,-107.09 259.39,-83.64"/>
<polygon fill="#63b8ff" stroke="#63b8ff" points="262.47,-81.93 255.27,-74.16 256.05,-84.72 262.47,-81.93"/>
</a>
</g>
</g>
<!-- Node24 -->
<g id="Node000024" class="node">
<title>Node24</title>
<g id="a_Node000024"><a xlink:href="mq_8h.html" target="_top" xlink:title="Message queue.">
<polygon fill="white" stroke="#666666" points="328,-74 287,-74 287,-55 328,-55 328,-74"/>
<text text-anchor="middle" x="307.5" y="-62" font-family="Helvetica,sans-Serif" font-size="10.00">mq.h</text>
</a>
</g>
</g>
<!-- Node22&#45;&gt;Node24 -->
<g id="edge30_Node000022_Node000024" class="edge">
<title>Node22&#45;&gt;Node24</title>
<g id="a_edge30_Node000022_Node000024"><a xlink:title=" ">
<path fill="none" stroke="#63b8ff" d="M299.24,-164.66C300.69,-147.17 303.97,-107.8 305.94,-84.27"/>
<polygon fill="#63b8ff" stroke="#63b8ff" points="309.44,-84.41 306.78,-74.16 302.46,-83.83 309.44,-84.41"/>
</a>
</g>
</g>
<!-- Node22&#45;&gt;Node25 -->
<g id="edge31_Node000022_Node000025" class="edge">
<title>Node22&#45;&gt;Node25</title>
<g id="a_edge31_Node000022_Node000025"><a xlink:title=" ">
<path fill="none" stroke="#63b8ff" d="M286.45,-164.98C275.04,-156.92 257.67,-144.65 244.07,-135.03"/>
<polygon fill="#63b8ff" stroke="#63b8ff" points="245.96,-132.08 235.77,-129.17 241.92,-137.8 245.96,-132.08"/>
</a>
</g>
</g>
<!-- Node23&#45;&gt;Node19 -->
<g id="edge29_Node000023_Node000019" class="edge">
<title>Node23&#45;&gt;Node19</title>
<g id="a_edge29_Node000023_Node000019"><a xlink:title=" ">
<path fill="none" stroke="#63b8ff" d="M251.5,-54.75C251.5,-47.8 251.5,-37.85 251.5,-29.13"/>
<polygon fill="#63b8ff" stroke="#63b8ff" points="255,-29.09 251.5,-19.09 248,-29.09 255,-29.09"/>
</a>
</g>
</g>
<!-- Node25&#45;&gt;Node19 -->
<g id="edge34_Node000025_Node000019" class="edge">
<title>Node25&#45;&gt;Node19</title>
<g id="a_edge34_Node000025_Node000019"><a xlink:title=" ">
<path fill="none" stroke="#63b8ff" d="M222.21,-109.66C220.71,-97.19 219.07,-73.86 224.5,-55 227.34,-45.14 232.98,-35.27 238.36,-27.34"/>
<polygon fill="#63b8ff" stroke="#63b8ff" points="241.35,-29.19 244.4,-19.04 235.69,-25.07 241.35,-29.19"/>
</a>
</g>
</g>
<!-- Node25&#45;&gt;Node23 -->
<g id="edge32_Node000025_Node000023" class="edge">
<title>Node25&#45;&gt;Node23</title>
<g id="a_edge32_Node000025_Node000023"><a xlink:title=" ">
<path fill="none" stroke="#63b8ff" d="M228.12,-109.75C231.96,-102.49 237.52,-91.95 242.26,-82.98"/>
<polygon fill="#63b8ff" stroke="#63b8ff" points="245.39,-84.57 246.96,-74.09 239.2,-81.3 245.39,-84.57"/>
</a>
</g>
</g>
<!-- Node25&#45;&gt;Node24 -->
<g id="edge33_Node000025_Node000024" class="edge">
<title>Node25&#45;&gt;Node24</title>
<g id="a_edge33_Node000025_Node000024"><a xlink:title=" ">
<path fill="none" stroke="#63b8ff" d="M237,-109.98C249.9,-101.84 269.6,-89.41 284.9,-79.76"/>
<polygon fill="#63b8ff" stroke="#63b8ff" points="287.17,-82.47 293.76,-74.17 283.43,-76.55 287.17,-82.47"/>
</a>
</g>
</g>
<!-- Node26 -->
<g id="Node000026" class="node">
<title>Node26</title>
<g id="a_Node000026"><a xlink:href="basic_8h.html" target="_top" xlink:title="Basic object.">
<polygon fill="white" stroke="#666666" points="73,-74 22,-74 22,-55 73,-55 73,-74"/>
<text text-anchor="middle" x="47.5" y="-62" font-family="Helvetica,sans-Serif" font-size="10.00">basic.h</text>
</a>
</g>
</g>
<!-- Node25&#45;&gt;Node26 -->
<g id="edge35_Node000025_Node000026" class="edge">
<title>Node25&#45;&gt;Node26</title>
<g id="a_edge35_Node000025_Node000026"><a xlink:title=" ">
<path fill="none" stroke="#63b8ff" d="M205.98,-113.22C177.45,-104.63 120.39,-87.45 83.09,-76.22"/>
<polygon fill="#63b8ff" stroke="#63b8ff" points="83.72,-72.75 73.14,-73.22 81.7,-79.45 83.72,-72.75"/>
</a>
</g>
</g>
<!-- Node28 -->
<g id="Node000028" class="node">
<title>Node28</title>
<g id="a_Node000028"><a xlink:href="frame_8h.html" target="_top" xlink:title=" ">
<polygon fill="white" stroke="#666666" points="177.5,-74 91.5,-74 91.5,-55 177.5,-55 177.5,-74"/>
<text text-anchor="middle" x="134.5" y="-62" font-family="Helvetica,sans-Serif" font-size="10.00">splice/frame.h</text>
</a>
</g>
</g>
<!-- Node25&#45;&gt;Node28 -->
<g id="edge37_Node000025_Node000028" class="edge">
<title>Node25&#45;&gt;Node28</title>
<g id="a_edge37_Node000025_Node000028"><a xlink:title=" ">
<path fill="none" stroke="#63b8ff" d="M209.2,-109.98C195.4,-101.77 174.26,-89.18 157.99,-79.49"/>
<polygon fill="#63b8ff" stroke="#63b8ff" points="159.44,-76.28 149.06,-74.17 155.86,-82.29 159.44,-76.28"/>
</a>
</g>
</g>
<!-- Node27 -->
<g id="Node000027" class="node">
<title>Node27</title>
<g id="a_Node000027"><a xlink:href="sidebag_8h.html" target="_top" xlink:title="Sidebag for splice.">
<polygon fill="white" stroke="#666666" points="95,-19 0,-19 0,0 95,0 95,-19"/>
<text text-anchor="middle" x="47.5" y="-7" font-family="Helvetica,sans-Serif" font-size="10.00">splice/sidebag.h</text>
</a>
</g>
</g>
<!-- Node26&#45;&gt;Node27 -->
<g id="edge36_Node000026_Node000027" class="edge">
<title>Node26&#45;&gt;Node27</title>
<g id="a_edge36_Node000026_Node000027"><a xlink:title=" ">
<path fill="none" stroke="#63b8ff" d="M47.5,-54.75C47.5,-47.8 47.5,-37.85 47.5,-29.13"/>
<polygon fill="#63b8ff" stroke="#63b8ff" points="51,-29.09 47.5,-19.09 44,-29.09 51,-29.09"/>
</a>
</g>
</g>
</g>
</svg>

<g id="navigator" transform="translate(0 0)" fill="#404254">
  <rect fill="#f2f5e9" fill-opacity="0.5" stroke="#606060" stroke-width=".5" x="0" y="0" width="60" height="60"/>
  <use id="zoomplus" xlink:href="#zoomPlus" x="17" y="9" onmousedown="handleZoom(evt,'in')"/>
  <use id="zoomminus" xlink:href="#zoomMin" x="42" y="9" onmousedown="handleZoom(evt,'out')"/>
  <use id="reset" xlink:href="#resetDef" x="30" y="36" onmousedown="handleReset()"/>
   <use id="arrowup" xlink:href="#arrowUp" x="0" y="0" onmousedown="handlePan(0,-1)"/>
  <use id="arrowright" xlink:href="#arrowRight" x="0" y="0" onmousedown="handlePan(1,0)"/>
  <use id="arrowdown" xlink:href="#arrowDown" x="0" y="0" onmousedown="handlePan(0,1)"/>
  <use id="arrowleft" xlink:href="#arrowLeft" x="0" y="0" onmousedown="handlePan(-1,0)"/>
</g>
<svg viewBox="0 0 15 15" width="100%" height="30px" preserveAspectRatio="xMaxYMin meet">
 <g id="arrow_out" transform="scale(0.3 0.3)">
  <a xlink:href="vis_8h__incl_org.svg" target="_base">
   <rect id="button" ry="5" rx="5" y="6" x="6" height="38" width="38"
        fill="#f2f5e9" fill-opacity="0.5" stroke="#606060" stroke-width="1.0"/>
   <path id="arrow"
     d="M 11.500037,31.436501 C 11.940474,20.09759 22.043105,11.32322 32.158766,21.979434 L 37.068811,17.246167 C 37.068811,17.246167 37.088388,32 37.088388,32 L 22.160133,31.978069 C 22.160133,31.978069 26.997745,27.140456 26.997745,27.140456 C 18.528582,18.264221 13.291696,25.230495 11.500037,31.436501 z"
     style="fill:#404040;"/>
  </a>
 </g>
</svg>

<style type='text/css'>
<![CDATA[
[data-mouse-over-selected='false'] { opacity: 0.7; }
[data-mouse-over-selected='true']  { opacity: 1.0; }
]]>
</style>
<script type="application/ecmascript"><![CDATA[
document.addEventListener('DOMContentLoaded', (event) => {
  highlightEdges();
  highlightAdjacentNodes();
});
]]></script>
</svg>
