<?xml version="1.0" encoding="UTF-8" standalone="no"?>
<!DOCTYPE svg PUBLIC "-//W3C//DTD SVG 1.1//EN"
 "http://www.w3.org/Graphics/SVG/1.1/DTD/svg11.dtd">
<!-- Generated by graphviz version 2.43.0 (0)
 -->
<!-- Title: include/vol.h Pages: 1 -->
<svg width="1177pt" height="588pt"
 viewBox="0.00 0.00 1177.11 588.00" xmlns="http://www.w3.org/2000/svg" xmlns:xlink="http://www.w3.org/1999/xlink">
<g id="graph0" class="graph" transform="scale(1 1) rotate(0) translate(4 584)">
<title>include/vol.h</title>
<polygon fill="white" stroke="transparent" points="-4,4 -4,-584 1173.11,-584 1173.11,4 -4,4"/>
<!-- Node1 -->
<g id="node1" class="node">
<title>Node1</title>
<g id="a_node1"><a xlink:title="Volume object.">
<polygon fill="#bfbfbf" stroke="black" points="158.61,-560.5 158.61,-579.5 237.61,-579.5 237.61,-560.5 158.61,-560.5"/>
<text text-anchor="middle" x="198.11" y="-567.5" font-family="Helvetica,sans-Serif" font-size="10.00">include/vol.h</text>
</a>
</g>
</g>
<!-- Node2 -->
<g id="node2" class="node">
<title>Node2</title>
<g id="a_node2"><a xlink:href="common_8h.html" target="_top" xlink:title="Common header file.">
<polygon fill="white" stroke="black" points="647.11,-56.5 647.11,-75.5 715.11,-75.5 715.11,-56.5 647.11,-56.5"/>
<text text-anchor="middle" x="681.11" y="-63.5" font-family="Helvetica,sans-Serif" font-size="10.00">common.h</text>
</a>
</g>
</g>
<!-- Node1&#45;&gt;Node2 -->
<g id="edge1" class="edge">
<title>Node1&#45;&gt;Node2</title>
<path fill="none" stroke="midnightblue" d="M158.25,-564.61C100.68,-555.81 1.11,-530.29 1.11,-459 1.11,-459 1.11,-459 1.11,-177 1.11,-146.9 -3.34,-130.86 20.11,-112 67.95,-73.54 495.5,-67.93 636.35,-67.13"/>
<polygon fill="midnightblue" stroke="midnightblue" points="636.78,-70.63 646.76,-67.08 636.74,-63.63 636.78,-70.63"/>
</g>
<!-- Node6 -->
<g id="node6" class="node">
<title>Node6</title>
<g id="a_node6"><a xlink:href="xform_8h.html" target="_top" xlink:title="Transform.">
<polygon fill="white" stroke="black" points="431.61,-504.5 431.61,-523.5 486.61,-523.5 486.61,-504.5 431.61,-504.5"/>
<text text-anchor="middle" x="459.11" y="-511.5" font-family="Helvetica,sans-Serif" font-size="10.00">xform.h</text>
</a>
</g>
</g>
<!-- Node1&#45;&gt;Node6 -->
<g id="edge5" class="edge">
<title>Node1&#45;&gt;Node6</title>
<path fill="none" stroke="midnightblue" d="M237.75,-560.8C287.68,-550.47 372.83,-532.85 421.69,-522.74"/>
<polygon fill="midnightblue" stroke="midnightblue" points="422.45,-526.16 431.54,-520.71 421.03,-519.3 422.45,-526.16"/>
</g>
<!-- Node3 -->
<g id="node3" class="node">
<title>Node3</title>
<g id="a_node3"><a xlink:href="include__asm_8h.html" target="_top" xlink:title=" ">
<polygon fill="white" stroke="black" points="526.61,-0.5 526.61,-19.5 613.61,-19.5 613.61,-0.5 526.61,-0.5"/>
<text text-anchor="middle" x="570.11" y="-7.5" font-family="Helvetica,sans-Serif" font-size="10.00">include_asm.h</text>
</a>
</g>
</g>
<!-- Node2&#45;&gt;Node3 -->
<g id="edge2" class="edge">
<title>Node2&#45;&gt;Node3</title>
<path fill="none" stroke="midnightblue" d="M663.28,-56.32C645.4,-47.62 617.64,-34.12 597.07,-24.11"/>
<polygon fill="midnightblue" stroke="midnightblue" points="598.43,-20.88 587.9,-19.65 595.37,-27.18 598.43,-20.88"/>
</g>
<!-- Node4 -->
<g id="node4" class="node">
<title>Node4</title>
<g id="a_node4"><a xlink:href="include__rodata_8h.html" target="_top" xlink:title=" ">
<polygon fill="white" stroke="black" points="632.11,-0.5 632.11,-19.5 730.11,-19.5 730.11,-0.5 632.11,-0.5"/>
<text text-anchor="middle" x="681.11" y="-7.5" font-family="Helvetica,sans-Serif" font-size="10.00">include_rodata.h</text>
</a>
</g>
</g>
<!-- Node2&#45;&gt;Node4 -->
<g id="edge3" class="edge">
<title>Node2&#45;&gt;Node4</title>
<path fill="none" stroke="midnightblue" d="M681.11,-56.08C681.11,-49.01 681.11,-38.86 681.11,-29.99"/>
<polygon fill="midnightblue" stroke="midnightblue" points="684.61,-29.75 681.11,-19.75 677.61,-29.75 684.61,-29.75"/>
</g>
<!-- Node5 -->
<g id="node5" class="node">
<title>Node5</title>
<g id="a_node5"><a xlink:href="types_8h.html" target="_top" xlink:title="Types used throughout the engine.">
<polygon fill="white" stroke="black" points="748.61,-0.5 748.61,-19.5 801.61,-19.5 801.61,-0.5 748.61,-0.5"/>
<text text-anchor="middle" x="775.11" y="-7.5" font-family="Helvetica,sans-Serif" font-size="10.00">types.h</text>
</a>
</g>
</g>
<!-- Node2&#45;&gt;Node5 -->
<g id="edge4" class="edge">
<title>Node2&#45;&gt;Node5</title>
<path fill="none" stroke="midnightblue" d="M696.22,-56.32C711.02,-47.82 733.81,-34.73 751.1,-24.8"/>
<polygon fill="midnightblue" stroke="midnightblue" points="753.12,-27.67 760.05,-19.65 749.63,-21.6 753.12,-27.67"/>
</g>
<!-- Node6&#45;&gt;Node2 -->
<g id="edge6" class="edge">
<title>Node6&#45;&gt;Node2</title>
<path fill="none" stroke="midnightblue" d="M486.81,-511.85C583.87,-507.63 908.11,-492.05 1009.11,-468 1083.78,-450.22 1169.11,-479.76 1169.11,-403 1169.11,-403 1169.11,-403 1169.11,-177 1169.11,-135.19 1139.03,-129.61 1101.11,-112 1035.16,-81.37 819.34,-71.19 725.43,-68.16"/>
<polygon fill="midnightblue" stroke="midnightblue" points="725.5,-64.66 715.4,-67.85 725.29,-71.66 725.5,-64.66"/>
</g>
<!-- Node7 -->
<g id="node7" class="node">
<title>Node7</title>
<g id="a_node7"><a xlink:href="alo_8h.html" target="_top" xlink:title=" ">
<polygon fill="white" stroke="black" points="509.61,-280.5 509.61,-299.5 550.61,-299.5 550.61,-280.5 509.61,-280.5"/>
<text text-anchor="middle" x="530.11" y="-287.5" font-family="Helvetica,sans-Serif" font-size="10.00">alo.h</text>
</a>
</g>
</g>
<!-- Node6&#45;&gt;Node7 -->
<g id="edge7" class="edge">
<title>Node6&#45;&gt;Node7</title>
<path fill="none" stroke="midnightblue" d="M461.9,-504.3C472.37,-471.56 509.53,-355.38 524.14,-309.67"/>
<polygon fill="midnightblue" stroke="midnightblue" points="527.56,-310.47 527.27,-299.88 520.89,-308.34 527.56,-310.47"/>
</g>
<!-- Node9 -->
<g id="node9" class="node">
<title>Node9</title>
<g id="a_node9"><a xlink:href="oid_8h.html" target="_top" xlink:title="Object IDs.">
<polygon fill="white" stroke="black" points="201.61,-112.5 201.61,-131.5 242.61,-131.5 242.61,-112.5 201.61,-112.5"/>
<text text-anchor="middle" x="222.11" y="-119.5" font-family="Helvetica,sans-Serif" font-size="10.00">oid.h</text>
</a>
</g>
</g>
<!-- Node6&#45;&gt;Node9 -->
<g id="edge44" class="edge">
<title>Node6&#45;&gt;Node9</title>
<path fill="none" stroke="midnightblue" d="M431.4,-511.26C373.93,-506 247.11,-485.1 247.11,-403 247.11,-403 247.11,-403 247.11,-233 247.11,-200 236.28,-162.77 228.88,-141.19"/>
<polygon fill="midnightblue" stroke="midnightblue" points="232.14,-139.93 225.49,-131.69 225.55,-142.28 232.14,-139.93"/>
</g>
<!-- Node12 -->
<g id="node12" class="node">
<title>Node12</title>
<g id="a_node12"><a xlink:href="dl_8h.html" target="_top" xlink:title=" ">
<polygon fill="white" stroke="black" points="302.61,-168.5 302.61,-187.5 337.61,-187.5 337.61,-168.5 302.61,-168.5"/>
<text text-anchor="middle" x="320.11" y="-175.5" font-family="Helvetica,sans-Serif" font-size="10.00">dl.h</text>
</a>
</g>
</g>
<!-- Node6&#45;&gt;Node12 -->
<g id="edge33" class="edge">
<title>Node6&#45;&gt;Node12</title>
<path fill="none" stroke="midnightblue" d="M446.3,-504.39C423.24,-487.74 377.11,-448.73 377.11,-403 377.11,-403 377.11,-403 377.11,-289 377.11,-252.3 351.79,-215.66 334.9,-195.3"/>
<polygon fill="midnightblue" stroke="midnightblue" points="337.46,-192.9 328.28,-187.62 332.16,-197.48 337.46,-192.9"/>
</g>
<!-- Node16 -->
<g id="node16" class="node">
<title>Node16</title>
<g id="a_node16"><a xlink:href="util_8h.html" target="_top" xlink:title="Utility functions.">
<polygon fill="white" stroke="black" points="732.61,-448.5 732.61,-467.5 773.61,-467.5 773.61,-448.5 732.61,-448.5"/>
<text text-anchor="middle" x="753.11" y="-455.5" font-family="Helvetica,sans-Serif" font-size="10.00">util.h</text>
</a>
</g>
</g>
<!-- Node6&#45;&gt;Node16 -->
<g id="edge27" class="edge">
<title>Node6&#45;&gt;Node16</title>
<path fill="none" stroke="midnightblue" d="M486.77,-507.92C541.95,-497.79 665.3,-475.13 722.68,-464.59"/>
<polygon fill="midnightblue" stroke="midnightblue" points="723.39,-468.02 732.59,-462.77 722.12,-461.13 723.39,-468.02"/>
</g>
<!-- Node20 -->
<g id="node20" class="node">
<title>Node20</title>
<g id="a_node20"><a xlink:href="surf_8h.html" target="_top" xlink:title="Surface?">
<polygon fill="white" stroke="black" points="802.11,-448.5 802.11,-467.5 846.11,-467.5 846.11,-448.5 802.11,-448.5"/>
<text text-anchor="middle" x="824.11" y="-455.5" font-family="Helvetica,sans-Serif" font-size="10.00">surf.h</text>
</a>
</g>
</g>
<!-- Node6&#45;&gt;Node20 -->
<g id="edge34" class="edge">
<title>Node6&#45;&gt;Node20</title>
<path fill="none" stroke="midnightblue" d="M486.97,-509.87C543.17,-503.4 674.1,-487.5 783.11,-468 786.01,-467.48 789,-466.9 792,-466.3"/>
<polygon fill="midnightblue" stroke="midnightblue" points="792.99,-469.67 802.05,-464.18 791.54,-462.82 792.99,-469.67"/>
</g>
<!-- Node22 -->
<g id="node22" class="node">
<title>Node22</title>
<g id="a_node22"><a xlink:href="game_8h.html" target="_top" xlink:title="Game state and level management.">
<polygon fill="white" stroke="black" points="61.61,-168.5 61.61,-187.5 114.61,-187.5 114.61,-168.5 61.61,-168.5"/>
<text text-anchor="middle" x="88.11" y="-175.5" font-family="Helvetica,sans-Serif" font-size="10.00">game.h</text>
</a>
</g>
</g>
<!-- Node6&#45;&gt;Node22 -->
<g id="edge39" class="edge">
<title>Node6&#45;&gt;Node22</title>
<path fill="none" stroke="midnightblue" d="M431.24,-513.23C378.29,-512.69 260.47,-506.8 171.11,-468 128.14,-449.34 88.11,-449.85 88.11,-403 88.11,-403 88.11,-403 88.11,-289 88.11,-256.95 88.11,-219.64 88.11,-197.75"/>
<polygon fill="midnightblue" stroke="midnightblue" points="91.61,-197.56 88.11,-187.56 84.61,-197.56 91.61,-197.56"/>
</g>
<!-- Node24 -->
<g id="node24" class="node">
<title>Node24</title>
<g id="a_node24"><a xlink:href="anim_8h.html" target="_top" xlink:title="Animation.">
<polygon fill="white" stroke="black" points="299.11,-280.5 299.11,-299.5 349.11,-299.5 349.11,-280.5 299.11,-280.5"/>
<text text-anchor="middle" x="324.11" y="-287.5" font-family="Helvetica,sans-Serif" font-size="10.00">anim.h</text>
</a>
</g>
</g>
<!-- Node6&#45;&gt;Node24 -->
<g id="edge45" class="edge">
<title>Node6&#45;&gt;Node24</title>
<path fill="none" stroke="midnightblue" d="M431.36,-507.09C409.56,-500.99 380.13,-489.27 363.11,-468 325.5,-420.98 322.33,-345.35 323.12,-310.16"/>
<polygon fill="midnightblue" stroke="midnightblue" points="326.63,-310 323.5,-299.87 319.64,-309.74 326.63,-310"/>
</g>
<!-- Node25 -->
<g id="node25" class="node">
<title>Node25</title>
<g id="a_node25"><a xlink:href="wipe_8h.html" target="_top" xlink:title=" ">
<polygon fill="white" stroke="black" points="664.61,-224.5 664.61,-243.5 713.61,-243.5 713.61,-224.5 664.61,-224.5"/>
<text text-anchor="middle" x="689.11" y="-231.5" font-family="Helvetica,sans-Serif" font-size="10.00">wipe.h</text>
</a>
</g>
</g>
<!-- Node6&#45;&gt;Node25 -->
<g id="edge48" class="edge">
<title>Node6&#45;&gt;Node25</title>
<path fill="none" stroke="midnightblue" d="M459.11,-504.44C459.11,-485.94 459.11,-440.81 459.11,-403 459.11,-403 459.11,-403 459.11,-345 459.11,-259.47 590.17,-240.39 654.42,-236.17"/>
<polygon fill="midnightblue" stroke="midnightblue" points="654.72,-239.66 664.5,-235.6 654.32,-232.67 654.72,-239.66"/>
</g>
<!-- Node27 -->
<g id="node27" class="node">
<title>Node27</title>
<g id="a_node27"><a xlink:href="bis_8h.html" target="_top" xlink:title="Binary Input Stream.">
<polygon fill="white" stroke="black" points="960.11,-448.5 960.11,-467.5 1000.11,-467.5 1000.11,-448.5 960.11,-448.5"/>
<text text-anchor="middle" x="980.11" y="-455.5" font-family="Helvetica,sans-Serif" font-size="10.00">bis.h</text>
</a>
</g>
</g>
<!-- Node6&#45;&gt;Node27 -->
<g id="edge53" class="edge">
<title>Node6&#45;&gt;Node27</title>
<path fill="none" stroke="midnightblue" d="M486.76,-510.13C576.1,-500.87 856.66,-471.8 949.76,-462.15"/>
<polygon fill="midnightblue" stroke="midnightblue" points="950.33,-465.61 959.91,-461.09 949.6,-458.64 950.33,-465.61"/>
</g>
<!-- Node31 -->
<g id="node31" class="node">
<title>Node31</title>
<g id="a_node31"><a xlink:href="proxy_8h.html" target="_top" xlink:title=" ">
<polygon fill="white" stroke="black" points="525.11,-336.5 525.11,-355.5 577.11,-355.5 577.11,-336.5 525.11,-336.5"/>
<text text-anchor="middle" x="551.11" y="-343.5" font-family="Helvetica,sans-Serif" font-size="10.00">proxy.h</text>
</a>
</g>
</g>
<!-- Node6&#45;&gt;Node31 -->
<g id="edge64" class="edge">
<title>Node6&#45;&gt;Node31</title>
<path fill="none" stroke="midnightblue" d="M472.9,-504.23C484.6,-496.13 501.04,-483.1 511.11,-468 532.73,-435.6 543.53,-390.54 548.17,-365.56"/>
<polygon fill="midnightblue" stroke="midnightblue" points="551.64,-366.06 549.89,-355.61 544.74,-364.87 551.64,-366.06"/>
</g>
<!-- Node32 -->
<g id="node32" class="node">
<title>Node32</title>
<g id="a_node32"><a xlink:href="rs_8h.html" target="_top" xlink:title=" ">
<polygon fill="white" stroke="black" points="171.61,-168.5 171.61,-187.5 206.61,-187.5 206.61,-168.5 171.61,-168.5"/>
<text text-anchor="middle" x="189.11" y="-175.5" font-family="Helvetica,sans-Serif" font-size="10.00">rs.h</text>
</a>
</g>
</g>
<!-- Node6&#45;&gt;Node32 -->
<g id="edge67" class="edge">
<title>Node6&#45;&gt;Node32</title>
<path fill="none" stroke="midnightblue" d="M431.58,-509.92C351.8,-500.23 126.11,-467.16 126.11,-403 126.11,-403 126.11,-403 126.11,-289 126.11,-251.48 154.06,-215.14 172.73,-195.05"/>
<polygon fill="midnightblue" stroke="midnightblue" points="175.39,-197.34 179.82,-187.72 170.35,-192.48 175.39,-197.34"/>
</g>
<!-- Node7&#45;&gt;Node2 -->
<g id="edge8" class="edge">
<title>Node7&#45;&gt;Node2</title>
<path fill="none" stroke="midnightblue" d="M550.66,-289.78C588.92,-290.15 671.86,-285.67 723.11,-244 768.7,-206.94 762.19,-161.22 730.11,-112 722.6,-100.47 711.47,-89.93 701.72,-81.95"/>
<polygon fill="midnightblue" stroke="midnightblue" points="703.66,-79.03 693.63,-75.64 699.36,-84.55 703.66,-79.03"/>
</g>
<!-- Node8 -->
<g id="node8" class="node">
<title>Node8</title>
<g id="a_node8"><a xlink:href="lo_8h.html" target="_top" xlink:title="Level objects.">
<polygon fill="white" stroke="black" points="443.61,-224.5 443.61,-243.5 478.61,-243.5 478.61,-224.5 443.61,-224.5"/>
<text text-anchor="middle" x="461.11" y="-231.5" font-family="Helvetica,sans-Serif" font-size="10.00">lo.h</text>
</a>
</g>
</g>
<!-- Node7&#45;&gt;Node8 -->
<g id="edge9" class="edge">
<title>Node7&#45;&gt;Node8</title>
<path fill="none" stroke="midnightblue" d="M519.03,-280.32C508.63,-272.18 492.85,-259.84 480.39,-250.09"/>
<polygon fill="midnightblue" stroke="midnightblue" points="482.43,-247.24 472.4,-243.83 478.12,-252.75 482.43,-247.24"/>
</g>
<!-- Node7&#45;&gt;Node12 -->
<g id="edge26" class="edge">
<title>Node7&#45;&gt;Node12</title>
<path fill="none" stroke="midnightblue" d="M510.77,-280.48C491.22,-271.74 460.26,-257.55 434.11,-244 401.94,-227.32 365.73,-206.27 342.92,-192.72"/>
<polygon fill="midnightblue" stroke="midnightblue" points="344.69,-189.7 334.31,-187.58 341.1,-195.71 344.69,-189.7"/>
</g>
<!-- Node8&#45;&gt;Node2 -->
<g id="edge10" class="edge">
<title>Node8&#45;&gt;Node2</title>
<path fill="none" stroke="midnightblue" d="M466.49,-224.25C482.01,-199.24 527.16,-128.18 549.11,-112 575.03,-92.89 609.65,-81.49 636.93,-74.95"/>
<polygon fill="midnightblue" stroke="midnightblue" points="638.02,-78.29 647,-72.67 636.47,-71.46 638.02,-78.29"/>
</g>
<!-- Node8&#45;&gt;Node9 -->
<g id="edge11" class="edge">
<title>Node8&#45;&gt;Node9</title>
<path fill="none" stroke="midnightblue" d="M445.52,-224.49C429.16,-215.52 402.74,-200.94 380.11,-188 364.89,-179.3 361.98,-175.47 346.11,-168 315.15,-153.43 278.09,-140.54 252.6,-132.33"/>
<polygon fill="midnightblue" stroke="midnightblue" points="253.36,-128.9 242.77,-129.21 251.24,-135.57 253.36,-128.9"/>
</g>
<!-- Node10 -->
<g id="node10" class="node">
<title>Node10</title>
<g id="a_node10"><a xlink:href="basic_8h.html" target="_top" xlink:title="Basic object.">
<polygon fill="white" stroke="black" points="579.61,-168.5 579.61,-187.5 630.61,-187.5 630.61,-168.5 579.61,-168.5"/>
<text text-anchor="middle" x="605.11" y="-175.5" font-family="Helvetica,sans-Serif" font-size="10.00">basic.h</text>
</a>
</g>
</g>
<!-- Node8&#45;&gt;Node10 -->
<g id="edge13" class="edge">
<title>Node8&#45;&gt;Node10</title>
<path fill="none" stroke="midnightblue" d="M478.77,-226.38C502.02,-217.66 543.33,-202.17 572.37,-191.28"/>
<polygon fill="midnightblue" stroke="midnightblue" points="573.94,-194.43 582.08,-187.64 571.49,-187.87 573.94,-194.43"/>
</g>
<!-- Node8&#45;&gt;Node12 -->
<g id="edge17" class="edge">
<title>Node8&#45;&gt;Node12</title>
<path fill="none" stroke="midnightblue" d="M443.54,-226.27C419.37,-217.01 375.64,-200.27 347.25,-189.39"/>
<polygon fill="midnightblue" stroke="midnightblue" points="348.5,-186.12 337.91,-185.81 345.99,-192.66 348.5,-186.12"/>
</g>
<!-- Node13 -->
<g id="node13" class="node">
<title>Node13</title>
<g id="a_node13"><a xlink:href="sw_8h.html" target="_top" xlink:title="Scene world?">
<polygon fill="white" stroke="black" points="299.11,-112.5 299.11,-131.5 337.11,-131.5 337.11,-112.5 299.11,-112.5"/>
<text text-anchor="middle" x="318.11" y="-119.5" font-family="Helvetica,sans-Serif" font-size="10.00">sw.h</text>
</a>
</g>
</g>
<!-- Node8&#45;&gt;Node13 -->
<g id="edge20" class="edge">
<title>Node8&#45;&gt;Node13</title>
<path fill="none" stroke="midnightblue" d="M450.76,-224.42C435.48,-211.83 405.91,-187.69 380.11,-168 366.5,-157.61 350.9,-146.29 338.75,-137.6"/>
<polygon fill="midnightblue" stroke="midnightblue" points="340.77,-134.74 330.6,-131.79 336.71,-140.44 340.77,-134.74"/>
</g>
<!-- Node14 -->
<g id="node14" class="node">
<title>Node14</title>
<g id="a_node14"><a xlink:href="frame_8h.html" target="_top" xlink:title=" ">
<polygon fill="white" stroke="black" points="355.11,-112.5 355.11,-131.5 441.11,-131.5 441.11,-112.5 355.11,-112.5"/>
<text text-anchor="middle" x="398.11" y="-119.5" font-family="Helvetica,sans-Serif" font-size="10.00">splice/frame.h</text>
</a>
</g>
</g>
<!-- Node8&#45;&gt;Node14 -->
<g id="edge22" class="edge">
<title>Node8&#45;&gt;Node14</title>
<path fill="none" stroke="midnightblue" d="M456.17,-224.37C445.82,-206.3 421.7,-164.18 408.03,-140.31"/>
<polygon fill="midnightblue" stroke="midnightblue" points="411.04,-138.53 403.03,-131.59 404.97,-142.01 411.04,-138.53"/>
</g>
<!-- Node15 -->
<g id="node15" class="node">
<title>Node15</title>
<g id="a_node15"><a xlink:href="mq_8h.html" target="_top" xlink:title="Message queue(?).">
<polygon fill="white" stroke="black" points="459.61,-112.5 459.61,-131.5 500.61,-131.5 500.61,-112.5 459.61,-112.5"/>
<text text-anchor="middle" x="480.11" y="-119.5" font-family="Helvetica,sans-Serif" font-size="10.00">mq.h</text>
</a>
</g>
</g>
<!-- Node8&#45;&gt;Node15 -->
<g id="edge24" class="edge">
<title>Node8&#45;&gt;Node15</title>
<path fill="none" stroke="midnightblue" d="M462.6,-224.37C465.67,-206.62 472.74,-165.67 476.9,-141.6"/>
<polygon fill="midnightblue" stroke="midnightblue" points="480.38,-142.04 478.63,-131.59 473.48,-140.85 480.38,-142.04"/>
</g>
<!-- Node9&#45;&gt;Node2 -->
<g id="edge12" class="edge">
<title>Node9&#45;&gt;Node2</title>
<path fill="none" stroke="midnightblue" d="M242.73,-115.17C247.43,-113.99 252.42,-112.85 257.11,-112 394.35,-87.21 559.22,-74.54 636.73,-69.57"/>
<polygon fill="midnightblue" stroke="midnightblue" points="637.31,-73.04 647.07,-68.92 636.87,-66.06 637.31,-73.04"/>
</g>
<!-- Node10&#45;&gt;Node2 -->
<g id="edge14" class="edge">
<title>Node10&#45;&gt;Node2</title>
<path fill="none" stroke="midnightblue" d="M620.64,-168.46C633.55,-160.6 651.47,-147.78 662.11,-132 671.46,-118.14 676.29,-99.63 678.73,-85.9"/>
<polygon fill="midnightblue" stroke="midnightblue" points="682.24,-86.12 680.27,-75.71 675.32,-85.07 682.24,-86.12"/>
</g>
<!-- Node11 -->
<g id="node11" class="node">
<title>Node11</title>
<g id="a_node11"><a xlink:href="sidebag_8h.html" target="_top" xlink:title="Sidebag for splice.">
<polygon fill="white" stroke="black" points="557.61,-112.5 557.61,-131.5 652.61,-131.5 652.61,-112.5 557.61,-112.5"/>
<text text-anchor="middle" x="605.11" y="-119.5" font-family="Helvetica,sans-Serif" font-size="10.00">splice/sidebag.h</text>
</a>
</g>
</g>
<!-- Node10&#45;&gt;Node11 -->
<g id="edge15" class="edge">
<title>Node10&#45;&gt;Node11</title>
<path fill="none" stroke="midnightblue" d="M605.11,-168.08C605.11,-161.01 605.11,-150.86 605.11,-141.99"/>
<polygon fill="midnightblue" stroke="midnightblue" points="608.61,-141.75 605.11,-131.75 601.61,-141.75 608.61,-141.75"/>
</g>
<!-- Node11&#45;&gt;Node2 -->
<g id="edge16" class="edge">
<title>Node11&#45;&gt;Node2</title>
<path fill="none" stroke="midnightblue" d="M617.32,-112.32C628.89,-104.11 646.49,-91.6 660.27,-81.81"/>
<polygon fill="midnightblue" stroke="midnightblue" points="662.56,-84.48 668.68,-75.83 658.5,-78.77 662.56,-84.48"/>
</g>
<!-- Node12&#45;&gt;Node2 -->
<g id="edge18" class="edge">
<title>Node12&#45;&gt;Node2</title>
<path fill="none" stroke="midnightblue" d="M310.27,-168.08C296.57,-154.61 275.06,-128.88 290.11,-112 312.87,-86.47 539.17,-73.35 636.73,-68.84"/>
<polygon fill="midnightblue" stroke="midnightblue" points="637.04,-72.33 646.87,-68.38 636.72,-65.34 637.04,-72.33"/>
</g>
<!-- Node12&#45;&gt;Node9 -->
<g id="edge19" class="edge">
<title>Node12&#45;&gt;Node9</title>
<path fill="none" stroke="midnightblue" d="M304.37,-168.32C288.8,-159.74 264.74,-146.49 246.65,-136.52"/>
<polygon fill="midnightblue" stroke="midnightblue" points="248.27,-133.42 237.82,-131.65 244.89,-139.55 248.27,-133.42"/>
</g>
<!-- Node13&#45;&gt;Node2 -->
<g id="edge21" class="edge">
<title>Node13&#45;&gt;Node2</title>
<path fill="none" stroke="midnightblue" d="M337.27,-114.35C340.21,-113.47 343.23,-112.65 346.11,-112 448.86,-88.78 572.23,-76 636.78,-70.43"/>
<polygon fill="midnightblue" stroke="midnightblue" points="637.33,-73.9 647,-69.57 636.74,-66.92 637.33,-73.9"/>
</g>
<!-- Node14&#45;&gt;Node2 -->
<g id="edge23" class="edge">
<title>Node14&#45;&gt;Node2</title>
<path fill="none" stroke="midnightblue" d="M441.4,-112.74C494.35,-102.64 583.5,-85.63 636.88,-75.44"/>
<polygon fill="midnightblue" stroke="midnightblue" points="637.57,-78.87 646.73,-73.56 636.25,-72 637.57,-78.87"/>
</g>
<!-- Node15&#45;&gt;Node2 -->
<g id="edge25" class="edge">
<title>Node15&#45;&gt;Node2</title>
<path fill="none" stroke="midnightblue" d="M500.87,-115.42C533.46,-106.67 597.29,-89.52 639.57,-78.16"/>
<polygon fill="midnightblue" stroke="midnightblue" points="640.55,-81.52 649.3,-75.55 638.73,-74.76 640.55,-81.52"/>
</g>
<!-- Node16&#45;&gt;Node2 -->
<g id="edge28" class="edge">
<title>Node16&#45;&gt;Node2</title>
<path fill="none" stroke="midnightblue" d="M751.6,-448.3C749.73,-435.55 747.57,-411.23 754.11,-392 782.14,-309.61 871.11,-322.02 871.11,-235 871.11,-235 871.11,-235 871.11,-177 871.11,-110.08 781.75,-83.21 725.59,-72.93"/>
<polygon fill="midnightblue" stroke="midnightblue" points="725.97,-69.45 715.52,-71.2 724.78,-76.35 725.97,-69.45"/>
</g>
<!-- Node17 -->
<g id="node17" class="node">
<title>Node17</title>
<g id="a_node17"><a xlink:href="mat_8h.html" target="_top" xlink:title="3x3 and 4x4 matrix types.">
<polygon fill="white" stroke="black" points="862.61,-392.5 862.61,-411.5 907.61,-411.5 907.61,-392.5 862.61,-392.5"/>
<text text-anchor="middle" x="885.11" y="-399.5" font-family="Helvetica,sans-Serif" font-size="10.00">mat.h</text>
</a>
</g>
</g>
<!-- Node16&#45;&gt;Node17 -->
<g id="edge29" class="edge">
<title>Node16&#45;&gt;Node17</title>
<path fill="none" stroke="midnightblue" d="M773.74,-448.56C795.5,-439.66 830.03,-425.54 854.87,-415.37"/>
<polygon fill="midnightblue" stroke="midnightblue" points="856.27,-418.58 864.2,-411.56 853.62,-412.1 856.27,-418.58"/>
</g>
<!-- Node18 -->
<g id="node18" class="node">
<title>Node18</title>
<g id="a_node18"><a xlink:href="vec_8h.html" target="_top" xlink:title="Vector math functions.">
<polygon fill="white" stroke="black" points="762.61,-392.5 762.61,-411.5 805.61,-411.5 805.61,-392.5 762.61,-392.5"/>
<text text-anchor="middle" x="784.11" y="-399.5" font-family="Helvetica,sans-Serif" font-size="10.00">vec.h</text>
</a>
</g>
</g>
<!-- Node16&#45;&gt;Node18 -->
<g id="edge30" class="edge">
<title>Node16&#45;&gt;Node18</title>
<path fill="none" stroke="midnightblue" d="M758.23,-448.08C762.52,-440.61 768.77,-429.72 774.06,-420.52"/>
<polygon fill="midnightblue" stroke="midnightblue" points="777.15,-422.17 779.09,-411.75 771.08,-418.68 777.15,-422.17"/>
</g>
<!-- Node19 -->
<g id="node19" class="node">
<title>Node19</title>
<g id="a_node19"><a xlink:href="so_8h.html" target="_top" xlink:title="Scene objects.">
<polygon fill="white" stroke="black" points="711.61,-336.5 711.61,-355.5 748.61,-355.5 748.61,-336.5 711.61,-336.5"/>
<text text-anchor="middle" x="730.11" y="-343.5" font-family="Helvetica,sans-Serif" font-size="10.00">so.h</text>
</a>
</g>
</g>
<!-- Node18&#45;&gt;Node19 -->
<g id="edge31" class="edge">
<title>Node18&#45;&gt;Node19</title>
<path fill="none" stroke="midnightblue" d="M775.2,-392.08C767.33,-384.22 755.68,-372.57 746.2,-363.08"/>
<polygon fill="midnightblue" stroke="midnightblue" points="748.41,-360.35 738.87,-355.75 743.46,-365.3 748.41,-360.35"/>
</g>
<!-- Node19&#45;&gt;Node7 -->
<g id="edge32" class="edge">
<title>Node19&#45;&gt;Node7</title>
<path fill="none" stroke="midnightblue" d="M711.3,-339.92C676.62,-330.56 602.36,-310.51 560.47,-299.2"/>
<polygon fill="midnightblue" stroke="midnightblue" points="561.38,-295.82 550.81,-296.59 559.55,-302.57 561.38,-295.82"/>
</g>
<!-- Node20&#45;&gt;Node2 -->
<g id="edge35" class="edge">
<title>Node20&#45;&gt;Node2</title>
<path fill="none" stroke="midnightblue" d="M827.88,-448.29C844.33,-410.07 909.11,-258.06 909.11,-235 909.11,-235 909.11,-235 909.11,-177 909.11,-96.28 791.75,-74.76 725.43,-69.05"/>
<polygon fill="midnightblue" stroke="midnightblue" points="725.49,-65.54 715.25,-68.26 724.95,-72.52 725.49,-65.54"/>
</g>
<!-- Node20&#45;&gt;Node18 -->
<g id="edge36" class="edge">
<title>Node20&#45;&gt;Node18</title>
<path fill="none" stroke="midnightblue" d="M817.51,-448.08C811.86,-440.46 803.57,-429.26 796.66,-419.94"/>
<polygon fill="midnightblue" stroke="midnightblue" points="799.36,-417.7 790.6,-411.75 793.74,-421.87 799.36,-417.7"/>
</g>
<!-- Node21 -->
<g id="node21" class="node">
<title>Node21</title>
<g id="a_node21"><a xlink:href="geom_8h.html" target="_top" xlink:title="Geometry.">
<polygon fill="white" stroke="black" points="925.61,-392.5 925.61,-411.5 978.61,-411.5 978.61,-392.5 925.61,-392.5"/>
<text text-anchor="middle" x="952.11" y="-399.5" font-family="Helvetica,sans-Serif" font-size="10.00">geom.h</text>
</a>
</g>
</g>
<!-- Node20&#45;&gt;Node21 -->
<g id="edge37" class="edge">
<title>Node20&#45;&gt;Node21</title>
<path fill="none" stroke="midnightblue" d="M844.4,-448.44C865.46,-439.56 898.63,-425.56 922.6,-415.45"/>
<polygon fill="midnightblue" stroke="midnightblue" points="924.07,-418.63 931.93,-411.52 921.35,-412.18 924.07,-418.63"/>
</g>
<!-- Node21&#45;&gt;Node2 -->
<g id="edge38" class="edge">
<title>Node21&#45;&gt;Node2</title>
<path fill="none" stroke="midnightblue" d="M951.46,-392.45C950.11,-373.95 947.11,-328.85 947.11,-291 947.11,-291 947.11,-291 947.11,-177 947.11,-146.2 946.66,-131.85 923.11,-112 893.85,-87.33 787.05,-75.15 725.55,-70.06"/>
<polygon fill="midnightblue" stroke="midnightblue" points="725.6,-66.55 715.35,-69.25 725.04,-73.53 725.6,-66.55"/>
</g>
<!-- Node22&#45;&gt;Node2 -->
<g id="edge40" class="edge">
<title>Node22&#45;&gt;Node2</title>
<path fill="none" stroke="midnightblue" d="M89.68,-168.48C92.82,-154.09 101.35,-125.25 121.11,-112 163.52,-83.57 511.22,-71.54 636.41,-68.1"/>
<polygon fill="midnightblue" stroke="midnightblue" points="636.88,-71.59 646.78,-67.83 636.69,-64.6 636.88,-71.59"/>
</g>
<!-- Node22&#45;&gt;Node9 -->
<g id="edge41" class="edge">
<title>Node22&#45;&gt;Node9</title>
<path fill="none" stroke="midnightblue" d="M109.35,-168.44C131.63,-159.46 166.84,-145.27 191.99,-135.14"/>
<polygon fill="midnightblue" stroke="midnightblue" points="193.45,-138.32 201.42,-131.34 190.84,-131.83 193.45,-138.32"/>
</g>
<!-- Node23 -->
<g id="node23" class="node">
<title>Node23</title>
<g id="a_node23"><a xlink:href="cid_8h.html" target="_top" xlink:title="Class ID.">
<polygon fill="white" stroke="black" points="29.11,-112.5 29.11,-131.5 69.11,-131.5 69.11,-112.5 29.11,-112.5"/>
<text text-anchor="middle" x="49.11" y="-119.5" font-family="Helvetica,sans-Serif" font-size="10.00">cid.h</text>
</a>
</g>
</g>
<!-- Node22&#45;&gt;Node23 -->
<g id="edge42" class="edge">
<title>Node22&#45;&gt;Node23</title>
<path fill="none" stroke="midnightblue" d="M81.67,-168.08C76.17,-160.46 68.08,-149.26 61.35,-139.94"/>
<polygon fill="midnightblue" stroke="midnightblue" points="64.13,-137.81 55.43,-131.75 58.45,-141.91 64.13,-137.81"/>
</g>
<!-- Node23&#45;&gt;Node2 -->
<g id="edge43" class="edge">
<title>Node23&#45;&gt;Node2</title>
<path fill="none" stroke="midnightblue" d="M69.12,-115.05C73.68,-113.88 78.54,-112.77 83.11,-112 288.12,-77.45 537.15,-69.42 636.79,-67.56"/>
<polygon fill="midnightblue" stroke="midnightblue" points="636.86,-71.06 646.8,-67.38 636.74,-64.06 636.86,-71.06"/>
</g>
<!-- Node24&#45;&gt;Node2 -->
<g id="edge46" class="edge">
<title>Node24&#45;&gt;Node2</title>
<path fill="none" stroke="midnightblue" d="M298.98,-281.88C261.3,-269.7 191.47,-240.89 162.11,-188 150.16,-166.45 169.37,-119.92 179.11,-112 214.21,-83.46 520.17,-71.66 636.49,-68.19"/>
<polygon fill="midnightblue" stroke="midnightblue" points="636.93,-71.67 646.82,-67.88 636.72,-64.68 636.93,-71.67"/>
</g>
<!-- Node24&#45;&gt;Node8 -->
<g id="edge47" class="edge">
<title>Node24&#45;&gt;Node8</title>
<path fill="none" stroke="midnightblue" d="M345.82,-280.44C369.67,-271.04 408,-255.93 433.86,-245.74"/>
<polygon fill="midnightblue" stroke="midnightblue" points="435.41,-248.89 443.43,-241.97 432.84,-242.38 435.41,-248.89"/>
</g>
<!-- Node25&#45;&gt;Node2 -->
<g id="edge49" class="edge">
<title>Node25&#45;&gt;Node2</title>
<path fill="none" stroke="midnightblue" d="M702.18,-224.44C713.03,-216.47 727.69,-203.52 734.11,-188 737.52,-179.79 735.97,-176.69 734.11,-168 727.27,-135.88 707.05,-102.98 693.65,-83.8"/>
<polygon fill="midnightblue" stroke="midnightblue" points="696.4,-81.62 687.72,-75.55 690.72,-85.71 696.4,-81.62"/>
</g>
<!-- Node26 -->
<g id="node26" class="node">
<title>Node26</title>
<g id="a_node26"><a xlink:href="transition_8h.html" target="_top" xlink:title="Level transitions.">
<polygon fill="white" stroke="black" points="653.11,-168.5 653.11,-187.5 725.11,-187.5 725.11,-168.5 653.11,-168.5"/>
<text text-anchor="middle" x="689.11" y="-175.5" font-family="Helvetica,sans-Serif" font-size="10.00">transition.h</text>
</a>
</g>
</g>
<!-- Node25&#45;&gt;Node26 -->
<g id="edge50" class="edge">
<title>Node25&#45;&gt;Node26</title>
<path fill="none" stroke="midnightblue" d="M689.11,-224.08C689.11,-217.01 689.11,-206.86 689.11,-197.99"/>
<polygon fill="midnightblue" stroke="midnightblue" points="692.61,-197.75 689.11,-187.75 685.61,-197.75 692.61,-197.75"/>
</g>
<!-- Node26&#45;&gt;Node2 -->
<g id="edge51" class="edge">
<title>Node26&#45;&gt;Node2</title>
<path fill="none" stroke="midnightblue" d="M691.29,-168.13C694.06,-155.58 698.14,-131.94 695.11,-112 693.75,-103 690.92,-93.33 688.17,-85.26"/>
<polygon fill="midnightblue" stroke="midnightblue" points="691.43,-83.98 684.71,-75.78 684.85,-86.37 691.43,-83.98"/>
</g>
<!-- Node26&#45;&gt;Node9 -->
<g id="edge52" class="edge">
<title>Node26&#45;&gt;Node9</title>
<path fill="none" stroke="midnightblue" d="M653.04,-170.04C648.69,-169.3 644.31,-168.6 640.11,-168 485.31,-145.86 445.42,-150.26 290.11,-132 277.89,-130.56 264.45,-128.82 252.77,-127.25"/>
<polygon fill="midnightblue" stroke="midnightblue" points="253.01,-123.75 242.63,-125.87 252.07,-130.69 253.01,-123.75"/>
</g>
<!-- Node27&#45;&gt;Node2 -->
<g id="edge54" class="edge">
<title>Node27&#45;&gt;Node2</title>
<path fill="none" stroke="midnightblue" d="M982.1,-448.43C984.08,-439.42 986.98,-424.8 988.11,-412 988.9,-403.15 988.25,-400.89 988.11,-392 987.45,-347.1 985.11,-335.91 985.11,-291 985.11,-291 985.11,-291 985.11,-177 985.11,-143.08 973.22,-130.98 945.11,-112 910,-88.29 791.08,-75.53 725.48,-70.15"/>
<polygon fill="midnightblue" stroke="midnightblue" points="725.68,-66.65 715.43,-69.35 725.12,-73.63 725.68,-66.65"/>
</g>
<!-- Node27&#45;&gt;Node17 -->
<g id="edge60" class="edge">
<title>Node27&#45;&gt;Node17</title>
<path fill="none" stroke="midnightblue" d="M964.85,-448.32C949.89,-439.82 926.86,-426.73 909.39,-416.8"/>
<polygon fill="midnightblue" stroke="midnightblue" points="910.76,-413.55 900.34,-411.65 907.3,-419.64 910.76,-413.55"/>
</g>
<!-- Node27&#45;&gt;Node18 -->
<g id="edge59" class="edge">
<title>Node27&#45;&gt;Node18</title>
<path fill="none" stroke="midnightblue" d="M959.88,-451.42C925.61,-441.98 855.96,-422.79 815.38,-411.61"/>
<polygon fill="midnightblue" stroke="midnightblue" points="816.3,-408.24 805.73,-408.95 814.44,-414.98 816.3,-408.24"/>
</g>
<!-- Node27&#45;&gt;Node21 -->
<g id="edge61" class="edge">
<title>Node27&#45;&gt;Node21</title>
<path fill="none" stroke="midnightblue" d="M975.49,-448.08C971.66,-440.69 966.09,-429.95 961.35,-420.81"/>
<polygon fill="midnightblue" stroke="midnightblue" points="964.36,-419.02 956.65,-411.75 958.15,-422.24 964.36,-419.02"/>
</g>
<!-- Node28 -->
<g id="node28" class="node">
<title>Node28</title>
<g id="a_node28"><a xlink:href="prog_8h.html" target="_top" xlink:title=" ">
<polygon fill="white" stroke="black" points="1013.61,-336.5 1013.61,-355.5 1060.61,-355.5 1060.61,-336.5 1013.61,-336.5"/>
<text text-anchor="middle" x="1037.11" y="-343.5" font-family="Helvetica,sans-Serif" font-size="10.00">prog.h</text>
</a>
</g>
</g>
<!-- Node27&#45;&gt;Node28 -->
<g id="edge55" class="edge">
<title>Node27&#45;&gt;Node28</title>
<path fill="none" stroke="midnightblue" d="M990.44,-448.42C999.83,-440.07 1013.35,-426.55 1021.11,-412 1028.81,-397.58 1032.88,-379.39 1034.98,-365.92"/>
<polygon fill="midnightblue" stroke="midnightblue" points="1038.46,-366.28 1036.32,-355.9 1031.53,-365.35 1038.46,-366.28"/>
</g>
<!-- Node29 -->
<g id="node29" class="node">
<title>Node29</title>
<g id="a_node29"><a xlink:href="clock_8h.html" target="_top" xlink:title="Engine clock.">
<polygon fill="white" stroke="black" points="1051.61,-280.5 1051.61,-299.5 1102.61,-299.5 1102.61,-280.5 1051.61,-280.5"/>
<text text-anchor="middle" x="1077.11" y="-287.5" font-family="Helvetica,sans-Serif" font-size="10.00">clock.h</text>
</a>
</g>
</g>
<!-- Node27&#45;&gt;Node29 -->
<g id="edge57" class="edge">
<title>Node27&#45;&gt;Node29</title>
<path fill="none" stroke="midnightblue" d="M994.27,-448.32C1006.87,-440.09 1025.25,-426.82 1038.11,-412 1056.91,-390.36 1061.28,-383.27 1070.11,-356 1074.98,-340.97 1076.63,-323.06 1077.11,-309.85"/>
<polygon fill="midnightblue" stroke="midnightblue" points="1080.62,-309.71 1077.29,-299.65 1073.62,-309.58 1080.62,-309.71"/>
</g>
<!-- Node30 -->
<g id="node30" class="node">
<title>Node30</title>
<g id="a_node30"><a xlink:href="cat_8h.html" target="_top" xlink:title="Catalog.">
<polygon fill="white" stroke="black" points="1097.61,-224.5 1097.61,-243.5 1138.61,-243.5 1138.61,-224.5 1097.61,-224.5"/>
<text text-anchor="middle" x="1118.11" y="-231.5" font-family="Helvetica,sans-Serif" font-size="10.00">cat.h</text>
</a>
</g>
</g>
<!-- Node27&#45;&gt;Node30 -->
<g id="edge62" class="edge">
<title>Node27&#45;&gt;Node30</title>
<path fill="none" stroke="midnightblue" d="M1000.18,-449.58C1017.63,-442.28 1042.63,-429.65 1059.11,-412 1096.7,-371.75 1097.78,-353.17 1112.11,-300 1116.22,-284.77 1117.64,-266.88 1118.07,-253.73"/>
<polygon fill="midnightblue" stroke="midnightblue" points="1121.57,-253.64 1118.25,-243.58 1114.57,-253.52 1121.57,-253.64"/>
</g>
<!-- Node28&#45;&gt;Node2 -->
<g id="edge56" class="edge">
<title>Node28&#45;&gt;Node2</title>
<path fill="none" stroke="midnightblue" d="M1035.28,-336.49C1031.49,-318.07 1023.11,-273.12 1023.11,-235 1023.11,-235 1023.11,-235 1023.11,-177 1023.11,-146.2 1023.08,-131.34 999.11,-112 957.93,-78.77 802.98,-70.08 725.62,-67.81"/>
<polygon fill="midnightblue" stroke="midnightblue" points="725.33,-64.3 715.24,-67.53 725.14,-71.29 725.33,-64.3"/>
</g>
<!-- Node29&#45;&gt;Node2 -->
<g id="edge58" class="edge">
<title>Node29&#45;&gt;Node2</title>
<path fill="none" stroke="midnightblue" d="M1078.22,-280.34C1081.39,-251.43 1087.26,-157.53 1037.11,-112 992.28,-71.3 810.27,-66.46 725.25,-66.49"/>
<polygon fill="midnightblue" stroke="midnightblue" points="725.13,-62.99 715.14,-66.52 725.15,-69.99 725.13,-62.99"/>
</g>
<!-- Node30&#45;&gt;Node2 -->
<g id="edge63" class="edge">
<title>Node30&#45;&gt;Node2</title>
<path fill="none" stroke="midnightblue" d="M1118.34,-224.26C1118.39,-201.62 1115.11,-140.85 1080.11,-112 1053.16,-89.78 823.8,-74.77 725.52,-69.3"/>
<polygon fill="midnightblue" stroke="midnightblue" points="725.49,-65.79 715.32,-68.74 725.11,-72.78 725.49,-65.79"/>
</g>
<!-- Node31&#45;&gt;Node2 -->
<g id="edge65" class="edge">
<title>Node31&#45;&gt;Node2</title>
<path fill="none" stroke="midnightblue" d="M577.14,-340.61C646.95,-328.11 833.11,-289.65 833.11,-235 833.11,-235 833.11,-235 833.11,-177 833.11,-123.13 769.69,-92.96 724.78,-78.34"/>
<polygon fill="midnightblue" stroke="midnightblue" points="725.81,-75 715.23,-75.38 723.74,-81.69 725.81,-75"/>
</g>
<!-- Node31&#45;&gt;Node7 -->
<g id="edge66" class="edge">
<title>Node31&#45;&gt;Node7</title>
<path fill="none" stroke="midnightblue" d="M547.65,-336.08C544.8,-328.77 540.68,-318.18 537.15,-309.1"/>
<polygon fill="midnightblue" stroke="midnightblue" points="540.4,-307.8 533.52,-299.75 533.88,-310.34 540.4,-307.8"/>
</g>
<!-- Node32&#45;&gt;Node2 -->
<g id="edge68" class="edge">
<title>Node32&#45;&gt;Node2</title>
<path fill="none" stroke="midnightblue" d="M186.41,-168.49C182.59,-154.62 177.6,-127.19 192.11,-112 222.53,-80.17 522.2,-70.41 636.83,-67.83"/>
<polygon fill="midnightblue" stroke="midnightblue" points="637.09,-71.32 647.01,-67.6 636.94,-64.32 637.09,-71.32"/>
</g>
<!-- Node32&#45;&gt;Node9 -->
<g id="edge69" class="edge">
<title>Node32&#45;&gt;Node9</title>
<path fill="none" stroke="midnightblue" d="M194.56,-168.08C199.13,-160.61 205.78,-149.72 211.41,-140.52"/>
<polygon fill="midnightblue" stroke="midnightblue" points="214.54,-142.11 216.77,-131.75 208.57,-138.46 214.54,-142.11"/>
</g>
</g>
</svg>
