<?xml version="1.0" encoding="UTF-8" standalone="no"?>
<!DOCTYPE svg PUBLIC "-//W3C//DTD SVG 1.1//EN"
 "http://www.w3.org/Graphics/SVG/1.1/DTD/svg11.dtd">
<!-- Generated by graphviz version 2.43.0 (0)
 -->
<!-- Title: include/vol.h Pages: 1 -->
<svg width="1954pt" height="412pt"
 viewBox="0.00 0.00 1954.00 412.00" xmlns="http://www.w3.org/2000/svg" xmlns:xlink="http://www.w3.org/1999/xlink">
<g id="graph0" class="graph" transform="scale(1 1) rotate(0) translate(4 408)">
<title>include/vol.h</title>
<!-- Node1 -->
<g id="Node000001" class="node">
<title>Node1</title>
<g id="a_Node000001"><a xlink:title="Volume object.">
<polygon fill="#999999" stroke="#666666" points="1541.5,-404 1462.5,-404 1462.5,-385 1541.5,-385 1541.5,-404"/>
<text text-anchor="middle" x="1502" y="-392" font-family="Helvetica,sans-Serif" font-size="10.00">include/vol.h</text>
</a>
</g>
</g>
<!-- Node2 -->
<g id="Node000002" class="node">
<title>Node2</title>
<g id="a_Node000002"><a xlink:href="chkpnt_8h.html" target="_top" xlink:title="Checkpoint system.">
<polygon fill="white" stroke="#666666" points="1550.5,-349 1453.5,-349 1453.5,-330 1550.5,-330 1550.5,-349"/>
<text text-anchor="middle" x="1502" y="-337" font-family="Helvetica,sans-Serif" font-size="10.00">include/chkpnt.h</text>
</a>
</g>
</g>
<!-- Node1&#45;&gt;Node2 -->
<g id="edge1_Node000001_Node000002" class="edge">
<title>Node1&#45;&gt;Node2</title>
<g id="a_edge1_Node000001_Node000002"><a xlink:title=" ">
<path fill="none" stroke="#63b8ff" d="M1502,-374.66C1502,-365.93 1502,-355.99 1502,-349.09"/>
<polygon fill="#63b8ff" stroke="#63b8ff" points="1498.5,-374.75 1502,-384.75 1505.5,-374.75 1498.5,-374.75"/>
</a>
</g>
</g>
<!-- Node3 -->
<g id="Node000003" class="node">
<title>Node3</title>
<g id="a_Node000003"><a xlink:href="difficulty_8h.html" target="_top" xlink:title="Dynamic difficulty system.">
<polygon fill="white" stroke="#666666" points="1193.5,-294 1088.5,-294 1088.5,-275 1193.5,-275 1193.5,-294"/>
<text text-anchor="middle" x="1141" y="-282" font-family="Helvetica,sans-Serif" font-size="10.00">include/difficulty.h</text>
</a>
</g>
</g>
<!-- Node2&#45;&gt;Node3 -->
<g id="edge2_Node000002_Node000003" class="edge">
<title>Node2&#45;&gt;Node3</title>
<g id="a_edge2_Node000002_Node000003"><a xlink:title=" ">
<path fill="none" stroke="#63b8ff" d="M1443.01,-329.84C1373.76,-319.67 1259.95,-302.96 1193.59,-293.22"/>
<polygon fill="#63b8ff" stroke="#63b8ff" points="1442.91,-333.36 1453.31,-331.35 1443.93,-326.44 1442.91,-333.36"/>
</a>
</g>
</g>
<!-- Node18 -->
<g id="Node000018" class="node">
<title>Node18</title>
<g id="a_Node000018"><a xlink:href="gomer_8c.html" target="_top" xlink:title=" ">
<polygon fill="white" stroke="#666666" points="1341,-19 1253,-19 1253,0 1341,0 1341,-19"/>
<text text-anchor="middle" x="1297" y="-7" font-family="Helvetica,sans-Serif" font-size="10.00">src/P2/gomer.c</text>
</a>
</g>
</g>
<!-- Node2&#45;&gt;Node18 -->
<g id="edge55_Node000002_Node000018" class="edge">
<title>Node2&#45;&gt;Node18</title>
<g id="a_edge55_Node000002_Node000018"><a xlink:title=" ">
<path fill="none" stroke="#63b8ff" d="M1482.13,-323.4C1459.61,-304.42 1426,-269.53 1426,-230.5 1426,-230.5 1426,-230.5 1426,-118.5 1426,-88.91 1426.04,-76.77 1406,-55 1388.97,-36.5 1363.14,-25.51 1340.9,-19.08"/>
<polygon fill="#63b8ff" stroke="#63b8ff" points="1480.15,-326.3 1490.12,-329.88 1484.56,-320.86 1480.15,-326.3"/>
</a>
</g>
</g>
<!-- Node31 -->
<g id="Node000031" class="node">
<title>Node31</title>
<g id="a_Node000031"><a xlink:href="alarm_8c.html" target="_top" xlink:title=" ">
<polygon fill="white" stroke="#666666" points="1371,-129 1285,-129 1285,-110 1371,-110 1371,-129"/>
<text text-anchor="middle" x="1328" y="-117" font-family="Helvetica,sans-Serif" font-size="10.00">src/P2/alarm.c</text>
</a>
</g>
</g>
<!-- Node2&#45;&gt;Node31 -->
<g id="edge49_Node000002_Node000031" class="edge">
<title>Node2&#45;&gt;Node31</title>
<g id="a_edge49_Node000002_Node000031"><a xlink:title=" ">
<path fill="none" stroke="#63b8ff" d="M1495.61,-320.34C1482.89,-286.34 1451.57,-212.23 1405,-165 1389.07,-148.84 1366.04,-136.56 1349.32,-129.04"/>
<polygon fill="#63b8ff" stroke="#63b8ff" points="1492.37,-321.69 1499.08,-329.89 1498.95,-319.3 1492.37,-321.69"/>
</a>
</g>
</g>
<!-- Node42 -->
<g id="Node000042" class="node">
<title>Node42</title>
<g id="a_Node000042"><a xlink:href="break_8c.html" target="_top" xlink:title=" ">
<polygon fill="white" stroke="#666666" points="1396.5,-184 1311.5,-184 1311.5,-165 1396.5,-165 1396.5,-184"/>
<text text-anchor="middle" x="1354" y="-172" font-family="Helvetica,sans-Serif" font-size="10.00">src/P2/break.c</text>
</a>
</g>
</g>
<!-- Node2&#45;&gt;Node42 -->
<g id="edge50_Node000002_Node000042" class="edge">
<title>Node2&#45;&gt;Node42</title>
<g id="a_edge50_Node000002_Node000042"><a xlink:title=" ">
<path fill="none" stroke="#63b8ff" d="M1489.69,-321.38C1472.23,-297.59 1438.77,-253.67 1406,-220 1392.9,-206.55 1376.17,-192.75 1365.27,-184.16"/>
<polygon fill="#63b8ff" stroke="#63b8ff" points="1487.04,-323.69 1495.75,-329.72 1492.7,-319.58 1487.04,-323.69"/>
</a>
</g>
</g>
<!-- Node46 -->
<g id="Node000046" class="node">
<title>Node46</title>
<g id="a_Node000046"><a xlink:href="game_8c.html" target="_top" xlink:title=" ">
<polygon fill="white" stroke="#666666" points="1397.5,-239 1312.5,-239 1312.5,-220 1397.5,-220 1397.5,-239"/>
<text text-anchor="middle" x="1355" y="-227" font-family="Helvetica,sans-Serif" font-size="10.00">src/P2/game.c</text>
</a>
</g>
</g>
<!-- Node2&#45;&gt;Node46 -->
<g id="edge54_Node000002_Node000046" class="edge">
<title>Node2&#45;&gt;Node46</title>
<g id="a_edge54_Node000002_Node000046"><a xlink:title=" ">
<path fill="none" stroke="#63b8ff" d="M1469.36,-325.95C1451.47,-318.22 1429.46,-307.25 1412,-294 1390.52,-277.7 1370.77,-252.48 1361.15,-239.26"/>
<polygon fill="#63b8ff" stroke="#63b8ff" points="1468.24,-329.28 1478.82,-329.91 1470.94,-322.82 1468.24,-329.28"/>
</a>
</g>
</g>
<!-- Node48 -->
<g id="Node000048" class="node">
<title>Node48</title>
<g id="a_Node000048"><a xlink:href="button_8c.html" target="_top" xlink:title=" ">
<polygon fill="white" stroke="#666666" points="1619.5,-294 1530.5,-294 1530.5,-275 1619.5,-275 1619.5,-294"/>
<text text-anchor="middle" x="1575" y="-282" font-family="Helvetica,sans-Serif" font-size="10.00">src/P2/button.c</text>
</a>
</g>
</g>
<!-- Node2&#45;&gt;Node48 -->
<g id="edge51_Node000002_Node000048" class="edge">
<title>Node2&#45;&gt;Node48</title>
<g id="a_edge51_Node000002_Node000048"><a xlink:title=" ">
<path fill="none" stroke="#63b8ff" d="M1522.14,-323.88C1535.28,-314.34 1551.98,-302.21 1563.06,-294.17"/>
<polygon fill="#63b8ff" stroke="#63b8ff" points="1519.76,-321.28 1513.73,-329.98 1523.88,-326.94 1519.76,-321.28"/>
</a>
</g>
</g>
<!-- Node49 -->
<g id="Node000049" class="node">
<title>Node49</title>
<g id="a_Node000049"><a xlink:href="chkpnt_8c.html" target="_top" xlink:title=" ">
<polygon fill="white" stroke="#666666" points="1728,-294 1638,-294 1638,-275 1728,-275 1728,-294"/>
<text text-anchor="middle" x="1683" y="-282" font-family="Helvetica,sans-Serif" font-size="10.00">src/P2/chkpnt.c</text>
</a>
</g>
</g>
<!-- Node2&#45;&gt;Node49 -->
<g id="edge52_Node000002_Node000049" class="edge">
<title>Node2&#45;&gt;Node49</title>
<g id="a_edge52_Node000002_Node000049"><a xlink:title=" ">
<path fill="none" stroke="#63b8ff" d="M1541.08,-327.06C1574.91,-317.15 1623.08,-303.04 1653.69,-294.08"/>
<polygon fill="#63b8ff" stroke="#63b8ff" points="1539.69,-323.82 1531.08,-329.98 1541.66,-330.53 1539.69,-323.82"/>
</a>
</g>
</g>
<!-- Node50 -->
<g id="Node000050" class="node">
<title>Node50</title>
<g id="a_Node000050"><a xlink:href="coin_8c.html" target="_top" xlink:title=" ">
<polygon fill="white" stroke="#666666" points="1823.5,-294 1746.5,-294 1746.5,-275 1823.5,-275 1823.5,-294"/>
<text text-anchor="middle" x="1785" y="-282" font-family="Helvetica,sans-Serif" font-size="10.00">src/P2/coin.c</text>
</a>
</g>
</g>
<!-- Node2&#45;&gt;Node50 -->
<g id="edge53_Node000002_Node000050" class="edge">
<title>Node2&#45;&gt;Node50</title>
<g id="a_edge53_Node000002_Node000050"><a xlink:title=" ">
<path fill="none" stroke="#63b8ff" d="M1557.53,-328.1C1613.27,-317.66 1697.67,-301.85 1746.46,-292.72"/>
<polygon fill="#63b8ff" stroke="#63b8ff" points="1556.65,-324.7 1547.47,-329.98 1557.94,-331.58 1556.65,-324.7"/>
</a>
</g>
</g>
<!-- Node51 -->
<g id="Node000051" class="node">
<title>Node51</title>
<g id="a_Node000051"><a xlink:href="transition_8c.html" target="_top" xlink:title=" ">
<polygon fill="white" stroke="#666666" points="1946,-294 1842,-294 1842,-275 1946,-275 1946,-294"/>
<text text-anchor="middle" x="1894" y="-282" font-family="Helvetica,sans-Serif" font-size="10.00">src/P2/transition.c</text>
</a>
</g>
</g>
<!-- Node2&#45;&gt;Node51 -->
<g id="edge56_Node000002_Node000051" class="edge">
<title>Node2&#45;&gt;Node51</title>
<g id="a_edge56_Node000002_Node000051"><a xlink:title=" ">
<path fill="none" stroke="#63b8ff" d="M1560.76,-330.69C1626.94,-321.87 1737.71,-307.04 1833,-294 1835.86,-293.61 1838.8,-293.2 1841.76,-292.8"/>
<polygon fill="#63b8ff" stroke="#63b8ff" points="1559.98,-327.26 1550.53,-332.05 1560.9,-334.2 1559.98,-327.26"/>
</a>
</g>
</g>
<!-- Node4 -->
<g id="Node000004" class="node">
<title>Node4</title>
<g id="a_Node000004"><a xlink:href="bomb_8h.html" target="_top" xlink:title=" ">
<polygon fill="white" stroke="#666666" points="800,-239 708,-239 708,-220 800,-220 800,-239"/>
<text text-anchor="middle" x="754" y="-227" font-family="Helvetica,sans-Serif" font-size="10.00">include/bomb.h</text>
</a>
</g>
</g>
<!-- Node3&#45;&gt;Node4 -->
<g id="edge3_Node000003_Node000004" class="edge">
<title>Node3&#45;&gt;Node4</title>
<g id="a_edge3_Node000003_Node000004"><a xlink:title=" ">
<path fill="none" stroke="#63b8ff" d="M1078.25,-274.91C1000.36,-264.24 869.38,-246.3 800.13,-236.82"/>
<polygon fill="#63b8ff" stroke="#63b8ff" points="1078.02,-278.41 1088.4,-276.3 1078.97,-271.47 1078.02,-278.41"/>
</a>
</g>
</g>
<!-- Node8 -->
<g id="Node000008" class="node">
<title>Node8</title>
<g id="a_Node000008"><a xlink:href="break_8h.html" target="_top" xlink:title=" ">
<polygon fill="white" stroke="#666666" points="1085,-239 993,-239 993,-220 1085,-220 1085,-239"/>
<text text-anchor="middle" x="1039" y="-227" font-family="Helvetica,sans-Serif" font-size="10.00">include/break.h</text>
</a>
</g>
</g>
<!-- Node3&#45;&gt;Node8 -->
<g id="edge7_Node000003_Node000008" class="edge">
<title>Node3&#45;&gt;Node8</title>
<g id="a_edge7_Node000003_Node000008"><a xlink:title=" ">
<path fill="none" stroke="#63b8ff" d="M1115.73,-270.37C1096.99,-260.63 1071.98,-247.64 1055.69,-239.17"/>
<polygon fill="#63b8ff" stroke="#63b8ff" points="1114.12,-273.48 1124.61,-274.98 1117.35,-267.27 1114.12,-273.48"/>
</a>
</g>
</g>
<!-- Node43 -->
<g id="Node000043" class="node">
<title>Node43</title>
<g id="a_Node000043"><a xlink:href="wr_8h.html" target="_top" xlink:title=" ">
<polygon fill="white" stroke="#666666" points="1178.5,-239 1103.5,-239 1103.5,-220 1178.5,-220 1178.5,-239"/>
<text text-anchor="middle" x="1141" y="-227" font-family="Helvetica,sans-Serif" font-size="10.00">include/wr.h</text>
</a>
</g>
</g>
<!-- Node3&#45;&gt;Node43 -->
<g id="edge44_Node000003_Node000043" class="edge">
<title>Node3&#45;&gt;Node43</title>
<g id="a_edge44_Node000003_Node000043"><a xlink:title=" ">
<path fill="none" stroke="#63b8ff" d="M1141,-264.66C1141,-255.93 1141,-245.99 1141,-239.09"/>
<polygon fill="#63b8ff" stroke="#63b8ff" points="1137.5,-264.75 1141,-274.75 1144.5,-264.75 1137.5,-264.75"/>
</a>
</g>
</g>
<!-- Node45 -->
<g id="Node000045" class="node">
<title>Node45</title>
<g id="a_Node000045"><a xlink:href="difficulty_8c.html" target="_top" xlink:title=" ">
<polygon fill="white" stroke="#666666" points="1294,-239 1196,-239 1196,-220 1294,-220 1294,-239"/>
<text text-anchor="middle" x="1245" y="-227" font-family="Helvetica,sans-Serif" font-size="10.00">src/P2/difficulty.c</text>
</a>
</g>
</g>
<!-- Node3&#45;&gt;Node45 -->
<g id="edge46_Node000003_Node000045" class="edge">
<title>Node3&#45;&gt;Node45</title>
<g id="a_edge46_Node000003_Node000045"><a xlink:title=" ">
<path fill="none" stroke="#63b8ff" d="M1166.77,-270.37C1185.87,-260.63 1211.37,-247.64 1227.99,-239.17"/>
<polygon fill="#63b8ff" stroke="#63b8ff" points="1165.03,-267.33 1157.71,-274.98 1168.21,-273.56 1165.03,-267.33"/>
</a>
</g>
</g>
<!-- Node3&#45;&gt;Node46 -->
<g id="edge47_Node000003_Node000046" class="edge">
<title>Node3&#45;&gt;Node46</title>
<g id="a_edge47_Node000003_Node000046"><a xlink:title=" ">
<path fill="none" stroke="#63b8ff" d="M1185.16,-272.56C1225.24,-262.64 1283.54,-248.2 1320.35,-239.08"/>
<polygon fill="#63b8ff" stroke="#63b8ff" points="1184.25,-269.18 1175.38,-274.98 1185.93,-275.98 1184.25,-269.18"/>
</a>
</g>
</g>
<!-- Node47 -->
<g id="Node000047" class="node">
<title>Node47</title>
<g id="a_Node000047"><a xlink:href="sw_8c.html" target="_top" xlink:title=" ">
<polygon fill="white" stroke="#666666" points="690,-239 620,-239 620,-220 690,-220 690,-239"/>
<text text-anchor="middle" x="655" y="-227" font-family="Helvetica,sans-Serif" font-size="10.00">src/P2/sw.c</text>
</a>
</g>
</g>
<!-- Node3&#45;&gt;Node47 -->
<g id="edge48_Node000003_Node000047" class="edge">
<title>Node3&#45;&gt;Node47</title>
<g id="a_edge48_Node000003_Node000047"><a xlink:title=" ">
<path fill="none" stroke="#63b8ff" d="M1078.32,-278.99C992.45,-272.39 833.56,-258.73 699,-239 696.07,-238.57 693.05,-238.08 690.02,-237.56"/>
<polygon fill="#63b8ff" stroke="#63b8ff" points="1078.18,-282.49 1088.42,-279.75 1078.71,-275.51 1078.18,-282.49"/>
</a>
</g>
</g>
<!-- Node5 -->
<g id="Node000005" class="node">
<title>Node5</title>
<g id="a_Node000005"><a xlink:href="missile_8h.html" target="_top" xlink:title=" ">
<polygon fill="white" stroke="#666666" points="428.5,-184 329.5,-184 329.5,-165 428.5,-165 428.5,-184"/>
<text text-anchor="middle" x="379" y="-172" font-family="Helvetica,sans-Serif" font-size="10.00">include/missile.h</text>
</a>
</g>
</g>
<!-- Node4&#45;&gt;Node5 -->
<g id="edge4_Node000004_Node000005" class="edge">
<title>Node4&#45;&gt;Node5</title>
<g id="a_edge4_Node000004_Node000005"><a xlink:title=" ">
<path fill="none" stroke="#63b8ff" d="M697.68,-219.82C596.25,-204.99 489.55,-190.4 428.64,-182.17"/>
<polygon fill="#63b8ff" stroke="#63b8ff" points="697.39,-223.32 707.79,-221.31 698.41,-216.39 697.39,-223.32"/>
</a>
</g>
</g>
<!-- Node7 -->
<g id="Node000007" class="node">
<title>Node7</title>
<g id="a_Node000007"><a xlink:href="bomb_8c.html" target="_top" xlink:title=" ">
<polygon fill="white" stroke="#666666" points="593.5,-184 508.5,-184 508.5,-165 593.5,-165 593.5,-184"/>
<text text-anchor="middle" x="551" y="-172" font-family="Helvetica,sans-Serif" font-size="10.00">src/P2/bomb.c</text>
</a>
</g>
</g>
<!-- Node4&#45;&gt;Node7 -->
<g id="edge6_Node000004_Node000007" class="edge">
<title>Node4&#45;&gt;Node7</title>
<g id="a_edge6_Node000004_Node000007"><a xlink:title=" ">
<path fill="none" stroke="#63b8ff" d="M711.63,-217.44C673.63,-207.52 618.64,-193.16 583.87,-184.08"/>
<polygon fill="#63b8ff" stroke="#63b8ff" points="710.82,-220.84 721.38,-219.98 712.59,-214.07 710.82,-220.84"/>
</a>
</g>
</g>
<!-- Node6 -->
<g id="Node000006" class="node">
<title>Node6</title>
<g id="a_Node000006"><a xlink:href="missile_8c.html" target="_top" xlink:title=" ">
<polygon fill="white" stroke="#666666" points="362,-129 270,-129 270,-110 362,-110 362,-129"/>
<text text-anchor="middle" x="316" y="-117" font-family="Helvetica,sans-Serif" font-size="10.00">src/P2/missile.c</text>
</a>
</g>
</g>
<!-- Node5&#45;&gt;Node6 -->
<g id="edge5_Node000005_Node000006" class="edge">
<title>Node5&#45;&gt;Node6</title>
<g id="a_edge5_Node000005_Node000006"><a xlink:title=" ">
<path fill="none" stroke="#63b8ff" d="M360.96,-158.32C349.73,-148.87 335.68,-137.06 326.31,-129.17"/>
<polygon fill="#63b8ff" stroke="#63b8ff" points="358.97,-161.23 368.88,-164.98 363.48,-155.87 358.97,-161.23"/>
</a>
</g>
</g>
<!-- Node9 -->
<g id="Node000009" class="node">
<title>Node9</title>
<g id="a_Node000009"><a xlink:href="alarm_8h.html" target="_top" xlink:title="Alarm system.">
<polygon fill="white" stroke="#666666" points="1085,-184 993,-184 993,-165 1085,-165 1085,-184"/>
<text text-anchor="middle" x="1039" y="-172" font-family="Helvetica,sans-Serif" font-size="10.00">include/alarm.h</text>
</a>
</g>
</g>
<!-- Node8&#45;&gt;Node9 -->
<g id="edge8_Node000008_Node000009" class="edge">
<title>Node8&#45;&gt;Node9</title>
<g id="a_edge8_Node000008_Node000009"><a xlink:title=" ">
<path fill="none" stroke="#63b8ff" d="M1039,-209.66C1039,-200.93 1039,-190.99 1039,-184.09"/>
<polygon fill="#63b8ff" stroke="#63b8ff" points="1035.5,-209.75 1039,-219.75 1042.5,-209.75 1035.5,-209.75"/>
</a>
</g>
</g>
<!-- Node32 -->
<g id="Node000032" class="node">
<title>Node32</title>
<g id="a_Node000032"><a xlink:href="dartgun_8h.html" target="_top" xlink:title=" ">
<polygon fill="white" stroke="#666666" points="1204.5,-184 1103.5,-184 1103.5,-165 1204.5,-165 1204.5,-184"/>
<text text-anchor="middle" x="1154" y="-172" font-family="Helvetica,sans-Serif" font-size="10.00">include/dartgun.h</text>
</a>
</g>
</g>
<!-- Node8&#45;&gt;Node32 -->
<g id="edge33_Node000008_Node000032" class="edge">
<title>Node8&#45;&gt;Node32</title>
<g id="a_edge33_Node000008_Node000032"><a xlink:title=" ">
<path fill="none" stroke="#63b8ff" d="M1066.63,-215.77C1087.84,-205.99 1116.56,-192.75 1135.19,-184.17"/>
<polygon fill="#63b8ff" stroke="#63b8ff" points="1065.09,-212.62 1057.48,-219.98 1068.02,-218.98 1065.09,-212.62"/>
</a>
</g>
</g>
<!-- Node34 -->
<g id="Node000034" class="node">
<title>Node34</title>
<g id="a_Node000034"><a xlink:href="lgn_8h.html" target="_top" xlink:title=" ">
<polygon fill="white" stroke="#666666" points="690.5,-184 611.5,-184 611.5,-165 690.5,-165 690.5,-184"/>
<text text-anchor="middle" x="651" y="-172" font-family="Helvetica,sans-Serif" font-size="10.00">include/lgn.h</text>
</a>
</g>
</g>
<!-- Node8&#45;&gt;Node34 -->
<g id="edge35_Node000008_Node000034" class="edge">
<title>Node8&#45;&gt;Node34</title>
<g id="a_edge35_Node000008_Node000034"><a xlink:title=" ">
<path fill="none" stroke="#63b8ff" d="M982.88,-221.85C915.57,-213.71 799.35,-199.13 700,-184 696.93,-183.53 693.75,-183.03 690.56,-182.51"/>
<polygon fill="#63b8ff" stroke="#63b8ff" points="982.51,-225.33 992.86,-223.05 983.35,-218.38 982.51,-225.33"/>
</a>
</g>
</g>
<!-- Node36 -->
<g id="Node000036" class="node">
<title>Node36</title>
<g id="a_Node000036"><a xlink:href="stepcane_8h.html" target="_top" xlink:title=" ">
<polygon fill="white" stroke="#666666" points="817,-184 709,-184 709,-165 817,-165 817,-184"/>
<text text-anchor="middle" x="763" y="-172" font-family="Helvetica,sans-Serif" font-size="10.00">include/stepcane.h</text>
</a>
</g>
</g>
<!-- Node8&#45;&gt;Node36 -->
<g id="edge37_Node000008_Node000036" class="edge">
<title>Node8&#45;&gt;Node36</title>
<g id="a_edge37_Node000008_Node000036"><a xlink:title=" ">
<path fill="none" stroke="#63b8ff" d="M984.66,-218.07C932.92,-208.13 855.97,-193.35 807.69,-184.08"/>
<polygon fill="#63b8ff" stroke="#63b8ff" points="984.18,-221.54 994.66,-219.98 985.5,-214.66 984.18,-221.54"/>
</a>
</g>
</g>
<!-- Node8&#45;&gt;Node42 -->
<g id="edge43_Node000008_Node000042" class="edge">
<title>Node8&#45;&gt;Node42</title>
<g id="a_edge43_Node000008_Node000042"><a xlink:title=" ">
<path fill="none" stroke="#63b8ff" d="M1095.13,-219.06C1157.05,-208.64 1255.31,-192.1 1311.27,-182.69"/>
<polygon fill="#63b8ff" stroke="#63b8ff" points="1094.42,-215.63 1085.14,-220.74 1095.58,-222.53 1094.42,-215.63"/>
</a>
</g>
</g>
<!-- Node10 -->
<g id="Node000010" class="node">
<title>Node10</title>
<g id="a_Node000010"><a xlink:href="sensor_8h.html" target="_top" xlink:title=" ">
<polygon fill="white" stroke="#666666" points="1086.5,-129 991.5,-129 991.5,-110 1086.5,-110 1086.5,-129"/>
<text text-anchor="middle" x="1039" y="-117" font-family="Helvetica,sans-Serif" font-size="10.00">include/sensor.h</text>
</a>
</g>
</g>
<!-- Node9&#45;&gt;Node10 -->
<g id="edge9_Node000009_Node000010" class="edge">
<title>Node9&#45;&gt;Node10</title>
<g id="a_edge9_Node000009_Node000010"><a xlink:title=" ">
<path fill="none" stroke="#63b8ff" d="M1039,-154.66C1039,-145.93 1039,-135.99 1039,-129.09"/>
<polygon fill="#63b8ff" stroke="#63b8ff" points="1035.5,-154.75 1039,-164.75 1042.5,-154.75 1035.5,-154.75"/>
</a>
</g>
</g>
<!-- Node11 -->
<g id="Node000011" class="node">
<title>Node11</title>
<g id="a_Node000011"><a xlink:href="sensor_8c.html" target="_top" xlink:title=" ">
<polygon fill="white" stroke="#666666" points="1397.5,-74 1308.5,-74 1308.5,-55 1397.5,-55 1397.5,-74"/>
<text text-anchor="middle" x="1353" y="-62" font-family="Helvetica,sans-Serif" font-size="10.00">src/P2/sensor.c</text>
</a>
</g>
</g>
<!-- Node9&#45;&gt;Node11 -->
<g id="edge32_Node000009_Node000011" class="edge">
<title>Node9&#45;&gt;Node11</title>
<g id="a_edge32_Node000009_Node000011"><a xlink:title=" ">
<path fill="none" stroke="#63b8ff" d="M1057.05,-158.28C1075.29,-143.69 1104.89,-122.13 1134,-110 1164.89,-97.13 1253.59,-81.4 1308.16,-72.51"/>
<polygon fill="#63b8ff" stroke="#63b8ff" points="1054.58,-155.78 1049.05,-164.81 1059.01,-161.2 1054.58,-155.78"/>
</a>
</g>
</g>
<!-- Node12 -->
<g id="Node000012" class="node">
<title>Node12</title>
<g id="a_Node000012"><a xlink:href="stepguard_8h.html" target="_top" xlink:title=" ">
<polygon fill="white" stroke="#666666" points="944.5,-129 831.5,-129 831.5,-110 944.5,-110 944.5,-129"/>
<text text-anchor="middle" x="888" y="-117" font-family="Helvetica,sans-Serif" font-size="10.00">include/stepguard.h</text>
</a>
</g>
</g>
<!-- Node9&#45;&gt;Node12 -->
<g id="edge11_Node000009_Node000012" class="edge">
<title>Node9&#45;&gt;Node12</title>
<g id="a_edge11_Node000009_Node000012"><a xlink:title=" ">
<path fill="none" stroke="#63b8ff" d="M1004.95,-161.55C976.91,-151.71 937.82,-137.98 912.7,-129.17"/>
<polygon fill="#63b8ff" stroke="#63b8ff" points="1004.14,-164.98 1014.74,-164.98 1006.46,-158.37 1004.14,-164.98"/>
</a>
</g>
</g>
<!-- Node9&#45;&gt;Node31 -->
<g id="edge31_Node000009_Node000031" class="edge">
<title>Node9&#45;&gt;Node31</title>
<g id="a_edge31_Node000009_Node000031"><a xlink:title=" ">
<path fill="none" stroke="#63b8ff" d="M1095.13,-163.21C1150.65,-153.03 1234.4,-137.67 1284.88,-128.41"/>
<polygon fill="#63b8ff" stroke="#63b8ff" points="1094.32,-159.8 1085.11,-165.04 1095.58,-166.68 1094.32,-159.8"/>
</a>
</g>
</g>
<!-- Node10&#45;&gt;Node11 -->
<g id="edge10_Node000010_Node000011" class="edge">
<title>Node10&#45;&gt;Node11</title>
<g id="a_edge10_Node000010_Node000011"><a xlink:title=" ">
<path fill="none" stroke="#63b8ff" d="M1096.56,-108.78C1157.63,-98.48 1252.82,-82.41 1308.43,-73.02"/>
<polygon fill="#63b8ff" stroke="#63b8ff" points="1095.97,-105.33 1086.69,-110.45 1097.13,-112.24 1095.97,-105.33"/>
</a>
</g>
</g>
<!-- Node13 -->
<g id="Node000013" class="node">
<title>Node13</title>
<g id="a_Node000013"><a xlink:href="crusher_8h.html" target="_top" xlink:title=" ">
<polygon fill="white" stroke="#666666" points="1138.5,-74 1039.5,-74 1039.5,-55 1138.5,-55 1138.5,-74"/>
<text text-anchor="middle" x="1089" y="-62" font-family="Helvetica,sans-Serif" font-size="10.00">include/crusher.h</text>
</a>
</g>
</g>
<!-- Node12&#45;&gt;Node13 -->
<g id="edge12_Node000012_Node000013" class="edge">
<title>Node12&#45;&gt;Node13</title>
<g id="a_edge12_Node000012_Node000013"><a xlink:title=" ">
<path fill="none" stroke="#63b8ff" d="M930.43,-107.31C968.04,-97.39 1022.17,-83.12 1056.45,-74.08"/>
<polygon fill="#63b8ff" stroke="#63b8ff" points="929.07,-104.05 920.29,-109.98 930.86,-110.82 929.07,-104.05"/>
</a>
</g>
</g>
<!-- Node15 -->
<g id="Node000015" class="node">
<title>Node15</title>
<g id="a_Node000015"><a xlink:href="gomer_8h.html" target="_top" xlink:title=" ">
<polygon fill="white" stroke="#666666" points="1251.5,-74 1156.5,-74 1156.5,-55 1251.5,-55 1251.5,-74"/>
<text text-anchor="middle" x="1204" y="-62" font-family="Helvetica,sans-Serif" font-size="10.00">include/gomer.h</text>
</a>
</g>
</g>
<!-- Node12&#45;&gt;Node15 -->
<g id="edge14_Node000012_Node000015" class="edge">
<title>Node12&#45;&gt;Node15</title>
<g id="a_edge14_Node000012_Node000015"><a xlink:title=" ">
<path fill="none" stroke="#63b8ff" d="M948.95,-108.28C1009.5,-98.12 1101.09,-82.76 1156.46,-73.47"/>
<polygon fill="#63b8ff" stroke="#63b8ff" points="948.05,-104.88 938.77,-109.98 949.21,-111.78 948.05,-104.88"/>
</a>
</g>
</g>
<!-- Node12&#45;&gt;Node18 -->
<g id="edge28_Node000012_Node000018" class="edge">
<title>Node12&#45;&gt;Node18</title>
<g id="a_edge28_Node000012_Node000018"><a xlink:title=" ">
<path fill="none" stroke="#63b8ff" d="M954.92,-112.05C1058.58,-101.84 1247.42,-82.26 1260,-74 1279.84,-60.97 1290.38,-33.35 1294.66,-19.22"/>
<polygon fill="#63b8ff" stroke="#63b8ff" points="954.47,-108.58 944.86,-113.04 955.16,-115.54 954.47,-108.58"/>
</a>
</g>
</g>
<!-- Node19 -->
<g id="Node000019" class="node">
<title>Node19</title>
<g id="a_Node000019"><a xlink:href="mb_8h.html" target="_top" xlink:title="Mesa boss.">
<polygon fill="white" stroke="#666666" points="308,-74 228,-74 228,-55 308,-55 308,-74"/>
<text text-anchor="middle" x="268" y="-62" font-family="Helvetica,sans-Serif" font-size="10.00">include/mb.h</text>
</a>
</g>
</g>
<!-- Node12&#45;&gt;Node19 -->
<g id="edge17_Node000012_Node000019" class="edge">
<title>Node12&#45;&gt;Node19</title>
<g id="a_edge17_Node000012_Node000019"><a xlink:title=" ">
<path fill="none" stroke="#63b8ff" d="M821.35,-110C596.37,-88.01 537.08,-100.86 317,-74 314.09,-73.64 311.08,-73.23 308.06,-72.79"/>
<polygon fill="#63b8ff" stroke="#63b8ff" points="821.2,-113.51 831.5,-111.01 821.89,-106.54 821.2,-113.51"/>
</a>
</g>
</g>
<!-- Node21 -->
<g id="Node000021" class="node">
<title>Node21</title>
<g id="a_Node000021"><a xlink:href="murray_8h.html" target="_top" xlink:title="&quot;The Murray&quot;.">
<polygon fill="white" stroke="#666666" points="424,-74 326,-74 326,-55 424,-55 424,-74"/>
<text text-anchor="middle" x="375" y="-62" font-family="Helvetica,sans-Serif" font-size="10.00">include/murray.h</text>
</a>
</g>
</g>
<!-- Node12&#45;&gt;Node21 -->
<g id="edge19_Node000012_Node000021" class="edge">
<title>Node12&#45;&gt;Node21</title>
<g id="a_edge19_Node000012_Node000021"><a xlink:title=" ">
<path fill="none" stroke="#63b8ff" d="M821.36,-109.97C649.94,-91.13 605.06,-93.09 438,-74 433.5,-73.49 428.83,-72.92 424.16,-72.33"/>
<polygon fill="#63b8ff" stroke="#63b8ff" points="821.17,-113.47 831.49,-111.09 821.94,-106.51 821.17,-113.47"/>
</a>
</g>
</g>
<!-- Node22 -->
<g id="Node000022" class="node">
<title>Node22</title>
<g id="a_Node000022"><a xlink:href="murray_8c.html" target="_top" xlink:title=" ">
<polygon fill="white" stroke="#666666" points="442.5,-19 351.5,-19 351.5,0 442.5,0 442.5,-19"/>
<text text-anchor="middle" x="397" y="-7" font-family="Helvetica,sans-Serif" font-size="10.00">src/P2/murray.c</text>
</a>
</g>
</g>
<!-- Node12&#45;&gt;Node22 -->
<g id="edge29_Node000012_Node000022" class="edge">
<title>Node12&#45;&gt;Node22</title>
<g id="a_edge29_Node000012_Node000022"><a xlink:title=" ">
<path fill="none" stroke="#63b8ff" d="M821.46,-110.02C664.08,-93.74 612.13,-134.62 471,-74 442.07,-61.57 416.11,-33.68 404.08,-19.36"/>
<polygon fill="#63b8ff" stroke="#63b8ff" points="821.16,-113.51 831.49,-111.12 821.93,-106.55 821.16,-113.51"/>
</a>
</g>
</g>
<!-- Node23 -->
<g id="Node000023" class="node">
<title>Node23</title>
<g id="a_Node000023"><a xlink:href="puffer_8h.html" target="_top" xlink:title="Piranha Lake in Vicious Voodoo (believed to be formerly called &quot;Pufferfish Pond&quot;).">
<polygon fill="white" stroke="#666666" points="572,-74 480,-74 480,-55 572,-55 572,-74"/>
<text text-anchor="middle" x="526" y="-62" font-family="Helvetica,sans-Serif" font-size="10.00">include/puffer.h</text>
</a>
</g>
</g>
<!-- Node12&#45;&gt;Node23 -->
<g id="edge21_Node000012_Node000023" class="edge">
<title>Node12&#45;&gt;Node23</title>
<g id="a_edge21_Node000012_Node000023"><a xlink:title=" ">
<path fill="none" stroke="#63b8ff" d="M821.32,-109.02C759.12,-100.13 663.74,-86.39 581,-74 578.13,-73.57 575.18,-73.13 572.21,-72.67"/>
<polygon fill="#63b8ff" stroke="#63b8ff" points="821,-112.51 831.39,-110.46 821.99,-105.58 821,-112.51"/>
</a>
</g>
</g>
<!-- Node25 -->
<g id="Node000025" class="node">
<title>Node25</title>
<g id="a_Node000025"><a xlink:href="sb_8h.html" target="_top" xlink:title="Snow boss.">
<polygon fill="white" stroke="#666666" points="665.5,-74 590.5,-74 590.5,-55 665.5,-55 665.5,-74"/>
<text text-anchor="middle" x="628" y="-62" font-family="Helvetica,sans-Serif" font-size="10.00">include/sb.h</text>
</a>
</g>
</g>
<!-- Node12&#45;&gt;Node25 -->
<g id="edge23_Node000012_Node000025" class="edge">
<title>Node12&#45;&gt;Node25</title>
<g id="a_edge23_Node000012_Node000025"><a xlink:title=" ">
<path fill="none" stroke="#63b8ff" d="M836.21,-107.94C785.92,-97.69 710.79,-82.38 665.86,-73.22"/>
<polygon fill="#63b8ff" stroke="#63b8ff" points="835.73,-111.42 846.23,-109.98 837.13,-104.56 835.73,-111.42"/>
</a>
</g>
</g>
<!-- Node27 -->
<g id="Node000027" class="node">
<title>Node27</title>
<g id="a_Node000027"><a xlink:href="smartguard_8h.html" target="_top" xlink:title=" ">
<polygon fill="white" stroke="#666666" points="803,-74 683,-74 683,-55 803,-55 803,-74"/>
<text text-anchor="middle" x="743" y="-62" font-family="Helvetica,sans-Serif" font-size="10.00">include/smartguard.h</text>
</a>
</g>
</g>
<!-- Node12&#45;&gt;Node27 -->
<g id="edge25_Node000012_Node000027" class="edge">
<title>Node12&#45;&gt;Node27</title>
<g id="a_edge25_Node000012_Node000027"><a xlink:title=" ">
<path fill="none" stroke="#63b8ff" d="M855.31,-106.55C828.38,-96.71 790.84,-82.98 766.72,-74.17"/>
<polygon fill="#63b8ff" stroke="#63b8ff" points="854.11,-109.84 864.7,-109.98 856.51,-103.26 854.11,-109.84"/>
</a>
</g>
</g>
<!-- Node29 -->
<g id="Node000029" class="node">
<title>Node29</title>
<g id="a_Node000029"><a xlink:href="vb_8h.html" target="_top" xlink:title="Voodoo boss.">
<polygon fill="white" stroke="#666666" points="897,-74 821,-74 821,-55 897,-55 897,-74"/>
<text text-anchor="middle" x="859" y="-62" font-family="Helvetica,sans-Serif" font-size="10.00">include/vb.h</text>
</a>
</g>
</g>
<!-- Node12&#45;&gt;Node29 -->
<g id="edge27_Node000012_Node000029" class="edge">
<title>Node12&#45;&gt;Node29</title>
<g id="a_edge27_Node000012_Node000029"><a xlink:title=" ">
<path fill="none" stroke="#63b8ff" d="M878.32,-100.82C873.4,-91.82 867.64,-81.29 863.7,-74.09"/>
<polygon fill="#63b8ff" stroke="#63b8ff" points="875.34,-102.66 883.21,-109.75 881.48,-99.3 875.34,-102.66"/>
</a>
</g>
</g>
<!-- Node30 -->
<g id="Node000030" class="node">
<title>Node30</title>
<g id="a_Node000030"><a xlink:href="stepguard_8c.html" target="_top" xlink:title=" ">
<polygon fill="white" stroke="#666666" points="1021,-74 915,-74 915,-55 1021,-55 1021,-74"/>
<text text-anchor="middle" x="968" y="-62" font-family="Helvetica,sans-Serif" font-size="10.00">src/P2/stepguard.c</text>
</a>
</g>
</g>
<!-- Node12&#45;&gt;Node30 -->
<g id="edge30_Node000012_Node000030" class="edge">
<title>Node12&#45;&gt;Node30</title>
<g id="a_edge30_Node000012_Node000030"><a xlink:title=" ">
<path fill="none" stroke="#63b8ff" d="M909.25,-104.42C923.76,-94.81 942.54,-82.37 954.91,-74.17"/>
<polygon fill="#63b8ff" stroke="#63b8ff" points="907.26,-101.54 900.85,-109.98 911.12,-107.38 907.26,-101.54"/>
</a>
</g>
</g>
<!-- Node14 -->
<g id="Node000014" class="node">
<title>Node14</title>
<g id="a_Node000014"><a xlink:href="crusher_8c.html" target="_top" xlink:title=" ">
<polygon fill="white" stroke="#666666" points="1135,-19 1043,-19 1043,0 1135,0 1135,-19"/>
<text text-anchor="middle" x="1089" y="-7" font-family="Helvetica,sans-Serif" font-size="10.00">src/P2/crusher.c</text>
</a>
</g>
</g>
<!-- Node13&#45;&gt;Node14 -->
<g id="edge13_Node000013_Node000014" class="edge">
<title>Node13&#45;&gt;Node14</title>
<g id="a_edge13_Node000013_Node000014"><a xlink:title=" ">
<path fill="none" stroke="#63b8ff" d="M1089,-44.66C1089,-35.93 1089,-25.99 1089,-19.09"/>
<polygon fill="#63b8ff" stroke="#63b8ff" points="1085.5,-44.75 1089,-54.75 1092.5,-44.75 1085.5,-44.75"/>
</a>
</g>
</g>
<!-- Node16 -->
<g id="Node000016" class="node">
<title>Node16</title>
<g id="a_Node000016"><a xlink:href="ub_8h.html" target="_top" xlink:title="Underwater boss.">
<polygon fill="#fff0f0" stroke="red" points="1235,-19 1159,-19 1159,0 1235,0 1235,-19"/>
<text text-anchor="middle" x="1197" y="-7" font-family="Helvetica,sans-Serif" font-size="10.00">include/ub.h</text>
</a>
</g>
</g>
<!-- Node15&#45;&gt;Node16 -->
<g id="edge15_Node000015_Node000016" class="edge">
<title>Node15&#45;&gt;Node16</title>
<g id="a_edge15_Node000015_Node000016"><a xlink:title=" ">
<path fill="none" stroke="#63b8ff" d="M1201.51,-44.66C1200.36,-35.93 1199.05,-25.99 1198.13,-19.09"/>
<polygon fill="#63b8ff" stroke="#63b8ff" points="1198.06,-45.29 1202.84,-54.75 1205,-44.38 1198.06,-45.29"/>
</a>
</g>
</g>
<!-- Node15&#45;&gt;Node18 -->
<g id="edge16_Node000015_Node000018" class="edge">
<title>Node15&#45;&gt;Node18</title>
<g id="a_edge16_Node000015_Node000018"><a xlink:title=" ">
<path fill="none" stroke="#63b8ff" d="M1227.75,-49.97C1244.75,-40.28 1267.13,-27.52 1281.79,-19.17"/>
<polygon fill="#63b8ff" stroke="#63b8ff" points="1225.9,-46.99 1218.94,-54.98 1229.36,-53.07 1225.9,-46.99"/>
</a>
</g>
</g>
<!-- Node20 -->
<g id="Node000020" class="node">
<title>Node20</title>
<g id="a_Node000020"><a xlink:href="mb_8c.html" target="_top" xlink:title=" ">
<polygon fill="white" stroke="#666666" points="304.5,-19 231.5,-19 231.5,0 304.5,0 304.5,-19"/>
<text text-anchor="middle" x="268" y="-7" font-family="Helvetica,sans-Serif" font-size="10.00">src/P2/mb.c</text>
</a>
</g>
</g>
<!-- Node19&#45;&gt;Node20 -->
<g id="edge18_Node000019_Node000020" class="edge">
<title>Node19&#45;&gt;Node20</title>
<g id="a_edge18_Node000019_Node000020"><a xlink:title=" ">
<path fill="none" stroke="#63b8ff" d="M268,-44.66C268,-35.93 268,-25.99 268,-19.09"/>
<polygon fill="#63b8ff" stroke="#63b8ff" points="264.5,-44.75 268,-54.75 271.5,-44.75 264.5,-44.75"/>
</a>
</g>
</g>
<!-- Node21&#45;&gt;Node22 -->
<g id="edge20_Node000021_Node000022" class="edge">
<title>Node21&#45;&gt;Node22</title>
<g id="a_edge20_Node000021_Node000022"><a xlink:title=" ">
<path fill="none" stroke="#63b8ff" d="M382.58,-45.24C386.26,-36.37 390.51,-26.14 393.43,-19.09"/>
<polygon fill="#63b8ff" stroke="#63b8ff" points="379.23,-44.17 378.63,-54.75 385.7,-46.85 379.23,-44.17"/>
</a>
</g>
</g>
<!-- Node24 -->
<g id="Node000024" class="node">
<title>Node24</title>
<g id="a_Node000024"><a xlink:href="puffer_8c.html" target="_top" xlink:title=" ">
<polygon fill="white" stroke="#666666" points="568.5,-19 483.5,-19 483.5,0 568.5,0 568.5,-19"/>
<text text-anchor="middle" x="526" y="-7" font-family="Helvetica,sans-Serif" font-size="10.00">src/P2/puffer.c</text>
</a>
</g>
</g>
<!-- Node23&#45;&gt;Node24 -->
<g id="edge22_Node000023_Node000024" class="edge">
<title>Node23&#45;&gt;Node24</title>
<g id="a_edge22_Node000023_Node000024"><a xlink:title=" ">
<path fill="none" stroke="#63b8ff" d="M526,-44.66C526,-35.93 526,-25.99 526,-19.09"/>
<polygon fill="#63b8ff" stroke="#63b8ff" points="522.5,-44.75 526,-54.75 529.5,-44.75 522.5,-44.75"/>
</a>
</g>
</g>
<!-- Node26 -->
<g id="Node000026" class="node">
<title>Node26</title>
<g id="a_Node000026"><a xlink:href="sb_8c.html" target="_top" xlink:title=" ">
<polygon fill="white" stroke="#666666" points="662,-19 594,-19 594,0 662,0 662,-19"/>
<text text-anchor="middle" x="628" y="-7" font-family="Helvetica,sans-Serif" font-size="10.00">src/P2/sb.c</text>
</a>
</g>
</g>
<!-- Node25&#45;&gt;Node26 -->
<g id="edge24_Node000025_Node000026" class="edge">
<title>Node25&#45;&gt;Node26</title>
<g id="a_edge24_Node000025_Node000026"><a xlink:title=" ">
<path fill="none" stroke="#63b8ff" d="M628,-44.66C628,-35.93 628,-25.99 628,-19.09"/>
<polygon fill="#63b8ff" stroke="#63b8ff" points="624.5,-44.75 628,-54.75 631.5,-44.75 624.5,-44.75"/>
</a>
</g>
</g>
<!-- Node28 -->
<g id="Node000028" class="node">
<title>Node28</title>
<g id="a_Node000028"><a xlink:href="smartguard_8c.html" target="_top" xlink:title=" ">
<polygon fill="white" stroke="#666666" points="799.5,-19 686.5,-19 686.5,0 799.5,0 799.5,-19"/>
<text text-anchor="middle" x="743" y="-7" font-family="Helvetica,sans-Serif" font-size="10.00">src/P2/smartguard.c</text>
</a>
</g>
</g>
<!-- Node27&#45;&gt;Node28 -->
<g id="edge26_Node000027_Node000028" class="edge">
<title>Node27&#45;&gt;Node28</title>
<g id="a_edge26_Node000027_Node000028"><a xlink:title=" ">
<path fill="none" stroke="#63b8ff" d="M743,-44.66C743,-35.93 743,-25.99 743,-19.09"/>
<polygon fill="#63b8ff" stroke="#63b8ff" points="739.5,-44.75 743,-54.75 746.5,-44.75 739.5,-44.75"/>
</a>
</g>
</g>
<!-- Node33 -->
<g id="Node000033" class="node">
<title>Node33</title>
<g id="a_Node000033"><a xlink:href="dartgun_8c.html" target="_top" xlink:title=" ">
<polygon fill="white" stroke="#666666" points="1238.5,-129 1143.5,-129 1143.5,-110 1238.5,-110 1238.5,-129"/>
<text text-anchor="middle" x="1191" y="-117" font-family="Helvetica,sans-Serif" font-size="10.00">src/P2/dartgun.c</text>
</a>
</g>
</g>
<!-- Node32&#45;&gt;Node33 -->
<g id="edge34_Node000032_Node000033" class="edge">
<title>Node32&#45;&gt;Node33</title>
<g id="a_edge34_Node000032_Node000033"><a xlink:title=" ">
<path fill="none" stroke="#63b8ff" d="M1165.95,-156.39C1172.31,-147.27 1179.87,-136.45 1185,-129.09"/>
<polygon fill="#63b8ff" stroke="#63b8ff" points="1162.96,-154.55 1160.11,-164.75 1168.7,-158.55 1162.96,-154.55"/>
</a>
</g>
</g>
<!-- Node35 -->
<g id="Node000035" class="node">
<title>Node35</title>
<g id="a_Node000035"><a xlink:href="lgn_8c.html" target="_top" xlink:title=" ">
<polygon fill="white" stroke="#666666" points="452,-129 380,-129 380,-110 452,-110 452,-129"/>
<text text-anchor="middle" x="416" y="-117" font-family="Helvetica,sans-Serif" font-size="10.00">src/P2/lgn.c</text>
</a>
</g>
</g>
<!-- Node34&#45;&gt;Node35 -->
<g id="edge36_Node000034_Node000035" class="edge">
<title>Node34&#45;&gt;Node35</title>
<g id="a_edge36_Node000034_Node000035"><a xlink:title=" ">
<path fill="none" stroke="#63b8ff" d="M603.48,-162.78C558.74,-152.69 492.7,-137.8 452.12,-128.65"/>
<polygon fill="#63b8ff" stroke="#63b8ff" points="602.72,-166.2 613.24,-164.98 604.26,-159.37 602.72,-166.2"/>
</a>
</g>
</g>
<!-- Node37 -->
<g id="Node000037" class="node">
<title>Node37</title>
<g id="a_Node000037"><a xlink:href="steprun_8h.html" target="_top" xlink:title=" ">
<polygon fill="white" stroke="#666666" points="571.5,-129 470.5,-129 470.5,-110 571.5,-110 571.5,-129"/>
<text text-anchor="middle" x="521" y="-117" font-family="Helvetica,sans-Serif" font-size="10.00">include/steprun.h</text>
</a>
</g>
</g>
<!-- Node36&#45;&gt;Node37 -->
<g id="edge38_Node000036_Node000037" class="edge">
<title>Node36&#45;&gt;Node37</title>
<g id="a_edge38_Node000036_Node000037"><a xlink:title=" ">
<path fill="none" stroke="#63b8ff" d="M714.21,-162.82C668.86,-152.88 602.17,-138.28 560.19,-129.08"/>
<polygon fill="#63b8ff" stroke="#63b8ff" points="713.6,-166.26 724.12,-164.98 715.1,-159.43 713.6,-166.26"/>
</a>
</g>
</g>
<!-- Node39 -->
<g id="Node000039" class="node">
<title>Node39</title>
<g id="a_Node000039"><a xlink:href="stepside_8h.html" target="_top" xlink:title=" ">
<polygon fill="white" stroke="#666666" points="694.5,-129 589.5,-129 589.5,-110 694.5,-110 694.5,-129"/>
<text text-anchor="middle" x="642" y="-117" font-family="Helvetica,sans-Serif" font-size="10.00">include/stepside.h</text>
</a>
</g>
</g>
<!-- Node36&#45;&gt;Node39 -->
<g id="edge40_Node000036_Node000039" class="edge">
<title>Node36&#45;&gt;Node39</title>
<g id="a_edge40_Node000036_Node000039"><a xlink:title=" ">
<path fill="none" stroke="#63b8ff" d="M734.23,-160.9C711.88,-151.11 681.48,-137.79 661.79,-129.17"/>
<polygon fill="#63b8ff" stroke="#63b8ff" points="733,-164.18 743.56,-164.98 735.8,-157.77 733,-164.18"/>
</a>
</g>
</g>
<!-- Node41 -->
<g id="Node000041" class="node">
<title>Node41</title>
<g id="a_Node000041"><a xlink:href="stepcane_8c.html" target="_top" xlink:title=" ">
<polygon fill="white" stroke="#666666" points="813.5,-129 712.5,-129 712.5,-110 813.5,-110 813.5,-129"/>
<text text-anchor="middle" x="763" y="-117" font-family="Helvetica,sans-Serif" font-size="10.00">src/P2/stepcane.c</text>
</a>
</g>
</g>
<!-- Node36&#45;&gt;Node41 -->
<g id="edge42_Node000036_Node000041" class="edge">
<title>Node36&#45;&gt;Node41</title>
<g id="a_edge42_Node000036_Node000041"><a xlink:title=" ">
<path fill="none" stroke="#63b8ff" d="M763,-154.66C763,-145.93 763,-135.99 763,-129.09"/>
<polygon fill="#63b8ff" stroke="#63b8ff" points="759.5,-154.75 763,-164.75 766.5,-154.75 759.5,-154.75"/>
</a>
</g>
</g>
<!-- Node38 -->
<g id="Node000038" class="node">
<title>Node38</title>
<g id="a_Node000038"><a xlink:href="steprun_8c.html" target="_top" xlink:title=" ">
<polygon fill="white" stroke="#666666" points="94,-74 0,-74 0,-55 94,-55 94,-74"/>
<text text-anchor="middle" x="47" y="-62" font-family="Helvetica,sans-Serif" font-size="10.00">src/P2/steprun.c</text>
</a>
</g>
</g>
<!-- Node37&#45;&gt;Node38 -->
<g id="edge39_Node000037_Node000038" class="edge">
<title>Node37&#45;&gt;Node38</title>
<g id="a_edge39_Node000037_Node000038"><a xlink:title=" ">
<path fill="none" stroke="#63b8ff" d="M460.1,-109.94C300.53,-90.9 258.4,-93.59 103,-74 100.07,-73.63 97.06,-73.23 94.03,-72.81"/>
<polygon fill="#63b8ff" stroke="#63b8ff" points="459.93,-113.45 470.28,-111.17 460.77,-106.5 459.93,-113.45"/>
</a>
</g>
</g>
<!-- Node40 -->
<g id="Node000040" class="node">
<title>Node40</title>
<g id="a_Node000040"><a xlink:href="stepside_8c.html" target="_top" xlink:title=" ">
<polygon fill="white" stroke="#666666" points="210,-74 112,-74 112,-55 210,-55 210,-74"/>
<text text-anchor="middle" x="161" y="-62" font-family="Helvetica,sans-Serif" font-size="10.00">src/P2/stepside.c</text>
</a>
</g>
</g>
<!-- Node39&#45;&gt;Node40 -->
<g id="edge41_Node000039_Node000040" class="edge">
<title>Node39&#45;&gt;Node40</title>
<g id="a_edge41_Node000039_Node000040"><a xlink:title=" ">
<path fill="none" stroke="#63b8ff" d="M578.99,-109.93C418.15,-91.15 375.75,-93.29 219,-74 216.07,-73.64 213.06,-73.25 210.03,-72.85"/>
<polygon fill="#63b8ff" stroke="#63b8ff" points="578.91,-113.44 589.25,-111.13 579.73,-106.49 578.91,-113.44"/>
</a>
</g>
</g>
<!-- Node44 -->
<g id="Node000044" class="node">
<title>Node44</title>
<g id="a_Node000044"><a xlink:href="wr_8c.html" target="_top" xlink:title=" ">
<polygon fill="white" stroke="#666666" points="1291,-184 1223,-184 1223,-165 1291,-165 1291,-184"/>
<text text-anchor="middle" x="1257" y="-172" font-family="Helvetica,sans-Serif" font-size="10.00">src/P2/wr.c</text>
</a>
</g>
</g>
<!-- Node43&#45;&gt;Node44 -->
<g id="edge45_Node000043_Node000044" class="edge">
<title>Node43&#45;&gt;Node44</title>
<g id="a_edge45_Node000043_Node000044"><a xlink:title=" ">
<path fill="none" stroke="#63b8ff" d="M1168.87,-215.77C1190.27,-205.99 1219.24,-192.75 1238.02,-184.17"/>
<polygon fill="#63b8ff" stroke="#63b8ff" points="1167.28,-212.65 1159.64,-219.98 1170.19,-219.01 1167.28,-212.65"/>
</a>
</g>
</g>
</g>
</svg>
