<?xml version="1.0" encoding="UTF-8" standalone="no"?>
<!DOCTYPE svg PUBLIC "-//W3C//DTD SVG 1.1//EN"
 "http://www.w3.org/Graphics/SVG/1.1/DTD/svg11.dtd">
<!-- Generated by graphviz version 2.43.0 (0)
 -->
<!-- Title: include/vol.h Pages: 1 -->
<svg width="440pt" height="196pt"
 viewBox="0.00 0.00 439.50 196.00" xmlns="http://www.w3.org/2000/svg" xmlns:xlink="http://www.w3.org/1999/xlink">
<g id="graph0" class="graph" transform="scale(1 1) rotate(0) translate(4 192)">
<title>include/vol.h</title>
<polygon fill="white" stroke="transparent" points="-4,4 -4,-192 435.5,-192 435.5,4 -4,4"/>
<!-- Node1 -->
<g id="node1" class="node">
<title>Node1</title>
<g id="a_node1"><a xlink:title="Volume object.">
<polygon fill="#bfbfbf" stroke="black" points="161.5,-168.5 161.5,-187.5 240.5,-187.5 240.5,-168.5 161.5,-168.5"/>
<text text-anchor="middle" x="201" y="-175.5" font-family="Helvetica,sans-Serif" font-size="10.00">include/vol.h</text>
</a>
</g>
</g>
<!-- Node2 -->
<g id="node2" class="node">
<title>Node2</title>
<g id="a_node2"><a xlink:href="chkpnt_8h.html" target="_top" xlink:title="Checkpoint system.">
<polygon fill="white" stroke="black" points="152.5,-112.5 152.5,-131.5 249.5,-131.5 249.5,-112.5 152.5,-112.5"/>
<text text-anchor="middle" x="201" y="-119.5" font-family="Helvetica,sans-Serif" font-size="10.00">include/chkpnt.h</text>
</a>
</g>
</g>
<!-- Node1&#45;&gt;Node2 -->
<g id="edge1" class="edge">
<title>Node1&#45;&gt;Node2</title>
<path fill="none" stroke="midnightblue" d="M201,-157.8C201,-148.91 201,-138.78 201,-131.75"/>
<polygon fill="midnightblue" stroke="midnightblue" points="197.5,-158.08 201,-168.08 204.5,-158.08 197.5,-158.08"/>
</g>
<!-- Node3 -->
<g id="node3" class="node">
<title>Node3</title>
<g id="a_node3"><a xlink:href="chkpnt_8c.html" target="_top" xlink:title=" ">
<polygon fill="white" stroke="black" points="0,-56.5 0,-75.5 90,-75.5 90,-56.5 0,-56.5"/>
<text text-anchor="middle" x="45" y="-63.5" font-family="Helvetica,sans-Serif" font-size="10.00">src/P2/chkpnt.c</text>
</a>
</g>
</g>
<!-- Node2&#45;&gt;Node3 -->
<g id="edge2" class="edge">
<title>Node2&#45;&gt;Node3</title>
<path fill="none" stroke="midnightblue" d="M166.83,-109.17C137.46,-99 95.8,-84.59 69.6,-75.52"/>
<polygon fill="midnightblue" stroke="midnightblue" points="165.69,-112.48 176.28,-112.44 167.98,-105.86 165.69,-112.48"/>
</g>
<!-- Node4 -->
<g id="node4" class="node">
<title>Node4</title>
<g id="a_node4"><a xlink:href="coin_8c.html" target="_top" xlink:title=" ">
<polygon fill="white" stroke="black" points="108.5,-56.5 108.5,-75.5 185.5,-75.5 185.5,-56.5 108.5,-56.5"/>
<text text-anchor="middle" x="147" y="-63.5" font-family="Helvetica,sans-Serif" font-size="10.00">src/P2/coin.c</text>
</a>
</g>
</g>
<!-- Node2&#45;&gt;Node4 -->
<g id="edge3" class="edge">
<title>Node2&#45;&gt;Node4</title>
<path fill="none" stroke="midnightblue" d="M185,-105C175.43,-95.43 163.64,-83.64 155.75,-75.75"/>
<polygon fill="midnightblue" stroke="midnightblue" points="182.54,-107.49 192.08,-112.08 187.49,-102.54 182.54,-107.49"/>
</g>
<!-- Node5 -->
<g id="node5" class="node">
<title>Node5</title>
<g id="a_node5"><a xlink:href="transition_8c.html" target="_top" xlink:title=" ">
<polygon fill="white" stroke="black" points="204,-56.5 204,-75.5 308,-75.5 308,-56.5 204,-56.5"/>
<text text-anchor="middle" x="256" y="-63.5" font-family="Helvetica,sans-Serif" font-size="10.00">src/P2/transition.c</text>
</a>
</g>
</g>
<!-- Node2&#45;&gt;Node5 -->
<g id="edge4" class="edge">
<title>Node2&#45;&gt;Node5</title>
<path fill="none" stroke="midnightblue" d="M217.29,-105C227.04,-95.43 239.05,-83.64 247.09,-75.75"/>
<polygon fill="midnightblue" stroke="midnightblue" points="214.77,-102.58 210.08,-112.08 219.67,-107.57 214.77,-102.58"/>
</g>
<!-- Node6 -->
<g id="node6" class="node">
<title>Node6</title>
<g id="a_node6"><a xlink:href="difficulty_8h.html" target="_top" xlink:title="Dynamic difficulty system.">
<polygon fill="white" stroke="black" points="326.5,-56.5 326.5,-75.5 431.5,-75.5 431.5,-56.5 326.5,-56.5"/>
<text text-anchor="middle" x="379" y="-63.5" font-family="Helvetica,sans-Serif" font-size="10.00">include/difficulty.h</text>
</a>
</g>
</g>
<!-- Node2&#45;&gt;Node6 -->
<g id="edge5" class="edge">
<title>Node2&#45;&gt;Node6</title>
<path fill="none" stroke="midnightblue" d="M239.12,-109.44C272.68,-99.26 320.77,-84.66 350.93,-75.52"/>
<polygon fill="midnightblue" stroke="midnightblue" points="237.76,-106.19 229.2,-112.44 239.79,-112.89 237.76,-106.19"/>
</g>
<!-- Node7 -->
<g id="node7" class="node">
<title>Node7</title>
<g id="a_node7"><a xlink:href="difficulty_8c.html" target="_top" xlink:title=" ">
<polygon fill="white" stroke="black" points="330,-0.5 330,-19.5 428,-19.5 428,-0.5 330,-0.5"/>
<text text-anchor="middle" x="379" y="-7.5" font-family="Helvetica,sans-Serif" font-size="10.00">src/P2/difficulty.c</text>
</a>
</g>
</g>
<!-- Node6&#45;&gt;Node7 -->
<g id="edge6" class="edge">
<title>Node6&#45;&gt;Node7</title>
<path fill="none" stroke="midnightblue" d="M379,-45.8C379,-36.91 379,-26.78 379,-19.75"/>
<polygon fill="midnightblue" stroke="midnightblue" points="375.5,-46.08 379,-56.08 382.5,-46.08 375.5,-46.08"/>
</g>
</g>
</svg>
