<?xml version="1.0" encoding="UTF-8" standalone="no"?>
<!DOCTYPE svg PUBLIC "-//W3C//DTD SVG 1.1//EN"
 "http://www.w3.org/Graphics/SVG/1.1/DTD/svg11.dtd">
<!-- Generated by graphviz version 2.43.0 (0)
 -->
<!-- Title: include/vtables.h Pages: 1 -->
<svg width="379pt" height="137pt"
 viewBox="0.00 0.00 379.00 137.00" xmlns="http://www.w3.org/2000/svg" xmlns:xlink="http://www.w3.org/1999/xlink">
<g id="graph0" class="graph" transform="scale(1 1) rotate(0) translate(4 133)">
<title>include/vtables.h</title>
<!-- Node1 -->
<g id="Node000001" class="node">
<title>Node1</title>
<g id="a_Node000001"><a xlink:title="Manually crafted vtables for various structs.">
<polygon fill="#999999" stroke="#666666" points="269,-129 169,-129 169,-110 269,-110 269,-129"/>
<text text-anchor="middle" x="219" y="-117" font-family="Helvetica,sans-Serif" font-size="10.00">include/vtables.h</text>
</a>
</g>
</g>
<!-- Node2 -->
<g id="Node000002" class="node">
<title>Node2</title>
<g id="a_Node000002"><a xlink:href="common_8h.html" target="_top" xlink:title="Common header file.">
<polygon fill="white" stroke="#666666" points="151.5,-74 44.5,-74 44.5,-55 151.5,-55 151.5,-74"/>
<text text-anchor="middle" x="98" y="-62" font-family="Helvetica,sans-Serif" font-size="10.00">include/common.h</text>
</a>
</g>
</g>
<!-- Node1&#45;&gt;Node2 -->
<g id="edge1_Node000001_Node000002" class="edge">
<title>Node1&#45;&gt;Node2</title>
<g id="a_edge1_Node000001_Node000002"><a xlink:title=" ">
<path fill="none" stroke="#63b8ff" d="M190.23,-105.9C167.88,-96.11 137.48,-82.79 117.79,-74.17"/>
<polygon fill="#63b8ff" stroke="#63b8ff" points="189,-109.18 199.56,-109.98 191.8,-102.77 189,-109.18"/>
</a>
</g>
</g>
<!-- Node5 -->
<g id="Node000005" class="node">
<title>Node5</title>
<g id="a_Node000005"><a xlink:href="shdanim_8c.html" target="_top" xlink:title=" ">
<polygon fill="white" stroke="#666666" points="268.5,-74 169.5,-74 169.5,-55 268.5,-55 268.5,-74"/>
<text text-anchor="middle" x="219" y="-62" font-family="Helvetica,sans-Serif" font-size="10.00">src/P2/shdanim.c</text>
</a>
</g>
</g>
<!-- Node1&#45;&gt;Node5 -->
<g id="edge4_Node000001_Node000005" class="edge">
<title>Node1&#45;&gt;Node5</title>
<g id="a_edge4_Node000001_Node000005"><a xlink:title=" ">
<path fill="none" stroke="#63b8ff" d="M219,-99.66C219,-90.93 219,-80.99 219,-74.09"/>
<polygon fill="#63b8ff" stroke="#63b8ff" points="215.5,-99.75 219,-109.75 222.5,-99.75 215.5,-99.75"/>
</a>
</g>
</g>
<!-- Node6 -->
<g id="Node000006" class="node">
<title>Node6</title>
<g id="a_Node000006"><a xlink:href="water_8c.html" target="_top" xlink:title=" ">
<polygon fill="white" stroke="#666666" points="371,-74 287,-74 287,-55 371,-55 371,-74"/>
<text text-anchor="middle" x="329" y="-62" font-family="Helvetica,sans-Serif" font-size="10.00">src/P2/water.c</text>
</a>
</g>
</g>
<!-- Node1&#45;&gt;Node6 -->
<g id="edge5_Node000001_Node000006" class="edge">
<title>Node1&#45;&gt;Node6</title>
<g id="a_edge5_Node000001_Node000006"><a xlink:title=" ">
<path fill="none" stroke="#63b8ff" d="M245.7,-105.63C265.97,-95.87 293.27,-82.71 311.01,-74.17"/>
<polygon fill="#63b8ff" stroke="#63b8ff" points="244.16,-102.49 236.67,-109.98 247.2,-108.8 244.16,-102.49"/>
</a>
</g>
</g>
<!-- Node3 -->
<g id="Node000003" class="node">
<title>Node3</title>
<g id="a_Node000003"><a xlink:href="989snd_8c.html" target="_top" xlink:title=" ">
<polygon fill="white" stroke="#666666" points="92,-19 0,-19 0,0 92,0 92,-19"/>
<text text-anchor="middle" x="46" y="-7" font-family="Helvetica,sans-Serif" font-size="10.00">src/P2/989snd.c</text>
</a>
</g>
</g>
<!-- Node2&#45;&gt;Node3 -->
<g id="edge2_Node000002_Node000003" class="edge">
<title>Node2&#45;&gt;Node3</title>
<g id="a_edge2_Node000002_Node000003"><a xlink:title=" ">
<path fill="none" stroke="#63b8ff" d="M82.32,-47.52C73.16,-38.18 61.95,-26.75 54.43,-19.09"/>
<polygon fill="#63b8ff" stroke="#63b8ff" points="79.91,-50.06 89.41,-54.75 84.91,-45.16 79.91,-50.06"/>
</a>
</g>
</g>
<!-- Node4 -->
<g id="Node000004" class="node">
<title>Node4</title>
<g id="a_Node000004"><a xlink:href="main_8c.html" target="_top" xlink:title=" ">
<polygon fill="white" stroke="#666666" points="192,-19 110,-19 110,0 192,0 192,-19"/>
<text text-anchor="middle" x="151" y="-7" font-family="Helvetica,sans-Serif" font-size="10.00">src/P2/main.c</text>
</a>
</g>
</g>
<!-- Node2&#45;&gt;Node4 -->
<g id="edge3_Node000002_Node000004" class="edge">
<title>Node2&#45;&gt;Node4</title>
<g id="a_edge3_Node000002_Node000004"><a xlink:title=" ">
<path fill="none" stroke="#63b8ff" d="M113.98,-47.52C123.32,-38.18 134.75,-26.75 142.41,-19.09"/>
<polygon fill="#63b8ff" stroke="#63b8ff" points="111.35,-45.2 106.75,-54.75 116.3,-50.15 111.35,-45.2"/>
</a>
</g>
</g>
</g>
</svg>
