<?xml version="1.0" encoding="UTF-8" standalone="no"?>
<!DOCTYPE svg PUBLIC "-//W3C//DTD SVG 1.1//EN"
 "http://www.w3.org/Graphics/SVG/1.1/DTD/svg11.dtd">
<!-- Generated by graphviz version 2.43.0 (0)
 -->
<!-- Title: include/vtables.h Pages: 1 -->
<!--zoomable 308 -->
<svg id="main" version="1.1" xmlns="http://www.w3.org/2000/svg" xmlns:xlink="http://www.w3.org/1999/xlink" xml:space="preserve" onload="init(evt)">
<style type="text/css"><![CDATA[
.edge:hover path { stroke: red; }
.edge:hover polygon { stroke: red; fill: red; }
]]></style>
<script type="text/javascript"><![CDATA[
var edges = document.getElementsByTagName('g');
if (edges && edges.length) {
  for (var i=0;i<edges.length;i++) {
    if (edges[i].id.substr(0,4)=='edge') {
      edges[i].setAttribute('class','edge');
    }
  }
}
]]></script>
        <defs>
                <circle id="rim" cx="0" cy="0" r="7"/>
                <circle id="rim2" cx="0" cy="0" r="3.5"/>
                <g id="zoomPlus">
                        <use xlink:href="#rim" fill="#404040">
                                <set attributeName="fill" to="#808080" begin="zoomplus.mouseover" end="zoomplus.mouseout"/>
                        </use>
                        <path d="M-4,0h8M0,-4v8" fill="none" stroke="white" stroke-width="1.5" pointer-events="none"/>
                </g>
                <g id="zoomMin">
                        <use xlink:href="#rim" fill="#404040">
                                <set attributeName="fill" to="#808080" begin="zoomminus.mouseover" end="zoomminus.mouseout"/>
                        </use>
                        <path d="M-4,0h8" fill="none" stroke="white" stroke-width="1.5" pointer-events="none"/>
                </g>
                <g id="dirArrow">
                        <path fill="none" stroke="white" stroke-width="1.5" d="M0,-3.0v7 M-2.5,-0.5L0,-3.0L2.5,-0.5"/>
                </g>
               <g id="resetDef">
                       <use xlink:href="#rim2" fill="#404040">
                               <set attributeName="fill" to="#808080" begin="reset.mouseover" end="reset.mouseout"/>
                       </use>
               </g>
        </defs>

<script type="text/javascript">
var viewWidth = 4385;
var viewHeight = 308;
var sectionId = 'dynsection-0';
</script>
<script xlink:href="svgpan.js"/>
<svg id="graph" class="graph">
<g id="viewport">
<title>include/vtables.h</title>
<polygon fill="white" stroke="transparent" points="-4,4 -4,-304 4380.5,-304 4380.5,4 -4,4"/>
<!-- Node1 -->
<g id="node1" class="node">
<title>Node1</title>
<g id="a_node1"><a xlink:title="Manually crafted vtables for various structs.">
<polygon fill="#bfbfbf" stroke="black" points="1847,-280.5 1847,-299.5 1947,-299.5 1947,-280.5 1847,-280.5"/>
<text text-anchor="middle" x="1897" y="-287.5" font-family="Helvetica,sans-Serif" font-size="10.00">include/vtables.h</text>
</a>
</g>
</g>
<!-- Node2 -->
<g id="node2" class="node">
<title>Node2</title>
<g id="a_node2"><a xlink:href="common_8h.html" target="_top" xlink:title="Common header file.">
<polygon fill="white" stroke="red" points="1843.5,-224.5 1843.5,-243.5 1950.5,-243.5 1950.5,-224.5 1843.5,-224.5"/>
<text text-anchor="middle" x="1897" y="-231.5" font-family="Helvetica,sans-Serif" font-size="10.00">include/common.h</text>
</a>
</g>
</g>
<!-- Node1&#45;&gt;Node2 -->
<g id="edge1" class="edge">
<title>Node1&#45;&gt;Node2</title>
<path fill="none" stroke="midnightblue" d="M1897,-269.8C1897,-260.91 1897,-250.78 1897,-243.75"/>
<polygon fill="midnightblue" stroke="midnightblue" points="1893.5,-270.08 1897,-280.08 1900.5,-270.08 1893.5,-270.08"/>
</g>
<!-- Node3 -->
<g id="node3" class="node">
<title>Node3</title>
<g id="a_node3"><a xlink:href="main_8c.html" target="_top" xlink:title=" ">
<polygon fill="white" stroke="black" points="0,-168.5 0,-187.5 82,-187.5 82,-168.5 0,-168.5"/>
<text text-anchor="middle" x="41" y="-175.5" font-family="Helvetica,sans-Serif" font-size="10.00">src/P2/main.c</text>
</a>
</g>
</g>
<!-- Node2&#45;&gt;Node3 -->
<g id="edge2" class="edge">
<title>Node2&#45;&gt;Node3</title>
<path fill="none" stroke="midnightblue" d="M1833.01,-232.72C1553.63,-231.3 439.3,-223.48 91,-188 88.1,-187.71 85.12,-187.34 82.13,-186.92"/>
<polygon fill="midnightblue" stroke="midnightblue" points="1833.35,-236.22 1843.37,-232.77 1833.39,-229.22 1833.35,-236.22"/>
</g>
<!-- Node4 -->
<g id="node4" class="node">
<title>Node4</title>
<g id="a_node4"><a xlink:href="989snd_8h.html" target="_top" xlink:title="989snd sound driver.">
<polygon fill="white" stroke="red" points="100.5,-168.5 100.5,-187.5 199.5,-187.5 199.5,-168.5 100.5,-168.5"/>
<text text-anchor="middle" x="150" y="-175.5" font-family="Helvetica,sans-Serif" font-size="10.00">include/989snd.h</text>
</a>
</g>
</g>
<!-- Node2&#45;&gt;Node4 -->
<g id="edge3" class="edge">
<title>Node2&#45;&gt;Node4</title>
<path fill="none" stroke="midnightblue" d="M1832.82,-232.38C1564.6,-229.64 532.32,-217.36 208,-188 205.26,-187.75 202.45,-187.46 199.62,-187.13"/>
<polygon fill="midnightblue" stroke="midnightblue" points="1833.12,-235.89 1843.16,-232.49 1833.19,-228.89 1833.12,-235.89"/>
</g>
<!-- Node6 -->
<g id="node5" class="node">
<title>Node6</title>
<g id="a_node5"><a xlink:href="ac_8h.html" target="_top" xlink:title=" ">
<polygon fill="white" stroke="black" points="217.5,-168.5 217.5,-187.5 292.5,-187.5 292.5,-168.5 217.5,-168.5"/>
<text text-anchor="middle" x="255" y="-175.5" font-family="Helvetica,sans-Serif" font-size="10.00">include/ac.h</text>
</a>
</g>
</g>
<!-- Node2&#45;&gt;Node6 -->
<g id="edge4" class="edge">
<title>Node2&#45;&gt;Node6</title>
<path fill="none" stroke="midnightblue" d="M1832.99,-232.57C1574.42,-230.62 606.38,-221.22 302,-188 298.94,-187.67 295.79,-187.24 292.63,-186.76"/>
<polygon fill="midnightblue" stroke="midnightblue" points="1833.3,-236.07 1843.33,-232.65 1833.35,-229.07 1833.3,-236.07"/>
</g>
<!-- Node7 -->
<g id="node6" class="node">
<title>Node7</title>
<g id="a_node6"><a xlink:href="alarm_8h.html" target="_top" xlink:title="Alarm system.">
<polygon fill="white" stroke="black" points="311,-168.5 311,-187.5 403,-187.5 403,-168.5 311,-168.5"/>
<text text-anchor="middle" x="357" y="-175.5" font-family="Helvetica,sans-Serif" font-size="10.00">include/alarm.h</text>
</a>
</g>
</g>
<!-- Node2&#45;&gt;Node7 -->
<g id="edge5" class="edge">
<title>Node2&#45;&gt;Node7</title>
<path fill="none" stroke="midnightblue" d="M1833.2,-232.07C1586.95,-228.31 698.27,-213.28 417,-188 412.49,-187.59 407.8,-187.07 403.12,-186.48"/>
<polygon fill="midnightblue" stroke="midnightblue" points="1833.35,-235.57 1843.41,-232.22 1833.46,-228.57 1833.35,-235.57"/>
</g>
<!-- Node8 -->
<g id="node7" class="node">
<title>Node8</title>
<g id="a_node7"><a xlink:href="alo_8h.html" target="_top" xlink:title=" ">
<polygon fill="white" stroke="red" points="475.5,-112.5 475.5,-131.5 554.5,-131.5 554.5,-112.5 475.5,-112.5"/>
<text text-anchor="middle" x="515" y="-119.5" font-family="Helvetica,sans-Serif" font-size="10.00">include/alo.h</text>
</a>
</g>
</g>
<!-- Node2&#45;&gt;Node8 -->
<g id="edge6" class="edge">
<title>Node2&#45;&gt;Node8</title>
<path fill="none" stroke="midnightblue" d="M1833.01,-233.4C1563.87,-234.79 535.34,-236.87 488,-188 472.36,-171.85 493.15,-145.34 506.08,-131.7"/>
<polygon fill="midnightblue" stroke="midnightblue" points="1833.41,-236.9 1843.39,-233.35 1833.37,-229.9 1833.41,-236.9"/>
</g>
<!-- Node10 -->
<g id="node8" class="node">
<title>Node10</title>
<g id="a_node8"><a xlink:href="coin_8h.html" target="_top" xlink:title="Coins, keys, and other collectibles.">
<polygon fill="white" stroke="red" points="423,-56.5 423,-75.5 507,-75.5 507,-56.5 423,-56.5"/>
<text text-anchor="middle" x="465" y="-63.5" font-family="Helvetica,sans-Serif" font-size="10.00">include/coin.h</text>
</a>
</g>
</g>
<!-- Node2&#45;&gt;Node10 -->
<g id="edge37" class="edge">
<title>Node2&#45;&gt;Node10</title>
<path fill="none" stroke="midnightblue" d="M1832.88,-233.12C1563.13,-233.37 531.93,-231.44 479,-188 445.16,-160.23 456.89,-98.26 462.62,-75.55"/>
<polygon fill="midnightblue" stroke="midnightblue" points="1833.28,-236.62 1843.28,-233.11 1833.28,-229.62 1833.28,-236.62"/>
</g>
<!-- Node12 -->
<g id="node9" class="node">
<title>Node12</title>
<g id="a_node9"><a xlink:href="find_8h.html" target="_top" xlink:title="Find objects in the SW.">
<polygon fill="white" stroke="red" points="558,-56.5 558,-75.5 640,-75.5 640,-56.5 558,-56.5"/>
<text text-anchor="middle" x="599" y="-63.5" font-family="Helvetica,sans-Serif" font-size="10.00">include/find.h</text>
</a>
</g>
</g>
<!-- Node2&#45;&gt;Node12 -->
<g id="edge50" class="edge">
<title>Node2&#45;&gt;Node12</title>
<path fill="none" stroke="midnightblue" d="M1833.34,-232.99C1581.17,-232.66 663.87,-228.65 618,-188 585.22,-158.95 592.89,-98.3 597.14,-75.72"/>
<polygon fill="midnightblue" stroke="midnightblue" points="1833.43,-236.49 1843.43,-233 1833.44,-229.49 1833.43,-236.49"/>
</g>
<!-- Node65 -->
<g id="node10" class="node">
<title>Node65</title>
<g id="a_node10"><a xlink:href="anim_8h.html" target="_top" xlink:title="Animation.">
<polygon fill="white" stroke="red" points="761.5,-168.5 761.5,-187.5 850.5,-187.5 850.5,-168.5 761.5,-168.5"/>
<text text-anchor="middle" x="806" y="-175.5" font-family="Helvetica,sans-Serif" font-size="10.00">include/anim.h</text>
</a>
</g>
</g>
<!-- Node2&#45;&gt;Node65 -->
<g id="edge9" class="edge">
<title>Node2&#45;&gt;Node65</title>
<path fill="none" stroke="midnightblue" d="M1833.02,-233C1670.06,-232.4 1226.27,-226.99 859,-188 856.31,-187.71 853.55,-187.38 850.77,-187.01"/>
<polygon fill="midnightblue" stroke="midnightblue" points="1833.33,-236.5 1843.34,-233.03 1833.36,-229.5 1833.33,-236.5"/>
</g>
<!-- Node67 -->
<g id="node11" class="node">
<title>Node67</title>
<g id="a_node11"><a xlink:href="bas_8h.html" target="_top" xlink:title="Binary Async Stream.">
<polygon fill="white" stroke="black" points="868.5,-168.5 868.5,-187.5 949.5,-187.5 949.5,-168.5 868.5,-168.5"/>
<text text-anchor="middle" x="909" y="-175.5" font-family="Helvetica,sans-Serif" font-size="10.00">include/bas.h</text>
</a>
</g>
</g>
<!-- Node2&#45;&gt;Node67 -->
<g id="edge10" class="edge">
<title>Node2&#45;&gt;Node67</title>
<path fill="none" stroke="midnightblue" d="M1833.24,-232.88C1681.22,-231.95 1285.68,-225.77 958,-188 955.25,-187.68 952.42,-187.3 949.58,-186.89"/>
<polygon fill="midnightblue" stroke="midnightblue" points="1833.31,-236.38 1843.33,-232.93 1833.35,-229.38 1833.31,-236.38"/>
</g>
<!-- Node68 -->
<g id="node12" class="node">
<title>Node68</title>
<g id="a_node12"><a xlink:href="basic_8h.html" target="_top" xlink:title="Basic object.">
<polygon fill="white" stroke="red" points="967.5,-168.5 967.5,-187.5 1056.5,-187.5 1056.5,-168.5 967.5,-168.5"/>
<text text-anchor="middle" x="1012" y="-175.5" font-family="Helvetica,sans-Serif" font-size="10.00">include/basic.h</text>
</a>
</g>
</g>
<!-- Node2&#45;&gt;Node68 -->
<g id="edge11" class="edge">
<title>Node2&#45;&gt;Node68</title>
<path fill="none" stroke="midnightblue" d="M1833.19,-232.03C1693.53,-229.36 1350.42,-219.85 1065,-188 1062.31,-187.7 1059.55,-187.35 1056.77,-186.97"/>
<polygon fill="midnightblue" stroke="midnightblue" points="1833.23,-235.53 1843.29,-232.22 1833.36,-228.53 1833.23,-235.53"/>
</g>
<!-- Node70 -->
<g id="node13" class="node">
<title>Node70</title>
<g id="a_node13"><a xlink:href="bbmark_8h.html" target="_top" xlink:title=" ">
<polygon fill="white" stroke="black" points="1074.5,-168.5 1074.5,-187.5 1175.5,-187.5 1175.5,-168.5 1074.5,-168.5"/>
<text text-anchor="middle" x="1125" y="-175.5" font-family="Helvetica,sans-Serif" font-size="10.00">include/bbmark.h</text>
</a>
</g>
</g>
<!-- Node2&#45;&gt;Node70 -->
<g id="edge12" class="edge">
<title>Node2&#45;&gt;Node70</title>
<path fill="none" stroke="midnightblue" d="M1833.04,-230.86C1708.04,-226.26 1422.69,-213.69 1184,-188 1181.32,-187.71 1178.58,-187.39 1175.81,-187.04"/>
<polygon fill="midnightblue" stroke="midnightblue" points="1833.08,-234.36 1843.2,-231.23 1833.33,-227.37 1833.08,-234.36"/>
</g>
<!-- Node71 -->
<g id="node14" class="node">
<title>Node71</title>
<g id="a_node14"><a xlink:href="bez_8h.html" target="_top" xlink:title=" ">
<polygon fill="white" stroke="black" points="1193.5,-168.5 1193.5,-187.5 1274.5,-187.5 1274.5,-168.5 1193.5,-168.5"/>
<text text-anchor="middle" x="1234" y="-175.5" font-family="Helvetica,sans-Serif" font-size="10.00">include/bez.h</text>
</a>
</g>
</g>
<!-- Node2&#45;&gt;Node71 -->
<g id="edge13" class="edge">
<title>Node2&#45;&gt;Node71</title>
<path fill="none" stroke="midnightblue" d="M1833.15,-230.13C1722.19,-224.74 1486.74,-211.45 1289,-188 1284.39,-187.45 1279.57,-186.79 1274.79,-186.09"/>
<polygon fill="midnightblue" stroke="midnightblue" points="1833.01,-233.63 1843.17,-230.62 1833.35,-226.64 1833.01,-233.63"/>
</g>
<!-- Node47 -->
<g id="node15" class="node">
<title>Node47</title>
<g id="a_node15"><a xlink:href="binoc_8h.html" target="_top" xlink:title="Binoc&#45;u&#45;com.">
<polygon fill="white" stroke="red" points="1369,-168.5 1369,-187.5 1459,-187.5 1459,-168.5 1369,-168.5"/>
<text text-anchor="middle" x="1414" y="-175.5" font-family="Helvetica,sans-Serif" font-size="10.00">include/binoc.h</text>
</a>
</g>
</g>
<!-- Node2&#45;&gt;Node47 -->
<g id="edge14" class="edge">
<title>Node2&#45;&gt;Node47</title>
<path fill="none" stroke="midnightblue" d="M1833.33,-227.16C1750.28,-219.33 1600.56,-204.49 1473,-188 1468.48,-187.42 1463.77,-186.77 1459.07,-186.09"/>
<polygon fill="midnightblue" stroke="midnightblue" points="1833.08,-230.65 1843.36,-228.1 1833.73,-223.68 1833.08,-230.65"/>
</g>
<!-- Node18 -->
<g id="node16" class="node">
<title>Node18</title>
<g id="a_node16"><a xlink:href="cm_8h.html" target="_top" xlink:title="Game camera.">
<polygon fill="white" stroke="red" points="1331.5,-112.5 1331.5,-131.5 1410.5,-131.5 1410.5,-112.5 1331.5,-112.5"/>
<text text-anchor="middle" x="1371" y="-119.5" font-family="Helvetica,sans-Serif" font-size="10.00">include/cm.h</text>
</a>
</g>
</g>
<!-- Node2&#45;&gt;Node18 -->
<g id="edge35" class="edge">
<title>Node2&#45;&gt;Node18</title>
<path fill="none" stroke="midnightblue" d="M1832.81,-232.38C1697.22,-230.41 1391.44,-222.19 1360,-188 1345.74,-172.5 1357.66,-145.7 1365.5,-131.85"/>
<polygon fill="midnightblue" stroke="midnightblue" points="1833.01,-235.89 1843.05,-232.52 1833.1,-228.89 1833.01,-235.89"/>
</g>
<!-- Node20 -->
<g id="node17" class="node">
<title>Node20</title>
<g id="a_node17"><a xlink:href="flash_8h.html" target="_top" xlink:title="Flash (might be flash animation, or literal screen flashes).">
<polygon fill="white" stroke="red" points="1293.5,-56.5 1293.5,-75.5 1380.5,-75.5 1380.5,-56.5 1293.5,-56.5"/>
<text text-anchor="middle" x="1337" y="-63.5" font-family="Helvetica,sans-Serif" font-size="10.00">include/flash.h</text>
</a>
</g>
</g>
<!-- Node2&#45;&gt;Node20 -->
<g id="edge51" class="edge">
<title>Node2&#45;&gt;Node20</title>
<path fill="none" stroke="midnightblue" d="M1833.19,-231.24C1697.46,-226.99 1389.23,-214.53 1350,-188 1320.18,-167.83 1316.23,-147.53 1322,-112 1324.11,-98.99 1329.44,-84.67 1333.14,-75.75"/>
<polygon fill="midnightblue" stroke="midnightblue" points="1833.34,-234.74 1843.44,-231.55 1833.56,-227.75 1833.34,-234.74"/>
</g>
<!-- Node41 -->
<g id="node18" class="node">
<title>Node41</title>
<g id="a_node18"><a xlink:href="bis_8h.html" target="_top" xlink:title="Binary Input Stream.">
<polygon fill="white" stroke="red" points="1592,-112.5 1592,-131.5 1670,-131.5 1670,-112.5 1592,-112.5"/>
<text text-anchor="middle" x="1631" y="-119.5" font-family="Helvetica,sans-Serif" font-size="10.00">include/bis.h</text>
</a>
</g>
</g>
<!-- Node2&#45;&gt;Node41 -->
<g id="edge17" class="edge">
<title>Node2&#45;&gt;Node41</title>
<path fill="none" stroke="midnightblue" d="M1833.1,-233.29C1750.84,-232.13 1614.7,-224.56 1583,-188 1566.37,-168.81 1597.25,-144.27 1616.77,-131.53"/>
<polygon fill="midnightblue" stroke="midnightblue" points="1833.31,-236.79 1843.35,-233.4 1833.39,-229.79 1833.31,-236.79"/>
</g>
<!-- Node23 -->
<g id="node19" class="node">
<title>Node23</title>
<g id="a_node19"><a xlink:href="chkpnt_8h.html" target="_top" xlink:title="Checkpoint system.">
<polygon fill="white" stroke="red" points="1515.5,-56.5 1515.5,-75.5 1612.5,-75.5 1612.5,-56.5 1515.5,-56.5"/>
<text text-anchor="middle" x="1564" y="-63.5" font-family="Helvetica,sans-Serif" font-size="10.00">include/chkpnt.h</text>
</a>
</g>
</g>
<!-- Node2&#45;&gt;Node23 -->
<g id="edge28" class="edge">
<title>Node2&#45;&gt;Node23</title>
<path fill="none" stroke="midnightblue" d="M1833.26,-233.11C1749.62,-231.8 1609.39,-224.09 1575,-188 1545.17,-156.7 1556.06,-97.94 1561.58,-75.77"/>
<polygon fill="midnightblue" stroke="midnightblue" points="1833.37,-236.61 1843.42,-233.24 1833.46,-229.61 1833.37,-236.61"/>
</g>
<!-- Node26 -->
<g id="node20" class="node">
<title>Node26</title>
<g id="a_node20"><a xlink:href="difficulty_8h.html" target="_top" xlink:title="Dynamic difficulty system.">
<polygon fill="white" stroke="red" points="1472.5,-0.5 1472.5,-19.5 1577.5,-19.5 1577.5,-0.5 1472.5,-0.5"/>
<text text-anchor="middle" x="1525" y="-7.5" font-family="Helvetica,sans-Serif" font-size="10.00">include/difficulty.h</text>
</a>
</g>
</g>
<!-- Node2&#45;&gt;Node26 -->
<g id="edge43" class="edge">
<title>Node2&#45;&gt;Node26</title>
<path fill="none" stroke="midnightblue" d="M1833.16,-231.64C1747.57,-228.64 1601.44,-218.98 1559,-188 1514.52,-155.53 1518.07,-129.73 1506,-76 1501.41,-55.58 1512.39,-32.13 1519.51,-19.74"/>
<polygon fill="midnightblue" stroke="midnightblue" points="1833.18,-235.14 1843.29,-231.98 1833.41,-228.15 1833.18,-235.14"/>
</g>
<!-- Node72 -->
<g id="node21" class="node">
<title>Node72</title>
<g id="a_node21"><a xlink:href="blend_8h.html" target="_top" xlink:title=" ">
<polygon fill="white" stroke="black" points="1906.5,-168.5 1906.5,-187.5 1997.5,-187.5 1997.5,-168.5 1906.5,-168.5"/>
<text text-anchor="middle" x="1952" y="-175.5" font-family="Helvetica,sans-Serif" font-size="10.00">include/blend.h</text>
</a>
</g>
</g>
<!-- Node2&#45;&gt;Node72 -->
<g id="edge20" class="edge">
<title>Node2&#45;&gt;Node72</title>
<path fill="none" stroke="midnightblue" d="M1913.29,-217C1923.04,-207.43 1935.05,-195.64 1943.09,-187.75"/>
<polygon fill="midnightblue" stroke="midnightblue" points="1910.77,-214.58 1906.08,-224.08 1915.67,-219.57 1910.77,-214.58"/>
</g>
<!-- Node73 -->
<g id="node22" class="node">
<title>Node73</title>
<g id="a_node22"><a xlink:href="blip_8h.html" target="_top" xlink:title=" ">
<polygon fill="white" stroke="black" points="2016,-168.5 2016,-187.5 2098,-187.5 2098,-168.5 2016,-168.5"/>
<text text-anchor="middle" x="2057" y="-175.5" font-family="Helvetica,sans-Serif" font-size="10.00">include/blip.h</text>
</a>
</g>
</g>
<!-- Node2&#45;&gt;Node73 -->
<g id="edge21" class="edge">
<title>Node2&#45;&gt;Node73</title>
<path fill="none" stroke="midnightblue" d="M1932.05,-221.17C1962.17,-211 2004.9,-196.59 2031.77,-187.52"/>
<polygon fill="midnightblue" stroke="midnightblue" points="1930.71,-217.93 1922.35,-224.44 1932.95,-224.56 1930.71,-217.93"/>
</g>
<!-- Node74 -->
<g id="node23" class="node">
<title>Node74</title>
<g id="a_node23"><a xlink:href="bomb_8h.html" target="_top" xlink:title=" ">
<polygon fill="white" stroke="black" points="2116,-168.5 2116,-187.5 2208,-187.5 2208,-168.5 2116,-168.5"/>
<text text-anchor="middle" x="2162" y="-175.5" font-family="Helvetica,sans-Serif" font-size="10.00">include/bomb.h</text>
</a>
</g>
</g>
<!-- Node2&#45;&gt;Node74 -->
<g id="edge22" class="edge">
<title>Node2&#45;&gt;Node74</title>
<path fill="none" stroke="midnightblue" d="M1948.97,-222.41C1999.05,-212.2 2073.86,-196.96 2120.21,-187.52"/>
<polygon fill="midnightblue" stroke="midnightblue" points="1948.09,-219.02 1938.99,-224.44 1949.49,-225.88 1948.09,-219.02"/>
</g>
<!-- Node75 -->
<g id="node24" class="node">
<title>Node75</title>
<g id="a_node24"><a xlink:href="break_8h.html" target="_top" xlink:title=" ">
<polygon fill="white" stroke="black" points="2226,-168.5 2226,-187.5 2318,-187.5 2318,-168.5 2226,-168.5"/>
<text text-anchor="middle" x="2272" y="-175.5" font-family="Helvetica,sans-Serif" font-size="10.00">include/break.h</text>
</a>
</g>
</g>
<!-- Node2&#45;&gt;Node75 -->
<g id="edge23" class="edge">
<title>Node2&#45;&gt;Node75</title>
<path fill="none" stroke="midnightblue" d="M1960.59,-224.49C2025.21,-215.73 2128.16,-201.51 2217,-188 2219.87,-187.56 2222.82,-187.11 2225.8,-186.64"/>
<polygon fill="midnightblue" stroke="midnightblue" points="1960,-221.03 1950.56,-225.84 1960.94,-227.97 1960,-221.03"/>
</g>
<!-- Node76 -->
<g id="node25" class="node">
<title>Node76</title>
<g id="a_node25"><a xlink:href="brx_8h.html" target="_top" xlink:title="Binary Resource Archive.">
<polygon fill="white" stroke="red" points="2336,-168.5 2336,-187.5 2416,-187.5 2416,-168.5 2336,-168.5"/>
<text text-anchor="middle" x="2376" y="-175.5" font-family="Helvetica,sans-Serif" font-size="10.00">include/brx.h</text>
</a>
</g>
</g>
<!-- Node2&#45;&gt;Node76 -->
<g id="edge24" class="edge">
<title>Node2&#45;&gt;Node76</title>
<path fill="none" stroke="midnightblue" d="M1960.96,-227.86C2045.13,-220.75 2197.55,-206.63 2327,-188 2329.91,-187.58 2332.91,-187.11 2335.93,-186.62"/>
<polygon fill="midnightblue" stroke="midnightblue" points="1960.47,-224.39 1950.79,-228.72 1961.05,-231.37 1960.47,-224.39"/>
</g>
<!-- Node78 -->
<g id="node26" class="node">
<title>Node78</title>
<g id="a_node26"><a xlink:href="cat_8h.html" target="_top" xlink:title="Catalog.">
<polygon fill="white" stroke="black" points="1591.5,-168.5 1591.5,-187.5 1670.5,-187.5 1670.5,-168.5 1591.5,-168.5"/>
<text text-anchor="middle" x="1631" y="-175.5" font-family="Helvetica,sans-Serif" font-size="10.00">include/cat.h</text>
</a>
</g>
</g>
<!-- Node2&#45;&gt;Node78 -->
<g id="edge25" class="edge">
<title>Node2&#45;&gt;Node78</title>
<path fill="none" stroke="midnightblue" d="M1845,-222.44C1793.94,-212.08 1717.15,-196.49 1670.78,-187.08"/>
<polygon fill="midnightblue" stroke="midnightblue" points="1844.36,-225.88 1854.85,-224.44 1845.75,-219.02 1844.36,-225.88"/>
</g>
<!-- Node79 -->
<g id="node27" class="node">
<title>Node79</title>
<g id="a_node27"><a xlink:href="cd_8h.html" target="_top" xlink:title=" ">
<polygon fill="white" stroke="black" points="2434.5,-168.5 2434.5,-187.5 2509.5,-187.5 2509.5,-168.5 2434.5,-168.5"/>
<text text-anchor="middle" x="2472" y="-175.5" font-family="Helvetica,sans-Serif" font-size="10.00">include/cd.h</text>
</a>
</g>
</g>
<!-- Node2&#45;&gt;Node79 -->
<g id="edge27" class="edge">
<title>Node2&#45;&gt;Node79</title>
<path fill="none" stroke="midnightblue" d="M1960.99,-229.7C2060.55,-224.09 2258.42,-210.98 2425,-188 2428.05,-187.58 2431.19,-187.09 2434.35,-186.57"/>
<polygon fill="midnightblue" stroke="midnightblue" points="1960.58,-226.22 1950.79,-230.27 1960.97,-233.21 1960.58,-226.22"/>
</g>
<!-- Node80 -->
<g id="node28" class="node">
<title>Node80</title>
<g id="a_node28"><a xlink:href="cid_8h.html" target="_top" xlink:title="Class IDs.">
<polygon fill="white" stroke="black" points="627,-168.5 627,-187.5 705,-187.5 705,-168.5 627,-168.5"/>
<text text-anchor="middle" x="666" y="-175.5" font-family="Helvetica,sans-Serif" font-size="10.00">include/cid.h</text>
</a>
</g>
</g>
<!-- Node2&#45;&gt;Node80 -->
<g id="edge29" class="edge">
<title>Node2&#45;&gt;Node80</title>
<path fill="none" stroke="midnightblue" d="M1833.21,-233.47C1655.97,-234.15 1142.65,-231.87 719,-188 714.54,-187.54 709.9,-186.93 705.28,-186.26"/>
<polygon fill="midnightblue" stroke="midnightblue" points="1833.42,-236.97 1843.4,-233.43 1833.39,-229.97 1833.42,-236.97"/>
</g>
<!-- Node81 -->
<g id="node29" class="node">
<title>Node81</title>
<g id="a_node29"><a xlink:href="game_8h.html" target="_top" xlink:title="Game state and level management.">
<polygon fill="white" stroke="red" points="676,-112.5 676,-131.5 768,-131.5 768,-112.5 676,-112.5"/>
<text text-anchor="middle" x="722" y="-119.5" font-family="Helvetica,sans-Serif" font-size="10.00">include/game.h</text>
</a>
</g>
</g>
<!-- Node2&#45;&gt;Node81 -->
<g id="edge57" class="edge">
<title>Node2&#45;&gt;Node81</title>
<path fill="none" stroke="midnightblue" d="M1833.4,-232.33C1599.37,-229.62 797.18,-218.18 752,-188 732.57,-175.02 725.5,-146.05 723.11,-131.58"/>
<polygon fill="midnightblue" stroke="midnightblue" points="1833.42,-235.83 1843.46,-232.44 1833.5,-228.83 1833.42,-235.83"/>
</g>
<!-- Node83 -->
<g id="node30" class="node">
<title>Node83</title>
<g id="a_node30"><a xlink:href="clip_8h.html" target="_top" xlink:title=" ">
<polygon fill="white" stroke="black" points="2527.5,-168.5 2527.5,-187.5 2608.5,-187.5 2608.5,-168.5 2527.5,-168.5"/>
<text text-anchor="middle" x="2568" y="-175.5" font-family="Helvetica,sans-Serif" font-size="10.00">include/clip.h</text>
</a>
</g>
</g>
<!-- Node2&#45;&gt;Node83 -->
<g id="edge32" class="edge">
<title>Node2&#45;&gt;Node83</title>
<path fill="none" stroke="midnightblue" d="M1961.06,-230.68C2074.1,-226.07 2316.18,-213.88 2519,-188 2521.75,-187.65 2524.57,-187.25 2527.41,-186.81"/>
<polygon fill="midnightblue" stroke="midnightblue" points="1960.71,-227.19 1950.86,-231.09 1960.99,-234.18 1960.71,-227.19"/>
</g>
<!-- Node84 -->
<g id="node31" class="node">
<title>Node84</title>
<g id="a_node31"><a xlink:href="clock_8h.html" target="_top" xlink:title="Engine clock.">
<polygon fill="white" stroke="red" points="1688.5,-168.5 1688.5,-187.5 1777.5,-187.5 1777.5,-168.5 1688.5,-168.5"/>
<text text-anchor="middle" x="1733" y="-175.5" font-family="Helvetica,sans-Serif" font-size="10.00">include/clock.h</text>
</a>
</g>
</g>
<!-- Node2&#45;&gt;Node84 -->
<g id="edge33" class="edge">
<title>Node2&#45;&gt;Node84</title>
<path fill="none" stroke="midnightblue" d="M1861.48,-221.3C1830.58,-211.13 1786.53,-196.62 1758.86,-187.52"/>
<polygon fill="midnightblue" stroke="midnightblue" points="1860.42,-224.64 1871.01,-224.44 1862.61,-217.99 1860.42,-224.64"/>
</g>
<!-- Node86 -->
<g id="node32" class="node">
<title>Node86</title>
<g id="a_node32"><a xlink:href="cnvo_8h.html" target="_top" xlink:title=" ">
<polygon fill="white" stroke="black" points="2626.5,-168.5 2626.5,-187.5 2713.5,-187.5 2713.5,-168.5 2626.5,-168.5"/>
<text text-anchor="middle" x="2670" y="-175.5" font-family="Helvetica,sans-Serif" font-size="10.00">include/cnvo.h</text>
</a>
</g>
</g>
<!-- Node2&#45;&gt;Node86 -->
<g id="edge36" class="edge">
<title>Node2&#45;&gt;Node86</title>
<path fill="none" stroke="midnightblue" d="M1960.78,-231.35C2086.76,-227.59 2376.29,-216.37 2618,-188 2620.73,-187.68 2623.53,-187.31 2626.36,-186.91"/>
<polygon fill="midnightblue" stroke="midnightblue" points="1960.44,-227.86 1950.54,-231.65 1960.64,-234.86 1960.44,-227.86"/>
</g>
<!-- Node87 -->
<g id="node33" class="node">
<title>Node87</title>
<g id="a_node33"><a xlink:href="cplcy_8h.html" target="_top" xlink:title="Camera policy.">
<polygon fill="white" stroke="black" points="2732,-168.5 2732,-187.5 2820,-187.5 2820,-168.5 2732,-168.5"/>
<text text-anchor="middle" x="2776" y="-175.5" font-family="Helvetica,sans-Serif" font-size="10.00">include/cplcy.h</text>
</a>
</g>
</g>
<!-- Node2&#45;&gt;Node87 -->
<g id="edge38" class="edge">
<title>Node2&#45;&gt;Node87</title>
<path fill="none" stroke="midnightblue" d="M1960.86,-231.99C2099.84,-229.26 2439.99,-219.63 2723,-188 2725.88,-187.68 2728.83,-187.3 2731.81,-186.89"/>
<polygon fill="midnightblue" stroke="midnightblue" points="1960.74,-228.49 1950.81,-232.19 1960.87,-235.49 1960.74,-228.49"/>
</g>
<!-- Node88 -->
<g id="node34" class="node">
<title>Node88</title>
<g id="a_node34"><a xlink:href="credit_8h.html" target="_top" xlink:title="Credit UI blot.">
<polygon fill="white" stroke="red" points="2838,-168.5 2838,-187.5 2930,-187.5 2930,-168.5 2838,-168.5"/>
<text text-anchor="middle" x="2884" y="-175.5" font-family="Helvetica,sans-Serif" font-size="10.00">include/credit.h</text>
</a>
</g>
</g>
<!-- Node2&#45;&gt;Node88 -->
<g id="edge39" class="edge">
<title>Node2&#45;&gt;Node88</title>
<path fill="none" stroke="midnightblue" d="M1960.78,-232.42C2111.97,-230.51 2503.8,-222.34 2829,-188 2831.89,-187.7 2834.85,-187.34 2837.84,-186.95"/>
<polygon fill="midnightblue" stroke="midnightblue" points="1960.7,-228.92 1950.75,-232.54 1960.79,-235.92 1960.7,-228.92"/>
</g>
<!-- Node90 -->
<g id="node35" class="node">
<title>Node90</title>
<g id="a_node35"><a xlink:href="crout_8h.html" target="_top" xlink:title=" ">
<polygon fill="white" stroke="red" points="2948.5,-168.5 2948.5,-187.5 3037.5,-187.5 3037.5,-168.5 2948.5,-168.5"/>
<text text-anchor="middle" x="2993" y="-175.5" font-family="Helvetica,sans-Serif" font-size="10.00">include/crout.h</text>
</a>
</g>
</g>
<!-- Node2&#45;&gt;Node90 -->
<g id="edge40" class="edge">
<title>Node2&#45;&gt;Node90</title>
<path fill="none" stroke="midnightblue" d="M1960.93,-232.95C2124.26,-232.23 2570.04,-226.57 2939,-188 2942.02,-187.68 2945.14,-187.31 2948.27,-186.89"/>
<polygon fill="midnightblue" stroke="midnightblue" points="1960.57,-229.45 1950.58,-232.99 1960.59,-236.45 1960.57,-229.45"/>
</g>
<!-- Node92 -->
<g id="node36" class="node">
<title>Node92</title>
<g id="a_node36"><a xlink:href="crv_8h.html" target="_top" xlink:title=" ">
<polygon fill="white" stroke="black" points="3056,-168.5 3056,-187.5 3134,-187.5 3134,-168.5 3056,-168.5"/>
<text text-anchor="middle" x="3095" y="-175.5" font-family="Helvetica,sans-Serif" font-size="10.00">include/crv.h</text>
</a>
</g>
</g>
<!-- Node2&#45;&gt;Node92 -->
<g id="edge41" class="edge">
<title>Node2&#45;&gt;Node92</title>
<path fill="none" stroke="midnightblue" d="M1960.71,-231.74C2169.81,-227.39 2833.93,-212.01 3047,-188 3049.86,-187.68 3052.81,-187.28 3055.78,-186.84"/>
<polygon fill="midnightblue" stroke="midnightblue" points="1960.44,-228.24 1950.51,-231.95 1960.58,-235.24 1960.44,-228.24"/>
</g>
<!-- Node93 -->
<g id="node37" class="node">
<title>Node93</title>
<g id="a_node37"><a xlink:href="dart_8h.html" target="_top" xlink:title="Dartgun projectiles.">
<polygon fill="white" stroke="black" points="3152.5,-168.5 3152.5,-187.5 3235.5,-187.5 3235.5,-168.5 3152.5,-168.5"/>
<text text-anchor="middle" x="3194" y="-175.5" font-family="Helvetica,sans-Serif" font-size="10.00">include/dart.h</text>
</a>
</g>
</g>
<!-- Node2&#45;&gt;Node93 -->
<g id="edge42" class="edge">
<title>Node2&#45;&gt;Node93</title>
<path fill="none" stroke="midnightblue" d="M1960.76,-231.87C2181.17,-227.77 2910.18,-212.63 3143,-188 3146.04,-187.68 3149.17,-187.28 3152.32,-186.84"/>
<polygon fill="midnightblue" stroke="midnightblue" points="1960.58,-228.37 1950.65,-232.05 1960.71,-235.37 1960.58,-228.37"/>
</g>
<!-- Node94 -->
<g id="node38" class="node">
<title>Node94</title>
<g id="a_node38"><a xlink:href="dl_8h.html" target="_top" xlink:title="Doubly&#45;linked list.">
<polygon fill="white" stroke="red" points="497.5,-168.5 497.5,-187.5 570.5,-187.5 570.5,-168.5 497.5,-168.5"/>
<text text-anchor="middle" x="534" y="-175.5" font-family="Helvetica,sans-Serif" font-size="10.00">include/dl.h</text>
</a>
</g>
</g>
<!-- Node2&#45;&gt;Node94 -->
<g id="edge44" class="edge">
<title>Node2&#45;&gt;Node94</title>
<path fill="none" stroke="midnightblue" d="M1833.34,-232C1605.54,-228.25 831.4,-213.84 585,-188 580.35,-187.51 575.49,-186.85 570.68,-186.11"/>
<polygon fill="midnightblue" stroke="midnightblue" points="1833.4,-235.5 1843.45,-232.17 1833.51,-228.5 1833.4,-235.5"/>
</g>
<!-- Node43 -->
<g id="node39" class="node">
<title>Node43</title>
<g id="a_node39"><a xlink:href="dmas_8h.html" target="_top" xlink:title="Direct memory access.">
<polygon fill="white" stroke="red" points="3253.5,-168.5 3253.5,-187.5 3344.5,-187.5 3344.5,-168.5 3253.5,-168.5"/>
<text text-anchor="middle" x="3299" y="-175.5" font-family="Helvetica,sans-Serif" font-size="10.00">include/dmas.h</text>
</a>
</g>
</g>
<!-- Node2&#45;&gt;Node43 -->
<g id="edge46" class="edge">
<title>Node2&#45;&gt;Node43</title>
<path fill="none" stroke="midnightblue" d="M1960.81,-231.99C2192.81,-228.13 2991.14,-213.28 3245,-188 3247.74,-187.73 3250.56,-187.4 3253.39,-187.04"/>
<polygon fill="midnightblue" stroke="midnightblue" points="1960.46,-228.49 1950.52,-232.16 1960.58,-235.49 1960.46,-228.49"/>
</g>
<!-- Node96 -->
<g id="node40" class="node">
<title>Node96</title>
<g id="a_node40"><a xlink:href="emitter_8h.html" target="_top" xlink:title="Particle emitter.">
<polygon fill="white" stroke="black" points="3362.5,-168.5 3362.5,-187.5 3461.5,-187.5 3461.5,-168.5 3362.5,-168.5"/>
<text text-anchor="middle" x="3412" y="-175.5" font-family="Helvetica,sans-Serif" font-size="10.00">include/emitter.h</text>
</a>
</g>
</g>
<!-- Node2&#45;&gt;Node96 -->
<g id="edge47" class="edge">
<title>Node2&#45;&gt;Node96</title>
<path fill="none" stroke="midnightblue" d="M1960.63,-232.08C2204.21,-228.39 3077.47,-213.63 3354,-188 3356.74,-187.75 3359.55,-187.45 3362.38,-187.11"/>
<polygon fill="midnightblue" stroke="midnightblue" points="1960.48,-228.58 1950.53,-232.23 1960.58,-235.58 1960.48,-228.58"/>
</g>
<!-- Node97 -->
<g id="node41" class="node">
<title>Node97</title>
<g id="a_node41"><a xlink:href="eyes_8h.html" target="_top" xlink:title=" ">
<polygon fill="white" stroke="black" points="3479.5,-168.5 3479.5,-187.5 3566.5,-187.5 3566.5,-168.5 3479.5,-168.5"/>
<text text-anchor="middle" x="3523" y="-175.5" font-family="Helvetica,sans-Serif" font-size="10.00">include/eyes.h</text>
</a>
</g>
</g>
<!-- Node2&#45;&gt;Node97 -->
<g id="edge48" class="edge">
<title>Node2&#45;&gt;Node97</title>
<path fill="none" stroke="midnightblue" d="M1961.01,-232.39C2217.39,-229.76 3170.68,-218.13 3471,-188 3473.73,-187.73 3476.54,-187.39 3479.37,-187.02"/>
<polygon fill="midnightblue" stroke="midnightblue" points="1960.72,-228.89 1950.75,-232.49 1960.79,-235.89 1960.72,-228.89"/>
</g>
<!-- Node98 -->
<g id="node42" class="node">
<title>Node98</title>
<g id="a_node42"><a xlink:href="fader_8h.html" target="_top" xlink:title=" ">
<polygon fill="white" stroke="black" points="3584.5,-168.5 3584.5,-187.5 3673.5,-187.5 3673.5,-168.5 3584.5,-168.5"/>
<text text-anchor="middle" x="3629" y="-175.5" font-family="Helvetica,sans-Serif" font-size="10.00">include/fader.h</text>
</a>
</g>
</g>
<!-- Node2&#45;&gt;Node98 -->
<g id="edge49" class="edge">
<title>Node2&#45;&gt;Node98</title>
<path fill="none" stroke="midnightblue" d="M1960.81,-232.5C2227.49,-230.21 3253.81,-219.51 3576,-188 3578.69,-187.74 3581.46,-187.42 3584.24,-187.06"/>
<polygon fill="midnightblue" stroke="midnightblue" points="1960.51,-229 1950.54,-232.59 1960.57,-236 1960.51,-229"/>
</g>
<!-- Node99 -->
<g id="node43" class="node">
<title>Node99</title>
<g id="a_node43"><a xlink:href="fly_8h.html" target="_top" xlink:title="Flying insects.">
<polygon fill="white" stroke="black" points="3692,-168.5 3692,-187.5 3766,-187.5 3766,-168.5 3692,-168.5"/>
<text text-anchor="middle" x="3729" y="-175.5" font-family="Helvetica,sans-Serif" font-size="10.00">include/fly.h</text>
</a>
</g>
</g>
<!-- Node2&#45;&gt;Node99 -->
<g id="edge52" class="edge">
<title>Node2&#45;&gt;Node99</title>
<path fill="none" stroke="midnightblue" d="M1961.22,-232.83C2239.07,-231.86 3339.21,-225.69 3683,-188 3685.91,-187.68 3688.91,-187.27 3691.93,-186.81"/>
<polygon fill="midnightblue" stroke="midnightblue" points="1960.9,-229.33 1950.91,-232.86 1960.92,-236.33 1960.9,-229.33"/>
</g>
<!-- Node100 -->
<g id="node44" class="node">
<title>Node100</title>
<g id="a_node44"><a xlink:href="font_8h.html" target="_top" xlink:title="Font system.">
<polygon fill="white" stroke="red" points="3784.5,-168.5 3784.5,-187.5 3867.5,-187.5 3867.5,-168.5 3784.5,-168.5"/>
<text text-anchor="middle" x="3826" y="-175.5" font-family="Helvetica,sans-Serif" font-size="10.00">include/font.h</text>
</a>
</g>
</g>
<!-- Node2&#45;&gt;Node100 -->
<g id="edge53" class="edge">
<title>Node2&#45;&gt;Node100</title>
<path fill="none" stroke="midnightblue" d="M1960.73,-232.76C2246.48,-231.51 3411.56,-224.21 3775,-188 3778.04,-187.7 3781.18,-187.32 3784.32,-186.88"/>
<polygon fill="midnightblue" stroke="midnightblue" points="1960.52,-229.26 1950.54,-232.81 1960.55,-236.26 1960.52,-229.26"/>
</g>
<!-- Node101 -->
<g id="node45" class="node">
<title>Node101</title>
<g id="a_node45"><a xlink:href="freeze_8h.html" target="_top" xlink:title=" ">
<polygon fill="white" stroke="black" points="3885.5,-168.5 3885.5,-187.5 3980.5,-187.5 3980.5,-168.5 3885.5,-168.5"/>
<text text-anchor="middle" x="3933" y="-175.5" font-family="Helvetica,sans-Serif" font-size="10.00">include/freeze.h</text>
</a>
</g>
</g>
<!-- Node2&#45;&gt;Node101 -->
<g id="edge54" class="edge">
<title>Node2&#45;&gt;Node101</title>
<path fill="none" stroke="midnightblue" d="M1960.78,-232.72C2256.03,-231.27 3492.07,-223.14 3877,-188 3879.75,-187.75 3882.56,-187.45 3885.4,-187.1"/>
<polygon fill="midnightblue" stroke="midnightblue" points="1960.66,-229.22 1950.67,-232.77 1960.69,-236.22 1960.66,-229.22"/>
</g>
<!-- Node102 -->
<g id="node46" class="node">
<title>Node102</title>
<g id="a_node46"><a xlink:href="frm_8h.html" target="_top" xlink:title="Frame manager.">
<polygon fill="white" stroke="red" points="3998.5,-168.5 3998.5,-187.5 4079.5,-187.5 4079.5,-168.5 3998.5,-168.5"/>
<text text-anchor="middle" x="4039" y="-175.5" font-family="Helvetica,sans-Serif" font-size="10.00">include/frm.h</text>
</a>
</g>
</g>
<!-- Node2&#45;&gt;Node102 -->
<g id="edge55" class="edge">
<title>Node2&#45;&gt;Node102</title>
<path fill="none" stroke="midnightblue" d="M1960.93,-233.01C2266.7,-232.82 3581.98,-229.59 3990,-188 3992.75,-187.72 3995.58,-187.37 3998.43,-186.97"/>
<polygon fill="midnightblue" stroke="midnightblue" points="1960.9,-229.51 1950.9,-233.01 1960.9,-236.51 1960.9,-229.51"/>
</g>
<!-- Node105 -->
<g id="node47" class="node">
<title>Node105</title>
<g id="a_node47"><a xlink:href="frzg_8h.html" target="_top" xlink:title=" ">
<polygon fill="white" stroke="black" points="4097.5,-168.5 4097.5,-187.5 4180.5,-187.5 4180.5,-168.5 4097.5,-168.5"/>
<text text-anchor="middle" x="4139" y="-175.5" font-family="Helvetica,sans-Serif" font-size="10.00">include/frzg.h</text>
</a>
</g>
</g>
<!-- Node2&#45;&gt;Node105 -->
<g id="edge56" class="edge">
<title>Node2&#45;&gt;Node105</title>
<path fill="none" stroke="midnightblue" d="M1960.82,-233.05C2275.1,-233.07 3660.19,-230.73 4089,-188 4091.72,-187.73 4094.52,-187.39 4097.33,-187.01"/>
<polygon fill="midnightblue" stroke="midnightblue" points="1960.53,-229.55 1950.53,-233.05 1960.53,-236.55 1960.53,-229.55"/>
</g>
<!-- Node106 -->
<g id="node48" class="node">
<title>Node106</title>
<g id="a_node48"><a xlink:href="geom_8h.html" target="_top" xlink:title="Geometry.">
<polygon fill="white" stroke="red" points="1796,-168.5 1796,-187.5 1888,-187.5 1888,-168.5 1796,-168.5"/>
<text text-anchor="middle" x="1842" y="-175.5" font-family="Helvetica,sans-Serif" font-size="10.00">include/geom.h</text>
</a>
</g>
</g>
<!-- Node2&#45;&gt;Node106 -->
<g id="edge58" class="edge">
<title>Node2&#45;&gt;Node106</title>
<path fill="none" stroke="midnightblue" d="M1880.71,-217C1870.96,-207.43 1858.95,-195.64 1850.91,-187.75"/>
<polygon fill="midnightblue" stroke="midnightblue" points="1878.33,-219.57 1887.92,-224.08 1883.23,-214.58 1878.33,-219.57"/>
</g>
<!-- Node107 -->
<g id="node49" class="node">
<title>Node107</title>
<g id="a_node49"><a xlink:href="gs_8h.html" target="_top" xlink:title="Graphics synthesizer.">
<polygon fill="white" stroke="red" points="4198.5,-168.5 4198.5,-187.5 4273.5,-187.5 4273.5,-168.5 4198.5,-168.5"/>
<text text-anchor="middle" x="4236" y="-175.5" font-family="Helvetica,sans-Serif" font-size="10.00">include/gs.h</text>
</a>
</g>
</g>
<!-- Node2&#45;&gt;Node107 -->
<g id="edge60" class="edge">
<title>Node2&#45;&gt;Node107</title>
<path fill="none" stroke="midnightblue" d="M1960.63,-233.24C2283.24,-234.25 3740.32,-236.03 4190,-188 4192.75,-187.71 4195.58,-187.33 4198.43,-186.9"/>
<polygon fill="midnightblue" stroke="midnightblue" points="1960.54,-229.74 1950.53,-233.21 1960.52,-236.74 1960.54,-229.74"/>
</g>
<!-- Node108 -->
<g id="node50" class="node">
<title>Node108</title>
<g id="a_node50"><a xlink:href="hide_8h.html" target="_top" xlink:title=" ">
<polygon fill="white" stroke="black" points="4291.5,-168.5 4291.5,-187.5 4376.5,-187.5 4376.5,-168.5 4291.5,-168.5"/>
<text text-anchor="middle" x="4334" y="-175.5" font-family="Helvetica,sans-Serif" font-size="10.00">include/hide.h</text>
</a>
</g>
</g>
<!-- Node2&#45;&gt;Node108 -->
<g id="edge61" class="edge">
<title>Node2&#45;&gt;Node108</title>
<path fill="none" stroke="midnightblue" d="M1961.02,-233.14C2292.2,-233.68 3813.61,-233.56 4283,-188 4285.77,-187.73 4288.62,-187.39 4291.49,-187.01"/>
<polygon fill="midnightblue" stroke="midnightblue" points="1960.66,-229.64 1950.66,-233.13 1960.65,-236.64 1960.66,-229.64"/>
</g>
<!-- Node8&#45;&gt;Node10 -->
<g id="edge7" class="edge">
<title>Node8&#45;&gt;Node10</title>
<path fill="none" stroke="midnightblue" d="M499.92,-104.72C491.11,-95.2 480.33,-83.56 473.1,-75.75"/>
<polygon fill="midnightblue" stroke="midnightblue" points="497.38,-107.12 506.74,-112.08 502.52,-102.37 497.38,-107.12"/>
</g>
<!-- Node8&#45;&gt;Node12 -->
<g id="edge8" class="edge">
<title>Node8&#45;&gt;Node12</title>
<path fill="none" stroke="midnightblue" d="M536.93,-106.9C552.34,-97 572.45,-84.07 585.54,-75.65"/>
<polygon fill="midnightblue" stroke="midnightblue" points="535.02,-103.97 528.5,-112.32 538.8,-109.86 535.02,-103.97"/>
</g>
<!-- Node47&#45;&gt;Node18 -->
<g id="edge15" class="edge">
<title>Node47&#45;&gt;Node18</title>
<path fill="none" stroke="midnightblue" d="M1400.58,-160.14C1393.09,-150.74 1384.06,-139.4 1377.97,-131.75"/>
<polygon fill="midnightblue" stroke="midnightblue" points="1397.93,-162.44 1406.9,-168.08 1403.41,-158.08 1397.93,-162.44"/>
</g>
<!-- Node18&#45;&gt;Node20 -->
<g id="edge16" class="edge">
<title>Node18&#45;&gt;Node20</title>
<path fill="none" stroke="midnightblue" d="M1360.02,-103.57C1354.17,-94.27 1347.23,-83.25 1342.51,-75.75"/>
<polygon fill="midnightblue" stroke="midnightblue" points="1357.1,-105.49 1365.39,-112.08 1363.02,-101.76 1357.1,-105.49"/>
</g>
<!-- Node41&#45;&gt;Node23 -->
<g id="edge18" class="edge">
<title>Node41&#45;&gt;Node23</title>
<path fill="none" stroke="midnightblue" d="M1612.17,-105.82C1600.16,-96.15 1585.03,-83.95 1574.96,-75.83"/>
<polygon fill="midnightblue" stroke="midnightblue" points="1610.25,-108.77 1620.24,-112.32 1614.65,-103.32 1610.25,-108.77"/>
</g>
<!-- Node23&#45;&gt;Node26 -->
<g id="edge19" class="edge">
<title>Node23&#45;&gt;Node26</title>
<path fill="none" stroke="midnightblue" d="M1551.62,-47.86C1544.86,-38.5 1536.79,-27.33 1531.32,-19.75"/>
<polygon fill="midnightblue" stroke="midnightblue" points="1548.87,-50.03 1557.56,-56.08 1554.54,-45.93 1548.87,-50.03"/>
</g>
<!-- Node78&#45;&gt;Node41 -->
<g id="edge26" class="edge">
<title>Node78&#45;&gt;Node41</title>
<path fill="none" stroke="midnightblue" d="M1631,-157.8C1631,-148.91 1631,-138.78 1631,-131.75"/>
<polygon fill="midnightblue" stroke="midnightblue" points="1627.5,-158.08 1631,-168.08 1634.5,-158.08 1627.5,-158.08"/>
</g>
<!-- Node80&#45;&gt;Node12 -->
<g id="edge30" class="edge">
<title>Node80&#45;&gt;Node12</title>
<path fill="none" stroke="midnightblue" d="M655.43,-159.64C640.87,-135.74 615.22,-93.63 604.23,-75.59"/>
<polygon fill="midnightblue" stroke="midnightblue" points="652.55,-161.65 660.74,-168.37 658.53,-158.01 652.55,-161.65"/>
</g>
<!-- Node80&#45;&gt;Node81 -->
<g id="edge31" class="edge">
<title>Node80&#45;&gt;Node81</title>
<path fill="none" stroke="midnightblue" d="M682.33,-161.25C692.26,-151.67 704.59,-139.79 712.84,-131.83"/>
<polygon fill="midnightblue" stroke="midnightblue" points="679.77,-158.86 675,-168.32 684.63,-163.9 679.77,-158.86"/>
</g>
<!-- Node84&#45;&gt;Node41 -->
<g id="edge34" class="edge">
<title>Node84&#45;&gt;Node41</title>
<path fill="none" stroke="midnightblue" d="M1707.67,-163.59C1688.81,-153.61 1663.62,-140.27 1647.35,-131.65"/>
<polygon fill="midnightblue" stroke="midnightblue" points="1706.14,-166.74 1716.61,-168.32 1709.41,-160.55 1706.14,-166.74"/>
</g>
<!-- Node94&#45;&gt;Node8 -->
<g id="edge45" class="edge">
<title>Node94&#45;&gt;Node8</title>
<path fill="none" stroke="midnightblue" d="M527.45,-158.4C524.28,-149.36 520.61,-138.94 518.08,-131.75"/>
<polygon fill="midnightblue" stroke="midnightblue" points="524.24,-159.81 530.86,-168.08 530.85,-157.49 524.24,-159.81"/>
</g>
<!-- Node106&#45;&gt;Node41 -->
<g id="edge59" class="edge">
<title>Node106&#45;&gt;Node41</title>
<path fill="none" stroke="midnightblue" d="M1798.86,-165.96C1759.01,-155.76 1700.64,-140.82 1664.28,-131.52"/>
<polygon fill="midnightblue" stroke="midnightblue" points="1798.01,-169.35 1808.57,-168.44 1799.75,-162.57 1798.01,-169.35"/>
</g>
</g>
</svg>
        <g id="navigator" transform="translate(0 0)" fill="#404254">
                <rect fill="#f2f5e9" fill-opacity="0.5" stroke="#606060" stroke-width=".5" x="0" y="0" width="60" height="60"/>
                <use id="zoomplus" xlink:href="#zoomPlus" x="17" y="9" onmousedown="handleZoom(evt,'in')"/>
                <use id="zoomminus" xlink:href="#zoomMin" x="42" y="9" onmousedown="handleZoom(evt,'out')"/>
                <use id="reset" xlink:href="#resetDef" x="30" y="36" onmousedown="handleReset()"/>
                <g id="arrowUp" xlink:href="#dirArrow" transform="translate(30 24)" onmousedown="handlePan(0,-1)">
                  <use xlink:href="#rim" fill="#404040">
                        <set attributeName="fill" to="#808080" begin="arrowUp.mouseover" end="arrowUp.mouseout"/>
                  </use>
                  <path fill="none" stroke="white" stroke-width="1.5" d="M0,-3.0v7 M-2.5,-0.5L0,-3.0L2.5,-0.5"/>
                </g>
                <g id="arrowRight" xlink:href="#dirArrow" transform="rotate(90) translate(36 -43)" onmousedown="handlePan(1,0)">
                  <use xlink:href="#rim" fill="#404040">
                        <set attributeName="fill" to="#808080" begin="arrowRight.mouseover" end="arrowRight.mouseout"/>
                  </use>
                  <path fill="none" stroke="white" stroke-width="1.5" d="M0,-3.0v7 M-2.5,-0.5L0,-3.0L2.5,-0.5"/>
                </g>
                <g id="arrowDown" xlink:href="#dirArrow" transform="rotate(180) translate(-30 -48)" onmousedown="handlePan(0,1)">
                  <use xlink:href="#rim" fill="#404040">
                        <set attributeName="fill" to="#808080" begin="arrowDown.mouseover" end="arrowDown.mouseout"/>
                  </use>
                  <path fill="none" stroke="white" stroke-width="1.5" d="M0,-3.0v7 M-2.5,-0.5L0,-3.0L2.5,-0.5"/>
                </g>
                <g id="arrowLeft" xlink:href="#dirArrow" transform="rotate(270) translate(-36 17)" onmousedown="handlePan(-1,0)">
                  <use xlink:href="#rim" fill="#404040">
                        <set attributeName="fill" to="#808080" begin="arrowLeft.mouseover" end="arrowLeft.mouseout"/>
                  </use>
                  <path fill="none" stroke="white" stroke-width="1.5" d="M0,-3.0v7 M-2.5,-0.5L0,-3.0L2.5,-0.5"/>
                </g>
        </g>
        <svg viewBox="0 0 15 15" width="100%" height="30px" preserveAspectRatio="xMaxYMin meet">
         <g id="arrow_out" transform="scale(0.3 0.3)">
          <a xlink:href="vtables_8h__dep__incl_org.svg" target="_base">
           <rect id="button" ry="5" rx="5" y="6" x="6" height="38" width="38"
                fill="#f2f5e9" fill-opacity="0.5" stroke="#606060" stroke-width="1.0"/>
           <path id="arrow"
             d="M 11.500037,31.436501 C 11.940474,20.09759 22.043105,11.32322 32.158766,21.979434 L 37.068811,17.246167 C 37.068811,17.246167 37.088388,32 37.088388,32 L 22.160133,31.978069 C 22.160133,31.978069 26.997745,27.140456 26.997745,27.140456 C 18.528582,18.264221 13.291696,25.230495 11.500037,31.436501 z"
             style="fill:#404040;"/>
          </a>
         </g>
        </svg>
</svg>
