<?xml version="1.0" encoding="UTF-8" standalone="no"?>
<!DOCTYPE svg PUBLIC "-//W3C//DTD SVG 1.1//EN"
 "http://www.w3.org/Graphics/SVG/1.1/DTD/svg11.dtd">
<!-- Generated by graphviz version 2.43.0 (0)
 -->
<!-- Title: include/waypoint.h Pages: 1 -->
<svg width="531pt" height="137pt"
 viewBox="0.00 0.00 531.00 137.00" xmlns="http://www.w3.org/2000/svg" xmlns:xlink="http://www.w3.org/1999/xlink">
<g id="graph0" class="graph" transform="scale(1 1) rotate(0) translate(4 133)">
<title>include/waypoint.h</title>
<!-- Node1 -->
<g id="Node000001" class="node">
<title>Node1</title>
<g id="a_Node000001"><a xlink:title=" ">
<polygon fill="#999999" stroke="#666666" points="447.5,-129 338.5,-129 338.5,-110 447.5,-110 447.5,-129"/>
<text text-anchor="middle" x="393" y="-117" font-family="Helvetica,sans-Serif" font-size="10.00">include/waypoint.h</text>
</a>
</g>
</g>
<!-- Node2 -->
<g id="Node000002" class="node">
<title>Node2</title>
<g id="a_Node000002"><a xlink:href="aseg_8h.html" target="_top" xlink:title=" ">
<polygon fill="white" stroke="#666666" points="323.5,-74 236.5,-74 236.5,-55 323.5,-55 323.5,-74"/>
<text text-anchor="middle" x="280" y="-62" font-family="Helvetica,sans-Serif" font-size="10.00">include/aseg.h</text>
</a>
</g>
</g>
<!-- Node1&#45;&gt;Node2 -->
<g id="edge1_Node000001_Node000002" class="edge">
<title>Node1&#45;&gt;Node2</title>
<g id="a_edge1_Node000001_Node000002"><a xlink:title=" ">
<path fill="none" stroke="#63b8ff" d="M365.57,-105.63C344.75,-95.87 316.7,-82.71 298.49,-74.17"/>
<polygon fill="#63b8ff" stroke="#63b8ff" points="364.3,-108.91 374.84,-109.98 367.28,-102.57 364.3,-108.91"/>
</a>
</g>
</g>
<!-- Node6 -->
<g id="Node000006" class="node">
<title>Node6</title>
<g id="a_Node000006"><a xlink:href="gomer_8c.html" target="_top" xlink:title=" ">
<polygon fill="white" stroke="#666666" points="478,-19 390,-19 390,0 478,0 478,-19"/>
<text text-anchor="middle" x="434" y="-7" font-family="Helvetica,sans-Serif" font-size="10.00">src/P2/gomer.c</text>
</a>
</g>
</g>
<!-- Node1&#45;&gt;Node6 -->
<g id="edge7_Node000001_Node000006" class="edge">
<title>Node1&#45;&gt;Node6</title>
<g id="a_edge7_Node000001_Node000006"><a xlink:title=" ">
<path fill="none" stroke="#63b8ff" d="M397.71,-99.79C401.14,-86.99 406.2,-69.74 412,-55 417.05,-42.17 424.38,-27.99 429.17,-19.17"/>
<polygon fill="#63b8ff" stroke="#63b8ff" points="394.26,-99.16 395.13,-109.72 401.03,-100.92 394.26,-99.16"/>
</a>
</g>
</g>
<!-- Node8 -->
<g id="Node000008" class="node">
<title>Node8</title>
<g id="a_Node000008"><a xlink:href="waypoint_8c.html" target="_top" xlink:title=" ">
<polygon fill="white" stroke="#666666" points="523,-74 421,-74 421,-55 523,-55 523,-74"/>
<text text-anchor="middle" x="472" y="-62" font-family="Helvetica,sans-Serif" font-size="10.00">src/P2/waypoint.c</text>
</a>
</g>
</g>
<!-- Node1&#45;&gt;Node8 -->
<g id="edge8_Node000001_Node000008" class="edge">
<title>Node1&#45;&gt;Node8</title>
<g id="a_edge8_Node000001_Node000008"><a xlink:title=" ">
<path fill="none" stroke="#63b8ff" d="M414.39,-104.15C428.67,-94.57 446.97,-82.29 459.08,-74.17"/>
<polygon fill="#63b8ff" stroke="#63b8ff" points="412.05,-101.51 405.69,-109.98 415.95,-107.32 412.05,-101.51"/>
</a>
</g>
</g>
<!-- Node3 -->
<g id="Node000003" class="node">
<title>Node3</title>
<g id="a_Node000003"><a xlink:href="alo_8c.html" target="_top" xlink:title=" ">
<polygon fill="white" stroke="#666666" points="72,-19 0,-19 0,0 72,0 72,-19"/>
<text text-anchor="middle" x="36" y="-7" font-family="Helvetica,sans-Serif" font-size="10.00">src/P2/alo.c</text>
</a>
</g>
</g>
<!-- Node2&#45;&gt;Node3 -->
<g id="edge2_Node000002_Node000003" class="edge">
<title>Node2&#45;&gt;Node3</title>
<g id="a_edge2_Node000002_Node000003"><a xlink:title=" ">
<path fill="none" stroke="#63b8ff" d="M230.86,-52.83C183.97,-42.64 114.4,-27.53 72.32,-18.39"/>
<polygon fill="#63b8ff" stroke="#63b8ff" points="230.28,-56.28 240.8,-54.98 231.77,-49.44 230.28,-56.28"/>
</a>
</g>
</g>
<!-- Node4 -->
<g id="Node000004" class="node">
<title>Node4</title>
<g id="a_Node000004"><a xlink:href="aseg_8c.html" target="_top" xlink:title=" ">
<polygon fill="white" stroke="#666666" points="170,-19 90,-19 90,0 170,0 170,-19"/>
<text text-anchor="middle" x="130" y="-7" font-family="Helvetica,sans-Serif" font-size="10.00">src/P2/aseg.c</text>
</a>
</g>
</g>
<!-- Node2&#45;&gt;Node4 -->
<g id="edge3_Node000002_Node000004" class="edge">
<title>Node2&#45;&gt;Node4</title>
<g id="a_edge3_Node000002_Node000004"><a xlink:title=" ">
<path fill="none" stroke="#63b8ff" d="M246.18,-51.55C218.32,-41.71 179.49,-27.98 154.54,-19.17"/>
<polygon fill="#63b8ff" stroke="#63b8ff" points="245.31,-54.95 255.9,-54.98 247.64,-48.35 245.31,-54.95"/>
</a>
</g>
</g>
<!-- Node5 -->
<g id="Node000005" class="node">
<title>Node5</title>
<g id="a_Node000005"><a xlink:href="blend_8c.html" target="_top" xlink:title=" ">
<polygon fill="white" stroke="#666666" points="272,-19 188,-19 188,0 272,0 272,-19"/>
<text text-anchor="middle" x="230" y="-7" font-family="Helvetica,sans-Serif" font-size="10.00">src/P2/blend.c</text>
</a>
</g>
</g>
<!-- Node2&#45;&gt;Node5 -->
<g id="edge4_Node000002_Node000005" class="edge">
<title>Node2&#45;&gt;Node5</title>
<g id="a_edge4_Node000002_Node000005"><a xlink:title=" ">
<path fill="none" stroke="#63b8ff" d="M264.66,-47.24C255.9,-37.95 245.26,-26.68 238.1,-19.09"/>
<polygon fill="#63b8ff" stroke="#63b8ff" points="262.34,-49.88 271.74,-54.75 267.43,-45.07 262.34,-49.88"/>
</a>
</g>
</g>
<!-- Node2&#45;&gt;Node6 -->
<g id="edge5_Node000002_Node000006" class="edge">
<title>Node2&#45;&gt;Node6</title>
<g id="a_edge5_Node000002_Node000006"><a xlink:title=" ">
<path fill="none" stroke="#63b8ff" d="M314.38,-51.67C343.09,-41.79 383.36,-27.93 409.06,-19.08"/>
<polygon fill="#63b8ff" stroke="#63b8ff" points="313.06,-48.42 304.74,-54.98 315.34,-55.04 313.06,-48.42"/>
</a>
</g>
</g>
<!-- Node7 -->
<g id="Node000007" class="node">
<title>Node7</title>
<g id="a_Node000007"><a xlink:href="main_8c.html" target="_top" xlink:title=" ">
<polygon fill="white" stroke="#666666" points="372,-19 290,-19 290,0 372,0 372,-19"/>
<text text-anchor="middle" x="331" y="-7" font-family="Helvetica,sans-Serif" font-size="10.00">src/P2/main.c</text>
</a>
</g>
</g>
<!-- Node2&#45;&gt;Node7 -->
<g id="edge6_Node000002_Node000007" class="edge">
<title>Node2&#45;&gt;Node7</title>
<g id="a_edge6_Node000002_Node000007"><a xlink:title=" ">
<path fill="none" stroke="#63b8ff" d="M295.38,-47.52C304.37,-38.18 315.36,-26.75 322.74,-19.09"/>
<polygon fill="#63b8ff" stroke="#63b8ff" points="292.83,-45.12 288.42,-54.75 297.88,-49.97 292.83,-45.12"/>
</a>
</g>
</g>
</g>
</svg>
