<?xml version="1.0" encoding="UTF-8" standalone="no"?>
<!DOCTYPE svg PUBLIC "-//W3C//DTD SVG 1.1//EN"
 "http://www.w3.org/Graphics/SVG/1.1/DTD/svg11.dtd">
<!-- Generated by graphviz version 2.43.0 (0)
 -->
<!-- Title: include/waypoint.h Pages: 1 -->
<svg width="344pt" height="412pt"
 viewBox="0.00 0.00 343.50 412.00" xmlns="http://www.w3.org/2000/svg" xmlns:xlink="http://www.w3.org/1999/xlink">
<g id="graph0" class="graph" transform="scale(1 1) rotate(0) translate(4 408)">
<title>include/waypoint.h</title>
<!-- Node1 -->
<g id="Node000001" class="node">
<title>Node1</title>
<g id="a_Node000001"><a xlink:title=" ">
<polygon fill="#999999" stroke="#666666" points="268,-404 159,-404 159,-385 268,-385 268,-404"/>
<text text-anchor="middle" x="213.5" y="-392" font-family="Helvetica,sans-Serif" font-size="10.00">include/waypoint.h</text>
</a>
</g>
</g>
<!-- Node2 -->
<g id="Node000002" class="node">
<title>Node2</title>
<g id="a_Node000002"><a xlink:href="alo_8h.html" target="_top" xlink:title=" ">
<polygon fill="white" stroke="#666666" points="234,-349 193,-349 193,-330 234,-330 234,-349"/>
<text text-anchor="middle" x="213.5" y="-337" font-family="Helvetica,sans-Serif" font-size="10.00">alo.h</text>
</a>
</g>
</g>
<!-- Node1&#45;&gt;Node2 -->
<g id="edge1_Node000001_Node000002" class="edge">
<title>Node1&#45;&gt;Node2</title>
<g id="a_edge1_Node000001_Node000002"><a xlink:title=" ">
<path fill="none" stroke="#63b8ff" d="M213.5,-384.75C213.5,-377.8 213.5,-367.85 213.5,-359.13"/>
<polygon fill="#63b8ff" stroke="#63b8ff" points="217,-359.09 213.5,-349.09 210,-359.09 217,-359.09"/>
</a>
</g>
</g>
<!-- Node9 -->
<g id="Node000009" class="node">
<title>Node9</title>
<g id="a_Node000009"><a xlink:href="oid_8h.html" target="_top" xlink:title="Object IDs.">
<polygon fill="white" stroke="#666666" points="310,-19 269,-19 269,0 310,0 310,-19"/>
<text text-anchor="middle" x="289.5" y="-7" font-family="Helvetica,sans-Serif" font-size="10.00">oid.h</text>
</a>
</g>
</g>
<!-- Node1&#45;&gt;Node9 -->
<g id="edge22_Node000001_Node000009" class="edge">
<title>Node1&#45;&gt;Node9</title>
<g id="a_edge22_Node000001_Node000009"><a xlink:title=" ">
<path fill="none" stroke="#63b8ff" d="M237.31,-384.91C272.82,-370.39 335.5,-337.41 335.5,-285.5 335.5,-285.5 335.5,-285.5 335.5,-118.5 335.5,-84.04 315.43,-47.98 301.8,-27.47"/>
<polygon fill="#63b8ff" stroke="#63b8ff" points="304.65,-25.44 296.09,-19.2 298.9,-29.42 304.65,-25.44"/>
</a>
</g>
</g>
<!-- Node10 -->
<g id="Node000010" class="node">
<title>Node10</title>
<g id="a_Node000010"><a xlink:href="mq_8h.html" target="_top" xlink:title="Message queue.">
<polygon fill="white" stroke="#666666" points="41,-74 0,-74 0,-55 41,-55 41,-74"/>
<text text-anchor="middle" x="20.5" y="-62" font-family="Helvetica,sans-Serif" font-size="10.00">mq.h</text>
</a>
</g>
</g>
<!-- Node1&#45;&gt;Node10 -->
<g id="edge23_Node000001_Node000010" class="edge">
<title>Node1&#45;&gt;Node10</title>
<g id="a_edge23_Node000001_Node000010"><a xlink:title=" ">
<path fill="none" stroke="#63b8ff" d="M158.99,-386.38C102.23,-375.55 21.5,-348.99 21.5,-285.5 21.5,-285.5 21.5,-285.5 21.5,-173.5 21.5,-142.19 21.07,-105.77 20.78,-84.23"/>
<polygon fill="#63b8ff" stroke="#63b8ff" points="24.28,-84.13 20.63,-74.18 17.28,-84.23 24.28,-84.13"/>
</a>
</g>
</g>
<!-- Node3 -->
<g id="Node000003" class="node">
<title>Node3</title>
<g id="a_Node000003"><a xlink:href="sound_8h.html" target="_top" xlink:title="Sound playback.">
<polygon fill="white" stroke="#666666" points="185,-294 130,-294 130,-275 185,-275 185,-294"/>
<text text-anchor="middle" x="157.5" y="-282" font-family="Helvetica,sans-Serif" font-size="10.00">sound.h</text>
</a>
</g>
</g>
<!-- Node2&#45;&gt;Node3 -->
<g id="edge2_Node000002_Node000003" class="edge">
<title>Node2&#45;&gt;Node3</title>
<g id="a_edge2_Node000002_Node000003"><a xlink:title=" ">
<path fill="none" stroke="#63b8ff" d="M204.5,-329.98C196.31,-322.23 183.99,-310.58 174.03,-301.14"/>
<polygon fill="#63b8ff" stroke="#63b8ff" points="176.33,-298.5 166.66,-294.17 171.52,-303.59 176.33,-298.5"/>
</a>
</g>
</g>
<!-- Node5 -->
<g id="Node000005" class="node">
<title>Node5</title>
<g id="a_Node000005"><a xlink:href="vec_8h.html" target="_top" xlink:title="Vector math.">
<polygon fill="white" stroke="#666666" points="230,-129 187,-129 187,-110 230,-110 230,-129"/>
<text text-anchor="middle" x="208.5" y="-117" font-family="Helvetica,sans-Serif" font-size="10.00">vec.h</text>
</a>
</g>
</g>
<!-- Node2&#45;&gt;Node5 -->
<g id="edge18_Node000002_Node000005" class="edge">
<title>Node2&#45;&gt;Node5</title>
<g id="a_edge18_Node000002_Node000005"><a xlink:title=" ">
<path fill="none" stroke="#63b8ff" d="M217.41,-329.99C228.61,-304.42 258.75,-226.31 239.5,-165 236.27,-154.71 229.72,-144.72 223.47,-136.82"/>
<polygon fill="#63b8ff" stroke="#63b8ff" points="226.11,-134.52 216.98,-129.15 220.77,-139.04 226.11,-134.52"/>
</a>
</g>
</g>
<!-- Node6 -->
<g id="Node000006" class="node">
<title>Node6</title>
<g id="a_Node000006"><a xlink:href="mat_8h.html" target="_top" xlink:title="3x3 and 4x4 matrix types.">
<polygon fill="white" stroke="#666666" points="231,-184 186,-184 186,-165 231,-165 231,-184"/>
<text text-anchor="middle" x="208.5" y="-172" font-family="Helvetica,sans-Serif" font-size="10.00">mat.h</text>
</a>
</g>
</g>
<!-- Node2&#45;&gt;Node6 -->
<g id="edge19_Node000002_Node000006" class="edge">
<title>Node2&#45;&gt;Node6</title>
<g id="a_edge19_Node000002_Node000006"><a xlink:title=" ">
<path fill="none" stroke="#63b8ff" d="M213.23,-329.74C212.45,-304.31 210.17,-230.08 209.09,-194.69"/>
<polygon fill="#63b8ff" stroke="#63b8ff" points="212.58,-194.19 208.77,-184.31 205.58,-194.41 212.58,-194.19"/>
</a>
</g>
</g>
<!-- Node8 -->
<g id="Node000008" class="node">
<title>Node8</title>
<g id="a_Node000008"><a xlink:href="dl_8h.html" target="_top" xlink:title="Doubly&#45;linked list.">
<polygon fill="white" stroke="#666666" points="307,-74 272,-74 272,-55 307,-55 307,-74"/>
<text text-anchor="middle" x="289.5" y="-62" font-family="Helvetica,sans-Serif" font-size="10.00">dl.h</text>
</a>
</g>
</g>
<!-- Node2&#45;&gt;Node8 -->
<g id="edge21_Node000002_Node000008" class="edge">
<title>Node2&#45;&gt;Node8</title>
<g id="a_edge21_Node000002_Node000008"><a xlink:title=" ">
<path fill="none" stroke="#63b8ff" d="M227,-329.92C250.74,-313.66 297.5,-275.87 297.5,-230.5 297.5,-230.5 297.5,-230.5 297.5,-173.5 297.5,-142.1 294.1,-105.71 291.73,-84.2"/>
<polygon fill="#63b8ff" stroke="#63b8ff" points="295.19,-83.7 290.58,-74.16 288.24,-84.5 295.19,-83.7"/>
</a>
</g>
</g>
<!-- Node11 -->
<g id="Node000011" class="node">
<title>Node11</title>
<g id="a_Node000011"><a xlink:href="lo_8h.html" target="_top" xlink:title="Level objects.">
<polygon fill="white" stroke="#666666" points="126,-129 91,-129 91,-110 126,-110 126,-129"/>
<text text-anchor="middle" x="108.5" y="-117" font-family="Helvetica,sans-Serif" font-size="10.00">lo.h</text>
</a>
</g>
</g>
<!-- Node2&#45;&gt;Node11 -->
<g id="edge20_Node000002_Node000011" class="edge">
<title>Node2&#45;&gt;Node11</title>
<g id="a_edge20_Node000002_Node000011"><a xlink:title=" ">
<path fill="none" stroke="#63b8ff" d="M192.65,-333.42C171.78,-327.33 140.03,-315.19 120.5,-294 79.64,-249.66 60.88,-222.66 78.5,-165 81.59,-154.9 87.82,-145.02 93.81,-137.15"/>
<polygon fill="#63b8ff" stroke="#63b8ff" points="96.68,-139.16 100.29,-129.2 91.26,-134.74 96.68,-139.16"/>
</a>
</g>
</g>
<!-- Node4 -->
<g id="Node000004" class="node">
<title>Node4</title>
<g id="a_Node000004"><a xlink:href="util_8h.html" target="_top" xlink:title="Utility functions.">
<polygon fill="white" stroke="#666666" points="178,-239 137,-239 137,-220 178,-220 178,-239"/>
<text text-anchor="middle" x="157.5" y="-227" font-family="Helvetica,sans-Serif" font-size="10.00">util.h</text>
</a>
</g>
</g>
<!-- Node3&#45;&gt;Node4 -->
<g id="edge3_Node000003_Node000004" class="edge">
<title>Node3&#45;&gt;Node4</title>
<g id="a_edge3_Node000003_Node000004"><a xlink:title=" ">
<path fill="none" stroke="#63b8ff" d="M157.5,-274.75C157.5,-267.8 157.5,-257.85 157.5,-249.13"/>
<polygon fill="#63b8ff" stroke="#63b8ff" points="161,-249.09 157.5,-239.09 154,-249.09 161,-249.09"/>
</a>
</g>
</g>
<!-- Node4&#45;&gt;Node5 -->
<g id="edge4_Node000004_Node000005" class="edge">
<title>Node4&#45;&gt;Node5</title>
<g id="a_edge4_Node000004_Node000005"><a xlink:title=" ">
<path fill="none" stroke="#63b8ff" d="M159.11,-219.95C161.68,-207.43 167.36,-183.59 176.5,-165 181.37,-155.09 188.4,-145.02 194.63,-136.98"/>
<polygon fill="#63b8ff" stroke="#63b8ff" points="197.4,-139.12 200.94,-129.14 191.94,-134.74 197.4,-139.12"/>
</a>
</g>
</g>
<!-- Node4&#45;&gt;Node6 -->
<g id="edge5_Node000004_Node000006" class="edge">
<title>Node4&#45;&gt;Node6</title>
<g id="a_edge5_Node000004_Node000006"><a xlink:title=" ">
<path fill="none" stroke="#63b8ff" d="M165.92,-219.75C173.27,-212.11 184.13,-200.82 193.04,-191.56"/>
<polygon fill="#63b8ff" stroke="#63b8ff" points="195.82,-193.72 200.24,-184.09 190.78,-188.87 195.82,-193.72"/>
</a>
</g>
</g>
<!-- Node7 -->
<g id="Node000007" class="node">
<title>Node7</title>
<g id="a_Node000007"><a xlink:href="sm_8h.html" target="_top" xlink:title="Probabilistic finite state machines.">
<polygon fill="white" stroke="#666666" points="129,-184 88,-184 88,-165 129,-165 129,-184"/>
<text text-anchor="middle" x="108.5" y="-172" font-family="Helvetica,sans-Serif" font-size="10.00">sm.h</text>
</a>
</g>
</g>
<!-- Node4&#45;&gt;Node7 -->
<g id="edge7_Node000004_Node000007" class="edge">
<title>Node4&#45;&gt;Node7</title>
<g id="a_edge7_Node000004_Node000007"><a xlink:title=" ">
<path fill="none" stroke="#63b8ff" d="M149.41,-219.75C142.34,-212.11 131.91,-200.82 123.35,-191.56"/>
<polygon fill="#63b8ff" stroke="#63b8ff" points="125.8,-189.06 116.44,-184.09 120.66,-193.81 125.8,-189.06"/>
</a>
</g>
</g>
<!-- Node6&#45;&gt;Node5 -->
<g id="edge6_Node000006_Node000005" class="edge">
<title>Node6&#45;&gt;Node5</title>
<g id="a_edge6_Node000006_Node000005"><a xlink:title=" ">
<path fill="none" stroke="#63b8ff" d="M208.5,-164.75C208.5,-157.8 208.5,-147.85 208.5,-139.13"/>
<polygon fill="#63b8ff" stroke="#63b8ff" points="212,-139.09 208.5,-129.09 205,-139.09 212,-139.09"/>
</a>
</g>
</g>
<!-- Node7&#45;&gt;Node8 -->
<g id="edge8_Node000007_Node000008" class="edge">
<title>Node7&#45;&gt;Node8</title>
<g id="a_edge8_Node000007_Node000008"><a xlink:title=" ">
<path fill="none" stroke="#63b8ff" d="M116.17,-164.6C128.12,-151.21 152.41,-125.77 177.5,-110 204.35,-93.13 238.67,-80.63 262.2,-73.25"/>
<polygon fill="#63b8ff" stroke="#63b8ff" points="263.32,-76.57 271.88,-70.31 261.29,-69.87 263.32,-76.57"/>
</a>
</g>
</g>
<!-- Node7&#45;&gt;Node10 -->
<g id="edge10_Node000007_Node000010" class="edge">
<title>Node7&#45;&gt;Node10</title>
<g id="a_edge10_Node000007_Node000010"><a xlink:title=" ">
<path fill="none" stroke="#63b8ff" d="M101.3,-164.66C86.59,-146.61 52.91,-105.28 34.01,-82.08"/>
<polygon fill="#63b8ff" stroke="#63b8ff" points="36.59,-79.7 27.55,-74.16 31.16,-84.12 36.59,-79.7"/>
</a>
</g>
</g>
<!-- Node7&#45;&gt;Node11 -->
<g id="edge11_Node000007_Node000011" class="edge">
<title>Node7&#45;&gt;Node11</title>
<g id="a_edge11_Node000007_Node000011"><a xlink:title=" ">
<path fill="none" stroke="#63b8ff" d="M108.5,-164.75C108.5,-157.8 108.5,-147.85 108.5,-139.13"/>
<polygon fill="#63b8ff" stroke="#63b8ff" points="112,-139.09 108.5,-129.09 105,-139.09 112,-139.09"/>
</a>
</g>
</g>
<!-- Node8&#45;&gt;Node9 -->
<g id="edge9_Node000008_Node000009" class="edge">
<title>Node8&#45;&gt;Node9</title>
<g id="a_edge9_Node000008_Node000009"><a xlink:title=" ">
<path fill="none" stroke="#63b8ff" d="M289.5,-54.75C289.5,-47.8 289.5,-37.85 289.5,-29.13"/>
<polygon fill="#63b8ff" stroke="#63b8ff" points="293,-29.09 289.5,-19.09 286,-29.09 293,-29.09"/>
</a>
</g>
</g>
<!-- Node11&#45;&gt;Node8 -->
<g id="edge12_Node000011_Node000008" class="edge">
<title>Node11&#45;&gt;Node8</title>
<g id="a_edge12_Node000011_Node000008"><a xlink:title=" ">
<path fill="none" stroke="#63b8ff" d="M126.18,-113.32C157.81,-104.06 224.28,-84.6 261.94,-73.57"/>
<polygon fill="#63b8ff" stroke="#63b8ff" points="263.13,-76.87 271.74,-70.7 261.16,-70.15 263.13,-76.87"/>
</a>
</g>
</g>
<!-- Node11&#45;&gt;Node9 -->
<g id="edge14_Node000011_Node000009" class="edge">
<title>Node11&#45;&gt;Node9</title>
<g id="a_edge14_Node000011_Node000009"><a xlink:title=" ">
<path fill="none" stroke="#63b8ff" d="M126.27,-114C149.77,-107.54 191.91,-94.14 223.5,-74 243.93,-60.97 263.42,-40.96 275.85,-26.89"/>
<polygon fill="#63b8ff" stroke="#63b8ff" points="278.76,-28.87 282.63,-19.01 273.45,-24.31 278.76,-28.87"/>
</a>
</g>
</g>
<!-- Node11&#45;&gt;Node10 -->
<g id="edge13_Node000011_Node000010" class="edge">
<title>Node11&#45;&gt;Node10</title>
<g id="a_edge13_Node000011_Node000010"><a xlink:title=" ">
<path fill="none" stroke="#63b8ff" d="M94.36,-109.98C80.71,-101.77 59.81,-89.18 43.72,-79.49"/>
<polygon fill="#63b8ff" stroke="#63b8ff" points="45.27,-76.33 34.9,-74.17 41.66,-82.33 45.27,-76.33"/>
</a>
</g>
</g>
<!-- Node12 -->
<g id="Node000012" class="node">
<title>Node12</title>
<g id="a_Node000012"><a xlink:href="basic_8h.html" target="_top" xlink:title="Basic object.">
<polygon fill="white" stroke="#666666" points="215,-74 164,-74 164,-55 215,-55 215,-74"/>
<text text-anchor="middle" x="189.5" y="-62" font-family="Helvetica,sans-Serif" font-size="10.00">basic.h</text>
</a>
</g>
</g>
<!-- Node11&#45;&gt;Node12 -->
<g id="edge15_Node000011_Node000012" class="edge">
<title>Node11&#45;&gt;Node12</title>
<g id="a_edge15_Node000011_Node000012"><a xlink:title=" ">
<path fill="none" stroke="#63b8ff" d="M121.51,-109.98C133.96,-101.84 152.96,-89.41 167.71,-79.76"/>
<polygon fill="#63b8ff" stroke="#63b8ff" points="169.8,-82.57 176.25,-74.17 165.96,-76.72 169.8,-82.57"/>
</a>
</g>
</g>
<!-- Node14 -->
<g id="Node000014" class="node">
<title>Node14</title>
<g id="a_Node000014"><a xlink:href="frame_8h.html" target="_top" xlink:title=" ">
<polygon fill="white" stroke="#666666" points="145.5,-74 59.5,-74 59.5,-55 145.5,-55 145.5,-74"/>
<text text-anchor="middle" x="102.5" y="-62" font-family="Helvetica,sans-Serif" font-size="10.00">splice/frame.h</text>
</a>
</g>
</g>
<!-- Node11&#45;&gt;Node14 -->
<g id="edge17_Node000011_Node000014" class="edge">
<title>Node11&#45;&gt;Node14</title>
<g id="a_edge17_Node000011_Node000014"><a xlink:title=" ">
<path fill="none" stroke="#63b8ff" d="M107.51,-109.75C106.72,-102.8 105.6,-92.85 104.61,-84.13"/>
<polygon fill="#63b8ff" stroke="#63b8ff" points="108.08,-83.63 103.47,-74.09 101.12,-84.42 108.08,-83.63"/>
</a>
</g>
</g>
<!-- Node13 -->
<g id="Node000013" class="node">
<title>Node13</title>
<g id="a_Node000013"><a xlink:href="sidebag_8h.html" target="_top" xlink:title="Sidebag for splice.">
<polygon fill="white" stroke="#666666" points="237,-19 142,-19 142,0 237,0 237,-19"/>
<text text-anchor="middle" x="189.5" y="-7" font-family="Helvetica,sans-Serif" font-size="10.00">splice/sidebag.h</text>
</a>
</g>
</g>
<!-- Node12&#45;&gt;Node13 -->
<g id="edge16_Node000012_Node000013" class="edge">
<title>Node12&#45;&gt;Node13</title>
<g id="a_edge16_Node000012_Node000013"><a xlink:title=" ">
<path fill="none" stroke="#63b8ff" d="M189.5,-54.75C189.5,-47.8 189.5,-37.85 189.5,-29.13"/>
<polygon fill="#63b8ff" stroke="#63b8ff" points="193,-29.09 189.5,-19.09 186,-29.09 193,-29.09"/>
</a>
</g>
</g>
</g>
</svg>
