<?xml version="1.0" encoding="UTF-8" standalone="no"?>
<!DOCTYPE svg PUBLIC "-//W3C//DTD SVG 1.1//EN"
 "http://www.w3.org/Graphics/SVG/1.1/DTD/svg11.dtd">
<!-- Generated by graphviz version 2.43.0 (0)
 -->
<!-- Title: include/wipe.h Pages: 1 -->
<svg width="364pt" height="252pt"
 viewBox="0.00 0.00 363.50 252.00" xmlns="http://www.w3.org/2000/svg" xmlns:xlink="http://www.w3.org/1999/xlink">
<g id="graph0" class="graph" transform="scale(1 1) rotate(0) translate(4 248)">
<title>include/wipe.h</title>
<polygon fill="white" stroke="transparent" points="-4,4 -4,-248 359.5,-248 359.5,4 -4,4"/>
<!-- Node1 -->
<g id="node1" class="node">
<title>Node1</title>
<g id="a_node1"><a xlink:title="Screen wipes.">
<polygon fill="#bfbfbf" stroke="black" points="171,-224.5 171,-243.5 258,-243.5 258,-224.5 171,-224.5"/>
<text text-anchor="middle" x="214.5" y="-231.5" font-family="Helvetica,sans-Serif" font-size="10.00">include/wipe.h</text>
</a>
</g>
</g>
<!-- Node2 -->
<g id="node2" class="node">
<title>Node2</title>
<g id="a_node2"><a xlink:href="common_8h.html" target="_top" xlink:title="Common header file.">
<polygon fill="white" stroke="black" points="167.5,-56.5 167.5,-75.5 235.5,-75.5 235.5,-56.5 167.5,-56.5"/>
<text text-anchor="middle" x="201.5" y="-63.5" font-family="Helvetica,sans-Serif" font-size="10.00">common.h</text>
</a>
</g>
</g>
<!-- Node1&#45;&gt;Node2 -->
<g id="edge1" class="edge">
<title>Node1&#45;&gt;Node2</title>
<path fill="none" stroke="midnightblue" d="M201.44,-224.44C190.59,-216.47 175.93,-203.52 169.5,-188 154.81,-152.54 175.63,-108.4 189.95,-84.44"/>
<polygon fill="midnightblue" stroke="midnightblue" points="193.04,-86.1 195.39,-75.77 187.11,-82.38 193.04,-86.1"/>
</g>
<!-- Node7 -->
<g id="node7" class="node">
<title>Node7</title>
<g id="a_node7"><a xlink:href="transition_8h.html" target="_top" xlink:title="Level transitions.">
<polygon fill="white" stroke="black" points="178.5,-168.5 178.5,-187.5 250.5,-187.5 250.5,-168.5 178.5,-168.5"/>
<text text-anchor="middle" x="214.5" y="-175.5" font-family="Helvetica,sans-Serif" font-size="10.00">transition.h</text>
</a>
</g>
</g>
<!-- Node1&#45;&gt;Node7 -->
<g id="edge6" class="edge">
<title>Node1&#45;&gt;Node7</title>
<path fill="none" stroke="midnightblue" d="M214.5,-224.08C214.5,-217.01 214.5,-206.86 214.5,-197.99"/>
<polygon fill="midnightblue" stroke="midnightblue" points="218,-197.75 214.5,-187.75 211,-197.75 218,-197.75"/>
</g>
<!-- Node8 -->
<g id="node8" class="node">
<title>Node8</title>
<g id="a_node8"><a xlink:href="oid_8h.html" target="_top" xlink:title="Object IDs.">
<polygon fill="white" stroke="black" points="230,-112.5 230,-131.5 271,-131.5 271,-112.5 230,-112.5"/>
<text text-anchor="middle" x="250.5" y="-119.5" font-family="Helvetica,sans-Serif" font-size="10.00">oid.h</text>
</a>
</g>
</g>
<!-- Node1&#45;&gt;Node8 -->
<g id="edge10" class="edge">
<title>Node1&#45;&gt;Node8</title>
<path fill="none" stroke="midnightblue" d="M227.56,-224.44C238.41,-216.47 253.07,-203.52 259.5,-188 265.69,-173.05 262.24,-154.68 257.94,-141.29"/>
<polygon fill="midnightblue" stroke="midnightblue" points="261.19,-139.98 254.48,-131.78 254.61,-142.37 261.19,-139.98"/>
</g>
<!-- Node3 -->
<g id="node3" class="node">
<title>Node3</title>
<g id="a_node3"><a xlink:href="include__asm_8h.html" target="_top" xlink:title=" ">
<polygon fill="white" stroke="black" points="0,-0.5 0,-19.5 87,-19.5 87,-0.5 0,-0.5"/>
<text text-anchor="middle" x="43.5" y="-7.5" font-family="Helvetica,sans-Serif" font-size="10.00">include_asm.h</text>
</a>
</g>
</g>
<!-- Node2&#45;&gt;Node3 -->
<g id="edge2" class="edge">
<title>Node2&#45;&gt;Node3</title>
<path fill="none" stroke="midnightblue" d="M176.46,-56.44C149.88,-47.36 107.69,-32.94 77.98,-22.78"/>
<polygon fill="midnightblue" stroke="midnightblue" points="79.01,-19.44 68.42,-19.52 76.75,-26.06 79.01,-19.44"/>
</g>
<!-- Node4 -->
<g id="node4" class="node">
<title>Node4</title>
<g id="a_node4"><a xlink:href="include__rodata_8h.html" target="_top" xlink:title=" ">
<polygon fill="white" stroke="black" points="105.5,-0.5 105.5,-19.5 203.5,-19.5 203.5,-0.5 105.5,-0.5"/>
<text text-anchor="middle" x="154.5" y="-7.5" font-family="Helvetica,sans-Serif" font-size="10.00">include_rodata.h</text>
</a>
</g>
</g>
<!-- Node2&#45;&gt;Node4 -->
<g id="edge3" class="edge">
<title>Node2&#45;&gt;Node4</title>
<path fill="none" stroke="midnightblue" d="M193.74,-56.08C186.96,-48.3 176.96,-36.8 168.74,-27.37"/>
<polygon fill="midnightblue" stroke="midnightblue" points="171.32,-25 162.12,-19.75 166.04,-29.59 171.32,-25"/>
</g>
<!-- Node5 -->
<g id="node5" class="node">
<title>Node5</title>
<g id="a_node5"><a xlink:href="types_8h.html" target="_top" xlink:title="Common types used across the codebase.">
<polygon fill="white" stroke="black" points="222,-0.5 222,-19.5 275,-19.5 275,-0.5 222,-0.5"/>
<text text-anchor="middle" x="248.5" y="-7.5" font-family="Helvetica,sans-Serif" font-size="10.00">types.h</text>
</a>
</g>
</g>
<!-- Node2&#45;&gt;Node5 -->
<g id="edge4" class="edge">
<title>Node2&#45;&gt;Node5</title>
<path fill="none" stroke="midnightblue" d="M209.26,-56.08C216.04,-48.3 226.04,-36.8 234.26,-27.37"/>
<polygon fill="midnightblue" stroke="midnightblue" points="236.96,-29.59 240.88,-19.75 231.68,-25 236.96,-29.59"/>
</g>
<!-- Node6 -->
<g id="node6" class="node">
<title>Node6</title>
<g id="a_node6"><a xlink:href="vtables_8h.html" target="_top" xlink:title="Manually crafted vtables for various structs.">
<polygon fill="white" stroke="black" points="293.5,-0.5 293.5,-19.5 355.5,-19.5 355.5,-0.5 293.5,-0.5"/>
<text text-anchor="middle" x="324.5" y="-7.5" font-family="Helvetica,sans-Serif" font-size="10.00">vtables.h</text>
</a>
</g>
</g>
<!-- Node2&#45;&gt;Node6 -->
<g id="edge5" class="edge">
<title>Node2&#45;&gt;Node6</title>
<path fill="none" stroke="midnightblue" d="M220.99,-56.44C241.14,-47.6 272.82,-33.69 295.83,-23.59"/>
<polygon fill="midnightblue" stroke="midnightblue" points="297.35,-26.74 305.1,-19.52 294.54,-20.33 297.35,-26.74"/>
</g>
<!-- Node7&#45;&gt;Node2 -->
<g id="edge7" class="edge">
<title>Node7&#45;&gt;Node2</title>
<path fill="none" stroke="midnightblue" d="M213.48,-168.37C211.38,-150.62 206.54,-109.67 203.7,-85.6"/>
<polygon fill="midnightblue" stroke="midnightblue" points="207.16,-85.11 202.52,-75.59 200.21,-85.93 207.16,-85.11"/>
</g>
<!-- Node7&#45;&gt;Node8 -->
<g id="edge8" class="edge">
<title>Node7&#45;&gt;Node8</title>
<path fill="none" stroke="midnightblue" d="M220.44,-168.08C225.48,-160.53 232.84,-149.49 239.01,-140.23"/>
<polygon fill="midnightblue" stroke="midnightblue" points="242.03,-142.01 244.67,-131.75 236.21,-138.13 242.03,-142.01"/>
</g>
<!-- Node8&#45;&gt;Node2 -->
<g id="edge9" class="edge">
<title>Node8&#45;&gt;Node2</title>
<path fill="none" stroke="midnightblue" d="M242.41,-112.08C235.34,-104.3 224.91,-92.8 216.35,-83.37"/>
<polygon fill="midnightblue" stroke="midnightblue" points="218.75,-80.8 209.44,-75.75 213.57,-85.51 218.75,-80.8"/>
</g>
</g>
</svg>
