<?xml version="1.0" encoding="UTF-8" standalone="no"?>
<!DOCTYPE svg PUBLIC "-//W3C//DTD SVG 1.1//EN"
 "http://www.w3.org/Graphics/SVG/1.1/DTD/svg11.dtd">
<!-- Generated by graphviz version 2.43.0 (0)
 -->
<!-- Title: src/P2/xform2.c Pages: 1 -->
<svg width="1192pt" height="588pt"
 viewBox="0.00 0.00 1191.50 588.00" xmlns="http://www.w3.org/2000/svg" xmlns:xlink="http://www.w3.org/1999/xlink">
<g id="graph0" class="graph" transform="scale(1 1) rotate(0) translate(4 584)">
<title>src/P2/xform2.c</title>
<polygon fill="white" stroke="transparent" points="-4,4 -4,-584 1187.5,-584 1187.5,4 -4,4"/>
<!-- Node1 -->
<g id="node1" class="node">
<title>Node1</title>
<g id="a_node1"><a xlink:title=" ">
<polygon fill="#bfbfbf" stroke="black" points="568,-560.5 568,-579.5 660,-579.5 660,-560.5 568,-560.5"/>
<text text-anchor="middle" x="614" y="-567.5" font-family="Helvetica,sans-Serif" font-size="10.00">src/P2/xform2.c</text>
</a>
</g>
</g>
<!-- Node2 -->
<g id="node2" class="node">
<title>Node2</title>
<g id="a_node2"><a xlink:href="xform_8h.html" target="_top" xlink:title="Transform.">
<polygon fill="white" stroke="black" points="586.5,-504.5 586.5,-523.5 641.5,-523.5 641.5,-504.5 586.5,-504.5"/>
<text text-anchor="middle" x="614" y="-511.5" font-family="Helvetica,sans-Serif" font-size="10.00">xform.h</text>
</a>
</g>
</g>
<!-- Node1&#45;&gt;Node2 -->
<g id="edge1" class="edge">
<title>Node1&#45;&gt;Node2</title>
<path fill="none" stroke="midnightblue" d="M614,-560.08C614,-553.01 614,-542.86 614,-533.99"/>
<polygon fill="midnightblue" stroke="midnightblue" points="617.5,-533.75 614,-523.75 610.5,-533.75 617.5,-533.75"/>
</g>
<!-- Node3 -->
<g id="node3" class="node">
<title>Node3</title>
<g id="a_node3"><a xlink:href="common_8h.html" target="_top" xlink:title="Common header file.">
<polygon fill="white" stroke="black" points="601,-56.5 601,-75.5 669,-75.5 669,-56.5 601,-56.5"/>
<text text-anchor="middle" x="635" y="-63.5" font-family="Helvetica,sans-Serif" font-size="10.00">common.h</text>
</a>
</g>
</g>
<!-- Node2&#45;&gt;Node3 -->
<g id="edge2" class="edge">
<title>Node2&#45;&gt;Node3</title>
<path fill="none" stroke="midnightblue" d="M586.42,-511.03C466.95,-502.12 0,-463.44 0,-403 0,-403 0,-403 0,-177 0,-136.46 27.25,-129.12 64,-112 157.41,-68.49 473.8,-65.94 590.92,-66.54"/>
<polygon fill="midnightblue" stroke="midnightblue" points="590.95,-70.04 600.97,-66.6 590.99,-63.04 590.95,-70.04"/>
</g>
<!-- Node7 -->
<g id="node7" class="node">
<title>Node7</title>
<g id="a_node7"><a xlink:href="alo_8h.html" target="_top" xlink:title=" ">
<polygon fill="white" stroke="black" points="409.5,-280.5 409.5,-299.5 450.5,-299.5 450.5,-280.5 409.5,-280.5"/>
<text text-anchor="middle" x="430" y="-287.5" font-family="Helvetica,sans-Serif" font-size="10.00">alo.h</text>
</a>
</g>
</g>
<!-- Node2&#45;&gt;Node7 -->
<g id="edge6" class="edge">
<title>Node2&#45;&gt;Node7</title>
<path fill="none" stroke="midnightblue" d="M587.67,-504.43C568.82,-497.2 543.9,-485.24 527,-468 481.22,-421.3 495.5,-392.16 462,-336 456.23,-326.33 449.01,-316.05 442.9,-307.77"/>
<polygon fill="midnightblue" stroke="midnightblue" points="445.62,-305.57 436.81,-299.68 440.03,-309.78 445.62,-305.57"/>
</g>
<!-- Node9 -->
<g id="node9" class="node">
<title>Node9</title>
<g id="a_node9"><a xlink:href="oid_8h.html" target="_top" xlink:title="Object IDs.">
<polygon fill="white" stroke="black" points="590.5,-112.5 590.5,-131.5 631.5,-131.5 631.5,-112.5 590.5,-112.5"/>
<text text-anchor="middle" x="611" y="-119.5" font-family="Helvetica,sans-Serif" font-size="10.00">oid.h</text>
</a>
</g>
</g>
<!-- Node2&#45;&gt;Node9 -->
<g id="edge43" class="edge">
<title>Node2&#45;&gt;Node9</title>
<path fill="none" stroke="midnightblue" d="M611.44,-504.25C606.25,-485.74 595,-441.18 595,-403 595,-403 595,-403 595,-289 595,-235.34 603.39,-172.38 608.01,-141.7"/>
<polygon fill="midnightblue" stroke="midnightblue" points="611.51,-142.03 609.58,-131.61 604.59,-140.96 611.51,-142.03"/>
</g>
<!-- Node12 -->
<g id="node12" class="node">
<title>Node12</title>
<g id="a_node12"><a xlink:href="dl_8h.html" target="_top" xlink:title=" ">
<polygon fill="white" stroke="black" points="490.5,-168.5 490.5,-187.5 525.5,-187.5 525.5,-168.5 490.5,-168.5"/>
<text text-anchor="middle" x="508" y="-175.5" font-family="Helvetica,sans-Serif" font-size="10.00">dl.h</text>
</a>
</g>
</g>
<!-- Node2&#45;&gt;Node12 -->
<g id="edge32" class="edge">
<title>Node2&#45;&gt;Node12</title>
<path fill="none" stroke="midnightblue" d="M605.83,-504.38C590.07,-486.81 557,-444.94 557,-403 557,-403 557,-403 557,-289 557,-253.47 535.4,-216.63 520.88,-195.88"/>
<polygon fill="midnightblue" stroke="midnightblue" points="523.53,-193.57 514.81,-187.54 517.87,-197.69 523.53,-193.57"/>
</g>
<!-- Node16 -->
<g id="node16" class="node">
<title>Node16</title>
<g id="a_node16"><a xlink:href="util_8h.html" target="_top" xlink:title="Utility functions.">
<polygon fill="white" stroke="black" points="768.5,-448.5 768.5,-467.5 809.5,-467.5 809.5,-448.5 768.5,-448.5"/>
<text text-anchor="middle" x="789" y="-455.5" font-family="Helvetica,sans-Serif" font-size="10.00">util.h</text>
</a>
</g>
</g>
<!-- Node2&#45;&gt;Node16 -->
<g id="edge26" class="edge">
<title>Node2&#45;&gt;Node16</title>
<path fill="none" stroke="midnightblue" d="M641.73,-504.44C673.61,-494.61 725.77,-478.51 758.69,-468.35"/>
<polygon fill="midnightblue" stroke="midnightblue" points="759.73,-471.7 768.25,-465.4 757.66,-465.01 759.73,-471.7"/>
</g>
<!-- Node20 -->
<g id="node20" class="node">
<title>Node20</title>
<g id="a_node20"><a xlink:href="surf_8h.html" target="_top" xlink:title="Surface?">
<polygon fill="white" stroke="black" points="881,-448.5 881,-467.5 925,-467.5 925,-448.5 881,-448.5"/>
<text text-anchor="middle" x="903" y="-455.5" font-family="Helvetica,sans-Serif" font-size="10.00">surf.h</text>
</a>
</g>
</g>
<!-- Node2&#45;&gt;Node20 -->
<g id="edge33" class="edge">
<title>Node2&#45;&gt;Node20</title>
<path fill="none" stroke="midnightblue" d="M641.71,-507.82C695.44,-497.78 813.53,-475.72 870.71,-465.03"/>
<polygon fill="midnightblue" stroke="midnightblue" points="871.46,-468.45 880.65,-463.18 870.17,-461.57 871.46,-468.45"/>
</g>
<!-- Node22 -->
<g id="node22" class="node">
<title>Node22</title>
<g id="a_node22"><a xlink:href="game_8h.html" target="_top" xlink:title="Game state and level management.">
<polygon fill="white" stroke="black" points="620.5,-168.5 620.5,-187.5 673.5,-187.5 673.5,-168.5 620.5,-168.5"/>
<text text-anchor="middle" x="647" y="-175.5" font-family="Helvetica,sans-Serif" font-size="10.00">game.h</text>
</a>
</g>
</g>
<!-- Node2&#45;&gt;Node22 -->
<g id="edge38" class="edge">
<title>Node2&#45;&gt;Node22</title>
<path fill="none" stroke="midnightblue" d="M616.56,-504.25C621.75,-485.74 633,-441.18 633,-403 633,-403 633,-403 633,-289 633,-256.54 639.07,-219.12 643.22,-197.36"/>
<polygon fill="midnightblue" stroke="midnightblue" points="646.66,-198 645.17,-187.51 639.79,-196.64 646.66,-198"/>
</g>
<!-- Node24 -->
<g id="node24" class="node">
<title>Node24</title>
<g id="a_node24"><a xlink:href="anim_8h.html" target="_top" xlink:title="Animation.">
<polygon fill="white" stroke="black" points="479,-280.5 479,-299.5 529,-299.5 529,-280.5 479,-280.5"/>
<text text-anchor="middle" x="504" y="-287.5" font-family="Helvetica,sans-Serif" font-size="10.00">anim.h</text>
</a>
</g>
</g>
<!-- Node2&#45;&gt;Node24 -->
<g id="edge44" class="edge">
<title>Node2&#45;&gt;Node24</title>
<path fill="none" stroke="midnightblue" d="M591.71,-504.43C575.73,-497.13 554.98,-485.09 543,-468 508.44,-418.69 503.75,-344.19 503.59,-309.72"/>
<polygon fill="midnightblue" stroke="midnightblue" points="507.09,-309.69 503.68,-299.66 500.09,-309.63 507.09,-309.69"/>
</g>
<!-- Node25 -->
<g id="node25" class="node">
<title>Node25</title>
<g id="a_node25"><a xlink:href="wipe_8h.html" target="_top" xlink:title=" ">
<polygon fill="white" stroke="black" points="687.5,-224.5 687.5,-243.5 736.5,-243.5 736.5,-224.5 687.5,-224.5"/>
<text text-anchor="middle" x="712" y="-231.5" font-family="Helvetica,sans-Serif" font-size="10.00">wipe.h</text>
</a>
</g>
</g>
<!-- Node2&#45;&gt;Node25 -->
<g id="edge47" class="edge">
<title>Node2&#45;&gt;Node25</title>
<path fill="none" stroke="midnightblue" d="M622.17,-504.38C637.93,-486.81 671,-444.94 671,-403 671,-403 671,-403 671,-345 671,-310.52 688.91,-273.56 701.06,-252.47"/>
<polygon fill="midnightblue" stroke="midnightblue" points="704.16,-254.09 706.3,-243.71 698.16,-250.49 704.16,-254.09"/>
</g>
<!-- Node27 -->
<g id="node27" class="node">
<title>Node27</title>
<g id="a_node27"><a xlink:href="bis_8h.html" target="_top" xlink:title="Binary Input Stream.">
<polygon fill="white" stroke="black" points="976,-448.5 976,-467.5 1016,-467.5 1016,-448.5 976,-448.5"/>
<text text-anchor="middle" x="996" y="-455.5" font-family="Helvetica,sans-Serif" font-size="10.00">bis.h</text>
</a>
</g>
</g>
<!-- Node2&#45;&gt;Node27 -->
<g id="edge52" class="edge">
<title>Node2&#45;&gt;Node27</title>
<path fill="none" stroke="midnightblue" d="M641.83,-509.13C697.38,-501.39 825.98,-483.44 934,-468 944.39,-466.52 955.75,-464.87 965.88,-463.4"/>
<polygon fill="midnightblue" stroke="midnightblue" points="966.51,-466.85 975.9,-461.94 965.5,-459.92 966.51,-466.85"/>
</g>
<!-- Node31 -->
<g id="node31" class="node">
<title>Node31</title>
<g id="a_node31"><a xlink:href="proxy_8h.html" target="_top" xlink:title=" ">
<polygon fill="white" stroke="black" points="401,-336.5 401,-355.5 453,-355.5 453,-336.5 401,-336.5"/>
<text text-anchor="middle" x="427" y="-343.5" font-family="Helvetica,sans-Serif" font-size="10.00">proxy.h</text>
</a>
</g>
</g>
<!-- Node2&#45;&gt;Node31 -->
<g id="edge63" class="edge">
<title>Node2&#45;&gt;Node31</title>
<path fill="none" stroke="midnightblue" d="M586.36,-511.92C553.62,-509.16 499.44,-499.73 467,-468 438.75,-440.37 430.45,-392.41 428.01,-365.93"/>
<polygon fill="midnightblue" stroke="midnightblue" points="431.49,-365.44 427.27,-355.72 424.5,-365.95 431.49,-365.44"/>
</g>
<!-- Node32 -->
<g id="node32" class="node">
<title>Node32</title>
<g id="a_node32"><a xlink:href="rs_8h.html" target="_top" xlink:title=" ">
<polygon fill="white" stroke="black" points="820.5,-168.5 820.5,-187.5 855.5,-187.5 855.5,-168.5 820.5,-168.5"/>
<text text-anchor="middle" x="838" y="-175.5" font-family="Helvetica,sans-Serif" font-size="10.00">rs.h</text>
</a>
</g>
</g>
<!-- Node2&#45;&gt;Node32 -->
<g id="edge66" class="edge">
<title>Node2&#45;&gt;Node32</title>
<path fill="none" stroke="midnightblue" d="M626.66,-504.25C638.4,-495.78 655.97,-482.16 669,-468 750.4,-379.51 810.59,-245.33 830.71,-197.08"/>
<polygon fill="midnightblue" stroke="midnightblue" points="834.01,-198.24 834.57,-187.66 827.54,-195.58 834.01,-198.24"/>
</g>
<!-- Node4 -->
<g id="node4" class="node">
<title>Node4</title>
<g id="a_node4"><a xlink:href="include__asm_8h.html" target="_top" xlink:title=" ">
<polygon fill="white" stroke="black" points="480.5,-0.5 480.5,-19.5 567.5,-19.5 567.5,-0.5 480.5,-0.5"/>
<text text-anchor="middle" x="524" y="-7.5" font-family="Helvetica,sans-Serif" font-size="10.00">include_asm.h</text>
</a>
</g>
</g>
<!-- Node3&#45;&gt;Node4 -->
<g id="edge3" class="edge">
<title>Node3&#45;&gt;Node4</title>
<path fill="none" stroke="midnightblue" d="M617.17,-56.32C599.28,-47.62 571.52,-34.12 550.95,-24.11"/>
<polygon fill="midnightblue" stroke="midnightblue" points="552.31,-20.88 541.79,-19.65 549.25,-27.18 552.31,-20.88"/>
</g>
<!-- Node5 -->
<g id="node5" class="node">
<title>Node5</title>
<g id="a_node5"><a xlink:href="include__rodata_8h.html" target="_top" xlink:title=" ">
<polygon fill="white" stroke="black" points="586,-0.5 586,-19.5 684,-19.5 684,-0.5 586,-0.5"/>
<text text-anchor="middle" x="635" y="-7.5" font-family="Helvetica,sans-Serif" font-size="10.00">include_rodata.h</text>
</a>
</g>
</g>
<!-- Node3&#45;&gt;Node5 -->
<g id="edge4" class="edge">
<title>Node3&#45;&gt;Node5</title>
<path fill="none" stroke="midnightblue" d="M635,-56.08C635,-49.01 635,-38.86 635,-29.99"/>
<polygon fill="midnightblue" stroke="midnightblue" points="638.5,-29.75 635,-19.75 631.5,-29.75 638.5,-29.75"/>
</g>
<!-- Node6 -->
<g id="node6" class="node">
<title>Node6</title>
<g id="a_node6"><a xlink:href="types_8h.html" target="_top" xlink:title="Types used throughout the engine.">
<polygon fill="white" stroke="black" points="702.5,-0.5 702.5,-19.5 755.5,-19.5 755.5,-0.5 702.5,-0.5"/>
<text text-anchor="middle" x="729" y="-7.5" font-family="Helvetica,sans-Serif" font-size="10.00">types.h</text>
</a>
</g>
</g>
<!-- Node3&#45;&gt;Node6 -->
<g id="edge5" class="edge">
<title>Node3&#45;&gt;Node6</title>
<path fill="none" stroke="midnightblue" d="M650.1,-56.32C664.9,-47.82 687.69,-34.73 704.98,-24.8"/>
<polygon fill="midnightblue" stroke="midnightblue" points="707.01,-27.67 713.93,-19.65 703.52,-21.6 707.01,-27.67"/>
</g>
<!-- Node7&#45;&gt;Node3 -->
<g id="edge7" class="edge">
<title>Node7&#45;&gt;Node3</title>
<path fill="none" stroke="midnightblue" d="M409.36,-284.92C331.6,-268.73 64.96,-205.29 150,-112 179.38,-79.77 476.4,-70.26 590.6,-67.78"/>
<polygon fill="midnightblue" stroke="midnightblue" points="590.82,-71.28 600.74,-67.57 590.67,-64.28 590.82,-71.28"/>
</g>
<!-- Node8 -->
<g id="node8" class="node">
<title>Node8</title>
<g id="a_node8"><a xlink:href="lo_8h.html" target="_top" xlink:title="Level objects.">
<polygon fill="white" stroke="black" points="406.5,-224.5 406.5,-243.5 441.5,-243.5 441.5,-224.5 406.5,-224.5"/>
<text text-anchor="middle" x="424" y="-231.5" font-family="Helvetica,sans-Serif" font-size="10.00">lo.h</text>
</a>
</g>
</g>
<!-- Node7&#45;&gt;Node8 -->
<g id="edge8" class="edge">
<title>Node7&#45;&gt;Node8</title>
<path fill="none" stroke="midnightblue" d="M429.01,-280.08C428.21,-272.93 427.07,-262.64 426.08,-253.69"/>
<polygon fill="midnightblue" stroke="midnightblue" points="429.56,-253.3 424.97,-243.75 422.6,-254.08 429.56,-253.3"/>
</g>
<!-- Node7&#45;&gt;Node12 -->
<g id="edge25" class="edge">
<title>Node7&#45;&gt;Node12</title>
<path fill="none" stroke="midnightblue" d="M436.12,-280.37C448.99,-262.22 479.07,-219.8 495.95,-195.99"/>
<polygon fill="midnightblue" stroke="midnightblue" points="498.98,-197.77 501.91,-187.59 493.27,-193.72 498.98,-197.77"/>
</g>
<!-- Node8&#45;&gt;Node3 -->
<g id="edge9" class="edge">
<title>Node8&#45;&gt;Node3</title>
<path fill="none" stroke="midnightblue" d="M406.29,-231.51C358.32,-227.17 227.19,-213.23 193,-188 163.78,-166.44 138.57,-138.87 163,-112 191.47,-80.69 478.7,-70.65 590.66,-67.9"/>
<polygon fill="midnightblue" stroke="midnightblue" points="591.02,-71.4 600.93,-67.66 590.85,-64.4 591.02,-71.4"/>
</g>
<!-- Node8&#45;&gt;Node9 -->
<g id="edge10" class="edge">
<title>Node8&#45;&gt;Node9</title>
<path fill="none" stroke="midnightblue" d="M429.69,-224.14C439.02,-210.27 458.86,-183.46 482,-168 512.43,-147.67 553.04,-135.5 580.5,-129.04"/>
<polygon fill="midnightblue" stroke="midnightblue" points="581.34,-132.44 590.34,-126.84 579.81,-125.61 581.34,-132.44"/>
</g>
<!-- Node10 -->
<g id="node10" class="node">
<title>Node10</title>
<g id="a_node10"><a xlink:href="basic_8h.html" target="_top" xlink:title="Basic object.">
<polygon fill="white" stroke="black" points="202.5,-168.5 202.5,-187.5 253.5,-187.5 253.5,-168.5 202.5,-168.5"/>
<text text-anchor="middle" x="228" y="-175.5" font-family="Helvetica,sans-Serif" font-size="10.00">basic.h</text>
</a>
</g>
</g>
<!-- Node8&#45;&gt;Node10 -->
<g id="edge12" class="edge">
<title>Node8&#45;&gt;Node10</title>
<path fill="none" stroke="midnightblue" d="M406.26,-228.11C374.14,-219.26 305.77,-200.43 263.66,-188.82"/>
<polygon fill="midnightblue" stroke="midnightblue" points="264.38,-185.39 253.81,-186.11 262.52,-192.14 264.38,-185.39"/>
</g>
<!-- Node8&#45;&gt;Node12 -->
<g id="edge16" class="edge">
<title>Node8&#45;&gt;Node12</title>
<path fill="none" stroke="midnightblue" d="M437.5,-224.32C450.6,-215.9 470.71,-202.97 486.11,-193.07"/>
<polygon fill="midnightblue" stroke="midnightblue" points="488.02,-196.01 494.54,-187.65 484.23,-190.12 488.02,-196.01"/>
</g>
<!-- Node13 -->
<g id="node13" class="node">
<title>Node13</title>
<g id="a_node13"><a xlink:href="sw_8h.html" target="_top" xlink:title="Scene world?">
<polygon fill="white" stroke="black" points="294,-112.5 294,-131.5 332,-131.5 332,-112.5 294,-112.5"/>
<text text-anchor="middle" x="313" y="-119.5" font-family="Helvetica,sans-Serif" font-size="10.00">sw.h</text>
</a>
</g>
</g>
<!-- Node8&#45;&gt;Node13 -->
<g id="edge19" class="edge">
<title>Node8&#45;&gt;Node13</title>
<path fill="none" stroke="midnightblue" d="M415.29,-224.37C396.65,-205.89 352.65,-162.29 328.89,-138.74"/>
<polygon fill="midnightblue" stroke="midnightblue" points="331.24,-136.14 321.67,-131.59 326.31,-141.12 331.24,-136.14"/>
</g>
<!-- Node14 -->
<g id="node14" class="node">
<title>Node14</title>
<g id="a_node14"><a xlink:href="frame_8h.html" target="_top" xlink:title=" ">
<polygon fill="white" stroke="black" points="350,-112.5 350,-131.5 436,-131.5 436,-112.5 350,-112.5"/>
<text text-anchor="middle" x="393" y="-119.5" font-family="Helvetica,sans-Serif" font-size="10.00">splice/frame.h</text>
</a>
</g>
</g>
<!-- Node8&#45;&gt;Node14 -->
<g id="edge21" class="edge">
<title>Node8&#45;&gt;Node14</title>
<path fill="none" stroke="midnightblue" d="M421.2,-224.41C418.28,-215.38 413.65,-200.74 410,-188 405.58,-172.56 401,-154.93 397.71,-141.93"/>
<polygon fill="midnightblue" stroke="midnightblue" points="401.01,-140.71 395.18,-131.87 394.22,-142.42 401.01,-140.71"/>
</g>
<!-- Node15 -->
<g id="node15" class="node">
<title>Node15</title>
<g id="a_node15"><a xlink:href="mq_8h.html" target="_top" xlink:title="Message queue(?).">
<polygon fill="white" stroke="black" points="454.5,-112.5 454.5,-131.5 495.5,-131.5 495.5,-112.5 454.5,-112.5"/>
<text text-anchor="middle" x="475" y="-119.5" font-family="Helvetica,sans-Serif" font-size="10.00">mq.h</text>
</a>
</g>
</g>
<!-- Node8&#45;&gt;Node15 -->
<g id="edge23" class="edge">
<title>Node8&#45;&gt;Node15</title>
<path fill="none" stroke="midnightblue" d="M426.61,-224.38C430.58,-211.73 438.64,-187.52 448,-168 452.53,-158.55 458.44,-148.51 463.57,-140.32"/>
<polygon fill="midnightblue" stroke="midnightblue" points="466.65,-142 469.12,-131.69 460.76,-138.21 466.65,-142"/>
</g>
<!-- Node9&#45;&gt;Node3 -->
<g id="edge11" class="edge">
<title>Node9&#45;&gt;Node3</title>
<path fill="none" stroke="midnightblue" d="M614.96,-112.08C618.21,-104.77 622.92,-94.18 626.95,-85.1"/>
<polygon fill="midnightblue" stroke="midnightblue" points="630.25,-86.31 631.11,-75.75 623.85,-83.47 630.25,-86.31"/>
</g>
<!-- Node10&#45;&gt;Node3 -->
<g id="edge13" class="edge">
<title>Node10&#45;&gt;Node3</title>
<path fill="none" stroke="midnightblue" d="M210.73,-168.3C188.01,-155.75 152.94,-131.89 171,-112 198.9,-81.27 480.01,-70.89 590.63,-67.98"/>
<polygon fill="midnightblue" stroke="midnightblue" points="590.88,-71.48 600.78,-67.73 590.7,-64.48 590.88,-71.48"/>
</g>
<!-- Node11 -->
<g id="node11" class="node">
<title>Node11</title>
<g id="a_node11"><a xlink:href="sidebag_8h.html" target="_top" xlink:title="Sidebag for splice.">
<polygon fill="white" stroke="black" points="180.5,-112.5 180.5,-131.5 275.5,-131.5 275.5,-112.5 180.5,-112.5"/>
<text text-anchor="middle" x="228" y="-119.5" font-family="Helvetica,sans-Serif" font-size="10.00">splice/sidebag.h</text>
</a>
</g>
</g>
<!-- Node10&#45;&gt;Node11 -->
<g id="edge14" class="edge">
<title>Node10&#45;&gt;Node11</title>
<path fill="none" stroke="midnightblue" d="M228,-168.08C228,-161.01 228,-150.86 228,-141.99"/>
<polygon fill="midnightblue" stroke="midnightblue" points="231.5,-141.75 228,-131.75 224.5,-141.75 231.5,-141.75"/>
</g>
<!-- Node11&#45;&gt;Node3 -->
<g id="edge15" class="edge">
<title>Node11&#45;&gt;Node3</title>
<path fill="none" stroke="midnightblue" d="M275.57,-113.38C278.76,-112.91 281.93,-112.44 285,-112 394.66,-96.3 524.03,-80.33 590.55,-72.3"/>
<polygon fill="midnightblue" stroke="midnightblue" points="591.17,-75.75 600.68,-71.08 590.33,-68.8 591.17,-75.75"/>
</g>
<!-- Node12&#45;&gt;Node3 -->
<g id="edge17" class="edge">
<title>Node12&#45;&gt;Node3</title>
<path fill="none" stroke="midnightblue" d="M511.47,-168.4C517.29,-154.91 530.13,-128.59 548,-112 563.11,-97.98 583.41,-87.14 600.61,-79.63"/>
<polygon fill="midnightblue" stroke="midnightblue" points="602.42,-82.66 610.31,-75.58 599.73,-76.2 602.42,-82.66"/>
</g>
<!-- Node12&#45;&gt;Node9 -->
<g id="edge18" class="edge">
<title>Node12&#45;&gt;Node9</title>
<path fill="none" stroke="midnightblue" d="M524.55,-168.32C540.99,-159.7 566.43,-146.36 585.47,-136.39"/>
<polygon fill="midnightblue" stroke="midnightblue" points="587.26,-139.4 594.49,-131.65 584.01,-133.2 587.26,-139.4"/>
</g>
<!-- Node13&#45;&gt;Node3 -->
<g id="edge20" class="edge">
<title>Node13&#45;&gt;Node3</title>
<path fill="none" stroke="midnightblue" d="M332.17,-114.4C335.1,-113.51 338.12,-112.68 341,-112 428.3,-91.43 532.47,-78.06 590.44,-71.58"/>
<polygon fill="midnightblue" stroke="midnightblue" points="591.15,-75.03 600.71,-70.46 590.39,-68.07 591.15,-75.03"/>
</g>
<!-- Node14&#45;&gt;Node3 -->
<g id="edge22" class="edge">
<title>Node14&#45;&gt;Node3</title>
<path fill="none" stroke="midnightblue" d="M431.35,-112.44C474.71,-102.77 545.21,-87.04 590.84,-76.85"/>
<polygon fill="midnightblue" stroke="midnightblue" points="591.75,-80.24 600.75,-74.64 590.22,-73.41 591.75,-80.24"/>
</g>
<!-- Node15&#45;&gt;Node3 -->
<g id="edge24" class="edge">
<title>Node15&#45;&gt;Node3</title>
<path fill="none" stroke="midnightblue" d="M495.59,-114.05C521.94,-105.16 567.99,-89.61 599.92,-78.84"/>
<polygon fill="midnightblue" stroke="midnightblue" points="601.39,-82.04 609.75,-75.52 599.15,-75.4 601.39,-82.04"/>
</g>
<!-- Node16&#45;&gt;Node3 -->
<g id="edge27" class="edge">
<title>Node16&#45;&gt;Node3</title>
<path fill="none" stroke="midnightblue" d="M785.66,-448.12C781.38,-435.56 774.97,-411.92 779,-392 800.13,-287.47 895.05,-270.32 865,-168 856.66,-139.61 853.19,-129.04 829,-112 784.57,-80.7 721.57,-70.87 679.54,-67.95"/>
<polygon fill="midnightblue" stroke="midnightblue" points="679.53,-64.44 669.34,-67.35 679.11,-71.43 679.53,-64.44"/>
</g>
<!-- Node17 -->
<g id="node17" class="node">
<title>Node17</title>
<g id="a_node17"><a xlink:href="mat_8h.html" target="_top" xlink:title="3x3 and 4x4 matrix types.">
<polygon fill="white" stroke="black" points="848.5,-392.5 848.5,-411.5 893.5,-411.5 893.5,-392.5 848.5,-392.5"/>
<text text-anchor="middle" x="871" y="-399.5" font-family="Helvetica,sans-Serif" font-size="10.00">mat.h</text>
</a>
</g>
</g>
<!-- Node16&#45;&gt;Node17 -->
<g id="edge28" class="edge">
<title>Node16&#45;&gt;Node17</title>
<path fill="none" stroke="midnightblue" d="M802.17,-448.32C814.85,-439.98 834.23,-427.21 849.21,-417.35"/>
<polygon fill="midnightblue" stroke="midnightblue" points="851.43,-420.08 857.86,-411.65 847.58,-414.23 851.43,-420.08"/>
</g>
<!-- Node18 -->
<g id="node18" class="node">
<title>Node18</title>
<g id="a_node18"><a xlink:href="vec_8h.html" target="_top" xlink:title="Vector math functions.">
<polygon fill="white" stroke="black" points="787.5,-392.5 787.5,-411.5 830.5,-411.5 830.5,-392.5 787.5,-392.5"/>
<text text-anchor="middle" x="809" y="-399.5" font-family="Helvetica,sans-Serif" font-size="10.00">vec.h</text>
</a>
</g>
</g>
<!-- Node16&#45;&gt;Node18 -->
<g id="edge29" class="edge">
<title>Node16&#45;&gt;Node18</title>
<path fill="none" stroke="midnightblue" d="M792.3,-448.08C794.98,-440.85 798.85,-430.41 802.19,-421.4"/>
<polygon fill="midnightblue" stroke="midnightblue" points="805.57,-422.34 805.76,-411.75 799,-419.91 805.57,-422.34"/>
</g>
<!-- Node19 -->
<g id="node19" class="node">
<title>Node19</title>
<g id="a_node19"><a xlink:href="so_8h.html" target="_top" xlink:title="Scene objects.">
<polygon fill="white" stroke="black" points="699.5,-336.5 699.5,-355.5 736.5,-355.5 736.5,-336.5 699.5,-336.5"/>
<text text-anchor="middle" x="718" y="-343.5" font-family="Helvetica,sans-Serif" font-size="10.00">so.h</text>
</a>
</g>
</g>
<!-- Node18&#45;&gt;Node19 -->
<g id="edge30" class="edge">
<title>Node18&#45;&gt;Node19</title>
<path fill="none" stroke="midnightblue" d="M794.38,-392.32C780.05,-383.82 757.99,-370.73 741.25,-360.8"/>
<polygon fill="midnightblue" stroke="midnightblue" points="742.97,-357.75 732.58,-355.65 739.4,-363.77 742.97,-357.75"/>
</g>
<!-- Node19&#45;&gt;Node7 -->
<g id="edge31" class="edge">
<title>Node19&#45;&gt;Node7</title>
<path fill="none" stroke="midnightblue" d="M699.28,-341.88C657.86,-334.91 555.34,-317.33 470,-300 466.96,-299.38 463.79,-298.71 460.63,-298.03"/>
<polygon fill="midnightblue" stroke="midnightblue" points="461.25,-294.58 450.73,-295.84 459.73,-301.42 461.25,-294.58"/>
</g>
<!-- Node20&#45;&gt;Node3 -->
<g id="edge34" class="edge">
<title>Node20&#45;&gt;Node3</title>
<path fill="none" stroke="midnightblue" d="M905.56,-448.25C910.75,-429.74 922,-385.18 922,-347 922,-347 922,-347 922,-177 922,-134.87 890.38,-131.44 853,-112 797.49,-83.13 725.01,-72.78 679.22,-69.07"/>
<polygon fill="midnightblue" stroke="midnightblue" points="679.26,-65.56 669.02,-68.32 678.74,-72.54 679.26,-65.56"/>
</g>
<!-- Node20&#45;&gt;Node18 -->
<g id="edge35" class="edge">
<title>Node20&#45;&gt;Node18</title>
<path fill="none" stroke="midnightblue" d="M887.9,-448.32C873.1,-439.82 850.31,-426.73 833.02,-416.8"/>
<polygon fill="midnightblue" stroke="midnightblue" points="834.48,-413.6 824.07,-411.65 830.99,-419.67 834.48,-413.6"/>
</g>
<!-- Node21 -->
<g id="node21" class="node">
<title>Node21</title>
<g id="a_node21"><a xlink:href="geom_8h.html" target="_top" xlink:title="Geometry.">
<polygon fill="white" stroke="black" points="950.5,-392.5 950.5,-411.5 1003.5,-411.5 1003.5,-392.5 950.5,-392.5"/>
<text text-anchor="middle" x="977" y="-399.5" font-family="Helvetica,sans-Serif" font-size="10.00">geom.h</text>
</a>
</g>
</g>
<!-- Node20&#45;&gt;Node21 -->
<g id="edge36" class="edge">
<title>Node20&#45;&gt;Node21</title>
<path fill="none" stroke="midnightblue" d="M914.89,-448.32C926.15,-440.11 943.29,-427.6 956.71,-417.81"/>
<polygon fill="midnightblue" stroke="midnightblue" points="958.88,-420.56 964.89,-411.83 954.75,-414.9 958.88,-420.56"/>
</g>
<!-- Node21&#45;&gt;Node3 -->
<g id="edge37" class="edge">
<title>Node21&#45;&gt;Node3</title>
<path fill="none" stroke="midnightblue" d="M974.84,-392.22C970.47,-373.66 961,-329.02 961,-291 961,-291 961,-291 961,-177 961,-146.05 960.14,-131.37 936,-112 897.3,-80.96 753.45,-71.25 679.51,-68.27"/>
<polygon fill="midnightblue" stroke="midnightblue" points="679.25,-64.76 669.12,-67.88 678.99,-71.75 679.25,-64.76"/>
</g>
<!-- Node22&#45;&gt;Node3 -->
<g id="edge39" class="edge">
<title>Node22&#45;&gt;Node3</title>
<path fill="none" stroke="midnightblue" d="M646.3,-168.16C645.28,-155.64 643.26,-132.05 641,-112 640.03,-103.38 638.78,-93.85 637.68,-85.78"/>
<polygon fill="midnightblue" stroke="midnightblue" points="641.11,-85.03 636.25,-75.61 634.17,-86 641.11,-85.03"/>
</g>
<!-- Node22&#45;&gt;Node9 -->
<g id="edge40" class="edge">
<title>Node22&#45;&gt;Node9</title>
<path fill="none" stroke="midnightblue" d="M641.06,-168.08C636.02,-160.53 628.66,-149.49 622.49,-140.23"/>
<polygon fill="midnightblue" stroke="midnightblue" points="625.29,-138.13 616.83,-131.75 619.47,-142.01 625.29,-138.13"/>
</g>
<!-- Node23 -->
<g id="node23" class="node">
<title>Node23</title>
<g id="a_node23"><a xlink:href="cid_8h.html" target="_top" xlink:title="Class ID.">
<polygon fill="white" stroke="black" points="688,-112.5 688,-131.5 728,-131.5 728,-112.5 688,-112.5"/>
<text text-anchor="middle" x="708" y="-119.5" font-family="Helvetica,sans-Serif" font-size="10.00">cid.h</text>
</a>
</g>
</g>
<!-- Node22&#45;&gt;Node23 -->
<g id="edge41" class="edge">
<title>Node22&#45;&gt;Node23</title>
<path fill="none" stroke="midnightblue" d="M656.8,-168.32C665.82,-160.34 679.41,-148.31 690.32,-138.65"/>
<polygon fill="midnightblue" stroke="midnightblue" points="692.85,-141.08 698.02,-131.83 688.21,-135.84 692.85,-141.08"/>
</g>
<!-- Node23&#45;&gt;Node3 -->
<g id="edge42" class="edge">
<title>Node23&#45;&gt;Node3</title>
<path fill="none" stroke="midnightblue" d="M696.27,-112.32C685.16,-104.11 668.26,-91.6 655.02,-81.81"/>
<polygon fill="midnightblue" stroke="midnightblue" points="657.06,-78.97 646.94,-75.83 652.9,-84.59 657.06,-78.97"/>
</g>
<!-- Node24&#45;&gt;Node3 -->
<g id="edge45" class="edge">
<title>Node24&#45;&gt;Node3</title>
<path fill="none" stroke="midnightblue" d="M506.35,-280.17C513.87,-253 539.43,-169.06 582,-112 590.68,-100.36 602.91,-89.72 613.43,-81.71"/>
<polygon fill="midnightblue" stroke="midnightblue" points="615.74,-84.36 621.76,-75.64 611.62,-78.71 615.74,-84.36"/>
</g>
<!-- Node24&#45;&gt;Node8 -->
<g id="edge46" class="edge">
<title>Node24&#45;&gt;Node8</title>
<path fill="none" stroke="midnightblue" d="M491.15,-280.32C478.78,-271.98 459.87,-259.21 445.26,-249.35"/>
<polygon fill="midnightblue" stroke="midnightblue" points="447.07,-246.35 436.82,-243.65 443.15,-252.15 447.07,-246.35"/>
</g>
<!-- Node25&#45;&gt;Node3 -->
<g id="edge48" class="edge">
<title>Node25&#45;&gt;Node3</title>
<path fill="none" stroke="midnightblue" d="M731.91,-224.41C746.22,-217.04 764.46,-204.92 773,-188 784.78,-164.68 758.36,-117.48 753,-112 733.32,-91.9 703.72,-80.64 679.09,-74.41"/>
<polygon fill="midnightblue" stroke="midnightblue" points="679.77,-70.98 669.23,-72.11 678.18,-77.79 679.77,-70.98"/>
</g>
<!-- Node26 -->
<g id="node26" class="node">
<title>Node26</title>
<g id="a_node26"><a xlink:href="transition_8h.html" target="_top" xlink:title="Level transitions.">
<polygon fill="white" stroke="black" points="692,-168.5 692,-187.5 764,-187.5 764,-168.5 692,-168.5"/>
<text text-anchor="middle" x="728" y="-175.5" font-family="Helvetica,sans-Serif" font-size="10.00">transition.h</text>
</a>
</g>
</g>
<!-- Node25&#45;&gt;Node26 -->
<g id="edge49" class="edge">
<title>Node25&#45;&gt;Node26</title>
<path fill="none" stroke="midnightblue" d="M714.64,-224.08C716.79,-216.85 719.88,-206.41 722.55,-197.4"/>
<polygon fill="midnightblue" stroke="midnightblue" points="725.92,-198.33 725.41,-187.75 719.21,-196.34 725.92,-198.33"/>
</g>
<!-- Node26&#45;&gt;Node3 -->
<g id="edge50" class="edge">
<title>Node26&#45;&gt;Node3</title>
<path fill="none" stroke="midnightblue" d="M732.66,-168.2C739,-154.9 748.32,-129.37 737,-112 724.14,-92.26 700.44,-81.12 679.13,-74.86"/>
<polygon fill="midnightblue" stroke="midnightblue" points="679.8,-71.42 669.24,-72.24 678.01,-78.19 679.8,-71.42"/>
</g>
<!-- Node26&#45;&gt;Node9 -->
<g id="edge51" class="edge">
<title>Node26&#45;&gt;Node9</title>
<path fill="none" stroke="midnightblue" d="M709.46,-168.44C690.38,-159.64 660.43,-145.81 638.56,-135.72"/>
<polygon fill="midnightblue" stroke="midnightblue" points="640,-132.53 629.45,-131.52 637.07,-138.88 640,-132.53"/>
</g>
<!-- Node27&#45;&gt;Node3 -->
<g id="edge53" class="edge">
<title>Node27&#45;&gt;Node3</title>
<path fill="none" stroke="midnightblue" d="M1016.02,-448.44C1048.24,-433.17 1108,-397.97 1108,-347 1108,-347 1108,-347 1108,-177 1108,-134.87 1077.24,-129.69 1039,-112 975.86,-82.79 770.36,-71.88 679.22,-68.41"/>
<polygon fill="midnightblue" stroke="midnightblue" points="679.33,-64.91 669.21,-68.04 679.07,-71.91 679.33,-64.91"/>
</g>
<!-- Node27&#45;&gt;Node17 -->
<g id="edge59" class="edge">
<title>Node27&#45;&gt;Node17</title>
<path fill="none" stroke="midnightblue" d="M976.19,-448.44C955.71,-439.6 923.52,-425.69 900.14,-415.59"/>
<polygon fill="midnightblue" stroke="midnightblue" points="901.28,-412.27 890.71,-411.52 898.51,-418.7 901.28,-412.27"/>
</g>
<!-- Node27&#45;&gt;Node18 -->
<g id="edge58" class="edge">
<title>Node27&#45;&gt;Node18</title>
<path fill="none" stroke="midnightblue" d="M975.8,-451.19C947.75,-443.11 895.14,-427.95 840.53,-412.15"/>
<polygon fill="midnightblue" stroke="midnightblue" points="841.26,-408.72 830.68,-409.3 839.31,-415.44 841.26,-408.72"/>
</g>
<!-- Node27&#45;&gt;Node21 -->
<g id="edge60" class="edge">
<title>Node27&#45;&gt;Node21</title>
<path fill="none" stroke="midnightblue" d="M992.86,-448.08C990.32,-440.85 986.64,-430.41 983.47,-421.4"/>
<polygon fill="midnightblue" stroke="midnightblue" points="986.7,-420.02 980.08,-411.75 980.1,-422.35 986.7,-420.02"/>
</g>
<!-- Node28 -->
<g id="node28" class="node">
<title>Node28</title>
<g id="a_node28"><a xlink:href="prog_8h.html" target="_top" xlink:title=" ">
<polygon fill="white" stroke="black" points="1136.5,-336.5 1136.5,-355.5 1183.5,-355.5 1183.5,-336.5 1136.5,-336.5"/>
<text text-anchor="middle" x="1160" y="-343.5" font-family="Helvetica,sans-Serif" font-size="10.00">prog.h</text>
</a>
</g>
</g>
<!-- Node27&#45;&gt;Node28 -->
<g id="edge54" class="edge">
<title>Node27&#45;&gt;Node28</title>
<path fill="none" stroke="midnightblue" d="M1016,-454.21C1042.78,-449.58 1090.53,-438.1 1122,-412 1136.9,-399.64 1147.27,-379.84 1153.38,-365.33"/>
<polygon fill="midnightblue" stroke="midnightblue" points="1156.69,-366.48 1157.07,-355.89 1150.17,-363.93 1156.69,-366.48"/>
</g>
<!-- Node29 -->
<g id="node29" class="node">
<title>Node29</title>
<g id="a_node29"><a xlink:href="clock_8h.html" target="_top" xlink:title="Engine clock.">
<polygon fill="white" stroke="black" points="990.5,-280.5 990.5,-299.5 1041.5,-299.5 1041.5,-280.5 990.5,-280.5"/>
<text text-anchor="middle" x="1016" y="-287.5" font-family="Helvetica,sans-Serif" font-size="10.00">clock.h</text>
</a>
</g>
</g>
<!-- Node27&#45;&gt;Node29 -->
<g id="edge56" class="edge">
<title>Node27&#45;&gt;Node29</title>
<path fill="none" stroke="midnightblue" d="M1000.3,-448.29C1004.44,-439.41 1010.44,-425.11 1013,-412 1019.96,-376.38 1018.89,-333.74 1017.46,-309.77"/>
<polygon fill="midnightblue" stroke="midnightblue" points="1020.94,-309.35 1016.77,-299.62 1013.96,-309.83 1020.94,-309.35"/>
</g>
<!-- Node30 -->
<g id="node30" class="node">
<title>Node30</title>
<g id="a_node30"><a xlink:href="cat_8h.html" target="_top" xlink:title="Catalog.">
<polygon fill="white" stroke="black" points="1035.5,-224.5 1035.5,-243.5 1076.5,-243.5 1076.5,-224.5 1035.5,-224.5"/>
<text text-anchor="middle" x="1056" y="-231.5" font-family="Helvetica,sans-Serif" font-size="10.00">cat.h</text>
</a>
</g>
</g>
<!-- Node27&#45;&gt;Node30 -->
<g id="edge61" class="edge">
<title>Node27&#45;&gt;Node30</title>
<path fill="none" stroke="midnightblue" d="M1003.82,-448.37C1011.18,-439.78 1021.96,-425.89 1028,-412 1051.54,-357.9 1055.57,-286.82 1056.08,-253.61"/>
<polygon fill="midnightblue" stroke="midnightblue" points="1059.58,-253.55 1056.13,-243.53 1052.58,-253.51 1059.58,-253.55"/>
</g>
<!-- Node28&#45;&gt;Node3 -->
<g id="edge55" class="edge">
<title>Node28&#45;&gt;Node3</title>
<path fill="none" stroke="midnightblue" d="M1159.08,-336.45C1157.19,-317.97 1153,-272.89 1153,-235 1153,-235 1153,-235 1153,-177 1153,-144.99 1148.25,-130.31 1122,-112 1086.12,-86.98 792.46,-73.08 679.26,-68.61"/>
<polygon fill="midnightblue" stroke="midnightblue" points="679.33,-65.11 669.2,-68.22 679.06,-72.11 679.33,-65.11"/>
</g>
<!-- Node29&#45;&gt;Node3 -->
<g id="edge57" class="edge">
<title>Node29&#45;&gt;Node3</title>
<path fill="none" stroke="midnightblue" d="M1017.04,-280.34C1020,-251.45 1025.2,-157.6 975,-112 932.52,-73.42 761.25,-67.42 679.22,-66.82"/>
<polygon fill="midnightblue" stroke="midnightblue" points="679.22,-63.32 669.2,-66.77 679.19,-70.32 679.22,-63.32"/>
</g>
<!-- Node30&#45;&gt;Node3 -->
<g id="edge62" class="edge">
<title>Node30&#45;&gt;Node3</title>
<path fill="none" stroke="midnightblue" d="M1056.22,-224.27C1056.25,-201.65 1052.93,-140.93 1018,-112 967.35,-70.05 768.86,-65.98 679.28,-66.36"/>
<polygon fill="midnightblue" stroke="midnightblue" points="679.15,-62.86 669.17,-66.43 679.19,-69.86 679.15,-62.86"/>
</g>
<!-- Node31&#45;&gt;Node3 -->
<g id="edge64" class="edge">
<title>Node31&#45;&gt;Node3</title>
<path fill="none" stroke="midnightblue" d="M400.87,-343.29C313.65,-336.88 38,-310.62 38,-235 38,-235 38,-235 38,-177 38,-125.47 85.46,-129.3 134,-112 217.59,-82.21 484.21,-71.36 590.57,-68.15"/>
<polygon fill="midnightblue" stroke="midnightblue" points="590.76,-71.65 600.65,-67.85 590.55,-64.65 590.76,-71.65"/>
</g>
<!-- Node31&#45;&gt;Node7 -->
<g id="edge65" class="edge">
<title>Node31&#45;&gt;Node7</title>
<path fill="none" stroke="midnightblue" d="M427.5,-336.08C427.89,-329.01 428.45,-318.86 428.95,-309.99"/>
<polygon fill="midnightblue" stroke="midnightblue" points="432.45,-309.93 429.51,-299.75 425.46,-309.54 432.45,-309.93"/>
</g>
<!-- Node32&#45;&gt;Node3 -->
<g id="edge67" class="edge">
<title>Node32&#45;&gt;Node3</title>
<path fill="none" stroke="midnightblue" d="M836.48,-168.4C833.54,-154.42 825.73,-126.83 808,-112 771.77,-81.7 717.47,-71.52 679.4,-68.25"/>
<polygon fill="midnightblue" stroke="midnightblue" points="679.34,-64.74 669.12,-67.5 678.83,-71.72 679.34,-64.74"/>
</g>
<!-- Node32&#45;&gt;Node9 -->
<g id="edge68" class="edge">
<title>Node32&#45;&gt;Node9</title>
<path fill="none" stroke="midnightblue" d="M820.19,-172.76C781.53,-163.57 689.56,-141.69 641.48,-130.25"/>
<polygon fill="midnightblue" stroke="midnightblue" points="642.18,-126.82 631.64,-127.91 640.56,-133.63 642.18,-126.82"/>
</g>
</g>
</svg>
